<?xml version="1.0" encoding="UTF-8" standalone="no"?>
<!DOCTYPE svg PUBLIC "-//W3C//DTD SVG 1.1//EN"
 "http://www.w3.org/Graphics/SVG/1.1/DTD/svg11.dtd">
<!-- Generated by graphviz version 2.43.0 (0)
 -->
<!-- Title: include/core/log_backend.hpp Pages: 1 -->
<svg width="417pt" height="82pt"
 viewBox="0.00 0.00 417.00 82.00" xmlns="http://www.w3.org/2000/svg" xmlns:xlink="http://www.w3.org/1999/xlink">
<g id="graph0" class="graph" transform="scale(1 1) rotate(0) translate(4 78)">
<title>include/core/log_backend.hpp</title>
<!-- Node1 -->
<g id="Node000001" class="node">
<title>Node1</title>
<g id="a_Node000001"><a xlink:title="Singleton transport that owns the active sink and dispatches log records.">
<polygon fill="#999999" stroke="#666666" points="290.5,-74 129.5,-74 129.5,-55 290.5,-55 290.5,-74"/>
<text text-anchor="middle" x="210" y="-62" font-family="Helvetica,sans-Serif" font-size="10.00">include/core/log_backend.hpp</text>
</a>
</g>
</g>
<!-- Node2 -->
<g id="Node000002" class="node">
<title>Node2</title>
<g id="a_Node000002"><a xlink:href="../../d0/d01/log__level_8hpp.html" target="_top" xlink:title="Severity levels for the logger.">
<polygon fill="white" stroke="#666666" points="82,-19 0,-19 0,0 82,0 82,-19"/>
<text text-anchor="middle" x="41" y="-7" font-family="Helvetica,sans-Serif" font-size="10.00">log_level.hpp</text>
</a>
</g>
</g>
<!-- Node1&#45;&gt;Node2 -->
<g id="edge1_Node000001_Node000002" class="edge">
<title>Node1&#45;&gt;Node2</title>
<g id="a_edge1_Node000001_Node000002"><a xlink:title=" ">
<path fill="none" stroke="#63b8ff" d="M182.85,-54.98C154.47,-46.09 109.77,-32.07 78.14,-22.15"/>
<polygon fill="#63b8ff" stroke="#63b8ff" points="78.95,-18.73 68.37,-19.08 76.86,-25.41 78.95,-18.73"/>
</a>
</g>
</g>
<!-- Node3 -->
<g id="Node000003" class="node">
<title>Node3</title>
<g id="a_Node000003"><a xlink:href="../../da/d67/log__metadata_8hpp.html" target="_top" xlink:title="Compile&#45;time metadata associated with each log call site.">
<polygon fill="white" stroke="#666666" points="205.5,-19 100.5,-19 100.5,0 205.5,0 205.5,-19"/>
<text text-anchor="middle" x="153" y="-7" font-family="Helvetica,sans-Serif" font-size="10.00">log_metadata.hpp</text>
</a>
</g>
</g>
<!-- Node1&#45;&gt;Node3 -->
<g id="edge2_Node000001_Node000003" class="edge">
<title>Node1&#45;&gt;Node3</title>
<g id="a_edge2_Node000001_Node000003"><a xlink:title=" ">
<path fill="none" stroke="#63b8ff" d="M200.84,-54.98C192.5,-47.23 179.97,-35.58 169.82,-26.14"/>
<polygon fill="#63b8ff" stroke="#63b8ff" points="172.03,-23.42 162.32,-19.17 167.26,-28.54 172.03,-23.42"/>
</a>
</g>
</g>
<!-- Node4 -->
<g id="Node000004" class="node">
<title>Node4</title>
<g id="a_Node000004"><a xlink:href="../../d1/d3a/log__record_8hpp.html" target="_top" xlink:title="In&#45;flight log record stored in the transport ring buffer.">
<polygon fill="white" stroke="#666666" points="312.5,-19 223.5,-19 223.5,0 312.5,0 312.5,-19"/>
<text text-anchor="middle" x="268" y="-7" font-family="Helvetica,sans-Serif" font-size="10.00">log_record.hpp</text>
</a>
</g>
</g>
<!-- Node1&#45;&gt;Node4 -->
<g id="edge3_Node000001_Node000004" class="edge">
<title>Node1&#45;&gt;Node4</title>
<g id="a_edge3_Node000001_Node000004"><a xlink:title=" ">
<path fill="none" stroke="#63b8ff" d="M219.32,-54.98C227.81,-47.23 240.56,-35.58 250.88,-26.14"/>
<polygon fill="#63b8ff" stroke="#63b8ff" points="253.49,-28.5 258.51,-19.17 248.77,-23.33 253.49,-28.5"/>
</a>
</g>
</g>
<!-- Node5 -->
<g id="Node000005" class="node">
<title>Node5</title>
<g id="a_Node000005"><a xlink:href="../../d9/d26/log__sink_8hpp.html" target="_top" xlink:title="Abstract sink interface for the logger.">
<polygon fill="white" stroke="#666666" points="409,-19 331,-19 331,0 409,0 409,-19"/>
<text text-anchor="middle" x="370" y="-7" font-family="Helvetica,sans-Serif" font-size="10.00">log_sink.hpp</text>
</a>
</g>
</g>
<!-- Node1&#45;&gt;Node5 -->
<g id="edge4_Node000001_Node000005" class="edge">
<title>Node1&#45;&gt;Node5</title>
<g id="a_edge4_Node000001_Node000005"><a xlink:title=" ">
<path fill="none" stroke="#63b8ff" d="M235.71,-54.98C262.45,-46.13 304.53,-32.19 334.45,-22.28"/>
<polygon fill="#63b8ff" stroke="#63b8ff" points="335.7,-25.55 344.09,-19.08 333.5,-18.9 335.7,-25.55"/>
</a>
</g>
</g>
</g>
</svg>
