<?xml version="1.0" encoding="UTF-8" standalone="no"?>
<!DOCTYPE svg PUBLIC "-//W3C//DTD SVG 1.1//EN"
 "http://www.w3.org/Graphics/SVG/1.1/DTD/svg11.dtd">
<!-- Generated by graphviz version 14.1.2 (0)
 -->
<!-- Title: include/core/log_backend.hpp Pages: 1 -->
<svg width="413pt" height="86pt"
 viewBox="0.00 0.00 413.00 86.00" xmlns="http://www.w3.org/2000/svg" xmlns:xlink="http://www.w3.org/1999/xlink">
<g id="page0,1_graph0" class="graph" transform="scale(1 1) rotate(0) translate(4 81.5)">
<title>include/core/log_backend.hpp</title>
<!-- Node1 -->
<g id="Node000001" class="node">
<title>Node1</title>
<g id="a_Node000001"><a xlink:title="Singleton transport that owns the active sink and dispatches log records.">
<polygon fill="#999999" stroke="#666666" points="288.62,-77.5 128.62,-77.5 128.62,-56.75 288.62,-56.75 288.62,-77.5"/>
<text xml:space="preserve" text-anchor="middle" x="208.62" y="-64" font-family="Helvetica,sans-Serif" font-size="10.00">include/core/log_backend.hpp</text>
</a>
</g>
</g>
<!-- Node2 -->
<g id="Node000002" class="node">
<title>Node2</title>
<g id="a_Node000002"><a xlink:href="../../d0/d01/log__level_8hpp.html" target="_top" xlink:title="Severity levels for the logger.">
<polygon fill="white" stroke="#666666" points="81.25,-20.75 0,-20.75 0,0 81.25,0 81.25,-20.75"/>
<text xml:space="preserve" text-anchor="middle" x="40.62" y="-7.25" font-family="Helvetica,sans-Serif" font-size="10.00">log_level.hpp</text>
</a>
</g>
</g>
<!-- Node1&#45;&gt;Node2 -->
<g id="edge1_Node000001_Node000002" class="edge">
<title>Node1&#45;&gt;Node2</title>
<g id="a_edge1_Node000001_Node000002"><a xlink:title=" ">
<path fill="none" stroke="#63b8ff" d="M178.59,-56.34C151.44,-47.49 111.24,-34.39 81.24,-24.61"/>
<polygon fill="#63b8ff" stroke="#63b8ff" points="82.71,-21.41 72.12,-21.64 80.55,-28.07 82.71,-21.41"/>
</a>
</g>
</g>
<!-- Node3 -->
<g id="Node000003" class="node">
<title>Node3</title>
<g id="a_Node000003"><a xlink:href="../../da/d67/log__metadata_8hpp.html" target="_top" xlink:title="Compile&#45;time metadata associated with each log call site.">
<polygon fill="white" stroke="#666666" points="203.88,-20.75 99.38,-20.75 99.38,0 203.88,0 203.88,-20.75"/>
<text xml:space="preserve" text-anchor="middle" x="151.62" y="-7.25" font-family="Helvetica,sans-Serif" font-size="10.00">log_metadata.hpp</text>
</a>
</g>
</g>
<!-- Node1&#45;&gt;Node3 -->
<g id="edge2_Node000001_Node000003" class="edge">
<title>Node1&#45;&gt;Node3</title>
<g id="a_edge2_Node000001_Node000003"><a xlink:title=" ">
<path fill="none" stroke="#63b8ff" d="M198.43,-56.34C190.49,-48.71 179.26,-37.92 169.79,-28.82"/>
<polygon fill="#63b8ff" stroke="#63b8ff" points="172.46,-26.53 162.82,-22.13 167.61,-31.58 172.46,-26.53"/>
</a>
</g>
</g>
<!-- Node4 -->
<g id="Node000004" class="node">
<title>Node4</title>
<g id="a_Node000004"><a xlink:href="../../d1/d3a/log__record_8hpp.html" target="_top" xlink:title="In&#45;flight log record stored in the transport ring buffer.">
<polygon fill="white" stroke="#666666" points="309.62,-20.75 221.62,-20.75 221.62,0 309.62,0 309.62,-20.75"/>
<text xml:space="preserve" text-anchor="middle" x="265.62" y="-7.25" font-family="Helvetica,sans-Serif" font-size="10.00">log_record.hpp</text>
</a>
</g>
</g>
<!-- Node1&#45;&gt;Node4 -->
<g id="edge3_Node000001_Node000004" class="edge">
<title>Node1&#45;&gt;Node4</title>
<g id="a_edge3_Node000001_Node000004"><a xlink:title=" ">
<path fill="none" stroke="#63b8ff" d="M218.82,-56.34C226.76,-48.71 237.99,-37.92 247.46,-28.82"/>
<polygon fill="#63b8ff" stroke="#63b8ff" points="249.64,-31.58 254.43,-22.13 244.79,-26.53 249.64,-31.58"/>
</a>
</g>
</g>
<!-- Node5 -->
<g id="Node000005" class="node">
<title>Node5</title>
<g id="a_Node000005"><a xlink:href="../../d9/d26/log__sink_8hpp.html" target="_top" xlink:title="Abstract sink interface for the logger.">
<polygon fill="white" stroke="#666666" points="405.38,-20.75 327.88,-20.75 327.88,0 405.38,0 405.38,-20.75"/>
<text xml:space="preserve" text-anchor="middle" x="366.62" y="-7.25" font-family="Helvetica,sans-Serif" font-size="10.00">log_sink.hpp</text>
</a>
</g>
</g>
<!-- Node1&#45;&gt;Node5 -->
<g id="edge4_Node000001_Node000005" class="edge">
<title>Node1&#45;&gt;Node5</title>
<g id="a_edge4_Node000001_Node000005"><a xlink:title=" ">
<path fill="none" stroke="#63b8ff" d="M236.87,-56.34C262.18,-47.57 299.55,-34.62 327.69,-24.87"/>
<polygon fill="#63b8ff" stroke="#63b8ff" points="328.62,-28.25 336.93,-21.67 326.33,-21.63 328.62,-28.25"/>
</a>
</g>
</g>
</g>
</svg>
