<?xml version="1.0" encoding="UTF-8" standalone="no"?>
<!DOCTYPE svg PUBLIC "-//W3C//DTD SVG 1.1//EN"
 "http://www.w3.org/Graphics/SVG/1.1/DTD/svg11.dtd">
<!-- Generated by graphviz version 14.1.2 (0)
 -->
<!-- Title: toy::log::Record Pages: 1 -->
<svg width="250pt" height="117pt"
 viewBox="0.00 0.00 250.00 117.00" xmlns="http://www.w3.org/2000/svg" xmlns:xlink="http://www.w3.org/1999/xlink">
<g id="page0,1_graph0" class="graph" transform="scale(1 1) rotate(0) translate(4 113)">
<title>toy::log::Record</title>
<!-- Node1 -->
<g id="Node000001" class="node">
<title>Node1</title>
<g id="a_Node000001"><a xlink:title="Single log entry in the transport ring buffer.">
<polygon fill="#999999" stroke="#666666" points="163.12,-20.75 71.38,-20.75 71.38,0 163.12,0 163.12,-20.75"/>
<text xml:space="preserve" text-anchor="middle" x="117.25" y="-7.25" font-family="Helvetica,sans-Serif" font-size="10.00">toy::log::Record</text>
</a>
</g>
</g>
<!-- Node2 -->
<g id="Node000002" class="node">
<title>Node2</title>
<g id="a_Node000002"><a xlink:href="../../d8/dfc/structtoy_1_1log_1_1_metadata.html" target="_top" xlink:title="Immutable per&#45;call&#45;site descriptor stored as a static constexpr local.">
<polygon fill="white" stroke="#666666" points="104.5,-102.62 0,-102.62 0,-81.88 104.5,-81.88 104.5,-102.62"/>
<text xml:space="preserve" text-anchor="middle" x="52.25" y="-89.12" font-family="Helvetica,sans-Serif" font-size="10.00">toy::log::Metadata</text>
</a>
</g>
</g>
<!-- Node2&#45;&gt;Node1 -->
<g id="edge1_Node000001_Node000002" class="edge">
<title>Node2&#45;&gt;Node1</title>
<g id="a_edge1_Node000001_Node000002"><a xlink:title=" ">
<path fill="none" stroke="#9a32cd" stroke-dasharray="5,2" d="M67.19,-72.89C80.26,-56.83 98.75,-34.11 109.21,-21.25"/>
<polygon fill="#9a32cd" stroke="#9a32cd" points="64.77,-70.32 61.18,-80.28 70.2,-74.73 64.77,-70.32"/>
</a>
</g>
<text xml:space="preserve" text-anchor="start" x="97.37" y="-45" font-family="Helvetica,sans-Serif" font-size="10.00" fill="grey">meta</text>
</g>
<!-- Node3 -->
<g id="Node000003" class="node">
<title>Node3</title>
<g id="a_Node000003"><a xlink:href="../../d3/d7a/classtoy_1_1_fixed_string.html" target="_top" xlink:title=" ">
<polygon fill="white" stroke="#666666" points="242,-109 122.5,-109 122.5,-75.5 242,-75.5 242,-109"/>
<text xml:space="preserve" text-anchor="start" x="130.5" y="-95.5" font-family="Helvetica,sans-Serif" font-size="10.00">toy::FixedString&lt; c</text>
<text xml:space="preserve" text-anchor="middle" x="182.25" y="-82.75" font-family="Helvetica,sans-Serif" font-size="10.00">_messageCapacity &gt;</text>
</a>
</g>
</g>
<!-- Node3&#45;&gt;Node1 -->
<g id="edge2_Node000001_Node000003" class="edge">
<title>Node3&#45;&gt;Node1</title>
<g id="a_edge2_Node000001_Node000003"><a xlink:title=" ">
<path fill="none" stroke="#9a32cd" stroke-dasharray="5,2" d="M162.12,-66.52C149.6,-51.13 134.19,-32.2 125.08,-20.99"/>
<polygon fill="#9a32cd" stroke="#9a32cd" points="159.11,-68.36 168.14,-73.91 164.54,-63.95 159.11,-68.36"/>
</a>
</g>
<text xml:space="preserve" text-anchor="start" x="156.64" y="-45" font-family="Helvetica,sans-Serif" font-size="10.00" fill="grey">message</text>
</g>
</g>
</svg>
