<?xml version="1.0" encoding="UTF-8" standalone="no"?>
<!DOCTYPE svg PUBLIC "-//W3C//DTD SVG 1.1//EN"
 "http://www.w3.org/Graphics/SVG/1.1/DTD/svg11.dtd">
<!-- Generated by graphviz version 2.43.0 (0)
 -->
<!-- Title: toy::log::Record Pages: 1 -->
<svg width="252pt" height="110pt"
 viewBox="0.00 0.00 251.50 110.00" xmlns="http://www.w3.org/2000/svg" xmlns:xlink="http://www.w3.org/1999/xlink">
<g id="graph0" class="graph" transform="scale(1 1) rotate(0) translate(4 106)">
<title>toy::log::Record</title>
<!-- Node1 -->
<g id="Node000001" class="node">
<title>Node1</title>
<g id="a_Node000001"><a xlink:title="Single log entry in the transport ring buffer.">
<polygon fill="#999999" stroke="#666666" points="163.5,-19 71.5,-19 71.5,0 163.5,0 163.5,-19"/>
<text text-anchor="middle" x="117.5" y="-7" font-family="Helvetica,sans-Serif" font-size="10.00">toy::log::Record</text>
</a>
</g>
</g>
<!-- Node2 -->
<g id="Node000002" class="node">
<title>Node2</title>
<g id="a_Node000002"><a xlink:href="../../d8/dfc/structtoy_1_1log_1_1_metadata.html" target="_top" xlink:title="Immutable per&#45;call&#45;site descriptor stored as a static constexpr local.">
<polygon fill="white" stroke="#666666" points="105,-96.5 0,-96.5 0,-77.5 105,-77.5 105,-96.5"/>
<text text-anchor="middle" x="52.5" y="-84.5" font-family="Helvetica,sans-Serif" font-size="10.00">toy::log::Metadata</text>
</a>
</g>
</g>
<!-- Node2&#45;&gt;Node1 -->
<g id="edge1_Node000001_Node000002" class="edge">
<title>Node2&#45;&gt;Node1</title>
<g id="a_edge1_Node000001_Node000002"><a xlink:title=" ">
<path fill="none" stroke="#9a32cd" stroke-dasharray="5,2" d="M66.66,-69.55C80.05,-54 99.6,-31.29 110.13,-19.06"/>
<polygon fill="#9a32cd" stroke="#9a32cd" points="63.83,-67.48 59.96,-77.34 69.13,-72.04 63.83,-67.48"/>
</a>
</g>
<text text-anchor="start" x="98.5" y="-42.5" font-family="Helvetica,sans-Serif" font-size="10.00" fill="grey">meta</text>
</g>
<!-- Node3 -->
<g id="Node000003" class="node">
<title>Node3</title>
<g id="a_Node000003"><a xlink:href="../../d3/d7a/classtoy_1_1_fixed_string.html" target="_top" xlink:title=" ">
<polygon fill="white" stroke="#666666" points="243.5,-102 123.5,-102 123.5,-72 243.5,-72 243.5,-102"/>
<text text-anchor="start" x="131.5" y="-90" font-family="Helvetica,sans-Serif" font-size="10.00">toy::FixedString&lt; c</text>
<text text-anchor="middle" x="183.5" y="-79" font-family="Helvetica,sans-Serif" font-size="10.00">_messageCapacity &gt;</text>
</a>
</g>
</g>
<!-- Node3&#45;&gt;Node1 -->
<g id="edge2_Node000001_Node000003" class="edge">
<title>Node3&#45;&gt;Node1</title>
<g id="a_edge2_Node000001_Node000003"><a xlink:title=" ">
<path fill="none" stroke="#9a32cd" stroke-dasharray="5,2" d="M164.21,-63.94C151.07,-48.9 134.39,-29.82 124.94,-19.01"/>
<polygon fill="#9a32cd" stroke="#9a32cd" points="161.87,-66.57 171.09,-71.8 167.14,-61.97 161.87,-66.57"/>
</a>
</g>
<text text-anchor="start" x="157" y="-42.5" font-family="Helvetica,sans-Serif" font-size="10.00" fill="grey">message</text>
</g>
</g>
</svg>
