<?xml version="1.0" encoding="UTF-8" standalone="no"?>
<!DOCTYPE svg PUBLIC "-//W3C//DTD SVG 1.1//EN"
 "http://www.w3.org/Graphics/SVG/1.1/DTD/svg11.dtd">
<!-- Generated by graphviz version 2.43.0 (0)
 -->
<!-- Title: include/core/format_string.hpp Pages: 1 -->
<!--zoomable 346 -->

<svg id="main" version="1.1" xmlns="http://www.w3.org/2000/svg" xmlns:xlink="http://www.w3.org/1999/xlink" xml:space="preserve" onload="init(evt)">

<style type="text/css"><![CDATA[
.node, .edge {opacity: 0.7;}
.node.selected, .edge.selected {opacity: 1;}
.edge:hover path { stroke: red; }
.edge:hover polygon { stroke: red; fill: red; }
]]></style>

<defs>
  <circle id="rim" cx="0" cy="0" r="7"/>
  <circle id="rim2" cx="0" cy="0" r="3.5"/>
  <g id="zoomPlus">
    <use xlink:href="#rim" fill="#404040"><set attributeName="fill" to="#808080" begin="zoomplus.mouseover" end="zoomplus.mouseout"/></use>
    <path d="M-4,0h8M0,-4v8" fill="none" stroke="white" stroke-width="1.5" pointer-events="none"/>
  </g>
  <g id="zoomMin">
    <use xlink:href="#rim" fill="#404040"><set attributeName="fill" to="#808080" begin="zoomminus.mouseover" end="zoomminus.mouseout"/></use>
    <path d="M-4,0h8" fill="none" stroke="white" stroke-width="1.5" pointer-events="none"/>
  </g>
  <g id="arrowUp" transform="translate(30 24)">
    <use xlink:href="#rim"/>
    <path pointer-events="none" fill="none" stroke="white" stroke-width="1.5" d="M0,-3.0v7 M-2.5,-0.5L0,-3.0L2.5,-0.5"/>
  </g>
  <g id="arrowRight" transform="rotate(90) translate(36 -43)">
    <use xlink:href="#rim"/>
    <path pointer-events="none" fill="none" stroke="white" stroke-width="1.5" d="M0,-3.0v7 M-2.5,-0.5L0,-3.0L2.5,-0.5"/>
  </g>
  <g id="arrowDown" transform="rotate(180) translate(-30 -48)">
    <use xlink:href="#rim"/>
    <path pointer-events="none" fill="none" stroke="white" stroke-width="1.5" d="M0,-3.0v7 M-2.5,-0.5L0,-3.0L2.5,-0.5"/>
  </g>
  <g id="arrowLeft" transform="rotate(270) translate(-36 17)">
    <use xlink:href="#rim"/>
    <path pointer-events="none" fill="none" stroke="white" stroke-width="1.5" d="M0,-3.0v7 M-2.5,-0.5L0,-3.0L2.5,-0.5"/>
  </g>
  <g id="resetDef">
    <use xlink:href="#rim2" fill="#404040"><set attributeName="fill" to="#808080" begin="reset.mouseover" end="reset.mouseout"/></use>
  </g>
</defs>
<script type="application/ecmascript">
var viewWidth = 2005;
var viewHeight = 346;
var sectionId = 'dynsection-1';
</script>
<script type="application/ecmascript" xlink:href="../../svg.min.js"/>
<svg id="graph" class="graph">
<g id="viewport">
<title>include/core/format_string.hpp</title>
<!-- Node1 -->
<g id="Node000001" class="node">
<title>Node1</title>
<g id="a_Node000001"><a xlink:title="Compile&#45;time validated format&#45;string wrapper for auto {} and positional {N} placeholders.">
<polygon fill="#999999" stroke="#666666" points="1262.75,-338 1150.75,-338 1150.75,-308 1262.75,-308 1262.75,-338"/>
<text text-anchor="start" x="1158.75" y="-326" font-family="Helvetica,sans-Serif" font-size="10.00">include/core/format</text>
<text text-anchor="middle" x="1206.75" y="-315" font-family="Helvetica,sans-Serif" font-size="10.00">_string.hpp</text>
</a>
</g>
</g>
<!-- Node2 -->
<g id="Node000002" class="node">
<title>Node2</title>
<g id="a_Node000002"><a xlink:href="../../da/d47/core_8hpp.html" target="_top" xlink:title="Umbrella header for the engine core module.">
<polygon fill="white" stroke="#666666" points="1255.25,-217 1158.25,-217 1158.25,-198 1255.25,-198 1255.25,-217"/>
<text text-anchor="middle" x="1206.75" y="-205" font-family="Helvetica,sans-Serif" font-size="10.00">include/core.hpp</text>
</a>
</g>
</g>
<!-- Node1&#45;&gt;Node2 -->
<g id="edge1_Node000001_Node000002" class="edge">
<title>Node1&#45;&gt;Node2</title>
<g id="a_edge1_Node000001_Node000002"><a xlink:title=" ">
<path fill="none" stroke="#63b8ff" d="M1189.23,-299.29C1181.12,-286.03 1174.18,-268.85 1178.75,-253 1182.7,-239.32 1192.23,-225.79 1199.08,-217.3"/>
<polygon fill="#63b8ff" stroke="#63b8ff" points="1186.44,-301.41 1194.91,-307.77 1192.26,-297.52 1186.44,-301.41"/>
</a>
</g>
</g>
<!-- Node23 -->
<g id="Node000023" class="node">
<title>Node23</title>
<g id="a_Node000023"><a xlink:href="../../d4/d0a/format_8hpp.html" target="_top" xlink:title="Format functions for substituting arguments into {} and {N} placeholders.">
<polygon fill="white" stroke="#666666" points="1321.25,-272 1188.25,-272 1188.25,-253 1321.25,-253 1321.25,-272"/>
<text text-anchor="middle" x="1254.75" y="-260" font-family="Helvetica,sans-Serif" font-size="10.00">include/core/format.hpp</text>
</a>
</g>
</g>
<!-- Node1&#45;&gt;Node23 -->
<g id="edge30_Node000001_Node000023" class="edge">
<title>Node1&#45;&gt;Node23</title>
<g id="a_edge30_Node000001_Node000023"><a xlink:title=" ">
<path fill="none" stroke="#63b8ff" d="M1224.73,-300.09C1232.66,-290.42 1241.53,-279.61 1247.56,-272.27"/>
<polygon fill="#63b8ff" stroke="#63b8ff" points="1222.01,-297.89 1218.37,-307.84 1227.42,-302.33 1222.01,-297.89"/>
</a>
</g>
</g>
<!-- Node3 -->
<g id="Node000003" class="node">
<title>Node3</title>
<g id="a_Node000003"><a xlink:href="../../d4/d01/application_8hpp.html" target="_top" xlink:title="Umbrella header for the application module.">
<polygon fill="white" stroke="#666666" points="367.75,-156.5 237.75,-156.5 237.75,-137.5 367.75,-137.5 367.75,-156.5"/>
<text text-anchor="middle" x="302.75" y="-144.5" font-family="Helvetica,sans-Serif" font-size="10.00">include/application.hpp</text>
</a>
</g>
</g>
<!-- Node2&#45;&gt;Node3 -->
<g id="edge2_Node000002_Node000003" class="edge">
<title>Node2&#45;&gt;Node3</title>
<g id="a_edge2_Node000002_Node000003"><a xlink:title=" ">
<path fill="none" stroke="#63b8ff" d="M1147.93,-202.69C986.34,-192.24 536.48,-163.13 367.77,-152.21"/>
<polygon fill="#63b8ff" stroke="#63b8ff" points="1147.95,-206.2 1158.15,-203.35 1148.4,-199.22 1147.95,-206.2"/>
</a>
</g>
</g>
<!-- Node4 -->
<g id="Node000004" class="node">
<title>Node4</title>
<g id="a_Node000004"><a xlink:href="../../d8/d8c/toygine2_8hpp.html" target="_top" xlink:title="Main umbrella header for the engine.">
<polygon fill="white" stroke="#666666" points="1002.25,-19 883.25,-19 883.25,0 1002.25,0 1002.25,-19"/>
<text text-anchor="middle" x="942.75" y="-7" font-family="Helvetica,sans-Serif" font-size="10.00">include/toygine2.hpp</text>
</a>
</g>
</g>
<!-- Node2&#45;&gt;Node4 -->
<g id="edge24_Node000002_Node000004" class="edge">
<title>Node2&#45;&gt;Node4</title>
<g id="a_edge24_Node000002_Node000004"><a xlink:title=" ">
<path fill="none" stroke="#63b8ff" d="M1147.8,-204.14C1021.1,-197.61 730.23,-174.21 679.75,-96 669.87,-80.69 667.99,-68.92 679.75,-55 705.27,-24.8 813.75,-15.09 883.17,-11.97"/>
<polygon fill="#63b8ff" stroke="#63b8ff" points="1147.93,-207.65 1158.09,-204.66 1148.27,-200.66 1147.93,-207.65"/>
</a>
</g>
</g>
<!-- Node9 -->
<g id="Node000009" class="node">
<title>Node9</title>
<g id="a_Node000009"><a xlink:href="../../d1/d71/audio_8hpp.html" target="_top" xlink:title="Umbrella header for the audio module.">
<polygon fill="white" stroke="#666666" points="792.25,-85 689.25,-85 689.25,-66 792.25,-66 792.25,-85"/>
<text text-anchor="middle" x="740.75" y="-73" font-family="Helvetica,sans-Serif" font-size="10.00">include/audio.hpp</text>
</a>
</g>
</g>
<!-- Node2&#45;&gt;Node9 -->
<g id="edge8_Node000002_Node000009" class="edge">
<title>Node2&#45;&gt;Node9</title>
<g id="a_edge8_Node000002_Node000009"><a xlink:title=" ">
<path fill="none" stroke="#63b8ff" d="M1147.85,-204.38C1084.2,-200.66 980.51,-190.38 895.75,-162 838.64,-142.87 778.12,-102.92 752.89,-85.24"/>
<polygon fill="#63b8ff" stroke="#63b8ff" points="1147.92,-207.89 1158.09,-204.95 1148.3,-200.9 1147.92,-207.89"/>
</a>
</g>
</g>
<!-- Node10 -->
<g id="Node000010" class="node">
<title>Node10</title>
<g id="a_Node000010"><a xlink:href="../../d8/d39/game_8hpp.html" target="_top" xlink:title="Umbrella header for the game module.">
<polygon fill="white" stroke="#666666" points="914.75,-85 810.75,-85 810.75,-66 914.75,-66 914.75,-85"/>
<text text-anchor="middle" x="862.75" y="-73" font-family="Helvetica,sans-Serif" font-size="10.00">include/game.hpp</text>
</a>
</g>
</g>
<!-- Node2&#45;&gt;Node10 -->
<g id="edge10_Node000002_Node000010" class="edge">
<title>Node2&#45;&gt;Node10</title>
<g id="a_edge10_Node000002_Node000010"><a xlink:title=" ">
<path fill="none" stroke="#63b8ff" d="M1147.92,-201.75C1078.89,-195.35 969.34,-182.36 933.75,-162 900.76,-143.12 876.5,-102.67 867.07,-85.02"/>
<polygon fill="#63b8ff" stroke="#63b8ff" points="1147.94,-205.27 1158.21,-202.69 1148.57,-198.3 1147.94,-205.27"/>
</a>
</g>
</g>
<!-- Node11 -->
<g id="Node000011" class="node">
<title>Node11</title>
<g id="a_Node000011"><a xlink:href="../../d4/d78/math_8hpp.html" target="_top" xlink:title="Umbrella header for the math module.">
<polygon fill="white" stroke="#666666" points="1044.25,-156.5 943.25,-156.5 943.25,-137.5 1044.25,-137.5 1044.25,-156.5"/>
<text text-anchor="middle" x="993.75" y="-144.5" font-family="Helvetica,sans-Serif" font-size="10.00">include/math.hpp</text>
</a>
</g>
</g>
<!-- Node2&#45;&gt;Node11 -->
<g id="edge12_Node000002_Node000011" class="edge">
<title>Node2&#45;&gt;Node11</title>
<g id="a_edge12_Node000002_Node000011"><a xlink:title=" ">
<path fill="none" stroke="#63b8ff" d="M1166.06,-195.32C1124.87,-184.01 1062.09,-166.77 1024.76,-156.52"/>
<polygon fill="#63b8ff" stroke="#63b8ff" points="1165.21,-198.72 1175.78,-197.99 1167.07,-191.97 1165.21,-198.72"/>
</a>
</g>
</g>
<!-- Node13 -->
<g id="Node000013" class="node">
<title>Node13</title>
<g id="a_Node000013"><a xlink:href="../../d6/d67/network_8hpp.html" target="_top" xlink:title="Umbrella header for the network module.">
<polygon fill="white" stroke="#666666" points="1178.75,-156.5 1062.75,-156.5 1062.75,-137.5 1178.75,-137.5 1178.75,-156.5"/>
<text text-anchor="middle" x="1120.75" y="-144.5" font-family="Helvetica,sans-Serif" font-size="10.00">include/network.hpp</text>
</a>
</g>
</g>
<!-- Node2&#45;&gt;Node13 -->
<g id="edge16_Node000002_Node000013" class="edge">
<title>Node2&#45;&gt;Node13</title>
<g id="a_edge16_Node000002_Node000013"><a xlink:title=" ">
<path fill="none" stroke="#63b8ff" d="M1185.67,-192.16C1169.33,-181.05 1147.24,-166.01 1133.5,-156.67"/>
<polygon fill="#63b8ff" stroke="#63b8ff" points="1183.83,-195.14 1194.06,-197.87 1187.76,-189.35 1183.83,-195.14"/>
</a>
</g>
</g>
<!-- Node15 -->
<g id="Node000015" class="node">
<title>Node15</title>
<g id="a_Node000015"><a xlink:href="../../de/dd6/ui_8hpp.html" target="_top" xlink:title="Umbrella header for platform UI types.">
<polygon fill="white" stroke="#666666" points="1436.75,-85 1306.75,-85 1306.75,-66 1436.75,-66 1436.75,-85"/>
<text text-anchor="middle" x="1371.75" y="-73" font-family="Helvetica,sans-Serif" font-size="10.00">include/platform/ui.hpp</text>
</a>
</g>
</g>
<!-- Node2&#45;&gt;Node15 -->
<g id="edge19_Node000002_Node000015" class="edge">
<title>Node2&#45;&gt;Node15</title>
<g id="a_edge19_Node000002_Node000015"><a xlink:title=" ">
<path fill="none" stroke="#63b8ff" d="M1206.87,-187.87C1207.95,-171.3 1212.03,-147.37 1225.75,-132 1241.19,-114.7 1301.15,-95.75 1339.26,-85.07"/>
<polygon fill="#63b8ff" stroke="#63b8ff" points="1203.37,-187.86 1206.52,-197.97 1210.37,-188.1 1203.37,-187.86"/>
</a>
</g>
</g>
<!-- Node16 -->
<g id="Node000016" class="node">
<title>Node16</title>
<g id="a_Node000016"><a xlink:href="../../d6/d4b/render_8hpp.html" target="_top" xlink:title="Umbrella header for the render module.">
<polygon fill="white" stroke="#666666" points="1342.25,-156.5 1235.25,-156.5 1235.25,-137.5 1342.25,-137.5 1342.25,-156.5"/>
<text text-anchor="middle" x="1288.75" y="-144.5" font-family="Helvetica,sans-Serif" font-size="10.00">include/render.hpp</text>
</a>
</g>
</g>
<!-- Node2&#45;&gt;Node16 -->
<g id="edge21_Node000002_Node000016" class="edge">
<title>Node2&#45;&gt;Node16</title>
<g id="a_edge21_Node000002_Node000016"><a xlink:title=" ">
<path fill="none" stroke="#63b8ff" d="M1227.29,-191.85C1242.82,-180.77 1263.63,-165.93 1276.61,-156.67"/>
<polygon fill="#63b8ff" stroke="#63b8ff" points="1224.96,-189.21 1218.85,-197.87 1229.03,-194.91 1224.96,-189.21"/>
</a>
</g>
</g>
<!-- Node18 -->
<g id="Node000018" class="node">
<title>Node18</title>
<g id="a_Node000018"><a xlink:href="../../da/de0/core_8cpp.html" target="_top" xlink:title="Implementation of toy::initialize() and toy::deInitialize() lifecycle functions.">
<polygon fill="white" stroke="#666666" points="1459.25,-156.5 1360.25,-156.5 1360.25,-137.5 1459.25,-137.5 1459.25,-156.5"/>
<text text-anchor="middle" x="1409.75" y="-144.5" font-family="Helvetica,sans-Serif" font-size="10.00">src/core/core.cpp</text>
</a>
</g>
</g>
<!-- Node2&#45;&gt;Node18 -->
<g id="edge25_Node000002_Node000018" class="edge">
<title>Node2&#45;&gt;Node18</title>
<g id="a_edge25_Node000002_Node000018"><a xlink:title=" ">
<path fill="none" stroke="#63b8ff" d="M1246.04,-195.18C1285.3,-183.87 1344.78,-166.72 1380.2,-156.52"/>
<polygon fill="#63b8ff" stroke="#63b8ff" points="1244.91,-191.86 1236.27,-197.99 1246.85,-198.59 1244.91,-191.86"/>
</a>
</g>
</g>
<!-- Node19 -->
<g id="Node000019" class="node">
<title>Node19</title>
<g id="a_Node000019"><a xlink:href="../../db/d2d/hashes_8cpp.html" target="_top" xlink:title="Table&#45;driven implementations of toy::crc8(), toy::crc16(), and toy::crc32().">
<polygon fill="white" stroke="#666666" points="1590.25,-156.5 1477.25,-156.5 1477.25,-137.5 1590.25,-137.5 1590.25,-156.5"/>
<text text-anchor="middle" x="1533.75" y="-144.5" font-family="Helvetica,sans-Serif" font-size="10.00">src/core/hashes.cpp</text>
</a>
</g>
</g>
<!-- Node2&#45;&gt;Node19 -->
<g id="edge26_Node000002_Node000019" class="edge">
<title>Node2&#45;&gt;Node19</title>
<g id="a_edge26_Node000002_Node000019"><a xlink:title=" ">
<path fill="none" stroke="#63b8ff" d="M1265.34,-197.2C1318.32,-188.63 1398.41,-175.26 1467.75,-162 1476.5,-160.33 1485.87,-158.41 1494.72,-156.55"/>
<polygon fill="#63b8ff" stroke="#63b8ff" points="1264.76,-193.75 1255.44,-198.8 1265.87,-200.66 1264.76,-193.75"/>
</a>
</g>
</g>
<!-- Node20 -->
<g id="Node000020" class="node">
<title>Node20</title>
<g id="a_Node000020"><a xlink:href="../../d2/d51/log__sink_8cpp.html" target="_top" xlink:title="Out&#45;of&#45;line definitions for toy::log::ISink.">
<polygon fill="white" stroke="#666666" points="1727.25,-156.5 1608.25,-156.5 1608.25,-137.5 1727.25,-137.5 1727.25,-156.5"/>
<text text-anchor="middle" x="1667.75" y="-144.5" font-family="Helvetica,sans-Serif" font-size="10.00">src/core/log_sink.cpp</text>
</a>
</g>
</g>
<!-- Node2&#45;&gt;Node20 -->
<g id="edge27_Node000002_Node000020" class="edge">
<title>Node2&#45;&gt;Node20</title>
<g id="a_edge27_Node000002_Node000020"><a xlink:title=" ">
<path fill="none" stroke="#63b8ff" d="M1265.49,-201.44C1342.34,-194.46 1481.08,-180.58 1598.75,-162 1608.53,-160.46 1619.03,-158.49 1628.82,-156.52"/>
<polygon fill="#63b8ff" stroke="#63b8ff" points="1265.17,-197.96 1255.52,-202.34 1265.8,-204.93 1265.17,-197.96"/>
</a>
</g>
</g>
<!-- Node21 -->
<g id="Node000021" class="node">
<title>Node21</title>
<g id="a_Node000021"><a xlink:href="../../de/d06/utils_8cpp.html" target="_top" xlink:title="Definitions for string, encoding, and number utilities declared in core/utils.hpp.">
<polygon fill="white" stroke="#666666" points="1844.25,-156.5 1745.25,-156.5 1745.25,-137.5 1844.25,-137.5 1844.25,-156.5"/>
<text text-anchor="middle" x="1794.75" y="-144.5" font-family="Helvetica,sans-Serif" font-size="10.00">src/core/utils.cpp</text>
</a>
</g>
</g>
<!-- Node2&#45;&gt;Node21 -->
<g id="edge28_Node000002_Node000021" class="edge">
<title>Node2&#45;&gt;Node21</title>
<g id="a_edge28_Node000002_Node000021"><a xlink:title=" ">
<path fill="none" stroke="#63b8ff" d="M1265.56,-204.42C1363.57,-200.3 1566.33,-189.07 1735.75,-162 1744.59,-160.59 1754.06,-158.57 1762.78,-156.5"/>
<polygon fill="#63b8ff" stroke="#63b8ff" points="1265.4,-200.92 1255.55,-204.83 1265.68,-207.91 1265.4,-200.92"/>
</a>
</g>
</g>
<!-- Node22 -->
<g id="Node000022" class="node">
<title>Node22</title>
<g id="a_Node000022"><a xlink:href="../../d7/d90/assertion__stub_8cpp.html" target="_top" xlink:title="Stub definitions for the assertion callback API declared in core/assertion.hpp.">
<polygon fill="white" stroke="#666666" points="1997.25,-162 1862.25,-162 1862.25,-132 1997.25,-132 1997.25,-162"/>
<text text-anchor="start" x="1870.25" y="-150" font-family="Helvetica,sans-Serif" font-size="10.00">src/platforms/stub</text>
<text text-anchor="middle" x="1929.75" y="-139" font-family="Helvetica,sans-Serif" font-size="10.00">/core/assertion_stub.cpp</text>
</a>
</g>
</g>
<!-- Node2&#45;&gt;Node22 -->
<g id="edge29_Node000002_Node000022" class="edge">
<title>Node2&#45;&gt;Node22</title>
<g id="a_edge29_Node000002_Node000022"><a xlink:title=" ">
<path fill="none" stroke="#63b8ff" d="M1265.89,-204.68C1379.97,-200.67 1638.19,-189.18 1853.75,-162 1856.42,-161.66 1859.13,-161.3 1861.86,-160.9"/>
<polygon fill="#63b8ff" stroke="#63b8ff" points="1265.51,-201.19 1255.64,-205.03 1265.75,-208.19 1265.51,-201.19"/>
</a>
</g>
</g>
<!-- Node3&#45;&gt;Node4 -->
<g id="edge3_Node000003_Node000004" class="edge">
<title>Node3&#45;&gt;Node4</title>
<g id="a_edge3_Node000003_Node000004"><a xlink:title=" ">
<path fill="none" stroke="#63b8ff" d="M227.34,-144.88C121.57,-140.86 -50.96,-123.94 14.75,-55 44.75,-23.53 682.58,-13.5 883.02,-11.12"/>
<polygon fill="#63b8ff" stroke="#63b8ff" points="227.24,-148.38 237.36,-145.23 227.49,-141.38 227.24,-148.38"/>
</a>
</g>
</g>
<!-- Node5 -->
<g id="Node000005" class="node">
<title>Node5</title>
<g id="a_Node000005"><a xlink:href="../../db/db6/console__application_8cpp.html" target="_top" xlink:title="Implementations for toy::application::ConsoleApplication.">
<polygon fill="white" stroke="#666666" points="151.75,-90.5 23.75,-90.5 23.75,-60.5 151.75,-60.5 151.75,-90.5"/>
<text text-anchor="start" x="31.75" y="-78.5" font-family="Helvetica,sans-Serif" font-size="10.00">src/application/console</text>
<text text-anchor="middle" x="87.75" y="-67.5" font-family="Helvetica,sans-Serif" font-size="10.00">_application.cpp</text>
</a>
</g>
</g>
<!-- Node3&#45;&gt;Node5 -->
<g id="edge4_Node000003_Node000005" class="edge">
<title>Node3&#45;&gt;Node5</title>
<g id="a_edge4_Node000003_Node000005"><a xlink:title=" ">
<path fill="none" stroke="#63b8ff" d="M266.44,-134.26C229.06,-122.18 170.84,-103.36 131.08,-90.51"/>
<polygon fill="#63b8ff" stroke="#63b8ff" points="265.8,-137.73 276.39,-137.48 267.95,-131.07 265.8,-137.73"/>
</a>
</g>
</g>
<!-- Node6 -->
<g id="Node000006" class="node">
<title>Node6</title>
<g id="a_Node000006"><a xlink:href="../../d0/dbb/core__application_8cpp.html" target="_top" xlink:title="Implementations for toy::application::CoreApplication.">
<polygon fill="white" stroke="#666666" points="281.75,-90.5 169.75,-90.5 169.75,-60.5 281.75,-60.5 281.75,-90.5"/>
<text text-anchor="start" x="177.75" y="-78.5" font-family="Helvetica,sans-Serif" font-size="10.00">src/application/core</text>
<text text-anchor="middle" x="225.75" y="-67.5" font-family="Helvetica,sans-Serif" font-size="10.00">_application.cpp</text>
</a>
</g>
</g>
<!-- Node3&#45;&gt;Node6 -->
<g id="edge5_Node000003_Node000006" class="edge">
<title>Node3&#45;&gt;Node6</title>
<g id="a_edge5_Node000003_Node000006"><a xlink:title=" ">
<path fill="none" stroke="#63b8ff" d="M285.81,-130.71C272.57,-118.76 254.32,-102.28 241.42,-90.64"/>
<polygon fill="#63b8ff" stroke="#63b8ff" points="283.54,-133.38 293.31,-137.48 288.23,-128.18 283.54,-133.38"/>
</a>
</g>
</g>
<!-- Node7 -->
<g id="Node000007" class="node">
<title>Node7</title>
<g id="a_Node000007"><a xlink:href="../../d8/d89/core__application__macos_8cpp.html" target="_top" xlink:title="macOS implementations of toy::application::CoreApplication via POSIX APIs.">
<polygon fill="white" stroke="#666666" points="457.25,-96 300.25,-96 300.25,-55 457.25,-55 457.25,-96"/>
<text text-anchor="start" x="308.25" y="-84" font-family="Helvetica,sans-Serif" font-size="10.00">src/platforms/macos</text>
<text text-anchor="start" x="308.25" y="-73" font-family="Helvetica,sans-Serif" font-size="10.00">/application/core_application</text>
<text text-anchor="middle" x="378.75" y="-62" font-family="Helvetica,sans-Serif" font-size="10.00">_macos.cpp</text>
</a>
</g>
</g>
<!-- Node3&#45;&gt;Node7 -->
<g id="edge6_Node000003_Node000007" class="edge">
<title>Node3&#45;&gt;Node7</title>
<g id="a_edge6_Node000003_Node000007"><a xlink:title=" ">
<path fill="none" stroke="#63b8ff" d="M319.76,-130.45C330.83,-120.32 345.37,-107.03 357.24,-96.17"/>
<polygon fill="#63b8ff" stroke="#63b8ff" points="317.09,-128.15 312.07,-137.48 321.81,-133.31 317.09,-128.15"/>
</a>
</g>
</g>
<!-- Node8 -->
<g id="Node000008" class="node">
<title>Node8</title>
<g id="a_Node000008"><a xlink:href="../../db/da8/core__application__stub_8cpp.html" target="_top" xlink:title="Stub implementation of toy::application::CoreApplication::sleep() for platforms without OS sleep supp...">
<polygon fill="white" stroke="#666666" points="632.25,-96 475.25,-96 475.25,-55 632.25,-55 632.25,-96"/>
<text text-anchor="start" x="483.25" y="-84" font-family="Helvetica,sans-Serif" font-size="10.00">src/platforms/stub</text>
<text text-anchor="start" x="483.25" y="-73" font-family="Helvetica,sans-Serif" font-size="10.00">/application/core_application</text>
<text text-anchor="middle" x="553.75" y="-62" font-family="Helvetica,sans-Serif" font-size="10.00">_stub.cpp</text>
</a>
</g>
</g>
<!-- Node3&#45;&gt;Node8 -->
<g id="edge7_Node000003_Node000008" class="edge">
<title>Node3&#45;&gt;Node8</title>
<g id="a_edge7_Node000003_Node000008"><a xlink:title=" ">
<path fill="none" stroke="#63b8ff" d="M343.64,-134.68C381.37,-124.23 438.19,-108.5 483.23,-96.03"/>
<polygon fill="#63b8ff" stroke="#63b8ff" points="342.24,-131.44 333.53,-137.48 344.1,-138.18 342.24,-131.44"/>
</a>
</g>
</g>
<!-- Node9&#45;&gt;Node4 -->
<g id="edge9_Node000009_Node000004" class="edge">
<title>Node9&#45;&gt;Node4</title>
<g id="a_edge9_Node000009_Node000004"><a xlink:title=" ">
<path fill="none" stroke="#63b8ff" d="M777.08,-62.86C785.2,-60.27 793.77,-57.54 801.75,-55 841.39,-42.41 887.32,-27.93 915.71,-19"/>
<polygon fill="#63b8ff" stroke="#63b8ff" points="775.93,-59.56 767.47,-65.94 778.06,-66.22 775.93,-59.56"/>
</a>
</g>
</g>
<!-- Node10&#45;&gt;Node4 -->
<g id="edge11_Node000010_Node000004" class="edge">
<title>Node10&#45;&gt;Node4</title>
<g id="a_edge11_Node000010_Node000004"><a xlink:title=" ">
<path fill="none" stroke="#63b8ff" d="M881.52,-59.49C897.18,-46.96 918.96,-29.54 931.88,-19.2"/>
<polygon fill="#63b8ff" stroke="#63b8ff" points="879.17,-56.89 873.54,-65.87 883.54,-62.35 879.17,-56.89"/>
</a>
</g>
</g>
<!-- Node11&#45;&gt;Node4 -->
<g id="edge15_Node000011_Node000004" class="edge">
<title>Node11&#45;&gt;Node4</title>
<g id="a_edge15_Node000011_Node000004"><a xlink:title=" ">
<path fill="none" stroke="#63b8ff" d="M980.76,-129.01C974.2,-119.71 966.62,-107.71 961.75,-96 950.61,-69.18 945.52,-34.79 943.65,-19.05"/>
<polygon fill="#63b8ff" stroke="#63b8ff" points="978.11,-131.32 986.84,-137.32 983.75,-127.18 978.11,-131.32"/>
</a>
</g>
</g>
<!-- Node12 -->
<g id="Node000012" class="node">
<title>Node12</title>
<g id="a_Node000012"><a xlink:href="../../db/dbb/geometry_8hpp.html" target="_top" xlink:title="Umbrella header for the geometry module.">
<polygon fill="white" stroke="#666666" points="1092.75,-85 970.75,-85 970.75,-66 1092.75,-66 1092.75,-85"/>
<text text-anchor="middle" x="1031.75" y="-73" font-family="Helvetica,sans-Serif" font-size="10.00">include/geometry.hpp</text>
</a>
</g>
</g>
<!-- Node11&#45;&gt;Node12 -->
<g id="edge13_Node000011_Node000012" class="edge">
<title>Node11&#45;&gt;Node12</title>
<g id="a_edge13_Node000011_Node000012"><a xlink:title=" ">
<path fill="none" stroke="#63b8ff" d="M1003.36,-128.43C1010.93,-114.58 1021.17,-95.86 1027.06,-85.09"/>
<polygon fill="#63b8ff" stroke="#63b8ff" points="1000.14,-127.02 998.41,-137.48 1006.28,-130.38 1000.14,-127.02"/>
</a>
</g>
</g>
<!-- Node12&#45;&gt;Node4 -->
<g id="edge14_Node000012_Node000004" class="edge">
<title>Node12&#45;&gt;Node4</title>
<g id="a_edge14_Node000012_Node000004"><a xlink:title=" ">
<path fill="none" stroke="#63b8ff" d="M1011.36,-59.83C993.9,-47.28 969.36,-29.63 954.85,-19.2"/>
<polygon fill="#63b8ff" stroke="#63b8ff" points="1009.59,-62.87 1019.75,-65.87 1013.68,-57.19 1009.59,-62.87"/>
</a>
</g>
</g>
<!-- Node13&#45;&gt;Node4 -->
<g id="edge17_Node000013_Node000004" class="edge">
<title>Node13&#45;&gt;Node4</title>
<g id="a_edge17_Node000013_Node000004"><a xlink:title=" ">
<path fill="none" stroke="#63b8ff" d="M1122.15,-127.22C1122.59,-106.81 1119.99,-74.5 1101.75,-55 1076.4,-27.89 1036.01,-16.82 1002.28,-12.5"/>
<polygon fill="#63b8ff" stroke="#63b8ff" points="1118.64,-127.27 1121.65,-137.43 1125.63,-127.61 1118.64,-127.27"/>
</a>
</g>
</g>
<!-- Node14 -->
<g id="Node000014" class="node">
<title>Node14</title>
<g id="a_Node000014"><a xlink:href="../../d3/d80/endpoint_8cpp.html" target="_top" xlink:title="Definitions for the toy::network::Endpoint destructor declared in network/endpoint....">
<polygon fill="white" stroke="#666666" points="1288.75,-85 1148.75,-85 1148.75,-66 1288.75,-66 1288.75,-85"/>
<text text-anchor="middle" x="1218.75" y="-73" font-family="Helvetica,sans-Serif" font-size="10.00">src/network/endpoint.cpp</text>
</a>
</g>
</g>
<!-- Node13&#45;&gt;Node14 -->
<g id="edge18_Node000013_Node000014" class="edge">
<title>Node13&#45;&gt;Node14</title>
<g id="a_edge18_Node000013_Node000014"><a xlink:title=" ">
<path fill="none" stroke="#63b8ff" d="M1141.1,-131.57C1160.89,-117.54 1190.28,-96.7 1206.64,-85.09"/>
<polygon fill="#63b8ff" stroke="#63b8ff" points="1138.9,-128.84 1132.77,-137.48 1142.95,-134.55 1138.9,-128.84"/>
</a>
</g>
</g>
<!-- Node15&#45;&gt;Node4 -->
<g id="edge20_Node000015_Node000004" class="edge">
<title>Node15&#45;&gt;Node4</title>
<g id="a_edge20_Node000015_Node000004"><a xlink:title=" ">
<path fill="none" stroke="#63b8ff" d="M1332.82,-63.2C1321.58,-60.22 1309.24,-57.22 1297.75,-55 1194.85,-35.08 1073.35,-22.09 1002.49,-15.54"/>
<polygon fill="#63b8ff" stroke="#63b8ff" points="1332.22,-66.67 1342.79,-65.91 1334.06,-59.91 1332.22,-66.67"/>
</a>
</g>
</g>
<!-- Node16&#45;&gt;Node4 -->
<g id="edge22_Node000016_Node000004" class="edge">
<title>Node16&#45;&gt;Node4</title>
<g id="a_edge22_Node000016_Node000004"><a xlink:title=" ">
<path fill="none" stroke="#63b8ff" d="M1332.53,-134.88C1376.54,-123.27 1438.84,-105.45 1445.75,-96 1456.51,-81.29 1458.06,-68.44 1445.75,-55 1416.34,-22.87 1129.42,-13.81 1002.56,-11.36"/>
<polygon fill="#63b8ff" stroke="#63b8ff" points="1331.41,-131.56 1322.62,-137.48 1333.18,-138.33 1331.41,-131.56"/>
</a>
</g>
</g>
<!-- Node17 -->
<g id="Node000017" class="node">
<title>Node17</title>
<g id="a_Node000017"><a xlink:href="../../db/d3d/pixel__format_8cpp.html" target="_top" xlink:title="Definitions for pixelFormatName() and pixelFormatFromName() declared in render/pixel_format....">
<polygon fill="white" stroke="#666666" points="1642.75,-85 1492.75,-85 1492.75,-66 1642.75,-66 1642.75,-85"/>
<text text-anchor="middle" x="1567.75" y="-73" font-family="Helvetica,sans-Serif" font-size="10.00">src/render/pixel_format.cpp</text>
</a>
</g>
</g>
<!-- Node16&#45;&gt;Node17 -->
<g id="edge23_Node000016_Node000017" class="edge">
<title>Node16&#45;&gt;Node17</title>
<g id="a_edge23_Node000016_Node000017"><a xlink:title=" ">
<path fill="none" stroke="#63b8ff" d="M1332.87,-135.01C1388.42,-121.17 1482.69,-97.69 1533.26,-85.09"/>
<polygon fill="#63b8ff" stroke="#63b8ff" points="1331.82,-131.66 1322.97,-137.48 1333.51,-138.46 1331.82,-131.66"/>
</a>
</g>
</g>
<!-- Node23&#45;&gt;Node2 -->
<g id="edge31_Node000023_Node000002" class="edge">
<title>Node23&#45;&gt;Node2</title>
<g id="a_edge31_Node000023_Node000002"><a xlink:title=" ">
<path fill="none" stroke="#63b8ff" d="M1240.03,-245.24C1231.61,-235.95 1221.41,-224.68 1214.53,-217.09"/>
<polygon fill="#63b8ff" stroke="#63b8ff" points="1237.52,-247.69 1246.83,-252.75 1242.71,-242.99 1237.52,-247.69"/>
</a>
</g>
</g>
</g>
</svg>

<g id="navigator" transform="translate(0 0)" fill="#404254">
  <rect fill="#f2f5e9" fill-opacity="0.5" stroke="#606060" stroke-width=".5" x="0" y="0" width="60" height="60"/>
  <use id="zoomplus" xlink:href="#zoomPlus" x="17" y="9" onmousedown="handleZoom(evt,'in')"/>
  <use id="zoomminus" xlink:href="#zoomMin" x="42" y="9" onmousedown="handleZoom(evt,'out')"/>
  <use id="reset" xlink:href="#resetDef" x="30" y="36" onmousedown="handleReset()"/>
   <use id="arrowup" xlink:href="#arrowUp" x="0" y="0" onmousedown="handlePan(0,-1)"/>
  <use id="arrowright" xlink:href="#arrowRight" x="0" y="0" onmousedown="handlePan(1,0)"/>
  <use id="arrowdown" xlink:href="#arrowDown" x="0" y="0" onmousedown="handlePan(0,1)"/>
  <use id="arrowleft" xlink:href="#arrowLeft" x="0" y="0" onmousedown="handlePan(-1,0)"/>
</g>
<svg viewBox="0 0 15 15" width="100%" height="30px" preserveAspectRatio="xMaxYMin meet">
 <g id="arrow_out" transform="scale(0.3 0.3)">
  <a xlink:href="format__string_8hpp__dep__incl_org.svg" target="_base">
   <rect id="button" ry="5" rx="5" y="6" x="6" height="38" width="38"
        fill="#f2f5e9" fill-opacity="0.5" stroke="#606060" stroke-width="1.0"/>
   <path id="arrow"
     d="M 11.500037,31.436501 C 11.940474,20.09759 22.043105,11.32322 32.158766,21.979434 L 37.068811,17.246167 C 37.068811,17.246167 37.088388,32 37.088388,32 L 22.160133,31.978069 C 22.160133,31.978069 26.997745,27.140456 26.997745,27.140456 C 18.528582,18.264221 13.291696,25.230495 11.500037,31.436501 z"
     style="fill:#404040;"/>
  </a>
 </g>
</svg>

<style type='text/css'>
<![CDATA[
[data-mouse-over-selected='false'] { opacity: 0.7; }
[data-mouse-over-selected='true']  { opacity: 1.0; }
]]>
</style>
<script type="application/ecmascript"><![CDATA[
document.addEventListener('DOMContentLoaded', (event) => {
  highlightEdges();
  highlightAdjacentNodes();
});
]]></script>
</svg>
