<?xml version="1.0" encoding="UTF-8" standalone="no"?>
<!DOCTYPE svg PUBLIC "-//W3C//DTD SVG 1.1//EN"
 "http://www.w3.org/Graphics/SVG/1.1/DTD/svg11.dtd">
<!-- Generated by graphviz version 2.43.0 (0)
 -->
<!-- Title: include/math/utils.inl Pages: 1 -->
<svg width="220pt" height="247pt"
 viewBox="0.00 0.00 219.50 247.00" xmlns="http://www.w3.org/2000/svg" xmlns:xlink="http://www.w3.org/1999/xlink">
<g id="graph0" class="graph" transform="scale(1 1) rotate(0) translate(4 243)">
<title>include/math/utils.inl</title>
<!-- Node1 -->
<g id="Node000001" class="node">
<title>Node1</title>
<g id="a_Node000001"><a xlink:title="Inline implementations for utilities declared in math/utils.hpp.">
<polygon fill="#999999" stroke="#666666" points="164.5,-239 45.5,-239 45.5,-220 164.5,-220 164.5,-239"/>
<text text-anchor="middle" x="105" y="-227" font-family="Helvetica,sans-Serif" font-size="10.00">include/math/utils.inl</text>
</a>
</g>
</g>
<!-- Node2 -->
<g id="Node000002" class="node">
<title>Node2</title>
<g id="a_Node000002"><a xlink:href="../../d4/d78/math_8hpp.html" target="_top" xlink:title="Umbrella header for the math module.">
<polygon fill="white" stroke="#666666" points="155.5,-129 54.5,-129 54.5,-110 155.5,-110 155.5,-129"/>
<text text-anchor="middle" x="105" y="-117" font-family="Helvetica,sans-Serif" font-size="10.00">include/math.hpp</text>
</a>
</g>
</g>
<!-- Node1&#45;&gt;Node2 -->
<g id="edge1_Node000001_Node000002" class="edge">
<title>Node1&#45;&gt;Node2</title>
<g id="a_edge1_Node000001_Node000002"><a xlink:title=" ">
<path fill="none" stroke="#63b8ff" d="M92.28,-211.61C87.07,-203.67 81.66,-193.81 79,-184 73.52,-163.76 87.86,-141.34 97.36,-129.3"/>
<polygon fill="#63b8ff" stroke="#63b8ff" points="89.5,-213.75 98.11,-219.93 95.23,-209.73 89.5,-213.75"/>
</a>
</g>
</g>
<!-- Node5 -->
<g id="Node000005" class="node">
<title>Node5</title>
<g id="a_Node000005"><a xlink:href="../../d4/dee/point_8inl.html" target="_top" xlink:title="Inline implementations for toy::math::Point.">
<polygon fill="white" stroke="#666666" points="211.5,-184 88.5,-184 88.5,-165 211.5,-165 211.5,-184"/>
<text text-anchor="middle" x="150" y="-172" font-family="Helvetica,sans-Serif" font-size="10.00">include/math/point.inl</text>
</a>
</g>
</g>
<!-- Node1&#45;&gt;Node5 -->
<g id="edge5_Node000001_Node000005" class="edge">
<title>Node1&#45;&gt;Node5</title>
<g id="a_edge5_Node000001_Node000005"><a xlink:title=" ">
<path fill="none" stroke="#63b8ff" d="M119.05,-211.96C126.89,-202.72 136.33,-191.6 142.71,-184.09"/>
<polygon fill="#63b8ff" stroke="#63b8ff" points="116.24,-209.86 112.43,-219.75 121.57,-214.39 116.24,-209.86"/>
</a>
</g>
</g>
<!-- Node3 -->
<g id="Node000003" class="node">
<title>Node3</title>
<g id="a_Node000003"><a xlink:href="../../db/dbb/geometry_8hpp.html" target="_top" xlink:title="Umbrella header for the geometry module.">
<polygon fill="white" stroke="#666666" points="122,-74 0,-74 0,-55 122,-55 122,-74"/>
<text text-anchor="middle" x="61" y="-62" font-family="Helvetica,sans-Serif" font-size="10.00">include/geometry.hpp</text>
</a>
</g>
</g>
<!-- Node2&#45;&gt;Node3 -->
<g id="edge2_Node000002_Node000003" class="edge">
<title>Node2&#45;&gt;Node3</title>
<g id="a_edge2_Node000002_Node000003"><a xlink:title=" ">
<path fill="none" stroke="#63b8ff" d="M91.27,-101.96C83.6,-92.72 74.37,-81.6 68.13,-74.09"/>
<polygon fill="#63b8ff" stroke="#63b8ff" points="88.65,-104.29 97.73,-109.75 94.04,-99.82 88.65,-104.29"/>
</a>
</g>
</g>
<!-- Node4 -->
<g id="Node000004" class="node">
<title>Node4</title>
<g id="a_Node000004"><a xlink:href="../../d8/d8c/toygine2_8hpp.html" target="_top" xlink:title="Main umbrella header for the engine.">
<polygon fill="white" stroke="#666666" points="164.5,-19 45.5,-19 45.5,0 164.5,0 164.5,-19"/>
<text text-anchor="middle" x="105" y="-7" font-family="Helvetica,sans-Serif" font-size="10.00">include/toygine2.hpp</text>
</a>
</g>
</g>
<!-- Node2&#45;&gt;Node4 -->
<g id="edge4_Node000002_Node000004" class="edge">
<title>Node2&#45;&gt;Node4</title>
<g id="a_edge4_Node000002_Node000004"><a xlink:title=" ">
<path fill="none" stroke="#63b8ff" d="M117.72,-101.61C122.93,-93.67 128.34,-83.81 131,-74 136.48,-53.76 122.14,-31.34 112.64,-19.3"/>
<polygon fill="#63b8ff" stroke="#63b8ff" points="114.77,-99.73 111.89,-109.93 120.5,-103.75 114.77,-99.73"/>
</a>
</g>
</g>
<!-- Node3&#45;&gt;Node4 -->
<g id="edge3_Node000003_Node000004" class="edge">
<title>Node3&#45;&gt;Node4</title>
<g id="a_edge3_Node000003_Node000004"><a xlink:title=" ">
<path fill="none" stroke="#63b8ff" d="M74.73,-46.96C82.4,-37.72 91.63,-26.6 97.87,-19.09"/>
<polygon fill="#63b8ff" stroke="#63b8ff" points="71.96,-44.82 68.27,-54.75 77.35,-49.29 71.96,-44.82"/>
</a>
</g>
</g>
<!-- Node5&#45;&gt;Node2 -->
<g id="edge6_Node000005_Node000002" class="edge">
<title>Node5&#45;&gt;Node2</title>
<g id="a_edge6_Node000005_Node000002"><a xlink:title=" ">
<path fill="none" stroke="#63b8ff" d="M135.95,-156.96C128.11,-147.72 118.67,-136.6 112.29,-129.09"/>
<polygon fill="#63b8ff" stroke="#63b8ff" points="133.43,-159.39 142.57,-164.75 138.76,-154.86 133.43,-159.39"/>
</a>
</g>
</g>
</g>
</svg>
