<?xml version="1.0" encoding="UTF-8" standalone="no"?>
<!DOCTYPE svg PUBLIC "-//W3C//DTD SVG 1.1//EN"
 "http://www.w3.org/Graphics/SVG/1.1/DTD/svg11.dtd">
<!-- Generated by graphviz version 2.43.0 (0)
 -->
<!-- Title: src/platforms/stub/core/assertion_stub.cpp Pages: 1 -->
<svg width="3263pt" height="236pt"
 viewBox="0.00 0.00 3262.50 236.00" xmlns="http://www.w3.org/2000/svg" xmlns:xlink="http://www.w3.org/1999/xlink">
<g id="graph0" class="graph" transform="scale(1 1) rotate(0) translate(4 232)">
<title>src/platforms/stub/core/assertion_stub.cpp</title>
<!-- Node1 -->
<g id="Node000001" class="node">
<title>Node1</title>
<g id="a_Node000001"><a xlink:title="Stub implementation of assertion system for platforms without native assertion support.">
<polygon fill="#999999" stroke="#666666" points="587.5,-228 452.5,-228 452.5,-198 587.5,-198 587.5,-228"/>
<text text-anchor="start" x="460.5" y="-216" font-family="Helvetica,sans-Serif" font-size="10.00">src/platforms/stub</text>
<text text-anchor="middle" x="520" y="-205" font-family="Helvetica,sans-Serif" font-size="10.00">/core/assertion_stub.cpp</text>
</a>
</g>
</g>
<!-- Node2 -->
<g id="Node000002" class="node">
<title>Node2</title>
<g id="a_Node000002"><a xlink:title=" ">
<polygon fill="#e0e0e0" stroke="#999999" points="492,-162 446,-162 446,-143 492,-143 492,-162"/>
<text text-anchor="middle" x="469" y="-150" font-family="Helvetica,sans-Serif" font-size="10.00">cstdio</text>
</a>
</g>
</g>
<!-- Node1&#45;&gt;Node2 -->
<g id="edge1_Node000001_Node000002" class="edge">
<title>Node1&#45;&gt;Node2</title>
<g id="a_edge1_Node000001_Node000002"><a xlink:title=" ">
<path fill="none" stroke="#63b8ff" d="M507.65,-197.84C500.33,-189.43 491,-178.74 483.35,-169.96"/>
<polygon fill="#63b8ff" stroke="#63b8ff" points="485.85,-167.5 476.64,-162.27 480.58,-172.1 485.85,-167.5"/>
</a>
</g>
</g>
<!-- Node3 -->
<g id="Node000003" class="node">
<title>Node3</title>
<g id="a_Node000003"><a xlink:title=" ">
<polygon fill="#e0e0e0" stroke="#999999" points="44,-96 0,-96 0,-77 44,-77 44,-96"/>
<text text-anchor="middle" x="22" y="-84" font-family="Helvetica,sans-Serif" font-size="10.00">string</text>
</a>
</g>
</g>
<!-- Node1&#45;&gt;Node3 -->
<g id="edge2_Node000001_Node000003" class="edge">
<title>Node1&#45;&gt;Node3</title>
<g id="a_edge2_Node000001_Node000003"><a xlink:title=" ">
<path fill="none" stroke="#63b8ff" d="M520.51,-197.86C520.24,-181.86 517.08,-156.31 501,-143 424.04,-79.34 147.78,-138.5 53,-107 49.04,-105.68 45.07,-103.76 41.36,-101.63"/>
<polygon fill="#63b8ff" stroke="#63b8ff" points="43.12,-98.6 32.82,-96.13 39.33,-104.48 43.12,-98.6"/>
</a>
</g>
</g>
<!-- Node4 -->
<g id="Node000004" class="node">
<title>Node4</title>
<g id="a_Node000004"><a xlink:href="../../da/d47/core_8hpp.html" target="_top" xlink:title="Umbrella header for the engine core module.">
<polygon fill="white" stroke="#666666" points="1152.5,-162 1093.5,-162 1093.5,-143 1152.5,-143 1152.5,-162"/>
<text text-anchor="middle" x="1123" y="-150" font-family="Helvetica,sans-Serif" font-size="10.00">core.hpp</text>
</a>
</g>
</g>
<!-- Node1&#45;&gt;Node4 -->
<g id="edge3_Node000001_Node000004" class="edge">
<title>Node1&#45;&gt;Node4</title>
<g id="a_edge3_Node000001_Node000004"><a xlink:title=" ">
<path fill="none" stroke="#63b8ff" d="M587.71,-205.43C714,-193.18 981.84,-167.19 1083.1,-157.37"/>
<polygon fill="#63b8ff" stroke="#63b8ff" points="1083.6,-160.84 1093.21,-156.39 1082.92,-153.87 1083.6,-160.84"/>
</a>
</g>
</g>
<!-- Node4&#45;&gt;Node3 -->
<g id="edge16_Node000004_Node000003" class="edge">
<title>Node4&#45;&gt;Node3</title>
<g id="a_edge16_Node000004_Node000003"><a xlink:title=" ">
<path fill="none" stroke="#63b8ff" d="M1093.46,-151.18C931.49,-149.29 154.69,-138.63 53,-107 48.95,-105.74 44.9,-103.81 41.14,-101.65"/>
<polygon fill="#63b8ff" stroke="#63b8ff" points="42.79,-98.55 32.5,-96.04 38.98,-104.42 42.79,-98.55"/>
</a>
</g>
</g>
<!-- Node5 -->
<g id="Node000005" class="node">
<title>Node5</title>
<g id="a_Node000005"><a xlink:title=" ">
<polygon fill="#e0e0e0" stroke="#999999" points="126,-96 62,-96 62,-77 126,-77 126,-96"/>
<text text-anchor="middle" x="94" y="-84" font-family="Helvetica,sans-Serif" font-size="10.00">algorithm</text>
</a>
</g>
</g>
<!-- Node4&#45;&gt;Node5 -->
<g id="edge4_Node000004_Node000005" class="edge">
<title>Node4&#45;&gt;Node5</title>
<g id="a_edge4_Node000004_Node000005"><a xlink:title=" ">
<path fill="none" stroke="#63b8ff" d="M1093.28,-150.86C938.69,-147.46 229.91,-130.68 135,-107 129.02,-105.51 122.87,-103.11 117.21,-100.5"/>
<polygon fill="#63b8ff" stroke="#63b8ff" points="118.78,-97.37 108.27,-96.02 115.65,-103.63 118.78,-97.37"/>
</a>
</g>
</g>
<!-- Node6 -->
<g id="Node000006" class="node">
<title>Node6</title>
<g id="a_Node000006"><a xlink:title=" ">
<polygon fill="#e0e0e0" stroke="#999999" points="186,-96 144,-96 144,-77 186,-77 186,-96"/>
<text text-anchor="middle" x="165" y="-84" font-family="Helvetica,sans-Serif" font-size="10.00">array</text>
</a>
</g>
</g>
<!-- Node4&#45;&gt;Node6 -->
<g id="edge5_Node000004_Node000006" class="edge">
<title>Node4&#45;&gt;Node6</title>
<g id="a_edge5_Node000004_Node000006"><a xlink:title=" ">
<path fill="none" stroke="#63b8ff" d="M1093.37,-150.97C944.63,-148.2 283.22,-134.43 196,-107 191.95,-105.73 187.91,-103.79 184.14,-101.63"/>
<polygon fill="#63b8ff" stroke="#63b8ff" points="185.8,-98.53 175.51,-96.02 181.99,-104.4 185.8,-98.53"/>
</a>
</g>
</g>
<!-- Node7 -->
<g id="Node000007" class="node">
<title>Node7</title>
<g id="a_Node000007"><a xlink:title=" ">
<polygon fill="#e0e0e0" stroke="#999999" points="263.5,-96 204.5,-96 204.5,-77 263.5,-77 263.5,-96"/>
<text text-anchor="middle" x="234" y="-84" font-family="Helvetica,sans-Serif" font-size="10.00">compare</text>
</a>
</g>
</g>
<!-- Node4&#45;&gt;Node7 -->
<g id="edge6_Node000004_Node000007" class="edge">
<title>Node4&#45;&gt;Node7</title>
<g id="a_edge6_Node000004_Node000007"><a xlink:title=" ">
<path fill="none" stroke="#63b8ff" d="M1093.1,-151.57C961.42,-151.62 432.67,-149.13 273,-107 267.65,-105.59 262.17,-103.39 257.08,-100.97"/>
<polygon fill="#63b8ff" stroke="#63b8ff" points="258.38,-97.7 247.89,-96.2 255.15,-103.92 258.38,-97.7"/>
</a>
</g>
</g>
<!-- Node8 -->
<g id="Node000008" class="node">
<title>Node8</title>
<g id="a_Node000008"><a xlink:title=" ">
<polygon fill="#e0e0e0" stroke="#999999" points="342,-96 282,-96 282,-77 342,-77 342,-96"/>
<text text-anchor="middle" x="312" y="-84" font-family="Helvetica,sans-Serif" font-size="10.00">concepts</text>
</a>
</g>
</g>
<!-- Node4&#45;&gt;Node8 -->
<g id="edge7_Node000004_Node000008" class="edge">
<title>Node4&#45;&gt;Node8</title>
<g id="a_edge7_Node000004_Node000008"><a xlink:title=" ">
<path fill="none" stroke="#63b8ff" d="M1093.43,-151.34C970.05,-150.46 495.99,-144.63 352,-107 346.39,-105.53 340.64,-103.25 335.3,-100.76"/>
<polygon fill="#63b8ff" stroke="#63b8ff" points="336.78,-97.59 326.28,-96.18 333.61,-103.83 336.78,-97.59"/>
</a>
</g>
</g>
<!-- Node9 -->
<g id="Node000009" class="node">
<title>Node9</title>
<g id="a_Node000009"><a xlink:title=" ">
<polygon fill="#e0e0e0" stroke="#999999" points="413.5,-96 360.5,-96 360.5,-77 413.5,-77 413.5,-96"/>
<text text-anchor="middle" x="387" y="-84" font-family="Helvetica,sans-Serif" font-size="10.00">cstddef</text>
</a>
</g>
</g>
<!-- Node4&#45;&gt;Node9 -->
<g id="edge8_Node000004_Node000009" class="edge">
<title>Node4&#45;&gt;Node9</title>
<g id="a_edge8_Node000004_Node000009"><a xlink:title=" ">
<path fill="none" stroke="#63b8ff" d="M1093.4,-151.31C977.14,-150.29 551.88,-144.05 423,-107 418.13,-105.6 413.19,-103.47 408.58,-101.12"/>
<polygon fill="#63b8ff" stroke="#63b8ff" points="410.18,-98.01 399.74,-96.17 406.75,-104.11 410.18,-98.01"/>
</a>
</g>
</g>
<!-- Node10 -->
<g id="Node000010" class="node">
<title>Node10</title>
<g id="a_Node000010"><a xlink:title=" ">
<polygon fill="#e0e0e0" stroke="#999999" points="482,-96 432,-96 432,-77 482,-77 482,-96"/>
<text text-anchor="middle" x="457" y="-84" font-family="Helvetica,sans-Serif" font-size="10.00">cstdint</text>
</a>
</g>
</g>
<!-- Node4&#45;&gt;Node10 -->
<g id="edge9_Node000004_Node000010" class="edge">
<title>Node4&#45;&gt;Node10</title>
<g id="a_edge9_Node000004_Node000010"><a xlink:title=" ">
<path fill="none" stroke="#63b8ff" d="M1093.32,-151.16C984.22,-149.65 605.83,-141.96 491,-107 486.48,-105.63 481.92,-103.56 477.66,-101.29"/>
<polygon fill="#63b8ff" stroke="#63b8ff" points="479.37,-98.23 468.98,-96.15 475.8,-104.25 479.37,-98.23"/>
</a>
</g>
</g>
<!-- Node11 -->
<g id="Node000011" class="node">
<title>Node11</title>
<g id="a_Node000011"><a xlink:title=" ">
<polygon fill="#e0e0e0" stroke="#999999" points="550,-96 500,-96 500,-77 550,-77 550,-96"/>
<text text-anchor="middle" x="525" y="-84" font-family="Helvetica,sans-Serif" font-size="10.00">cstring</text>
</a>
</g>
</g>
<!-- Node4&#45;&gt;Node11 -->
<g id="edge10_Node000004_Node000011" class="edge">
<title>Node4&#45;&gt;Node11</title>
<g id="a_edge10_Node000004_Node000011"><a xlink:title=" ">
<path fill="none" stroke="#63b8ff" d="M1093.48,-150.82C992.48,-148.26 661.36,-137.64 560,-107 555.38,-105.6 550.69,-103.53 546.32,-101.25"/>
<polygon fill="#63b8ff" stroke="#63b8ff" points="547.79,-98.06 537.37,-96.12 544.3,-104.13 547.79,-98.06"/>
</a>
</g>
</g>
<!-- Node12 -->
<g id="Node000012" class="node">
<title>Node12</title>
<g id="a_Node000012"><a xlink:title=" ">
<polygon fill="#e0e0e0" stroke="#999999" points="617.5,-96 568.5,-96 568.5,-77 617.5,-77 617.5,-96"/>
<text text-anchor="middle" x="593" y="-84" font-family="Helvetica,sans-Serif" font-size="10.00">cuchar</text>
</a>
</g>
</g>
<!-- Node4&#45;&gt;Node12 -->
<g id="edge11_Node000004_Node000012" class="edge">
<title>Node4&#45;&gt;Node12</title>
<g id="a_edge11_Node000004_Node000012"><a xlink:title=" ">
<path fill="none" stroke="#63b8ff" d="M1093.48,-150.51C1000.54,-147.13 714.93,-134.69 627,-107 622.5,-105.58 617.94,-103.5 613.68,-101.22"/>
<polygon fill="#63b8ff" stroke="#63b8ff" points="615.39,-98.16 605,-96.09 611.83,-104.19 615.39,-98.16"/>
</a>
</g>
</g>
<!-- Node13 -->
<g id="Node000013" class="node">
<title>Node13</title>
<g id="a_Node000013"><a xlink:title=" ">
<polygon fill="#e0e0e0" stroke="#999999" points="718.5,-96 635.5,-96 635.5,-77 718.5,-77 718.5,-96"/>
<text text-anchor="middle" x="677" y="-84" font-family="Helvetica,sans-Serif" font-size="10.00">initializer_list</text>
</a>
</g>
</g>
<!-- Node4&#45;&gt;Node13 -->
<g id="edge12_Node000004_Node000013" class="edge">
<title>Node4&#45;&gt;Node13</title>
<g id="a_edge12_Node000004_Node000013"><a xlink:title=" ">
<path fill="none" stroke="#63b8ff" d="M1093.32,-150.71C1026.93,-148.39 861.77,-139.55 728,-107 720.53,-105.18 712.67,-102.56 705.42,-99.82"/>
<polygon fill="#63b8ff" stroke="#63b8ff" points="706.59,-96.52 696.01,-96.08 704.01,-103.03 706.59,-96.52"/>
</a>
</g>
</g>
<!-- Node14 -->
<g id="Node000014" class="node">
<title>Node14</title>
<g id="a_Node000014"><a xlink:title=" ">
<polygon fill="#e0e0e0" stroke="#999999" points="789.5,-96 736.5,-96 736.5,-77 789.5,-77 789.5,-96"/>
<text text-anchor="middle" x="763" y="-84" font-family="Helvetica,sans-Serif" font-size="10.00">iterator</text>
</a>
</g>
</g>
<!-- Node4&#45;&gt;Node14 -->
<g id="edge13_Node000004_Node000014" class="edge">
<title>Node4&#45;&gt;Node14</title>
<g id="a_edge13_Node000004_Node000014"><a xlink:title=" ">
<path fill="none" stroke="#63b8ff" d="M1093.16,-150.95C1035.09,-149.12 903.41,-141.19 799,-107 794.39,-105.49 789.68,-103.4 785.25,-101.15"/>
<polygon fill="#63b8ff" stroke="#63b8ff" points="786.6,-97.89 776.16,-96.11 783.21,-104.02 786.6,-97.89"/>
</a>
</g>
</g>
<!-- Node15 -->
<g id="Node000015" class="node">
<title>Node15</title>
<g id="a_Node000015"><a xlink:title=" ">
<polygon fill="#e0e0e0" stroke="#999999" points="866,-96 808,-96 808,-77 866,-77 866,-96"/>
<text text-anchor="middle" x="837" y="-84" font-family="Helvetica,sans-Serif" font-size="10.00">memory</text>
</a>
</g>
</g>
<!-- Node4&#45;&gt;Node15 -->
<g id="edge14_Node000004_Node000015" class="edge">
<title>Node4&#45;&gt;Node15</title>
<g id="a_edge14_Node000004_Node000015"><a xlink:title=" ">
<path fill="none" stroke="#63b8ff" d="M1093.43,-148.92C1046.4,-144.22 952.08,-132.29 876,-107 870.92,-105.31 865.68,-103.07 860.74,-100.71"/>
<polygon fill="#63b8ff" stroke="#63b8ff" points="862.26,-97.55 851.76,-96.13 859.08,-103.79 862.26,-97.55"/>
</a>
</g>
</g>
<!-- Node16 -->
<g id="Node000016" class="node">
<title>Node16</title>
<g id="a_Node000016"><a xlink:title=" ">
<polygon fill="#e0e0e0" stroke="#999999" points="949.5,-96 884.5,-96 884.5,-77 949.5,-77 949.5,-96"/>
<text text-anchor="middle" x="917" y="-84" font-family="Helvetica,sans-Serif" font-size="10.00">stdexcept</text>
</a>
</g>
</g>
<!-- Node4&#45;&gt;Node16 -->
<g id="edge15_Node000004_Node000016" class="edge">
<title>Node4&#45;&gt;Node16</title>
<g id="a_edge15_Node000004_Node000016"><a xlink:title=" ">
<path fill="none" stroke="#63b8ff" d="M1093.2,-145.02C1059.97,-137.43 1004.87,-123.73 959,-107 953.85,-105.12 948.45,-102.86 943.32,-100.55"/>
<polygon fill="#63b8ff" stroke="#63b8ff" points="944.43,-97.2 933.89,-96.14 941.47,-103.54 944.43,-97.2"/>
</a>
</g>
</g>
<!-- Node17 -->
<g id="Node000017" class="node">
<title>Node17</title>
<g id="a_Node000017"><a xlink:title=" ">
<polygon fill="#e0e0e0" stroke="#999999" points="1036.5,-96 967.5,-96 967.5,-77 1036.5,-77 1036.5,-96"/>
<text text-anchor="middle" x="1002" y="-84" font-family="Helvetica,sans-Serif" font-size="10.00">type_traits</text>
</a>
</g>
</g>
<!-- Node4&#45;&gt;Node17 -->
<g id="edge17_Node000004_Node000017" class="edge">
<title>Node4&#45;&gt;Node17</title>
<g id="a_edge17_Node000004_Node000017"><a xlink:title=" ">
<path fill="none" stroke="#63b8ff" d="M1106.68,-142.87C1086.29,-132.09 1051.19,-113.52 1027.3,-100.88"/>
<polygon fill="#63b8ff" stroke="#63b8ff" points="1028.92,-97.78 1018.45,-96.2 1025.65,-103.97 1028.92,-97.78"/>
</a>
</g>
</g>
<!-- Node18 -->
<g id="Node000018" class="node">
<title>Node18</title>
<g id="a_Node000018"><a xlink:title=" ">
<polygon fill="#e0e0e0" stroke="#999999" points="1099.5,-96 1054.5,-96 1054.5,-77 1099.5,-77 1099.5,-96"/>
<text text-anchor="middle" x="1077" y="-84" font-family="Helvetica,sans-Serif" font-size="10.00">utility</text>
</a>
</g>
</g>
<!-- Node4&#45;&gt;Node18 -->
<g id="edge18_Node000004_Node000018" class="edge">
<title>Node4&#45;&gt;Node18</title>
<g id="a_edge18_Node000004_Node000018"><a xlink:title=" ">
<path fill="none" stroke="#63b8ff" d="M1116.8,-142.87C1109.77,-133.09 1098.15,-116.92 1089.27,-104.58"/>
<polygon fill="#63b8ff" stroke="#63b8ff" points="1092.08,-102.48 1083.4,-96.41 1086.39,-106.57 1092.08,-102.48"/>
</a>
</g>
</g>
<!-- Node19 -->
<g id="Node000019" class="node">
<title>Node19</title>
<g id="a_Node000019"><a xlink:href="../../d3/d60/platform_8hpp.html" target="_top" xlink:title="Platform and CPU architecture enumerations with compile&#45;time and runtime detection utilities.">
<polygon fill="white" stroke="#666666" points="1222,-96 1118,-96 1118,-77 1222,-77 1222,-96"/>
<text text-anchor="middle" x="1170" y="-84" font-family="Helvetica,sans-Serif" font-size="10.00">core/platform.hpp</text>
</a>
</g>
</g>
<!-- Node4&#45;&gt;Node19 -->
<g id="edge19_Node000004_Node000019" class="edge">
<title>Node4&#45;&gt;Node19</title>
<g id="a_edge19_Node000004_Node000019"><a xlink:title=" ">
<path fill="none" stroke="#63b8ff" d="M1129.34,-142.87C1136.52,-133.09 1148.39,-116.92 1157.46,-104.58"/>
<polygon fill="#63b8ff" stroke="#63b8ff" points="1160.36,-106.54 1163.46,-96.41 1154.72,-102.39 1160.36,-106.54"/>
</a>
</g>
</g>
<!-- Node20 -->
<g id="Node000020" class="node">
<title>Node20</title>
<g id="a_Node000020"><a xlink:href="../../dd/d9e/linux_2platform__config_8hpp.html" target="_top" xlink:title="additional linux platform header">
<polygon fill="white" stroke="#666666" points="1395.5,-107 1240.5,-107 1240.5,-66 1395.5,-66 1395.5,-107"/>
<text text-anchor="start" x="1248.5" y="-95" font-family="Helvetica,sans-Serif" font-size="10.00">/home/runner/work/toygine2</text>
<text text-anchor="start" x="1248.5" y="-84" font-family="Helvetica,sans-Serif" font-size="10.00">/toygine2/src/platforms</text>
<text text-anchor="middle" x="1318" y="-73" font-family="Helvetica,sans-Serif" font-size="10.00">/linux/platform_config.hpp</text>
</a>
</g>
</g>
<!-- Node4&#45;&gt;Node20 -->
<g id="edge20_Node000004_Node000020" class="edge">
<title>Node4&#45;&gt;Node20</title>
<g id="a_edge20_Node000004_Node000020"><a xlink:title=" ">
<path fill="none" stroke="#63b8ff" d="M1149.3,-142.87C1174.77,-134.51 1214.48,-121.48 1248.98,-110.15"/>
<polygon fill="#63b8ff" stroke="#63b8ff" points="1250.15,-113.45 1258.56,-107.01 1247.97,-106.8 1250.15,-113.45"/>
</a>
</g>
</g>
<!-- Node22 -->
<g id="Node000022" class="node">
<title>Node22</title>
<g id="a_Node000022"><a xlink:href="../../d5/d96/assertion_8hpp.html" target="_top" xlink:title="Assertion system for runtime and compile&#45;time validation of engine invariants.">
<polygon fill="white" stroke="#666666" points="1520.5,-96 1413.5,-96 1413.5,-77 1520.5,-77 1520.5,-96"/>
<text text-anchor="middle" x="1467" y="-84" font-family="Helvetica,sans-Serif" font-size="10.00">core/assertion.hpp</text>
</a>
</g>
</g>
<!-- Node4&#45;&gt;Node22 -->
<g id="edge22_Node000004_Node000022" class="edge">
<title>Node4&#45;&gt;Node22</title>
<g id="a_edge22_Node000004_Node000022"><a xlink:title=" ">
<path fill="none" stroke="#63b8ff" d="M1152.51,-148.3C1204.14,-142.39 1314.05,-128.36 1405,-107 1414.18,-104.84 1423.97,-102.02 1433,-99.19"/>
<polygon fill="#63b8ff" stroke="#63b8ff" points="1434.35,-102.43 1442.79,-96.03 1432.2,-95.77 1434.35,-102.43"/>
</a>
</g>
</g>
<!-- Node23 -->
<g id="Node000023" class="node">
<title>Node23</title>
<g id="a_Node000023"><a xlink:href="../../dd/ded/c__string__view_8hpp.html" target="_top" xlink:title="Non&#45;owning string view class for C&#45;style strings.">
<polygon fill="white" stroke="#666666" points="1667,-96 1539,-96 1539,-77 1667,-77 1667,-96"/>
<text text-anchor="middle" x="1603" y="-84" font-family="Helvetica,sans-Serif" font-size="10.00">core/c_string_view.hpp</text>
</a>
</g>
</g>
<!-- Node4&#45;&gt;Node23 -->
<g id="edge23_Node000004_Node000023" class="edge">
<title>Node4&#45;&gt;Node23</title>
<g id="a_edge23_Node000004_Node000023"><a xlink:title=" ">
<path fill="none" stroke="#63b8ff" d="M1152.59,-149.81C1220.03,-145.63 1390.09,-133.18 1530,-107 1541.55,-104.84 1553.96,-101.8 1565.2,-98.77"/>
<polygon fill="#63b8ff" stroke="#63b8ff" points="1566.45,-102.05 1575.15,-96.01 1564.58,-95.31 1566.45,-102.05"/>
</a>
</g>
</g>
<!-- Node24 -->
<g id="Node000024" class="node">
<title>Node24</title>
<g id="a_Node000024"><a xlink:href="../../d1/d5c/callbacks__pool_8hpp.html" target="_top" xlink:title="Template callback pool class with fixed&#45;size callback storage.">
<polygon fill="white" stroke="#666666" points="1819,-96 1685,-96 1685,-77 1819,-77 1819,-96"/>
<text text-anchor="middle" x="1752" y="-84" font-family="Helvetica,sans-Serif" font-size="10.00">core/callbacks_pool.hpp</text>
</a>
</g>
</g>
<!-- Node4&#45;&gt;Node24 -->
<g id="edge24_Node000004_Node000024" class="edge">
<title>Node4&#45;&gt;Node24</title>
<g id="a_edge24_Node000004_Node000024"><a xlink:title=" ">
<path fill="none" stroke="#63b8ff" d="M1152.59,-150.89C1235.67,-148.81 1477.93,-140.13 1676,-107 1688.39,-104.93 1701.71,-101.82 1713.68,-98.69"/>
<polygon fill="#63b8ff" stroke="#63b8ff" points="1714.63,-102.06 1723.38,-96.08 1712.81,-95.3 1714.63,-102.06"/>
</a>
</g>
</g>
<!-- Node25 -->
<g id="Node000025" class="node">
<title>Node25</title>
<g id="a_Node000025"><a xlink:href="../../d4/dc0/constexpr__utils_8hpp.html" target="_top" xlink:title="Constexpr utility functions for compile&#45;time operations.">
<polygon fill="white" stroke="#666666" points="1973,-96 1837,-96 1837,-77 1973,-77 1973,-96"/>
<text text-anchor="middle" x="1905" y="-84" font-family="Helvetica,sans-Serif" font-size="10.00">core/constexpr_utils.hpp</text>
</a>
</g>
</g>
<!-- Node4&#45;&gt;Node25 -->
<g id="edge25_Node000004_Node000025" class="edge">
<title>Node4&#45;&gt;Node25</title>
<g id="a_edge25_Node000004_Node000025"><a xlink:title=" ">
<path fill="none" stroke="#63b8ff" d="M1152.77,-151.58C1250.28,-151.44 1568.72,-147.66 1828,-107 1840.67,-105.01 1854.29,-101.9 1866.5,-98.74"/>
<polygon fill="#63b8ff" stroke="#63b8ff" points="1867.62,-102.06 1876.38,-96.09 1865.81,-95.3 1867.62,-102.06"/>
</a>
</g>
</g>
<!-- Node26 -->
<g id="Node000026" class="node">
<title>Node26</title>
<g id="a_Node000026"><a xlink:href="../../d7/d7f/fixed__string_8hpp.html" target="_top" xlink:title="Template string class with fixed&#45;size character buffer.">
<polygon fill="white" stroke="#666666" points="2109,-96 1991,-96 1991,-77 2109,-77 2109,-96"/>
<text text-anchor="middle" x="2050" y="-84" font-family="Helvetica,sans-Serif" font-size="10.00">core/fixed_string.hpp</text>
</a>
</g>
</g>
<!-- Node4&#45;&gt;Node26 -->
<g id="edge26_Node000004_Node000026" class="edge">
<title>Node4&#45;&gt;Node26</title>
<g id="a_edge26_Node000004_Node000026"><a xlink:title=" ">
<path fill="none" stroke="#63b8ff" d="M1152.62,-150.87C1284.28,-147.93 1817.22,-134.53 1982,-107 1993.11,-105.14 2004.98,-102.12 2015.65,-98.99"/>
<polygon fill="#63b8ff" stroke="#63b8ff" points="2016.9,-102.27 2025.44,-96.01 2014.86,-95.58 2016.9,-102.27"/>
</a>
</g>
</g>
<!-- Node27 -->
<g id="Node000027" class="node">
<title>Node27</title>
<g id="a_Node000027"><a xlink:href="../../d7/dea/fixed__vector_8hpp.html" target="_top" xlink:title="TODO.">
<polygon fill="white" stroke="#666666" points="2247,-96 2127,-96 2127,-77 2247,-77 2247,-96"/>
<text text-anchor="middle" x="2187" y="-84" font-family="Helvetica,sans-Serif" font-size="10.00">core/fixed_vector.hpp</text>
</a>
</g>
</g>
<!-- Node4&#45;&gt;Node27 -->
<g id="edge27_Node000004_Node000027" class="edge">
<title>Node4&#45;&gt;Node27</title>
<g id="a_edge27_Node000004_Node000027"><a xlink:title=" ">
<path fill="none" stroke="#63b8ff" d="M1152.84,-151.09C1297.33,-148.98 1925.1,-138.14 2118,-107 2129.38,-105.16 2141.57,-102.1 2152.48,-98.94"/>
<polygon fill="#63b8ff" stroke="#63b8ff" points="2153.51,-102.28 2162.08,-96.05 2151.49,-95.58 2153.51,-102.28"/>
</a>
</g>
</g>
<!-- Node28 -->
<g id="Node000028" class="node">
<title>Node28</title>
<g id="a_Node000028"><a xlink:href="../../dd/d8e/hashes_8hpp.html" target="_top" xlink:title="CRC hash functions.">
<polygon fill="white" stroke="#666666" points="2361,-96 2265,-96 2265,-77 2361,-77 2361,-96"/>
<text text-anchor="middle" x="2313" y="-84" font-family="Helvetica,sans-Serif" font-size="10.00">core/hashes.hpp</text>
</a>
</g>
</g>
<!-- Node4&#45;&gt;Node28 -->
<g id="edge28_Node000004_Node000028" class="edge">
<title>Node4&#45;&gt;Node28</title>
<g id="a_edge28_Node000004_Node000028"><a xlink:title=" ">
<path fill="none" stroke="#63b8ff" d="M1152.52,-151.5C1308.24,-151.3 2035.27,-148.18 2256,-107 2265.02,-105.32 2274.54,-102.5 2283.17,-99.52"/>
<polygon fill="#63b8ff" stroke="#63b8ff" points="2284.61,-102.72 2292.81,-96.01 2282.21,-96.15 2284.61,-102.72"/>
</a>
</g>
</g>
<!-- Node29 -->
<g id="Node000029" class="node">
<title>Node29</title>
<g id="a_Node000029"><a xlink:href="../../df/d93/utils_8hpp.html" target="_top" xlink:title="Core utility functions for string manipulation, encoding conversion, and number formatting.">
<polygon fill="white" stroke="#666666" points="2462.5,-96 2379.5,-96 2379.5,-77 2462.5,-77 2462.5,-96"/>
<text text-anchor="middle" x="2421" y="-84" font-family="Helvetica,sans-Serif" font-size="10.00">core/utils.hpp</text>
</a>
</g>
</g>
<!-- Node4&#45;&gt;Node29 -->
<g id="edge29_Node000004_Node000029" class="edge">
<title>Node4&#45;&gt;Node29</title>
<g id="a_edge29_Node000004_Node000029"><a xlink:title=" ">
<path fill="none" stroke="#63b8ff" d="M1152.76,-151.76C1318.25,-153.01 2126.53,-156.47 2370,-107 2377.88,-105.4 2386.14,-102.72 2393.66,-99.85"/>
<polygon fill="#63b8ff" stroke="#63b8ff" points="2395.08,-103.05 2403.02,-96.04 2392.44,-96.56 2395.08,-103.05"/>
</a>
</g>
</g>
<!-- Node30 -->
<g id="Node000030" class="node">
<title>Node30</title>
<g id="a_Node000030"><a xlink:href="../../df/d4a/c__string__view_8inl.html" target="_top" xlink:title="Inline implementations for CStringView class.">
<polygon fill="white" stroke="#666666" points="2603,-96 2481,-96 2481,-77 2603,-77 2603,-96"/>
<text text-anchor="middle" x="2542" y="-84" font-family="Helvetica,sans-Serif" font-size="10.00">core/c_string_view.inl</text>
</a>
</g>
</g>
<!-- Node4&#45;&gt;Node30 -->
<g id="edge30_Node000004_Node000030" class="edge">
<title>Node4&#45;&gt;Node30</title>
<g id="a_edge30_Node000004_Node000030"><a xlink:title=" ">
<path fill="none" stroke="#63b8ff" d="M1152.54,-151.48C1325.18,-151.24 2205.06,-147.98 2472,-107 2483.65,-105.21 2496.11,-102.13 2507.25,-98.94"/>
<polygon fill="#63b8ff" stroke="#63b8ff" points="2508.47,-102.23 2517.05,-96.02 2506.46,-95.53 2508.47,-102.23"/>
</a>
</g>
</g>
<!-- Node31 -->
<g id="Node000031" class="node">
<title>Node31</title>
<g id="a_Node000031"><a xlink:href="../../d6/ddb/callbacks__pool_8inl.html" target="_top" xlink:title="Inline implementations for template callback pool class with fixed&#45;size callback storage.">
<polygon fill="white" stroke="#666666" points="2749,-96 2621,-96 2621,-77 2749,-77 2749,-96"/>
<text text-anchor="middle" x="2685" y="-84" font-family="Helvetica,sans-Serif" font-size="10.00">core/callbacks_pool.inl</text>
</a>
</g>
</g>
<!-- Node4&#45;&gt;Node31 -->
<g id="edge31_Node000004_Node000031" class="edge">
<title>Node4&#45;&gt;Node31</title>
<g id="a_edge31_Node000004_Node000031"><a xlink:title=" ">
<path fill="none" stroke="#63b8ff" d="M1152.57,-151.55C1335.56,-151.7 2315.49,-150.44 2612,-107 2624.25,-105.21 2637.38,-102.09 2649.09,-98.86"/>
<polygon fill="#63b8ff" stroke="#63b8ff" points="2650.31,-102.15 2658.95,-96.03 2648.37,-95.42 2650.31,-102.15"/>
</a>
</g>
</g>
<!-- Node32 -->
<g id="Node000032" class="node">
<title>Node32</title>
<g id="a_Node000032"><a xlink:href="../../dc/d28/constexpr__utils_8inl.html" target="_top" xlink:title="Inline implementations for constexpr utility functions.">
<polygon fill="white" stroke="#666666" points="2897,-96 2767,-96 2767,-77 2897,-77 2897,-96"/>
<text text-anchor="middle" x="2832" y="-84" font-family="Helvetica,sans-Serif" font-size="10.00">core/constexpr_utils.inl</text>
</a>
</g>
</g>
<!-- Node4&#45;&gt;Node32 -->
<g id="edge32_Node000004_Node000032" class="edge">
<title>Node4&#45;&gt;Node32</title>
<g id="a_edge32_Node000004_Node000032"><a xlink:title=" ">
<path fill="none" stroke="#63b8ff" d="M1152.6,-151.63C1345.92,-152.3 2430.71,-153.93 2758,-107 2770.53,-105.2 2783.99,-102.04 2795.95,-98.78"/>
<polygon fill="#63b8ff" stroke="#63b8ff" points="2796.92,-102.14 2805.59,-96.04 2795.01,-95.41 2796.92,-102.14"/>
</a>
</g>
</g>
<!-- Node33 -->
<g id="Node000033" class="node">
<title>Node33</title>
<g id="a_Node000033"><a xlink:href="../../d7/d40/fixed__string_8inl.html" target="_top" xlink:title="Inline implementations for FixedString template class.">
<polygon fill="white" stroke="#666666" points="3027,-96 2915,-96 2915,-77 3027,-77 3027,-96"/>
<text text-anchor="middle" x="2971" y="-84" font-family="Helvetica,sans-Serif" font-size="10.00">core/fixed_string.inl</text>
</a>
</g>
</g>
<!-- Node4&#45;&gt;Node33 -->
<g id="edge33_Node000004_Node000033" class="edge">
<title>Node4&#45;&gt;Node33</title>
<g id="a_edge33_Node000004_Node000033"><a xlink:title=" ">
<path fill="none" stroke="#63b8ff" d="M1152.7,-151.24C1371.17,-149.23 2726.16,-135.69 2906,-107 2916.65,-105.3 2927.98,-102.33 2938.16,-99.2"/>
<polygon fill="#63b8ff" stroke="#63b8ff" points="2939.44,-102.47 2947.88,-96.07 2937.29,-95.81 2939.44,-102.47"/>
</a>
</g>
</g>
<!-- Node34 -->
<g id="Node000034" class="node">
<title>Node34</title>
<g id="a_Node000034"><a xlink:href="../../da/dc9/fixed__vector_8inl.html" target="_top" xlink:title="TODO.">
<polygon fill="white" stroke="#666666" points="3159,-96 3045,-96 3045,-77 3159,-77 3159,-96"/>
<text text-anchor="middle" x="3102" y="-84" font-family="Helvetica,sans-Serif" font-size="10.00">core/fixed_vector.inl</text>
</a>
</g>
</g>
<!-- Node4&#45;&gt;Node34 -->
<g id="edge34_Node000004_Node000034" class="edge">
<title>Node4&#45;&gt;Node34</title>
<g id="a_edge34_Node000004_Node000034"><a xlink:title=" ">
<path fill="none" stroke="#63b8ff" d="M1152.66,-151.28C1379.97,-149.55 2842.36,-137.31 3036,-107 3046.91,-105.29 3058.55,-102.27 3068.97,-99.12"/>
<polygon fill="#63b8ff" stroke="#63b8ff" points="3070.05,-102.45 3078.52,-96.08 3067.93,-95.77 3070.05,-102.45"/>
</a>
</g>
</g>
<!-- Node35 -->
<g id="Node000035" class="node">
<title>Node35</title>
<g id="a_Node000035"><a xlink:href="../../df/d7d/utils_8inl.html" target="_top" xlink:title="Inline implementations of core utility functions for string manipulation and encoding conversion.">
<polygon fill="white" stroke="#666666" points="3254.5,-96 3177.5,-96 3177.5,-77 3254.5,-77 3254.5,-96"/>
<text text-anchor="middle" x="3216" y="-84" font-family="Helvetica,sans-Serif" font-size="10.00">core/utils.inl</text>
</a>
</g>
</g>
<!-- Node4&#45;&gt;Node35 -->
<g id="edge35_Node000004_Node000035" class="edge">
<title>Node4&#45;&gt;Node35</title>
<g id="a_edge35_Node000004_Node000035"><a xlink:title=" ">
<path fill="none" stroke="#63b8ff" d="M1152.83,-151.5C1389.69,-151.46 2962.27,-149.52 3168,-107 3175.22,-105.51 3182.74,-102.97 3189.62,-100.21"/>
<polygon fill="#63b8ff" stroke="#63b8ff" points="3191.35,-103.28 3199.15,-96.11 3188.58,-96.85 3191.35,-103.28"/>
</a>
</g>
</g>
<!-- Node21 -->
<g id="Node000021" class="node">
<title>Node21</title>
<g id="a_Node000021"><a xlink:href="../../d1/d5f/assertion__macro__gcc__clang_8hpp.html" target="_top" xlink:title="Debug and Release assertion macro implementations for GCC/Clang platforms.">
<polygon fill="white" stroke="#666666" points="1381.5,-30 1254.5,-30 1254.5,0 1381.5,0 1381.5,-30"/>
<text text-anchor="start" x="1262.5" y="-18" font-family="Helvetica,sans-Serif" font-size="10.00">../common/assertion</text>
<text text-anchor="middle" x="1318" y="-7" font-family="Helvetica,sans-Serif" font-size="10.00">_macro_gcc_clang.hpp</text>
</a>
</g>
</g>
<!-- Node20&#45;&gt;Node21 -->
<g id="edge21_Node000020_Node000021" class="edge">
<title>Node20&#45;&gt;Node21</title>
<g id="a_edge21_Node000020_Node000021"><a xlink:title=" ">
<path fill="none" stroke="#63b8ff" d="M1318,-65.77C1318,-57.85 1318,-48.63 1318,-40.3"/>
<polygon fill="#63b8ff" stroke="#63b8ff" points="1321.5,-40.04 1318,-30.04 1314.5,-40.04 1321.5,-40.04"/>
</a>
</g>
</g>
</g>
</svg>
