<?xml version="1.0" encoding="UTF-8" standalone="no"?>
<!DOCTYPE svg PUBLIC "-//W3C//DTD SVG 1.1//EN"
 "http://www.w3.org/Graphics/SVG/1.1/DTD/svg11.dtd">
<!-- Generated by graphviz version 2.43.0 (0)
 -->
<!-- Title: src/platforms/stub/core/assertion_stub.cpp Pages: 1 -->
<svg width="3750pt" height="236pt"
 viewBox="0.00 0.00 3749.50 236.00" xmlns="http://www.w3.org/2000/svg" xmlns:xlink="http://www.w3.org/1999/xlink">
<g id="graph0" class="graph" transform="scale(1 1) rotate(0) translate(4 232)">
<title>src/platforms/stub/core/assertion_stub.cpp</title>
<!-- Node1 -->
<g id="Node000001" class="node">
<title>Node1</title>
<g id="a_Node000001"><a xlink:title="Stub implementation of assertion system for platforms without native assertion support.">
<polygon fill="#999999" stroke="#666666" points="1483.5,-228 1348.5,-228 1348.5,-198 1483.5,-198 1483.5,-228"/>
<text text-anchor="start" x="1356.5" y="-216" font-family="Helvetica,sans-Serif" font-size="10.00">src/platforms/stub</text>
<text text-anchor="middle" x="1416" y="-205" font-family="Helvetica,sans-Serif" font-size="10.00">/core/assertion_stub.cpp</text>
</a>
</g>
</g>
<!-- Node2 -->
<g id="Node000002" class="node">
<title>Node2</title>
<g id="a_Node000002"><a xlink:title=" ">
<polygon fill="#e0e0e0" stroke="#999999" points="1404,-162 1358,-162 1358,-143 1404,-143 1404,-162"/>
<text text-anchor="middle" x="1381" y="-150" font-family="Helvetica,sans-Serif" font-size="10.00">cstdio</text>
</a>
</g>
</g>
<!-- Node1&#45;&gt;Node2 -->
<g id="edge1_Node000001_Node000002" class="edge">
<title>Node1&#45;&gt;Node2</title>
<g id="a_edge1_Node000001_Node000002"><a xlink:title=" ">
<path fill="none" stroke="#63b8ff" d="M1407.53,-197.84C1402.71,-189.78 1396.63,-179.62 1391.5,-171.06"/>
<polygon fill="#63b8ff" stroke="#63b8ff" points="1394.38,-169.05 1386.24,-162.27 1388.38,-172.64 1394.38,-169.05"/>
</a>
</g>
</g>
<!-- Node3 -->
<g id="Node000003" class="node">
<title>Node3</title>
<g id="a_Node000003"><a xlink:href="../../da/d47/core_8hpp.html" target="_top" xlink:title="Umbrella header for the engine core module.">
<polygon fill="white" stroke="#666666" points="1481.5,-162 1422.5,-162 1422.5,-143 1481.5,-143 1481.5,-162"/>
<text text-anchor="middle" x="1452" y="-150" font-family="Helvetica,sans-Serif" font-size="10.00">core.hpp</text>
</a>
</g>
</g>
<!-- Node1&#45;&gt;Node3 -->
<g id="edge2_Node000001_Node000003" class="edge">
<title>Node1&#45;&gt;Node3</title>
<g id="a_edge2_Node000001_Node000003"><a xlink:title=" ">
<path fill="none" stroke="#63b8ff" d="M1424.71,-197.84C1429.67,-189.78 1435.93,-179.62 1441.2,-171.06"/>
<polygon fill="#63b8ff" stroke="#63b8ff" points="1444.35,-172.62 1446.61,-162.27 1438.38,-168.95 1444.35,-172.62"/>
</a>
</g>
</g>
<!-- Node4 -->
<g id="Node000004" class="node">
<title>Node4</title>
<g id="a_Node000004"><a xlink:title=" ">
<polygon fill="#e0e0e0" stroke="#999999" points="64,-96 0,-96 0,-77 64,-77 64,-96"/>
<text text-anchor="middle" x="32" y="-84" font-family="Helvetica,sans-Serif" font-size="10.00">algorithm</text>
</a>
</g>
</g>
<!-- Node3&#45;&gt;Node4 -->
<g id="edge3_Node000003_Node000004" class="edge">
<title>Node3&#45;&gt;Node4</title>
<g id="a_edge3_Node000003_Node000004"><a xlink:title=" ">
<path fill="none" stroke="#63b8ff" d="M1422.29,-144.42C1419.17,-143.86 1416.03,-143.37 1413,-143 1117.28,-107.12 362.67,-176.48 73,-107 67.01,-105.56 60.86,-103.19 55.2,-100.58"/>
<polygon fill="#63b8ff" stroke="#63b8ff" points="56.76,-97.45 46.25,-96.09 53.62,-103.7 56.76,-97.45"/>
</a>
</g>
</g>
<!-- Node5 -->
<g id="Node000005" class="node">
<title>Node5</title>
<g id="a_Node000005"><a xlink:title=" ">
<polygon fill="#e0e0e0" stroke="#999999" points="124,-96 82,-96 82,-77 124,-77 124,-96"/>
<text text-anchor="middle" x="103" y="-84" font-family="Helvetica,sans-Serif" font-size="10.00">array</text>
</a>
</g>
</g>
<!-- Node3&#45;&gt;Node5 -->
<g id="edge4_Node000003_Node000005" class="edge">
<title>Node3&#45;&gt;Node5</title>
<g id="a_edge4_Node000003_Node000005"><a xlink:title=" ">
<path fill="none" stroke="#63b8ff" d="M1422.29,-144.43C1419.17,-143.86 1416.03,-143.37 1413,-143 1271.77,-125.78 268.83,-149.35 133,-107 129.04,-105.77 125.11,-103.85 121.46,-101.69"/>
<polygon fill="#63b8ff" stroke="#63b8ff" points="123.36,-98.75 113.11,-96.08 119.46,-104.56 123.36,-98.75"/>
</a>
</g>
</g>
<!-- Node6 -->
<g id="Node000006" class="node">
<title>Node6</title>
<g id="a_Node000006"><a xlink:title=" ">
<polygon fill="#e0e0e0" stroke="#999999" points="201.5,-96 142.5,-96 142.5,-77 201.5,-77 201.5,-96"/>
<text text-anchor="middle" x="172" y="-84" font-family="Helvetica,sans-Serif" font-size="10.00">compare</text>
</a>
</g>
</g>
<!-- Node3&#45;&gt;Node6 -->
<g id="edge5_Node000003_Node000006" class="edge">
<title>Node3&#45;&gt;Node6</title>
<g id="a_edge5_Node000003_Node000006"><a xlink:title=" ">
<path fill="none" stroke="#63b8ff" d="M1422.29,-144.43C1419.16,-143.87 1416.03,-143.37 1413,-143 1147.76,-110.41 470.13,-172.28 211,-107 205.4,-105.59 199.68,-103.29 194.4,-100.76"/>
<polygon fill="#63b8ff" stroke="#63b8ff" points="195.99,-97.63 185.51,-96.08 192.73,-103.83 195.99,-97.63"/>
</a>
</g>
</g>
<!-- Node7 -->
<g id="Node000007" class="node">
<title>Node7</title>
<g id="a_Node000007"><a xlink:title=" ">
<polygon fill="#e0e0e0" stroke="#999999" points="280,-96 220,-96 220,-77 280,-77 280,-96"/>
<text text-anchor="middle" x="250" y="-84" font-family="Helvetica,sans-Serif" font-size="10.00">concepts</text>
</a>
</g>
</g>
<!-- Node3&#45;&gt;Node7 -->
<g id="edge6_Node000003_Node000007" class="edge">
<title>Node3&#45;&gt;Node7</title>
<g id="a_edge6_Node000003_Node000007"><a xlink:title=" ">
<path fill="none" stroke="#63b8ff" d="M1422.29,-144.44C1419.16,-143.87 1416.03,-143.38 1413,-143 1164.99,-112.26 531.27,-168.3 289,-107 283.4,-105.58 277.68,-103.28 272.4,-100.75"/>
<polygon fill="#63b8ff" stroke="#63b8ff" points="273.99,-97.63 263.51,-96.07 270.74,-103.82 273.99,-97.63"/>
</a>
</g>
</g>
<!-- Node8 -->
<g id="Node000008" class="node">
<title>Node8</title>
<g id="a_Node000008"><a xlink:title=" ">
<polygon fill="#e0e0e0" stroke="#999999" points="351.5,-96 298.5,-96 298.5,-77 351.5,-77 351.5,-96"/>
<text text-anchor="middle" x="325" y="-84" font-family="Helvetica,sans-Serif" font-size="10.00">cstddef</text>
</a>
</g>
</g>
<!-- Node3&#45;&gt;Node8 -->
<g id="edge7_Node000003_Node000008" class="edge">
<title>Node3&#45;&gt;Node8</title>
<g id="a_edge7_Node000003_Node000008"><a xlink:title=" ">
<path fill="none" stroke="#63b8ff" d="M1422.28,-144.45C1419.16,-143.88 1416.03,-143.38 1413,-143 1180.89,-113.98 586.73,-168.34 361,-107 356.03,-105.65 350.99,-103.5 346.32,-101.12"/>
<polygon fill="#63b8ff" stroke="#63b8ff" points="347.81,-97.94 337.39,-96.07 344.37,-104.03 347.81,-97.94"/>
</a>
</g>
</g>
<!-- Node9 -->
<g id="Node000009" class="node">
<title>Node9</title>
<g id="a_Node000009"><a xlink:title=" ">
<polygon fill="#e0e0e0" stroke="#999999" points="420,-96 370,-96 370,-77 420,-77 420,-96"/>
<text text-anchor="middle" x="395" y="-84" font-family="Helvetica,sans-Serif" font-size="10.00">cstdint</text>
</a>
</g>
</g>
<!-- Node3&#45;&gt;Node9 -->
<g id="edge8_Node000003_Node000009" class="edge">
<title>Node3&#45;&gt;Node9</title>
<g id="a_edge8_Node000003_Node000009"><a xlink:title=" ">
<path fill="none" stroke="#63b8ff" d="M1422.28,-144.45C1419.16,-143.88 1416.03,-143.38 1413,-143 1195.91,-115.59 639.37,-167.19 429,-107 424.39,-105.68 419.73,-103.61 415.41,-101.3"/>
<polygon fill="#63b8ff" stroke="#63b8ff" points="417.01,-98.18 406.63,-96.06 413.43,-104.19 417.01,-98.18"/>
</a>
</g>
</g>
<!-- Node10 -->
<g id="Node000010" class="node">
<title>Node10</title>
<g id="a_Node000010"><a xlink:title=" ">
<polygon fill="#e0e0e0" stroke="#999999" points="488,-96 438,-96 438,-77 488,-77 488,-96"/>
<text text-anchor="middle" x="463" y="-84" font-family="Helvetica,sans-Serif" font-size="10.00">cstring</text>
</a>
</g>
</g>
<!-- Node3&#45;&gt;Node10 -->
<g id="edge9_Node000003_Node000010" class="edge">
<title>Node3&#45;&gt;Node10</title>
<g id="a_edge9_Node000003_Node000010"><a xlink:title=" ">
<path fill="none" stroke="#63b8ff" d="M1422.28,-144.46C1419.16,-143.89 1416.02,-143.39 1413,-143 1210.93,-117.21 692.78,-163.3 497,-107 492.39,-105.67 487.74,-103.6 483.42,-101.29"/>
<polygon fill="#63b8ff" stroke="#63b8ff" points="485.02,-98.17 474.64,-96.05 481.43,-104.18 485.02,-98.17"/>
</a>
</g>
</g>
<!-- Node11 -->
<g id="Node000011" class="node">
<title>Node11</title>
<g id="a_Node000011"><a xlink:title=" ">
<polygon fill="#e0e0e0" stroke="#999999" points="555.5,-96 506.5,-96 506.5,-77 555.5,-77 555.5,-96"/>
<text text-anchor="middle" x="531" y="-84" font-family="Helvetica,sans-Serif" font-size="10.00">cuchar</text>
</a>
</g>
</g>
<!-- Node3&#45;&gt;Node11 -->
<g id="edge10_Node000003_Node000011" class="edge">
<title>Node3&#45;&gt;Node11</title>
<g id="a_edge10_Node000003_Node000011"><a xlink:title=" ">
<path fill="none" stroke="#63b8ff" d="M1422.28,-144.47C1419.16,-143.9 1416.02,-143.39 1413,-143 1225.72,-118.8 745.06,-160.64 564,-107 559.62,-105.7 555.22,-103.7 551.12,-101.46"/>
<polygon fill="#63b8ff" stroke="#63b8ff" points="552.62,-98.28 542.26,-96.04 548.96,-104.25 552.62,-98.28"/>
</a>
</g>
</g>
<!-- Node12 -->
<g id="Node000012" class="node">
<title>Node12</title>
<g id="a_Node000012"><a xlink:title=" ">
<polygon fill="#e0e0e0" stroke="#999999" points="656.5,-96 573.5,-96 573.5,-77 656.5,-77 656.5,-96"/>
<text text-anchor="middle" x="615" y="-84" font-family="Helvetica,sans-Serif" font-size="10.00">initializer_list</text>
</a>
</g>
</g>
<!-- Node3&#45;&gt;Node12 -->
<g id="edge11_Node000003_Node000012" class="edge">
<title>Node3&#45;&gt;Node12</title>
<g id="a_edge11_Node000003_Node000012"><a xlink:title=" ">
<path fill="none" stroke="#63b8ff" d="M1422.28,-144.49C1419.16,-143.91 1416.02,-143.4 1413,-143 1083.04,-99.41 990.52,-176.37 665,-107 657.48,-105.4 649.62,-102.8 642.41,-100.02"/>
<polygon fill="#63b8ff" stroke="#63b8ff" points="643.66,-96.75 633.08,-96.19 641,-103.23 643.66,-96.75"/>
</a>
</g>
</g>
<!-- Node13 -->
<g id="Node000013" class="node">
<title>Node13</title>
<g id="a_Node000013"><a xlink:title=" ">
<polygon fill="#e0e0e0" stroke="#999999" points="727.5,-96 674.5,-96 674.5,-77 727.5,-77 727.5,-96"/>
<text text-anchor="middle" x="701" y="-84" font-family="Helvetica,sans-Serif" font-size="10.00">iterator</text>
</a>
</g>
</g>
<!-- Node3&#45;&gt;Node13 -->
<g id="edge12_Node000003_Node000013" class="edge">
<title>Node3&#45;&gt;Node13</title>
<g id="a_edge12_Node000003_Node000013"><a xlink:title=" ">
<path fill="none" stroke="#63b8ff" d="M1422.28,-144.5C1419.16,-143.93 1416.02,-143.41 1413,-143 1263.91,-122.92 881.79,-147.82 737,-107 732.04,-105.6 727.01,-103.43 722.34,-101.04"/>
<polygon fill="#63b8ff" stroke="#63b8ff" points="723.83,-97.87 713.4,-96 720.39,-103.96 723.83,-97.87"/>
</a>
</g>
</g>
<!-- Node14 -->
<g id="Node000014" class="node">
<title>Node14</title>
<g id="a_Node000014"><a xlink:title=" ">
<polygon fill="#e0e0e0" stroke="#999999" points="804,-96 746,-96 746,-77 804,-77 804,-96"/>
<text text-anchor="middle" x="775" y="-84" font-family="Helvetica,sans-Serif" font-size="10.00">memory</text>
</a>
</g>
</g>
<!-- Node3&#45;&gt;Node14 -->
<g id="edge13_Node000003_Node000014" class="edge">
<title>Node3&#45;&gt;Node14</title>
<g id="a_edge13_Node000003_Node000014"><a xlink:title=" ">
<path fill="none" stroke="#63b8ff" d="M1422.27,-144.53C1419.15,-143.94 1416.02,-143.42 1413,-143 1148.37,-106.45 1070.68,-177.49 813,-107 807.77,-105.57 802.43,-103.36 797.46,-100.95"/>
<polygon fill="#63b8ff" stroke="#63b8ff" points="798.98,-97.79 788.51,-96.17 795.69,-103.97 798.98,-97.79"/>
</a>
</g>
</g>
<!-- Node15 -->
<g id="Node000015" class="node">
<title>Node15</title>
<g id="a_Node000015"><a xlink:title=" ">
<polygon fill="#e0e0e0" stroke="#999999" points="887.5,-96 822.5,-96 822.5,-77 887.5,-77 887.5,-96"/>
<text text-anchor="middle" x="855" y="-84" font-family="Helvetica,sans-Serif" font-size="10.00">stdexcept</text>
</a>
</g>
</g>
<!-- Node3&#45;&gt;Node15 -->
<g id="edge14_Node000003_Node000015" class="edge">
<title>Node3&#45;&gt;Node15</title>
<g id="a_edge14_Node000003_Node000015"><a xlink:title=" ">
<path fill="none" stroke="#63b8ff" d="M1422.27,-144.56C1419.15,-143.97 1416.02,-143.43 1413,-143 1185.43,-110.44 1119.62,-164.36 897,-107 891.02,-105.46 884.84,-103.08 879.12,-100.52"/>
<polygon fill="#63b8ff" stroke="#63b8ff" points="880.58,-97.33 870.06,-96.12 877.53,-103.63 880.58,-97.33"/>
</a>
</g>
</g>
<!-- Node16 -->
<g id="Node000016" class="node">
<title>Node16</title>
<g id="a_Node000016"><a xlink:title=" ">
<polygon fill="#e0e0e0" stroke="#999999" points="950,-96 906,-96 906,-77 950,-77 950,-96"/>
<text text-anchor="middle" x="928" y="-84" font-family="Helvetica,sans-Serif" font-size="10.00">string</text>
</a>
</g>
</g>
<!-- Node3&#45;&gt;Node16 -->
<g id="edge15_Node000003_Node000016" class="edge">
<title>Node3&#45;&gt;Node16</title>
<g id="a_edge15_Node000003_Node000016"><a xlink:title=" ">
<path fill="none" stroke="#63b8ff" d="M1422.27,-144.58C1419.15,-143.99 1416.02,-143.45 1413,-143 1212.77,-113.38 1151.12,-170.73 959,-107 955.04,-105.69 951.07,-103.76 947.36,-101.63"/>
<polygon fill="#63b8ff" stroke="#63b8ff" points="949.12,-98.6 938.82,-96.13 945.33,-104.49 949.12,-98.6"/>
</a>
</g>
</g>
<!-- Node17 -->
<g id="Node000017" class="node">
<title>Node17</title>
<g id="a_Node000017"><a xlink:title=" ">
<polygon fill="#e0e0e0" stroke="#999999" points="1037.5,-96 968.5,-96 968.5,-77 1037.5,-77 1037.5,-96"/>
<text text-anchor="middle" x="1003" y="-84" font-family="Helvetica,sans-Serif" font-size="10.00">type_traits</text>
</a>
</g>
</g>
<!-- Node3&#45;&gt;Node17 -->
<g id="edge16_Node000003_Node000017" class="edge">
<title>Node3&#45;&gt;Node17</title>
<g id="a_edge16_Node000003_Node000017"><a xlink:title=" ">
<path fill="none" stroke="#63b8ff" d="M1422.26,-144.64C1419.14,-144.04 1416.01,-143.47 1413,-143 1251.1,-117.51 1204.31,-149.41 1046,-107 1039.91,-105.37 1033.6,-102.96 1027.76,-100.39"/>
<polygon fill="#63b8ff" stroke="#63b8ff" points="1029.01,-97.11 1018.47,-96.01 1026.02,-103.44 1029.01,-97.11"/>
</a>
</g>
</g>
<!-- Node18 -->
<g id="Node000018" class="node">
<title>Node18</title>
<g id="a_Node000018"><a xlink:title=" ">
<polygon fill="#e0e0e0" stroke="#999999" points="1100.5,-96 1055.5,-96 1055.5,-77 1100.5,-77 1100.5,-96"/>
<text text-anchor="middle" x="1078" y="-84" font-family="Helvetica,sans-Serif" font-size="10.00">utility</text>
</a>
</g>
</g>
<!-- Node3&#45;&gt;Node18 -->
<g id="edge17_Node000003_Node000018" class="edge">
<title>Node3&#45;&gt;Node18</title>
<g id="a_edge17_Node000003_Node000018"><a xlink:title=" ">
<path fill="none" stroke="#63b8ff" d="M1422.25,-144.71C1419.13,-144.09 1416.01,-143.51 1413,-143 1281.46,-120.77 1242.34,-146.76 1115,-107 1110.14,-105.48 1105.17,-103.34 1100.52,-101.02"/>
<polygon fill="#63b8ff" stroke="#63b8ff" points="1102,-97.84 1091.53,-96.16 1098.67,-104 1102,-97.84"/>
</a>
</g>
</g>
<!-- Node19 -->
<g id="Node000019" class="node">
<title>Node19</title>
<g id="a_Node000019"><a xlink:href="../../dd/d9e/linux_2platform__config_8hpp.html" target="_top" xlink:title="additional linux platform header">
<polygon fill="white" stroke="#666666" points="1312.5,-107 1157.5,-107 1157.5,-66 1312.5,-66 1312.5,-107"/>
<text text-anchor="start" x="1165.5" y="-95" font-family="Helvetica,sans-Serif" font-size="10.00">/home/runner/work/toygine2</text>
<text text-anchor="start" x="1165.5" y="-84" font-family="Helvetica,sans-Serif" font-size="10.00">/toygine2/src/platforms</text>
<text text-anchor="middle" x="1235" y="-73" font-family="Helvetica,sans-Serif" font-size="10.00">/linux/platform_config.hpp</text>
</a>
</g>
</g>
<!-- Node3&#45;&gt;Node19 -->
<g id="edge18_Node000003_Node000019" class="edge">
<title>Node3&#45;&gt;Node19</title>
<g id="a_edge18_Node000003_Node000019"><a xlink:title=" ">
<path fill="none" stroke="#63b8ff" d="M1422.73,-142.87C1394.15,-134.44 1349.44,-121.25 1310.82,-109.86"/>
<polygon fill="#63b8ff" stroke="#63b8ff" points="1311.73,-106.48 1301.15,-107.01 1309.75,-113.19 1311.73,-106.48"/>
</a>
</g>
</g>
<!-- Node20 -->
<g id="Node000020" class="node">
<title>Node20</title>
<g id="a_Node000020"><a xlink:href="../../d3/d60/platform_8hpp.html" target="_top" xlink:title="Platform and CPU architecture enumerations with compile&#45;time and runtime detection utilities.">
<polygon fill="white" stroke="#666666" points="1180.5,-30 1077.5,-30 1077.5,0 1180.5,0 1180.5,-30"/>
<text text-anchor="start" x="1085.5" y="-18" font-family="Helvetica,sans-Serif" font-size="10.00">../../../include/core</text>
<text text-anchor="middle" x="1129" y="-7" font-family="Helvetica,sans-Serif" font-size="10.00">/platform.hpp</text>
</a>
</g>
</g>
<!-- Node3&#45;&gt;Node20 -->
<g id="edge34_Node000003_Node000020" class="edge">
<title>Node3&#45;&gt;Node20</title>
<g id="a_edge34_Node000003_Node000020"><a xlink:title=" ">
<path fill="none" stroke="#63b8ff" d="M1422.24,-144.76C1419.13,-144.13 1416,-143.53 1413,-143 1354.48,-132.66 1191.48,-147.51 1148,-107 1129.98,-90.21 1126.69,-61.11 1126.98,-40.34"/>
<polygon fill="#63b8ff" stroke="#63b8ff" points="1130.48,-40.2 1127.41,-30.06 1123.49,-39.91 1130.48,-40.2"/>
</a>
</g>
</g>
<!-- Node22 -->
<g id="Node000022" class="node">
<title>Node22</title>
<g id="a_Node000022"><a xlink:href="../../d5/d96/assertion_8hpp.html" target="_top" xlink:title="Assertion system for runtime and compile&#45;time validation of engine invariants.">
<polygon fill="white" stroke="#666666" points="1437.5,-96 1330.5,-96 1330.5,-77 1437.5,-77 1437.5,-96"/>
<text text-anchor="middle" x="1384" y="-84" font-family="Helvetica,sans-Serif" font-size="10.00">core/assertion.hpp</text>
</a>
</g>
</g>
<!-- Node3&#45;&gt;Node22 -->
<g id="edge21_Node000003_Node000022" class="edge">
<title>Node3&#45;&gt;Node22</title>
<g id="a_edge21_Node000003_Node000022"><a xlink:title=" ">
<path fill="none" stroke="#63b8ff" d="M1442.83,-142.87C1432.14,-132.81 1414.26,-115.98 1401.01,-103.51"/>
<polygon fill="#63b8ff" stroke="#63b8ff" points="1403.14,-100.71 1393.46,-96.41 1398.35,-105.81 1403.14,-100.71"/>
</a>
</g>
</g>
<!-- Node23 -->
<g id="Node000023" class="node">
<title>Node23</title>
<g id="a_Node000023"><a xlink:href="../../dd/ded/c__string__view_8hpp.html" target="_top" xlink:title="Non&#45;owning string view class for C&#45;style strings.">
<polygon fill="white" stroke="#666666" points="1584,-96 1456,-96 1456,-77 1584,-77 1584,-96"/>
<text text-anchor="middle" x="1520" y="-84" font-family="Helvetica,sans-Serif" font-size="10.00">core/c_string_view.hpp</text>
</a>
</g>
</g>
<!-- Node3&#45;&gt;Node23 -->
<g id="edge22_Node000003_Node000023" class="edge">
<title>Node3&#45;&gt;Node23</title>
<g id="a_edge22_Node000003_Node000023"><a xlink:title=" ">
<path fill="none" stroke="#63b8ff" d="M1461.17,-142.87C1471.86,-132.81 1489.74,-115.98 1502.99,-103.51"/>
<polygon fill="#63b8ff" stroke="#63b8ff" points="1505.65,-105.81 1510.54,-96.41 1500.86,-100.71 1505.65,-105.81"/>
</a>
</g>
</g>
<!-- Node24 -->
<g id="Node000024" class="node">
<title>Node24</title>
<g id="a_Node000024"><a xlink:href="../../de/deb/string__like_8hpp.html" target="_top" xlink:title="C++ concept for string&#45;like types with size() and c_str() methods.">
<polygon fill="white" stroke="#666666" points="2049,-24.5 1961,-24.5 1961,-5.5 2049,-5.5 2049,-24.5"/>
<text text-anchor="middle" x="2005" y="-12.5" font-family="Helvetica,sans-Serif" font-size="10.00">string_like.hpp</text>
</a>
</g>
</g>
<!-- Node3&#45;&gt;Node24 -->
<g id="edge35_Node000003_Node000024" class="edge">
<title>Node3&#45;&gt;Node24</title>
<g id="a_edge35_Node000003_Node000024"><a xlink:title=" ">
<path fill="none" stroke="#63b8ff" d="M1481.69,-146.74C1511.61,-140.94 1558.19,-129.04 1593,-107 1613.99,-93.71 1608.94,-77.43 1631,-66 1685.53,-37.74 1860.85,-24.05 1950.74,-18.75"/>
<polygon fill="#63b8ff" stroke="#63b8ff" points="1950.96,-22.25 1960.74,-18.18 1950.56,-15.26 1950.96,-22.25"/>
</a>
</g>
</g>
<!-- Node25 -->
<g id="Node000025" class="node">
<title>Node25</title>
<g id="a_Node000025"><a xlink:href="../../d1/d5c/callbacks__pool_8hpp.html" target="_top" xlink:title="Template callback pool class with fixed&#45;size callback storage.">
<polygon fill="white" stroke="#666666" points="1774,-96 1640,-96 1640,-77 1774,-77 1774,-96"/>
<text text-anchor="middle" x="1707" y="-84" font-family="Helvetica,sans-Serif" font-size="10.00">core/callbacks_pool.hpp</text>
</a>
</g>
</g>
<!-- Node3&#45;&gt;Node25 -->
<g id="edge24_Node000003_Node000025" class="edge">
<title>Node3&#45;&gt;Node25</title>
<g id="a_edge24_Node000003_Node000025"><a xlink:title=" ">
<path fill="none" stroke="#63b8ff" d="M1481.5,-144.1C1526.12,-132.9 1611.05,-111.58 1662.99,-98.55"/>
<polygon fill="#63b8ff" stroke="#63b8ff" points="1664.07,-101.88 1672.91,-96.05 1662.36,-95.09 1664.07,-101.88"/>
</a>
</g>
</g>
<!-- Node26 -->
<g id="Node000026" class="node">
<title>Node26</title>
<g id="a_Node000026"><a xlink:href="../../d4/dc0/constexpr__utils_8hpp.html" target="_top" xlink:title="Constexpr utility functions for compile&#45;time operations.">
<polygon fill="white" stroke="#666666" points="1928,-96 1792,-96 1792,-77 1928,-77 1928,-96"/>
<text text-anchor="middle" x="1860" y="-84" font-family="Helvetica,sans-Serif" font-size="10.00">core/constexpr_utils.hpp</text>
</a>
</g>
</g>
<!-- Node3&#45;&gt;Node26 -->
<g id="edge25_Node000003_Node000026" class="edge">
<title>Node3&#45;&gt;Node26</title>
<g id="a_edge25_Node000003_Node000026"><a xlink:title=" ">
<path fill="none" stroke="#63b8ff" d="M1481.86,-148.64C1540.1,-142.82 1672.84,-128.28 1783,-107 1794.94,-104.69 1807.79,-101.66 1819.5,-98.68"/>
<polygon fill="#63b8ff" stroke="#63b8ff" points="1820.66,-102 1829.46,-96.09 1818.9,-95.22 1820.66,-102"/>
</a>
</g>
</g>
<!-- Node27 -->
<g id="Node000027" class="node">
<title>Node27</title>
<g id="a_Node000027"><a xlink:href="../../d7/d7f/fixed__string_8hpp.html" target="_top" xlink:title="Template string class with fixed&#45;size character buffer.">
<polygon fill="white" stroke="#666666" points="2064,-96 1946,-96 1946,-77 2064,-77 2064,-96"/>
<text text-anchor="middle" x="2005" y="-84" font-family="Helvetica,sans-Serif" font-size="10.00">core/fixed_string.hpp</text>
</a>
</g>
</g>
<!-- Node3&#45;&gt;Node27 -->
<g id="edge26_Node000003_Node000027" class="edge">
<title>Node3&#45;&gt;Node27</title>
<g id="a_edge26_Node000003_Node000027"><a xlink:title=" ">
<path fill="none" stroke="#63b8ff" d="M1481.51,-150.72C1557.6,-148.29 1766.42,-138.99 1937,-107 1947.79,-104.98 1959.34,-101.99 1969.81,-98.95"/>
<polygon fill="#63b8ff" stroke="#63b8ff" points="1970.87,-102.29 1979.44,-96.06 1968.86,-95.58 1970.87,-102.29"/>
</a>
</g>
</g>
<!-- Node28 -->
<g id="Node000028" class="node">
<title>Node28</title>
<g id="a_Node000028"><a xlink:href="../../d7/dea/fixed__vector_8hpp.html" target="_top" xlink:title="TODO.">
<polygon fill="white" stroke="#666666" points="2202,-96 2082,-96 2082,-77 2202,-77 2202,-96"/>
<text text-anchor="middle" x="2142" y="-84" font-family="Helvetica,sans-Serif" font-size="10.00">core/fixed_vector.hpp</text>
</a>
</g>
</g>
<!-- Node3&#45;&gt;Node28 -->
<g id="edge28_Node000003_Node000028" class="edge">
<title>Node3&#45;&gt;Node28</title>
<g id="a_edge28_Node000003_Node000028"><a xlink:title=" ">
<path fill="none" stroke="#63b8ff" d="M1481.68,-151.51C1571.5,-151.08 1848.09,-146.41 2073,-107 2084.06,-105.06 2095.89,-102.07 2106.57,-99.01"/>
<polygon fill="#63b8ff" stroke="#63b8ff" points="2107.82,-102.29 2116.4,-96.08 2105.82,-95.58 2107.82,-102.29"/>
</a>
</g>
</g>
<!-- Node29 -->
<g id="Node000029" class="node">
<title>Node29</title>
<g id="a_Node000029"><a xlink:href="../../d4/d0a/format_8hpp.html" target="_top" xlink:title="Compile&#45;time format string validation class.">
<polygon fill="white" stroke="#666666" points="2315.5,-96 2220.5,-96 2220.5,-77 2315.5,-77 2315.5,-96"/>
<text text-anchor="middle" x="2268" y="-84" font-family="Helvetica,sans-Serif" font-size="10.00">core/format.hpp</text>
</a>
</g>
</g>
<!-- Node3&#45;&gt;Node29 -->
<g id="edge29_Node000003_Node000029" class="edge">
<title>Node3&#45;&gt;Node29</title>
<g id="a_edge29_Node000003_Node000029"><a xlink:title=" ">
<path fill="none" stroke="#63b8ff" d="M1481.82,-150.83C1604.13,-147.91 2067.56,-135.2 2211,-107 2219.93,-105.25 2229.36,-102.43 2237.94,-99.48"/>
<polygon fill="#63b8ff" stroke="#63b8ff" points="2239.31,-102.71 2247.52,-96.01 2236.93,-96.13 2239.31,-102.71"/>
</a>
</g>
</g>
<!-- Node30 -->
<g id="Node000030" class="node">
<title>Node30</title>
<g id="a_Node000030"><a xlink:href="../../dd/d8e/hashes_8hpp.html" target="_top" xlink:title="CRC hash functions.">
<polygon fill="white" stroke="#666666" points="2430,-96 2334,-96 2334,-77 2430,-77 2430,-96"/>
<text text-anchor="middle" x="2382" y="-84" font-family="Helvetica,sans-Serif" font-size="10.00">core/hashes.hpp</text>
</a>
</g>
</g>
<!-- Node3&#45;&gt;Node30 -->
<g id="edge31_Node000003_Node000030" class="edge">
<title>Node3&#45;&gt;Node30</title>
<g id="a_edge31_Node000003_Node000030"><a xlink:title=" ">
<path fill="none" stroke="#63b8ff" d="M1481.69,-151.09C1614.88,-149.11 2158.1,-139.15 2325,-107 2333.93,-105.28 2343.37,-102.48 2351.95,-99.53"/>
<polygon fill="#63b8ff" stroke="#63b8ff" points="2353.32,-102.75 2361.53,-96.05 2350.94,-96.17 2353.32,-102.75"/>
</a>
</g>
</g>
<!-- Node31 -->
<g id="Node000031" class="node">
<title>Node31</title>
<g id="a_Node000031"><a xlink:href="../../de/d2d/o__string__stream_8hpp.html" target="_top" xlink:title="Output string stream class for building strings from various data types.">
<polygon fill="white" stroke="#666666" points="2588,-96 2448,-96 2448,-77 2588,-77 2588,-96"/>
<text text-anchor="middle" x="2518" y="-84" font-family="Helvetica,sans-Serif" font-size="10.00">core/o_string_stream.hpp</text>
</a>
</g>
</g>
<!-- Node3&#45;&gt;Node31 -->
<g id="edge32_Node000003_Node000031" class="edge">
<title>Node3&#45;&gt;Node31</title>
<g id="a_edge32_Node000003_Node000031"><a xlink:title=" ">
<path fill="none" stroke="#63b8ff" d="M1481.58,-150.95C1624.81,-148.18 2247.17,-134.72 2439,-107 2452.35,-105.07 2466.73,-101.87 2479.52,-98.61"/>
<polygon fill="#63b8ff" stroke="#63b8ff" points="2480.6,-101.94 2489.38,-96.01 2478.82,-95.18 2480.6,-101.94"/>
</a>
</g>
</g>
<!-- Node32 -->
<g id="Node000032" class="node">
<title>Node32</title>
<g id="a_Node000032"><a xlink:href="../../df/d93/utils_8hpp.html" target="_top" xlink:title="Core utility functions for string manipulation, encoding conversion, and number formatting.">
<polygon fill="white" stroke="#666666" points="2689.5,-96 2606.5,-96 2606.5,-77 2689.5,-77 2689.5,-96"/>
<text text-anchor="middle" x="2648" y="-84" font-family="Helvetica,sans-Serif" font-size="10.00">core/utils.hpp</text>
</a>
</g>
</g>
<!-- Node3&#45;&gt;Node32 -->
<g id="edge36_Node000003_Node000032" class="edge">
<title>Node3&#45;&gt;Node32</title>
<g id="a_edge36_Node000003_Node000032"><a xlink:title=" ">
<path fill="none" stroke="#63b8ff" d="M1481.6,-151.65C1638.56,-152.25 2374.58,-152.55 2597,-107 2604.88,-105.39 2613.13,-102.7 2620.65,-99.83"/>
<polygon fill="#63b8ff" stroke="#63b8ff" points="2622.07,-103.03 2630.02,-96.03 2619.44,-96.55 2622.07,-103.03"/>
</a>
</g>
</g>
<!-- Node33 -->
<g id="Node000033" class="node">
<title>Node33</title>
<g id="a_Node000033"><a xlink:href="../../df/d4a/c__string__view_8inl.html" target="_top" xlink:title="Inline implementations for CStringView class.">
<polygon fill="white" stroke="#666666" points="2830,-96 2708,-96 2708,-77 2830,-77 2830,-96"/>
<text text-anchor="middle" x="2769" y="-84" font-family="Helvetica,sans-Serif" font-size="10.00">core/c_string_view.inl</text>
</a>
</g>
</g>
<!-- Node3&#45;&gt;Node33 -->
<g id="edge37_Node000003_Node000033" class="edge">
<title>Node3&#45;&gt;Node33</title>
<g id="a_edge37_Node000003_Node000033"><a xlink:title=" ">
<path fill="none" stroke="#63b8ff" d="M1481.69,-151.39C1646.83,-150.64 2453.48,-145.03 2699,-107 2710.55,-105.21 2722.91,-102.16 2733.97,-99"/>
<polygon fill="#63b8ff" stroke="#63b8ff" points="2735.13,-102.31 2743.72,-96.1 2733.13,-95.6 2735.13,-102.31"/>
</a>
</g>
</g>
<!-- Node34 -->
<g id="Node000034" class="node">
<title>Node34</title>
<g id="a_Node000034"><a xlink:href="../../d6/ddb/callbacks__pool_8inl.html" target="_top" xlink:title="Inline implementations for template callback pool class with fixed&#45;size callback storage.">
<polygon fill="white" stroke="#666666" points="2976,-96 2848,-96 2848,-77 2976,-77 2976,-96"/>
<text text-anchor="middle" x="2912" y="-84" font-family="Helvetica,sans-Serif" font-size="10.00">core/callbacks_pool.inl</text>
</a>
</g>
</g>
<!-- Node3&#45;&gt;Node34 -->
<g id="edge38_Node000003_Node000034" class="edge">
<title>Node3&#45;&gt;Node34</title>
<g id="a_edge38_Node000003_Node000034"><a xlink:title=" ">
<path fill="none" stroke="#63b8ff" d="M1481.51,-151.47C1656.89,-151.17 2563.87,-147.61 2839,-107 2851.25,-105.19 2864.38,-102.07 2876.09,-98.84"/>
<polygon fill="#63b8ff" stroke="#63b8ff" points="2877.3,-102.14 2885.95,-96.01 2875.37,-95.41 2877.3,-102.14"/>
</a>
</g>
</g>
<!-- Node35 -->
<g id="Node000035" class="node">
<title>Node35</title>
<g id="a_Node000035"><a xlink:href="../../dc/d28/constexpr__utils_8inl.html" target="_top" xlink:title="Inline implementations for constexpr utility functions.">
<polygon fill="white" stroke="#666666" points="3124,-96 2994,-96 2994,-77 3124,-77 3124,-96"/>
<text text-anchor="middle" x="3059" y="-84" font-family="Helvetica,sans-Serif" font-size="10.00">core/constexpr_utils.inl</text>
</a>
</g>
</g>
<!-- Node3&#45;&gt;Node35 -->
<g id="edge39_Node000003_Node000035" class="edge">
<title>Node3&#45;&gt;Node35</title>
<g id="a_edge39_Node000003_Node000035"><a xlink:title=" ">
<path fill="none" stroke="#63b8ff" d="M1481.53,-151.56C1667.56,-151.82 2679.14,-151.14 2985,-107 2997.53,-105.19 3010.99,-102.03 3022.95,-98.77"/>
<polygon fill="#63b8ff" stroke="#63b8ff" points="3023.92,-102.13 3032.59,-96.03 3022.01,-95.39 3023.92,-102.13"/>
</a>
</g>
</g>
<!-- Node36 -->
<g id="Node000036" class="node">
<title>Node36</title>
<g id="a_Node000036"><a xlink:href="../../d7/d40/fixed__string_8inl.html" target="_top" xlink:title="Inline implementations for FixedString template class.">
<polygon fill="white" stroke="#666666" points="3254,-96 3142,-96 3142,-77 3254,-77 3254,-96"/>
<text text-anchor="middle" x="3198" y="-84" font-family="Helvetica,sans-Serif" font-size="10.00">core/fixed_string.inl</text>
</a>
</g>
</g>
<!-- Node3&#45;&gt;Node36 -->
<g id="edge40_Node000003_Node000036" class="edge">
<title>Node3&#45;&gt;Node36</title>
<g id="a_edge40_Node000003_Node000036"><a xlink:title=" ">
<path fill="none" stroke="#63b8ff" d="M1481.66,-151.19C1692.76,-148.91 2963.92,-134.11 3133,-107 3143.64,-105.29 3154.98,-102.32 3165.16,-99.19"/>
<polygon fill="#63b8ff" stroke="#63b8ff" points="3166.44,-102.46 3174.88,-96.06 3164.29,-95.8 3166.44,-102.46"/>
</a>
</g>
</g>
<!-- Node37 -->
<g id="Node000037" class="node">
<title>Node37</title>
<g id="a_Node000037"><a xlink:href="../../da/dc9/fixed__vector_8inl.html" target="_top" xlink:title="TODO.">
<polygon fill="white" stroke="#666666" points="3386,-96 3272,-96 3272,-77 3386,-77 3386,-96"/>
<text text-anchor="middle" x="3329" y="-84" font-family="Helvetica,sans-Serif" font-size="10.00">core/fixed_vector.inl</text>
</a>
</g>
</g>
<!-- Node3&#45;&gt;Node37 -->
<g id="edge41_Node000003_Node000037" class="edge">
<title>Node3&#45;&gt;Node37</title>
<g id="a_edge41_Node000003_Node000037"><a xlink:title=" ">
<path fill="none" stroke="#63b8ff" d="M1481.81,-151.24C1702.6,-149.25 3080.18,-135.74 3263,-107 3273.91,-105.28 3285.55,-102.26 3295.97,-99.11"/>
<polygon fill="#63b8ff" stroke="#63b8ff" points="3297.05,-102.44 3305.52,-96.07 3294.93,-95.77 3297.05,-102.44"/>
</a>
</g>
</g>
<!-- Node38 -->
<g id="Node000038" class="node">
<title>Node38</title>
<g id="a_Node000038"><a xlink:href="../../d0/d67/format_8inl.html" target="_top" xlink:title="Inline implementations for FormatString class.">
<polygon fill="white" stroke="#666666" points="3493.5,-96 3404.5,-96 3404.5,-77 3493.5,-77 3493.5,-96"/>
<text text-anchor="middle" x="3449" y="-84" font-family="Helvetica,sans-Serif" font-size="10.00">core/format.inl</text>
</a>
</g>
</g>
<!-- Node3&#45;&gt;Node38 -->
<g id="edge42_Node000003_Node000038" class="edge">
<title>Node3&#45;&gt;Node38</title>
<g id="a_edge42_Node000003_Node000038"><a xlink:title=" ">
<path fill="none" stroke="#63b8ff" d="M1481.78,-151.4C1711.58,-150.54 3199.21,-143.58 3395,-107 3403.5,-105.41 3412.44,-102.66 3420.54,-99.72"/>
<polygon fill="#63b8ff" stroke="#63b8ff" points="3421.86,-102.96 3429.93,-96.1 3419.34,-96.43 3421.86,-102.96"/>
</a>
</g>
</g>
<!-- Node39 -->
<g id="Node000039" class="node">
<title>Node39</title>
<g id="a_Node000039"><a xlink:href="../../d9/dcb/o__string__stream_8inl.html" target="_top" xlink:title="Implementation of OStringStream template methods.">
<polygon fill="white" stroke="#666666" points="3646,-96 3512,-96 3512,-77 3646,-77 3646,-96"/>
<text text-anchor="middle" x="3579" y="-84" font-family="Helvetica,sans-Serif" font-size="10.00">core/o_string_stream.inl</text>
</a>
</g>
</g>
<!-- Node3&#45;&gt;Node39 -->
<g id="edge43_Node000003_Node000039" class="edge">
<title>Node3&#45;&gt;Node39</title>
<g id="a_edge43_Node000003_Node000039"><a xlink:title=" ">
<path fill="none" stroke="#63b8ff" d="M1481.5,-151.27C1717.45,-149.37 3294.16,-135.67 3503,-107 3515.86,-105.23 3529.68,-102.08 3541.96,-98.82"/>
<polygon fill="#63b8ff" stroke="#63b8ff" points="3543.16,-102.12 3551.86,-96.08 3541.29,-95.37 3543.16,-102.12"/>
</a>
</g>
</g>
<!-- Node40 -->
<g id="Node000040" class="node">
<title>Node40</title>
<g id="a_Node000040"><a xlink:href="../../df/d7d/utils_8inl.html" target="_top" xlink:title="Inline implementations of core utility functions for string manipulation and encoding conversion.">
<polygon fill="white" stroke="#666666" points="3741.5,-96 3664.5,-96 3664.5,-77 3741.5,-77 3741.5,-96"/>
<text text-anchor="middle" x="3703" y="-84" font-family="Helvetica,sans-Serif" font-size="10.00">core/utils.inl</text>
</a>
</g>
</g>
<!-- Node3&#45;&gt;Node40 -->
<g id="edge44_Node000003_Node000040" class="edge">
<title>Node3&#45;&gt;Node40</title>
<g id="a_edge44_Node000003_Node000040"><a xlink:title=" ">
<path fill="none" stroke="#63b8ff" d="M1481.75,-151.55C1728.54,-151.92 3432.65,-152.78 3655,-107 3662.22,-105.51 3669.74,-102.98 3676.62,-100.22"/>
<polygon fill="#63b8ff" stroke="#63b8ff" points="3678.35,-103.29 3686.15,-96.12 3675.58,-96.86 3678.35,-103.29"/>
</a>
</g>
</g>
<!-- Node19&#45;&gt;Node20 -->
<g id="edge19_Node000019_Node000020" class="edge">
<title>Node19&#45;&gt;Node20</title>
<g id="a_edge19_Node000019_Node000020"><a xlink:title=" ">
<path fill="none" stroke="#63b8ff" d="M1205.19,-65.96C1190.79,-56.51 1173.54,-45.2 1159.1,-35.74"/>
<polygon fill="#63b8ff" stroke="#63b8ff" points="1160.81,-32.67 1150.52,-30.11 1156.97,-38.52 1160.81,-32.67"/>
</a>
</g>
</g>
<!-- Node21 -->
<g id="Node000021" class="node">
<title>Node21</title>
<g id="a_Node000021"><a xlink:href="../../d1/d5f/assertion__macro__gcc__clang_8hpp.html" target="_top" xlink:title="Debug and Release assertion macro implementations for GCC/Clang platforms.">
<polygon fill="white" stroke="#666666" points="1325.5,-30 1198.5,-30 1198.5,0 1325.5,0 1325.5,-30"/>
<text text-anchor="start" x="1206.5" y="-18" font-family="Helvetica,sans-Serif" font-size="10.00">../common/assertion</text>
<text text-anchor="middle" x="1262" y="-7" font-family="Helvetica,sans-Serif" font-size="10.00">_macro_gcc_clang.hpp</text>
</a>
</g>
</g>
<!-- Node19&#45;&gt;Node21 -->
<g id="edge20_Node000019_Node000021" class="edge">
<title>Node19&#45;&gt;Node21</title>
<g id="a_edge20_Node000019_Node000021"><a xlink:title=" ">
<path fill="none" stroke="#63b8ff" d="M1242.66,-65.77C1245.85,-57.58 1249.57,-48.01 1252.89,-39.46"/>
<polygon fill="#63b8ff" stroke="#63b8ff" points="1256.19,-40.63 1256.55,-30.04 1249.66,-38.09 1256.19,-40.63"/>
</a>
</g>
</g>
<!-- Node23&#45;&gt;Node24 -->
<g id="edge23_Node000023_Node000024" class="edge">
<title>Node23&#45;&gt;Node24</title>
<g id="a_edge23_Node000023_Node000024"><a xlink:title=" ">
<path fill="none" stroke="#63b8ff" d="M1550.56,-76.94C1564.87,-73.16 1582.22,-68.93 1598,-66 1723.27,-42.74 1872.3,-27.56 1950.65,-20.54"/>
<polygon fill="#63b8ff" stroke="#63b8ff" points="1951.11,-24.01 1960.76,-19.64 1950.49,-17.04 1951.11,-24.01"/>
</a>
</g>
</g>
<!-- Node27&#45;&gt;Node24 -->
<g id="edge27_Node000027_Node000024" class="edge">
<title>Node27&#45;&gt;Node24</title>
<g id="a_edge27_Node000027_Node000024"><a xlink:title=" ">
<path fill="none" stroke="#63b8ff" d="M2005,-76.98C2005,-66.56 2005,-48.61 2005,-34.88"/>
<polygon fill="#63b8ff" stroke="#63b8ff" points="2008.5,-34.59 2005,-24.59 2001.5,-34.59 2008.5,-34.59"/>
</a>
</g>
</g>
<!-- Node29&#45;&gt;Node24 -->
<g id="edge30_Node000029_Node000024" class="edge">
<title>Node29&#45;&gt;Node24</title>
<g id="a_edge30_Node000029_Node000024"><a xlink:title=" ">
<path fill="none" stroke="#63b8ff" d="M2244.58,-76.95C2234.34,-73.35 2222.14,-69.25 2211,-66 2158.13,-50.57 2096.67,-36.1 2054.73,-26.73"/>
<polygon fill="#63b8ff" stroke="#63b8ff" points="2055.3,-23.27 2044.78,-24.52 2053.78,-30.1 2055.3,-23.27"/>
</a>
</g>
</g>
<!-- Node31&#45;&gt;Node24 -->
<g id="edge33_Node000031_Node000024" class="edge">
<title>Node31&#45;&gt;Node24</title>
<g id="a_edge33_Node000031_Node000024"><a xlink:title=" ">
<path fill="none" stroke="#63b8ff" d="M2487.43,-76.99C2472.86,-73.18 2455.13,-68.91 2439,-66 2303.35,-41.55 2141.59,-26.62 2059.14,-20.01"/>
<polygon fill="#63b8ff" stroke="#63b8ff" points="2059.25,-16.51 2049.01,-19.21 2058.7,-23.49 2059.25,-16.51"/>
</a>
</g>
</g>
</g>
</svg>
