<?xml version="1.0" encoding="UTF-8" standalone="no"?>
<!DOCTYPE svg PUBLIC "-//W3C//DTD SVG 1.1//EN"
 "http://www.w3.org/Graphics/SVG/1.1/DTD/svg11.dtd">
<!-- Generated by graphviz version 2.43.0 (0)
 -->
<!-- Title: src/platforms/stub/core/assertion_stub.cpp Pages: 1 -->
<svg width="1379pt" height="170pt"
 viewBox="0.00 0.00 1378.50 170.00" xmlns="http://www.w3.org/2000/svg" xmlns:xlink="http://www.w3.org/1999/xlink">
<g id="graph0" class="graph" transform="scale(1 1) rotate(0) translate(4 166)">
<title>src/platforms/stub/core/assertion_stub.cpp</title>
<!-- Node1 -->
<g id="Node000001" class="node">
<title>Node1</title>
<g id="a_Node000001"><a xlink:title=" ">
<polygon fill="#999999" stroke="#666666" points="272.5,-162 137.5,-162 137.5,-132 272.5,-132 272.5,-162"/>
<text text-anchor="start" x="145.5" y="-150" font-family="Helvetica,sans-Serif" font-size="10.00">src/platforms/stub</text>
<text text-anchor="middle" x="205" y="-139" font-family="Helvetica,sans-Serif" font-size="10.00">/core/assertion_stub.cpp</text>
</a>
</g>
</g>
<!-- Node2 -->
<g id="Node000002" class="node">
<title>Node2</title>
<g id="a_Node000002"><a xlink:title=" ">
<polygon fill="#e0e0e0" stroke="#999999" points="177,-96 131,-96 131,-77 177,-77 177,-96"/>
<text text-anchor="middle" x="154" y="-84" font-family="Helvetica,sans-Serif" font-size="10.00">cstdio</text>
</a>
</g>
</g>
<!-- Node1&#45;&gt;Node2 -->
<g id="edge1_Node000001_Node000002" class="edge">
<title>Node1&#45;&gt;Node2</title>
<g id="a_edge1_Node000001_Node000002"><a xlink:title=" ">
<path fill="none" stroke="#63b8ff" d="M192.65,-131.84C185.33,-123.43 176,-112.74 168.35,-103.96"/>
<polygon fill="#63b8ff" stroke="#63b8ff" points="170.85,-101.5 161.64,-96.27 165.58,-106.1 170.85,-101.5"/>
</a>
</g>
</g>
<!-- Node3 -->
<g id="Node000003" class="node">
<title>Node3</title>
<g id="a_Node000003"><a xlink:title=" ">
<polygon fill="#e0e0e0" stroke="#999999" points="44,-30 0,-30 0,-11 44,-11 44,-30"/>
<text text-anchor="middle" x="22" y="-18" font-family="Helvetica,sans-Serif" font-size="10.00">string</text>
</a>
</g>
</g>
<!-- Node1&#45;&gt;Node3 -->
<g id="edge2_Node000001_Node000003" class="edge">
<title>Node1&#45;&gt;Node3</title>
<g id="a_edge2_Node000001_Node000003"><a xlink:title=" ">
<path fill="none" stroke="#63b8ff" d="M205.03,-131.81C204.27,-116.24 200.62,-91.55 186,-77 142.6,-33.79 109.09,-65.57 53,-41 49.47,-39.45 45.88,-37.55 42.45,-35.54"/>
<polygon fill="#63b8ff" stroke="#63b8ff" points="44.23,-32.53 33.9,-30.16 40.5,-38.45 44.23,-32.53"/>
</a>
</g>
</g>
<!-- Node4 -->
<g id="Node000004" class="node">
<title>Node4</title>
<g id="a_Node000004"><a xlink:href="../../da/d47/core_8hpp.html" target="_top" xlink:title=" ">
<polygon fill="white" stroke="#666666" points="510.5,-96 451.5,-96 451.5,-77 510.5,-77 510.5,-96"/>
<text text-anchor="middle" x="481" y="-84" font-family="Helvetica,sans-Serif" font-size="10.00">core.hpp</text>
</a>
</g>
</g>
<!-- Node1&#45;&gt;Node4 -->
<g id="edge3_Node000001_Node000004" class="edge">
<title>Node1&#45;&gt;Node4</title>
<g id="a_edge3_Node000001_Node000004"><a xlink:title=" ">
<path fill="none" stroke="#63b8ff" d="M271.11,-131.99C324.22,-120.73 397.05,-105.29 441.47,-95.88"/>
<polygon fill="#63b8ff" stroke="#63b8ff" points="442.25,-99.29 451.31,-93.79 440.8,-92.44 442.25,-99.29"/>
</a>
</g>
</g>
<!-- Node4&#45;&gt;Node3 -->
<g id="edge11_Node000004_Node000003" class="edge">
<title>Node4&#45;&gt;Node3</title>
<g id="a_edge11_Node000004_Node000003"><a xlink:title=" ">
<path fill="none" stroke="#63b8ff" d="M451.39,-84.17C367.08,-80.11 127.06,-66.58 53,-41 49.06,-39.64 45.1,-37.69 41.39,-35.55"/>
<polygon fill="#63b8ff" stroke="#63b8ff" points="43.15,-32.52 32.85,-30.05 39.36,-38.41 43.15,-32.52"/>
</a>
</g>
</g>
<!-- Node5 -->
<g id="Node000005" class="node">
<title>Node5</title>
<g id="a_Node000005"><a xlink:title=" ">
<polygon fill="#e0e0e0" stroke="#999999" points="126,-30 62,-30 62,-11 126,-11 126,-30"/>
<text text-anchor="middle" x="94" y="-18" font-family="Helvetica,sans-Serif" font-size="10.00">algorithm</text>
</a>
</g>
</g>
<!-- Node4&#45;&gt;Node5 -->
<g id="edge4_Node000004_Node000005" class="edge">
<title>Node4&#45;&gt;Node5</title>
<g id="a_edge4_Node000004_Node000005"><a xlink:title=" ">
<path fill="none" stroke="#63b8ff" d="M451.19,-84.81C390.48,-82.74 248.6,-74.4 135,-41 129.42,-39.36 123.66,-37.05 118.27,-34.58"/>
<polygon fill="#63b8ff" stroke="#63b8ff" points="119.64,-31.36 109.12,-30.1 116.56,-37.64 119.64,-31.36"/>
</a>
</g>
</g>
<!-- Node6 -->
<g id="Node000006" class="node">
<title>Node6</title>
<g id="a_Node000006"><a xlink:title=" ">
<polygon fill="#e0e0e0" stroke="#999999" points="186,-30 144,-30 144,-11 186,-11 186,-30"/>
<text text-anchor="middle" x="165" y="-18" font-family="Helvetica,sans-Serif" font-size="10.00">array</text>
</a>
</g>
</g>
<!-- Node4&#45;&gt;Node6 -->
<g id="edge5_Node000004_Node000006" class="edge">
<title>Node4&#45;&gt;Node6</title>
<g id="a_edge5_Node000004_Node000006"><a xlink:title=" ">
<path fill="none" stroke="#63b8ff" d="M451.13,-84.94C397.92,-83.06 283.94,-75.02 195,-41 191.36,-39.61 187.71,-37.73 184.26,-35.68"/>
<polygon fill="#63b8ff" stroke="#63b8ff" points="186.06,-32.68 175.79,-30.11 182.22,-38.53 186.06,-32.68"/>
</a>
</g>
</g>
<!-- Node7 -->
<g id="Node000007" class="node">
<title>Node7</title>
<g id="a_Node000007"><a xlink:title=" ">
<polygon fill="#e0e0e0" stroke="#999999" points="264,-30 204,-30 204,-11 264,-11 264,-30"/>
<text text-anchor="middle" x="234" y="-18" font-family="Helvetica,sans-Serif" font-size="10.00">concepts</text>
</a>
</g>
</g>
<!-- Node4&#45;&gt;Node7 -->
<g id="edge6_Node000004_Node000007" class="edge">
<title>Node4&#45;&gt;Node7</title>
<g id="a_edge6_Node000004_Node000007"><a xlink:title=" ">
<path fill="none" stroke="#63b8ff" d="M451.42,-81.58C410.5,-75.62 334.68,-62.63 273,-41 267.95,-39.23 262.72,-36.95 257.78,-34.58"/>
<polygon fill="#63b8ff" stroke="#63b8ff" points="259.3,-31.42 248.8,-30.01 256.13,-37.66 259.3,-31.42"/>
</a>
</g>
</g>
<!-- Node8 -->
<g id="Node000008" class="node">
<title>Node8</title>
<g id="a_Node000008"><a xlink:title=" ">
<polygon fill="#e0e0e0" stroke="#999999" points="335.5,-30 282.5,-30 282.5,-11 335.5,-11 335.5,-30"/>
<text text-anchor="middle" x="309" y="-18" font-family="Helvetica,sans-Serif" font-size="10.00">cstddef</text>
</a>
</g>
</g>
<!-- Node4&#45;&gt;Node8 -->
<g id="edge7_Node000004_Node000008" class="edge">
<title>Node4&#45;&gt;Node8</title>
<g id="a_edge7_Node000004_Node000008"><a xlink:title=" ">
<path fill="none" stroke="#63b8ff" d="M451.25,-77.45C423.31,-69.49 380.6,-56.32 345,-41 340.89,-39.23 336.62,-37.15 332.52,-35.02"/>
<polygon fill="#63b8ff" stroke="#63b8ff" points="333.87,-31.77 323.42,-30.08 330.54,-37.93 333.87,-31.77"/>
</a>
</g>
</g>
<!-- Node9 -->
<g id="Node000009" class="node">
<title>Node9</title>
<g id="a_Node000009"><a xlink:title=" ">
<polygon fill="#e0e0e0" stroke="#999999" points="404,-30 354,-30 354,-11 404,-11 404,-30"/>
<text text-anchor="middle" x="379" y="-18" font-family="Helvetica,sans-Serif" font-size="10.00">cstdint</text>
</a>
</g>
</g>
<!-- Node4&#45;&gt;Node9 -->
<g id="edge8_Node000004_Node000009" class="edge">
<title>Node4&#45;&gt;Node9</title>
<g id="a_edge8_Node000004_Node000009"><a xlink:title=" ">
<path fill="none" stroke="#63b8ff" d="M467.24,-76.87C450.36,-66.28 421.51,-48.17 401.41,-35.56"/>
<polygon fill="#63b8ff" stroke="#63b8ff" points="403.19,-32.55 392.86,-30.2 399.47,-38.48 403.19,-32.55"/>
</a>
</g>
</g>
<!-- Node10 -->
<g id="Node000010" class="node">
<title>Node10</title>
<g id="a_Node000010"><a xlink:title=" ">
<polygon fill="#e0e0e0" stroke="#999999" points="472,-30 422,-30 422,-11 472,-11 472,-30"/>
<text text-anchor="middle" x="447" y="-18" font-family="Helvetica,sans-Serif" font-size="10.00">cstring</text>
</a>
</g>
</g>
<!-- Node4&#45;&gt;Node10 -->
<g id="edge9_Node000004_Node000010" class="edge">
<title>Node4&#45;&gt;Node10</title>
<g id="a_edge9_Node000004_Node000010"><a xlink:title=" ">
<path fill="none" stroke="#63b8ff" d="M476.41,-76.87C471.32,-67.28 462.96,-51.55 456.46,-39.3"/>
<polygon fill="#63b8ff" stroke="#63b8ff" points="459.51,-37.59 451.73,-30.41 453.33,-40.88 459.51,-37.59"/>
</a>
</g>
</g>
<!-- Node11 -->
<g id="Node000011" class="node">
<title>Node11</title>
<g id="a_Node000011"><a xlink:title=" ">
<polygon fill="#e0e0e0" stroke="#999999" points="539.5,-30 490.5,-30 490.5,-11 539.5,-11 539.5,-30"/>
<text text-anchor="middle" x="515" y="-18" font-family="Helvetica,sans-Serif" font-size="10.00">cuchar</text>
</a>
</g>
</g>
<!-- Node4&#45;&gt;Node11 -->
<g id="edge10_Node000004_Node000011" class="edge">
<title>Node4&#45;&gt;Node11</title>
<g id="a_edge10_Node000004_Node000011"><a xlink:title=" ">
<path fill="none" stroke="#63b8ff" d="M485.59,-76.87C490.68,-67.28 499.04,-51.55 505.54,-39.3"/>
<polygon fill="#63b8ff" stroke="#63b8ff" points="508.67,-40.88 510.27,-30.41 502.49,-37.59 508.67,-40.88"/>
</a>
</g>
</g>
<!-- Node12 -->
<g id="Node000012" class="node">
<title>Node12</title>
<g id="a_Node000012"><a xlink:title=" ">
<polygon fill="#e0e0e0" stroke="#999999" points="602.5,-30 557.5,-30 557.5,-11 602.5,-11 602.5,-30"/>
<text text-anchor="middle" x="580" y="-18" font-family="Helvetica,sans-Serif" font-size="10.00">utility</text>
</a>
</g>
</g>
<!-- Node4&#45;&gt;Node12 -->
<g id="edge12_Node000004_Node000012" class="edge">
<title>Node4&#45;&gt;Node12</title>
<g id="a_edge12_Node000004_Node000012"><a xlink:title=" ">
<path fill="none" stroke="#63b8ff" d="M494.35,-76.87C510.66,-66.32 538.49,-48.34 557.99,-35.73"/>
<polygon fill="#63b8ff" stroke="#63b8ff" points="560.05,-38.57 566.54,-30.2 556.25,-32.69 560.05,-38.57"/>
</a>
</g>
</g>
<!-- Node13 -->
<g id="Node000013" class="node">
<title>Node13</title>
<g id="a_Node000013"><a xlink:href="../../dd/d9e/linux_2platform__config_8hpp.html" target="_top" xlink:title="additional linux platform header">
<polygon fill="white" stroke="#666666" points="775.5,-41 620.5,-41 620.5,0 775.5,0 775.5,-41"/>
<text text-anchor="start" x="628.5" y="-29" font-family="Helvetica,sans-Serif" font-size="10.00">/home/runner/work/toygine2</text>
<text text-anchor="start" x="628.5" y="-18" font-family="Helvetica,sans-Serif" font-size="10.00">/toygine2/src/platforms</text>
<text text-anchor="middle" x="698" y="-7" font-family="Helvetica,sans-Serif" font-size="10.00">/linux/platform_config.hpp</text>
</a>
</g>
</g>
<!-- Node4&#45;&gt;Node13 -->
<g id="edge13_Node000004_Node000013" class="edge">
<title>Node4&#45;&gt;Node13</title>
<g id="a_edge13_Node000004_Node000013"><a xlink:title=" ">
<path fill="none" stroke="#63b8ff" d="M510.27,-76.87C538.85,-68.44 583.56,-55.25 622.18,-43.86"/>
<polygon fill="#63b8ff" stroke="#63b8ff" points="623.25,-47.19 631.85,-41.01 621.27,-40.48 623.25,-47.19"/>
</a>
</g>
</g>
<!-- Node14 -->
<g id="Node000014" class="node">
<title>Node14</title>
<g id="a_Node000014"><a xlink:href="../../d4/dc0/constexpr__utils_8hpp.html" target="_top" xlink:title="Constexpr utility functions for compile&#45;time operations.">
<polygon fill="white" stroke="#666666" points="930,-30 794,-30 794,-11 930,-11 930,-30"/>
<text text-anchor="middle" x="862" y="-18" font-family="Helvetica,sans-Serif" font-size="10.00">core/constexpr_utils.hpp</text>
</a>
</g>
</g>
<!-- Node4&#45;&gt;Node14 -->
<g id="edge14_Node000004_Node000014" class="edge">
<title>Node4&#45;&gt;Node14</title>
<g id="a_edge14_Node000004_Node000014"><a xlink:title=" ">
<path fill="none" stroke="#63b8ff" d="M510.52,-82.2C565.04,-75.88 685.08,-60.91 785,-41 796.92,-38.62 809.77,-35.57 821.49,-32.59"/>
<polygon fill="#63b8ff" stroke="#63b8ff" points="822.64,-35.91 831.44,-30.01 820.88,-29.13 822.64,-35.91"/>
</a>
</g>
</g>
<!-- Node15 -->
<g id="Node000015" class="node">
<title>Node15</title>
<g id="a_Node000015"><a xlink:href="../../d0/d46/fix__string_8hpp.html" target="_top" xlink:title="Template string class with fixed&#45;size character buffer.">
<polygon fill="white" stroke="#666666" points="1055.5,-30 948.5,-30 948.5,-11 1055.5,-11 1055.5,-30"/>
<text text-anchor="middle" x="1002" y="-18" font-family="Helvetica,sans-Serif" font-size="10.00">core/fix_string.hpp</text>
</a>
</g>
</g>
<!-- Node4&#45;&gt;Node15 -->
<g id="edge15_Node000004_Node000015" class="edge">
<title>Node4&#45;&gt;Node15</title>
<g id="a_edge15_Node000004_Node000015"><a xlink:title=" ">
<path fill="none" stroke="#63b8ff" d="M510.51,-84.71C583.74,-82.29 779.42,-73.1 939,-41 948.83,-39.02 959.31,-36.12 968.84,-33.15"/>
<polygon fill="#63b8ff" stroke="#63b8ff" points="969.92,-36.47 978.36,-30.07 967.77,-29.81 969.92,-36.47"/>
</a>
</g>
</g>
<!-- Node16 -->
<g id="Node000016" class="node">
<title>Node16</title>
<g id="a_Node000016"><a xlink:href="../../df/d93/utils_8hpp.html" target="_top" xlink:title="Core utility functions for string manipulation, encoding conversion, and number formatting.">
<polygon fill="white" stroke="#666666" points="1156.5,-30 1073.5,-30 1073.5,-11 1156.5,-11 1156.5,-30"/>
<text text-anchor="middle" x="1115" y="-18" font-family="Helvetica,sans-Serif" font-size="10.00">core/utils.hpp</text>
</a>
</g>
</g>
<!-- Node4&#45;&gt;Node16 -->
<g id="edge16_Node000004_Node000016" class="edge">
<title>Node4&#45;&gt;Node16</title>
<g id="a_edge16_Node000004_Node000016"><a xlink:title=" ">
<path fill="none" stroke="#63b8ff" d="M510.75,-84.39C614.2,-80.37 957.68,-65.45 1065,-41 1072.49,-39.29 1080.35,-36.66 1087.56,-33.88"/>
<polygon fill="#63b8ff" stroke="#63b8ff" points="1088.96,-37.09 1096.89,-30.06 1086.31,-30.61 1088.96,-37.09"/>
</a>
</g>
</g>
<!-- Node17 -->
<g id="Node000017" class="node">
<title>Node17</title>
<g id="a_Node000017"><a xlink:href="../../db/d84/fix__string_8inl.html" target="_top" xlink:title="Inline implementations for FixString template class.">
<polygon fill="white" stroke="#666666" points="1275.5,-30 1174.5,-30 1174.5,-11 1275.5,-11 1275.5,-30"/>
<text text-anchor="middle" x="1225" y="-18" font-family="Helvetica,sans-Serif" font-size="10.00">core/fix_string.inl</text>
</a>
</g>
</g>
<!-- Node4&#45;&gt;Node17 -->
<g id="edge17_Node000004_Node000017" class="edge">
<title>Node4&#45;&gt;Node17</title>
<g id="a_edge17_Node000004_Node000017"><a xlink:title=" ">
<path fill="none" stroke="#63b8ff" d="M510.58,-84.58C624.86,-80.87 1037.46,-65.99 1166,-41 1175.23,-39.2 1185.02,-36.37 1193.91,-33.41"/>
<polygon fill="#63b8ff" stroke="#63b8ff" points="1195.21,-36.67 1203.5,-30.07 1192.9,-30.06 1195.21,-36.67"/>
</a>
</g>
</g>
<!-- Node18 -->
<g id="Node000018" class="node">
<title>Node18</title>
<g id="a_Node000018"><a xlink:href="../../df/d7d/utils_8inl.html" target="_top" xlink:title="Inline implementations of core utility functions for string manipulation and encoding conversion.">
<polygon fill="white" stroke="#666666" points="1370.5,-30 1293.5,-30 1293.5,-11 1370.5,-11 1370.5,-30"/>
<text text-anchor="middle" x="1332" y="-18" font-family="Helvetica,sans-Serif" font-size="10.00">core/utils.inl</text>
</a>
</g>
</g>
<!-- Node4&#45;&gt;Node18 -->
<g id="edge18_Node000004_Node000018" class="edge">
<title>Node4&#45;&gt;Node18</title>
<g id="a_edge18_Node000004_Node000018"><a xlink:title=" ">
<path fill="none" stroke="#63b8ff" d="M510.91,-85.19C637.97,-83.67 1133.37,-75.59 1285,-41 1291.94,-39.42 1299.18,-36.9 1305.83,-34.19"/>
<polygon fill="#63b8ff" stroke="#63b8ff" points="1307.28,-37.37 1315.05,-30.17 1304.48,-30.95 1307.28,-37.37"/>
</a>
</g>
</g>
</g>
</svg>
