<?xml version="1.0" encoding="UTF-8" standalone="no"?>
<!DOCTYPE svg PUBLIC "-//W3C//DTD SVG 1.1//EN"
 "http://www.w3.org/Graphics/SVG/1.1/DTD/svg11.dtd">
<!-- Generated by graphviz version 2.43.0 (0)
 -->
<!-- Title: src/platforms/stub/core/assertion_stub.cpp Pages: 1 -->
<svg width="2375pt" height="170pt"
 viewBox="0.00 0.00 2374.50 170.00" xmlns="http://www.w3.org/2000/svg" xmlns:xlink="http://www.w3.org/1999/xlink">
<g id="graph0" class="graph" transform="scale(1 1) rotate(0) translate(4 166)">
<title>src/platforms/stub/core/assertion_stub.cpp</title>
<!-- Node1 -->
<g id="Node000001" class="node">
<title>Node1</title>
<g id="a_Node000001"><a xlink:title=" ">
<polygon fill="#999999" stroke="#666666" points="416.5,-162 281.5,-162 281.5,-132 416.5,-132 416.5,-162"/>
<text text-anchor="start" x="289.5" y="-150" font-family="Helvetica,sans-Serif" font-size="10.00">src/platforms/stub</text>
<text text-anchor="middle" x="349" y="-139" font-family="Helvetica,sans-Serif" font-size="10.00">/core/assertion_stub.cpp</text>
</a>
</g>
</g>
<!-- Node2 -->
<g id="Node000002" class="node">
<title>Node2</title>
<g id="a_Node000002"><a xlink:title=" ">
<polygon fill="#e0e0e0" stroke="#999999" points="321,-96 275,-96 275,-77 321,-77 321,-96"/>
<text text-anchor="middle" x="298" y="-84" font-family="Helvetica,sans-Serif" font-size="10.00">cstdio</text>
</a>
</g>
</g>
<!-- Node1&#45;&gt;Node2 -->
<g id="edge1_Node000001_Node000002" class="edge">
<title>Node1&#45;&gt;Node2</title>
<g id="a_edge1_Node000001_Node000002"><a xlink:title=" ">
<path fill="none" stroke="#63b8ff" d="M336.65,-131.84C329.33,-123.43 320,-112.74 312.35,-103.96"/>
<polygon fill="#63b8ff" stroke="#63b8ff" points="314.85,-101.5 305.64,-96.27 309.58,-106.1 314.85,-101.5"/>
</a>
</g>
</g>
<!-- Node3 -->
<g id="Node000003" class="node">
<title>Node3</title>
<g id="a_Node000003"><a xlink:title=" ">
<polygon fill="#e0e0e0" stroke="#999999" points="44,-30 0,-30 0,-11 44,-11 44,-30"/>
<text text-anchor="middle" x="22" y="-18" font-family="Helvetica,sans-Serif" font-size="10.00">string</text>
</a>
</g>
</g>
<!-- Node1&#45;&gt;Node3 -->
<g id="edge2_Node000001_Node000003" class="edge">
<title>Node1&#45;&gt;Node3</title>
<g id="a_edge2_Node000001_Node000003"><a xlink:title=" ">
<path fill="none" stroke="#63b8ff" d="M349.39,-131.72C348.97,-115.83 345.66,-90.61 330,-77 283.16,-36.27 111.41,-62.01 53,-41 49.14,-39.61 45.26,-37.68 41.6,-35.58"/>
<polygon fill="#63b8ff" stroke="#63b8ff" points="43.47,-32.61 33.16,-30.18 39.7,-38.51 43.47,-32.61"/>
</a>
</g>
</g>
<!-- Node4 -->
<g id="Node000004" class="node">
<title>Node4</title>
<g id="a_Node000004"><a xlink:href="../../da/d47/core_8hpp.html" target="_top" xlink:title="Umbrella header for the engine core module.">
<polygon fill="white" stroke="#666666" points="823.5,-96 764.5,-96 764.5,-77 823.5,-77 823.5,-96"/>
<text text-anchor="middle" x="794" y="-84" font-family="Helvetica,sans-Serif" font-size="10.00">core.hpp</text>
</a>
</g>
</g>
<!-- Node1&#45;&gt;Node4 -->
<g id="edge3_Node000001_Node000004" class="edge">
<title>Node1&#45;&gt;Node4</title>
<g id="a_edge3_Node000001_Node000004"><a xlink:title=" ">
<path fill="none" stroke="#63b8ff" d="M416.59,-137.12C510.63,-124.75 677.99,-102.75 754.21,-92.73"/>
<polygon fill="#63b8ff" stroke="#63b8ff" points="754.88,-96.17 764.34,-91.4 753.97,-89.23 754.88,-96.17"/>
</a>
</g>
</g>
<!-- Node4&#45;&gt;Node3 -->
<g id="edge13_Node000004_Node000003" class="edge">
<title>Node4&#45;&gt;Node3</title>
<g id="a_edge13_Node000004_Node000003"><a xlink:title=" ">
<path fill="none" stroke="#63b8ff" d="M764.08,-84.58C634.06,-80.47 121.48,-62.99 53,-41 49.03,-39.72 45.05,-37.82 41.34,-35.7"/>
<polygon fill="#63b8ff" stroke="#63b8ff" points="43.1,-32.67 32.8,-30.19 39.31,-38.55 43.1,-32.67"/>
</a>
</g>
</g>
<!-- Node5 -->
<g id="Node000005" class="node">
<title>Node5</title>
<g id="a_Node000005"><a xlink:title=" ">
<polygon fill="#e0e0e0" stroke="#999999" points="126,-30 62,-30 62,-11 126,-11 126,-30"/>
<text text-anchor="middle" x="94" y="-18" font-family="Helvetica,sans-Serif" font-size="10.00">algorithm</text>
</a>
</g>
</g>
<!-- Node4&#45;&gt;Node5 -->
<g id="edge4_Node000004_Node000005" class="edge">
<title>Node4&#45;&gt;Node5</title>
<g id="a_edge4_Node000004_Node000005"><a xlink:title=" ">
<path fill="none" stroke="#63b8ff" d="M764.29,-84.97C652.39,-82.75 256.48,-72.76 135,-41 129.28,-39.5 123.39,-37.21 117.93,-34.72"/>
<polygon fill="#63b8ff" stroke="#63b8ff" points="119.19,-31.44 108.67,-30.14 116.08,-37.71 119.19,-31.44"/>
</a>
</g>
</g>
<!-- Node6 -->
<g id="Node000006" class="node">
<title>Node6</title>
<g id="a_Node000006"><a xlink:title=" ">
<polygon fill="#e0e0e0" stroke="#999999" points="186,-30 144,-30 144,-11 186,-11 186,-30"/>
<text text-anchor="middle" x="165" y="-18" font-family="Helvetica,sans-Serif" font-size="10.00">array</text>
</a>
</g>
</g>
<!-- Node4&#45;&gt;Node6 -->
<g id="edge5_Node000004_Node000006" class="edge">
<title>Node4&#45;&gt;Node6</title>
<g id="a_edge5_Node000004_Node000006"><a xlink:title=" ">
<path fill="none" stroke="#63b8ff" d="M764.36,-85.24C658.88,-84.01 302.33,-77.2 195,-41 191.25,-39.73 187.5,-37.89 184,-35.83"/>
<polygon fill="#63b8ff" stroke="#63b8ff" points="185.69,-32.76 175.42,-30.15 181.82,-38.59 185.69,-32.76"/>
</a>
</g>
</g>
<!-- Node7 -->
<g id="Node000007" class="node">
<title>Node7</title>
<g id="a_Node000007"><a xlink:title=" ">
<polygon fill="#e0e0e0" stroke="#999999" points="263.5,-30 204.5,-30 204.5,-11 263.5,-11 263.5,-30"/>
<text text-anchor="middle" x="234" y="-18" font-family="Helvetica,sans-Serif" font-size="10.00">compare</text>
</a>
</g>
</g>
<!-- Node4&#45;&gt;Node7 -->
<g id="edge6_Node000004_Node000007" class="edge">
<title>Node4&#45;&gt;Node7</title>
<g id="a_edge6_Node000004_Node000007"><a xlink:title=" ">
<path fill="none" stroke="#63b8ff" d="M764.42,-84.44C668.45,-80.76 366.61,-67.35 273,-41 267.67,-39.5 262.21,-37.27 257.11,-34.84"/>
<polygon fill="#63b8ff" stroke="#63b8ff" points="258.41,-31.57 247.92,-30.08 255.19,-37.79 258.41,-31.57"/>
</a>
</g>
</g>
<!-- Node8 -->
<g id="Node000008" class="node">
<title>Node8</title>
<g id="a_Node000008"><a xlink:title=" ">
<polygon fill="#e0e0e0" stroke="#999999" points="342,-30 282,-30 282,-11 342,-11 342,-30"/>
<text text-anchor="middle" x="312" y="-18" font-family="Helvetica,sans-Serif" font-size="10.00">concepts</text>
</a>
</g>
</g>
<!-- Node4&#45;&gt;Node8 -->
<g id="edge7_Node000004_Node000008" class="edge">
<title>Node4&#45;&gt;Node8</title>
<g id="a_edge7_Node000004_Node000008"><a xlink:title=" ">
<path fill="none" stroke="#63b8ff" d="M764.28,-86.18C691.97,-87.05 501.72,-84.65 351,-41 345.68,-39.46 340.22,-37.21 335.13,-34.78"/>
<polygon fill="#63b8ff" stroke="#63b8ff" points="336.43,-31.51 325.94,-30.02 333.21,-37.73 336.43,-31.51"/>
</a>
</g>
</g>
<!-- Node9 -->
<g id="Node000009" class="node">
<title>Node9</title>
<g id="a_Node000009"><a xlink:title=" ">
<polygon fill="#e0e0e0" stroke="#999999" points="413.5,-30 360.5,-30 360.5,-11 413.5,-11 413.5,-30"/>
<text text-anchor="middle" x="387" y="-18" font-family="Helvetica,sans-Serif" font-size="10.00">cstddef</text>
</a>
</g>
</g>
<!-- Node4&#45;&gt;Node9 -->
<g id="edge8_Node000004_Node000009" class="edge">
<title>Node4&#45;&gt;Node9</title>
<g id="a_edge8_Node000004_Node000009"><a xlink:title=" ">
<path fill="none" stroke="#63b8ff" d="M764.35,-85.68C700.4,-85.26 545.4,-79.93 423,-41 418.38,-39.53 413.66,-37.46 409.23,-35.21"/>
<polygon fill="#63b8ff" stroke="#63b8ff" points="410.58,-31.96 400.14,-30.17 407.19,-38.08 410.58,-31.96"/>
</a>
</g>
</g>
<!-- Node10 -->
<g id="Node000010" class="node">
<title>Node10</title>
<g id="a_Node000010"><a xlink:title=" ">
<polygon fill="#e0e0e0" stroke="#999999" points="482,-30 432,-30 432,-11 482,-11 482,-30"/>
<text text-anchor="middle" x="457" y="-18" font-family="Helvetica,sans-Serif" font-size="10.00">cstdint</text>
</a>
</g>
</g>
<!-- Node4&#45;&gt;Node10 -->
<g id="edge9_Node000004_Node000010" class="edge">
<title>Node4&#45;&gt;Node10</title>
<g id="a_edge9_Node000004_Node000010"><a xlink:title=" ">
<path fill="none" stroke="#63b8ff" d="M764.31,-84.79C709.03,-82.69 587.22,-74.31 491,-41 486.73,-39.52 482.39,-37.5 478.3,-35.32"/>
<polygon fill="#63b8ff" stroke="#63b8ff" points="479.77,-32.12 469.37,-30.1 476.24,-38.17 479.77,-32.12"/>
</a>
</g>
</g>
<!-- Node11 -->
<g id="Node000011" class="node">
<title>Node11</title>
<g id="a_Node000011"><a xlink:title=" ">
<polygon fill="#e0e0e0" stroke="#999999" points="550,-30 500,-30 500,-11 550,-11 550,-30"/>
<text text-anchor="middle" x="525" y="-18" font-family="Helvetica,sans-Serif" font-size="10.00">cstring</text>
</a>
</g>
</g>
<!-- Node4&#45;&gt;Node11 -->
<g id="edge10_Node000004_Node000011" class="edge">
<title>Node4&#45;&gt;Node11</title>
<g id="a_edge10_Node000004_Node000011"><a xlink:title=" ">
<path fill="none" stroke="#63b8ff" d="M764.21,-83.06C718.76,-78.63 629.89,-67.19 559,-41 554.84,-39.46 550.58,-37.44 546.56,-35.28"/>
<polygon fill="#63b8ff" stroke="#63b8ff" points="548.15,-32.15 537.74,-30.16 544.63,-38.21 548.15,-32.15"/>
</a>
</g>
</g>
<!-- Node12 -->
<g id="Node000012" class="node">
<title>Node12</title>
<g id="a_Node000012"><a xlink:title=" ">
<polygon fill="#e0e0e0" stroke="#999999" points="617.5,-30 568.5,-30 568.5,-11 617.5,-11 617.5,-30"/>
<text text-anchor="middle" x="593" y="-18" font-family="Helvetica,sans-Serif" font-size="10.00">cuchar</text>
</a>
</g>
</g>
<!-- Node4&#45;&gt;Node12 -->
<g id="edge11_Node000004_Node000012" class="edge">
<title>Node4&#45;&gt;Node12</title>
<g id="a_edge11_Node000004_Node000012"><a xlink:title=" ">
<path fill="none" stroke="#63b8ff" d="M764.28,-80.02C730.28,-73.2 673.33,-60.08 627,-41 622.97,-39.34 618.82,-37.29 614.87,-35.14"/>
<polygon fill="#63b8ff" stroke="#63b8ff" points="616.57,-32.08 606.16,-30.12 613.07,-38.15 616.57,-32.08"/>
</a>
</g>
</g>
<!-- Node13 -->
<g id="Node000013" class="node">
<title>Node13</title>
<g id="a_Node000013"><a xlink:title=" ">
<polygon fill="#e0e0e0" stroke="#999999" points="694,-30 636,-30 636,-11 694,-11 694,-30"/>
<text text-anchor="middle" x="665" y="-18" font-family="Helvetica,sans-Serif" font-size="10.00">memory</text>
</a>
</g>
</g>
<!-- Node4&#45;&gt;Node13 -->
<g id="edge12_Node000004_Node000013" class="edge">
<title>Node4&#45;&gt;Node13</title>
<g id="a_edge12_Node000004_Node000013"><a xlink:title=" ">
<path fill="none" stroke="#63b8ff" d="M776.16,-76.9C757.78,-68.01 728.31,-53.68 703,-41 699.05,-39.02 694.87,-36.9 690.8,-34.82"/>
<polygon fill="#63b8ff" stroke="#63b8ff" points="692.11,-31.56 681.61,-30.11 688.91,-37.79 692.11,-31.56"/>
</a>
</g>
</g>
<!-- Node14 -->
<g id="Node000014" class="node">
<title>Node14</title>
<g id="a_Node000014"><a xlink:title=" ">
<polygon fill="#e0e0e0" stroke="#999999" points="757.5,-30 712.5,-30 712.5,-11 757.5,-11 757.5,-30"/>
<text text-anchor="middle" x="735" y="-18" font-family="Helvetica,sans-Serif" font-size="10.00">utility</text>
</a>
</g>
</g>
<!-- Node4&#45;&gt;Node14 -->
<g id="edge14_Node000004_Node000014" class="edge">
<title>Node4&#45;&gt;Node14</title>
<g id="a_edge14_Node000004_Node000014"><a xlink:title=" ">
<path fill="none" stroke="#63b8ff" d="M786.04,-76.87C776.86,-66.9 761.54,-50.29 750.08,-37.86"/>
<polygon fill="#63b8ff" stroke="#63b8ff" points="752.56,-35.39 743.21,-30.41 747.41,-40.13 752.56,-35.39"/>
</a>
</g>
</g>
<!-- Node15 -->
<g id="Node000015" class="node">
<title>Node15</title>
<g id="a_Node000015"><a xlink:href="../../dd/d9e/linux_2platform__config_8hpp.html" target="_top" xlink:title="additional linux platform header">
<polygon fill="white" stroke="#666666" points="930.5,-41 775.5,-41 775.5,0 930.5,0 930.5,-41"/>
<text text-anchor="start" x="783.5" y="-29" font-family="Helvetica,sans-Serif" font-size="10.00">/home/runner/work/toygine2</text>
<text text-anchor="start" x="783.5" y="-18" font-family="Helvetica,sans-Serif" font-size="10.00">/toygine2/src/platforms</text>
<text text-anchor="middle" x="853" y="-7" font-family="Helvetica,sans-Serif" font-size="10.00">/linux/platform_config.hpp</text>
</a>
</g>
</g>
<!-- Node4&#45;&gt;Node15 -->
<g id="edge15_Node000004_Node000015" class="edge">
<title>Node4&#45;&gt;Node15</title>
<g id="a_edge15_Node000004_Node000015"><a xlink:title=" ">
<path fill="none" stroke="#63b8ff" d="M801.96,-76.87C808.67,-69.58 818.67,-58.74 828.04,-48.58"/>
<polygon fill="#63b8ff" stroke="#63b8ff" points="830.81,-50.73 835.02,-41.01 825.66,-45.99 830.81,-50.73"/>
</a>
</g>
</g>
<!-- Node16 -->
<g id="Node000016" class="node">
<title>Node16</title>
<g id="a_Node000016"><a xlink:href="../../dd/ded/c__string__view_8hpp.html" target="_top" xlink:title="Non&#45;owning string view class for C&#45;style strings.">
<polygon fill="white" stroke="#666666" points="1077,-30 949,-30 949,-11 1077,-11 1077,-30"/>
<text text-anchor="middle" x="1013" y="-18" font-family="Helvetica,sans-Serif" font-size="10.00">core/c_string_view.hpp</text>
</a>
</g>
</g>
<!-- Node4&#45;&gt;Node16 -->
<g id="edge16_Node000004_Node000016" class="edge">
<title>Node4&#45;&gt;Node16</title>
<g id="a_edge16_Node000004_Node000016"><a xlink:title=" ">
<path fill="none" stroke="#63b8ff" d="M823.54,-76.87C862.34,-65.53 930.6,-45.58 973.72,-32.98"/>
<polygon fill="#63b8ff" stroke="#63b8ff" points="974.97,-36.26 983.58,-30.1 973,-29.54 974.97,-36.26"/>
</a>
</g>
</g>
<!-- Node17 -->
<g id="Node000017" class="node">
<title>Node17</title>
<g id="a_Node000017"><a xlink:href="../../d4/dc0/constexpr__utils_8hpp.html" target="_top" xlink:title="Constexpr utility functions for compile&#45;time operations.">
<polygon fill="white" stroke="#666666" points="1231,-30 1095,-30 1095,-11 1231,-11 1231,-30"/>
<text text-anchor="middle" x="1163" y="-18" font-family="Helvetica,sans-Serif" font-size="10.00">core/constexpr_utils.hpp</text>
</a>
</g>
</g>
<!-- Node4&#45;&gt;Node17 -->
<g id="edge17_Node000004_Node000017" class="edge">
<title>Node4&#45;&gt;Node17</title>
<g id="a_edge17_Node000004_Node000017"><a xlink:title=" ">
<path fill="none" stroke="#63b8ff" d="M823.59,-81.95C876.52,-75.4 990.75,-60.27 1086,-41 1097.81,-38.61 1110.53,-35.58 1122.17,-32.62"/>
<polygon fill="#63b8ff" stroke="#63b8ff" points="1123.26,-35.96 1132.06,-30.06 1121.5,-29.18 1123.26,-35.96"/>
</a>
</g>
</g>
<!-- Node18 -->
<g id="Node000018" class="node">
<title>Node18</title>
<g id="a_Node000018"><a xlink:href="../../d7/d7f/fixed__string_8hpp.html" target="_top" xlink:title="Template string class with fixed&#45;size character buffer.">
<polygon fill="white" stroke="#666666" points="1367,-30 1249,-30 1249,-11 1367,-11 1367,-30"/>
<text text-anchor="middle" x="1308" y="-18" font-family="Helvetica,sans-Serif" font-size="10.00">core/fixed_string.hpp</text>
</a>
</g>
</g>
<!-- Node4&#45;&gt;Node18 -->
<g id="edge18_Node000004_Node000018" class="edge">
<title>Node4&#45;&gt;Node18</title>
<g id="a_edge18_Node000004_Node000018"><a xlink:title=" ">
<path fill="none" stroke="#63b8ff" d="M823.75,-84.38C895.78,-81.27 1085.05,-70.7 1240,-41 1250.79,-38.93 1262.33,-35.93 1272.79,-32.9"/>
<polygon fill="#63b8ff" stroke="#63b8ff" points="1273.86,-36.23 1282.43,-30.01 1271.85,-29.53 1273.86,-36.23"/>
</a>
</g>
</g>
<!-- Node19 -->
<g id="Node000019" class="node">
<title>Node19</title>
<g id="a_Node000019"><a xlink:href="../../d7/dea/fixed__vector_8hpp.html" target="_top" xlink:title="TODO.">
<polygon fill="white" stroke="#666666" points="1505,-30 1385,-30 1385,-11 1505,-11 1505,-30"/>
<text text-anchor="middle" x="1445" y="-18" font-family="Helvetica,sans-Serif" font-size="10.00">core/fixed_vector.hpp</text>
</a>
</g>
</g>
<!-- Node4&#45;&gt;Node19 -->
<g id="edge19_Node000004_Node000019" class="edge">
<title>Node4&#45;&gt;Node19</title>
<g id="a_edge19_Node000004_Node000019"><a xlink:title=" ">
<path fill="none" stroke="#63b8ff" d="M823.63,-85.31C909.68,-84.31 1166.73,-78.19 1376,-41 1387.05,-39.04 1398.88,-36.04 1409.57,-32.97"/>
<polygon fill="#63b8ff" stroke="#63b8ff" points="1410.81,-36.25 1419.4,-30.05 1408.82,-29.55 1410.81,-36.25"/>
</a>
</g>
</g>
<!-- Node20 -->
<g id="Node000020" class="node">
<title>Node20</title>
<g id="a_Node000020"><a xlink:href="../../dd/d8e/hashes_8hpp.html" target="_top" xlink:title="CRC hash functions.">
<polygon fill="white" stroke="#666666" points="1619,-30 1523,-30 1523,-11 1619,-11 1619,-30"/>
<text text-anchor="middle" x="1571" y="-18" font-family="Helvetica,sans-Serif" font-size="10.00">core/hashes.hpp</text>
</a>
</g>
</g>
<!-- Node4&#45;&gt;Node20 -->
<g id="edge20_Node000004_Node000020" class="edge">
<title>Node4&#45;&gt;Node20</title>
<g id="a_edge20_Node000004_Node000020"><a xlink:title=" ">
<path fill="none" stroke="#63b8ff" d="M823.88,-84.72C942.28,-81.46 1378.56,-67.85 1514,-41 1522.85,-39.25 1532.2,-36.46 1540.72,-33.54"/>
<polygon fill="#63b8ff" stroke="#63b8ff" points="1542.04,-36.78 1550.26,-30.1 1539.66,-30.2 1542.04,-36.78"/>
</a>
</g>
</g>
<!-- Node21 -->
<g id="Node000021" class="node">
<title>Node21</title>
<g id="a_Node000021"><a xlink:href="../../df/d93/utils_8hpp.html" target="_top" xlink:title="Core utility functions for string manipulation, encoding conversion, and number formatting.">
<polygon fill="white" stroke="#666666" points="1720.5,-30 1637.5,-30 1637.5,-11 1720.5,-11 1720.5,-30"/>
<text text-anchor="middle" x="1679" y="-18" font-family="Helvetica,sans-Serif" font-size="10.00">core/utils.hpp</text>
</a>
</g>
</g>
<!-- Node4&#45;&gt;Node21 -->
<g id="edge21_Node000004_Node000021" class="edge">
<title>Node4&#45;&gt;Node21</title>
<g id="a_edge21_Node000004_Node000021"><a xlink:title=" ">
<path fill="none" stroke="#63b8ff" d="M823.68,-85.15C953.23,-83.45 1469.68,-74.62 1628,-41 1635.65,-39.38 1643.67,-36.77 1651.02,-33.99"/>
<polygon fill="#63b8ff" stroke="#63b8ff" points="1652.56,-37.14 1660.53,-30.16 1649.95,-30.65 1652.56,-37.14"/>
</a>
</g>
</g>
<!-- Node22 -->
<g id="Node000022" class="node">
<title>Node22</title>
<g id="a_Node000022"><a xlink:href="../../df/d4a/c__string__view_8inl.html" target="_top" xlink:title="Inline implementations for CStringView class.">
<polygon fill="white" stroke="#666666" points="1861,-30 1739,-30 1739,-11 1861,-11 1861,-30"/>
<text text-anchor="middle" x="1800" y="-18" font-family="Helvetica,sans-Serif" font-size="10.00">core/c_string_view.inl</text>
</a>
</g>
</g>
<!-- Node4&#45;&gt;Node22 -->
<g id="edge22_Node000004_Node000022" class="edge">
<title>Node4&#45;&gt;Node22</title>
<g id="a_edge22_Node000004_Node000022"><a xlink:title=" ">
<path fill="none" stroke="#63b8ff" d="M823.9,-84.98C963.2,-82.42 1549.31,-70.09 1730,-41 1741.54,-39.14 1753.89,-36.08 1764.96,-32.92"/>
<polygon fill="#63b8ff" stroke="#63b8ff" points="1766.11,-36.23 1774.7,-30.03 1764.12,-29.52 1766.11,-36.23"/>
</a>
</g>
</g>
<!-- Node23 -->
<g id="Node000023" class="node">
<title>Node23</title>
<g id="a_Node000023"><a xlink:href="../../dc/d28/constexpr__utils_8inl.html" target="_top" xlink:title="Inline implementations for constexpr utility functions.">
<polygon fill="white" stroke="#666666" points="2009,-30 1879,-30 1879,-11 2009,-11 2009,-30"/>
<text text-anchor="middle" x="1944" y="-18" font-family="Helvetica,sans-Serif" font-size="10.00">core/constexpr_utils.inl</text>
</a>
</g>
</g>
<!-- Node4&#45;&gt;Node23 -->
<g id="edge23_Node000004_Node000023" class="edge">
<title>Node4&#45;&gt;Node23</title>
<g id="a_edge23_Node000004_Node000023"><a xlink:title=" ">
<path fill="none" stroke="#63b8ff" d="M823.72,-85.14C974.93,-83.17 1659.93,-72.64 1870,-41 1882.29,-39.15 1895.49,-36.04 1907.28,-32.85"/>
<polygon fill="#63b8ff" stroke="#63b8ff" points="1908.55,-36.13 1917.23,-30.05 1906.66,-29.39 1908.55,-36.13"/>
</a>
</g>
</g>
<!-- Node24 -->
<g id="Node000024" class="node">
<title>Node24</title>
<g id="a_Node000024"><a xlink:href="../../d7/d40/fixed__string_8inl.html" target="_top" xlink:title="Inline implementations for FixedString template class.">
<polygon fill="white" stroke="#666666" points="2139,-30 2027,-30 2027,-11 2139,-11 2139,-30"/>
<text text-anchor="middle" x="2083" y="-18" font-family="Helvetica,sans-Serif" font-size="10.00">core/fixed_string.inl</text>
</a>
</g>
</g>
<!-- Node4&#45;&gt;Node24 -->
<g id="edge24_Node000004_Node000024" class="edge">
<title>Node4&#45;&gt;Node24</title>
<g id="a_edge24_Node000004_Node000024"><a xlink:title=" ">
<path fill="none" stroke="#63b8ff" d="M823.69,-85.45C987.04,-84.99 1777.66,-80.75 2018,-41 2028.64,-39.24 2039.97,-36.25 2050.15,-33.13"/>
<polygon fill="#63b8ff" stroke="#63b8ff" points="2051.42,-36.4 2059.87,-30.01 2049.28,-29.73 2051.42,-36.4"/>
</a>
</g>
</g>
<!-- Node25 -->
<g id="Node000025" class="node">
<title>Node25</title>
<g id="a_Node000025"><a xlink:href="../../da/dc9/fixed__vector_8inl.html" target="_top" xlink:title="TODO.">
<polygon fill="white" stroke="#666666" points="2271,-30 2157,-30 2157,-11 2271,-11 2271,-30"/>
<text text-anchor="middle" x="2214" y="-18" font-family="Helvetica,sans-Serif" font-size="10.00">core/fixed_vector.inl</text>
</a>
</g>
</g>
<!-- Node4&#45;&gt;Node25 -->
<g id="edge25_Node000004_Node000025" class="edge">
<title>Node4&#45;&gt;Node25</title>
<g id="a_edge25_Node000004_Node000025"><a xlink:title=" ">
<path fill="none" stroke="#63b8ff" d="M823.66,-85.55C997,-85.68 1880.4,-84.2 2148,-41 2158.91,-39.24 2170.54,-36.21 2180.96,-33.05"/>
<polygon fill="#63b8ff" stroke="#63b8ff" points="2182.03,-36.38 2190.51,-30.03 2179.92,-29.71 2182.03,-36.38"/>
</a>
</g>
</g>
<!-- Node26 -->
<g id="Node000026" class="node">
<title>Node26</title>
<g id="a_Node000026"><a xlink:href="../../df/d7d/utils_8inl.html" target="_top" xlink:title="Inline implementations of core utility functions for string manipulation and encoding conversion.">
<polygon fill="white" stroke="#666666" points="2366.5,-30 2289.5,-30 2289.5,-11 2366.5,-11 2366.5,-30"/>
<text text-anchor="middle" x="2328" y="-18" font-family="Helvetica,sans-Serif" font-size="10.00">core/utils.inl</text>
</a>
</g>
</g>
<!-- Node4&#45;&gt;Node26 -->
<g id="edge26_Node000004_Node000026" class="edge">
<title>Node4&#45;&gt;Node26</title>
<g id="a_edge26_Node000004_Node000026"><a xlink:title=" ">
<path fill="none" stroke="#63b8ff" d="M823.63,-85.24C1020.2,-83.46 2132.74,-72.07 2280,-41 2287.21,-39.48 2294.73,-36.93 2301.61,-34.17"/>
<polygon fill="#63b8ff" stroke="#63b8ff" points="2303.34,-37.24 2311.14,-30.07 2300.57,-30.81 2303.34,-37.24"/>
</a>
</g>
</g>
</g>
</svg>
