<?xml version="1.0" encoding="UTF-8" standalone="no"?>
<!DOCTYPE svg PUBLIC "-//W3C//DTD SVG 1.1//EN"
 "http://www.w3.org/Graphics/SVG/1.1/DTD/svg11.dtd">
<!-- Generated by graphviz version 2.43.0 (0)
 -->
<!-- Title: src/platforms/stub/core/assertion_stub.cpp Pages: 1 -->
<svg width="3924pt" height="236pt"
 viewBox="0.00 0.00 3923.50 236.00" xmlns="http://www.w3.org/2000/svg" xmlns:xlink="http://www.w3.org/1999/xlink">
<g id="graph0" class="graph" transform="scale(1 1) rotate(0) translate(4 232)">
<title>src/platforms/stub/core/assertion_stub.cpp</title>
<!-- Node1 -->
<g id="Node000001" class="node">
<title>Node1</title>
<g id="a_Node000001"><a xlink:title="Stub implementation of assertion system for platforms without native assertion support.">
<polygon fill="#999999" stroke="#666666" points="1440.5,-228 1305.5,-228 1305.5,-198 1440.5,-198 1440.5,-228"/>
<text text-anchor="start" x="1313.5" y="-216" font-family="Helvetica,sans-Serif" font-size="10.00">src/platforms/stub</text>
<text text-anchor="middle" x="1373" y="-205" font-family="Helvetica,sans-Serif" font-size="10.00">/core/assertion_stub.cpp</text>
</a>
</g>
</g>
<!-- Node2 -->
<g id="Node000002" class="node">
<title>Node2</title>
<g id="a_Node000002"><a xlink:title=" ">
<polygon fill="#e0e0e0" stroke="#999999" points="1361,-162 1315,-162 1315,-143 1361,-143 1361,-162"/>
<text text-anchor="middle" x="1338" y="-150" font-family="Helvetica,sans-Serif" font-size="10.00">cstdio</text>
</a>
</g>
</g>
<!-- Node1&#45;&gt;Node2 -->
<g id="edge1_Node000001_Node000002" class="edge">
<title>Node1&#45;&gt;Node2</title>
<g id="a_edge1_Node000001_Node000002"><a xlink:title=" ">
<path fill="none" stroke="#63b8ff" d="M1364.53,-197.84C1359.71,-189.78 1353.63,-179.62 1348.5,-171.06"/>
<polygon fill="#63b8ff" stroke="#63b8ff" points="1351.38,-169.05 1343.24,-162.27 1345.38,-172.64 1351.38,-169.05"/>
</a>
</g>
</g>
<!-- Node3 -->
<g id="Node000003" class="node">
<title>Node3</title>
<g id="a_Node000003"><a xlink:href="../../da/d47/core_8hpp.html" target="_top" xlink:title="Umbrella header for the engine core module.">
<polygon fill="white" stroke="#666666" points="1438.5,-162 1379.5,-162 1379.5,-143 1438.5,-143 1438.5,-162"/>
<text text-anchor="middle" x="1409" y="-150" font-family="Helvetica,sans-Serif" font-size="10.00">core.hpp</text>
</a>
</g>
</g>
<!-- Node1&#45;&gt;Node3 -->
<g id="edge2_Node000001_Node000003" class="edge">
<title>Node1&#45;&gt;Node3</title>
<g id="a_edge2_Node000001_Node000003"><a xlink:title=" ">
<path fill="none" stroke="#63b8ff" d="M1381.71,-197.84C1386.67,-189.78 1392.93,-179.62 1398.2,-171.06"/>
<polygon fill="#63b8ff" stroke="#63b8ff" points="1401.35,-172.62 1403.61,-162.27 1395.38,-168.95 1401.35,-172.62"/>
</a>
</g>
</g>
<!-- Node4 -->
<g id="Node000004" class="node">
<title>Node4</title>
<g id="a_Node000004"><a xlink:title=" ">
<polygon fill="#e0e0e0" stroke="#999999" points="64,-96 0,-96 0,-77 64,-77 64,-96"/>
<text text-anchor="middle" x="32" y="-84" font-family="Helvetica,sans-Serif" font-size="10.00">algorithm</text>
</a>
</g>
</g>
<!-- Node3&#45;&gt;Node4 -->
<g id="edge3_Node000003_Node000004" class="edge">
<title>Node3&#45;&gt;Node4</title>
<g id="a_edge3_Node000003_Node000004"><a xlink:title=" ">
<path fill="none" stroke="#63b8ff" d="M1379.29,-144.43C1376.17,-143.86 1373.03,-143.37 1370,-143 1083.78,-108.15 353.35,-174.37 73,-107 67.01,-105.56 60.86,-103.18 55.2,-100.57"/>
<polygon fill="#63b8ff" stroke="#63b8ff" points="56.76,-97.44 46.26,-96.09 53.62,-103.7 56.76,-97.44"/>
</a>
</g>
</g>
<!-- Node5 -->
<g id="Node000005" class="node">
<title>Node5</title>
<g id="a_Node000005"><a xlink:title=" ">
<polygon fill="#e0e0e0" stroke="#999999" points="124,-96 82,-96 82,-77 124,-77 124,-96"/>
<text text-anchor="middle" x="103" y="-84" font-family="Helvetica,sans-Serif" font-size="10.00">array</text>
</a>
</g>
</g>
<!-- Node3&#45;&gt;Node5 -->
<g id="edge4_Node000003_Node000005" class="edge">
<title>Node3&#45;&gt;Node5</title>
<g id="a_edge4_Node000003_Node000005"><a xlink:title=" ">
<path fill="none" stroke="#63b8ff" d="M1379.29,-144.43C1376.16,-143.86 1373.03,-143.37 1370,-143 1233.52,-126.29 264.25,-147.99 133,-107 129.04,-105.76 125.11,-103.85 121.46,-101.69"/>
<polygon fill="#63b8ff" stroke="#63b8ff" points="123.36,-98.75 113.11,-96.08 119.46,-104.56 123.36,-98.75"/>
</a>
</g>
</g>
<!-- Node6 -->
<g id="Node000006" class="node">
<title>Node6</title>
<g id="a_Node000006"><a xlink:title=" ">
<polygon fill="#e0e0e0" stroke="#999999" points="171.5,-96 142.5,-96 142.5,-77 171.5,-77 171.5,-96"/>
<text text-anchor="middle" x="157" y="-84" font-family="Helvetica,sans-Serif" font-size="10.00">bit</text>
</a>
</g>
</g>
<!-- Node3&#45;&gt;Node6 -->
<g id="edge5_Node000003_Node000006" class="edge">
<title>Node3&#45;&gt;Node6</title>
<g id="a_edge5_Node000003_Node000006"><a xlink:title=" ">
<path fill="none" stroke="#63b8ff" d="M1379.29,-144.43C1376.16,-143.87 1373.03,-143.37 1370,-143 1238.71,-126.85 303.49,-154.43 180,-107 177.43,-106.01 174.95,-104.61 172.63,-103.01"/>
<polygon fill="#63b8ff" stroke="#63b8ff" points="174.52,-100.02 164.61,-96.26 170.01,-105.37 174.52,-100.02"/>
</a>
</g>
</g>
<!-- Node7 -->
<g id="Node000007" class="node">
<title>Node7</title>
<g id="a_Node000007"><a xlink:title=" ">
<polygon fill="#e0e0e0" stroke="#999999" points="236.5,-96 189.5,-96 189.5,-77 236.5,-77 236.5,-96"/>
<text text-anchor="middle" x="213" y="-84" font-family="Helvetica,sans-Serif" font-size="10.00">cmath</text>
</a>
</g>
</g>
<!-- Node3&#45;&gt;Node7 -->
<g id="edge6_Node000003_Node000007" class="edge">
<title>Node3&#45;&gt;Node7</title>
<g id="a_edge6_Node000003_Node000007"><a xlink:title=" ">
<path fill="none" stroke="#63b8ff" d="M1379.29,-144.44C1376.16,-143.87 1373.03,-143.37 1370,-143 1121.77,-112.24 484.71,-178.44 245,-107 240.72,-105.72 236.44,-103.73 232.46,-101.5"/>
<polygon fill="#63b8ff" stroke="#63b8ff" points="234.2,-98.46 223.87,-96.07 230.46,-104.37 234.2,-98.46"/>
</a>
</g>
</g>
<!-- Node8 -->
<g id="Node000008" class="node">
<title>Node8</title>
<g id="a_Node000008"><a xlink:title=" ">
<polygon fill="#e0e0e0" stroke="#999999" points="313.5,-96 254.5,-96 254.5,-77 313.5,-77 313.5,-96"/>
<text text-anchor="middle" x="284" y="-84" font-family="Helvetica,sans-Serif" font-size="10.00">compare</text>
</a>
</g>
</g>
<!-- Node3&#45;&gt;Node8 -->
<g id="edge7_Node000003_Node000008" class="edge">
<title>Node3&#45;&gt;Node8</title>
<g id="a_edge7_Node000003_Node000008"><a xlink:title=" ">
<path fill="none" stroke="#63b8ff" d="M1379.28,-144.45C1376.16,-143.88 1373.03,-143.38 1370,-143 1139,-114.09 548.62,-164.37 323,-107 317.41,-105.58 311.68,-103.27 306.41,-100.74"/>
<polygon fill="#63b8ff" stroke="#63b8ff" points="307.99,-97.62 297.51,-96.06 304.74,-103.81 307.99,-97.62"/>
</a>
</g>
</g>
<!-- Node9 -->
<g id="Node000009" class="node">
<title>Node9</title>
<g id="a_Node000009"><a xlink:title=" ">
<polygon fill="#e0e0e0" stroke="#999999" points="392,-96 332,-96 332,-77 392,-77 392,-96"/>
<text text-anchor="middle" x="362" y="-84" font-family="Helvetica,sans-Serif" font-size="10.00">concepts</text>
</a>
</g>
</g>
<!-- Node3&#45;&gt;Node9 -->
<g id="edge8_Node000003_Node000009" class="edge">
<title>Node3&#45;&gt;Node9</title>
<g id="a_edge8_Node000003_Node000009"><a xlink:title=" ">
<path fill="none" stroke="#63b8ff" d="M1379.28,-144.45C1376.16,-143.89 1373.02,-143.38 1370,-143 1156.22,-115.95 609.76,-160.39 401,-107 395.41,-105.57 389.69,-103.26 384.41,-100.73"/>
<polygon fill="#63b8ff" stroke="#63b8ff" points="386,-97.6 375.52,-96.05 382.74,-103.8 386,-97.6"/>
</a>
</g>
</g>
<!-- Node10 -->
<g id="Node000010" class="node">
<title>Node10</title>
<g id="a_Node000010"><a xlink:title=" ">
<polygon fill="#e0e0e0" stroke="#999999" points="463.5,-96 410.5,-96 410.5,-77 463.5,-77 463.5,-96"/>
<text text-anchor="middle" x="437" y="-84" font-family="Helvetica,sans-Serif" font-size="10.00">cstddef</text>
</a>
</g>
</g>
<!-- Node3&#45;&gt;Node10 -->
<g id="edge9_Node000003_Node000010" class="edge">
<title>Node3&#45;&gt;Node10</title>
<g id="a_edge9_Node000003_Node000010"><a xlink:title=" ">
<path fill="none" stroke="#63b8ff" d="M1379.28,-144.46C1376.16,-143.89 1373.02,-143.39 1370,-143 1172.12,-117.66 665.36,-159.88 473,-107 468.04,-105.64 463,-103.48 458.33,-101.09"/>
<polygon fill="#63b8ff" stroke="#63b8ff" points="459.82,-97.92 449.39,-96.05 456.38,-104.01 459.82,-97.92"/>
</a>
</g>
</g>
<!-- Node11 -->
<g id="Node000011" class="node">
<title>Node11</title>
<g id="a_Node000011"><a xlink:title=" ">
<polygon fill="#e0e0e0" stroke="#999999" points="532,-96 482,-96 482,-77 532,-77 532,-96"/>
<text text-anchor="middle" x="507" y="-84" font-family="Helvetica,sans-Serif" font-size="10.00">cstdint</text>
</a>
</g>
</g>
<!-- Node3&#45;&gt;Node11 -->
<g id="edge10_Node000003_Node000011" class="edge">
<title>Node3&#45;&gt;Node11</title>
<g id="a_edge10_Node000003_Node000011"><a xlink:title=" ">
<path fill="none" stroke="#63b8ff" d="M1379.28,-144.47C1376.16,-143.9 1373.02,-143.39 1370,-143 1187.14,-119.28 718.11,-158.32 541,-107 536.39,-105.66 531.74,-103.58 527.42,-101.27"/>
<polygon fill="#63b8ff" stroke="#63b8ff" points="529.02,-98.15 518.64,-96.04 525.44,-104.16 529.02,-98.15"/>
</a>
</g>
</g>
<!-- Node12 -->
<g id="Node000012" class="node">
<title>Node12</title>
<g id="a_Node000012"><a xlink:title=" ">
<polygon fill="#e0e0e0" stroke="#999999" points="600,-96 550,-96 550,-77 600,-77 600,-96"/>
<text text-anchor="middle" x="575" y="-84" font-family="Helvetica,sans-Serif" font-size="10.00">cstring</text>
</a>
</g>
</g>
<!-- Node3&#45;&gt;Node12 -->
<g id="edge11_Node000003_Node000012" class="edge">
<title>Node3&#45;&gt;Node12</title>
<g id="a_edge11_Node000003_Node000012"><a xlink:title=" ">
<path fill="none" stroke="#63b8ff" d="M1379.28,-144.49C1376.16,-143.91 1373.02,-143.4 1370,-143 1202.15,-120.9 771.52,-154.44 609,-107 604.39,-105.66 599.74,-103.57 595.42,-101.26"/>
<polygon fill="#63b8ff" stroke="#63b8ff" points="597.03,-98.14 586.64,-96.02 593.44,-104.15 597.03,-98.14"/>
</a>
</g>
</g>
<!-- Node13 -->
<g id="Node000013" class="node">
<title>Node13</title>
<g id="a_Node000013"><a xlink:title=" ">
<polygon fill="#e0e0e0" stroke="#999999" points="667.5,-96 618.5,-96 618.5,-77 667.5,-77 667.5,-96"/>
<text text-anchor="middle" x="643" y="-84" font-family="Helvetica,sans-Serif" font-size="10.00">cuchar</text>
</a>
</g>
</g>
<!-- Node3&#45;&gt;Node13 -->
<g id="edge12_Node000003_Node000013" class="edge">
<title>Node3&#45;&gt;Node13</title>
<g id="a_edge12_Node000003_Node000013"><a xlink:title=" ">
<path fill="none" stroke="#63b8ff" d="M1379.28,-144.5C1376.16,-143.92 1373.02,-143.4 1370,-143 1216.94,-122.49 823.86,-151.57 676,-107 671.63,-105.68 667.23,-103.67 663.13,-101.43"/>
<polygon fill="#63b8ff" stroke="#63b8ff" points="664.63,-98.24 654.27,-96.01 660.97,-104.21 664.63,-98.24"/>
</a>
</g>
</g>
<!-- Node14 -->
<g id="Node000014" class="node">
<title>Node14</title>
<g id="a_Node000014"><a xlink:title=" ">
<polygon fill="#e0e0e0" stroke="#999999" points="768.5,-96 685.5,-96 685.5,-77 768.5,-77 768.5,-96"/>
<text text-anchor="middle" x="727" y="-84" font-family="Helvetica,sans-Serif" font-size="10.00">initializer_list</text>
</a>
</g>
</g>
<!-- Node3&#45;&gt;Node14 -->
<g id="edge13_Node000003_Node000014" class="edge">
<title>Node3&#45;&gt;Node14</title>
<g id="a_edge13_Node000003_Node000014"><a xlink:title=" ">
<path fill="none" stroke="#63b8ff" d="M1379.27,-144.53C1376.15,-143.94 1373.02,-143.42 1370,-143 1108.46,-106.78 1034.89,-163.65 777,-107 769.49,-105.35 761.63,-102.74 754.42,-99.96"/>
<polygon fill="#63b8ff" stroke="#63b8ff" points="755.67,-96.69 745.09,-96.13 753.02,-103.16 755.67,-96.69"/>
</a>
</g>
</g>
<!-- Node15 -->
<g id="Node000015" class="node">
<title>Node15</title>
<g id="a_Node000015"><a xlink:title=" ">
<polygon fill="#e0e0e0" stroke="#999999" points="839.5,-96 786.5,-96 786.5,-77 839.5,-77 839.5,-96"/>
<text text-anchor="middle" x="813" y="-84" font-family="Helvetica,sans-Serif" font-size="10.00">iterator</text>
</a>
</g>
</g>
<!-- Node3&#45;&gt;Node15 -->
<g id="edge14_Node000003_Node000015" class="edge">
<title>Node3&#45;&gt;Node15</title>
<g id="a_edge14_Node000003_Node000015"><a xlink:title=" ">
<path fill="none" stroke="#63b8ff" d="M1379.27,-144.55C1376.15,-143.96 1373.02,-143.43 1370,-143 1140.22,-110.2 1071.89,-171.75 849,-107 844.14,-105.59 839.19,-103.45 834.59,-101.1"/>
<polygon fill="#63b8ff" stroke="#63b8ff" points="836.18,-97.98 825.75,-96.15 832.76,-104.09 836.18,-97.98"/>
</a>
</g>
</g>
<!-- Node16 -->
<g id="Node000016" class="node">
<title>Node16</title>
<g id="a_Node000016"><a xlink:title=" ">
<polygon fill="#e0e0e0" stroke="#999999" points="902,-96 858,-96 858,-77 902,-77 902,-96"/>
<text text-anchor="middle" x="880" y="-84" font-family="Helvetica,sans-Serif" font-size="10.00">limits</text>
</a>
</g>
</g>
<!-- Node3&#45;&gt;Node16 -->
<g id="edge15_Node000003_Node000016" class="edge">
<title>Node3&#45;&gt;Node16</title>
<g id="a_edge15_Node000003_Node000016"><a xlink:title=" ">
<path fill="none" stroke="#63b8ff" d="M1379.27,-144.58C1376.15,-143.99 1373.02,-143.44 1370,-143 1167.56,-113.14 1105.25,-171.35 911,-107 907.04,-105.69 903.07,-103.77 899.36,-101.64"/>
<polygon fill="#63b8ff" stroke="#63b8ff" points="901.12,-98.61 890.82,-96.13 897.33,-104.49 901.12,-98.61"/>
</a>
</g>
</g>
<!-- Node17 -->
<g id="Node000017" class="node">
<title>Node17</title>
<g id="a_Node000017"><a xlink:title=" ">
<polygon fill="#e0e0e0" stroke="#999999" points="978,-96 920,-96 920,-77 978,-77 978,-96"/>
<text text-anchor="middle" x="949" y="-84" font-family="Helvetica,sans-Serif" font-size="10.00">memory</text>
</a>
</g>
</g>
<!-- Node3&#45;&gt;Node17 -->
<g id="edge16_Node000003_Node000017" class="edge">
<title>Node3&#45;&gt;Node17</title>
<g id="a_edge16_Node000003_Node000017"><a xlink:title=" ">
<path fill="none" stroke="#63b8ff" d="M1379.26,-144.63C1376.14,-144.03 1373.01,-143.47 1370,-143 1201.05,-116.75 1151.13,-154.89 987,-107 981.79,-105.48 976.46,-103.24 971.5,-100.81"/>
<polygon fill="#63b8ff" stroke="#63b8ff" points="973.02,-97.65 962.55,-96.05 969.74,-103.84 973.02,-97.65"/>
</a>
</g>
</g>
<!-- Node18 -->
<g id="Node000018" class="node">
<title>Node18</title>
<g id="a_Node000018"><a xlink:title=" ">
<polygon fill="#e0e0e0" stroke="#999999" points="1061.5,-96 996.5,-96 996.5,-77 1061.5,-77 1061.5,-96"/>
<text text-anchor="middle" x="1029" y="-84" font-family="Helvetica,sans-Serif" font-size="10.00">stdexcept</text>
</a>
</g>
</g>
<!-- Node3&#45;&gt;Node18 -->
<g id="edge17_Node000003_Node000018" class="edge">
<title>Node3&#45;&gt;Node18</title>
<g id="a_edge17_Node000003_Node000018"><a xlink:title=" ">
<path fill="none" stroke="#63b8ff" d="M1379.25,-144.71C1376.13,-144.09 1373.01,-143.51 1370,-143 1238.02,-120.72 1199.74,-143.64 1071,-107 1065.3,-105.38 1059.39,-103.07 1053.88,-100.61"/>
<polygon fill="#63b8ff" stroke="#63b8ff" points="1055.03,-97.28 1044.5,-96.13 1052.01,-103.6 1055.03,-97.28"/>
</a>
</g>
</g>
<!-- Node19 -->
<g id="Node000019" class="node">
<title>Node19</title>
<g id="a_Node000019"><a xlink:title=" ">
<polygon fill="#e0e0e0" stroke="#999999" points="1124,-96 1080,-96 1080,-77 1124,-77 1124,-96"/>
<text text-anchor="middle" x="1102" y="-84" font-family="Helvetica,sans-Serif" font-size="10.00">string</text>
</a>
</g>
</g>
<!-- Node3&#45;&gt;Node19 -->
<g id="edge18_Node000003_Node000019" class="edge">
<title>Node3&#45;&gt;Node19</title>
<g id="a_edge18_Node000003_Node000019"><a xlink:title=" ">
<path fill="none" stroke="#63b8ff" d="M1379.23,-144.81C1376.12,-144.17 1373,-143.55 1370,-143 1265.23,-123.65 1232.86,-144.14 1133,-107 1129.15,-105.57 1125.28,-103.62 1121.63,-101.51"/>
<polygon fill="#63b8ff" stroke="#63b8ff" points="1123.49,-98.54 1113.18,-96.11 1119.73,-104.44 1123.49,-98.54"/>
</a>
</g>
</g>
<!-- Node20 -->
<g id="Node000020" class="node">
<title>Node20</title>
<g id="a_Node000020"><a xlink:title=" ">
<polygon fill="#e0e0e0" stroke="#999999" points="1211.5,-96 1142.5,-96 1142.5,-77 1211.5,-77 1211.5,-96"/>
<text text-anchor="middle" x="1177" y="-84" font-family="Helvetica,sans-Serif" font-size="10.00">type_traits</text>
</a>
</g>
</g>
<!-- Node3&#45;&gt;Node20 -->
<g id="edge19_Node000003_Node000020" class="edge">
<title>Node3&#45;&gt;Node20</title>
<g id="a_edge19_Node000003_Node000020"><a xlink:title=" ">
<path fill="none" stroke="#63b8ff" d="M1379.25,-144.83C1329.9,-133.71 1235,-112.11 1220,-107 1214.47,-105.12 1208.69,-102.77 1203.22,-100.37"/>
<polygon fill="#63b8ff" stroke="#63b8ff" points="1204.4,-97.05 1193.85,-96.06 1201.48,-103.41 1204.4,-97.05"/>
</a>
</g>
</g>
<!-- Node21 -->
<g id="Node000021" class="node">
<title>Node21</title>
<g id="a_Node000021"><a xlink:title=" ">
<polygon fill="#e0e0e0" stroke="#999999" points="1274.5,-96 1229.5,-96 1229.5,-77 1274.5,-77 1274.5,-96"/>
<text text-anchor="middle" x="1252" y="-84" font-family="Helvetica,sans-Serif" font-size="10.00">utility</text>
</a>
</g>
</g>
<!-- Node3&#45;&gt;Node21 -->
<g id="edge20_Node000003_Node000021" class="edge">
<title>Node3&#45;&gt;Node21</title>
<g id="a_edge20_Node000003_Node000021"><a xlink:title=" ">
<path fill="none" stroke="#63b8ff" d="M1382.86,-142.91C1358.29,-134.57 1320.65,-121.14 1289,-107 1284.78,-105.12 1280.38,-102.97 1276.14,-100.8"/>
<polygon fill="#63b8ff" stroke="#63b8ff" points="1277.74,-97.68 1267.26,-96.11 1274.47,-103.87 1277.74,-97.68"/>
</a>
</g>
</g>
<!-- Node22 -->
<g id="Node000022" class="node">
<title>Node22</title>
<g id="a_Node000022"><a xlink:href="../../dd/d9e/linux_2platform__config_8hpp.html" target="_top" xlink:title="additional linux platform header">
<polygon fill="white" stroke="#666666" points="1486.5,-107 1331.5,-107 1331.5,-66 1486.5,-66 1486.5,-107"/>
<text text-anchor="start" x="1339.5" y="-95" font-family="Helvetica,sans-Serif" font-size="10.00">/home/runner/work/toygine2</text>
<text text-anchor="start" x="1339.5" y="-84" font-family="Helvetica,sans-Serif" font-size="10.00">/toygine2/src/platforms</text>
<text text-anchor="middle" x="1409" y="-73" font-family="Helvetica,sans-Serif" font-size="10.00">/linux/platform_config.hpp</text>
</a>
</g>
</g>
<!-- Node3&#45;&gt;Node22 -->
<g id="edge21_Node000003_Node000022" class="edge">
<title>Node3&#45;&gt;Node22</title>
<g id="a_edge21_Node000003_Node000022"><a xlink:title=" ">
<path fill="none" stroke="#63b8ff" d="M1409,-142.87C1409,-136.22 1409,-126.63 1409,-117.28"/>
<polygon fill="#63b8ff" stroke="#63b8ff" points="1412.5,-117.01 1409,-107.01 1405.5,-117.01 1412.5,-117.01"/>
</a>
</g>
</g>
<!-- Node23 -->
<g id="Node000023" class="node">
<title>Node23</title>
<g id="a_Node000023"><a xlink:href="../../d3/d60/platform_8hpp.html" target="_top" xlink:title="Platform and CPU architecture enumerations with compile&#45;time and runtime detection utilities.">
<polygon fill="white" stroke="#666666" points="1354.5,-30 1251.5,-30 1251.5,0 1354.5,0 1354.5,-30"/>
<text text-anchor="start" x="1259.5" y="-18" font-family="Helvetica,sans-Serif" font-size="10.00">../../../include/core</text>
<text text-anchor="middle" x="1303" y="-7" font-family="Helvetica,sans-Serif" font-size="10.00">/platform.hpp</text>
</a>
</g>
</g>
<!-- Node3&#45;&gt;Node23 -->
<g id="edge37_Node000003_Node000023" class="edge">
<title>Node3&#45;&gt;Node23</title>
<g id="a_edge37_Node000003_Node000023"><a xlink:title=" ">
<path fill="none" stroke="#63b8ff" d="M1379.22,-143.57C1360.03,-136.92 1336.1,-125.48 1322,-107 1307.38,-87.84 1303.35,-60.07 1302.53,-40.25"/>
<polygon fill="#63b8ff" stroke="#63b8ff" points="1306.03,-40.1 1302.36,-30.16 1299.03,-40.22 1306.03,-40.1"/>
</a>
</g>
</g>
<!-- Node25 -->
<g id="Node000025" class="node">
<title>Node25</title>
<g id="a_Node000025"><a xlink:href="../../d5/d96/assertion_8hpp.html" target="_top" xlink:title="Assertion system for runtime and compile&#45;time validation of engine invariants.">
<polygon fill="white" stroke="#666666" points="1611.5,-96 1504.5,-96 1504.5,-77 1611.5,-77 1611.5,-96"/>
<text text-anchor="middle" x="1558" y="-84" font-family="Helvetica,sans-Serif" font-size="10.00">core/assertion.hpp</text>
</a>
</g>
</g>
<!-- Node3&#45;&gt;Node25 -->
<g id="edge24_Node000003_Node000025" class="edge">
<title>Node3&#45;&gt;Node25</title>
<g id="a_edge24_Node000003_Node000025"><a xlink:title=" ">
<path fill="none" stroke="#63b8ff" d="M1429.09,-142.87C1454.64,-131.89 1498.96,-112.86 1528.39,-100.22"/>
<polygon fill="#63b8ff" stroke="#63b8ff" points="1529.94,-103.36 1537.75,-96.2 1527.18,-96.93 1529.94,-103.36"/>
</a>
</g>
</g>
<!-- Node26 -->
<g id="Node000026" class="node">
<title>Node26</title>
<g id="a_Node000026"><a xlink:href="../../dd/ded/c__string__view_8hpp.html" target="_top" xlink:title="Non&#45;owning string view class for C&#45;style strings.">
<polygon fill="white" stroke="#666666" points="1758,-96 1630,-96 1630,-77 1758,-77 1758,-96"/>
<text text-anchor="middle" x="1694" y="-84" font-family="Helvetica,sans-Serif" font-size="10.00">core/c_string_view.hpp</text>
</a>
</g>
</g>
<!-- Node3&#45;&gt;Node26 -->
<g id="edge25_Node000003_Node000026" class="edge">
<title>Node3&#45;&gt;Node26</title>
<g id="a_edge25_Node000003_Node000026"><a xlink:title=" ">
<path fill="none" stroke="#63b8ff" d="M1438.81,-145.7C1479.77,-137.62 1555.7,-122.24 1620,-107 1630.78,-104.45 1642.38,-101.49 1653.13,-98.66"/>
<polygon fill="#63b8ff" stroke="#63b8ff" points="1654.36,-101.95 1663.12,-96 1652.56,-95.19 1654.36,-101.95"/>
</a>
</g>
</g>
<!-- Node27 -->
<g id="Node000027" class="node">
<title>Node27</title>
<g id="a_Node000027"><a xlink:href="../../de/deb/string__like_8hpp.html" target="_top" xlink:title="C++ concept for string&#45;like types with size() and c_str() methods.">
<polygon fill="white" stroke="#666666" points="2223,-24.5 2135,-24.5 2135,-5.5 2223,-5.5 2223,-24.5"/>
<text text-anchor="middle" x="2179" y="-12.5" font-family="Helvetica,sans-Serif" font-size="10.00">string_like.hpp</text>
</a>
</g>
</g>
<!-- Node3&#45;&gt;Node27 -->
<g id="edge38_Node000003_Node000027" class="edge">
<title>Node3&#45;&gt;Node27</title>
<g id="a_edge38_Node000003_Node000027"><a xlink:title=" ">
<path fill="none" stroke="#63b8ff" d="M1438.61,-150.41C1513.72,-147.25 1709.73,-136.35 1767,-107 1789.11,-95.67 1782.94,-77.43 1805,-66 1859.53,-37.74 2034.85,-24.05 2124.74,-18.75"/>
<polygon fill="#63b8ff" stroke="#63b8ff" points="2124.96,-22.25 2134.74,-18.18 2124.56,-15.26 2124.96,-22.25"/>
</a>
</g>
</g>
<!-- Node28 -->
<g id="Node000028" class="node">
<title>Node28</title>
<g id="a_Node000028"><a xlink:href="../../d1/d5c/callbacks__pool_8hpp.html" target="_top" xlink:title="Template callback pool class with fixed&#45;size callback storage.">
<polygon fill="white" stroke="#666666" points="1948,-96 1814,-96 1814,-77 1948,-77 1948,-96"/>
<text text-anchor="middle" x="1881" y="-84" font-family="Helvetica,sans-Serif" font-size="10.00">core/callbacks_pool.hpp</text>
</a>
</g>
</g>
<!-- Node3&#45;&gt;Node28 -->
<g id="edge27_Node000003_Node000028" class="edge">
<title>Node3&#45;&gt;Node28</title>
<g id="a_edge27_Node000003_Node000028"><a xlink:title=" ">
<path fill="none" stroke="#63b8ff" d="M1438.61,-149.38C1504.11,-144.42 1666.11,-130.64 1800,-107 1812.93,-104.72 1826.86,-101.6 1839.48,-98.53"/>
<polygon fill="#63b8ff" stroke="#63b8ff" points="1840.4,-101.91 1849.26,-96.1 1838.71,-95.12 1840.4,-101.91"/>
</a>
</g>
</g>
<!-- Node29 -->
<g id="Node000029" class="node">
<title>Node29</title>
<g id="a_Node000029"><a xlink:href="../../d4/dc0/constexpr__utils_8hpp.html" target="_top" xlink:title="Constexpr utility functions for compile&#45;time operations.">
<polygon fill="white" stroke="#666666" points="2102,-96 1966,-96 1966,-77 2102,-77 2102,-96"/>
<text text-anchor="middle" x="2034" y="-84" font-family="Helvetica,sans-Serif" font-size="10.00">core/constexpr_utils.hpp</text>
</a>
</g>
</g>
<!-- Node3&#45;&gt;Node29 -->
<g id="edge28_Node000003_Node000029" class="edge">
<title>Node3&#45;&gt;Node29</title>
<g id="a_edge28_Node000003_Node000029"><a xlink:title=" ">
<path fill="none" stroke="#63b8ff" d="M1438.62,-150.83C1521.21,-148.59 1760.91,-139.56 1957,-107 1969.54,-104.92 1983.03,-101.81 1995.17,-98.68"/>
<polygon fill="#63b8ff" stroke="#63b8ff" points="1996.23,-102.02 2004.99,-96.07 1994.43,-95.25 1996.23,-102.02"/>
</a>
</g>
</g>
<!-- Node30 -->
<g id="Node000030" class="node">
<title>Node30</title>
<g id="a_Node000030"><a xlink:href="../../d7/d7f/fixed__string_8hpp.html" target="_top" xlink:title="Template string class with fixed&#45;size character buffer.">
<polygon fill="white" stroke="#666666" points="2238,-96 2120,-96 2120,-77 2238,-77 2238,-96"/>
<text text-anchor="middle" x="2179" y="-84" font-family="Helvetica,sans-Serif" font-size="10.00">core/fixed_string.hpp</text>
</a>
</g>
</g>
<!-- Node3&#45;&gt;Node30 -->
<g id="edge29_Node000003_Node000030" class="edge">
<title>Node3&#45;&gt;Node30</title>
<g id="a_edge29_Node000003_Node000030"><a xlink:title=" ">
<path fill="none" stroke="#63b8ff" d="M1438.69,-151.9C1535.95,-152.71 1853.49,-151.55 2111,-107 2122,-105.1 2133.77,-102.08 2144.37,-98.99"/>
<polygon fill="#63b8ff" stroke="#63b8ff" points="2145.56,-102.29 2154.11,-96.04 2143.53,-95.59 2145.56,-102.29"/>
</a>
</g>
</g>
<!-- Node31 -->
<g id="Node000031" class="node">
<title>Node31</title>
<g id="a_Node000031"><a xlink:href="../../d7/dea/fixed__vector_8hpp.html" target="_top" xlink:title="TODO.">
<polygon fill="white" stroke="#666666" points="2376,-96 2256,-96 2256,-77 2376,-77 2376,-96"/>
<text text-anchor="middle" x="2316" y="-84" font-family="Helvetica,sans-Serif" font-size="10.00">core/fixed_vector.hpp</text>
</a>
</g>
</g>
<!-- Node3&#45;&gt;Node31 -->
<g id="edge31_Node000003_Node000031" class="edge">
<title>Node3&#45;&gt;Node31</title>
<g id="a_edge31_Node000003_Node000031"><a xlink:title=" ">
<path fill="none" stroke="#63b8ff" d="M1438.76,-150.81C1568.65,-147.65 2086.56,-133.59 2247,-107 2258.17,-105.15 2270.11,-102.15 2280.86,-99.06"/>
<polygon fill="#63b8ff" stroke="#63b8ff" points="2282.17,-102.32 2290.75,-96.09 2280.16,-95.61 2282.17,-102.32"/>
</a>
</g>
</g>
<!-- Node32 -->
<g id="Node000032" class="node">
<title>Node32</title>
<g id="a_Node000032"><a xlink:href="../../d4/d0a/format_8hpp.html" target="_top" xlink:title="Compile&#45;time format string validation class.">
<polygon fill="white" stroke="#666666" points="2489.5,-96 2394.5,-96 2394.5,-77 2489.5,-77 2489.5,-96"/>
<text text-anchor="middle" x="2442" y="-84" font-family="Helvetica,sans-Serif" font-size="10.00">core/format.hpp</text>
</a>
</g>
</g>
<!-- Node3&#45;&gt;Node32 -->
<g id="edge32_Node000003_Node000032" class="edge">
<title>Node3&#45;&gt;Node32</title>
<g id="a_edge32_Node000003_Node000032"><a xlink:title=" ">
<path fill="none" stroke="#63b8ff" d="M1438.78,-151.28C1581.58,-150.04 2196.9,-142.71 2385,-107 2393.94,-105.3 2403.38,-102.51 2411.95,-99.56"/>
<polygon fill="#63b8ff" stroke="#63b8ff" points="2413.33,-102.78 2421.54,-96.08 2410.94,-96.2 2413.33,-102.78"/>
</a>
</g>
</g>
<!-- Node33 -->
<g id="Node000033" class="node">
<title>Node33</title>
<g id="a_Node000033"><a xlink:href="../../dd/d8e/hashes_8hpp.html" target="_top" xlink:title="CRC hash functions.">
<polygon fill="white" stroke="#666666" points="2604,-96 2508,-96 2508,-77 2604,-77 2604,-96"/>
<text text-anchor="middle" x="2556" y="-84" font-family="Helvetica,sans-Serif" font-size="10.00">core/hashes.hpp</text>
</a>
</g>
</g>
<!-- Node3&#45;&gt;Node33 -->
<g id="edge34_Node000003_Node000033" class="edge">
<title>Node3&#45;&gt;Node33</title>
<g id="a_edge34_Node000003_Node000033"><a xlink:title=" ">
<path fill="none" stroke="#63b8ff" d="M1438.65,-151.44C1591.04,-150.98 2287.25,-146.67 2499,-107 2508.01,-105.31 2517.54,-102.49 2526.17,-99.51"/>
<polygon fill="#63b8ff" stroke="#63b8ff" points="2527.61,-102.72 2535.81,-96 2525.21,-96.14 2527.61,-102.72"/>
</a>
</g>
</g>
<!-- Node34 -->
<g id="Node000034" class="node">
<title>Node34</title>
<g id="a_Node000034"><a xlink:href="../../de/d2d/o__string__stream_8hpp.html" target="_top" xlink:title="Output string stream class for building strings from various data types.">
<polygon fill="white" stroke="#666666" points="2762,-96 2622,-96 2622,-77 2762,-77 2762,-96"/>
<text text-anchor="middle" x="2692" y="-84" font-family="Helvetica,sans-Serif" font-size="10.00">core/o_string_stream.hpp</text>
</a>
</g>
</g>
<!-- Node3&#45;&gt;Node34 -->
<g id="edge35_Node000003_Node000034" class="edge">
<title>Node3&#45;&gt;Node34</title>
<g id="a_edge35_Node000003_Node000034"><a xlink:title=" ">
<path fill="none" stroke="#63b8ff" d="M1438.7,-151.23C1600.39,-149.62 2375.95,-140.28 2613,-107 2626.36,-105.12 2640.74,-101.94 2653.52,-98.67"/>
<polygon fill="#63b8ff" stroke="#63b8ff" points="2654.61,-102.01 2663.39,-96.07 2652.82,-95.24 2654.61,-102.01"/>
</a>
</g>
</g>
<!-- Node35 -->
<g id="Node000035" class="node">
<title>Node35</title>
<g id="a_Node000035"><a xlink:href="../../d8/d43/core_2utils_8hpp.html" target="_top" xlink:title="Core utility functions for string manipulation, encoding conversion, and number formatting.">
<polygon fill="white" stroke="#666666" points="2863.5,-96 2780.5,-96 2780.5,-77 2863.5,-77 2863.5,-96"/>
<text text-anchor="middle" x="2822" y="-84" font-family="Helvetica,sans-Serif" font-size="10.00">core/utils.hpp</text>
</a>
</g>
</g>
<!-- Node3&#45;&gt;Node35 -->
<g id="edge39_Node000003_Node000035" class="edge">
<title>Node3&#45;&gt;Node35</title>
<g id="a_edge39_Node000003_Node000035"><a xlink:title=" ">
<path fill="none" stroke="#63b8ff" d="M1438.52,-151.12C1625.01,-148.66 2636.34,-134.15 2771,-107 2778.88,-105.41 2787.14,-102.73 2794.66,-99.86"/>
<polygon fill="#63b8ff" stroke="#63b8ff" points="2796.08,-103.07 2804.03,-96.06 2793.44,-96.58 2796.08,-103.07"/>
</a>
</g>
</g>
<!-- Node36 -->
<g id="Node000036" class="node">
<title>Node36</title>
<g id="a_Node000036"><a xlink:href="../../df/d4a/c__string__view_8inl.html" target="_top" xlink:title="Inline implementations for CStringView class.">
<polygon fill="white" stroke="#666666" points="3004,-96 2882,-96 2882,-77 3004,-77 3004,-96"/>
<text text-anchor="middle" x="2943" y="-84" font-family="Helvetica,sans-Serif" font-size="10.00">core/c_string_view.inl</text>
</a>
</g>
</g>
<!-- Node3&#45;&gt;Node36 -->
<g id="edge40_Node000003_Node000036" class="edge">
<title>Node3&#45;&gt;Node36</title>
<g id="a_edge40_Node000003_Node000036"><a xlink:title=" ">
<path fill="none" stroke="#63b8ff" d="M1438.66,-151.57C1620.11,-151.87 2582.02,-151.29 2873,-107 2884.65,-105.23 2897.12,-102.15 2908.25,-98.96"/>
<polygon fill="#63b8ff" stroke="#63b8ff" points="2909.47,-102.25 2918.05,-96.03 2907.46,-95.54 2909.47,-102.25"/>
</a>
</g>
</g>
<!-- Node37 -->
<g id="Node000037" class="node">
<title>Node37</title>
<g id="a_Node000037"><a xlink:href="../../d6/ddb/callbacks__pool_8inl.html" target="_top" xlink:title="Inline implementations for template callback pool class with fixed&#45;size callback storage.">
<polygon fill="white" stroke="#666666" points="3150,-96 3022,-96 3022,-77 3150,-77 3150,-96"/>
<text text-anchor="middle" x="3086" y="-84" font-family="Helvetica,sans-Serif" font-size="10.00">core/callbacks_pool.inl</text>
</a>
</g>
</g>
<!-- Node3&#45;&gt;Node37 -->
<g id="edge41_Node000003_Node000037" class="edge">
<title>Node3&#45;&gt;Node37</title>
<g id="a_edge41_Node000003_Node000037"><a xlink:title=" ">
<path fill="none" stroke="#63b8ff" d="M1438.66,-151.62C1629.99,-152.26 2692.35,-153.62 3013,-107 3025.25,-105.22 3038.39,-102.1 3050.09,-98.88"/>
<polygon fill="#63b8ff" stroke="#63b8ff" points="3051.31,-102.17 3059.95,-96.04 3049.38,-95.44 3051.31,-102.17"/>
</a>
</g>
</g>
<!-- Node38 -->
<g id="Node000038" class="node">
<title>Node38</title>
<g id="a_Node000038"><a xlink:href="../../dc/d28/constexpr__utils_8inl.html" target="_top" xlink:title="Inline implementations for constexpr utility functions.">
<polygon fill="white" stroke="#666666" points="3298,-96 3168,-96 3168,-77 3298,-77 3298,-96"/>
<text text-anchor="middle" x="3233" y="-84" font-family="Helvetica,sans-Serif" font-size="10.00">core/constexpr_utils.inl</text>
</a>
</g>
</g>
<!-- Node3&#45;&gt;Node38 -->
<g id="edge42_Node000003_Node000038" class="edge">
<title>Node3&#45;&gt;Node38</title>
<g id="a_edge42_Node000003_Node000038"><a xlink:title=" ">
<path fill="none" stroke="#63b8ff" d="M1438.71,-151.69C1640.1,-152.82 2807.54,-157.08 3159,-107 3171.54,-105.21 3185,-102.05 3196.95,-98.79"/>
<polygon fill="#63b8ff" stroke="#63b8ff" points="3197.93,-102.15 3206.59,-96.06 3196.01,-95.42 3197.93,-102.15"/>
</a>
</g>
</g>
<!-- Node39 -->
<g id="Node000039" class="node">
<title>Node39</title>
<g id="a_Node000039"><a xlink:href="../../d7/d40/fixed__string_8inl.html" target="_top" xlink:title="Inline implementations for FixedString template class.">
<polygon fill="white" stroke="#666666" points="3428,-96 3316,-96 3316,-77 3428,-77 3428,-96"/>
<text text-anchor="middle" x="3372" y="-84" font-family="Helvetica,sans-Serif" font-size="10.00">core/fixed_string.inl</text>
</a>
</g>
</g>
<!-- Node3&#45;&gt;Node39 -->
<g id="edge43_Node000003_Node000039" class="edge">
<title>Node3&#45;&gt;Node39</title>
<g id="a_edge43_Node000003_Node000039"><a xlink:title=" ">
<path fill="none" stroke="#63b8ff" d="M1438.79,-151.28C1665.51,-149.57 3115.04,-137.48 3307,-107 3317.65,-105.31 3328.99,-102.34 3339.16,-99.21"/>
<polygon fill="#63b8ff" stroke="#63b8ff" points="3340.44,-102.48 3348.88,-96.08 3338.29,-95.82 3340.44,-102.48"/>
</a>
</g>
</g>
<!-- Node40 -->
<g id="Node000040" class="node">
<title>Node40</title>
<g id="a_Node000040"><a xlink:href="../../da/dc9/fixed__vector_8inl.html" target="_top" xlink:title="TODO.">
<polygon fill="white" stroke="#666666" points="3560,-96 3446,-96 3446,-77 3560,-77 3560,-96"/>
<text text-anchor="middle" x="3503" y="-84" font-family="Helvetica,sans-Serif" font-size="10.00">core/fixed_vector.inl</text>
</a>
</g>
</g>
<!-- Node3&#45;&gt;Node40 -->
<g id="edge44_Node000003_Node000040" class="edge">
<title>Node3&#45;&gt;Node40</title>
<g id="a_edge44_Node000003_Node000040"><a xlink:title=" ">
<path fill="none" stroke="#63b8ff" d="M1438.55,-151.33C1673.2,-149.88 3231.16,-139.08 3437,-107 3447.91,-105.3 3459.55,-102.28 3469.97,-99.12"/>
<polygon fill="#63b8ff" stroke="#63b8ff" points="3471.05,-102.45 3479.52,-96.09 3468.93,-95.78 3471.05,-102.45"/>
</a>
</g>
</g>
<!-- Node41 -->
<g id="Node000041" class="node">
<title>Node41</title>
<g id="a_Node000041"><a xlink:href="../../d0/d67/format_8inl.html" target="_top" xlink:title="Inline implementations for FormatString class.">
<polygon fill="white" stroke="#666666" points="3667.5,-96 3578.5,-96 3578.5,-77 3667.5,-77 3667.5,-96"/>
<text text-anchor="middle" x="3623" y="-84" font-family="Helvetica,sans-Serif" font-size="10.00">core/format.inl</text>
</a>
</g>
</g>
<!-- Node3&#45;&gt;Node41 -->
<g id="edge45_Node000003_Node000041" class="edge">
<title>Node3&#45;&gt;Node41</title>
<g id="a_edge45_Node000003_Node000041"><a xlink:title=" ">
<path fill="none" stroke="#63b8ff" d="M1438.54,-151.47C1681.78,-151.17 3350.27,-147.61 3569,-107 3577.5,-105.42 3586.44,-102.67 3594.54,-99.73"/>
<polygon fill="#63b8ff" stroke="#63b8ff" points="3595.86,-102.98 3603.93,-96.11 3593.34,-96.44 3595.86,-102.98"/>
</a>
</g>
</g>
<!-- Node42 -->
<g id="Node000042" class="node">
<title>Node42</title>
<g id="a_Node000042"><a xlink:href="../../d9/dcb/o__string__stream_8inl.html" target="_top" xlink:title="Implementation of OStringStream template methods.">
<polygon fill="white" stroke="#666666" points="3820,-96 3686,-96 3686,-77 3820,-77 3820,-96"/>
<text text-anchor="middle" x="3753" y="-84" font-family="Helvetica,sans-Serif" font-size="10.00">core/o_string_stream.inl</text>
</a>
</g>
</g>
<!-- Node3&#45;&gt;Node42 -->
<g id="edge46_Node000003_Node000042" class="edge">
<title>Node3&#45;&gt;Node42</title>
<g id="a_edge46_Node000003_Node000042"><a xlink:title=" ">
<path fill="none" stroke="#63b8ff" d="M1438.79,-151.33C1689.62,-149.87 3445.18,-138.58 3677,-107 3689.86,-105.25 3703.68,-102.1 3715.97,-98.83"/>
<polygon fill="#63b8ff" stroke="#63b8ff" points="3717.16,-102.13 3725.86,-96.09 3715.29,-95.39 3717.16,-102.13"/>
</a>
</g>
</g>
<!-- Node43 -->
<g id="Node000043" class="node">
<title>Node43</title>
<g id="a_Node000043"><a xlink:href="../../d2/d2b/core_2utils_8inl.html" target="_top" xlink:title="Inline implementations of core utility functions for string manipulation and encoding conversion.">
<polygon fill="white" stroke="#666666" points="3915.5,-96 3838.5,-96 3838.5,-77 3915.5,-77 3915.5,-96"/>
<text text-anchor="middle" x="3877" y="-84" font-family="Helvetica,sans-Serif" font-size="10.00">core/utils.inl</text>
</a>
</g>
</g>
<!-- Node3&#45;&gt;Node43 -->
<g id="edge47_Node000003_Node000043" class="edge">
<title>Node3&#45;&gt;Node43</title>
<g id="a_edge47_Node000003_Node000043"><a xlink:title=" ">
<path fill="none" stroke="#63b8ff" d="M1438.75,-151.61C1698.95,-152.51 3583.81,-157.25 3829,-107 3836.22,-105.52 3843.74,-102.99 3850.63,-100.23"/>
<polygon fill="#63b8ff" stroke="#63b8ff" points="3852.35,-103.3 3860.15,-96.12 3849.58,-96.87 3852.35,-103.3"/>
</a>
</g>
</g>
<!-- Node22&#45;&gt;Node23 -->
<g id="edge22_Node000022_Node000023" class="edge">
<title>Node22&#45;&gt;Node23</title>
<g id="a_edge22_Node000022_Node000023"><a xlink:title=" ">
<path fill="none" stroke="#63b8ff" d="M1379.19,-65.96C1364.79,-56.51 1347.54,-45.2 1333.1,-35.74"/>
<polygon fill="#63b8ff" stroke="#63b8ff" points="1334.81,-32.67 1324.52,-30.11 1330.97,-38.52 1334.81,-32.67"/>
</a>
</g>
</g>
<!-- Node24 -->
<g id="Node000024" class="node">
<title>Node24</title>
<g id="a_Node000024"><a xlink:href="../../d1/d5f/assertion__macro__gcc__clang_8hpp.html" target="_top" xlink:title="Debug and Release assertion macro implementations for GCC/Clang platforms.">
<polygon fill="white" stroke="#666666" points="1499.5,-30 1372.5,-30 1372.5,0 1499.5,0 1499.5,-30"/>
<text text-anchor="start" x="1380.5" y="-18" font-family="Helvetica,sans-Serif" font-size="10.00">../common/assertion</text>
<text text-anchor="middle" x="1436" y="-7" font-family="Helvetica,sans-Serif" font-size="10.00">_macro_gcc_clang.hpp</text>
</a>
</g>
</g>
<!-- Node22&#45;&gt;Node24 -->
<g id="edge23_Node000022_Node000024" class="edge">
<title>Node22&#45;&gt;Node24</title>
<g id="a_edge23_Node000022_Node000024"><a xlink:title=" ">
<path fill="none" stroke="#63b8ff" d="M1416.66,-65.77C1419.85,-57.58 1423.57,-48.01 1426.89,-39.46"/>
<polygon fill="#63b8ff" stroke="#63b8ff" points="1430.19,-40.63 1430.55,-30.04 1423.66,-38.09 1430.19,-40.63"/>
</a>
</g>
</g>
<!-- Node26&#45;&gt;Node27 -->
<g id="edge26_Node000026_Node000027" class="edge">
<title>Node26&#45;&gt;Node27</title>
<g id="a_edge26_Node000026_Node000027"><a xlink:title=" ">
<path fill="none" stroke="#63b8ff" d="M1724.56,-76.94C1738.87,-73.16 1756.22,-68.93 1772,-66 1897.27,-42.74 2046.3,-27.56 2124.65,-20.54"/>
<polygon fill="#63b8ff" stroke="#63b8ff" points="2125.11,-24.01 2134.76,-19.64 2124.49,-17.04 2125.11,-24.01"/>
</a>
</g>
</g>
<!-- Node30&#45;&gt;Node27 -->
<g id="edge30_Node000030_Node000027" class="edge">
<title>Node30&#45;&gt;Node27</title>
<g id="a_edge30_Node000030_Node000027"><a xlink:title=" ">
<path fill="none" stroke="#63b8ff" d="M2179,-76.98C2179,-66.56 2179,-48.61 2179,-34.88"/>
<polygon fill="#63b8ff" stroke="#63b8ff" points="2182.5,-34.59 2179,-24.59 2175.5,-34.59 2182.5,-34.59"/>
</a>
</g>
</g>
<!-- Node32&#45;&gt;Node27 -->
<g id="edge33_Node000032_Node000027" class="edge">
<title>Node32&#45;&gt;Node27</title>
<g id="a_edge33_Node000032_Node000027"><a xlink:title=" ">
<path fill="none" stroke="#63b8ff" d="M2418.58,-76.95C2408.34,-73.35 2396.14,-69.25 2385,-66 2332.13,-50.57 2270.67,-36.1 2228.73,-26.73"/>
<polygon fill="#63b8ff" stroke="#63b8ff" points="2229.3,-23.27 2218.78,-24.52 2227.78,-30.1 2229.3,-23.27"/>
</a>
</g>
</g>
<!-- Node34&#45;&gt;Node27 -->
<g id="edge36_Node000034_Node000027" class="edge">
<title>Node34&#45;&gt;Node27</title>
<g id="a_edge36_Node000034_Node000027"><a xlink:title=" ">
<path fill="none" stroke="#63b8ff" d="M2661.43,-76.99C2646.86,-73.18 2629.13,-68.91 2613,-66 2477.35,-41.55 2315.59,-26.62 2233.14,-20.01"/>
<polygon fill="#63b8ff" stroke="#63b8ff" points="2233.25,-16.51 2223.01,-19.21 2232.7,-23.49 2233.25,-16.51"/>
</a>
</g>
</g>
</g>
</svg>
