<?xml version="1.0" encoding="UTF-8" standalone="no"?>
<!DOCTYPE svg PUBLIC "-//W3C//DTD SVG 1.1//EN"
 "http://www.w3.org/Graphics/SVG/1.1/DTD/svg11.dtd">
<!-- Generated by graphviz version 2.43.0 (0)
 -->
<!-- Title: src/platforms/stub/core/assertion_stub.cpp Pages: 1 -->
<svg width="3138pt" height="236pt"
 viewBox="0.00 0.00 3137.50 236.00" xmlns="http://www.w3.org/2000/svg" xmlns:xlink="http://www.w3.org/1999/xlink">
<g id="graph0" class="graph" transform="scale(1 1) rotate(0) translate(4 232)">
<title>src/platforms/stub/core/assertion_stub.cpp</title>
<!-- Node1 -->
<g id="Node000001" class="node">
<title>Node1</title>
<g id="a_Node000001"><a xlink:title="Stub implementation of assertion system for platforms without native assertion support.">
<polygon fill="#999999" stroke="#666666" points="587.5,-228 452.5,-228 452.5,-198 587.5,-198 587.5,-228"/>
<text text-anchor="start" x="460.5" y="-216" font-family="Helvetica,sans-Serif" font-size="10.00">src/platforms/stub</text>
<text text-anchor="middle" x="520" y="-205" font-family="Helvetica,sans-Serif" font-size="10.00">/core/assertion_stub.cpp</text>
</a>
</g>
</g>
<!-- Node2 -->
<g id="Node000002" class="node">
<title>Node2</title>
<g id="a_Node000002"><a xlink:title=" ">
<polygon fill="#e0e0e0" stroke="#999999" points="492,-162 446,-162 446,-143 492,-143 492,-162"/>
<text text-anchor="middle" x="469" y="-150" font-family="Helvetica,sans-Serif" font-size="10.00">cstdio</text>
</a>
</g>
</g>
<!-- Node1&#45;&gt;Node2 -->
<g id="edge1_Node000001_Node000002" class="edge">
<title>Node1&#45;&gt;Node2</title>
<g id="a_edge1_Node000001_Node000002"><a xlink:title=" ">
<path fill="none" stroke="#63b8ff" d="M507.65,-197.84C500.33,-189.43 491,-178.74 483.35,-169.96"/>
<polygon fill="#63b8ff" stroke="#63b8ff" points="485.85,-167.5 476.64,-162.27 480.58,-172.1 485.85,-167.5"/>
</a>
</g>
</g>
<!-- Node3 -->
<g id="Node000003" class="node">
<title>Node3</title>
<g id="a_Node000003"><a xlink:title=" ">
<polygon fill="#e0e0e0" stroke="#999999" points="44,-96 0,-96 0,-77 44,-77 44,-96"/>
<text text-anchor="middle" x="22" y="-84" font-family="Helvetica,sans-Serif" font-size="10.00">string</text>
</a>
</g>
</g>
<!-- Node1&#45;&gt;Node3 -->
<g id="edge2_Node000001_Node000003" class="edge">
<title>Node1&#45;&gt;Node3</title>
<g id="a_edge2_Node000001_Node000003"><a xlink:title=" ">
<path fill="none" stroke="#63b8ff" d="M520.51,-197.86C520.24,-181.86 517.08,-156.31 501,-143 424.04,-79.34 147.78,-138.5 53,-107 49.04,-105.68 45.07,-103.76 41.36,-101.63"/>
<polygon fill="#63b8ff" stroke="#63b8ff" points="43.12,-98.6 32.82,-96.13 39.33,-104.48 43.12,-98.6"/>
</a>
</g>
</g>
<!-- Node4 -->
<g id="Node000004" class="node">
<title>Node4</title>
<g id="a_Node000004"><a xlink:href="../../da/d47/core_8hpp.html" target="_top" xlink:title="Umbrella header for the engine core module.">
<polygon fill="white" stroke="#666666" points="1106.5,-162 1047.5,-162 1047.5,-143 1106.5,-143 1106.5,-162"/>
<text text-anchor="middle" x="1077" y="-150" font-family="Helvetica,sans-Serif" font-size="10.00">core.hpp</text>
</a>
</g>
</g>
<!-- Node1&#45;&gt;Node4 -->
<g id="edge3_Node000001_Node000004" class="edge">
<title>Node1&#45;&gt;Node4</title>
<g id="a_edge3_Node000001_Node000004"><a xlink:title=" ">
<path fill="none" stroke="#63b8ff" d="M587.74,-204.89C705.25,-192.54 943.31,-167.54 1037.43,-157.66"/>
<polygon fill="#63b8ff" stroke="#63b8ff" points="1037.81,-161.14 1047.39,-156.61 1037.08,-154.17 1037.81,-161.14"/>
</a>
</g>
</g>
<!-- Node4&#45;&gt;Node3 -->
<g id="edge16_Node000004_Node000003" class="edge">
<title>Node4&#45;&gt;Node3</title>
<g id="a_edge16_Node000004_Node000003"><a xlink:title=" ">
<path fill="none" stroke="#63b8ff" d="M1047.45,-151.12C889.66,-148.96 150.04,-137.28 53,-107 48.95,-105.74 44.91,-103.81 41.14,-101.64"/>
<polygon fill="#63b8ff" stroke="#63b8ff" points="42.8,-98.55 32.5,-96.04 38.98,-104.42 42.8,-98.55"/>
</a>
</g>
</g>
<!-- Node5 -->
<g id="Node000005" class="node">
<title>Node5</title>
<g id="a_Node000005"><a xlink:title=" ">
<polygon fill="#e0e0e0" stroke="#999999" points="126,-96 62,-96 62,-77 126,-77 126,-96"/>
<text text-anchor="middle" x="94" y="-84" font-family="Helvetica,sans-Serif" font-size="10.00">algorithm</text>
</a>
</g>
</g>
<!-- Node4&#45;&gt;Node5 -->
<g id="edge4_Node000004_Node000005" class="edge">
<title>Node4&#45;&gt;Node5</title>
<g id="a_edge4_Node000004_Node000005"><a xlink:title=" ">
<path fill="none" stroke="#63b8ff" d="M1047.44,-150.8C897.56,-147.15 225.23,-129.61 135,-107 129.02,-105.5 122.88,-103.1 117.22,-100.49"/>
<polygon fill="#63b8ff" stroke="#63b8ff" points="118.78,-97.36 108.27,-96.01 115.65,-103.62 118.78,-97.36"/>
</a>
</g>
</g>
<!-- Node6 -->
<g id="Node000006" class="node">
<title>Node6</title>
<g id="a_Node000006"><a xlink:title=" ">
<polygon fill="#e0e0e0" stroke="#999999" points="186,-96 144,-96 144,-77 186,-77 186,-96"/>
<text text-anchor="middle" x="165" y="-84" font-family="Helvetica,sans-Serif" font-size="10.00">array</text>
</a>
</g>
</g>
<!-- Node4&#45;&gt;Node6 -->
<g id="edge5_Node000004_Node000006" class="edge">
<title>Node4&#45;&gt;Node6</title>
<g id="a_edge5_Node000004_Node000006"><a xlink:title=" ">
<path fill="none" stroke="#63b8ff" d="M1047.42,-150.89C903.33,-147.82 278.6,-133.09 196,-107 191.95,-105.72 187.91,-103.79 184.15,-101.62"/>
<polygon fill="#63b8ff" stroke="#63b8ff" points="185.8,-98.52 175.51,-96.01 181.99,-104.39 185.8,-98.52"/>
</a>
</g>
</g>
<!-- Node7 -->
<g id="Node000007" class="node">
<title>Node7</title>
<g id="a_Node000007"><a xlink:title=" ">
<polygon fill="#e0e0e0" stroke="#999999" points="263.5,-96 204.5,-96 204.5,-77 263.5,-77 263.5,-96"/>
<text text-anchor="middle" x="234" y="-84" font-family="Helvetica,sans-Serif" font-size="10.00">compare</text>
</a>
</g>
</g>
<!-- Node4&#45;&gt;Node7 -->
<g id="edge6_Node000004_Node000007" class="edge">
<title>Node4&#45;&gt;Node7</title>
<g id="a_edge6_Node000004_Node000007"><a xlink:title=" ">
<path fill="none" stroke="#63b8ff" d="M1047.45,-151.46C920.8,-151.07 423.49,-146.95 273,-107 267.65,-105.58 262.17,-103.38 257.08,-100.96"/>
<polygon fill="#63b8ff" stroke="#63b8ff" points="258.38,-97.69 247.89,-96.19 255.15,-103.9 258.38,-97.69"/>
</a>
</g>
</g>
<!-- Node8 -->
<g id="Node000008" class="node">
<title>Node8</title>
<g id="a_Node000008"><a xlink:title=" ">
<polygon fill="#e0e0e0" stroke="#999999" points="342,-96 282,-96 282,-77 342,-77 342,-96"/>
<text text-anchor="middle" x="312" y="-84" font-family="Helvetica,sans-Serif" font-size="10.00">concepts</text>
</a>
</g>
</g>
<!-- Node4&#45;&gt;Node8 -->
<g id="edge7_Node000004_Node000008" class="edge">
<title>Node4&#45;&gt;Node8</title>
<g id="a_edge7_Node000004_Node000008"><a xlink:title=" ">
<path fill="none" stroke="#63b8ff" d="M1047.2,-151.22C928.16,-149.85 486.6,-142.44 352,-107 346.4,-105.52 340.64,-103.24 335.31,-100.75"/>
<polygon fill="#63b8ff" stroke="#63b8ff" points="336.78,-97.57 326.28,-96.16 333.61,-103.81 336.78,-97.57"/>
</a>
</g>
</g>
<!-- Node9 -->
<g id="Node000009" class="node">
<title>Node9</title>
<g id="a_Node000009"><a xlink:title=" ">
<polygon fill="#e0e0e0" stroke="#999999" points="413.5,-96 360.5,-96 360.5,-77 413.5,-77 413.5,-96"/>
<text text-anchor="middle" x="387" y="-84" font-family="Helvetica,sans-Serif" font-size="10.00">cstddef</text>
</a>
</g>
</g>
<!-- Node4&#45;&gt;Node9 -->
<g id="edge8_Node000004_Node000009" class="edge">
<title>Node4&#45;&gt;Node9</title>
<g id="a_edge8_Node000004_Node000009"><a xlink:title=" ">
<path fill="none" stroke="#63b8ff" d="M1047.46,-151.15C936.21,-149.6 542.69,-141.7 423,-107 418.14,-105.59 413.19,-103.45 408.59,-101.11"/>
<polygon fill="#63b8ff" stroke="#63b8ff" points="410.18,-97.99 399.75,-96.15 406.76,-104.09 410.18,-97.99"/>
</a>
</g>
</g>
<!-- Node10 -->
<g id="Node000010" class="node">
<title>Node10</title>
<g id="a_Node000010"><a xlink:title=" ">
<polygon fill="#e0e0e0" stroke="#999999" points="482,-96 432,-96 432,-77 482,-77 482,-96"/>
<text text-anchor="middle" x="457" y="-84" font-family="Helvetica,sans-Serif" font-size="10.00">cstdint</text>
</a>
</g>
</g>
<!-- Node4&#45;&gt;Node10 -->
<g id="edge9_Node000004_Node000010" class="edge">
<title>Node4&#45;&gt;Node10</title>
<g id="a_edge9_Node000004_Node000010"><a xlink:title=" ">
<path fill="none" stroke="#63b8ff" d="M1047.35,-150.97C943.49,-148.86 596.69,-139.49 491,-107 486.49,-105.61 481.92,-103.55 477.67,-101.27"/>
<polygon fill="#63b8ff" stroke="#63b8ff" points="479.37,-98.21 468.98,-96.13 475.81,-104.23 479.37,-98.21"/>
</a>
</g>
</g>
<!-- Node11 -->
<g id="Node000011" class="node">
<title>Node11</title>
<g id="a_Node000011"><a xlink:title=" ">
<polygon fill="#e0e0e0" stroke="#999999" points="550,-96 500,-96 500,-77 550,-77 550,-96"/>
<text text-anchor="middle" x="525" y="-84" font-family="Helvetica,sans-Serif" font-size="10.00">cstring</text>
</a>
</g>
</g>
<!-- Node4&#45;&gt;Node11 -->
<g id="edge10_Node000004_Node000011" class="edge">
<title>Node4&#45;&gt;Node11</title>
<g id="a_edge10_Node000004_Node000011"><a xlink:title=" ">
<path fill="none" stroke="#63b8ff" d="M1047.26,-150.58C951.52,-147.36 652.17,-135.22 560,-107 555.39,-105.59 550.7,-103.51 546.33,-101.23"/>
<polygon fill="#63b8ff" stroke="#63b8ff" points="547.8,-98.04 537.38,-96.09 544.31,-104.11 547.8,-98.04"/>
</a>
</g>
</g>
<!-- Node12 -->
<g id="Node000012" class="node">
<title>Node12</title>
<g id="a_Node000012"><a xlink:title=" ">
<polygon fill="#e0e0e0" stroke="#999999" points="617.5,-96 568.5,-96 568.5,-77 617.5,-77 617.5,-96"/>
<text text-anchor="middle" x="593" y="-84" font-family="Helvetica,sans-Serif" font-size="10.00">cuchar</text>
</a>
</g>
</g>
<!-- Node4&#45;&gt;Node12 -->
<g id="edge11_Node000004_Node000012" class="edge">
<title>Node4&#45;&gt;Node12</title>
<g id="a_edge11_Node000004_Node000012"><a xlink:title=" ">
<path fill="none" stroke="#63b8ff" d="M1047.49,-150.2C960.43,-146.1 705.88,-132.24 627,-107 622.5,-105.56 617.95,-103.47 613.69,-101.19"/>
<polygon fill="#63b8ff" stroke="#63b8ff" points="615.4,-98.13 605.01,-96.06 611.84,-104.15 615.4,-98.13"/>
</a>
</g>
</g>
<!-- Node13 -->
<g id="Node000013" class="node">
<title>Node13</title>
<g id="a_Node000013"><a xlink:title=" ">
<polygon fill="#e0e0e0" stroke="#999999" points="718.5,-96 635.5,-96 635.5,-77 718.5,-77 718.5,-96"/>
<text text-anchor="middle" x="677" y="-84" font-family="Helvetica,sans-Serif" font-size="10.00">initializer_list</text>
</a>
</g>
</g>
<!-- Node4&#45;&gt;Node13 -->
<g id="edge12_Node000004_Node000013" class="edge">
<title>Node4&#45;&gt;Node13</title>
<g id="a_edge12_Node000004_Node000013"><a xlink:title=" ">
<path fill="none" stroke="#63b8ff" d="M1047.14,-150.09C986.28,-146.7 843.82,-136.08 728,-107 720.54,-105.13 712.69,-102.48 705.44,-99.74"/>
<polygon fill="#63b8ff" stroke="#63b8ff" points="706.61,-96.44 696.02,-96.02 704.03,-102.95 706.61,-96.44"/>
</a>
</g>
</g>
<!-- Node14 -->
<g id="Node000014" class="node">
<title>Node14</title>
<g id="a_Node000014"><a xlink:title=" ">
<polygon fill="#e0e0e0" stroke="#999999" points="789.5,-96 736.5,-96 736.5,-77 789.5,-77 789.5,-96"/>
<text text-anchor="middle" x="763" y="-84" font-family="Helvetica,sans-Serif" font-size="10.00">iterator</text>
</a>
</g>
</g>
<!-- Node4&#45;&gt;Node14 -->
<g id="edge13_Node000004_Node000014" class="edge">
<title>Node4&#45;&gt;Node14</title>
<g id="a_edge13_Node000004_Node000014"><a xlink:title=" ">
<path fill="none" stroke="#63b8ff" d="M1047.4,-150.03C995.73,-146.76 886.24,-136.64 799,-107 794.41,-105.44 789.71,-103.33 785.28,-101.07"/>
<polygon fill="#63b8ff" stroke="#63b8ff" points="786.63,-97.81 776.18,-96.04 783.24,-103.94 786.63,-97.81"/>
</a>
</g>
</g>
<!-- Node15 -->
<g id="Node000015" class="node">
<title>Node15</title>
<g id="a_Node000015"><a xlink:title=" ">
<polygon fill="#e0e0e0" stroke="#999999" points="866,-96 808,-96 808,-77 866,-77 866,-96"/>
<text text-anchor="middle" x="837" y="-84" font-family="Helvetica,sans-Serif" font-size="10.00">memory</text>
</a>
</g>
</g>
<!-- Node4&#45;&gt;Node15 -->
<g id="edge14_Node000004_Node000015" class="edge">
<title>Node4&#45;&gt;Node15</title>
<g id="a_edge14_Node000004_Node000015"><a xlink:title=" ">
<path fill="none" stroke="#63b8ff" d="M1047.41,-147.29C1007.64,-141.1 935.12,-127.96 876,-107 871.17,-105.29 866.17,-103.12 861.42,-100.85"/>
<polygon fill="#63b8ff" stroke="#63b8ff" points="862.68,-97.57 852.18,-96.18 859.53,-103.81 862.68,-97.57"/>
</a>
</g>
</g>
<!-- Node16 -->
<g id="Node000016" class="node">
<title>Node16</title>
<g id="a_Node000016"><a xlink:title=" ">
<polygon fill="#e0e0e0" stroke="#999999" points="949.5,-96 884.5,-96 884.5,-77 949.5,-77 949.5,-96"/>
<text text-anchor="middle" x="917" y="-84" font-family="Helvetica,sans-Serif" font-size="10.00">stdexcept</text>
</a>
</g>
</g>
<!-- Node4&#45;&gt;Node16 -->
<g id="edge15_Node000004_Node000016" class="edge">
<title>Node4&#45;&gt;Node16</title>
<g id="a_edge15_Node000004_Node000016"><a xlink:title=" ">
<path fill="none" stroke="#63b8ff" d="M1052.84,-142.98C1028.84,-134.38 991.1,-120.48 959,-107 954.12,-104.95 948.98,-102.67 944.02,-100.4"/>
<polygon fill="#63b8ff" stroke="#63b8ff" points="945.4,-97.18 934.86,-96.15 942.45,-103.53 945.4,-97.18"/>
</a>
</g>
</g>
<!-- Node17 -->
<g id="Node000017" class="node">
<title>Node17</title>
<g id="a_Node000017"><a xlink:title=" ">
<polygon fill="#e0e0e0" stroke="#999999" points="1036.5,-96 967.5,-96 967.5,-77 1036.5,-77 1036.5,-96"/>
<text text-anchor="middle" x="1002" y="-84" font-family="Helvetica,sans-Serif" font-size="10.00">type_traits</text>
</a>
</g>
</g>
<!-- Node4&#45;&gt;Node17 -->
<g id="edge17_Node000004_Node000017" class="edge">
<title>Node4&#45;&gt;Node17</title>
<g id="a_edge17_Node000004_Node000017"><a xlink:title=" ">
<path fill="none" stroke="#63b8ff" d="M1066.89,-142.87C1054.99,-132.71 1035,-115.66 1020.35,-103.15"/>
<polygon fill="#63b8ff" stroke="#63b8ff" points="1022.31,-100.23 1012.44,-96.41 1017.77,-105.56 1022.31,-100.23"/>
</a>
</g>
</g>
<!-- Node18 -->
<g id="Node000018" class="node">
<title>Node18</title>
<g id="a_Node000018"><a xlink:title=" ">
<polygon fill="#e0e0e0" stroke="#999999" points="1099.5,-96 1054.5,-96 1054.5,-77 1099.5,-77 1099.5,-96"/>
<text text-anchor="middle" x="1077" y="-84" font-family="Helvetica,sans-Serif" font-size="10.00">utility</text>
</a>
</g>
</g>
<!-- Node4&#45;&gt;Node18 -->
<g id="edge18_Node000004_Node000018" class="edge">
<title>Node4&#45;&gt;Node18</title>
<g id="a_edge18_Node000004_Node000018"><a xlink:title=" ">
<path fill="none" stroke="#63b8ff" d="M1077,-142.87C1077,-133.66 1077,-118.79 1077,-106.77"/>
<polygon fill="#63b8ff" stroke="#63b8ff" points="1080.5,-106.41 1077,-96.41 1073.5,-106.41 1080.5,-106.41"/>
</a>
</g>
</g>
<!-- Node19 -->
<g id="Node000019" class="node">
<title>Node19</title>
<g id="a_Node000019"><a xlink:href="../../d3/d60/platform_8hpp.html" target="_top" xlink:title="Platform enumeration and platform detection utilities.">
<polygon fill="white" stroke="#666666" points="1222,-96 1118,-96 1118,-77 1222,-77 1222,-96"/>
<text text-anchor="middle" x="1170" y="-84" font-family="Helvetica,sans-Serif" font-size="10.00">core/platform.hpp</text>
</a>
</g>
</g>
<!-- Node4&#45;&gt;Node19 -->
<g id="edge19_Node000004_Node000019" class="edge">
<title>Node4&#45;&gt;Node19</title>
<g id="a_edge19_Node000004_Node000019"><a xlink:title=" ">
<path fill="none" stroke="#63b8ff" d="M1089.54,-142.87C1104.8,-132.37 1130.77,-114.5 1149.07,-101.9"/>
<polygon fill="#63b8ff" stroke="#63b8ff" points="1151.11,-104.75 1157.36,-96.2 1147.14,-98.98 1151.11,-104.75"/>
</a>
</g>
</g>
<!-- Node20 -->
<g id="Node000020" class="node">
<title>Node20</title>
<g id="a_Node000020"><a xlink:href="../../dd/d9e/linux_2platform__config_8hpp.html" target="_top" xlink:title="additional linux platform header">
<polygon fill="white" stroke="#666666" points="1395.5,-107 1240.5,-107 1240.5,-66 1395.5,-66 1395.5,-107"/>
<text text-anchor="start" x="1248.5" y="-95" font-family="Helvetica,sans-Serif" font-size="10.00">/home/runner/work/toygine2</text>
<text text-anchor="start" x="1248.5" y="-84" font-family="Helvetica,sans-Serif" font-size="10.00">/toygine2/src/platforms</text>
<text text-anchor="middle" x="1318" y="-73" font-family="Helvetica,sans-Serif" font-size="10.00">/linux/platform_config.hpp</text>
</a>
</g>
</g>
<!-- Node4&#45;&gt;Node20 -->
<g id="edge20_Node000004_Node000020" class="edge">
<title>Node4&#45;&gt;Node20</title>
<g id="a_edge20_Node000004_Node000020"><a xlink:title=" ">
<path fill="none" stroke="#63b8ff" d="M1106.55,-143.65C1138.28,-135.23 1190.11,-121.46 1234.52,-109.67"/>
<polygon fill="#63b8ff" stroke="#63b8ff" points="1235.69,-112.98 1244.45,-107.03 1233.89,-106.21 1235.69,-112.98"/>
</a>
</g>
</g>
<!-- Node22 -->
<g id="Node000022" class="node">
<title>Node22</title>
<g id="a_Node000022"><a xlink:href="../../dd/ded/c__string__view_8hpp.html" target="_top" xlink:title="Non&#45;owning string view class for C&#45;style strings.">
<polygon fill="white" stroke="#666666" points="1542,-96 1414,-96 1414,-77 1542,-77 1542,-96"/>
<text text-anchor="middle" x="1478" y="-84" font-family="Helvetica,sans-Serif" font-size="10.00">core/c_string_view.hpp</text>
</a>
</g>
</g>
<!-- Node4&#45;&gt;Node22 -->
<g id="edge22_Node000004_Node000022" class="edge">
<title>Node4&#45;&gt;Node22</title>
<g id="a_edge22_Node000004_Node000022"><a xlink:title=" ">
<path fill="none" stroke="#63b8ff" d="M1106.61,-148.75C1164.37,-143.1 1295.97,-128.87 1405,-107 1416.32,-104.73 1428.49,-101.71 1439.59,-98.73"/>
<polygon fill="#63b8ff" stroke="#63b8ff" points="1440.71,-102.06 1449.42,-96.03 1438.85,-95.31 1440.71,-102.06"/>
</a>
</g>
</g>
<!-- Node23 -->
<g id="Node000023" class="node">
<title>Node23</title>
<g id="a_Node000023"><a xlink:href="../../d1/d5c/callbacks__pool_8hpp.html" target="_top" xlink:title="Template callback pool class with fixed&#45;size callback storage.">
<polygon fill="white" stroke="#666666" points="1694,-96 1560,-96 1560,-77 1694,-77 1694,-96"/>
<text text-anchor="middle" x="1627" y="-84" font-family="Helvetica,sans-Serif" font-size="10.00">core/callbacks_pool.hpp</text>
</a>
</g>
</g>
<!-- Node4&#45;&gt;Node23 -->
<g id="edge23_Node000004_Node000023" class="edge">
<title>Node4&#45;&gt;Node23</title>
<g id="a_edge23_Node000004_Node000023"><a xlink:title=" ">
<path fill="none" stroke="#63b8ff" d="M1106.61,-150.34C1181.53,-147.06 1384.48,-135.99 1551,-107 1563.14,-104.89 1576.2,-101.83 1588,-98.76"/>
<polygon fill="#63b8ff" stroke="#63b8ff" points="1589.25,-102.05 1598,-96.09 1587.44,-95.29 1589.25,-102.05"/>
</a>
</g>
</g>
<!-- Node24 -->
<g id="Node000024" class="node">
<title>Node24</title>
<g id="a_Node000024"><a xlink:href="../../d4/dc0/constexpr__utils_8hpp.html" target="_top" xlink:title="Constexpr utility functions for compile&#45;time operations.">
<polygon fill="white" stroke="#666666" points="1848,-96 1712,-96 1712,-77 1848,-77 1848,-96"/>
<text text-anchor="middle" x="1780" y="-84" font-family="Helvetica,sans-Serif" font-size="10.00">core/constexpr_utils.hpp</text>
</a>
</g>
</g>
<!-- Node4&#45;&gt;Node24 -->
<g id="edge24_Node000004_Node000024" class="edge">
<title>Node4&#45;&gt;Node24</title>
<g id="a_edge24_Node000004_Node000024"><a xlink:title=" ">
<path fill="none" stroke="#63b8ff" d="M1106.55,-151.25C1196.62,-150.1 1475.49,-143.6 1703,-107 1715.66,-104.96 1729.28,-101.83 1741.49,-98.68"/>
<polygon fill="#63b8ff" stroke="#63b8ff" points="1742.61,-102 1751.37,-96.04 1740.8,-95.24 1742.61,-102"/>
</a>
</g>
</g>
<!-- Node25 -->
<g id="Node000025" class="node">
<title>Node25</title>
<g id="a_Node000025"><a xlink:href="../../d7/d7f/fixed__string_8hpp.html" target="_top" xlink:title="Template string class with fixed&#45;size character buffer.">
<polygon fill="white" stroke="#666666" points="1984,-96 1866,-96 1866,-77 1984,-77 1984,-96"/>
<text text-anchor="middle" x="1925" y="-84" font-family="Helvetica,sans-Serif" font-size="10.00">core/fixed_string.hpp</text>
</a>
</g>
</g>
<!-- Node4&#45;&gt;Node25 -->
<g id="edge25_Node000004_Node000025" class="edge">
<title>Node4&#45;&gt;Node25</title>
<g id="a_edge25_Node000004_Node000025"><a xlink:title=" ">
<path fill="none" stroke="#63b8ff" d="M1106.77,-150.69C1231,-147.16 1708.57,-132.19 1857,-107 1868.01,-105.13 1879.78,-102.13 1890.38,-99.04"/>
<polygon fill="#63b8ff" stroke="#63b8ff" points="1891.57,-102.33 1900.12,-96.07 1889.53,-95.63 1891.57,-102.33"/>
</a>
</g>
</g>
<!-- Node26 -->
<g id="Node000026" class="node">
<title>Node26</title>
<g id="a_Node000026"><a xlink:href="../../d7/dea/fixed__vector_8hpp.html" target="_top" xlink:title="TODO.">
<polygon fill="white" stroke="#666666" points="2122,-96 2002,-96 2002,-77 2122,-77 2122,-96"/>
<text text-anchor="middle" x="2062" y="-84" font-family="Helvetica,sans-Serif" font-size="10.00">core/fixed_vector.hpp</text>
</a>
</g>
</g>
<!-- Node4&#45;&gt;Node26 -->
<g id="edge26_Node000004_Node000026" class="edge">
<title>Node4&#45;&gt;Node26</title>
<g id="a_edge26_Node000004_Node000026"><a xlink:title=" ">
<path fill="none" stroke="#63b8ff" d="M1106.72,-150.96C1243.87,-148.34 1816.42,-135.86 1993,-107 2004.38,-105.14 2016.56,-102.07 2027.47,-98.92"/>
<polygon fill="#63b8ff" stroke="#63b8ff" points="2028.51,-102.26 2037.07,-96.02 2026.49,-95.56 2028.51,-102.26"/>
</a>
</g>
</g>
<!-- Node27 -->
<g id="Node000027" class="node">
<title>Node27</title>
<g id="a_Node000027"><a xlink:href="../../dd/d8e/hashes_8hpp.html" target="_top" xlink:title="CRC hash functions.">
<polygon fill="white" stroke="#666666" points="2236,-96 2140,-96 2140,-77 2236,-77 2236,-96"/>
<text text-anchor="middle" x="2188" y="-84" font-family="Helvetica,sans-Serif" font-size="10.00">core/hashes.hpp</text>
</a>
</g>
</g>
<!-- Node4&#45;&gt;Node27 -->
<g id="edge27_Node000004_Node000027" class="edge">
<title>Node4&#45;&gt;Node27</title>
<g id="a_edge27_Node000004_Node000027"><a xlink:title=" ">
<path fill="none" stroke="#63b8ff" d="M1106.65,-151.4C1255.99,-150.69 1926.71,-145.42 2131,-107 2139.94,-105.32 2149.38,-102.53 2157.96,-99.58"/>
<polygon fill="#63b8ff" stroke="#63b8ff" points="2159.34,-102.8 2167.54,-96.1 2156.95,-96.22 2159.34,-102.8"/>
</a>
</g>
</g>
<!-- Node28 -->
<g id="Node000028" class="node">
<title>Node28</title>
<g id="a_Node000028"><a xlink:href="../../df/d93/utils_8hpp.html" target="_top" xlink:title="Core utility functions for string manipulation, encoding conversion, and number formatting.">
<polygon fill="white" stroke="#666666" points="2337.5,-96 2254.5,-96 2254.5,-77 2337.5,-77 2337.5,-96"/>
<text text-anchor="middle" x="2296" y="-84" font-family="Helvetica,sans-Serif" font-size="10.00">core/utils.hpp</text>
</a>
</g>
</g>
<!-- Node4&#45;&gt;Node28 -->
<g id="edge28_Node000004_Node000028" class="edge">
<title>Node4&#45;&gt;Node28</title>
<g id="a_edge28_Node000004_Node000028"><a xlink:title=" ">
<path fill="none" stroke="#63b8ff" d="M1106.68,-151.68C1265.66,-152.43 2017.86,-153.43 2245,-107 2252.88,-105.39 2261.14,-102.71 2268.65,-99.84"/>
<polygon fill="#63b8ff" stroke="#63b8ff" points="2270.07,-103.04 2278.02,-96.03 2267.44,-96.55 2270.07,-103.04"/>
</a>
</g>
</g>
<!-- Node29 -->
<g id="Node000029" class="node">
<title>Node29</title>
<g id="a_Node000029"><a xlink:href="../../df/d4a/c__string__view_8inl.html" target="_top" xlink:title="Inline implementations for CStringView class.">
<polygon fill="white" stroke="#666666" points="2478,-96 2356,-96 2356,-77 2478,-77 2478,-96"/>
<text text-anchor="middle" x="2417" y="-84" font-family="Helvetica,sans-Serif" font-size="10.00">core/c_string_view.inl</text>
</a>
</g>
</g>
<!-- Node4&#45;&gt;Node29 -->
<g id="edge29_Node000004_Node000029" class="edge">
<title>Node4&#45;&gt;Node29</title>
<g id="a_edge29_Node000004_Node000029"><a xlink:title=" ">
<path fill="none" stroke="#63b8ff" d="M1106.69,-151.41C1273.63,-150.78 2096.67,-145.69 2347,-107 2358.65,-105.2 2371.11,-102.12 2382.25,-98.93"/>
<polygon fill="#63b8ff" stroke="#63b8ff" points="2383.46,-102.22 2392.04,-96 2381.46,-95.51 2383.46,-102.22"/>
</a>
</g>
</g>
<!-- Node30 -->
<g id="Node000030" class="node">
<title>Node30</title>
<g id="a_Node000030"><a xlink:href="../../d6/ddb/callbacks__pool_8inl.html" target="_top" xlink:title="Inline implementations for template callback pool class with fixed&#45;size callback storage.">
<polygon fill="white" stroke="#666666" points="2624,-96 2496,-96 2496,-77 2624,-77 2624,-96"/>
<text text-anchor="middle" x="2560" y="-84" font-family="Helvetica,sans-Serif" font-size="10.00">core/callbacks_pool.inl</text>
</a>
</g>
</g>
<!-- Node4&#45;&gt;Node30 -->
<g id="edge30_Node000004_Node000030" class="edge">
<title>Node4&#45;&gt;Node30</title>
<g id="a_edge30_Node000004_Node000030"><a xlink:title=" ">
<path fill="none" stroke="#63b8ff" d="M1106.71,-151.49C1284.28,-151.29 2207.15,-148.23 2487,-107 2499.25,-105.2 2512.38,-102.07 2524.09,-98.85"/>
<polygon fill="#63b8ff" stroke="#63b8ff" points="2525.3,-102.14 2533.95,-96.02 2523.37,-95.41 2525.3,-102.14"/>
</a>
</g>
</g>
<!-- Node31 -->
<g id="Node000031" class="node">
<title>Node31</title>
<g id="a_Node000031"><a xlink:href="../../dc/d28/constexpr__utils_8inl.html" target="_top" xlink:title="Inline implementations for constexpr utility functions.">
<polygon fill="white" stroke="#666666" points="2772,-96 2642,-96 2642,-77 2772,-77 2772,-96"/>
<text text-anchor="middle" x="2707" y="-84" font-family="Helvetica,sans-Serif" font-size="10.00">core/constexpr_utils.inl</text>
</a>
</g>
</g>
<!-- Node4&#45;&gt;Node31 -->
<g id="edge31_Node000004_Node000031" class="edge">
<title>Node4&#45;&gt;Node31</title>
<g id="a_edge31_Node000004_Node000031"><a xlink:title=" ">
<path fill="none" stroke="#63b8ff" d="M1106.67,-151.58C1294.68,-151.93 2322.38,-151.76 2633,-107 2645.53,-105.19 2658.99,-102.03 2670.95,-98.77"/>
<polygon fill="#63b8ff" stroke="#63b8ff" points="2671.92,-102.13 2680.59,-96.03 2670.01,-95.4 2671.92,-102.13"/>
</a>
</g>
</g>
<!-- Node32 -->
<g id="Node000032" class="node">
<title>Node32</title>
<g id="a_Node000032"><a xlink:href="../../d7/d40/fixed__string_8inl.html" target="_top" xlink:title="Inline implementations for FixedString template class.">
<polygon fill="white" stroke="#666666" points="2902,-96 2790,-96 2790,-77 2902,-77 2902,-96"/>
<text text-anchor="middle" x="2846" y="-84" font-family="Helvetica,sans-Serif" font-size="10.00">core/fixed_string.inl</text>
</a>
</g>
</g>
<!-- Node4&#45;&gt;Node32 -->
<g id="edge32_Node000004_Node000032" class="edge">
<title>Node4&#45;&gt;Node32</title>
<g id="a_edge32_Node000004_Node000032"><a xlink:title=" ">
<path fill="none" stroke="#63b8ff" d="M1106.73,-151.2C1319.68,-148.98 2609.51,-134.46 2781,-107 2791.64,-105.3 2802.98,-102.32 2813.16,-99.2"/>
<polygon fill="#63b8ff" stroke="#63b8ff" points="2814.44,-102.46 2822.88,-96.07 2812.29,-95.8 2814.44,-102.46"/>
</a>
</g>
</g>
<!-- Node33 -->
<g id="Node000033" class="node">
<title>Node33</title>
<g id="a_Node000033"><a xlink:href="../../da/dc9/fixed__vector_8inl.html" target="_top" xlink:title="TODO.">
<polygon fill="white" stroke="#666666" points="3034,-96 2920,-96 2920,-77 3034,-77 3034,-96"/>
<text text-anchor="middle" x="2977" y="-84" font-family="Helvetica,sans-Serif" font-size="10.00">core/fixed_vector.inl</text>
</a>
</g>
</g>
<!-- Node4&#45;&gt;Node33 -->
<g id="edge33_Node000004_Node000033" class="edge">
<title>Node4&#45;&gt;Node33</title>
<g id="a_edge33_Node000004_Node000033"><a xlink:title=" ">
<path fill="none" stroke="#63b8ff" d="M1106.83,-151.25C1329.3,-149.32 2725.76,-136.09 2911,-107 2921.91,-105.29 2933.55,-102.27 2943.97,-99.11"/>
<polygon fill="#63b8ff" stroke="#63b8ff" points="2945.05,-102.44 2953.52,-96.08 2942.93,-95.77 2945.05,-102.44"/>
</a>
</g>
</g>
<!-- Node34 -->
<g id="Node000034" class="node">
<title>Node34</title>
<g id="a_Node000034"><a xlink:href="../../df/d7d/utils_8inl.html" target="_top" xlink:title="Inline implementations of core utility functions for string manipulation and encoding conversion.">
<polygon fill="white" stroke="#666666" points="3129.5,-96 3052.5,-96 3052.5,-77 3129.5,-77 3129.5,-96"/>
<text text-anchor="middle" x="3091" y="-84" font-family="Helvetica,sans-Serif" font-size="10.00">core/utils.inl</text>
</a>
</g>
</g>
<!-- Node4&#45;&gt;Node34 -->
<g id="edge34_Node000004_Node000034" class="edge">
<title>Node4&#45;&gt;Node34</title>
<g id="a_edge34_Node000004_Node000034"><a xlink:title=" ">
<path fill="none" stroke="#63b8ff" d="M1106.77,-151.48C1338.18,-151.21 2845.55,-147.9 3043,-107 3050.22,-105.5 3057.74,-102.97 3064.62,-100.21"/>
<polygon fill="#63b8ff" stroke="#63b8ff" points="3066.35,-103.28 3074.15,-96.11 3063.58,-96.85 3066.35,-103.28"/>
</a>
</g>
</g>
<!-- Node21 -->
<g id="Node000021" class="node">
<title>Node21</title>
<g id="a_Node000021"><a xlink:href="../../d1/d5f/assertion__macro__gcc__clang_8hpp.html" target="_top" xlink:title="Debug and Release assertion macro implementations for GCC/Clang platforms.">
<polygon fill="white" stroke="#666666" points="1381.5,-30 1254.5,-30 1254.5,0 1381.5,0 1381.5,-30"/>
<text text-anchor="start" x="1262.5" y="-18" font-family="Helvetica,sans-Serif" font-size="10.00">../common/assertion</text>
<text text-anchor="middle" x="1318" y="-7" font-family="Helvetica,sans-Serif" font-size="10.00">_macro_gcc_clang.hpp</text>
</a>
</g>
</g>
<!-- Node20&#45;&gt;Node21 -->
<g id="edge21_Node000020_Node000021" class="edge">
<title>Node20&#45;&gt;Node21</title>
<g id="a_edge21_Node000020_Node000021"><a xlink:title=" ">
<path fill="none" stroke="#63b8ff" d="M1318,-65.77C1318,-57.85 1318,-48.63 1318,-40.3"/>
<polygon fill="#63b8ff" stroke="#63b8ff" points="1321.5,-40.04 1318,-30.04 1314.5,-40.04 1321.5,-40.04"/>
</a>
</g>
</g>
</g>
</svg>
