<?xml version="1.0" encoding="UTF-8" standalone="no"?>
<!DOCTYPE svg PUBLIC "-//W3C//DTD SVG 1.1//EN"
 "http://www.w3.org/Graphics/SVG/1.1/DTD/svg11.dtd">
<!-- Generated by graphviz version 2.43.0 (0)
 -->
<!-- Title: src/platforms/stub/core/assertion_stub.cpp Pages: 1 -->
<svg width="2545pt" height="170pt"
 viewBox="0.00 0.00 2544.50 170.00" xmlns="http://www.w3.org/2000/svg" xmlns:xlink="http://www.w3.org/1999/xlink">
<g id="graph0" class="graph" transform="scale(1 1) rotate(0) translate(4 166)">
<title>src/platforms/stub/core/assertion_stub.cpp</title>
<!-- Node1 -->
<g id="Node000001" class="node">
<title>Node1</title>
<g id="a_Node000001"><a xlink:title=" ">
<polygon fill="#999999" stroke="#666666" points="464.5,-162 329.5,-162 329.5,-132 464.5,-132 464.5,-162"/>
<text text-anchor="start" x="337.5" y="-150" font-family="Helvetica,sans-Serif" font-size="10.00">src/platforms/stub</text>
<text text-anchor="middle" x="397" y="-139" font-family="Helvetica,sans-Serif" font-size="10.00">/core/assertion_stub.cpp</text>
</a>
</g>
</g>
<!-- Node2 -->
<g id="Node000002" class="node">
<title>Node2</title>
<g id="a_Node000002"><a xlink:title=" ">
<polygon fill="#e0e0e0" stroke="#999999" points="369,-96 323,-96 323,-77 369,-77 369,-96"/>
<text text-anchor="middle" x="346" y="-84" font-family="Helvetica,sans-Serif" font-size="10.00">cstdio</text>
</a>
</g>
</g>
<!-- Node1&#45;&gt;Node2 -->
<g id="edge1_Node000001_Node000002" class="edge">
<title>Node1&#45;&gt;Node2</title>
<g id="a_edge1_Node000001_Node000002"><a xlink:title=" ">
<path fill="none" stroke="#63b8ff" d="M384.65,-131.84C377.33,-123.43 368,-112.74 360.35,-103.96"/>
<polygon fill="#63b8ff" stroke="#63b8ff" points="362.85,-101.5 353.64,-96.27 357.58,-106.1 362.85,-101.5"/>
</a>
</g>
</g>
<!-- Node3 -->
<g id="Node000003" class="node">
<title>Node3</title>
<g id="a_Node000003"><a xlink:title=" ">
<polygon fill="#e0e0e0" stroke="#999999" points="44,-30 0,-30 0,-11 44,-11 44,-30"/>
<text text-anchor="middle" x="22" y="-18" font-family="Helvetica,sans-Serif" font-size="10.00">string</text>
</a>
</g>
</g>
<!-- Node1&#45;&gt;Node3 -->
<g id="edge2_Node000001_Node000003" class="edge">
<title>Node1&#45;&gt;Node3</title>
<g id="a_edge2_Node000001_Node000003"><a xlink:title=" ">
<path fill="none" stroke="#63b8ff" d="M397.44,-131.95C397.1,-116.03 393.88,-90.55 378,-77 322.72,-29.84 121.6,-64.95 53,-41 49.06,-39.62 45.1,-37.67 41.4,-35.53"/>
<polygon fill="#63b8ff" stroke="#63b8ff" points="43.16,-32.5 32.85,-30.03 39.37,-38.39 43.16,-32.5"/>
</a>
</g>
</g>
<!-- Node4 -->
<g id="Node000004" class="node">
<title>Node4</title>
<g id="a_Node000004"><a xlink:href="../../da/d47/core_8hpp.html" target="_top" xlink:title="Umbrella header for the engine core module.">
<polygon fill="white" stroke="#666666" points="896.5,-96 837.5,-96 837.5,-77 896.5,-77 896.5,-96"/>
<text text-anchor="middle" x="867" y="-84" font-family="Helvetica,sans-Serif" font-size="10.00">core.hpp</text>
</a>
</g>
</g>
<!-- Node1&#45;&gt;Node4 -->
<g id="edge3_Node000001_Node000004" class="edge">
<title>Node1&#45;&gt;Node4</title>
<g id="a_edge3_Node000001_Node000004"><a xlink:title=" ">
<path fill="none" stroke="#63b8ff" d="M464.59,-137.59C564.02,-125.21 746.62,-102.48 827.1,-92.47"/>
<polygon fill="#63b8ff" stroke="#63b8ff" points="827.82,-95.9 837.31,-91.2 826.95,-88.96 827.82,-95.9"/>
</a>
</g>
</g>
<!-- Node4&#45;&gt;Node3 -->
<g id="edge14_Node000004_Node000003" class="edge">
<title>Node4&#45;&gt;Node3</title>
<g id="a_edge14_Node000004_Node000003"><a xlink:title=" ">
<path fill="none" stroke="#63b8ff" d="M837.42,-84.76C700.17,-81.22 128.86,-65.14 53,-41 48.96,-39.71 44.92,-37.77 41.15,-35.61"/>
<polygon fill="#63b8ff" stroke="#63b8ff" points="42.81,-32.51 32.51,-30 39,-38.38 42.81,-32.51"/>
</a>
</g>
</g>
<!-- Node5 -->
<g id="Node000005" class="node">
<title>Node5</title>
<g id="a_Node000005"><a xlink:title=" ">
<polygon fill="#e0e0e0" stroke="#999999" points="126,-30 62,-30 62,-11 126,-11 126,-30"/>
<text text-anchor="middle" x="94" y="-18" font-family="Helvetica,sans-Serif" font-size="10.00">algorithm</text>
</a>
</g>
</g>
<!-- Node4&#45;&gt;Node5 -->
<g id="edge4_Node000004_Node000005" class="edge">
<title>Node4&#45;&gt;Node5</title>
<g id="a_edge4_Node000004_Node000005"><a xlink:title=" ">
<path fill="none" stroke="#63b8ff" d="M837.33,-85.2C717.78,-83.77 271.23,-76.12 135,-41 129.28,-39.52 123.39,-37.24 117.92,-34.75"/>
<polygon fill="#63b8ff" stroke="#63b8ff" points="119.18,-31.46 108.66,-30.16 116.07,-37.74 119.18,-31.46"/>
</a>
</g>
</g>
<!-- Node6 -->
<g id="Node000006" class="node">
<title>Node6</title>
<g id="a_Node000006"><a xlink:title=" ">
<polygon fill="#e0e0e0" stroke="#999999" points="186,-30 144,-30 144,-11 186,-11 186,-30"/>
<text text-anchor="middle" x="165" y="-18" font-family="Helvetica,sans-Serif" font-size="10.00">array</text>
</a>
</g>
</g>
<!-- Node4&#45;&gt;Node6 -->
<g id="edge5_Node000004_Node000006" class="edge">
<title>Node4&#45;&gt;Node6</title>
<g id="a_edge5_Node000004_Node000006"><a xlink:title=" ">
<path fill="none" stroke="#63b8ff" d="M837.34,-85.52C723.76,-85.27 316.76,-81.52 195,-41 191.24,-39.75 187.5,-37.91 183.99,-35.86"/>
<polygon fill="#63b8ff" stroke="#63b8ff" points="185.68,-32.78 175.42,-30.17 181.81,-38.62 185.68,-32.78"/>
</a>
</g>
</g>
<!-- Node7 -->
<g id="Node000007" class="node">
<title>Node7</title>
<g id="a_Node000007"><a xlink:title=" ">
<polygon fill="#e0e0e0" stroke="#999999" points="263.5,-30 204.5,-30 204.5,-11 263.5,-11 263.5,-30"/>
<text text-anchor="middle" x="234" y="-18" font-family="Helvetica,sans-Serif" font-size="10.00">compare</text>
</a>
</g>
</g>
<!-- Node4&#45;&gt;Node7 -->
<g id="edge6_Node000004_Node000007" class="edge">
<title>Node4&#45;&gt;Node7</title>
<g id="a_edge6_Node000004_Node000007"><a xlink:title=" ">
<path fill="none" stroke="#63b8ff" d="M837.37,-84.79C732.76,-82.07 381.16,-70.84 273,-41 267.66,-39.53 262.19,-37.31 257.1,-34.88"/>
<polygon fill="#63b8ff" stroke="#63b8ff" points="258.4,-31.61 247.91,-30.12 255.18,-37.83 258.4,-31.61"/>
</a>
</g>
</g>
<!-- Node8 -->
<g id="Node000008" class="node">
<title>Node8</title>
<g id="a_Node000008"><a xlink:title=" ">
<polygon fill="#e0e0e0" stroke="#999999" points="342,-30 282,-30 282,-11 342,-11 342,-30"/>
<text text-anchor="middle" x="312" y="-18" font-family="Helvetica,sans-Serif" font-size="10.00">concepts</text>
</a>
</g>
</g>
<!-- Node4&#45;&gt;Node8 -->
<g id="edge7_Node000004_Node000008" class="edge">
<title>Node4&#45;&gt;Node8</title>
<g id="a_edge7_Node000004_Node000008"><a xlink:title=" ">
<path fill="none" stroke="#63b8ff" d="M837.37,-84.41C741.96,-80.66 443.6,-67.11 351,-41 345.67,-39.5 340.21,-37.26 335.12,-34.84"/>
<polygon fill="#63b8ff" stroke="#63b8ff" points="336.41,-31.57 325.92,-30.08 333.19,-37.78 336.41,-31.57"/>
</a>
</g>
</g>
<!-- Node9 -->
<g id="Node000009" class="node">
<title>Node9</title>
<g id="a_Node000009"><a xlink:title=" ">
<polygon fill="#e0e0e0" stroke="#999999" points="413.5,-30 360.5,-30 360.5,-11 413.5,-11 413.5,-30"/>
<text text-anchor="middle" x="387" y="-18" font-family="Helvetica,sans-Serif" font-size="10.00">cstddef</text>
</a>
</g>
</g>
<!-- Node4&#45;&gt;Node9 -->
<g id="edge8_Node000004_Node000009" class="edge">
<title>Node4&#45;&gt;Node9</title>
<g id="a_edge8_Node000004_Node000009"><a xlink:title=" ">
<path fill="none" stroke="#63b8ff" d="M837.29,-84.05C750.9,-79.6 500.94,-64.95 423,-41 418.16,-39.51 413.22,-37.34 408.62,-34.98"/>
<polygon fill="#63b8ff" stroke="#63b8ff" points="410.22,-31.87 399.78,-30.04 406.8,-37.98 410.22,-31.87"/>
</a>
</g>
</g>
<!-- Node10 -->
<g id="Node000010" class="node">
<title>Node10</title>
<g id="a_Node000010"><a xlink:title=" ">
<polygon fill="#e0e0e0" stroke="#999999" points="482,-30 432,-30 432,-11 482,-11 482,-30"/>
<text text-anchor="middle" x="457" y="-18" font-family="Helvetica,sans-Serif" font-size="10.00">cstdint</text>
</a>
</g>
</g>
<!-- Node4&#45;&gt;Node10 -->
<g id="edge9_Node000004_Node000010" class="edge">
<title>Node4&#45;&gt;Node10</title>
<g id="a_edge9_Node000004_Node000010"><a xlink:title=" ">
<path fill="none" stroke="#63b8ff" d="M837.36,-85.97C772.72,-86.15 614.89,-81.95 491,-41 486.71,-39.58 482.36,-37.59 478.27,-35.41"/>
<polygon fill="#63b8ff" stroke="#63b8ff" points="479.74,-32.22 469.34,-30.19 476.21,-38.26 479.74,-32.22"/>
</a>
</g>
</g>
<!-- Node11 -->
<g id="Node000011" class="node">
<title>Node11</title>
<g id="a_Node000011"><a xlink:title=" ">
<polygon fill="#e0e0e0" stroke="#999999" points="550,-30 500,-30 500,-11 550,-11 550,-30"/>
<text text-anchor="middle" x="525" y="-18" font-family="Helvetica,sans-Serif" font-size="10.00">cstring</text>
</a>
</g>
</g>
<!-- Node4&#45;&gt;Node11 -->
<g id="edge10_Node000004_Node000011" class="edge">
<title>Node4&#45;&gt;Node11</title>
<g id="a_edge10_Node000004_Node000011"><a xlink:title=" ">
<path fill="none" stroke="#63b8ff" d="M837.26,-84.89C781.28,-82.94 657.06,-74.82 559,-41 554.73,-39.53 550.39,-37.51 546.3,-35.32"/>
<polygon fill="#63b8ff" stroke="#63b8ff" points="547.77,-32.13 537.37,-30.11 544.24,-38.17 547.77,-32.13"/>
</a>
</g>
</g>
<!-- Node12 -->
<g id="Node000012" class="node">
<title>Node12</title>
<g id="a_Node000012"><a xlink:title=" ">
<polygon fill="#e0e0e0" stroke="#999999" points="617.5,-30 568.5,-30 568.5,-11 617.5,-11 617.5,-30"/>
<text text-anchor="middle" x="593" y="-18" font-family="Helvetica,sans-Serif" font-size="10.00">cuchar</text>
</a>
</g>
</g>
<!-- Node4&#45;&gt;Node12 -->
<g id="edge11_Node000004_Node000012" class="edge">
<title>Node4&#45;&gt;Node12</title>
<g id="a_edge11_Node000004_Node000012"><a xlink:title=" ">
<path fill="none" stroke="#63b8ff" d="M837.34,-83.23C791.16,-78.99 699.79,-67.74 627,-41 622.83,-39.47 618.58,-37.45 614.56,-35.3"/>
<polygon fill="#63b8ff" stroke="#63b8ff" points="616.14,-32.17 605.74,-30.18 612.63,-38.22 616.14,-32.17"/>
</a>
</g>
</g>
<!-- Node13 -->
<g id="Node000013" class="node">
<title>Node13</title>
<g id="a_Node000013"><a xlink:title=" ">
<polygon fill="#e0e0e0" stroke="#999999" points="694,-30 636,-30 636,-11 694,-11 694,-30"/>
<text text-anchor="middle" x="665" y="-18" font-family="Helvetica,sans-Serif" font-size="10.00">memory</text>
</a>
</g>
</g>
<!-- Node4&#45;&gt;Node13 -->
<g id="edge12_Node000004_Node000013" class="edge">
<title>Node4&#45;&gt;Node13</title>
<g id="a_edge12_Node000004_Node000013"><a xlink:title=" ">
<path fill="none" stroke="#63b8ff" d="M837.38,-79.43C804.07,-72.15 748.67,-58.69 703,-41 698.32,-39.19 693.46,-36.97 688.84,-34.69"/>
<polygon fill="#63b8ff" stroke="#63b8ff" points="690.32,-31.51 679.83,-30.03 687.1,-37.73 690.32,-31.51"/>
</a>
</g>
</g>
<!-- Node14 -->
<g id="Node000014" class="node">
<title>Node14</title>
<g id="a_Node000014"><a xlink:title=" ">
<polygon fill="#e0e0e0" stroke="#999999" points="777.5,-30 712.5,-30 712.5,-11 777.5,-11 777.5,-30"/>
<text text-anchor="middle" x="745" y="-18" font-family="Helvetica,sans-Serif" font-size="10.00">stdexcept</text>
</a>
</g>
</g>
<!-- Node4&#45;&gt;Node14 -->
<g id="edge13_Node000004_Node000014" class="edge">
<title>Node4&#45;&gt;Node14</title>
<g id="a_edge13_Node000004_Node000014"><a xlink:title=" ">
<path fill="none" stroke="#63b8ff" d="M850.55,-76.87C829.99,-66.09 794.6,-47.52 770.51,-34.88"/>
<polygon fill="#63b8ff" stroke="#63b8ff" points="772.06,-31.75 761.58,-30.2 768.81,-37.94 772.06,-31.75"/>
</a>
</g>
</g>
<!-- Node15 -->
<g id="Node000015" class="node">
<title>Node15</title>
<g id="a_Node000015"><a xlink:title=" ">
<polygon fill="#e0e0e0" stroke="#999999" points="864.5,-30 795.5,-30 795.5,-11 864.5,-11 864.5,-30"/>
<text text-anchor="middle" x="830" y="-18" font-family="Helvetica,sans-Serif" font-size="10.00">type_traits</text>
</a>
</g>
</g>
<!-- Node4&#45;&gt;Node15 -->
<g id="edge15_Node000004_Node000015" class="edge">
<title>Node4&#45;&gt;Node15</title>
<g id="a_edge15_Node000004_Node000015"><a xlink:title=" ">
<path fill="none" stroke="#63b8ff" d="M862.01,-76.87C856.47,-67.28 847.37,-51.55 840.29,-39.3"/>
<polygon fill="#63b8ff" stroke="#63b8ff" points="843.18,-37.31 835.15,-30.41 837.12,-40.81 843.18,-37.31"/>
</a>
</g>
</g>
<!-- Node16 -->
<g id="Node000016" class="node">
<title>Node16</title>
<g id="a_Node000016"><a xlink:title=" ">
<polygon fill="#e0e0e0" stroke="#999999" points="927.5,-30 882.5,-30 882.5,-11 927.5,-11 927.5,-30"/>
<text text-anchor="middle" x="905" y="-18" font-family="Helvetica,sans-Serif" font-size="10.00">utility</text>
</a>
</g>
</g>
<!-- Node4&#45;&gt;Node16 -->
<g id="edge16_Node000004_Node000016" class="edge">
<title>Node4&#45;&gt;Node16</title>
<g id="a_edge16_Node000004_Node000016"><a xlink:title=" ">
<path fill="none" stroke="#63b8ff" d="M872.12,-76.87C877.82,-67.28 887.16,-51.55 894.43,-39.3"/>
<polygon fill="#63b8ff" stroke="#63b8ff" points="897.62,-40.79 899.71,-30.41 891.6,-37.22 897.62,-40.79"/>
</a>
</g>
</g>
<!-- Node17 -->
<g id="Node000017" class="node">
<title>Node17</title>
<g id="a_Node000017"><a xlink:href="../../dd/d9e/linux_2platform__config_8hpp.html" target="_top" xlink:title="additional linux platform header">
<polygon fill="white" stroke="#666666" points="1100.5,-41 945.5,-41 945.5,0 1100.5,0 1100.5,-41"/>
<text text-anchor="start" x="953.5" y="-29" font-family="Helvetica,sans-Serif" font-size="10.00">/home/runner/work/toygine2</text>
<text text-anchor="start" x="953.5" y="-18" font-family="Helvetica,sans-Serif" font-size="10.00">/toygine2/src/platforms</text>
<text text-anchor="middle" x="1023" y="-7" font-family="Helvetica,sans-Serif" font-size="10.00">/linux/platform_config.hpp</text>
</a>
</g>
</g>
<!-- Node4&#45;&gt;Node17 -->
<g id="edge17_Node000004_Node000017" class="edge">
<title>Node4&#45;&gt;Node17</title>
<g id="a_edge17_Node000004_Node000017"><a xlink:title=" ">
<path fill="none" stroke="#63b8ff" d="M888.04,-76.87C907.98,-68.69 938.83,-56.03 966.01,-44.88"/>
<polygon fill="#63b8ff" stroke="#63b8ff" points="967.52,-48.04 975.45,-41.01 964.87,-41.57 967.52,-48.04"/>
</a>
</g>
</g>
<!-- Node18 -->
<g id="Node000018" class="node">
<title>Node18</title>
<g id="a_Node000018"><a xlink:href="../../dd/ded/c__string__view_8hpp.html" target="_top" xlink:title="Non&#45;owning string view class for C&#45;style strings.">
<polygon fill="white" stroke="#666666" points="1247,-30 1119,-30 1119,-11 1247,-11 1247,-30"/>
<text text-anchor="middle" x="1183" y="-18" font-family="Helvetica,sans-Serif" font-size="10.00">core/c_string_view.hpp</text>
</a>
</g>
</g>
<!-- Node4&#45;&gt;Node18 -->
<g id="edge18_Node000004_Node000018" class="edge">
<title>Node4&#45;&gt;Node18</title>
<g id="a_edge18_Node000004_Node000018"><a xlink:title=" ">
<path fill="none" stroke="#63b8ff" d="M896.71,-80.85C942.65,-73.47 1033.63,-58.16 1110,-41 1120.97,-38.53 1132.79,-35.53 1143.65,-32.63"/>
<polygon fill="#63b8ff" stroke="#63b8ff" points="1144.56,-36.01 1153.3,-30.01 1142.73,-29.25 1144.56,-36.01"/>
</a>
</g>
</g>
<!-- Node19 -->
<g id="Node000019" class="node">
<title>Node19</title>
<g id="a_Node000019"><a xlink:href="../../d4/dc0/constexpr__utils_8hpp.html" target="_top" xlink:title="Constexpr utility functions for compile&#45;time operations.">
<polygon fill="white" stroke="#666666" points="1401,-30 1265,-30 1265,-11 1401,-11 1401,-30"/>
<text text-anchor="middle" x="1333" y="-18" font-family="Helvetica,sans-Serif" font-size="10.00">core/constexpr_utils.hpp</text>
</a>
</g>
</g>
<!-- Node4&#45;&gt;Node19 -->
<g id="edge19_Node000004_Node000019" class="edge">
<title>Node4&#45;&gt;Node19</title>
<g id="a_edge19_Node000004_Node000019"><a xlink:title=" ">
<path fill="none" stroke="#63b8ff" d="M896.97,-83.45C962.5,-78.66 1123.27,-65.28 1256,-41 1268.29,-38.75 1281.53,-35.65 1293.51,-32.58"/>
<polygon fill="#63b8ff" stroke="#63b8ff" points="1294.44,-35.96 1303.22,-30.03 1292.66,-29.19 1294.44,-35.96"/>
</a>
</g>
</g>
<!-- Node20 -->
<g id="Node000020" class="node">
<title>Node20</title>
<g id="a_Node000020"><a xlink:href="../../d7/d7f/fixed__string_8hpp.html" target="_top" xlink:title="Template string class with fixed&#45;size character buffer.">
<polygon fill="white" stroke="#666666" points="1537,-30 1419,-30 1419,-11 1537,-11 1537,-30"/>
<text text-anchor="middle" x="1478" y="-18" font-family="Helvetica,sans-Serif" font-size="10.00">core/fixed_string.hpp</text>
</a>
</g>
</g>
<!-- Node4&#45;&gt;Node20 -->
<g id="edge20_Node000004_Node000020" class="edge">
<title>Node4&#45;&gt;Node20</title>
<g id="a_edge20_Node000004_Node000020"><a xlink:title=" ">
<path fill="none" stroke="#63b8ff" d="M896.7,-85.12C978.96,-83.62 1216.46,-76.32 1410,-41 1420.9,-39.01 1432.55,-36 1443.08,-32.94"/>
<polygon fill="#63b8ff" stroke="#63b8ff" points="1444.21,-36.26 1452.77,-30.02 1442.19,-29.56 1444.21,-36.26"/>
</a>
</g>
</g>
<!-- Node21 -->
<g id="Node000021" class="node">
<title>Node21</title>
<g id="a_Node000021"><a xlink:href="../../d7/dea/fixed__vector_8hpp.html" target="_top" xlink:title="TODO.">
<polygon fill="white" stroke="#666666" points="1675,-30 1555,-30 1555,-11 1675,-11 1675,-30"/>
<text text-anchor="middle" x="1615" y="-18" font-family="Helvetica,sans-Serif" font-size="10.00">core/fixed_vector.hpp</text>
</a>
</g>
</g>
<!-- Node4&#45;&gt;Node21 -->
<g id="edge21_Node000004_Node000021" class="edge">
<title>Node4&#45;&gt;Node21</title>
<g id="a_edge21_Node000004_Node000021"><a xlink:title=" ">
<path fill="none" stroke="#63b8ff" d="M896.71,-85.77C991.92,-86.15 1297.73,-83.73 1546,-41 1557.16,-39.08 1569.09,-36.06 1579.85,-32.97"/>
<polygon fill="#63b8ff" stroke="#63b8ff" points="1581.16,-36.23 1589.73,-30.02 1579.15,-29.53 1581.16,-36.23"/>
</a>
</g>
</g>
<!-- Node22 -->
<g id="Node000022" class="node">
<title>Node22</title>
<g id="a_Node000022"><a xlink:href="../../dd/d8e/hashes_8hpp.html" target="_top" xlink:title="CRC hash functions.">
<polygon fill="white" stroke="#666666" points="1789,-30 1693,-30 1693,-11 1789,-11 1789,-30"/>
<text text-anchor="middle" x="1741" y="-18" font-family="Helvetica,sans-Serif" font-size="10.00">core/hashes.hpp</text>
</a>
</g>
</g>
<!-- Node4&#45;&gt;Node22 -->
<g id="edge22_Node000004_Node000022" class="edge">
<title>Node4&#45;&gt;Node22</title>
<g id="a_edge22_Node000004_Node000022"><a xlink:title=" ">
<path fill="none" stroke="#63b8ff" d="M896.91,-84.97C1025.1,-82.53 1528.7,-71.19 1684,-41 1692.93,-39.26 1702.37,-36.46 1710.94,-33.51"/>
<polygon fill="#63b8ff" stroke="#63b8ff" points="1712.32,-36.73 1720.53,-30.03 1709.93,-30.15 1712.32,-36.73"/>
</a>
</g>
</g>
<!-- Node23 -->
<g id="Node000023" class="node">
<title>Node23</title>
<g id="a_Node000023"><a xlink:href="../../df/d93/utils_8hpp.html" target="_top" xlink:title="Core utility functions for string manipulation, encoding conversion, and number formatting.">
<polygon fill="white" stroke="#666666" points="1890.5,-30 1807.5,-30 1807.5,-11 1890.5,-11 1890.5,-30"/>
<text text-anchor="middle" x="1849" y="-18" font-family="Helvetica,sans-Serif" font-size="10.00">core/utils.hpp</text>
</a>
</g>
</g>
<!-- Node4&#45;&gt;Node23 -->
<g id="edge23_Node000004_Node000023" class="edge">
<title>Node4&#45;&gt;Node23</title>
<g id="a_edge23_Node000004_Node000023"><a xlink:title=" ">
<path fill="none" stroke="#63b8ff" d="M896.81,-85.34C1035.67,-84.41 1619.82,-78.32 1798,-41 1805.65,-39.4 1813.67,-36.8 1821.02,-34.02"/>
<polygon fill="#63b8ff" stroke="#63b8ff" points="1822.57,-37.17 1830.54,-30.19 1819.96,-30.68 1822.57,-37.17"/>
</a>
</g>
</g>
<!-- Node24 -->
<g id="Node000024" class="node">
<title>Node24</title>
<g id="a_Node000024"><a xlink:href="../../df/d4a/c__string__view_8inl.html" target="_top" xlink:title="Inline implementations for CStringView class.">
<polygon fill="white" stroke="#666666" points="2031,-30 1909,-30 1909,-11 2031,-11 2031,-30"/>
<text text-anchor="middle" x="1970" y="-18" font-family="Helvetica,sans-Serif" font-size="10.00">core/c_string_view.inl</text>
</a>
</g>
</g>
<!-- Node4&#45;&gt;Node24 -->
<g id="edge24_Node000004_Node000024" class="edge">
<title>Node4&#45;&gt;Node24</title>
<g id="a_edge24_Node000004_Node000024"><a xlink:title=" ">
<path fill="none" stroke="#63b8ff" d="M896.5,-85.14C1043.64,-83.2 1699,-72.89 1900,-41 1911.54,-39.17 1923.9,-36.11 1934.97,-32.95"/>
<polygon fill="#63b8ff" stroke="#63b8ff" points="1936.12,-36.26 1944.71,-30.05 1934.13,-29.55 1936.12,-36.26"/>
</a>
</g>
</g>
<!-- Node25 -->
<g id="Node000025" class="node">
<title>Node25</title>
<g id="a_Node000025"><a xlink:href="../../dc/d28/constexpr__utils_8inl.html" target="_top" xlink:title="Inline implementations for constexpr utility functions.">
<polygon fill="white" stroke="#666666" points="2179,-30 2049,-30 2049,-11 2179,-11 2179,-30"/>
<text text-anchor="middle" x="2114" y="-18" font-family="Helvetica,sans-Serif" font-size="10.00">core/constexpr_utils.inl</text>
</a>
</g>
</g>
<!-- Node4&#45;&gt;Node25 -->
<g id="edge25_Node000004_Node000025" class="edge">
<title>Node4&#45;&gt;Node25</title>
<g id="a_edge25_Node000004_Node000025"><a xlink:title=" ">
<path fill="none" stroke="#63b8ff" d="M896.73,-85.26C1056,-83.82 1809.71,-75.28 2040,-41 2052.3,-39.17 2065.49,-36.07 2077.29,-32.88"/>
<polygon fill="#63b8ff" stroke="#63b8ff" points="2078.56,-36.16 2087.23,-30.07 2076.66,-29.42 2078.56,-36.16"/>
</a>
</g>
</g>
<!-- Node26 -->
<g id="Node000026" class="node">
<title>Node26</title>
<g id="a_Node000026"><a xlink:href="../../d7/d40/fixed__string_8inl.html" target="_top" xlink:title="Inline implementations for FixedString template class.">
<polygon fill="white" stroke="#666666" points="2309,-30 2197,-30 2197,-11 2309,-11 2309,-30"/>
<text text-anchor="middle" x="2253" y="-18" font-family="Helvetica,sans-Serif" font-size="10.00">core/fixed_string.inl</text>
</a>
</g>
</g>
<!-- Node4&#45;&gt;Node26 -->
<g id="edge26_Node000004_Node000026" class="edge">
<title>Node4&#45;&gt;Node26</title>
<g id="a_edge26_Node000004_Node000026"><a xlink:title=" ">
<path fill="none" stroke="#63b8ff" d="M896.77,-85.54C1067.87,-85.6 1927.45,-83.73 2188,-41 2198.64,-39.26 2209.98,-36.27 2220.15,-33.15"/>
<polygon fill="#63b8ff" stroke="#63b8ff" points="2221.42,-36.41 2229.88,-30.02 2219.28,-29.75 2221.42,-36.41"/>
</a>
</g>
</g>
<!-- Node27 -->
<g id="Node000027" class="node">
<title>Node27</title>
<g id="a_Node000027"><a xlink:href="../../da/dc9/fixed__vector_8inl.html" target="_top" xlink:title="TODO.">
<polygon fill="white" stroke="#666666" points="2441,-30 2327,-30 2327,-11 2441,-11 2441,-30"/>
<text text-anchor="middle" x="2384" y="-18" font-family="Helvetica,sans-Serif" font-size="10.00">core/fixed_vector.inl</text>
</a>
</g>
</g>
<!-- Node4&#45;&gt;Node27 -->
<g id="edge27_Node000004_Node000027" class="edge">
<title>Node4&#45;&gt;Node27</title>
<g id="a_edge27_Node000004_Node000027"><a xlink:title=" ">
<path fill="none" stroke="#63b8ff" d="M896.7,-85.63C1077.34,-86.23 2030.11,-87.16 2318,-41 2328.91,-39.25 2340.54,-36.22 2350.96,-33.07"/>
<polygon fill="#63b8ff" stroke="#63b8ff" points="2352.04,-36.4 2360.51,-30.04 2349.92,-29.72 2352.04,-36.4"/>
</a>
</g>
</g>
<!-- Node28 -->
<g id="Node000028" class="node">
<title>Node28</title>
<g id="a_Node000028"><a xlink:href="../../df/d7d/utils_8inl.html" target="_top" xlink:title="Inline implementations of core utility functions for string manipulation and encoding conversion.">
<polygon fill="white" stroke="#666666" points="2536.5,-30 2459.5,-30 2459.5,-11 2536.5,-11 2536.5,-30"/>
<text text-anchor="middle" x="2498" y="-18" font-family="Helvetica,sans-Serif" font-size="10.00">core/utils.inl</text>
</a>
</g>
</g>
<!-- Node4&#45;&gt;Node28 -->
<g id="edge28_Node000004_Node000028" class="edge">
<title>Node4&#45;&gt;Node28</title>
<g id="a_edge28_Node000004_Node000028"><a xlink:title=" ">
<path fill="none" stroke="#63b8ff" d="M896.58,-85.3C1100.33,-83.86 2292.6,-74.05 2450,-41 2457.22,-39.48 2464.73,-36.94 2471.62,-34.18"/>
<polygon fill="#63b8ff" stroke="#63b8ff" points="2473.34,-37.25 2481.14,-30.08 2470.57,-30.82 2473.34,-37.25"/>
</a>
</g>
</g>
</g>
</svg>
