<?xml version="1.0" encoding="UTF-8" standalone="no"?>
<!DOCTYPE svg PUBLIC "-//W3C//DTD SVG 1.1//EN"
 "http://www.w3.org/Graphics/SVG/1.1/DTD/svg11.dtd">
<!-- Generated by graphviz version 2.43.0 (0)
 -->
<!-- Title: src/platforms/stub/core/assertion_stub.cpp Pages: 1 -->
<svg width="1528pt" height="170pt"
 viewBox="0.00 0.00 1527.50 170.00" xmlns="http://www.w3.org/2000/svg" xmlns:xlink="http://www.w3.org/1999/xlink">
<g id="graph0" class="graph" transform="scale(1 1) rotate(0) translate(4 166)">
<title>src/platforms/stub/core/assertion_stub.cpp</title>
<!-- Node1 -->
<g id="Node000001" class="node">
<title>Node1</title>
<g id="a_Node000001"><a xlink:title=" ">
<polygon fill="#999999" stroke="#666666" points="306.5,-162 171.5,-162 171.5,-132 306.5,-132 306.5,-162"/>
<text text-anchor="start" x="179.5" y="-150" font-family="Helvetica,sans-Serif" font-size="10.00">src/platforms/stub</text>
<text text-anchor="middle" x="239" y="-139" font-family="Helvetica,sans-Serif" font-size="10.00">/core/assertion_stub.cpp</text>
</a>
</g>
</g>
<!-- Node2 -->
<g id="Node000002" class="node">
<title>Node2</title>
<g id="a_Node000002"><a xlink:title=" ">
<polygon fill="#e0e0e0" stroke="#999999" points="211,-96 165,-96 165,-77 211,-77 211,-96"/>
<text text-anchor="middle" x="188" y="-84" font-family="Helvetica,sans-Serif" font-size="10.00">cstdio</text>
</a>
</g>
</g>
<!-- Node1&#45;&gt;Node2 -->
<g id="edge1_Node000001_Node000002" class="edge">
<title>Node1&#45;&gt;Node2</title>
<g id="a_edge1_Node000001_Node000002"><a xlink:title=" ">
<path fill="none" stroke="#63b8ff" d="M226.65,-131.84C219.33,-123.43 210,-112.74 202.35,-103.96"/>
<polygon fill="#63b8ff" stroke="#63b8ff" points="204.85,-101.5 195.64,-96.27 199.58,-106.1 204.85,-101.5"/>
</a>
</g>
</g>
<!-- Node3 -->
<g id="Node000003" class="node">
<title>Node3</title>
<g id="a_Node000003"><a xlink:title=" ">
<polygon fill="#e0e0e0" stroke="#999999" points="44,-30 0,-30 0,-11 44,-11 44,-30"/>
<text text-anchor="middle" x="22" y="-18" font-family="Helvetica,sans-Serif" font-size="10.00">string</text>
</a>
</g>
</g>
<!-- Node1&#45;&gt;Node3 -->
<g id="edge2_Node000001_Node000003" class="edge">
<title>Node1&#45;&gt;Node3</title>
<g id="a_edge2_Node000001_Node000003"><a xlink:title=" ">
<path fill="none" stroke="#63b8ff" d="M239.18,-131.95C238.57,-116.27 235.08,-91.25 220,-77 164.82,-24.85 123.31,-69.65 53,-41 49.37,-39.52 45.69,-37.62 42.2,-35.6"/>
<polygon fill="#63b8ff" stroke="#63b8ff" points="43.87,-32.51 33.55,-30.12 40.12,-38.43 43.87,-32.51"/>
</a>
</g>
</g>
<!-- Node4 -->
<g id="Node000004" class="node">
<title>Node4</title>
<g id="a_Node000004"><a xlink:href="../../da/d47/core_8hpp.html" target="_top" xlink:title=" ">
<polygon fill="white" stroke="#666666" points="544.5,-96 485.5,-96 485.5,-77 544.5,-77 544.5,-96"/>
<text text-anchor="middle" x="515" y="-84" font-family="Helvetica,sans-Serif" font-size="10.00">core.hpp</text>
</a>
</g>
</g>
<!-- Node1&#45;&gt;Node4 -->
<g id="edge3_Node000001_Node000004" class="edge">
<title>Node1&#45;&gt;Node4</title>
<g id="a_edge3_Node000001_Node000004"><a xlink:title=" ">
<path fill="none" stroke="#63b8ff" d="M305.11,-131.99C358.22,-120.73 431.05,-105.29 475.47,-95.88"/>
<polygon fill="#63b8ff" stroke="#63b8ff" points="476.25,-99.29 485.31,-93.79 474.8,-92.44 476.25,-99.29"/>
</a>
</g>
</g>
<!-- Node4&#45;&gt;Node3 -->
<g id="edge11_Node000004_Node000003" class="edge">
<title>Node4&#45;&gt;Node3</title>
<g id="a_edge11_Node000004_Node000003"><a xlink:title=" ">
<path fill="none" stroke="#63b8ff" d="M485.28,-84.43C396.38,-80.94 133.65,-68.51 53,-41 49.05,-39.65 45.09,-37.71 41.38,-35.58"/>
<polygon fill="#63b8ff" stroke="#63b8ff" points="43.14,-32.55 32.84,-30.08 39.35,-38.43 43.14,-32.55"/>
</a>
</g>
</g>
<!-- Node5 -->
<g id="Node000005" class="node">
<title>Node5</title>
<g id="a_Node000005"><a xlink:title=" ">
<polygon fill="#e0e0e0" stroke="#999999" points="126,-30 62,-30 62,-11 126,-11 126,-30"/>
<text text-anchor="middle" x="94" y="-18" font-family="Helvetica,sans-Serif" font-size="10.00">algorithm</text>
</a>
</g>
</g>
<!-- Node4&#45;&gt;Node5 -->
<g id="edge4_Node000004_Node000005" class="edge">
<title>Node4&#45;&gt;Node5</title>
<g id="a_edge4_Node000004_Node000005"><a xlink:title=" ">
<path fill="none" stroke="#63b8ff" d="M485.28,-85.29C420.39,-84.14 261.71,-77.47 135,-41 129.41,-39.39 123.64,-37.09 118.26,-34.63"/>
<polygon fill="#63b8ff" stroke="#63b8ff" points="119.63,-31.4 109.11,-30.15 116.55,-37.69 119.63,-31.4"/>
</a>
</g>
</g>
<!-- Node6 -->
<g id="Node000006" class="node">
<title>Node6</title>
<g id="a_Node000006"><a xlink:title=" ">
<polygon fill="#e0e0e0" stroke="#999999" points="186,-30 144,-30 144,-11 186,-11 186,-30"/>
<text text-anchor="middle" x="165" y="-18" font-family="Helvetica,sans-Serif" font-size="10.00">array</text>
</a>
</g>
</g>
<!-- Node4&#45;&gt;Node6 -->
<g id="edge5_Node000004_Node000006" class="edge">
<title>Node4&#45;&gt;Node6</title>
<g id="a_edge5_Node000004_Node000006"><a xlink:title=" ">
<path fill="none" stroke="#63b8ff" d="M485.27,-85.63C427.47,-84.96 296.68,-78.96 195,-41 191.35,-39.64 187.69,-37.77 184.24,-35.74"/>
<polygon fill="#63b8ff" stroke="#63b8ff" points="186.04,-32.73 175.77,-30.16 182.2,-38.58 186.04,-32.73"/>
</a>
</g>
</g>
<!-- Node7 -->
<g id="Node000007" class="node">
<title>Node7</title>
<g id="a_Node000007"><a xlink:title=" ">
<polygon fill="#e0e0e0" stroke="#999999" points="264,-30 204,-30 204,-11 264,-11 264,-30"/>
<text text-anchor="middle" x="234" y="-18" font-family="Helvetica,sans-Serif" font-size="10.00">concepts</text>
</a>
</g>
</g>
<!-- Node4&#45;&gt;Node7 -->
<g id="edge6_Node000004_Node000007" class="edge">
<title>Node4&#45;&gt;Node7</title>
<g id="a_edge6_Node000004_Node000007"><a xlink:title=" ">
<path fill="none" stroke="#63b8ff" d="M485.27,-82.76C438.94,-77.88 347.14,-65.8 273,-41 267.93,-39.3 262.68,-37.06 257.74,-34.69"/>
<polygon fill="#63b8ff" stroke="#63b8ff" points="259.26,-31.54 248.76,-30.12 256.08,-37.78 259.26,-31.54"/>
</a>
</g>
</g>
<!-- Node8 -->
<g id="Node000008" class="node">
<title>Node8</title>
<g id="a_Node000008"><a xlink:title=" ">
<polygon fill="#e0e0e0" stroke="#999999" points="335.5,-30 282.5,-30 282.5,-11 335.5,-11 335.5,-30"/>
<text text-anchor="middle" x="309" y="-18" font-family="Helvetica,sans-Serif" font-size="10.00">cstddef</text>
</a>
</g>
</g>
<!-- Node4&#45;&gt;Node8 -->
<g id="edge7_Node000004_Node000008" class="edge">
<title>Node4&#45;&gt;Node8</title>
<g id="a_edge7_Node000004_Node000008"><a xlink:title=" ">
<path fill="none" stroke="#63b8ff" d="M485.45,-80.02C450.99,-73.11 392.67,-59.83 345,-41 340.64,-39.28 336.14,-37.15 331.86,-34.94"/>
<polygon fill="#63b8ff" stroke="#63b8ff" points="333.44,-31.81 322.99,-30.1 330.09,-37.96 333.44,-31.81"/>
</a>
</g>
</g>
<!-- Node9 -->
<g id="Node000009" class="node">
<title>Node9</title>
<g id="a_Node000009"><a xlink:title=" ">
<polygon fill="#e0e0e0" stroke="#999999" points="404,-30 354,-30 354,-11 404,-11 404,-30"/>
<text text-anchor="middle" x="379" y="-18" font-family="Helvetica,sans-Serif" font-size="10.00">cstdint</text>
</a>
</g>
</g>
<!-- Node4&#45;&gt;Node9 -->
<g id="edge8_Node000004_Node000009" class="edge">
<title>Node4&#45;&gt;Node9</title>
<g id="a_edge8_Node000004_Node000009"><a xlink:title=" ">
<path fill="none" stroke="#63b8ff" d="M493.59,-76.96C472.73,-68.45 440.27,-54.72 413,-41 409.34,-39.16 405.53,-37.11 401.83,-35.05"/>
<polygon fill="#63b8ff" stroke="#63b8ff" points="403.45,-31.94 393.04,-30.01 399.98,-38.02 403.45,-31.94"/>
</a>
</g>
</g>
<!-- Node10 -->
<g id="Node000010" class="node">
<title>Node10</title>
<g id="a_Node000010"><a xlink:title=" ">
<polygon fill="#e0e0e0" stroke="#999999" points="472,-30 422,-30 422,-11 472,-11 472,-30"/>
<text text-anchor="middle" x="447" y="-18" font-family="Helvetica,sans-Serif" font-size="10.00">cstring</text>
</a>
</g>
</g>
<!-- Node4&#45;&gt;Node10 -->
<g id="edge9_Node000004_Node000010" class="edge">
<title>Node4&#45;&gt;Node10</title>
<g id="a_edge9_Node000004_Node000010"><a xlink:title=" ">
<path fill="none" stroke="#63b8ff" d="M505.83,-76.87C495.14,-66.81 477.26,-49.98 464.01,-37.51"/>
<polygon fill="#63b8ff" stroke="#63b8ff" points="466.14,-34.71 456.46,-30.41 461.35,-39.81 466.14,-34.71"/>
</a>
</g>
</g>
<!-- Node11 -->
<g id="Node000011" class="node">
<title>Node11</title>
<g id="a_Node000011"><a xlink:title=" ">
<polygon fill="#e0e0e0" stroke="#999999" points="539.5,-30 490.5,-30 490.5,-11 539.5,-11 539.5,-30"/>
<text text-anchor="middle" x="515" y="-18" font-family="Helvetica,sans-Serif" font-size="10.00">cuchar</text>
</a>
</g>
</g>
<!-- Node4&#45;&gt;Node11 -->
<g id="edge10_Node000004_Node000011" class="edge">
<title>Node4&#45;&gt;Node11</title>
<g id="a_edge10_Node000004_Node000011"><a xlink:title=" ">
<path fill="none" stroke="#63b8ff" d="M515,-76.87C515,-67.66 515,-52.79 515,-40.77"/>
<polygon fill="#63b8ff" stroke="#63b8ff" points="518.5,-40.41 515,-30.41 511.5,-40.41 518.5,-40.41"/>
</a>
</g>
</g>
<!-- Node12 -->
<g id="Node000012" class="node">
<title>Node12</title>
<g id="a_Node000012"><a xlink:title=" ">
<polygon fill="#e0e0e0" stroke="#999999" points="602.5,-30 557.5,-30 557.5,-11 602.5,-11 602.5,-30"/>
<text text-anchor="middle" x="580" y="-18" font-family="Helvetica,sans-Serif" font-size="10.00">utility</text>
</a>
</g>
</g>
<!-- Node4&#45;&gt;Node12 -->
<g id="edge12_Node000004_Node000012" class="edge">
<title>Node4&#45;&gt;Node12</title>
<g id="a_edge12_Node000004_Node000012"><a xlink:title=" ">
<path fill="none" stroke="#63b8ff" d="M523.77,-76.87C533.98,-66.81 551.08,-49.98 563.74,-37.51"/>
<polygon fill="#63b8ff" stroke="#63b8ff" points="566.29,-39.92 570.96,-30.41 561.37,-34.93 566.29,-39.92"/>
</a>
</g>
</g>
<!-- Node13 -->
<g id="Node000013" class="node">
<title>Node13</title>
<g id="a_Node000013"><a xlink:href="../../dd/d9e/linux_2platform__config_8hpp.html" target="_top" xlink:title="additional linux platform header">
<polygon fill="white" stroke="#666666" points="775.5,-41 620.5,-41 620.5,0 775.5,0 775.5,-41"/>
<text text-anchor="start" x="628.5" y="-29" font-family="Helvetica,sans-Serif" font-size="10.00">/home/runner/work/toygine2</text>
<text text-anchor="start" x="628.5" y="-18" font-family="Helvetica,sans-Serif" font-size="10.00">/toygine2/src/platforms</text>
<text text-anchor="middle" x="698" y="-7" font-family="Helvetica,sans-Serif" font-size="10.00">/linux/platform_config.hpp</text>
</a>
</g>
</g>
<!-- Node4&#45;&gt;Node13 -->
<g id="edge13_Node000004_Node000013" class="edge">
<title>Node4&#45;&gt;Node13</title>
<g id="a_edge13_Node000004_Node000013"><a xlink:title=" ">
<path fill="none" stroke="#63b8ff" d="M539.68,-76.87C563.38,-68.58 600.22,-55.7 632.4,-44.44"/>
<polygon fill="#63b8ff" stroke="#63b8ff" points="633.93,-47.61 642.22,-41.01 631.62,-41.01 633.93,-47.61"/>
</a>
</g>
</g>
<!-- Node14 -->
<g id="Node000014" class="node">
<title>Node14</title>
<g id="a_Node000014"><a xlink:href="../../d4/dc0/constexpr__utils_8hpp.html" target="_top" xlink:title="Constexpr utility functions for compile&#45;time operations.">
<polygon fill="white" stroke="#666666" points="930,-30 794,-30 794,-11 930,-11 930,-30"/>
<text text-anchor="middle" x="862" y="-18" font-family="Helvetica,sans-Serif" font-size="10.00">core/constexpr_utils.hpp</text>
</a>
</g>
</g>
<!-- Node4&#45;&gt;Node14 -->
<g id="edge14_Node000004_Node000014" class="edge">
<title>Node4&#45;&gt;Node14</title>
<g id="a_edge14_Node000004_Node000014"><a xlink:title=" ">
<path fill="none" stroke="#63b8ff" d="M544.72,-81.44C594.61,-74.44 698.27,-59.1 785,-41 796.69,-38.56 809.29,-35.54 820.84,-32.61"/>
<polygon fill="#63b8ff" stroke="#63b8ff" points="821.86,-35.96 830.67,-30.07 820.11,-29.18 821.86,-35.96"/>
</a>
</g>
</g>
<!-- Node15 -->
<g id="Node000015" class="node">
<title>Node15</title>
<g id="a_Node000015"><a xlink:href="../../d0/d46/fix__string_8hpp.html" target="_top" xlink:title="Template string class with fixed&#45;size character buffer.">
<polygon fill="white" stroke="#666666" points="1055.5,-30 948.5,-30 948.5,-11 1055.5,-11 1055.5,-30"/>
<text text-anchor="middle" x="1002" y="-18" font-family="Helvetica,sans-Serif" font-size="10.00">core/fix_string.hpp</text>
</a>
</g>
</g>
<!-- Node4&#45;&gt;Node15 -->
<g id="edge15_Node000004_Node000015" class="edge">
<title>Node4&#45;&gt;Node15</title>
<g id="a_edge15_Node000004_Node000015"><a xlink:title=" ">
<path fill="none" stroke="#63b8ff" d="M544.6,-84.38C614.11,-81.33 792.9,-70.98 939,-41 948.82,-38.98 959.3,-36.07 968.83,-33.1"/>
<polygon fill="#63b8ff" stroke="#63b8ff" points="969.91,-36.43 978.35,-30.02 967.76,-29.76 969.91,-36.43"/>
</a>
</g>
</g>
<!-- Node16 -->
<g id="Node000016" class="node">
<title>Node16</title>
<g id="a_Node000016"><a xlink:href="../../df/d93/utils_8hpp.html" target="_top" xlink:title="Core utility functions for string manipulation, encoding conversion, and number formatting.">
<polygon fill="white" stroke="#666666" points="1156.5,-30 1073.5,-30 1073.5,-11 1156.5,-11 1156.5,-30"/>
<text text-anchor="middle" x="1115" y="-18" font-family="Helvetica,sans-Serif" font-size="10.00">core/utils.hpp</text>
</a>
</g>
</g>
<!-- Node4&#45;&gt;Node16 -->
<g id="edge16_Node000004_Node000016" class="edge">
<title>Node4&#45;&gt;Node16</title>
<g id="a_edge16_Node000004_Node000016"><a xlink:title=" ">
<path fill="none" stroke="#63b8ff" d="M544.68,-86.1C627.93,-87.15 870.35,-85.82 1065,-41 1072.49,-39.28 1080.35,-36.64 1087.55,-33.85"/>
<polygon fill="#63b8ff" stroke="#63b8ff" points="1088.95,-37.06 1096.88,-30.04 1086.3,-30.58 1088.95,-37.06"/>
</a>
</g>
</g>
<!-- Node17 -->
<g id="Node000017" class="node">
<title>Node17</title>
<g id="a_Node000017"><a xlink:title=" ">
<polygon fill="#e0e0e0" stroke="#999999" points="1305,-30 1175,-30 1175,-11 1305,-11 1305,-30"/>
<text text-anchor="middle" x="1240" y="-18" font-family="Helvetica,sans-Serif" font-size="10.00">core/constexpr_utils.inl</text>
</a>
</g>
</g>
<!-- Node4&#45;&gt;Node17 -->
<g id="edge17_Node000004_Node000017" class="edge">
<title>Node4&#45;&gt;Node17</title>
<g id="a_edge17_Node000004_Node000017"><a xlink:title=" ">
<path fill="none" stroke="#63b8ff" d="M544.75,-85.46C637.4,-84.92 928.74,-80.01 1166,-41 1178.07,-39.02 1191.02,-35.94 1202.67,-32.81"/>
<polygon fill="#63b8ff" stroke="#63b8ff" points="1203.81,-36.12 1212.51,-30.07 1201.94,-29.38 1203.81,-36.12"/>
</a>
</g>
</g>
<!-- Node18 -->
<g id="Node000018" class="node">
<title>Node18</title>
<g id="a_Node000018"><a xlink:title=" ">
<polygon fill="#e0e0e0" stroke="#999999" points="1424.5,-30 1323.5,-30 1323.5,-11 1424.5,-11 1424.5,-30"/>
<text text-anchor="middle" x="1374" y="-18" font-family="Helvetica,sans-Serif" font-size="10.00">core/fix_string.inl</text>
</a>
</g>
</g>
<!-- Node4&#45;&gt;Node18 -->
<g id="edge18_Node000004_Node000018" class="edge">
<title>Node4&#45;&gt;Node18</title>
<g id="a_edge18_Node000004_Node000018"><a xlink:title=" ">
<path fill="none" stroke="#63b8ff" d="M544.66,-84.87C670.67,-82.05 1162.08,-69.42 1314,-41 1323.57,-39.21 1333.72,-36.31 1342.9,-33.29"/>
<polygon fill="#63b8ff" stroke="#63b8ff" points="1344.1,-36.58 1352.41,-30.02 1341.81,-29.97 1344.1,-36.58"/>
</a>
</g>
</g>
<!-- Node19 -->
<g id="Node000019" class="node">
<title>Node19</title>
<g id="a_Node000019"><a xlink:title=" ">
<polygon fill="#e0e0e0" stroke="#999999" points="1519.5,-30 1442.5,-30 1442.5,-11 1519.5,-11 1519.5,-30"/>
<text text-anchor="middle" x="1481" y="-18" font-family="Helvetica,sans-Serif" font-size="10.00">core/utils.inl</text>
</a>
</g>
</g>
<!-- Node4&#45;&gt;Node19 -->
<g id="edge19_Node000004_Node000019" class="edge">
<title>Node4&#45;&gt;Node19</title>
<g id="a_edge19_Node000004_Node000019"><a xlink:title=" ">
<path fill="none" stroke="#63b8ff" d="M544.91,-85.43C682.91,-84.9 1258.86,-80.32 1434,-41 1440.95,-39.44 1448.18,-36.93 1454.83,-34.22"/>
<polygon fill="#63b8ff" stroke="#63b8ff" points="1456.29,-37.4 1464.06,-30.2 1453.49,-30.99 1456.29,-37.4"/>
</a>
</g>
</g>
</g>
</svg>
