<?xml version="1.0" encoding="UTF-8" standalone="no"?>
<!DOCTYPE svg PUBLIC "-//W3C//DTD SVG 1.1//EN"
 "http://www.w3.org/Graphics/SVG/1.1/DTD/svg11.dtd">
<!-- Generated by graphviz version 2.43.0 (0)
 -->
<!-- Title: src/platforms/stub/core/assertion_stub.cpp Pages: 1 -->
<!--zoomable 236 -->

<svg id="main" version="1.1" xmlns="http://www.w3.org/2000/svg" xmlns:xlink="http://www.w3.org/1999/xlink" xml:space="preserve" onload="init(evt)">

<style type="text/css"><![CDATA[
.node, .edge {opacity: 0.7;}
.node.selected, .edge.selected {opacity: 1;}
.edge:hover path { stroke: red; }
.edge:hover polygon { stroke: red; fill: red; }
]]></style>

<defs>
  <circle id="rim" cx="0" cy="0" r="7"/>
  <circle id="rim2" cx="0" cy="0" r="3.5"/>
  <g id="zoomPlus">
    <use xlink:href="#rim" fill="#404040"><set attributeName="fill" to="#808080" begin="zoomplus.mouseover" end="zoomplus.mouseout"/></use>
    <path d="M-4,0h8M0,-4v8" fill="none" stroke="white" stroke-width="1.5" pointer-events="none"/>
  </g>
  <g id="zoomMin">
    <use xlink:href="#rim" fill="#404040"><set attributeName="fill" to="#808080" begin="zoomminus.mouseover" end="zoomminus.mouseout"/></use>
    <path d="M-4,0h8" fill="none" stroke="white" stroke-width="1.5" pointer-events="none"/>
  </g>
  <g id="arrowUp" transform="translate(30 24)">
    <use xlink:href="#rim"/>
    <path pointer-events="none" fill="none" stroke="white" stroke-width="1.5" d="M0,-3.0v7 M-2.5,-0.5L0,-3.0L2.5,-0.5"/>
  </g>
  <g id="arrowRight" transform="rotate(90) translate(36 -43)">
    <use xlink:href="#rim"/>
    <path pointer-events="none" fill="none" stroke="white" stroke-width="1.5" d="M0,-3.0v7 M-2.5,-0.5L0,-3.0L2.5,-0.5"/>
  </g>
  <g id="arrowDown" transform="rotate(180) translate(-30 -48)">
    <use xlink:href="#rim"/>
    <path pointer-events="none" fill="none" stroke="white" stroke-width="1.5" d="M0,-3.0v7 M-2.5,-0.5L0,-3.0L2.5,-0.5"/>
  </g>
  <g id="arrowLeft" transform="rotate(270) translate(-36 17)">
    <use xlink:href="#rim"/>
    <path pointer-events="none" fill="none" stroke="white" stroke-width="1.5" d="M0,-3.0v7 M-2.5,-0.5L0,-3.0L2.5,-0.5"/>
  </g>
  <g id="resetDef">
    <use xlink:href="#rim2" fill="#404040"><set attributeName="fill" to="#808080" begin="reset.mouseover" end="reset.mouseout"/></use>
  </g>
</defs>
<script type="application/ecmascript">
var viewWidth = 3797;
var viewHeight = 236;
var sectionId = 'dynsection-0';
</script>
<script type="application/ecmascript" xlink:href="../../svg.min.js"/>
<svg id="graph" class="graph">
<g id="viewport">
<title>src/platforms/stub/core/assertion_stub.cpp</title>
<!-- Node1 -->
<g id="Node000001" class="node">
<title>Node1</title>
<g id="a_Node000001"><a xlink:title="Stub implementation of assertion system for platforms without native assertion support.">
<polygon fill="#999999" stroke="#666666" points="1462.5,-228 1327.5,-228 1327.5,-198 1462.5,-198 1462.5,-228"/>
<text text-anchor="start" x="1335.5" y="-216" font-family="Helvetica,sans-Serif" font-size="10.00">src/platforms/stub</text>
<text text-anchor="middle" x="1395" y="-205" font-family="Helvetica,sans-Serif" font-size="10.00">/core/assertion_stub.cpp</text>
</a>
</g>
</g>
<!-- Node2 -->
<g id="Node000002" class="node">
<title>Node2</title>
<g id="a_Node000002"><a xlink:title=" ">
<polygon fill="#e0e0e0" stroke="#999999" points="1383,-162 1337,-162 1337,-143 1383,-143 1383,-162"/>
<text text-anchor="middle" x="1360" y="-150" font-family="Helvetica,sans-Serif" font-size="10.00">cstdio</text>
</a>
</g>
</g>
<!-- Node1&#45;&gt;Node2 -->
<g id="edge1_Node000001_Node000002" class="edge">
<title>Node1&#45;&gt;Node2</title>
<g id="a_edge1_Node000001_Node000002"><a xlink:title=" ">
<path fill="none" stroke="#63b8ff" d="M1386.53,-197.84C1381.71,-189.78 1375.63,-179.62 1370.5,-171.06"/>
<polygon fill="#63b8ff" stroke="#63b8ff" points="1373.38,-169.05 1365.24,-162.27 1367.38,-172.64 1373.38,-169.05"/>
</a>
</g>
</g>
<!-- Node3 -->
<g id="Node000003" class="node">
<title>Node3</title>
<g id="a_Node000003"><a xlink:href="../../da/d47/core_8hpp.html" target="_top" xlink:title="Umbrella header for the engine core module.">
<polygon fill="white" stroke="#666666" points="1460.5,-162 1401.5,-162 1401.5,-143 1460.5,-143 1460.5,-162"/>
<text text-anchor="middle" x="1431" y="-150" font-family="Helvetica,sans-Serif" font-size="10.00">core.hpp</text>
</a>
</g>
</g>
<!-- Node1&#45;&gt;Node3 -->
<g id="edge2_Node000001_Node000003" class="edge">
<title>Node1&#45;&gt;Node3</title>
<g id="a_edge2_Node000001_Node000003"><a xlink:title=" ">
<path fill="none" stroke="#63b8ff" d="M1403.71,-197.84C1408.67,-189.78 1414.93,-179.62 1420.2,-171.06"/>
<polygon fill="#63b8ff" stroke="#63b8ff" points="1423.35,-172.62 1425.61,-162.27 1417.38,-168.95 1423.35,-172.62"/>
</a>
</g>
</g>
<!-- Node4 -->
<g id="Node000004" class="node">
<title>Node4</title>
<g id="a_Node000004"><a xlink:title=" ">
<polygon fill="#e0e0e0" stroke="#999999" points="64,-96 0,-96 0,-77 64,-77 64,-96"/>
<text text-anchor="middle" x="32" y="-84" font-family="Helvetica,sans-Serif" font-size="10.00">algorithm</text>
</a>
</g>
</g>
<!-- Node3&#45;&gt;Node4 -->
<g id="edge3_Node000003_Node000004" class="edge">
<title>Node3&#45;&gt;Node4</title>
<g id="a_edge3_Node000003_Node000004"><a xlink:title=" ">
<path fill="none" stroke="#63b8ff" d="M1401.29,-144.42C1398.17,-143.86 1395.03,-143.37 1392,-143 1100.92,-107.62 358.12,-175.45 73,-107 67.01,-105.56 60.86,-103.18 55.2,-100.58"/>
<polygon fill="#63b8ff" stroke="#63b8ff" points="56.76,-97.45 46.25,-96.09 53.62,-103.7 56.76,-97.45"/>
</a>
</g>
</g>
<!-- Node5 -->
<g id="Node000005" class="node">
<title>Node5</title>
<g id="a_Node000005"><a xlink:title=" ">
<polygon fill="#e0e0e0" stroke="#999999" points="124,-96 82,-96 82,-77 124,-77 124,-96"/>
<text text-anchor="middle" x="103" y="-84" font-family="Helvetica,sans-Serif" font-size="10.00">array</text>
</a>
</g>
</g>
<!-- Node3&#45;&gt;Node5 -->
<g id="edge4_Node000003_Node000005" class="edge">
<title>Node3&#45;&gt;Node5</title>
<g id="a_edge4_Node000003_Node000005"><a xlink:title=" ">
<path fill="none" stroke="#63b8ff" d="M1401.29,-144.43C1398.16,-143.86 1395.03,-143.37 1392,-143 1253.09,-126.03 266.59,-148.69 133,-107 129.04,-105.77 125.11,-103.85 121.46,-101.69"/>
<polygon fill="#63b8ff" stroke="#63b8ff" points="123.36,-98.75 113.11,-96.08 119.46,-104.56 123.36,-98.75"/>
</a>
</g>
</g>
<!-- Node6 -->
<g id="Node000006" class="node">
<title>Node6</title>
<g id="a_Node000006"><a xlink:title=" ">
<polygon fill="#e0e0e0" stroke="#999999" points="171.5,-96 142.5,-96 142.5,-77 171.5,-77 171.5,-96"/>
<text text-anchor="middle" x="157" y="-84" font-family="Helvetica,sans-Serif" font-size="10.00">bit</text>
</a>
</g>
</g>
<!-- Node3&#45;&gt;Node6 -->
<g id="edge5_Node000003_Node000006" class="edge">
<title>Node3&#45;&gt;Node6</title>
<g id="a_edge5_Node000003_Node000006"><a xlink:title=" ">
<path fill="none" stroke="#63b8ff" d="M1401.29,-144.43C1398.16,-143.87 1395.03,-143.37 1392,-143 1258.28,-126.58 305.78,-155.27 180,-107 177.43,-106.02 174.95,-104.61 172.63,-103.01"/>
<polygon fill="#63b8ff" stroke="#63b8ff" points="174.51,-100.02 164.61,-96.26 170.01,-105.38 174.51,-100.02"/>
</a>
</g>
</g>
<!-- Node7 -->
<g id="Node000007" class="node">
<title>Node7</title>
<g id="a_Node000007"><a xlink:title=" ">
<polygon fill="#e0e0e0" stroke="#999999" points="248.5,-96 189.5,-96 189.5,-77 248.5,-77 248.5,-96"/>
<text text-anchor="middle" x="219" y="-84" font-family="Helvetica,sans-Serif" font-size="10.00">compare</text>
</a>
</g>
</g>
<!-- Node3&#45;&gt;Node7 -->
<g id="edge6_Node000003_Node000007" class="edge">
<title>Node3&#45;&gt;Node7</title>
<g id="a_edge6_Node000003_Node000007"><a xlink:title=" ">
<path fill="none" stroke="#63b8ff" d="M1401.29,-144.44C1398.16,-143.87 1395.03,-143.37 1392,-143 1141.78,-112.03 502.43,-168.81 258,-107 252.4,-105.58 246.68,-103.28 241.4,-100.75"/>
<polygon fill="#63b8ff" stroke="#63b8ff" points="242.99,-97.63 232.51,-96.07 239.73,-103.82 242.99,-97.63"/>
</a>
</g>
</g>
<!-- Node8 -->
<g id="Node000008" class="node">
<title>Node8</title>
<g id="a_Node000008"><a xlink:title=" ">
<polygon fill="#e0e0e0" stroke="#999999" points="327,-96 267,-96 267,-77 327,-77 327,-96"/>
<text text-anchor="middle" x="297" y="-84" font-family="Helvetica,sans-Serif" font-size="10.00">concepts</text>
</a>
</g>
</g>
<!-- Node3&#45;&gt;Node8 -->
<g id="edge7_Node000003_Node000008" class="edge">
<title>Node3&#45;&gt;Node8</title>
<g id="a_edge7_Node000003_Node000008"><a xlink:title=" ">
<path fill="none" stroke="#63b8ff" d="M1401.28,-144.44C1398.16,-143.88 1395.03,-143.38 1392,-143 1159.01,-113.88 563.57,-164.83 336,-107 330.41,-105.58 324.68,-103.27 319.41,-100.74"/>
<polygon fill="#63b8ff" stroke="#63b8ff" points="320.99,-97.62 310.51,-96.07 317.74,-103.81 320.99,-97.62"/>
</a>
</g>
</g>
<!-- Node9 -->
<g id="Node000009" class="node">
<title>Node9</title>
<g id="a_Node000009"><a xlink:title=" ">
<polygon fill="#e0e0e0" stroke="#999999" points="398.5,-96 345.5,-96 345.5,-77 398.5,-77 398.5,-96"/>
<text text-anchor="middle" x="372" y="-84" font-family="Helvetica,sans-Serif" font-size="10.00">cstddef</text>
</a>
</g>
</g>
<!-- Node3&#45;&gt;Node9 -->
<g id="edge8_Node000003_Node000009" class="edge">
<title>Node3&#45;&gt;Node9</title>
<g id="a_edge8_Node000003_Node000009"><a xlink:title=" ">
<path fill="none" stroke="#63b8ff" d="M1401.28,-144.45C1398.16,-143.88 1395.03,-143.38 1392,-143 1174.91,-115.59 619.09,-164.62 408,-107 403.03,-105.64 397.99,-103.49 393.32,-101.11"/>
<polygon fill="#63b8ff" stroke="#63b8ff" points="394.82,-97.93 384.39,-96.06 391.37,-104.03 394.82,-97.93"/>
</a>
</g>
</g>
<!-- Node10 -->
<g id="Node000010" class="node">
<title>Node10</title>
<g id="a_Node000010"><a xlink:title=" ">
<polygon fill="#e0e0e0" stroke="#999999" points="467,-96 417,-96 417,-77 467,-77 467,-96"/>
<text text-anchor="middle" x="442" y="-84" font-family="Helvetica,sans-Serif" font-size="10.00">cstdint</text>
</a>
</g>
</g>
<!-- Node3&#45;&gt;Node10 -->
<g id="edge9_Node000003_Node000010" class="edge">
<title>Node3&#45;&gt;Node10</title>
<g id="a_edge9_Node000003_Node000010"><a xlink:title=" ">
<path fill="none" stroke="#63b8ff" d="M1401.28,-144.46C1398.16,-143.89 1395.02,-143.39 1392,-143 1189.93,-117.21 671.78,-163.3 476,-107 471.39,-105.67 466.74,-103.6 462.42,-101.29"/>
<polygon fill="#63b8ff" stroke="#63b8ff" points="464.02,-98.17 453.64,-96.05 460.43,-104.18 464.02,-98.17"/>
</a>
</g>
</g>
<!-- Node11 -->
<g id="Node000011" class="node">
<title>Node11</title>
<g id="a_Node000011"><a xlink:title=" ">
<polygon fill="#e0e0e0" stroke="#999999" points="535,-96 485,-96 485,-77 535,-77 535,-96"/>
<text text-anchor="middle" x="510" y="-84" font-family="Helvetica,sans-Serif" font-size="10.00">cstring</text>
</a>
</g>
</g>
<!-- Node3&#45;&gt;Node11 -->
<g id="edge10_Node000003_Node000011" class="edge">
<title>Node3&#45;&gt;Node11</title>
<g id="a_edge10_Node000003_Node000011"><a xlink:title=" ">
<path fill="none" stroke="#63b8ff" d="M1401.28,-144.47C1398.16,-143.9 1395.02,-143.39 1392,-143 1204.94,-118.83 725.19,-159.41 544,-107 539.39,-105.67 534.74,-103.59 530.42,-101.28"/>
<polygon fill="#63b8ff" stroke="#63b8ff" points="532.02,-98.15 521.64,-96.04 528.44,-104.17 532.02,-98.15"/>
</a>
</g>
</g>
<!-- Node12 -->
<g id="Node000012" class="node">
<title>Node12</title>
<g id="a_Node000012"><a xlink:title=" ">
<polygon fill="#e0e0e0" stroke="#999999" points="602.5,-96 553.5,-96 553.5,-77 602.5,-77 602.5,-96"/>
<text text-anchor="middle" x="578" y="-84" font-family="Helvetica,sans-Serif" font-size="10.00">cuchar</text>
</a>
</g>
</g>
<!-- Node3&#45;&gt;Node12 -->
<g id="edge11_Node000003_Node000012" class="edge">
<title>Node3&#45;&gt;Node12</title>
<g id="a_edge11_Node000003_Node000012"><a xlink:title=" ">
<path fill="none" stroke="#63b8ff" d="M1401.28,-144.48C1398.16,-143.91 1395.02,-143.4 1392,-143 1219.73,-120.42 777.49,-156.66 611,-107 606.62,-105.69 602.22,-103.69 598.12,-101.45"/>
<polygon fill="#63b8ff" stroke="#63b8ff" points="599.62,-98.26 589.26,-96.03 595.97,-104.23 599.62,-98.26"/>
</a>
</g>
</g>
<!-- Node13 -->
<g id="Node000013" class="node">
<title>Node13</title>
<g id="a_Node000013"><a xlink:title=" ">
<polygon fill="#e0e0e0" stroke="#999999" points="703.5,-96 620.5,-96 620.5,-77 703.5,-77 703.5,-96"/>
<text text-anchor="middle" x="662" y="-84" font-family="Helvetica,sans-Serif" font-size="10.00">initializer_list</text>
</a>
</g>
</g>
<!-- Node3&#45;&gt;Node13 -->
<g id="edge12_Node000003_Node000013" class="edge">
<title>Node3&#45;&gt;Node13</title>
<g id="a_edge12_Node000003_Node000013"><a xlink:title=" ">
<path fill="none" stroke="#63b8ff" d="M1401.28,-144.5C1398.16,-143.92 1395.02,-143.41 1392,-143 1092.06,-102.64 1007.85,-170.79 712,-107 704.49,-105.38 696.62,-102.78 689.41,-100"/>
<polygon fill="#63b8ff" stroke="#63b8ff" points="690.67,-96.73 680.09,-96.17 688.01,-103.2 690.67,-96.73"/>
</a>
</g>
</g>
<!-- Node14 -->
<g id="Node000014" class="node">
<title>Node14</title>
<g id="a_Node000014"><a xlink:title=" ">
<polygon fill="#e0e0e0" stroke="#999999" points="774.5,-96 721.5,-96 721.5,-77 774.5,-77 774.5,-96"/>
<text text-anchor="middle" x="748" y="-84" font-family="Helvetica,sans-Serif" font-size="10.00">iterator</text>
</a>
</g>
</g>
<!-- Node3&#45;&gt;Node14 -->
<g id="edge13_Node000003_Node000014" class="edge">
<title>Node3&#45;&gt;Node14</title>
<g id="a_edge13_Node000003_Node000014"><a xlink:title=" ">
<path fill="none" stroke="#63b8ff" d="M1401.27,-144.52C1398.15,-143.94 1395.02,-143.42 1392,-143 1123.84,-106.07 1044.32,-181.23 784,-107 779.13,-105.61 774.18,-103.48 769.58,-101.14"/>
<polygon fill="#63b8ff" stroke="#63b8ff" points="771.17,-98.02 760.74,-96.18 767.75,-104.13 771.17,-98.02"/>
</a>
</g>
</g>
<!-- Node15 -->
<g id="Node000015" class="node">
<title>Node15</title>
<g id="a_Node000015"><a xlink:title=" ">
<polygon fill="#e0e0e0" stroke="#999999" points="851,-96 793,-96 793,-77 851,-77 851,-96"/>
<text text-anchor="middle" x="822" y="-84" font-family="Helvetica,sans-Serif" font-size="10.00">memory</text>
</a>
</g>
</g>
<!-- Node3&#45;&gt;Node15 -->
<g id="edge14_Node000003_Node000015" class="edge">
<title>Node3&#45;&gt;Node15</title>
<g id="a_edge14_Node000003_Node000015"><a xlink:title=" ">
<path fill="none" stroke="#63b8ff" d="M1401.27,-144.55C1398.15,-143.96 1395.02,-143.43 1392,-143 1157.37,-109.68 1088.35,-170.4 860,-107 854.78,-105.55 849.43,-103.34 844.47,-100.91"/>
<polygon fill="#63b8ff" stroke="#63b8ff" points="845.99,-97.76 835.52,-96.15 842.7,-103.94 845.99,-97.76"/>
</a>
</g>
</g>
<!-- Node16 -->
<g id="Node000016" class="node">
<title>Node16</title>
<g id="a_Node000016"><a xlink:title=" ">
<polygon fill="#e0e0e0" stroke="#999999" points="934.5,-96 869.5,-96 869.5,-77 934.5,-77 934.5,-96"/>
<text text-anchor="middle" x="902" y="-84" font-family="Helvetica,sans-Serif" font-size="10.00">stdexcept</text>
</a>
</g>
</g>
<!-- Node3&#45;&gt;Node16 -->
<g id="edge15_Node000003_Node000016" class="edge">
<title>Node3&#45;&gt;Node16</title>
<g id="a_edge15_Node000003_Node000016"><a xlink:title=" ">
<path fill="none" stroke="#63b8ff" d="M1401.27,-144.59C1398.15,-143.99 1395.02,-143.45 1392,-143 1194.41,-113.67 1137.17,-157.86 944,-107 938.02,-105.43 931.85,-103.04 926.13,-100.47"/>
<polygon fill="#63b8ff" stroke="#63b8ff" points="927.59,-97.29 917.07,-96.08 924.55,-103.59 927.59,-97.29"/>
</a>
</g>
</g>
<!-- Node17 -->
<g id="Node000017" class="node">
<title>Node17</title>
<g id="a_Node000017"><a xlink:title=" ">
<polygon fill="#e0e0e0" stroke="#999999" points="997,-96 953,-96 953,-77 997,-77 997,-96"/>
<text text-anchor="middle" x="975" y="-84" font-family="Helvetica,sans-Serif" font-size="10.00">string</text>
</a>
</g>
</g>
<!-- Node3&#45;&gt;Node17 -->
<g id="edge16_Node000003_Node000017" class="edge">
<title>Node3&#45;&gt;Node17</title>
<g id="a_edge16_Node000003_Node000017"><a xlink:title=" ">
<path fill="none" stroke="#63b8ff" d="M1401.26,-144.63C1398.14,-144.02 1395.01,-143.47 1392,-143 1221.73,-116.61 1169.16,-162.38 1006,-107 1002.05,-105.66 998.09,-103.72 994.38,-101.59"/>
<polygon fill="#63b8ff" stroke="#63b8ff" points="996.14,-98.56 985.83,-96.09 992.35,-104.44 996.14,-98.56"/>
</a>
</g>
</g>
<!-- Node18 -->
<g id="Node000018" class="node">
<title>Node18</title>
<g id="a_Node000018"><a xlink:title=" ">
<polygon fill="#e0e0e0" stroke="#999999" points="1084.5,-96 1015.5,-96 1015.5,-77 1084.5,-77 1084.5,-96"/>
<text text-anchor="middle" x="1050" y="-84" font-family="Helvetica,sans-Serif" font-size="10.00">type_traits</text>
</a>
</g>
</g>
<!-- Node3&#45;&gt;Node18 -->
<g id="edge17_Node000003_Node000018" class="edge">
<title>Node3&#45;&gt;Node18</title>
<g id="a_edge17_Node000003_Node000018"><a xlink:title=" ">
<path fill="none" stroke="#63b8ff" d="M1401.25,-144.71C1398.13,-144.09 1395.01,-143.51 1392,-143 1260.02,-120.72 1221.9,-143.06 1093,-107 1087.03,-105.33 1080.84,-102.95 1075.08,-100.42"/>
<polygon fill="#63b8ff" stroke="#63b8ff" points="1076.43,-97.19 1065.89,-96.12 1073.47,-103.53 1076.43,-97.19"/>
</a>
</g>
</g>
<!-- Node19 -->
<g id="Node000019" class="node">
<title>Node19</title>
<g id="a_Node000019"><a xlink:title=" ">
<polygon fill="#e0e0e0" stroke="#999999" points="1147.5,-96 1102.5,-96 1102.5,-77 1147.5,-77 1147.5,-96"/>
<text text-anchor="middle" x="1125" y="-84" font-family="Helvetica,sans-Serif" font-size="10.00">utility</text>
</a>
</g>
</g>
<!-- Node3&#45;&gt;Node19 -->
<g id="edge18_Node000003_Node000019" class="edge">
<title>Node3&#45;&gt;Node19</title>
<g id="a_edge18_Node000003_Node000019"><a xlink:title=" ">
<path fill="none" stroke="#63b8ff" d="M1401.23,-144.82C1398.12,-144.18 1395,-143.56 1392,-143 1290.3,-123.98 1260.21,-139.56 1162,-107 1157.17,-105.4 1152.21,-103.21 1147.56,-100.88"/>
<polygon fill="#63b8ff" stroke="#63b8ff" points="1149.04,-97.7 1138.57,-96.04 1145.72,-103.87 1149.04,-97.7"/>
</a>
</g>
</g>
<!-- Node20 -->
<g id="Node000020" class="node">
<title>Node20</title>
<g id="a_Node000020"><a xlink:href="../../dd/d9e/linux_2platform__config_8hpp.html" target="_top" xlink:title="additional linux platform header">
<polygon fill="white" stroke="#666666" points="1359.5,-107 1204.5,-107 1204.5,-66 1359.5,-66 1359.5,-107"/>
<text text-anchor="start" x="1212.5" y="-95" font-family="Helvetica,sans-Serif" font-size="10.00">/home/runner/work/toygine2</text>
<text text-anchor="start" x="1212.5" y="-84" font-family="Helvetica,sans-Serif" font-size="10.00">/toygine2/src/platforms</text>
<text text-anchor="middle" x="1282" y="-73" font-family="Helvetica,sans-Serif" font-size="10.00">/linux/platform_config.hpp</text>
</a>
</g>
</g>
<!-- Node3&#45;&gt;Node20 -->
<g id="edge19_Node000003_Node000020" class="edge">
<title>Node3&#45;&gt;Node20</title>
<g id="a_edge19_Node000003_Node000020"><a xlink:title=" ">
<path fill="none" stroke="#63b8ff" d="M1410.91,-142.87C1391.95,-134.72 1362.65,-122.14 1336.77,-111.03"/>
<polygon fill="#63b8ff" stroke="#63b8ff" points="1337.99,-107.74 1327.42,-107.01 1335.23,-114.17 1337.99,-107.74"/>
</a>
</g>
</g>
<!-- Node21 -->
<g id="Node000021" class="node">
<title>Node21</title>
<g id="a_Node000021"><a xlink:href="../../d3/d60/platform_8hpp.html" target="_top" xlink:title="Platform and CPU architecture enumerations with compile&#45;time and runtime detection utilities.">
<polygon fill="white" stroke="#666666" points="1227.5,-30 1124.5,-30 1124.5,0 1227.5,0 1227.5,-30"/>
<text text-anchor="start" x="1132.5" y="-18" font-family="Helvetica,sans-Serif" font-size="10.00">../../../include/core</text>
<text text-anchor="middle" x="1176" y="-7" font-family="Helvetica,sans-Serif" font-size="10.00">/platform.hpp</text>
</a>
</g>
</g>
<!-- Node3&#45;&gt;Node21 -->
<g id="edge35_Node000003_Node000021" class="edge">
<title>Node3&#45;&gt;Node21</title>
<g id="a_edge35_Node000003_Node000021"><a xlink:title=" ">
<path fill="none" stroke="#63b8ff" d="M1401.21,-144.9C1398.1,-144.24 1394.99,-143.6 1392,-143 1304.73,-125.52 1258.72,-169.14 1195,-107 1177.47,-89.9 1174.04,-61.11 1174.16,-40.48"/>
<polygon fill="#63b8ff" stroke="#63b8ff" points="1177.67,-40.38 1174.51,-30.27 1170.67,-40.15 1177.67,-40.38"/>
</a>
</g>
</g>
<!-- Node23 -->
<g id="Node000023" class="node">
<title>Node23</title>
<g id="a_Node000023"><a xlink:href="../../d5/d96/assertion_8hpp.html" target="_top" xlink:title="Assertion system for runtime and compile&#45;time validation of engine invariants.">
<polygon fill="white" stroke="#666666" points="1484.5,-96 1377.5,-96 1377.5,-77 1484.5,-77 1484.5,-96"/>
<text text-anchor="middle" x="1431" y="-84" font-family="Helvetica,sans-Serif" font-size="10.00">core/assertion.hpp</text>
</a>
</g>
</g>
<!-- Node3&#45;&gt;Node23 -->
<g id="edge22_Node000003_Node000023" class="edge">
<title>Node3&#45;&gt;Node23</title>
<g id="a_edge22_Node000003_Node000023"><a xlink:title=" ">
<path fill="none" stroke="#63b8ff" d="M1431,-142.87C1431,-133.66 1431,-118.79 1431,-106.77"/>
<polygon fill="#63b8ff" stroke="#63b8ff" points="1434.5,-106.41 1431,-96.41 1427.5,-106.41 1434.5,-106.41"/>
</a>
</g>
</g>
<!-- Node24 -->
<g id="Node000024" class="node">
<title>Node24</title>
<g id="a_Node000024"><a xlink:href="../../dd/ded/c__string__view_8hpp.html" target="_top" xlink:title="Non&#45;owning string view class for C&#45;style strings.">
<polygon fill="white" stroke="#666666" points="1631,-96 1503,-96 1503,-77 1631,-77 1631,-96"/>
<text text-anchor="middle" x="1567" y="-84" font-family="Helvetica,sans-Serif" font-size="10.00">core/c_string_view.hpp</text>
</a>
</g>
</g>
<!-- Node3&#45;&gt;Node24 -->
<g id="edge23_Node000003_Node000024" class="edge">
<title>Node3&#45;&gt;Node24</title>
<g id="a_edge23_Node000003_Node000024"><a xlink:title=" ">
<path fill="none" stroke="#63b8ff" d="M1449.34,-142.87C1472.46,-131.99 1512.41,-113.19 1539.27,-100.55"/>
<polygon fill="#63b8ff" stroke="#63b8ff" points="1540.96,-103.62 1548.51,-96.2 1537.98,-97.29 1540.96,-103.62"/>
</a>
</g>
</g>
<!-- Node25 -->
<g id="Node000025" class="node">
<title>Node25</title>
<g id="a_Node000025"><a xlink:href="../../de/deb/string__like_8hpp.html" target="_top" xlink:title="C++ concept for string&#45;like types with size() and c_str() methods.">
<polygon fill="white" stroke="#666666" points="2096,-24.5 2008,-24.5 2008,-5.5 2096,-5.5 2096,-24.5"/>
<text text-anchor="middle" x="2052" y="-12.5" font-family="Helvetica,sans-Serif" font-size="10.00">string_like.hpp</text>
</a>
</g>
</g>
<!-- Node3&#45;&gt;Node25 -->
<g id="edge36_Node000003_Node000025" class="edge">
<title>Node3&#45;&gt;Node25</title>
<g id="a_edge36_Node000003_Node000025"><a xlink:title=" ">
<path fill="none" stroke="#63b8ff" d="M1460.68,-150.75C1503.08,-148.49 1582.26,-139.8 1640,-107 1661.6,-94.73 1655.94,-77.43 1678,-66 1732.53,-37.74 1907.85,-24.05 1997.74,-18.75"/>
<polygon fill="#63b8ff" stroke="#63b8ff" points="1997.96,-22.25 2007.74,-18.18 1997.56,-15.26 1997.96,-22.25"/>
</a>
</g>
</g>
<!-- Node26 -->
<g id="Node000026" class="node">
<title>Node26</title>
<g id="a_Node000026"><a xlink:href="../../d1/d5c/callbacks__pool_8hpp.html" target="_top" xlink:title="Template callback pool class with fixed&#45;size callback storage.">
<polygon fill="white" stroke="#666666" points="1821,-96 1687,-96 1687,-77 1821,-77 1821,-96"/>
<text text-anchor="middle" x="1754" y="-84" font-family="Helvetica,sans-Serif" font-size="10.00">core/callbacks_pool.hpp</text>
</a>
</g>
</g>
<!-- Node3&#45;&gt;Node26 -->
<g id="edge25_Node000003_Node000026" class="edge">
<title>Node3&#45;&gt;Node26</title>
<g id="a_edge25_Node000003_Node000026"><a xlink:title=" ">
<path fill="none" stroke="#63b8ff" d="M1460.53,-146.6C1506.22,-138.91 1596.74,-123.18 1673,-107 1685.16,-104.42 1698.28,-101.38 1710.35,-98.47"/>
<polygon fill="#63b8ff" stroke="#63b8ff" points="1711.31,-101.84 1720.2,-96.07 1709.66,-95.04 1711.31,-101.84"/>
</a>
</g>
</g>
<!-- Node27 -->
<g id="Node000027" class="node">
<title>Node27</title>
<g id="a_Node000027"><a xlink:href="../../d4/dc0/constexpr__utils_8hpp.html" target="_top" xlink:title="Constexpr utility functions for compile&#45;time operations.">
<polygon fill="white" stroke="#666666" points="1975,-96 1839,-96 1839,-77 1975,-77 1975,-96"/>
<text text-anchor="middle" x="1907" y="-84" font-family="Helvetica,sans-Serif" font-size="10.00">core/constexpr_utils.hpp</text>
</a>
</g>
</g>
<!-- Node3&#45;&gt;Node27 -->
<g id="edge26_Node000003_Node000027" class="edge">
<title>Node3&#45;&gt;Node27</title>
<g id="a_edge26_Node000003_Node000027"><a xlink:title=" ">
<path fill="none" stroke="#63b8ff" d="M1460.73,-149.58C1527.29,-144.99 1693.18,-131.83 1830,-107 1842.3,-104.77 1855.54,-101.67 1867.51,-98.6"/>
<polygon fill="#63b8ff" stroke="#63b8ff" points="1868.44,-101.98 1877.22,-96.05 1866.66,-95.21 1868.44,-101.98"/>
</a>
</g>
</g>
<!-- Node28 -->
<g id="Node000028" class="node">
<title>Node28</title>
<g id="a_Node000028"><a xlink:href="../../d7/d7f/fixed__string_8hpp.html" target="_top" xlink:title="Template string class with fixed&#45;size character buffer.">
<polygon fill="white" stroke="#666666" points="2111,-96 1993,-96 1993,-77 2111,-77 2111,-96"/>
<text text-anchor="middle" x="2052" y="-84" font-family="Helvetica,sans-Serif" font-size="10.00">core/fixed_string.hpp</text>
</a>
</g>
</g>
<!-- Node3&#45;&gt;Node28 -->
<g id="edge27_Node000003_Node000028" class="edge">
<title>Node3&#45;&gt;Node28</title>
<g id="a_edge27_Node000003_Node000028"><a xlink:title=" ">
<path fill="none" stroke="#63b8ff" d="M1460.64,-151.18C1543.85,-149.84 1786.42,-142.91 1984,-107 1994.9,-105.02 2006.55,-102.01 2017.09,-98.95"/>
<polygon fill="#63b8ff" stroke="#63b8ff" points="2018.21,-102.27 2026.77,-96.03 2016.19,-95.57 2018.21,-102.27"/>
</a>
</g>
</g>
<!-- Node29 -->
<g id="Node000029" class="node">
<title>Node29</title>
<g id="a_Node000029"><a xlink:href="../../d7/dea/fixed__vector_8hpp.html" target="_top" xlink:title="TODO.">
<polygon fill="white" stroke="#666666" points="2249,-96 2129,-96 2129,-77 2249,-77 2249,-96"/>
<text text-anchor="middle" x="2189" y="-84" font-family="Helvetica,sans-Serif" font-size="10.00">core/fixed_vector.hpp</text>
</a>
</g>
</g>
<!-- Node3&#45;&gt;Node29 -->
<g id="edge29_Node000003_Node000029" class="edge">
<title>Node3&#45;&gt;Node29</title>
<g id="a_edge29_Node000003_Node000029"><a xlink:title=" ">
<path fill="none" stroke="#63b8ff" d="M1460.81,-151.81C1557.03,-152.32 1867.77,-150.29 2120,-107 2131.16,-105.09 2143.09,-102.07 2153.85,-98.98"/>
<polygon fill="#63b8ff" stroke="#63b8ff" points="2155.16,-102.24 2163.74,-96.02 2153.15,-95.53 2155.16,-102.24"/>
</a>
</g>
</g>
<!-- Node30 -->
<g id="Node000030" class="node">
<title>Node30</title>
<g id="a_Node000030"><a xlink:href="../../d4/d0a/format_8hpp.html" target="_top" xlink:title="Compile&#45;time format string validation class.">
<polygon fill="white" stroke="#666666" points="2362.5,-96 2267.5,-96 2267.5,-77 2362.5,-77 2362.5,-96"/>
<text text-anchor="middle" x="2315" y="-84" font-family="Helvetica,sans-Serif" font-size="10.00">core/format.hpp</text>
</a>
</g>
</g>
<!-- Node3&#45;&gt;Node30 -->
<g id="edge30_Node000003_Node000030" class="edge">
<title>Node3&#45;&gt;Node30</title>
<g id="a_edge30_Node000003_Node000030"><a xlink:title=" ">
<path fill="none" stroke="#63b8ff" d="M1460.84,-150.99C1589.89,-148.64 2100.62,-137.54 2258,-107 2266.93,-105.27 2276.37,-102.46 2284.94,-99.51"/>
<polygon fill="#63b8ff" stroke="#63b8ff" points="2286.32,-102.74 2294.53,-96.04 2283.93,-96.15 2286.32,-102.74"/>
</a>
</g>
</g>
<!-- Node31 -->
<g id="Node000031" class="node">
<title>Node31</title>
<g id="a_Node000031"><a xlink:href="../../dd/d8e/hashes_8hpp.html" target="_top" xlink:title="CRC hash functions.">
<polygon fill="white" stroke="#666666" points="2477,-96 2381,-96 2381,-77 2477,-77 2477,-96"/>
<text text-anchor="middle" x="2429" y="-84" font-family="Helvetica,sans-Serif" font-size="10.00">core/hashes.hpp</text>
</a>
</g>
</g>
<!-- Node3&#45;&gt;Node31 -->
<g id="edge32_Node000003_Node000031" class="edge">
<title>Node3&#45;&gt;Node31</title>
<g id="a_edge32_Node000003_Node000031"><a xlink:title=" ">
<path fill="none" stroke="#63b8ff" d="M1460.64,-151.22C1600.02,-149.74 2191.06,-141.51 2372,-107 2380.93,-105.3 2390.38,-102.5 2398.95,-99.55"/>
<polygon fill="#63b8ff" stroke="#63b8ff" points="2400.33,-102.77 2408.54,-96.07 2397.94,-96.19 2400.33,-102.77"/>
</a>
</g>
</g>
<!-- Node32 -->
<g id="Node000032" class="node">
<title>Node32</title>
<g id="a_Node000032"><a xlink:href="../../de/d2d/o__string__stream_8hpp.html" target="_top" xlink:title="Output string stream class for building strings from various data types.">
<polygon fill="white" stroke="#666666" points="2635,-96 2495,-96 2495,-77 2635,-77 2635,-96"/>
<text text-anchor="middle" x="2565" y="-84" font-family="Helvetica,sans-Serif" font-size="10.00">core/o_string_stream.hpp</text>
</a>
</g>
</g>
<!-- Node3&#45;&gt;Node32 -->
<g id="edge33_Node000003_Node000032" class="edge">
<title>Node3&#45;&gt;Node32</title>
<g id="a_edge33_Node000003_Node000032"><a xlink:title=" ">
<path fill="none" stroke="#63b8ff" d="M1460.62,-151.05C1609.82,-148.66 2280.03,-136.46 2486,-107 2499.35,-105.09 2513.73,-101.89 2526.52,-98.63"/>
<polygon fill="#63b8ff" stroke="#63b8ff" points="2527.6,-101.97 2536.38,-96.03 2525.82,-95.2 2527.6,-101.97"/>
</a>
</g>
</g>
<!-- Node33 -->
<g id="Node000033" class="node">
<title>Node33</title>
<g id="a_Node000033"><a xlink:href="../../d8/d43/core_2utils_8hpp.html" target="_top" xlink:title="Core utility functions for string manipulation, encoding conversion, and number formatting.">
<polygon fill="white" stroke="#666666" points="2736.5,-96 2653.5,-96 2653.5,-77 2736.5,-77 2736.5,-96"/>
<text text-anchor="middle" x="2695" y="-84" font-family="Helvetica,sans-Serif" font-size="10.00">core/utils.hpp</text>
</a>
</g>
</g>
<!-- Node3&#45;&gt;Node33 -->
<g id="edge37_Node000003_Node000033" class="edge">
<title>Node3&#45;&gt;Node33</title>
<g id="a_edge37_Node000003_Node000033"><a xlink:title=" ">
<path fill="none" stroke="#63b8ff" d="M1460.74,-151.73C1623.5,-152.77 2407.57,-155.16 2644,-107 2651.88,-105.4 2660.14,-102.71 2667.66,-99.84"/>
<polygon fill="#63b8ff" stroke="#63b8ff" points="2669.08,-103.04 2677.02,-96.04 2666.44,-96.56 2669.08,-103.04"/>
</a>
</g>
</g>
<!-- Node34 -->
<g id="Node000034" class="node">
<title>Node34</title>
<g id="a_Node000034"><a xlink:href="../../df/d4a/c__string__view_8inl.html" target="_top" xlink:title="Inline implementations for CStringView class.">
<polygon fill="white" stroke="#666666" points="2877,-96 2755,-96 2755,-77 2877,-77 2877,-96"/>
<text text-anchor="middle" x="2816" y="-84" font-family="Helvetica,sans-Serif" font-size="10.00">core/c_string_view.inl</text>
</a>
</g>
</g>
<!-- Node3&#45;&gt;Node34 -->
<g id="edge38_Node000003_Node000034" class="edge">
<title>Node3&#45;&gt;Node34</title>
<g id="a_edge38_Node000003_Node000034"><a xlink:title=" ">
<path fill="none" stroke="#63b8ff" d="M1460.62,-151.45C1630.88,-151.04 2486.22,-146.99 2746,-107 2757.65,-105.21 2770.11,-102.13 2781.25,-98.94"/>
<polygon fill="#63b8ff" stroke="#63b8ff" points="2782.46,-102.23 2791.04,-96.01 2780.46,-95.52 2782.46,-102.23"/>
</a>
</g>
</g>
<!-- Node35 -->
<g id="Node000035" class="node">
<title>Node35</title>
<g id="a_Node000035"><a xlink:href="../../d6/ddb/callbacks__pool_8inl.html" target="_top" xlink:title="Inline implementations for template callback pool class with fixed&#45;size callback storage.">
<polygon fill="white" stroke="#666666" points="3023,-96 2895,-96 2895,-77 3023,-77 3023,-96"/>
<text text-anchor="middle" x="2959" y="-84" font-family="Helvetica,sans-Serif" font-size="10.00">core/callbacks_pool.inl</text>
</a>
</g>
</g>
<!-- Node3&#45;&gt;Node35 -->
<g id="edge39_Node000003_Node000035" class="edge">
<title>Node3&#45;&gt;Node35</title>
<g id="a_edge39_Node000003_Node000035"><a xlink:title=" ">
<path fill="none" stroke="#63b8ff" d="M1460.77,-151.52C1641.8,-151.52 2596.73,-149.48 2886,-107 2898.25,-105.2 2911.38,-102.08 2923.09,-98.85"/>
<polygon fill="#63b8ff" stroke="#63b8ff" points="2924.3,-102.15 2932.95,-96.02 2922.37,-95.42 2924.3,-102.15"/>
</a>
</g>
</g>
<!-- Node36 -->
<g id="Node000036" class="node">
<title>Node36</title>
<g id="a_Node000036"><a xlink:href="../../dc/d28/constexpr__utils_8inl.html" target="_top" xlink:title="Inline implementations for constexpr utility functions.">
<polygon fill="white" stroke="#666666" points="3171,-96 3041,-96 3041,-77 3171,-77 3171,-96"/>
<text text-anchor="middle" x="3106" y="-84" font-family="Helvetica,sans-Serif" font-size="10.00">core/constexpr_utils.inl</text>
</a>
</g>
</g>
<!-- Node3&#45;&gt;Node36 -->
<g id="edge40_Node000003_Node000036" class="edge">
<title>Node3&#45;&gt;Node36</title>
<g id="a_edge40_Node000003_Node000036"><a xlink:title=" ">
<path fill="none" stroke="#63b8ff" d="M1460.6,-151.61C1651.56,-152.15 2711.87,-153 3032,-107 3044.53,-105.2 3057.99,-102.04 3069.95,-98.77"/>
<polygon fill="#63b8ff" stroke="#63b8ff" points="3070.92,-102.14 3079.59,-96.04 3069.01,-95.4 3070.92,-102.14"/>
</a>
</g>
</g>
<!-- Node37 -->
<g id="Node000037" class="node">
<title>Node37</title>
<g id="a_Node000037"><a xlink:href="../../d7/d40/fixed__string_8inl.html" target="_top" xlink:title="Inline implementations for FixedString template class.">
<polygon fill="white" stroke="#666666" points="3301,-96 3189,-96 3189,-77 3301,-77 3301,-96"/>
<text text-anchor="middle" x="3245" y="-84" font-family="Helvetica,sans-Serif" font-size="10.00">core/fixed_string.inl</text>
</a>
</g>
</g>
<!-- Node3&#45;&gt;Node37 -->
<g id="edge41_Node000003_Node000037" class="edge">
<title>Node3&#45;&gt;Node37</title>
<g id="a_edge41_Node000003_Node000037"><a xlink:title=" ">
<path fill="none" stroke="#63b8ff" d="M1460.82,-151.22C1677.27,-149.12 3003.79,-135.16 3180,-107 3190.65,-105.3 3201.98,-102.32 3212.16,-99.2"/>
<polygon fill="#63b8ff" stroke="#63b8ff" points="3213.44,-102.47 3221.88,-96.07 3211.29,-95.8 3213.44,-102.47"/>
</a>
</g>
</g>
<!-- Node38 -->
<g id="Node000038" class="node">
<title>Node38</title>
<g id="a_Node000038"><a xlink:href="../../da/dc9/fixed__vector_8inl.html" target="_top" xlink:title="TODO.">
<polygon fill="white" stroke="#666666" points="3433,-96 3319,-96 3319,-77 3433,-77 3433,-96"/>
<text text-anchor="middle" x="3376" y="-84" font-family="Helvetica,sans-Serif" font-size="10.00">core/fixed_vector.inl</text>
</a>
</g>
</g>
<!-- Node3&#45;&gt;Node38 -->
<g id="edge42_Node000003_Node000038" class="edge">
<title>Node3&#45;&gt;Node38</title>
<g id="a_edge42_Node000003_Node000038"><a xlink:title=" ">
<path fill="none" stroke="#63b8ff" d="M1460.84,-151.27C1686.45,-149.45 3120,-136.78 3310,-107 3320.91,-105.29 3332.55,-102.27 3342.97,-99.11"/>
<polygon fill="#63b8ff" stroke="#63b8ff" points="3344.05,-102.44 3352.52,-96.08 3341.93,-95.77 3344.05,-102.44"/>
</a>
</g>
</g>
<!-- Node39 -->
<g id="Node000039" class="node">
<title>Node39</title>
<g id="a_Node000039"><a xlink:href="../../d0/d67/format_8inl.html" target="_top" xlink:title="Inline implementations for FormatString class.">
<polygon fill="white" stroke="#666666" points="3540.5,-96 3451.5,-96 3451.5,-77 3540.5,-77 3540.5,-96"/>
<text text-anchor="middle" x="3496" y="-84" font-family="Helvetica,sans-Serif" font-size="10.00">core/format.inl</text>
</a>
</g>
</g>
<!-- Node3&#45;&gt;Node39 -->
<g id="edge43_Node000003_Node000039" class="edge">
<title>Node3&#45;&gt;Node39</title>
<g id="a_edge43_Node000003_Node000039"><a xlink:title=" ">
<path fill="none" stroke="#63b8ff" d="M1460.69,-151.42C1694.77,-150.74 3239.02,-144.84 3442,-107 3450.5,-105.42 3459.44,-102.67 3467.54,-99.72"/>
<polygon fill="#63b8ff" stroke="#63b8ff" points="3468.86,-102.97 3476.93,-96.1 3466.34,-96.44 3468.86,-102.97"/>
</a>
</g>
</g>
<!-- Node40 -->
<g id="Node000040" class="node">
<title>Node40</title>
<g id="a_Node000040"><a xlink:href="../../d9/dcb/o__string__stream_8inl.html" target="_top" xlink:title="Implementation of OStringStream template methods.">
<polygon fill="white" stroke="#666666" points="3693,-96 3559,-96 3559,-77 3693,-77 3693,-96"/>
<text text-anchor="middle" x="3626" y="-84" font-family="Helvetica,sans-Serif" font-size="10.00">core/o_string_stream.inl</text>
</a>
</g>
</g>
<!-- Node3&#45;&gt;Node40 -->
<g id="edge44_Node000003_Node000040" class="edge">
<title>Node3&#45;&gt;Node40</title>
<g id="a_edge44_Node000003_Node000040"><a xlink:title=" ">
<path fill="none" stroke="#63b8ff" d="M1460.71,-151.29C1701.8,-149.53 3334,-136.58 3550,-107 3562.86,-105.24 3576.68,-102.09 3588.96,-98.82"/>
<polygon fill="#63b8ff" stroke="#63b8ff" points="3590.16,-102.12 3598.86,-96.08 3588.29,-95.38 3590.16,-102.12"/>
</a>
</g>
</g>
<!-- Node41 -->
<g id="Node000041" class="node">
<title>Node41</title>
<g id="a_Node000041"><a xlink:href="../../d2/d2b/core_2utils_8inl.html" target="_top" xlink:title="Inline implementations of core utility functions for string manipulation and encoding conversion.">
<polygon fill="white" stroke="#666666" points="3788.5,-96 3711.5,-96 3711.5,-77 3788.5,-77 3788.5,-96"/>
<text text-anchor="middle" x="3750" y="-84" font-family="Helvetica,sans-Serif" font-size="10.00">core/utils.inl</text>
</a>
</g>
</g>
<!-- Node3&#45;&gt;Node41 -->
<g id="edge45_Node000003_Node000041" class="edge">
<title>Node3&#45;&gt;Node41</title>
<g id="a_edge45_Node000003_Node000041"><a xlink:title=" ">
<path fill="none" stroke="#63b8ff" d="M1460.87,-151.57C1712.37,-152.11 3472.53,-154.17 3702,-107 3709.22,-105.52 3716.74,-102.98 3723.62,-100.22"/>
<polygon fill="#63b8ff" stroke="#63b8ff" points="3725.35,-103.29 3733.15,-96.12 3722.58,-96.86 3725.35,-103.29"/>
</a>
</g>
</g>
<!-- Node20&#45;&gt;Node21 -->
<g id="edge20_Node000020_Node000021" class="edge">
<title>Node20&#45;&gt;Node21</title>
<g id="a_edge20_Node000020_Node000021"><a xlink:title=" ">
<path fill="none" stroke="#63b8ff" d="M1252.19,-65.96C1237.79,-56.51 1220.54,-45.2 1206.1,-35.74"/>
<polygon fill="#63b8ff" stroke="#63b8ff" points="1207.81,-32.67 1197.52,-30.11 1203.97,-38.52 1207.81,-32.67"/>
</a>
</g>
</g>
<!-- Node22 -->
<g id="Node000022" class="node">
<title>Node22</title>
<g id="a_Node000022"><a xlink:href="../../d1/d5f/assertion__macro__gcc__clang_8hpp.html" target="_top" xlink:title="Debug and Release assertion macro implementations for GCC/Clang platforms.">
<polygon fill="white" stroke="#666666" points="1372.5,-30 1245.5,-30 1245.5,0 1372.5,0 1372.5,-30"/>
<text text-anchor="start" x="1253.5" y="-18" font-family="Helvetica,sans-Serif" font-size="10.00">../common/assertion</text>
<text text-anchor="middle" x="1309" y="-7" font-family="Helvetica,sans-Serif" font-size="10.00">_macro_gcc_clang.hpp</text>
</a>
</g>
</g>
<!-- Node20&#45;&gt;Node22 -->
<g id="edge21_Node000020_Node000022" class="edge">
<title>Node20&#45;&gt;Node22</title>
<g id="a_edge21_Node000020_Node000022"><a xlink:title=" ">
<path fill="none" stroke="#63b8ff" d="M1289.66,-65.77C1292.85,-57.58 1296.57,-48.01 1299.89,-39.46"/>
<polygon fill="#63b8ff" stroke="#63b8ff" points="1303.19,-40.63 1303.55,-30.04 1296.66,-38.09 1303.19,-40.63"/>
</a>
</g>
</g>
<!-- Node24&#45;&gt;Node25 -->
<g id="edge24_Node000024_Node000025" class="edge">
<title>Node24&#45;&gt;Node25</title>
<g id="a_edge24_Node000024_Node000025"><a xlink:title=" ">
<path fill="none" stroke="#63b8ff" d="M1597.56,-76.94C1611.87,-73.16 1629.22,-68.93 1645,-66 1770.27,-42.74 1919.3,-27.56 1997.65,-20.54"/>
<polygon fill="#63b8ff" stroke="#63b8ff" points="1998.11,-24.01 2007.76,-19.64 1997.49,-17.04 1998.11,-24.01"/>
</a>
</g>
</g>
<!-- Node28&#45;&gt;Node25 -->
<g id="edge28_Node000028_Node000025" class="edge">
<title>Node28&#45;&gt;Node25</title>
<g id="a_edge28_Node000028_Node000025"><a xlink:title=" ">
<path fill="none" stroke="#63b8ff" d="M2052,-76.98C2052,-66.56 2052,-48.61 2052,-34.88"/>
<polygon fill="#63b8ff" stroke="#63b8ff" points="2055.5,-34.59 2052,-24.59 2048.5,-34.59 2055.5,-34.59"/>
</a>
</g>
</g>
<!-- Node30&#45;&gt;Node25 -->
<g id="edge31_Node000030_Node000025" class="edge">
<title>Node30&#45;&gt;Node25</title>
<g id="a_edge31_Node000030_Node000025"><a xlink:title=" ">
<path fill="none" stroke="#63b8ff" d="M2291.58,-76.95C2281.34,-73.35 2269.14,-69.25 2258,-66 2205.13,-50.57 2143.67,-36.1 2101.73,-26.73"/>
<polygon fill="#63b8ff" stroke="#63b8ff" points="2102.3,-23.27 2091.78,-24.52 2100.78,-30.1 2102.3,-23.27"/>
</a>
</g>
</g>
<!-- Node32&#45;&gt;Node25 -->
<g id="edge34_Node000032_Node000025" class="edge">
<title>Node32&#45;&gt;Node25</title>
<g id="a_edge34_Node000032_Node000025"><a xlink:title=" ">
<path fill="none" stroke="#63b8ff" d="M2534.43,-76.99C2519.86,-73.18 2502.13,-68.91 2486,-66 2350.35,-41.55 2188.59,-26.62 2106.14,-20.01"/>
<polygon fill="#63b8ff" stroke="#63b8ff" points="2106.25,-16.51 2096.01,-19.21 2105.7,-23.49 2106.25,-16.51"/>
</a>
</g>
</g>
</g>
</svg>

<g id="navigator" transform="translate(0 0)" fill="#404254">
  <rect fill="#f2f5e9" fill-opacity="0.5" stroke="#606060" stroke-width=".5" x="0" y="0" width="60" height="60"/>
  <use id="zoomplus" xlink:href="#zoomPlus" x="17" y="9" onmousedown="handleZoom(evt,'in')"/>
  <use id="zoomminus" xlink:href="#zoomMin" x="42" y="9" onmousedown="handleZoom(evt,'out')"/>
  <use id="reset" xlink:href="#resetDef" x="30" y="36" onmousedown="handleReset()"/>
   <use id="arrowup" xlink:href="#arrowUp" x="0" y="0" onmousedown="handlePan(0,-1)"/>
  <use id="arrowright" xlink:href="#arrowRight" x="0" y="0" onmousedown="handlePan(1,0)"/>
  <use id="arrowdown" xlink:href="#arrowDown" x="0" y="0" onmousedown="handlePan(0,1)"/>
  <use id="arrowleft" xlink:href="#arrowLeft" x="0" y="0" onmousedown="handlePan(-1,0)"/>
</g>
<svg viewBox="0 0 15 15" width="100%" height="30px" preserveAspectRatio="xMaxYMin meet">
 <g id="arrow_out" transform="scale(0.3 0.3)">
  <a xlink:href="assertion__stub_8cpp__incl_org.svg" target="_base">
   <rect id="button" ry="5" rx="5" y="6" x="6" height="38" width="38"
        fill="#f2f5e9" fill-opacity="0.5" stroke="#606060" stroke-width="1.0"/>
   <path id="arrow"
     d="M 11.500037,31.436501 C 11.940474,20.09759 22.043105,11.32322 32.158766,21.979434 L 37.068811,17.246167 C 37.068811,17.246167 37.088388,32 37.088388,32 L 22.160133,31.978069 C 22.160133,31.978069 26.997745,27.140456 26.997745,27.140456 C 18.528582,18.264221 13.291696,25.230495 11.500037,31.436501 z"
     style="fill:#404040;"/>
  </a>
 </g>
</svg>

<style type='text/css'>
<![CDATA[
[data-mouse-over-selected='false'] { opacity: 0.7; }
[data-mouse-over-selected='true']  { opacity: 1.0; }
]]>
</style>
<script type="application/ecmascript"><![CDATA[
document.addEventListener('DOMContentLoaded', (event) => {
  highlightEdges();
  highlightAdjacentNodes();
});
]]></script>
</svg>
