<?xml version="1.0" encoding="UTF-8" standalone="no"?>
<!DOCTYPE svg PUBLIC "-//W3C//DTD SVG 1.1//EN"
 "http://www.w3.org/Graphics/SVG/1.1/DTD/svg11.dtd">
<!-- Generated by graphviz version 2.43.0 (0)
 -->
<!-- Title: include Pages: 1 -->
<!--zoomable 114 -->

<svg id="main" version="1.1" xmlns="http://www.w3.org/2000/svg" xmlns:xlink="http://www.w3.org/1999/xlink" xml:space="preserve" onload="init(evt)">

<style type="text/css"><![CDATA[
.node, .edge {opacity: 0.7;}
.node.selected, .edge.selected {opacity: 1;}
.edge:hover path { stroke: red; }
.edge:hover polygon { stroke: red; fill: red; }
]]></style>

<defs>
  <circle id="rim" cx="0" cy="0" r="7"/>
  <circle id="rim2" cx="0" cy="0" r="3.5"/>
  <g id="zoomPlus">
    <use xlink:href="#rim" fill="#404040"><set attributeName="fill" to="#808080" begin="zoomplus.mouseover" end="zoomplus.mouseout"/></use>
    <path d="M-4,0h8M0,-4v8" fill="none" stroke="white" stroke-width="1.5" pointer-events="none"/>
  </g>
  <g id="zoomMin">
    <use xlink:href="#rim" fill="#404040"><set attributeName="fill" to="#808080" begin="zoomminus.mouseover" end="zoomminus.mouseout"/></use>
    <path d="M-4,0h8" fill="none" stroke="white" stroke-width="1.5" pointer-events="none"/>
  </g>
  <g id="arrowUp" transform="translate(30 24)">
    <use xlink:href="#rim"/>
    <path pointer-events="none" fill="none" stroke="white" stroke-width="1.5" d="M0,-3.0v7 M-2.5,-0.5L0,-3.0L2.5,-0.5"/>
  </g>
  <g id="arrowRight" transform="rotate(90) translate(36 -43)">
    <use xlink:href="#rim"/>
    <path pointer-events="none" fill="none" stroke="white" stroke-width="1.5" d="M0,-3.0v7 M-2.5,-0.5L0,-3.0L2.5,-0.5"/>
  </g>
  <g id="arrowDown" transform="rotate(180) translate(-30 -48)">
    <use xlink:href="#rim"/>
    <path pointer-events="none" fill="none" stroke="white" stroke-width="1.5" d="M0,-3.0v7 M-2.5,-0.5L0,-3.0L2.5,-0.5"/>
  </g>
  <g id="arrowLeft" transform="rotate(270) translate(-36 17)">
    <use xlink:href="#rim"/>
    <path pointer-events="none" fill="none" stroke="white" stroke-width="1.5" d="M0,-3.0v7 M-2.5,-0.5L0,-3.0L2.5,-0.5"/>
  </g>
  <g id="resetDef">
    <use xlink:href="#rim2" fill="#404040"><set attributeName="fill" to="#808080" begin="reset.mouseover" end="reset.mouseout"/></use>
  </g>
</defs>
<script type="application/ecmascript">
var viewWidth = 506;
var viewHeight = 114;
var sectionId = 'dynsection-0';
</script>
<script type="application/ecmascript" xlink:href="svg.min.js"/>
<svg id="graph" class="graph">
<g id="viewport">
<title>include</title>
<g id="clust1" class="cluster">
<title>clusterdir_d44c64559bbebec7f509842c48db8b23</title>
<g id="a_clust1"><a xlink:href="dir_d44c64559bbebec7f509842c48db8b23.html" target="_top">
<polygon fill="#e6eefd" stroke="#404040" stroke-width="2" points="8,-8 8,-98 456,-98 456,-8 8,-8"/>
</a>
</g>
</g>
<!-- dir_d44c64559bbebec7f509842c48db8b23 -->
<g id="node1" class="node">
<title>dir_d44c64559bbebec7f509842c48db8b23</title>
<text text-anchor="middle" x="242" y="-78" font-family="Helvetica,sans-Serif" font-size="10.00">include</text>
</g>
<!-- dir_98ff7954eb3842da01d2ae02361edfa5 -->
<g id="node2" class="node">
<title>dir_98ff7954eb3842da01d2ae02361edfa5</title>
<g id="a_node2"><a xlink:href="dir_98ff7954eb3842da01d2ae02361edfa5.html" target="_top" xlink:title="app">
<polygon fill="#82a9f6" stroke="#404040" points="51.5,-35 16.5,-35 16.5,-16 51.5,-16 51.5,-35"/>
<text text-anchor="middle" x="34" y="-23" font-family="Helvetica,sans-Serif" font-size="10.00">app</text>
</a>
</g>
</g>
<!-- dir_d44c64559bbebec7f509842c48db8b23&#45;&gt;dir_98ff7954eb3842da01d2ae02361edfa5 -->
<g id="edge3" class="edge">
<title>dir_d44c64559bbebec7f509842c48db8b23&#45;&gt;dir_98ff7954eb3842da01d2ae02361edfa5</title>
<g id="a_edge3"><a xlink:href="dir_000008_000001.html" target="_top">
<path fill="none" stroke="#63b8ff" d="M215.79,-73.61C182.25,-65.95 122.19,-51.84 61.42,-34.97"/>
<polygon fill="#63b8ff" stroke="#63b8ff" points="62.24,-31.57 51.67,-32.24 60.36,-38.31 62.24,-31.57"/>
</a>
</g>
<g id="a_edge3&#45;headlabel"><a xlink:href="dir_000008_000001.html" target="_top" xlink:title="2">
<text text-anchor="middle" x="66.47" y="-27.3" font-family="Helvetica,sans-Serif" font-size="10.00" fill="#63b8ff">2</text>
</a>
</g>
</g>
<!-- dir_f2d98db52843b738f4b0d5c05695337b -->
<g id="node3" class="node">
<title>dir_f2d98db52843b738f4b0d5c05695337b</title>
<g id="a_node3"><a xlink:href="dir_f2d98db52843b738f4b0d5c05695337b.html" target="_top" xlink:title="audio">
<polygon fill="#82a9f6" stroke="#404040" points="114,-35 70,-35 70,-16 114,-16 114,-35"/>
<text text-anchor="middle" x="92" y="-23" font-family="Helvetica,sans-Serif" font-size="10.00">audio</text>
</a>
</g>
</g>
<!-- dir_d44c64559bbebec7f509842c48db8b23&#45;&gt;dir_f2d98db52843b738f4b0d5c05695337b -->
<g id="edge7" class="edge">
<title>dir_d44c64559bbebec7f509842c48db8b23&#45;&gt;dir_f2d98db52843b738f4b0d5c05695337b</title>
<g id="a_edge7"><a xlink:href="dir_000008_000002.html" target="_top">
<path fill="none" stroke="#63b8ff" d="M217.9,-70.98C192.38,-61.97 151.97,-47.69 123.84,-37.75"/>
<polygon fill="#63b8ff" stroke="#63b8ff" points="124.68,-34.33 114.09,-34.3 122.35,-40.94 124.68,-34.33"/>
</a>
</g>
<g id="a_edge7&#45;headlabel"><a xlink:href="dir_000008_000002.html" target="_top" xlink:title="1">
<text text-anchor="middle" x="129.02" y="-30.36" font-family="Helvetica,sans-Serif" font-size="10.00" fill="#63b8ff">1</text>
</a>
</g>
</g>
<!-- dir_3d69f64eaf81436fe2b22361382717e5 -->
<g id="node4" class="node">
<title>dir_3d69f64eaf81436fe2b22361382717e5</title>
<g id="a_node4"><a xlink:href="dir_3d69f64eaf81436fe2b22361382717e5.html" target="_top" xlink:title="core">
<polygon fill="#82a9f6" stroke="#404040" points="170,-35 132,-35 132,-16 170,-16 170,-35"/>
<text text-anchor="middle" x="151" y="-23" font-family="Helvetica,sans-Serif" font-size="10.00">core</text>
</a>
</g>
</g>
<!-- dir_d44c64559bbebec7f509842c48db8b23&#45;&gt;dir_3d69f64eaf81436fe2b22361382717e5 -->
<g id="edge1" class="edge">
<title>dir_d44c64559bbebec7f509842c48db8b23&#45;&gt;dir_3d69f64eaf81436fe2b22361382717e5</title>
<g id="a_edge1"><a xlink:href="dir_000008_000004.html" target="_top">
<path fill="none" stroke="#63b8ff" d="M227.38,-70.98C213.14,-62.69 191.25,-49.94 174.55,-40.22"/>
<polygon fill="#63b8ff" stroke="#63b8ff" points="176.29,-37.18 165.89,-35.17 172.77,-43.23 176.29,-37.18"/>
</a>
</g>
<g id="a_edge1&#45;headlabel"><a xlink:href="dir_000008_000004.html" target="_top" xlink:title="20">
<text text-anchor="middle" x="180.82" y="-34.03" font-family="Helvetica,sans-Serif" font-size="10.00" fill="#63b8ff">20</text>
</a>
</g>
</g>
<!-- dir_fba38f648377aa56ae5d69782adf9e53 -->
<g id="node5" class="node">
<title>dir_fba38f648377aa56ae5d69782adf9e53</title>
<g id="a_node5"><a xlink:href="dir_fba38f648377aa56ae5d69782adf9e53.html" target="_top" xlink:title="math">
<polygon fill="#82a9f6" stroke="#404040" points="230,-35 188,-35 188,-16 230,-16 230,-35"/>
<text text-anchor="middle" x="209" y="-23" font-family="Helvetica,sans-Serif" font-size="10.00">math</text>
</a>
</g>
</g>
<!-- dir_d44c64559bbebec7f509842c48db8b23&#45;&gt;dir_fba38f648377aa56ae5d69782adf9e53 -->
<g id="edge8" class="edge">
<title>dir_d44c64559bbebec7f509842c48db8b23&#45;&gt;dir_fba38f648377aa56ae5d69782adf9e53</title>
<g id="a_edge8"><a xlink:href="dir_000008_000011.html" target="_top">
<path fill="none" stroke="#63b8ff" d="M236.55,-70.75C231.99,-63.42 225.33,-52.73 219.71,-43.7"/>
<polygon fill="#63b8ff" stroke="#63b8ff" points="222.6,-41.73 214.35,-35.09 216.66,-45.43 222.6,-41.73"/>
</a>
</g>
<g id="a_edge8&#45;headlabel"><a xlink:href="dir_000008_000011.html" target="_top" xlink:title="6">
<text text-anchor="middle" x="226.91" y="-40.78" font-family="Helvetica,sans-Serif" font-size="10.00" fill="#63b8ff">6</text>
</a>
</g>
</g>
<!-- dir_dafb25a37831a87d2e2e8b780f24e872 -->
<g id="node6" class="node">
<title>dir_dafb25a37831a87d2e2e8b780f24e872</title>
<g id="a_node6"><a xlink:href="dir_dafb25a37831a87d2e2e8b780f24e872.html" target="_top" xlink:title="network">
<polygon fill="#82a9f6" stroke="#404040" points="304,-35 248,-35 248,-16 304,-16 304,-35"/>
<text text-anchor="middle" x="276" y="-23" font-family="Helvetica,sans-Serif" font-size="10.00">network</text>
</a>
</g>
</g>
<!-- dir_d44c64559bbebec7f509842c48db8b23&#45;&gt;dir_dafb25a37831a87d2e2e8b780f24e872 -->
<g id="edge6" class="edge">
<title>dir_d44c64559bbebec7f509842c48db8b23&#45;&gt;dir_dafb25a37831a87d2e2e8b780f24e872</title>
<g id="a_edge6"><a xlink:href="dir_000008_000013.html" target="_top">
<path fill="none" stroke="#63b8ff" d="M247.61,-70.75C252.32,-63.42 259.17,-52.73 264.97,-43.7"/>
<polygon fill="#63b8ff" stroke="#63b8ff" points="268.04,-45.4 270.49,-35.09 262.14,-41.62 268.04,-45.4"/>
</a>
</g>
<g id="a_edge6&#45;headlabel"><a xlink:href="dir_000008_000013.html" target="_top" xlink:title="1">
<text text-anchor="middle" x="268.49" y="-47.45" font-family="Helvetica,sans-Serif" font-size="10.00" fill="#63b8ff">1</text>
</a>
</g>
</g>
<!-- dir_ac186d3e8926949364e5821f25491cc3 -->
<g id="node7" class="node">
<title>dir_ac186d3e8926949364e5821f25491cc3</title>
<g id="a_node7"><a xlink:href="dir_ac186d3e8926949364e5821f25491cc3.html" target="_top" xlink:title="platform">
<polygon fill="#82a9f6" stroke="#404040" points="381.5,-35 322.5,-35 322.5,-16 381.5,-16 381.5,-35"/>
<text text-anchor="middle" x="352" y="-23" font-family="Helvetica,sans-Serif" font-size="10.00">platform</text>
</a>
</g>
</g>
<!-- dir_d44c64559bbebec7f509842c48db8b23&#45;&gt;dir_ac186d3e8926949364e5821f25491cc3 -->
<g id="edge4" class="edge">
<title>dir_d44c64559bbebec7f509842c48db8b23&#45;&gt;dir_ac186d3e8926949364e5821f25491cc3</title>
<g id="a_edge4"><a xlink:href="dir_000008_000014.html" target="_top">
<path fill="none" stroke="#63b8ff" d="M259.67,-70.98C277.29,-62.5 304.58,-49.35 324.93,-39.54"/>
<polygon fill="#63b8ff" stroke="#63b8ff" points="326.52,-42.66 334.01,-35.17 323.48,-36.36 326.52,-42.66"/>
</a>
</g>
<g id="a_edge4&#45;headlabel"><a xlink:href="dir_000008_000014.html" target="_top" xlink:title="2">
<text text-anchor="middle" x="324.51" y="-44.28" font-family="Helvetica,sans-Serif" font-size="10.00" fill="#63b8ff">2</text>
</a>
</g>
</g>
<!-- dir_ada157988d47c0ed8971be2c0e2fe61c -->
<g id="node8" class="node">
<title>dir_ada157988d47c0ed8971be2c0e2fe61c</title>
<g id="a_node8"><a xlink:href="dir_ada157988d47c0ed8971be2c0e2fe61c.html" target="_top" xlink:title="render">
<polygon fill="#82a9f6" stroke="#404040" points="448,-35 400,-35 400,-16 448,-16 448,-35"/>
<text text-anchor="middle" x="424" y="-23" font-family="Helvetica,sans-Serif" font-size="10.00">render</text>
</a>
</g>
</g>
<!-- dir_d44c64559bbebec7f509842c48db8b23&#45;&gt;dir_ada157988d47c0ed8971be2c0e2fe61c -->
<g id="edge5" class="edge">
<title>dir_d44c64559bbebec7f509842c48db8b23&#45;&gt;dir_ada157988d47c0ed8971be2c0e2fe61c</title>
<g id="a_edge5"><a xlink:href="dir_000008_000016.html" target="_top">
<path fill="none" stroke="#63b8ff" d="M268.08,-71.91C300.1,-62.58 354.52,-46.73 389.85,-36.44"/>
<polygon fill="#63b8ff" stroke="#63b8ff" points="391.09,-39.73 399.72,-33.57 389.14,-33.01 391.09,-39.73"/>
</a>
</g>
<g id="a_edge5&#45;headlabel"><a xlink:href="dir_000008_000016.html" target="_top" xlink:title="1">
<text text-anchor="middle" x="388.44" y="-40.96" font-family="Helvetica,sans-Serif" font-size="10.00" fill="#63b8ff">1</text>
</a>
</g>
</g>
<!-- dir_68267d1309a1af8e8297ef4c3efbcdba -->
<g id="node9" class="node">
<title>dir_68267d1309a1af8e8297ef4c3efbcdba</title>
<g id="a_node9"><a xlink:href="dir_68267d1309a1af8e8297ef4c3efbcdba.html" target="_top" xlink:title="src">
<polygon fill="#e6eefd" stroke="red" points="497.5,-35 466.5,-35 466.5,-16 497.5,-16 497.5,-35"/>
<text text-anchor="middle" x="482" y="-23" font-family="Helvetica,sans-Serif" font-size="10.00">src</text>
</a>
</g>
</g>
<!-- dir_d44c64559bbebec7f509842c48db8b23&#45;&gt;dir_68267d1309a1af8e8297ef4c3efbcdba -->
<g id="edge2" class="edge">
<title>dir_d44c64559bbebec7f509842c48db8b23&#45;&gt;dir_68267d1309a1af8e8297ef4c3efbcdba</title>
<g id="a_edge2"><a xlink:href="dir_000008_000017.html" target="_top">
<path fill="none" stroke="#63b8ff" d="M268.18,-75.61C307.69,-69.43 384.96,-56.14 456.63,-35.74"/>
<polygon fill="#63b8ff" stroke="#63b8ff" points="457.62,-39.1 466.25,-32.95 455.67,-32.38 457.62,-39.1"/>
</a>
</g>
<g id="a_edge2&#45;headlabel"><a xlink:href="dir_000008_000017.html" target="_top" xlink:title="1">
<text text-anchor="middle" x="454.96" y="-40.33" font-family="Helvetica,sans-Serif" font-size="10.00" fill="#63b8ff">1</text>
</a>
</g>
</g>
</g>
</svg>

<g id="navigator" transform="translate(0 0)" fill="#404254">
  <rect fill="#f2f5e9" fill-opacity="0.5" stroke="#606060" stroke-width=".5" x="0" y="0" width="60" height="60"/>
  <use id="zoomplus" xlink:href="#zoomPlus" x="17" y="9" onmousedown="handleZoom(evt,'in')"/>
  <use id="zoomminus" xlink:href="#zoomMin" x="42" y="9" onmousedown="handleZoom(evt,'out')"/>
  <use id="reset" xlink:href="#resetDef" x="30" y="36" onmousedown="handleReset()"/>
   <use id="arrowup" xlink:href="#arrowUp" x="0" y="0" onmousedown="handlePan(0,-1)"/>
  <use id="arrowright" xlink:href="#arrowRight" x="0" y="0" onmousedown="handlePan(1,0)"/>
  <use id="arrowdown" xlink:href="#arrowDown" x="0" y="0" onmousedown="handlePan(0,1)"/>
  <use id="arrowleft" xlink:href="#arrowLeft" x="0" y="0" onmousedown="handlePan(-1,0)"/>
</g>
<svg viewBox="0 0 15 15" width="100%" height="30px" preserveAspectRatio="xMaxYMin meet">
 <g id="arrow_out" transform="scale(0.3 0.3)">
  <a xlink:href="dir_d44c64559bbebec7f509842c48db8b23_dep_org.svg" target="_base">
   <rect id="button" ry="5" rx="5" y="6" x="6" height="38" width="38"
        fill="#f2f5e9" fill-opacity="0.5" stroke="#606060" stroke-width="1.0"/>
   <path id="arrow"
     d="M 11.500037,31.436501 C 11.940474,20.09759 22.043105,11.32322 32.158766,21.979434 L 37.068811,17.246167 C 37.068811,17.246167 37.088388,32 37.088388,32 L 22.160133,31.978069 C 22.160133,31.978069 26.997745,27.140456 26.997745,27.140456 C 18.528582,18.264221 13.291696,25.230495 11.500037,31.436501 z"
     style="fill:#404040;"/>
  </a>
 </g>
</svg>

<style type='text/css'>
<![CDATA[
[data-mouse-over-selected='false'] { opacity: 0.7; }
[data-mouse-over-selected='true']  { opacity: 1.0; }
]]>
</style>
<script type="application/ecmascript"><![CDATA[
document.addEventListener('DOMContentLoaded', (event) => {
  highlightEdges();
  highlightAdjacentNodes();
});
]]></script>
</svg>
