<?xml version="1.0" encoding="UTF-8" standalone="no"?>
<!DOCTYPE svg PUBLIC "-//W3C//DTD SVG 1.1//EN"
 "http://www.w3.org/Graphics/SVG/1.1/DTD/svg11.dtd">
<!-- Generated by graphviz version 2.43.0 (0)
 -->
<!-- Title: src Pages: 1 -->
<svg width="439pt" height="98pt"
 viewBox="0.00 0.00 439.00 98.00" xmlns="http://www.w3.org/2000/svg" xmlns:xlink="http://www.w3.org/1999/xlink">
<g id="page0,1_graph0" class="graph" transform="scale(1 1) rotate(0) translate(4 94)">
<title>src</title>
<g id="clust1" class="cluster">
<title>clusterdir_68267d1309a1af8e8297ef4c3efbcdba</title>
<g id="a_clust1"><a xlink:href="dir_68267d1309a1af8e8297ef4c3efbcdba.html" target="_top">
<polygon fill="#e6eefd" stroke="#404040" stroke-width="2" points="8,-47 8,-82 423,-82 423,-47 8,-47"/>
</a>
</g>
</g>
<!-- dir_68267d1309a1af8e8297ef4c3efbcdba -->
<g id="node1" class="node">
<title>dir_68267d1309a1af8e8297ef4c3efbcdba</title>
<text text-anchor="middle" x="399" y="-62" font-family="Helvetica,sans-Serif" font-size="10.00">src</text>
</g>
<!-- dir_844f6ab5c2ae79211596f3dcdd81adb7 -->
<g id="node2" class="node">
<title>dir_844f6ab5c2ae79211596f3dcdd81adb7</title>
<g id="a_node2"><a xlink:href="dir_844f6ab5c2ae79211596f3dcdd81adb7.html" target="_top" xlink:title="application">
<polygon fill="#82a9f6" stroke="#404040" points="365.5,-74 294.5,-74 294.5,-55 365.5,-55 365.5,-74"/>
<text text-anchor="middle" x="330" y="-62" font-family="Helvetica,sans-Serif" font-size="10.00">application</text>
</a>
</g>
</g>
<!-- dir_d44c64559bbebec7f509842c48db8b23 -->
<g id="node7" class="node">
<title>dir_d44c64559bbebec7f509842c48db8b23</title>
<g id="a_node7"><a xlink:href="dir_d44c64559bbebec7f509842c48db8b23.html" target="_top" xlink:title="include">
<polygon fill="#e6eefd" stroke="red" points="218,-19 166,-19 166,0 218,0 218,-19"/>
<text text-anchor="middle" x="192" y="-7" font-family="Helvetica,sans-Serif" font-size="10.00">include</text>
</a>
</g>
</g>
<!-- dir_844f6ab5c2ae79211596f3dcdd81adb7&#45;&gt;dir_d44c64559bbebec7f509842c48db8b23 -->
<g id="edge1" class="edge">
<title>dir_844f6ab5c2ae79211596f3dcdd81adb7&#45;&gt;dir_d44c64559bbebec7f509842c48db8b23</title>
<g id="a_edge1"><a xlink:href="dir_000002_000017.html" target="_top">
<path fill="none" stroke="#63b8ff" d="M307.83,-54.98C285.23,-46.3 249.94,-32.75 224.25,-22.88"/>
<polygon fill="#63b8ff" stroke="#63b8ff" points="225.17,-19.49 214.58,-19.17 222.66,-26.02 225.17,-19.49"/>
</a>
</g>
<g id="a_edge1&#45;headlabel"><a xlink:href="dir_000002_000017.html" target="_top" xlink:title="2">
<text text-anchor="middle" x="229.54" y="-15.63" font-family="Helvetica,sans-Serif" font-size="10.00" fill="#63b8ff">2</text>
</a>
</g>
</g>
<!-- dir_aebb8dcc11953d78e620bbef0b9e2183 -->
<g id="node3" class="node">
<title>dir_aebb8dcc11953d78e620bbef0b9e2183</title>
<g id="a_node3"><a xlink:href="dir_aebb8dcc11953d78e620bbef0b9e2183.html" target="_top" xlink:title="core">
<polygon fill="#82a9f6" stroke="#404040" points="276,-74 238,-74 238,-55 276,-55 276,-74"/>
<text text-anchor="middle" x="257" y="-62" font-family="Helvetica,sans-Serif" font-size="10.00">core</text>
</a>
</g>
</g>
<!-- dir_aebb8dcc11953d78e620bbef0b9e2183&#45;&gt;dir_d44c64559bbebec7f509842c48db8b23 -->
<g id="edge2" class="edge">
<title>dir_aebb8dcc11953d78e620bbef0b9e2183&#45;&gt;dir_d44c64559bbebec7f509842c48db8b23</title>
<g id="a_edge2"><a xlink:href="dir_000009_000017.html" target="_top">
<path fill="none" stroke="#63b8ff" d="M246.56,-54.98C236.85,-47.07 222.18,-35.11 210.5,-25.58"/>
<polygon fill="#63b8ff" stroke="#63b8ff" points="212.6,-22.78 202.63,-19.17 208.17,-28.2 212.6,-22.78"/>
</a>
</g>
<g id="a_edge2&#45;headlabel"><a xlink:href="dir_000009_000017.html" target="_top" xlink:title="4">
<text text-anchor="middle" x="217.18" y="-20.35" font-family="Helvetica,sans-Serif" font-size="10.00" fill="#63b8ff">4</text>
</a>
</g>
</g>
<!-- dir_fc4c7f03e1a69a98c370fae55a743828 -->
<g id="node4" class="node">
<title>dir_fc4c7f03e1a69a98c370fae55a743828</title>
<g id="a_node4"><a xlink:href="dir_fc4c7f03e1a69a98c370fae55a743828.html" target="_top" xlink:title="network">
<polygon fill="#82a9f6" stroke="#404040" points="220,-74 164,-74 164,-55 220,-55 220,-74"/>
<text text-anchor="middle" x="192" y="-62" font-family="Helvetica,sans-Serif" font-size="10.00">network</text>
</a>
</g>
</g>
<!-- dir_fc4c7f03e1a69a98c370fae55a743828&#45;&gt;dir_d44c64559bbebec7f509842c48db8b23 -->
<g id="edge3" class="edge">
<title>dir_fc4c7f03e1a69a98c370fae55a743828&#45;&gt;dir_d44c64559bbebec7f509842c48db8b23</title>
<g id="a_edge3"><a xlink:href="dir_000023_000017.html" target="_top">
<path fill="none" stroke="#63b8ff" d="M192,-54.75C192,-47.8 192,-37.85 192,-29.13"/>
<polygon fill="#63b8ff" stroke="#63b8ff" points="195.5,-29.09 192,-19.09 188.5,-29.09 195.5,-29.09"/>
</a>
</g>
<g id="a_edge3&#45;headlabel"><a xlink:href="dir_000023_000017.html" target="_top" xlink:title="1">
<text text-anchor="middle" x="198.34" y="-30.18" font-family="Helvetica,sans-Serif" font-size="10.00" fill="#63b8ff">1</text>
</a>
</g>
</g>
<!-- dir_ceed1ce8f89ba04e240f3818f1ccc961 -->
<g id="node5" class="node">
<title>dir_ceed1ce8f89ba04e240f3818f1ccc961</title>
<g id="a_node5"><a xlink:href="dir_ceed1ce8f89ba04e240f3818f1ccc961.html" target="_top" xlink:title="platforms">
<polygon fill="#82a9f6" stroke="#404040" points="146,-74 82,-74 82,-55 146,-55 146,-74"/>
<text text-anchor="middle" x="114" y="-62" font-family="Helvetica,sans-Serif" font-size="10.00">platforms</text>
</a>
</g>
</g>
<!-- dir_ceed1ce8f89ba04e240f3818f1ccc961&#45;&gt;dir_d44c64559bbebec7f509842c48db8b23 -->
<g id="edge4" class="edge">
<title>dir_ceed1ce8f89ba04e240f3818f1ccc961&#45;&gt;dir_d44c64559bbebec7f509842c48db8b23</title>
<g id="a_edge4"><a xlink:href="dir_000025_000017.html" target="_top">
<path fill="none" stroke="#63b8ff" d="M126.53,-54.98C138.4,-46.92 156.46,-34.65 170.61,-25.03"/>
<polygon fill="#63b8ff" stroke="#63b8ff" points="172.94,-27.69 179.24,-19.17 169,-21.9 172.94,-27.69"/>
</a>
</g>
<g id="a_edge4&#45;headlabel"><a xlink:href="dir_000025_000017.html" target="_top" xlink:title="13">
<text text-anchor="middle" x="171.56" y="-29.55" font-family="Helvetica,sans-Serif" font-size="10.00" fill="#63b8ff">13</text>
</a>
</g>
</g>
<!-- dir_e488ee1cea97fb16abdb5ccc78d2123b -->
<g id="node6" class="node">
<title>dir_e488ee1cea97fb16abdb5ccc78d2123b</title>
<g id="a_node6"><a xlink:href="dir_e488ee1cea97fb16abdb5ccc78d2123b.html" target="_top" xlink:title="render">
<polygon fill="#82a9f6" stroke="#404040" points="64,-74 16,-74 16,-55 64,-55 64,-74"/>
<text text-anchor="middle" x="40" y="-62" font-family="Helvetica,sans-Serif" font-size="10.00">render</text>
</a>
</g>
</g>
<!-- dir_e488ee1cea97fb16abdb5ccc78d2123b&#45;&gt;dir_d44c64559bbebec7f509842c48db8b23 -->
<g id="edge5" class="edge">
<title>dir_e488ee1cea97fb16abdb5ccc78d2123b&#45;&gt;dir_d44c64559bbebec7f509842c48db8b23</title>
<g id="a_edge5"><a xlink:href="dir_000027_000017.html" target="_top">
<path fill="none" stroke="#63b8ff" d="M55.87,-54.9C61.22,-52.18 67.29,-49.28 73,-47 100.21,-36.11 131.99,-26.52 155.86,-19.9"/>
<polygon fill="#63b8ff" stroke="#63b8ff" points="156.84,-23.26 165.57,-17.25 155,-16.51 156.84,-23.26"/>
</a>
</g>
<g id="a_edge5&#45;headlabel"><a xlink:href="dir_000027_000017.html" target="_top" xlink:title="1">
<text text-anchor="middle" x="154.12" y="-24.44" font-family="Helvetica,sans-Serif" font-size="10.00" fill="#63b8ff">1</text>
</a>
</g>
</g>
</g>
</svg>
