<?xml version="1.0" encoding="UTF-8" standalone="no"?>
<!DOCTYPE svg PUBLIC "-//W3C//DTD SVG 1.1//EN"
 "http://www.w3.org/Graphics/SVG/1.1/DTD/svg11.dtd">
<!-- Generated by graphviz version 2.43.0 (0)
 -->
<!-- Title: include Pages: 1 -->
<!--zoomable 114 -->

<svg id="main" version="1.1" xmlns="http://www.w3.org/2000/svg" xmlns:xlink="http://www.w3.org/1999/xlink" xml:space="preserve" onload="init(evt)">

<style type="text/css"><![CDATA[
.node, .edge {opacity: 0.7;}
.node.selected, .edge.selected {opacity: 1;}
.edge:hover path { stroke: red; }
.edge:hover polygon { stroke: red; fill: red; }
]]></style>

<defs>
  <circle id="rim" cx="0" cy="0" r="7"/>
  <circle id="rim2" cx="0" cy="0" r="3.5"/>
  <g id="zoomPlus">
    <use xlink:href="#rim" fill="#404040"><set attributeName="fill" to="#808080" begin="zoomplus.mouseover" end="zoomplus.mouseout"/></use>
    <path d="M-4,0h8M0,-4v8" fill="none" stroke="white" stroke-width="1.5" pointer-events="none"/>
  </g>
  <g id="zoomMin">
    <use xlink:href="#rim" fill="#404040"><set attributeName="fill" to="#808080" begin="zoomminus.mouseover" end="zoomminus.mouseout"/></use>
    <path d="M-4,0h8" fill="none" stroke="white" stroke-width="1.5" pointer-events="none"/>
  </g>
  <g id="arrowUp" transform="translate(30 24)">
    <use xlink:href="#rim"/>
    <path pointer-events="none" fill="none" stroke="white" stroke-width="1.5" d="M0,-3.0v7 M-2.5,-0.5L0,-3.0L2.5,-0.5"/>
  </g>
  <g id="arrowRight" transform="rotate(90) translate(36 -43)">
    <use xlink:href="#rim"/>
    <path pointer-events="none" fill="none" stroke="white" stroke-width="1.5" d="M0,-3.0v7 M-2.5,-0.5L0,-3.0L2.5,-0.5"/>
  </g>
  <g id="arrowDown" transform="rotate(180) translate(-30 -48)">
    <use xlink:href="#rim"/>
    <path pointer-events="none" fill="none" stroke="white" stroke-width="1.5" d="M0,-3.0v7 M-2.5,-0.5L0,-3.0L2.5,-0.5"/>
  </g>
  <g id="arrowLeft" transform="rotate(270) translate(-36 17)">
    <use xlink:href="#rim"/>
    <path pointer-events="none" fill="none" stroke="white" stroke-width="1.5" d="M0,-3.0v7 M-2.5,-0.5L0,-3.0L2.5,-0.5"/>
  </g>
  <g id="resetDef">
    <use xlink:href="#rim2" fill="#404040"><set attributeName="fill" to="#808080" begin="reset.mouseover" end="reset.mouseout"/></use>
  </g>
</defs>
<script type="application/ecmascript">
var viewWidth = 568;
var viewHeight = 114;
var sectionId = 'dynsection-0';
</script>
<script type="application/ecmascript" xlink:href="svg.min.js"/>
<svg id="graph" class="graph">
<g id="viewport">
<title>include</title>
<g id="clust1" class="cluster">
<title>clusterdir_d44c64559bbebec7f509842c48db8b23</title>
<g id="a_clust1"><a xlink:href="dir_d44c64559bbebec7f509842c48db8b23.html" target="_top">
<polygon fill="#e6eefd" stroke="#404040" stroke-width="2" points="8,-8 8,-98 518,-98 518,-8 8,-8"/>
</a>
</g>
</g>
<!-- dir_d44c64559bbebec7f509842c48db8b23 -->
<g id="node1" class="node">
<title>dir_d44c64559bbebec7f509842c48db8b23</title>
<text text-anchor="middle" x="271" y="-78" font-family="Helvetica,sans-Serif" font-size="10.00">include</text>
</g>
<!-- dir_98ff7954eb3842da01d2ae02361edfa5 -->
<g id="node2" class="node">
<title>dir_98ff7954eb3842da01d2ae02361edfa5</title>
<g id="a_node2"><a xlink:href="dir_98ff7954eb3842da01d2ae02361edfa5.html" target="_top" xlink:title="app">
<polygon fill="#82a9f6" stroke="#404040" points="51.5,-35 16.5,-35 16.5,-16 51.5,-16 51.5,-35"/>
<text text-anchor="middle" x="34" y="-23" font-family="Helvetica,sans-Serif" font-size="10.00">app</text>
</a>
</g>
</g>
<!-- dir_d44c64559bbebec7f509842c48db8b23&#45;&gt;dir_98ff7954eb3842da01d2ae02361edfa5 -->
<g id="edge3" class="edge">
<title>dir_d44c64559bbebec7f509842c48db8b23&#45;&gt;dir_98ff7954eb3842da01d2ae02361edfa5</title>
<g id="a_edge3"><a xlink:href="dir_000009_000001.html" target="_top">
<path fill="none" stroke="#63b8ff" d="M244.95,-74.81C206.78,-67.77 133.27,-53.53 61.33,-34.86"/>
<polygon fill="#63b8ff" stroke="#63b8ff" points="62.21,-31.48 51.65,-32.32 60.43,-38.25 62.21,-31.48"/>
</a>
</g>
<g id="a_edge3&#45;headlabel"><a xlink:href="dir_000009_000001.html" target="_top" xlink:title="2">
<text text-anchor="middle" x="66.41" y="-27.14" font-family="Helvetica,sans-Serif" font-size="10.00" fill="#63b8ff">2</text>
</a>
</g>
</g>
<!-- dir_f2d98db52843b738f4b0d5c05695337b -->
<g id="node3" class="node">
<title>dir_f2d98db52843b738f4b0d5c05695337b</title>
<g id="a_node3"><a xlink:href="dir_f2d98db52843b738f4b0d5c05695337b.html" target="_top" xlink:title="audio">
<polygon fill="#82a9f6" stroke="#404040" points="114,-35 70,-35 70,-16 114,-16 114,-35"/>
<text text-anchor="middle" x="92" y="-23" font-family="Helvetica,sans-Serif" font-size="10.00">audio</text>
</a>
</g>
</g>
<!-- dir_d44c64559bbebec7f509842c48db8b23&#45;&gt;dir_f2d98db52843b738f4b0d5c05695337b -->
<g id="edge7" class="edge">
<title>dir_d44c64559bbebec7f509842c48db8b23&#45;&gt;dir_f2d98db52843b738f4b0d5c05695337b</title>
<g id="a_edge7"><a xlink:href="dir_000009_000002.html" target="_top">
<path fill="none" stroke="#63b8ff" d="M244.97,-71.79C212.85,-62.28 158.25,-46.12 123.71,-35.89"/>
<polygon fill="#63b8ff" stroke="#63b8ff" points="124.69,-32.53 114.11,-33.05 122.7,-39.24 124.69,-32.53"/>
</a>
</g>
<g id="a_edge7&#45;headlabel"><a xlink:href="dir_000009_000002.html" target="_top" xlink:title="1">
<text text-anchor="middle" x="128.94" y="-28.33" font-family="Helvetica,sans-Serif" font-size="10.00" fill="#63b8ff">1</text>
</a>
</g>
</g>
<!-- dir_3d69f64eaf81436fe2b22361382717e5 -->
<g id="node4" class="node">
<title>dir_3d69f64eaf81436fe2b22361382717e5</title>
<g id="a_node4"><a xlink:href="dir_3d69f64eaf81436fe2b22361382717e5.html" target="_top" xlink:title="core">
<polygon fill="#82a9f6" stroke="#404040" points="170,-35 132,-35 132,-16 170,-16 170,-35"/>
<text text-anchor="middle" x="151" y="-23" font-family="Helvetica,sans-Serif" font-size="10.00">core</text>
</a>
</g>
</g>
<!-- dir_d44c64559bbebec7f509842c48db8b23&#45;&gt;dir_3d69f64eaf81436fe2b22361382717e5 -->
<g id="edge1" class="edge">
<title>dir_d44c64559bbebec7f509842c48db8b23&#45;&gt;dir_3d69f64eaf81436fe2b22361382717e5</title>
<g id="a_edge1"><a xlink:href="dir_000009_000004.html" target="_top">
<path fill="none" stroke="#63b8ff" d="M251.72,-70.98C232.21,-62.37 201.83,-48.95 179.54,-39.1"/>
<polygon fill="#63b8ff" stroke="#63b8ff" points="180.79,-35.83 170.23,-34.99 177.97,-42.24 180.79,-35.83"/>
</a>
</g>
<g id="a_edge1&#45;headlabel"><a xlink:href="dir_000009_000004.html" target="_top" xlink:title="20">
<text text-anchor="middle" x="185.23" y="-32.19" font-family="Helvetica,sans-Serif" font-size="10.00" fill="#63b8ff">20</text>
</a>
</g>
</g>
<!-- dir_f307a46daed1218fee22380d1eacedba -->
<g id="node5" class="node">
<title>dir_f307a46daed1218fee22380d1eacedba</title>
<g id="a_node5"><a xlink:href="dir_f307a46daed1218fee22380d1eacedba.html" target="_top" xlink:title="game">
<polygon fill="#82a9f6" stroke="#404040" points="232,-35 188,-35 188,-16 232,-16 232,-35"/>
<text text-anchor="middle" x="210" y="-23" font-family="Helvetica,sans-Serif" font-size="10.00">game</text>
</a>
</g>
</g>
<!-- dir_d44c64559bbebec7f509842c48db8b23&#45;&gt;dir_f307a46daed1218fee22380d1eacedba -->
<g id="edge8" class="edge">
<title>dir_d44c64559bbebec7f509842c48db8b23&#45;&gt;dir_f307a46daed1218fee22380d1eacedba</title>
<g id="a_edge8"><a xlink:href="dir_000009_000007.html" target="_top">
<path fill="none" stroke="#63b8ff" d="M261.2,-70.98C252.18,-63.15 238.59,-51.34 227.68,-41.86"/>
<polygon fill="#63b8ff" stroke="#63b8ff" points="229.82,-39.09 219.98,-35.17 225.23,-44.37 229.82,-39.09"/>
</a>
</g>
<g id="a_edge8&#45;headlabel"><a xlink:href="dir_000009_000007.html" target="_top" xlink:title="1">
<text text-anchor="middle" x="234.4" y="-36.8" font-family="Helvetica,sans-Serif" font-size="10.00" fill="#63b8ff">1</text>
</a>
</g>
</g>
<!-- dir_fba38f648377aa56ae5d69782adf9e53 -->
<g id="node6" class="node">
<title>dir_fba38f648377aa56ae5d69782adf9e53</title>
<g id="a_node6"><a xlink:href="dir_fba38f648377aa56ae5d69782adf9e53.html" target="_top" xlink:title="math">
<polygon fill="#82a9f6" stroke="#404040" points="292,-35 250,-35 250,-16 292,-16 292,-35"/>
<text text-anchor="middle" x="271" y="-23" font-family="Helvetica,sans-Serif" font-size="10.00">math</text>
</a>
</g>
</g>
<!-- dir_d44c64559bbebec7f509842c48db8b23&#45;&gt;dir_fba38f648377aa56ae5d69782adf9e53 -->
<g id="edge9" class="edge">
<title>dir_d44c64559bbebec7f509842c48db8b23&#45;&gt;dir_fba38f648377aa56ae5d69782adf9e53</title>
<g id="a_edge9"><a xlink:href="dir_000009_000012.html" target="_top">
<path fill="none" stroke="#63b8ff" d="M271,-70.75C271,-63.8 271,-53.85 271,-45.13"/>
<polygon fill="#63b8ff" stroke="#63b8ff" points="274.5,-45.09 271,-35.09 267.5,-45.09 274.5,-45.09"/>
</a>
</g>
<g id="a_edge9&#45;headlabel"><a xlink:href="dir_000009_000012.html" target="_top" xlink:title="7">
<text text-anchor="middle" x="277.34" y="-46.18" font-family="Helvetica,sans-Serif" font-size="10.00" fill="#63b8ff">7</text>
</a>
</g>
</g>
<!-- dir_dafb25a37831a87d2e2e8b780f24e872 -->
<g id="node7" class="node">
<title>dir_dafb25a37831a87d2e2e8b780f24e872</title>
<g id="a_node7"><a xlink:href="dir_dafb25a37831a87d2e2e8b780f24e872.html" target="_top" xlink:title="network">
<polygon fill="#82a9f6" stroke="#404040" points="366,-35 310,-35 310,-16 366,-16 366,-35"/>
<text text-anchor="middle" x="338" y="-23" font-family="Helvetica,sans-Serif" font-size="10.00">network</text>
</a>
</g>
</g>
<!-- dir_d44c64559bbebec7f509842c48db8b23&#45;&gt;dir_dafb25a37831a87d2e2e8b780f24e872 -->
<g id="edge6" class="edge">
<title>dir_d44c64559bbebec7f509842c48db8b23&#45;&gt;dir_dafb25a37831a87d2e2e8b780f24e872</title>
<g id="a_edge6"><a xlink:href="dir_000009_000014.html" target="_top">
<path fill="none" stroke="#63b8ff" d="M281.76,-70.98C291.77,-63.07 306.89,-51.11 318.93,-41.58"/>
<polygon fill="#63b8ff" stroke="#63b8ff" points="321.37,-44.12 327.04,-35.17 317.03,-38.63 321.37,-44.12"/>
</a>
</g>
<g id="a_edge6&#45;headlabel"><a xlink:href="dir_000009_000014.html" target="_top" xlink:title="1">
<text text-anchor="middle" x="320.31" y="-46.08" font-family="Helvetica,sans-Serif" font-size="10.00" fill="#63b8ff">1</text>
</a>
</g>
</g>
<!-- dir_ac186d3e8926949364e5821f25491cc3 -->
<g id="node8" class="node">
<title>dir_ac186d3e8926949364e5821f25491cc3</title>
<g id="a_node8"><a xlink:href="dir_ac186d3e8926949364e5821f25491cc3.html" target="_top" xlink:title="platform">
<polygon fill="#82a9f6" stroke="#404040" points="443.5,-35 384.5,-35 384.5,-16 443.5,-16 443.5,-35"/>
<text text-anchor="middle" x="414" y="-23" font-family="Helvetica,sans-Serif" font-size="10.00">platform</text>
</a>
</g>
</g>
<!-- dir_d44c64559bbebec7f509842c48db8b23&#45;&gt;dir_ac186d3e8926949364e5821f25491cc3 -->
<g id="edge4" class="edge">
<title>dir_d44c64559bbebec7f509842c48db8b23&#45;&gt;dir_ac186d3e8926949364e5821f25491cc3</title>
<g id="a_edge4"><a xlink:href="dir_000009_000015.html" target="_top">
<path fill="none" stroke="#63b8ff" d="M293.98,-70.98C317.5,-62.27 354.29,-48.63 380.94,-38.75"/>
<polygon fill="#63b8ff" stroke="#63b8ff" points="382.45,-41.93 390.61,-35.17 380.01,-35.36 382.45,-41.93"/>
</a>
</g>
<g id="a_edge4&#45;headlabel"><a xlink:href="dir_000009_000015.html" target="_top" xlink:title="2">
<text text-anchor="middle" x="380.06" y="-43.34" font-family="Helvetica,sans-Serif" font-size="10.00" fill="#63b8ff">2</text>
</a>
</g>
</g>
<!-- dir_ada157988d47c0ed8971be2c0e2fe61c -->
<g id="node9" class="node">
<title>dir_ada157988d47c0ed8971be2c0e2fe61c</title>
<g id="a_node9"><a xlink:href="dir_ada157988d47c0ed8971be2c0e2fe61c.html" target="_top" xlink:title="render">
<polygon fill="#82a9f6" stroke="#404040" points="510,-35 462,-35 462,-16 510,-16 510,-35"/>
<text text-anchor="middle" x="486" y="-23" font-family="Helvetica,sans-Serif" font-size="10.00">render</text>
</a>
</g>
</g>
<!-- dir_d44c64559bbebec7f509842c48db8b23&#45;&gt;dir_ada157988d47c0ed8971be2c0e2fe61c -->
<g id="edge5" class="edge">
<title>dir_d44c64559bbebec7f509842c48db8b23&#45;&gt;dir_ada157988d47c0ed8971be2c0e2fe61c</title>
<g id="a_edge5"><a xlink:href="dir_000009_000017.html" target="_top">
<path fill="none" stroke="#63b8ff" d="M297.25,-73.19C330.85,-65.09 391.11,-50.48 452.07,-35.21"/>
<polygon fill="#63b8ff" stroke="#63b8ff" points="453.01,-38.58 461.86,-32.75 451.31,-31.79 453.01,-38.58"/>
</a>
</g>
<g id="a_edge5&#45;headlabel"><a xlink:href="dir_000009_000017.html" target="_top" xlink:title="1">
<text text-anchor="middle" x="450.22" y="-39.71" font-family="Helvetica,sans-Serif" font-size="10.00" fill="#63b8ff">1</text>
</a>
</g>
</g>
<!-- dir_68267d1309a1af8e8297ef4c3efbcdba -->
<g id="node10" class="node">
<title>dir_68267d1309a1af8e8297ef4c3efbcdba</title>
<g id="a_node10"><a xlink:href="dir_68267d1309a1af8e8297ef4c3efbcdba.html" target="_top" xlink:title="src">
<polygon fill="#e6eefd" stroke="red" points="559.5,-35 528.5,-35 528.5,-16 559.5,-16 559.5,-35"/>
<text text-anchor="middle" x="544" y="-23" font-family="Helvetica,sans-Serif" font-size="10.00">src</text>
</a>
</g>
</g>
<!-- dir_d44c64559bbebec7f509842c48db8b23&#45;&gt;dir_68267d1309a1af8e8297ef4c3efbcdba -->
<g id="edge2" class="edge">
<title>dir_d44c64559bbebec7f509842c48db8b23&#45;&gt;dir_68267d1309a1af8e8297ef4c3efbcdba</title>
<g id="a_edge2"><a xlink:href="dir_000009_000018.html" target="_top">
<path fill="none" stroke="#63b8ff" d="M297.02,-76.57C341.31,-71.23 434.2,-58.47 518.55,-35.68"/>
<polygon fill="#63b8ff" stroke="#63b8ff" points="519.55,-39.03 528.26,-33 517.69,-32.29 519.55,-39.03"/>
</a>
</g>
<g id="a_edge2&#45;headlabel"><a xlink:href="dir_000009_000018.html" target="_top" xlink:title="1">
<text text-anchor="middle" x="516.84" y="-40.23" font-family="Helvetica,sans-Serif" font-size="10.00" fill="#63b8ff">1</text>
</a>
</g>
</g>
</g>
</svg>

<g id="navigator" transform="translate(0 0)" fill="#404254">
  <rect fill="#f2f5e9" fill-opacity="0.5" stroke="#606060" stroke-width=".5" x="0" y="0" width="60" height="60"/>
  <use id="zoomplus" xlink:href="#zoomPlus" x="17" y="9" onmousedown="handleZoom(evt,'in')"/>
  <use id="zoomminus" xlink:href="#zoomMin" x="42" y="9" onmousedown="handleZoom(evt,'out')"/>
  <use id="reset" xlink:href="#resetDef" x="30" y="36" onmousedown="handleReset()"/>
   <use id="arrowup" xlink:href="#arrowUp" x="0" y="0" onmousedown="handlePan(0,-1)"/>
  <use id="arrowright" xlink:href="#arrowRight" x="0" y="0" onmousedown="handlePan(1,0)"/>
  <use id="arrowdown" xlink:href="#arrowDown" x="0" y="0" onmousedown="handlePan(0,1)"/>
  <use id="arrowleft" xlink:href="#arrowLeft" x="0" y="0" onmousedown="handlePan(-1,0)"/>
</g>
<svg viewBox="0 0 15 15" width="100%" height="30px" preserveAspectRatio="xMaxYMin meet">
 <g id="arrow_out" transform="scale(0.3 0.3)">
  <a xlink:href="dir_d44c64559bbebec7f509842c48db8b23_dep_org.svg" target="_base">
   <rect id="button" ry="5" rx="5" y="6" x="6" height="38" width="38"
        fill="#f2f5e9" fill-opacity="0.5" stroke="#606060" stroke-width="1.0"/>
   <path id="arrow"
     d="M 11.500037,31.436501 C 11.940474,20.09759 22.043105,11.32322 32.158766,21.979434 L 37.068811,17.246167 C 37.068811,17.246167 37.088388,32 37.088388,32 L 22.160133,31.978069 C 22.160133,31.978069 26.997745,27.140456 26.997745,27.140456 C 18.528582,18.264221 13.291696,25.230495 11.500037,31.436501 z"
     style="fill:#404040;"/>
  </a>
 </g>
</svg>

<style type='text/css'>
<![CDATA[
[data-mouse-over-selected='false'] { opacity: 0.7; }
[data-mouse-over-selected='true']  { opacity: 1.0; }
]]>
</style>
<script type="application/ecmascript"><![CDATA[
document.addEventListener('DOMContentLoaded', (event) => {
  highlightEdges();
  highlightAdjacentNodes();
});
]]></script>
</svg>
