<?xml version="1.0" encoding="UTF-8" standalone="no"?>
<!DOCTYPE svg PUBLIC "-//W3C//DTD SVG 1.1//EN"
 "http://www.w3.org/Graphics/SVG/1.1/DTD/svg11.dtd">
<!-- Generated by graphviz version 2.43.0 (0)
 -->
<!-- Title: src/platforms Pages: 1 -->
<!--zoomable 149 -->

<svg id="main" version="1.1" xmlns="http://www.w3.org/2000/svg" xmlns:xlink="http://www.w3.org/1999/xlink" xml:space="preserve" onload="init(evt)">

<style type="text/css"><![CDATA[
.node, .edge {opacity: 0.7;}
.node.selected, .edge.selected {opacity: 1;}
.edge:hover path { stroke: red; }
.edge:hover polygon { stroke: red; fill: red; }
]]></style>

<defs>
  <circle id="rim" cx="0" cy="0" r="7"/>
  <circle id="rim2" cx="0" cy="0" r="3.5"/>
  <g id="zoomPlus">
    <use xlink:href="#rim" fill="#404040"><set attributeName="fill" to="#808080" begin="zoomplus.mouseover" end="zoomplus.mouseout"/></use>
    <path d="M-4,0h8M0,-4v8" fill="none" stroke="white" stroke-width="1.5" pointer-events="none"/>
  </g>
  <g id="zoomMin">
    <use xlink:href="#rim" fill="#404040"><set attributeName="fill" to="#808080" begin="zoomminus.mouseover" end="zoomminus.mouseout"/></use>
    <path d="M-4,0h8" fill="none" stroke="white" stroke-width="1.5" pointer-events="none"/>
  </g>
  <g id="arrowUp" transform="translate(30 24)">
    <use xlink:href="#rim"/>
    <path pointer-events="none" fill="none" stroke="white" stroke-width="1.5" d="M0,-3.0v7 M-2.5,-0.5L0,-3.0L2.5,-0.5"/>
  </g>
  <g id="arrowRight" transform="rotate(90) translate(36 -43)">
    <use xlink:href="#rim"/>
    <path pointer-events="none" fill="none" stroke="white" stroke-width="1.5" d="M0,-3.0v7 M-2.5,-0.5L0,-3.0L2.5,-0.5"/>
  </g>
  <g id="arrowDown" transform="rotate(180) translate(-30 -48)">
    <use xlink:href="#rim"/>
    <path pointer-events="none" fill="none" stroke="white" stroke-width="1.5" d="M0,-3.0v7 M-2.5,-0.5L0,-3.0L2.5,-0.5"/>
  </g>
  <g id="arrowLeft" transform="rotate(270) translate(-36 17)">
    <use xlink:href="#rim"/>
    <path pointer-events="none" fill="none" stroke="white" stroke-width="1.5" d="M0,-3.0v7 M-2.5,-0.5L0,-3.0L2.5,-0.5"/>
  </g>
  <g id="resetDef">
    <use xlink:href="#rim2" fill="#404040"><set attributeName="fill" to="#808080" begin="reset.mouseover" end="reset.mouseout"/></use>
  </g>
</defs>
<script type="application/ecmascript">
var viewWidth = 852;
var viewHeight = 149;
var sectionId = 'dynsection-0';
</script>
<script type="application/ecmascript" xlink:href="svg.min.js"/>
<svg id="graph" class="graph">
<g id="viewport">
<title>src/platforms</title>
<g id="clust1" class="cluster">
<title>clusterdir_68267d1309a1af8e8297ef4c3efbcdba</title>
<g id="a_clust1"><a xlink:href="dir_68267d1309a1af8e8297ef4c3efbcdba.html" target="_top" xlink:title="src">
<polygon fill="#e6eefd" stroke="#404040" stroke-dasharray="5,2" points="8,-8 8,-133 784,-133 784,-8 8,-8"/>
<text text-anchor="middle" x="396" y="-121" font-family="Helvetica,sans-Serif" font-size="10.00">src</text>
</a>
</g>
</g>
<g id="clust2" class="cluster">
<title>clusterdir_ceed1ce8f89ba04e240f3818f1ccc961</title>
<g id="a_clust2"><a xlink:href="dir_ceed1ce8f89ba04e240f3818f1ccc961.html" target="_top">
<polygon fill="#e6eefd" stroke="#404040" stroke-width="2" points="16,-16 16,-106 776,-106 776,-16 16,-16"/>
</a>
</g>
</g>
<!-- dir_ceed1ce8f89ba04e240f3818f1ccc961 -->
<g id="node1" class="node">
<title>dir_ceed1ce8f89ba04e240f3818f1ccc961</title>
<text text-anchor="middle" x="736" y="-86" font-family="Helvetica,sans-Serif" font-size="10.00">platforms</text>
</g>
<!-- dir_ec42ad78dd6cae3ff203004d8c882467 -->
<g id="node2" class="node">
<title>dir_ec42ad78dd6cae3ff203004d8c882467</title>
<g id="a_node2"><a xlink:href="dir_ec42ad78dd6cae3ff203004d8c882467.html" target="_top" xlink:title="3ds">
<polygon fill="#82a9f6" stroke="#404040" points="262,-98 228,-98 228,-79 262,-79 262,-98"/>
<text text-anchor="middle" x="245" y="-86" font-family="Helvetica,sans-Serif" font-size="10.00">3ds</text>
</a>
</g>
</g>
<!-- dir_3c172eab3d3eff36a04ebb8e77c44848 -->
<g id="node3" class="node">
<title>dir_3c172eab3d3eff36a04ebb8e77c44848</title>
<g id="a_node3"><a xlink:href="dir_3c172eab3d3eff36a04ebb8e77c44848.html" target="_top" xlink:title="common">
<polygon fill="#82a9f6" stroke="#404040" points="239.5,-43 180.5,-43 180.5,-24 239.5,-24 239.5,-43"/>
<text text-anchor="middle" x="210" y="-31" font-family="Helvetica,sans-Serif" font-size="10.00">common</text>
</a>
</g>
</g>
<!-- dir_ec42ad78dd6cae3ff203004d8c882467&#45;&gt;dir_3c172eab3d3eff36a04ebb8e77c44848 -->
<g id="edge1" class="edge">
<title>dir_ec42ad78dd6cae3ff203004d8c882467&#45;&gt;dir_3c172eab3d3eff36a04ebb8e77c44848</title>
<g id="a_edge1"><a xlink:href="dir_000000_000010.html" target="_top">
<path fill="none" stroke="#63b8ff" d="M239.22,-78.75C234.38,-71.42 227.32,-60.73 221.36,-51.7"/>
<polygon fill="#63b8ff" stroke="#63b8ff" points="224.1,-49.5 215.67,-43.09 218.26,-53.36 224.1,-49.5"/>
</a>
</g>
<g id="a_edge1&#45;headlabel"><a xlink:href="dir_000000_000010.html" target="_top" xlink:title="1">
<text text-anchor="middle" x="228.45" y="-48.44" font-family="Helvetica,sans-Serif" font-size="10.00" fill="#63b8ff">1</text>
</a>
</g>
</g>
<!-- dir_d44c64559bbebec7f509842c48db8b23 -->
<g id="node14" class="node">
<title>dir_d44c64559bbebec7f509842c48db8b23</title>
<g id="a_node14"><a xlink:href="dir_d44c64559bbebec7f509842c48db8b23.html" target="_top" xlink:title="include">
<polygon fill="#e6eefd" stroke="red" points="844,-43 792,-43 792,-24 844,-24 844,-43"/>
<text text-anchor="middle" x="818" y="-31" font-family="Helvetica,sans-Serif" font-size="10.00">include</text>
</a>
</g>
</g>
<!-- dir_ec42ad78dd6cae3ff203004d8c882467&#45;&gt;dir_d44c64559bbebec7f509842c48db8b23 -->
<g id="edge2" class="edge">
<title>dir_ec42ad78dd6cae3ff203004d8c882467&#45;&gt;dir_d44c64559bbebec7f509842c48db8b23</title>
<g id="a_edge2"><a xlink:href="dir_000000_000024.html" target="_top">
<path fill="none" stroke="#63b8ff" d="M262.19,-81.23C265.1,-80.36 268.11,-79.57 271,-79 493.56,-35.44 555.6,-75.84 780,-43 780.61,-42.91 781.22,-42.82 781.83,-42.72"/>
<polygon fill="#63b8ff" stroke="#63b8ff" points="782.73,-46.12 791.93,-40.87 781.46,-39.23 782.73,-46.12"/>
</a>
</g>
<g id="a_edge2&#45;headlabel"><a xlink:href="dir_000000_000024.html" target="_top" xlink:title="1">
<text text-anchor="middle" x="779.7" y="-47.06" font-family="Helvetica,sans-Serif" font-size="10.00" fill="#63b8ff">1</text>
</a>
</g>
</g>
<!-- dir_3c172eab3d3eff36a04ebb8e77c44848&#45;&gt;dir_d44c64559bbebec7f509842c48db8b23 -->
<g id="edge3" class="edge">
<title>dir_3c172eab3d3eff36a04ebb8e77c44848&#45;&gt;dir_d44c64559bbebec7f509842c48db8b23</title>
<g id="a_edge3"><a xlink:href="dir_000010_000024.html" target="_top">
<path fill="none" stroke="#63b8ff" d="M239.69,-33.5C420.29,-33.5 600.89,-33.5 781.5,-33.5"/>
<polygon fill="#63b8ff" stroke="#63b8ff" points="781.74,-37 791.74,-33.5 781.74,-30 781.74,-37"/>
</a>
</g>
<g id="a_edge3&#45;headlabel"><a xlink:href="dir_000010_000024.html" target="_top" xlink:title="1">
<text text-anchor="middle" x="778.14" y="-37.34" font-family="Helvetica,sans-Serif" font-size="10.00" fill="#63b8ff">1</text>
</a>
</g>
</g>
<!-- dir_71577dde3ddcf1d7c60e2d25449923f3 -->
<g id="node4" class="node">
<title>dir_71577dde3ddcf1d7c60e2d25449923f3</title>
<g id="a_node4"><a xlink:href="dir_71577dde3ddcf1d7c60e2d25449923f3.html" target="_top" xlink:title="gamecube">
<polygon fill="#82a9f6" stroke="#404040" points="210,-98 142,-98 142,-79 210,-79 210,-98"/>
<text text-anchor="middle" x="176" y="-86" font-family="Helvetica,sans-Serif" font-size="10.00">gamecube</text>
</a>
</g>
</g>
<!-- dir_71577dde3ddcf1d7c60e2d25449923f3&#45;&gt;dir_3c172eab3d3eff36a04ebb8e77c44848 -->
<g id="edge4" class="edge">
<title>dir_71577dde3ddcf1d7c60e2d25449923f3&#45;&gt;dir_3c172eab3d3eff36a04ebb8e77c44848</title>
<g id="a_edge4"><a xlink:href="dir_000021_000010.html" target="_top">
<path fill="none" stroke="#63b8ff" d="M181.61,-78.75C186.32,-71.42 193.17,-60.73 198.97,-51.7"/>
<polygon fill="#63b8ff" stroke="#63b8ff" points="202.04,-53.4 204.49,-43.09 196.14,-49.62 202.04,-53.4"/>
</a>
</g>
<g id="a_edge4&#45;headlabel"><a xlink:href="dir_000021_000010.html" target="_top" xlink:title="1">
<text text-anchor="middle" x="202.49" y="-55.45" font-family="Helvetica,sans-Serif" font-size="10.00" fill="#63b8ff">1</text>
</a>
</g>
</g>
<!-- dir_71577dde3ddcf1d7c60e2d25449923f3&#45;&gt;dir_d44c64559bbebec7f509842c48db8b23 -->
<g id="edge5" class="edge">
<title>dir_71577dde3ddcf1d7c60e2d25449923f3&#45;&gt;dir_d44c64559bbebec7f509842c48db8b23</title>
<g id="a_edge5"><a xlink:href="dir_000021_000024.html" target="_top">
<path fill="none" stroke="#63b8ff" d="M210.2,-80.32C213.17,-79.82 216.13,-79.37 219,-79 466.75,-46.71 532.67,-78.38 780,-43 780.61,-42.91 781.22,-42.82 781.83,-42.73"/>
<polygon fill="#63b8ff" stroke="#63b8ff" points="782.72,-46.12 791.93,-40.89 781.47,-39.24 782.72,-46.12"/>
</a>
</g>
<g id="a_edge5&#45;headlabel"><a xlink:href="dir_000021_000024.html" target="_top" xlink:title="1">
<text text-anchor="middle" x="779.69" y="-47.06" font-family="Helvetica,sans-Serif" font-size="10.00" fill="#63b8ff">1</text>
</a>
</g>
</g>
<!-- dir_c535a4a48b3b456973d783f9794b23a7 -->
<g id="node5" class="node">
<title>dir_c535a4a48b3b456973d783f9794b23a7</title>
<g id="a_node5"><a xlink:href="dir_c535a4a48b3b456973d783f9794b23a7.html" target="_top" xlink:title="gba">
<polygon fill="#82a9f6" stroke="#404040" points="685.5,-98 650.5,-98 650.5,-79 685.5,-79 685.5,-98"/>
<text text-anchor="middle" x="668" y="-86" font-family="Helvetica,sans-Serif" font-size="10.00">gba</text>
</a>
</g>
</g>
<!-- dir_c535a4a48b3b456973d783f9794b23a7&#45;&gt;dir_d44c64559bbebec7f509842c48db8b23 -->
<g id="edge6" class="edge">
<title>dir_c535a4a48b3b456973d783f9794b23a7&#45;&gt;dir_d44c64559bbebec7f509842c48db8b23</title>
<g id="a_edge6"><a xlink:href="dir_000022_000024.html" target="_top">
<path fill="none" stroke="#63b8ff" d="M685.5,-81.32C709.7,-72.77 753.85,-57.16 784.51,-46.33"/>
<polygon fill="#63b8ff" stroke="#63b8ff" points="785.68,-49.63 793.94,-43 783.35,-43.03 785.68,-49.63"/>
</a>
</g>
<g id="a_edge6&#45;headlabel"><a xlink:href="dir_000022_000024.html" target="_top" xlink:title="2">
<text text-anchor="middle" x="783.24" y="-51.01" font-family="Helvetica,sans-Serif" font-size="10.00" fill="#63b8ff">2</text>
</a>
</g>
</g>
<!-- dir_85f2f5b017d0e280691879598107c592 -->
<g id="node6" class="node">
<title>dir_85f2f5b017d0e280691879598107c592</title>
<g id="a_node6"><a xlink:href="dir_85f2f5b017d0e280691879598107c592.html" target="_top" xlink:title="linux">
<polygon fill="#82a9f6" stroke="#404040" points="632.5,-98 591.5,-98 591.5,-79 632.5,-79 632.5,-98"/>
<text text-anchor="middle" x="612" y="-86" font-family="Helvetica,sans-Serif" font-size="10.00">linux</text>
</a>
</g>
</g>
<!-- dir_85f2f5b017d0e280691879598107c592&#45;&gt;dir_d44c64559bbebec7f509842c48db8b23 -->
<g id="edge7" class="edge">
<title>dir_85f2f5b017d0e280691879598107c592&#45;&gt;dir_d44c64559bbebec7f509842c48db8b23</title>
<g id="a_edge7"><a xlink:href="dir_000025_000024.html" target="_top">
<path fill="none" stroke="#63b8ff" d="M632.64,-81.57C635.77,-80.69 638.97,-79.81 642,-79 690.35,-66.04 746.45,-52.03 782.07,-43.27"/>
<polygon fill="#63b8ff" stroke="#63b8ff" points="783.12,-46.61 792,-40.83 781.45,-39.82 783.12,-46.61"/>
</a>
</g>
<g id="a_edge7&#45;headlabel"><a xlink:href="dir_000025_000024.html" target="_top" xlink:title="3">
<text text-anchor="middle" x="780.31" y="-47.73" font-family="Helvetica,sans-Serif" font-size="10.00" fill="#63b8ff">3</text>
</a>
</g>
</g>
<!-- dir_09678985b484b4db3dfe2991103a0695 -->
<g id="node7" class="node">
<title>dir_09678985b484b4db3dfe2991103a0695</title>
<g id="a_node7"><a xlink:href="dir_09678985b484b4db3dfe2991103a0695.html" target="_top" xlink:title="macos">
<polygon fill="#82a9f6" stroke="#404040" points="573.5,-98 524.5,-98 524.5,-79 573.5,-79 573.5,-98"/>
<text text-anchor="middle" x="549" y="-86" font-family="Helvetica,sans-Serif" font-size="10.00">macos</text>
</a>
</g>
</g>
<!-- dir_09678985b484b4db3dfe2991103a0695&#45;&gt;dir_d44c64559bbebec7f509842c48db8b23 -->
<g id="edge8" class="edge">
<title>dir_09678985b484b4db3dfe2991103a0695&#45;&gt;dir_d44c64559bbebec7f509842c48db8b23</title>
<g id="a_edge8"><a xlink:href="dir_000026_000024.html" target="_top">
<path fill="none" stroke="#63b8ff" d="M573.84,-81.09C576.92,-80.36 580.03,-79.64 583,-79 670,-60.2 692.78,-60.72 780,-43 780.6,-42.88 781.21,-42.75 781.82,-42.63"/>
<polygon fill="#63b8ff" stroke="#63b8ff" points="782.81,-45.99 791.86,-40.49 781.35,-39.15 782.81,-45.99"/>
</a>
</g>
<g id="a_edge8&#45;headlabel"><a xlink:href="dir_000026_000024.html" target="_top" xlink:title="3">
<text text-anchor="middle" x="779.89" y="-47.02" font-family="Helvetica,sans-Serif" font-size="10.00" fill="#63b8ff">3</text>
</a>
</g>
</g>
<!-- dir_2ddc4bd1c9638660b0dec9084e710279 -->
<g id="node8" class="node">
<title>dir_2ddc4bd1c9638660b0dec9084e710279</title>
<g id="a_node8"><a xlink:href="dir_2ddc4bd1c9638660b0dec9084e710279.html" target="_top" xlink:title="nds">
<polygon fill="#82a9f6" stroke="#404040" points="124,-98 90,-98 90,-79 124,-79 124,-98"/>
<text text-anchor="middle" x="107" y="-86" font-family="Helvetica,sans-Serif" font-size="10.00">nds</text>
</a>
</g>
</g>
<!-- dir_2ddc4bd1c9638660b0dec9084e710279&#45;&gt;dir_3c172eab3d3eff36a04ebb8e77c44848 -->
<g id="edge9" class="edge">
<title>dir_2ddc4bd1c9638660b0dec9084e710279&#45;&gt;dir_3c172eab3d3eff36a04ebb8e77c44848</title>
<g id="a_edge9"><a xlink:href="dir_000028_000010.html" target="_top">
<path fill="none" stroke="#63b8ff" d="M123.55,-78.98C139.89,-70.57 165.13,-57.59 184.13,-47.81"/>
<polygon fill="#63b8ff" stroke="#63b8ff" points="185.86,-50.86 193.15,-43.17 182.66,-44.63 185.86,-50.86"/>
</a>
</g>
<g id="a_edge9&#45;headlabel"><a xlink:href="dir_000028_000010.html" target="_top" xlink:title="1">
<text text-anchor="middle" x="183.96" y="-52.53" font-family="Helvetica,sans-Serif" font-size="10.00" fill="#63b8ff">1</text>
</a>
</g>
</g>
<!-- dir_2ddc4bd1c9638660b0dec9084e710279&#45;&gt;dir_d44c64559bbebec7f509842c48db8b23 -->
<g id="edge10" class="edge">
<title>dir_2ddc4bd1c9638660b0dec9084e710279&#45;&gt;dir_d44c64559bbebec7f509842c48db8b23</title>
<g id="a_edge10"><a xlink:href="dir_000028_000024.html" target="_top">
<path fill="none" stroke="#63b8ff" d="M124.18,-81.19C127.09,-80.32 130.11,-79.54 133,-79 416.04,-25.8 494.73,-82.57 780,-43 780.61,-42.92 781.22,-42.83 781.83,-42.73"/>
<polygon fill="#63b8ff" stroke="#63b8ff" points="782.71,-46.13 791.94,-40.92 781.48,-39.24 782.71,-46.13"/>
</a>
</g>
<g id="a_edge10&#45;headlabel"><a xlink:href="dir_000028_000024.html" target="_top" xlink:title="1">
<text text-anchor="middle" x="779.68" y="-47.06" font-family="Helvetica,sans-Serif" font-size="10.00" fill="#63b8ff">1</text>
</a>
</g>
</g>
<!-- dir_ecf0edda40476ff1d9c29547bdf97a40 -->
<g id="node9" class="node">
<title>dir_ecf0edda40476ff1d9c29547bdf97a40</title>
<g id="a_node9"><a xlink:href="dir_ecf0edda40476ff1d9c29547bdf97a40.html" target="_top" xlink:title="posix">
<polygon fill="#82a9f6" stroke="#404040" points="506.5,-98 463.5,-98 463.5,-79 506.5,-79 506.5,-98"/>
<text text-anchor="middle" x="485" y="-86" font-family="Helvetica,sans-Serif" font-size="10.00">posix</text>
</a>
</g>
</g>
<!-- dir_ecf0edda40476ff1d9c29547bdf97a40&#45;&gt;dir_d44c64559bbebec7f509842c48db8b23 -->
<g id="edge11" class="edge">
<title>dir_ecf0edda40476ff1d9c29547bdf97a40&#45;&gt;dir_d44c64559bbebec7f509842c48db8b23</title>
<g id="a_edge11"><a xlink:href="dir_000033_000024.html" target="_top">
<path fill="none" stroke="#63b8ff" d="M506.59,-81.19C509.73,-80.38 512.94,-79.63 516,-79 632.02,-55.29 663.45,-63.94 780,-43 780.6,-42.89 781.21,-42.78 781.82,-42.67"/>
<polygon fill="#63b8ff" stroke="#63b8ff" points="782.78,-46.04 791.89,-40.64 781.4,-39.18 782.78,-46.04"/>
</a>
</g>
<g id="a_edge11&#45;headlabel"><a xlink:href="dir_000033_000024.html" target="_top" xlink:title="2">
<text text-anchor="middle" x="779.81" y="-47.04" font-family="Helvetica,sans-Serif" font-size="10.00" fill="#63b8ff">2</text>
</a>
</g>
</g>
<!-- dir_dbd2f83f65a97e35fcbceb75bafbe0f9 -->
<g id="node10" class="node">
<title>dir_dbd2f83f65a97e35fcbceb75bafbe0f9</title>
<g id="a_node10"><a xlink:href="dir_dbd2f83f65a97e35fcbceb75bafbe0f9.html" target="_top" xlink:title="stub">
<polygon fill="#82a9f6" stroke="#404040" points="445,-98 407,-98 407,-79 445,-79 445,-98"/>
<text text-anchor="middle" x="426" y="-86" font-family="Helvetica,sans-Serif" font-size="10.00">stub</text>
</a>
</g>
</g>
<!-- dir_dbd2f83f65a97e35fcbceb75bafbe0f9&#45;&gt;dir_d44c64559bbebec7f509842c48db8b23 -->
<g id="edge12" class="edge">
<title>dir_dbd2f83f65a97e35fcbceb75bafbe0f9&#45;&gt;dir_d44c64559bbebec7f509842c48db8b23</title>
<g id="a_edge12"><a xlink:href="dir_000038_000024.html" target="_top">
<path fill="none" stroke="#63b8ff" d="M445.23,-81.36C448.46,-80.47 451.81,-79.64 455,-79 597.5,-50.45 636.65,-66.9 780,-43 780.6,-42.9 781.21,-42.79 781.83,-42.69"/>
<polygon fill="#63b8ff" stroke="#63b8ff" points="782.76,-46.07 791.91,-40.73 781.43,-39.2 782.76,-46.07"/>
</a>
</g>
<g id="a_edge12&#45;headlabel"><a xlink:href="dir_000038_000024.html" target="_top" xlink:title="3">
<text text-anchor="middle" x="779.77" y="-47.04" font-family="Helvetica,sans-Serif" font-size="10.00" fill="#63b8ff">3</text>
</a>
</g>
</g>
<!-- dir_f1cd75b7a609b9cf63cfb1686d016e0b -->
<g id="node11" class="node">
<title>dir_f1cd75b7a609b9cf63cfb1686d016e0b</title>
<g id="a_node11"><a xlink:href="dir_f1cd75b7a609b9cf63cfb1686d016e0b.html" target="_top" xlink:title="switch">
<polygon fill="#82a9f6" stroke="#404040" points="72,-98 24,-98 24,-79 72,-79 72,-98"/>
<text text-anchor="middle" x="48" y="-86" font-family="Helvetica,sans-Serif" font-size="10.00">switch</text>
</a>
</g>
</g>
<!-- dir_f1cd75b7a609b9cf63cfb1686d016e0b&#45;&gt;dir_3c172eab3d3eff36a04ebb8e77c44848 -->
<g id="edge13" class="edge">
<title>dir_f1cd75b7a609b9cf63cfb1686d016e0b&#45;&gt;dir_3c172eab3d3eff36a04ebb8e77c44848</title>
<g id="a_edge13"><a xlink:href="dir_000039_000010.html" target="_top">
<path fill="none" stroke="#63b8ff" d="M72.25,-79.57C99.33,-70.71 143.42,-56.28 174.41,-46.14"/>
<polygon fill="#63b8ff" stroke="#63b8ff" points="175.55,-49.45 183.97,-43.02 173.38,-42.8 175.55,-49.45"/>
</a>
</g>
<g id="a_edge13&#45;headlabel"><a xlink:href="dir_000039_000010.html" target="_top" xlink:title="1">
<text text-anchor="middle" x="173.02" y="-50.77" font-family="Helvetica,sans-Serif" font-size="10.00" fill="#63b8ff">1</text>
</a>
</g>
</g>
<!-- dir_f1cd75b7a609b9cf63cfb1686d016e0b&#45;&gt;dir_d44c64559bbebec7f509842c48db8b23 -->
<g id="edge14" class="edge">
<title>dir_f1cd75b7a609b9cf63cfb1686d016e0b&#45;&gt;dir_d44c64559bbebec7f509842c48db8b23</title>
<g id="a_edge14"><a xlink:href="dir_000039_000024.html" target="_top">
<path fill="none" stroke="#63b8ff" d="M72.03,-80.71C75.04,-80.04 78.08,-79.45 81,-79 388.5,-31.97 471.78,-85.1 780,-43 780.61,-42.92 781.22,-42.83 781.83,-42.74"/>
<polygon fill="#63b8ff" stroke="#63b8ff" points="782.71,-46.14 791.94,-40.94 781.48,-39.25 782.71,-46.14"/>
</a>
</g>
<g id="a_edge14&#45;headlabel"><a xlink:href="dir_000039_000024.html" target="_top" xlink:title="1">
<text text-anchor="middle" x="779.67" y="-47.06" font-family="Helvetica,sans-Serif" font-size="10.00" fill="#63b8ff">1</text>
</a>
</g>
</g>
<!-- dir_260e38cdfbd7032146a6110264900101 -->
<g id="node12" class="node">
<title>dir_260e38cdfbd7032146a6110264900101</title>
<g id="a_node12"><a xlink:href="dir_260e38cdfbd7032146a6110264900101.html" target="_top" xlink:title="wii">
<polygon fill="#82a9f6" stroke="#404040" points="311.5,-98 280.5,-98 280.5,-79 311.5,-79 311.5,-98"/>
<text text-anchor="middle" x="296" y="-86" font-family="Helvetica,sans-Serif" font-size="10.00">wii</text>
</a>
</g>
</g>
<!-- dir_260e38cdfbd7032146a6110264900101&#45;&gt;dir_3c172eab3d3eff36a04ebb8e77c44848 -->
<g id="edge15" class="edge">
<title>dir_260e38cdfbd7032146a6110264900101&#45;&gt;dir_3c172eab3d3eff36a04ebb8e77c44848</title>
<g id="a_edge15"><a xlink:href="dir_000041_000010.html" target="_top">
<path fill="none" stroke="#63b8ff" d="M282.18,-78.98C268.85,-70.77 248.42,-58.18 232.69,-48.49"/>
<polygon fill="#63b8ff" stroke="#63b8ff" points="234.42,-45.44 224.07,-43.17 230.75,-51.4 234.42,-45.44"/>
</a>
</g>
<g id="a_edge15&#45;headlabel"><a xlink:href="dir_000041_000010.html" target="_top" xlink:title="1">
<text text-anchor="middle" x="238.97" y="-42.41" font-family="Helvetica,sans-Serif" font-size="10.00" fill="#63b8ff">1</text>
</a>
</g>
</g>
<!-- dir_260e38cdfbd7032146a6110264900101&#45;&gt;dir_d44c64559bbebec7f509842c48db8b23 -->
<g id="edge16" class="edge">
<title>dir_260e38cdfbd7032146a6110264900101&#45;&gt;dir_d44c64559bbebec7f509842c48db8b23</title>
<g id="a_edge16"><a xlink:href="dir_000041_000024.html" target="_top">
<path fill="none" stroke="#63b8ff" d="M311.58,-81.32C314.35,-80.41 317.23,-79.59 320,-79 520.6,-36.4 577.21,-73.46 780,-43 780.61,-42.91 781.22,-42.81 781.83,-42.71"/>
<polygon fill="#63b8ff" stroke="#63b8ff" points="782.73,-46.11 791.93,-40.84 781.46,-39.22 782.73,-46.11"/>
</a>
</g>
<g id="a_edge16&#45;headlabel"><a xlink:href="dir_000041_000024.html" target="_top" xlink:title="1">
<text text-anchor="middle" x="779.71" y="-47.05" font-family="Helvetica,sans-Serif" font-size="10.00" fill="#63b8ff">1</text>
</a>
</g>
</g>
<!-- dir_0a18029368813177489ba7a997da11e8 -->
<g id="node13" class="node">
<title>dir_0a18029368813177489ba7a997da11e8</title>
<g id="a_node13"><a xlink:href="dir_0a18029368813177489ba7a997da11e8.html" target="_top" xlink:title="windows">
<polygon fill="#82a9f6" stroke="#404040" points="388.5,-98 329.5,-98 329.5,-79 388.5,-79 388.5,-98"/>
<text text-anchor="middle" x="359" y="-86" font-family="Helvetica,sans-Serif" font-size="10.00">windows</text>
</a>
</g>
</g>
<!-- dir_0a18029368813177489ba7a997da11e8&#45;&gt;dir_d44c64559bbebec7f509842c48db8b23 -->
<g id="edge17" class="edge">
<title>dir_0a18029368813177489ba7a997da11e8&#45;&gt;dir_d44c64559bbebec7f509842c48db8b23</title>
<g id="a_edge17"><a xlink:href="dir_000042_000024.html" target="_top">
<path fill="none" stroke="#63b8ff" d="M388.74,-80.63C391.86,-80.03 394.99,-79.47 398,-79 566.5,-52.8 611.57,-69.67 780,-43 780.61,-42.9 781.22,-42.8 781.83,-42.7"/>
<polygon fill="#63b8ff" stroke="#63b8ff" points="782.74,-46.09 791.92,-40.79 781.44,-39.21 782.74,-46.09"/>
</a>
</g>
<g id="a_edge17&#45;headlabel"><a xlink:href="dir_000042_000024.html" target="_top" xlink:title="5">
<text text-anchor="middle" x="779.74" y="-47.05" font-family="Helvetica,sans-Serif" font-size="10.00" fill="#63b8ff">5</text>
</a>
</g>
</g>
</g>
</svg>

<g id="navigator" transform="translate(0 0)" fill="#404254">
  <rect fill="#f2f5e9" fill-opacity="0.5" stroke="#606060" stroke-width=".5" x="0" y="0" width="60" height="60"/>
  <use id="zoomplus" xlink:href="#zoomPlus" x="17" y="9" onmousedown="handleZoom(evt,'in')"/>
  <use id="zoomminus" xlink:href="#zoomMin" x="42" y="9" onmousedown="handleZoom(evt,'out')"/>
  <use id="reset" xlink:href="#resetDef" x="30" y="36" onmousedown="handleReset()"/>
   <use id="arrowup" xlink:href="#arrowUp" x="0" y="0" onmousedown="handlePan(0,-1)"/>
  <use id="arrowright" xlink:href="#arrowRight" x="0" y="0" onmousedown="handlePan(1,0)"/>
  <use id="arrowdown" xlink:href="#arrowDown" x="0" y="0" onmousedown="handlePan(0,1)"/>
  <use id="arrowleft" xlink:href="#arrowLeft" x="0" y="0" onmousedown="handlePan(-1,0)"/>
</g>
<svg viewBox="0 0 15 15" width="100%" height="30px" preserveAspectRatio="xMaxYMin meet">
 <g id="arrow_out" transform="scale(0.3 0.3)">
  <a xlink:href="dir_ceed1ce8f89ba04e240f3818f1ccc961_dep_org.svg" target="_base">
   <rect id="button" ry="5" rx="5" y="6" x="6" height="38" width="38"
        fill="#f2f5e9" fill-opacity="0.5" stroke="#606060" stroke-width="1.0"/>
   <path id="arrow"
     d="M 11.500037,31.436501 C 11.940474,20.09759 22.043105,11.32322 32.158766,21.979434 L 37.068811,17.246167 C 37.068811,17.246167 37.088388,32 37.088388,32 L 22.160133,31.978069 C 22.160133,31.978069 26.997745,27.140456 26.997745,27.140456 C 18.528582,18.264221 13.291696,25.230495 11.500037,31.436501 z"
     style="fill:#404040;"/>
  </a>
 </g>
</svg>

<style type='text/css'>
<![CDATA[
[data-mouse-over-selected='false'] { opacity: 0.7; }
[data-mouse-over-selected='true']  { opacity: 1.0; }
]]>
</style>
<script type="application/ecmascript"><![CDATA[
document.addEventListener('DOMContentLoaded', (event) => {
  highlightEdges();
  highlightAdjacentNodes();
});
]]></script>
</svg>
