<?xml version="1.0" encoding="UTF-8" standalone="no"?>
<!DOCTYPE svg PUBLIC "-//W3C//DTD SVG 1.1//EN"
 "http://www.w3.org/Graphics/SVG/1.1/DTD/svg11.dtd">
<!-- Generated by graphviz version 2.43.0 (0)
 -->
<!-- Title: include Pages: 1 -->
<!--zoomable 114 -->

<svg id="main" version="1.1" xmlns="http://www.w3.org/2000/svg" xmlns:xlink="http://www.w3.org/1999/xlink" xml:space="preserve" onload="init(evt)">

<style type="text/css"><![CDATA[
.node, .edge {opacity: 0.7;}
.node.selected, .edge.selected {opacity: 1;}
.edge:hover path { stroke: red; }
.edge:hover polygon { stroke: red; fill: red; }
]]></style>

<defs>
  <circle id="rim" cx="0" cy="0" r="7"/>
  <circle id="rim2" cx="0" cy="0" r="3.5"/>
  <g id="zoomPlus">
    <use xlink:href="#rim" fill="#404040"><set attributeName="fill" to="#808080" begin="zoomplus.mouseover" end="zoomplus.mouseout"/></use>
    <path d="M-4,0h8M0,-4v8" fill="none" stroke="white" stroke-width="1.5" pointer-events="none"/>
  </g>
  <g id="zoomMin">
    <use xlink:href="#rim" fill="#404040"><set attributeName="fill" to="#808080" begin="zoomminus.mouseover" end="zoomminus.mouseout"/></use>
    <path d="M-4,0h8" fill="none" stroke="white" stroke-width="1.5" pointer-events="none"/>
  </g>
  <g id="arrowUp" transform="translate(30 24)">
    <use xlink:href="#rim"/>
    <path pointer-events="none" fill="none" stroke="white" stroke-width="1.5" d="M0,-3.0v7 M-2.5,-0.5L0,-3.0L2.5,-0.5"/>
  </g>
  <g id="arrowRight" transform="rotate(90) translate(36 -43)">
    <use xlink:href="#rim"/>
    <path pointer-events="none" fill="none" stroke="white" stroke-width="1.5" d="M0,-3.0v7 M-2.5,-0.5L0,-3.0L2.5,-0.5"/>
  </g>
  <g id="arrowDown" transform="rotate(180) translate(-30 -48)">
    <use xlink:href="#rim"/>
    <path pointer-events="none" fill="none" stroke="white" stroke-width="1.5" d="M0,-3.0v7 M-2.5,-0.5L0,-3.0L2.5,-0.5"/>
  </g>
  <g id="arrowLeft" transform="rotate(270) translate(-36 17)">
    <use xlink:href="#rim"/>
    <path pointer-events="none" fill="none" stroke="white" stroke-width="1.5" d="M0,-3.0v7 M-2.5,-0.5L0,-3.0L2.5,-0.5"/>
  </g>
  <g id="resetDef">
    <use xlink:href="#rim2" fill="#404040"><set attributeName="fill" to="#808080" begin="reset.mouseover" end="reset.mouseout"/></use>
  </g>
</defs>
<script type="application/ecmascript">
var viewWidth = 772;
var viewHeight = 114;
var sectionId = 'dynsection-0';
</script>
<script type="application/ecmascript" xlink:href="svg.min.js"/>
<svg id="graph" class="graph">
<g id="viewport">
<title>include</title>
<g id="clust1" class="cluster">
<title>clusterdir_d44c64559bbebec7f509842c48db8b23</title>
<g id="a_clust1"><a xlink:href="dir_d44c64559bbebec7f509842c48db8b23.html" target="_top">
<polygon fill="#e6eefd" stroke="#404040" stroke-width="2" points="8,-8 8,-98 722,-98 722,-8 8,-8"/>
</a>
</g>
</g>
<!-- dir_d44c64559bbebec7f509842c48db8b23 -->
<g id="node1" class="node">
<title>dir_d44c64559bbebec7f509842c48db8b23</title>
<text text-anchor="middle" x="404" y="-78" font-family="Helvetica,sans-Serif" font-size="10.00">include</text>
</g>
<!-- dir_0905a5bd6d6fe3014f1bc7b1fd731555 -->
<g id="node2" class="node">
<title>dir_0905a5bd6d6fe3014f1bc7b1fd731555</title>
<g id="a_node2"><a xlink:href="dir_0905a5bd6d6fe3014f1bc7b1fd731555.html" target="_top" xlink:title="application">
<polygon fill="#82a9f6" stroke="#404040" points="87.5,-35 16.5,-35 16.5,-16 87.5,-16 87.5,-35"/>
<text text-anchor="middle" x="52" y="-23" font-family="Helvetica,sans-Serif" font-size="10.00">application</text>
</a>
</g>
</g>
<!-- dir_d44c64559bbebec7f509842c48db8b23&#45;&gt;dir_0905a5bd6d6fe3014f1bc7b1fd731555 -->
<g id="edge1" class="edge">
<title>dir_d44c64559bbebec7f509842c48db8b23&#45;&gt;dir_0905a5bd6d6fe3014f1bc7b1fd731555</title>
<g id="a_edge1"><a xlink:href="dir_000011_000001.html" target="_top">
<path fill="none" stroke="#63b8ff" d="M377.66,-76.07C326.05,-69.26 207.79,-53.26 97.77,-35.07"/>
<polygon fill="#63b8ff" stroke="#63b8ff" points="98.28,-31.6 87.84,-33.41 97.13,-38.51 98.28,-31.6"/>
</a>
</g>
<g id="a_edge1&#45;headlabel"><a xlink:href="dir_000011_000001.html" target="_top" xlink:title="2">
<text text-anchor="middle" x="102.29" y="-26.89" font-family="Helvetica,sans-Serif" font-size="10.00" fill="#63b8ff">2</text>
</a>
</g>
</g>
<!-- dir_f2d98db52843b738f4b0d5c05695337b -->
<g id="node3" class="node">
<title>dir_f2d98db52843b738f4b0d5c05695337b</title>
<g id="a_node3"><a xlink:href="dir_f2d98db52843b738f4b0d5c05695337b.html" target="_top" xlink:title="audio">
<polygon fill="#82a9f6" stroke="#404040" points="150,-35 106,-35 106,-16 150,-16 150,-35"/>
<text text-anchor="middle" x="128" y="-23" font-family="Helvetica,sans-Serif" font-size="10.00">audio</text>
</a>
</g>
</g>
<!-- dir_d44c64559bbebec7f509842c48db8b23&#45;&gt;dir_f2d98db52843b738f4b0d5c05695337b -->
<g id="edge9" class="edge">
<title>dir_d44c64559bbebec7f509842c48db8b23&#45;&gt;dir_f2d98db52843b738f4b0d5c05695337b</title>
<g id="a_edge9"><a xlink:href="dir_000011_000002.html" target="_top">
<path fill="none" stroke="#63b8ff" d="M377.74,-75.51C334.4,-68.75 245,-54.12 160.09,-35.08"/>
<polygon fill="#63b8ff" stroke="#63b8ff" points="160.82,-31.66 150.29,-32.86 159.27,-38.49 160.82,-31.66"/>
</a>
</g>
<g id="a_edge9&#45;headlabel"><a xlink:href="dir_000011_000002.html" target="_top" xlink:title="1">
<text text-anchor="middle" x="164.95" y="-27.19" font-family="Helvetica,sans-Serif" font-size="10.00" fill="#63b8ff">1</text>
</a>
</g>
</g>
<!-- dir_3d69f64eaf81436fe2b22361382717e5 -->
<g id="node4" class="node">
<title>dir_3d69f64eaf81436fe2b22361382717e5</title>
<g id="a_node4"><a xlink:href="dir_3d69f64eaf81436fe2b22361382717e5.html" target="_top" xlink:title="core">
<polygon fill="#82a9f6" stroke="#404040" points="206,-35 168,-35 168,-16 206,-16 206,-35"/>
<text text-anchor="middle" x="187" y="-23" font-family="Helvetica,sans-Serif" font-size="10.00">core</text>
</a>
</g>
</g>
<!-- dir_d44c64559bbebec7f509842c48db8b23&#45;&gt;dir_3d69f64eaf81436fe2b22361382717e5 -->
<g id="edge2" class="edge">
<title>dir_d44c64559bbebec7f509842c48db8b23&#45;&gt;dir_3d69f64eaf81436fe2b22361382717e5</title>
<g id="a_edge2"><a xlink:href="dir_000011_000004.html" target="_top">
<path fill="none" stroke="#63b8ff" d="M377.88,-73.9C343.08,-66.32 279.39,-52.04 215.99,-35.14"/>
<polygon fill="#63b8ff" stroke="#63b8ff" points="216.8,-31.73 206.23,-32.51 214.98,-38.49 216.8,-31.73"/>
</a>
</g>
<g id="a_edge2&#45;headlabel"><a xlink:href="dir_000011_000004.html" target="_top" xlink:title="34">
<text text-anchor="middle" x="221.01" y="-27.42" font-family="Helvetica,sans-Serif" font-size="10.00" fill="#63b8ff">34</text>
</a>
</g>
</g>
<!-- dir_e1c7b6d0de41f970aaf64acfab9d22b3 -->
<g id="node5" class="node">
<title>dir_e1c7b6d0de41f970aaf64acfab9d22b3</title>
<g id="a_node5"><a xlink:href="dir_e1c7b6d0de41f970aaf64acfab9d22b3.html" target="_top" xlink:title="filesystem">
<polygon fill="#82a9f6" stroke="#404040" points="292,-35 224,-35 224,-16 292,-16 292,-35"/>
<text text-anchor="middle" x="258" y="-23" font-family="Helvetica,sans-Serif" font-size="10.00">filesystem</text>
</a>
</g>
</g>
<!-- dir_d44c64559bbebec7f509842c48db8b23&#45;&gt;dir_e1c7b6d0de41f970aaf64acfab9d22b3 -->
<g id="edge8" class="edge">
<title>dir_d44c64559bbebec7f509842c48db8b23&#45;&gt;dir_e1c7b6d0de41f970aaf64acfab9d22b3</title>
<g id="a_edge8"><a xlink:href="dir_000011_000007.html" target="_top">
<path fill="none" stroke="#63b8ff" d="M380.54,-70.98C356.42,-62.23 318.63,-48.51 291.4,-38.62"/>
<polygon fill="#63b8ff" stroke="#63b8ff" points="292.48,-35.29 281.88,-35.17 290.09,-41.87 292.48,-35.29"/>
</a>
</g>
<g id="a_edge8&#45;headlabel"><a xlink:href="dir_000011_000007.html" target="_top" xlink:title="1">
<text text-anchor="middle" x="296.83" y="-31.35" font-family="Helvetica,sans-Serif" font-size="10.00" fill="#63b8ff">1</text>
</a>
</g>
</g>
<!-- dir_f307a46daed1218fee22380d1eacedba -->
<g id="node6" class="node">
<title>dir_f307a46daed1218fee22380d1eacedba</title>
<g id="a_node6"><a xlink:href="dir_f307a46daed1218fee22380d1eacedba.html" target="_top" xlink:title="game">
<polygon fill="#82a9f6" stroke="#404040" points="354,-35 310,-35 310,-16 354,-16 354,-35"/>
<text text-anchor="middle" x="332" y="-23" font-family="Helvetica,sans-Serif" font-size="10.00">game</text>
</a>
</g>
</g>
<!-- dir_d44c64559bbebec7f509842c48db8b23&#45;&gt;dir_f307a46daed1218fee22380d1eacedba -->
<g id="edge10" class="edge">
<title>dir_d44c64559bbebec7f509842c48db8b23&#45;&gt;dir_f307a46daed1218fee22380d1eacedba</title>
<g id="a_edge10"><a xlink:href="dir_000011_000008.html" target="_top">
<path fill="none" stroke="#63b8ff" d="M392.43,-70.98C381.58,-63 365.12,-50.88 352.12,-41.31"/>
<polygon fill="#63b8ff" stroke="#63b8ff" points="353.91,-38.28 343.78,-35.17 349.76,-43.92 353.91,-38.28"/>
</a>
</g>
<g id="a_edge10&#45;headlabel"><a xlink:href="dir_000011_000008.html" target="_top" xlink:title="1">
<text text-anchor="middle" x="358.48" y="-35.62" font-family="Helvetica,sans-Serif" font-size="10.00" fill="#63b8ff">1</text>
</a>
</g>
</g>
<!-- dir_cac21311fa223bf4e936802c78bf215f -->
<g id="node7" class="node">
<title>dir_cac21311fa223bf4e936802c78bf215f</title>
<g id="a_node7"><a xlink:href="dir_cac21311fa223bf4e936802c78bf215f.html" target="_top" xlink:title="geometry">
<polygon fill="#82a9f6" stroke="#404040" points="436,-35 372,-35 372,-16 436,-16 436,-35"/>
<text text-anchor="middle" x="404" y="-23" font-family="Helvetica,sans-Serif" font-size="10.00">geometry</text>
</a>
</g>
</g>
<!-- dir_d44c64559bbebec7f509842c48db8b23&#45;&gt;dir_cac21311fa223bf4e936802c78bf215f -->
<g id="edge6" class="edge">
<title>dir_d44c64559bbebec7f509842c48db8b23&#45;&gt;dir_cac21311fa223bf4e936802c78bf215f</title>
<g id="a_edge6"><a xlink:href="dir_000011_000010.html" target="_top">
<path fill="none" stroke="#63b8ff" d="M404,-70.75C404,-63.8 404,-53.85 404,-45.13"/>
<polygon fill="#63b8ff" stroke="#63b8ff" points="407.5,-45.09 404,-35.09 400.5,-45.09 407.5,-45.09"/>
</a>
</g>
<g id="a_edge6&#45;headlabel"><a xlink:href="dir_000011_000010.html" target="_top" xlink:title="6">
<text text-anchor="middle" x="410.34" y="-46.18" font-family="Helvetica,sans-Serif" font-size="10.00" fill="#63b8ff">6</text>
</a>
</g>
</g>
<!-- dir_fba38f648377aa56ae5d69782adf9e53 -->
<g id="node8" class="node">
<title>dir_fba38f648377aa56ae5d69782adf9e53</title>
<g id="a_node8"><a xlink:href="dir_fba38f648377aa56ae5d69782adf9e53.html" target="_top" xlink:title="math">
<polygon fill="#82a9f6" stroke="#404040" points="496,-35 454,-35 454,-16 496,-16 496,-35"/>
<text text-anchor="middle" x="475" y="-23" font-family="Helvetica,sans-Serif" font-size="10.00">math</text>
</a>
</g>
</g>
<!-- dir_d44c64559bbebec7f509842c48db8b23&#45;&gt;dir_fba38f648377aa56ae5d69782adf9e53 -->
<g id="edge11" class="edge">
<title>dir_d44c64559bbebec7f509842c48db8b23&#45;&gt;dir_fba38f648377aa56ae5d69782adf9e53</title>
<g id="a_edge11"><a xlink:href="dir_000011_000014.html" target="_top">
<path fill="none" stroke="#63b8ff" d="M415.41,-70.98C426.11,-63 442.34,-50.88 455.16,-41.31"/>
<polygon fill="#63b8ff" stroke="#63b8ff" points="457.47,-43.96 463.39,-35.17 453.28,-38.35 457.47,-43.96"/>
</a>
</g>
<g id="a_edge11&#45;headlabel"><a xlink:href="dir_000011_000014.html" target="_top" xlink:title="10">
<text text-anchor="middle" x="456.28" y="-45.88" font-family="Helvetica,sans-Serif" font-size="10.00" fill="#63b8ff">10</text>
</a>
</g>
</g>
<!-- dir_dafb25a37831a87d2e2e8b780f24e872 -->
<g id="node9" class="node">
<title>dir_dafb25a37831a87d2e2e8b780f24e872</title>
<g id="a_node9"><a xlink:href="dir_dafb25a37831a87d2e2e8b780f24e872.html" target="_top" xlink:title="network">
<polygon fill="#82a9f6" stroke="#404040" points="570,-35 514,-35 514,-16 570,-16 570,-35"/>
<text text-anchor="middle" x="542" y="-23" font-family="Helvetica,sans-Serif" font-size="10.00">network</text>
</a>
</g>
</g>
<!-- dir_d44c64559bbebec7f509842c48db8b23&#45;&gt;dir_dafb25a37831a87d2e2e8b780f24e872 -->
<g id="edge7" class="edge">
<title>dir_d44c64559bbebec7f509842c48db8b23&#45;&gt;dir_dafb25a37831a87d2e2e8b780f24e872</title>
<g id="a_edge7"><a xlink:href="dir_000011_000016.html" target="_top">
<path fill="none" stroke="#63b8ff" d="M426.17,-70.98C448.77,-62.3 484.06,-48.75 509.75,-38.88"/>
<polygon fill="#63b8ff" stroke="#63b8ff" points="511.34,-42.02 519.42,-35.17 508.83,-35.49 511.34,-42.02"/>
</a>
</g>
<g id="a_edge7&#45;headlabel"><a xlink:href="dir_000011_000016.html" target="_top" xlink:title="6">
<text text-anchor="middle" x="509.01" y="-43.46" font-family="Helvetica,sans-Serif" font-size="10.00" fill="#63b8ff">6</text>
</a>
</g>
</g>
<!-- dir_ac186d3e8926949364e5821f25491cc3 -->
<g id="node10" class="node">
<title>dir_ac186d3e8926949364e5821f25491cc3</title>
<g id="a_node10"><a xlink:href="dir_ac186d3e8926949364e5821f25491cc3.html" target="_top" xlink:title="platform">
<polygon fill="#82a9f6" stroke="#404040" points="647.5,-35 588.5,-35 588.5,-16 647.5,-16 647.5,-35"/>
<text text-anchor="middle" x="618" y="-23" font-family="Helvetica,sans-Serif" font-size="10.00">platform</text>
</a>
</g>
</g>
<!-- dir_d44c64559bbebec7f509842c48db8b23&#45;&gt;dir_ac186d3e8926949364e5821f25491cc3 -->
<g id="edge4" class="edge">
<title>dir_d44c64559bbebec7f509842c48db8b23&#45;&gt;dir_ac186d3e8926949364e5821f25491cc3</title>
<g id="a_edge4"><a xlink:href="dir_000011_000018.html" target="_top">
<path fill="none" stroke="#63b8ff" d="M430.24,-73C467.33,-63.81 535.39,-46.96 578.58,-36.26"/>
<polygon fill="#63b8ff" stroke="#63b8ff" points="579.59,-39.62 588.45,-33.82 577.91,-32.82 579.59,-39.62"/>
</a>
</g>
<g id="a_edge4&#45;headlabel"><a xlink:href="dir_000011_000018.html" target="_top" xlink:title="7">
<text text-anchor="middle" x="576.78" y="-40.74" font-family="Helvetica,sans-Serif" font-size="10.00" fill="#63b8ff">7</text>
</a>
</g>
</g>
<!-- dir_ada157988d47c0ed8971be2c0e2fe61c -->
<g id="node11" class="node">
<title>dir_ada157988d47c0ed8971be2c0e2fe61c</title>
<g id="a_node11"><a xlink:href="dir_ada157988d47c0ed8971be2c0e2fe61c.html" target="_top" xlink:title="render">
<polygon fill="#82a9f6" stroke="#404040" points="714,-35 666,-35 666,-16 714,-16 714,-35"/>
<text text-anchor="middle" x="690" y="-23" font-family="Helvetica,sans-Serif" font-size="10.00">render</text>
</a>
</g>
</g>
<!-- dir_d44c64559bbebec7f509842c48db8b23&#45;&gt;dir_ada157988d47c0ed8971be2c0e2fe61c -->
<g id="edge5" class="edge">
<title>dir_d44c64559bbebec7f509842c48db8b23&#45;&gt;dir_ada157988d47c0ed8971be2c0e2fe61c</title>
<g id="a_edge5"><a xlink:href="dir_000011_000020.html" target="_top">
<path fill="none" stroke="#63b8ff" d="M430.36,-75.56C474.83,-68.76 567.8,-53.9 656,-35.07"/>
<polygon fill="#63b8ff" stroke="#63b8ff" points="656.86,-38.47 665.9,-32.94 655.39,-31.63 656.86,-38.47"/>
</a>
</g>
<g id="a_edge5&#45;headlabel"><a xlink:href="dir_000011_000020.html" target="_top" xlink:title="2">
<text text-anchor="middle" x="653.95" y="-39.5" font-family="Helvetica,sans-Serif" font-size="10.00" fill="#63b8ff">2</text>
</a>
</g>
</g>
<!-- dir_68267d1309a1af8e8297ef4c3efbcdba -->
<g id="node12" class="node">
<title>dir_68267d1309a1af8e8297ef4c3efbcdba</title>
<g id="a_node12"><a xlink:href="dir_68267d1309a1af8e8297ef4c3efbcdba.html" target="_top" xlink:title="src">
<polygon fill="#e6eefd" stroke="red" points="763.5,-35 732.5,-35 732.5,-16 763.5,-16 763.5,-35"/>
<text text-anchor="middle" x="748" y="-23" font-family="Helvetica,sans-Serif" font-size="10.00">src</text>
</a>
</g>
</g>
<!-- dir_d44c64559bbebec7f509842c48db8b23&#45;&gt;dir_68267d1309a1af8e8297ef4c3efbcdba -->
<g id="edge3" class="edge">
<title>dir_d44c64559bbebec7f509842c48db8b23&#45;&gt;dir_68267d1309a1af8e8297ef4c3efbcdba</title>
<g id="a_edge3"><a xlink:href="dir_000011_000022.html" target="_top">
<path fill="none" stroke="#63b8ff" d="M430.27,-77.93C484.14,-74.29 610.91,-63.47 722.56,-35.56"/>
<polygon fill="#63b8ff" stroke="#63b8ff" points="723.46,-38.94 732.28,-33.08 721.73,-32.16 723.46,-38.94"/>
</a>
</g>
<g id="a_edge3&#45;headlabel"><a xlink:href="dir_000011_000022.html" target="_top" xlink:title="1">
<text text-anchor="middle" x="720.68" y="-40.08" font-family="Helvetica,sans-Serif" font-size="10.00" fill="#63b8ff">1</text>
</a>
</g>
</g>
</g>
</svg>

<g id="navigator" transform="translate(0 0)" fill="#404254">
  <rect fill="#f2f5e9" fill-opacity="0.5" stroke="#606060" stroke-width=".5" x="0" y="0" width="60" height="60"/>
  <use id="zoomplus" xlink:href="#zoomPlus" x="17" y="9" onmousedown="handleZoom(evt,'in')"/>
  <use id="zoomminus" xlink:href="#zoomMin" x="42" y="9" onmousedown="handleZoom(evt,'out')"/>
  <use id="reset" xlink:href="#resetDef" x="30" y="36" onmousedown="handleReset()"/>
   <use id="arrowup" xlink:href="#arrowUp" x="0" y="0" onmousedown="handlePan(0,-1)"/>
  <use id="arrowright" xlink:href="#arrowRight" x="0" y="0" onmousedown="handlePan(1,0)"/>
  <use id="arrowdown" xlink:href="#arrowDown" x="0" y="0" onmousedown="handlePan(0,1)"/>
  <use id="arrowleft" xlink:href="#arrowLeft" x="0" y="0" onmousedown="handlePan(-1,0)"/>
</g>
<svg viewBox="0 0 15 15" width="100%" height="30px" preserveAspectRatio="xMaxYMin meet">
 <g id="arrow_out" transform="scale(0.3 0.3)">
  <a xlink:href="dir_d44c64559bbebec7f509842c48db8b23_dep_org.svg" target="_base">
   <rect id="button" ry="5" rx="5" y="6" x="6" height="38" width="38"
        fill="#f2f5e9" fill-opacity="0.5" stroke="#606060" stroke-width="1.0"/>
   <path id="arrow"
     d="M 11.500037,31.436501 C 11.940474,20.09759 22.043105,11.32322 32.158766,21.979434 L 37.068811,17.246167 C 37.068811,17.246167 37.088388,32 37.088388,32 L 22.160133,31.978069 C 22.160133,31.978069 26.997745,27.140456 26.997745,27.140456 C 18.528582,18.264221 13.291696,25.230495 11.500037,31.436501 z"
     style="fill:#404040;"/>
  </a>
 </g>
</svg>

<style type='text/css'>
<![CDATA[
[data-mouse-over-selected='false'] { opacity: 0.7; }
[data-mouse-over-selected='true']  { opacity: 1.0; }
]]>
</style>
<script type="application/ecmascript"><![CDATA[
document.addEventListener('DOMContentLoaded', (event) => {
  highlightEdges();
  highlightAdjacentNodes();
});
]]></script>
</svg>
