<?xml version="1.0" encoding="UTF-8" standalone="no"?>
<!DOCTYPE svg PUBLIC "-//W3C//DTD SVG 1.1//EN"
 "http://www.w3.org/Graphics/SVG/1.1/DTD/svg11.dtd">
<!-- Generated by graphviz version 14.1.2 (0)
 -->
<!-- Title: src/platforms Pages: 1 -->
<!--zoomable 154 -->

<svg id="main" version="1.1" xmlns="http://www.w3.org/2000/svg" xmlns:xlink="http://www.w3.org/1999/xlink" xml:space="preserve" onload="init(evt)">

<style type="text/css"><![CDATA[
.node, .edge {opacity: 0.7;}
.node.selected, .edge.selected {opacity: 1;}
.edge:hover path { stroke: red; }
.edge:hover polygon { stroke: red; fill: red; }
]]></style>

<defs>
  <circle id="rim" cx="0" cy="0" r="7"/>
  <circle id="rim2" cx="0" cy="0" r="3.5"/>
  <g id="zoomPlus">
    <use xlink:href="#rim" fill="#404040"><set attributeName="fill" to="#808080" begin="zoomplus.mouseover" end="zoomplus.mouseout"/></use>
    <path d="M-4,0h8M0,-4v8" fill="none" stroke="white" stroke-width="1.5" pointer-events="none"/>
  </g>
  <g id="zoomMin">
    <use xlink:href="#rim" fill="#404040"><set attributeName="fill" to="#808080" begin="zoomminus.mouseover" end="zoomminus.mouseout"/></use>
    <path d="M-4,0h8" fill="none" stroke="white" stroke-width="1.5" pointer-events="none"/>
  </g>
  <g id="arrowUp" transform="translate(30 24)">
    <use xlink:href="#rim"/>
    <path pointer-events="none" fill="none" stroke="white" stroke-width="1.5" d="M0,-3.0v7 M-2.5,-0.5L0,-3.0L2.5,-0.5"/>
  </g>
  <g id="arrowRight" transform="rotate(90) translate(36 -43)">
    <use xlink:href="#rim"/>
    <path pointer-events="none" fill="none" stroke="white" stroke-width="1.5" d="M0,-3.0v7 M-2.5,-0.5L0,-3.0L2.5,-0.5"/>
  </g>
  <g id="arrowDown" transform="rotate(180) translate(-30 -48)">
    <use xlink:href="#rim"/>
    <path pointer-events="none" fill="none" stroke="white" stroke-width="1.5" d="M0,-3.0v7 M-2.5,-0.5L0,-3.0L2.5,-0.5"/>
  </g>
  <g id="arrowLeft" transform="rotate(270) translate(-36 17)">
    <use xlink:href="#rim"/>
    <path pointer-events="none" fill="none" stroke="white" stroke-width="1.5" d="M0,-3.0v7 M-2.5,-0.5L0,-3.0L2.5,-0.5"/>
  </g>
  <g id="resetDef">
    <use xlink:href="#rim2" fill="#404040"><set attributeName="fill" to="#808080" begin="reset.mouseover" end="reset.mouseout"/></use>
  </g>
</defs>
<script type="application/ecmascript">
var viewWidth = 841;
var viewHeight = 154;
var sectionId = 'dynsection-0';
</script>
<script type="application/ecmascript" xlink:href="svg.min.js"/>
<svg id="graph" class="graph">
<g id="viewport">
<title>src/platforms</title>
<g id="clust1" class="cluster">
<title>clusterdir_68267d1309a1af8e8297ef4c3efbcdba</title>
<g id="a_clust1"><a xlink:href="dir_68267d1309a1af8e8297ef4c3efbcdba.html" target="_top" xlink:title="src">
<polygon fill="#e6eefd" stroke="#404040" stroke-dasharray="5,2" points="8,-8 8,-138.25 773,-138.25 773,-8 8,-8"/>
<text xml:space="preserve" text-anchor="middle" x="390.5" y="-124.75" font-family="Helvetica,sans-Serif" font-size="10.00">src</text>
</a>
</g>
</g>
<g id="clust2" class="cluster">
<title>clusterdir_ceed1ce8f89ba04e240f3818f1ccc961</title>
<g id="a_clust2"><a xlink:href="dir_ceed1ce8f89ba04e240f3818f1ccc961.html" target="_top">
<polygon fill="#e6eefd" stroke="#404040" stroke-width="2" points="16,-16 16,-109.5 765,-109.5 765,-16 16,-16"/>
</a>
</g>
</g>
<!-- dir_ceed1ce8f89ba04e240f3818f1ccc961 -->
<g id="node1" class="node">
<title>dir_ceed1ce8f89ba04e240f3818f1ccc961</title>
<text xml:space="preserve" text-anchor="middle" x="56" y="-88" font-family="Helvetica,sans-Serif" font-size="10.00">platforms</text>
</g>
<!-- dir_ec42ad78dd6cae3ff203004d8c882467 -->
<g id="node2" class="node">
<title>dir_ec42ad78dd6cae3ff203004d8c882467</title>
<g id="a_node2"><a xlink:href="dir_ec42ad78dd6cae3ff203004d8c882467.html" target="_top" xlink:title="3ds">
<polygon fill="#82a9f6" stroke="#404040" points="388.62,-101.5 355.38,-101.5 355.38,-80.75 388.62,-80.75 388.62,-101.5"/>
<text xml:space="preserve" text-anchor="middle" x="372" y="-88" font-family="Helvetica,sans-Serif" font-size="10.00">3ds</text>
</a>
</g>
</g>
<!-- dir_3c172eab3d3eff36a04ebb8e77c44848 -->
<g id="node3" class="node">
<title>dir_3c172eab3d3eff36a04ebb8e77c44848</title>
<g id="a_node3"><a xlink:href="dir_3c172eab3d3eff36a04ebb8e77c44848.html" target="_top" xlink:title="common">
<polygon fill="#82a9f6" stroke="#404040" points="322.38,-44.75 263.62,-44.75 263.62,-24 322.38,-24 322.38,-44.75"/>
<text xml:space="preserve" text-anchor="middle" x="293" y="-31.25" font-family="Helvetica,sans-Serif" font-size="10.00">common</text>
</a>
</g>
</g>
<!-- dir_ec42ad78dd6cae3ff203004d8c882467&#45;&gt;dir_3c172eab3d3eff36a04ebb8e77c44848 -->
<g id="edge1" class="edge">
<title>dir_ec42ad78dd6cae3ff203004d8c882467&#45;&gt;dir_3c172eab3d3eff36a04ebb8e77c44848</title>
<g id="a_edge1"><a xlink:href="dir_000000_000010.html" target="_top">
<path fill="none" stroke="#63b8ff" d="M357.88,-80.34C346.31,-72.32 329.7,-60.81 316.18,-51.44"/>
<polygon fill="#63b8ff" stroke="#63b8ff" points="318.46,-48.76 308.25,-45.94 314.47,-54.51 318.46,-48.76"/>
</a>
</g>
<g id="a_edge1&#45;headlabel"><a xlink:href="dir_000000_000010.html" target="_top" xlink:title="1">
<text xml:space="preserve" text-anchor="middle" x="321.79" y="-44.49" font-family="Helvetica,sans-Serif" font-size="10.00" fill="#63b8ff">1</text>
</a>
</g>
</g>
<!-- dir_d44c64559bbebec7f509842c48db8b23 -->
<g id="node14" class="node">
<title>dir_d44c64559bbebec7f509842c48db8b23</title>
<g id="a_node14"><a xlink:href="dir_d44c64559bbebec7f509842c48db8b23.html" target="_top" xlink:title="include">
<polygon fill="#e6eefd" stroke="red" points="832.62,-44.75 781.38,-44.75 781.38,-24 832.62,-24 832.62,-44.75"/>
<text xml:space="preserve" text-anchor="middle" x="807" y="-31.25" font-family="Helvetica,sans-Serif" font-size="10.00">include</text>
</a>
</g>
</g>
<!-- dir_ec42ad78dd6cae3ff203004d8c882467&#45;&gt;dir_d44c64559bbebec7f509842c48db8b23 -->
<g id="edge2" class="edge">
<title>dir_ec42ad78dd6cae3ff203004d8c882467&#45;&gt;dir_d44c64559bbebec7f509842c48db8b23</title>
<g id="a_edge2"><a xlink:href="dir_000000_000023.html" target="_top">
<path fill="none" stroke="#63b8ff" d="M388.88,-83.35C391.88,-82.35 395,-81.42 398,-80.75 559.62,-44.37 605.71,-72.66 769,-44.75 769.24,-44.71 769.49,-44.67 769.73,-44.62"/>
<polygon fill="#63b8ff" stroke="#63b8ff" points="770.36,-48.07 779.46,-42.64 768.96,-41.21 770.36,-48.07"/>
</a>
</g>
<g id="a_edge2&#45;headlabel"><a xlink:href="dir_000000_000023.html" target="_top" xlink:title="1">
<text xml:space="preserve" text-anchor="middle" x="768.89" y="-48.14" font-family="Helvetica,sans-Serif" font-size="10.00" fill="#63b8ff">1</text>
</a>
</g>
</g>
<!-- dir_3c172eab3d3eff36a04ebb8e77c44848&#45;&gt;dir_d44c64559bbebec7f509842c48db8b23 -->
<g id="edge3" class="edge">
<title>dir_3c172eab3d3eff36a04ebb8e77c44848&#45;&gt;dir_d44c64559bbebec7f509842c48db8b23</title>
<g id="a_edge3"><a xlink:href="dir_000010_000023.html" target="_top">
<path fill="none" stroke="#63b8ff" d="M322.87,-34.38C471.85,-34.38 620.83,-34.38 769.81,-34.38"/>
<polygon fill="#63b8ff" stroke="#63b8ff" points="769.48,-37.88 779.48,-34.38 769.48,-30.88 769.48,-37.88"/>
</a>
</g>
<g id="a_edge3&#45;headlabel"><a xlink:href="dir_000010_000023.html" target="_top" xlink:title="1">
<text xml:space="preserve" text-anchor="middle" x="767.4" y="-37.59" font-family="Helvetica,sans-Serif" font-size="10.00" fill="#63b8ff">1</text>
</a>
</g>
</g>
<!-- dir_71577dde3ddcf1d7c60e2d25449923f3 -->
<g id="node4" class="node">
<title>dir_71577dde3ddcf1d7c60e2d25449923f3</title>
<g id="a_node4"><a xlink:href="dir_71577dde3ddcf1d7c60e2d25449923f3.html" target="_top" xlink:title="gamecube">
<polygon fill="#82a9f6" stroke="#404040" points="172.5,-101.5 105.5,-101.5 105.5,-80.75 172.5,-80.75 172.5,-101.5"/>
<text xml:space="preserve" text-anchor="middle" x="139" y="-88" font-family="Helvetica,sans-Serif" font-size="10.00">gamecube</text>
</a>
</g>
</g>
<!-- dir_71577dde3ddcf1d7c60e2d25449923f3&#45;&gt;dir_3c172eab3d3eff36a04ebb8e77c44848 -->
<g id="edge4" class="edge">
<title>dir_71577dde3ddcf1d7c60e2d25449923f3&#45;&gt;dir_3c172eab3d3eff36a04ebb8e77c44848</title>
<g id="a_edge4"><a xlink:href="dir_000020_000010.html" target="_top">
<path fill="none" stroke="#63b8ff" d="M166.53,-80.34C191.09,-71.61 227.3,-58.73 254.68,-49"/>
<polygon fill="#63b8ff" stroke="#63b8ff" points="255.77,-52.33 264.02,-45.68 253.43,-45.73 255.77,-52.33"/>
</a>
</g>
<g id="a_edge4&#45;headlabel"><a xlink:href="dir_000020_000010.html" target="_top" xlink:title="1">
<text xml:space="preserve" text-anchor="middle" x="254.76" y="-52.57" font-family="Helvetica,sans-Serif" font-size="10.00" fill="#63b8ff">1</text>
</a>
</g>
</g>
<!-- dir_71577dde3ddcf1d7c60e2d25449923f3&#45;&gt;dir_d44c64559bbebec7f509842c48db8b23 -->
<g id="edge5" class="edge">
<title>dir_71577dde3ddcf1d7c60e2d25449923f3&#45;&gt;dir_d44c64559bbebec7f509842c48db8b23</title>
<g id="a_edge5"><a xlink:href="dir_000020_000023.html" target="_top">
<path fill="none" stroke="#63b8ff" d="M172.84,-82.09C175.59,-81.58 178.34,-81.13 181,-80.75 440.25,-44.12 510.18,-84.27 769,-44.75 769.24,-44.71 769.49,-44.67 769.73,-44.64"/>
<polygon fill="#63b8ff" stroke="#63b8ff" points="770.32,-48.09 779.47,-42.75 768.99,-41.21 770.32,-48.09"/>
</a>
</g>
<g id="a_edge5&#45;headlabel"><a xlink:href="dir_000020_000023.html" target="_top" xlink:title="1">
<text xml:space="preserve" text-anchor="middle" x="768.82" y="-48.15" font-family="Helvetica,sans-Serif" font-size="10.00" fill="#63b8ff">1</text>
</a>
</g>
</g>
<!-- dir_c535a4a48b3b456973d783f9794b23a7 -->
<g id="node5" class="node">
<title>dir_c535a4a48b3b456973d783f9794b23a7</title>
<g id="a_node5"><a xlink:href="dir_c535a4a48b3b456973d783f9794b23a7.html" target="_top" xlink:title="gba">
<polygon fill="#82a9f6" stroke="#404040" points="441,-101.5 407,-101.5 407,-80.75 441,-80.75 441,-101.5"/>
<text xml:space="preserve" text-anchor="middle" x="424" y="-88" font-family="Helvetica,sans-Serif" font-size="10.00">gba</text>
</a>
</g>
</g>
<!-- dir_c535a4a48b3b456973d783f9794b23a7&#45;&gt;dir_d44c64559bbebec7f509842c48db8b23 -->
<g id="edge6" class="edge">
<title>dir_c535a4a48b3b456973d783f9794b23a7&#45;&gt;dir_d44c64559bbebec7f509842c48db8b23</title>
<g id="a_edge6"><a xlink:href="dir_000021_000023.html" target="_top">
<path fill="none" stroke="#63b8ff" d="M441.45,-83.2C444.28,-82.27 447.2,-81.4 450,-80.75 588.95,-48.33 628.55,-69.89 769,-44.75 769.24,-44.71 769.49,-44.66 769.73,-44.62"/>
<polygon fill="#63b8ff" stroke="#63b8ff" points="770.38,-48.06 779.45,-42.59 768.94,-41.21 770.38,-48.06"/>
</a>
</g>
<g id="a_edge6&#45;headlabel"><a xlink:href="dir_000021_000023.html" target="_top" xlink:title="2">
<text xml:space="preserve" text-anchor="middle" x="768.92" y="-48.14" font-family="Helvetica,sans-Serif" font-size="10.00" fill="#63b8ff">2</text>
</a>
</g>
</g>
<!-- dir_85f2f5b017d0e280691879598107c592 -->
<g id="node6" class="node">
<title>dir_85f2f5b017d0e280691879598107c592</title>
<g id="a_node6"><a xlink:href="dir_85f2f5b017d0e280691879598107c592.html" target="_top" xlink:title="linux">
<polygon fill="#82a9f6" stroke="#404040" points="499,-101.5 459,-101.5 459,-80.75 499,-80.75 499,-101.5"/>
<text xml:space="preserve" text-anchor="middle" x="479" y="-88" font-family="Helvetica,sans-Serif" font-size="10.00">linux</text>
</a>
</g>
</g>
<!-- dir_85f2f5b017d0e280691879598107c592&#45;&gt;dir_d44c64559bbebec7f509842c48db8b23 -->
<g id="edge7" class="edge">
<title>dir_85f2f5b017d0e280691879598107c592&#45;&gt;dir_d44c64559bbebec7f509842c48db8b23</title>
<g id="a_edge7"><a xlink:href="dir_000024_000023.html" target="_top">
<path fill="none" stroke="#63b8ff" d="M499.47,-83.02C502.31,-82.17 505.21,-81.39 508,-80.75 622.15,-54.64 654,-66.8 769,-44.75 769.24,-44.7 769.48,-44.66 769.73,-44.61"/>
<polygon fill="#63b8ff" stroke="#63b8ff" points="770.4,-48.04 779.43,-42.51 768.92,-41.2 770.4,-48.04"/>
</a>
</g>
<g id="a_edge7&#45;headlabel"><a xlink:href="dir_000024_000023.html" target="_top" xlink:title="3">
<text xml:space="preserve" text-anchor="middle" x="768.96" y="-48.13" font-family="Helvetica,sans-Serif" font-size="10.00" fill="#63b8ff">3</text>
</a>
</g>
</g>
<!-- dir_09678985b484b4db3dfe2991103a0695 -->
<g id="node7" class="node">
<title>dir_09678985b484b4db3dfe2991103a0695</title>
<g id="a_node7"><a xlink:href="dir_09678985b484b4db3dfe2991103a0695.html" target="_top" xlink:title="macos">
<polygon fill="#82a9f6" stroke="#404040" points="565.12,-101.5 516.88,-101.5 516.88,-80.75 565.12,-80.75 565.12,-101.5"/>
<text xml:space="preserve" text-anchor="middle" x="541" y="-88" font-family="Helvetica,sans-Serif" font-size="10.00">macos</text>
</a>
</g>
</g>
<!-- dir_09678985b484b4db3dfe2991103a0695&#45;&gt;dir_d44c64559bbebec7f509842c48db8b23 -->
<g id="edge8" class="edge">
<title>dir_09678985b484b4db3dfe2991103a0695&#45;&gt;dir_d44c64559bbebec7f509842c48db8b23</title>
<g id="a_edge8"><a xlink:href="dir_000025_000023.html" target="_top">
<path fill="none" stroke="#63b8ff" d="M565.44,-82.9C568.32,-82.14 571.22,-81.4 574,-80.75 659.82,-60.69 682.85,-63.31 769,-44.75 769.24,-44.7 769.48,-44.65 769.72,-44.59"/>
<polygon fill="#63b8ff" stroke="#63b8ff" points="770.44,-48.02 779.41,-42.37 768.88,-41.2 770.44,-48.02"/>
</a>
</g>
<g id="a_edge8&#45;headlabel"><a xlink:href="dir_000025_000023.html" target="_top" xlink:title="3">
<text xml:space="preserve" text-anchor="middle" x="769.05" y="-48.13" font-family="Helvetica,sans-Serif" font-size="10.00" fill="#63b8ff">3</text>
</a>
</g>
</g>
<!-- dir_2ddc4bd1c9638660b0dec9084e710279 -->
<g id="node8" class="node">
<title>dir_2ddc4bd1c9638660b0dec9084e710279</title>
<g id="a_node8"><a xlink:href="dir_2ddc4bd1c9638660b0dec9084e710279.html" target="_top" xlink:title="nds">
<polygon fill="#82a9f6" stroke="#404040" points="223.62,-101.5 190.38,-101.5 190.38,-80.75 223.62,-80.75 223.62,-101.5"/>
<text xml:space="preserve" text-anchor="middle" x="207" y="-88" font-family="Helvetica,sans-Serif" font-size="10.00">nds</text>
</a>
</g>
</g>
<!-- dir_2ddc4bd1c9638660b0dec9084e710279&#45;&gt;dir_3c172eab3d3eff36a04ebb8e77c44848 -->
<g id="edge9" class="edge">
<title>dir_2ddc4bd1c9638660b0dec9084e710279&#45;&gt;dir_3c172eab3d3eff36a04ebb8e77c44848</title>
<g id="a_edge9"><a xlink:href="dir_000027_000010.html" target="_top">
<path fill="none" stroke="#63b8ff" d="M222.38,-80.34C235.09,-72.24 253.4,-60.58 268.19,-51.17"/>
<polygon fill="#63b8ff" stroke="#63b8ff" points="269.93,-54.21 276.48,-45.89 266.17,-48.31 269.93,-54.21"/>
</a>
</g>
<g id="a_edge9&#45;headlabel"><a xlink:href="dir_000027_000010.html" target="_top" xlink:title="1">
<text xml:space="preserve" text-anchor="middle" x="269.69" y="-54.6" font-family="Helvetica,sans-Serif" font-size="10.00" fill="#63b8ff">1</text>
</a>
</g>
</g>
<!-- dir_2ddc4bd1c9638660b0dec9084e710279&#45;&gt;dir_d44c64559bbebec7f509842c48db8b23 -->
<g id="edge10" class="edge">
<title>dir_2ddc4bd1c9638660b0dec9084e710279&#45;&gt;dir_d44c64559bbebec7f509842c48db8b23</title>
<g id="a_edge10"><a xlink:href="dir_000027_000023.html" target="_top">
<path fill="none" stroke="#63b8ff" d="M224.02,-82.99C226.65,-82.11 229.37,-81.32 232,-80.75 465.8,-30.22 532.64,-81.54 769,-44.75 769.24,-44.71 769.49,-44.67 769.73,-44.63"/>
<polygon fill="#63b8ff" stroke="#63b8ff" points="770.33,-48.08 779.47,-42.73 768.98,-41.21 770.33,-48.08"/>
</a>
</g>
<g id="a_edge10&#45;headlabel"><a xlink:href="dir_000027_000023.html" target="_top" xlink:title="1">
<text xml:space="preserve" text-anchor="middle" x="768.83" y="-48.14" font-family="Helvetica,sans-Serif" font-size="10.00" fill="#63b8ff">1</text>
</a>
</g>
</g>
<!-- dir_ecf0edda40476ff1d9c29547bdf97a40 -->
<g id="node9" class="node">
<title>dir_ecf0edda40476ff1d9c29547bdf97a40</title>
<g id="a_node9"><a xlink:href="dir_ecf0edda40476ff1d9c29547bdf97a40.html" target="_top" xlink:title="posix">
<polygon fill="#82a9f6" stroke="#404040" points="625.12,-101.5 582.88,-101.5 582.88,-80.75 625.12,-80.75 625.12,-101.5"/>
<text xml:space="preserve" text-anchor="middle" x="604" y="-88" font-family="Helvetica,sans-Serif" font-size="10.00">posix</text>
</a>
</g>
</g>
<!-- dir_ecf0edda40476ff1d9c29547bdf97a40&#45;&gt;dir_d44c64559bbebec7f509842c48db8b23 -->
<g id="edge11" class="edge">
<title>dir_ecf0edda40476ff1d9c29547bdf97a40&#45;&gt;dir_d44c64559bbebec7f509842c48db8b23</title>
<g id="a_edge11"><a xlink:href="dir_000032_000023.html" target="_top">
<path fill="none" stroke="#63b8ff" d="M625.32,-83.57C628.55,-82.6 631.86,-81.64 635,-80.75 681.32,-67.64 735,-53.67 769.91,-44.75"/>
<polygon fill="#63b8ff" stroke="#63b8ff" points="770.69,-48.16 779.52,-42.3 768.97,-41.38 770.69,-48.16"/>
</a>
</g>
<g id="a_edge11&#45;headlabel"><a xlink:href="dir_000032_000023.html" target="_top" xlink:title="2">
<text xml:space="preserve" text-anchor="middle" x="769.38" y="-48.3" font-family="Helvetica,sans-Serif" font-size="10.00" fill="#63b8ff">2</text>
</a>
</g>
</g>
<!-- dir_dbd2f83f65a97e35fcbceb75bafbe0f9 -->
<g id="node10" class="node">
<title>dir_dbd2f83f65a97e35fcbceb75bafbe0f9</title>
<g id="a_node10"><a xlink:href="dir_dbd2f83f65a97e35fcbceb75bafbe0f9.html" target="_top" xlink:title="stub">
<polygon fill="#82a9f6" stroke="#404040" points="680.5,-101.5 643.5,-101.5 643.5,-80.75 680.5,-80.75 680.5,-101.5"/>
<text xml:space="preserve" text-anchor="middle" x="662" y="-88" font-family="Helvetica,sans-Serif" font-size="10.00">stub</text>
</a>
</g>
</g>
<!-- dir_dbd2f83f65a97e35fcbceb75bafbe0f9&#45;&gt;dir_d44c64559bbebec7f509842c48db8b23 -->
<g id="edge12" class="edge">
<title>dir_dbd2f83f65a97e35fcbceb75bafbe0f9&#45;&gt;dir_d44c64559bbebec7f509842c48db8b23</title>
<g id="a_edge12"><a xlink:href="dir_000036_000023.html" target="_top">
<path fill="none" stroke="#63b8ff" d="M680.96,-82.97C703.52,-74.45 741.73,-60.02 770.18,-49.28"/>
<polygon fill="#63b8ff" stroke="#63b8ff" points="771.39,-52.56 779.51,-45.75 768.92,-46.01 771.39,-52.56"/>
</a>
</g>
<g id="a_edge12&#45;headlabel"><a xlink:href="dir_000036_000023.html" target="_top" xlink:title="3">
<text xml:space="preserve" text-anchor="middle" x="770.45" y="-52.83" font-family="Helvetica,sans-Serif" font-size="10.00" fill="#63b8ff">3</text>
</a>
</g>
</g>
<!-- dir_f1cd75b7a609b9cf63cfb1686d016e0b -->
<g id="node11" class="node">
<title>dir_f1cd75b7a609b9cf63cfb1686d016e0b</title>
<g id="a_node11"><a xlink:href="dir_f1cd75b7a609b9cf63cfb1686d016e0b.html" target="_top" xlink:title="switch">
<polygon fill="#82a9f6" stroke="#404040" points="288.75,-101.5 241.25,-101.5 241.25,-80.75 288.75,-80.75 288.75,-101.5"/>
<text xml:space="preserve" text-anchor="middle" x="265" y="-88" font-family="Helvetica,sans-Serif" font-size="10.00">switch</text>
</a>
</g>
</g>
<!-- dir_f1cd75b7a609b9cf63cfb1686d016e0b&#45;&gt;dir_3c172eab3d3eff36a04ebb8e77c44848 -->
<g id="edge13" class="edge">
<title>dir_f1cd75b7a609b9cf63cfb1686d016e0b&#45;&gt;dir_3c172eab3d3eff36a04ebb8e77c44848</title>
<g id="a_edge13"><a xlink:href="dir_000037_000010.html" target="_top">
<path fill="none" stroke="#63b8ff" d="M270.01,-80.34C273.59,-73.33 278.54,-63.66 282.92,-55.08"/>
<polygon fill="#63b8ff" stroke="#63b8ff" points="285.91,-56.92 287.35,-46.43 279.68,-53.74 285.91,-56.92"/>
</a>
</g>
<g id="a_edge13&#45;headlabel"><a xlink:href="dir_000037_000010.html" target="_top" xlink:title="1">
<text xml:space="preserve" text-anchor="middle" x="287.49" y="-56.94" font-family="Helvetica,sans-Serif" font-size="10.00" fill="#63b8ff">1</text>
</a>
</g>
</g>
<!-- dir_f1cd75b7a609b9cf63cfb1686d016e0b&#45;&gt;dir_d44c64559bbebec7f509842c48db8b23 -->
<g id="edge14" class="edge">
<title>dir_f1cd75b7a609b9cf63cfb1686d016e0b&#45;&gt;dir_d44c64559bbebec7f509842c48db8b23</title>
<g id="a_edge14"><a xlink:href="dir_000037_000023.html" target="_top">
<path fill="none" stroke="#63b8ff" d="M289.02,-82.7C292.02,-81.95 295.07,-81.27 298,-80.75 504.68,-43.88 561.71,-78.01 769,-44.75 769.24,-44.71 769.49,-44.67 769.73,-44.63"/>
<polygon fill="#63b8ff" stroke="#63b8ff" points="770.34,-48.08 779.47,-42.7 768.98,-41.21 770.34,-48.08"/>
</a>
</g>
<g id="a_edge14&#45;headlabel"><a xlink:href="dir_000037_000023.html" target="_top" xlink:title="1">
<text xml:space="preserve" text-anchor="middle" x="768.85" y="-48.14" font-family="Helvetica,sans-Serif" font-size="10.00" fill="#63b8ff">1</text>
</a>
</g>
</g>
<!-- dir_260e38cdfbd7032146a6110264900101 -->
<g id="node12" class="node">
<title>dir_260e38cdfbd7032146a6110264900101</title>
<g id="a_node12"><a xlink:href="dir_260e38cdfbd7032146a6110264900101.html" target="_top" xlink:title="wii">
<polygon fill="#82a9f6" stroke="#404040" points="337.12,-101.5 306.88,-101.5 306.88,-80.75 337.12,-80.75 337.12,-101.5"/>
<text xml:space="preserve" text-anchor="middle" x="322" y="-88" font-family="Helvetica,sans-Serif" font-size="10.00">wii</text>
</a>
</g>
</g>
<!-- dir_260e38cdfbd7032146a6110264900101&#45;&gt;dir_3c172eab3d3eff36a04ebb8e77c44848 -->
<g id="edge15" class="edge">
<title>dir_260e38cdfbd7032146a6110264900101&#45;&gt;dir_3c172eab3d3eff36a04ebb8e77c44848</title>
<g id="a_edge15"><a xlink:href="dir_000039_000010.html" target="_top">
<path fill="none" stroke="#63b8ff" d="M316.82,-80.34C313.1,-73.33 307.98,-63.66 303.44,-55.08"/>
<polygon fill="#63b8ff" stroke="#63b8ff" points="306.62,-53.61 298.85,-46.42 300.44,-56.89 306.62,-53.61"/>
</a>
</g>
<g id="a_edge15&#45;headlabel"><a xlink:href="dir_000039_000010.html" target="_top" xlink:title="1">
<text xml:space="preserve" text-anchor="middle" x="310.1" y="-51" font-family="Helvetica,sans-Serif" font-size="10.00" fill="#63b8ff">1</text>
</a>
</g>
</g>
<!-- dir_260e38cdfbd7032146a6110264900101&#45;&gt;dir_d44c64559bbebec7f509842c48db8b23 -->
<g id="edge16" class="edge">
<title>dir_260e38cdfbd7032146a6110264900101&#45;&gt;dir_d44c64559bbebec7f509842c48db8b23</title>
<g id="a_edge16"><a xlink:href="dir_000039_000023.html" target="_top">
<path fill="none" stroke="#63b8ff" d="M337.54,-83.31C340.32,-82.31 343.21,-81.4 346,-80.75 529.77,-37.98 582.83,-75.44 769,-44.75 769.24,-44.71 769.49,-44.67 769.73,-44.63"/>
<polygon fill="#63b8ff" stroke="#63b8ff" points="770.35,-48.07 779.46,-42.67 768.97,-41.21 770.35,-48.07"/>
</a>
</g>
<g id="a_edge16&#45;headlabel"><a xlink:href="dir_000039_000023.html" target="_top" xlink:title="1">
<text xml:space="preserve" text-anchor="middle" x="768.87" y="-48.14" font-family="Helvetica,sans-Serif" font-size="10.00" fill="#63b8ff">1</text>
</a>
</g>
</g>
<!-- dir_0a18029368813177489ba7a997da11e8 -->
<g id="node13" class="node">
<title>dir_0a18029368813177489ba7a997da11e8</title>
<g id="a_node13"><a xlink:href="dir_0a18029368813177489ba7a997da11e8.html" target="_top" xlink:title="windows">
<polygon fill="#82a9f6" stroke="#404040" points="757.38,-101.5 698.62,-101.5 698.62,-80.75 757.38,-80.75 757.38,-101.5"/>
<text xml:space="preserve" text-anchor="middle" x="728" y="-88" font-family="Helvetica,sans-Serif" font-size="10.00">windows</text>
</a>
</g>
</g>
<!-- dir_0a18029368813177489ba7a997da11e8&#45;&gt;dir_d44c64559bbebec7f509842c48db8b23 -->
<g id="edge17" class="edge">
<title>dir_0a18029368813177489ba7a997da11e8&#45;&gt;dir_d44c64559bbebec7f509842c48db8b23</title>
<g id="a_edge17"><a xlink:href="dir_000040_000023.html" target="_top">
<path fill="none" stroke="#63b8ff" d="M742.12,-80.34C753.69,-72.32 770.3,-60.81 783.82,-51.44"/>
<polygon fill="#63b8ff" stroke="#63b8ff" points="785.53,-54.51 791.75,-45.94 781.54,-48.76 785.53,-54.51"/>
</a>
</g>
<g id="a_edge17&#45;headlabel"><a xlink:href="dir_000040_000023.html" target="_top" xlink:title="5">
<text xml:space="preserve" text-anchor="middle" x="785.44" y="-54.91" font-family="Helvetica,sans-Serif" font-size="10.00" fill="#63b8ff">5</text>
</a>
</g>
</g>
</g>
</svg>

<g id="navigator" transform="translate(0 0)" fill="#404254">
  <rect fill="#f2f5e9" fill-opacity="0.5" stroke="#606060" stroke-width=".5" x="0" y="0" width="60" height="60"/>
  <use id="zoomplus" xlink:href="#zoomPlus" x="17" y="9" onmousedown="handleZoom(evt,'in')"/>
  <use id="zoomminus" xlink:href="#zoomMin" x="42" y="9" onmousedown="handleZoom(evt,'out')"/>
  <use id="reset" xlink:href="#resetDef" x="30" y="36" onmousedown="handleReset()"/>
   <use id="arrowup" xlink:href="#arrowUp" x="0" y="0" onmousedown="handlePan(0,-1)"/>
  <use id="arrowright" xlink:href="#arrowRight" x="0" y="0" onmousedown="handlePan(1,0)"/>
  <use id="arrowdown" xlink:href="#arrowDown" x="0" y="0" onmousedown="handlePan(0,1)"/>
  <use id="arrowleft" xlink:href="#arrowLeft" x="0" y="0" onmousedown="handlePan(-1,0)"/>
</g>
<svg viewBox="0 0 15 15" width="100%" height="30px" preserveAspectRatio="xMaxYMin meet">
 <g id="arrow_out" transform="scale(0.3 0.3)">
  <a xlink:href="dir_ceed1ce8f89ba04e240f3818f1ccc961_dep_org.svg" target="_base">
   <rect id="button" ry="5" rx="5" y="6" x="6" height="38" width="38"
        fill="#f2f5e9" fill-opacity="0.5" stroke="#606060" stroke-width="1.0"/>
   <path id="arrow"
     d="M 11.500037,31.436501 C 11.940474,20.09759 22.043105,11.32322 32.158766,21.979434 L 37.068811,17.246167 C 37.068811,17.246167 37.088388,32 37.088388,32 L 22.160133,31.978069 C 22.160133,31.978069 26.997745,27.140456 26.997745,27.140456 C 18.528582,18.264221 13.291696,25.230495 11.500037,31.436501 z"
     style="fill:#404040;"/>
  </a>
 </g>
</svg>

<style type='text/css'>
<![CDATA[
[data-mouse-over-selected='false'] { opacity: 0.7; }
[data-mouse-over-selected='true']  { opacity: 1.0; }
]]>
</style>
<script type="application/ecmascript"><![CDATA[
document.addEventListener('DOMContentLoaded', (event) => {
  highlightEdges();
  highlightAdjacentNodes();
});
]]></script>
</svg>
