<?xml version="1.0" encoding="UTF-8" standalone="no"?>
<!DOCTYPE svg PUBLIC "-//W3C//DTD SVG 1.1//EN"
 "http://www.w3.org/Graphics/SVG/1.1/DTD/svg11.dtd">
<!-- Generated by graphviz version 2.43.0 (0)
 -->
<!-- Title: src/platforms Pages: 1 -->
<svg width="717pt" height="149pt"
 viewBox="0.00 0.00 717.00 149.00" xmlns="http://www.w3.org/2000/svg" xmlns:xlink="http://www.w3.org/1999/xlink">
<g id="page0,1_graph0" class="graph" transform="scale(1 1) rotate(0) translate(4 145)">
<title>src/platforms</title>
<g id="clust1" class="cluster">
<title>clusterdir_68267d1309a1af8e8297ef4c3efbcdba</title>
<g id="a_clust1"><a xlink:href="dir_68267d1309a1af8e8297ef4c3efbcdba.html" target="_top" xlink:title="src">
<polygon fill="#e6eefd" stroke="#404040" stroke-dasharray="5,2" points="8,-8 8,-133 649,-133 649,-8 8,-8"/>
<text text-anchor="middle" x="328.5" y="-121" font-family="Helvetica,sans-Serif" font-size="10.00">src</text>
</a>
</g>
</g>
<g id="clust2" class="cluster">
<title>clusterdir_ceed1ce8f89ba04e240f3818f1ccc961</title>
<g id="a_clust2"><a xlink:href="dir_ceed1ce8f89ba04e240f3818f1ccc961.html" target="_top">
<polygon fill="#e6eefd" stroke="#404040" stroke-width="2" points="16,-16 16,-106 641,-106 641,-16 16,-16"/>
</a>
</g>
</g>
<!-- dir_ceed1ce8f89ba04e240f3818f1ccc961 -->
<g id="node1" class="node">
<title>dir_ceed1ce8f89ba04e240f3818f1ccc961</title>
<text text-anchor="middle" x="601" y="-86" font-family="Helvetica,sans-Serif" font-size="10.00">platforms</text>
</g>
<!-- dir_ec42ad78dd6cae3ff203004d8c882467 -->
<g id="node2" class="node">
<title>dir_ec42ad78dd6cae3ff203004d8c882467</title>
<g id="a_node2"><a xlink:href="dir_ec42ad78dd6cae3ff203004d8c882467.html" target="_top" xlink:title="3ds">
<polygon fill="#82a9f6" stroke="#404040" points="176,-98 142,-98 142,-79 176,-79 176,-98"/>
<text text-anchor="middle" x="159" y="-86" font-family="Helvetica,sans-Serif" font-size="10.00">3ds</text>
</a>
</g>
</g>
<!-- dir_3c172eab3d3eff36a04ebb8e77c44848 -->
<g id="node3" class="node">
<title>dir_3c172eab3d3eff36a04ebb8e77c44848</title>
<g id="a_node3"><a xlink:href="dir_3c172eab3d3eff36a04ebb8e77c44848.html" target="_top" xlink:title="common">
<polygon fill="#82a9f6" stroke="#404040" points="136.5,-43 77.5,-43 77.5,-24 136.5,-24 136.5,-43"/>
<text text-anchor="middle" x="107" y="-31" font-family="Helvetica,sans-Serif" font-size="10.00">common</text>
</a>
</g>
</g>
<!-- dir_ec42ad78dd6cae3ff203004d8c882467&#45;&gt;dir_3c172eab3d3eff36a04ebb8e77c44848 -->
<g id="edge1" class="edge">
<title>dir_ec42ad78dd6cae3ff203004d8c882467&#45;&gt;dir_3c172eab3d3eff36a04ebb8e77c44848</title>
<g id="a_edge1"><a xlink:href="dir_000000_000008.html" target="_top">
<path fill="none" stroke="#63b8ff" d="M150.41,-78.75C142.84,-71.03 131.62,-59.6 122.49,-50.28"/>
<polygon fill="#63b8ff" stroke="#63b8ff" points="124.93,-47.78 115.43,-43.09 119.93,-52.68 124.93,-47.78"/>
</a>
</g>
<g id="a_edge1&#45;headlabel"><a xlink:href="dir_000000_000008.html" target="_top" xlink:title="1">
<text text-anchor="middle" x="129.47" y="-45.85" font-family="Helvetica,sans-Serif" font-size="10.00" fill="#63b8ff">1</text>
</a>
</g>
</g>
<!-- dir_d44c64559bbebec7f509842c48db8b23 -->
<g id="node12" class="node">
<title>dir_d44c64559bbebec7f509842c48db8b23</title>
<g id="a_node12"><a xlink:href="dir_d44c64559bbebec7f509842c48db8b23.html" target="_top" xlink:title="include">
<polygon fill="#e6eefd" stroke="red" points="709,-43 657,-43 657,-24 709,-24 709,-43"/>
<text text-anchor="middle" x="683" y="-31" font-family="Helvetica,sans-Serif" font-size="10.00">include</text>
</a>
</g>
</g>
<!-- dir_ec42ad78dd6cae3ff203004d8c882467&#45;&gt;dir_d44c64559bbebec7f509842c48db8b23 -->
<g id="edge2" class="edge">
<title>dir_ec42ad78dd6cae3ff203004d8c882467&#45;&gt;dir_d44c64559bbebec7f509842c48db8b23</title>
<g id="a_edge2"><a xlink:href="dir_000000_000020.html" target="_top">
<path fill="none" stroke="#63b8ff" d="M176.19,-81.25C179.1,-80.37 182.11,-79.58 185,-79 386.1,-38.85 442.21,-73.46 645,-43 645.61,-42.91 646.22,-42.81 646.83,-42.71"/>
<polygon fill="#63b8ff" stroke="#63b8ff" points="647.73,-46.11 656.93,-40.84 646.46,-39.22 647.73,-46.11"/>
</a>
</g>
<g id="a_edge2&#45;headlabel"><a xlink:href="dir_000000_000020.html" target="_top" xlink:title="1">
<text text-anchor="middle" x="644.71" y="-47.05" font-family="Helvetica,sans-Serif" font-size="10.00" fill="#63b8ff">1</text>
</a>
</g>
</g>
<!-- dir_c535a4a48b3b456973d783f9794b23a7 -->
<g id="node4" class="node">
<title>dir_c535a4a48b3b456973d783f9794b23a7</title>
<g id="a_node4"><a xlink:href="dir_c535a4a48b3b456973d783f9794b23a7.html" target="_top" xlink:title="gba">
<polygon fill="#82a9f6" stroke="#404040" points="288.5,-98 253.5,-98 253.5,-79 288.5,-79 288.5,-98"/>
<text text-anchor="middle" x="271" y="-86" font-family="Helvetica,sans-Serif" font-size="10.00">gba</text>
</a>
</g>
</g>
<!-- dir_c535a4a48b3b456973d783f9794b23a7&#45;&gt;dir_d44c64559bbebec7f509842c48db8b23 -->
<g id="edge3" class="edge">
<title>dir_c535a4a48b3b456973d783f9794b23a7&#45;&gt;dir_d44c64559bbebec7f509842c48db8b23</title>
<g id="a_edge3"><a xlink:href="dir_000018_000020.html" target="_top">
<path fill="none" stroke="#63b8ff" d="M288.77,-81.14C291.5,-80.32 294.31,-79.57 297,-79 449.09,-46.66 491.53,-68.01 645,-43 645.6,-42.9 646.21,-42.8 646.83,-42.69"/>
<polygon fill="#63b8ff" stroke="#63b8ff" points="647.75,-46.08 656.91,-40.76 646.43,-39.21 647.75,-46.08"/>
</a>
</g>
<g id="a_edge3&#45;headlabel"><a xlink:href="dir_000018_000020.html" target="_top" xlink:title="1">
<text text-anchor="middle" x="644.76" y="-47.05" font-family="Helvetica,sans-Serif" font-size="10.00" fill="#63b8ff">1</text>
</a>
</g>
</g>
<!-- dir_85f2f5b017d0e280691879598107c592 -->
<g id="node5" class="node">
<title>dir_85f2f5b017d0e280691879598107c592</title>
<g id="a_node5"><a xlink:href="dir_85f2f5b017d0e280691879598107c592.html" target="_top" xlink:title="linux">
<polygon fill="#82a9f6" stroke="#404040" points="235.5,-98 194.5,-98 194.5,-79 235.5,-79 235.5,-98"/>
<text text-anchor="middle" x="215" y="-86" font-family="Helvetica,sans-Serif" font-size="10.00">linux</text>
</a>
</g>
</g>
<!-- dir_85f2f5b017d0e280691879598107c592&#45;&gt;dir_d44c64559bbebec7f509842c48db8b23 -->
<g id="edge4" class="edge">
<title>dir_85f2f5b017d0e280691879598107c592&#45;&gt;dir_d44c64559bbebec7f509842c48db8b23</title>
<g id="a_edge4"><a xlink:href="dir_000021_000020.html" target="_top">
<path fill="none" stroke="#63b8ff" d="M235.79,-80.88C238.53,-80.16 241.32,-79.51 244,-79 419.81,-45.68 468.2,-70.59 645,-43 645.61,-42.91 646.22,-42.81 646.83,-42.71"/>
<polygon fill="#63b8ff" stroke="#63b8ff" points="647.74,-46.09 656.92,-40.8 646.45,-39.22 647.74,-46.09"/>
</a>
</g>
<g id="a_edge4&#45;headlabel"><a xlink:href="dir_000021_000020.html" target="_top" xlink:title="3">
<text text-anchor="middle" x="644.73" y="-47.05" font-family="Helvetica,sans-Serif" font-size="10.00" fill="#63b8ff">3</text>
</a>
</g>
</g>
<!-- dir_09678985b484b4db3dfe2991103a0695 -->
<g id="node6" class="node">
<title>dir_09678985b484b4db3dfe2991103a0695</title>
<g id="a_node6"><a xlink:href="dir_09678985b484b4db3dfe2991103a0695.html" target="_top" xlink:title="macos">
<polygon fill="#82a9f6" stroke="#404040" points="550.5,-98 501.5,-98 501.5,-79 550.5,-79 550.5,-98"/>
<text text-anchor="middle" x="526" y="-86" font-family="Helvetica,sans-Serif" font-size="10.00">macos</text>
</a>
</g>
</g>
<!-- dir_09678985b484b4db3dfe2991103a0695&#45;&gt;dir_d44c64559bbebec7f509842c48db8b23 -->
<g id="edge5" class="edge">
<title>dir_09678985b484b4db3dfe2991103a0695&#45;&gt;dir_d44c64559bbebec7f509842c48db8b23</title>
<g id="a_edge5"><a xlink:href="dir_000022_000020.html" target="_top">
<path fill="none" stroke="#63b8ff" d="M550.53,-79.22C576.72,-70.38 618.44,-56.29 648.06,-46.29"/>
<polygon fill="#63b8ff" stroke="#63b8ff" points="649.25,-49.59 657.6,-43.07 647.01,-42.96 649.25,-49.59"/>
</a>
</g>
<g id="a_edge5&#45;headlabel"><a xlink:href="dir_000022_000020.html" target="_top" xlink:title="3">
<text text-anchor="middle" x="646.75" y="-50.93" font-family="Helvetica,sans-Serif" font-size="10.00" fill="#63b8ff">3</text>
</a>
</g>
</g>
<!-- dir_2ddc4bd1c9638660b0dec9084e710279 -->
<g id="node7" class="node">
<title>dir_2ddc4bd1c9638660b0dec9084e710279</title>
<g id="a_node7"><a xlink:href="dir_2ddc4bd1c9638660b0dec9084e710279.html" target="_top" xlink:title="nds">
<polygon fill="#82a9f6" stroke="#404040" points="124,-98 90,-98 90,-79 124,-79 124,-98"/>
<text text-anchor="middle" x="107" y="-86" font-family="Helvetica,sans-Serif" font-size="10.00">nds</text>
</a>
</g>
</g>
<!-- dir_2ddc4bd1c9638660b0dec9084e710279&#45;&gt;dir_3c172eab3d3eff36a04ebb8e77c44848 -->
<g id="edge6" class="edge">
<title>dir_2ddc4bd1c9638660b0dec9084e710279&#45;&gt;dir_3c172eab3d3eff36a04ebb8e77c44848</title>
<g id="a_edge6"><a xlink:href="dir_000024_000008.html" target="_top">
<path fill="none" stroke="#63b8ff" d="M107,-78.75C107,-71.8 107,-61.85 107,-53.13"/>
<polygon fill="#63b8ff" stroke="#63b8ff" points="110.5,-53.09 107,-43.09 103.5,-53.09 110.5,-53.09"/>
</a>
</g>
<g id="a_edge6&#45;headlabel"><a xlink:href="dir_000024_000008.html" target="_top" xlink:title="1">
<text text-anchor="middle" x="113.34" y="-54.18" font-family="Helvetica,sans-Serif" font-size="10.00" fill="#63b8ff">1</text>
</a>
</g>
</g>
<!-- dir_2ddc4bd1c9638660b0dec9084e710279&#45;&gt;dir_d44c64559bbebec7f509842c48db8b23 -->
<g id="edge7" class="edge">
<title>dir_2ddc4bd1c9638660b0dec9084e710279&#45;&gt;dir_d44c64559bbebec7f509842c48db8b23</title>
<g id="a_edge7"><a xlink:href="dir_000024_000020.html" target="_top">
<path fill="none" stroke="#63b8ff" d="M124.19,-81.23C127.1,-80.35 130.11,-79.56 133,-79 356.88,-35.23 419.28,-75.99 645,-43 645.61,-42.91 646.22,-42.82 646.83,-42.72"/>
<polygon fill="#63b8ff" stroke="#63b8ff" points="647.73,-46.12 656.93,-40.87 646.46,-39.23 647.73,-46.12"/>
</a>
</g>
<g id="a_edge7&#45;headlabel"><a xlink:href="dir_000024_000020.html" target="_top" xlink:title="1">
<text text-anchor="middle" x="644.7" y="-47.06" font-family="Helvetica,sans-Serif" font-size="10.00" fill="#63b8ff">1</text>
</a>
</g>
</g>
<!-- dir_ecf0edda40476ff1d9c29547bdf97a40 -->
<g id="node8" class="node">
<title>dir_ecf0edda40476ff1d9c29547bdf97a40</title>
<g id="a_node8"><a xlink:href="dir_ecf0edda40476ff1d9c29547bdf97a40.html" target="_top" xlink:title="posix">
<polygon fill="#82a9f6" stroke="#404040" points="483.5,-98 440.5,-98 440.5,-79 483.5,-79 483.5,-98"/>
<text text-anchor="middle" x="462" y="-86" font-family="Helvetica,sans-Serif" font-size="10.00">posix</text>
</a>
</g>
</g>
<!-- dir_ecf0edda40476ff1d9c29547bdf97a40&#45;&gt;dir_d44c64559bbebec7f509842c48db8b23 -->
<g id="edge8" class="edge">
<title>dir_ecf0edda40476ff1d9c29547bdf97a40&#45;&gt;dir_d44c64559bbebec7f509842c48db8b23</title>
<g id="a_edge8"><a xlink:href="dir_000029_000020.html" target="_top">
<path fill="none" stroke="#63b8ff" d="M483.65,-81.45C486.78,-80.61 489.97,-79.77 493,-79 521.77,-71.69 600.19,-53.53 646.8,-42.81"/>
<polygon fill="#63b8ff" stroke="#63b8ff" points="647.83,-46.16 656.79,-40.51 646.26,-39.34 647.83,-46.16"/>
</a>
</g>
<g id="a_edge8&#45;headlabel"><a xlink:href="dir_000029_000020.html" target="_top" xlink:title="2">
<text text-anchor="middle" x="644.96" y="-47.23" font-family="Helvetica,sans-Serif" font-size="10.00" fill="#63b8ff">2</text>
</a>
</g>
</g>
<!-- dir_dbd2f83f65a97e35fcbceb75bafbe0f9 -->
<g id="node9" class="node">
<title>dir_dbd2f83f65a97e35fcbceb75bafbe0f9</title>
<g id="a_node9"><a xlink:href="dir_dbd2f83f65a97e35fcbceb75bafbe0f9.html" target="_top" xlink:title="stub">
<polygon fill="#82a9f6" stroke="#404040" points="422,-98 384,-98 384,-79 422,-79 422,-98"/>
<text text-anchor="middle" x="403" y="-86" font-family="Helvetica,sans-Serif" font-size="10.00">stub</text>
</a>
</g>
</g>
<!-- dir_dbd2f83f65a97e35fcbceb75bafbe0f9&#45;&gt;dir_d44c64559bbebec7f509842c48db8b23 -->
<g id="edge9" class="edge">
<title>dir_dbd2f83f65a97e35fcbceb75bafbe0f9&#45;&gt;dir_d44c64559bbebec7f509842c48db8b23</title>
<g id="a_edge9"><a xlink:href="dir_000033_000020.html" target="_top">
<path fill="none" stroke="#63b8ff" d="M422.26,-81.51C425.49,-80.6 428.83,-79.73 432,-79 525.56,-57.46 550.79,-61.49 645,-43 645.6,-42.88 646.21,-42.76 646.82,-42.64"/>
<polygon fill="#63b8ff" stroke="#63b8ff" points="647.8,-46.01 656.87,-40.53 646.37,-39.16 647.8,-46.01"/>
</a>
</g>
<g id="a_edge9&#45;headlabel"><a xlink:href="dir_000033_000020.html" target="_top" xlink:title="3">
<text text-anchor="middle" x="644.87" y="-47.02" font-family="Helvetica,sans-Serif" font-size="10.00" fill="#63b8ff">3</text>
</a>
</g>
</g>
<!-- dir_f1cd75b7a609b9cf63cfb1686d016e0b -->
<g id="node10" class="node">
<title>dir_f1cd75b7a609b9cf63cfb1686d016e0b</title>
<g id="a_node10"><a xlink:href="dir_f1cd75b7a609b9cf63cfb1686d016e0b.html" target="_top" xlink:title="switch">
<polygon fill="#82a9f6" stroke="#404040" points="72,-98 24,-98 24,-79 72,-79 72,-98"/>
<text text-anchor="middle" x="48" y="-86" font-family="Helvetica,sans-Serif" font-size="10.00">switch</text>
</a>
</g>
</g>
<!-- dir_f1cd75b7a609b9cf63cfb1686d016e0b&#45;&gt;dir_3c172eab3d3eff36a04ebb8e77c44848 -->
<g id="edge10" class="edge">
<title>dir_f1cd75b7a609b9cf63cfb1686d016e0b&#45;&gt;dir_3c172eab3d3eff36a04ebb8e77c44848</title>
<g id="a_edge10"><a xlink:href="dir_000034_000008.html" target="_top">
<path fill="none" stroke="#63b8ff" d="M57.48,-78.98C66.2,-71.15 79.34,-59.34 89.9,-49.86"/>
<polygon fill="#63b8ff" stroke="#63b8ff" points="92.25,-52.46 97.35,-43.17 87.57,-47.25 92.25,-52.46"/>
</a>
</g>
<g id="a_edge10&#45;headlabel"><a xlink:href="dir_000034_000008.html" target="_top" xlink:title="1">
<text text-anchor="middle" x="91.47" y="-54.47" font-family="Helvetica,sans-Serif" font-size="10.00" fill="#63b8ff">1</text>
</a>
</g>
</g>
<!-- dir_f1cd75b7a609b9cf63cfb1686d016e0b&#45;&gt;dir_d44c64559bbebec7f509842c48db8b23 -->
<g id="edge11" class="edge">
<title>dir_f1cd75b7a609b9cf63cfb1686d016e0b&#45;&gt;dir_d44c64559bbebec7f509842c48db8b23</title>
<g id="a_edge11"><a xlink:href="dir_000034_000020.html" target="_top">
<path fill="none" stroke="#63b8ff" d="M72.04,-80.75C75.04,-80.07 78.08,-79.47 81,-79 329.05,-39.5 396.35,-78.52 645,-43 645.61,-42.91 646.22,-42.82 646.83,-42.73"/>
<polygon fill="#63b8ff" stroke="#63b8ff" points="647.72,-46.12 656.93,-40.89 646.47,-39.24 647.72,-46.12"/>
</a>
</g>
<g id="a_edge11&#45;headlabel"><a xlink:href="dir_000034_000020.html" target="_top" xlink:title="1">
<text text-anchor="middle" x="644.69" y="-47.06" font-family="Helvetica,sans-Serif" font-size="10.00" fill="#63b8ff">1</text>
</a>
</g>
</g>
<!-- dir_0a18029368813177489ba7a997da11e8 -->
<g id="node11" class="node">
<title>dir_0a18029368813177489ba7a997da11e8</title>
<g id="a_node11"><a xlink:href="dir_0a18029368813177489ba7a997da11e8.html" target="_top" xlink:title="windows">
<polygon fill="#82a9f6" stroke="#404040" points="365.5,-98 306.5,-98 306.5,-79 365.5,-79 365.5,-98"/>
<text text-anchor="middle" x="336" y="-86" font-family="Helvetica,sans-Serif" font-size="10.00">windows</text>
</a>
</g>
</g>
<!-- dir_0a18029368813177489ba7a997da11e8&#45;&gt;dir_d44c64559bbebec7f509842c48db8b23 -->
<g id="edge12" class="edge">
<title>dir_0a18029368813177489ba7a997da11e8&#45;&gt;dir_d44c64559bbebec7f509842c48db8b23</title>
<g id="a_edge12"><a xlink:href="dir_000036_000020.html" target="_top">
<path fill="none" stroke="#63b8ff" d="M365.76,-80.75C368.87,-80.12 372,-79.53 375,-79 494.24,-58.09 525.81,-64.23 645,-43 645.6,-42.89 646.21,-42.78 646.82,-42.67"/>
<polygon fill="#63b8ff" stroke="#63b8ff" points="647.78,-46.05 656.9,-40.65 646.4,-39.18 647.78,-46.05"/>
</a>
</g>
<g id="a_edge12&#45;headlabel"><a xlink:href="dir_000036_000020.html" target="_top" xlink:title="5">
<text text-anchor="middle" x="644.81" y="-47.04" font-family="Helvetica,sans-Serif" font-size="10.00" fill="#63b8ff">5</text>
</a>
</g>
</g>
</g>
</svg>
