<?xml version="1.0" encoding="UTF-8" standalone="no"?>
<!DOCTYPE svg PUBLIC "-//W3C//DTD SVG 1.1//EN"
 "http://www.w3.org/Graphics/SVG/1.1/DTD/svg11.dtd">
<!-- Generated by graphviz version 2.43.0 (0)
 -->
<!-- Title: src/platforms/linux Pages: 1 -->
<svg width="243pt" height="125pt"
 viewBox="0.00 0.00 243.00 125.00" xmlns="http://www.w3.org/2000/svg" xmlns:xlink="http://www.w3.org/1999/xlink">
<g id="page0,1_graph0" class="graph" transform="scale(1 1) rotate(0) translate(4 121)">
<title>src/platforms/linux</title>
<g id="clust1" class="cluster">
<title>clusterdir_ceed1ce8f89ba04e240f3818f1ccc961</title>
<g id="a_clust1"><a xlink:href="dir_ceed1ce8f89ba04e240f3818f1ccc961.html" target="_top" xlink:title="platforms">
<polygon fill="#e6eefd" stroke="#7f7f7f" stroke-dasharray="5,2" points="8,-39 8,-109 227,-109 227,-39 8,-39"/>
<text text-anchor="middle" x="117.5" y="-97" font-family="Helvetica,sans-Serif" font-size="10.00">platforms</text>
</a>
</g>
</g>
<g id="clust2" class="cluster">
<title>clusterdir_85f2f5b017d0e280691879598107c592</title>
<g id="a_clust2"><a xlink:href="dir_85f2f5b017d0e280691879598107c592.html" target="_top">
<polygon fill="#e6eefd" stroke="#404040" stroke-width="2" points="16,-47 16,-82 219,-82 219,-47 16,-47"/>
</a>
</g>
</g>
<!-- dir_85f2f5b017d0e280691879598107c592 -->
<g id="node1" class="node">
<title>dir_85f2f5b017d0e280691879598107c592</title>
<text text-anchor="middle" x="190" y="-62" font-family="Helvetica,sans-Serif" font-size="10.00">linux</text>
</g>
<!-- dir_d44c64559bbebec7f509842c48db8b23 -->
<g id="node4" class="node">
<title>dir_d44c64559bbebec7f509842c48db8b23</title>
<g id="a_node4"><a xlink:href="dir_d44c64559bbebec7f509842c48db8b23.html" target="_top" xlink:title="include">
<polygon fill="#e6eefd" stroke="red" points="142,-19 90,-19 90,0 142,0 142,-19"/>
<text text-anchor="middle" x="116" y="-7" font-family="Helvetica,sans-Serif" font-size="10.00">include</text>
</a>
</g>
</g>
<!-- dir_85f2f5b017d0e280691879598107c592&#45;&gt;dir_d44c64559bbebec7f509842c48db8b23 -->
<g id="edge1" class="edge">
<title>dir_85f2f5b017d0e280691879598107c592&#45;&gt;dir_d44c64559bbebec7f509842c48db8b23</title>
<g id="a_edge1"><a xlink:href="dir_000019_000018.html" target="_top">
<path fill="none" stroke="#63b8ff" d="M180.6,-54.99C175.05,-50.12 167.8,-43.99 161,-39 154.34,-34.11 146.84,-29.16 139.91,-24.79"/>
<polygon fill="#63b8ff" stroke="#63b8ff" points="141.28,-21.52 130.93,-19.25 137.6,-27.48 141.28,-21.52"/>
</a>
</g>
<g id="a_edge1&#45;headlabel"><a xlink:href="dir_000019_000018.html" target="_top" xlink:title="3">
<text text-anchor="middle" x="145.83" y="-18.5" font-family="Helvetica,sans-Serif" font-size="10.00" fill="#63b8ff">3</text>
</a>
</g>
</g>
<!-- dir_bc8feaaf0ea24a5e4382262c22957d88 -->
<g id="node2" class="node">
<title>dir_bc8feaaf0ea24a5e4382262c22957d88</title>
<g id="a_node2"><a xlink:href="dir_bc8feaaf0ea24a5e4382262c22957d88.html" target="_top" xlink:title="application">
<polygon fill="#82a9f6" stroke="#404040" points="151.5,-74 80.5,-74 80.5,-55 151.5,-55 151.5,-74"/>
<text text-anchor="middle" x="116" y="-62" font-family="Helvetica,sans-Serif" font-size="10.00">application</text>
</a>
</g>
</g>
<!-- dir_bc8feaaf0ea24a5e4382262c22957d88&#45;&gt;dir_d44c64559bbebec7f509842c48db8b23 -->
<g id="edge2" class="edge">
<title>dir_bc8feaaf0ea24a5e4382262c22957d88&#45;&gt;dir_d44c64559bbebec7f509842c48db8b23</title>
<g id="a_edge2"><a xlink:href="dir_000003_000018.html" target="_top">
<path fill="none" stroke="#63b8ff" d="M116,-54.75C116,-47.8 116,-37.85 116,-29.13"/>
<polygon fill="#63b8ff" stroke="#63b8ff" points="119.5,-29.09 116,-19.09 112.5,-29.09 119.5,-29.09"/>
</a>
</g>
<g id="a_edge2&#45;headlabel"><a xlink:href="dir_000003_000018.html" target="_top" xlink:title="1">
<text text-anchor="middle" x="122.34" y="-30.18" font-family="Helvetica,sans-Serif" font-size="10.00" fill="#63b8ff">1</text>
</a>
</g>
</g>
<!-- dir_c485574245fc4feec761d815f515182f -->
<g id="node3" class="node">
<title>dir_c485574245fc4feec761d815f515182f</title>
<g id="a_node3"><a xlink:href="dir_c485574245fc4feec761d815f515182f.html" target="_top" xlink:title="core">
<polygon fill="#82a9f6" stroke="#404040" points="62,-74 24,-74 24,-55 62,-55 62,-74"/>
<text text-anchor="middle" x="43" y="-62" font-family="Helvetica,sans-Serif" font-size="10.00">core</text>
</a>
</g>
</g>
<!-- dir_c485574245fc4feec761d815f515182f&#45;&gt;dir_d44c64559bbebec7f509842c48db8b23 -->
<g id="edge3" class="edge">
<title>dir_c485574245fc4feec761d815f515182f&#45;&gt;dir_d44c64559bbebec7f509842c48db8b23</title>
<g id="a_edge3"><a xlink:href="dir_000011_000018.html" target="_top">
<path fill="none" stroke="#63b8ff" d="M52.68,-54.79C58.2,-49.96 65.33,-43.95 72,-39 78.63,-34.08 86.09,-29.07 92.96,-24.64"/>
<polygon fill="#63b8ff" stroke="#63b8ff" points="95.24,-27.35 101.82,-19.05 91.5,-21.43 95.24,-27.35"/>
</a>
</g>
<g id="a_edge3&#45;headlabel"><a xlink:href="dir_000011_000018.html" target="_top" xlink:title="1">
<text text-anchor="middle" x="93.72" y="-29.17" font-family="Helvetica,sans-Serif" font-size="10.00" fill="#63b8ff">1</text>
</a>
</g>
</g>
</g>
</svg>
