<?xml version="1.0" encoding="UTF-8" standalone="no"?>
<!DOCTYPE svg PUBLIC "-//W3C//DTD SVG 1.1//EN"
 "http://www.w3.org/Graphics/SVG/1.1/DTD/svg11.dtd">
<!-- Generated by graphviz version 2.43.0 (0)
 -->
<!-- Title: src/platforms Pages: 1 -->
<svg width="656pt" height="149pt"
 viewBox="0.00 0.00 656.00 149.00" xmlns="http://www.w3.org/2000/svg" xmlns:xlink="http://www.w3.org/1999/xlink">
<g id="graph0" class="graph" transform="scale(1 1) rotate(0) translate(4 145)">
<title>src/platforms</title>
<g id="clust1" class="cluster">
<title>clusterdir_68267d1309a1af8e8297ef4c3efbcdba</title>
<g id="a_clust1"><a xlink:href="dir_68267d1309a1af8e8297ef4c3efbcdba.html" target="_top" xlink:title="src">
<polygon fill="#e6eefd" stroke="#404040" stroke-dasharray="5,2" points="8,-8 8,-133 588,-133 588,-8 8,-8"/>
<text text-anchor="middle" x="298" y="-121" font-family="Helvetica,sans-Serif" font-size="10.00">src</text>
</a>
</g>
</g>
<g id="clust2" class="cluster">
<title>clusterdir_ceed1ce8f89ba04e240f3818f1ccc961</title>
<g id="a_clust2"><a xlink:href="dir_ceed1ce8f89ba04e240f3818f1ccc961.html" target="_top">
<polygon fill="#e6eefd" stroke="#404040" stroke-width="2" points="16,-16 16,-106 580,-106 580,-16 16,-16"/>
</a>
</g>
</g>
<!-- dir_ceed1ce8f89ba04e240f3818f1ccc961 -->
<g id="node1" class="node">
<title>dir_ceed1ce8f89ba04e240f3818f1ccc961</title>
<text text-anchor="middle" x="540" y="-86" font-family="Helvetica,sans-Serif" font-size="10.00">platforms</text>
</g>
<!-- dir_ec42ad78dd6cae3ff203004d8c882467 -->
<g id="node2" class="node">
<title>dir_ec42ad78dd6cae3ff203004d8c882467</title>
<g id="a_node2"><a xlink:href="dir_ec42ad78dd6cae3ff203004d8c882467.html" target="_top" xlink:title="3ds">
<polygon fill="#82a9f6" stroke="#404040" points="238,-98 204,-98 204,-79 238,-79 238,-98"/>
<text text-anchor="middle" x="221" y="-86" font-family="Helvetica,sans-Serif" font-size="10.00">3ds</text>
</a>
</g>
</g>
<!-- dir_3c172eab3d3eff36a04ebb8e77c44848 -->
<g id="node3" class="node">
<title>dir_3c172eab3d3eff36a04ebb8e77c44848</title>
<g id="a_node3"><a xlink:href="dir_3c172eab3d3eff36a04ebb8e77c44848.html" target="_top" xlink:title="common">
<polygon fill="#82a9f6" stroke="#404040" points="223.5,-43 164.5,-43 164.5,-24 223.5,-24 223.5,-43"/>
<text text-anchor="middle" x="194" y="-31" font-family="Helvetica,sans-Serif" font-size="10.00">common</text>
</a>
</g>
</g>
<!-- dir_ec42ad78dd6cae3ff203004d8c882467&#45;&gt;dir_3c172eab3d3eff36a04ebb8e77c44848 -->
<g id="edge1" class="edge">
<title>dir_ec42ad78dd6cae3ff203004d8c882467&#45;&gt;dir_3c172eab3d3eff36a04ebb8e77c44848</title>
<g id="a_edge1"><a xlink:href="dir_000000_000003.html" target="_top">
<path fill="none" stroke="#63b8ff" d="M216.54,-78.75C212.88,-71.57 207.59,-61.18 203.05,-52.27"/>
<polygon fill="#63b8ff" stroke="#63b8ff" points="206.03,-50.41 198.38,-43.09 199.8,-53.59 206.03,-50.41"/>
</a>
</g>
<g id="a_edge1&#45;headlabel"><a xlink:href="dir_000000_000003.html" target="_top" xlink:title="1">
<text text-anchor="middle" x="210.2" y="-49.82" font-family="Helvetica,sans-Serif" font-size="10.00" fill="#63b8ff">1</text>
</a>
</g>
</g>
<!-- dir_d44c64559bbebec7f509842c48db8b23 -->
<g id="node11" class="node">
<title>dir_d44c64559bbebec7f509842c48db8b23</title>
<g id="a_node11"><a xlink:href="dir_d44c64559bbebec7f509842c48db8b23.html" target="_top" xlink:title="include">
<polygon fill="#e6eefd" stroke="red" points="648,-43 596,-43 596,-24 648,-24 648,-43"/>
<text text-anchor="middle" x="622" y="-31" font-family="Helvetica,sans-Serif" font-size="10.00">include</text>
</a>
</g>
</g>
<!-- dir_ec42ad78dd6cae3ff203004d8c882467&#45;&gt;dir_d44c64559bbebec7f509842c48db8b23 -->
<g id="edge2" class="edge">
<title>dir_ec42ad78dd6cae3ff203004d8c882467&#45;&gt;dir_d44c64559bbebec7f509842c48db8b23</title>
<g id="a_edge2"><a xlink:href="dir_000000_000008.html" target="_top">
<path fill="none" stroke="#63b8ff" d="M238.2,-81.32C241.11,-80.43 244.12,-79.62 247,-79 394.28,-47.42 435.37,-67.48 584,-43 584.6,-42.9 585.21,-42.8 585.83,-42.69"/>
<polygon fill="#63b8ff" stroke="#63b8ff" points="586.76,-46.08 595.91,-40.75 585.43,-39.2 586.76,-46.08"/>
</a>
</g>
<g id="a_edge2&#45;headlabel"><a xlink:href="dir_000000_000008.html" target="_top" xlink:title="1">
<text text-anchor="middle" x="583.76" y="-47.05" font-family="Helvetica,sans-Serif" font-size="10.00" fill="#63b8ff">1</text>
</a>
</g>
</g>
<!-- dir_c535a4a48b3b456973d783f9794b23a7 -->
<g id="node4" class="node">
<title>dir_c535a4a48b3b456973d783f9794b23a7</title>
<g id="a_node4"><a xlink:href="dir_c535a4a48b3b456973d783f9794b23a7.html" target="_top" xlink:title="gba">
<polygon fill="#82a9f6" stroke="#404040" points="185.5,-98 150.5,-98 150.5,-79 185.5,-79 185.5,-98"/>
<text text-anchor="middle" x="168" y="-86" font-family="Helvetica,sans-Serif" font-size="10.00">gba</text>
</a>
</g>
</g>
<!-- dir_c535a4a48b3b456973d783f9794b23a7&#45;&gt;dir_3c172eab3d3eff36a04ebb8e77c44848 -->
<g id="edge3" class="edge">
<title>dir_c535a4a48b3b456973d783f9794b23a7&#45;&gt;dir_3c172eab3d3eff36a04ebb8e77c44848</title>
<g id="a_edge3"><a xlink:href="dir_000007_000003.html" target="_top">
<path fill="none" stroke="#63b8ff" d="M172.29,-78.75C175.81,-71.57 180.91,-61.18 185.28,-52.27"/>
<polygon fill="#63b8ff" stroke="#63b8ff" points="188.52,-53.61 189.79,-43.09 182.24,-50.53 188.52,-53.61"/>
</a>
</g>
<g id="a_edge3&#45;headlabel"><a xlink:href="dir_000007_000003.html" target="_top" xlink:title="1">
<text text-anchor="middle" x="189.49" y="-55.59" font-family="Helvetica,sans-Serif" font-size="10.00" fill="#63b8ff">1</text>
</a>
</g>
</g>
<!-- dir_c535a4a48b3b456973d783f9794b23a7&#45;&gt;dir_d44c64559bbebec7f509842c48db8b23 -->
<g id="edge4" class="edge">
<title>dir_c535a4a48b3b456973d783f9794b23a7&#45;&gt;dir_d44c64559bbebec7f509842c48db8b23</title>
<g id="a_edge4"><a xlink:href="dir_000007_000008.html" target="_top">
<path fill="none" stroke="#63b8ff" d="M185.58,-81.38C188.69,-80.46 191.92,-79.62 195,-79 365.21,-44.74 412.49,-70.01 584,-43 584.61,-42.9 585.22,-42.81 585.83,-42.7"/>
<polygon fill="#63b8ff" stroke="#63b8ff" points="586.74,-46.09 595.92,-40.79 585.44,-39.21 586.74,-46.09"/>
</a>
</g>
<g id="a_edge4&#45;headlabel"><a xlink:href="dir_000007_000008.html" target="_top" xlink:title="1">
<text text-anchor="middle" x="583.74" y="-47.05" font-family="Helvetica,sans-Serif" font-size="10.00" fill="#63b8ff">1</text>
</a>
</g>
</g>
<!-- dir_85f2f5b017d0e280691879598107c592 -->
<g id="node5" class="node">
<title>dir_85f2f5b017d0e280691879598107c592</title>
<g id="a_node5"><a xlink:href="dir_85f2f5b017d0e280691879598107c592.html" target="_top" xlink:title="linux">
<polygon fill="#82a9f6" stroke="#404040" points="132.5,-98 91.5,-98 91.5,-79 132.5,-79 132.5,-98"/>
<text text-anchor="middle" x="112" y="-86" font-family="Helvetica,sans-Serif" font-size="10.00">linux</text>
</a>
</g>
</g>
<!-- dir_85f2f5b017d0e280691879598107c592&#45;&gt;dir_3c172eab3d3eff36a04ebb8e77c44848 -->
<g id="edge5" class="edge">
<title>dir_85f2f5b017d0e280691879598107c592&#45;&gt;dir_3c172eab3d3eff36a04ebb8e77c44848</title>
<g id="a_edge5"><a xlink:href="dir_000009_000003.html" target="_top">
<path fill="none" stroke="#63b8ff" d="M125.17,-78.98C137.77,-70.84 157,-58.41 171.94,-48.76"/>
<polygon fill="#63b8ff" stroke="#63b8ff" points="174.09,-51.54 180.59,-43.17 170.29,-45.66 174.09,-51.54"/>
</a>
</g>
<g id="a_edge5&#45;headlabel"><a xlink:href="dir_000009_000003.html" target="_top" xlink:title="1">
<text text-anchor="middle" x="172.61" y="-53.37" font-family="Helvetica,sans-Serif" font-size="10.00" fill="#63b8ff">1</text>
</a>
</g>
</g>
<!-- dir_85f2f5b017d0e280691879598107c592&#45;&gt;dir_d44c64559bbebec7f509842c48db8b23 -->
<g id="edge6" class="edge">
<title>dir_85f2f5b017d0e280691879598107c592&#45;&gt;dir_d44c64559bbebec7f509842c48db8b23</title>
<g id="a_edge6"><a xlink:href="dir_000009_000008.html" target="_top">
<path fill="none" stroke="#63b8ff" d="M132.79,-80.86C135.53,-80.14 138.32,-79.5 141,-79 335.24,-43.03 388.7,-72.63 584,-43 584.61,-42.91 585.22,-42.81 585.83,-42.71"/>
<polygon fill="#63b8ff" stroke="#63b8ff" points="586.73,-46.1 595.92,-40.83 585.45,-39.22 586.73,-46.1"/>
</a>
</g>
<g id="a_edge6&#45;headlabel"><a xlink:href="dir_000009_000008.html" target="_top" xlink:title="1">
<text text-anchor="middle" x="583.72" y="-47.05" font-family="Helvetica,sans-Serif" font-size="10.00" fill="#63b8ff">1</text>
</a>
</g>
</g>
<!-- dir_09678985b484b4db3dfe2991103a0695 -->
<g id="node6" class="node">
<title>dir_09678985b484b4db3dfe2991103a0695</title>
<g id="a_node6"><a xlink:href="dir_09678985b484b4db3dfe2991103a0695.html" target="_top" xlink:title="macos">
<polygon fill="#82a9f6" stroke="#404040" points="73.5,-98 24.5,-98 24.5,-79 73.5,-79 73.5,-98"/>
<text text-anchor="middle" x="49" y="-86" font-family="Helvetica,sans-Serif" font-size="10.00">macos</text>
</a>
</g>
</g>
<!-- dir_09678985b484b4db3dfe2991103a0695&#45;&gt;dir_3c172eab3d3eff36a04ebb8e77c44848 -->
<g id="edge7" class="edge">
<title>dir_09678985b484b4db3dfe2991103a0695&#45;&gt;dir_3c172eab3d3eff36a04ebb8e77c44848</title>
<g id="a_edge7"><a xlink:href="dir_000010_000003.html" target="_top">
<path fill="none" stroke="#63b8ff" d="M72.3,-78.98C96.25,-70.23 133.78,-56.51 160.83,-46.62"/>
<polygon fill="#63b8ff" stroke="#63b8ff" points="162.09,-49.89 170.28,-43.17 159.69,-43.32 162.09,-49.89"/>
</a>
</g>
<g id="a_edge7&#45;headlabel"><a xlink:href="dir_000010_000003.html" target="_top" xlink:title="1">
<text text-anchor="middle" x="159.69" y="-51.29" font-family="Helvetica,sans-Serif" font-size="10.00" fill="#63b8ff">1</text>
</a>
</g>
</g>
<!-- dir_09678985b484b4db3dfe2991103a0695&#45;&gt;dir_d44c64559bbebec7f509842c48db8b23 -->
<g id="edge8" class="edge">
<title>dir_09678985b484b4db3dfe2991103a0695&#45;&gt;dir_d44c64559bbebec7f509842c48db8b23</title>
<g id="a_edge8"><a xlink:href="dir_000010_000008.html" target="_top">
<path fill="none" stroke="#63b8ff" d="M73.76,-80.61C76.53,-79.99 79.31,-79.44 82,-79 302.76,-42.96 362.69,-75.5 584,-43 584.61,-42.91 585.22,-42.82 585.83,-42.72"/>
<polygon fill="#63b8ff" stroke="#63b8ff" points="586.73,-46.11 595.93,-40.87 585.46,-39.23 586.73,-46.11"/>
</a>
</g>
<g id="a_edge8&#45;headlabel"><a xlink:href="dir_000010_000008.html" target="_top" xlink:title="1">
<text text-anchor="middle" x="583.7" y="-47.06" font-family="Helvetica,sans-Serif" font-size="10.00" fill="#63b8ff">1</text>
</a>
</g>
</g>
<!-- dir_2ddc4bd1c9638660b0dec9084e710279 -->
<g id="node7" class="node">
<title>dir_2ddc4bd1c9638660b0dec9084e710279</title>
<g id="a_node7"><a xlink:href="dir_2ddc4bd1c9638660b0dec9084e710279.html" target="_top" xlink:title="nds">
<polygon fill="#82a9f6" stroke="#404040" points="356,-98 322,-98 322,-79 356,-79 356,-98"/>
<text text-anchor="middle" x="339" y="-86" font-family="Helvetica,sans-Serif" font-size="10.00">nds</text>
</a>
</g>
</g>
<!-- dir_2ddc4bd1c9638660b0dec9084e710279&#45;&gt;dir_3c172eab3d3eff36a04ebb8e77c44848 -->
<g id="edge9" class="edge">
<title>dir_2ddc4bd1c9638660b0dec9084e710279&#45;&gt;dir_3c172eab3d3eff36a04ebb8e77c44848</title>
<g id="a_edge9"><a xlink:href="dir_000012_000003.html" target="_top">
<path fill="none" stroke="#63b8ff" d="M321.8,-81.21C298.48,-72.69 256.37,-57.3 226.88,-46.52"/>
<polygon fill="#63b8ff" stroke="#63b8ff" points="228,-43.2 217.4,-43.05 225.6,-49.78 228,-43.2"/>
</a>
</g>
<g id="a_edge9&#45;headlabel"><a xlink:href="dir_000012_000003.html" target="_top" xlink:title="1">
<text text-anchor="middle" x="232.35" y="-39.27" font-family="Helvetica,sans-Serif" font-size="10.00" fill="#63b8ff">1</text>
</a>
</g>
</g>
<!-- dir_2ddc4bd1c9638660b0dec9084e710279&#45;&gt;dir_d44c64559bbebec7f509842c48db8b23 -->
<g id="edge10" class="edge">
<title>dir_2ddc4bd1c9638660b0dec9084e710279&#45;&gt;dir_d44c64559bbebec7f509842c48db8b23</title>
<g id="a_edge10"><a xlink:href="dir_000012_000008.html" target="_top">
<path fill="none" stroke="#63b8ff" d="M356.24,-81.46C359.14,-80.56 362.14,-79.7 365,-79 460.83,-55.61 487.16,-61.77 584,-43 584.6,-42.88 585.21,-42.76 585.82,-42.64"/>
<polygon fill="#63b8ff" stroke="#63b8ff" points="586.8,-46.01 595.88,-40.55 585.37,-39.16 586.8,-46.01"/>
</a>
</g>
<g id="a_edge10&#45;headlabel"><a xlink:href="dir_000012_000008.html" target="_top" xlink:title="1">
<text text-anchor="middle" x="583.86" y="-47.03" font-family="Helvetica,sans-Serif" font-size="10.00" fill="#63b8ff">1</text>
</a>
</g>
</g>
<!-- dir_dbd2f83f65a97e35fcbceb75bafbe0f9 -->
<g id="node8" class="node">
<title>dir_dbd2f83f65a97e35fcbceb75bafbe0f9</title>
<g id="a_node8"><a xlink:href="dir_dbd2f83f65a97e35fcbceb75bafbe0f9.html" target="_top" xlink:title="stub">
<polygon fill="#82a9f6" stroke="#404040" points="490,-98 452,-98 452,-79 490,-79 490,-98"/>
<text text-anchor="middle" x="471" y="-86" font-family="Helvetica,sans-Serif" font-size="10.00">stub</text>
</a>
</g>
</g>
<!-- dir_dbd2f83f65a97e35fcbceb75bafbe0f9&#45;&gt;dir_d44c64559bbebec7f509842c48db8b23 -->
<g id="edge11" class="edge">
<title>dir_dbd2f83f65a97e35fcbceb75bafbe0f9&#45;&gt;dir_d44c64559bbebec7f509842c48db8b23</title>
<g id="a_edge11"><a xlink:href="dir_000018_000008.html" target="_top">
<path fill="none" stroke="#63b8ff" d="M490.12,-80.79C514.65,-72.18 557.62,-57.1 587.83,-46.49"/>
<polygon fill="#63b8ff" stroke="#63b8ff" points="589.26,-49.7 597.54,-43.09 586.95,-43.09 589.26,-49.7"/>
</a>
</g>
<g id="a_edge11&#45;headlabel"><a xlink:href="dir_000018_000008.html" target="_top" xlink:title="1">
<text text-anchor="middle" x="586.81" y="-51.07" font-family="Helvetica,sans-Serif" font-size="10.00" fill="#63b8ff">1</text>
</a>
</g>
</g>
<!-- dir_f1cd75b7a609b9cf63cfb1686d016e0b -->
<g id="node9" class="node">
<title>dir_f1cd75b7a609b9cf63cfb1686d016e0b</title>
<g id="a_node9"><a xlink:href="dir_f1cd75b7a609b9cf63cfb1686d016e0b.html" target="_top" xlink:title="switch">
<polygon fill="#82a9f6" stroke="#404040" points="304,-98 256,-98 256,-79 304,-79 304,-98"/>
<text text-anchor="middle" x="280" y="-86" font-family="Helvetica,sans-Serif" font-size="10.00">switch</text>
</a>
</g>
</g>
<!-- dir_f1cd75b7a609b9cf63cfb1686d016e0b&#45;&gt;dir_3c172eab3d3eff36a04ebb8e77c44848 -->
<g id="edge12" class="edge">
<title>dir_f1cd75b7a609b9cf63cfb1686d016e0b&#45;&gt;dir_3c172eab3d3eff36a04ebb8e77c44848</title>
<g id="a_edge12"><a xlink:href="dir_000019_000003.html" target="_top">
<path fill="none" stroke="#63b8ff" d="M266.18,-78.98C252.85,-70.77 232.42,-58.18 216.69,-48.49"/>
<polygon fill="#63b8ff" stroke="#63b8ff" points="218.42,-45.44 208.07,-43.17 214.75,-51.4 218.42,-45.44"/>
</a>
</g>
<g id="a_edge12&#45;headlabel"><a xlink:href="dir_000019_000003.html" target="_top" xlink:title="1">
<text text-anchor="middle" x="222.97" y="-42.41" font-family="Helvetica,sans-Serif" font-size="10.00" fill="#63b8ff">1</text>
</a>
</g>
</g>
<!-- dir_f1cd75b7a609b9cf63cfb1686d016e0b&#45;&gt;dir_d44c64559bbebec7f509842c48db8b23 -->
<g id="edge13" class="edge">
<title>dir_f1cd75b7a609b9cf63cfb1686d016e0b&#45;&gt;dir_d44c64559bbebec7f509842c48db8b23</title>
<g id="a_edge13"><a xlink:href="dir_000019_000008.html" target="_top">
<path fill="none" stroke="#63b8ff" d="M304.07,-80.94C307.07,-80.23 310.1,-79.56 313,-79 432.27,-55.8 464.38,-64.28 584,-43 584.6,-42.89 585.21,-42.78 585.82,-42.67"/>
<polygon fill="#63b8ff" stroke="#63b8ff" points="586.78,-46.05 595.9,-40.66 585.4,-39.18 586.78,-46.05"/>
</a>
</g>
<g id="a_edge13&#45;headlabel"><a xlink:href="dir_000019_000008.html" target="_top" xlink:title="1">
<text text-anchor="middle" x="583.81" y="-47.04" font-family="Helvetica,sans-Serif" font-size="10.00" fill="#63b8ff">1</text>
</a>
</g>
</g>
<!-- dir_0a18029368813177489ba7a997da11e8 -->
<g id="node10" class="node">
<title>dir_0a18029368813177489ba7a997da11e8</title>
<g id="a_node10"><a xlink:href="dir_0a18029368813177489ba7a997da11e8.html" target="_top" xlink:title="windows">
<polygon fill="#82a9f6" stroke="#404040" points="433.5,-98 374.5,-98 374.5,-79 433.5,-79 433.5,-98"/>
<text text-anchor="middle" x="404" y="-86" font-family="Helvetica,sans-Serif" font-size="10.00">windows</text>
</a>
</g>
</g>
<!-- dir_0a18029368813177489ba7a997da11e8&#45;&gt;dir_d44c64559bbebec7f509842c48db8b23 -->
<g id="edge14" class="edge">
<title>dir_0a18029368813177489ba7a997da11e8&#45;&gt;dir_d44c64559bbebec7f509842c48db8b23</title>
<g id="a_edge14"><a xlink:href="dir_000021_000008.html" target="_top">
<path fill="none" stroke="#63b8ff" d="M433.85,-80.24C473.5,-70.6 543.45,-53.6 585.98,-43.26"/>
<polygon fill="#63b8ff" stroke="#63b8ff" points="587.02,-46.61 595.91,-40.84 585.36,-39.81 587.02,-46.61"/>
</a>
</g>
<g id="a_edge14&#45;headlabel"><a xlink:href="dir_000021_000008.html" target="_top" xlink:title="1">
<text text-anchor="middle" x="584.19" y="-47.72" font-family="Helvetica,sans-Serif" font-size="10.00" fill="#63b8ff">1</text>
</a>
</g>
</g>
</g>
</svg>
