<?xml version="1.0" encoding="UTF-8" standalone="no"?>
<!DOCTYPE svg PUBLIC "-//W3C//DTD SVG 1.1//EN"
 "http://www.w3.org/Graphics/SVG/1.1/DTD/svg11.dtd">
<!-- Generated by graphviz version 2.43.0 (0)
 -->
<!-- Title: src/platforms Pages: 1 -->
<!--zoomable 149 -->

<svg id="main" version="1.1" xmlns="http://www.w3.org/2000/svg" xmlns:xlink="http://www.w3.org/1999/xlink" xml:space="preserve" onload="init(evt)">

<style type="text/css"><![CDATA[
.node, .edge {opacity: 0.7;}
.node.selected, .edge.selected {opacity: 1;}
.edge:hover path { stroke: red; }
.edge:hover polygon { stroke: red; fill: red; }
]]></style>

<defs>
  <circle id="rim" cx="0" cy="0" r="7"/>
  <circle id="rim2" cx="0" cy="0" r="3.5"/>
  <g id="zoomPlus">
    <use xlink:href="#rim" fill="#404040"><set attributeName="fill" to="#808080" begin="zoomplus.mouseover" end="zoomplus.mouseout"/></use>
    <path d="M-4,0h8M0,-4v8" fill="none" stroke="white" stroke-width="1.5" pointer-events="none"/>
  </g>
  <g id="zoomMin">
    <use xlink:href="#rim" fill="#404040"><set attributeName="fill" to="#808080" begin="zoomminus.mouseover" end="zoomminus.mouseout"/></use>
    <path d="M-4,0h8" fill="none" stroke="white" stroke-width="1.5" pointer-events="none"/>
  </g>
  <g id="arrowUp" transform="translate(30 24)">
    <use xlink:href="#rim"/>
    <path pointer-events="none" fill="none" stroke="white" stroke-width="1.5" d="M0,-3.0v7 M-2.5,-0.5L0,-3.0L2.5,-0.5"/>
  </g>
  <g id="arrowRight" transform="rotate(90) translate(36 -43)">
    <use xlink:href="#rim"/>
    <path pointer-events="none" fill="none" stroke="white" stroke-width="1.5" d="M0,-3.0v7 M-2.5,-0.5L0,-3.0L2.5,-0.5"/>
  </g>
  <g id="arrowDown" transform="rotate(180) translate(-30 -48)">
    <use xlink:href="#rim"/>
    <path pointer-events="none" fill="none" stroke="white" stroke-width="1.5" d="M0,-3.0v7 M-2.5,-0.5L0,-3.0L2.5,-0.5"/>
  </g>
  <g id="arrowLeft" transform="rotate(270) translate(-36 17)">
    <use xlink:href="#rim"/>
    <path pointer-events="none" fill="none" stroke="white" stroke-width="1.5" d="M0,-3.0v7 M-2.5,-0.5L0,-3.0L2.5,-0.5"/>
  </g>
  <g id="resetDef">
    <use xlink:href="#rim2" fill="#404040"><set attributeName="fill" to="#808080" begin="reset.mouseover" end="reset.mouseout"/></use>
  </g>
</defs>
<script type="application/ecmascript">
var viewWidth = 657;
var viewHeight = 149;
var sectionId = 'dynsection-0';
</script>
<script type="application/ecmascript" xlink:href="svg.min.js"/>
<svg id="graph" class="graph">
<g id="viewport">
<title>src/platforms</title>
<g id="clust1" class="cluster">
<title>clusterdir_68267d1309a1af8e8297ef4c3efbcdba</title>
<g id="a_clust1"><a xlink:href="dir_68267d1309a1af8e8297ef4c3efbcdba.html" target="_top" xlink:title="src">
<polygon fill="#e6eefd" stroke="#404040" stroke-dasharray="5,2" points="8,-8 8,-133 589,-133 589,-8 8,-8"/>
<text text-anchor="middle" x="298.5" y="-121" font-family="Helvetica,sans-Serif" font-size="10.00">src</text>
</a>
</g>
</g>
<g id="clust2" class="cluster">
<title>clusterdir_ceed1ce8f89ba04e240f3818f1ccc961</title>
<g id="a_clust2"><a xlink:href="dir_ceed1ce8f89ba04e240f3818f1ccc961.html" target="_top">
<polygon fill="#e6eefd" stroke="#404040" stroke-width="2" points="16,-16 16,-106 581,-106 581,-16 16,-16"/>
</a>
</g>
</g>
<!-- dir_ceed1ce8f89ba04e240f3818f1ccc961 -->
<g id="node1" class="node">
<title>dir_ceed1ce8f89ba04e240f3818f1ccc961</title>
<text text-anchor="middle" x="541" y="-86" font-family="Helvetica,sans-Serif" font-size="10.00">platforms</text>
</g>
<!-- dir_ec42ad78dd6cae3ff203004d8c882467 -->
<g id="node2" class="node">
<title>dir_ec42ad78dd6cae3ff203004d8c882467</title>
<g id="a_node2"><a xlink:href="dir_ec42ad78dd6cae3ff203004d8c882467.html" target="_top" xlink:title="3ds">
<polygon fill="#82a9f6" stroke="#404040" points="230,-98 196,-98 196,-79 230,-79 230,-98"/>
<text text-anchor="middle" x="213" y="-86" font-family="Helvetica,sans-Serif" font-size="10.00">3ds</text>
</a>
</g>
</g>
<!-- dir_3c172eab3d3eff36a04ebb8e77c44848 -->
<g id="node3" class="node">
<title>dir_3c172eab3d3eff36a04ebb8e77c44848</title>
<g id="a_node3"><a xlink:href="dir_3c172eab3d3eff36a04ebb8e77c44848.html" target="_top" xlink:title="common">
<polygon fill="#82a9f6" stroke="#404040" points="162.5,-43 103.5,-43 103.5,-24 162.5,-24 162.5,-43"/>
<text text-anchor="middle" x="133" y="-31" font-family="Helvetica,sans-Serif" font-size="10.00">common</text>
</a>
</g>
</g>
<!-- dir_ec42ad78dd6cae3ff203004d8c882467&#45;&gt;dir_3c172eab3d3eff36a04ebb8e77c44848 -->
<g id="edge1" class="edge">
<title>dir_ec42ad78dd6cae3ff203004d8c882467&#45;&gt;dir_3c172eab3d3eff36a04ebb8e77c44848</title>
<g id="a_edge1"><a xlink:href="dir_000000_000008.html" target="_top">
<path fill="none" stroke="#63b8ff" d="M200.15,-78.98C187.86,-70.84 169.09,-58.41 154.52,-48.76"/>
<polygon fill="#63b8ff" stroke="#63b8ff" points="156.36,-45.78 146.09,-43.17 152.49,-51.61 156.36,-45.78"/>
</a>
</g>
<g id="a_edge1&#45;headlabel"><a xlink:href="dir_000000_000008.html" target="_top" xlink:title="1">
<text text-anchor="middle" x="160.92" y="-42.89" font-family="Helvetica,sans-Serif" font-size="10.00" fill="#63b8ff">1</text>
</a>
</g>
</g>
<!-- dir_d44c64559bbebec7f509842c48db8b23 -->
<g id="node11" class="node">
<title>dir_d44c64559bbebec7f509842c48db8b23</title>
<g id="a_node11"><a xlink:href="dir_d44c64559bbebec7f509842c48db8b23.html" target="_top" xlink:title="include">
<polygon fill="#e6eefd" stroke="red" points="649,-43 597,-43 597,-24 649,-24 649,-43"/>
<text text-anchor="middle" x="623" y="-31" font-family="Helvetica,sans-Serif" font-size="10.00">include</text>
</a>
</g>
</g>
<!-- dir_ec42ad78dd6cae3ff203004d8c882467&#45;&gt;dir_d44c64559bbebec7f509842c48db8b23 -->
<g id="edge2" class="edge">
<title>dir_ec42ad78dd6cae3ff203004d8c882467&#45;&gt;dir_d44c64559bbebec7f509842c48db8b23</title>
<g id="a_edge2"><a xlink:href="dir_000000_000018.html" target="_top">
<path fill="none" stroke="#63b8ff" d="M230.2,-81.31C233.11,-80.43 236.12,-79.61 239,-79 390.22,-46.8 432.41,-67.92 585,-43 585.6,-42.9 586.21,-42.8 586.83,-42.69"/>
<polygon fill="#63b8ff" stroke="#63b8ff" points="587.75,-46.08 596.91,-40.75 586.43,-39.21 587.75,-46.08"/>
</a>
</g>
<g id="a_edge2&#45;headlabel"><a xlink:href="dir_000000_000018.html" target="_top" xlink:title="1">
<text text-anchor="middle" x="584.76" y="-47.05" font-family="Helvetica,sans-Serif" font-size="10.00" fill="#63b8ff">1</text>
</a>
</g>
</g>
<!-- dir_c535a4a48b3b456973d783f9794b23a7 -->
<g id="node4" class="node">
<title>dir_c535a4a48b3b456973d783f9794b23a7</title>
<g id="a_node4"><a xlink:href="dir_c535a4a48b3b456973d783f9794b23a7.html" target="_top" xlink:title="gba">
<polygon fill="#82a9f6" stroke="#404040" points="177.5,-98 142.5,-98 142.5,-79 177.5,-79 177.5,-98"/>
<text text-anchor="middle" x="160" y="-86" font-family="Helvetica,sans-Serif" font-size="10.00">gba</text>
</a>
</g>
</g>
<!-- dir_c535a4a48b3b456973d783f9794b23a7&#45;&gt;dir_3c172eab3d3eff36a04ebb8e77c44848 -->
<g id="edge3" class="edge">
<title>dir_c535a4a48b3b456973d783f9794b23a7&#45;&gt;dir_3c172eab3d3eff36a04ebb8e77c44848</title>
<g id="a_edge3"><a xlink:href="dir_000016_000008.html" target="_top">
<path fill="none" stroke="#63b8ff" d="M155.54,-78.75C151.88,-71.57 146.59,-61.18 142.05,-52.27"/>
<polygon fill="#63b8ff" stroke="#63b8ff" points="145.03,-50.41 137.38,-43.09 138.8,-53.59 145.03,-50.41"/>
</a>
</g>
<g id="a_edge3&#45;headlabel"><a xlink:href="dir_000016_000008.html" target="_top" xlink:title="1">
<text text-anchor="middle" x="149.2" y="-49.82" font-family="Helvetica,sans-Serif" font-size="10.00" fill="#63b8ff">1</text>
</a>
</g>
</g>
<!-- dir_c535a4a48b3b456973d783f9794b23a7&#45;&gt;dir_d44c64559bbebec7f509842c48db8b23 -->
<g id="edge4" class="edge">
<title>dir_c535a4a48b3b456973d783f9794b23a7&#45;&gt;dir_d44c64559bbebec7f509842c48db8b23</title>
<g id="a_edge4"><a xlink:href="dir_000016_000018.html" target="_top">
<path fill="none" stroke="#63b8ff" d="M177.58,-81.37C180.69,-80.46 183.92,-79.62 187,-79 361.15,-44.13 409.52,-70.44 585,-43 585.61,-42.91 586.22,-42.81 586.83,-42.7"/>
<polygon fill="#63b8ff" stroke="#63b8ff" points="587.74,-46.09 596.92,-40.8 586.44,-39.22 587.74,-46.09"/>
</a>
</g>
<g id="a_edge4&#45;headlabel"><a xlink:href="dir_000016_000018.html" target="_top" xlink:title="1">
<text text-anchor="middle" x="584.74" y="-47.05" font-family="Helvetica,sans-Serif" font-size="10.00" fill="#63b8ff">1</text>
</a>
</g>
</g>
<!-- dir_85f2f5b017d0e280691879598107c592 -->
<g id="node5" class="node">
<title>dir_85f2f5b017d0e280691879598107c592</title>
<g id="a_node5"><a xlink:href="dir_85f2f5b017d0e280691879598107c592.html" target="_top" xlink:title="linux">
<polygon fill="#82a9f6" stroke="#404040" points="490.5,-98 449.5,-98 449.5,-79 490.5,-79 490.5,-98"/>
<text text-anchor="middle" x="470" y="-86" font-family="Helvetica,sans-Serif" font-size="10.00">linux</text>
</a>
</g>
</g>
<!-- dir_85f2f5b017d0e280691879598107c592&#45;&gt;dir_d44c64559bbebec7f509842c48db8b23 -->
<g id="edge5" class="edge">
<title>dir_85f2f5b017d0e280691879598107c592&#45;&gt;dir_d44c64559bbebec7f509842c48db8b23</title>
<g id="a_edge5"><a xlink:href="dir_000019_000018.html" target="_top">
<path fill="none" stroke="#63b8ff" d="M490.63,-80.35C515.77,-71.64 558.6,-56.81 588.72,-46.38"/>
<polygon fill="#63b8ff" stroke="#63b8ff" points="590.1,-49.6 598.4,-43.02 587.81,-42.99 590.1,-49.6"/>
</a>
</g>
<g id="a_edge5&#45;headlabel"><a xlink:href="dir_000019_000018.html" target="_top" xlink:title="3">
<text text-anchor="middle" x="587.63" y="-50.96" font-family="Helvetica,sans-Serif" font-size="10.00" fill="#63b8ff">3</text>
</a>
</g>
</g>
<!-- dir_09678985b484b4db3dfe2991103a0695 -->
<g id="node6" class="node">
<title>dir_09678985b484b4db3dfe2991103a0695</title>
<g id="a_node6"><a xlink:href="dir_09678985b484b4db3dfe2991103a0695.html" target="_top" xlink:title="macos">
<polygon fill="#82a9f6" stroke="#404040" points="431.5,-98 382.5,-98 382.5,-79 431.5,-79 431.5,-98"/>
<text text-anchor="middle" x="407" y="-86" font-family="Helvetica,sans-Serif" font-size="10.00">macos</text>
</a>
</g>
</g>
<!-- dir_09678985b484b4db3dfe2991103a0695&#45;&gt;dir_d44c64559bbebec7f509842c48db8b23 -->
<g id="edge6" class="edge">
<title>dir_09678985b484b4db3dfe2991103a0695&#45;&gt;dir_d44c64559bbebec7f509842c48db8b23</title>
<g id="a_edge6"><a xlink:href="dir_000020_000018.html" target="_top">
<path fill="none" stroke="#63b8ff" d="M431.51,-81.36C434.7,-80.56 437.93,-79.76 441,-79 491.66,-66.48 550.29,-52.17 587.02,-43.24"/>
<polygon fill="#63b8ff" stroke="#63b8ff" points="587.88,-46.63 596.77,-40.87 586.22,-39.83 587.88,-46.63"/>
</a>
</g>
<g id="a_edge6&#45;headlabel"><a xlink:href="dir_000020_000018.html" target="_top" xlink:title="4">
<text text-anchor="middle" x="585.06" y="-47.74" font-family="Helvetica,sans-Serif" font-size="10.00" fill="#63b8ff">4</text>
</a>
</g>
</g>
<!-- dir_2ddc4bd1c9638660b0dec9084e710279 -->
<g id="node7" class="node">
<title>dir_2ddc4bd1c9638660b0dec9084e710279</title>
<g id="a_node7"><a xlink:href="dir_2ddc4bd1c9638660b0dec9084e710279.html" target="_top" xlink:title="nds">
<polygon fill="#82a9f6" stroke="#404040" points="124,-98 90,-98 90,-79 124,-79 124,-98"/>
<text text-anchor="middle" x="107" y="-86" font-family="Helvetica,sans-Serif" font-size="10.00">nds</text>
</a>
</g>
</g>
<!-- dir_2ddc4bd1c9638660b0dec9084e710279&#45;&gt;dir_3c172eab3d3eff36a04ebb8e77c44848 -->
<g id="edge7" class="edge">
<title>dir_2ddc4bd1c9638660b0dec9084e710279&#45;&gt;dir_3c172eab3d3eff36a04ebb8e77c44848</title>
<g id="a_edge7"><a xlink:href="dir_000022_000008.html" target="_top">
<path fill="none" stroke="#63b8ff" d="M111.29,-78.75C114.81,-71.57 119.91,-61.18 124.28,-52.27"/>
<polygon fill="#63b8ff" stroke="#63b8ff" points="127.52,-53.61 128.79,-43.09 121.24,-50.53 127.52,-53.61"/>
</a>
</g>
<g id="a_edge7&#45;headlabel"><a xlink:href="dir_000022_000008.html" target="_top" xlink:title="1">
<text text-anchor="middle" x="128.49" y="-55.59" font-family="Helvetica,sans-Serif" font-size="10.00" fill="#63b8ff">1</text>
</a>
</g>
</g>
<!-- dir_2ddc4bd1c9638660b0dec9084e710279&#45;&gt;dir_d44c64559bbebec7f509842c48db8b23 -->
<g id="edge8" class="edge">
<title>dir_2ddc4bd1c9638660b0dec9084e710279&#45;&gt;dir_d44c64559bbebec7f509842c48db8b23</title>
<g id="a_edge8"><a xlink:href="dir_000022_000018.html" target="_top">
<path fill="none" stroke="#63b8ff" d="M124.19,-81.25C127.1,-80.38 130.11,-79.58 133,-79 330.6,-39.41 385.73,-73.07 585,-43 585.61,-42.91 586.22,-42.81 586.83,-42.71"/>
<polygon fill="#63b8ff" stroke="#63b8ff" points="587.73,-46.11 596.93,-40.84 586.45,-39.22 587.73,-46.11"/>
</a>
</g>
<g id="a_edge8&#45;headlabel"><a xlink:href="dir_000022_000018.html" target="_top" xlink:title="1">
<text text-anchor="middle" x="584.72" y="-47.05" font-family="Helvetica,sans-Serif" font-size="10.00" fill="#63b8ff">1</text>
</a>
</g>
</g>
<!-- dir_dbd2f83f65a97e35fcbceb75bafbe0f9 -->
<g id="node8" class="node">
<title>dir_dbd2f83f65a97e35fcbceb75bafbe0f9</title>
<g id="a_node8"><a xlink:href="dir_dbd2f83f65a97e35fcbceb75bafbe0f9.html" target="_top" xlink:title="stub">
<polygon fill="#82a9f6" stroke="#404040" points="364,-98 326,-98 326,-79 364,-79 364,-98"/>
<text text-anchor="middle" x="345" y="-86" font-family="Helvetica,sans-Serif" font-size="10.00">stub</text>
</a>
</g>
</g>
<!-- dir_dbd2f83f65a97e35fcbceb75bafbe0f9&#45;&gt;dir_d44c64559bbebec7f509842c48db8b23 -->
<g id="edge9" class="edge">
<title>dir_dbd2f83f65a97e35fcbceb75bafbe0f9&#45;&gt;dir_d44c64559bbebec7f509842c48db8b23</title>
<g id="a_edge9"><a xlink:href="dir_000030_000018.html" target="_top">
<path fill="none" stroke="#63b8ff" d="M364.26,-81.52C367.5,-80.61 370.83,-79.73 374,-79 466.69,-57.58 491.66,-61.39 585,-43 585.6,-42.88 586.21,-42.76 586.82,-42.64"/>
<polygon fill="#63b8ff" stroke="#63b8ff" points="587.8,-46.01 596.87,-40.53 586.37,-39.16 587.8,-46.01"/>
</a>
</g>
<g id="a_edge9&#45;headlabel"><a xlink:href="dir_000030_000018.html" target="_top" xlink:title="2">
<text text-anchor="middle" x="584.87" y="-47.02" font-family="Helvetica,sans-Serif" font-size="10.00" fill="#63b8ff">2</text>
</a>
</g>
</g>
<!-- dir_f1cd75b7a609b9cf63cfb1686d016e0b -->
<g id="node9" class="node">
<title>dir_f1cd75b7a609b9cf63cfb1686d016e0b</title>
<g id="a_node9"><a xlink:href="dir_f1cd75b7a609b9cf63cfb1686d016e0b.html" target="_top" xlink:title="switch">
<polygon fill="#82a9f6" stroke="#404040" points="72,-98 24,-98 24,-79 72,-79 72,-98"/>
<text text-anchor="middle" x="48" y="-86" font-family="Helvetica,sans-Serif" font-size="10.00">switch</text>
</a>
</g>
</g>
<!-- dir_f1cd75b7a609b9cf63cfb1686d016e0b&#45;&gt;dir_3c172eab3d3eff36a04ebb8e77c44848 -->
<g id="edge10" class="edge">
<title>dir_f1cd75b7a609b9cf63cfb1686d016e0b&#45;&gt;dir_3c172eab3d3eff36a04ebb8e77c44848</title>
<g id="a_edge10"><a xlink:href="dir_000031_000008.html" target="_top">
<path fill="none" stroke="#63b8ff" d="M61.66,-78.98C74.84,-70.77 95.03,-58.18 110.57,-48.49"/>
<polygon fill="#63b8ff" stroke="#63b8ff" points="112.46,-51.43 119.09,-43.17 108.76,-45.49 112.46,-51.43"/>
</a>
</g>
<g id="a_edge10&#45;headlabel"><a xlink:href="dir_000031_000008.html" target="_top" xlink:title="1">
<text text-anchor="middle" x="110.91" y="-53.24" font-family="Helvetica,sans-Serif" font-size="10.00" fill="#63b8ff">1</text>
</a>
</g>
</g>
<!-- dir_f1cd75b7a609b9cf63cfb1686d016e0b&#45;&gt;dir_d44c64559bbebec7f509842c48db8b23 -->
<g id="edge11" class="edge">
<title>dir_f1cd75b7a609b9cf63cfb1686d016e0b&#45;&gt;dir_d44c64559bbebec7f509842c48db8b23</title>
<g id="a_edge11"><a xlink:href="dir_000031_000018.html" target="_top">
<path fill="none" stroke="#63b8ff" d="M72.04,-80.77C75.04,-80.09 78.08,-79.48 81,-79 302.64,-42.84 362.81,-75.6 585,-43 585.61,-42.91 586.22,-42.82 586.83,-42.72"/>
<polygon fill="#63b8ff" stroke="#63b8ff" points="587.73,-46.11 596.93,-40.87 586.46,-39.23 587.73,-46.11"/>
</a>
</g>
<g id="a_edge11&#45;headlabel"><a xlink:href="dir_000031_000018.html" target="_top" xlink:title="1">
<text text-anchor="middle" x="584.7" y="-47.06" font-family="Helvetica,sans-Serif" font-size="10.00" fill="#63b8ff">1</text>
</a>
</g>
</g>
<!-- dir_0a18029368813177489ba7a997da11e8 -->
<g id="node10" class="node">
<title>dir_0a18029368813177489ba7a997da11e8</title>
<g id="a_node10"><a xlink:href="dir_0a18029368813177489ba7a997da11e8.html" target="_top" xlink:title="windows">
<polygon fill="#82a9f6" stroke="#404040" points="307.5,-98 248.5,-98 248.5,-79 307.5,-79 307.5,-98"/>
<text text-anchor="middle" x="278" y="-86" font-family="Helvetica,sans-Serif" font-size="10.00">windows</text>
</a>
</g>
</g>
<!-- dir_0a18029368813177489ba7a997da11e8&#45;&gt;dir_d44c64559bbebec7f509842c48db8b23 -->
<g id="edge12" class="edge">
<title>dir_0a18029368813177489ba7a997da11e8&#45;&gt;dir_d44c64559bbebec7f509842c48db8b23</title>
<g id="a_edge12"><a xlink:href="dir_000033_000018.html" target="_top">
<path fill="none" stroke="#63b8ff" d="M307.76,-80.75C310.87,-80.13 314,-79.53 317,-79 435.36,-58.19 466.69,-64.14 585,-43 585.6,-42.89 586.21,-42.78 586.82,-42.67"/>
<polygon fill="#63b8ff" stroke="#63b8ff" points="587.78,-46.05 596.89,-40.65 586.4,-39.18 587.78,-46.05"/>
</a>
</g>
<g id="a_edge12&#45;headlabel"><a xlink:href="dir_000033_000018.html" target="_top" xlink:title="3">
<text text-anchor="middle" x="584.81" y="-47.04" font-family="Helvetica,sans-Serif" font-size="10.00" fill="#63b8ff">3</text>
</a>
</g>
</g>
</g>
</svg>

<g id="navigator" transform="translate(0 0)" fill="#404254">
  <rect fill="#f2f5e9" fill-opacity="0.5" stroke="#606060" stroke-width=".5" x="0" y="0" width="60" height="60"/>
  <use id="zoomplus" xlink:href="#zoomPlus" x="17" y="9" onmousedown="handleZoom(evt,'in')"/>
  <use id="zoomminus" xlink:href="#zoomMin" x="42" y="9" onmousedown="handleZoom(evt,'out')"/>
  <use id="reset" xlink:href="#resetDef" x="30" y="36" onmousedown="handleReset()"/>
   <use id="arrowup" xlink:href="#arrowUp" x="0" y="0" onmousedown="handlePan(0,-1)"/>
  <use id="arrowright" xlink:href="#arrowRight" x="0" y="0" onmousedown="handlePan(1,0)"/>
  <use id="arrowdown" xlink:href="#arrowDown" x="0" y="0" onmousedown="handlePan(0,1)"/>
  <use id="arrowleft" xlink:href="#arrowLeft" x="0" y="0" onmousedown="handlePan(-1,0)"/>
</g>
<svg viewBox="0 0 15 15" width="100%" height="30px" preserveAspectRatio="xMaxYMin meet">
 <g id="arrow_out" transform="scale(0.3 0.3)">
  <a xlink:href="dir_ceed1ce8f89ba04e240f3818f1ccc961_dep_org.svg" target="_base">
   <rect id="button" ry="5" rx="5" y="6" x="6" height="38" width="38"
        fill="#f2f5e9" fill-opacity="0.5" stroke="#606060" stroke-width="1.0"/>
   <path id="arrow"
     d="M 11.500037,31.436501 C 11.940474,20.09759 22.043105,11.32322 32.158766,21.979434 L 37.068811,17.246167 C 37.068811,17.246167 37.088388,32 37.088388,32 L 22.160133,31.978069 C 22.160133,31.978069 26.997745,27.140456 26.997745,27.140456 C 18.528582,18.264221 13.291696,25.230495 11.500037,31.436501 z"
     style="fill:#404040;"/>
  </a>
 </g>
</svg>

<style type='text/css'>
<![CDATA[
[data-mouse-over-selected='false'] { opacity: 0.7; }
[data-mouse-over-selected='true']  { opacity: 1.0; }
]]>
</style>
<script type="application/ecmascript"><![CDATA[
document.addEventListener('DOMContentLoaded', (event) => {
  highlightEdges();
  highlightAdjacentNodes();
});
]]></script>
</svg>
