<?xml version="1.0" encoding="UTF-8" standalone="no"?>
<!DOCTYPE svg PUBLIC "-//W3C//DTD SVG 1.1//EN"
 "http://www.w3.org/Graphics/SVG/1.1/DTD/svg11.dtd">
<!-- Generated by graphviz version 2.43.0 (0)
 -->
<!-- Title: src/platforms Pages: 1 -->
<svg width="718pt" height="149pt"
 viewBox="0.00 0.00 718.00 149.00" xmlns="http://www.w3.org/2000/svg" xmlns:xlink="http://www.w3.org/1999/xlink">
<g id="page0,1_graph0" class="graph" transform="scale(1 1) rotate(0) translate(4 145)">
<title>src/platforms</title>
<g id="clust1" class="cluster">
<title>clusterdir_68267d1309a1af8e8297ef4c3efbcdba</title>
<g id="a_clust1"><a xlink:href="dir_68267d1309a1af8e8297ef4c3efbcdba.html" target="_top" xlink:title="src">
<polygon fill="#e6eefd" stroke="#404040" stroke-dasharray="5,2" points="8,-8 8,-133 650,-133 650,-8 8,-8"/>
<text text-anchor="middle" x="329" y="-121" font-family="Helvetica,sans-Serif" font-size="10.00">src</text>
</a>
</g>
</g>
<g id="clust2" class="cluster">
<title>clusterdir_ceed1ce8f89ba04e240f3818f1ccc961</title>
<g id="a_clust2"><a xlink:href="dir_ceed1ce8f89ba04e240f3818f1ccc961.html" target="_top">
<polygon fill="#e6eefd" stroke="#404040" stroke-width="2" points="16,-16 16,-106 642,-106 642,-16 16,-16"/>
</a>
</g>
</g>
<!-- dir_ceed1ce8f89ba04e240f3818f1ccc961 -->
<g id="node1" class="node">
<title>dir_ceed1ce8f89ba04e240f3818f1ccc961</title>
<text text-anchor="middle" x="602" y="-86" font-family="Helvetica,sans-Serif" font-size="10.00">platforms</text>
</g>
<!-- dir_ec42ad78dd6cae3ff203004d8c882467 -->
<g id="node2" class="node">
<title>dir_ec42ad78dd6cae3ff203004d8c882467</title>
<g id="a_node2"><a xlink:href="dir_ec42ad78dd6cae3ff203004d8c882467.html" target="_top" xlink:title="3ds">
<polygon fill="#82a9f6" stroke="#404040" points="230,-98 196,-98 196,-79 230,-79 230,-98"/>
<text text-anchor="middle" x="213" y="-86" font-family="Helvetica,sans-Serif" font-size="10.00">3ds</text>
</a>
</g>
</g>
<!-- dir_3c172eab3d3eff36a04ebb8e77c44848 -->
<g id="node3" class="node">
<title>dir_3c172eab3d3eff36a04ebb8e77c44848</title>
<g id="a_node3"><a xlink:href="dir_3c172eab3d3eff36a04ebb8e77c44848.html" target="_top" xlink:title="common">
<polygon fill="#82a9f6" stroke="#404040" points="162.5,-43 103.5,-43 103.5,-24 162.5,-24 162.5,-43"/>
<text text-anchor="middle" x="133" y="-31" font-family="Helvetica,sans-Serif" font-size="10.00">common</text>
</a>
</g>
</g>
<!-- dir_ec42ad78dd6cae3ff203004d8c882467&#45;&gt;dir_3c172eab3d3eff36a04ebb8e77c44848 -->
<g id="edge1" class="edge">
<title>dir_ec42ad78dd6cae3ff203004d8c882467&#45;&gt;dir_3c172eab3d3eff36a04ebb8e77c44848</title>
<g id="a_edge1"><a xlink:href="dir_000000_000008.html" target="_top">
<path fill="none" stroke="#63b8ff" d="M200.15,-78.98C187.86,-70.84 169.09,-58.41 154.52,-48.76"/>
<polygon fill="#63b8ff" stroke="#63b8ff" points="156.36,-45.78 146.09,-43.17 152.49,-51.61 156.36,-45.78"/>
</a>
</g>
<g id="a_edge1&#45;headlabel"><a xlink:href="dir_000000_000008.html" target="_top" xlink:title="1">
<text text-anchor="middle" x="160.92" y="-42.89" font-family="Helvetica,sans-Serif" font-size="10.00" fill="#63b8ff">1</text>
</a>
</g>
</g>
<!-- dir_d44c64559bbebec7f509842c48db8b23 -->
<g id="node12" class="node">
<title>dir_d44c64559bbebec7f509842c48db8b23</title>
<g id="a_node12"><a xlink:href="dir_d44c64559bbebec7f509842c48db8b23.html" target="_top" xlink:title="include">
<polygon fill="#e6eefd" stroke="red" points="710,-43 658,-43 658,-24 710,-24 710,-43"/>
<text text-anchor="middle" x="684" y="-31" font-family="Helvetica,sans-Serif" font-size="10.00">include</text>
</a>
</g>
</g>
<!-- dir_ec42ad78dd6cae3ff203004d8c882467&#45;&gt;dir_d44c64559bbebec7f509842c48db8b23 -->
<g id="edge2" class="edge">
<title>dir_ec42ad78dd6cae3ff203004d8c882467&#45;&gt;dir_d44c64559bbebec7f509842c48db8b23</title>
<g id="a_edge2"><a xlink:href="dir_000000_000020.html" target="_top">
<path fill="none" stroke="#63b8ff" d="M230.19,-81.27C233.1,-80.39 236.12,-79.59 239,-79 416.9,-42.55 466.56,-70.88 646,-43 646.61,-42.91 647.22,-42.81 647.83,-42.71"/>
<polygon fill="#63b8ff" stroke="#63b8ff" points="648.74,-46.1 657.92,-40.81 647.45,-39.22 648.74,-46.1"/>
</a>
</g>
<g id="a_edge2&#45;headlabel"><a xlink:href="dir_000000_000020.html" target="_top" xlink:title="1">
<text text-anchor="middle" x="645.73" y="-47.05" font-family="Helvetica,sans-Serif" font-size="10.00" fill="#63b8ff">1</text>
</a>
</g>
</g>
<!-- dir_c535a4a48b3b456973d783f9794b23a7 -->
<g id="node4" class="node">
<title>dir_c535a4a48b3b456973d783f9794b23a7</title>
<g id="a_node4"><a xlink:href="dir_c535a4a48b3b456973d783f9794b23a7.html" target="_top" xlink:title="gba">
<polygon fill="#82a9f6" stroke="#404040" points="177.5,-98 142.5,-98 142.5,-79 177.5,-79 177.5,-98"/>
<text text-anchor="middle" x="160" y="-86" font-family="Helvetica,sans-Serif" font-size="10.00">gba</text>
</a>
</g>
</g>
<!-- dir_c535a4a48b3b456973d783f9794b23a7&#45;&gt;dir_3c172eab3d3eff36a04ebb8e77c44848 -->
<g id="edge3" class="edge">
<title>dir_c535a4a48b3b456973d783f9794b23a7&#45;&gt;dir_3c172eab3d3eff36a04ebb8e77c44848</title>
<g id="a_edge3"><a xlink:href="dir_000018_000008.html" target="_top">
<path fill="none" stroke="#63b8ff" d="M155.54,-78.75C151.88,-71.57 146.59,-61.18 142.05,-52.27"/>
<polygon fill="#63b8ff" stroke="#63b8ff" points="145.03,-50.41 137.38,-43.09 138.8,-53.59 145.03,-50.41"/>
</a>
</g>
<g id="a_edge3&#45;headlabel"><a xlink:href="dir_000018_000008.html" target="_top" xlink:title="1">
<text text-anchor="middle" x="149.2" y="-49.82" font-family="Helvetica,sans-Serif" font-size="10.00" fill="#63b8ff">1</text>
</a>
</g>
</g>
<!-- dir_c535a4a48b3b456973d783f9794b23a7&#45;&gt;dir_d44c64559bbebec7f509842c48db8b23 -->
<g id="edge4" class="edge">
<title>dir_c535a4a48b3b456973d783f9794b23a7&#45;&gt;dir_d44c64559bbebec7f509842c48db8b23</title>
<g id="a_edge4"><a xlink:href="dir_000018_000020.html" target="_top">
<path fill="none" stroke="#63b8ff" d="M177.57,-81.34C180.68,-80.43 183.91,-79.6 187,-79 387.88,-40.03 443.65,-73.41 646,-43 646.61,-42.91 647.22,-42.81 647.83,-42.71"/>
<polygon fill="#63b8ff" stroke="#63b8ff" points="648.73,-46.11 657.93,-40.84 647.46,-39.22 648.73,-46.11"/>
</a>
</g>
<g id="a_edge4&#45;headlabel"><a xlink:href="dir_000018_000020.html" target="_top" xlink:title="1">
<text text-anchor="middle" x="645.71" y="-47.05" font-family="Helvetica,sans-Serif" font-size="10.00" fill="#63b8ff">1</text>
</a>
</g>
</g>
<!-- dir_85f2f5b017d0e280691879598107c592 -->
<g id="node5" class="node">
<title>dir_85f2f5b017d0e280691879598107c592</title>
<g id="a_node5"><a xlink:href="dir_85f2f5b017d0e280691879598107c592.html" target="_top" xlink:title="linux">
<polygon fill="#82a9f6" stroke="#404040" points="551.5,-98 510.5,-98 510.5,-79 551.5,-79 551.5,-98"/>
<text text-anchor="middle" x="531" y="-86" font-family="Helvetica,sans-Serif" font-size="10.00">linux</text>
</a>
</g>
</g>
<!-- dir_85f2f5b017d0e280691879598107c592&#45;&gt;dir_d44c64559bbebec7f509842c48db8b23 -->
<g id="edge5" class="edge">
<title>dir_85f2f5b017d0e280691879598107c592&#45;&gt;dir_d44c64559bbebec7f509842c48db8b23</title>
<g id="a_edge5"><a xlink:href="dir_000021_000020.html" target="_top">
<path fill="none" stroke="#63b8ff" d="M551.63,-80.35C576.77,-71.64 619.6,-56.81 649.72,-46.38"/>
<polygon fill="#63b8ff" stroke="#63b8ff" points="651.1,-49.6 659.4,-43.02 648.81,-42.99 651.1,-49.6"/>
</a>
</g>
<g id="a_edge5&#45;headlabel"><a xlink:href="dir_000021_000020.html" target="_top" xlink:title="4">
<text text-anchor="middle" x="648.63" y="-50.96" font-family="Helvetica,sans-Serif" font-size="10.00" fill="#63b8ff">4</text>
</a>
</g>
</g>
<!-- dir_09678985b484b4db3dfe2991103a0695 -->
<g id="node6" class="node">
<title>dir_09678985b484b4db3dfe2991103a0695</title>
<g id="a_node6"><a xlink:href="dir_09678985b484b4db3dfe2991103a0695.html" target="_top" xlink:title="macos">
<polygon fill="#82a9f6" stroke="#404040" points="492.5,-98 443.5,-98 443.5,-79 492.5,-79 492.5,-98"/>
<text text-anchor="middle" x="468" y="-86" font-family="Helvetica,sans-Serif" font-size="10.00">macos</text>
</a>
</g>
</g>
<!-- dir_09678985b484b4db3dfe2991103a0695&#45;&gt;dir_d44c64559bbebec7f509842c48db8b23 -->
<g id="edge6" class="edge">
<title>dir_09678985b484b4db3dfe2991103a0695&#45;&gt;dir_d44c64559bbebec7f509842c48db8b23</title>
<g id="a_edge6"><a xlink:href="dir_000022_000020.html" target="_top">
<path fill="none" stroke="#63b8ff" d="M492.51,-81.36C495.7,-80.56 498.93,-79.76 502,-79 552.66,-66.48 611.29,-52.17 648.02,-43.24"/>
<polygon fill="#63b8ff" stroke="#63b8ff" points="648.88,-46.63 657.77,-40.87 647.22,-39.83 648.88,-46.63"/>
</a>
</g>
<g id="a_edge6&#45;headlabel"><a xlink:href="dir_000022_000020.html" target="_top" xlink:title="4">
<text text-anchor="middle" x="646.06" y="-47.74" font-family="Helvetica,sans-Serif" font-size="10.00" fill="#63b8ff">4</text>
</a>
</g>
</g>
<!-- dir_2ddc4bd1c9638660b0dec9084e710279 -->
<g id="node7" class="node">
<title>dir_2ddc4bd1c9638660b0dec9084e710279</title>
<g id="a_node7"><a xlink:href="dir_2ddc4bd1c9638660b0dec9084e710279.html" target="_top" xlink:title="nds">
<polygon fill="#82a9f6" stroke="#404040" points="124,-98 90,-98 90,-79 124,-79 124,-98"/>
<text text-anchor="middle" x="107" y="-86" font-family="Helvetica,sans-Serif" font-size="10.00">nds</text>
</a>
</g>
</g>
<!-- dir_2ddc4bd1c9638660b0dec9084e710279&#45;&gt;dir_3c172eab3d3eff36a04ebb8e77c44848 -->
<g id="edge7" class="edge">
<title>dir_2ddc4bd1c9638660b0dec9084e710279&#45;&gt;dir_3c172eab3d3eff36a04ebb8e77c44848</title>
<g id="a_edge7"><a xlink:href="dir_000024_000008.html" target="_top">
<path fill="none" stroke="#63b8ff" d="M111.29,-78.75C114.81,-71.57 119.91,-61.18 124.28,-52.27"/>
<polygon fill="#63b8ff" stroke="#63b8ff" points="127.52,-53.61 128.79,-43.09 121.24,-50.53 127.52,-53.61"/>
</a>
</g>
<g id="a_edge7&#45;headlabel"><a xlink:href="dir_000024_000008.html" target="_top" xlink:title="1">
<text text-anchor="middle" x="128.49" y="-55.59" font-family="Helvetica,sans-Serif" font-size="10.00" fill="#63b8ff">1</text>
</a>
</g>
</g>
<!-- dir_2ddc4bd1c9638660b0dec9084e710279&#45;&gt;dir_d44c64559bbebec7f509842c48db8b23 -->
<g id="edge8" class="edge">
<title>dir_2ddc4bd1c9638660b0dec9084e710279&#45;&gt;dir_d44c64559bbebec7f509842c48db8b23</title>
<g id="a_edge8"><a xlink:href="dir_000024_000020.html" target="_top">
<path fill="none" stroke="#63b8ff" d="M124.19,-81.23C127.1,-80.35 130.11,-79.56 133,-79 357.32,-35.16 419.84,-76.04 646,-43 646.61,-42.91 647.22,-42.82 647.83,-42.72"/>
<polygon fill="#63b8ff" stroke="#63b8ff" points="648.72,-46.12 657.93,-40.87 647.46,-39.23 648.72,-46.12"/>
</a>
</g>
<g id="a_edge8&#45;headlabel"><a xlink:href="dir_000024_000020.html" target="_top" xlink:title="1">
<text text-anchor="middle" x="645.7" y="-47.06" font-family="Helvetica,sans-Serif" font-size="10.00" fill="#63b8ff">1</text>
</a>
</g>
</g>
<!-- dir_ecf0edda40476ff1d9c29547bdf97a40 -->
<g id="node8" class="node">
<title>dir_ecf0edda40476ff1d9c29547bdf97a40</title>
<g id="a_node8"><a xlink:href="dir_ecf0edda40476ff1d9c29547bdf97a40.html" target="_top" xlink:title="posix">
<polygon fill="#82a9f6" stroke="#404040" points="425.5,-98 382.5,-98 382.5,-79 425.5,-79 425.5,-98"/>
<text text-anchor="middle" x="404" y="-86" font-family="Helvetica,sans-Serif" font-size="10.00">posix</text>
</a>
</g>
</g>
<!-- dir_ecf0edda40476ff1d9c29547bdf97a40&#45;&gt;dir_d44c64559bbebec7f509842c48db8b23 -->
<g id="edge9" class="edge">
<title>dir_ecf0edda40476ff1d9c29547bdf97a40&#45;&gt;dir_d44c64559bbebec7f509842c48db8b23</title>
<g id="a_edge9"><a xlink:href="dir_000029_000020.html" target="_top">
<path fill="none" stroke="#63b8ff" d="M425.61,-81.28C428.75,-80.46 431.95,-79.68 435,-79 527.88,-58.4 552.66,-61.39 646,-43 646.6,-42.88 647.21,-42.76 647.82,-42.64"/>
<polygon fill="#63b8ff" stroke="#63b8ff" points="648.8,-46.01 657.87,-40.53 647.37,-39.16 648.8,-46.01"/>
</a>
</g>
<g id="a_edge9&#45;headlabel"><a xlink:href="dir_000029_000020.html" target="_top" xlink:title="1">
<text text-anchor="middle" x="645.87" y="-47.02" font-family="Helvetica,sans-Serif" font-size="10.00" fill="#63b8ff">1</text>
</a>
</g>
</g>
<!-- dir_dbd2f83f65a97e35fcbceb75bafbe0f9 -->
<g id="node9" class="node">
<title>dir_dbd2f83f65a97e35fcbceb75bafbe0f9</title>
<g id="a_node9"><a xlink:href="dir_dbd2f83f65a97e35fcbceb75bafbe0f9.html" target="_top" xlink:title="stub">
<polygon fill="#82a9f6" stroke="#404040" points="364,-98 326,-98 326,-79 364,-79 364,-98"/>
<text text-anchor="middle" x="345" y="-86" font-family="Helvetica,sans-Serif" font-size="10.00">stub</text>
</a>
</g>
</g>
<!-- dir_dbd2f83f65a97e35fcbceb75bafbe0f9&#45;&gt;dir_d44c64559bbebec7f509842c48db8b23 -->
<g id="edge10" class="edge">
<title>dir_dbd2f83f65a97e35fcbceb75bafbe0f9&#45;&gt;dir_d44c64559bbebec7f509842c48db8b23</title>
<g id="a_edge10"><a xlink:href="dir_000033_000020.html" target="_top">
<path fill="none" stroke="#63b8ff" d="M364.24,-81.41C367.48,-80.52 370.82,-79.67 374,-79 493.31,-53.78 525.94,-64.33 646,-43 646.6,-42.89 647.21,-42.78 647.82,-42.67"/>
<polygon fill="#63b8ff" stroke="#63b8ff" points="648.78,-46.05 657.9,-40.66 647.4,-39.18 648.78,-46.05"/>
</a>
</g>
<g id="a_edge10&#45;headlabel"><a xlink:href="dir_000033_000020.html" target="_top" xlink:title="3">
<text text-anchor="middle" x="645.81" y="-47.04" font-family="Helvetica,sans-Serif" font-size="10.00" fill="#63b8ff">3</text>
</a>
</g>
</g>
<!-- dir_f1cd75b7a609b9cf63cfb1686d016e0b -->
<g id="node10" class="node">
<title>dir_f1cd75b7a609b9cf63cfb1686d016e0b</title>
<g id="a_node10"><a xlink:href="dir_f1cd75b7a609b9cf63cfb1686d016e0b.html" target="_top" xlink:title="switch">
<polygon fill="#82a9f6" stroke="#404040" points="72,-98 24,-98 24,-79 72,-79 72,-98"/>
<text text-anchor="middle" x="48" y="-86" font-family="Helvetica,sans-Serif" font-size="10.00">switch</text>
</a>
</g>
</g>
<!-- dir_f1cd75b7a609b9cf63cfb1686d016e0b&#45;&gt;dir_3c172eab3d3eff36a04ebb8e77c44848 -->
<g id="edge11" class="edge">
<title>dir_f1cd75b7a609b9cf63cfb1686d016e0b&#45;&gt;dir_3c172eab3d3eff36a04ebb8e77c44848</title>
<g id="a_edge11"><a xlink:href="dir_000034_000008.html" target="_top">
<path fill="none" stroke="#63b8ff" d="M61.66,-78.98C74.84,-70.77 95.03,-58.18 110.57,-48.49"/>
<polygon fill="#63b8ff" stroke="#63b8ff" points="112.46,-51.43 119.09,-43.17 108.76,-45.49 112.46,-51.43"/>
</a>
</g>
<g id="a_edge11&#45;headlabel"><a xlink:href="dir_000034_000008.html" target="_top" xlink:title="1">
<text text-anchor="middle" x="110.91" y="-53.24" font-family="Helvetica,sans-Serif" font-size="10.00" fill="#63b8ff">1</text>
</a>
</g>
</g>
<!-- dir_f1cd75b7a609b9cf63cfb1686d016e0b&#45;&gt;dir_d44c64559bbebec7f509842c48db8b23 -->
<g id="edge12" class="edge">
<title>dir_f1cd75b7a609b9cf63cfb1686d016e0b&#45;&gt;dir_d44c64559bbebec7f509842c48db8b23</title>
<g id="a_edge12"><a xlink:href="dir_000034_000020.html" target="_top">
<path fill="none" stroke="#63b8ff" d="M72.04,-80.75C75.04,-80.07 78.08,-79.47 81,-79 329.49,-39.44 396.91,-78.57 646,-43 646.61,-42.91 647.22,-42.82 647.83,-42.73"/>
<polygon fill="#63b8ff" stroke="#63b8ff" points="648.72,-46.12 657.93,-40.89 647.47,-39.24 648.72,-46.12"/>
</a>
</g>
<g id="a_edge12&#45;headlabel"><a xlink:href="dir_000034_000020.html" target="_top" xlink:title="1">
<text text-anchor="middle" x="645.69" y="-47.06" font-family="Helvetica,sans-Serif" font-size="10.00" fill="#63b8ff">1</text>
</a>
</g>
</g>
<!-- dir_0a18029368813177489ba7a997da11e8 -->
<g id="node11" class="node">
<title>dir_0a18029368813177489ba7a997da11e8</title>
<g id="a_node11"><a xlink:href="dir_0a18029368813177489ba7a997da11e8.html" target="_top" xlink:title="windows">
<polygon fill="#82a9f6" stroke="#404040" points="307.5,-98 248.5,-98 248.5,-79 307.5,-79 307.5,-98"/>
<text text-anchor="middle" x="278" y="-86" font-family="Helvetica,sans-Serif" font-size="10.00">windows</text>
</a>
</g>
</g>
<!-- dir_0a18029368813177489ba7a997da11e8&#45;&gt;dir_d44c64559bbebec7f509842c48db8b23 -->
<g id="edge13" class="edge">
<title>dir_0a18029368813177489ba7a997da11e8&#45;&gt;dir_d44c64559bbebec7f509842c48db8b23</title>
<g id="a_edge13"><a xlink:href="dir_000036_000020.html" target="_top">
<path fill="none" stroke="#63b8ff" d="M307.75,-80.68C310.86,-80.06 313.99,-79.49 317,-79 462.17,-55.31 500.89,-67.09 646,-43 646.6,-42.9 647.21,-42.8 647.83,-42.69"/>
<polygon fill="#63b8ff" stroke="#63b8ff" points="648.76,-46.07 657.91,-40.74 647.43,-39.2 648.76,-46.07"/>
</a>
</g>
<g id="a_edge13&#45;headlabel"><a xlink:href="dir_000036_000020.html" target="_top" xlink:title="4">
<text text-anchor="middle" x="645.77" y="-47.04" font-family="Helvetica,sans-Serif" font-size="10.00" fill="#63b8ff">4</text>
</a>
</g>
</g>
</g>
</svg>
