<?xml version="1.0" encoding="UTF-8" standalone="no"?>
<!DOCTYPE svg PUBLIC "-//W3C//DTD SVG 1.1//EN"
 "http://www.w3.org/Graphics/SVG/1.1/DTD/svg11.dtd">
<!-- Generated by graphviz version 2.43.0 (0)
 -->
<!-- Title: Graphical Class Hierarchy Pages: 1 -->
<svg width="243pt" height="108pt"
 viewBox="0.00 0.00 243.00 108.00" xmlns="http://www.w3.org/2000/svg" xmlns:xlink="http://www.w3.org/1999/xlink">
<g id="graph0" class="graph" transform="scale(1 1) rotate(0) translate(4 104)">
<title>Graphical Class Hierarchy</title>
<!-- Node0 -->
<g id="Node000000" class="node">
<title>Node0</title>
<g id="a_Node000000"><a xlink:title=" ">
<polygon fill="#e0e0e0" stroke="#999999" points="68,-35.5 0,-35.5 0,-16.5 68,-16.5 68,-35.5"/>
<text text-anchor="middle" x="34" y="-23.5" font-family="Helvetica,sans-Serif" font-size="10.00">false_type</text>
</a>
</g>
</g>
<!-- Node1 -->
<g id="Node000001" class="node">
<title>Node1</title>
<g id="a_Node000001"><a xlink:href="df/de5/structtoy_1_1math_1_1is__fixed__point_3_01fixed_3_01_base_00_01_intermediate_00_01_fraction_00_01_rounding_01_4_01_4.html" target="_top" xlink:title=" ">
<polygon fill="white" stroke="#666666" points="235,-100 104,-100 104,-48 235,-48 235,-100"/>
<text text-anchor="start" x="112" y="-88" font-family="Helvetica,sans-Serif" font-size="10.00">toy::math::is_fixed</text>
<text text-anchor="start" x="112" y="-77" font-family="Helvetica,sans-Serif" font-size="10.00">_point&lt; fixed&lt; Base,</text>
<text text-anchor="start" x="112" y="-66" font-family="Helvetica,sans-Serif" font-size="10.00"> Intermediate, Fraction,</text>
<text text-anchor="middle" x="169.5" y="-55" font-family="Helvetica,sans-Serif" font-size="10.00"> Rounding &gt; &gt;</text>
</a>
</g>
</g>
<!-- Node0&#45;&gt;Node1 -->
<g id="edge1_Node000000_Node000001" class="edge">
<title>Node0&#45;&gt;Node1</title>
<g id="a_edge1_Node000000_Node000001"><a xlink:title=" ">
<path fill="none" stroke="#63b8ff" d="M71.31,-39.05C81.36,-42.67 92.58,-46.7 103.73,-50.71"/>
<polygon fill="#63b8ff" stroke="#63b8ff" points="72.29,-35.69 61.69,-35.6 69.92,-42.28 72.29,-35.69"/>
</a>
</g>
</g>
<!-- Node3 -->
<g id="Node000003" class="node">
<title>Node3</title>
<g id="a_Node000003"><a xlink:href="d2/dc3/structtoy_1_1math_1_1is__fixed__point.html" target="_top" xlink:title="Unary type trait: true if T is an instantiation of toy::math::fixed, false otherwise.">
<polygon fill="white" stroke="#666666" points="222.5,-30 116.5,-30 116.5,0 222.5,0 222.5,-30"/>
<text text-anchor="start" x="124.5" y="-18" font-family="Helvetica,sans-Serif" font-size="10.00">toy::math::is_fixed</text>
<text text-anchor="middle" x="169.5" y="-7" font-family="Helvetica,sans-Serif" font-size="10.00">_point&lt; T &gt;</text>
</a>
</g>
</g>
<!-- Node0&#45;&gt;Node3 -->
<g id="edge2_Node000000_Node000003" class="edge">
<title>Node0&#45;&gt;Node3</title>
<g id="a_edge2_Node000000_Node000003"><a xlink:title=" ">
<path fill="none" stroke="#63b8ff" d="M78.32,-22.43C90.47,-21.43 103.8,-20.33 116.4,-19.29"/>
<polygon fill="#63b8ff" stroke="#63b8ff" points="77.68,-18.97 68,-23.28 78.25,-25.95 77.68,-18.97"/>
</a>
</g>
</g>
<!-- Node2 -->
<g id="Node000002" class="node">
<title>Node2</title>
<g id="a_Node000002"><a xlink:title=" ">
<polygon fill="#e0e0e0" stroke="#999999" points="65.5,-83.5 2.5,-83.5 2.5,-64.5 65.5,-64.5 65.5,-83.5"/>
<text text-anchor="middle" x="34" y="-71.5" font-family="Helvetica,sans-Serif" font-size="10.00">true_type</text>
</a>
</g>
</g>
<!-- Node2&#45;&gt;Node1 -->
<g id="edge3_Node000002_Node000001" class="edge">
<title>Node2&#45;&gt;Node1</title>
<g id="a_edge3_Node000002_Node000001"><a xlink:title=" ">
<path fill="none" stroke="#63b8ff" d="M75.74,-74C84.69,-74 94.37,-74 103.99,-74"/>
<polygon fill="#63b8ff" stroke="#63b8ff" points="75.63,-70.5 65.63,-74 75.63,-77.5 75.63,-70.5"/>
</a>
</g>
</g>
</g>
</svg>
