<?xml version="1.0" encoding="UTF-8" standalone="no"?>
<!DOCTYPE svg PUBLIC "-//W3C//DTD SVG 1.1//EN"
 "http://www.w3.org/Graphics/SVG/1.1/DTD/svg11.dtd">
<!-- Generated by graphviz version 14.1.2 (0)
 -->
<!-- Title: Graphical Class Hierarchy Pages: 1 -->
<svg width="241pt" height="118pt"
 viewBox="0.00 0.00 241.00 118.00" xmlns="http://www.w3.org/2000/svg" xmlns:xlink="http://www.w3.org/1999/xlink">
<g id="graph0" class="graph" transform="scale(1 1) rotate(0) translate(4 114.25)">
<title>Graphical Class Hierarchy</title>
<!-- Node0 -->
<g id="Node000000" class="node">
<title>Node0</title>
<g id="a_Node000000"><a xlink:title=" ">
<polygon fill="#e0e0e0" stroke="#999999" points="67,-40.12 0,-40.12 0,-19.38 67,-19.38 67,-40.12"/>
<text xml:space="preserve" text-anchor="middle" x="33.5" y="-26.62" font-family="Helvetica,sans-Serif" font-size="10.00">false_type</text>
</a>
</g>
</g>
<!-- Node1 -->
<g id="Node000001" class="node">
<title>Node1</title>
<g id="a_Node000001"><a xlink:href="df/de5/structtoy_1_1math_1_1is__fixed__point_3_01fixed_3_01_base_00_01_intermediate_00_01_fraction_00_01_rounding_01_4_01_4.html" target="_top" xlink:title=" ">
<polygon fill="white" stroke="#666666" points="233,-110.25 103,-110.25 103,-51.25 233,-51.25 233,-110.25"/>
<text xml:space="preserve" text-anchor="start" x="111" y="-96.75" font-family="Helvetica,sans-Serif" font-size="10.00">toy::math::is_fixed</text>
<text xml:space="preserve" text-anchor="start" x="111" y="-84" font-family="Helvetica,sans-Serif" font-size="10.00">_point&lt; fixed&lt; Base,</text>
<text xml:space="preserve" text-anchor="start" x="111" y="-71.25" font-family="Helvetica,sans-Serif" font-size="10.00"> Intermediate, Fraction,</text>
<text xml:space="preserve" text-anchor="middle" x="168" y="-58.5" font-family="Helvetica,sans-Serif" font-size="10.00"> Rounding &gt; &gt;</text>
</a>
</g>
</g>
<!-- Node0&#45;&gt;Node1 -->
<g id="edge1_Node000000_Node000001" class="edge">
<title>Node0&#45;&gt;Node1</title>
<g id="a_edge1_Node000000_Node000001"><a xlink:title=" ">
<path fill="none" stroke="#63b8ff" d="M73.06,-44.59C82.36,-48.17 92.55,-52.09 102.68,-55.99"/>
<polygon fill="#63b8ff" stroke="#63b8ff" points="74.6,-41.44 64.01,-41.11 72.09,-47.97 74.6,-41.44"/>
</a>
</g>
</g>
<!-- Node3 -->
<g id="Node000003" class="node">
<title>Node3</title>
<g id="a_Node000003"><a xlink:href="d2/dc3/structtoy_1_1math_1_1is__fixed__point.html" target="_top" xlink:title="Unary type trait: true if T is an instantiation of toy::math::fixed, false otherwise.">
<polygon fill="white" stroke="#666666" points="220.62,-33.5 115.38,-33.5 115.38,0 220.62,0 220.62,-33.5"/>
<text xml:space="preserve" text-anchor="start" x="123.38" y="-20" font-family="Helvetica,sans-Serif" font-size="10.00">toy::math::is_fixed</text>
<text xml:space="preserve" text-anchor="middle" x="168" y="-7.25" font-family="Helvetica,sans-Serif" font-size="10.00">_point&lt; T &gt;</text>
</a>
</g>
</g>
<!-- Node0&#45;&gt;Node3 -->
<g id="edge2_Node000000_Node000003" class="edge">
<title>Node0&#45;&gt;Node3</title>
<g id="a_edge2_Node000000_Node000003"><a xlink:title=" ">
<path fill="none" stroke="#63b8ff" d="M78.53,-25.43C90.22,-24.28 102.96,-23.03 115.03,-21.85"/>
<polygon fill="#63b8ff" stroke="#63b8ff" points="78.37,-21.93 68.76,-26.39 79.05,-28.9 78.37,-21.93"/>
</a>
</g>
</g>
<!-- Node2 -->
<g id="Node000002" class="node">
<title>Node2</title>
<g id="a_Node000002"><a xlink:title=" ">
<polygon fill="#e0e0e0" stroke="#999999" points="64.75,-91.12 2.25,-91.12 2.25,-70.38 64.75,-70.38 64.75,-91.12"/>
<text xml:space="preserve" text-anchor="middle" x="33.5" y="-77.62" font-family="Helvetica,sans-Serif" font-size="10.00">true_type</text>
</a>
</g>
</g>
<!-- Node2&#45;&gt;Node1 -->
<g id="edge3_Node000002_Node000001" class="edge">
<title>Node2&#45;&gt;Node1</title>
<g id="a_edge3_Node000002_Node000001"><a xlink:title=" ">
<path fill="none" stroke="#63b8ff" d="M76.56,-80.75C84.9,-80.75 93.83,-80.75 102.71,-80.75"/>
<polygon fill="#63b8ff" stroke="#63b8ff" points="76.74,-77.25 66.74,-80.75 76.74,-84.25 76.74,-77.25"/>
</a>
</g>
</g>
</g>
</svg>
