<?xml version="1.0" encoding="UTF-8" standalone="no"?>
<!DOCTYPE svg PUBLIC "-//W3C//DTD SVG 1.1//EN"
 "http://www.w3.org/Graphics/SVG/1.1/DTD/svg11.dtd">
<!-- Generated by graphviz version 2.43.0 (0)
 -->
<!-- Title: toy::FixedString::size Pages: 1 -->
<svg width="270pt" height="56pt"
 viewBox="0.00 0.00 270.00 56.00" xmlns="http://www.w3.org/2000/svg" xmlns:xlink="http://www.w3.org/1999/xlink">
<g id="graph0" class="graph" transform="scale(1 1) rotate(0) translate(4 52)">
<title>toy::FixedString::size</title>
<!-- Node1 -->
<g id="Node000001" class="node">
<title>Node1</title>
<g id="a_Node000001"><a xlink:title="Returns the size of the string.">
<polygon fill="#999999" stroke="#666666" points="117,-24.5 0,-24.5 0,-5.5 117,-5.5 117,-24.5"/>
<text text-anchor="middle" x="58.5" y="-12.5" font-family="Helvetica,sans-Serif" font-size="10.00">toy::FixedString::size</text>
</a>
</g>
</g>
<!-- Node2 -->
<g id="Node000002" class="node">
<title>Node2</title>
<g id="a_Node000002"><a xlink:href="../../d7/d15/classtoy_1_1_o_string_stream.html#a2771f205d9b13c0281df543a5c50254f" target="_top" xlink:title=" ">
<polygon fill="white" stroke="#666666" points="262,-30 153,-30 153,0 262,0 262,-30"/>
<text text-anchor="start" x="161" y="-18" font-family="Helvetica,sans-Serif" font-size="10.00">toy::OStringStream</text>
<text text-anchor="middle" x="207.5" y="-7" font-family="Helvetica,sans-Serif" font-size="10.00">::operator&lt;&lt;</text>
</a>
</g>
</g>
<!-- Node1&#45;&gt;Node2 -->
<g id="edge1_Node000001_Node000002" class="edge">
<title>Node1&#45;&gt;Node2</title>
<g id="a_edge1_Node000001_Node000002"><a xlink:title=" ">
<path fill="none" stroke="#63b8ff" d="M117.18,-15C125.53,-15 134.16,-15 142.62,-15"/>
<polygon fill="#63b8ff" stroke="#63b8ff" points="142.83,-18.5 152.83,-15 142.83,-11.5 142.83,-18.5"/>
</a>
</g>
</g>
<!-- Node2&#45;&gt;Node2 -->
<g id="edge2_Node000002_Node000002" class="edge">
<title>Node2&#45;&gt;Node2</title>
<g id="a_edge2_Node000002_Node000002"><a xlink:title=" ">
<path fill="none" stroke="#63b8ff" d="M181.48,-30.28C175.7,-39.41 184.38,-48 207.5,-48 221.23,-48 229.87,-44.97 233.41,-40.6"/>
<polygon fill="#63b8ff" stroke="#63b8ff" points="236.91,-40.31 233.52,-30.28 229.91,-40.24 236.91,-40.31"/>
</a>
</g>
</g>
</g>
</svg>
