<?xml version="1.0" encoding="UTF-8" standalone="no"?>
<!DOCTYPE svg PUBLIC "-//W3C//DTD SVG 1.1//EN"
 "http://www.w3.org/Graphics/SVG/1.1/DTD/svg11.dtd">
<!-- Generated by graphviz version 14.1.2 (0)
 -->
<!-- Title: toy::math::is_fixed_point&lt; fixed&lt; Base, Intermediate, Fraction, Rounding &gt; &gt; Pages: 1 -->
<svg width="156pt" height="124pt"
 viewBox="0.00 0.00 156.00 124.00" xmlns="http://www.w3.org/2000/svg" xmlns:xlink="http://www.w3.org/1999/xlink">
<g id="page0,1_graph0" class="graph" transform="scale(1 1) rotate(0) translate(4 119.75)">
<title>toy::math::is_fixed_point&lt; fixed&lt; Base, Intermediate, Fraction, Rounding &gt; &gt;</title>
<!-- Node1 -->
<g id="Node000001" class="node">
<title>Node1</title>
<g id="a_Node000001"><a xlink:title=" ">
<polygon fill="#999999" stroke="#666666" points="139.5,-59 9.5,-59 9.5,0 139.5,0 139.5,-59"/>
<text xml:space="preserve" text-anchor="start" x="17.5" y="-45.5" font-family="Helvetica,sans-Serif" font-size="10.00">toy::math::is_fixed</text>
<text xml:space="preserve" text-anchor="start" x="17.5" y="-32.75" font-family="Helvetica,sans-Serif" font-size="10.00">_point&lt; fixed&lt; Base,</text>
<text xml:space="preserve" text-anchor="start" x="17.5" y="-20" font-family="Helvetica,sans-Serif" font-size="10.00"> Intermediate, Fraction,</text>
<text xml:space="preserve" text-anchor="middle" x="74.5" y="-7.25" font-family="Helvetica,sans-Serif" font-size="10.00"> Rounding &gt; &gt;</text>
</a>
</g>
</g>
<!-- Node2 -->
<g id="Node000002" class="node">
<title>Node2</title>
<g id="a_Node000002"><a xlink:title=" ">
<polygon fill="white" stroke="#666666" points="67,-115.75 0,-115.75 0,-95 67,-95 67,-115.75"/>
<text xml:space="preserve" text-anchor="middle" x="33.5" y="-102.25" font-family="Helvetica,sans-Serif" font-size="10.00">false_type</text>
</a>
</g>
</g>
<!-- Node2&#45;&gt;Node1 -->
<g id="edge1_Node000001_Node000002" class="edge">
<title>Node2&#45;&gt;Node1</title>
<g id="a_edge1_Node000001_Node000002"><a xlink:title=" ">
<path fill="none" stroke="#63b8ff" d="M44.38,-84.78C48.71,-76.97 53.78,-67.83 58.52,-59.3"/>
<polygon fill="#63b8ff" stroke="#63b8ff" points="41.39,-82.95 39.59,-93.39 47.51,-86.35 41.39,-82.95"/>
</a>
</g>
</g>
<!-- Node3 -->
<g id="Node000003" class="node">
<title>Node3</title>
<g id="a_Node000003"><a xlink:title=" ">
<polygon fill="white" stroke="#666666" points="147.75,-115.75 85.25,-115.75 85.25,-95 147.75,-95 147.75,-115.75"/>
<text xml:space="preserve" text-anchor="middle" x="116.5" y="-102.25" font-family="Helvetica,sans-Serif" font-size="10.00">true_type</text>
</a>
</g>
</g>
<!-- Node3&#45;&gt;Node1 -->
<g id="edge2_Node000001_Node000003" class="edge">
<title>Node3&#45;&gt;Node1</title>
<g id="a_edge2_Node000001_Node000003"><a xlink:title=" ">
<path fill="none" stroke="#63b8ff" d="M105.36,-84.78C100.92,-76.97 95.72,-67.83 90.87,-59.3"/>
<polygon fill="#63b8ff" stroke="#63b8ff" points="102.28,-86.44 110.26,-93.4 108.36,-82.98 102.28,-86.44"/>
</a>
</g>
</g>
</g>
</svg>
