<?xml version="1.0" encoding="UTF-8" standalone="no"?>
<!DOCTYPE svg PUBLIC "-//W3C//DTD SVG 1.1//EN"
 "http://www.w3.org/Graphics/SVG/1.1/DTD/svg11.dtd">
<!-- Generated by graphviz version 2.43.0 (0)
 -->
<!-- Title: toy::math::is_fixed_point&lt; fixed&lt; Base, Intermediate, Fraction, Rounding &gt; &gt; Pages: 1 -->
<svg width="158pt" height="115pt"
 viewBox="0.00 0.00 157.50 115.00" xmlns="http://www.w3.org/2000/svg" xmlns:xlink="http://www.w3.org/1999/xlink">
<g id="page0,1_graph0" class="graph" transform="scale(1 1) rotate(0) translate(4 111)">
<title>toy::math::is_fixed_point&lt; fixed&lt; Base, Intermediate, Fraction, Rounding &gt; &gt;</title>
<!-- Node1 -->
<g id="Node000001" class="node">
<title>Node1</title>
<g id="a_Node000001"><a xlink:title=" ">
<polygon fill="#999999" stroke="#666666" points="141.5,-52 10.5,-52 10.5,0 141.5,0 141.5,-52"/>
<text text-anchor="start" x="18.5" y="-40" font-family="Helvetica,sans-Serif" font-size="10.00">toy::math::is_fixed</text>
<text text-anchor="start" x="18.5" y="-29" font-family="Helvetica,sans-Serif" font-size="10.00">_point&lt; fixed&lt; Base,</text>
<text text-anchor="start" x="18.5" y="-18" font-family="Helvetica,sans-Serif" font-size="10.00"> Intermediate, Fraction,</text>
<text text-anchor="middle" x="76" y="-7" font-family="Helvetica,sans-Serif" font-size="10.00"> Rounding &gt; &gt;</text>
</a>
</g>
</g>
<!-- Node2 -->
<g id="Node000002" class="node">
<title>Node2</title>
<g id="a_Node000002"><a xlink:title=" ">
<polygon fill="white" stroke="#666666" points="68,-107 0,-107 0,-88 68,-88 68,-107"/>
<text text-anchor="middle" x="34" y="-95" font-family="Helvetica,sans-Serif" font-size="10.00">false_type</text>
</a>
</g>
</g>
<!-- Node2&#45;&gt;Node1 -->
<g id="edge1_Node000001_Node000002" class="edge">
<title>Node2&#45;&gt;Node1</title>
<g id="a_edge1_Node000001_Node000002"><a xlink:title=" ">
<path fill="none" stroke="#63b8ff" d="M44.39,-79.31C49.35,-71.09 55.39,-61.1 60.86,-52.05"/>
<polygon fill="#63b8ff" stroke="#63b8ff" points="41.33,-77.61 39.15,-87.98 47.32,-81.23 41.33,-77.61"/>
</a>
</g>
</g>
<!-- Node3 -->
<g id="Node000003" class="node">
<title>Node3</title>
<g id="a_Node000003"><a xlink:title=" ">
<polygon fill="white" stroke="#666666" points="149.5,-107 86.5,-107 86.5,-88 149.5,-88 149.5,-107"/>
<text text-anchor="middle" x="118" y="-95" font-family="Helvetica,sans-Serif" font-size="10.00">true_type</text>
</a>
</g>
</g>
<!-- Node3&#45;&gt;Node1 -->
<g id="edge2_Node000001_Node000003" class="edge">
<title>Node3&#45;&gt;Node1</title>
<g id="a_edge2_Node000001_Node000003"><a xlink:title=" ">
<path fill="none" stroke="#63b8ff" d="M107.61,-79.31C102.65,-71.09 96.61,-61.1 91.14,-52.05"/>
<polygon fill="#63b8ff" stroke="#63b8ff" points="104.68,-81.23 112.85,-87.98 110.67,-77.61 104.68,-81.23"/>
</a>
</g>
</g>
</g>
</svg>
