<?xml version="1.0" encoding="UTF-8" standalone="no"?>
<!DOCTYPE svg PUBLIC "-//W3C//DTD SVG 1.1//EN"
 "http://www.w3.org/Graphics/SVG/1.1/DTD/svg11.dtd">
<!-- Generated by graphviz version 2.43.0 (0)
 -->
<!-- Title: include/core/utils.hpp Pages: 1 -->
<!--zoomable 258 -->

<svg id="main" version="1.1" xmlns="http://www.w3.org/2000/svg" xmlns:xlink="http://www.w3.org/1999/xlink" xml:space="preserve" onload="init(evt)">

<style type="text/css"><![CDATA[
.node, .edge {opacity: 0.7;}
.node.selected, .edge.selected {opacity: 1;}
.edge:hover path { stroke: red; }
.edge:hover polygon { stroke: red; fill: red; }
]]></style>

<defs>
  <circle id="rim" cx="0" cy="0" r="7"/>
  <circle id="rim2" cx="0" cy="0" r="3.5"/>
  <g id="zoomPlus">
    <use xlink:href="#rim" fill="#404040"><set attributeName="fill" to="#808080" begin="zoomplus.mouseover" end="zoomplus.mouseout"/></use>
    <path d="M-4,0h8M0,-4v8" fill="none" stroke="white" stroke-width="1.5" pointer-events="none"/>
  </g>
  <g id="zoomMin">
    <use xlink:href="#rim" fill="#404040"><set attributeName="fill" to="#808080" begin="zoomminus.mouseover" end="zoomminus.mouseout"/></use>
    <path d="M-4,0h8" fill="none" stroke="white" stroke-width="1.5" pointer-events="none"/>
  </g>
  <g id="arrowUp" transform="translate(30 24)">
    <use xlink:href="#rim"/>
    <path pointer-events="none" fill="none" stroke="white" stroke-width="1.5" d="M0,-3.0v7 M-2.5,-0.5L0,-3.0L2.5,-0.5"/>
  </g>
  <g id="arrowRight" transform="rotate(90) translate(36 -43)">
    <use xlink:href="#rim"/>
    <path pointer-events="none" fill="none" stroke="white" stroke-width="1.5" d="M0,-3.0v7 M-2.5,-0.5L0,-3.0L2.5,-0.5"/>
  </g>
  <g id="arrowDown" transform="rotate(180) translate(-30 -48)">
    <use xlink:href="#rim"/>
    <path pointer-events="none" fill="none" stroke="white" stroke-width="1.5" d="M0,-3.0v7 M-2.5,-0.5L0,-3.0L2.5,-0.5"/>
  </g>
  <g id="arrowLeft" transform="rotate(270) translate(-36 17)">
    <use xlink:href="#rim"/>
    <path pointer-events="none" fill="none" stroke="white" stroke-width="1.5" d="M0,-3.0v7 M-2.5,-0.5L0,-3.0L2.5,-0.5"/>
  </g>
  <g id="resetDef">
    <use xlink:href="#rim2" fill="#404040"><set attributeName="fill" to="#808080" begin="reset.mouseover" end="reset.mouseout"/></use>
  </g>
</defs>
<script type="application/ecmascript">
var viewWidth = 1435;
var viewHeight = 258;
var sectionId = 'dynsection-0';
</script>
<script type="application/ecmascript" xlink:href="../../svg.min.js"/>
<svg id="graph" class="graph">
<g id="viewport">
<title>include/core/utils.hpp</title>
<!-- Node1 -->
<g id="Node000001" class="node">
<title>Node1</title>
<g id="a_Node000001"><a xlink:title="Core utilities: encoding conversion, string metrics, and number formatting.">
<polygon fill="#999999" stroke="#666666" points="696.5,-250 575.5,-250 575.5,-231 696.5,-231 696.5,-250"/>
<text text-anchor="middle" x="636" y="-238" font-family="Helvetica,sans-Serif" font-size="10.00">include/core/utils.hpp</text>
</a>
</g>
</g>
<!-- Node2 -->
<g id="Node000002" class="node">
<title>Node2</title>
<g id="a_Node000002"><a xlink:href="../../da/d47/core_8hpp.html" target="_top" xlink:title="Umbrella header for the engine core module.">
<polygon fill="white" stroke="#666666" points="684.5,-195 587.5,-195 587.5,-176 684.5,-176 684.5,-195"/>
<text text-anchor="middle" x="636" y="-183" font-family="Helvetica,sans-Serif" font-size="10.00">include/core.hpp</text>
</a>
</g>
</g>
<!-- Node1&#45;&gt;Node2 -->
<g id="edge1_Node000001_Node000002" class="edge">
<title>Node1&#45;&gt;Node2</title>
<g id="a_edge1_Node000001_Node000002"><a xlink:title=" ">
<path fill="none" stroke="#63b8ff" d="M636,-220.66C636,-211.93 636,-201.99 636,-195.09"/>
<polygon fill="#63b8ff" stroke="#63b8ff" points="632.5,-220.75 636,-230.75 639.5,-220.75 632.5,-220.75"/>
</a>
</g>
</g>
<!-- Node3 -->
<g id="Node000003" class="node">
<title>Node3</title>
<g id="a_Node000003"><a xlink:href="../../d4/d01/application_8hpp.html" target="_top" xlink:title="Umbrella header for the app module.">
<polygon fill="white" stroke="#666666" points="130,-74 0,-74 0,-55 130,-55 130,-74"/>
<text text-anchor="middle" x="65" y="-62" font-family="Helvetica,sans-Serif" font-size="10.00">include/application.hpp</text>
</a>
</g>
</g>
<!-- Node2&#45;&gt;Node3 -->
<g id="edge2_Node000002_Node000003" class="edge">
<title>Node2&#45;&gt;Node3</title>
<g id="a_edge2_Node000002_Node000003"><a xlink:title=" ">
<path fill="none" stroke="#63b8ff" d="M577.08,-183.95C463.76,-182.12 219.93,-174.19 144,-140 111,-125.14 83.06,-90.66 71.16,-74.35"/>
<polygon fill="#63b8ff" stroke="#63b8ff" points="577.25,-187.45 587.3,-184.1 577.36,-180.45 577.25,-187.45"/>
</a>
</g>
</g>
<!-- Node4 -->
<g id="Node000004" class="node">
<title>Node4</title>
<g id="a_Node000004"><a xlink:href="../../d8/d8c/toygine2_8hpp.html" target="_top" xlink:title="Main umbrella header for the engine.">
<polygon fill="white" stroke="#666666" points="421.5,-19 302.5,-19 302.5,0 421.5,0 421.5,-19"/>
<text text-anchor="middle" x="362" y="-7" font-family="Helvetica,sans-Serif" font-size="10.00">include/toygine2.hpp</text>
</a>
</g>
</g>
<!-- Node2&#45;&gt;Node4 -->
<g id="edge19_Node000002_Node000004" class="edge">
<title>Node2&#45;&gt;Node4</title>
<g id="a_edge19_Node000002_Node000004"><a xlink:title=" ">
<path fill="none" stroke="#63b8ff" d="M577.27,-183.76C478.8,-181.59 285.45,-173.11 227,-140 188.86,-118.4 149.87,-89.43 177,-55 192.49,-35.35 254.44,-23.37 302.43,-16.87"/>
<polygon fill="#63b8ff" stroke="#63b8ff" points="577.29,-187.26 587.36,-183.96 577.43,-180.26 577.29,-187.26"/>
</a>
</g>
</g>
<!-- Node5 -->
<g id="Node000005" class="node">
<title>Node5</title>
<g id="a_Node000005"><a xlink:href="../../d1/d71/audio_8hpp.html" target="_top" xlink:title="Umbrella header for the audio module.">
<polygon fill="white" stroke="#666666" points="289.5,-74 186.5,-74 186.5,-55 289.5,-55 289.5,-74"/>
<text text-anchor="middle" x="238" y="-62" font-family="Helvetica,sans-Serif" font-size="10.00">include/audio.hpp</text>
</a>
</g>
</g>
<!-- Node2&#45;&gt;Node5 -->
<g id="edge4_Node000002_Node000005" class="edge">
<title>Node2&#45;&gt;Node5</title>
<g id="a_edge4_Node000002_Node000005"><a xlink:title=" ">
<path fill="none" stroke="#63b8ff" d="M577.1,-182.03C472.57,-177.04 263.46,-164.14 241,-140 224.25,-121.99 230.71,-89.68 235.15,-74.21"/>
<polygon fill="#63b8ff" stroke="#63b8ff" points="577.03,-185.53 587.18,-182.5 577.36,-178.53 577.03,-185.53"/>
</a>
</g>
</g>
<!-- Node6 -->
<g id="Node000006" class="node">
<title>Node6</title>
<g id="a_Node000006"><a xlink:href="../../d8/d39/game_8hpp.html" target="_top" xlink:title="Umbrella header for the game module.">
<polygon fill="white" stroke="#666666" points="354,-134.5 250,-134.5 250,-115.5 354,-115.5 354,-134.5"/>
<text text-anchor="middle" x="302" y="-122.5" font-family="Helvetica,sans-Serif" font-size="10.00">include/game.hpp</text>
</a>
</g>
</g>
<!-- Node2&#45;&gt;Node6 -->
<g id="edge6_Node000002_Node000006" class="edge">
<title>Node2&#45;&gt;Node6</title>
<g id="a_edge6_Node000002_Node000006"><a xlink:title=" ">
<path fill="none" stroke="#63b8ff" d="M577.02,-176C521.59,-167.75 436.42,-154.39 363,-140 354.68,-138.37 345.77,-136.43 337.4,-134.53"/>
<polygon fill="#63b8ff" stroke="#63b8ff" points="576.6,-179.48 587.01,-177.48 577.63,-172.55 576.6,-179.48"/>
</a>
</g>
</g>
<!-- Node7 -->
<g id="Node000007" class="node">
<title>Node7</title>
<g id="a_Node000007"><a xlink:href="../../d4/d78/math_8hpp.html" target="_top" xlink:title="Umbrella header for the math module.">
<polygon fill="white" stroke="#666666" points="473.5,-134.5 372.5,-134.5 372.5,-115.5 473.5,-115.5 473.5,-134.5"/>
<text text-anchor="middle" x="423" y="-122.5" font-family="Helvetica,sans-Serif" font-size="10.00">include/math.hpp</text>
</a>
</g>
</g>
<!-- Node2&#45;&gt;Node7 -->
<g id="edge7_Node000002_Node000007" class="edge">
<title>Node2&#45;&gt;Node7</title>
<g id="a_edge7_Node000002_Node000007"><a xlink:title=" ">
<path fill="none" stroke="#63b8ff" d="M595.31,-173.32C554.12,-162.01 491.33,-144.77 454.01,-134.52"/>
<polygon fill="#63b8ff" stroke="#63b8ff" points="594.46,-176.72 605.03,-175.99 596.31,-169.97 594.46,-176.72"/>
</a>
</g>
</g>
<!-- Node9 -->
<g id="Node000009" class="node">
<title>Node9</title>
<g id="a_Node000009"><a xlink:href="../../d6/d67/network_8hpp.html" target="_top" xlink:title="Umbrella header for the network module.">
<polygon fill="white" stroke="#666666" points="608,-134.5 492,-134.5 492,-115.5 608,-115.5 608,-134.5"/>
<text text-anchor="middle" x="550" y="-122.5" font-family="Helvetica,sans-Serif" font-size="10.00">include/network.hpp</text>
</a>
</g>
</g>
<!-- Node2&#45;&gt;Node9 -->
<g id="edge11_Node000002_Node000009" class="edge">
<title>Node2&#45;&gt;Node9</title>
<g id="a_edge11_Node000002_Node000009"><a xlink:title=" ">
<path fill="none" stroke="#63b8ff" d="M614.92,-170.16C598.58,-159.05 576.48,-144.01 562.74,-134.67"/>
<polygon fill="#63b8ff" stroke="#63b8ff" points="613.07,-173.14 623.31,-175.87 617.01,-167.35 613.07,-173.14"/>
</a>
</g>
</g>
<!-- Node11 -->
<g id="Node000011" class="node">
<title>Node11</title>
<g id="a_Node000011"><a xlink:href="../../de/dd6/ui_8hpp.html" target="_top" xlink:title="Umbrella header for platform UI types.">
<polygon fill="white" stroke="#666666" points="812,-74 682,-74 682,-55 812,-55 812,-74"/>
<text text-anchor="middle" x="747" y="-62" font-family="Helvetica,sans-Serif" font-size="10.00">include/platform/ui.hpp</text>
</a>
</g>
</g>
<!-- Node2&#45;&gt;Node11 -->
<g id="edge14_Node000002_Node000011" class="edge">
<title>Node2&#45;&gt;Node11</title>
<g id="a_edge14_Node000002_Node000011"><a xlink:title=" ">
<path fill="none" stroke="#63b8ff" d="M636.79,-165.62C638.39,-149.26 642.99,-125.79 656,-110 670.76,-92.08 694.49,-80.81 714.02,-74.1"/>
<polygon fill="#63b8ff" stroke="#63b8ff" points="633.29,-165.42 636.1,-175.64 640.28,-165.9 633.29,-165.42"/>
</a>
</g>
</g>
<!-- Node12 -->
<g id="Node000012" class="node">
<title>Node12</title>
<g id="a_Node000012"><a xlink:href="../../d6/d4b/render_8hpp.html" target="_top" xlink:title="Umbrella header for the render module.">
<polygon fill="white" stroke="#666666" points="771.5,-134.5 664.5,-134.5 664.5,-115.5 771.5,-115.5 771.5,-134.5"/>
<text text-anchor="middle" x="718" y="-122.5" font-family="Helvetica,sans-Serif" font-size="10.00">include/render.hpp</text>
</a>
</g>
</g>
<!-- Node2&#45;&gt;Node12 -->
<g id="edge16_Node000002_Node000012" class="edge">
<title>Node2&#45;&gt;Node12</title>
<g id="a_edge16_Node000002_Node000012"><a xlink:title=" ">
<path fill="none" stroke="#63b8ff" d="M656.54,-169.85C672.07,-158.77 692.87,-143.93 705.85,-134.67"/>
<polygon fill="#63b8ff" stroke="#63b8ff" points="654.21,-167.21 648.1,-175.87 658.27,-172.91 654.21,-167.21"/>
</a>
</g>
</g>
<!-- Node14 -->
<g id="Node000014" class="node">
<title>Node14</title>
<g id="a_Node000014"><a xlink:href="../../da/de0/core_8cpp.html" target="_top" xlink:title="Implementation of toy::initialize() and toy::deInitialize() lifecycle functions.">
<polygon fill="white" stroke="#666666" points="888.5,-134.5 789.5,-134.5 789.5,-115.5 888.5,-115.5 888.5,-134.5"/>
<text text-anchor="middle" x="839" y="-122.5" font-family="Helvetica,sans-Serif" font-size="10.00">src/core/core.cpp</text>
</a>
</g>
</g>
<!-- Node2&#45;&gt;Node14 -->
<g id="edge20_Node000002_Node000014" class="edge">
<title>Node2&#45;&gt;Node14</title>
<g id="a_edge20_Node000002_Node000014"><a xlink:title=" ">
<path fill="none" stroke="#63b8ff" d="M675.28,-173.18C714.54,-161.87 774.02,-144.72 809.45,-134.52"/>
<polygon fill="#63b8ff" stroke="#63b8ff" points="674.16,-169.86 665.52,-175.99 676.1,-176.59 674.16,-169.86"/>
</a>
</g>
</g>
<!-- Node15 -->
<g id="Node000015" class="node">
<title>Node15</title>
<g id="a_Node000015"><a xlink:href="../../db/d2d/hashes_8cpp.html" target="_top" xlink:title="Table&#45;driven implementations of toy::crc8(), toy::crc16(), and toy::crc32().">
<polygon fill="white" stroke="#666666" points="1019.5,-134.5 906.5,-134.5 906.5,-115.5 1019.5,-115.5 1019.5,-134.5"/>
<text text-anchor="middle" x="963" y="-122.5" font-family="Helvetica,sans-Serif" font-size="10.00">src/core/hashes.cpp</text>
</a>
</g>
</g>
<!-- Node2&#45;&gt;Node15 -->
<g id="edge21_Node000002_Node000015" class="edge">
<title>Node2&#45;&gt;Node15</title>
<g id="a_edge21_Node000002_Node000015"><a xlink:title=" ">
<path fill="none" stroke="#63b8ff" d="M694.82,-175.27C748.01,-166.74 828.41,-153.4 898,-140 906.61,-138.34 915.84,-136.43 924.56,-134.57"/>
<polygon fill="#63b8ff" stroke="#63b8ff" points="694.21,-171.82 684.89,-176.85 695.31,-178.73 694.21,-171.82"/>
</a>
</g>
</g>
<!-- Node16 -->
<g id="Node000016" class="node">
<title>Node16</title>
<g id="a_Node000016"><a xlink:href="../../d2/d51/log__sink_8cpp.html" target="_top" xlink:title="Out&#45;of&#45;line definitions for toy::log::ISink.">
<polygon fill="white" stroke="#666666" points="1156.5,-134.5 1037.5,-134.5 1037.5,-115.5 1156.5,-115.5 1156.5,-134.5"/>
<text text-anchor="middle" x="1097" y="-122.5" font-family="Helvetica,sans-Serif" font-size="10.00">src/core/log_sink.cpp</text>
</a>
</g>
</g>
<!-- Node2&#45;&gt;Node16 -->
<g id="edge22_Node000002_Node000016" class="edge">
<title>Node2&#45;&gt;Node16</title>
<g id="a_edge22_Node000002_Node000016"><a xlink:title=" ">
<path fill="none" stroke="#63b8ff" d="M694.58,-179.53C771.57,-172.62 910.89,-158.81 1029,-140 1038.64,-138.46 1048.99,-136.5 1058.63,-134.53"/>
<polygon fill="#63b8ff" stroke="#63b8ff" points="694.24,-176.05 684.59,-180.42 694.86,-183.02 694.24,-176.05"/>
</a>
</g>
</g>
<!-- Node17 -->
<g id="Node000017" class="node">
<title>Node17</title>
<g id="a_Node000017"><a xlink:href="../../de/d06/utils_8cpp.html" target="_top" xlink:title="Definitions for string, encoding, and number utilities declared in core/utils.hpp.">
<polygon fill="white" stroke="#666666" points="1273.5,-134.5 1174.5,-134.5 1174.5,-115.5 1273.5,-115.5 1273.5,-134.5"/>
<text text-anchor="middle" x="1224" y="-122.5" font-family="Helvetica,sans-Serif" font-size="10.00">src/core/utils.cpp</text>
</a>
</g>
</g>
<!-- Node2&#45;&gt;Node17 -->
<g id="edge23_Node000002_Node000017" class="edge">
<title>Node2&#45;&gt;Node17</title>
<g id="a_edge23_Node000002_Node000017"><a xlink:title=" ">
<path fill="none" stroke="#63b8ff" d="M694.54,-182.51C792.62,-178.53 996.09,-167.47 1166,-140 1174.69,-138.59 1184.01,-136.58 1192.57,-134.51"/>
<polygon fill="#63b8ff" stroke="#63b8ff" points="694.39,-179.02 684.53,-182.91 694.66,-186.01 694.39,-179.02"/>
</a>
</g>
</g>
<!-- Node18 -->
<g id="Node000018" class="node">
<title>Node18</title>
<g id="a_Node000018"><a xlink:href="../../d7/d90/assertion__stub_8cpp.html" target="_top" xlink:title="Stub definitions for the assertion callback API declared in core/assertion.hpp.">
<polygon fill="white" stroke="#666666" points="1426.5,-140 1291.5,-140 1291.5,-110 1426.5,-110 1426.5,-140"/>
<text text-anchor="start" x="1299.5" y="-128" font-family="Helvetica,sans-Serif" font-size="10.00">src/platforms/stub</text>
<text text-anchor="middle" x="1359" y="-117" font-family="Helvetica,sans-Serif" font-size="10.00">/core/assertion_stub.cpp</text>
</a>
</g>
</g>
<!-- Node2&#45;&gt;Node18 -->
<g id="edge24_Node000002_Node000018" class="edge">
<title>Node2&#45;&gt;Node18</title>
<g id="a_edge24_Node000002_Node000018"><a xlink:title=" ">
<path fill="none" stroke="#63b8ff" d="M695.14,-182.68C809.21,-178.67 1067.43,-167.18 1283,-140 1285.66,-139.66 1288.37,-139.3 1291.11,-138.9"/>
<polygon fill="#63b8ff" stroke="#63b8ff" points="694.75,-179.19 684.88,-183.03 695,-186.19 694.75,-179.19"/>
</a>
</g>
</g>
<!-- Node3&#45;&gt;Node4 -->
<g id="edge3_Node000003_Node000004" class="edge">
<title>Node3&#45;&gt;Node4</title>
<g id="a_edge3_Node000003_Node000004"><a xlink:title=" ">
<path fill="none" stroke="#63b8ff" d="M122.78,-53.19C178.46,-43.25 261.74,-28.39 313.91,-19.08"/>
<polygon fill="#63b8ff" stroke="#63b8ff" points="121.95,-49.78 112.72,-54.98 123.18,-56.67 121.95,-49.78"/>
</a>
</g>
</g>
<!-- Node5&#45;&gt;Node4 -->
<g id="edge5_Node000005_Node000004" class="edge">
<title>Node5&#45;&gt;Node4</title>
<g id="a_edge5_Node000005_Node000004"><a xlink:title=" ">
<path fill="none" stroke="#63b8ff" d="M267.18,-51.03C290.11,-41.23 321.45,-27.83 341.71,-19.17"/>
<polygon fill="#63b8ff" stroke="#63b8ff" points="265.74,-47.84 257.92,-54.98 268.49,-54.27 265.74,-47.84"/>
</a>
</g>
</g>
<!-- Node7&#45;&gt;Node4 -->
<g id="edge10_Node000007_Node000004" class="edge">
<title>Node7&#45;&gt;Node4</title>
<g id="a_edge10_Node000007_Node000004"><a xlink:title=" ">
<path fill="none" stroke="#63b8ff" d="M383.89,-111.5C366.27,-103.69 347.17,-91.68 337,-74 326.36,-55.51 343.04,-31.63 353.89,-19.08"/>
<polygon fill="#63b8ff" stroke="#63b8ff" points="382.88,-114.87 393.46,-115.41 385.53,-108.39 382.88,-114.87"/>
</a>
</g>
</g>
<!-- Node8 -->
<g id="Node000008" class="node">
<title>Node8</title>
<g id="a_Node000008"><a xlink:href="../../db/dbb/geometry_8hpp.html" target="_top" xlink:title="Umbrella header for the geometry module.">
<polygon fill="white" stroke="#666666" points="468,-74 346,-74 346,-55 468,-55 468,-74"/>
<text text-anchor="middle" x="407" y="-62" font-family="Helvetica,sans-Serif" font-size="10.00">include/geometry.hpp</text>
</a>
</g>
</g>
<!-- Node7&#45;&gt;Node8 -->
<g id="edge8_Node000007_Node000008" class="edge">
<title>Node7&#45;&gt;Node8</title>
<g id="a_edge8_Node000007_Node000008"><a xlink:title=" ">
<path fill="none" stroke="#63b8ff" d="M417.94,-105.49C415.07,-95.01 411.62,-82.39 409.37,-74.17"/>
<polygon fill="#63b8ff" stroke="#63b8ff" points="414.62,-106.65 420.64,-115.37 421.38,-104.8 414.62,-106.65"/>
</a>
</g>
</g>
<!-- Node8&#45;&gt;Node4 -->
<g id="edge9_Node000008_Node000004" class="edge">
<title>Node8&#45;&gt;Node4</title>
<g id="a_edge9_Node000008_Node000004"><a xlink:title=" ">
<path fill="none" stroke="#63b8ff" d="M392.95,-46.96C385.11,-37.72 375.67,-26.6 369.29,-19.09"/>
<polygon fill="#63b8ff" stroke="#63b8ff" points="390.43,-49.39 399.57,-54.75 395.76,-44.86 390.43,-49.39"/>
</a>
</g>
</g>
<!-- Node9&#45;&gt;Node4 -->
<g id="edge12_Node000009_Node000004" class="edge">
<title>Node9&#45;&gt;Node4</title>
<g id="a_edge12_Node000009_Node000004"><a xlink:title=" ">
<path fill="none" stroke="#63b8ff" d="M536.06,-107.56C522.34,-92.24 500.14,-69.61 477,-55 450.93,-38.54 417.81,-26.52 393.81,-19.15"/>
<polygon fill="#63b8ff" stroke="#63b8ff" points="533.55,-110 542.76,-115.23 538.82,-105.4 533.55,-110"/>
</a>
</g>
</g>
<!-- Node10 -->
<g id="Node000010" class="node">
<title>Node10</title>
<g id="a_Node000010"><a xlink:href="../../d3/d80/endpoint_8cpp.html" target="_top" xlink:title="Definitions for the toy::network::Endpoint destructor declared in network/endpoint....">
<polygon fill="white" stroke="#666666" points="664,-74 524,-74 524,-55 664,-55 664,-74"/>
<text text-anchor="middle" x="594" y="-62" font-family="Helvetica,sans-Serif" font-size="10.00">src/network/endpoint.cpp</text>
</a>
</g>
</g>
<!-- Node9&#45;&gt;Node10 -->
<g id="edge13_Node000009_Node000010" class="edge">
<title>Node9&#45;&gt;Node10</title>
<g id="a_edge13_Node000009_Node000010"><a xlink:title=" ">
<path fill="none" stroke="#63b8ff" d="M562.69,-107.13C570.8,-96.35 580.97,-82.82 587.48,-74.17"/>
<polygon fill="#63b8ff" stroke="#63b8ff" points="559.71,-105.27 556.49,-115.37 565.3,-109.48 559.71,-105.27"/>
</a>
</g>
</g>
<!-- Node11&#45;&gt;Node4 -->
<g id="edge15_Node000011_Node000004" class="edge">
<title>Node11&#45;&gt;Node4</title>
<g id="a_edge15_Node000011_Node000004"><a xlink:title=" ">
<path fill="none" stroke="#63b8ff" d="M675.1,-53.6C602.04,-43.54 490.17,-28.14 421.8,-18.73"/>
<polygon fill="#63b8ff" stroke="#63b8ff" points="674.76,-57.09 685.14,-54.98 675.71,-50.15 674.76,-57.09"/>
</a>
</g>
</g>
<!-- Node12&#45;&gt;Node4 -->
<g id="edge17_Node000012_Node000004" class="edge">
<title>Node12&#45;&gt;Node4</title>
<g id="a_edge17_Node000012_Node000004"><a xlink:title=" ">
<path fill="none" stroke="#63b8ff" d="M761.85,-112.45C799.33,-100.53 843.84,-80.16 821,-55 794.67,-25.99 540.23,-15.33 421.93,-11.91"/>
<polygon fill="#63b8ff" stroke="#63b8ff" points="760.58,-109.18 752.03,-115.44 762.61,-115.88 760.58,-109.18"/>
</a>
</g>
</g>
<!-- Node13 -->
<g id="Node000013" class="node">
<title>Node13</title>
<g id="a_Node000013"><a xlink:href="../../db/d3d/pixel__format_8cpp.html" target="_top" xlink:title="Definitions for pixelFormatName() and pixelFormatFromName() declared in render/pixel_format....">
<polygon fill="white" stroke="#666666" points="1018,-74 868,-74 868,-55 1018,-55 1018,-74"/>
<text text-anchor="middle" x="943" y="-62" font-family="Helvetica,sans-Serif" font-size="10.00">src/render/pixel_format.cpp</text>
</a>
</g>
</g>
<!-- Node12&#45;&gt;Node13 -->
<g id="edge18_Node000012_Node000013" class="edge">
<title>Node12&#45;&gt;Node13</title>
<g id="a_edge18_Node000012_Node000013"><a xlink:title=" ">
<path fill="none" stroke="#63b8ff" d="M760.44,-112.97C803.93,-101.66 870.65,-84.31 910.24,-74.02"/>
<polygon fill="#63b8ff" stroke="#63b8ff" points="759.51,-109.59 750.72,-115.49 761.28,-116.36 759.51,-109.59"/>
</a>
</g>
</g>
</g>
</svg>

<g id="navigator" transform="translate(0 0)" fill="#404254">
  <rect fill="#f2f5e9" fill-opacity="0.5" stroke="#606060" stroke-width=".5" x="0" y="0" width="60" height="60"/>
  <use id="zoomplus" xlink:href="#zoomPlus" x="17" y="9" onmousedown="handleZoom(evt,'in')"/>
  <use id="zoomminus" xlink:href="#zoomMin" x="42" y="9" onmousedown="handleZoom(evt,'out')"/>
  <use id="reset" xlink:href="#resetDef" x="30" y="36" onmousedown="handleReset()"/>
   <use id="arrowup" xlink:href="#arrowUp" x="0" y="0" onmousedown="handlePan(0,-1)"/>
  <use id="arrowright" xlink:href="#arrowRight" x="0" y="0" onmousedown="handlePan(1,0)"/>
  <use id="arrowdown" xlink:href="#arrowDown" x="0" y="0" onmousedown="handlePan(0,1)"/>
  <use id="arrowleft" xlink:href="#arrowLeft" x="0" y="0" onmousedown="handlePan(-1,0)"/>
</g>
<svg viewBox="0 0 15 15" width="100%" height="30px" preserveAspectRatio="xMaxYMin meet">
 <g id="arrow_out" transform="scale(0.3 0.3)">
  <a xlink:href="core_2utils_8hpp__dep__incl_org.svg" target="_base">
   <rect id="button" ry="5" rx="5" y="6" x="6" height="38" width="38"
        fill="#f2f5e9" fill-opacity="0.5" stroke="#606060" stroke-width="1.0"/>
   <path id="arrow"
     d="M 11.500037,31.436501 C 11.940474,20.09759 22.043105,11.32322 32.158766,21.979434 L 37.068811,17.246167 C 37.068811,17.246167 37.088388,32 37.088388,32 L 22.160133,31.978069 C 22.160133,31.978069 26.997745,27.140456 26.997745,27.140456 C 18.528582,18.264221 13.291696,25.230495 11.500037,31.436501 z"
     style="fill:#404040;"/>
  </a>
 </g>
</svg>

<style type='text/css'>
<![CDATA[
[data-mouse-over-selected='false'] { opacity: 0.7; }
[data-mouse-over-selected='true']  { opacity: 1.0; }
]]>
</style>
<script type="application/ecmascript"><![CDATA[
document.addEventListener('DOMContentLoaded', (event) => {
  highlightEdges();
  highlightAdjacentNodes();
});
]]></script>
</svg>
