<?xml version="1.0" encoding="UTF-8" standalone="no"?>
<!DOCTYPE svg PUBLIC "-//W3C//DTD SVG 1.1//EN"
 "http://www.w3.org/Graphics/SVG/1.1/DTD/svg11.dtd">
<!-- Generated by graphviz version 2.43.0 (0)
 -->
<!-- Title: include/core.hpp Pages: 1 -->
<svg width="2546pt" height="104pt"
 viewBox="0.00 0.00 2545.50 104.00" xmlns="http://www.w3.org/2000/svg" xmlns:xlink="http://www.w3.org/1999/xlink">
<g id="graph0" class="graph" transform="scale(1 1) rotate(0) translate(4 100)">
<title>include/core.hpp</title>
<!-- Node1 -->
<g id="Node000001" class="node">
<title>Node1</title>
<g id="a_Node000001"><a xlink:title="Umbrella header for the engine core module.">
<polygon fill="#999999" stroke="#666666" points="954.5,-96 857.5,-96 857.5,-77 954.5,-77 954.5,-96"/>
<text text-anchor="middle" x="906" y="-84" font-family="Helvetica,sans-Serif" font-size="10.00">include/core.hpp</text>
</a>
</g>
</g>
<!-- Node2 -->
<g id="Node000002" class="node">
<title>Node2</title>
<g id="a_Node000002"><a xlink:title=" ">
<polygon fill="#e0e0e0" stroke="#999999" points="64,-30 0,-30 0,-11 64,-11 64,-30"/>
<text text-anchor="middle" x="32" y="-18" font-family="Helvetica,sans-Serif" font-size="10.00">algorithm</text>
</a>
</g>
</g>
<!-- Node1&#45;&gt;Node2 -->
<g id="edge1_Node000001_Node000002" class="edge">
<title>Node1&#45;&gt;Node2</title>
<g id="a_edge1_Node000001_Node000002"><a xlink:title=" ">
<path fill="none" stroke="#63b8ff" d="M857.41,-85.38C702.69,-84.59 222.93,-79.07 73,-41 67.27,-39.55 61.38,-37.27 55.91,-34.78"/>
<polygon fill="#63b8ff" stroke="#63b8ff" points="57.17,-31.5 46.66,-30.19 54.06,-37.77 57.17,-31.5"/>
</a>
</g>
</g>
<!-- Node3 -->
<g id="Node000003" class="node">
<title>Node3</title>
<g id="a_Node000003"><a xlink:title=" ">
<polygon fill="#e0e0e0" stroke="#999999" points="124,-30 82,-30 82,-11 124,-11 124,-30"/>
<text text-anchor="middle" x="103" y="-18" font-family="Helvetica,sans-Serif" font-size="10.00">array</text>
</a>
</g>
</g>
<!-- Node1&#45;&gt;Node3 -->
<g id="edge2_Node000001_Node000003" class="edge">
<title>Node1&#45;&gt;Node3</title>
<g id="a_edge2_Node000001_Node000003"><a xlink:title=" ">
<path fill="none" stroke="#63b8ff" d="M857.34,-85.94C709.66,-86.78 268.39,-85.41 133,-41 129.24,-39.77 125.49,-37.94 121.98,-35.89"/>
<polygon fill="#63b8ff" stroke="#63b8ff" points="123.67,-32.81 113.41,-30.2 119.8,-38.64 123.67,-32.81"/>
</a>
</g>
</g>
<!-- Node4 -->
<g id="Node000004" class="node">
<title>Node4</title>
<g id="a_Node000004"><a xlink:title=" ">
<polygon fill="#e0e0e0" stroke="#999999" points="201.5,-30 142.5,-30 142.5,-11 201.5,-11 201.5,-30"/>
<text text-anchor="middle" x="172" y="-18" font-family="Helvetica,sans-Serif" font-size="10.00">compare</text>
</a>
</g>
</g>
<!-- Node1&#45;&gt;Node4 -->
<g id="edge3_Node000001_Node000004" class="edge">
<title>Node1&#45;&gt;Node4</title>
<g id="a_edge3_Node000001_Node000004"><a xlink:title=" ">
<path fill="none" stroke="#63b8ff" d="M857.15,-84.89C719.94,-82.78 333.12,-73.98 211,-41 205.66,-39.56 200.18,-37.35 195.09,-34.93"/>
<polygon fill="#63b8ff" stroke="#63b8ff" points="196.39,-31.66 185.9,-30.16 193.16,-37.87 196.39,-31.66"/>
</a>
</g>
</g>
<!-- Node5 -->
<g id="Node000005" class="node">
<title>Node5</title>
<g id="a_Node000005"><a xlink:title=" ">
<polygon fill="#e0e0e0" stroke="#999999" points="280,-30 220,-30 220,-11 280,-11 280,-30"/>
<text text-anchor="middle" x="250" y="-18" font-family="Helvetica,sans-Serif" font-size="10.00">concepts</text>
</a>
</g>
</g>
<!-- Node1&#45;&gt;Node5 -->
<g id="edge4_Node000001_Node000005" class="edge">
<title>Node1&#45;&gt;Node5</title>
<g id="a_edge4_Node000001_Node000005"><a xlink:title=" ">
<path fill="none" stroke="#63b8ff" d="M857.25,-84.43C731,-81.28 395.8,-70.31 289,-41 283.66,-39.54 278.19,-37.32 273.1,-34.89"/>
<polygon fill="#63b8ff" stroke="#63b8ff" points="274.4,-31.62 263.91,-30.13 271.17,-37.84 274.4,-31.62"/>
</a>
</g>
</g>
<!-- Node6 -->
<g id="Node000006" class="node">
<title>Node6</title>
<g id="a_Node000006"><a xlink:title=" ">
<polygon fill="#e0e0e0" stroke="#999999" points="351.5,-30 298.5,-30 298.5,-11 351.5,-11 351.5,-30"/>
<text text-anchor="middle" x="325" y="-18" font-family="Helvetica,sans-Serif" font-size="10.00">cstddef</text>
</a>
</g>
</g>
<!-- Node1&#45;&gt;Node6 -->
<g id="edge5_Node000001_Node000006" class="edge">
<title>Node1&#45;&gt;Node6</title>
<g id="a_edge5_Node000001_Node000006"><a xlink:title=" ">
<path fill="none" stroke="#63b8ff" d="M857.47,-84.1C741.94,-80.35 453.36,-68.46 361,-41 356.15,-39.56 351.2,-37.41 346.6,-35.05"/>
<polygon fill="#63b8ff" stroke="#63b8ff" points="348.2,-31.94 337.76,-30.11 344.78,-38.04 348.2,-31.94"/>
</a>
</g>
</g>
<!-- Node7 -->
<g id="Node000007" class="node">
<title>Node7</title>
<g id="a_Node000007"><a xlink:title=" ">
<polygon fill="#e0e0e0" stroke="#999999" points="420,-30 370,-30 370,-11 420,-11 420,-30"/>
<text text-anchor="middle" x="395" y="-18" font-family="Helvetica,sans-Serif" font-size="10.00">cstdint</text>
</a>
</g>
</g>
<!-- Node1&#45;&gt;Node7 -->
<g id="edge6_Node000001_Node000007" class="edge">
<title>Node1&#45;&gt;Node7</title>
<g id="a_edge6_Node000001_Node000007"><a xlink:title=" ">
<path fill="none" stroke="#63b8ff" d="M857.32,-83.58C752.36,-79.02 507.89,-66 429,-41 424.5,-39.57 419.94,-37.49 415.69,-35.21"/>
<polygon fill="#63b8ff" stroke="#63b8ff" points="417.39,-32.15 407,-30.07 413.83,-38.17 417.39,-32.15"/>
</a>
</g>
</g>
<!-- Node8 -->
<g id="Node000008" class="node">
<title>Node8</title>
<g id="a_Node000008"><a xlink:title=" ">
<polygon fill="#e0e0e0" stroke="#999999" points="488,-30 438,-30 438,-11 488,-11 488,-30"/>
<text text-anchor="middle" x="463" y="-18" font-family="Helvetica,sans-Serif" font-size="10.00">cstring</text>
</a>
</g>
</g>
<!-- Node1&#45;&gt;Node8 -->
<g id="edge7_Node000001_Node000008" class="edge">
<title>Node1&#45;&gt;Node8</title>
<g id="a_edge7_Node000001_Node000008"><a xlink:title=" ">
<path fill="none" stroke="#63b8ff" d="M857.24,-82.71C763.79,-76.94 562.88,-62.44 497,-41 492.51,-39.54 487.96,-37.44 483.71,-35.15"/>
<polygon fill="#63b8ff" stroke="#63b8ff" points="485.41,-32.09 475.02,-30.02 481.85,-38.12 485.41,-32.09"/>
</a>
</g>
</g>
<!-- Node9 -->
<g id="Node000009" class="node">
<title>Node9</title>
<g id="a_Node000009"><a xlink:title=" ">
<polygon fill="#e0e0e0" stroke="#999999" points="555.5,-30 506.5,-30 506.5,-11 555.5,-11 555.5,-30"/>
<text text-anchor="middle" x="531" y="-18" font-family="Helvetica,sans-Serif" font-size="10.00">cuchar</text>
</a>
</g>
</g>
<!-- Node1&#45;&gt;Node9 -->
<g id="edge8_Node000001_Node000009" class="edge">
<title>Node1&#45;&gt;Node9</title>
<g id="a_edge8_Node000001_Node000009"><a xlink:title=" ">
<path fill="none" stroke="#63b8ff" d="M857.23,-85.05C789.81,-83.11 665.13,-74.77 565,-41 560.72,-39.56 556.37,-37.55 552.28,-35.37"/>
<polygon fill="#63b8ff" stroke="#63b8ff" points="553.75,-32.18 543.36,-30.15 550.22,-38.22 553.75,-32.18"/>
</a>
</g>
</g>
<!-- Node10 -->
<g id="Node000010" class="node">
<title>Node10</title>
<g id="a_Node000010"><a xlink:title=" ">
<polygon fill="#e0e0e0" stroke="#999999" points="632,-30 574,-30 574,-11 632,-11 632,-30"/>
<text text-anchor="middle" x="603" y="-18" font-family="Helvetica,sans-Serif" font-size="10.00">memory</text>
</a>
</g>
</g>
<!-- Node1&#45;&gt;Node10 -->
<g id="edge9_Node000001_Node000010" class="edge">
<title>Node1&#45;&gt;Node10</title>
<g id="a_edge9_Node000001_Node000010"><a xlink:title=" ">
<path fill="none" stroke="#63b8ff" d="M857.05,-81.81C803.03,-76.71 714.06,-65.23 641,-41 636.15,-39.39 631.16,-37.24 626.46,-34.95"/>
<polygon fill="#63b8ff" stroke="#63b8ff" points="627.82,-31.71 617.34,-30.19 624.58,-37.92 627.82,-31.71"/>
</a>
</g>
</g>
<!-- Node11 -->
<g id="Node000011" class="node">
<title>Node11</title>
<g id="a_Node000011"><a xlink:title=" ">
<polygon fill="#e0e0e0" stroke="#999999" points="715.5,-30 650.5,-30 650.5,-11 715.5,-11 715.5,-30"/>
<text text-anchor="middle" x="683" y="-18" font-family="Helvetica,sans-Serif" font-size="10.00">stdexcept</text>
</a>
</g>
</g>
<!-- Node1&#45;&gt;Node11 -->
<g id="edge10_Node000001_Node000011" class="edge">
<title>Node1&#45;&gt;Node11</title>
<g id="a_edge10_Node000001_Node000011"><a xlink:title=" ">
<path fill="none" stroke="#63b8ff" d="M861.04,-76.98C823.98,-69.35 770.34,-56.93 725,-41 719.6,-39.1 713.95,-36.75 708.61,-34.34"/>
<polygon fill="#63b8ff" stroke="#63b8ff" points="709.99,-31.13 699.45,-30.04 707.01,-37.46 709.99,-31.13"/>
</a>
</g>
</g>
<!-- Node12 -->
<g id="Node000012" class="node">
<title>Node12</title>
<g id="a_Node000012"><a xlink:title=" ">
<polygon fill="#e0e0e0" stroke="#999999" points="778,-30 734,-30 734,-11 778,-11 778,-30"/>
<text text-anchor="middle" x="756" y="-18" font-family="Helvetica,sans-Serif" font-size="10.00">string</text>
</a>
</g>
</g>
<!-- Node1&#45;&gt;Node12 -->
<g id="edge11_Node000001_Node000012" class="edge">
<title>Node1&#45;&gt;Node12</title>
<g id="a_edge11_Node000001_Node000012"><a xlink:title=" ">
<path fill="none" stroke="#63b8ff" d="M878.4,-76.96C853.84,-68.94 817.24,-55.97 787,-41 783.71,-39.37 780.33,-37.48 777.06,-35.54"/>
<polygon fill="#63b8ff" stroke="#63b8ff" points="778.67,-32.42 768.33,-30.07 774.95,-38.35 778.67,-32.42"/>
</a>
</g>
</g>
<!-- Node13 -->
<g id="Node000013" class="node">
<title>Node13</title>
<g id="a_Node000013"><a xlink:title=" ">
<polygon fill="#e0e0e0" stroke="#999999" points="865.5,-30 796.5,-30 796.5,-11 865.5,-11 865.5,-30"/>
<text text-anchor="middle" x="831" y="-18" font-family="Helvetica,sans-Serif" font-size="10.00">type_traits</text>
</a>
</g>
</g>
<!-- Node1&#45;&gt;Node13 -->
<g id="edge12_Node000001_Node000013" class="edge">
<title>Node1&#45;&gt;Node13</title>
<g id="a_edge12_Node000001_Node000013"><a xlink:title=" ">
<path fill="none" stroke="#63b8ff" d="M895.89,-76.87C883.99,-66.71 864,-49.66 849.35,-37.15"/>
<polygon fill="#63b8ff" stroke="#63b8ff" points="851.31,-34.23 841.44,-30.41 846.77,-39.56 851.31,-34.23"/>
</a>
</g>
</g>
<!-- Node14 -->
<g id="Node000014" class="node">
<title>Node14</title>
<g id="a_Node000014"><a xlink:title=" ">
<polygon fill="#e0e0e0" stroke="#999999" points="928.5,-30 883.5,-30 883.5,-11 928.5,-11 928.5,-30"/>
<text text-anchor="middle" x="906" y="-18" font-family="Helvetica,sans-Serif" font-size="10.00">utility</text>
</a>
</g>
</g>
<!-- Node1&#45;&gt;Node14 -->
<g id="edge13_Node000001_Node000014" class="edge">
<title>Node1&#45;&gt;Node14</title>
<g id="a_edge13_Node000001_Node000014"><a xlink:title=" ">
<path fill="none" stroke="#63b8ff" d="M906,-76.87C906,-67.66 906,-52.79 906,-40.77"/>
<polygon fill="#63b8ff" stroke="#63b8ff" points="909.5,-40.41 906,-30.41 902.5,-40.41 909.5,-40.41"/>
</a>
</g>
</g>
<!-- Node15 -->
<g id="Node000015" class="node">
<title>Node15</title>
<g id="a_Node000015"><a xlink:href="../../dd/d9e/linux_2platform__config_8hpp.html" target="_top" xlink:title="additional linux platform header">
<polygon fill="white" stroke="#666666" points="1101.5,-41 946.5,-41 946.5,0 1101.5,0 1101.5,-41"/>
<text text-anchor="start" x="954.5" y="-29" font-family="Helvetica,sans-Serif" font-size="10.00">/home/runner/work/toygine2</text>
<text text-anchor="start" x="954.5" y="-18" font-family="Helvetica,sans-Serif" font-size="10.00">/toygine2/src/platforms</text>
<text text-anchor="middle" x="1024" y="-7" font-family="Helvetica,sans-Serif" font-size="10.00">/linux/platform_config.hpp</text>
</a>
</g>
</g>
<!-- Node1&#45;&gt;Node15 -->
<g id="edge14_Node000001_Node000015" class="edge">
<title>Node1&#45;&gt;Node15</title>
<g id="a_edge14_Node000001_Node000015"><a xlink:title=" ">
<path fill="none" stroke="#63b8ff" d="M921.91,-76.87C936.53,-68.94 958.92,-56.8 979,-45.91"/>
<polygon fill="#63b8ff" stroke="#63b8ff" points="980.91,-48.85 988.03,-41.01 977.57,-42.7 980.91,-48.85"/>
</a>
</g>
</g>
<!-- Node16 -->
<g id="Node000016" class="node">
<title>Node16</title>
<g id="a_Node000016"><a xlink:href="../../dd/ded/c__string__view_8hpp.html" target="_top" xlink:title="Non&#45;owning string view class for C&#45;style strings.">
<polygon fill="white" stroke="#666666" points="1248,-30 1120,-30 1120,-11 1248,-11 1248,-30"/>
<text text-anchor="middle" x="1184" y="-18" font-family="Helvetica,sans-Serif" font-size="10.00">core/c_string_view.hpp</text>
</a>
</g>
</g>
<!-- Node1&#45;&gt;Node16 -->
<g id="edge15_Node000001_Node000016" class="edge">
<title>Node1&#45;&gt;Node16</title>
<g id="a_edge15_Node000001_Node000016"><a xlink:title=" ">
<path fill="none" stroke="#63b8ff" d="M948.14,-76.96C989.68,-68.4 1054.89,-54.57 1111,-41 1121.53,-38.45 1132.87,-35.52 1143.39,-32.71"/>
<polygon fill="#63b8ff" stroke="#63b8ff" points="1144.43,-36.06 1153.18,-30.08 1142.61,-29.3 1144.43,-36.06"/>
</a>
</g>
</g>
<!-- Node17 -->
<g id="Node000017" class="node">
<title>Node17</title>
<g id="a_Node000017"><a xlink:href="../../d4/dc0/constexpr__utils_8hpp.html" target="_top" xlink:title="Constexpr utility functions for compile&#45;time operations.">
<polygon fill="white" stroke="#666666" points="1402,-30 1266,-30 1266,-11 1402,-11 1402,-30"/>
<text text-anchor="middle" x="1334" y="-18" font-family="Helvetica,sans-Serif" font-size="10.00">core/constexpr_utils.hpp</text>
</a>
</g>
</g>
<!-- Node1&#45;&gt;Node17 -->
<g id="edge16_Node000001_Node000017" class="edge">
<title>Node1&#45;&gt;Node17</title>
<g id="a_edge16_Node000001_Node000017"><a xlink:title=" ">
<path fill="none" stroke="#63b8ff" d="M954.55,-81.23C1022.56,-74.83 1149.87,-61.28 1257,-41 1269.05,-38.72 1282.02,-35.67 1293.82,-32.66"/>
<polygon fill="#63b8ff" stroke="#63b8ff" points="1295.04,-35.96 1303.84,-30.05 1293.28,-29.19 1295.04,-35.96"/>
</a>
</g>
</g>
<!-- Node18 -->
<g id="Node000018" class="node">
<title>Node18</title>
<g id="a_Node000018"><a xlink:href="../../d7/d7f/fixed__string_8hpp.html" target="_top" xlink:title="Template string class with fixed&#45;size character buffer.">
<polygon fill="white" stroke="#666666" points="1538,-30 1420,-30 1420,-11 1538,-11 1538,-30"/>
<text text-anchor="middle" x="1479" y="-18" font-family="Helvetica,sans-Serif" font-size="10.00">core/fixed_string.hpp</text>
</a>
</g>
</g>
<!-- Node1&#45;&gt;Node18 -->
<g id="edge17_Node000001_Node000018" class="edge">
<title>Node1&#45;&gt;Node18</title>
<g id="a_edge17_Node000001_Node000018"><a xlink:title=" ">
<path fill="none" stroke="#63b8ff" d="M954.81,-84.3C1045.43,-81.38 1245.5,-71.73 1411,-41 1421.8,-39 1433.35,-36.01 1443.81,-32.98"/>
<polygon fill="#63b8ff" stroke="#63b8ff" points="1444.87,-36.31 1453.45,-30.08 1442.86,-29.61 1444.87,-36.31"/>
</a>
</g>
</g>
<!-- Node19 -->
<g id="Node000019" class="node">
<title>Node19</title>
<g id="a_Node000019"><a xlink:href="../../d7/dea/fixed__vector_8hpp.html" target="_top" xlink:title="TODO.">
<polygon fill="white" stroke="#666666" points="1676,-30 1556,-30 1556,-11 1676,-11 1676,-30"/>
<text text-anchor="middle" x="1616" y="-18" font-family="Helvetica,sans-Serif" font-size="10.00">core/fixed_vector.hpp</text>
</a>
</g>
</g>
<!-- Node1&#45;&gt;Node19 -->
<g id="edge18_Node000001_Node000019" class="edge">
<title>Node1&#45;&gt;Node19</title>
<g id="a_edge18_Node000001_Node000019"><a xlink:title=" ">
<path fill="none" stroke="#63b8ff" d="M954.66,-85.53C1062.28,-84.84 1328.3,-79.07 1547,-41 1558.06,-39.07 1569.89,-36.09 1580.57,-33.02"/>
<polygon fill="#63b8ff" stroke="#63b8ff" points="1581.82,-36.3 1590.41,-30.09 1579.82,-29.59 1581.82,-36.3"/>
</a>
</g>
</g>
<!-- Node20 -->
<g id="Node000020" class="node">
<title>Node20</title>
<g id="a_Node000020"><a xlink:href="../../dd/d8e/hashes_8hpp.html" target="_top" xlink:title="CRC hash functions.">
<polygon fill="white" stroke="#666666" points="1790,-30 1694,-30 1694,-11 1790,-11 1790,-30"/>
<text text-anchor="middle" x="1742" y="-18" font-family="Helvetica,sans-Serif" font-size="10.00">core/hashes.hpp</text>
</a>
</g>
</g>
<!-- Node1&#45;&gt;Node20 -->
<g id="edge19_Node000001_Node000020" class="edge">
<title>Node1&#45;&gt;Node20</title>
<g id="a_edge19_Node000001_Node000020"><a xlink:title=" ">
<path fill="none" stroke="#63b8ff" d="M954.64,-84.45C1102.33,-81 1544.08,-68.59 1685,-41 1693.93,-39.25 1703.37,-36.44 1711.94,-33.49"/>
<polygon fill="#63b8ff" stroke="#63b8ff" points="1713.32,-36.72 1721.53,-30.02 1710.93,-30.13 1713.32,-36.72"/>
</a>
</g>
</g>
<!-- Node21 -->
<g id="Node000021" class="node">
<title>Node21</title>
<g id="a_Node000021"><a xlink:href="../../df/d93/utils_8hpp.html" target="_top" xlink:title="Core utility functions for string manipulation, encoding conversion, and number formatting.">
<polygon fill="white" stroke="#666666" points="1891.5,-30 1808.5,-30 1808.5,-11 1891.5,-11 1891.5,-30"/>
<text text-anchor="middle" x="1850" y="-18" font-family="Helvetica,sans-Serif" font-size="10.00">core/utils.hpp</text>
</a>
</g>
</g>
<!-- Node1&#45;&gt;Node21 -->
<g id="edge20_Node000001_Node000021" class="edge">
<title>Node1&#45;&gt;Node21</title>
<g id="a_edge20_Node000001_Node000021"><a xlink:title=" ">
<path fill="none" stroke="#63b8ff" d="M954.53,-85.09C1116.23,-83.41 1635.62,-75.4 1799,-41 1806.65,-39.39 1814.67,-36.79 1822.02,-34.01"/>
<polygon fill="#63b8ff" stroke="#63b8ff" points="1823.57,-37.16 1831.54,-30.18 1820.95,-30.67 1823.57,-37.16"/>
</a>
</g>
</g>
<!-- Node22 -->
<g id="Node000022" class="node">
<title>Node22</title>
<g id="a_Node000022"><a xlink:href="../../df/d4a/c__string__view_8inl.html" target="_top" xlink:title="Inline implementations for CStringView class.">
<polygon fill="white" stroke="#666666" points="2032,-30 1910,-30 1910,-11 2032,-11 2032,-30"/>
<text text-anchor="middle" x="1971" y="-18" font-family="Helvetica,sans-Serif" font-size="10.00">core/c_string_view.inl</text>
</a>
</g>
</g>
<!-- Node1&#45;&gt;Node22 -->
<g id="edge21_Node000001_Node000022" class="edge">
<title>Node1&#45;&gt;Node22</title>
<g id="a_edge21_Node000001_Node000022"><a xlink:title=" ">
<path fill="none" stroke="#63b8ff" d="M954.74,-84.78C1128.27,-82.01 1715.52,-70.59 1901,-41 1912.54,-39.16 1924.9,-36.1 1935.96,-32.94"/>
<polygon fill="#63b8ff" stroke="#63b8ff" points="1937.12,-36.25 1945.71,-30.04 1935.13,-29.54 1937.12,-36.25"/>
</a>
</g>
</g>
<!-- Node23 -->
<g id="Node000023" class="node">
<title>Node23</title>
<g id="a_Node000023"><a xlink:href="../../dc/d28/constexpr__utils_8inl.html" target="_top" xlink:title="Inline implementations for constexpr utility functions.">
<polygon fill="white" stroke="#666666" points="2180,-30 2050,-30 2050,-11 2180,-11 2180,-30"/>
<text text-anchor="middle" x="2115" y="-18" font-family="Helvetica,sans-Serif" font-size="10.00">core/constexpr_utils.inl</text>
</a>
</g>
</g>
<!-- Node1&#45;&gt;Node23 -->
<g id="edge22_Node000001_Node000023" class="edge">
<title>Node1&#45;&gt;Node23</title>
<g id="a_edge22_Node000001_Node000023"><a xlink:title=" ">
<path fill="none" stroke="#63b8ff" d="M954.62,-85.01C1143.21,-82.88 1826.59,-73.06 2041,-41 2053.3,-39.16 2066.49,-36.06 2078.29,-32.87"/>
<polygon fill="#63b8ff" stroke="#63b8ff" points="2079.56,-36.15 2088.23,-30.07 2077.66,-29.41 2079.56,-36.15"/>
</a>
</g>
</g>
<!-- Node24 -->
<g id="Node000024" class="node">
<title>Node24</title>
<g id="a_Node000024"><a xlink:href="../../d7/d40/fixed__string_8inl.html" target="_top" xlink:title="Inline implementations for FixedString template class.">
<polygon fill="white" stroke="#666666" points="2310,-30 2198,-30 2198,-11 2310,-11 2310,-30"/>
<text text-anchor="middle" x="2254" y="-18" font-family="Helvetica,sans-Serif" font-size="10.00">core/fixed_string.inl</text>
</a>
</g>
</g>
<!-- Node1&#45;&gt;Node24 -->
<g id="edge23_Node000001_Node000024" class="edge">
<title>Node1&#45;&gt;Node24</title>
<g id="a_edge23_Node000001_Node000024"><a xlink:title=" ">
<path fill="none" stroke="#63b8ff" d="M954.62,-85.48C1158.44,-85.14 1944.75,-81.18 2189,-41 2199.64,-39.25 2210.97,-36.26 2221.15,-33.14"/>
<polygon fill="#63b8ff" stroke="#63b8ff" points="2222.42,-36.41 2230.87,-30.02 2220.28,-29.74 2222.42,-36.41"/>
</a>
</g>
</g>
<!-- Node25 -->
<g id="Node000025" class="node">
<title>Node25</title>
<g id="a_Node000025"><a xlink:href="../../da/dc9/fixed__vector_8inl.html" target="_top" xlink:title="TODO.">
<polygon fill="white" stroke="#666666" points="2442,-30 2328,-30 2328,-11 2442,-11 2442,-30"/>
<text text-anchor="middle" x="2385" y="-18" font-family="Helvetica,sans-Serif" font-size="10.00">core/fixed_vector.inl</text>
</a>
</g>
</g>
<!-- Node1&#45;&gt;Node25 -->
<g id="edge24_Node000001_Node000025" class="edge">
<title>Node1&#45;&gt;Node25</title>
<g id="a_edge24_Node000001_Node000025"><a xlink:title=" ">
<path fill="none" stroke="#63b8ff" d="M954.72,-85.63C1171.28,-85.97 2047.9,-84.58 2319,-41 2329.91,-39.25 2341.54,-36.22 2351.96,-33.06"/>
<polygon fill="#63b8ff" stroke="#63b8ff" points="2353.04,-36.39 2361.51,-30.03 2350.92,-29.72 2353.04,-36.39"/>
</a>
</g>
</g>
<!-- Node26 -->
<g id="Node000026" class="node">
<title>Node26</title>
<g id="a_Node000026"><a xlink:href="../../df/d7d/utils_8inl.html" target="_top" xlink:title="Inline implementations of core utility functions for string manipulation and encoding conversion.">
<polygon fill="white" stroke="#666666" points="2537.5,-30 2460.5,-30 2460.5,-11 2537.5,-11 2537.5,-30"/>
<text text-anchor="middle" x="2499" y="-18" font-family="Helvetica,sans-Serif" font-size="10.00">core/utils.inl</text>
</a>
</g>
</g>
<!-- Node1&#45;&gt;Node26 -->
<g id="edge25_Node000001_Node000026" class="edge">
<title>Node1&#45;&gt;Node26</title>
<g id="a_edge25_Node000001_Node000026"><a xlink:title=" ">
<path fill="none" stroke="#63b8ff" d="M954.84,-85.13C1201.24,-83.1 2301.9,-72.37 2451,-41 2458.21,-39.48 2465.73,-36.94 2472.61,-34.18"/>
<polygon fill="#63b8ff" stroke="#63b8ff" points="2474.34,-37.25 2482.14,-30.08 2471.57,-30.82 2474.34,-37.25"/>
</a>
</g>
</g>
</g>
</svg>
