<?xml version="1.0" encoding="UTF-8" standalone="no"?>
<!DOCTYPE svg PUBLIC "-//W3C//DTD SVG 1.1//EN"
 "http://www.w3.org/Graphics/SVG/1.1/DTD/svg11.dtd">
<!-- Generated by graphviz version 2.43.0 (0)
 -->
<!-- Title: include/core.hpp Pages: 1 -->
<svg width="5070pt" height="225pt"
 viewBox="0.00 0.00 5069.50 225.00" xmlns="http://www.w3.org/2000/svg" xmlns:xlink="http://www.w3.org/1999/xlink">
<g id="graph0" class="graph" transform="scale(1 1) rotate(0) translate(4 221)">
<title>include/core.hpp</title>
<!-- Node1 -->
<g id="Node000001" class="node">
<title>Node1</title>
<g id="a_Node000001"><a xlink:title="Umbrella header for the engine core module.">
<polygon fill="#999999" stroke="#666666" points="2045.5,-217 1948.5,-217 1948.5,-198 2045.5,-198 2045.5,-217"/>
<text text-anchor="middle" x="1997" y="-205" font-family="Helvetica,sans-Serif" font-size="10.00">include/core.hpp</text>
</a>
</g>
</g>
<!-- Node2 -->
<g id="Node000002" class="node">
<title>Node2</title>
<g id="a_Node000002"><a xlink:title=" ">
<polygon fill="#e0e0e0" stroke="#999999" points="64,-151 0,-151 0,-132 64,-132 64,-151"/>
<text text-anchor="middle" x="32" y="-139" font-family="Helvetica,sans-Serif" font-size="10.00">algorithm</text>
</a>
</g>
</g>
<!-- Node1&#45;&gt;Node2 -->
<g id="edge1_Node000001_Node000002" class="edge">
<title>Node1&#45;&gt;Node2</title>
<g id="a_edge1_Node000001_Node000002"><a xlink:title=" ">
<path fill="none" stroke="#63b8ff" d="M1948.2,-206.59C1667.05,-206.95 260.11,-206.51 73,-162 67.01,-160.57 60.85,-158.2 55.19,-155.59"/>
<polygon fill="#63b8ff" stroke="#63b8ff" points="56.76,-152.46 46.25,-151.11 53.62,-158.72 56.76,-152.46"/>
</a>
</g>
</g>
<!-- Node3 -->
<g id="Node000003" class="node">
<title>Node3</title>
<g id="a_Node000003"><a xlink:title=" ">
<polygon fill="#e0e0e0" stroke="#999999" points="124,-151 82,-151 82,-132 124,-132 124,-151"/>
<text text-anchor="middle" x="103" y="-139" font-family="Helvetica,sans-Serif" font-size="10.00">array</text>
</a>
</g>
</g>
<!-- Node1&#45;&gt;Node3 -->
<g id="edge2_Node000001_Node000003" class="edge">
<title>Node1&#45;&gt;Node3</title>
<g id="a_edge2_Node000001_Node000003"><a xlink:title=" ">
<path fill="none" stroke="#63b8ff" d="M1948.32,-206.09C1663.46,-203.58 222.15,-189.59 133,-162 129.04,-160.77 125.11,-158.86 121.46,-156.71"/>
<polygon fill="#63b8ff" stroke="#63b8ff" points="123.36,-153.77 113.1,-151.09 119.45,-159.58 123.36,-153.77"/>
</a>
</g>
</g>
<!-- Node4 -->
<g id="Node000004" class="node">
<title>Node4</title>
<g id="a_Node000004"><a xlink:title=" ">
<polygon fill="#e0e0e0" stroke="#999999" points="171.5,-151 142.5,-151 142.5,-132 171.5,-132 171.5,-151"/>
<text text-anchor="middle" x="157" y="-139" font-family="Helvetica,sans-Serif" font-size="10.00">bit</text>
</a>
</g>
</g>
<!-- Node1&#45;&gt;Node4 -->
<g id="edge3_Node000001_Node000004" class="edge">
<title>Node1&#45;&gt;Node4</title>
<g id="a_edge3_Node000001_Node000004"><a xlink:title=" ">
<path fill="none" stroke="#63b8ff" d="M1948.12,-206.22C1666.93,-204.5 264.87,-194.32 180,-162 177.43,-161.02 174.95,-159.62 172.63,-158.02"/>
<polygon fill="#63b8ff" stroke="#63b8ff" points="174.51,-155.03 164.61,-151.27 170,-160.39 174.51,-155.03"/>
</a>
</g>
</g>
<!-- Node5 -->
<g id="Node000005" class="node">
<title>Node5</title>
<g id="a_Node000005"><a xlink:title=" ">
<polygon fill="#e0e0e0" stroke="#999999" points="236.5,-151 189.5,-151 189.5,-132 236.5,-132 236.5,-151"/>
<text text-anchor="middle" x="213" y="-139" font-family="Helvetica,sans-Serif" font-size="10.00">cmath</text>
</a>
</g>
</g>
<!-- Node1&#45;&gt;Node5 -->
<g id="edge4_Node000001_Node000005" class="edge">
<title>Node1&#45;&gt;Node5</title>
<g id="a_edge4_Node000001_Node000005"><a xlink:title=" ">
<path fill="none" stroke="#63b8ff" d="M1948.22,-206.76C1682.17,-207.99 412.1,-211.2 245,-162 240.72,-160.74 236.43,-158.75 232.45,-156.52"/>
<polygon fill="#63b8ff" stroke="#63b8ff" points="234.19,-153.48 223.87,-151.09 230.45,-159.39 234.19,-153.48"/>
</a>
</g>
</g>
<!-- Node6 -->
<g id="Node000006" class="node">
<title>Node6</title>
<g id="a_Node000006"><a xlink:title=" ">
<polygon fill="#e0e0e0" stroke="#999999" points="313.5,-151 254.5,-151 254.5,-132 313.5,-132 313.5,-151"/>
<text text-anchor="middle" x="284" y="-139" font-family="Helvetica,sans-Serif" font-size="10.00">compare</text>
</a>
</g>
</g>
<!-- Node1&#45;&gt;Node6 -->
<g id="edge5_Node000001_Node000006" class="edge">
<title>Node1&#45;&gt;Node6</title>
<g id="a_edge5_Node000001_Node000006"><a xlink:title=" ">
<path fill="none" stroke="#63b8ff" d="M1948.35,-206.46C1689.96,-206.11 484.03,-202.28 323,-162 317.4,-160.6 311.68,-158.3 306.4,-155.77"/>
<polygon fill="#63b8ff" stroke="#63b8ff" points="307.99,-152.65 297.51,-151.09 304.73,-158.84 307.99,-152.65"/>
</a>
</g>
</g>
<!-- Node7 -->
<g id="Node000007" class="node">
<title>Node7</title>
<g id="a_Node000007"><a xlink:title=" ">
<polygon fill="#e0e0e0" stroke="#999999" points="392,-151 332,-151 332,-132 392,-132 392,-151"/>
<text text-anchor="middle" x="362" y="-139" font-family="Helvetica,sans-Serif" font-size="10.00">concepts</text>
</a>
</g>
</g>
<!-- Node1&#45;&gt;Node7 -->
<g id="edge6_Node000001_Node000007" class="edge">
<title>Node1&#45;&gt;Node7</title>
<g id="a_edge6_Node000001_Node000007"><a xlink:title=" ">
<path fill="none" stroke="#63b8ff" d="M1948.16,-206.4C1696.72,-205.69 554,-200.38 401,-162 395.4,-160.6 389.68,-158.3 384.4,-155.76"/>
<polygon fill="#63b8ff" stroke="#63b8ff" points="385.99,-152.64 375.51,-151.09 382.73,-158.84 385.99,-152.64"/>
</a>
</g>
</g>
<!-- Node8 -->
<g id="Node000008" class="node">
<title>Node8</title>
<g id="a_Node000008"><a xlink:title=" ">
<polygon fill="#e0e0e0" stroke="#999999" points="463.5,-151 410.5,-151 410.5,-132 463.5,-132 463.5,-151"/>
<text text-anchor="middle" x="437" y="-139" font-family="Helvetica,sans-Serif" font-size="10.00">cstddef</text>
</a>
</g>
</g>
<!-- Node1&#45;&gt;Node8 -->
<g id="edge7_Node000001_Node000008" class="edge">
<title>Node1&#45;&gt;Node8</title>
<g id="a_edge7_Node000001_Node000008"><a xlink:title=" ">
<path fill="none" stroke="#63b8ff" d="M1948.34,-206.42C1704.14,-205.83 618.06,-201.02 473,-162 468.03,-160.66 462.99,-158.52 458.31,-156.14"/>
<polygon fill="#63b8ff" stroke="#63b8ff" points="459.81,-152.96 449.38,-151.08 456.36,-159.05 459.81,-152.96"/>
</a>
</g>
</g>
<!-- Node9 -->
<g id="Node000009" class="node">
<title>Node9</title>
<g id="a_Node000009"><a xlink:title=" ">
<polygon fill="#e0e0e0" stroke="#999999" points="532,-151 482,-151 482,-132 532,-132 532,-151"/>
<text text-anchor="middle" x="507" y="-139" font-family="Helvetica,sans-Serif" font-size="10.00">cstdint</text>
</a>
</g>
</g>
<!-- Node1&#45;&gt;Node9 -->
<g id="edge8_Node000001_Node000009" class="edge">
<title>Node1&#45;&gt;Node9</title>
<g id="a_edge8_Node000001_Node000009"><a xlink:title=" ">
<path fill="none" stroke="#63b8ff" d="M1948.16,-206.41C1710.25,-205.81 678.64,-200.93 541,-162 536.38,-160.69 531.73,-158.63 527.41,-156.32"/>
<polygon fill="#63b8ff" stroke="#63b8ff" points="529.01,-153.2 518.63,-151.08 525.42,-159.21 529.01,-153.2"/>
</a>
</g>
</g>
<!-- Node10 -->
<g id="Node000010" class="node">
<title>Node10</title>
<g id="a_Node000010"><a xlink:title=" ">
<polygon fill="#e0e0e0" stroke="#999999" points="600,-151 550,-151 550,-132 600,-132 600,-151"/>
<text text-anchor="middle" x="575" y="-139" font-family="Helvetica,sans-Serif" font-size="10.00">cstring</text>
</a>
</g>
</g>
<!-- Node1&#45;&gt;Node10 -->
<g id="edge9_Node000001_Node000010" class="edge">
<title>Node1&#45;&gt;Node10</title>
<g id="a_edge9_Node000001_Node000010"><a xlink:title=" ">
<path fill="none" stroke="#63b8ff" d="M1948.16,-206.33C1717.13,-205.37 739.76,-199.09 609,-162 604.38,-160.69 599.73,-158.62 595.41,-156.31"/>
<polygon fill="#63b8ff" stroke="#63b8ff" points="597.01,-153.19 586.63,-151.07 593.42,-159.2 597.01,-153.19"/>
</a>
</g>
</g>
<!-- Node11 -->
<g id="Node000011" class="node">
<title>Node11</title>
<g id="a_Node000011"><a xlink:title=" ">
<polygon fill="#e0e0e0" stroke="#999999" points="667.5,-151 618.5,-151 618.5,-132 667.5,-132 667.5,-151"/>
<text text-anchor="middle" x="643" y="-139" font-family="Helvetica,sans-Serif" font-size="10.00">cuchar</text>
</a>
</g>
</g>
<!-- Node1&#45;&gt;Node11 -->
<g id="edge10_Node000001_Node000011" class="edge">
<title>Node1&#45;&gt;Node11</title>
<g id="a_edge10_Node000001_Node000011"><a xlink:title=" ">
<path fill="none" stroke="#63b8ff" d="M1948.29,-206.29C1724.39,-205.11 799.78,-198.09 676,-162 671.62,-160.72 667.21,-158.73 663.11,-156.49"/>
<polygon fill="#63b8ff" stroke="#63b8ff" points="664.61,-153.31 654.25,-151.07 660.95,-159.28 664.61,-153.31"/>
</a>
</g>
</g>
<!-- Node12 -->
<g id="Node000012" class="node">
<title>Node12</title>
<g id="a_Node000012"><a xlink:title=" ">
<polygon fill="#e0e0e0" stroke="#999999" points="768.5,-151 685.5,-151 685.5,-132 768.5,-132 768.5,-151"/>
<text text-anchor="middle" x="727" y="-139" font-family="Helvetica,sans-Serif" font-size="10.00">initializer_list</text>
</a>
</g>
</g>
<!-- Node1&#45;&gt;Node12 -->
<g id="edge11_Node000001_Node000012" class="edge">
<title>Node1&#45;&gt;Node12</title>
<g id="a_edge11_Node000001_Node000012"><a xlink:title=" ">
<path fill="none" stroke="#63b8ff" d="M1948.36,-206.89C1750.6,-208.14 1006.6,-209.54 777,-162 769.35,-160.42 761.34,-157.78 754.04,-154.94"/>
<polygon fill="#63b8ff" stroke="#63b8ff" points="755.19,-151.63 744.61,-151.04 752.51,-158.1 755.19,-151.63"/>
</a>
</g>
</g>
<!-- Node13 -->
<g id="Node000013" class="node">
<title>Node13</title>
<g id="a_Node000013"><a xlink:title=" ">
<polygon fill="#e0e0e0" stroke="#999999" points="839.5,-151 786.5,-151 786.5,-132 839.5,-132 839.5,-151"/>
<text text-anchor="middle" x="813" y="-139" font-family="Helvetica,sans-Serif" font-size="10.00">iterator</text>
</a>
</g>
</g>
<!-- Node1&#45;&gt;Node13 -->
<g id="edge12_Node000001_Node000013" class="edge">
<title>Node1&#45;&gt;Node13</title>
<g id="a_edge12_Node000001_Node000013"><a xlink:title=" ">
<path fill="none" stroke="#63b8ff" d="M1948.32,-205.92C1743.32,-203.28 955.94,-191.32 849,-162 844.03,-160.64 839,-158.49 834.32,-156.1"/>
<polygon fill="#63b8ff" stroke="#63b8ff" points="835.82,-152.92 825.39,-151.05 832.37,-159.02 835.82,-152.92"/>
</a>
</g>
</g>
<!-- Node14 -->
<g id="Node000014" class="node">
<title>Node14</title>
<g id="a_Node000014"><a xlink:title=" ">
<polygon fill="#e0e0e0" stroke="#999999" points="902,-151 858,-151 858,-132 902,-132 902,-151"/>
<text text-anchor="middle" x="880" y="-139" font-family="Helvetica,sans-Serif" font-size="10.00">limits</text>
</a>
</g>
</g>
<!-- Node1&#45;&gt;Node14 -->
<g id="edge13_Node000001_Node000014" class="edge">
<title>Node1&#45;&gt;Node14</title>
<g id="a_edge13_Node000001_Node000014"><a xlink:title=" ">
<path fill="none" stroke="#63b8ff" d="M1948.25,-205.98C1750.07,-203.66 1010.73,-192.98 911,-162 906.95,-160.74 902.9,-158.81 899.14,-156.65"/>
<polygon fill="#63b8ff" stroke="#63b8ff" points="900.79,-153.56 890.5,-151.04 896.98,-159.43 900.79,-153.56"/>
</a>
</g>
</g>
<!-- Node15 -->
<g id="Node000015" class="node">
<title>Node15</title>
<g id="a_Node000015"><a xlink:title=" ">
<polygon fill="#e0e0e0" stroke="#999999" points="978,-151 920,-151 920,-132 978,-132 978,-151"/>
<text text-anchor="middle" x="949" y="-139" font-family="Helvetica,sans-Serif" font-size="10.00">memory</text>
</a>
</g>
</g>
<!-- Node1&#45;&gt;Node15 -->
<g id="edge14_Node000001_Node000015" class="edge">
<title>Node1&#45;&gt;Node15</title>
<g id="a_edge14_Node000001_Node000015"><a xlink:title=" ">
<path fill="none" stroke="#63b8ff" d="M1948.23,-205.57C1759.15,-201.82 1080.31,-186.73 987,-162 981.67,-160.59 976.23,-158.35 971.2,-155.89"/>
<polygon fill="#63b8ff" stroke="#63b8ff" points="972.61,-152.68 962.15,-151.03 969.3,-158.84 972.61,-152.68"/>
</a>
</g>
</g>
<!-- Node16 -->
<g id="Node000016" class="node">
<title>Node16</title>
<g id="a_Node000016"><a xlink:title=" ">
<polygon fill="#e0e0e0" stroke="#999999" points="1061.5,-151 996.5,-151 996.5,-132 1061.5,-132 1061.5,-151"/>
<text text-anchor="middle" x="1029" y="-139" font-family="Helvetica,sans-Serif" font-size="10.00">stdexcept</text>
</a>
</g>
</g>
<!-- Node1&#45;&gt;Node16 -->
<g id="edge15_Node000001_Node000016" class="edge">
<title>Node1&#45;&gt;Node16</title>
<g id="a_edge15_Node000001_Node000016"><a xlink:title=" ">
<path fill="none" stroke="#63b8ff" d="M1948.32,-206.62C1782.35,-206.66 1239.69,-203.52 1071,-162 1064.9,-160.5 1058.61,-158.1 1052.81,-155.48"/>
<polygon fill="#63b8ff" stroke="#63b8ff" points="1054.17,-152.25 1043.65,-151.01 1051.1,-158.54 1054.17,-152.25"/>
</a>
</g>
</g>
<!-- Node17 -->
<g id="Node000017" class="node">
<title>Node17</title>
<g id="a_Node000017"><a xlink:title=" ">
<polygon fill="#e0e0e0" stroke="#999999" points="1124,-151 1080,-151 1080,-132 1124,-132 1124,-151"/>
<text text-anchor="middle" x="1102" y="-139" font-family="Helvetica,sans-Serif" font-size="10.00">string</text>
</a>
</g>
</g>
<!-- Node1&#45;&gt;Node17 -->
<g id="edge16_Node000001_Node000017" class="edge">
<title>Node1&#45;&gt;Node17</title>
<g id="a_edge16_Node000001_Node000017"><a xlink:title=" ">
<path fill="none" stroke="#63b8ff" d="M1948.36,-205.43C1777.47,-201.46 1210.69,-186.58 1133,-162 1128.96,-160.72 1124.91,-158.78 1121.15,-156.62"/>
<polygon fill="#63b8ff" stroke="#63b8ff" points="1122.8,-153.52 1112.51,-151.01 1118.99,-159.39 1122.8,-153.52"/>
</a>
</g>
</g>
<!-- Node18 -->
<g id="Node000018" class="node">
<title>Node18</title>
<g id="a_Node000018"><a xlink:title=" ">
<polygon fill="#e0e0e0" stroke="#999999" points="1211.5,-151 1142.5,-151 1142.5,-132 1211.5,-132 1211.5,-151"/>
<text text-anchor="middle" x="1177" y="-139" font-family="Helvetica,sans-Serif" font-size="10.00">type_traits</text>
</a>
</g>
</g>
<!-- Node1&#45;&gt;Node18 -->
<g id="edge17_Node000001_Node000018" class="edge">
<title>Node1&#45;&gt;Node18</title>
<g id="a_edge17_Node000001_Node000018"><a xlink:title=" ">
<path fill="none" stroke="#63b8ff" d="M1948.35,-206.04C1800.66,-204.29 1359.07,-196.25 1220,-162 1213.88,-160.49 1207.56,-158.13 1201.71,-155.57"/>
<polygon fill="#63b8ff" stroke="#63b8ff" points="1202.96,-152.29 1192.43,-151.17 1199.97,-158.61 1202.96,-152.29"/>
</a>
</g>
</g>
<!-- Node19 -->
<g id="Node000019" class="node">
<title>Node19</title>
<g id="a_Node000019"><a xlink:title=" ">
<polygon fill="#e0e0e0" stroke="#999999" points="1274.5,-151 1229.5,-151 1229.5,-132 1274.5,-132 1274.5,-151"/>
<text text-anchor="middle" x="1252" y="-139" font-family="Helvetica,sans-Serif" font-size="10.00">utility</text>
</a>
</g>
</g>
<!-- Node1&#45;&gt;Node19 -->
<g id="edge18_Node000001_Node000019" class="edge">
<title>Node1&#45;&gt;Node19</title>
<g id="a_edge18_Node000001_Node000019"><a xlink:title=" ">
<path fill="none" stroke="#63b8ff" d="M1948.2,-206.09C1809.22,-204.5 1413.35,-196.94 1289,-162 1284.02,-160.6 1278.94,-158.47 1274.21,-156.12"/>
<polygon fill="#63b8ff" stroke="#63b8ff" points="1275.58,-152.88 1265.13,-151.17 1272.23,-159.03 1275.58,-152.88"/>
</a>
</g>
</g>
<!-- Node20 -->
<g id="Node000020" class="node">
<title>Node20</title>
<g id="a_Node000020"><a xlink:href="../../dd/d9e/linux_2platform__config_8hpp.html" target="_top" xlink:title="Compile&#45;time platform and CPU bindings for Linux.">
<polygon fill="white" stroke="#666666" points="1486.5,-162 1331.5,-162 1331.5,-121 1486.5,-121 1486.5,-162"/>
<text text-anchor="start" x="1339.5" y="-150" font-family="Helvetica,sans-Serif" font-size="10.00">/home/runner/work/toygine2</text>
<text text-anchor="start" x="1339.5" y="-139" font-family="Helvetica,sans-Serif" font-size="10.00">/toygine2/src/platforms</text>
<text text-anchor="middle" x="1409" y="-128" font-family="Helvetica,sans-Serif" font-size="10.00">/linux/platform_config.hpp</text>
</a>
</g>
</g>
<!-- Node1&#45;&gt;Node20 -->
<g id="edge19_Node000001_Node000020" class="edge">
<title>Node1&#45;&gt;Node20</title>
<g id="a_edge19_Node000001_Node000020"><a xlink:title=" ">
<path fill="none" stroke="#63b8ff" d="M1948.27,-204.36C1859.99,-200.01 1667.6,-188.37 1496.66,-162.16"/>
<polygon fill="#63b8ff" stroke="#63b8ff" points="1497.14,-158.69 1486.73,-160.62 1496.07,-165.61 1497.14,-158.69"/>
</a>
</g>
</g>
<!-- Node21 -->
<g id="Node000021" class="node">
<title>Node21</title>
<g id="a_Node000021"><a xlink:href="../../d3/d60/platform_8hpp.html" target="_top" xlink:title="Platform and CPU architecture enums with compile&#45;time and runtime detection.">
<polygon fill="white" stroke="#666666" points="1354.5,-85 1251.5,-85 1251.5,-55 1354.5,-55 1354.5,-85"/>
<text text-anchor="start" x="1259.5" y="-73" font-family="Helvetica,sans-Serif" font-size="10.00">../../../include/core</text>
<text text-anchor="middle" x="1303" y="-62" font-family="Helvetica,sans-Serif" font-size="10.00">/platform.hpp</text>
</a>
</g>
</g>
<!-- Node1&#45;&gt;Node21 -->
<g id="edge43_Node000001_Node000021" class="edge">
<title>Node1&#45;&gt;Node21</title>
<g id="a_edge43_Node000001_Node000021"><a xlink:title=" ">
<path fill="none" stroke="#63b8ff" d="M1948.46,-206.63C1801.57,-206.56 1369.01,-202.85 1322,-162 1303.33,-145.77 1300.2,-116.35 1300.7,-95.36"/>
<polygon fill="#63b8ff" stroke="#63b8ff" points="1304.2,-95.43 1301.23,-85.26 1297.21,-95.06 1304.2,-95.43"/>
</a>
</g>
</g>
<!-- Node23 -->
<g id="Node000023" class="node">
<title>Node23</title>
<g id="a_Node000023"><a xlink:href="../../d5/d96/assertion_8hpp.html" target="_top" xlink:title="Assertion system: callbacks, initialize/shutdown, and assertion() entry point.">
<polygon fill="white" stroke="#666666" points="1611.5,-151 1504.5,-151 1504.5,-132 1611.5,-132 1611.5,-151"/>
<text text-anchor="middle" x="1558" y="-139" font-family="Helvetica,sans-Serif" font-size="10.00">core/assertion.hpp</text>
</a>
</g>
</g>
<!-- Node1&#45;&gt;Node23 -->
<g id="edge22_Node000001_Node000023" class="edge">
<title>Node1&#45;&gt;Node23</title>
<g id="a_edge22_Node000001_Node000023"><a xlink:title=" ">
<path fill="none" stroke="#63b8ff" d="M1948.46,-203.59C1876.38,-198.64 1737.07,-186.62 1621,-162 1611.38,-159.96 1601.12,-157.09 1591.73,-154.18"/>
<polygon fill="#63b8ff" stroke="#63b8ff" points="1592.55,-150.77 1581.96,-151.05 1590.41,-157.43 1592.55,-150.77"/>
</a>
</g>
</g>
<!-- Node24 -->
<g id="Node000024" class="node">
<title>Node24</title>
<g id="a_Node000024"><a xlink:href="../../df/d61/bitwise__enum_8hpp.html" target="_top" xlink:title="Opt&#45;in bitwise operators for scoped enumerations used as flag sets.">
<polygon fill="white" stroke="#666666" points="1760,-151 1630,-151 1630,-132 1760,-132 1760,-151"/>
<text text-anchor="middle" x="1695" y="-139" font-family="Helvetica,sans-Serif" font-size="10.00">core/bitwise_enum.hpp</text>
</a>
</g>
</g>
<!-- Node1&#45;&gt;Node24 -->
<g id="edge23_Node000001_Node000024" class="edge">
<title>Node1&#45;&gt;Node24</title>
<g id="a_edge23_Node000001_Node000024"><a xlink:title=" ">
<path fill="none" stroke="#63b8ff" d="M1951.17,-197.98C1906,-189.44 1835.07,-175.62 1774,-162 1762.38,-159.41 1749.84,-156.41 1738.25,-153.55"/>
<polygon fill="#63b8ff" stroke="#63b8ff" points="1738.91,-150.11 1728.36,-151.09 1737.22,-156.9 1738.91,-150.11"/>
</a>
</g>
</g>
<!-- Node25 -->
<g id="Node000025" class="node">
<title>Node25</title>
<g id="a_Node000025"><a xlink:href="../../dd/ded/c__string__view_8hpp.html" target="_top" xlink:title="Non&#45;owning view over null&#45;terminated C strings.">
<polygon fill="white" stroke="#666666" points="1798,-79.5 1670,-79.5 1670,-60.5 1798,-60.5 1798,-79.5"/>
<text text-anchor="middle" x="1734" y="-67.5" font-family="Helvetica,sans-Serif" font-size="10.00">core/c_string_view.hpp</text>
</a>
</g>
</g>
<!-- Node1&#45;&gt;Node25 -->
<g id="edge24_Node000001_Node000025" class="edge">
<title>Node1&#45;&gt;Node25</title>
<g id="a_edge24_Node000001_Node000025"><a xlink:title=" ">
<path fill="none" stroke="#63b8ff" d="M1948.27,-203.05C1909.02,-198.4 1853.7,-187.52 1812,-162 1796.03,-152.23 1763.95,-111.21 1746.32,-87.71"/>
<polygon fill="#63b8ff" stroke="#63b8ff" points="1749.11,-85.6 1740.33,-79.67 1743.49,-89.78 1749.11,-85.6"/>
</a>
</g>
</g>
<!-- Node26 -->
<g id="Node000026" class="node">
<title>Node26</title>
<g id="a_Node000026"><a xlink:href="../../de/deb/string__like_8hpp.html" target="_top" xlink:title="Concept for read&#45;only C&#45;string views with explicit length.">
<polygon fill="white" stroke="#666666" points="2214,-19 2126,-19 2126,0 2214,0 2214,-19"/>
<text text-anchor="middle" x="2170" y="-7" font-family="Helvetica,sans-Serif" font-size="10.00">string_like.hpp</text>
</a>
</g>
</g>
<!-- Node1&#45;&gt;Node26 -->
<g id="edge45_Node000001_Node000026" class="edge">
<title>Node1&#45;&gt;Node26</title>
<g id="a_edge45_Node000001_Node000026"><a xlink:title=" ">
<path fill="none" stroke="#63b8ff" d="M1948.33,-198.71C1908.77,-191.28 1857.53,-178.72 1845,-162 1834.07,-147.42 1834.39,-135.81 1845,-121 1906.89,-34.58 2040.3,-14.94 2115.53,-10.98"/>
<polygon fill="#63b8ff" stroke="#63b8ff" points="2115.92,-14.47 2125.75,-10.52 2115.6,-7.47 2115.92,-14.47"/>
</a>
</g>
</g>
<!-- Node27 -->
<g id="Node000027" class="node">
<title>Node27</title>
<g id="a_Node000027"><a xlink:href="../../d1/d5c/callbacks__pool_8hpp.html" target="_top" xlink:title="Fixed&#45;capacity pool of function&#45;pointer callbacks.">
<polygon fill="white" stroke="#666666" points="1988,-151 1854,-151 1854,-132 1988,-132 1988,-151"/>
<text text-anchor="middle" x="1921" y="-139" font-family="Helvetica,sans-Serif" font-size="10.00">core/callbacks_pool.hpp</text>
</a>
</g>
</g>
<!-- Node1&#45;&gt;Node27 -->
<g id="edge26_Node000001_Node000027" class="edge">
<title>Node1&#45;&gt;Node27</title>
<g id="a_edge26_Node000001_Node000027"><a xlink:title=" ">
<path fill="none" stroke="#63b8ff" d="M1986.75,-197.87C1974.69,-187.71 1954.44,-170.66 1939.59,-158.15"/>
<polygon fill="#63b8ff" stroke="#63b8ff" points="1941.48,-155.17 1931.57,-151.41 1936.97,-160.52 1941.48,-155.17"/>
</a>
</g>
</g>
<!-- Node28 -->
<g id="Node000028" class="node">
<title>Node28</title>
<g id="a_Node000028"><a xlink:href="../../d4/dc0/constexpr__utils_8hpp.html" target="_top" xlink:title="Constexpr helpers for compile&#45;time string and buffer operations.">
<polygon fill="white" stroke="#666666" points="2142,-151 2006,-151 2006,-132 2142,-132 2142,-151"/>
<text text-anchor="middle" x="2074" y="-139" font-family="Helvetica,sans-Serif" font-size="10.00">core/constexpr_utils.hpp</text>
</a>
</g>
</g>
<!-- Node1&#45;&gt;Node28 -->
<g id="edge27_Node000001_Node000028" class="edge">
<title>Node1&#45;&gt;Node28</title>
<g id="a_edge27_Node000001_Node000028"><a xlink:title=" ">
<path fill="none" stroke="#63b8ff" d="M2007.38,-197.87C2019.72,-187.62 2040.51,-170.34 2055.59,-157.81"/>
<polygon fill="#63b8ff" stroke="#63b8ff" points="2057.83,-160.49 2063.29,-151.41 2053.36,-155.11 2057.83,-160.49"/>
</a>
</g>
</g>
<!-- Node29 -->
<g id="Node000029" class="node">
<title>Node29</title>
<g id="a_Node000029"><a xlink:href="../../d7/d7f/fixed__string_8hpp.html" target="_top" xlink:title="Fixed&#45;capacity string with stack storage.">
<polygon fill="white" stroke="#666666" points="2229,-79.5 2111,-79.5 2111,-60.5 2229,-60.5 2229,-79.5"/>
<text text-anchor="middle" x="2170" y="-67.5" font-family="Helvetica,sans-Serif" font-size="10.00">core/fixed_string.hpp</text>
</a>
</g>
</g>
<!-- Node1&#45;&gt;Node29 -->
<g id="edge28_Node000001_Node000029" class="edge">
<title>Node1&#45;&gt;Node29</title>
<g id="a_edge28_Node000001_Node000029"><a xlink:title=" ">
<path fill="none" stroke="#63b8ff" d="M2045.79,-205.09C2080,-201.43 2124.22,-190.88 2151,-162 2169.16,-142.42 2171.78,-110.14 2171.36,-89.75"/>
<polygon fill="#63b8ff" stroke="#63b8ff" points="2174.85,-89.38 2170.88,-79.56 2167.86,-89.71 2174.85,-89.38"/>
</a>
</g>
</g>
<!-- Node30 -->
<g id="Node000030" class="node">
<title>Node30</title>
<g id="a_Node000030"><a xlink:href="../../d7/dea/fixed__vector_8hpp.html" target="_top" xlink:title="Fixed&#45;capacity vector with inline storage.">
<polygon fill="white" stroke="#666666" points="2318,-151 2198,-151 2198,-132 2318,-132 2318,-151"/>
<text text-anchor="middle" x="2258" y="-139" font-family="Helvetica,sans-Serif" font-size="10.00">core/fixed_vector.hpp</text>
</a>
</g>
</g>
<!-- Node1&#45;&gt;Node30 -->
<g id="edge30_Node000001_Node000030" class="edge">
<title>Node1&#45;&gt;Node30</title>
<g id="a_edge30_Node000001_Node000030"><a xlink:title=" ">
<path fill="none" stroke="#63b8ff" d="M2033.96,-197.98C2071.73,-189.21 2132.05,-175.02 2184,-162 2194.55,-159.36 2205.91,-156.41 2216.5,-153.62"/>
<polygon fill="#63b8ff" stroke="#63b8ff" points="2217.58,-156.96 2226.35,-151.02 2215.79,-150.19 2217.58,-156.96"/>
</a>
</g>
</g>
<!-- Node31 -->
<g id="Node000031" class="node">
<title>Node31</title>
<g id="a_Node000031"><a xlink:href="../../d4/d0a/format_8hpp.html" target="_top" xlink:title="Format functions for substituting arguments into {} and {N} placeholders.">
<polygon fill="white" stroke="#666666" points="2469.5,-151 2374.5,-151 2374.5,-132 2469.5,-132 2469.5,-151"/>
<text text-anchor="middle" x="2422" y="-139" font-family="Helvetica,sans-Serif" font-size="10.00">core/format.hpp</text>
</a>
</g>
</g>
<!-- Node1&#45;&gt;Node31 -->
<g id="edge31_Node000001_Node000031" class="edge">
<title>Node1&#45;&gt;Node31</title>
<g id="a_edge31_Node000001_Node000031"><a xlink:title=" ">
<path fill="none" stroke="#63b8ff" d="M2045.62,-203.38C2115.71,-198.23 2248.93,-186.06 2360,-162 2369.48,-159.95 2379.57,-157.08 2388.81,-154.17"/>
<polygon fill="#63b8ff" stroke="#63b8ff" points="2390,-157.46 2398.43,-151.03 2387.83,-150.8 2390,-157.46"/>
</a>
</g>
</g>
<!-- Node32 -->
<g id="Node000032" class="node">
<title>Node32</title>
<g id="a_Node000032"><a xlink:href="../../d9/d6a/format__string_8hpp.html" target="_top" xlink:title="Compile&#45;time validated format&#45;string wrapper for auto {} and positional {N} placeholders.">
<polygon fill="white" stroke="#666666" points="2371,-79.5 2267,-79.5 2267,-60.5 2371,-60.5 2371,-79.5"/>
<text text-anchor="middle" x="2319" y="-67.5" font-family="Helvetica,sans-Serif" font-size="10.00">format_string.hpp</text>
</a>
</g>
</g>
<!-- Node1&#45;&gt;Node32 -->
<g id="edge40_Node000001_Node000032" class="edge">
<title>Node1&#45;&gt;Node32</title>
<g id="a_edge40_Node000001_Node000032"><a xlink:title=" ">
<path fill="none" stroke="#63b8ff" d="M2045.59,-207.4C2128.31,-207.78 2291.04,-203.13 2327,-162 2344.51,-141.97 2335.64,-109.11 2327.44,-88.84"/>
<polygon fill="#63b8ff" stroke="#63b8ff" points="2330.57,-87.28 2323.36,-79.52 2324.16,-90.09 2330.57,-87.28"/>
</a>
</g>
</g>
<!-- Node33 -->
<g id="Node000033" class="node">
<title>Node33</title>
<g id="a_Node000033"><a xlink:href="../../de/d2d/o__string__stream_8hpp.html" target="_top" xlink:title="Allocator&#45;free output string stream that appends into string&#45;like storage.">
<polygon fill="white" stroke="#666666" points="2505,-79.5 2389,-79.5 2389,-60.5 2505,-60.5 2505,-79.5"/>
<text text-anchor="middle" x="2447" y="-67.5" font-family="Helvetica,sans-Serif" font-size="10.00">o_string_stream.hpp</text>
</a>
</g>
</g>
<!-- Node1&#45;&gt;Node33 -->
<g id="edge42_Node000001_Node000033" class="edge">
<title>Node1&#45;&gt;Node33</title>
<g id="a_edge42_Node000001_Node000033"><a xlink:title=" ">
<path fill="none" stroke="#63b8ff" d="M2045.76,-205.63C2162.27,-203.05 2449.25,-193.53 2478,-162 2497.2,-140.94 2477,-107.5 2461.42,-87.55"/>
<polygon fill="#63b8ff" stroke="#63b8ff" points="2463.99,-85.18 2454.94,-79.67 2458.58,-89.62 2463.99,-85.18"/>
</a>
</g>
</g>
<!-- Node34 -->
<g id="Node000034" class="node">
<title>Node34</title>
<g id="a_Node000034"><a xlink:href="../../d5/d0e/format__argument_8hpp.html" target="_top" xlink:title="Type&#45;erased format argument for the runtime formatting path.">
<polygon fill="white" stroke="#666666" points="2673.5,-151 2526.5,-151 2526.5,-132 2673.5,-132 2673.5,-151"/>
<text text-anchor="middle" x="2600" y="-139" font-family="Helvetica,sans-Serif" font-size="10.00">core/format_argument.hpp</text>
</a>
</g>
</g>
<!-- Node1&#45;&gt;Node34 -->
<g id="edge36_Node000001_Node000034" class="edge">
<title>Node1&#45;&gt;Node34</title>
<g id="a_edge36_Node000001_Node000034"><a xlink:title=" ">
<path fill="none" stroke="#63b8ff" d="M2045.53,-204.44C2137.15,-200.09 2341.68,-188.11 2512,-162 2526.56,-159.77 2542.32,-156.54 2556.41,-153.35"/>
<polygon fill="#63b8ff" stroke="#63b8ff" points="2557.4,-156.72 2566.35,-151.05 2555.82,-149.9 2557.4,-156.72"/>
</a>
</g>
</g>
<!-- Node35 -->
<g id="Node000035" class="node">
<title>Node35</title>
<g id="a_Node000035"><a xlink:href="../../d8/d0d/format__context_8hpp.html" target="_top" xlink:title="Type&#45;erased write sink for the runtime formatting path.">
<polygon fill="white" stroke="#666666" points="2707.5,-79.5 2594.5,-79.5 2594.5,-60.5 2707.5,-60.5 2707.5,-79.5"/>
<text text-anchor="middle" x="2651" y="-67.5" font-family="Helvetica,sans-Serif" font-size="10.00">format_context.hpp</text>
</a>
</g>
</g>
<!-- Node1&#45;&gt;Node35 -->
<g id="edge38_Node000001_Node000035" class="edge">
<title>Node1&#45;&gt;Node35</title>
<g id="a_edge38_Node000001_Node000035"><a xlink:title=" ">
<path fill="none" stroke="#63b8ff" d="M2045.67,-207.09C2195.07,-208.38 2639.62,-208.29 2683,-162 2702.55,-141.14 2681.79,-107.63 2665.79,-87.62"/>
<polygon fill="#63b8ff" stroke="#63b8ff" points="2668.26,-85.11 2659.15,-79.71 2662.9,-89.62 2668.26,-85.11"/>
</a>
</g>
</g>
<!-- Node36 -->
<g id="Node000036" class="node">
<title>Node36</title>
<g id="a_Node000036"><a xlink:href="../../d7/d5b/format__pattern_8hpp.html" target="_top" xlink:title="Shared compile&#45;time validation for format patterns using {} and {N} placeholders.">
<polygon fill="white" stroke="#666666" points="2865.5,-151 2730.5,-151 2730.5,-132 2865.5,-132 2865.5,-151"/>
<text text-anchor="middle" x="2798" y="-139" font-family="Helvetica,sans-Serif" font-size="10.00">core/format_pattern.hpp</text>
</a>
</g>
</g>
<!-- Node1&#45;&gt;Node36 -->
<g id="edge39_Node000001_Node000036" class="edge">
<title>Node1&#45;&gt;Node36</title>
<g id="a_edge39_Node000001_Node000036"><a xlink:title=" ">
<path fill="none" stroke="#63b8ff" d="M2045.69,-206.36C2162.17,-205.4 2465.81,-199.21 2716,-162 2729.73,-159.96 2744.53,-156.75 2757.74,-153.53"/>
<polygon fill="#63b8ff" stroke="#63b8ff" points="2758.64,-156.91 2767.48,-151.08 2756.93,-150.12 2758.64,-156.91"/>
</a>
</g>
</g>
<!-- Node37 -->
<g id="Node000037" class="node">
<title>Node37</title>
<g id="a_Node000037"><a xlink:href="../../dd/d8e/hashes_8hpp.html" target="_top" xlink:title="Table&#45;driven CRC&#45;8, CRC&#45;16, and CRC&#45;32 over byte buffers.">
<polygon fill="white" stroke="#666666" points="2980,-151 2884,-151 2884,-132 2980,-132 2980,-151"/>
<text text-anchor="middle" x="2932" y="-139" font-family="Helvetica,sans-Serif" font-size="10.00">core/hashes.hpp</text>
</a>
</g>
</g>
<!-- Node1&#45;&gt;Node37 -->
<g id="edge41_Node000001_Node000037" class="edge">
<title>Node1&#45;&gt;Node37</title>
<g id="a_edge41_Node000001_Node000037"><a xlink:title=" ">
<path fill="none" stroke="#63b8ff" d="M2045.51,-205.82C2205.29,-203.3 2714.07,-192.97 2875,-162 2883.93,-160.28 2893.37,-157.48 2901.95,-154.53"/>
<polygon fill="#63b8ff" stroke="#63b8ff" points="2903.32,-157.75 2911.53,-151.05 2900.94,-151.17 2903.32,-157.75"/>
</a>
</g>
</g>
<!-- Node38 -->
<g id="Node000038" class="node">
<title>Node38</title>
<g id="a_Node000038"><a xlink:href="../../d2/dd2/string__fixed__storage_8hpp.html" target="_top" xlink:title="Fixed&#45;size raw character buffer with explicit length for string&#45;like containers.">
<polygon fill="white" stroke="#666666" points="3158,-151 2998,-151 2998,-132 3158,-132 3158,-151"/>
<text text-anchor="middle" x="3078" y="-139" font-family="Helvetica,sans-Serif" font-size="10.00">core/string_fixed_storage.hpp</text>
</a>
</g>
</g>
<!-- Node1&#45;&gt;Node38 -->
<g id="edge44_Node000001_Node000038" class="edge">
<title>Node1&#45;&gt;Node38</title>
<g id="a_edge44_Node000001_Node000038"><a xlink:title=" ">
<path fill="none" stroke="#63b8ff" d="M2045.54,-205.42C2218.37,-201.41 2803.32,-186.32 2989,-162 3004.29,-160 3020.85,-156.69 3035.48,-153.37"/>
<polygon fill="#63b8ff" stroke="#63b8ff" points="3036.33,-156.76 3045.27,-151.08 3034.73,-149.95 3036.33,-156.76"/>
</a>
</g>
</g>
<!-- Node39 -->
<g id="Node000039" class="node">
<title>Node39</title>
<g id="a_Node000039"><a xlink:href="../../d8/d43/core_2utils_8hpp.html" target="_top" xlink:title="Core utilities: encoding conversion, string metrics, and number formatting.">
<polygon fill="white" stroke="#666666" points="3259.5,-151 3176.5,-151 3176.5,-132 3259.5,-132 3259.5,-151"/>
<text text-anchor="middle" x="3218" y="-139" font-family="Helvetica,sans-Serif" font-size="10.00">core/utils.hpp</text>
</a>
</g>
</g>
<!-- Node1&#45;&gt;Node39 -->
<g id="edge46_Node000001_Node000039" class="edge">
<title>Node1&#45;&gt;Node39</title>
<g id="a_edge46_Node000001_Node000039"><a xlink:title=" ">
<path fill="none" stroke="#63b8ff" d="M2045.59,-206.76C2238.1,-207.46 2947.43,-206.88 3167,-162 3174.88,-160.39 3183.14,-157.71 3190.65,-154.84"/>
<polygon fill="#63b8ff" stroke="#63b8ff" points="3192.07,-158.04 3200.02,-151.03 3189.44,-151.55 3192.07,-158.04"/>
</a>
</g>
</g>
<!-- Node40 -->
<g id="Node000040" class="node">
<title>Node40</title>
<g id="a_Node000040"><a xlink:href="../../dd/d61/bitwise__enum_8inl.html" target="_top" xlink:title="Inline implementations for toy::EnableBitwiseOperators and scoped&#45;enum bitwise operators.">
<polygon fill="white" stroke="#666666" points="3402,-151 3278,-151 3278,-132 3402,-132 3402,-151"/>
<text text-anchor="middle" x="3340" y="-139" font-family="Helvetica,sans-Serif" font-size="10.00">core/bitwise_enum.inl</text>
</a>
</g>
</g>
<!-- Node1&#45;&gt;Node40 -->
<g id="edge47_Node000001_Node000040" class="edge">
<title>Node1&#45;&gt;Node40</title>
<g id="a_edge47_Node000001_Node000040"><a xlink:title=" ">
<path fill="none" stroke="#63b8ff" d="M2045.52,-206.31C2248.03,-205.3 3026.53,-199.02 3269,-162 3280.8,-160.2 3293.45,-157.11 3304.74,-153.93"/>
<polygon fill="#63b8ff" stroke="#63b8ff" points="3306.07,-157.18 3314.68,-151 3304.1,-150.47 3306.07,-157.18"/>
</a>
</g>
</g>
<!-- Node41 -->
<g id="Node000041" class="node">
<title>Node41</title>
<g id="a_Node000041"><a xlink:href="../../df/d4a/c__string__view_8inl.html" target="_top" xlink:title="Inline implementations for toy::CStringView.">
<polygon fill="white" stroke="#666666" points="3542,-151 3420,-151 3420,-132 3542,-132 3542,-151"/>
<text text-anchor="middle" x="3481" y="-139" font-family="Helvetica,sans-Serif" font-size="10.00">core/c_string_view.inl</text>
</a>
</g>
</g>
<!-- Node1&#45;&gt;Node41 -->
<g id="edge48_Node000001_Node000041" class="edge">
<title>Node1&#45;&gt;Node41</title>
<g id="a_edge48_Node000001_Node000041"><a xlink:title=" ">
<path fill="none" stroke="#63b8ff" d="M2045.73,-206.53C2262.39,-206.45 3139.38,-203.49 3411,-162 3422.65,-160.22 3435.12,-157.14 3446.25,-153.95"/>
<polygon fill="#63b8ff" stroke="#63b8ff" points="3447.47,-157.24 3456.05,-151.02 3445.46,-150.54 3447.47,-157.24"/>
</a>
</g>
</g>
<!-- Node42 -->
<g id="Node000042" class="node">
<title>Node42</title>
<g id="a_Node000042"><a xlink:href="../../d6/ddb/callbacks__pool_8inl.html" target="_top" xlink:title="Inline implementations for toy::CallbacksPool.">
<polygon fill="white" stroke="#666666" points="3688,-151 3560,-151 3560,-132 3688,-132 3688,-151"/>
<text text-anchor="middle" x="3624" y="-139" font-family="Helvetica,sans-Serif" font-size="10.00">core/callbacks_pool.inl</text>
</a>
</g>
</g>
<!-- Node1&#45;&gt;Node42 -->
<g id="edge49_Node000001_Node000042" class="edge">
<title>Node1&#45;&gt;Node42</title>
<g id="a_edge49_Node000001_Node000042"><a xlink:title=" ">
<path fill="none" stroke="#63b8ff" d="M2045.86,-206.63C2275.64,-206.99 3250.21,-205.87 3551,-162 3563.25,-160.21 3576.39,-157.09 3588.09,-153.87"/>
<polygon fill="#63b8ff" stroke="#63b8ff" points="3589.31,-157.16 3597.95,-151.04 3587.37,-150.43 3589.31,-157.16"/>
</a>
</g>
</g>
<!-- Node43 -->
<g id="Node000043" class="node">
<title>Node43</title>
<g id="a_Node000043"><a xlink:href="../../dc/d28/constexpr__utils_8inl.html" target="_top" xlink:title="Inline implementations for constexpr helpers declared in constexpr_utils.hpp.">
<polygon fill="white" stroke="#666666" points="3836,-151 3706,-151 3706,-132 3836,-132 3836,-151"/>
<text text-anchor="middle" x="3771" y="-139" font-family="Helvetica,sans-Serif" font-size="10.00">core/constexpr_utils.inl</text>
</a>
</g>
</g>
<!-- Node1&#45;&gt;Node43 -->
<g id="edge50_Node000001_Node000043" class="edge">
<title>Node1&#45;&gt;Node43</title>
<g id="a_edge50_Node000001_Node000043"><a xlink:title=" ">
<path fill="none" stroke="#63b8ff" d="M2045.53,-206.74C2287.56,-207.73 3365.64,-209.34 3697,-162 3709.54,-160.21 3722.99,-157.05 3734.95,-153.79"/>
<polygon fill="#63b8ff" stroke="#63b8ff" points="3735.93,-157.15 3744.59,-151.05 3734.01,-150.41 3735.93,-157.15"/>
</a>
</g>
</g>
<!-- Node44 -->
<g id="Node000044" class="node">
<title>Node44</title>
<g id="a_Node000044"><a xlink:href="../../d7/d40/fixed__string_8inl.html" target="_top" xlink:title="Inline implementations for toy::FixedString.">
<polygon fill="white" stroke="#666666" points="3966,-151 3854,-151 3854,-132 3966,-132 3966,-151"/>
<text text-anchor="middle" x="3910" y="-139" font-family="Helvetica,sans-Serif" font-size="10.00">core/fixed_string.inl</text>
</a>
</g>
</g>
<!-- Node1&#45;&gt;Node44 -->
<g id="edge51_Node000001_Node000044" class="edge">
<title>Node1&#45;&gt;Node44</title>
<g id="a_edge51_Node000001_Node000044"><a xlink:title=" ">
<path fill="none" stroke="#63b8ff" d="M2045.56,-206.11C2319.22,-203.78 3662.96,-190.96 3845,-162 3855.65,-160.31 3866.99,-157.33 3877.16,-154.21"/>
<polygon fill="#63b8ff" stroke="#63b8ff" points="3878.44,-157.48 3886.88,-151.08 3876.29,-150.81 3878.44,-157.48"/>
</a>
</g>
</g>
<!-- Node45 -->
<g id="Node000045" class="node">
<title>Node45</title>
<g id="a_Node000045"><a xlink:href="../../da/dc9/fixed__vector_8inl.html" target="_top" xlink:title="Inline implementations for toy::FixedVector.">
<polygon fill="white" stroke="#666666" points="4098,-151 3984,-151 3984,-132 4098,-132 4098,-151"/>
<text text-anchor="middle" x="4041" y="-139" font-family="Helvetica,sans-Serif" font-size="10.00">core/fixed_vector.inl</text>
</a>
</g>
</g>
<!-- Node1&#45;&gt;Node45 -->
<g id="edge52_Node000001_Node000045" class="edge">
<title>Node1&#45;&gt;Node45</title>
<g id="a_edge52_Node000001_Node000045"><a xlink:title=" ">
<path fill="none" stroke="#63b8ff" d="M2045.68,-206.18C2330.9,-204.17 3779.33,-192.55 3975,-162 3985.91,-160.3 3997.55,-157.28 4007.97,-154.12"/>
<polygon fill="#63b8ff" stroke="#63b8ff" points="4009.05,-157.45 4017.52,-151.09 4006.93,-150.78 4009.05,-157.45"/>
</a>
</g>
</g>
<!-- Node46 -->
<g id="Node000046" class="node">
<title>Node46</title>
<g id="a_Node000046"><a xlink:href="../../d0/d67/format_8inl.html" target="_top" xlink:title="Inline implementations for toy::format() and toy::formatTo().">
<polygon fill="white" stroke="#666666" points="4205.5,-151 4116.5,-151 4116.5,-132 4205.5,-132 4205.5,-151"/>
<text text-anchor="middle" x="4161" y="-139" font-family="Helvetica,sans-Serif" font-size="10.00">core/format.inl</text>
</a>
</g>
</g>
<!-- Node1&#45;&gt;Node46 -->
<g id="edge53_Node000001_Node000046" class="edge">
<title>Node1&#45;&gt;Node46</title>
<g id="a_edge53_Node000001_Node000046"><a xlink:title=" ">
<path fill="none" stroke="#63b8ff" d="M2045.55,-206.42C2341.64,-205.81 3898.52,-200.76 4107,-162 4115.5,-160.42 4124.44,-157.67 4132.54,-154.73"/>
<polygon fill="#63b8ff" stroke="#63b8ff" points="4133.86,-157.97 4141.93,-151.11 4131.34,-151.44 4133.86,-157.97"/>
</a>
</g>
</g>
<!-- Node47 -->
<g id="Node000047" class="node">
<title>Node47</title>
<g id="a_Node000047"><a xlink:href="../../d0/d27/format__context_8inl.html" target="_top" xlink:title="Inline implementations for toy::FormatContext.">
<polygon fill="white" stroke="#666666" points="4354.5,-151 4223.5,-151 4223.5,-132 4354.5,-132 4354.5,-151"/>
<text text-anchor="middle" x="4289" y="-139" font-family="Helvetica,sans-Serif" font-size="10.00">core/format_context.inl</text>
</a>
</g>
</g>
<!-- Node1&#45;&gt;Node47 -->
<g id="edge54_Node000001_Node000047" class="edge">
<title>Node1&#45;&gt;Node47</title>
<g id="a_edge54_Node000001_Node000047"><a xlink:title=" ">
<path fill="none" stroke="#63b8ff" d="M2045.5,-206.22C2350.13,-204.36 3993.65,-192.94 4215,-162 4227.54,-160.25 4241,-157.1 4252.96,-153.83"/>
<polygon fill="#63b8ff" stroke="#63b8ff" points="4253.93,-157.19 4262.59,-151.09 4252.02,-150.46 4253.93,-157.19"/>
</a>
</g>
</g>
<!-- Node48 -->
<g id="Node000048" class="node">
<title>Node48</title>
<g id="a_Node000048"><a xlink:href="../../d5/d9f/format__pattern_8inl.html" target="_top" xlink:title="Inline implementations for toy::validateFormatPattern().">
<polygon fill="white" stroke="#666666" points="4501.5,-151 4372.5,-151 4372.5,-132 4501.5,-132 4501.5,-151"/>
<text text-anchor="middle" x="4437" y="-139" font-family="Helvetica,sans-Serif" font-size="10.00">core/format_pattern.inl</text>
</a>
</g>
</g>
<!-- Node1&#45;&gt;Node48 -->
<g id="edge55_Node000001_Node000048" class="edge">
<title>Node1&#45;&gt;Node48</title>
<g id="a_edge55_Node000001_Node000048"><a xlink:title=" ">
<path fill="none" stroke="#63b8ff" d="M2045.65,-206.29C2362.51,-204.85 4127.05,-195.37 4364,-162 4376.26,-160.27 4389.4,-157.17 4401.1,-153.94"/>
<polygon fill="#63b8ff" stroke="#63b8ff" points="4402.32,-157.23 4410.96,-151.1 4400.38,-150.51 4402.32,-157.23"/>
</a>
</g>
</g>
<!-- Node49 -->
<g id="Node000049" class="node">
<title>Node49</title>
<g id="a_Node000049"><a xlink:href="../../d4/d97/format__string_8inl.html" target="_top" xlink:title="Inline implementations for toy::FormatString.">
<polygon fill="white" stroke="#666666" points="4642,-151 4520,-151 4520,-132 4642,-132 4642,-151"/>
<text text-anchor="middle" x="4581" y="-139" font-family="Helvetica,sans-Serif" font-size="10.00">core/format_string.inl</text>
</a>
</g>
</g>
<!-- Node1&#45;&gt;Node49 -->
<g id="edge56_Node000001_Node000049" class="edge">
<title>Node1&#45;&gt;Node49</title>
<g id="a_edge56_Node000001_Node000049"><a xlink:title=" ">
<path fill="none" stroke="#63b8ff" d="M2045.74,-206.38C2374.16,-205.48 4258.77,-198.75 4511,-162 4522.76,-160.29 4535.34,-157.2 4546.54,-153.97"/>
<polygon fill="#63b8ff" stroke="#63b8ff" points="4547.82,-157.24 4556.38,-151.01 4545.8,-150.54 4547.82,-157.24"/>
</a>
</g>
</g>
<!-- Node50 -->
<g id="Node000050" class="node">
<title>Node50</title>
<g id="a_Node000050"><a xlink:href="../../d9/dcb/o__string__stream_8inl.html" target="_top" xlink:title="Inline implementations for toy::OStringStream.">
<polygon fill="white" stroke="#666666" points="4794,-151 4660,-151 4660,-132 4794,-132 4794,-151"/>
<text text-anchor="middle" x="4727" y="-139" font-family="Helvetica,sans-Serif" font-size="10.00">core/o_string_stream.inl</text>
</a>
</g>
</g>
<!-- Node1&#45;&gt;Node50 -->
<g id="edge57_Node000001_Node000050" class="edge">
<title>Node1&#45;&gt;Node50</title>
<g id="a_edge57_Node000001_Node000050"><a xlink:title=" ">
<path fill="none" stroke="#63b8ff" d="M2045.7,-206.37C2384.44,-205.38 4383.62,-198.04 4651,-162 4663.97,-160.25 4677.91,-157.07 4690.27,-153.77"/>
<polygon fill="#63b8ff" stroke="#63b8ff" points="4691.52,-157.06 4700.22,-151.01 4689.65,-150.31 4691.52,-157.06"/>
</a>
</g>
</g>
<!-- Node51 -->
<g id="Node000051" class="node">
<title>Node51</title>
<g id="a_Node000051"><a xlink:href="../../db/d33/string__fixed__storage_8inl.html" target="_top" xlink:title="Inline implementations for toy::StringFixedStorage.">
<polygon fill="white" stroke="#666666" points="4966,-151 4812,-151 4812,-132 4966,-132 4966,-151"/>
<text text-anchor="middle" x="4889" y="-139" font-family="Helvetica,sans-Serif" font-size="10.00">core/string_fixed_storage.inl</text>
</a>
</g>
</g>
<!-- Node1&#45;&gt;Node51 -->
<g id="edge58_Node000001_Node000051" class="edge">
<title>Node1&#45;&gt;Node51</title>
<g id="a_edge58_Node000001_Node000051"><a xlink:title=" ">
<path fill="none" stroke="#63b8ff" d="M2045.64,-206.34C2395.24,-205.08 4519.03,-196.07 4803,-162 4818.04,-160.19 4834.31,-156.87 4848.61,-153.47"/>
<polygon fill="#63b8ff" stroke="#63b8ff" points="4849.75,-156.8 4858.62,-151 4848.07,-150 4849.75,-156.8"/>
</a>
</g>
</g>
<!-- Node52 -->
<g id="Node000052" class="node">
<title>Node52</title>
<g id="a_Node000052"><a xlink:href="../../d2/d2b/core_2utils_8inl.html" target="_top" xlink:title="Inline implementations for utilities declared in utils.hpp.">
<polygon fill="white" stroke="#666666" points="5061.5,-151 4984.5,-151 4984.5,-132 5061.5,-132 5061.5,-151"/>
<text text-anchor="middle" x="5023" y="-139" font-family="Helvetica,sans-Serif" font-size="10.00">core/utils.inl</text>
</a>
</g>
</g>
<!-- Node1&#45;&gt;Node52 -->
<g id="edge59_Node000001_Node000052" class="edge">
<title>Node1&#45;&gt;Node52</title>
<g id="a_edge59_Node000001_Node000052"><a xlink:title=" ">
<path fill="none" stroke="#63b8ff" d="M2045.65,-206.28C2419.51,-204.57 4825.48,-192.37 4975,-162 4982.23,-160.53 4989.74,-158.01 4996.63,-155.25"/>
<polygon fill="#63b8ff" stroke="#63b8ff" points="4998.36,-158.31 5006.15,-151.14 4995.58,-151.89 4998.36,-158.31"/>
</a>
</g>
</g>
<!-- Node20&#45;&gt;Node21 -->
<g id="edge20_Node000020_Node000021" class="edge">
<title>Node20&#45;&gt;Node21</title>
<g id="a_edge20_Node000020_Node000021"><a xlink:title=" ">
<path fill="none" stroke="#63b8ff" d="M1379.19,-120.96C1364.79,-111.51 1347.54,-100.2 1333.1,-90.74"/>
<polygon fill="#63b8ff" stroke="#63b8ff" points="1334.81,-87.67 1324.52,-85.11 1330.97,-93.52 1334.81,-87.67"/>
</a>
</g>
</g>
<!-- Node22 -->
<g id="Node000022" class="node">
<title>Node22</title>
<g id="a_Node000022"><a xlink:href="../../d1/d5f/assertion__macro__gcc__clang_8hpp.html" target="_top" xlink:title="Debug and Release assertion macro implementations for GCC/Clang platforms.">
<polygon fill="white" stroke="#666666" points="1499.5,-85 1372.5,-85 1372.5,-55 1499.5,-55 1499.5,-85"/>
<text text-anchor="start" x="1380.5" y="-73" font-family="Helvetica,sans-Serif" font-size="10.00">../common/assertion</text>
<text text-anchor="middle" x="1436" y="-62" font-family="Helvetica,sans-Serif" font-size="10.00">_macro_gcc_clang.hpp</text>
</a>
</g>
</g>
<!-- Node20&#45;&gt;Node22 -->
<g id="edge21_Node000020_Node000022" class="edge">
<title>Node20&#45;&gt;Node22</title>
<g id="a_edge21_Node000020_Node000022"><a xlink:title=" ">
<path fill="none" stroke="#63b8ff" d="M1416.66,-120.77C1419.85,-112.58 1423.57,-103.01 1426.89,-94.46"/>
<polygon fill="#63b8ff" stroke="#63b8ff" points="1430.19,-95.63 1430.55,-85.04 1423.66,-93.09 1430.19,-95.63"/>
</a>
</g>
</g>
<!-- Node25&#45;&gt;Node26 -->
<g id="edge25_Node000025_Node000026" class="edge">
<title>Node25&#45;&gt;Node26</title>
<g id="a_edge25_Node000025_Node000026"><a xlink:title=" ">
<path fill="none" stroke="#63b8ff" d="M1779.3,-60.44C1790,-58.54 1801.39,-56.61 1812,-55 1919.42,-38.7 2045.64,-24.06 2115.86,-16.31"/>
<polygon fill="#63b8ff" stroke="#63b8ff" points="2116.25,-19.79 2125.8,-15.22 2115.48,-12.83 2116.25,-19.79"/>
</a>
</g>
</g>
<!-- Node29&#45;&gt;Node26 -->
<g id="edge29_Node000029_Node000026" class="edge">
<title>Node29&#45;&gt;Node26</title>
<g id="a_edge29_Node000029_Node000026"><a xlink:title=" ">
<path fill="none" stroke="#63b8ff" d="M2170,-60.37C2170,-52.25 2170,-39.81 2170,-29.39"/>
<polygon fill="#63b8ff" stroke="#63b8ff" points="2173.5,-29.17 2170,-19.17 2166.5,-29.17 2173.5,-29.17"/>
</a>
</g>
</g>
<!-- Node31&#45;&gt;Node32 -->
<g id="edge32_Node000031_Node000032" class="edge">
<title>Node31&#45;&gt;Node32</title>
<g id="a_edge32_Node000031_Node000032"><a xlink:title=" ">
<path fill="none" stroke="#63b8ff" d="M2409.37,-131.98C2392.15,-120.36 2361.07,-99.39 2340.23,-85.33"/>
<polygon fill="#63b8ff" stroke="#63b8ff" points="2341.98,-82.28 2331.73,-79.59 2338.06,-88.09 2341.98,-82.28"/>
</a>
</g>
</g>
<!-- Node31&#45;&gt;Node33 -->
<g id="edge34_Node000031_Node000033" class="edge">
<title>Node31&#45;&gt;Node33</title>
<g id="a_edge34_Node000031_Node000033"><a xlink:title=" ">
<path fill="none" stroke="#63b8ff" d="M2425.07,-131.98C2428.89,-121.35 2435.53,-102.89 2440.5,-89.06"/>
<polygon fill="#63b8ff" stroke="#63b8ff" points="2443.82,-90.19 2443.91,-79.59 2437.23,-87.82 2443.82,-90.19"/>
</a>
</g>
</g>
<!-- Node32&#45;&gt;Node26 -->
<g id="edge33_Node000032_Node000026" class="edge">
<title>Node32&#45;&gt;Node26</title>
<g id="a_edge33_Node000032_Node000026"><a xlink:title=" ">
<path fill="none" stroke="#63b8ff" d="M2297.33,-60.49C2272.06,-50.57 2230.09,-34.09 2201.28,-22.78"/>
<polygon fill="#63b8ff" stroke="#63b8ff" points="2202.28,-19.41 2191.69,-19.02 2199.72,-25.93 2202.28,-19.41"/>
</a>
</g>
</g>
<!-- Node33&#45;&gt;Node26 -->
<g id="edge35_Node000033_Node000026" class="edge">
<title>Node33&#45;&gt;Node26</title>
<g id="a_edge35_Node000033_Node000026"><a xlink:title=" ">
<path fill="none" stroke="#63b8ff" d="M2406.72,-60.49C2357.38,-50.07 2273.79,-32.42 2220.28,-21.12"/>
<polygon fill="#63b8ff" stroke="#63b8ff" points="2220.83,-17.66 2210.33,-19.02 2219.39,-24.51 2220.83,-17.66"/>
</a>
</g>
</g>
<!-- Node34&#45;&gt;Node35 -->
<g id="edge37_Node000034_Node000035" class="edge">
<title>Node34&#45;&gt;Node35</title>
<g id="a_edge37_Node000034_Node000035"><a xlink:title=" ">
<path fill="none" stroke="#63b8ff" d="M2606.25,-131.98C2614.28,-121.04 2628.4,-101.8 2638.63,-87.85"/>
<polygon fill="#63b8ff" stroke="#63b8ff" points="2641.6,-89.72 2644.7,-79.59 2635.96,-85.58 2641.6,-89.72"/>
</a>
</g>
</g>
</g>
</svg>
