<?xml version="1.0" encoding="UTF-8" standalone="no"?>
<!DOCTYPE svg PUBLIC "-//W3C//DTD SVG 1.1//EN"
 "http://www.w3.org/Graphics/SVG/1.1/DTD/svg11.dtd">
<!-- Generated by graphviz version 2.43.0 (0)
 -->
<!-- Title: include/core.hpp Pages: 1 -->
<svg width="1380pt" height="104pt"
 viewBox="0.00 0.00 1379.50 104.00" xmlns="http://www.w3.org/2000/svg" xmlns:xlink="http://www.w3.org/1999/xlink">
<g id="graph0" class="graph" transform="scale(1 1) rotate(0) translate(4 100)">
<title>include/core.hpp</title>
<!-- Node1 -->
<g id="Node000001" class="node">
<title>Node1</title>
<g id="a_Node000001"><a xlink:title=" ">
<polygon fill="#999999" stroke="#666666" points="566.5,-96 469.5,-96 469.5,-77 566.5,-77 566.5,-96"/>
<text text-anchor="middle" x="518" y="-84" font-family="Helvetica,sans-Serif" font-size="10.00">include/core.hpp</text>
</a>
</g>
</g>
<!-- Node2 -->
<g id="Node000002" class="node">
<title>Node2</title>
<g id="a_Node000002"><a xlink:title=" ">
<polygon fill="#e0e0e0" stroke="#999999" points="64,-30 0,-30 0,-11 64,-11 64,-30"/>
<text text-anchor="middle" x="32" y="-18" font-family="Helvetica,sans-Serif" font-size="10.00">algorithm</text>
</a>
</g>
</g>
<!-- Node1&#45;&gt;Node2 -->
<g id="edge1_Node000001_Node000002" class="edge">
<title>Node1&#45;&gt;Node2</title>
<g id="a_edge1_Node000001_Node000002"><a xlink:title=" ">
<path fill="none" stroke="#63b8ff" d="M469.26,-86.04C386.3,-85.77 213.05,-80.03 73,-41 67.31,-39.41 61.43,-37.08 55.96,-34.58"/>
<polygon fill="#63b8ff" stroke="#63b8ff" points="57.22,-31.3 46.71,-30.01 54.13,-37.57 57.22,-31.3"/>
</a>
</g>
</g>
<!-- Node3 -->
<g id="Node000003" class="node">
<title>Node3</title>
<g id="a_Node000003"><a xlink:title=" ">
<polygon fill="#e0e0e0" stroke="#999999" points="124,-30 82,-30 82,-11 124,-11 124,-30"/>
<text text-anchor="middle" x="103" y="-18" font-family="Helvetica,sans-Serif" font-size="10.00">array</text>
</a>
</g>
</g>
<!-- Node1&#45;&gt;Node3 -->
<g id="edge2_Node000001_Node000003" class="edge">
<title>Node1&#45;&gt;Node3</title>
<g id="a_edge2_Node000001_Node000003"><a xlink:title=" ">
<path fill="none" stroke="#63b8ff" d="M469.24,-82.65C379.95,-76.98 193.77,-62.89 133,-41 129.27,-39.66 125.54,-37.78 122.04,-35.7"/>
<polygon fill="#63b8ff" stroke="#63b8ff" points="123.74,-32.63 113.47,-30.02 119.87,-38.46 123.74,-32.63"/>
</a>
</g>
</g>
<!-- Node4 -->
<g id="Node000004" class="node">
<title>Node4</title>
<g id="a_Node000004"><a xlink:title=" ">
<polygon fill="#e0e0e0" stroke="#999999" points="202,-30 142,-30 142,-11 202,-11 202,-30"/>
<text text-anchor="middle" x="172" y="-18" font-family="Helvetica,sans-Serif" font-size="10.00">concepts</text>
</a>
</g>
</g>
<!-- Node1&#45;&gt;Node4 -->
<g id="edge3_Node000001_Node000004" class="edge">
<title>Node1&#45;&gt;Node4</title>
<g id="a_edge3_Node000001_Node000004"><a xlink:title=" ">
<path fill="none" stroke="#63b8ff" d="M469.35,-83.24C407.91,-79.3 299.52,-68.75 211,-41 205.81,-39.37 200.45,-37.12 195.44,-34.72"/>
<polygon fill="#63b8ff" stroke="#63b8ff" points="196.85,-31.51 186.35,-30.06 193.65,-37.74 196.85,-31.51"/>
</a>
</g>
</g>
<!-- Node5 -->
<g id="Node000005" class="node">
<title>Node5</title>
<g id="a_Node000005"><a xlink:title=" ">
<polygon fill="#e0e0e0" stroke="#999999" points="273.5,-30 220.5,-30 220.5,-11 273.5,-11 273.5,-30"/>
<text text-anchor="middle" x="247" y="-18" font-family="Helvetica,sans-Serif" font-size="10.00">cstddef</text>
</a>
</g>
</g>
<!-- Node1&#45;&gt;Node5 -->
<g id="edge4_Node000001_Node000005" class="edge">
<title>Node1&#45;&gt;Node5</title>
<g id="a_edge4_Node000001_Node000005"><a xlink:title=" ">
<path fill="none" stroke="#63b8ff" d="M469.14,-80.71C420.79,-74.94 345.2,-63.13 283,-41 278.51,-39.4 273.9,-37.3 269.54,-35.08"/>
<polygon fill="#63b8ff" stroke="#63b8ff" points="271,-31.88 260.55,-30.14 267.63,-38.02 271,-31.88"/>
</a>
</g>
</g>
<!-- Node6 -->
<g id="Node000006" class="node">
<title>Node6</title>
<g id="a_Node000006"><a xlink:title=" ">
<polygon fill="#e0e0e0" stroke="#999999" points="342,-30 292,-30 292,-11 342,-11 342,-30"/>
<text text-anchor="middle" x="317" y="-18" font-family="Helvetica,sans-Serif" font-size="10.00">cstdint</text>
</a>
</g>
</g>
<!-- Node1&#45;&gt;Node6 -->
<g id="edge5_Node000001_Node000006" class="edge">
<title>Node1&#45;&gt;Node6</title>
<g id="a_edge5_Node000001_Node000006"><a xlink:title=" ">
<path fill="none" stroke="#63b8ff" d="M473.73,-77C439.46,-69.64 391.23,-57.56 351,-41 346.97,-39.34 342.82,-37.29 338.87,-35.14"/>
<polygon fill="#63b8ff" stroke="#63b8ff" points="340.57,-32.08 330.16,-30.12 337.07,-38.15 340.57,-32.08"/>
</a>
</g>
</g>
<!-- Node7 -->
<g id="Node000007" class="node">
<title>Node7</title>
<g id="a_Node000007"><a xlink:title=" ">
<polygon fill="#e0e0e0" stroke="#999999" points="410,-30 360,-30 360,-11 410,-11 410,-30"/>
<text text-anchor="middle" x="385" y="-18" font-family="Helvetica,sans-Serif" font-size="10.00">cstring</text>
</a>
</g>
</g>
<!-- Node1&#45;&gt;Node7 -->
<g id="edge6_Node000001_Node000007" class="edge">
<title>Node1&#45;&gt;Node7</title>
<g id="a_edge6_Node000001_Node000007"><a xlink:title=" ">
<path fill="none" stroke="#63b8ff" d="M497.24,-76.88C477.02,-68.31 445.52,-54.53 419,-41 415.52,-39.23 411.9,-37.27 408.36,-35.3"/>
<polygon fill="#63b8ff" stroke="#63b8ff" points="409.81,-32.09 399.39,-30.17 406.33,-38.17 409.81,-32.09"/>
</a>
</g>
</g>
<!-- Node8 -->
<g id="Node000008" class="node">
<title>Node8</title>
<g id="a_Node000008"><a xlink:title=" ">
<polygon fill="#e0e0e0" stroke="#999999" points="477.5,-30 428.5,-30 428.5,-11 477.5,-11 477.5,-30"/>
<text text-anchor="middle" x="453" y="-18" font-family="Helvetica,sans-Serif" font-size="10.00">cuchar</text>
</a>
</g>
</g>
<!-- Node1&#45;&gt;Node8 -->
<g id="edge7_Node000001_Node000008" class="edge">
<title>Node1&#45;&gt;Node8</title>
<g id="a_edge7_Node000001_Node000008"><a xlink:title=" ">
<path fill="none" stroke="#63b8ff" d="M509.23,-76.87C499.02,-66.81 481.92,-49.98 469.26,-37.51"/>
<polygon fill="#63b8ff" stroke="#63b8ff" points="471.63,-34.93 462.04,-30.41 466.71,-39.92 471.63,-34.93"/>
</a>
</g>
</g>
<!-- Node9 -->
<g id="Node000009" class="node">
<title>Node9</title>
<g id="a_Node000009"><a xlink:title=" ">
<polygon fill="#e0e0e0" stroke="#999999" points="540,-30 496,-30 496,-11 540,-11 540,-30"/>
<text text-anchor="middle" x="518" y="-18" font-family="Helvetica,sans-Serif" font-size="10.00">string</text>
</a>
</g>
</g>
<!-- Node1&#45;&gt;Node9 -->
<g id="edge8_Node000001_Node000009" class="edge">
<title>Node1&#45;&gt;Node9</title>
<g id="a_edge8_Node000001_Node000009"><a xlink:title=" ">
<path fill="none" stroke="#63b8ff" d="M518,-76.87C518,-67.66 518,-52.79 518,-40.77"/>
<polygon fill="#63b8ff" stroke="#63b8ff" points="521.5,-40.41 518,-30.41 514.5,-40.41 521.5,-40.41"/>
</a>
</g>
</g>
<!-- Node10 -->
<g id="Node000010" class="node">
<title>Node10</title>
<g id="a_Node000010"><a xlink:title=" ">
<polygon fill="#e0e0e0" stroke="#999999" points="603.5,-30 558.5,-30 558.5,-11 603.5,-11 603.5,-30"/>
<text text-anchor="middle" x="581" y="-18" font-family="Helvetica,sans-Serif" font-size="10.00">utility</text>
</a>
</g>
</g>
<!-- Node1&#45;&gt;Node10 -->
<g id="edge9_Node000001_Node000010" class="edge">
<title>Node1&#45;&gt;Node10</title>
<g id="a_edge9_Node000001_Node000010"><a xlink:title=" ">
<path fill="none" stroke="#63b8ff" d="M526.5,-76.87C536.3,-66.9 552.66,-50.29 564.89,-37.86"/>
<polygon fill="#63b8ff" stroke="#63b8ff" points="567.71,-39.99 572.23,-30.41 562.72,-35.08 567.71,-39.99"/>
</a>
</g>
</g>
<!-- Node11 -->
<g id="Node000011" class="node">
<title>Node11</title>
<g id="a_Node000011"><a xlink:href="../../dd/d9e/linux_2platform__config_8hpp.html" target="_top" xlink:title="additional linux platform header">
<polygon fill="white" stroke="#666666" points="776.5,-41 621.5,-41 621.5,0 776.5,0 776.5,-41"/>
<text text-anchor="start" x="629.5" y="-29" font-family="Helvetica,sans-Serif" font-size="10.00">/home/runner/work/toygine2</text>
<text text-anchor="start" x="629.5" y="-18" font-family="Helvetica,sans-Serif" font-size="10.00">/toygine2/src/platforms</text>
<text text-anchor="middle" x="699" y="-7" font-family="Helvetica,sans-Serif" font-size="10.00">/linux/platform_config.hpp</text>
</a>
</g>
</g>
<!-- Node1&#45;&gt;Node11 -->
<g id="edge10_Node000001_Node000011" class="edge">
<title>Node1&#45;&gt;Node11</title>
<g id="a_edge10_Node000001_Node000011"><a xlink:title=" ">
<path fill="none" stroke="#63b8ff" d="M542.41,-76.87C565.85,-68.58 602.28,-55.7 634.11,-44.44"/>
<polygon fill="#63b8ff" stroke="#63b8ff" points="635.56,-47.64 643.83,-41.01 633.23,-41.04 635.56,-47.64"/>
</a>
</g>
</g>
<!-- Node12 -->
<g id="Node000012" class="node">
<title>Node12</title>
<g id="a_Node000012"><a xlink:href="../../d4/dc0/constexpr__utils_8hpp.html" target="_top" xlink:title="Constexpr utility functions for compile&#45;time operations.">
<polygon fill="white" stroke="#666666" points="931,-30 795,-30 795,-11 931,-11 931,-30"/>
<text text-anchor="middle" x="863" y="-18" font-family="Helvetica,sans-Serif" font-size="10.00">core/constexpr_utils.hpp</text>
</a>
</g>
</g>
<!-- Node1&#45;&gt;Node12 -->
<g id="edge11_Node000001_Node000012" class="edge">
<title>Node1&#45;&gt;Node12</title>
<g id="a_edge11_Node000001_Node000012"><a xlink:title=" ">
<path fill="none" stroke="#63b8ff" d="M566.64,-78.67C620.51,-70.82 709.83,-56.94 786,-41 797.69,-38.55 810.29,-35.53 821.84,-32.6"/>
<polygon fill="#63b8ff" stroke="#63b8ff" points="822.86,-35.95 831.67,-30.07 821.11,-29.17 822.86,-35.95"/>
</a>
</g>
</g>
<!-- Node13 -->
<g id="Node000013" class="node">
<title>Node13</title>
<g id="a_Node000013"><a xlink:href="../../d0/d46/fix__string_8hpp.html" target="_top" xlink:title="Template string class with fixed&#45;size character buffer.">
<polygon fill="white" stroke="#666666" points="1056.5,-30 949.5,-30 949.5,-11 1056.5,-11 1056.5,-30"/>
<text text-anchor="middle" x="1003" y="-18" font-family="Helvetica,sans-Serif" font-size="10.00">core/fix_string.hpp</text>
</a>
</g>
</g>
<!-- Node1&#45;&gt;Node13 -->
<g id="edge12_Node000001_Node000013" class="edge">
<title>Node1&#45;&gt;Node13</title>
<g id="a_edge12_Node000001_Node000013"><a xlink:title=" ">
<path fill="none" stroke="#63b8ff" d="M566.57,-83.46C645.57,-79.45 806.5,-68.43 940,-41 949.82,-38.98 960.3,-36.06 969.83,-33.09"/>
<polygon fill="#63b8ff" stroke="#63b8ff" points="970.91,-36.42 979.35,-30.02 968.76,-29.76 970.91,-36.42"/>
</a>
</g>
</g>
<!-- Node14 -->
<g id="Node000014" class="node">
<title>Node14</title>
<g id="a_Node000014"><a xlink:href="../../df/d93/utils_8hpp.html" target="_top" xlink:title="Core utility functions for string manipulation, encoding conversion, and number formatting.">
<polygon fill="white" stroke="#666666" points="1157.5,-30 1074.5,-30 1074.5,-11 1157.5,-11 1157.5,-30"/>
<text text-anchor="middle" x="1116" y="-18" font-family="Helvetica,sans-Serif" font-size="10.00">core/utils.hpp</text>
</a>
</g>
</g>
<!-- Node1&#45;&gt;Node14 -->
<g id="edge13_Node000001_Node000014" class="edge">
<title>Node1&#45;&gt;Node14</title>
<g id="a_edge13_Node000001_Node000014"><a xlink:title=" ">
<path fill="none" stroke="#63b8ff" d="M566.73,-86.25C663.32,-86.7 885.32,-82.63 1066,-41 1073.49,-39.27 1081.35,-36.64 1088.55,-33.85"/>
<polygon fill="#63b8ff" stroke="#63b8ff" points="1089.95,-37.06 1097.88,-30.04 1087.3,-30.58 1089.95,-37.06"/>
</a>
</g>
</g>
<!-- Node15 -->
<g id="Node000015" class="node">
<title>Node15</title>
<g id="a_Node000015"><a xlink:href="../../db/d84/fix__string_8inl.html" target="_top" xlink:title="Inline implementations for FixString template class.">
<polygon fill="white" stroke="#666666" points="1276.5,-30 1175.5,-30 1175.5,-11 1276.5,-11 1276.5,-30"/>
<text text-anchor="middle" x="1226" y="-18" font-family="Helvetica,sans-Serif" font-size="10.00">core/fix_string.inl</text>
</a>
</g>
</g>
<!-- Node1&#45;&gt;Node15 -->
<g id="edge14_Node000001_Node000015" class="edge">
<title>Node1&#45;&gt;Node15</title>
<g id="a_edge14_Node000001_Node000015"><a xlink:title=" ">
<path fill="none" stroke="#63b8ff" d="M566.58,-86.3C675.27,-87.18 945.91,-84.4 1167,-41 1176.23,-39.19 1186.02,-36.35 1194.91,-33.39"/>
<polygon fill="#63b8ff" stroke="#63b8ff" points="1196.2,-36.65 1204.49,-30.05 1193.9,-30.04 1196.2,-36.65"/>
</a>
</g>
</g>
<!-- Node16 -->
<g id="Node000016" class="node">
<title>Node16</title>
<g id="a_Node000016"><a xlink:href="../../df/d7d/utils_8inl.html" target="_top" xlink:title="Inline implementations of core utility functions for string manipulation and encoding conversion.">
<polygon fill="white" stroke="#666666" points="1371.5,-30 1294.5,-30 1294.5,-11 1371.5,-11 1371.5,-30"/>
<text text-anchor="middle" x="1333" y="-18" font-family="Helvetica,sans-Serif" font-size="10.00">core/utils.inl</text>
</a>
</g>
</g>
<!-- Node1&#45;&gt;Node16 -->
<g id="edge15_Node000001_Node000016" class="edge">
<title>Node1&#45;&gt;Node16</title>
<g id="a_edge15_Node000001_Node000016"><a xlink:title=" ">
<path fill="none" stroke="#63b8ff" d="M566.55,-84.81C712.91,-82.38 1148.18,-72.63 1286,-41 1292.94,-39.41 1300.17,-36.88 1306.82,-34.17"/>
<polygon fill="#63b8ff" stroke="#63b8ff" points="1308.28,-37.36 1316.05,-30.16 1305.48,-30.94 1308.28,-37.36"/>
</a>
</g>
</g>
</g>
</svg>
