<?xml version="1.0" encoding="UTF-8" standalone="no"?>
<!DOCTYPE svg PUBLIC "-//W3C//DTD SVG 1.1//EN"
 "http://www.w3.org/Graphics/SVG/1.1/DTD/svg11.dtd">
<!-- Generated by graphviz version 2.43.0 (0)
 -->
<!-- Title: include/core.hpp Pages: 1 -->
<svg width="3750pt" height="170pt"
 viewBox="0.00 0.00 3749.50 170.00" xmlns="http://www.w3.org/2000/svg" xmlns:xlink="http://www.w3.org/1999/xlink">
<g id="graph0" class="graph" transform="scale(1 1) rotate(0) translate(4 166)">
<title>include/core.hpp</title>
<!-- Node1 -->
<g id="Node000001" class="node">
<title>Node1</title>
<g id="a_Node000001"><a xlink:title="Umbrella header for the engine core module.">
<polygon fill="#999999" stroke="#666666" points="1500.5,-162 1403.5,-162 1403.5,-143 1500.5,-143 1500.5,-162"/>
<text text-anchor="middle" x="1452" y="-150" font-family="Helvetica,sans-Serif" font-size="10.00">include/core.hpp</text>
</a>
</g>
</g>
<!-- Node2 -->
<g id="Node000002" class="node">
<title>Node2</title>
<g id="a_Node000002"><a xlink:title=" ">
<polygon fill="#e0e0e0" stroke="#999999" points="64,-96 0,-96 0,-77 64,-77 64,-96"/>
<text text-anchor="middle" x="32" y="-84" font-family="Helvetica,sans-Serif" font-size="10.00">algorithm</text>
</a>
</g>
</g>
<!-- Node1&#45;&gt;Node2 -->
<g id="edge1_Node000001_Node000002" class="edge">
<title>Node1&#45;&gt;Node2</title>
<g id="a_edge1_Node000001_Node000002"><a xlink:title=" ">
<path fill="none" stroke="#63b8ff" d="M1403.15,-151.11C1173.18,-149.11 204.15,-138.83 73,-107 67.01,-105.55 60.86,-103.16 55.2,-100.55"/>
<polygon fill="#63b8ff" stroke="#63b8ff" points="56.77,-97.42 46.26,-96.07 53.63,-103.68 56.77,-97.42"/>
</a>
</g>
</g>
<!-- Node3 -->
<g id="Node000003" class="node">
<title>Node3</title>
<g id="a_Node000003"><a xlink:title=" ">
<polygon fill="#e0e0e0" stroke="#999999" points="124,-96 82,-96 82,-77 124,-77 124,-96"/>
<text text-anchor="middle" x="103" y="-84" font-family="Helvetica,sans-Serif" font-size="10.00">array</text>
</a>
</g>
</g>
<!-- Node1&#45;&gt;Node3 -->
<g id="edge2_Node000001_Node000003" class="edge">
<title>Node1&#45;&gt;Node3</title>
<g id="a_edge2_Node000001_Node000003"><a xlink:title=" ">
<path fill="none" stroke="#63b8ff" d="M1403.32,-151.4C1179.61,-150.74 255.8,-145.67 133,-107 129.05,-105.76 125.12,-103.83 121.47,-101.68"/>
<polygon fill="#63b8ff" stroke="#63b8ff" points="123.36,-98.73 113.11,-96.06 119.46,-104.55 123.36,-98.73"/>
</a>
</g>
</g>
<!-- Node4 -->
<g id="Node000004" class="node">
<title>Node4</title>
<g id="a_Node000004"><a xlink:title=" ">
<polygon fill="#e0e0e0" stroke="#999999" points="201.5,-96 142.5,-96 142.5,-77 201.5,-77 201.5,-96"/>
<text text-anchor="middle" x="172" y="-84" font-family="Helvetica,sans-Serif" font-size="10.00">compare</text>
</a>
</g>
</g>
<!-- Node1&#45;&gt;Node4 -->
<g id="edge3_Node000001_Node000004" class="edge">
<title>Node1&#45;&gt;Node4</title>
<g id="a_edge3_Node000001_Node000004"><a xlink:title=" ">
<path fill="none" stroke="#63b8ff" d="M1403.44,-150.98C1188.46,-148.5 327.85,-136.81 211,-107 205.41,-105.57 199.69,-103.27 194.41,-100.73"/>
<polygon fill="#63b8ff" stroke="#63b8ff" points="196,-97.61 185.51,-96.06 192.74,-103.81 196,-97.61"/>
</a>
</g>
</g>
<!-- Node5 -->
<g id="Node000005" class="node">
<title>Node5</title>
<g id="a_Node000005"><a xlink:title=" ">
<polygon fill="#e0e0e0" stroke="#999999" points="280,-96 220,-96 220,-77 280,-77 280,-96"/>
<text text-anchor="middle" x="250" y="-84" font-family="Helvetica,sans-Serif" font-size="10.00">concepts</text>
</a>
</g>
</g>
<!-- Node1&#45;&gt;Node5 -->
<g id="edge4_Node000001_Node000005" class="edge">
<title>Node1&#45;&gt;Node5</title>
<g id="a_edge4_Node000001_Node000005"><a xlink:title=" ">
<path fill="none" stroke="#63b8ff" d="M1403.41,-150.85C1196.93,-147.93 397.94,-134.93 289,-107 283.41,-105.57 277.69,-103.26 272.41,-100.72"/>
<polygon fill="#63b8ff" stroke="#63b8ff" points="274,-97.6 263.52,-96.05 270.74,-103.8 274,-97.6"/>
</a>
</g>
</g>
<!-- Node6 -->
<g id="Node000006" class="node">
<title>Node6</title>
<g id="a_Node000006"><a xlink:title=" ">
<polygon fill="#e0e0e0" stroke="#999999" points="351.5,-96 298.5,-96 298.5,-77 351.5,-77 351.5,-96"/>
<text text-anchor="middle" x="325" y="-84" font-family="Helvetica,sans-Serif" font-size="10.00">cstddef</text>
</a>
</g>
</g>
<!-- Node1&#45;&gt;Node6 -->
<g id="edge5_Node000001_Node000006" class="edge">
<title>Node1&#45;&gt;Node6</title>
<g id="a_edge5_Node000001_Node000006"><a xlink:title=" ">
<path fill="none" stroke="#63b8ff" d="M1403.41,-150.81C1205.03,-147.82 462.21,-134.86 361,-107 356.04,-105.63 351,-103.48 346.33,-101.09"/>
<polygon fill="#63b8ff" stroke="#63b8ff" points="347.82,-97.92 337.39,-96.04 344.38,-104.01 347.82,-97.92"/>
</a>
</g>
</g>
<!-- Node7 -->
<g id="Node000007" class="node">
<title>Node7</title>
<g id="a_Node000007"><a xlink:title=" ">
<polygon fill="#e0e0e0" stroke="#999999" points="420,-96 370,-96 370,-77 420,-77 420,-96"/>
<text text-anchor="middle" x="395" y="-84" font-family="Helvetica,sans-Serif" font-size="10.00">cstdint</text>
</a>
</g>
</g>
<!-- Node1&#45;&gt;Node7 -->
<g id="edge6_Node000001_Node000007" class="edge">
<title>Node1&#45;&gt;Node7</title>
<g id="a_edge6_Node000001_Node000007"><a xlink:title=" ">
<path fill="none" stroke="#63b8ff" d="M1403.22,-150.73C1212.49,-147.55 523.02,-134.25 429,-107 424.39,-105.66 419.74,-103.58 415.42,-101.27"/>
<polygon fill="#63b8ff" stroke="#63b8ff" points="417.02,-98.15 406.64,-96.04 413.44,-104.16 417.02,-98.15"/>
</a>
</g>
</g>
<!-- Node8 -->
<g id="Node000008" class="node">
<title>Node8</title>
<g id="a_Node000008"><a xlink:title=" ">
<polygon fill="#e0e0e0" stroke="#999999" points="488,-96 438,-96 438,-77 488,-77 488,-96"/>
<text text-anchor="middle" x="463" y="-84" font-family="Helvetica,sans-Serif" font-size="10.00">cstring</text>
</a>
</g>
</g>
<!-- Node1&#45;&gt;Node8 -->
<g id="edge7_Node000001_Node000008" class="edge">
<title>Node1&#45;&gt;Node8</title>
<g id="a_edge7_Node000001_Node000008"><a xlink:title=" ">
<path fill="none" stroke="#63b8ff" d="M1403.39,-150.57C1221.11,-146.92 584.24,-132.43 497,-107 492.39,-105.66 487.74,-103.57 483.42,-101.26"/>
<polygon fill="#63b8ff" stroke="#63b8ff" points="485.03,-98.14 474.64,-96.03 481.44,-104.15 485.03,-98.14"/>
</a>
</g>
</g>
<!-- Node9 -->
<g id="Node000009" class="node">
<title>Node9</title>
<g id="a_Node000009"><a xlink:title=" ">
<polygon fill="#e0e0e0" stroke="#999999" points="555.5,-96 506.5,-96 506.5,-77 555.5,-77 555.5,-96"/>
<text text-anchor="middle" x="531" y="-84" font-family="Helvetica,sans-Serif" font-size="10.00">cuchar</text>
</a>
</g>
</g>
<!-- Node1&#45;&gt;Node9 -->
<g id="edge8_Node000001_Node000009" class="edge">
<title>Node1&#45;&gt;Node9</title>
<g id="a_edge8_Node000001_Node000009"><a xlink:title=" ">
<path fill="none" stroke="#63b8ff" d="M1403.24,-150.42C1229.17,-146.39 644.38,-131.15 564,-107 559.63,-105.69 555.23,-103.68 551.13,-101.44"/>
<polygon fill="#63b8ff" stroke="#63b8ff" points="552.63,-98.25 542.27,-96.01 548.97,-104.22 552.63,-98.25"/>
</a>
</g>
</g>
<!-- Node10 -->
<g id="Node000010" class="node">
<title>Node10</title>
<g id="a_Node000010"><a xlink:title=" ">
<polygon fill="#e0e0e0" stroke="#999999" points="656.5,-96 573.5,-96 573.5,-77 656.5,-77 656.5,-96"/>
<text text-anchor="middle" x="615" y="-84" font-family="Helvetica,sans-Serif" font-size="10.00">initializer_list</text>
</a>
</g>
</g>
<!-- Node1&#45;&gt;Node10 -->
<g id="edge9_Node000001_Node000010" class="edge">
<title>Node1&#45;&gt;Node10</title>
<g id="a_edge9_Node000001_Node000010"><a xlink:title=" ">
<path fill="none" stroke="#63b8ff" d="M1403.33,-150.75C1254.5,-148.14 806.91,-137.87 665,-107 657.49,-105.37 649.63,-102.76 642.42,-99.98"/>
<polygon fill="#63b8ff" stroke="#63b8ff" points="643.67,-96.71 633.09,-96.15 641.01,-103.19 643.67,-96.71"/>
</a>
</g>
</g>
<!-- Node11 -->
<g id="Node000011" class="node">
<title>Node11</title>
<g id="a_Node000011"><a xlink:title=" ">
<polygon fill="#e0e0e0" stroke="#999999" points="727.5,-96 674.5,-96 674.5,-77 727.5,-77 727.5,-96"/>
<text text-anchor="middle" x="701" y="-84" font-family="Helvetica,sans-Serif" font-size="10.00">iterator</text>
</a>
</g>
</g>
<!-- Node1&#45;&gt;Node11 -->
<g id="edge10_Node000001_Node000011" class="edge">
<title>Node1&#45;&gt;Node11</title>
<g id="a_edge10_Node000001_Node000011"><a xlink:title=" ">
<path fill="none" stroke="#63b8ff" d="M1403.2,-151.19C1263.25,-149.88 862.53,-143 737,-107 732.13,-105.6 727.18,-103.47 722.58,-101.13"/>
<polygon fill="#63b8ff" stroke="#63b8ff" points="724.18,-98.01 713.74,-96.17 720.75,-104.12 724.18,-98.01"/>
</a>
</g>
</g>
<!-- Node12 -->
<g id="Node000012" class="node">
<title>Node12</title>
<g id="a_Node000012"><a xlink:title=" ">
<polygon fill="#e0e0e0" stroke="#999999" points="804,-96 746,-96 746,-77 804,-77 804,-96"/>
<text text-anchor="middle" x="775" y="-84" font-family="Helvetica,sans-Serif" font-size="10.00">memory</text>
</a>
</g>
</g>
<!-- Node1&#45;&gt;Node12 -->
<g id="edge11_Node000001_Node000012" class="edge">
<title>Node1&#45;&gt;Node12</title>
<g id="a_edge11_Node000001_Node000012"><a xlink:title=" ">
<path fill="none" stroke="#63b8ff" d="M1403.38,-150.64C1274.08,-147.95 924.01,-137.94 813,-107 807.78,-105.54 802.44,-103.33 797.47,-100.91"/>
<polygon fill="#63b8ff" stroke="#63b8ff" points="798.99,-97.75 788.52,-96.14 795.7,-103.93 798.99,-97.75"/>
</a>
</g>
</g>
<!-- Node13 -->
<g id="Node000013" class="node">
<title>Node13</title>
<g id="a_Node000013"><a xlink:title=" ">
<polygon fill="#e0e0e0" stroke="#999999" points="887.5,-96 822.5,-96 822.5,-77 887.5,-77 887.5,-96"/>
<text text-anchor="middle" x="855" y="-84" font-family="Helvetica,sans-Serif" font-size="10.00">stdexcept</text>
</a>
</g>
</g>
<!-- Node1&#45;&gt;Node13 -->
<g id="edge12_Node000001_Node000013" class="edge">
<title>Node1&#45;&gt;Node13</title>
<g id="a_edge12_Node000001_Node000013"><a xlink:title=" ">
<path fill="none" stroke="#63b8ff" d="M1403.12,-149.8C1285.99,-145.35 992,-132 897,-107 891.02,-105.43 884.85,-103.04 879.13,-100.47"/>
<polygon fill="#63b8ff" stroke="#63b8ff" points="880.59,-97.29 870.07,-96.08 877.54,-103.59 880.59,-97.29"/>
</a>
</g>
</g>
<!-- Node14 -->
<g id="Node000014" class="node">
<title>Node14</title>
<g id="a_Node000014"><a xlink:title=" ">
<polygon fill="#e0e0e0" stroke="#999999" points="950,-96 906,-96 906,-77 950,-77 950,-96"/>
<text text-anchor="middle" x="928" y="-84" font-family="Helvetica,sans-Serif" font-size="10.00">string</text>
</a>
</g>
</g>
<!-- Node1&#45;&gt;Node14 -->
<g id="edge13_Node000001_Node000014" class="edge">
<title>Node1&#45;&gt;Node14</title>
<g id="a_edge13_Node000001_Node000014"><a xlink:title=" ">
<path fill="none" stroke="#63b8ff" d="M1403.24,-149.99C1295.52,-146.19 1040.42,-134.5 959,-107 955.05,-105.66 951.08,-103.73 947.37,-101.6"/>
<polygon fill="#63b8ff" stroke="#63b8ff" points="949.13,-98.57 938.83,-96.1 945.34,-104.45 949.13,-98.57"/>
</a>
</g>
</g>
<!-- Node15 -->
<g id="Node000015" class="node">
<title>Node15</title>
<g id="a_Node000015"><a xlink:title=" ">
<polygon fill="#e0e0e0" stroke="#999999" points="1037.5,-96 968.5,-96 968.5,-77 1037.5,-77 1037.5,-96"/>
<text text-anchor="middle" x="1003" y="-84" font-family="Helvetica,sans-Serif" font-size="10.00">type_traits</text>
</a>
</g>
</g>
<!-- Node1&#45;&gt;Node15 -->
<g id="edge14_Node000001_Node000015" class="edge">
<title>Node1&#45;&gt;Node15</title>
<g id="a_edge14_Node000001_Node000015"><a xlink:title=" ">
<path fill="none" stroke="#63b8ff" d="M1403.27,-151.1C1326.1,-149.36 1171.66,-141.43 1046,-107 1040.02,-105.36 1033.83,-102.99 1028.06,-100.46"/>
<polygon fill="#63b8ff" stroke="#63b8ff" points="1029.42,-97.24 1018.88,-96.16 1026.45,-103.57 1029.42,-97.24"/>
</a>
</g>
</g>
<!-- Node16 -->
<g id="Node000016" class="node">
<title>Node16</title>
<g id="a_Node000016"><a xlink:title=" ">
<polygon fill="#e0e0e0" stroke="#999999" points="1100.5,-96 1055.5,-96 1055.5,-77 1100.5,-77 1100.5,-96"/>
<text text-anchor="middle" x="1078" y="-84" font-family="Helvetica,sans-Serif" font-size="10.00">utility</text>
</a>
</g>
</g>
<!-- Node1&#45;&gt;Node16 -->
<g id="edge15_Node000001_Node000016" class="edge">
<title>Node1&#45;&gt;Node16</title>
<g id="a_edge15_Node000001_Node000016"><a xlink:title=" ">
<path fill="none" stroke="#63b8ff" d="M1403.4,-150.43C1336.84,-147.77 1214.25,-138.59 1115,-107 1110.15,-105.46 1105.19,-103.3 1100.53,-100.98"/>
<polygon fill="#63b8ff" stroke="#63b8ff" points="1102.01,-97.8 1091.55,-96.12 1098.68,-103.96 1102.01,-97.8"/>
</a>
</g>
</g>
<!-- Node17 -->
<g id="Node000017" class="node">
<title>Node17</title>
<g id="a_Node000017"><a xlink:href="../../dd/d9e/linux_2platform__config_8hpp.html" target="_top" xlink:title="additional linux platform header">
<polygon fill="white" stroke="#666666" points="1312.5,-107 1157.5,-107 1157.5,-66 1312.5,-66 1312.5,-107"/>
<text text-anchor="start" x="1165.5" y="-95" font-family="Helvetica,sans-Serif" font-size="10.00">/home/runner/work/toygine2</text>
<text text-anchor="start" x="1165.5" y="-84" font-family="Helvetica,sans-Serif" font-size="10.00">/toygine2/src/platforms</text>
<text text-anchor="middle" x="1235" y="-73" font-family="Helvetica,sans-Serif" font-size="10.00">/linux/platform_config.hpp</text>
</a>
</g>
</g>
<!-- Node1&#45;&gt;Node17 -->
<g id="edge16_Node000001_Node000017" class="edge">
<title>Node1&#45;&gt;Node17</title>
<g id="a_edge16_Node000001_Node000017"><a xlink:title=" ">
<path fill="none" stroke="#63b8ff" d="M1422.73,-142.87C1394.15,-134.44 1349.44,-121.25 1310.82,-109.86"/>
<polygon fill="#63b8ff" stroke="#63b8ff" points="1311.73,-106.48 1301.15,-107.01 1309.75,-113.19 1311.73,-106.48"/>
</a>
</g>
</g>
<!-- Node18 -->
<g id="Node000018" class="node">
<title>Node18</title>
<g id="a_Node000018"><a xlink:href="../../d3/d60/platform_8hpp.html" target="_top" xlink:title="Platform and CPU architecture enumerations with compile&#45;time and runtime detection utilities.">
<polygon fill="white" stroke="#666666" points="1180.5,-30 1077.5,-30 1077.5,0 1180.5,0 1180.5,-30"/>
<text text-anchor="start" x="1085.5" y="-18" font-family="Helvetica,sans-Serif" font-size="10.00">../../../include/core</text>
<text text-anchor="middle" x="1129" y="-7" font-family="Helvetica,sans-Serif" font-size="10.00">/platform.hpp</text>
</a>
</g>
</g>
<!-- Node1&#45;&gt;Node18 -->
<g id="edge32_Node000001_Node000018" class="edge">
<title>Node1&#45;&gt;Node18</title>
<g id="a_edge32_Node000001_Node000018"><a xlink:title=" ">
<path fill="none" stroke="#63b8ff" d="M1403.42,-150.94C1327.07,-149.02 1183.98,-140.86 1148,-107 1130.07,-90.12 1126.76,-61.04 1127.02,-40.29"/>
<polygon fill="#63b8ff" stroke="#63b8ff" points="1130.53,-40.17 1127.44,-30.03 1123.53,-39.88 1130.53,-40.17"/>
</a>
</g>
</g>
<!-- Node20 -->
<g id="Node000020" class="node">
<title>Node20</title>
<g id="a_Node000020"><a xlink:href="../../d5/d96/assertion_8hpp.html" target="_top" xlink:title="Assertion system for runtime and compile&#45;time validation of engine invariants.">
<polygon fill="white" stroke="#666666" points="1437.5,-96 1330.5,-96 1330.5,-77 1437.5,-77 1437.5,-96"/>
<text text-anchor="middle" x="1384" y="-84" font-family="Helvetica,sans-Serif" font-size="10.00">core/assertion.hpp</text>
</a>
</g>
</g>
<!-- Node1&#45;&gt;Node20 -->
<g id="edge19_Node000001_Node000020" class="edge">
<title>Node1&#45;&gt;Node20</title>
<g id="a_edge19_Node000001_Node000020"><a xlink:title=" ">
<path fill="none" stroke="#63b8ff" d="M1442.83,-142.87C1432.14,-132.81 1414.26,-115.98 1401.01,-103.51"/>
<polygon fill="#63b8ff" stroke="#63b8ff" points="1403.14,-100.71 1393.46,-96.41 1398.35,-105.81 1403.14,-100.71"/>
</a>
</g>
</g>
<!-- Node21 -->
<g id="Node000021" class="node">
<title>Node21</title>
<g id="a_Node000021"><a xlink:href="../../dd/ded/c__string__view_8hpp.html" target="_top" xlink:title="Non&#45;owning string view class for C&#45;style strings.">
<polygon fill="white" stroke="#666666" points="1584,-96 1456,-96 1456,-77 1584,-77 1584,-96"/>
<text text-anchor="middle" x="1520" y="-84" font-family="Helvetica,sans-Serif" font-size="10.00">core/c_string_view.hpp</text>
</a>
</g>
</g>
<!-- Node1&#45;&gt;Node21 -->
<g id="edge20_Node000001_Node000021" class="edge">
<title>Node1&#45;&gt;Node21</title>
<g id="a_edge20_Node000001_Node000021"><a xlink:title=" ">
<path fill="none" stroke="#63b8ff" d="M1461.17,-142.87C1471.86,-132.81 1489.74,-115.98 1502.99,-103.51"/>
<polygon fill="#63b8ff" stroke="#63b8ff" points="1505.65,-105.81 1510.54,-96.41 1500.86,-100.71 1505.65,-105.81"/>
</a>
</g>
</g>
<!-- Node22 -->
<g id="Node000022" class="node">
<title>Node22</title>
<g id="a_Node000022"><a xlink:href="../../de/deb/string__like_8hpp.html" target="_top" xlink:title="C++ concept for string&#45;like types with size() and c_str() methods.">
<polygon fill="white" stroke="#666666" points="2049,-24.5 1961,-24.5 1961,-5.5 2049,-5.5 2049,-24.5"/>
<text text-anchor="middle" x="2005" y="-12.5" font-family="Helvetica,sans-Serif" font-size="10.00">string_like.hpp</text>
</a>
</g>
</g>
<!-- Node1&#45;&gt;Node22 -->
<g id="edge33_Node000001_Node000022" class="edge">
<title>Node1&#45;&gt;Node22</title>
<g id="a_edge33_Node000001_Node000022"><a xlink:title=" ">
<path fill="none" stroke="#63b8ff" d="M1499.37,-142.98C1528.06,-136.31 1564.48,-125.06 1593,-107 1613.99,-93.71 1608.94,-77.43 1631,-66 1685.53,-37.74 1860.85,-24.05 1950.74,-18.75"/>
<polygon fill="#63b8ff" stroke="#63b8ff" points="1950.96,-22.25 1960.74,-18.18 1950.56,-15.26 1950.96,-22.25"/>
</a>
</g>
</g>
<!-- Node23 -->
<g id="Node000023" class="node">
<title>Node23</title>
<g id="a_Node000023"><a xlink:href="../../d1/d5c/callbacks__pool_8hpp.html" target="_top" xlink:title="Template callback pool class with fixed&#45;size callback storage.">
<polygon fill="white" stroke="#666666" points="1774,-96 1640,-96 1640,-77 1774,-77 1774,-96"/>
<text text-anchor="middle" x="1707" y="-84" font-family="Helvetica,sans-Serif" font-size="10.00">core/callbacks_pool.hpp</text>
</a>
</g>
</g>
<!-- Node1&#45;&gt;Node23 -->
<g id="edge22_Node000001_Node000023" class="edge">
<title>Node1&#45;&gt;Node23</title>
<g id="a_edge22_Node000001_Node000023"><a xlink:title=" ">
<path fill="none" stroke="#63b8ff" d="M1486.13,-142.94C1531.83,-131.46 1612.98,-111.1 1663.17,-98.5"/>
<polygon fill="#63b8ff" stroke="#63b8ff" points="1664.23,-101.84 1673.08,-96.01 1662.52,-95.05 1664.23,-101.84"/>
</a>
</g>
</g>
<!-- Node24 -->
<g id="Node000024" class="node">
<title>Node24</title>
<g id="a_Node000024"><a xlink:href="../../d4/dc0/constexpr__utils_8hpp.html" target="_top" xlink:title="Constexpr utility functions for compile&#45;time operations.">
<polygon fill="white" stroke="#666666" points="1928,-96 1792,-96 1792,-77 1928,-77 1928,-96"/>
<text text-anchor="middle" x="1860" y="-84" font-family="Helvetica,sans-Serif" font-size="10.00">core/constexpr_utils.hpp</text>
</a>
</g>
</g>
<!-- Node1&#45;&gt;Node24 -->
<g id="edge23_Node000001_Node000024" class="edge">
<title>Node1&#45;&gt;Node24</title>
<g id="a_edge23_Node000001_Node000024"><a xlink:title=" ">
<path fill="none" stroke="#63b8ff" d="M1500.52,-146.73C1565.28,-139.97 1683.37,-126.25 1783,-107 1794.94,-104.69 1807.79,-101.66 1819.5,-98.68"/>
<polygon fill="#63b8ff" stroke="#63b8ff" points="1820.66,-102 1829.46,-96.09 1818.9,-95.22 1820.66,-102"/>
</a>
</g>
</g>
<!-- Node25 -->
<g id="Node000025" class="node">
<title>Node25</title>
<g id="a_Node000025"><a xlink:href="../../d7/d7f/fixed__string_8hpp.html" target="_top" xlink:title="Template string class with fixed&#45;size character buffer.">
<polygon fill="white" stroke="#666666" points="2064,-96 1946,-96 1946,-77 2064,-77 2064,-96"/>
<text text-anchor="middle" x="2005" y="-84" font-family="Helvetica,sans-Serif" font-size="10.00">core/fixed_string.hpp</text>
</a>
</g>
</g>
<!-- Node1&#45;&gt;Node25 -->
<g id="edge24_Node000001_Node000025" class="edge">
<title>Node1&#45;&gt;Node25</title>
<g id="a_edge24_Node000001_Node000025"><a xlink:title=" ">
<path fill="none" stroke="#63b8ff" d="M1500.6,-150.06C1588.42,-146.78 1779.1,-136.61 1937,-107 1947.79,-104.98 1959.34,-101.99 1969.81,-98.95"/>
<polygon fill="#63b8ff" stroke="#63b8ff" points="1970.87,-102.29 1979.44,-96.06 1968.86,-95.58 1970.87,-102.29"/>
</a>
</g>
</g>
<!-- Node26 -->
<g id="Node000026" class="node">
<title>Node26</title>
<g id="a_Node000026"><a xlink:href="../../d7/dea/fixed__vector_8hpp.html" target="_top" xlink:title="TODO.">
<polygon fill="white" stroke="#666666" points="2202,-96 2082,-96 2082,-77 2202,-77 2202,-96"/>
<text text-anchor="middle" x="2142" y="-84" font-family="Helvetica,sans-Serif" font-size="10.00">core/fixed_vector.hpp</text>
</a>
</g>
</g>
<!-- Node1&#45;&gt;Node26 -->
<g id="edge26_Node000001_Node000026" class="edge">
<title>Node1&#45;&gt;Node26</title>
<g id="a_edge26_Node000001_Node000026"><a xlink:title=" ">
<path fill="none" stroke="#63b8ff" d="M1500.72,-151.37C1605.99,-150.36 1862.2,-143.94 2073,-107 2084.06,-105.06 2095.89,-102.07 2106.57,-99.01"/>
<polygon fill="#63b8ff" stroke="#63b8ff" points="2107.82,-102.29 2116.4,-96.08 2105.82,-95.58 2107.82,-102.29"/>
</a>
</g>
</g>
<!-- Node27 -->
<g id="Node000027" class="node">
<title>Node27</title>
<g id="a_Node000027"><a xlink:href="../../d4/d0a/format_8hpp.html" target="_top" xlink:title="Compile&#45;time format string validation class.">
<polygon fill="white" stroke="#666666" points="2315.5,-96 2220.5,-96 2220.5,-77 2315.5,-77 2315.5,-96"/>
<text text-anchor="middle" x="2268" y="-84" font-family="Helvetica,sans-Serif" font-size="10.00">core/format.hpp</text>
</a>
</g>
</g>
<!-- Node1&#45;&gt;Node27 -->
<g id="edge27_Node000001_Node000027" class="edge">
<title>Node1&#45;&gt;Node27</title>
<g id="a_edge27_Node000001_Node000027"><a xlink:title=" ">
<path fill="none" stroke="#63b8ff" d="M1500.67,-150.37C1645.83,-146.72 2074.12,-133.91 2211,-107 2219.93,-105.25 2229.36,-102.43 2237.94,-99.48"/>
<polygon fill="#63b8ff" stroke="#63b8ff" points="2239.31,-102.71 2247.52,-96.01 2236.93,-96.13 2239.31,-102.71"/>
</a>
</g>
</g>
<!-- Node28 -->
<g id="Node000028" class="node">
<title>Node28</title>
<g id="a_Node000028"><a xlink:href="../../dd/d8e/hashes_8hpp.html" target="_top" xlink:title="CRC hash functions.">
<polygon fill="white" stroke="#666666" points="2430,-96 2334,-96 2334,-77 2430,-77 2430,-96"/>
<text text-anchor="middle" x="2382" y="-84" font-family="Helvetica,sans-Serif" font-size="10.00">core/hashes.hpp</text>
</a>
</g>
</g>
<!-- Node1&#45;&gt;Node28 -->
<g id="edge29_Node000001_Node000028" class="edge">
<title>Node1&#45;&gt;Node28</title>
<g id="a_edge29_Node000001_Node000028"><a xlink:title=" ">
<path fill="none" stroke="#63b8ff" d="M1500.51,-150.8C1659.69,-148.23 2165.08,-137.8 2325,-107 2333.93,-105.28 2343.37,-102.48 2351.95,-99.53"/>
<polygon fill="#63b8ff" stroke="#63b8ff" points="2353.32,-102.75 2361.53,-96.05 2350.94,-96.17 2353.32,-102.75"/>
</a>
</g>
</g>
<!-- Node29 -->
<g id="Node000029" class="node">
<title>Node29</title>
<g id="a_Node000029"><a xlink:href="../../de/d2d/o__string__stream_8hpp.html" target="_top" xlink:title="Output string stream class for building strings from various data types.">
<polygon fill="white" stroke="#666666" points="2588,-96 2448,-96 2448,-77 2588,-77 2588,-96"/>
<text text-anchor="middle" x="2518" y="-84" font-family="Helvetica,sans-Serif" font-size="10.00">core/o_string_stream.hpp</text>
</a>
</g>
</g>
<!-- Node1&#45;&gt;Node29 -->
<g id="edge30_Node000001_Node000029" class="edge">
<title>Node1&#45;&gt;Node29</title>
<g id="a_edge30_Node000001_Node000029"><a xlink:title=" ">
<path fill="none" stroke="#63b8ff" d="M1500.62,-150.58C1673.03,-147.1 2254.7,-133.64 2439,-107 2452.35,-105.07 2466.73,-101.87 2479.52,-98.61"/>
<polygon fill="#63b8ff" stroke="#63b8ff" points="2480.6,-101.94 2489.38,-96.01 2478.82,-95.18 2480.6,-101.94"/>
</a>
</g>
</g>
<!-- Node30 -->
<g id="Node000030" class="node">
<title>Node30</title>
<g id="a_Node000030"><a xlink:href="../../df/d93/utils_8hpp.html" target="_top" xlink:title="Core utility functions for string manipulation, encoding conversion, and number formatting.">
<polygon fill="white" stroke="#666666" points="2689.5,-96 2606.5,-96 2606.5,-77 2689.5,-77 2689.5,-96"/>
<text text-anchor="middle" x="2648" y="-84" font-family="Helvetica,sans-Serif" font-size="10.00">core/utils.hpp</text>
</a>
</g>
</g>
<!-- Node1&#45;&gt;Node30 -->
<g id="edge34_Node000001_Node000030" class="edge">
<title>Node1&#45;&gt;Node30</title>
<g id="a_edge34_Node000001_Node000030"><a xlink:title=" ">
<path fill="none" stroke="#63b8ff" d="M1500.52,-151.71C1690.31,-152.22 2382.5,-150.93 2597,-107 2604.88,-105.39 2613.13,-102.7 2620.65,-99.83"/>
<polygon fill="#63b8ff" stroke="#63b8ff" points="2622.07,-103.03 2630.02,-96.03 2619.44,-96.55 2622.07,-103.03"/>
</a>
</g>
</g>
<!-- Node31 -->
<g id="Node000031" class="node">
<title>Node31</title>
<g id="a_Node000031"><a xlink:href="../../df/d4a/c__string__view_8inl.html" target="_top" xlink:title="Inline implementations for CStringView class.">
<polygon fill="white" stroke="#666666" points="2830,-96 2708,-96 2708,-77 2830,-77 2830,-96"/>
<text text-anchor="middle" x="2769" y="-84" font-family="Helvetica,sans-Serif" font-size="10.00">core/c_string_view.inl</text>
</a>
</g>
</g>
<!-- Node1&#45;&gt;Node31 -->
<g id="edge35_Node000001_Node000031" class="edge">
<title>Node1&#45;&gt;Node31</title>
<g id="a_edge35_Node000001_Node000031"><a xlink:title=" ">
<path fill="none" stroke="#63b8ff" d="M1500.58,-151.3C1700.7,-150.22 2461.77,-143.75 2699,-107 2710.55,-105.21 2722.91,-102.16 2733.97,-99"/>
<polygon fill="#63b8ff" stroke="#63b8ff" points="2735.13,-102.31 2743.72,-96.1 2733.13,-95.6 2735.13,-102.31"/>
</a>
</g>
</g>
<!-- Node32 -->
<g id="Node000032" class="node">
<title>Node32</title>
<g id="a_Node000032"><a xlink:href="../../d6/ddb/callbacks__pool_8inl.html" target="_top" xlink:title="Inline implementations for template callback pool class with fixed&#45;size callback storage.">
<polygon fill="white" stroke="#666666" points="2976,-96 2848,-96 2848,-77 2976,-77 2976,-96"/>
<text text-anchor="middle" x="2912" y="-84" font-family="Helvetica,sans-Serif" font-size="10.00">core/callbacks_pool.inl</text>
</a>
</g>
</g>
<!-- Node1&#45;&gt;Node32 -->
<g id="edge36_Node000001_Node000032" class="edge">
<title>Node1&#45;&gt;Node32</title>
<g id="a_edge36_Node000001_Node000032"><a xlink:title=" ">
<path fill="none" stroke="#63b8ff" d="M1500.51,-151.43C1714.19,-150.9 2572.66,-146.31 2839,-107 2851.25,-105.19 2864.38,-102.07 2876.09,-98.84"/>
<polygon fill="#63b8ff" stroke="#63b8ff" points="2877.3,-102.14 2885.95,-96.01 2875.37,-95.41 2877.3,-102.14"/>
</a>
</g>
</g>
<!-- Node33 -->
<g id="Node000033" class="node">
<title>Node33</title>
<g id="a_Node000033"><a xlink:href="../../dc/d28/constexpr__utils_8inl.html" target="_top" xlink:title="Inline implementations for constexpr utility functions.">
<polygon fill="white" stroke="#666666" points="3124,-96 2994,-96 2994,-77 3124,-77 3124,-96"/>
<text text-anchor="middle" x="3059" y="-84" font-family="Helvetica,sans-Serif" font-size="10.00">core/constexpr_utils.inl</text>
</a>
</g>
</g>
<!-- Node1&#45;&gt;Node33 -->
<g id="edge37_Node000001_Node000033" class="edge">
<title>Node1&#45;&gt;Node33</title>
<g id="a_edge37_Node000001_Node000033"><a xlink:title=" ">
<path fill="none" stroke="#63b8ff" d="M1500.57,-151.58C1727.93,-151.74 2688.37,-149.81 2985,-107 2997.53,-105.19 3010.99,-102.03 3022.95,-98.77"/>
<polygon fill="#63b8ff" stroke="#63b8ff" points="3023.92,-102.13 3032.59,-96.03 3022.01,-95.39 3023.92,-102.13"/>
</a>
</g>
</g>
<!-- Node34 -->
<g id="Node000034" class="node">
<title>Node34</title>
<g id="a_Node000034"><a xlink:href="../../d7/d40/fixed__string_8inl.html" target="_top" xlink:title="Inline implementations for FixedString template class.">
<polygon fill="white" stroke="#666666" points="3254,-96 3142,-96 3142,-77 3254,-77 3254,-96"/>
<text text-anchor="middle" x="3198" y="-84" font-family="Helvetica,sans-Serif" font-size="10.00">core/fixed_string.inl</text>
</a>
</g>
</g>
<!-- Node1&#45;&gt;Node34 -->
<g id="edge38_Node000001_Node000034" class="edge">
<title>Node1&#45;&gt;Node34</title>
<g id="a_edge38_Node000001_Node000034"><a xlink:title=" ">
<path fill="none" stroke="#63b8ff" d="M1500.75,-150.98C1759.7,-148.11 2968.42,-133.38 3133,-107 3143.64,-105.29 3154.98,-102.32 3165.16,-99.19"/>
<polygon fill="#63b8ff" stroke="#63b8ff" points="3166.44,-102.46 3174.88,-96.06 3164.29,-95.8 3166.44,-102.46"/>
</a>
</g>
</g>
<!-- Node35 -->
<g id="Node000035" class="node">
<title>Node35</title>
<g id="a_Node000035"><a xlink:href="../../da/dc9/fixed__vector_8inl.html" target="_top" xlink:title="TODO.">
<polygon fill="white" stroke="#666666" points="3386,-96 3272,-96 3272,-77 3386,-77 3386,-96"/>
<text text-anchor="middle" x="3329" y="-84" font-family="Helvetica,sans-Serif" font-size="10.00">core/fixed_vector.inl</text>
</a>
</g>
</g>
<!-- Node1&#45;&gt;Node35 -->
<g id="edge39_Node000001_Node000035" class="edge">
<title>Node1&#45;&gt;Node35</title>
<g id="a_edge39_Node000001_Node000035"><a xlink:title=" ">
<path fill="none" stroke="#63b8ff" d="M1500.91,-151.06C1772.05,-148.55 3084.84,-135.01 3263,-107 3273.91,-105.28 3285.55,-102.26 3295.97,-99.11"/>
<polygon fill="#63b8ff" stroke="#63b8ff" points="3297.05,-102.44 3305.52,-96.07 3294.93,-95.77 3297.05,-102.44"/>
</a>
</g>
</g>
<!-- Node36 -->
<g id="Node000036" class="node">
<title>Node36</title>
<g id="a_Node000036"><a xlink:href="../../d0/d67/format_8inl.html" target="_top" xlink:title="Inline implementations for FormatString class.">
<polygon fill="white" stroke="#666666" points="3493.5,-96 3404.5,-96 3404.5,-77 3493.5,-77 3493.5,-96"/>
<text text-anchor="middle" x="3449" y="-84" font-family="Helvetica,sans-Serif" font-size="10.00">core/format.inl</text>
</a>
</g>
</g>
<!-- Node1&#45;&gt;Node36 -->
<g id="edge40_Node000001_Node000036" class="edge">
<title>Node1&#45;&gt;Node36</title>
<g id="a_edge40_Node000001_Node000036"><a xlink:title=" ">
<path fill="none" stroke="#63b8ff" d="M1500.76,-151.32C1783.27,-150.18 3203.98,-142.69 3395,-107 3403.5,-105.41 3412.44,-102.66 3420.54,-99.72"/>
<polygon fill="#63b8ff" stroke="#63b8ff" points="3421.86,-102.96 3429.93,-96.1 3419.34,-96.43 3421.86,-102.96"/>
</a>
</g>
</g>
<!-- Node37 -->
<g id="Node000037" class="node">
<title>Node37</title>
<g id="a_Node000037"><a xlink:href="../../d9/dcb/o__string__stream_8inl.html" target="_top" xlink:title="Implementation of OStringStream template methods.">
<polygon fill="white" stroke="#666666" points="3646,-96 3512,-96 3512,-77 3646,-77 3646,-96"/>
<text text-anchor="middle" x="3579" y="-84" font-family="Helvetica,sans-Serif" font-size="10.00">core/o_string_stream.inl</text>
</a>
</g>
</g>
<!-- Node1&#45;&gt;Node37 -->
<g id="edge41_Node000001_Node000037" class="edge">
<title>Node1&#45;&gt;Node37</title>
<g id="a_edge41_Node000001_Node000037"><a xlink:title=" ">
<path fill="none" stroke="#63b8ff" d="M1500.56,-151.11C1791.6,-148.71 3299.12,-134.99 3503,-107 3515.86,-105.23 3529.68,-102.08 3541.96,-98.82"/>
<polygon fill="#63b8ff" stroke="#63b8ff" points="3543.16,-102.12 3551.86,-96.08 3541.29,-95.37 3543.16,-102.12"/>
</a>
</g>
</g>
<!-- Node38 -->
<g id="Node000038" class="node">
<title>Node38</title>
<g id="a_Node000038"><a xlink:href="../../df/d7d/utils_8inl.html" target="_top" xlink:title="Inline implementations of core utility functions for string manipulation and encoding conversion.">
<polygon fill="white" stroke="#666666" points="3741.5,-96 3664.5,-96 3664.5,-77 3741.5,-77 3741.5,-96"/>
<text text-anchor="middle" x="3703" y="-84" font-family="Helvetica,sans-Serif" font-size="10.00">core/utils.inl</text>
</a>
</g>
</g>
<!-- Node1&#45;&gt;Node38 -->
<g id="edge42_Node000001_Node000038" class="edge">
<title>Node1&#45;&gt;Node38</title>
<g id="a_edge42_Node000001_Node000038"><a xlink:title=" ">
<path fill="none" stroke="#63b8ff" d="M1500.73,-151.58C1804.95,-151.94 3437.68,-151.74 3655,-107 3662.22,-105.51 3669.74,-102.98 3676.62,-100.22"/>
<polygon fill="#63b8ff" stroke="#63b8ff" points="3678.35,-103.29 3686.15,-96.12 3675.58,-96.86 3678.35,-103.29"/>
</a>
</g>
</g>
<!-- Node17&#45;&gt;Node18 -->
<g id="edge17_Node000017_Node000018" class="edge">
<title>Node17&#45;&gt;Node18</title>
<g id="a_edge17_Node000017_Node000018"><a xlink:title=" ">
<path fill="none" stroke="#63b8ff" d="M1205.19,-65.96C1190.79,-56.51 1173.54,-45.2 1159.1,-35.74"/>
<polygon fill="#63b8ff" stroke="#63b8ff" points="1160.81,-32.67 1150.52,-30.11 1156.97,-38.52 1160.81,-32.67"/>
</a>
</g>
</g>
<!-- Node19 -->
<g id="Node000019" class="node">
<title>Node19</title>
<g id="a_Node000019"><a xlink:href="../../d1/d5f/assertion__macro__gcc__clang_8hpp.html" target="_top" xlink:title="Debug and Release assertion macro implementations for GCC/Clang platforms.">
<polygon fill="white" stroke="#666666" points="1325.5,-30 1198.5,-30 1198.5,0 1325.5,0 1325.5,-30"/>
<text text-anchor="start" x="1206.5" y="-18" font-family="Helvetica,sans-Serif" font-size="10.00">../common/assertion</text>
<text text-anchor="middle" x="1262" y="-7" font-family="Helvetica,sans-Serif" font-size="10.00">_macro_gcc_clang.hpp</text>
</a>
</g>
</g>
<!-- Node17&#45;&gt;Node19 -->
<g id="edge18_Node000017_Node000019" class="edge">
<title>Node17&#45;&gt;Node19</title>
<g id="a_edge18_Node000017_Node000019"><a xlink:title=" ">
<path fill="none" stroke="#63b8ff" d="M1242.66,-65.77C1245.85,-57.58 1249.57,-48.01 1252.89,-39.46"/>
<polygon fill="#63b8ff" stroke="#63b8ff" points="1256.19,-40.63 1256.55,-30.04 1249.66,-38.09 1256.19,-40.63"/>
</a>
</g>
</g>
<!-- Node21&#45;&gt;Node22 -->
<g id="edge21_Node000021_Node000022" class="edge">
<title>Node21&#45;&gt;Node22</title>
<g id="a_edge21_Node000021_Node000022"><a xlink:title=" ">
<path fill="none" stroke="#63b8ff" d="M1550.56,-76.94C1564.87,-73.16 1582.22,-68.93 1598,-66 1723.27,-42.74 1872.3,-27.56 1950.65,-20.54"/>
<polygon fill="#63b8ff" stroke="#63b8ff" points="1951.11,-24.01 1960.76,-19.64 1950.49,-17.04 1951.11,-24.01"/>
</a>
</g>
</g>
<!-- Node25&#45;&gt;Node22 -->
<g id="edge25_Node000025_Node000022" class="edge">
<title>Node25&#45;&gt;Node22</title>
<g id="a_edge25_Node000025_Node000022"><a xlink:title=" ">
<path fill="none" stroke="#63b8ff" d="M2005,-76.98C2005,-66.56 2005,-48.61 2005,-34.88"/>
<polygon fill="#63b8ff" stroke="#63b8ff" points="2008.5,-34.59 2005,-24.59 2001.5,-34.59 2008.5,-34.59"/>
</a>
</g>
</g>
<!-- Node27&#45;&gt;Node22 -->
<g id="edge28_Node000027_Node000022" class="edge">
<title>Node27&#45;&gt;Node22</title>
<g id="a_edge28_Node000027_Node000022"><a xlink:title=" ">
<path fill="none" stroke="#63b8ff" d="M2244.58,-76.95C2234.34,-73.35 2222.14,-69.25 2211,-66 2158.13,-50.57 2096.67,-36.1 2054.73,-26.73"/>
<polygon fill="#63b8ff" stroke="#63b8ff" points="2055.3,-23.27 2044.78,-24.52 2053.78,-30.1 2055.3,-23.27"/>
</a>
</g>
</g>
<!-- Node29&#45;&gt;Node22 -->
<g id="edge31_Node000029_Node000022" class="edge">
<title>Node29&#45;&gt;Node22</title>
<g id="a_edge31_Node000029_Node000022"><a xlink:title=" ">
<path fill="none" stroke="#63b8ff" d="M2487.43,-76.99C2472.86,-73.18 2455.13,-68.91 2439,-66 2303.35,-41.55 2141.59,-26.62 2059.14,-20.01"/>
<polygon fill="#63b8ff" stroke="#63b8ff" points="2059.25,-16.51 2049.01,-19.21 2058.7,-23.49 2059.25,-16.51"/>
</a>
</g>
</g>
</g>
</svg>
