<?xml version="1.0" encoding="UTF-8" standalone="no"?>
<!DOCTYPE svg PUBLIC "-//W3C//DTD SVG 1.1//EN"
 "http://www.w3.org/Graphics/SVG/1.1/DTD/svg11.dtd">
<!-- Generated by graphviz version 2.43.0 (0)
 -->
<!-- Title: include/core.hpp Pages: 1 -->
<svg width="3797pt" height="170pt"
 viewBox="0.00 0.00 3796.50 170.00" xmlns="http://www.w3.org/2000/svg" xmlns:xlink="http://www.w3.org/1999/xlink">
<g id="graph0" class="graph" transform="scale(1 1) rotate(0) translate(4 166)">
<title>include/core.hpp</title>
<!-- Node1 -->
<g id="Node000001" class="node">
<title>Node1</title>
<g id="a_Node000001"><a xlink:title="Umbrella header for the engine core module.">
<polygon fill="#999999" stroke="#666666" points="1479.5,-162 1382.5,-162 1382.5,-143 1479.5,-143 1479.5,-162"/>
<text text-anchor="middle" x="1431" y="-150" font-family="Helvetica,sans-Serif" font-size="10.00">include/core.hpp</text>
</a>
</g>
</g>
<!-- Node2 -->
<g id="Node000002" class="node">
<title>Node2</title>
<g id="a_Node000002"><a xlink:title=" ">
<polygon fill="#e0e0e0" stroke="#999999" points="64,-96 0,-96 0,-77 64,-77 64,-96"/>
<text text-anchor="middle" x="32" y="-84" font-family="Helvetica,sans-Serif" font-size="10.00">algorithm</text>
</a>
</g>
</g>
<!-- Node1&#45;&gt;Node2 -->
<g id="edge1_Node000001_Node000002" class="edge">
<title>Node1&#45;&gt;Node2</title>
<g id="a_edge1_Node000001_Node000002"><a xlink:title=" ">
<path fill="none" stroke="#63b8ff" d="M1382.14,-151.08C1154.31,-148.97 202.01,-138.35 73,-107 67.01,-105.55 60.86,-103.16 55.2,-100.55"/>
<polygon fill="#63b8ff" stroke="#63b8ff" points="56.77,-97.42 46.26,-96.07 53.63,-103.68 56.77,-97.42"/>
</a>
</g>
</g>
<!-- Node3 -->
<g id="Node000003" class="node">
<title>Node3</title>
<g id="a_Node000003"><a xlink:title=" ">
<polygon fill="#e0e0e0" stroke="#999999" points="124,-96 82,-96 82,-77 124,-77 124,-96"/>
<text text-anchor="middle" x="103" y="-84" font-family="Helvetica,sans-Serif" font-size="10.00">array</text>
</a>
</g>
</g>
<!-- Node1&#45;&gt;Node3 -->
<g id="edge2_Node000001_Node000003" class="edge">
<title>Node1&#45;&gt;Node3</title>
<g id="a_edge2_Node000001_Node000003"><a xlink:title=" ">
<path fill="none" stroke="#63b8ff" d="M1382.36,-151.37C1160.93,-150.58 253.7,-145.04 133,-107 129.05,-105.75 125.12,-103.83 121.47,-101.67"/>
<polygon fill="#63b8ff" stroke="#63b8ff" points="123.37,-98.73 113.11,-96.06 119.46,-104.54 123.37,-98.73"/>
</a>
</g>
</g>
<!-- Node4 -->
<g id="Node000004" class="node">
<title>Node4</title>
<g id="a_Node000004"><a xlink:title=" ">
<polygon fill="#e0e0e0" stroke="#999999" points="171.5,-96 142.5,-96 142.5,-77 171.5,-77 171.5,-96"/>
<text text-anchor="middle" x="157" y="-84" font-family="Helvetica,sans-Serif" font-size="10.00">bit</text>
</a>
</g>
</g>
<!-- Node1&#45;&gt;Node4 -->
<g id="edge3_Node000001_Node000004" class="edge">
<title>Node1&#45;&gt;Node4</title>
<g id="a_edge3_Node000001_Node000004"><a xlink:title=" ">
<path fill="none" stroke="#63b8ff" d="M1382.2,-151.65C1165.2,-152.05 293.43,-150.92 180,-107 177.44,-106.01 174.96,-104.6 172.64,-102.99"/>
<polygon fill="#63b8ff" stroke="#63b8ff" points="174.52,-100.01 164.62,-96.24 170.01,-105.36 174.52,-100.01"/>
</a>
</g>
</g>
<!-- Node5 -->
<g id="Node000005" class="node">
<title>Node5</title>
<g id="a_Node000005"><a xlink:title=" ">
<polygon fill="#e0e0e0" stroke="#999999" points="248.5,-96 189.5,-96 189.5,-77 248.5,-77 248.5,-96"/>
<text text-anchor="middle" x="219" y="-84" font-family="Helvetica,sans-Serif" font-size="10.00">compare</text>
</a>
</g>
</g>
<!-- Node1&#45;&gt;Node5 -->
<g id="edge4_Node000001_Node000005" class="edge">
<title>Node1&#45;&gt;Node5</title>
<g id="a_edge4_Node000001_Node000005"><a xlink:title=" ">
<path fill="none" stroke="#63b8ff" d="M1382.34,-150.87C1174.64,-148.01 367.94,-135.16 258,-107 252.41,-105.57 246.69,-103.26 241.41,-100.72"/>
<polygon fill="#63b8ff" stroke="#63b8ff" points="243,-97.6 232.52,-96.05 239.74,-103.8 243,-97.6"/>
</a>
</g>
</g>
<!-- Node6 -->
<g id="Node000006" class="node">
<title>Node6</title>
<g id="a_Node000006"><a xlink:title=" ">
<polygon fill="#e0e0e0" stroke="#999999" points="327,-96 267,-96 267,-77 327,-77 327,-96"/>
<text text-anchor="middle" x="297" y="-84" font-family="Helvetica,sans-Serif" font-size="10.00">concepts</text>
</a>
</g>
</g>
<!-- Node1&#45;&gt;Node6 -->
<g id="edge5_Node000001_Node000006" class="edge">
<title>Node1&#45;&gt;Node6</title>
<g id="a_edge5_Node000001_Node000006"><a xlink:title=" ">
<path fill="none" stroke="#63b8ff" d="M1382.26,-150.73C1183.25,-147.4 438.03,-133.28 336,-107 330.41,-105.56 324.69,-103.25 319.41,-100.71"/>
<polygon fill="#63b8ff" stroke="#63b8ff" points="321,-97.59 310.52,-96.04 317.75,-103.79 321,-97.59"/>
</a>
</g>
</g>
<!-- Node7 -->
<g id="Node000007" class="node">
<title>Node7</title>
<g id="a_Node000007"><a xlink:title=" ">
<polygon fill="#e0e0e0" stroke="#999999" points="398.5,-96 345.5,-96 345.5,-77 398.5,-77 398.5,-96"/>
<text text-anchor="middle" x="372" y="-84" font-family="Helvetica,sans-Serif" font-size="10.00">cstddef</text>
</a>
</g>
</g>
<!-- Node1&#45;&gt;Node7 -->
<g id="edge6_Node000001_Node000007" class="edge">
<title>Node1&#45;&gt;Node7</title>
<g id="a_edge6_Node000001_Node000007"><a xlink:title=" ">
<path fill="none" stroke="#63b8ff" d="M1382.24,-150.67C1191.58,-147.23 502.34,-133.1 408,-107 403.04,-105.63 398,-103.47 393.33,-101.08"/>
<polygon fill="#63b8ff" stroke="#63b8ff" points="394.82,-97.91 384.39,-96.03 391.38,-104 394.82,-97.91"/>
</a>
</g>
</g>
<!-- Node8 -->
<g id="Node000008" class="node">
<title>Node8</title>
<g id="a_Node000008"><a xlink:title=" ">
<polygon fill="#e0e0e0" stroke="#999999" points="467,-96 417,-96 417,-77 467,-77 467,-96"/>
<text text-anchor="middle" x="442" y="-84" font-family="Helvetica,sans-Serif" font-size="10.00">cstdint</text>
</a>
</g>
</g>
<!-- Node1&#45;&gt;Node8 -->
<g id="edge7_Node000001_Node000008" class="edge">
<title>Node1&#45;&gt;Node8</title>
<g id="a_edge7_Node000001_Node000008"><a xlink:title=" ">
<path fill="none" stroke="#63b8ff" d="M1382.39,-150.57C1200.11,-146.92 563.24,-132.43 476,-107 471.39,-105.66 466.74,-103.57 462.42,-101.26"/>
<polygon fill="#63b8ff" stroke="#63b8ff" points="464.03,-98.14 453.64,-96.03 460.44,-104.15 464.03,-98.14"/>
</a>
</g>
</g>
<!-- Node9 -->
<g id="Node000009" class="node">
<title>Node9</title>
<g id="a_Node000009"><a xlink:title=" ">
<polygon fill="#e0e0e0" stroke="#999999" points="535,-96 485,-96 485,-77 535,-77 535,-96"/>
<text text-anchor="middle" x="510" y="-84" font-family="Helvetica,sans-Serif" font-size="10.00">cstring</text>
</a>
</g>
</g>
<!-- Node1&#45;&gt;Node9 -->
<g id="edge8_Node000001_Node000009" class="edge">
<title>Node1&#45;&gt;Node9</title>
<g id="a_edge8_Node000001_Node000009"><a xlink:title=" ">
<path fill="none" stroke="#63b8ff" d="M1382.27,-152.03C1220.58,-153.34 703.04,-153.67 544,-107 539.39,-105.65 534.75,-103.56 530.43,-101.25"/>
<polygon fill="#63b8ff" stroke="#63b8ff" points="532.03,-98.13 521.65,-96.01 528.45,-104.14 532.03,-98.13"/>
</a>
</g>
</g>
<!-- Node10 -->
<g id="Node000010" class="node">
<title>Node10</title>
<g id="a_Node000010"><a xlink:title=" ">
<polygon fill="#e0e0e0" stroke="#999999" points="602.5,-96 553.5,-96 553.5,-77 602.5,-77 602.5,-96"/>
<text text-anchor="middle" x="578" y="-84" font-family="Helvetica,sans-Serif" font-size="10.00">cuchar</text>
</a>
</g>
</g>
<!-- Node1&#45;&gt;Node10 -->
<g id="edge9_Node000001_Node000010" class="edge">
<title>Node1&#45;&gt;Node10</title>
<g id="a_edge9_Node000001_Node000010"><a xlink:title=" ">
<path fill="none" stroke="#63b8ff" d="M1382.48,-151.88C1229.15,-152.59 756.58,-151.07 611,-107 606.63,-105.68 602.23,-103.66 598.13,-101.42"/>
<polygon fill="#63b8ff" stroke="#63b8ff" points="599.63,-98.23 589.27,-96 595.98,-104.21 599.63,-98.23"/>
</a>
</g>
</g>
<!-- Node11 -->
<g id="Node000011" class="node">
<title>Node11</title>
<g id="a_Node000011"><a xlink:title=" ">
<polygon fill="#e0e0e0" stroke="#999999" points="703.5,-96 620.5,-96 620.5,-77 703.5,-77 703.5,-96"/>
<text text-anchor="middle" x="662" y="-84" font-family="Helvetica,sans-Serif" font-size="10.00">initializer_list</text>
</a>
</g>
</g>
<!-- Node1&#45;&gt;Node11 -->
<g id="edge10_Node000001_Node000011" class="edge">
<title>Node1&#45;&gt;Node11</title>
<g id="a_edge10_Node000001_Node000011"><a xlink:title=" ">
<path fill="none" stroke="#63b8ff" d="M1382.12,-150.44C1241.91,-147.1 840.24,-135.25 712,-107 704.49,-105.35 696.63,-102.73 689.42,-99.95"/>
<polygon fill="#63b8ff" stroke="#63b8ff" points="690.68,-96.68 680.1,-96.13 688.02,-103.16 690.68,-96.68"/>
</a>
</g>
</g>
<!-- Node12 -->
<g id="Node000012" class="node">
<title>Node12</title>
<g id="a_Node000012"><a xlink:title=" ">
<polygon fill="#e0e0e0" stroke="#999999" points="774.5,-96 721.5,-96 721.5,-77 774.5,-77 774.5,-96"/>
<text text-anchor="middle" x="748" y="-84" font-family="Helvetica,sans-Serif" font-size="10.00">iterator</text>
</a>
</g>
</g>
<!-- Node1&#45;&gt;Node12 -->
<g id="edge11_Node000001_Node000012" class="edge">
<title>Node1&#45;&gt;Node12</title>
<g id="a_edge11_Node000001_Node000012"><a xlink:title=" ">
<path fill="none" stroke="#63b8ff" d="M1382.21,-150.82C1251.58,-148.58 896.18,-139.57 784,-107 779.14,-105.59 774.19,-103.45 769.59,-101.1"/>
<polygon fill="#63b8ff" stroke="#63b8ff" points="771.18,-97.99 760.75,-96.15 767.76,-104.09 771.18,-97.99"/>
</a>
</g>
</g>
<!-- Node13 -->
<g id="Node000013" class="node">
<title>Node13</title>
<g id="a_Node000013"><a xlink:title=" ">
<polygon fill="#e0e0e0" stroke="#999999" points="851,-96 793,-96 793,-77 851,-77 851,-96"/>
<text text-anchor="middle" x="822" y="-84" font-family="Helvetica,sans-Serif" font-size="10.00">memory</text>
</a>
</g>
</g>
<!-- Node1&#45;&gt;Node13 -->
<g id="edge12_Node000001_Node000013" class="edge">
<title>Node1&#45;&gt;Node13</title>
<g id="a_edge12_Node000001_Node000013"><a xlink:title=" ">
<path fill="none" stroke="#63b8ff" d="M1382.41,-150.17C1262.98,-146.51 957.7,-134.67 860,-107 854.78,-105.52 849.45,-103.3 844.48,-100.87"/>
<polygon fill="#63b8ff" stroke="#63b8ff" points="846,-97.72 835.53,-96.11 842.71,-103.9 846,-97.72"/>
</a>
</g>
</g>
<!-- Node14 -->
<g id="Node000014" class="node">
<title>Node14</title>
<g id="a_Node000014"><a xlink:title=" ">
<polygon fill="#e0e0e0" stroke="#999999" points="934.5,-96 869.5,-96 869.5,-77 934.5,-77 934.5,-96"/>
<text text-anchor="middle" x="902" y="-84" font-family="Helvetica,sans-Serif" font-size="10.00">stdexcept</text>
</a>
</g>
</g>
<!-- Node1&#45;&gt;Node14 -->
<g id="edge13_Node000001_Node000014" class="edge">
<title>Node1&#45;&gt;Node14</title>
<g id="a_edge13_Node000001_Node000014"><a xlink:title=" ">
<path fill="none" stroke="#63b8ff" d="M1382.26,-149.17C1275.85,-143.74 1025.78,-129.01 944,-107 938.03,-105.39 931.86,-102.99 926.15,-100.42"/>
<polygon fill="#63b8ff" stroke="#63b8ff" points="927.61,-97.24 917.08,-96.04 924.56,-103.54 927.61,-97.24"/>
</a>
</g>
</g>
<!-- Node15 -->
<g id="Node000015" class="node">
<title>Node15</title>
<g id="a_Node000015"><a xlink:title=" ">
<polygon fill="#e0e0e0" stroke="#999999" points="997,-96 953,-96 953,-77 997,-77 997,-96"/>
<text text-anchor="middle" x="975" y="-84" font-family="Helvetica,sans-Serif" font-size="10.00">string</text>
</a>
</g>
</g>
<!-- Node1&#45;&gt;Node15 -->
<g id="edge14_Node000001_Node000015" class="edge">
<title>Node1&#45;&gt;Node15</title>
<g id="a_edge14_Node000001_Node000015"><a xlink:title=" ">
<path fill="none" stroke="#63b8ff" d="M1382.49,-149.19C1286.25,-144.15 1074.54,-130.7 1006,-107 1002.06,-105.64 998.1,-103.69 994.39,-101.55"/>
<polygon fill="#63b8ff" stroke="#63b8ff" points="996.15,-98.52 985.85,-96.05 992.36,-104.41 996.15,-98.52"/>
</a>
</g>
</g>
<!-- Node16 -->
<g id="Node000016" class="node">
<title>Node16</title>
<g id="a_Node000016"><a xlink:title=" ">
<polygon fill="#e0e0e0" stroke="#999999" points="1084.5,-96 1015.5,-96 1015.5,-77 1084.5,-77 1084.5,-96"/>
<text text-anchor="middle" x="1050" y="-84" font-family="Helvetica,sans-Serif" font-size="10.00">type_traits</text>
</a>
</g>
</g>
<!-- Node1&#45;&gt;Node16 -->
<g id="edge15_Node000001_Node000016" class="edge">
<title>Node1&#45;&gt;Node16</title>
<g id="a_edge15_Node000001_Node000016"><a xlink:title=" ">
<path fill="none" stroke="#63b8ff" d="M1382.23,-149.58C1315.71,-145.95 1193.3,-135.66 1093,-107 1087.04,-105.3 1080.85,-102.9 1075.09,-100.37"/>
<polygon fill="#63b8ff" stroke="#63b8ff" points="1076.45,-97.14 1065.91,-96.07 1073.48,-103.48 1076.45,-97.14"/>
</a>
</g>
</g>
<!-- Node17 -->
<g id="Node000017" class="node">
<title>Node17</title>
<g id="a_Node000017"><a xlink:title=" ">
<polygon fill="#e0e0e0" stroke="#999999" points="1147.5,-96 1102.5,-96 1102.5,-77 1147.5,-77 1147.5,-96"/>
<text text-anchor="middle" x="1125" y="-84" font-family="Helvetica,sans-Serif" font-size="10.00">utility</text>
</a>
</g>
</g>
<!-- Node1&#45;&gt;Node17 -->
<g id="edge16_Node000001_Node000017" class="edge">
<title>Node1&#45;&gt;Node17</title>
<g id="a_edge16_Node000001_Node000017"><a xlink:title=" ">
<path fill="none" stroke="#63b8ff" d="M1382.25,-148.16C1327.47,-143.33 1236.48,-132.05 1162,-107 1157.18,-105.38 1152.22,-103.18 1147.57,-100.85"/>
<polygon fill="#63b8ff" stroke="#63b8ff" points="1149.05,-97.67 1138.58,-96.01 1145.73,-103.83 1149.05,-97.67"/>
</a>
</g>
</g>
<!-- Node18 -->
<g id="Node000018" class="node">
<title>Node18</title>
<g id="a_Node000018"><a xlink:href="../../dd/d9e/linux_2platform__config_8hpp.html" target="_top" xlink:title="additional linux platform header">
<polygon fill="white" stroke="#666666" points="1359.5,-107 1204.5,-107 1204.5,-66 1359.5,-66 1359.5,-107"/>
<text text-anchor="start" x="1212.5" y="-95" font-family="Helvetica,sans-Serif" font-size="10.00">/home/runner/work/toygine2</text>
<text text-anchor="start" x="1212.5" y="-84" font-family="Helvetica,sans-Serif" font-size="10.00">/toygine2/src/platforms</text>
<text text-anchor="middle" x="1282" y="-73" font-family="Helvetica,sans-Serif" font-size="10.00">/linux/platform_config.hpp</text>
</a>
</g>
</g>
<!-- Node1&#45;&gt;Node18 -->
<g id="edge17_Node000001_Node000018" class="edge">
<title>Node1&#45;&gt;Node18</title>
<g id="a_edge17_Node000001_Node000018"><a xlink:title=" ">
<path fill="none" stroke="#63b8ff" d="M1410.91,-142.87C1391.95,-134.72 1362.65,-122.14 1336.77,-111.03"/>
<polygon fill="#63b8ff" stroke="#63b8ff" points="1337.99,-107.74 1327.42,-107.01 1335.23,-114.17 1337.99,-107.74"/>
</a>
</g>
</g>
<!-- Node19 -->
<g id="Node000019" class="node">
<title>Node19</title>
<g id="a_Node000019"><a xlink:href="../../d3/d60/platform_8hpp.html" target="_top" xlink:title="Platform and CPU architecture enumerations with compile&#45;time and runtime detection utilities.">
<polygon fill="white" stroke="#666666" points="1227.5,-30 1124.5,-30 1124.5,0 1227.5,0 1227.5,-30"/>
<text text-anchor="start" x="1132.5" y="-18" font-family="Helvetica,sans-Serif" font-size="10.00">../../../include/core</text>
<text text-anchor="middle" x="1176" y="-7" font-family="Helvetica,sans-Serif" font-size="10.00">/platform.hpp</text>
</a>
</g>
</g>
<!-- Node1&#45;&gt;Node19 -->
<g id="edge33_Node000001_Node000019" class="edge">
<title>Node1&#45;&gt;Node19</title>
<g id="a_edge33_Node000001_Node000019"><a xlink:title=" ">
<path fill="none" stroke="#63b8ff" d="M1382.37,-148.59C1321.19,-143.89 1220.97,-132.47 1195,-107 1177.52,-89.85 1174.08,-61.07 1174.19,-40.46"/>
<polygon fill="#63b8ff" stroke="#63b8ff" points="1177.69,-40.37 1174.52,-30.26 1170.7,-40.13 1177.69,-40.37"/>
</a>
</g>
</g>
<!-- Node21 -->
<g id="Node000021" class="node">
<title>Node21</title>
<g id="a_Node000021"><a xlink:href="../../d5/d96/assertion_8hpp.html" target="_top" xlink:title="Assertion system for runtime and compile&#45;time validation of engine invariants.">
<polygon fill="white" stroke="#666666" points="1484.5,-96 1377.5,-96 1377.5,-77 1484.5,-77 1484.5,-96"/>
<text text-anchor="middle" x="1431" y="-84" font-family="Helvetica,sans-Serif" font-size="10.00">core/assertion.hpp</text>
</a>
</g>
</g>
<!-- Node1&#45;&gt;Node21 -->
<g id="edge20_Node000001_Node000021" class="edge">
<title>Node1&#45;&gt;Node21</title>
<g id="a_edge20_Node000001_Node000021"><a xlink:title=" ">
<path fill="none" stroke="#63b8ff" d="M1431,-142.87C1431,-133.66 1431,-118.79 1431,-106.77"/>
<polygon fill="#63b8ff" stroke="#63b8ff" points="1434.5,-106.41 1431,-96.41 1427.5,-106.41 1434.5,-106.41"/>
</a>
</g>
</g>
<!-- Node22 -->
<g id="Node000022" class="node">
<title>Node22</title>
<g id="a_Node000022"><a xlink:href="../../dd/ded/c__string__view_8hpp.html" target="_top" xlink:title="Non&#45;owning string view class for C&#45;style strings.">
<polygon fill="white" stroke="#666666" points="1631,-96 1503,-96 1503,-77 1631,-77 1631,-96"/>
<text text-anchor="middle" x="1567" y="-84" font-family="Helvetica,sans-Serif" font-size="10.00">core/c_string_view.hpp</text>
</a>
</g>
</g>
<!-- Node1&#45;&gt;Node22 -->
<g id="edge21_Node000001_Node000022" class="edge">
<title>Node1&#45;&gt;Node22</title>
<g id="a_edge21_Node000001_Node000022"><a xlink:title=" ">
<path fill="none" stroke="#63b8ff" d="M1449.34,-142.87C1472.46,-131.99 1512.41,-113.19 1539.27,-100.55"/>
<polygon fill="#63b8ff" stroke="#63b8ff" points="1540.96,-103.62 1548.51,-96.2 1537.98,-97.29 1540.96,-103.62"/>
</a>
</g>
</g>
<!-- Node23 -->
<g id="Node000023" class="node">
<title>Node23</title>
<g id="a_Node000023"><a xlink:href="../../de/deb/string__like_8hpp.html" target="_top" xlink:title="C++ concept for string&#45;like types with size() and c_str() methods.">
<polygon fill="white" stroke="#666666" points="2096,-24.5 2008,-24.5 2008,-5.5 2096,-5.5 2096,-24.5"/>
<text text-anchor="middle" x="2052" y="-12.5" font-family="Helvetica,sans-Serif" font-size="10.00">string_like.hpp</text>
</a>
</g>
</g>
<!-- Node1&#45;&gt;Node23 -->
<g id="edge34_Node000001_Node000023" class="edge">
<title>Node1&#45;&gt;Node23</title>
<g id="a_edge34_Node000001_Node000023"><a xlink:title=" ">
<path fill="none" stroke="#63b8ff" d="M1479.58,-149.45C1523.93,-145.72 1590,-135.4 1640,-107 1661.6,-94.73 1655.94,-77.43 1678,-66 1732.53,-37.74 1907.85,-24.05 1997.74,-18.75"/>
<polygon fill="#63b8ff" stroke="#63b8ff" points="1997.96,-22.25 2007.74,-18.18 1997.56,-15.26 1997.96,-22.25"/>
</a>
</g>
</g>
<!-- Node24 -->
<g id="Node000024" class="node">
<title>Node24</title>
<g id="a_Node000024"><a xlink:href="../../d1/d5c/callbacks__pool_8hpp.html" target="_top" xlink:title="Template callback pool class with fixed&#45;size callback storage.">
<polygon fill="white" stroke="#666666" points="1821,-96 1687,-96 1687,-77 1821,-77 1821,-96"/>
<text text-anchor="middle" x="1754" y="-84" font-family="Helvetica,sans-Serif" font-size="10.00">core/callbacks_pool.hpp</text>
</a>
</g>
</g>
<!-- Node1&#45;&gt;Node24 -->
<g id="edge23_Node000001_Node000024" class="edge">
<title>Node1&#45;&gt;Node24</title>
<g id="a_edge23_Node000001_Node000024"><a xlink:title=" ">
<path fill="none" stroke="#63b8ff" d="M1479.82,-143.33C1528.81,-134.93 1606.35,-121.14 1673,-107 1685.16,-104.42 1698.28,-101.38 1710.35,-98.47"/>
<polygon fill="#63b8ff" stroke="#63b8ff" points="1711.31,-101.84 1720.2,-96.07 1709.66,-95.04 1711.31,-101.84"/>
</a>
</g>
</g>
<!-- Node25 -->
<g id="Node000025" class="node">
<title>Node25</title>
<g id="a_Node000025"><a xlink:href="../../d4/dc0/constexpr__utils_8hpp.html" target="_top" xlink:title="Constexpr utility functions for compile&#45;time operations.">
<polygon fill="white" stroke="#666666" points="1975,-96 1839,-96 1839,-77 1975,-77 1975,-96"/>
<text text-anchor="middle" x="1907" y="-84" font-family="Helvetica,sans-Serif" font-size="10.00">core/constexpr_utils.hpp</text>
</a>
</g>
</g>
<!-- Node1&#45;&gt;Node25 -->
<g id="edge24_Node000001_Node000025" class="edge">
<title>Node1&#45;&gt;Node25</title>
<g id="a_edge24_Node000001_Node000025"><a xlink:title=" ">
<path fill="none" stroke="#63b8ff" d="M1479.52,-148.24C1554.95,-142.7 1704.67,-129.75 1830,-107 1842.3,-104.77 1855.54,-101.67 1867.51,-98.6"/>
<polygon fill="#63b8ff" stroke="#63b8ff" points="1868.44,-101.98 1877.22,-96.05 1866.66,-95.21 1868.44,-101.98"/>
</a>
</g>
</g>
<!-- Node26 -->
<g id="Node000026" class="node">
<title>Node26</title>
<g id="a_Node000026"><a xlink:href="../../d7/d7f/fixed__string_8hpp.html" target="_top" xlink:title="Template string class with fixed&#45;size character buffer.">
<polygon fill="white" stroke="#666666" points="2111,-96 1993,-96 1993,-77 2111,-77 2111,-96"/>
<text text-anchor="middle" x="2052" y="-84" font-family="Helvetica,sans-Serif" font-size="10.00">core/fixed_string.hpp</text>
</a>
</g>
</g>
<!-- Node1&#45;&gt;Node26 -->
<g id="edge25_Node000001_Node000026" class="edge">
<title>Node1&#45;&gt;Node26</title>
<g id="a_edge25_Node000001_Node000026"><a xlink:title=" ">
<path fill="none" stroke="#63b8ff" d="M1479.87,-150.82C1576.8,-148.76 1799.92,-140.46 1984,-107 1994.9,-105.02 2006.55,-102.01 2017.09,-98.95"/>
<polygon fill="#63b8ff" stroke="#63b8ff" points="2018.21,-102.27 2026.77,-96.03 2016.19,-95.57 2018.21,-102.27"/>
</a>
</g>
</g>
<!-- Node27 -->
<g id="Node000027" class="node">
<title>Node27</title>
<g id="a_Node000027"><a xlink:href="../../d7/dea/fixed__vector_8hpp.html" target="_top" xlink:title="TODO.">
<polygon fill="white" stroke="#666666" points="2249,-96 2129,-96 2129,-77 2249,-77 2249,-96"/>
<text text-anchor="middle" x="2189" y="-84" font-family="Helvetica,sans-Serif" font-size="10.00">core/fixed_vector.hpp</text>
</a>
</g>
</g>
<!-- Node1&#45;&gt;Node27 -->
<g id="edge27_Node000001_Node000027" class="edge">
<title>Node1&#45;&gt;Node27</title>
<g id="a_edge27_Node000001_Node000027"><a xlink:title=" ">
<path fill="none" stroke="#63b8ff" d="M1479.86,-151.86C1593.22,-151.94 1882.54,-147.75 2120,-107 2131.16,-105.09 2143.09,-102.07 2153.85,-98.98"/>
<polygon fill="#63b8ff" stroke="#63b8ff" points="2155.16,-102.24 2163.74,-96.02 2153.15,-95.53 2155.16,-102.24"/>
</a>
</g>
</g>
<!-- Node28 -->
<g id="Node000028" class="node">
<title>Node28</title>
<g id="a_Node000028"><a xlink:href="../../d4/d0a/format_8hpp.html" target="_top" xlink:title="Compile&#45;time format string validation class.">
<polygon fill="white" stroke="#666666" points="2362.5,-96 2267.5,-96 2267.5,-77 2362.5,-77 2362.5,-96"/>
<text text-anchor="middle" x="2315" y="-84" font-family="Helvetica,sans-Serif" font-size="10.00">core/format.hpp</text>
</a>
</g>
</g>
<!-- Node1&#45;&gt;Node28 -->
<g id="edge28_Node000001_Node000028" class="edge">
<title>Node1&#45;&gt;Node28</title>
<g id="a_edge28_Node000001_Node000028"><a xlink:title=" ">
<path fill="none" stroke="#63b8ff" d="M1479.62,-150.64C1633.32,-147.65 2107.41,-136.23 2258,-107 2266.93,-105.27 2276.37,-102.46 2284.94,-99.51"/>
<polygon fill="#63b8ff" stroke="#63b8ff" points="2286.32,-102.74 2294.53,-96.04 2283.93,-96.15 2286.32,-102.74"/>
</a>
</g>
</g>
<!-- Node29 -->
<g id="Node000029" class="node">
<title>Node29</title>
<g id="a_Node000029"><a xlink:href="../../dd/d8e/hashes_8hpp.html" target="_top" xlink:title="CRC hash functions.">
<polygon fill="white" stroke="#666666" points="2477,-96 2381,-96 2381,-77 2477,-77 2477,-96"/>
<text text-anchor="middle" x="2429" y="-84" font-family="Helvetica,sans-Serif" font-size="10.00">core/hashes.hpp</text>
</a>
</g>
</g>
<!-- Node1&#45;&gt;Node29 -->
<g id="edge30_Node000001_Node000029" class="edge">
<title>Node1&#45;&gt;Node29</title>
<g id="a_edge30_Node000001_Node000029"><a xlink:title=" ">
<path fill="none" stroke="#63b8ff" d="M1479.74,-151.01C1647.23,-149.03 2198.39,-140.11 2372,-107 2380.93,-105.3 2390.38,-102.5 2398.95,-99.55"/>
<polygon fill="#63b8ff" stroke="#63b8ff" points="2400.33,-102.77 2408.54,-96.07 2397.94,-96.19 2400.33,-102.77"/>
</a>
</g>
</g>
<!-- Node30 -->
<g id="Node000030" class="node">
<title>Node30</title>
<g id="a_Node000030"><a xlink:href="../../de/d2d/o__string__stream_8hpp.html" target="_top" xlink:title="Output string stream class for building strings from various data types.">
<polygon fill="white" stroke="#666666" points="2635,-96 2495,-96 2495,-77 2635,-77 2635,-96"/>
<text text-anchor="middle" x="2565" y="-84" font-family="Helvetica,sans-Serif" font-size="10.00">core/o_string_stream.hpp</text>
</a>
</g>
</g>
<!-- Node1&#45;&gt;Node30 -->
<g id="edge31_Node000001_Node000030" class="edge">
<title>Node1&#45;&gt;Node30</title>
<g id="a_edge31_Node000001_Node000030"><a xlink:title=" ">
<path fill="none" stroke="#63b8ff" d="M1479.52,-150.74C1659.36,-147.73 2287.74,-135.36 2486,-107 2499.35,-105.09 2513.73,-101.89 2526.52,-98.63"/>
<polygon fill="#63b8ff" stroke="#63b8ff" points="2527.6,-101.97 2536.38,-96.03 2525.82,-95.2 2527.6,-101.97"/>
</a>
</g>
</g>
<!-- Node31 -->
<g id="Node000031" class="node">
<title>Node31</title>
<g id="a_Node000031"><a xlink:href="../../d8/d43/core_2utils_8hpp.html" target="_top" xlink:title="Core utility functions for string manipulation, encoding conversion, and number formatting.">
<polygon fill="white" stroke="#666666" points="2736.5,-96 2653.5,-96 2653.5,-77 2736.5,-77 2736.5,-96"/>
<text text-anchor="middle" x="2695" y="-84" font-family="Helvetica,sans-Serif" font-size="10.00">core/utils.hpp</text>
</a>
</g>
</g>
<!-- Node1&#45;&gt;Node31 -->
<g id="edge35_Node000001_Node000031" class="edge">
<title>Node1&#45;&gt;Node31</title>
<g id="a_edge35_Node000001_Node000031"><a xlink:title=" ">
<path fill="none" stroke="#63b8ff" d="M1479.69,-151.84C1676.78,-152.87 2415.7,-153.5 2644,-107 2651.88,-105.4 2660.14,-102.71 2667.66,-99.84"/>
<polygon fill="#63b8ff" stroke="#63b8ff" points="2669.08,-103.04 2677.02,-96.04 2666.44,-96.56 2669.08,-103.04"/>
</a>
</g>
</g>
<!-- Node32 -->
<g id="Node000032" class="node">
<title>Node32</title>
<g id="a_Node000032"><a xlink:href="../../df/d4a/c__string__view_8inl.html" target="_top" xlink:title="Inline implementations for CStringView class.">
<polygon fill="white" stroke="#666666" points="2877,-96 2755,-96 2755,-77 2877,-77 2877,-96"/>
<text text-anchor="middle" x="2816" y="-84" font-family="Helvetica,sans-Serif" font-size="10.00">core/c_string_view.inl</text>
</a>
</g>
</g>
<!-- Node1&#45;&gt;Node32 -->
<g id="edge36_Node000001_Node000032" class="edge">
<title>Node1&#45;&gt;Node32</title>
<g id="a_edge36_Node000001_Node000032"><a xlink:title=" ">
<path fill="none" stroke="#63b8ff" d="M1479.76,-151.4C1686.91,-150.74 2494.83,-145.67 2746,-107 2757.65,-105.21 2770.11,-102.13 2781.25,-98.94"/>
<polygon fill="#63b8ff" stroke="#63b8ff" points="2782.46,-102.23 2791.04,-96.01 2780.46,-95.52 2782.46,-102.23"/>
</a>
</g>
</g>
<!-- Node33 -->
<g id="Node000033" class="node">
<title>Node33</title>
<g id="a_Node000033"><a xlink:href="../../d6/ddb/callbacks__pool_8inl.html" target="_top" xlink:title="Inline implementations for template callback pool class with fixed&#45;size callback storage.">
<polygon fill="white" stroke="#666666" points="3023,-96 2895,-96 2895,-77 3023,-77 3023,-96"/>
<text text-anchor="middle" x="2959" y="-84" font-family="Helvetica,sans-Serif" font-size="10.00">core/callbacks_pool.inl</text>
</a>
</g>
</g>
<!-- Node1&#45;&gt;Node33 -->
<g id="edge37_Node000001_Node000033" class="edge">
<title>Node1&#45;&gt;Node33</title>
<g id="a_edge37_Node000001_Node000033"><a xlink:title=" ">
<path fill="none" stroke="#63b8ff" d="M1479.65,-151.52C1699.99,-151.36 2605.64,-148.17 2886,-107 2898.25,-105.2 2911.38,-102.08 2923.09,-98.85"/>
<polygon fill="#63b8ff" stroke="#63b8ff" points="2924.3,-102.15 2932.95,-96.02 2922.37,-95.42 2924.3,-102.15"/>
</a>
</g>
</g>
<!-- Node34 -->
<g id="Node000034" class="node">
<title>Node34</title>
<g id="a_Node000034"><a xlink:href="../../dc/d28/constexpr__utils_8inl.html" target="_top" xlink:title="Inline implementations for constexpr utility functions.">
<polygon fill="white" stroke="#666666" points="3171,-96 3041,-96 3041,-77 3171,-77 3171,-96"/>
<text text-anchor="middle" x="3106" y="-84" font-family="Helvetica,sans-Serif" font-size="10.00">core/constexpr_utils.inl</text>
</a>
</g>
</g>
<!-- Node1&#45;&gt;Node34 -->
<g id="edge38_Node000001_Node000034" class="edge">
<title>Node1&#45;&gt;Node34</title>
<g id="a_edge38_Node000001_Node000034"><a xlink:title=" ">
<path fill="none" stroke="#63b8ff" d="M1479.77,-151.65C1713.59,-152.16 2721.33,-151.64 3032,-107 3044.53,-105.2 3057.99,-102.04 3069.95,-98.77"/>
<polygon fill="#63b8ff" stroke="#63b8ff" points="3070.92,-102.14 3079.59,-96.04 3069.01,-95.4 3070.92,-102.14"/>
</a>
</g>
</g>
<!-- Node35 -->
<g id="Node000035" class="node">
<title>Node35</title>
<g id="a_Node000035"><a xlink:href="../../d7/d40/fixed__string_8inl.html" target="_top" xlink:title="Inline implementations for FixedString template class.">
<polygon fill="white" stroke="#666666" points="3301,-96 3189,-96 3189,-77 3301,-77 3301,-96"/>
<text text-anchor="middle" x="3245" y="-84" font-family="Helvetica,sans-Serif" font-size="10.00">core/fixed_string.inl</text>
</a>
</g>
</g>
<!-- Node1&#45;&gt;Node35 -->
<g id="edge39_Node000001_Node000035" class="edge">
<title>Node1&#45;&gt;Node35</title>
<g id="a_edge39_Node000001_Node000035"><a xlink:title=" ">
<path fill="none" stroke="#63b8ff" d="M1479.53,-151.04C1744.25,-148.4 3008.28,-134.44 3180,-107 3190.65,-105.3 3201.98,-102.32 3212.16,-99.2"/>
<polygon fill="#63b8ff" stroke="#63b8ff" points="3213.44,-102.47 3221.88,-96.07 3211.29,-95.8 3213.44,-102.47"/>
</a>
</g>
</g>
<!-- Node36 -->
<g id="Node000036" class="node">
<title>Node36</title>
<g id="a_Node000036"><a xlink:href="../../da/dc9/fixed__vector_8inl.html" target="_top" xlink:title="TODO.">
<polygon fill="white" stroke="#666666" points="3433,-96 3319,-96 3319,-77 3433,-77 3433,-96"/>
<text text-anchor="middle" x="3376" y="-84" font-family="Helvetica,sans-Serif" font-size="10.00">core/fixed_vector.inl</text>
</a>
</g>
</g>
<!-- Node1&#45;&gt;Node36 -->
<g id="edge40_Node000001_Node000036" class="edge">
<title>Node1&#45;&gt;Node36</title>
<g id="a_edge40_Node000001_Node000036"><a xlink:title=" ">
<path fill="none" stroke="#63b8ff" d="M1479.92,-151.11C1757.13,-148.81 3124.74,-136.04 3310,-107 3320.91,-105.29 3332.55,-102.27 3342.97,-99.11"/>
<polygon fill="#63b8ff" stroke="#63b8ff" points="3344.05,-102.44 3352.52,-96.08 3341.93,-95.77 3344.05,-102.44"/>
</a>
</g>
</g>
<!-- Node37 -->
<g id="Node000037" class="node">
<title>Node37</title>
<g id="a_Node000037"><a xlink:href="../../d0/d67/format_8inl.html" target="_top" xlink:title="Inline implementations for FormatString class.">
<polygon fill="white" stroke="#666666" points="3540.5,-96 3451.5,-96 3451.5,-77 3540.5,-77 3540.5,-96"/>
<text text-anchor="middle" x="3496" y="-84" font-family="Helvetica,sans-Serif" font-size="10.00">core/format.inl</text>
</a>
</g>
</g>
<!-- Node1&#45;&gt;Node37 -->
<g id="edge41_Node000001_Node000037" class="edge">
<title>Node1&#45;&gt;Node37</title>
<g id="a_edge41_Node000001_Node000037"><a xlink:title=" ">
<path fill="none" stroke="#63b8ff" d="M1479.58,-151.37C1767.47,-150.45 3243.85,-143.94 3442,-107 3450.5,-105.42 3459.44,-102.67 3467.54,-99.72"/>
<polygon fill="#63b8ff" stroke="#63b8ff" points="3468.86,-102.97 3476.93,-96.1 3466.34,-96.44 3468.86,-102.97"/>
</a>
</g>
</g>
<!-- Node38 -->
<g id="Node000038" class="node">
<title>Node38</title>
<g id="a_Node000038"><a xlink:href="../../d9/dcb/o__string__stream_8inl.html" target="_top" xlink:title="Implementation of OStringStream template methods.">
<polygon fill="white" stroke="#666666" points="3693,-96 3559,-96 3559,-77 3693,-77 3693,-96"/>
<text text-anchor="middle" x="3626" y="-84" font-family="Helvetica,sans-Serif" font-size="10.00">core/o_string_stream.inl</text>
</a>
</g>
</g>
<!-- Node1&#45;&gt;Node38 -->
<g id="edge42_Node000001_Node000038" class="edge">
<title>Node1&#45;&gt;Node38</title>
<g id="a_edge42_Node000001_Node000038"><a xlink:title=" ">
<path fill="none" stroke="#63b8ff" d="M1479.71,-151.15C1776.8,-148.92 3339.01,-135.89 3550,-107 3562.86,-105.24 3576.68,-102.09 3588.96,-98.82"/>
<polygon fill="#63b8ff" stroke="#63b8ff" points="3590.16,-102.12 3598.86,-96.08 3588.29,-95.38 3590.16,-102.12"/>
</a>
</g>
</g>
<!-- Node39 -->
<g id="Node000039" class="node">
<title>Node39</title>
<g id="a_Node000039"><a xlink:href="../../d2/d2b/core_2utils_8inl.html" target="_top" xlink:title="Inline implementations of core utility functions for string manipulation and encoding conversion.">
<polygon fill="white" stroke="#666666" points="3788.5,-96 3711.5,-96 3711.5,-77 3788.5,-77 3788.5,-96"/>
<text text-anchor="middle" x="3750" y="-84" font-family="Helvetica,sans-Serif" font-size="10.00">core/utils.inl</text>
</a>
</g>
</g>
<!-- Node1&#45;&gt;Node39 -->
<g id="edge43_Node000001_Node000039" class="edge">
<title>Node1&#45;&gt;Node39</title>
<g id="a_edge43_Node000001_Node000039"><a xlink:title=" ">
<path fill="none" stroke="#63b8ff" d="M1479.72,-151.61C1789.4,-152.18 3477.6,-153.13 3702,-107 3709.22,-105.52 3716.74,-102.98 3723.62,-100.22"/>
<polygon fill="#63b8ff" stroke="#63b8ff" points="3725.35,-103.29 3733.15,-96.12 3722.58,-96.86 3725.35,-103.29"/>
</a>
</g>
</g>
<!-- Node18&#45;&gt;Node19 -->
<g id="edge18_Node000018_Node000019" class="edge">
<title>Node18&#45;&gt;Node19</title>
<g id="a_edge18_Node000018_Node000019"><a xlink:title=" ">
<path fill="none" stroke="#63b8ff" d="M1252.19,-65.96C1237.79,-56.51 1220.54,-45.2 1206.1,-35.74"/>
<polygon fill="#63b8ff" stroke="#63b8ff" points="1207.81,-32.67 1197.52,-30.11 1203.97,-38.52 1207.81,-32.67"/>
</a>
</g>
</g>
<!-- Node20 -->
<g id="Node000020" class="node">
<title>Node20</title>
<g id="a_Node000020"><a xlink:href="../../d1/d5f/assertion__macro__gcc__clang_8hpp.html" target="_top" xlink:title="Debug and Release assertion macro implementations for GCC/Clang platforms.">
<polygon fill="white" stroke="#666666" points="1372.5,-30 1245.5,-30 1245.5,0 1372.5,0 1372.5,-30"/>
<text text-anchor="start" x="1253.5" y="-18" font-family="Helvetica,sans-Serif" font-size="10.00">../common/assertion</text>
<text text-anchor="middle" x="1309" y="-7" font-family="Helvetica,sans-Serif" font-size="10.00">_macro_gcc_clang.hpp</text>
</a>
</g>
</g>
<!-- Node18&#45;&gt;Node20 -->
<g id="edge19_Node000018_Node000020" class="edge">
<title>Node18&#45;&gt;Node20</title>
<g id="a_edge19_Node000018_Node000020"><a xlink:title=" ">
<path fill="none" stroke="#63b8ff" d="M1289.66,-65.77C1292.85,-57.58 1296.57,-48.01 1299.89,-39.46"/>
<polygon fill="#63b8ff" stroke="#63b8ff" points="1303.19,-40.63 1303.55,-30.04 1296.66,-38.09 1303.19,-40.63"/>
</a>
</g>
</g>
<!-- Node22&#45;&gt;Node23 -->
<g id="edge22_Node000022_Node000023" class="edge">
<title>Node22&#45;&gt;Node23</title>
<g id="a_edge22_Node000022_Node000023"><a xlink:title=" ">
<path fill="none" stroke="#63b8ff" d="M1597.56,-76.94C1611.87,-73.16 1629.22,-68.93 1645,-66 1770.27,-42.74 1919.3,-27.56 1997.65,-20.54"/>
<polygon fill="#63b8ff" stroke="#63b8ff" points="1998.11,-24.01 2007.76,-19.64 1997.49,-17.04 1998.11,-24.01"/>
</a>
</g>
</g>
<!-- Node26&#45;&gt;Node23 -->
<g id="edge26_Node000026_Node000023" class="edge">
<title>Node26&#45;&gt;Node23</title>
<g id="a_edge26_Node000026_Node000023"><a xlink:title=" ">
<path fill="none" stroke="#63b8ff" d="M2052,-76.98C2052,-66.56 2052,-48.61 2052,-34.88"/>
<polygon fill="#63b8ff" stroke="#63b8ff" points="2055.5,-34.59 2052,-24.59 2048.5,-34.59 2055.5,-34.59"/>
</a>
</g>
</g>
<!-- Node28&#45;&gt;Node23 -->
<g id="edge29_Node000028_Node000023" class="edge">
<title>Node28&#45;&gt;Node23</title>
<g id="a_edge29_Node000028_Node000023"><a xlink:title=" ">
<path fill="none" stroke="#63b8ff" d="M2291.58,-76.95C2281.34,-73.35 2269.14,-69.25 2258,-66 2205.13,-50.57 2143.67,-36.1 2101.73,-26.73"/>
<polygon fill="#63b8ff" stroke="#63b8ff" points="2102.3,-23.27 2091.78,-24.52 2100.78,-30.1 2102.3,-23.27"/>
</a>
</g>
</g>
<!-- Node30&#45;&gt;Node23 -->
<g id="edge32_Node000030_Node000023" class="edge">
<title>Node30&#45;&gt;Node23</title>
<g id="a_edge32_Node000030_Node000023"><a xlink:title=" ">
<path fill="none" stroke="#63b8ff" d="M2534.43,-76.99C2519.86,-73.18 2502.13,-68.91 2486,-66 2350.35,-41.55 2188.59,-26.62 2106.14,-20.01"/>
<polygon fill="#63b8ff" stroke="#63b8ff" points="2106.25,-16.51 2096.01,-19.21 2105.7,-23.49 2106.25,-16.51"/>
</a>
</g>
</g>
</g>
</svg>
