<?xml version="1.0" encoding="UTF-8" standalone="no"?>
<!DOCTYPE svg PUBLIC "-//W3C//DTD SVG 1.1//EN"
 "http://www.w3.org/Graphics/SVG/1.1/DTD/svg11.dtd">
<!-- Generated by graphviz version 2.43.0 (0)
 -->
<!-- Title: include/core.hpp Pages: 1 -->
<svg width="4628pt" height="170pt"
 viewBox="0.00 0.00 4627.50 170.00" xmlns="http://www.w3.org/2000/svg" xmlns:xlink="http://www.w3.org/1999/xlink">
<g id="graph0" class="graph" transform="scale(1 1) rotate(0) translate(4 166)">
<title>include/core.hpp</title>
<!-- Node1 -->
<g id="Node000001" class="node">
<title>Node1</title>
<g id="a_Node000001"><a xlink:title="Umbrella header for the engine core module.">
<polygon fill="#999999" stroke="#666666" points="1743.5,-162 1646.5,-162 1646.5,-143 1743.5,-143 1743.5,-162"/>
<text text-anchor="middle" x="1695" y="-150" font-family="Helvetica,sans-Serif" font-size="10.00">include/core.hpp</text>
</a>
</g>
</g>
<!-- Node2 -->
<g id="Node000002" class="node">
<title>Node2</title>
<g id="a_Node000002"><a xlink:title=" ">
<polygon fill="#e0e0e0" stroke="#999999" points="64,-96 0,-96 0,-77 64,-77 64,-96"/>
<text text-anchor="middle" x="32" y="-84" font-family="Helvetica,sans-Serif" font-size="10.00">algorithm</text>
</a>
</g>
</g>
<!-- Node1&#45;&gt;Node2 -->
<g id="edge1_Node000001_Node000002" class="edge">
<title>Node1&#45;&gt;Node2</title>
<g id="a_edge1_Node000001_Node000002"><a xlink:title=" ">
<path fill="none" stroke="#63b8ff" d="M1646.22,-151.36C1392.47,-150.49 229.05,-144.47 73,-107 67.01,-105.56 60.86,-103.18 55.2,-100.57"/>
<polygon fill="#63b8ff" stroke="#63b8ff" points="56.76,-97.44 46.25,-96.09 53.62,-103.7 56.76,-97.44"/>
</a>
</g>
</g>
<!-- Node3 -->
<g id="Node000003" class="node">
<title>Node3</title>
<g id="a_Node000003"><a xlink:title=" ">
<polygon fill="#e0e0e0" stroke="#999999" points="124,-96 82,-96 82,-77 124,-77 124,-96"/>
<text text-anchor="middle" x="103" y="-84" font-family="Helvetica,sans-Serif" font-size="10.00">array</text>
</a>
</g>
</g>
<!-- Node1&#45;&gt;Node3 -->
<g id="edge2_Node000001_Node000003" class="edge">
<title>Node1&#45;&gt;Node3</title>
<g id="a_edge2_Node000001_Node000003"><a xlink:title=" ">
<path fill="none" stroke="#63b8ff" d="M1646.3,-151.68C1398.14,-152.38 280.21,-152.93 133,-107 129.04,-105.77 125.11,-103.85 121.46,-101.69"/>
<polygon fill="#63b8ff" stroke="#63b8ff" points="123.36,-98.75 113.11,-96.08 119.46,-104.56 123.36,-98.75"/>
</a>
</g>
</g>
<!-- Node4 -->
<g id="Node000004" class="node">
<title>Node4</title>
<g id="a_Node000004"><a xlink:title=" ">
<polygon fill="#e0e0e0" stroke="#999999" points="171.5,-96 142.5,-96 142.5,-77 171.5,-77 171.5,-96"/>
<text text-anchor="middle" x="157" y="-84" font-family="Helvetica,sans-Serif" font-size="10.00">bit</text>
</a>
</g>
</g>
<!-- Node1&#45;&gt;Node4 -->
<g id="edge3_Node000001_Node000004" class="edge">
<title>Node1&#45;&gt;Node4</title>
<g id="a_edge3_Node000001_Node000004"><a xlink:title=" ">
<path fill="none" stroke="#63b8ff" d="M1646.28,-150.97C1394.52,-148.14 249.94,-133.83 180,-107 177.43,-106.02 174.95,-104.61 172.63,-103.01"/>
<polygon fill="#63b8ff" stroke="#63b8ff" points="174.51,-100.02 164.61,-96.26 170.01,-105.38 174.51,-100.02"/>
</a>
</g>
</g>
<!-- Node5 -->
<g id="Node000005" class="node">
<title>Node5</title>
<g id="a_Node000005"><a xlink:title=" ">
<polygon fill="#e0e0e0" stroke="#999999" points="236.5,-96 189.5,-96 189.5,-77 236.5,-77 236.5,-96"/>
<text text-anchor="middle" x="213" y="-84" font-family="Helvetica,sans-Serif" font-size="10.00">cmath</text>
</a>
</g>
</g>
<!-- Node1&#45;&gt;Node5 -->
<g id="edge4_Node000001_Node000005" class="edge">
<title>Node1&#45;&gt;Node5</title>
<g id="a_edge4_Node000001_Node000005"><a xlink:title=" ">
<path fill="none" stroke="#63b8ff" d="M1646.34,-151.48C1409.31,-151.19 381.55,-147.6 245,-107 240.72,-105.73 236.44,-103.74 232.46,-101.5"/>
<polygon fill="#63b8ff" stroke="#63b8ff" points="234.19,-98.46 223.87,-96.08 230.45,-104.38 234.19,-98.46"/>
</a>
</g>
</g>
<!-- Node6 -->
<g id="Node000006" class="node">
<title>Node6</title>
<g id="a_Node000006"><a xlink:title=" ">
<polygon fill="#e0e0e0" stroke="#999999" points="313.5,-96 254.5,-96 254.5,-77 313.5,-77 313.5,-96"/>
<text text-anchor="middle" x="284" y="-84" font-family="Helvetica,sans-Serif" font-size="10.00">compare</text>
</a>
</g>
</g>
<!-- Node1&#45;&gt;Node6 -->
<g id="edge5_Node000001_Node000006" class="edge">
<title>Node1&#45;&gt;Node6</title>
<g id="a_edge5_Node000001_Node000006"><a xlink:title=" ">
<path fill="none" stroke="#63b8ff" d="M1646.38,-151.16C1417.52,-149.38 453.17,-139.97 323,-107 317.4,-105.58 311.68,-103.28 306.41,-100.74"/>
<polygon fill="#63b8ff" stroke="#63b8ff" points="307.99,-97.62 297.51,-96.07 304.74,-103.82 307.99,-97.62"/>
</a>
</g>
</g>
<!-- Node7 -->
<g id="Node000007" class="node">
<title>Node7</title>
<g id="a_Node000007"><a xlink:title=" ">
<polygon fill="#e0e0e0" stroke="#999999" points="392,-96 332,-96 332,-77 392,-77 392,-96"/>
<text text-anchor="middle" x="362" y="-84" font-family="Helvetica,sans-Serif" font-size="10.00">concepts</text>
</a>
</g>
</g>
<!-- Node1&#45;&gt;Node7 -->
<g id="edge6_Node000001_Node000007" class="edge">
<title>Node1&#45;&gt;Node7</title>
<g id="a_edge6_Node000001_Node000007"><a xlink:title=" ">
<path fill="none" stroke="#63b8ff" d="M1646.23,-151.05C1425.23,-148.86 523.2,-138.07 401,-107 395.41,-105.58 389.68,-103.27 384.41,-100.74"/>
<polygon fill="#63b8ff" stroke="#63b8ff" points="385.99,-97.62 375.51,-96.06 382.74,-103.81 385.99,-97.62"/>
</a>
</g>
</g>
<!-- Node8 -->
<g id="Node000008" class="node">
<title>Node8</title>
<g id="a_Node000008"><a xlink:title=" ">
<polygon fill="#e0e0e0" stroke="#999999" points="463.5,-96 410.5,-96 410.5,-77 463.5,-77 463.5,-96"/>
<text text-anchor="middle" x="437" y="-84" font-family="Helvetica,sans-Serif" font-size="10.00">cstddef</text>
</a>
</g>
</g>
<!-- Node1&#45;&gt;Node8 -->
<g id="edge7_Node000001_Node000008" class="edge">
<title>Node1&#45;&gt;Node8</title>
<g id="a_edge7_Node000001_Node000008"><a xlink:title=" ">
<path fill="none" stroke="#63b8ff" d="M1646.45,-151.04C1433.48,-148.85 587.43,-138.23 473,-107 468.03,-105.64 462.99,-103.49 458.32,-101.11"/>
<polygon fill="#63b8ff" stroke="#63b8ff" points="459.82,-97.93 449.39,-96.06 456.37,-104.03 459.82,-97.93"/>
</a>
</g>
</g>
<!-- Node9 -->
<g id="Node000009" class="node">
<title>Node9</title>
<g id="a_Node000009"><a xlink:title=" ">
<polygon fill="#e0e0e0" stroke="#999999" points="532,-96 482,-96 482,-77 532,-77 532,-96"/>
<text text-anchor="middle" x="507" y="-84" font-family="Helvetica,sans-Serif" font-size="10.00">cstdint</text>
</a>
</g>
</g>
<!-- Node1&#45;&gt;Node9 -->
<g id="edge8_Node000001_Node000009" class="edge">
<title>Node1&#45;&gt;Node9</title>
<g id="a_edge8_Node000001_Node000009"><a xlink:title=" ">
<path fill="none" stroke="#63b8ff" d="M1646.39,-150.99C1440.79,-148.67 648.19,-137.78 541,-107 536.39,-105.68 531.74,-103.6 527.42,-101.29"/>
<polygon fill="#63b8ff" stroke="#63b8ff" points="529.02,-98.17 518.64,-96.05 525.43,-104.18 529.02,-98.17"/>
</a>
</g>
</g>
<!-- Node10 -->
<g id="Node000010" class="node">
<title>Node10</title>
<g id="a_Node000010"><a xlink:title=" ">
<polygon fill="#e0e0e0" stroke="#999999" points="600,-96 550,-96 550,-77 600,-77 600,-96"/>
<text text-anchor="middle" x="575" y="-84" font-family="Helvetica,sans-Serif" font-size="10.00">cstring</text>
</a>
</g>
</g>
<!-- Node1&#45;&gt;Node10 -->
<g id="edge9_Node000001_Node000010" class="edge">
<title>Node1&#45;&gt;Node10</title>
<g id="a_edge9_Node000001_Node000010"><a xlink:title=" ">
<path fill="none" stroke="#63b8ff" d="M1646.28,-150.87C1448.24,-148.11 709.34,-135.95 609,-107 604.39,-105.67 599.74,-103.59 595.42,-101.28"/>
<polygon fill="#63b8ff" stroke="#63b8ff" points="597.02,-98.16 586.64,-96.04 593.43,-104.17 597.02,-98.16"/>
</a>
</g>
</g>
<!-- Node11 -->
<g id="Node000011" class="node">
<title>Node11</title>
<g id="a_Node000011"><a xlink:title=" ">
<polygon fill="#e0e0e0" stroke="#999999" points="667.5,-96 618.5,-96 618.5,-77 667.5,-77 667.5,-96"/>
<text text-anchor="middle" x="643" y="-84" font-family="Helvetica,sans-Serif" font-size="10.00">cuchar</text>
</a>
</g>
</g>
<!-- Node1&#45;&gt;Node11 -->
<g id="edge10_Node000001_Node000011" class="edge">
<title>Node1&#45;&gt;Node11</title>
<g id="a_edge10_Node000001_Node000011"><a xlink:title=" ">
<path fill="none" stroke="#63b8ff" d="M1646.4,-150.76C1456.37,-147.69 769.47,-134.76 676,-107 671.62,-105.7 667.22,-103.7 663.12,-101.46"/>
<polygon fill="#63b8ff" stroke="#63b8ff" points="664.62,-98.27 654.26,-96.04 660.96,-104.24 664.62,-98.27"/>
</a>
</g>
</g>
<!-- Node12 -->
<g id="Node000012" class="node">
<title>Node12</title>
<g id="a_Node000012"><a xlink:title=" ">
<polygon fill="#e0e0e0" stroke="#999999" points="768.5,-96 685.5,-96 685.5,-77 768.5,-77 768.5,-96"/>
<text text-anchor="middle" x="727" y="-84" font-family="Helvetica,sans-Serif" font-size="10.00">initializer_list</text>
</a>
</g>
</g>
<!-- Node1&#45;&gt;Node12 -->
<g id="edge11_Node000001_Node000012" class="edge">
<title>Node1&#45;&gt;Node12</title>
<g id="a_edge11_Node000001_Node000012"><a xlink:title=" ">
<path fill="none" stroke="#63b8ff" d="M1646.25,-151.21C1481.34,-149.89 945.24,-142.89 777,-107 769.48,-105.4 761.62,-102.8 754.41,-100.02"/>
<polygon fill="#63b8ff" stroke="#63b8ff" points="755.66,-96.75 745.08,-96.19 753,-103.23 755.66,-96.75"/>
</a>
</g>
</g>
<!-- Node13 -->
<g id="Node000013" class="node">
<title>Node13</title>
<g id="a_Node000013"><a xlink:title=" ">
<polygon fill="#e0e0e0" stroke="#999999" points="839.5,-96 786.5,-96 786.5,-77 839.5,-77 839.5,-96"/>
<text text-anchor="middle" x="813" y="-84" font-family="Helvetica,sans-Serif" font-size="10.00">iterator</text>
</a>
</g>
</g>
<!-- Node1&#45;&gt;Node13 -->
<g id="edge12_Node000001_Node000013" class="edge">
<title>Node1&#45;&gt;Node13</title>
<g id="a_edge12_Node000001_Node000013"><a xlink:title=" ">
<path fill="none" stroke="#63b8ff" d="M1646.39,-151.74C1489.88,-152.09 1000.48,-149.66 849,-107 844.04,-105.6 839.01,-103.44 834.34,-101.05"/>
<polygon fill="#63b8ff" stroke="#63b8ff" points="835.83,-97.87 825.4,-96 832.39,-103.97 835.83,-97.87"/>
</a>
</g>
</g>
<!-- Node14 -->
<g id="Node000014" class="node">
<title>Node14</title>
<g id="a_Node000014"><a xlink:title=" ">
<polygon fill="#e0e0e0" stroke="#999999" points="902,-96 858,-96 858,-77 902,-77 902,-96"/>
<text text-anchor="middle" x="880" y="-84" font-family="Helvetica,sans-Serif" font-size="10.00">limits</text>
</a>
</g>
</g>
<!-- Node1&#45;&gt;Node14 -->
<g id="edge13_Node000001_Node000014" class="edge">
<title>Node1&#45;&gt;Node14</title>
<g id="a_edge13_Node000001_Node000014"><a xlink:title=" ">
<path fill="none" stroke="#63b8ff" d="M1646.47,-151.9C1497.56,-152.63 1048.91,-151.04 911,-107 907.03,-105.73 903.05,-103.83 899.34,-101.71"/>
<polygon fill="#63b8ff" stroke="#63b8ff" points="901.1,-98.68 890.8,-96.2 897.3,-104.56 901.1,-98.68"/>
</a>
</g>
</g>
<!-- Node15 -->
<g id="Node000015" class="node">
<title>Node15</title>
<g id="a_Node000015"><a xlink:title=" ">
<polygon fill="#e0e0e0" stroke="#999999" points="978,-96 920,-96 920,-77 978,-77 978,-96"/>
<text text-anchor="middle" x="949" y="-84" font-family="Helvetica,sans-Serif" font-size="10.00">memory</text>
</a>
</g>
</g>
<!-- Node1&#45;&gt;Node15 -->
<g id="edge14_Node000001_Node000015" class="edge">
<title>Node1&#45;&gt;Node15</title>
<g id="a_edge14_Node000001_Node000015"><a xlink:title=" ">
<path fill="none" stroke="#63b8ff" d="M1646.22,-151.02C1507.29,-149.25 1111.54,-141.26 987,-107 981.77,-105.56 976.43,-103.35 971.47,-100.93"/>
<polygon fill="#63b8ff" stroke="#63b8ff" points="972.99,-97.78 962.51,-96.16 969.69,-103.96 972.99,-97.78"/>
</a>
</g>
</g>
<!-- Node16 -->
<g id="Node000016" class="node">
<title>Node16</title>
<g id="a_Node000016"><a xlink:title=" ">
<polygon fill="#e0e0e0" stroke="#999999" points="1061.5,-96 996.5,-96 996.5,-77 1061.5,-77 1061.5,-96"/>
<text text-anchor="middle" x="1029" y="-84" font-family="Helvetica,sans-Serif" font-size="10.00">stdexcept</text>
</a>
</g>
</g>
<!-- Node1&#45;&gt;Node16 -->
<g id="edge15_Node000001_Node000016" class="edge">
<title>Node1&#45;&gt;Node16</title>
<g id="a_edge15_Node000001_Node000016"><a xlink:title=" ">
<path fill="none" stroke="#63b8ff" d="M1646.21,-150.3C1519,-146.81 1179.57,-135.06 1071,-107 1065.02,-105.45 1058.84,-103.08 1053.12,-100.51"/>
<polygon fill="#63b8ff" stroke="#63b8ff" points="1054.58,-97.33 1044.06,-96.12 1051.53,-103.63 1054.58,-97.33"/>
</a>
</g>
</g>
<!-- Node17 -->
<g id="Node000017" class="node">
<title>Node17</title>
<g id="a_Node000017"><a xlink:title=" ">
<polygon fill="#e0e0e0" stroke="#999999" points="1124,-96 1080,-96 1080,-77 1124,-77 1124,-96"/>
<text text-anchor="middle" x="1102" y="-84" font-family="Helvetica,sans-Serif" font-size="10.00">string</text>
</a>
</g>
</g>
<!-- Node1&#45;&gt;Node17 -->
<g id="edge16_Node000001_Node000017" class="edge">
<title>Node1&#45;&gt;Node17</title>
<g id="a_edge16_Node000001_Node000017"><a xlink:title=" ">
<path fill="none" stroke="#63b8ff" d="M1646.15,-150.62C1527.63,-148 1227.64,-138.39 1133,-107 1129.04,-105.69 1125.07,-103.76 1121.36,-101.63"/>
<polygon fill="#63b8ff" stroke="#63b8ff" points="1123.12,-98.6 1112.82,-96.13 1119.33,-104.49 1123.12,-98.6"/>
</a>
</g>
</g>
<!-- Node18 -->
<g id="Node000018" class="node">
<title>Node18</title>
<g id="a_Node000018"><a xlink:title=" ">
<polygon fill="#e0e0e0" stroke="#999999" points="1211.5,-96 1142.5,-96 1142.5,-77 1211.5,-77 1211.5,-96"/>
<text text-anchor="middle" x="1177" y="-84" font-family="Helvetica,sans-Serif" font-size="10.00">type_traits</text>
</a>
</g>
</g>
<!-- Node1&#45;&gt;Node18 -->
<g id="edge17_Node000001_Node000018" class="edge">
<title>Node1&#45;&gt;Node18</title>
<g id="a_edge17_Node000001_Node000018"><a xlink:title=" ">
<path fill="none" stroke="#63b8ff" d="M1646.2,-152.21C1559.09,-152.31 1371.7,-147.29 1220,-107 1213.91,-105.38 1207.6,-102.98 1201.75,-100.41"/>
<polygon fill="#63b8ff" stroke="#63b8ff" points="1203,-97.13 1192.46,-96.03 1200.02,-103.46 1203,-97.13"/>
</a>
</g>
</g>
<!-- Node19 -->
<g id="Node000019" class="node">
<title>Node19</title>
<g id="a_Node000019"><a xlink:title=" ">
<polygon fill="#e0e0e0" stroke="#999999" points="1274.5,-96 1229.5,-96 1229.5,-77 1274.5,-77 1274.5,-96"/>
<text text-anchor="middle" x="1252" y="-84" font-family="Helvetica,sans-Serif" font-size="10.00">utility</text>
</a>
</g>
</g>
<!-- Node1&#45;&gt;Node19 -->
<g id="edge18_Node000001_Node000019" class="edge">
<title>Node1&#45;&gt;Node19</title>
<g id="a_edge18_Node000001_Node000019"><a xlink:title=" ">
<path fill="none" stroke="#63b8ff" d="M1646.32,-151.98C1568.91,-151.47 1413.76,-145.2 1289,-107 1284.05,-105.49 1278.99,-103.3 1274.27,-100.94"/>
<polygon fill="#63b8ff" stroke="#63b8ff" points="1275.64,-97.7 1265.18,-96 1272.29,-103.85 1275.64,-97.7"/>
</a>
</g>
</g>
<!-- Node20 -->
<g id="Node000020" class="node">
<title>Node20</title>
<g id="a_Node000020"><a xlink:href="../../dd/d9e/linux_2platform__config_8hpp.html" target="_top" xlink:title="Compile&#45;time platform and CPU bindings for Linux.">
<polygon fill="white" stroke="#666666" points="1486.5,-107 1331.5,-107 1331.5,-66 1486.5,-66 1486.5,-107"/>
<text text-anchor="start" x="1339.5" y="-95" font-family="Helvetica,sans-Serif" font-size="10.00">/home/runner/work/toygine2</text>
<text text-anchor="start" x="1339.5" y="-84" font-family="Helvetica,sans-Serif" font-size="10.00">/toygine2/src/platforms</text>
<text text-anchor="middle" x="1409" y="-73" font-family="Helvetica,sans-Serif" font-size="10.00">/linux/platform_config.hpp</text>
</a>
</g>
</g>
<!-- Node1&#45;&gt;Node20 -->
<g id="edge19_Node000001_Node000020" class="edge">
<title>Node1&#45;&gt;Node20</title>
<g id="a_edge19_Node000001_Node000020"><a xlink:title=" ">
<path fill="none" stroke="#63b8ff" d="M1656.27,-142.93C1618.02,-134.46 1557.58,-121.04 1496.6,-107.36"/>
<polygon fill="#63b8ff" stroke="#63b8ff" points="1497.34,-103.93 1486.81,-105.16 1495.8,-110.76 1497.34,-103.93"/>
</a>
</g>
</g>
<!-- Node21 -->
<g id="Node000021" class="node">
<title>Node21</title>
<g id="a_Node000021"><a xlink:href="../../d3/d60/platform_8hpp.html" target="_top" xlink:title="Platform and CPU architecture enums with compile&#45;time and runtime detection.">
<polygon fill="white" stroke="#666666" points="1354.5,-30 1251.5,-30 1251.5,0 1354.5,0 1354.5,-30"/>
<text text-anchor="start" x="1259.5" y="-18" font-family="Helvetica,sans-Serif" font-size="10.00">../../../include/core</text>
<text text-anchor="middle" x="1303" y="-7" font-family="Helvetica,sans-Serif" font-size="10.00">/platform.hpp</text>
</a>
</g>
</g>
<!-- Node1&#45;&gt;Node21 -->
<g id="edge36_Node000001_Node000021" class="edge">
<title>Node1&#45;&gt;Node21</title>
<g id="a_edge36_Node000001_Node000021"><a xlink:title=" ">
<path fill="none" stroke="#63b8ff" d="M1646.29,-148.83C1550.64,-143.13 1345.5,-128.54 1322,-107 1303.76,-90.29 1300.55,-60.96 1300.91,-40.12"/>
<polygon fill="#63b8ff" stroke="#63b8ff" points="1304.41,-40.26 1301.37,-30.11 1297.42,-39.94 1304.41,-40.26"/>
</a>
</g>
</g>
<!-- Node23 -->
<g id="Node000023" class="node">
<title>Node23</title>
<g id="a_Node000023"><a xlink:href="../../d5/d96/assertion_8hpp.html" target="_top" xlink:title="Assertion system: callbacks, initialize/shutdown, and assertion() entry point.">
<polygon fill="white" stroke="#666666" points="1611.5,-96 1504.5,-96 1504.5,-77 1611.5,-77 1611.5,-96"/>
<text text-anchor="middle" x="1558" y="-84" font-family="Helvetica,sans-Serif" font-size="10.00">core/assertion.hpp</text>
</a>
</g>
</g>
<!-- Node1&#45;&gt;Node23 -->
<g id="edge22_Node000001_Node000023" class="edge">
<title>Node1&#45;&gt;Node23</title>
<g id="a_edge22_Node000001_Node000023"><a xlink:title=" ">
<path fill="none" stroke="#63b8ff" d="M1676.52,-142.87C1653.24,-131.99 1612.99,-113.19 1585.94,-100.55"/>
<polygon fill="#63b8ff" stroke="#63b8ff" points="1587.16,-97.26 1576.62,-96.2 1584.2,-103.6 1587.16,-97.26"/>
</a>
</g>
</g>
<!-- Node24 -->
<g id="Node000024" class="node">
<title>Node24</title>
<g id="a_Node000024"><a xlink:href="../../df/d61/bitwise__enum_8hpp.html" target="_top" xlink:title="Opt&#45;in bitwise operators for scoped enumerations used as flag sets.">
<polygon fill="white" stroke="#666666" points="1760,-96 1630,-96 1630,-77 1760,-77 1760,-96"/>
<text text-anchor="middle" x="1695" y="-84" font-family="Helvetica,sans-Serif" font-size="10.00">core/bitwise_enum.hpp</text>
</a>
</g>
</g>
<!-- Node1&#45;&gt;Node24 -->
<g id="edge23_Node000001_Node000024" class="edge">
<title>Node1&#45;&gt;Node24</title>
<g id="a_edge23_Node000001_Node000024"><a xlink:title=" ">
<path fill="none" stroke="#63b8ff" d="M1695,-142.87C1695,-133.66 1695,-118.79 1695,-106.77"/>
<polygon fill="#63b8ff" stroke="#63b8ff" points="1698.5,-106.41 1695,-96.41 1691.5,-106.41 1698.5,-106.41"/>
</a>
</g>
</g>
<!-- Node25 -->
<g id="Node000025" class="node">
<title>Node25</title>
<g id="a_Node000025"><a xlink:href="../../dd/ded/c__string__view_8hpp.html" target="_top" xlink:title="Non&#45;owning view over null&#45;terminated C strings.">
<polygon fill="white" stroke="#666666" points="1906,-96 1778,-96 1778,-77 1906,-77 1906,-96"/>
<text text-anchor="middle" x="1842" y="-84" font-family="Helvetica,sans-Serif" font-size="10.00">core/c_string_view.hpp</text>
</a>
</g>
</g>
<!-- Node1&#45;&gt;Node25 -->
<g id="edge24_Node000001_Node000025" class="edge">
<title>Node1&#45;&gt;Node25</title>
<g id="a_edge24_Node000001_Node000025"><a xlink:title=" ">
<path fill="none" stroke="#63b8ff" d="M1714.83,-142.87C1740.03,-131.89 1783.76,-112.86 1812.79,-100.22"/>
<polygon fill="#63b8ff" stroke="#63b8ff" points="1814.25,-103.4 1822.02,-96.2 1811.45,-96.98 1814.25,-103.4"/>
</a>
</g>
</g>
<!-- Node26 -->
<g id="Node000026" class="node">
<title>Node26</title>
<g id="a_Node000026"><a xlink:href="../../de/deb/string__like_8hpp.html" target="_top" xlink:title="Concept for read&#45;only C&#45;string views with explicit length.">
<polygon fill="white" stroke="#666666" points="2371,-24.5 2283,-24.5 2283,-5.5 2371,-5.5 2371,-24.5"/>
<text text-anchor="middle" x="2327" y="-12.5" font-family="Helvetica,sans-Serif" font-size="10.00">string_like.hpp</text>
</a>
</g>
</g>
<!-- Node1&#45;&gt;Node26 -->
<g id="edge38_Node000001_Node000026" class="edge">
<title>Node1&#45;&gt;Node26</title>
<g id="a_edge38_Node000001_Node000026"><a xlink:title=" ">
<path fill="none" stroke="#63b8ff" d="M1743.88,-150.15C1790.54,-146.96 1861.48,-137.04 1915,-107 1936.67,-94.84 1930.94,-77.43 1953,-66 2007.53,-37.74 2182.85,-24.05 2272.74,-18.75"/>
<polygon fill="#63b8ff" stroke="#63b8ff" points="2272.96,-22.25 2282.74,-18.18 2272.56,-15.26 2272.96,-22.25"/>
</a>
</g>
</g>
<!-- Node27 -->
<g id="Node000027" class="node">
<title>Node27</title>
<g id="a_Node000027"><a xlink:href="../../d1/d5c/callbacks__pool_8hpp.html" target="_top" xlink:title="Fixed&#45;capacity pool of function&#45;pointer callbacks.">
<polygon fill="white" stroke="#666666" points="2096,-96 1962,-96 1962,-77 2096,-77 2096,-96"/>
<text text-anchor="middle" x="2029" y="-84" font-family="Helvetica,sans-Serif" font-size="10.00">core/callbacks_pool.hpp</text>
</a>
</g>
</g>
<!-- Node1&#45;&gt;Node27 -->
<g id="edge26_Node000001_Node000027" class="edge">
<title>Node1&#45;&gt;Node27</title>
<g id="a_edge26_Node000001_Node000027"><a xlink:title=" ">
<path fill="none" stroke="#63b8ff" d="M1743.67,-143.86C1794.74,-135.63 1877.27,-121.72 1948,-107 1960.28,-104.44 1973.54,-101.38 1985.7,-98.45"/>
<polygon fill="#63b8ff" stroke="#63b8ff" points="1986.72,-101.8 1995.61,-96.03 1985.06,-95 1986.72,-101.8"/>
</a>
</g>
</g>
<!-- Node28 -->
<g id="Node000028" class="node">
<title>Node28</title>
<g id="a_Node000028"><a xlink:href="../../d4/dc0/constexpr__utils_8hpp.html" target="_top" xlink:title="Constexpr helpers for compile&#45;time string and buffer operations.">
<polygon fill="white" stroke="#666666" points="2250,-96 2114,-96 2114,-77 2250,-77 2250,-96"/>
<text text-anchor="middle" x="2182" y="-84" font-family="Helvetica,sans-Serif" font-size="10.00">core/constexpr_utils.hpp</text>
</a>
</g>
</g>
<!-- Node1&#45;&gt;Node28 -->
<g id="edge27_Node000001_Node000028" class="edge">
<title>Node1&#45;&gt;Node28</title>
<g id="a_edge27_Node000001_Node000028"><a xlink:title=" ">
<path fill="none" stroke="#63b8ff" d="M1743.6,-148.44C1820.68,-143.08 1975.52,-130.3 2105,-107 2117.3,-104.79 2130.54,-101.7 2142.51,-98.63"/>
<polygon fill="#63b8ff" stroke="#63b8ff" points="2143.45,-102 2152.23,-96.07 2141.67,-95.23 2143.45,-102"/>
</a>
</g>
</g>
<!-- Node29 -->
<g id="Node000029" class="node">
<title>Node29</title>
<g id="a_Node000029"><a xlink:href="../../d7/d7f/fixed__string_8hpp.html" target="_top" xlink:title="Fixed&#45;capacity string with stack storage.">
<polygon fill="white" stroke="#666666" points="2386,-96 2268,-96 2268,-77 2386,-77 2386,-96"/>
<text text-anchor="middle" x="2327" y="-84" font-family="Helvetica,sans-Serif" font-size="10.00">core/fixed_string.hpp</text>
</a>
</g>
</g>
<!-- Node1&#45;&gt;Node29 -->
<g id="edge28_Node000001_Node000029" class="edge">
<title>Node1&#45;&gt;Node29</title>
<g id="a_edge28_Node000001_Node000029"><a xlink:title=" ">
<path fill="none" stroke="#63b8ff" d="M1743.7,-150.93C1841.94,-149.07 2070.53,-141.1 2259,-107 2269.9,-105.03 2281.56,-102.03 2292.09,-98.96"/>
<polygon fill="#63b8ff" stroke="#63b8ff" points="2293.21,-102.28 2301.78,-96.04 2291.19,-95.58 2293.21,-102.28"/>
</a>
</g>
</g>
<!-- Node30 -->
<g id="Node000030" class="node">
<title>Node30</title>
<g id="a_Node000030"><a xlink:href="../../d7/dea/fixed__vector_8hpp.html" target="_top" xlink:title="Fixed&#45;capacity vector with inline storage.">
<polygon fill="white" stroke="#666666" points="2524,-96 2404,-96 2404,-77 2524,-77 2524,-96"/>
<text text-anchor="middle" x="2464" y="-84" font-family="Helvetica,sans-Serif" font-size="10.00">core/fixed_vector.hpp</text>
</a>
</g>
</g>
<!-- Node1&#45;&gt;Node30 -->
<g id="edge30_Node000001_Node000030" class="edge">
<title>Node1&#45;&gt;Node30</title>
<g id="a_edge30_Node000001_Node000030"><a xlink:title=" ">
<path fill="none" stroke="#63b8ff" d="M1743.78,-151.93C1858.34,-152.19 2153.14,-148.38 2395,-107 2406.16,-105.09 2418.1,-102.08 2428.85,-98.99"/>
<polygon fill="#63b8ff" stroke="#63b8ff" points="2430.16,-102.25 2438.74,-96.03 2428.15,-95.54 2430.16,-102.25"/>
</a>
</g>
</g>
<!-- Node31 -->
<g id="Node000031" class="node">
<title>Node31</title>
<g id="a_Node000031"><a xlink:href="../../d9/d6a/format__string_8hpp.html" target="_top" xlink:title="Compile&#45;time validated format&#45;string wrapper for {} placeholders.">
<polygon fill="white" stroke="#666666" points="2670,-96 2542,-96 2542,-77 2670,-77 2670,-96"/>
<text text-anchor="middle" x="2606" y="-84" font-family="Helvetica,sans-Serif" font-size="10.00">core/format_string.hpp</text>
</a>
</g>
</g>
<!-- Node1&#45;&gt;Node31 -->
<g id="edge31_Node000001_Node000031" class="edge">
<title>Node1&#45;&gt;Node31</title>
<g id="a_edge31_Node000001_Node000031"><a xlink:title=" ">
<path fill="none" stroke="#63b8ff" d="M1743.65,-150.25C1898.58,-146.04 2379.3,-131.34 2533,-107 2545.03,-105.1 2557.93,-102.01 2569.49,-98.85"/>
<polygon fill="#63b8ff" stroke="#63b8ff" points="2570.58,-102.18 2579.25,-96.08 2568.67,-95.44 2570.58,-102.18"/>
</a>
</g>
</g>
<!-- Node32 -->
<g id="Node000032" class="node">
<title>Node32</title>
<g id="a_Node000032"><a xlink:href="../../dd/d8e/hashes_8hpp.html" target="_top" xlink:title="Table&#45;driven CRC&#45;8, CRC&#45;16, and CRC&#45;32 over byte buffers.">
<polygon fill="white" stroke="#666666" points="2784,-96 2688,-96 2688,-77 2784,-77 2784,-96"/>
<text text-anchor="middle" x="2736" y="-84" font-family="Helvetica,sans-Serif" font-size="10.00">core/hashes.hpp</text>
</a>
</g>
</g>
<!-- Node1&#45;&gt;Node32 -->
<g id="edge33_Node000001_Node000032" class="edge">
<title>Node1&#45;&gt;Node32</title>
<g id="a_edge33_Node000001_Node000032"><a xlink:title=" ">
<path fill="none" stroke="#63b8ff" d="M1743.56,-151.13C1915.76,-149.52 2496.6,-141.59 2679,-107 2687.94,-105.31 2697.38,-102.51 2705.95,-99.56"/>
<polygon fill="#63b8ff" stroke="#63b8ff" points="2707.33,-102.78 2715.54,-96.08 2704.94,-96.2 2707.33,-102.78"/>
</a>
</g>
</g>
<!-- Node33 -->
<g id="Node000033" class="node">
<title>Node33</title>
<g id="a_Node000033"><a xlink:href="../../de/d2d/o__string__stream_8hpp.html" target="_top" xlink:title="Allocator&#45;free output string stream that appends into string&#45;like storage.">
<polygon fill="white" stroke="#666666" points="2942,-96 2802,-96 2802,-77 2942,-77 2942,-96"/>
<text text-anchor="middle" x="2872" y="-84" font-family="Helvetica,sans-Serif" font-size="10.00">core/o_string_stream.hpp</text>
</a>
</g>
</g>
<!-- Node1&#45;&gt;Node33 -->
<g id="edge34_Node000001_Node000033" class="edge">
<title>Node1&#45;&gt;Node33</title>
<g id="a_edge34_Node000001_Node000033"><a xlink:title=" ">
<path fill="none" stroke="#63b8ff" d="M1743.58,-150.83C1928.17,-148.09 2585.94,-136.44 2793,-107 2806.35,-105.1 2820.74,-101.91 2833.52,-98.65"/>
<polygon fill="#63b8ff" stroke="#63b8ff" points="2834.61,-101.98 2843.38,-96.04 2832.82,-95.21 2834.61,-101.98"/>
</a>
</g>
</g>
<!-- Node34 -->
<g id="Node000034" class="node">
<title>Node34</title>
<g id="a_Node000034"><a xlink:href="../../d2/dd2/string__fixed__storage_8hpp.html" target="_top" xlink:title="Fixed&#45;size raw character buffer with explicit length for string&#45;like containers.">
<polygon fill="white" stroke="#666666" points="3120,-96 2960,-96 2960,-77 3120,-77 3120,-96"/>
<text text-anchor="middle" x="3040" y="-84" font-family="Helvetica,sans-Serif" font-size="10.00">core/string_fixed_storage.hpp</text>
</a>
</g>
</g>
<!-- Node1&#45;&gt;Node34 -->
<g id="edge37_Node000001_Node000034" class="edge">
<title>Node1&#45;&gt;Node34</title>
<g id="a_edge37_Node000001_Node000034"><a xlink:title=" ">
<path fill="none" stroke="#63b8ff" d="M1743.54,-150.95C1944.37,-148.5 2710.98,-137.29 2951,-107 2966.43,-105.05 2983.13,-101.73 2997.86,-98.36"/>
<polygon fill="#63b8ff" stroke="#63b8ff" points="2998.76,-101.75 3007.7,-96.05 2997.16,-94.93 2998.76,-101.75"/>
</a>
</g>
</g>
<!-- Node35 -->
<g id="Node000035" class="node">
<title>Node35</title>
<g id="a_Node000035"><a xlink:href="../../d8/d43/core_2utils_8hpp.html" target="_top" xlink:title="Core utilities: encoding conversion, string metrics, and number formatting.">
<polygon fill="white" stroke="#666666" points="3221.5,-96 3138.5,-96 3138.5,-77 3221.5,-77 3221.5,-96"/>
<text text-anchor="middle" x="3180" y="-84" font-family="Helvetica,sans-Serif" font-size="10.00">core/utils.hpp</text>
</a>
</g>
</g>
<!-- Node1&#45;&gt;Node35 -->
<g id="edge39_Node000001_Node000035" class="edge">
<title>Node1&#45;&gt;Node35</title>
<g id="a_edge39_Node000001_Node000035"><a xlink:title=" ">
<path fill="none" stroke="#63b8ff" d="M1743.78,-150.95C1979.06,-148.17 2991.02,-134.7 3129,-107 3136.88,-105.42 3145.14,-102.74 3152.66,-99.87"/>
<polygon fill="#63b8ff" stroke="#63b8ff" points="3154.08,-103.07 3162.03,-96.06 3151.45,-96.59 3154.08,-103.07"/>
</a>
</g>
</g>
<!-- Node36 -->
<g id="Node000036" class="node">
<title>Node36</title>
<g id="a_Node000036"><a xlink:href="../../dd/d61/bitwise__enum_8inl.html" target="_top" xlink:title="Inline implementations for toy::EnableBitwiseOperators and scoped&#45;enum bitwise operators.">
<polygon fill="white" stroke="#666666" points="3364,-96 3240,-96 3240,-77 3364,-77 3364,-96"/>
<text text-anchor="middle" x="3302" y="-84" font-family="Helvetica,sans-Serif" font-size="10.00">core/bitwise_enum.inl</text>
</a>
</g>
</g>
<!-- Node1&#45;&gt;Node36 -->
<g id="edge40_Node000001_Node000036" class="edge">
<title>Node1&#45;&gt;Node36</title>
<g id="a_edge40_Node000001_Node000036"><a xlink:title=" ">
<path fill="none" stroke="#63b8ff" d="M1743.68,-151.65C1971.52,-152.13 2934.01,-151.43 3231,-107 3242.81,-105.23 3255.45,-102.16 3266.75,-98.97"/>
<polygon fill="#63b8ff" stroke="#63b8ff" points="3268.08,-102.22 3276.68,-96.04 3266.1,-95.51 3268.08,-102.22"/>
</a>
</g>
</g>
<!-- Node37 -->
<g id="Node000037" class="node">
<title>Node37</title>
<g id="a_Node000037"><a xlink:href="../../df/d4a/c__string__view_8inl.html" target="_top" xlink:title="Inline implementations for toy::CStringView.">
<polygon fill="white" stroke="#666666" points="3504,-96 3382,-96 3382,-77 3504,-77 3504,-96"/>
<text text-anchor="middle" x="3443" y="-84" font-family="Helvetica,sans-Serif" font-size="10.00">core/c_string_view.inl</text>
</a>
</g>
</g>
<!-- Node1&#45;&gt;Node37 -->
<g id="edge41_Node000001_Node000037" class="edge">
<title>Node1&#45;&gt;Node37</title>
<g id="a_edge41_Node000001_Node000037"><a xlink:title=" ">
<path fill="none" stroke="#63b8ff" d="M1743.71,-151.82C1984.23,-153.13 3046.63,-156.03 3373,-107 3384.65,-105.25 3397.12,-102.18 3408.26,-98.99"/>
<polygon fill="#63b8ff" stroke="#63b8ff" points="3409.48,-102.28 3418.05,-96.06 3407.47,-95.57 3409.48,-102.28"/>
</a>
</g>
</g>
<!-- Node38 -->
<g id="Node000038" class="node">
<title>Node38</title>
<g id="a_Node000038"><a xlink:href="../../d6/ddb/callbacks__pool_8inl.html" target="_top" xlink:title="Inline implementations for toy::CallbacksPool.">
<polygon fill="white" stroke="#666666" points="3650,-96 3522,-96 3522,-77 3650,-77 3650,-96"/>
<text text-anchor="middle" x="3586" y="-84" font-family="Helvetica,sans-Serif" font-size="10.00">core/callbacks_pool.inl</text>
</a>
</g>
</g>
<!-- Node1&#45;&gt;Node38 -->
<g id="edge42_Node000001_Node000038" class="edge">
<title>Node1&#45;&gt;Node38</title>
<g id="a_edge42_Node000001_Node000038"><a xlink:title=" ">
<path fill="none" stroke="#63b8ff" d="M1743.65,-151C2014.78,-148.1 3333.7,-132.77 3513,-107 3525.25,-105.24 3538.39,-102.13 3550.1,-98.9"/>
<polygon fill="#63b8ff" stroke="#63b8ff" points="3551.31,-102.19 3559.96,-96.06 3549.38,-95.46 3551.31,-102.19"/>
</a>
</g>
</g>
<!-- Node39 -->
<g id="Node000039" class="node">
<title>Node39</title>
<g id="a_Node000039"><a xlink:href="../../dc/d28/constexpr__utils_8inl.html" target="_top" xlink:title="Inline implementations for constexpr helpers declared in constexpr_utils.hpp.">
<polygon fill="white" stroke="#666666" points="3798,-96 3668,-96 3668,-77 3798,-77 3798,-96"/>
<text text-anchor="middle" x="3733" y="-84" font-family="Helvetica,sans-Serif" font-size="10.00">core/constexpr_utils.inl</text>
</a>
</g>
</g>
<!-- Node1&#45;&gt;Node39 -->
<g id="edge43_Node000001_Node000039" class="edge">
<title>Node1&#45;&gt;Node39</title>
<g id="a_edge43_Node000001_Node000039"><a xlink:title=" ">
<path fill="none" stroke="#63b8ff" d="M1743.79,-151.08C2028.01,-148.55 3464.39,-134.46 3659,-107 3671.54,-105.23 3685,-102.08 3696.96,-98.81"/>
<polygon fill="#63b8ff" stroke="#63b8ff" points="3697.93,-102.17 3706.59,-96.07 3696.02,-95.44 3697.93,-102.17"/>
</a>
</g>
</g>
<!-- Node40 -->
<g id="Node000040" class="node">
<title>Node40</title>
<g id="a_Node000040"><a xlink:href="../../d7/d40/fixed__string_8inl.html" target="_top" xlink:title="Inline implementations for toy::FixedString.">
<polygon fill="white" stroke="#666666" points="3928,-96 3816,-96 3816,-77 3928,-77 3928,-96"/>
<text text-anchor="middle" x="3872" y="-84" font-family="Helvetica,sans-Serif" font-size="10.00">core/fixed_string.inl</text>
</a>
</g>
</g>
<!-- Node1&#45;&gt;Node40 -->
<g id="edge44_Node000001_Node000040" class="edge">
<title>Node1&#45;&gt;Node40</title>
<g id="a_edge44_Node000001_Node000040"><a xlink:title=" ">
<path fill="none" stroke="#63b8ff" d="M1743.57,-151.26C2039.77,-149.71 3597.33,-140.03 3807,-107 3817.65,-105.32 3828.99,-102.35 3839.17,-99.23"/>
<polygon fill="#63b8ff" stroke="#63b8ff" points="3840.44,-102.5 3848.89,-96.1 3838.3,-95.83 3840.44,-102.5"/>
</a>
</g>
</g>
<!-- Node41 -->
<g id="Node000041" class="node">
<title>Node41</title>
<g id="a_Node000041"><a xlink:href="../../da/dc9/fixed__vector_8inl.html" target="_top" xlink:title="Inline implementations for toy::FixedVector.">
<polygon fill="white" stroke="#666666" points="4060,-96 3946,-96 3946,-77 4060,-77 4060,-96"/>
<text text-anchor="middle" x="4003" y="-84" font-family="Helvetica,sans-Serif" font-size="10.00">core/fixed_vector.inl</text>
</a>
</g>
</g>
<!-- Node1&#45;&gt;Node41 -->
<g id="edge45_Node000001_Node000041" class="edge">
<title>Node1&#45;&gt;Node41</title>
<g id="a_edge45_Node000001_Node000041"><a xlink:title=" ">
<path fill="none" stroke="#63b8ff" d="M1743.54,-151.31C2050.25,-150.04 3713.62,-141.58 3937,-107 3948.01,-105.3 3959.75,-102.25 3970.23,-99.06"/>
<polygon fill="#63b8ff" stroke="#63b8ff" points="3971.36,-102.37 3979.83,-96 3969.24,-95.7 3971.36,-102.37"/>
</a>
</g>
</g>
<!-- Node42 -->
<g id="Node000042" class="node">
<title>Node42</title>
<g id="a_Node000042"><a xlink:href="../../d4/d97/format__string_8inl.html" target="_top" xlink:title="Inline implementations for toy::FormatString.">
<polygon fill="white" stroke="#666666" points="4200,-96 4078,-96 4078,-77 4200,-77 4200,-96"/>
<text text-anchor="middle" x="4139" y="-84" font-family="Helvetica,sans-Serif" font-size="10.00">core/format_string.inl</text>
</a>
</g>
</g>
<!-- Node1&#45;&gt;Node42 -->
<g id="edge46_Node000001_Node000042" class="edge">
<title>Node1&#45;&gt;Node42</title>
<g id="a_edge46_Node000001_Node000042"><a xlink:title=" ">
<path fill="none" stroke="#63b8ff" d="M1743.55,-151.33C2060.67,-150.1 3831.47,-141.74 4069,-107 4080.76,-105.28 4093.33,-102.19 4104.54,-98.96"/>
<polygon fill="#63b8ff" stroke="#63b8ff" points="4105.82,-102.24 4114.38,-96 4103.8,-95.53 4105.82,-102.24"/>
</a>
</g>
</g>
<!-- Node43 -->
<g id="Node000043" class="node">
<title>Node43</title>
<g id="a_Node000043"><a xlink:href="../../d9/dcb/o__string__stream_8inl.html" target="_top" xlink:title="Inline implementations for toy::OStringStream.">
<polygon fill="white" stroke="#666666" points="4352,-96 4218,-96 4218,-77 4352,-77 4352,-96"/>
<text text-anchor="middle" x="4285" y="-84" font-family="Helvetica,sans-Serif" font-size="10.00">core/o_string_stream.inl</text>
</a>
</g>
</g>
<!-- Node1&#45;&gt;Node43 -->
<g id="edge47_Node000001_Node000043" class="edge">
<title>Node1&#45;&gt;Node43</title>
<g id="a_edge47_Node000001_Node000043"><a xlink:title=" ">
<path fill="none" stroke="#63b8ff" d="M1743.73,-151.32C2072.1,-150.03 3956.41,-141.16 4209,-107 4221.97,-105.25 4235.91,-102.06 4248.27,-98.77"/>
<polygon fill="#63b8ff" stroke="#63b8ff" points="4249.52,-102.05 4258.22,-96 4247.65,-95.31 4249.52,-102.05"/>
</a>
</g>
</g>
<!-- Node44 -->
<g id="Node000044" class="node">
<title>Node44</title>
<g id="a_Node000044"><a xlink:href="../../db/d33/string__fixed__storage_8inl.html" target="_top" xlink:title="Inline implementations for toy::StringFixedStorage.">
<polygon fill="white" stroke="#666666" points="4524,-96 4370,-96 4370,-77 4524,-77 4524,-96"/>
<text text-anchor="middle" x="4447" y="-84" font-family="Helvetica,sans-Serif" font-size="10.00">core/string_fixed_storage.inl</text>
</a>
</g>
</g>
<!-- Node1&#45;&gt;Node44 -->
<g id="edge48_Node000001_Node000044" class="edge">
<title>Node1&#45;&gt;Node44</title>
<g id="a_edge48_Node000001_Node000044"><a xlink:title=" ">
<path fill="none" stroke="#63b8ff" d="M1743.63,-151.29C2083.03,-149.77 4091.85,-139.41 4361,-107 4375.92,-105.2 4392.05,-101.92 4406.26,-98.55"/>
<polygon fill="#63b8ff" stroke="#63b8ff" points="4407.34,-101.88 4416.22,-96.1 4405.67,-95.09 4407.34,-101.88"/>
</a>
</g>
</g>
<!-- Node45 -->
<g id="Node000045" class="node">
<title>Node45</title>
<g id="a_Node000045"><a xlink:href="../../d2/d2b/core_2utils_8inl.html" target="_top" xlink:title="Inline implementations for utilities declared in utils.hpp.">
<polygon fill="white" stroke="#666666" points="4619.5,-96 4542.5,-96 4542.5,-77 4619.5,-77 4619.5,-96"/>
<text text-anchor="middle" x="4581" y="-84" font-family="Helvetica,sans-Serif" font-size="10.00">core/utils.inl</text>
</a>
</g>
</g>
<!-- Node1&#45;&gt;Node45 -->
<g id="edge49_Node000001_Node000045" class="edge">
<title>Node1&#45;&gt;Node45</title>
<g id="a_edge49_Node000001_Node000045"><a xlink:title=" ">
<path fill="none" stroke="#63b8ff" d="M1743.66,-151.25C2107.35,-149.3 4390.82,-135.94 4533,-107 4540.22,-105.53 4547.74,-103 4554.63,-100.24"/>
<polygon fill="#63b8ff" stroke="#63b8ff" points="4556.36,-103.31 4564.15,-96.14 4553.58,-96.88 4556.36,-103.31"/>
</a>
</g>
</g>
<!-- Node20&#45;&gt;Node21 -->
<g id="edge20_Node000020_Node000021" class="edge">
<title>Node20&#45;&gt;Node21</title>
<g id="a_edge20_Node000020_Node000021"><a xlink:title=" ">
<path fill="none" stroke="#63b8ff" d="M1379.19,-65.96C1364.79,-56.51 1347.54,-45.2 1333.1,-35.74"/>
<polygon fill="#63b8ff" stroke="#63b8ff" points="1334.81,-32.67 1324.52,-30.11 1330.97,-38.52 1334.81,-32.67"/>
</a>
</g>
</g>
<!-- Node22 -->
<g id="Node000022" class="node">
<title>Node22</title>
<g id="a_Node000022"><a xlink:href="../../d1/d5f/assertion__macro__gcc__clang_8hpp.html" target="_top" xlink:title="Debug and Release assertion macro implementations for GCC/Clang platforms.">
<polygon fill="white" stroke="#666666" points="1499.5,-30 1372.5,-30 1372.5,0 1499.5,0 1499.5,-30"/>
<text text-anchor="start" x="1380.5" y="-18" font-family="Helvetica,sans-Serif" font-size="10.00">../common/assertion</text>
<text text-anchor="middle" x="1436" y="-7" font-family="Helvetica,sans-Serif" font-size="10.00">_macro_gcc_clang.hpp</text>
</a>
</g>
</g>
<!-- Node20&#45;&gt;Node22 -->
<g id="edge21_Node000020_Node000022" class="edge">
<title>Node20&#45;&gt;Node22</title>
<g id="a_edge21_Node000020_Node000022"><a xlink:title=" ">
<path fill="none" stroke="#63b8ff" d="M1416.66,-65.77C1419.85,-57.58 1423.57,-48.01 1426.89,-39.46"/>
<polygon fill="#63b8ff" stroke="#63b8ff" points="1430.19,-40.63 1430.55,-30.04 1423.66,-38.09 1430.19,-40.63"/>
</a>
</g>
</g>
<!-- Node25&#45;&gt;Node26 -->
<g id="edge25_Node000025_Node000026" class="edge">
<title>Node25&#45;&gt;Node26</title>
<g id="a_edge25_Node000025_Node000026"><a xlink:title=" ">
<path fill="none" stroke="#63b8ff" d="M1872.56,-76.94C1886.87,-73.16 1904.22,-68.93 1920,-66 2045.27,-42.74 2194.3,-27.56 2272.65,-20.54"/>
<polygon fill="#63b8ff" stroke="#63b8ff" points="2273.11,-24.01 2282.76,-19.64 2272.49,-17.04 2273.11,-24.01"/>
</a>
</g>
</g>
<!-- Node29&#45;&gt;Node26 -->
<g id="edge29_Node000029_Node000026" class="edge">
<title>Node29&#45;&gt;Node26</title>
<g id="a_edge29_Node000029_Node000026"><a xlink:title=" ">
<path fill="none" stroke="#63b8ff" d="M2327,-76.98C2327,-66.56 2327,-48.61 2327,-34.88"/>
<polygon fill="#63b8ff" stroke="#63b8ff" points="2330.5,-34.59 2327,-24.59 2323.5,-34.59 2330.5,-34.59"/>
</a>
</g>
</g>
<!-- Node31&#45;&gt;Node26 -->
<g id="edge32_Node000031_Node000026" class="edge">
<title>Node31&#45;&gt;Node26</title>
<g id="a_edge32_Node000031_Node000026"><a xlink:title=" ">
<path fill="none" stroke="#63b8ff" d="M2574.78,-76.99C2561.87,-73.52 2546.73,-69.5 2533,-66 2478.15,-52.02 2414.84,-36.79 2373.04,-26.86"/>
<polygon fill="#63b8ff" stroke="#63b8ff" points="2373.7,-23.41 2363.16,-24.51 2372.08,-30.23 2373.7,-23.41"/>
</a>
</g>
</g>
<!-- Node33&#45;&gt;Node26 -->
<g id="edge35_Node000033_Node000026" class="edge">
<title>Node33&#45;&gt;Node26</title>
<g id="a_edge35_Node000033_Node000026"><a xlink:title=" ">
<path fill="none" stroke="#63b8ff" d="M2841.44,-76.93C2826.87,-73.11 2809.14,-68.84 2793,-66 2645.35,-39.98 2468.83,-25.51 2381.49,-19.45"/>
<polygon fill="#63b8ff" stroke="#63b8ff" points="2381.51,-15.94 2371.29,-18.75 2381.03,-22.93 2381.51,-15.94"/>
</a>
</g>
</g>
</g>
</svg>
