<?xml version="1.0" encoding="UTF-8" standalone="no"?>
<!DOCTYPE svg PUBLIC "-//W3C//DTD SVG 1.1//EN"
 "http://www.w3.org/Graphics/SVG/1.1/DTD/svg11.dtd">
<!-- Generated by graphviz version 2.43.0 (0)
 -->
<!-- Title: include/core.hpp Pages: 1 -->
<svg width="1225pt" height="104pt"
 viewBox="0.00 0.00 1224.50 104.00" xmlns="http://www.w3.org/2000/svg" xmlns:xlink="http://www.w3.org/1999/xlink">
<g id="graph0" class="graph" transform="scale(1 1) rotate(0) translate(4 100)">
<title>include/core.hpp</title>
<!-- Node1 -->
<g id="Node000001" class="node">
<title>Node1</title>
<g id="a_Node000001"><a xlink:title=" ">
<polygon fill="#999999" stroke="#666666" points="533.5,-96 436.5,-96 436.5,-77 533.5,-77 533.5,-96"/>
<text text-anchor="middle" x="485" y="-84" font-family="Helvetica,sans-Serif" font-size="10.00">include/core.hpp</text>
</a>
</g>
</g>
<!-- Node2 -->
<g id="Node000002" class="node">
<title>Node2</title>
<g id="a_Node000002"><a xlink:title=" ">
<polygon fill="#e0e0e0" stroke="#999999" points="64,-30 0,-30 0,-11 64,-11 64,-30"/>
<text text-anchor="middle" x="32" y="-18" font-family="Helvetica,sans-Serif" font-size="10.00">algorithm</text>
</a>
</g>
</g>
<!-- Node1&#45;&gt;Node2 -->
<g id="edge1_Node000001_Node000002" class="edge">
<title>Node1&#45;&gt;Node2</title>
<g id="a_edge1_Node000001_Node000002"><a xlink:title=" ">
<path fill="none" stroke="#63b8ff" d="M436.43,-85.48C358.34,-84.3 200.72,-77.14 73,-41 67.41,-39.42 61.63,-37.13 56.25,-34.67"/>
<polygon fill="#63b8ff" stroke="#63b8ff" points="57.62,-31.44 47.1,-30.18 54.53,-37.73 57.62,-31.44"/>
</a>
</g>
</g>
<!-- Node3 -->
<g id="Node000003" class="node">
<title>Node3</title>
<g id="a_Node000003"><a xlink:title=" ">
<polygon fill="#e0e0e0" stroke="#999999" points="124,-30 82,-30 82,-11 124,-11 124,-30"/>
<text text-anchor="middle" x="103" y="-18" font-family="Helvetica,sans-Serif" font-size="10.00">array</text>
</a>
</g>
</g>
<!-- Node1&#45;&gt;Node3 -->
<g id="edge2_Node000001_Node000003" class="edge">
<title>Node1&#45;&gt;Node3</title>
<g id="a_edge2_Node000001_Node000003"><a xlink:title=" ">
<path fill="none" stroke="#63b8ff" d="M436.43,-86.13C367.01,-85.55 236.39,-78.87 133,-41 129.34,-39.66 125.68,-37.81 122.23,-35.77"/>
<polygon fill="#63b8ff" stroke="#63b8ff" points="124.03,-32.77 113.75,-30.19 120.18,-38.62 124.03,-32.77"/>
</a>
</g>
</g>
<!-- Node4 -->
<g id="Node000004" class="node">
<title>Node4</title>
<g id="a_Node000004"><a xlink:title=" ">
<polygon fill="#e0e0e0" stroke="#999999" points="202,-30 142,-30 142,-11 202,-11 202,-30"/>
<text text-anchor="middle" x="172" y="-18" font-family="Helvetica,sans-Serif" font-size="10.00">concepts</text>
</a>
</g>
</g>
<!-- Node1&#45;&gt;Node4 -->
<g id="edge3_Node000001_Node000004" class="edge">
<title>Node1&#45;&gt;Node4</title>
<g id="a_edge3_Node000001_Node000004"><a xlink:title=" ">
<path fill="none" stroke="#63b8ff" d="M436.45,-82.07C380.85,-77.13 287.59,-65.73 211,-41 205.91,-39.36 200.65,-37.13 195.72,-34.78"/>
<polygon fill="#63b8ff" stroke="#63b8ff" points="197.24,-31.62 186.74,-30.2 194.05,-37.86 197.24,-31.62"/>
</a>
</g>
</g>
<!-- Node5 -->
<g id="Node000005" class="node">
<title>Node5</title>
<g id="a_Node000005"><a xlink:title=" ">
<polygon fill="#e0e0e0" stroke="#999999" points="273.5,-30 220.5,-30 220.5,-11 273.5,-11 273.5,-30"/>
<text text-anchor="middle" x="247" y="-18" font-family="Helvetica,sans-Serif" font-size="10.00">cstddef</text>
</a>
</g>
</g>
<!-- Node1&#45;&gt;Node5 -->
<g id="edge4_Node000001_Node000005" class="edge">
<title>Node1&#45;&gt;Node5</title>
<g id="a_edge4_Node000001_Node000005"><a xlink:title=" ">
<path fill="none" stroke="#63b8ff" d="M436.16,-78.67C394.56,-71.93 333.64,-59.87 283,-41 278.53,-39.34 273.94,-37.21 269.58,-34.97"/>
<polygon fill="#63b8ff" stroke="#63b8ff" points="271.04,-31.78 260.59,-30.03 267.68,-37.91 271.04,-31.78"/>
</a>
</g>
</g>
<!-- Node6 -->
<g id="Node000006" class="node">
<title>Node6</title>
<g id="a_Node000006"><a xlink:title=" ">
<polygon fill="#e0e0e0" stroke="#999999" points="342,-30 292,-30 292,-11 342,-11 342,-30"/>
<text text-anchor="middle" x="317" y="-18" font-family="Helvetica,sans-Serif" font-size="10.00">cstdint</text>
</a>
</g>
</g>
<!-- Node1&#45;&gt;Node6 -->
<g id="edge5_Node000001_Node000006" class="edge">
<title>Node1&#45;&gt;Node6</title>
<g id="a_edge5_Node000001_Node000006"><a xlink:title=" ">
<path fill="none" stroke="#63b8ff" d="M453.46,-76.97C425.87,-69.05 385.01,-56.22 351,-41 347.2,-39.3 343.27,-37.29 339.49,-35.23"/>
<polygon fill="#63b8ff" stroke="#63b8ff" points="340.98,-32.05 330.57,-30.11 337.5,-38.13 340.98,-32.05"/>
</a>
</g>
</g>
<!-- Node7 -->
<g id="Node000007" class="node">
<title>Node7</title>
<g id="a_Node000007"><a xlink:title=" ">
<polygon fill="#e0e0e0" stroke="#999999" points="410,-30 360,-30 360,-11 410,-11 410,-30"/>
<text text-anchor="middle" x="385" y="-18" font-family="Helvetica,sans-Serif" font-size="10.00">cstring</text>
</a>
</g>
</g>
<!-- Node1&#45;&gt;Node7 -->
<g id="edge6_Node000001_Node000007" class="edge">
<title>Node1&#45;&gt;Node7</title>
<g id="a_edge6_Node000001_Node000007"><a xlink:title=" ">
<path fill="none" stroke="#63b8ff" d="M471.51,-76.87C455.04,-66.32 426.93,-48.34 407.24,-35.73"/>
<polygon fill="#63b8ff" stroke="#63b8ff" points="408.9,-32.64 398.59,-30.2 405.13,-38.54 408.9,-32.64"/>
</a>
</g>
</g>
<!-- Node8 -->
<g id="Node000008" class="node">
<title>Node8</title>
<g id="a_Node000008"><a xlink:title=" ">
<polygon fill="#e0e0e0" stroke="#999999" points="477.5,-30 428.5,-30 428.5,-11 477.5,-11 477.5,-30"/>
<text text-anchor="middle" x="453" y="-18" font-family="Helvetica,sans-Serif" font-size="10.00">cuchar</text>
</a>
</g>
</g>
<!-- Node1&#45;&gt;Node8 -->
<g id="edge7_Node000001_Node000008" class="edge">
<title>Node1&#45;&gt;Node8</title>
<g id="a_edge7_Node000001_Node000008"><a xlink:title=" ">
<path fill="none" stroke="#63b8ff" d="M480.68,-76.87C475.94,-67.38 468.18,-51.86 462.08,-39.66"/>
<polygon fill="#63b8ff" stroke="#63b8ff" points="465.06,-37.78 457.45,-30.41 458.79,-40.91 465.06,-37.78"/>
</a>
</g>
</g>
<!-- Node9 -->
<g id="Node000009" class="node">
<title>Node9</title>
<g id="a_Node000009"><a xlink:title=" ">
<polygon fill="#e0e0e0" stroke="#999999" points="540,-30 496,-30 496,-11 540,-11 540,-30"/>
<text text-anchor="middle" x="518" y="-18" font-family="Helvetica,sans-Serif" font-size="10.00">string</text>
</a>
</g>
</g>
<!-- Node1&#45;&gt;Node9 -->
<g id="edge8_Node000001_Node000009" class="edge">
<title>Node1&#45;&gt;Node9</title>
<g id="a_edge8_Node000001_Node000009"><a xlink:title=" ">
<path fill="none" stroke="#63b8ff" d="M489.45,-76.87C494.39,-67.28 502.51,-51.55 508.82,-39.3"/>
<polygon fill="#63b8ff" stroke="#63b8ff" points="511.94,-40.9 513.41,-30.41 505.71,-37.69 511.94,-40.9"/>
</a>
</g>
</g>
<!-- Node10 -->
<g id="Node000010" class="node">
<title>Node10</title>
<g id="a_Node000010"><a xlink:title=" ">
<polygon fill="#e0e0e0" stroke="#999999" points="603.5,-30 558.5,-30 558.5,-11 603.5,-11 603.5,-30"/>
<text text-anchor="middle" x="581" y="-18" font-family="Helvetica,sans-Serif" font-size="10.00">utility</text>
</a>
</g>
</g>
<!-- Node1&#45;&gt;Node10 -->
<g id="edge9_Node000001_Node000010" class="edge">
<title>Node1&#45;&gt;Node10</title>
<g id="a_edge9_Node000001_Node000010"><a xlink:title=" ">
<path fill="none" stroke="#63b8ff" d="M497.95,-76.87C513.69,-66.37 540.5,-48.5 559.4,-35.9"/>
<polygon fill="#63b8ff" stroke="#63b8ff" points="561.57,-38.66 567.95,-30.2 557.69,-32.83 561.57,-38.66"/>
</a>
</g>
</g>
<!-- Node11 -->
<g id="Node000011" class="node">
<title>Node11</title>
<g id="a_Node000011"><a xlink:href="../../dd/d9e/linux_2platform__config_8hpp.html" target="_top" xlink:title="additional linux platform header">
<polygon fill="white" stroke="#666666" points="776.5,-41 621.5,-41 621.5,0 776.5,0 776.5,-41"/>
<text text-anchor="start" x="629.5" y="-29" font-family="Helvetica,sans-Serif" font-size="10.00">/home/runner/work/toygine2</text>
<text text-anchor="start" x="629.5" y="-18" font-family="Helvetica,sans-Serif" font-size="10.00">/toygine2/src/platforms</text>
<text text-anchor="middle" x="699" y="-7" font-family="Helvetica,sans-Serif" font-size="10.00">/linux/platform_config.hpp</text>
</a>
</g>
</g>
<!-- Node1&#45;&gt;Node11 -->
<g id="edge10_Node000001_Node000011" class="edge">
<title>Node1&#45;&gt;Node11</title>
<g id="a_edge10_Node000001_Node000011"><a xlink:title=" ">
<path fill="none" stroke="#63b8ff" d="M513.86,-76.87C541.93,-68.47 585.77,-55.36 623.74,-44.01"/>
<polygon fill="#63b8ff" stroke="#63b8ff" points="625.19,-47.23 633.77,-41.01 623.18,-40.52 625.19,-47.23"/>
</a>
</g>
</g>
<!-- Node12 -->
<g id="Node000012" class="node">
<title>Node12</title>
<g id="a_Node000012"><a xlink:href="../../d0/d46/fix__string_8hpp.html" target="_top" xlink:title="Template string class with fixed&#45;size character buffer.">
<polygon fill="white" stroke="#666666" points="901.5,-30 794.5,-30 794.5,-11 901.5,-11 901.5,-30"/>
<text text-anchor="middle" x="848" y="-18" font-family="Helvetica,sans-Serif" font-size="10.00">core/fix_string.hpp</text>
</a>
</g>
</g>
<!-- Node1&#45;&gt;Node12 -->
<g id="edge11_Node000001_Node000012" class="edge">
<title>Node1&#45;&gt;Node12</title>
<g id="a_edge11_Node000001_Node000012"><a xlink:title=" ">
<path fill="none" stroke="#63b8ff" d="M533.66,-80.7C593.54,-74.24 698.09,-61.19 786,-41 795.19,-38.89 804.98,-36.08 814.01,-33.25"/>
<polygon fill="#63b8ff" stroke="#63b8ff" points="815.36,-36.49 823.8,-30.09 813.21,-29.83 815.36,-36.49"/>
</a>
</g>
</g>
<!-- Node13 -->
<g id="Node000013" class="node">
<title>Node13</title>
<g id="a_Node000013"><a xlink:href="../../df/d93/utils_8hpp.html" target="_top" xlink:title="Core utility functions for string manipulation, encoding conversion, and number formatting.">
<polygon fill="white" stroke="#666666" points="1002.5,-30 919.5,-30 919.5,-11 1002.5,-11 1002.5,-30"/>
<text text-anchor="middle" x="961" y="-18" font-family="Helvetica,sans-Serif" font-size="10.00">core/utils.hpp</text>
</a>
</g>
</g>
<!-- Node1&#45;&gt;Node13 -->
<g id="edge12_Node000001_Node000013" class="edge">
<title>Node1&#45;&gt;Node13</title>
<g id="a_edge12_Node000001_Node000013"><a xlink:title=" ">
<path fill="none" stroke="#63b8ff" d="M533.63,-84.63C613.49,-82.27 776.95,-73.52 911,-41 918.18,-39.26 925.71,-36.73 932.68,-34.06"/>
<polygon fill="#63b8ff" stroke="#63b8ff" points="934.43,-37.12 942.39,-30.13 931.81,-30.64 934.43,-37.12"/>
</a>
</g>
</g>
<!-- Node14 -->
<g id="Node000014" class="node">
<title>Node14</title>
<g id="a_Node000014"><a xlink:href="../../db/d84/fix__string_8inl.html" target="_top" xlink:title="Inline implementations for FixString template class.">
<polygon fill="white" stroke="#666666" points="1121.5,-30 1020.5,-30 1020.5,-11 1121.5,-11 1121.5,-30"/>
<text text-anchor="middle" x="1071" y="-18" font-family="Helvetica,sans-Serif" font-size="10.00">core/fix_string.inl</text>
</a>
</g>
</g>
<!-- Node1&#45;&gt;Node14 -->
<g id="edge13_Node000001_Node000014" class="edge">
<title>Node1&#45;&gt;Node14</title>
<g id="a_edge13_Node000001_Node000014"><a xlink:title=" ">
<path fill="none" stroke="#63b8ff" d="M533.86,-85.19C627.56,-83.75 838.61,-76.46 1012,-41 1021.14,-39.13 1030.83,-36.3 1039.67,-33.37"/>
<polygon fill="#63b8ff" stroke="#63b8ff" points="1040.9,-36.65 1049.2,-30.07 1038.61,-30.03 1040.9,-36.65"/>
</a>
</g>
</g>
<!-- Node15 -->
<g id="Node000015" class="node">
<title>Node15</title>
<g id="a_Node000015"><a xlink:href="../../df/d7d/utils_8inl.html" target="_top" xlink:title="Inline implementations of core utility functions for string manipulation and encoding conversion.">
<polygon fill="white" stroke="#666666" points="1216.5,-30 1139.5,-30 1139.5,-11 1216.5,-11 1216.5,-30"/>
<text text-anchor="middle" x="1178" y="-18" font-family="Helvetica,sans-Serif" font-size="10.00">core/utils.inl</text>
</a>
</g>
</g>
<!-- Node1&#45;&gt;Node15 -->
<g id="edge14_Node000001_Node000015" class="edge">
<title>Node1&#45;&gt;Node15</title>
<g id="a_edge14_Node000001_Node000015"><a xlink:title=" ">
<path fill="none" stroke="#63b8ff" d="M533.55,-84.19C663.57,-80.36 1017.46,-67.71 1131,-41 1137.93,-39.37 1145.16,-36.83 1151.81,-34.12"/>
<polygon fill="#63b8ff" stroke="#63b8ff" points="1153.26,-37.31 1161.04,-30.11 1150.47,-30.89 1153.26,-37.31"/>
</a>
</g>
</g>
</g>
</svg>
