<?xml version="1.0" encoding="UTF-8" standalone="no"?>
<!DOCTYPE svg PUBLIC "-//W3C//DTD SVG 1.1//EN"
 "http://www.w3.org/Graphics/SVG/1.1/DTD/svg11.dtd">
<!-- Generated by graphviz version 2.43.0 (0)
 -->
<!-- Title: include/core.hpp Pages: 1 -->
<!--zoomable 170 -->

<svg id="main" version="1.1" xmlns="http://www.w3.org/2000/svg" xmlns:xlink="http://www.w3.org/1999/xlink" xml:space="preserve" onload="init(evt)">

<style type="text/css"><![CDATA[
.node, .edge {opacity: 0.7;}
.node.selected, .edge.selected {opacity: 1;}
.edge:hover path { stroke: red; }
.edge:hover polygon { stroke: red; fill: red; }
]]></style>

<defs>
  <circle id="rim" cx="0" cy="0" r="7"/>
  <circle id="rim2" cx="0" cy="0" r="3.5"/>
  <g id="zoomPlus">
    <use xlink:href="#rim" fill="#404040"><set attributeName="fill" to="#808080" begin="zoomplus.mouseover" end="zoomplus.mouseout"/></use>
    <path d="M-4,0h8M0,-4v8" fill="none" stroke="white" stroke-width="1.5" pointer-events="none"/>
  </g>
  <g id="zoomMin">
    <use xlink:href="#rim" fill="#404040"><set attributeName="fill" to="#808080" begin="zoomminus.mouseover" end="zoomminus.mouseout"/></use>
    <path d="M-4,0h8" fill="none" stroke="white" stroke-width="1.5" pointer-events="none"/>
  </g>
  <g id="arrowUp" transform="translate(30 24)">
    <use xlink:href="#rim"/>
    <path pointer-events="none" fill="none" stroke="white" stroke-width="1.5" d="M0,-3.0v7 M-2.5,-0.5L0,-3.0L2.5,-0.5"/>
  </g>
  <g id="arrowRight" transform="rotate(90) translate(36 -43)">
    <use xlink:href="#rim"/>
    <path pointer-events="none" fill="none" stroke="white" stroke-width="1.5" d="M0,-3.0v7 M-2.5,-0.5L0,-3.0L2.5,-0.5"/>
  </g>
  <g id="arrowDown" transform="rotate(180) translate(-30 -48)">
    <use xlink:href="#rim"/>
    <path pointer-events="none" fill="none" stroke="white" stroke-width="1.5" d="M0,-3.0v7 M-2.5,-0.5L0,-3.0L2.5,-0.5"/>
  </g>
  <g id="arrowLeft" transform="rotate(270) translate(-36 17)">
    <use xlink:href="#rim"/>
    <path pointer-events="none" fill="none" stroke="white" stroke-width="1.5" d="M0,-3.0v7 M-2.5,-0.5L0,-3.0L2.5,-0.5"/>
  </g>
  <g id="resetDef">
    <use xlink:href="#rim2" fill="#404040"><set attributeName="fill" to="#808080" begin="reset.mouseover" end="reset.mouseout"/></use>
  </g>
</defs>
<script type="application/ecmascript">
var viewWidth = 4930;
var viewHeight = 170;
var sectionId = 'dynsection-0';
</script>
<script type="application/ecmascript" xlink:href="../../svg.min.js"/>
<svg id="graph" class="graph">
<g id="viewport">
<title>include/core.hpp</title>
<!-- Node1 -->
<g id="Node000001" class="node">
<title>Node1</title>
<g id="a_Node000001"><a xlink:title="Umbrella header for the engine core module.">
<polygon fill="#999999" stroke="#666666" points="1890.5,-162 1793.5,-162 1793.5,-143 1890.5,-143 1890.5,-162"/>
<text text-anchor="middle" x="1842" y="-150" font-family="Helvetica,sans-Serif" font-size="10.00">include/core.hpp</text>
</a>
</g>
</g>
<!-- Node2 -->
<g id="Node000002" class="node">
<title>Node2</title>
<g id="a_Node000002"><a xlink:title=" ">
<polygon fill="#e0e0e0" stroke="#999999" points="64,-96 0,-96 0,-77 64,-77 64,-96"/>
<text text-anchor="middle" x="32" y="-84" font-family="Helvetica,sans-Serif" font-size="10.00">algorithm</text>
</a>
</g>
</g>
<!-- Node1&#45;&gt;Node2 -->
<g id="edge1_Node000001_Node000002" class="edge">
<title>Node1&#45;&gt;Node2</title>
<g id="a_edge1_Node000001_Node000002"><a xlink:title=" ">
<path fill="none" stroke="#63b8ff" d="M1793.26,-151.48C1526.01,-151.23 244.16,-147.9 73,-107 67.01,-105.57 60.85,-103.19 55.19,-100.58"/>
<polygon fill="#63b8ff" stroke="#63b8ff" points="56.76,-97.45 46.25,-96.1 53.62,-103.71 56.76,-97.45"/>
</a>
</g>
</g>
<!-- Node3 -->
<g id="Node000003" class="node">
<title>Node3</title>
<g id="a_Node000003"><a xlink:title=" ">
<polygon fill="#e0e0e0" stroke="#999999" points="124,-96 82,-96 82,-77 124,-77 124,-96"/>
<text text-anchor="middle" x="103" y="-84" font-family="Helvetica,sans-Serif" font-size="10.00">array</text>
</a>
</g>
</g>
<!-- Node1&#45;&gt;Node3 -->
<g id="edge2_Node000001_Node000003" class="edge">
<title>Node1&#45;&gt;Node3</title>
<g id="a_edge2_Node000001_Node000003"><a xlink:title=" ">
<path fill="none" stroke="#63b8ff" d="M1793.47,-150.98C1523.33,-147.99 214.31,-132.26 133,-107 129.04,-105.77 125.11,-103.86 121.46,-101.7"/>
<polygon fill="#63b8ff" stroke="#63b8ff" points="123.36,-98.76 113.11,-96.09 119.45,-104.57 123.36,-98.76"/>
</a>
</g>
</g>
<!-- Node4 -->
<g id="Node000004" class="node">
<title>Node4</title>
<g id="a_Node000004"><a xlink:title=" ">
<polygon fill="#e0e0e0" stroke="#999999" points="171.5,-96 142.5,-96 142.5,-77 171.5,-77 171.5,-96"/>
<text text-anchor="middle" x="157" y="-84" font-family="Helvetica,sans-Serif" font-size="10.00">bit</text>
</a>
</g>
</g>
<!-- Node1&#45;&gt;Node4 -->
<g id="edge3_Node000001_Node000004" class="edge">
<title>Node1&#45;&gt;Node4</title>
<g id="a_edge3_Node000001_Node000004"><a xlink:title=" ">
<path fill="none" stroke="#63b8ff" d="M1793.45,-151.11C1527.58,-148.84 257.22,-136.51 180,-107 177.43,-106.02 174.95,-104.62 172.63,-103.02"/>
<polygon fill="#63b8ff" stroke="#63b8ff" points="174.51,-100.03 164.61,-96.26 170,-105.38 174.51,-100.03"/>
</a>
</g>
</g>
<!-- Node5 -->
<g id="Node000005" class="node">
<title>Node5</title>
<g id="a_Node000005"><a xlink:title=" ">
<polygon fill="#e0e0e0" stroke="#999999" points="236.5,-96 189.5,-96 189.5,-77 236.5,-77 236.5,-96"/>
<text text-anchor="middle" x="213" y="-84" font-family="Helvetica,sans-Serif" font-size="10.00">cmath</text>
</a>
</g>
</g>
<!-- Node1&#45;&gt;Node5 -->
<g id="edge4_Node000001_Node000005" class="edge">
<title>Node1&#45;&gt;Node5</title>
<g id="a_edge4_Node000001_Node000005"><a xlink:title=" ">
<path fill="none" stroke="#63b8ff" d="M1793.48,-151.63C1542.41,-152.11 396.44,-151.79 245,-107 240.72,-105.73 236.43,-103.75 232.45,-101.51"/>
<polygon fill="#63b8ff" stroke="#63b8ff" points="234.19,-98.47 223.87,-96.08 230.45,-104.39 234.19,-98.47"/>
</a>
</g>
</g>
<!-- Node6 -->
<g id="Node000006" class="node">
<title>Node6</title>
<g id="a_Node000006"><a xlink:title=" ">
<polygon fill="#e0e0e0" stroke="#999999" points="313.5,-96 254.5,-96 254.5,-77 313.5,-77 313.5,-96"/>
<text text-anchor="middle" x="284" y="-84" font-family="Helvetica,sans-Serif" font-size="10.00">compare</text>
</a>
</g>
</g>
<!-- Node1&#45;&gt;Node6 -->
<g id="edge5_Node000001_Node000006" class="edge">
<title>Node1&#45;&gt;Node6</title>
<g id="a_edge5_Node000001_Node000006"><a xlink:title=" ">
<path fill="none" stroke="#63b8ff" d="M1793.13,-151.32C1549.05,-150.26 468.12,-143.51 323,-107 317.4,-105.59 311.68,-103.29 306.4,-100.76"/>
<polygon fill="#63b8ff" stroke="#63b8ff" points="307.99,-97.64 297.51,-96.08 304.73,-103.83 307.99,-97.64"/>
</a>
</g>
</g>
<!-- Node7 -->
<g id="Node000007" class="node">
<title>Node7</title>
<g id="a_Node000007"><a xlink:title=" ">
<polygon fill="#e0e0e0" stroke="#999999" points="392,-96 332,-96 332,-77 392,-77 392,-96"/>
<text text-anchor="middle" x="362" y="-84" font-family="Helvetica,sans-Serif" font-size="10.00">concepts</text>
</a>
</g>
</g>
<!-- Node1&#45;&gt;Node7 -->
<g id="edge6_Node000001_Node000007" class="edge">
<title>Node1&#45;&gt;Node7</title>
<g id="a_edge6_Node000001_Node000007"><a xlink:title=" ">
<path fill="none" stroke="#63b8ff" d="M1793.31,-151.24C1557.32,-149.8 538.19,-141.63 401,-107 395.4,-105.59 389.68,-103.29 384.4,-100.75"/>
<polygon fill="#63b8ff" stroke="#63b8ff" points="385.99,-97.63 375.51,-96.08 382.73,-103.83 385.99,-97.63"/>
</a>
</g>
</g>
<!-- Node8 -->
<g id="Node000008" class="node">
<title>Node8</title>
<g id="a_Node000008"><a xlink:title=" ">
<polygon fill="#e0e0e0" stroke="#999999" points="463.5,-96 410.5,-96 410.5,-77 463.5,-77 463.5,-96"/>
<text text-anchor="middle" x="437" y="-84" font-family="Helvetica,sans-Serif" font-size="10.00">cstddef</text>
</a>
</g>
</g>
<!-- Node1&#45;&gt;Node8 -->
<g id="edge7_Node000001_Node000008" class="edge">
<title>Node1&#45;&gt;Node8</title>
<g id="a_edge7_Node000001_Node000008"><a xlink:title=" ">
<path fill="none" stroke="#63b8ff" d="M1793.46,-151.25C1564.99,-149.87 602.33,-142.02 473,-107 468.03,-105.65 462.99,-103.51 458.32,-101.12"/>
<polygon fill="#63b8ff" stroke="#63b8ff" points="459.81,-97.95 449.38,-96.07 456.37,-104.04 459.81,-97.95"/>
</a>
</g>
</g>
<!-- Node9 -->
<g id="Node000009" class="node">
<title>Node9</title>
<g id="a_Node000009"><a xlink:title=" ">
<polygon fill="#e0e0e0" stroke="#999999" points="532,-96 482,-96 482,-77 532,-77 532,-96"/>
<text text-anchor="middle" x="507" y="-84" font-family="Helvetica,sans-Serif" font-size="10.00">cstdint</text>
</a>
</g>
</g>
<!-- Node1&#45;&gt;Node9 -->
<g id="edge8_Node000001_Node000009" class="edge">
<title>Node1&#45;&gt;Node9</title>
<g id="a_edge8_Node000001_Node000009"><a xlink:title=" ">
<path fill="none" stroke="#63b8ff" d="M1793.3,-151.22C1571.55,-149.77 662.99,-141.74 541,-107 536.38,-105.69 531.73,-103.61 527.41,-101.3"/>
<polygon fill="#63b8ff" stroke="#63b8ff" points="529.01,-98.18 518.63,-96.07 525.43,-104.2 529.01,-98.18"/>
</a>
</g>
</g>
<!-- Node10 -->
<g id="Node000010" class="node">
<title>Node10</title>
<g id="a_Node000010"><a xlink:title=" ">
<polygon fill="#e0e0e0" stroke="#999999" points="600,-96 550,-96 550,-77 600,-77 600,-96"/>
<text text-anchor="middle" x="575" y="-84" font-family="Helvetica,sans-Serif" font-size="10.00">cstring</text>
</a>
</g>
</g>
<!-- Node1&#45;&gt;Node10 -->
<g id="edge9_Node000001_Node000010" class="edge">
<title>Node1&#45;&gt;Node10</title>
<g id="a_edge9_Node000001_Node000010"><a xlink:title=" ">
<path fill="none" stroke="#63b8ff" d="M1793.35,-151.12C1578.98,-149.28 724.14,-139.91 609,-107 604.39,-105.68 599.73,-103.61 595.41,-101.3"/>
<polygon fill="#63b8ff" stroke="#63b8ff" points="597.01,-98.18 586.63,-96.06 593.43,-104.19 597.01,-98.18"/>
</a>
</g>
</g>
<!-- Node11 -->
<g id="Node000011" class="node">
<title>Node11</title>
<g id="a_Node000011"><a xlink:title=" ">
<polygon fill="#e0e0e0" stroke="#999999" points="667.5,-96 618.5,-96 618.5,-77 667.5,-77 667.5,-96"/>
<text text-anchor="middle" x="643" y="-84" font-family="Helvetica,sans-Serif" font-size="10.00">cuchar</text>
</a>
</g>
</g>
<!-- Node1&#45;&gt;Node11 -->
<g id="edge10_Node000001_Node000011" class="edge">
<title>Node1&#45;&gt;Node11</title>
<g id="a_edge10_Node000001_Node000011"><a xlink:title=" ">
<path fill="none" stroke="#63b8ff" d="M1793.23,-151.05C1586,-148.94 784.17,-138.8 676,-107 671.62,-105.71 667.21,-103.71 663.12,-101.48"/>
<polygon fill="#63b8ff" stroke="#63b8ff" points="664.61,-98.29 654.26,-96.05 660.96,-104.26 664.61,-98.29"/>
</a>
</g>
</g>
<!-- Node12 -->
<g id="Node000012" class="node">
<title>Node12</title>
<g id="a_Node000012"><a xlink:title=" ">
<polygon fill="#e0e0e0" stroke="#999999" points="768.5,-96 685.5,-96 685.5,-77 768.5,-77 768.5,-96"/>
<text text-anchor="middle" x="727" y="-84" font-family="Helvetica,sans-Serif" font-size="10.00">initializer_list</text>
</a>
</g>
</g>
<!-- Node1&#45;&gt;Node12 -->
<g id="edge11_Node000001_Node000012" class="edge">
<title>Node1&#45;&gt;Node12</title>
<g id="a_edge11_Node000001_Node000012"><a xlink:title=" ">
<path fill="none" stroke="#63b8ff" d="M1793.5,-151.59C1612.27,-151.59 975.09,-148.56 777,-107 769.35,-105.4 761.35,-102.75 754.04,-99.92"/>
<polygon fill="#63b8ff" stroke="#63b8ff" points="755.19,-96.6 744.61,-96.02 752.52,-103.07 755.19,-96.6"/>
</a>
</g>
</g>
<!-- Node13 -->
<g id="Node000013" class="node">
<title>Node13</title>
<g id="a_Node000013"><a xlink:title=" ">
<polygon fill="#e0e0e0" stroke="#999999" points="839.5,-96 786.5,-96 786.5,-77 839.5,-77 839.5,-96"/>
<text text-anchor="middle" x="813" y="-84" font-family="Helvetica,sans-Serif" font-size="10.00">iterator</text>
</a>
</g>
</g>
<!-- Node1&#45;&gt;Node13 -->
<g id="edge12_Node000001_Node000013" class="edge">
<title>Node1&#45;&gt;Node13</title>
<g id="a_edge12_Node000001_Node000013"><a xlink:title=" ">
<path fill="none" stroke="#63b8ff" d="M1793.4,-150.6C1606.56,-146.97 940.36,-132.34 849,-107 844.04,-105.62 839,-103.46 834.33,-101.08"/>
<polygon fill="#63b8ff" stroke="#63b8ff" points="835.82,-97.9 825.4,-96.03 832.38,-104 835.82,-97.9"/>
</a>
</g>
</g>
<!-- Node14 -->
<g id="Node000014" class="node">
<title>Node14</title>
<g id="a_Node000014"><a xlink:title=" ">
<polygon fill="#e0e0e0" stroke="#999999" points="902,-96 858,-96 858,-77 902,-77 902,-96"/>
<text text-anchor="middle" x="880" y="-84" font-family="Helvetica,sans-Serif" font-size="10.00">limits</text>
</a>
</g>
</g>
<!-- Node1&#45;&gt;Node14 -->
<g id="edge13_Node000001_Node000014" class="edge">
<title>Node1&#45;&gt;Node14</title>
<g id="a_edge13_Node000001_Node000014"><a xlink:title=" ">
<path fill="none" stroke="#63b8ff" d="M1793.35,-150.62C1613.93,-147.19 995.32,-133.51 911,-107 906.95,-105.73 902.91,-103.79 899.14,-101.63"/>
<polygon fill="#63b8ff" stroke="#63b8ff" points="900.8,-98.53 890.51,-96.02 896.99,-104.4 900.8,-98.53"/>
</a>
</g>
</g>
<!-- Node15 -->
<g id="Node000015" class="node">
<title>Node15</title>
<g id="a_Node000015"><a xlink:title=" ">
<polygon fill="#e0e0e0" stroke="#999999" points="978,-96 920,-96 920,-77 978,-77 978,-96"/>
<text text-anchor="middle" x="949" y="-84" font-family="Helvetica,sans-Serif" font-size="10.00">memory</text>
</a>
</g>
</g>
<!-- Node1&#45;&gt;Node15 -->
<g id="edge14_Node000001_Node000015" class="edge">
<title>Node1&#45;&gt;Node15</title>
<g id="a_edge14_Node000001_Node000015"><a xlink:title=" ">
<path fill="none" stroke="#63b8ff" d="M1793.46,-151.64C1636.01,-151.67 1140.75,-148.41 987,-107 981.68,-105.57 976.24,-103.32 971.21,-100.86"/>
<polygon fill="#63b8ff" stroke="#63b8ff" points="972.62,-97.64 962.15,-96 969.31,-103.81 972.62,-97.64"/>
</a>
</g>
</g>
<!-- Node16 -->
<g id="Node000016" class="node">
<title>Node16</title>
<g id="a_Node000016"><a xlink:title=" ">
<polygon fill="#e0e0e0" stroke="#999999" points="1061.5,-96 996.5,-96 996.5,-77 1061.5,-77 1061.5,-96"/>
<text text-anchor="middle" x="1029" y="-84" font-family="Helvetica,sans-Serif" font-size="10.00">stdexcept</text>
</a>
</g>
</g>
<!-- Node1&#45;&gt;Node16 -->
<g id="edge15_Node000001_Node000016" class="edge">
<title>Node1&#45;&gt;Node16</title>
<g id="a_edge15_Node000001_Node000016"><a xlink:title=" ">
<path fill="none" stroke="#63b8ff" d="M1793.46,-151.07C1646.61,-149.41 1208.76,-141.61 1071,-107 1065.01,-105.49 1058.82,-103.13 1053.11,-100.57"/>
<polygon fill="#63b8ff" stroke="#63b8ff" points="1054.57,-97.39 1044.04,-96.17 1051.51,-103.69 1054.57,-97.39"/>
</a>
</g>
</g>
<!-- Node17 -->
<g id="Node000017" class="node">
<title>Node17</title>
<g id="a_Node000017"><a xlink:title=" ">
<polygon fill="#e0e0e0" stroke="#999999" points="1124,-96 1080,-96 1080,-77 1124,-77 1124,-96"/>
<text text-anchor="middle" x="1102" y="-84" font-family="Helvetica,sans-Serif" font-size="10.00">string</text>
</a>
</g>
</g>
<!-- Node1&#45;&gt;Node17 -->
<g id="edge16_Node000001_Node000017" class="edge">
<title>Node1&#45;&gt;Node17</title>
<g id="a_edge16_Node000001_Node000017"><a xlink:title=" ">
<path fill="none" stroke="#63b8ff" d="M1793.49,-151.56C1654.39,-151.23 1256.24,-146.76 1133,-107 1129.03,-105.72 1125.06,-103.81 1121.34,-101.69"/>
<polygon fill="#63b8ff" stroke="#63b8ff" points="1123.1,-98.66 1112.8,-96.18 1119.31,-104.54 1123.1,-98.66"/>
</a>
</g>
</g>
<!-- Node18 -->
<g id="Node000018" class="node">
<title>Node18</title>
<g id="a_Node000018"><a xlink:title=" ">
<polygon fill="#e0e0e0" stroke="#999999" points="1211.5,-96 1142.5,-96 1142.5,-77 1211.5,-77 1211.5,-96"/>
<text text-anchor="middle" x="1177" y="-84" font-family="Helvetica,sans-Serif" font-size="10.00">type_traits</text>
</a>
</g>
</g>
<!-- Node1&#45;&gt;Node18 -->
<g id="edge17_Node000001_Node000018" class="edge">
<title>Node1&#45;&gt;Node18</title>
<g id="a_edge17_Node000001_Node000018"><a xlink:title=" ">
<path fill="none" stroke="#63b8ff" d="M1793.38,-150.24C1666.62,-146.59 1328.34,-134.5 1220,-107 1213.89,-105.45 1207.58,-103.07 1201.73,-100.5"/>
<polygon fill="#63b8ff" stroke="#63b8ff" points="1202.98,-97.22 1192.44,-96.11 1199.99,-103.55 1202.98,-97.22"/>
</a>
</g>
</g>
<!-- Node19 -->
<g id="Node000019" class="node">
<title>Node19</title>
<g id="a_Node000019"><a xlink:title=" ">
<polygon fill="#e0e0e0" stroke="#999999" points="1274.5,-96 1229.5,-96 1229.5,-77 1274.5,-77 1274.5,-96"/>
<text text-anchor="middle" x="1252" y="-84" font-family="Helvetica,sans-Serif" font-size="10.00">utility</text>
</a>
</g>
</g>
<!-- Node1&#45;&gt;Node19 -->
<g id="edge18_Node000001_Node000019" class="edge">
<title>Node1&#45;&gt;Node19</title>
<g id="a_edge18_Node000001_Node000019"><a xlink:title=" ">
<path fill="none" stroke="#63b8ff" d="M1793.21,-150.09C1676.32,-146.3 1383,-134.3 1289,-107 1284.03,-105.56 1278.96,-103.41 1274.23,-101.05"/>
<polygon fill="#63b8ff" stroke="#63b8ff" points="1275.6,-97.81 1265.15,-96.11 1272.26,-103.96 1275.6,-97.81"/>
</a>
</g>
</g>
<!-- Node20 -->
<g id="Node000020" class="node">
<title>Node20</title>
<g id="a_Node000020"><a xlink:href="../../dd/d9e/linux_2platform__config_8hpp.html" target="_top" xlink:title="Compile&#45;time platform and CPU bindings for Linux.">
<polygon fill="white" stroke="#666666" points="1486.5,-107 1331.5,-107 1331.5,-66 1486.5,-66 1486.5,-107"/>
<text text-anchor="start" x="1339.5" y="-95" font-family="Helvetica,sans-Serif" font-size="10.00">/home/runner/work/toygine2</text>
<text text-anchor="start" x="1339.5" y="-84" font-family="Helvetica,sans-Serif" font-size="10.00">/toygine2/src/platforms</text>
<text text-anchor="middle" x="1409" y="-73" font-family="Helvetica,sans-Serif" font-size="10.00">/linux/platform_config.hpp</text>
</a>
</g>
</g>
<!-- Node1&#45;&gt;Node20 -->
<g id="edge19_Node000001_Node000020" class="edge">
<title>Node1&#45;&gt;Node20</title>
<g id="a_edge19_Node000001_Node000020"><a xlink:title=" ">
<path fill="none" stroke="#63b8ff" d="M1793.22,-146.73C1727.83,-140 1607.99,-126.54 1496.79,-107.24"/>
<polygon fill="#63b8ff" stroke="#63b8ff" points="1497.2,-103.76 1486.75,-105.48 1495.99,-110.65 1497.2,-103.76"/>
</a>
</g>
</g>
<!-- Node21 -->
<g id="Node000021" class="node">
<title>Node21</title>
<g id="a_Node000021"><a xlink:href="../../d3/d60/platform_8hpp.html" target="_top" xlink:title="Platform and CPU architecture enums with compile&#45;time and runtime detection.">
<polygon fill="white" stroke="#666666" points="1354.5,-30 1251.5,-30 1251.5,0 1354.5,0 1354.5,-30"/>
<text text-anchor="start" x="1259.5" y="-18" font-family="Helvetica,sans-Serif" font-size="10.00">../../../include/core</text>
<text text-anchor="middle" x="1303" y="-7" font-family="Helvetica,sans-Serif" font-size="10.00">/platform.hpp</text>
</a>
</g>
</g>
<!-- Node1&#45;&gt;Node21 -->
<g id="edge37_Node000001_Node000021" class="edge">
<title>Node1&#45;&gt;Node21</title>
<g id="a_edge37_Node000001_Node000021"><a xlink:title=" ">
<path fill="none" stroke="#63b8ff" d="M1793.34,-150.59C1670.82,-147.86 1356.84,-137.87 1322,-107 1303.49,-90.59 1300.33,-61.21 1300.78,-40.27"/>
<polygon fill="#63b8ff" stroke="#63b8ff" points="1304.28,-40.37 1301.28,-30.2 1297.29,-40.02 1304.28,-40.37"/>
</a>
</g>
</g>
<!-- Node23 -->
<g id="Node000023" class="node">
<title>Node23</title>
<g id="a_Node000023"><a xlink:href="../../d5/d96/assertion_8hpp.html" target="_top" xlink:title="Assertion system: callbacks, initialize/shutdown, and assertion() entry point.">
<polygon fill="white" stroke="#666666" points="1611.5,-96 1504.5,-96 1504.5,-77 1611.5,-77 1611.5,-96"/>
<text text-anchor="middle" x="1558" y="-84" font-family="Helvetica,sans-Serif" font-size="10.00">core/assertion.hpp</text>
</a>
</g>
</g>
<!-- Node1&#45;&gt;Node23 -->
<g id="edge22_Node000001_Node000023" class="edge">
<title>Node1&#45;&gt;Node23</title>
<g id="a_edge22_Node000001_Node000023"><a xlink:title=" ">
<path fill="none" stroke="#63b8ff" d="M1793.4,-143.18C1748.4,-135.13 1679.79,-121.98 1621,-107 1611.97,-104.7 1602.32,-101.89 1593.35,-99.13"/>
<polygon fill="#63b8ff" stroke="#63b8ff" points="1594.17,-95.72 1583.58,-96.06 1592.07,-102.4 1594.17,-95.72"/>
</a>
</g>
</g>
<!-- Node24 -->
<g id="Node000024" class="node">
<title>Node24</title>
<g id="a_Node000024"><a xlink:href="../../df/d61/bitwise__enum_8hpp.html" target="_top" xlink:title="Opt&#45;in bitwise operators for scoped enumerations used as flag sets.">
<polygon fill="white" stroke="#666666" points="1760,-96 1630,-96 1630,-77 1760,-77 1760,-96"/>
<text text-anchor="middle" x="1695" y="-84" font-family="Helvetica,sans-Serif" font-size="10.00">core/bitwise_enum.hpp</text>
</a>
</g>
</g>
<!-- Node1&#45;&gt;Node24 -->
<g id="edge23_Node000001_Node000024" class="edge">
<title>Node1&#45;&gt;Node24</title>
<g id="a_edge23_Node000001_Node000024"><a xlink:title=" ">
<path fill="none" stroke="#63b8ff" d="M1822.17,-142.87C1796.97,-131.89 1753.24,-112.86 1724.21,-100.22"/>
<polygon fill="#63b8ff" stroke="#63b8ff" points="1725.55,-96.98 1714.98,-96.2 1722.75,-103.4 1725.55,-96.98"/>
</a>
</g>
</g>
<!-- Node25 -->
<g id="Node000025" class="node">
<title>Node25</title>
<g id="a_Node000025"><a xlink:href="../../dd/ded/c__string__view_8hpp.html" target="_top" xlink:title="Non&#45;owning view over null&#45;terminated C strings.">
<polygon fill="white" stroke="#666666" points="1906,-96 1778,-96 1778,-77 1906,-77 1906,-96"/>
<text text-anchor="middle" x="1842" y="-84" font-family="Helvetica,sans-Serif" font-size="10.00">core/c_string_view.hpp</text>
</a>
</g>
</g>
<!-- Node1&#45;&gt;Node25 -->
<g id="edge24_Node000001_Node000025" class="edge">
<title>Node1&#45;&gt;Node25</title>
<g id="a_edge24_Node000001_Node000025"><a xlink:title=" ">
<path fill="none" stroke="#63b8ff" d="M1842,-142.87C1842,-133.66 1842,-118.79 1842,-106.77"/>
<polygon fill="#63b8ff" stroke="#63b8ff" points="1845.5,-106.41 1842,-96.41 1838.5,-106.41 1845.5,-106.41"/>
</a>
</g>
</g>
<!-- Node26 -->
<g id="Node000026" class="node">
<title>Node26</title>
<g id="a_Node000026"><a xlink:href="../../de/deb/string__like_8hpp.html" target="_top" xlink:title="Concept for read&#45;only C&#45;string views with explicit length.">
<polygon fill="white" stroke="#666666" points="2371,-24.5 2283,-24.5 2283,-5.5 2371,-5.5 2371,-24.5"/>
<text text-anchor="middle" x="2327" y="-12.5" font-family="Helvetica,sans-Serif" font-size="10.00">string_like.hpp</text>
</a>
</g>
</g>
<!-- Node1&#45;&gt;Node26 -->
<g id="edge39_Node000001_Node000026" class="edge">
<title>Node1&#45;&gt;Node26</title>
<g id="a_edge39_Node000001_Node000026"><a xlink:title=" ">
<path fill="none" stroke="#63b8ff" d="M1858.81,-142.99C1874.19,-134.8 1897.19,-121.56 1915,-107 1934.23,-91.27 1930.94,-77.43 1953,-66 2007.53,-37.74 2182.85,-24.05 2272.74,-18.75"/>
<polygon fill="#63b8ff" stroke="#63b8ff" points="2272.96,-22.25 2282.74,-18.18 2272.56,-15.26 2272.96,-22.25"/>
</a>
</g>
</g>
<!-- Node27 -->
<g id="Node000027" class="node">
<title>Node27</title>
<g id="a_Node000027"><a xlink:href="../../d1/d5c/callbacks__pool_8hpp.html" target="_top" xlink:title="Fixed&#45;capacity pool of function&#45;pointer callbacks.">
<polygon fill="white" stroke="#666666" points="2096,-96 1962,-96 1962,-77 2096,-77 2096,-96"/>
<text text-anchor="middle" x="2029" y="-84" font-family="Helvetica,sans-Serif" font-size="10.00">core/callbacks_pool.hpp</text>
</a>
</g>
</g>
<!-- Node1&#45;&gt;Node27 -->
<g id="edge26_Node000001_Node000027" class="edge">
<title>Node1&#45;&gt;Node27</title>
<g id="a_edge26_Node000001_Node000027"><a xlink:title=" ">
<path fill="none" stroke="#63b8ff" d="M1867.22,-142.87C1899.93,-131.67 1957.17,-112.08 1994.06,-99.46"/>
<polygon fill="#63b8ff" stroke="#63b8ff" points="1995.55,-102.65 2003.88,-96.1 1993.29,-96.02 1995.55,-102.65"/>
</a>
</g>
</g>
<!-- Node28 -->
<g id="Node000028" class="node">
<title>Node28</title>
<g id="a_Node000028"><a xlink:href="../../d4/dc0/constexpr__utils_8hpp.html" target="_top" xlink:title="Constexpr helpers for compile&#45;time string and buffer operations.">
<polygon fill="white" stroke="#666666" points="2250,-96 2114,-96 2114,-77 2250,-77 2250,-96"/>
<text text-anchor="middle" x="2182" y="-84" font-family="Helvetica,sans-Serif" font-size="10.00">core/constexpr_utils.hpp</text>
</a>
</g>
</g>
<!-- Node1&#45;&gt;Node28 -->
<g id="edge27_Node000001_Node000028" class="edge">
<title>Node1&#45;&gt;Node28</title>
<g id="a_edge27_Node000001_Node000028"><a xlink:title=" ">
<path fill="none" stroke="#63b8ff" d="M1890.69,-144.46C1943.65,-136.53 2030.69,-122.67 2105,-107 2116.69,-104.54 2129.28,-101.51 2140.83,-98.58"/>
<polygon fill="#63b8ff" stroke="#63b8ff" points="2141.85,-101.93 2150.66,-96.04 2140.11,-95.15 2141.85,-101.93"/>
</a>
</g>
</g>
<!-- Node29 -->
<g id="Node000029" class="node">
<title>Node29</title>
<g id="a_Node000029"><a xlink:href="../../d7/d7f/fixed__string_8hpp.html" target="_top" xlink:title="Fixed&#45;capacity string with stack storage.">
<polygon fill="white" stroke="#666666" points="2386,-96 2268,-96 2268,-77 2386,-77 2386,-96"/>
<text text-anchor="middle" x="2327" y="-84" font-family="Helvetica,sans-Serif" font-size="10.00">core/fixed_string.hpp</text>
</a>
</g>
</g>
<!-- Node1&#45;&gt;Node29 -->
<g id="edge28_Node000001_Node000029" class="edge">
<title>Node1&#45;&gt;Node29</title>
<g id="a_edge28_Node000001_Node000029"><a xlink:title=" ">
<path fill="none" stroke="#63b8ff" d="M1890.56,-149.05C1968.76,-144.49 2127.16,-132.74 2259,-107 2269.58,-104.94 2280.89,-101.99 2291.2,-99.02"/>
<polygon fill="#63b8ff" stroke="#63b8ff" points="2292.52,-102.28 2301.1,-96.07 2290.52,-95.57 2292.52,-102.28"/>
</a>
</g>
</g>
<!-- Node30 -->
<g id="Node000030" class="node">
<title>Node30</title>
<g id="a_Node000030"><a xlink:href="../../d7/dea/fixed__vector_8hpp.html" target="_top" xlink:title="Fixed&#45;capacity vector with inline storage.">
<polygon fill="white" stroke="#666666" points="2524,-96 2404,-96 2404,-77 2524,-77 2524,-96"/>
<text text-anchor="middle" x="2464" y="-84" font-family="Helvetica,sans-Serif" font-size="10.00">core/fixed_vector.hpp</text>
</a>
</g>
</g>
<!-- Node1&#45;&gt;Node30 -->
<g id="edge30_Node000001_Node000030" class="edge">
<title>Node1&#45;&gt;Node30</title>
<g id="a_edge30_Node000001_Node000030"><a xlink:title=" ">
<path fill="none" stroke="#63b8ff" d="M1890.86,-150.76C1987.77,-148.59 2210.86,-140.1 2395,-107 2406.05,-105.01 2417.88,-102.01 2428.56,-98.95"/>
<polygon fill="#63b8ff" stroke="#63b8ff" points="2429.8,-102.23 2438.39,-96.02 2427.81,-95.52 2429.8,-102.23"/>
</a>
</g>
</g>
<!-- Node31 -->
<g id="Node000031" class="node">
<title>Node31</title>
<g id="a_Node000031"><a xlink:href="../../d7/d5b/format__pattern_8hpp.html" target="_top" xlink:title="Shared compile&#45;time validation for format patterns using {} and {N} placeholders.">
<polygon fill="white" stroke="#666666" points="2677.5,-96 2542.5,-96 2542.5,-77 2677.5,-77 2677.5,-96"/>
<text text-anchor="middle" x="2610" y="-84" font-family="Helvetica,sans-Serif" font-size="10.00">core/format_pattern.hpp</text>
</a>
</g>
</g>
<!-- Node1&#45;&gt;Node31 -->
<g id="edge31_Node000001_Node000031" class="edge">
<title>Node1&#45;&gt;Node31</title>
<g id="a_edge31_Node000001_Node000031"><a xlink:title=" ">
<path fill="none" stroke="#63b8ff" d="M1890.51,-151.43C2003.74,-150.6 2294.01,-144.63 2533,-107 2545.66,-105.01 2559.29,-101.89 2571.5,-98.73"/>
<polygon fill="#63b8ff" stroke="#63b8ff" points="2572.62,-102.05 2581.37,-96.08 2570.81,-95.29 2572.62,-102.05"/>
</a>
</g>
</g>
<!-- Node32 -->
<g id="Node000032" class="node">
<title>Node32</title>
<g id="a_Node000032"><a xlink:href="../../d9/d6a/format__string_8hpp.html" target="_top" xlink:title="Compile&#45;time validated format&#45;string wrapper for auto {} and positional {N} placeholders.">
<polygon fill="white" stroke="#666666" points="2824,-96 2696,-96 2696,-77 2824,-77 2824,-96"/>
<text text-anchor="middle" x="2760" y="-84" font-family="Helvetica,sans-Serif" font-size="10.00">core/format_string.hpp</text>
</a>
</g>
</g>
<!-- Node1&#45;&gt;Node32 -->
<g id="edge32_Node000001_Node000032" class="edge">
<title>Node1&#45;&gt;Node32</title>
<g id="a_edge32_Node000001_Node000032"><a xlink:title=" ">
<path fill="none" stroke="#63b8ff" d="M1890.51,-150.27C2046.14,-146.13 2531.83,-131.54 2687,-107 2699.03,-105.1 2711.93,-102.01 2723.49,-98.85"/>
<polygon fill="#63b8ff" stroke="#63b8ff" points="2724.58,-102.18 2733.25,-96.08 2722.67,-95.44 2724.58,-102.18"/>
</a>
</g>
</g>
<!-- Node33 -->
<g id="Node000033" class="node">
<title>Node33</title>
<g id="a_Node000033"><a xlink:href="../../dd/d8e/hashes_8hpp.html" target="_top" xlink:title="Table&#45;driven CRC&#45;8, CRC&#45;16, and CRC&#45;32 over byte buffers.">
<polygon fill="white" stroke="#666666" points="2938,-96 2842,-96 2842,-77 2938,-77 2938,-96"/>
<text text-anchor="middle" x="2890" y="-84" font-family="Helvetica,sans-Serif" font-size="10.00">core/hashes.hpp</text>
</a>
</g>
</g>
<!-- Node1&#45;&gt;Node33 -->
<g id="edge34_Node000001_Node000033" class="edge">
<title>Node1&#45;&gt;Node33</title>
<g id="a_edge34_Node000001_Node000033"><a xlink:title=" ">
<path fill="none" stroke="#63b8ff" d="M1890.61,-151.14C2063.66,-149.59 2649.19,-141.83 2833,-107 2841.94,-105.31 2851.38,-102.51 2859.95,-99.56"/>
<polygon fill="#63b8ff" stroke="#63b8ff" points="2861.33,-102.79 2869.54,-96.08 2858.94,-96.21 2861.33,-102.79"/>
</a>
</g>
</g>
<!-- Node34 -->
<g id="Node000034" class="node">
<title>Node34</title>
<g id="a_Node000034"><a xlink:href="../../de/d2d/o__string__stream_8hpp.html" target="_top" xlink:title="Allocator&#45;free output string stream that appends into string&#45;like storage.">
<polygon fill="white" stroke="#666666" points="3096,-96 2956,-96 2956,-77 3096,-77 3096,-96"/>
<text text-anchor="middle" x="3026" y="-84" font-family="Helvetica,sans-Serif" font-size="10.00">core/o_string_stream.hpp</text>
</a>
</g>
</g>
<!-- Node1&#45;&gt;Node34 -->
<g id="edge35_Node000001_Node000034" class="edge">
<title>Node1&#45;&gt;Node34</title>
<g id="a_edge35_Node000001_Node000034"><a xlink:title=" ">
<path fill="none" stroke="#63b8ff" d="M1890.58,-150.85C2075.9,-148.15 2738.5,-136.62 2947,-107 2960.35,-105.1 2974.74,-101.91 2987.52,-98.65"/>
<polygon fill="#63b8ff" stroke="#63b8ff" points="2988.61,-101.98 2997.38,-96.04 2986.82,-95.21 2988.61,-101.98"/>
</a>
</g>
</g>
<!-- Node35 -->
<g id="Node000035" class="node">
<title>Node35</title>
<g id="a_Node000035"><a xlink:href="../../d2/dd2/string__fixed__storage_8hpp.html" target="_top" xlink:title="Fixed&#45;size raw character buffer with explicit length for string&#45;like containers.">
<polygon fill="white" stroke="#666666" points="3274,-96 3114,-96 3114,-77 3274,-77 3274,-96"/>
<text text-anchor="middle" x="3194" y="-84" font-family="Helvetica,sans-Serif" font-size="10.00">core/string_fixed_storage.hpp</text>
</a>
</g>
</g>
<!-- Node1&#45;&gt;Node35 -->
<g id="edge38_Node000001_Node000035" class="edge">
<title>Node1&#45;&gt;Node35</title>
<g id="a_edge38_Node000001_Node000035"><a xlink:title=" ">
<path fill="none" stroke="#63b8ff" d="M1890.81,-150.96C2092.76,-148.53 2863.64,-137.44 3105,-107 3120.43,-105.05 3137.13,-101.73 3151.86,-98.37"/>
<polygon fill="#63b8ff" stroke="#63b8ff" points="3152.76,-101.75 3161.7,-96.05 3151.16,-94.94 3152.76,-101.75"/>
</a>
</g>
</g>
<!-- Node36 -->
<g id="Node000036" class="node">
<title>Node36</title>
<g id="a_Node000036"><a xlink:href="../../d8/d43/core_2utils_8hpp.html" target="_top" xlink:title="Core utilities: encoding conversion, string metrics, and number formatting.">
<polygon fill="white" stroke="#666666" points="3375.5,-96 3292.5,-96 3292.5,-77 3375.5,-77 3375.5,-96"/>
<text text-anchor="middle" x="3334" y="-84" font-family="Helvetica,sans-Serif" font-size="10.00">core/utils.hpp</text>
</a>
</g>
</g>
<!-- Node1&#45;&gt;Node36 -->
<g id="edge40_Node000001_Node000036" class="edge">
<title>Node1&#45;&gt;Node36</title>
<g id="a_edge40_Node000001_Node000036"><a xlink:title=" ">
<path fill="none" stroke="#63b8ff" d="M1890.63,-150.96C2126.32,-148.22 3144.27,-134.84 3283,-107 3290.88,-105.42 3299.14,-102.74 3306.66,-99.87"/>
<polygon fill="#63b8ff" stroke="#63b8ff" points="3308.08,-103.07 3316.03,-96.06 3305.45,-96.59 3308.08,-103.07"/>
</a>
</g>
</g>
<!-- Node37 -->
<g id="Node000037" class="node">
<title>Node37</title>
<g id="a_Node000037"><a xlink:href="../../dd/d61/bitwise__enum_8inl.html" target="_top" xlink:title="Inline implementations for toy::EnableBitwiseOperators and scoped&#45;enum bitwise operators.">
<polygon fill="white" stroke="#666666" points="3518,-96 3394,-96 3394,-77 3518,-77 3518,-96"/>
<text text-anchor="middle" x="3456" y="-84" font-family="Helvetica,sans-Serif" font-size="10.00">core/bitwise_enum.inl</text>
</a>
</g>
</g>
<!-- Node1&#45;&gt;Node37 -->
<g id="edge41_Node000001_Node000037" class="edge">
<title>Node1&#45;&gt;Node37</title>
<g id="a_edge41_Node000001_Node000037"><a xlink:title=" ">
<path fill="none" stroke="#63b8ff" d="M1890.52,-151.66C2118.71,-152.18 3086.49,-151.64 3385,-107 3396.81,-105.23 3409.45,-102.16 3420.75,-98.97"/>
<polygon fill="#63b8ff" stroke="#63b8ff" points="3422.08,-102.23 3430.68,-96.04 3420.1,-95.51 3422.08,-102.23"/>
</a>
</g>
</g>
<!-- Node38 -->
<g id="Node000038" class="node">
<title>Node38</title>
<g id="a_Node000038"><a xlink:href="../../df/d4a/c__string__view_8inl.html" target="_top" xlink:title="Inline implementations for toy::CStringView.">
<polygon fill="white" stroke="#666666" points="3658,-96 3536,-96 3536,-77 3658,-77 3658,-96"/>
<text text-anchor="middle" x="3597" y="-84" font-family="Helvetica,sans-Serif" font-size="10.00">core/c_string_view.inl</text>
</a>
</g>
</g>
<!-- Node1&#45;&gt;Node38 -->
<g id="edge42_Node000001_Node000038" class="edge">
<title>Node1&#45;&gt;Node38</title>
<g id="a_edge42_Node000001_Node000038"><a xlink:title=" ">
<path fill="none" stroke="#63b8ff" d="M1890.51,-151.82C2131.25,-153.17 3199.08,-156.24 3527,-107 3538.65,-105.25 3551.12,-102.18 3562.26,-98.99"/>
<polygon fill="#63b8ff" stroke="#63b8ff" points="3563.48,-102.28 3572.05,-96.06 3561.47,-95.57 3563.48,-102.28"/>
</a>
</g>
</g>
<!-- Node39 -->
<g id="Node000039" class="node">
<title>Node39</title>
<g id="a_Node000039"><a xlink:href="../../d6/ddb/callbacks__pool_8inl.html" target="_top" xlink:title="Inline implementations for toy::CallbacksPool.">
<polygon fill="white" stroke="#666666" points="3804,-96 3676,-96 3676,-77 3804,-77 3804,-96"/>
<text text-anchor="middle" x="3740" y="-84" font-family="Helvetica,sans-Serif" font-size="10.00">core/callbacks_pool.inl</text>
</a>
</g>
</g>
<!-- Node1&#45;&gt;Node39 -->
<g id="edge43_Node000001_Node000039" class="edge">
<title>Node1&#45;&gt;Node39</title>
<g id="a_edge43_Node000001_Node000039"><a xlink:title=" ">
<path fill="none" stroke="#63b8ff" d="M1890.83,-151C2163.01,-148.12 3487.01,-132.86 3667,-107 3679.25,-105.24 3692.39,-102.13 3704.1,-98.9"/>
<polygon fill="#63b8ff" stroke="#63b8ff" points="3705.31,-102.19 3713.96,-96.06 3703.38,-95.46 3705.31,-102.19"/>
</a>
</g>
</g>
<!-- Node40 -->
<g id="Node000040" class="node">
<title>Node40</title>
<g id="a_Node000040"><a xlink:href="../../dc/d28/constexpr__utils_8inl.html" target="_top" xlink:title="Inline implementations for constexpr helpers declared in constexpr_utils.hpp.">
<polygon fill="white" stroke="#666666" points="3952,-96 3822,-96 3822,-77 3952,-77 3952,-96"/>
<text text-anchor="middle" x="3887" y="-84" font-family="Helvetica,sans-Serif" font-size="10.00">core/constexpr_utils.inl</text>
</a>
</g>
</g>
<!-- Node1&#45;&gt;Node40 -->
<g id="edge44_Node000001_Node000040" class="edge">
<title>Node1&#45;&gt;Node40</title>
<g id="a_edge44_Node000001_Node000040"><a xlink:title=" ">
<path fill="none" stroke="#63b8ff" d="M1890.96,-151.08C2176.2,-148.56 3617.7,-134.55 3813,-107 3825.54,-105.23 3839,-102.08 3850.96,-98.81"/>
<polygon fill="#63b8ff" stroke="#63b8ff" points="3851.93,-102.17 3860.59,-96.07 3850.02,-95.44 3851.93,-102.17"/>
</a>
</g>
</g>
<!-- Node41 -->
<g id="Node000041" class="node">
<title>Node41</title>
<g id="a_Node000041"><a xlink:href="../../d7/d40/fixed__string_8inl.html" target="_top" xlink:title="Inline implementations for toy::FixedString.">
<polygon fill="white" stroke="#666666" points="4082,-96 3970,-96 3970,-77 4082,-77 4082,-96"/>
<text text-anchor="middle" x="4026" y="-84" font-family="Helvetica,sans-Serif" font-size="10.00">core/fixed_string.inl</text>
</a>
</g>
</g>
<!-- Node1&#45;&gt;Node41 -->
<g id="edge45_Node000001_Node000041" class="edge">
<title>Node1&#45;&gt;Node41</title>
<g id="a_edge45_Node000001_Node000041"><a xlink:title=" ">
<path fill="none" stroke="#63b8ff" d="M1890.73,-151.27C2187.92,-149.73 3750.63,-140.13 3961,-107 3971.65,-105.32 3982.99,-102.35 3993.17,-99.23"/>
<polygon fill="#63b8ff" stroke="#63b8ff" points="3994.44,-102.5 4002.89,-96.1 3992.3,-95.83 3994.44,-102.5"/>
</a>
</g>
</g>
<!-- Node42 -->
<g id="Node000042" class="node">
<title>Node42</title>
<g id="a_Node000042"><a xlink:href="../../da/dc9/fixed__vector_8inl.html" target="_top" xlink:title="Inline implementations for toy::FixedVector.">
<polygon fill="white" stroke="#666666" points="4214,-96 4100,-96 4100,-77 4214,-77 4214,-96"/>
<text text-anchor="middle" x="4157" y="-84" font-family="Helvetica,sans-Serif" font-size="10.00">core/fixed_vector.inl</text>
</a>
</g>
</g>
<!-- Node1&#45;&gt;Node42 -->
<g id="edge46_Node000001_Node000042" class="edge">
<title>Node1&#45;&gt;Node42</title>
<g id="a_edge46_Node000001_Node000042"><a xlink:title=" ">
<path fill="none" stroke="#63b8ff" d="M1890.69,-151.32C2198.36,-150.06 3866.92,-141.68 4091,-107 4102.01,-105.3 4113.75,-102.25 4124.23,-99.06"/>
<polygon fill="#63b8ff" stroke="#63b8ff" points="4125.36,-102.37 4133.83,-96 4123.24,-95.7 4125.36,-102.37"/>
</a>
</g>
</g>
<!-- Node43 -->
<g id="Node000043" class="node">
<title>Node43</title>
<g id="a_Node000043"><a xlink:href="../../d5/d9f/format__pattern_8inl.html" target="_top" xlink:title="Inline implementations for toy::validateFormatPattern().">
<polygon fill="white" stroke="#666666" points="4361.5,-96 4232.5,-96 4232.5,-77 4361.5,-77 4361.5,-96"/>
<text text-anchor="middle" x="4297" y="-84" font-family="Helvetica,sans-Serif" font-size="10.00">core/format_pattern.inl</text>
</a>
</g>
</g>
<!-- Node1&#45;&gt;Node43 -->
<g id="edge47_Node000001_Node000043" class="edge">
<title>Node1&#45;&gt;Node43</title>
<g id="a_edge47_Node000001_Node000043"><a xlink:title=" ">
<path fill="none" stroke="#63b8ff" d="M1890.68,-151.29C2208.71,-149.82 3984.53,-140.16 4223,-107 4235.54,-105.26 4249,-102.11 4260.96,-98.84"/>
<polygon fill="#63b8ff" stroke="#63b8ff" points="4261.94,-102.2 4270.6,-96.1 4260.02,-95.47 4261.94,-102.2"/>
</a>
</g>
</g>
<!-- Node44 -->
<g id="Node000044" class="node">
<title>Node44</title>
<g id="a_Node000044"><a xlink:href="../../d4/d97/format__string_8inl.html" target="_top" xlink:title="Inline implementations for toy::FormatString.">
<polygon fill="white" stroke="#666666" points="4502,-96 4380,-96 4380,-77 4502,-77 4502,-96"/>
<text text-anchor="middle" x="4441" y="-84" font-family="Helvetica,sans-Serif" font-size="10.00">core/format_string.inl</text>
</a>
</g>
</g>
<!-- Node1&#45;&gt;Node44 -->
<g id="edge48_Node000001_Node000044" class="edge">
<title>Node1&#45;&gt;Node44</title>
<g id="a_edge48_Node000001_Node000044"><a xlink:title=" ">
<path fill="none" stroke="#63b8ff" d="M1890.5,-151.39C2219.38,-150.53 4117.13,-143.98 4371,-107 4382.76,-105.29 4395.34,-102.2 4406.54,-98.97"/>
<polygon fill="#63b8ff" stroke="#63b8ff" points="4407.82,-102.24 4416.38,-96.01 4405.8,-95.54 4407.82,-102.24"/>
</a>
</g>
</g>
<!-- Node45 -->
<g id="Node000045" class="node">
<title>Node45</title>
<g id="a_Node000045"><a xlink:href="../../d9/dcb/o__string__stream_8inl.html" target="_top" xlink:title="Inline implementations for toy::OStringStream.">
<polygon fill="white" stroke="#666666" points="4654,-96 4520,-96 4520,-77 4654,-77 4654,-96"/>
<text text-anchor="middle" x="4587" y="-84" font-family="Helvetica,sans-Serif" font-size="10.00">core/o_string_stream.inl</text>
</a>
</g>
</g>
<!-- Node1&#45;&gt;Node45 -->
<g id="edge49_Node000001_Node000045" class="edge">
<title>Node1&#45;&gt;Node45</title>
<g id="a_edge49_Node000001_Node000045"><a xlink:title=" ">
<path fill="none" stroke="#63b8ff" d="M1890.7,-151.38C2230.55,-150.42 4242.03,-143.24 4511,-107 4523.97,-105.25 4537.91,-102.07 4550.27,-98.77"/>
<polygon fill="#63b8ff" stroke="#63b8ff" points="4551.52,-102.06 4560.22,-96.01 4549.65,-95.31 4551.52,-102.06"/>
</a>
</g>
</g>
<!-- Node46 -->
<g id="Node000046" class="node">
<title>Node46</title>
<g id="a_Node000046"><a xlink:href="../../db/d33/string__fixed__storage_8inl.html" target="_top" xlink:title="Inline implementations for toy::StringFixedStorage.">
<polygon fill="white" stroke="#666666" points="4826,-96 4672,-96 4672,-77 4826,-77 4826,-96"/>
<text text-anchor="middle" x="4749" y="-84" font-family="Helvetica,sans-Serif" font-size="10.00">core/string_fixed_storage.inl</text>
</a>
</g>
</g>
<!-- Node1&#45;&gt;Node46 -->
<g id="edge50_Node000001_Node000046" class="edge">
<title>Node1&#45;&gt;Node46</title>
<g id="a_edge50_Node000001_Node000046"><a xlink:title=" ">
<path fill="none" stroke="#63b8ff" d="M1890.62,-151.34C2241.24,-150.11 4377.43,-141.25 4663,-107 4678.05,-105.2 4694.31,-101.87 4708.61,-98.47"/>
<polygon fill="#63b8ff" stroke="#63b8ff" points="4709.75,-101.8 4718.62,-96.01 4708.07,-95 4709.75,-101.8"/>
</a>
</g>
</g>
<!-- Node47 -->
<g id="Node000047" class="node">
<title>Node47</title>
<g id="a_Node000047"><a xlink:href="../../d2/d2b/core_2utils_8inl.html" target="_top" xlink:title="Inline implementations for utilities declared in utils.hpp.">
<polygon fill="white" stroke="#666666" points="4921.5,-96 4844.5,-96 4844.5,-77 4921.5,-77 4921.5,-96"/>
<text text-anchor="middle" x="4883" y="-84" font-family="Helvetica,sans-Serif" font-size="10.00">core/utils.inl</text>
</a>
</g>
</g>
<!-- Node1&#45;&gt;Node47 -->
<g id="edge51_Node000001_Node000047" class="edge">
<title>Node1&#45;&gt;Node47</title>
<g id="a_edge51_Node000001_Node000047"><a xlink:title=" ">
<path fill="none" stroke="#63b8ff" d="M1890.6,-151.29C2265.35,-149.6 4684.68,-137.53 4835,-107 4842.23,-105.53 4849.74,-103.01 4856.63,-100.25"/>
<polygon fill="#63b8ff" stroke="#63b8ff" points="4858.36,-103.31 4866.15,-96.14 4855.58,-96.89 4858.36,-103.31"/>
</a>
</g>
</g>
<!-- Node20&#45;&gt;Node21 -->
<g id="edge20_Node000020_Node000021" class="edge">
<title>Node20&#45;&gt;Node21</title>
<g id="a_edge20_Node000020_Node000021"><a xlink:title=" ">
<path fill="none" stroke="#63b8ff" d="M1379.19,-65.96C1364.79,-56.51 1347.54,-45.2 1333.1,-35.74"/>
<polygon fill="#63b8ff" stroke="#63b8ff" points="1334.81,-32.67 1324.52,-30.11 1330.97,-38.52 1334.81,-32.67"/>
</a>
</g>
</g>
<!-- Node22 -->
<g id="Node000022" class="node">
<title>Node22</title>
<g id="a_Node000022"><a xlink:href="../../d1/d5f/assertion__macro__gcc__clang_8hpp.html" target="_top" xlink:title="Debug and Release assertion macro implementations for GCC/Clang platforms.">
<polygon fill="white" stroke="#666666" points="1499.5,-30 1372.5,-30 1372.5,0 1499.5,0 1499.5,-30"/>
<text text-anchor="start" x="1380.5" y="-18" font-family="Helvetica,sans-Serif" font-size="10.00">../common/assertion</text>
<text text-anchor="middle" x="1436" y="-7" font-family="Helvetica,sans-Serif" font-size="10.00">_macro_gcc_clang.hpp</text>
</a>
</g>
</g>
<!-- Node20&#45;&gt;Node22 -->
<g id="edge21_Node000020_Node000022" class="edge">
<title>Node20&#45;&gt;Node22</title>
<g id="a_edge21_Node000020_Node000022"><a xlink:title=" ">
<path fill="none" stroke="#63b8ff" d="M1416.66,-65.77C1419.85,-57.58 1423.57,-48.01 1426.89,-39.46"/>
<polygon fill="#63b8ff" stroke="#63b8ff" points="1430.19,-40.63 1430.55,-30.04 1423.66,-38.09 1430.19,-40.63"/>
</a>
</g>
</g>
<!-- Node25&#45;&gt;Node26 -->
<g id="edge25_Node000025_Node000026" class="edge">
<title>Node25&#45;&gt;Node26</title>
<g id="a_edge25_Node000025_Node000026"><a xlink:title=" ">
<path fill="none" stroke="#63b8ff" d="M1872.56,-76.94C1886.87,-73.16 1904.22,-68.93 1920,-66 2045.27,-42.74 2194.3,-27.56 2272.65,-20.54"/>
<polygon fill="#63b8ff" stroke="#63b8ff" points="2273.11,-24.01 2282.76,-19.64 2272.49,-17.04 2273.11,-24.01"/>
</a>
</g>
</g>
<!-- Node29&#45;&gt;Node26 -->
<g id="edge29_Node000029_Node000026" class="edge">
<title>Node29&#45;&gt;Node26</title>
<g id="a_edge29_Node000029_Node000026"><a xlink:title=" ">
<path fill="none" stroke="#63b8ff" d="M2327,-76.98C2327,-66.56 2327,-48.61 2327,-34.88"/>
<polygon fill="#63b8ff" stroke="#63b8ff" points="2330.5,-34.59 2327,-24.59 2323.5,-34.59 2330.5,-34.59"/>
</a>
</g>
</g>
<!-- Node32&#45;&gt;Node26 -->
<g id="edge33_Node000032_Node000026" class="edge">
<title>Node32&#45;&gt;Node26</title>
<g id="a_edge33_Node000032_Node000026"><a xlink:title=" ">
<path fill="none" stroke="#63b8ff" d="M2731.42,-76.99C2718.02,-73.23 2701.79,-68.99 2687,-66 2579.42,-44.25 2451.83,-28.97 2381.09,-21.41"/>
<polygon fill="#63b8ff" stroke="#63b8ff" points="2381.39,-17.92 2371.07,-20.35 2380.65,-24.89 2381.39,-17.92"/>
</a>
</g>
</g>
<!-- Node34&#45;&gt;Node26 -->
<g id="edge36_Node000034_Node000026" class="edge">
<title>Node34&#45;&gt;Node26</title>
<g id="a_edge36_Node000034_Node000026"><a xlink:title=" ">
<path fill="none" stroke="#63b8ff" d="M2996.22,-76.94C2981.52,-73.03 2963.45,-68.68 2947,-66 2739.71,-32.29 2489.56,-20.94 2381.3,-17.43"/>
<polygon fill="#63b8ff" stroke="#63b8ff" points="2381.38,-13.93 2371.27,-17.12 2381.16,-20.93 2381.38,-13.93"/>
</a>
</g>
</g>
</g>
</svg>

<g id="navigator" transform="translate(0 0)" fill="#404254">
  <rect fill="#f2f5e9" fill-opacity="0.5" stroke="#606060" stroke-width=".5" x="0" y="0" width="60" height="60"/>
  <use id="zoomplus" xlink:href="#zoomPlus" x="17" y="9" onmousedown="handleZoom(evt,'in')"/>
  <use id="zoomminus" xlink:href="#zoomMin" x="42" y="9" onmousedown="handleZoom(evt,'out')"/>
  <use id="reset" xlink:href="#resetDef" x="30" y="36" onmousedown="handleReset()"/>
   <use id="arrowup" xlink:href="#arrowUp" x="0" y="0" onmousedown="handlePan(0,-1)"/>
  <use id="arrowright" xlink:href="#arrowRight" x="0" y="0" onmousedown="handlePan(1,0)"/>
  <use id="arrowdown" xlink:href="#arrowDown" x="0" y="0" onmousedown="handlePan(0,1)"/>
  <use id="arrowleft" xlink:href="#arrowLeft" x="0" y="0" onmousedown="handlePan(-1,0)"/>
</g>
<svg viewBox="0 0 15 15" width="100%" height="30px" preserveAspectRatio="xMaxYMin meet">
 <g id="arrow_out" transform="scale(0.3 0.3)">
  <a xlink:href="core_8hpp__incl_org.svg" target="_base">
   <rect id="button" ry="5" rx="5" y="6" x="6" height="38" width="38"
        fill="#f2f5e9" fill-opacity="0.5" stroke="#606060" stroke-width="1.0"/>
   <path id="arrow"
     d="M 11.500037,31.436501 C 11.940474,20.09759 22.043105,11.32322 32.158766,21.979434 L 37.068811,17.246167 C 37.068811,17.246167 37.088388,32 37.088388,32 L 22.160133,31.978069 C 22.160133,31.978069 26.997745,27.140456 26.997745,27.140456 C 18.528582,18.264221 13.291696,25.230495 11.500037,31.436501 z"
     style="fill:#404040;"/>
  </a>
 </g>
</svg>

<style type='text/css'>
<![CDATA[
[data-mouse-over-selected='false'] { opacity: 0.7; }
[data-mouse-over-selected='true']  { opacity: 1.0; }
]]>
</style>
<script type="application/ecmascript"><![CDATA[
document.addEventListener('DOMContentLoaded', (event) => {
  highlightEdges();
  highlightAdjacentNodes();
});
]]></script>
</svg>
