<?xml version="1.0" encoding="UTF-8" standalone="no"?>
<!DOCTYPE svg PUBLIC "-//W3C//DTD SVG 1.1//EN"
 "http://www.w3.org/Graphics/SVG/1.1/DTD/svg11.dtd">
<!-- Generated by graphviz version 2.43.0 (0)
 -->
<!-- Title: include/math.hpp Pages: 1 -->
<svg width="173pt" height="192pt"
 viewBox="0.00 0.00 172.50 192.00" xmlns="http://www.w3.org/2000/svg" xmlns:xlink="http://www.w3.org/1999/xlink">
<g id="page0,1_graph0" class="graph" transform="scale(1 1) rotate(0) translate(4 188)">
<title>include/math.hpp</title>
<!-- Node1 -->
<g id="Node000001" class="node">
<title>Node1</title>
<g id="a_Node000001"><a xlink:title="Umbrella header for the math module.">
<polygon fill="#999999" stroke="#666666" points="155.5,-184 54.5,-184 54.5,-165 155.5,-165 155.5,-184"/>
<text text-anchor="middle" x="105" y="-172" font-family="Helvetica,sans-Serif" font-size="10.00">include/math.hpp</text>
</a>
</g>
</g>
<!-- Node2 -->
<g id="Node000002" class="node">
<title>Node2</title>
<g id="a_Node000002"><a xlink:href="../../db/dbb/geometry_8hpp.html" target="_top" xlink:title="Umbrella header for the geometry module.">
<polygon fill="white" stroke="#666666" points="122,-129 0,-129 0,-110 122,-110 122,-129"/>
<text text-anchor="middle" x="61" y="-117" font-family="Helvetica,sans-Serif" font-size="10.00">include/geometry.hpp</text>
</a>
</g>
</g>
<!-- Node1&#45;&gt;Node2 -->
<g id="edge1_Node000001_Node000002" class="edge">
<title>Node1&#45;&gt;Node2</title>
<g id="a_edge1_Node000001_Node000002"><a xlink:title=" ">
<path fill="none" stroke="#63b8ff" d="M91.27,-156.96C83.6,-147.72 74.37,-136.6 68.13,-129.09"/>
<polygon fill="#63b8ff" stroke="#63b8ff" points="88.65,-159.29 97.73,-164.75 94.04,-154.82 88.65,-159.29"/>
</a>
</g>
</g>
<!-- Node3 -->
<g id="Node000003" class="node">
<title>Node3</title>
<g id="a_Node000003"><a xlink:href="../../d8/d8c/toygine2_8hpp.html" target="_top" xlink:title="Main umbrella header for the engine.">
<polygon fill="white" stroke="#666666" points="164.5,-74 45.5,-74 45.5,-55 164.5,-55 164.5,-74"/>
<text text-anchor="middle" x="105" y="-62" font-family="Helvetica,sans-Serif" font-size="10.00">include/toygine2.hpp</text>
</a>
</g>
</g>
<!-- Node1&#45;&gt;Node3 -->
<g id="edge4_Node000001_Node000003" class="edge">
<title>Node1&#45;&gt;Node3</title>
<g id="a_edge4_Node000001_Node000003"><a xlink:title=" ">
<path fill="none" stroke="#63b8ff" d="M117.72,-156.61C122.93,-148.67 128.34,-138.81 131,-129 136.48,-108.76 122.14,-86.34 112.64,-74.3"/>
<polygon fill="#63b8ff" stroke="#63b8ff" points="114.77,-154.73 111.89,-164.93 120.5,-158.75 114.77,-154.73"/>
</a>
</g>
</g>
<!-- Node2&#45;&gt;Node3 -->
<g id="edge2_Node000002_Node000003" class="edge">
<title>Node2&#45;&gt;Node3</title>
<g id="a_edge2_Node000002_Node000003"><a xlink:title=" ">
<path fill="none" stroke="#63b8ff" d="M74.73,-101.96C82.4,-92.72 91.63,-81.6 97.87,-74.09"/>
<polygon fill="#63b8ff" stroke="#63b8ff" points="71.96,-99.82 68.27,-109.75 77.35,-104.29 71.96,-99.82"/>
</a>
</g>
</g>
<!-- Node4 -->
<g id="Node000004" class="node">
<title>Node4</title>
<g id="a_Node000004"><a xlink:href="../../df/d0a/main_8cpp.html" target="_top" xlink:title="Entry point of the Qt&#45;based ToyGine 2 editor.">
<polygon fill="white" stroke="#666666" points="160,-19 50,-19 50,0 160,0 160,-19"/>
<text text-anchor="middle" x="105" y="-7" font-family="Helvetica,sans-Serif" font-size="10.00">editor/src/main.cpp</text>
</a>
</g>
</g>
<!-- Node3&#45;&gt;Node4 -->
<g id="edge3_Node000003_Node000004" class="edge">
<title>Node3&#45;&gt;Node4</title>
<g id="a_edge3_Node000003_Node000004"><a xlink:title=" ">
<path fill="none" stroke="#63b8ff" d="M105,-44.66C105,-35.93 105,-25.99 105,-19.09"/>
<polygon fill="#63b8ff" stroke="#63b8ff" points="101.5,-44.75 105,-54.75 108.5,-44.75 101.5,-44.75"/>
</a>
</g>
</g>
</g>
</svg>
