<?xml version="1.0" encoding="UTF-8" standalone="no"?>
<!DOCTYPE svg PUBLIC "-//W3C//DTD SVG 1.1//EN"
 "http://www.w3.org/Graphics/SVG/1.1/DTD/svg11.dtd">
<!-- Generated by graphviz version 14.1.2 (0)
 -->
<!-- Title: include/application/console_application.hpp Pages: 1 -->
<svg width="145pt" height="155pt"
 viewBox="0.00 0.00 145.00 155.00" xmlns="http://www.w3.org/2000/svg" xmlns:xlink="http://www.w3.org/1999/xlink">
<g id="page0,1_graph0" class="graph" transform="scale(1 1) rotate(0) translate(4 151)">
<title>include/application/console_application.hpp</title>
<!-- Node1 -->
<g id="Node000001" class="node">
<title>Node1</title>
<g id="a_Node000001"><a xlink:title="Abstract base for console&#45;mode application lifecycle.">
<polygon fill="#999999" stroke="#666666" points="136.75,-147 0,-147 0,-113.5 136.75,-113.5 136.75,-147"/>
<text xml:space="preserve" text-anchor="start" x="8" y="-133.5" font-family="Helvetica,sans-Serif" font-size="10.00">include/application</text>
<text xml:space="preserve" text-anchor="middle" x="68.38" y="-120.75" font-family="Helvetica,sans-Serif" font-size="10.00">/console_application.hpp</text>
</a>
</g>
</g>
<!-- Node2 -->
<g id="Node000002" class="node">
<title>Node2</title>
<g id="a_Node000002"><a xlink:href="../../db/dd6/core__application_8hpp.html" target="_top" xlink:title="Abstract base class for platform application lifecycle.">
<polygon fill="white" stroke="#666666" points="127,-77.5 9.75,-77.5 9.75,-56.75 127,-56.75 127,-77.5"/>
<text xml:space="preserve" text-anchor="middle" x="68.38" y="-64" font-family="Helvetica,sans-Serif" font-size="10.00">core_application.hpp</text>
</a>
</g>
</g>
<!-- Node1&#45;&gt;Node2 -->
<g id="edge1_Node000001_Node000002" class="edge">
<title>Node1&#45;&gt;Node2</title>
<g id="a_edge1_Node000001_Node000002"><a xlink:title=" ">
<path fill="none" stroke="#63b8ff" d="M68.38,-113.19C68.38,-105.85 68.38,-97.07 68.38,-89.21"/>
<polygon fill="#63b8ff" stroke="#63b8ff" points="71.88,-89.48 68.38,-79.48 64.88,-89.48 71.88,-89.48"/>
</a>
</g>
</g>
<!-- Node3 -->
<g id="Node000003" class="node">
<title>Node3</title>
<g id="a_Node000003"><a xlink:href="../../d7/dad/version_8hpp.html" target="_top" xlink:title="Application version type and comparison operators.">
<polygon fill="white" stroke="#666666" points="104.88,-20.75 31.88,-20.75 31.88,0 104.88,0 104.88,-20.75"/>
<text xml:space="preserve" text-anchor="middle" x="68.38" y="-7.25" font-family="Helvetica,sans-Serif" font-size="10.00">version.hpp</text>
</a>
</g>
</g>
<!-- Node2&#45;&gt;Node3 -->
<g id="edge2_Node000002_Node000003" class="edge">
<title>Node2&#45;&gt;Node3</title>
<g id="a_edge2_Node000002_Node000003"><a xlink:title=" ">
<path fill="none" stroke="#63b8ff" d="M68.38,-56.34C68.38,-49.72 68.38,-40.72 68.38,-32.52"/>
<polygon fill="#63b8ff" stroke="#63b8ff" points="71.88,-32.59 68.38,-22.59 64.88,-32.59 71.88,-32.59"/>
</a>
</g>
</g>
</g>
</svg>
