<?xml version="1.0" encoding="UTF-8" standalone="no"?>
<!DOCTYPE svg PUBLIC "-//W3C//DTD SVG 1.1//EN"
 "http://www.w3.org/Graphics/SVG/1.1/DTD/svg11.dtd">
<!-- Generated by graphviz version 2.43.0 (0)
 -->
<!-- Title: include/toygine2.hpp Pages: 1 -->
<svg width="3797pt" height="280pt"
 viewBox="0.00 0.00 3796.50 280.00" xmlns="http://www.w3.org/2000/svg" xmlns:xlink="http://www.w3.org/1999/xlink">
<g id="graph0" class="graph" transform="scale(1 1) rotate(0) translate(4 276)">
<title>include/toygine2.hpp</title>
<!-- Node1 -->
<g id="Node000001" class="node">
<title>Node1</title>
<g id="a_Node000001"><a xlink:title="Main umbrella header for the entire ToyGine2 engine.">
<polygon fill="#999999" stroke="#666666" points="1490.5,-272 1371.5,-272 1371.5,-253 1490.5,-253 1490.5,-272"/>
<text text-anchor="middle" x="1431" y="-260" font-family="Helvetica,sans-Serif" font-size="10.00">include/toygine2.hpp</text>
</a>
</g>
</g>
<!-- Node2 -->
<g id="Node000002" class="node">
<title>Node2</title>
<g id="a_Node000002"><a xlink:href="../../d6/d2c/app_8hpp.html" target="_top" xlink:title="Umbrella header for the engine application module.">
<polygon fill="white" stroke="#666666" points="1385,-217 1329,-217 1329,-198 1385,-198 1385,-217"/>
<text text-anchor="middle" x="1357" y="-205" font-family="Helvetica,sans-Serif" font-size="10.00">app.hpp</text>
</a>
</g>
</g>
<!-- Node1&#45;&gt;Node2 -->
<g id="edge1_Node000001_Node000002" class="edge">
<title>Node1&#45;&gt;Node2</title>
<g id="a_edge1_Node000001_Node000002"><a xlink:title=" ">
<path fill="none" stroke="#63b8ff" d="M1419.11,-252.98C1407.85,-244.92 1390.71,-232.65 1377.29,-223.03"/>
<polygon fill="#63b8ff" stroke="#63b8ff" points="1379.27,-220.15 1369.11,-217.17 1375.2,-225.84 1379.27,-220.15"/>
</a>
</g>
</g>
<!-- Node3 -->
<g id="Node000003" class="node">
<title>Node3</title>
<g id="a_Node000003"><a xlink:href="../../da/d47/core_8hpp.html" target="_top" xlink:title="Umbrella header for the engine core module.">
<polygon fill="white" stroke="#666666" points="1460.5,-162 1401.5,-162 1401.5,-143 1460.5,-143 1460.5,-162"/>
<text text-anchor="middle" x="1431" y="-150" font-family="Helvetica,sans-Serif" font-size="10.00">core.hpp</text>
</a>
</g>
</g>
<!-- Node1&#45;&gt;Node3 -->
<g id="edge48_Node000001_Node000003" class="edge">
<title>Node1&#45;&gt;Node3</title>
<g id="a_edge48_Node000001_Node000003"><a xlink:title=" ">
<path fill="none" stroke="#63b8ff" d="M1431,-252.66C1431,-235.17 1431,-195.8 1431,-172.27"/>
<polygon fill="#63b8ff" stroke="#63b8ff" points="1434.5,-172.16 1431,-162.16 1427.5,-172.16 1434.5,-172.16"/>
</a>
</g>
</g>
<!-- Node44 -->
<g id="Node000044" class="node">
<title>Node44</title>
<g id="a_Node000044"><a xlink:href="../../d4/d78/math_8hpp.html" target="_top" xlink:title="Umbrella header for the engine mathematics module.">
<polygon fill="white" stroke="#666666" points="1708.5,-217 1645.5,-217 1645.5,-198 1708.5,-198 1708.5,-217"/>
<text text-anchor="middle" x="1677" y="-205" font-family="Helvetica,sans-Serif" font-size="10.00">math.hpp</text>
</a>
</g>
</g>
<!-- Node1&#45;&gt;Node44 -->
<g id="edge49_Node000001_Node000044" class="edge">
<title>Node1&#45;&gt;Node44</title>
<g id="a_edge49_Node000001_Node000044"><a xlink:title=" ">
<path fill="none" stroke="#63b8ff" d="M1470.52,-252.98C1515.73,-243.25 1589.41,-227.37 1635.45,-217.45"/>
<polygon fill="#63b8ff" stroke="#63b8ff" points="1636.36,-220.84 1645.39,-215.31 1634.88,-213.99 1636.36,-220.84"/>
</a>
</g>
</g>
<!-- Node2&#45;&gt;Node3 -->
<g id="edge2_Node000002_Node000003" class="edge">
<title>Node2&#45;&gt;Node3</title>
<g id="a_edge2_Node000002_Node000003"><a xlink:title=" ">
<path fill="none" stroke="#63b8ff" d="M1368.89,-197.98C1380.15,-189.92 1397.29,-177.65 1410.71,-168.03"/>
<polygon fill="#63b8ff" stroke="#63b8ff" points="1412.8,-170.84 1418.89,-162.17 1408.73,-165.15 1412.8,-170.84"/>
</a>
</g>
</g>
<!-- Node42 -->
<g id="Node000042" class="node">
<title>Node42</title>
<g id="a_Node000042"><a xlink:href="../../d7/dad/version_8hpp.html" target="_top" xlink:title="Application version management utilities.">
<polygon fill="white" stroke="#666666" points="1276.5,-162 1181.5,-162 1181.5,-143 1276.5,-143 1276.5,-162"/>
<text text-anchor="middle" x="1229" y="-150" font-family="Helvetica,sans-Serif" font-size="10.00">app/version.hpp</text>
</a>
</g>
</g>
<!-- Node2&#45;&gt;Node42 -->
<g id="edge46_Node000002_Node000042" class="edge">
<title>Node2&#45;&gt;Node42</title>
<g id="a_edge46_Node000002_Node000042"><a xlink:title=" ">
<path fill="none" stroke="#63b8ff" d="M1336.43,-197.98C1315.57,-189.34 1283.03,-175.87 1259.23,-166.02"/>
<polygon fill="#63b8ff" stroke="#63b8ff" points="1260.52,-162.76 1249.94,-162.17 1257.84,-169.23 1260.52,-162.76"/>
</a>
</g>
</g>
<!-- Node43 -->
<g id="Node000043" class="node">
<title>Node43</title>
<g id="a_Node000043"><a xlink:href="../../d2/dbe/version_8inl.html" target="_top" xlink:title="Implementation of application version management utilities.">
<polygon fill="white" stroke="#666666" points="1383.5,-162 1294.5,-162 1294.5,-143 1383.5,-143 1383.5,-162"/>
<text text-anchor="middle" x="1339" y="-150" font-family="Helvetica,sans-Serif" font-size="10.00">app/version.inl</text>
</a>
</g>
</g>
<!-- Node2&#45;&gt;Node43 -->
<g id="edge47_Node000002_Node000043" class="edge">
<title>Node2&#45;&gt;Node43</title>
<g id="a_edge47_Node000002_Node000043"><a xlink:title=" ">
<path fill="none" stroke="#63b8ff" d="M1354.03,-197.75C1351.64,-190.72 1348.21,-180.62 1345.23,-171.84"/>
<polygon fill="#63b8ff" stroke="#63b8ff" points="1348.45,-170.43 1341.92,-162.09 1341.82,-172.68 1348.45,-170.43"/>
</a>
</g>
</g>
<!-- Node4 -->
<g id="Node000004" class="node">
<title>Node4</title>
<g id="a_Node000004"><a xlink:title=" ">
<polygon fill="#e0e0e0" stroke="#999999" points="64,-96 0,-96 0,-77 64,-77 64,-96"/>
<text text-anchor="middle" x="32" y="-84" font-family="Helvetica,sans-Serif" font-size="10.00">algorithm</text>
</a>
</g>
</g>
<!-- Node3&#45;&gt;Node4 -->
<g id="edge3_Node000003_Node000004" class="edge">
<title>Node3&#45;&gt;Node4</title>
<g id="a_edge3_Node000003_Node000004"><a xlink:title=" ">
<path fill="none" stroke="#63b8ff" d="M1401.29,-144.42C1398.17,-143.86 1395.03,-143.37 1392,-143 1100.92,-107.62 358.12,-175.45 73,-107 67.01,-105.56 60.86,-103.18 55.2,-100.58"/>
<polygon fill="#63b8ff" stroke="#63b8ff" points="56.76,-97.45 46.25,-96.09 53.62,-103.7 56.76,-97.45"/>
</a>
</g>
</g>
<!-- Node5 -->
<g id="Node000005" class="node">
<title>Node5</title>
<g id="a_Node000005"><a xlink:title=" ">
<polygon fill="#e0e0e0" stroke="#999999" points="124,-96 82,-96 82,-77 124,-77 124,-96"/>
<text text-anchor="middle" x="103" y="-84" font-family="Helvetica,sans-Serif" font-size="10.00">array</text>
</a>
</g>
</g>
<!-- Node3&#45;&gt;Node5 -->
<g id="edge4_Node000003_Node000005" class="edge">
<title>Node3&#45;&gt;Node5</title>
<g id="a_edge4_Node000003_Node000005"><a xlink:title=" ">
<path fill="none" stroke="#63b8ff" d="M1401.29,-144.43C1398.16,-143.86 1395.03,-143.37 1392,-143 1253.09,-126.03 266.59,-148.69 133,-107 129.04,-105.77 125.11,-103.85 121.46,-101.69"/>
<polygon fill="#63b8ff" stroke="#63b8ff" points="123.36,-98.75 113.11,-96.08 119.46,-104.56 123.36,-98.75"/>
</a>
</g>
</g>
<!-- Node6 -->
<g id="Node000006" class="node">
<title>Node6</title>
<g id="a_Node000006"><a xlink:title=" ">
<polygon fill="#e0e0e0" stroke="#999999" points="171.5,-96 142.5,-96 142.5,-77 171.5,-77 171.5,-96"/>
<text text-anchor="middle" x="157" y="-84" font-family="Helvetica,sans-Serif" font-size="10.00">bit</text>
</a>
</g>
</g>
<!-- Node3&#45;&gt;Node6 -->
<g id="edge5_Node000003_Node000006" class="edge">
<title>Node3&#45;&gt;Node6</title>
<g id="a_edge5_Node000003_Node000006"><a xlink:title=" ">
<path fill="none" stroke="#63b8ff" d="M1401.29,-144.43C1398.16,-143.87 1395.03,-143.37 1392,-143 1258.28,-126.58 305.78,-155.27 180,-107 177.43,-106.02 174.95,-104.61 172.63,-103.01"/>
<polygon fill="#63b8ff" stroke="#63b8ff" points="174.51,-100.02 164.61,-96.26 170.01,-105.38 174.51,-100.02"/>
</a>
</g>
</g>
<!-- Node7 -->
<g id="Node000007" class="node">
<title>Node7</title>
<g id="a_Node000007"><a xlink:title=" ">
<polygon fill="#e0e0e0" stroke="#999999" points="248.5,-96 189.5,-96 189.5,-77 248.5,-77 248.5,-96"/>
<text text-anchor="middle" x="219" y="-84" font-family="Helvetica,sans-Serif" font-size="10.00">compare</text>
</a>
</g>
</g>
<!-- Node3&#45;&gt;Node7 -->
<g id="edge6_Node000003_Node000007" class="edge">
<title>Node3&#45;&gt;Node7</title>
<g id="a_edge6_Node000003_Node000007"><a xlink:title=" ">
<path fill="none" stroke="#63b8ff" d="M1401.29,-144.44C1398.16,-143.87 1395.03,-143.37 1392,-143 1141.78,-112.03 502.43,-168.81 258,-107 252.4,-105.58 246.68,-103.28 241.4,-100.75"/>
<polygon fill="#63b8ff" stroke="#63b8ff" points="242.99,-97.63 232.51,-96.07 239.73,-103.82 242.99,-97.63"/>
</a>
</g>
</g>
<!-- Node8 -->
<g id="Node000008" class="node">
<title>Node8</title>
<g id="a_Node000008"><a xlink:title=" ">
<polygon fill="#e0e0e0" stroke="#999999" points="327,-96 267,-96 267,-77 327,-77 327,-96"/>
<text text-anchor="middle" x="297" y="-84" font-family="Helvetica,sans-Serif" font-size="10.00">concepts</text>
</a>
</g>
</g>
<!-- Node3&#45;&gt;Node8 -->
<g id="edge7_Node000003_Node000008" class="edge">
<title>Node3&#45;&gt;Node8</title>
<g id="a_edge7_Node000003_Node000008"><a xlink:title=" ">
<path fill="none" stroke="#63b8ff" d="M1401.28,-144.44C1398.16,-143.88 1395.03,-143.38 1392,-143 1159.01,-113.88 563.57,-164.83 336,-107 330.41,-105.58 324.68,-103.27 319.41,-100.74"/>
<polygon fill="#63b8ff" stroke="#63b8ff" points="320.99,-97.62 310.51,-96.07 317.74,-103.81 320.99,-97.62"/>
</a>
</g>
</g>
<!-- Node9 -->
<g id="Node000009" class="node">
<title>Node9</title>
<g id="a_Node000009"><a xlink:title=" ">
<polygon fill="#e0e0e0" stroke="#999999" points="398.5,-96 345.5,-96 345.5,-77 398.5,-77 398.5,-96"/>
<text text-anchor="middle" x="372" y="-84" font-family="Helvetica,sans-Serif" font-size="10.00">cstddef</text>
</a>
</g>
</g>
<!-- Node3&#45;&gt;Node9 -->
<g id="edge8_Node000003_Node000009" class="edge">
<title>Node3&#45;&gt;Node9</title>
<g id="a_edge8_Node000003_Node000009"><a xlink:title=" ">
<path fill="none" stroke="#63b8ff" d="M1401.28,-144.45C1398.16,-143.88 1395.03,-143.38 1392,-143 1174.91,-115.59 619.09,-164.62 408,-107 403.03,-105.64 397.99,-103.49 393.32,-101.11"/>
<polygon fill="#63b8ff" stroke="#63b8ff" points="394.82,-97.93 384.39,-96.06 391.37,-104.03 394.82,-97.93"/>
</a>
</g>
</g>
<!-- Node10 -->
<g id="Node000010" class="node">
<title>Node10</title>
<g id="a_Node000010"><a xlink:title=" ">
<polygon fill="#e0e0e0" stroke="#999999" points="467,-96 417,-96 417,-77 467,-77 467,-96"/>
<text text-anchor="middle" x="442" y="-84" font-family="Helvetica,sans-Serif" font-size="10.00">cstdint</text>
</a>
</g>
</g>
<!-- Node3&#45;&gt;Node10 -->
<g id="edge9_Node000003_Node000010" class="edge">
<title>Node3&#45;&gt;Node10</title>
<g id="a_edge9_Node000003_Node000010"><a xlink:title=" ">
<path fill="none" stroke="#63b8ff" d="M1401.28,-144.46C1398.16,-143.89 1395.02,-143.39 1392,-143 1189.93,-117.21 671.78,-163.3 476,-107 471.39,-105.67 466.74,-103.6 462.42,-101.29"/>
<polygon fill="#63b8ff" stroke="#63b8ff" points="464.02,-98.17 453.64,-96.05 460.43,-104.18 464.02,-98.17"/>
</a>
</g>
</g>
<!-- Node11 -->
<g id="Node000011" class="node">
<title>Node11</title>
<g id="a_Node000011"><a xlink:title=" ">
<polygon fill="#e0e0e0" stroke="#999999" points="535,-96 485,-96 485,-77 535,-77 535,-96"/>
<text text-anchor="middle" x="510" y="-84" font-family="Helvetica,sans-Serif" font-size="10.00">cstring</text>
</a>
</g>
</g>
<!-- Node3&#45;&gt;Node11 -->
<g id="edge10_Node000003_Node000011" class="edge">
<title>Node3&#45;&gt;Node11</title>
<g id="a_edge10_Node000003_Node000011"><a xlink:title=" ">
<path fill="none" stroke="#63b8ff" d="M1401.28,-144.47C1398.16,-143.9 1395.02,-143.39 1392,-143 1204.94,-118.83 725.19,-159.41 544,-107 539.39,-105.67 534.74,-103.59 530.42,-101.28"/>
<polygon fill="#63b8ff" stroke="#63b8ff" points="532.02,-98.15 521.64,-96.04 528.44,-104.17 532.02,-98.15"/>
</a>
</g>
</g>
<!-- Node12 -->
<g id="Node000012" class="node">
<title>Node12</title>
<g id="a_Node000012"><a xlink:title=" ">
<polygon fill="#e0e0e0" stroke="#999999" points="602.5,-96 553.5,-96 553.5,-77 602.5,-77 602.5,-96"/>
<text text-anchor="middle" x="578" y="-84" font-family="Helvetica,sans-Serif" font-size="10.00">cuchar</text>
</a>
</g>
</g>
<!-- Node3&#45;&gt;Node12 -->
<g id="edge11_Node000003_Node000012" class="edge">
<title>Node3&#45;&gt;Node12</title>
<g id="a_edge11_Node000003_Node000012"><a xlink:title=" ">
<path fill="none" stroke="#63b8ff" d="M1401.28,-144.48C1398.16,-143.91 1395.02,-143.4 1392,-143 1219.73,-120.42 777.49,-156.66 611,-107 606.62,-105.69 602.22,-103.69 598.12,-101.45"/>
<polygon fill="#63b8ff" stroke="#63b8ff" points="599.62,-98.26 589.26,-96.03 595.97,-104.23 599.62,-98.26"/>
</a>
</g>
</g>
<!-- Node13 -->
<g id="Node000013" class="node">
<title>Node13</title>
<g id="a_Node000013"><a xlink:title=" ">
<polygon fill="#e0e0e0" stroke="#999999" points="703.5,-96 620.5,-96 620.5,-77 703.5,-77 703.5,-96"/>
<text text-anchor="middle" x="662" y="-84" font-family="Helvetica,sans-Serif" font-size="10.00">initializer_list</text>
</a>
</g>
</g>
<!-- Node3&#45;&gt;Node13 -->
<g id="edge12_Node000003_Node000013" class="edge">
<title>Node3&#45;&gt;Node13</title>
<g id="a_edge12_Node000003_Node000013"><a xlink:title=" ">
<path fill="none" stroke="#63b8ff" d="M1401.28,-144.5C1398.16,-143.92 1395.02,-143.41 1392,-143 1092.06,-102.64 1007.85,-170.79 712,-107 704.49,-105.38 696.62,-102.78 689.41,-100"/>
<polygon fill="#63b8ff" stroke="#63b8ff" points="690.67,-96.73 680.09,-96.17 688.01,-103.2 690.67,-96.73"/>
</a>
</g>
</g>
<!-- Node14 -->
<g id="Node000014" class="node">
<title>Node14</title>
<g id="a_Node000014"><a xlink:title=" ">
<polygon fill="#e0e0e0" stroke="#999999" points="774.5,-96 721.5,-96 721.5,-77 774.5,-77 774.5,-96"/>
<text text-anchor="middle" x="748" y="-84" font-family="Helvetica,sans-Serif" font-size="10.00">iterator</text>
</a>
</g>
</g>
<!-- Node3&#45;&gt;Node14 -->
<g id="edge13_Node000003_Node000014" class="edge">
<title>Node3&#45;&gt;Node14</title>
<g id="a_edge13_Node000003_Node000014"><a xlink:title=" ">
<path fill="none" stroke="#63b8ff" d="M1401.27,-144.52C1398.15,-143.94 1395.02,-143.42 1392,-143 1123.84,-106.07 1044.32,-181.23 784,-107 779.13,-105.61 774.18,-103.48 769.58,-101.14"/>
<polygon fill="#63b8ff" stroke="#63b8ff" points="771.17,-98.02 760.74,-96.18 767.75,-104.13 771.17,-98.02"/>
</a>
</g>
</g>
<!-- Node15 -->
<g id="Node000015" class="node">
<title>Node15</title>
<g id="a_Node000015"><a xlink:title=" ">
<polygon fill="#e0e0e0" stroke="#999999" points="851,-96 793,-96 793,-77 851,-77 851,-96"/>
<text text-anchor="middle" x="822" y="-84" font-family="Helvetica,sans-Serif" font-size="10.00">memory</text>
</a>
</g>
</g>
<!-- Node3&#45;&gt;Node15 -->
<g id="edge14_Node000003_Node000015" class="edge">
<title>Node3&#45;&gt;Node15</title>
<g id="a_edge14_Node000003_Node000015"><a xlink:title=" ">
<path fill="none" stroke="#63b8ff" d="M1401.27,-144.55C1398.15,-143.96 1395.02,-143.43 1392,-143 1157.37,-109.68 1088.35,-170.4 860,-107 854.78,-105.55 849.43,-103.34 844.47,-100.91"/>
<polygon fill="#63b8ff" stroke="#63b8ff" points="845.99,-97.76 835.52,-96.15 842.7,-103.94 845.99,-97.76"/>
</a>
</g>
</g>
<!-- Node16 -->
<g id="Node000016" class="node">
<title>Node16</title>
<g id="a_Node000016"><a xlink:title=" ">
<polygon fill="#e0e0e0" stroke="#999999" points="934.5,-96 869.5,-96 869.5,-77 934.5,-77 934.5,-96"/>
<text text-anchor="middle" x="902" y="-84" font-family="Helvetica,sans-Serif" font-size="10.00">stdexcept</text>
</a>
</g>
</g>
<!-- Node3&#45;&gt;Node16 -->
<g id="edge15_Node000003_Node000016" class="edge">
<title>Node3&#45;&gt;Node16</title>
<g id="a_edge15_Node000003_Node000016"><a xlink:title=" ">
<path fill="none" stroke="#63b8ff" d="M1401.27,-144.59C1398.15,-143.99 1395.02,-143.45 1392,-143 1194.41,-113.67 1137.17,-157.86 944,-107 938.02,-105.43 931.85,-103.04 926.13,-100.47"/>
<polygon fill="#63b8ff" stroke="#63b8ff" points="927.59,-97.29 917.07,-96.08 924.55,-103.59 927.59,-97.29"/>
</a>
</g>
</g>
<!-- Node17 -->
<g id="Node000017" class="node">
<title>Node17</title>
<g id="a_Node000017"><a xlink:title=" ">
<polygon fill="#e0e0e0" stroke="#999999" points="997,-96 953,-96 953,-77 997,-77 997,-96"/>
<text text-anchor="middle" x="975" y="-84" font-family="Helvetica,sans-Serif" font-size="10.00">string</text>
</a>
</g>
</g>
<!-- Node3&#45;&gt;Node17 -->
<g id="edge16_Node000003_Node000017" class="edge">
<title>Node3&#45;&gt;Node17</title>
<g id="a_edge16_Node000003_Node000017"><a xlink:title=" ">
<path fill="none" stroke="#63b8ff" d="M1401.26,-144.63C1398.14,-144.02 1395.01,-143.47 1392,-143 1221.73,-116.61 1169.16,-162.38 1006,-107 1002.05,-105.66 998.09,-103.72 994.38,-101.59"/>
<polygon fill="#63b8ff" stroke="#63b8ff" points="996.14,-98.56 985.83,-96.09 992.35,-104.44 996.14,-98.56"/>
</a>
</g>
</g>
<!-- Node18 -->
<g id="Node000018" class="node">
<title>Node18</title>
<g id="a_Node000018"><a xlink:title=" ">
<polygon fill="#e0e0e0" stroke="#999999" points="1084.5,-96 1015.5,-96 1015.5,-77 1084.5,-77 1084.5,-96"/>
<text text-anchor="middle" x="1050" y="-84" font-family="Helvetica,sans-Serif" font-size="10.00">type_traits</text>
</a>
</g>
</g>
<!-- Node3&#45;&gt;Node18 -->
<g id="edge17_Node000003_Node000018" class="edge">
<title>Node3&#45;&gt;Node18</title>
<g id="a_edge17_Node000003_Node000018"><a xlink:title=" ">
<path fill="none" stroke="#63b8ff" d="M1401.25,-144.71C1398.13,-144.09 1395.01,-143.51 1392,-143 1260.02,-120.72 1221.9,-143.06 1093,-107 1087.03,-105.33 1080.84,-102.95 1075.08,-100.42"/>
<polygon fill="#63b8ff" stroke="#63b8ff" points="1076.43,-97.19 1065.89,-96.12 1073.47,-103.53 1076.43,-97.19"/>
</a>
</g>
</g>
<!-- Node19 -->
<g id="Node000019" class="node">
<title>Node19</title>
<g id="a_Node000019"><a xlink:title=" ">
<polygon fill="#e0e0e0" stroke="#999999" points="1147.5,-96 1102.5,-96 1102.5,-77 1147.5,-77 1147.5,-96"/>
<text text-anchor="middle" x="1125" y="-84" font-family="Helvetica,sans-Serif" font-size="10.00">utility</text>
</a>
</g>
</g>
<!-- Node3&#45;&gt;Node19 -->
<g id="edge18_Node000003_Node000019" class="edge">
<title>Node3&#45;&gt;Node19</title>
<g id="a_edge18_Node000003_Node000019"><a xlink:title=" ">
<path fill="none" stroke="#63b8ff" d="M1401.23,-144.82C1398.12,-144.18 1395,-143.56 1392,-143 1290.3,-123.98 1260.21,-139.56 1162,-107 1157.17,-105.4 1152.21,-103.21 1147.56,-100.88"/>
<polygon fill="#63b8ff" stroke="#63b8ff" points="1149.04,-97.7 1138.57,-96.04 1145.72,-103.87 1149.04,-97.7"/>
</a>
</g>
</g>
<!-- Node20 -->
<g id="Node000020" class="node">
<title>Node20</title>
<g id="a_Node000020"><a xlink:href="../../dd/d9e/linux_2platform__config_8hpp.html" target="_top" xlink:title="additional linux platform header">
<polygon fill="white" stroke="#666666" points="1359.5,-107 1204.5,-107 1204.5,-66 1359.5,-66 1359.5,-107"/>
<text text-anchor="start" x="1212.5" y="-95" font-family="Helvetica,sans-Serif" font-size="10.00">/home/runner/work/toygine2</text>
<text text-anchor="start" x="1212.5" y="-84" font-family="Helvetica,sans-Serif" font-size="10.00">/toygine2/src/platforms</text>
<text text-anchor="middle" x="1282" y="-73" font-family="Helvetica,sans-Serif" font-size="10.00">/linux/platform_config.hpp</text>
</a>
</g>
</g>
<!-- Node3&#45;&gt;Node20 -->
<g id="edge19_Node000003_Node000020" class="edge">
<title>Node3&#45;&gt;Node20</title>
<g id="a_edge19_Node000003_Node000020"><a xlink:title=" ">
<path fill="none" stroke="#63b8ff" d="M1410.91,-142.87C1391.95,-134.72 1362.65,-122.14 1336.77,-111.03"/>
<polygon fill="#63b8ff" stroke="#63b8ff" points="1337.99,-107.74 1327.42,-107.01 1335.23,-114.17 1337.99,-107.74"/>
</a>
</g>
</g>
<!-- Node21 -->
<g id="Node000021" class="node">
<title>Node21</title>
<g id="a_Node000021"><a xlink:href="../../d3/d60/platform_8hpp.html" target="_top" xlink:title="Platform and CPU architecture enumerations with compile&#45;time and runtime detection utilities.">
<polygon fill="white" stroke="#666666" points="1227.5,-30 1124.5,-30 1124.5,0 1227.5,0 1227.5,-30"/>
<text text-anchor="start" x="1132.5" y="-18" font-family="Helvetica,sans-Serif" font-size="10.00">../../../include/core</text>
<text text-anchor="middle" x="1176" y="-7" font-family="Helvetica,sans-Serif" font-size="10.00">/platform.hpp</text>
</a>
</g>
</g>
<!-- Node3&#45;&gt;Node21 -->
<g id="edge35_Node000003_Node000021" class="edge">
<title>Node3&#45;&gt;Node21</title>
<g id="a_edge35_Node000003_Node000021"><a xlink:title=" ">
<path fill="none" stroke="#63b8ff" d="M1401.21,-144.9C1398.1,-144.24 1394.99,-143.6 1392,-143 1304.73,-125.52 1258.72,-169.14 1195,-107 1177.47,-89.9 1174.04,-61.11 1174.16,-40.48"/>
<polygon fill="#63b8ff" stroke="#63b8ff" points="1177.67,-40.38 1174.51,-30.27 1170.67,-40.15 1177.67,-40.38"/>
</a>
</g>
</g>
<!-- Node23 -->
<g id="Node000023" class="node">
<title>Node23</title>
<g id="a_Node000023"><a xlink:href="../../d5/d96/assertion_8hpp.html" target="_top" xlink:title="Assertion system for runtime and compile&#45;time validation of engine invariants.">
<polygon fill="white" stroke="#666666" points="1484.5,-96 1377.5,-96 1377.5,-77 1484.5,-77 1484.5,-96"/>
<text text-anchor="middle" x="1431" y="-84" font-family="Helvetica,sans-Serif" font-size="10.00">core/assertion.hpp</text>
</a>
</g>
</g>
<!-- Node3&#45;&gt;Node23 -->
<g id="edge22_Node000003_Node000023" class="edge">
<title>Node3&#45;&gt;Node23</title>
<g id="a_edge22_Node000003_Node000023"><a xlink:title=" ">
<path fill="none" stroke="#63b8ff" d="M1431,-142.87C1431,-133.66 1431,-118.79 1431,-106.77"/>
<polygon fill="#63b8ff" stroke="#63b8ff" points="1434.5,-106.41 1431,-96.41 1427.5,-106.41 1434.5,-106.41"/>
</a>
</g>
</g>
<!-- Node24 -->
<g id="Node000024" class="node">
<title>Node24</title>
<g id="a_Node000024"><a xlink:href="../../dd/ded/c__string__view_8hpp.html" target="_top" xlink:title="Non&#45;owning string view class for C&#45;style strings.">
<polygon fill="white" stroke="#666666" points="2483,-96 2355,-96 2355,-77 2483,-77 2483,-96"/>
<text text-anchor="middle" x="2419" y="-84" font-family="Helvetica,sans-Serif" font-size="10.00">core/c_string_view.hpp</text>
</a>
</g>
</g>
<!-- Node3&#45;&gt;Node24 -->
<g id="edge23_Node000003_Node000024" class="edge">
<title>Node3&#45;&gt;Node24</title>
<g id="a_edge23_Node000003_Node000024"><a xlink:title=" ">
<path fill="none" stroke="#63b8ff" d="M1460.78,-144.31C1463.55,-143.8 1466.32,-143.35 1469,-143 1855.79,-92.22 1960.33,-165.69 2346,-107 2358.14,-105.15 2371.16,-102.05 2382.79,-98.86"/>
<polygon fill="#63b8ff" stroke="#63b8ff" points="2383.95,-102.17 2392.6,-96.06 2382.02,-95.44 2383.95,-102.17"/>
</a>
</g>
</g>
<!-- Node25 -->
<g id="Node000025" class="node">
<title>Node25</title>
<g id="a_Node000025"><a xlink:href="../../de/deb/string__like_8hpp.html" target="_top" xlink:title="C++ concept for string&#45;like types with size() and c_str() methods.">
<polygon fill="white" stroke="#666666" points="2173,-24.5 2085,-24.5 2085,-5.5 2173,-5.5 2173,-24.5"/>
<text text-anchor="middle" x="2129" y="-12.5" font-family="Helvetica,sans-Serif" font-size="10.00">string_like.hpp</text>
</a>
</g>
</g>
<!-- Node3&#45;&gt;Node25 -->
<g id="edge36_Node000003_Node000025" class="edge">
<title>Node3&#45;&gt;Node25</title>
<g id="a_edge36_Node000003_Node000025"><a xlink:title=" ">
<path fill="none" stroke="#63b8ff" d="M1460.78,-144.28C1463.55,-143.78 1466.32,-143.34 1469,-143 1531.7,-135.07 2562.02,-152.39 2606,-107 2618.68,-93.91 2618.19,-79.54 2606,-66 2578.11,-35.04 2302.22,-21.93 2183.19,-17.68"/>
<polygon fill="#63b8ff" stroke="#63b8ff" points="2183.31,-14.18 2173.2,-17.33 2183.07,-21.18 2183.31,-14.18"/>
</a>
</g>
</g>
<!-- Node26 -->
<g id="Node000026" class="node">
<title>Node26</title>
<g id="a_Node000026"><a xlink:href="../../d1/d5c/callbacks__pool_8hpp.html" target="_top" xlink:title="Template callback pool class with fixed&#45;size callback storage.">
<polygon fill="white" stroke="#666666" points="1887,-96 1753,-96 1753,-77 1887,-77 1887,-96"/>
<text text-anchor="middle" x="1820" y="-84" font-family="Helvetica,sans-Serif" font-size="10.00">core/callbacks_pool.hpp</text>
</a>
</g>
</g>
<!-- Node3&#45;&gt;Node26 -->
<g id="edge25_Node000003_Node000026" class="edge">
<title>Node3&#45;&gt;Node26</title>
<g id="a_edge25_Node000003_Node000026"><a xlink:title=" ">
<path fill="none" stroke="#63b8ff" d="M1460.82,-144.56C1463.58,-144 1466.34,-143.47 1469,-143 1590.38,-121.52 1622.97,-130.36 1744,-107 1755.9,-104.7 1768.7,-101.65 1780.35,-98.64"/>
<polygon fill="#63b8ff" stroke="#63b8ff" points="1781.46,-101.97 1790.23,-96.03 1779.67,-95.2 1781.46,-101.97"/>
</a>
</g>
</g>
<!-- Node27 -->
<g id="Node000027" class="node">
<title>Node27</title>
<g id="a_Node000027"><a xlink:href="../../d4/dc0/constexpr__utils_8hpp.html" target="_top" xlink:title="Constexpr utility functions for compile&#45;time operations.">
<polygon fill="white" stroke="#666666" points="2041,-96 1905,-96 1905,-77 2041,-77 2041,-96"/>
<text text-anchor="middle" x="1973" y="-84" font-family="Helvetica,sans-Serif" font-size="10.00">core/constexpr_utils.hpp</text>
</a>
</g>
</g>
<!-- Node3&#45;&gt;Node27 -->
<g id="edge26_Node000003_Node000027" class="edge">
<title>Node3&#45;&gt;Node27</title>
<g id="a_edge26_Node000003_Node000027"><a xlink:title=" ">
<path fill="none" stroke="#63b8ff" d="M1460.8,-144.43C1463.56,-143.9 1466.33,-143.41 1469,-143 1657.25,-114.15 1708.17,-138.48 1896,-107 1908.54,-104.9 1922.03,-101.78 1934.17,-98.65"/>
<polygon fill="#63b8ff" stroke="#63b8ff" points="1935.22,-101.99 1943.99,-96.05 1933.42,-95.23 1935.22,-101.99"/>
</a>
</g>
</g>
<!-- Node28 -->
<g id="Node000028" class="node">
<title>Node28</title>
<g id="a_Node000028"><a xlink:href="../../d7/d7f/fixed__string_8hpp.html" target="_top" xlink:title="Template string class with fixed&#45;size character buffer.">
<polygon fill="white" stroke="#666666" points="1621,-96 1503,-96 1503,-77 1621,-77 1621,-96"/>
<text text-anchor="middle" x="1562" y="-84" font-family="Helvetica,sans-Serif" font-size="10.00">core/fixed_string.hpp</text>
</a>
</g>
</g>
<!-- Node3&#45;&gt;Node28 -->
<g id="edge27_Node000003_Node000028" class="edge">
<title>Node3&#45;&gt;Node28</title>
<g id="a_edge27_Node000003_Node000028"><a xlink:title=" ">
<path fill="none" stroke="#63b8ff" d="M1448.67,-142.87C1470.84,-132.04 1509.08,-113.35 1534.95,-100.72"/>
<polygon fill="#63b8ff" stroke="#63b8ff" points="1536.75,-103.73 1544.19,-96.2 1533.67,-97.44 1536.75,-103.73"/>
</a>
</g>
</g>
<!-- Node29 -->
<g id="Node000029" class="node">
<title>Node29</title>
<g id="a_Node000029"><a xlink:href="../../d7/dea/fixed__vector_8hpp.html" target="_top" xlink:title="TODO.">
<polygon fill="white" stroke="#666666" points="2337,-96 2217,-96 2217,-77 2337,-77 2337,-96"/>
<text text-anchor="middle" x="2277" y="-84" font-family="Helvetica,sans-Serif" font-size="10.00">core/fixed_vector.hpp</text>
</a>
</g>
</g>
<!-- Node3&#45;&gt;Node29 -->
<g id="edge29_Node000003_Node000029" class="edge">
<title>Node3&#45;&gt;Node29</title>
<g id="a_edge29_Node000003_Node000029"><a xlink:title=" ">
<path fill="none" stroke="#63b8ff" d="M1460.78,-144.33C1463.55,-143.82 1466.32,-143.36 1469,-143 1794.87,-98.95 1883.47,-160.05 2208,-107 2219.38,-105.14 2231.56,-102.07 2242.47,-98.91"/>
<polygon fill="#63b8ff" stroke="#63b8ff" points="2243.51,-102.26 2252.07,-96.02 2241.49,-95.55 2243.51,-102.26"/>
</a>
</g>
</g>
<!-- Node30 -->
<g id="Node000030" class="node">
<title>Node30</title>
<g id="a_Node000030"><a xlink:href="../../d4/d0a/format_8hpp.html" target="_top" xlink:title="Compile&#45;time format string validation class.">
<polygon fill="white" stroke="#666666" points="1734.5,-96 1639.5,-96 1639.5,-77 1734.5,-77 1734.5,-96"/>
<text text-anchor="middle" x="1687" y="-84" font-family="Helvetica,sans-Serif" font-size="10.00">core/format.hpp</text>
</a>
</g>
</g>
<!-- Node3&#45;&gt;Node30 -->
<g id="edge30_Node000003_Node000030" class="edge">
<title>Node3&#45;&gt;Node30</title>
<g id="a_edge30_Node000003_Node000030"><a xlink:title=" ">
<path fill="none" stroke="#63b8ff" d="M1460.75,-144.85C1516.18,-132.46 1629.74,-107.07 1630,-107 1637.93,-104.76 1646.37,-102.06 1654.26,-99.39"/>
<polygon fill="#63b8ff" stroke="#63b8ff" points="1655.58,-102.63 1663.89,-96.05 1653.29,-96.02 1655.58,-102.63"/>
</a>
</g>
</g>
<!-- Node31 -->
<g id="Node000031" class="node">
<title>Node31</title>
<g id="a_Node000031"><a xlink:href="../../dd/d8e/hashes_8hpp.html" target="_top" xlink:title="CRC hash functions.">
<polygon fill="white" stroke="#666666" points="2597,-96 2501,-96 2501,-77 2597,-77 2597,-96"/>
<text text-anchor="middle" x="2549" y="-84" font-family="Helvetica,sans-Serif" font-size="10.00">core/hashes.hpp</text>
</a>
</g>
</g>
<!-- Node3&#45;&gt;Node31 -->
<g id="edge32_Node000003_Node000031" class="edge">
<title>Node3&#45;&gt;Node31</title>
<g id="a_edge32_Node000003_Node000031"><a xlink:title=" ">
<path fill="none" stroke="#63b8ff" d="M1460.78,-144.29C1463.55,-143.79 1466.32,-143.34 1469,-143 1920.25,-85.1 2044.6,-189.52 2492,-107 2501.02,-105.34 2510.55,-102.52 2519.18,-99.55"/>
<polygon fill="#63b8ff" stroke="#63b8ff" points="2520.62,-102.75 2528.81,-96.03 2518.22,-96.17 2520.62,-102.75"/>
</a>
</g>
</g>
<!-- Node32 -->
<g id="Node000032" class="node">
<title>Node32</title>
<g id="a_Node000032"><a xlink:href="../../de/d2d/o__string__stream_8hpp.html" target="_top" xlink:title="Output string stream class for building strings from various data types.">
<polygon fill="white" stroke="#666666" points="2199,-96 2059,-96 2059,-77 2199,-77 2199,-96"/>
<text text-anchor="middle" x="2129" y="-84" font-family="Helvetica,sans-Serif" font-size="10.00">core/o_string_stream.hpp</text>
</a>
</g>
</g>
<!-- Node3&#45;&gt;Node32 -->
<g id="edge33_Node000003_Node000032" class="edge">
<title>Node3&#45;&gt;Node32</title>
<g id="a_edge33_Node000003_Node000032"><a xlink:title=" ">
<path fill="none" stroke="#63b8ff" d="M1460.79,-144.37C1463.55,-143.85 1466.32,-143.38 1469,-143 1725.15,-106.65 1794.26,-146.16 2050,-107 2063.11,-104.99 2077.23,-101.83 2089.86,-98.64"/>
<polygon fill="#63b8ff" stroke="#63b8ff" points="2090.83,-102 2099.62,-96.09 2089.06,-95.23 2090.83,-102"/>
</a>
</g>
</g>
<!-- Node33 -->
<g id="Node000033" class="node">
<title>Node33</title>
<g id="a_Node000033"><a xlink:href="../../d8/d43/core_2utils_8hpp.html" target="_top" xlink:title="Core utility functions for string manipulation, encoding conversion, and number formatting.">
<polygon fill="white" stroke="#666666" points="2736.5,-96 2653.5,-96 2653.5,-77 2736.5,-77 2736.5,-96"/>
<text text-anchor="middle" x="2695" y="-84" font-family="Helvetica,sans-Serif" font-size="10.00">core/utils.hpp</text>
</a>
</g>
</g>
<!-- Node3&#45;&gt;Node33 -->
<g id="edge37_Node000003_Node000033" class="edge">
<title>Node3&#45;&gt;Node33</title>
<g id="a_edge37_Node000003_Node000033"><a xlink:title=" ">
<path fill="none" stroke="#63b8ff" d="M1460.78,-144.28C1463.54,-143.78 1466.32,-143.34 1469,-143 1727.08,-110.46 2383.22,-154.32 2639,-107 2647.88,-105.36 2657.24,-102.55 2665.72,-99.57"/>
<polygon fill="#63b8ff" stroke="#63b8ff" points="2667.03,-102.82 2675.18,-96.06 2664.59,-96.26 2667.03,-102.82"/>
</a>
</g>
</g>
<!-- Node34 -->
<g id="Node000034" class="node">
<title>Node34</title>
<g id="a_Node000034"><a xlink:href="../../df/d4a/c__string__view_8inl.html" target="_top" xlink:title="Inline implementations for CStringView class.">
<polygon fill="white" stroke="#666666" points="2877,-96 2755,-96 2755,-77 2877,-77 2877,-96"/>
<text text-anchor="middle" x="2816" y="-84" font-family="Helvetica,sans-Serif" font-size="10.00">core/c_string_view.inl</text>
</a>
</g>
</g>
<!-- Node3&#45;&gt;Node34 -->
<g id="edge38_Node000003_Node000034" class="edge">
<title>Node3&#45;&gt;Node34</title>
<g id="a_edge38_Node000003_Node000034"><a xlink:title=" ">
<path fill="none" stroke="#63b8ff" d="M1460.78,-144.27C1463.54,-143.77 1466.32,-143.33 1469,-143 2032.41,-72.71 2184.59,-191.81 2746,-107 2757.65,-105.24 2770.12,-102.17 2781.26,-98.98"/>
<polygon fill="#63b8ff" stroke="#63b8ff" points="2782.47,-102.27 2791.05,-96.05 2780.47,-95.56 2782.47,-102.27"/>
</a>
</g>
</g>
<!-- Node35 -->
<g id="Node000035" class="node">
<title>Node35</title>
<g id="a_Node000035"><a xlink:href="../../d6/ddb/callbacks__pool_8inl.html" target="_top" xlink:title="Inline implementations for template callback pool class with fixed&#45;size callback storage.">
<polygon fill="white" stroke="#666666" points="3023,-96 2895,-96 2895,-77 3023,-77 3023,-96"/>
<text text-anchor="middle" x="2959" y="-84" font-family="Helvetica,sans-Serif" font-size="10.00">core/callbacks_pool.inl</text>
</a>
</g>
</g>
<!-- Node3&#45;&gt;Node35 -->
<g id="edge39_Node000003_Node000035" class="edge">
<title>Node3&#45;&gt;Node35</title>
<g id="a_edge39_Node000003_Node000035"><a xlink:title=" ">
<path fill="none" stroke="#63b8ff" d="M1460.77,-144.26C1463.54,-143.77 1466.32,-143.33 1469,-143 2094.24,-65.88 2262.47,-196.91 2886,-107 2898.25,-105.23 2911.39,-102.12 2923.1,-98.89"/>
<polygon fill="#63b8ff" stroke="#63b8ff" points="2924.31,-102.18 2932.96,-96.06 2922.38,-95.46 2924.31,-102.18"/>
</a>
</g>
</g>
<!-- Node36 -->
<g id="Node000036" class="node">
<title>Node36</title>
<g id="a_Node000036"><a xlink:href="../../dc/d28/constexpr__utils_8inl.html" target="_top" xlink:title="Inline implementations for constexpr utility functions.">
<polygon fill="white" stroke="#666666" points="3171,-96 3041,-96 3041,-77 3171,-77 3171,-96"/>
<text text-anchor="middle" x="3106" y="-84" font-family="Helvetica,sans-Serif" font-size="10.00">core/constexpr_utils.inl</text>
</a>
</g>
</g>
<!-- Node3&#45;&gt;Node36 -->
<g id="edge40_Node000003_Node000036" class="edge">
<title>Node3&#45;&gt;Node36</title>
<g id="a_edge40_Node000003_Node000036"><a xlink:title=" ">
<path fill="none" stroke="#63b8ff" d="M1460.77,-144.26C1463.54,-143.76 1466.32,-143.33 1469,-143 2158.72,-58.75 2343.98,-204.2 3032,-107 3044.54,-105.23 3058,-102.07 3069.96,-98.81"/>
<polygon fill="#63b8ff" stroke="#63b8ff" points="3070.93,-102.17 3079.59,-96.07 3069.02,-95.44 3070.93,-102.17"/>
</a>
</g>
</g>
<!-- Node37 -->
<g id="Node000037" class="node">
<title>Node37</title>
<g id="a_Node000037"><a xlink:href="../../d7/d40/fixed__string_8inl.html" target="_top" xlink:title="Inline implementations for FixedString template class.">
<polygon fill="white" stroke="#666666" points="3301,-96 3189,-96 3189,-77 3301,-77 3301,-96"/>
<text text-anchor="middle" x="3245" y="-84" font-family="Helvetica,sans-Serif" font-size="10.00">core/fixed_string.inl</text>
</a>
</g>
</g>
<!-- Node3&#45;&gt;Node37 -->
<g id="edge41_Node000003_Node000037" class="edge">
<title>Node3&#45;&gt;Node37</title>
<g id="a_edge41_Node000003_Node000037"><a xlink:title=" ">
<path fill="none" stroke="#63b8ff" d="M1460.77,-144.25C1463.54,-143.76 1466.32,-143.33 1469,-143 1846.55,-97.27 2804.33,-166.18 3180,-107 3190.65,-105.32 3201.99,-102.35 3212.17,-99.23"/>
<polygon fill="#63b8ff" stroke="#63b8ff" points="3213.44,-102.5 3221.89,-96.1 3211.3,-95.83 3213.44,-102.5"/>
</a>
</g>
</g>
<!-- Node38 -->
<g id="Node000038" class="node">
<title>Node38</title>
<g id="a_Node000038"><a xlink:href="../../da/dc9/fixed__vector_8inl.html" target="_top" xlink:title="TODO.">
<polygon fill="white" stroke="#666666" points="3433,-96 3319,-96 3319,-77 3433,-77 3433,-96"/>
<text text-anchor="middle" x="3376" y="-84" font-family="Helvetica,sans-Serif" font-size="10.00">core/fixed_vector.inl</text>
</a>
</g>
</g>
<!-- Node3&#45;&gt;Node38 -->
<g id="edge42_Node000003_Node000038" class="edge">
<title>Node3&#45;&gt;Node38</title>
<g id="a_edge42_Node000003_Node000038"><a xlink:title=" ">
<path fill="none" stroke="#63b8ff" d="M1460.77,-144.25C1463.54,-143.75 1466.32,-143.32 1469,-143 1875.26,-94.09 2905.62,-169.53 3310,-107 3321.01,-105.3 3332.75,-102.25 3343.23,-99.06"/>
<polygon fill="#63b8ff" stroke="#63b8ff" points="3344.36,-102.37 3352.83,-96 3342.24,-95.71 3344.36,-102.37"/>
</a>
</g>
</g>
<!-- Node39 -->
<g id="Node000039" class="node">
<title>Node39</title>
<g id="a_Node000039"><a xlink:href="../../d0/d67/format_8inl.html" target="_top" xlink:title="Inline implementations for FormatString class.">
<polygon fill="white" stroke="#666666" points="3540.5,-96 3451.5,-96 3451.5,-77 3540.5,-77 3540.5,-96"/>
<text text-anchor="middle" x="3496" y="-84" font-family="Helvetica,sans-Serif" font-size="10.00">core/format.inl</text>
</a>
</g>
</g>
<!-- Node3&#45;&gt;Node39 -->
<g id="edge43_Node000003_Node000039" class="edge">
<title>Node3&#45;&gt;Node39</title>
<g id="a_edge43_Node000003_Node000039"><a xlink:title=" ">
<path fill="none" stroke="#63b8ff" d="M1460.77,-144.24C1463.54,-143.75 1466.32,-143.32 1469,-143 1904.41,-90.87 3010.76,-186.54 3442,-107 3450.5,-105.43 3459.44,-102.69 3467.55,-99.74"/>
<polygon fill="#63b8ff" stroke="#63b8ff" points="3468.86,-102.99 3476.93,-96.12 3466.34,-96.46 3468.86,-102.99"/>
</a>
</g>
</g>
<!-- Node40 -->
<g id="Node000040" class="node">
<title>Node40</title>
<g id="a_Node000040"><a xlink:href="../../d9/dcb/o__string__stream_8inl.html" target="_top" xlink:title="Implementation of OStringStream template methods.">
<polygon fill="white" stroke="#666666" points="3693,-96 3559,-96 3559,-77 3693,-77 3693,-96"/>
<text text-anchor="middle" x="3626" y="-84" font-family="Helvetica,sans-Serif" font-size="10.00">core/o_string_stream.inl</text>
</a>
</g>
</g>
<!-- Node3&#45;&gt;Node40 -->
<g id="edge44_Node000003_Node000040" class="edge">
<title>Node3&#45;&gt;Node40</title>
<g id="a_edge44_Node000003_Node000040"><a xlink:title=" ">
<path fill="none" stroke="#63b8ff" d="M1460.77,-144.24C1463.54,-143.75 1466.31,-143.32 1469,-143 1928.26,-88.24 3091.65,-168.9 3550,-107 3562.97,-105.25 3576.91,-102.06 3589.27,-98.77"/>
<polygon fill="#63b8ff" stroke="#63b8ff" points="3590.52,-102.05 3599.22,-96.01 3588.65,-95.31 3590.52,-102.05"/>
</a>
</g>
</g>
<!-- Node41 -->
<g id="Node000041" class="node">
<title>Node41</title>
<g id="a_Node000041"><a xlink:href="../../d2/d2b/core_2utils_8inl.html" target="_top" xlink:title="Inline implementations of core utility functions for string manipulation and encoding conversion.">
<polygon fill="white" stroke="#666666" points="3788.5,-96 3711.5,-96 3711.5,-77 3788.5,-77 3788.5,-96"/>
<text text-anchor="middle" x="3750" y="-84" font-family="Helvetica,sans-Serif" font-size="10.00">core/utils.inl</text>
</a>
</g>
</g>
<!-- Node3&#45;&gt;Node41 -->
<g id="edge45_Node000003_Node000041" class="edge">
<title>Node3&#45;&gt;Node41</title>
<g id="a_edge45_Node000003_Node000041"><a xlink:title=" ">
<path fill="none" stroke="#63b8ff" d="M1460.77,-144.24C1463.54,-143.75 1466.31,-143.32 1469,-143 1715.42,-113.76 3458.85,-156.54 3702,-107 3709.22,-105.53 3716.74,-103 3723.63,-100.24"/>
<polygon fill="#63b8ff" stroke="#63b8ff" points="3725.36,-103.31 3733.15,-96.13 3722.58,-96.88 3725.36,-103.31"/>
</a>
</g>
</g>
<!-- Node20&#45;&gt;Node21 -->
<g id="edge20_Node000020_Node000021" class="edge">
<title>Node20&#45;&gt;Node21</title>
<g id="a_edge20_Node000020_Node000021"><a xlink:title=" ">
<path fill="none" stroke="#63b8ff" d="M1252.19,-65.96C1237.79,-56.51 1220.54,-45.2 1206.1,-35.74"/>
<polygon fill="#63b8ff" stroke="#63b8ff" points="1207.81,-32.67 1197.52,-30.11 1203.97,-38.52 1207.81,-32.67"/>
</a>
</g>
</g>
<!-- Node22 -->
<g id="Node000022" class="node">
<title>Node22</title>
<g id="a_Node000022"><a xlink:href="../../d1/d5f/assertion__macro__gcc__clang_8hpp.html" target="_top" xlink:title="Debug and Release assertion macro implementations for GCC/Clang platforms.">
<polygon fill="white" stroke="#666666" points="1372.5,-30 1245.5,-30 1245.5,0 1372.5,0 1372.5,-30"/>
<text text-anchor="start" x="1253.5" y="-18" font-family="Helvetica,sans-Serif" font-size="10.00">../common/assertion</text>
<text text-anchor="middle" x="1309" y="-7" font-family="Helvetica,sans-Serif" font-size="10.00">_macro_gcc_clang.hpp</text>
</a>
</g>
</g>
<!-- Node20&#45;&gt;Node22 -->
<g id="edge21_Node000020_Node000022" class="edge">
<title>Node20&#45;&gt;Node22</title>
<g id="a_edge21_Node000020_Node000022"><a xlink:title=" ">
<path fill="none" stroke="#63b8ff" d="M1289.66,-65.77C1292.85,-57.58 1296.57,-48.01 1299.89,-39.46"/>
<polygon fill="#63b8ff" stroke="#63b8ff" points="1303.19,-40.63 1303.55,-30.04 1296.66,-38.09 1303.19,-40.63"/>
</a>
</g>
</g>
<!-- Node24&#45;&gt;Node25 -->
<g id="edge24_Node000024_Node000025" class="edge">
<title>Node24&#45;&gt;Node25</title>
<g id="a_edge24_Node000024_Node000025"><a xlink:title=" ">
<path fill="none" stroke="#63b8ff" d="M2387.8,-76.91C2374.89,-73.42 2359.75,-69.42 2346,-66 2288.39,-51.67 2221.83,-36.55 2177.77,-26.73"/>
<polygon fill="#63b8ff" stroke="#63b8ff" points="2178.43,-23.29 2167.9,-24.54 2176.91,-30.12 2178.43,-23.29"/>
</a>
</g>
</g>
<!-- Node28&#45;&gt;Node25 -->
<g id="edge28_Node000028_Node000025" class="edge">
<title>Node28&#45;&gt;Node25</title>
<g id="a_edge28_Node000028_Node000025"><a xlink:title=" ">
<path fill="none" stroke="#63b8ff" d="M1587.57,-76.99C1600.21,-73.09 1615.77,-68.73 1630,-66 1789.93,-35.31 1982.54,-22.78 2074.7,-18.25"/>
<polygon fill="#63b8ff" stroke="#63b8ff" points="2075.08,-21.74 2084.9,-17.76 2074.74,-14.74 2075.08,-21.74"/>
</a>
</g>
</g>
<!-- Node30&#45;&gt;Node25 -->
<g id="edge31_Node000030_Node000025" class="edge">
<title>Node30&#45;&gt;Node25</title>
<g id="a_edge31_Node000030_Node000025"><a xlink:title=" ">
<path fill="none" stroke="#63b8ff" d="M1708.63,-76.96C1719.15,-73.09 1732.08,-68.78 1744,-66 1860.13,-38.88 1999.64,-25.37 2074.74,-19.6"/>
<polygon fill="#63b8ff" stroke="#63b8ff" points="2075.19,-23.08 2084.9,-18.84 2074.66,-16.1 2075.19,-23.08"/>
</a>
</g>
</g>
<!-- Node32&#45;&gt;Node25 -->
<g id="edge34_Node000032_Node000025" class="edge">
<title>Node32&#45;&gt;Node25</title>
<g id="a_edge34_Node000032_Node000025"><a xlink:title=" ">
<path fill="none" stroke="#63b8ff" d="M2129,-76.98C2129,-66.56 2129,-48.61 2129,-34.88"/>
<polygon fill="#63b8ff" stroke="#63b8ff" points="2132.5,-34.59 2129,-24.59 2125.5,-34.59 2132.5,-34.59"/>
</a>
</g>
</g>
<!-- Node44&#45;&gt;Node3 -->
<g id="edge50_Node000044_Node000003" class="edge">
<title>Node44&#45;&gt;Node3</title>
<g id="a_edge50_Node000044_Node000003"><a xlink:title=" ">
<path fill="none" stroke="#63b8ff" d="M1645.27,-199.81C1606.37,-191.58 1538.19,-177.1 1470.8,-162.38"/>
<polygon fill="#63b8ff" stroke="#63b8ff" points="1471.38,-158.92 1460.86,-160.21 1469.89,-165.76 1471.38,-158.92"/>
</a>
</g>
</g>
<!-- Node45 -->
<g id="Node000045" class="node">
<title>Node45</title>
<g id="a_Node000045"><a xlink:href="../../d0/de4/point_8hpp.html" target="_top" xlink:title="2D integer point class for UI and input handling.">
<polygon fill="white" stroke="#666666" points="1892.5,-162 1801.5,-162 1801.5,-143 1892.5,-143 1892.5,-162"/>
<text text-anchor="middle" x="1847" y="-150" font-family="Helvetica,sans-Serif" font-size="10.00">math/point.hpp</text>
</a>
</g>
</g>
<!-- Node44&#45;&gt;Node45 -->
<g id="edge51_Node000044_Node000045" class="edge">
<title>Node44&#45;&gt;Node45</title>
<g id="a_edge51_Node000044_Node000045"><a xlink:title=" ">
<path fill="none" stroke="#63b8ff" d="M1704.31,-197.98C1732.85,-189.09 1777.83,-175.07 1809.64,-165.15"/>
<polygon fill="#63b8ff" stroke="#63b8ff" points="1810.97,-168.4 1819.47,-162.08 1808.88,-161.72 1810.97,-168.4"/>
</a>
</g>
</g>
<!-- Node46 -->
<g id="Node000046" class="node">
<title>Node46</title>
<g id="a_Node000046"><a xlink:href="../../d8/dbd/math_2utils_8hpp.html" target="_top" xlink:title="General math utilities.">
<polygon fill="white" stroke="#666666" points="1997.5,-162 1910.5,-162 1910.5,-143 1997.5,-143 1997.5,-162"/>
<text text-anchor="middle" x="1954" y="-150" font-family="Helvetica,sans-Serif" font-size="10.00">math/utils.hpp</text>
</a>
</g>
</g>
<!-- Node44&#45;&gt;Node46 -->
<g id="edge52_Node000044_Node000046" class="edge">
<title>Node44&#45;&gt;Node46</title>
<g id="a_edge52_Node000044_Node000046"><a xlink:title=" ">
<path fill="none" stroke="#63b8ff" d="M1708.51,-200.47C1755.19,-191.54 1843.35,-174.67 1900.33,-163.77"/>
<polygon fill="#63b8ff" stroke="#63b8ff" points="1901.08,-167.19 1910.25,-161.87 1899.77,-160.31 1901.08,-167.19"/>
</a>
</g>
</g>
<!-- Node47 -->
<g id="Node000047" class="node">
<title>Node47</title>
<g id="a_Node000047"><a xlink:href="../../d6/de1/vector2d_8hpp.html" target="_top" xlink:title="2D floating&#45;point vector class for interactive game objects and physics calculations.">
<polygon fill="white" stroke="#666666" points="2124.5,-162 2015.5,-162 2015.5,-143 2124.5,-143 2124.5,-162"/>
<text text-anchor="middle" x="2070" y="-150" font-family="Helvetica,sans-Serif" font-size="10.00">math/vector2d.hpp</text>
</a>
</g>
</g>
<!-- Node44&#45;&gt;Node47 -->
<g id="edge53_Node000044_Node000047" class="edge">
<title>Node44&#45;&gt;Node47</title>
<g id="a_edge53_Node000044_Node000047"><a xlink:title=" ">
<path fill="none" stroke="#63b8ff" d="M1708.83,-202.21C1773.18,-193.53 1919.89,-173.74 2005.21,-162.24"/>
<polygon fill="#63b8ff" stroke="#63b8ff" points="2005.86,-165.68 2015.3,-160.88 2004.92,-158.74 2005.86,-165.68"/>
</a>
</g>
</g>
<!-- Node48 -->
<g id="Node000048" class="node">
<title>Node48</title>
<g id="a_Node000048"><a xlink:href="../../d4/dee/point_8inl.html" target="_top" xlink:title="Inline implementations for 2D integer point class.">
<polygon fill="white" stroke="#666666" points="1563.5,-162 1478.5,-162 1478.5,-143 1563.5,-143 1563.5,-162"/>
<text text-anchor="middle" x="1521" y="-150" font-family="Helvetica,sans-Serif" font-size="10.00">math/point.inl</text>
</a>
</g>
</g>
<!-- Node44&#45;&gt;Node48 -->
<g id="edge54_Node000044_Node000048" class="edge">
<title>Node44&#45;&gt;Node48</title>
<g id="a_edge54_Node000044_Node000048"><a xlink:title=" ">
<path fill="none" stroke="#63b8ff" d="M1651.94,-197.98C1625.97,-189.16 1585.19,-175.31 1556.04,-165.41"/>
<polygon fill="#63b8ff" stroke="#63b8ff" points="1556.85,-161.99 1546.26,-162.08 1554.6,-168.61 1556.85,-161.99"/>
</a>
</g>
</g>
<!-- Node49 -->
<g id="Node000049" class="node">
<title>Node49</title>
<g id="a_Node000049"><a xlink:href="../../de/d5d/math_2utils_8inl.html" target="_top" xlink:title="Inline implementations for General math utilities.">
<polygon fill="white" stroke="#666666" points="1662.5,-162 1581.5,-162 1581.5,-143 1662.5,-143 1662.5,-162"/>
<text text-anchor="middle" x="1622" y="-150" font-family="Helvetica,sans-Serif" font-size="10.00">math/utils.inl</text>
</a>
</g>
</g>
<!-- Node44&#45;&gt;Node49 -->
<g id="edge55_Node000044_Node000049" class="edge">
<title>Node44&#45;&gt;Node49</title>
<g id="a_edge55_Node000044_Node000049"><a xlink:title=" ">
<path fill="none" stroke="#63b8ff" d="M1667.92,-197.75C1659.91,-190.03 1648.04,-178.6 1638.38,-169.28"/>
<polygon fill="#63b8ff" stroke="#63b8ff" points="1640.54,-166.51 1630.91,-162.09 1635.69,-171.55 1640.54,-166.51"/>
</a>
</g>
</g>
<!-- Node50 -->
<g id="Node000050" class="node">
<title>Node50</title>
<g id="a_Node000050"><a xlink:href="../../dd/d53/vector2d_8inl.html" target="_top" xlink:title="Inline implementations for 2D floating&#45;point vector class.">
<polygon fill="white" stroke="#666666" points="1783.5,-162 1680.5,-162 1680.5,-143 1783.5,-143 1783.5,-162"/>
<text text-anchor="middle" x="1732" y="-150" font-family="Helvetica,sans-Serif" font-size="10.00">math/vector2d.inl</text>
</a>
</g>
</g>
<!-- Node44&#45;&gt;Node50 -->
<g id="edge56_Node000044_Node000050" class="edge">
<title>Node44&#45;&gt;Node50</title>
<g id="a_edge56_Node000044_Node000050"><a xlink:title=" ">
<path fill="none" stroke="#63b8ff" d="M1686.08,-197.75C1694.09,-190.03 1705.96,-178.6 1715.62,-169.28"/>
<polygon fill="#63b8ff" stroke="#63b8ff" points="1718.31,-171.55 1723.09,-162.09 1713.46,-166.51 1718.31,-171.55"/>
</a>
</g>
</g>
</g>
</svg>
