<?xml version="1.0" encoding="UTF-8" standalone="no"?>
<!DOCTYPE svg PUBLIC "-//W3C//DTD SVG 1.1//EN"
 "http://www.w3.org/Graphics/SVG/1.1/DTD/svg11.dtd">
<!-- Generated by graphviz version 2.43.0 (0)
 -->
<!-- Title: include/application/core_application.inl Pages: 1 -->
<!--zoomable 225 -->

<svg id="main" version="1.1" xmlns="http://www.w3.org/2000/svg" xmlns:xlink="http://www.w3.org/1999/xlink" xml:space="preserve" onload="init(evt)">

<style type="text/css"><![CDATA[
.node, .edge {opacity: 0.7;}
.node.selected, .edge.selected {opacity: 1;}
.edge:hover path { stroke: red; }
.edge:hover polygon { stroke: red; fill: red; }
]]></style>

<defs>
  <circle id="rim" cx="0" cy="0" r="7"/>
  <circle id="rim2" cx="0" cy="0" r="3.5"/>
  <g id="zoomPlus">
    <use xlink:href="#rim" fill="#404040"><set attributeName="fill" to="#808080" begin="zoomplus.mouseover" end="zoomplus.mouseout"/></use>
    <path d="M-4,0h8M0,-4v8" fill="none" stroke="white" stroke-width="1.5" pointer-events="none"/>
  </g>
  <g id="zoomMin">
    <use xlink:href="#rim" fill="#404040"><set attributeName="fill" to="#808080" begin="zoomminus.mouseover" end="zoomminus.mouseout"/></use>
    <path d="M-4,0h8" fill="none" stroke="white" stroke-width="1.5" pointer-events="none"/>
  </g>
  <g id="arrowUp" transform="translate(30 24)">
    <use xlink:href="#rim"/>
    <path pointer-events="none" fill="none" stroke="white" stroke-width="1.5" d="M0,-3.0v7 M-2.5,-0.5L0,-3.0L2.5,-0.5"/>
  </g>
  <g id="arrowRight" transform="rotate(90) translate(36 -43)">
    <use xlink:href="#rim"/>
    <path pointer-events="none" fill="none" stroke="white" stroke-width="1.5" d="M0,-3.0v7 M-2.5,-0.5L0,-3.0L2.5,-0.5"/>
  </g>
  <g id="arrowDown" transform="rotate(180) translate(-30 -48)">
    <use xlink:href="#rim"/>
    <path pointer-events="none" fill="none" stroke="white" stroke-width="1.5" d="M0,-3.0v7 M-2.5,-0.5L0,-3.0L2.5,-0.5"/>
  </g>
  <g id="arrowLeft" transform="rotate(270) translate(-36 17)">
    <use xlink:href="#rim"/>
    <path pointer-events="none" fill="none" stroke="white" stroke-width="1.5" d="M0,-3.0v7 M-2.5,-0.5L0,-3.0L2.5,-0.5"/>
  </g>
  <g id="resetDef">
    <use xlink:href="#rim2" fill="#404040"><set attributeName="fill" to="#808080" begin="reset.mouseover" end="reset.mouseout"/></use>
  </g>
</defs>
<script type="application/ecmascript">
var viewWidth = 1445;
var viewHeight = 225;
var sectionId = 'dynsection-0';
</script>
<script type="application/ecmascript" xlink:href="../../svg.min.js"/>
<svg id="graph" class="graph">
<g id="viewport">
<title>include/application/core_application.inl</title>
<!-- Node1 -->
<g id="Node000001" class="node">
<title>Node1</title>
<g id="a_Node000001"><a xlink:title="Inline implementations for toy::application::CoreApplication accessors.">
<polygon fill="#999999" stroke="#666666" points="728,-217 613,-217 613,-187 728,-187 728,-217"/>
<text text-anchor="start" x="621" y="-205" font-family="Helvetica,sans-Serif" font-size="10.00">include/application</text>
<text text-anchor="middle" x="670.5" y="-194" font-family="Helvetica,sans-Serif" font-size="10.00">/core_application.inl</text>
</a>
</g>
</g>
<!-- Node2 -->
<g id="Node000002" class="node">
<title>Node2</title>
<g id="a_Node000002"><a xlink:href="../../d4/d01/application_8hpp.html" target="_top" xlink:title="Umbrella header for the application module.">
<polygon fill="white" stroke="#666666" points="735.5,-151 605.5,-151 605.5,-132 735.5,-132 735.5,-151"/>
<text text-anchor="middle" x="670.5" y="-139" font-family="Helvetica,sans-Serif" font-size="10.00">include/application.hpp</text>
</a>
</g>
</g>
<!-- Node1&#45;&gt;Node2 -->
<g id="edge1_Node000001_Node000002" class="edge">
<title>Node1&#45;&gt;Node2</title>
<g id="a_edge1_Node000001_Node000002"><a xlink:title=" ">
<path fill="none" stroke="#63b8ff" d="M670.5,-176.75C670.5,-167.72 670.5,-158.03 670.5,-151.27"/>
<polygon fill="#63b8ff" stroke="#63b8ff" points="667,-176.84 670.5,-186.84 674,-176.84 667,-176.84"/>
</a>
</g>
</g>
<!-- Node3 -->
<g id="Node000003" class="node">
<title>Node3</title>
<g id="a_Node000003"><a xlink:href="../../d8/d8c/toygine2_8hpp.html" target="_top" xlink:title="Main umbrella header for the engine.">
<polygon fill="white" stroke="#666666" points="119,-85 0,-85 0,-66 119,-66 119,-85"/>
<text text-anchor="middle" x="59.5" y="-73" font-family="Helvetica,sans-Serif" font-size="10.00">include/toygine2.hpp</text>
</a>
</g>
</g>
<!-- Node2&#45;&gt;Node3 -->
<g id="edge2_Node000002_Node000003" class="edge">
<title>Node2&#45;&gt;Node3</title>
<g id="a_edge2_Node000002_Node000003"><a xlink:title=" ">
<path fill="none" stroke="#63b8ff" d="M595.11,-138.91C489.86,-135.64 293.27,-125.76 128.5,-96 113.92,-93.37 97.99,-88.97 85.11,-85.01"/>
<polygon fill="#63b8ff" stroke="#63b8ff" points="595.21,-142.41 605.31,-139.21 595.42,-135.41 595.21,-142.41"/>
</a>
</g>
</g>
<!-- Node5 -->
<g id="Node000005" class="node">
<title>Node5</title>
<g id="a_Node000005"><a xlink:href="../../d0/dbb/core__application_8cpp.html" target="_top" xlink:title="Implementations for toy::application::CoreApplication.">
<polygon fill="white" stroke="#666666" points="249.5,-90.5 137.5,-90.5 137.5,-60.5 249.5,-60.5 249.5,-90.5"/>
<text text-anchor="start" x="145.5" y="-78.5" font-family="Helvetica,sans-Serif" font-size="10.00">src/application/core</text>
<text text-anchor="middle" x="193.5" y="-67.5" font-family="Helvetica,sans-Serif" font-size="10.00">_application.cpp</text>
</a>
</g>
</g>
<!-- Node2&#45;&gt;Node5 -->
<g id="edge4_Node000002_Node000005" class="edge">
<title>Node2&#45;&gt;Node5</title>
<g id="a_edge4_Node000002_Node000005"><a xlink:title=" ">
<path fill="none" stroke="#63b8ff" d="M595.09,-136.4C512.18,-130.96 375.36,-119.19 259.5,-96 252.12,-94.52 244.37,-92.59 236.89,-90.52"/>
<polygon fill="#63b8ff" stroke="#63b8ff" points="594.97,-139.9 605.17,-137.05 595.42,-132.92 594.97,-139.9"/>
</a>
</g>
</g>
<!-- Node6 -->
<g id="Node000006" class="node">
<title>Node6</title>
<g id="a_Node000006"><a xlink:href="../../db/db6/console__application_8cpp.html" target="_top" xlink:title="Implementations for toy::application::ConsoleApplication.">
<polygon fill="white" stroke="#666666" points="395,-96 268,-96 268,-55 395,-55 395,-96"/>
<text text-anchor="start" x="276" y="-84" font-family="Helvetica,sans-Serif" font-size="10.00">src/platforms/common</text>
<text text-anchor="start" x="276" y="-73" font-family="Helvetica,sans-Serif" font-size="10.00">/application/console</text>
<text text-anchor="middle" x="331.5" y="-62" font-family="Helvetica,sans-Serif" font-size="10.00">_application.cpp</text>
</a>
</g>
</g>
<!-- Node2&#45;&gt;Node6 -->
<g id="edge5_Node000002_Node000006" class="edge">
<title>Node2&#45;&gt;Node6</title>
<g id="a_edge5_Node000002_Node000006"><a xlink:title=" ">
<path fill="none" stroke="#63b8ff" d="M599.32,-130.48C545.55,-122.45 470.06,-110.21 404.5,-96 401.42,-95.33 398.28,-94.62 395.11,-93.88"/>
<polygon fill="#63b8ff" stroke="#63b8ff" points="599.03,-133.97 609.44,-131.98 600.06,-127.05 599.03,-133.97"/>
</a>
</g>
</g>
<!-- Node7 -->
<g id="Node000007" class="node">
<title>Node7</title>
<g id="a_Node000007"><a xlink:href="../../da/d50/console__application__gba_8cpp.html" target="_top" xlink:title="GBA implementations of toy::application::ConsoleApplication.">
<polygon fill="white" stroke="#666666" points="573.5,-90.5 413.5,-90.5 413.5,-60.5 573.5,-60.5 573.5,-90.5"/>
<text text-anchor="start" x="421.5" y="-78.5" font-family="Helvetica,sans-Serif" font-size="10.00">src/platforms/gba/application</text>
<text text-anchor="middle" x="493.5" y="-67.5" font-family="Helvetica,sans-Serif" font-size="10.00">/console_application_gba.cpp</text>
</a>
</g>
</g>
<!-- Node2&#45;&gt;Node7 -->
<g id="edge6_Node000002_Node000007" class="edge">
<title>Node2&#45;&gt;Node7</title>
<g id="a_edge6_Node000002_Node000007"><a xlink:title=" ">
<path fill="none" stroke="#63b8ff" d="M637.11,-128.43C607.38,-117.68 563.87,-101.94 532.54,-90.62"/>
<polygon fill="#63b8ff" stroke="#63b8ff" points="636.03,-131.76 646.63,-131.87 638.42,-125.18 636.03,-131.76"/>
</a>
</g>
</g>
<!-- Node8 -->
<g id="Node000008" class="node">
<title>Node8</title>
<g id="a_Node000008"><a xlink:href="../../d0/d8a/core__application__linux_8cpp.html" target="_top" xlink:title="Linux implementations of toy::application::CoreApplication via POSIX APIs.">
<polygon fill="white" stroke="#666666" points="749,-96 592,-96 592,-55 749,-55 749,-96"/>
<text text-anchor="start" x="600" y="-84" font-family="Helvetica,sans-Serif" font-size="10.00">src/platforms/linux</text>
<text text-anchor="start" x="600" y="-73" font-family="Helvetica,sans-Serif" font-size="10.00">/application/core_application</text>
<text text-anchor="middle" x="670.5" y="-62" font-family="Helvetica,sans-Serif" font-size="10.00">_linux.cpp</text>
</a>
</g>
</g>
<!-- Node2&#45;&gt;Node8 -->
<g id="edge7_Node000002_Node000008" class="edge">
<title>Node2&#45;&gt;Node8</title>
<g id="a_edge7_Node000002_Node000008"><a xlink:title=" ">
<path fill="none" stroke="#63b8ff" d="M670.5,-121.63C670.5,-113.56 670.5,-104.15 670.5,-96.01"/>
<polygon fill="#63b8ff" stroke="#63b8ff" points="667,-121.87 670.5,-131.87 674,-121.87 667,-121.87"/>
</a>
</g>
</g>
<!-- Node9 -->
<g id="Node000009" class="node">
<title>Node9</title>
<g id="a_Node000009"><a xlink:href="../../d8/d89/core__application__macos_8cpp.html" target="_top" xlink:title="macOS implementations of toy::application::CoreApplication via POSIX APIs.">
<polygon fill="white" stroke="#666666" points="924,-96 767,-96 767,-55 924,-55 924,-96"/>
<text text-anchor="start" x="775" y="-84" font-family="Helvetica,sans-Serif" font-size="10.00">src/platforms/macos</text>
<text text-anchor="start" x="775" y="-73" font-family="Helvetica,sans-Serif" font-size="10.00">/application/core_application</text>
<text text-anchor="middle" x="845.5" y="-62" font-family="Helvetica,sans-Serif" font-size="10.00">_macos.cpp</text>
</a>
</g>
</g>
<!-- Node2&#45;&gt;Node9 -->
<g id="edge8_Node000002_Node000009" class="edge">
<title>Node2&#45;&gt;Node9</title>
<g id="a_edge8_Node000002_Node000009"><a xlink:title=" ">
<path fill="none" stroke="#63b8ff" d="M703.82,-128.32C728.76,-119.19 763.38,-106.53 792.15,-96.01"/>
<polygon fill="#63b8ff" stroke="#63b8ff" points="702.29,-125.15 694.1,-131.87 704.7,-131.72 702.29,-125.15"/>
</a>
</g>
</g>
<!-- Node10 -->
<g id="Node000010" class="node">
<title>Node10</title>
<g id="a_Node000010"><a xlink:href="../../db/da8/core__application__stub_8cpp.html" target="_top" xlink:title="Stub implementation of toy::application::CoreApplication::sleep() for platforms without OS sleep supp...">
<polygon fill="white" stroke="#666666" points="1099,-96 942,-96 942,-55 1099,-55 1099,-96"/>
<text text-anchor="start" x="950" y="-84" font-family="Helvetica,sans-Serif" font-size="10.00">src/platforms/stub</text>
<text text-anchor="start" x="950" y="-73" font-family="Helvetica,sans-Serif" font-size="10.00">/application/core_application</text>
<text text-anchor="middle" x="1020.5" y="-62" font-family="Helvetica,sans-Serif" font-size="10.00">_stub.cpp</text>
</a>
</g>
</g>
<!-- Node2&#45;&gt;Node10 -->
<g id="edge9_Node000002_Node000010" class="edge">
<title>Node2&#45;&gt;Node10</title>
<g id="a_edge9_Node000002_Node000010"><a xlink:title=" ">
<path fill="none" stroke="#63b8ff" d="M736.07,-130.39C789.38,-121.94 866.48,-109.17 933.5,-96 936.23,-95.46 939.01,-94.9 941.82,-94.33"/>
<polygon fill="#63b8ff" stroke="#63b8ff" points="735.4,-126.95 726.07,-131.97 736.49,-133.87 735.4,-126.95"/>
</a>
</g>
</g>
<!-- Node11 -->
<g id="Node000011" class="node">
<title>Node11</title>
<g id="a_Node000011"><a xlink:href="../../df/dd0/console__application__windows_8cpp.html" target="_top" xlink:title="Windows console entry&#45;point argument conversion from UTF&#45;16 to UTF&#45;8.">
<polygon fill="white" stroke="#666666" points="1261.5,-96 1117.5,-96 1117.5,-55 1261.5,-55 1261.5,-96"/>
<text text-anchor="start" x="1125.5" y="-84" font-family="Helvetica,sans-Serif" font-size="10.00">src/platforms/windows</text>
<text text-anchor="start" x="1125.5" y="-73" font-family="Helvetica,sans-Serif" font-size="10.00">/application/console</text>
<text text-anchor="middle" x="1189.5" y="-62" font-family="Helvetica,sans-Serif" font-size="10.00">_application_windows.cpp</text>
</a>
</g>
</g>
<!-- Node2&#45;&gt;Node11 -->
<g id="edge10_Node000002_Node000011" class="edge">
<title>Node2&#45;&gt;Node11</title>
<g id="a_edge10_Node000002_Node000011"><a xlink:title=" ">
<path fill="none" stroke="#63b8ff" d="M745.92,-135.94C833.53,-129.93 982.21,-117.52 1108.5,-96 1111.35,-95.51 1114.25,-94.99 1117.18,-94.42"/>
<polygon fill="#63b8ff" stroke="#63b8ff" points="745.54,-132.46 735.8,-136.63 746.02,-139.44 745.54,-132.46"/>
</a>
</g>
</g>
<!-- Node12 -->
<g id="Node000012" class="node">
<title>Node12</title>
<g id="a_Node000012"><a xlink:href="../../dc/d2d/core__application__windows_8cpp.html" target="_top" xlink:title="Windows implementations of toy::application::CoreApplication via Win32 APIs.">
<polygon fill="white" stroke="#666666" points="1437,-96 1280,-96 1280,-55 1437,-55 1437,-96"/>
<text text-anchor="start" x="1288" y="-84" font-family="Helvetica,sans-Serif" font-size="10.00">src/platforms/windows</text>
<text text-anchor="start" x="1288" y="-73" font-family="Helvetica,sans-Serif" font-size="10.00">/application/core_application</text>
<text text-anchor="middle" x="1358.5" y="-62" font-family="Helvetica,sans-Serif" font-size="10.00">_windows.cpp</text>
</a>
</g>
</g>
<!-- Node2&#45;&gt;Node12 -->
<g id="edge11_Node000002_Node000012" class="edge">
<title>Node2&#45;&gt;Node12</title>
<g id="a_edge11_Node000002_Node000012"><a xlink:title=" ">
<path fill="none" stroke="#63b8ff" d="M745.67,-138.4C859.68,-134.43 1082.91,-123.59 1270.5,-96 1273.6,-95.54 1276.75,-95.04 1279.92,-94.5"/>
<polygon fill="#63b8ff" stroke="#63b8ff" points="745.53,-134.9 735.65,-138.74 745.76,-141.9 745.53,-134.9"/>
</a>
</g>
</g>
<!-- Node4 -->
<g id="Node000004" class="node">
<title>Node4</title>
<g id="a_Node000004"><a xlink:href="../../df/d0a/main_8cpp.html" target="_top" xlink:title="Entry point of the Qt&#45;based ToyGine 2 editor.">
<polygon fill="white" stroke="#666666" points="114.5,-19 4.5,-19 4.5,0 114.5,0 114.5,-19"/>
<text text-anchor="middle" x="59.5" y="-7" font-family="Helvetica,sans-Serif" font-size="10.00">editor/src/main.cpp</text>
</a>
</g>
</g>
<!-- Node3&#45;&gt;Node4 -->
<g id="edge3_Node000003_Node000004" class="edge">
<title>Node3&#45;&gt;Node4</title>
<g id="a_edge3_Node000003_Node000004"><a xlink:title=" ">
<path fill="none" stroke="#63b8ff" d="M59.5,-55.58C59.5,-43.63 59.5,-28.72 59.5,-19.41"/>
<polygon fill="#63b8ff" stroke="#63b8ff" points="56,-55.87 59.5,-65.87 63,-55.87 56,-55.87"/>
</a>
</g>
</g>
</g>
</svg>

<g id="navigator" transform="translate(0 0)" fill="#404254">
  <rect fill="#f2f5e9" fill-opacity="0.5" stroke="#606060" stroke-width=".5" x="0" y="0" width="60" height="60"/>
  <use id="zoomplus" xlink:href="#zoomPlus" x="17" y="9" onmousedown="handleZoom(evt,'in')"/>
  <use id="zoomminus" xlink:href="#zoomMin" x="42" y="9" onmousedown="handleZoom(evt,'out')"/>
  <use id="reset" xlink:href="#resetDef" x="30" y="36" onmousedown="handleReset()"/>
   <use id="arrowup" xlink:href="#arrowUp" x="0" y="0" onmousedown="handlePan(0,-1)"/>
  <use id="arrowright" xlink:href="#arrowRight" x="0" y="0" onmousedown="handlePan(1,0)"/>
  <use id="arrowdown" xlink:href="#arrowDown" x="0" y="0" onmousedown="handlePan(0,1)"/>
  <use id="arrowleft" xlink:href="#arrowLeft" x="0" y="0" onmousedown="handlePan(-1,0)"/>
</g>
<svg viewBox="0 0 15 15" width="100%" height="30px" preserveAspectRatio="xMaxYMin meet">
 <g id="arrow_out" transform="scale(0.3 0.3)">
  <a xlink:href="core__application_8inl__dep__incl_org.svg" target="_base">
   <rect id="button" ry="5" rx="5" y="6" x="6" height="38" width="38"
        fill="#f2f5e9" fill-opacity="0.5" stroke="#606060" stroke-width="1.0"/>
   <path id="arrow"
     d="M 11.500037,31.436501 C 11.940474,20.09759 22.043105,11.32322 32.158766,21.979434 L 37.068811,17.246167 C 37.068811,17.246167 37.088388,32 37.088388,32 L 22.160133,31.978069 C 22.160133,31.978069 26.997745,27.140456 26.997745,27.140456 C 18.528582,18.264221 13.291696,25.230495 11.500037,31.436501 z"
     style="fill:#404040;"/>
  </a>
 </g>
</svg>

<style type='text/css'>
<![CDATA[
[data-mouse-over-selected='false'] { opacity: 0.7; }
[data-mouse-over-selected='true']  { opacity: 1.0; }
]]>
</style>
<script type="application/ecmascript"><![CDATA[
document.addEventListener('DOMContentLoaded', (event) => {
  highlightEdges();
  highlightAdjacentNodes();
});
]]></script>
</svg>
