<?xml version="1.0" encoding="UTF-8" standalone="no"?>
<!DOCTYPE svg PUBLIC "-//W3C//DTD SVG 1.1//EN"
 "http://www.w3.org/Graphics/SVG/1.1/DTD/svg11.dtd">
<!-- Generated by graphviz version 2.43.0 (0)
 -->
<!-- Title: toy::application::ConsoleApplication Pages: 1 -->
<svg width="183pt" height="238pt"
 viewBox="0.00 0.00 183.00 238.00" xmlns="http://www.w3.org/2000/svg" xmlns:xlink="http://www.w3.org/1999/xlink">
<g id="page0,1_graph0" class="graph" transform="scale(1 1) rotate(0) translate(4 234)">
<title>toy::application::ConsoleApplication</title>
<!-- Node1 -->
<g id="Node000001" class="node">
<title>Node1</title>
<g id="a_Node000001"><a xlink:title="Abstract base for console&#45;mode application lifecycle.">
<polygon fill="#999999" stroke="#666666" points="156,-30 19,-30 19,0 156,0 156,-30"/>
<text text-anchor="start" x="27" y="-18" font-family="Helvetica,sans-Serif" font-size="10.00">toy::application::Console</text>
<text text-anchor="middle" x="87.5" y="-7" font-family="Helvetica,sans-Serif" font-size="10.00">Application</text>
</a>
</g>
</g>
<!-- Node2 -->
<g id="Node000002" class="node">
<title>Node2</title>
<g id="a_Node000002"><a xlink:href="../../d7/d1d/classtoy_1_1application_1_1_core_application.html" target="_top" xlink:title="Abstract base for platform application lifecycle management.">
<polygon fill="white" stroke="#666666" points="175,-86 0,-86 0,-67 175,-67 175,-86"/>
<text text-anchor="middle" x="87.5" y="-74" font-family="Helvetica,sans-Serif" font-size="10.00">toy::application::CoreApplication</text>
</a>
</g>
</g>
<!-- Node2&#45;&gt;Node1 -->
<g id="edge1_Node000001_Node000002" class="edge">
<title>Node2&#45;&gt;Node1</title>
<g id="a_edge1_Node000001_Node000002"><a xlink:title=" ">
<path fill="none" stroke="#63b8ff" d="M87.5,-56.73C87.5,-48.09 87.5,-38 87.5,-30.02"/>
<polygon fill="#63b8ff" stroke="#63b8ff" points="84,-56.98 87.5,-66.98 91,-56.98 84,-56.98"/>
</a>
</g>
</g>
<!-- Node3 -->
<g id="Node000003" class="node">
<title>Node3</title>
<g id="a_Node000003"><a xlink:href="../../d7/d33/structtoy_1_1application_1_1_version.html" target="_top" xlink:title="Application version information structure.">
<polygon fill="white" stroke="#666666" points="154.5,-158 20.5,-158 20.5,-139 154.5,-139 154.5,-158"/>
<text text-anchor="middle" x="87.5" y="-146" font-family="Helvetica,sans-Serif" font-size="10.00">toy::application::Version</text>
</a>
</g>
</g>
<!-- Node3&#45;&gt;Node2 -->
<g id="edge2_Node000002_Node000003" class="edge">
<title>Node3&#45;&gt;Node2</title>
<g id="a_edge2_Node000002_Node000003"><a xlink:title=" ">
<path fill="none" stroke="#9a32cd" stroke-dasharray="5,2" d="M87.5,-128.58C87.5,-114.76 87.5,-96.68 87.5,-86.15"/>
<polygon fill="#9a32cd" stroke="#9a32cd" points="84,-128.92 87.5,-138.92 91,-128.92 84,-128.92"/>
</a>
</g>
<text text-anchor="start" x="90.5" y="-109.5" font-family="Helvetica,sans-Serif" font-size="10.00" fill="grey">_version</text>
</g>
<!-- Node4 -->
<g id="Node000004" class="node">
<title>Node4</title>
<g id="a_Node000004"><a xlink:href="../../d5/d03/classtoy_1_1_c_string_view.html" target="_top" xlink:title="Non&#45;owning string view class for C&#45;style strings.">
<polygon fill="white" stroke="#666666" points="136,-230 39,-230 39,-211 136,-211 136,-230"/>
<text text-anchor="middle" x="87.5" y="-218" font-family="Helvetica,sans-Serif" font-size="10.00">toy::CStringView</text>
</a>
</g>
</g>
<!-- Node4&#45;&gt;Node3 -->
<g id="edge3_Node000003_Node000004" class="edge">
<title>Node4&#45;&gt;Node3</title>
<g id="a_edge3_Node000003_Node000004"><a xlink:title=" ">
<path fill="none" stroke="#9a32cd" stroke-dasharray="5,2" d="M87.5,-200.58C87.5,-186.76 87.5,-168.68 87.5,-158.15"/>
<polygon fill="#9a32cd" stroke="#9a32cd" points="84,-200.92 87.5,-210.92 91,-200.92 84,-200.92"/>
</a>
</g>
<text text-anchor="start" x="90.5" y="-181.5" font-family="Helvetica,sans-Serif" font-size="10.00" fill="grey">revision</text>
</g>
</g>
</svg>
