<?xml version="1.0" encoding="UTF-8" standalone="no"?>
<!DOCTYPE svg PUBLIC "-//W3C//DTD SVG 1.1//EN"
 "http://www.w3.org/Graphics/SVG/1.1/DTD/svg11.dtd">
<!-- Generated by graphviz version 2.43.0 (0)
 -->
<!-- Title: toy::application::ConsoleApplication Pages: 1 -->
<svg width="416pt" height="238pt"
 viewBox="0.00 0.00 416.00 238.00" xmlns="http://www.w3.org/2000/svg" xmlns:xlink="http://www.w3.org/1999/xlink">
<g id="graph0" class="graph" transform="scale(1 1) rotate(0) translate(4 234)">
<title>toy::application::ConsoleApplication</title>
<!-- Node1 -->
<g id="Node000001" class="node">
<title>Node1</title>
<g id="a_Node000001"><a xlink:title="Abstract base for console&#45;mode application lifecycle.">
<polygon fill="#999999" stroke="#666666" points="289.5,-30 152.5,-30 152.5,0 289.5,0 289.5,-30"/>
<text text-anchor="start" x="160.5" y="-18" font-family="Helvetica,sans-Serif" font-size="10.00">toy::application::Console</text>
<text text-anchor="middle" x="221" y="-7" font-family="Helvetica,sans-Serif" font-size="10.00">Application</text>
</a>
</g>
</g>
<!-- Node2 -->
<g id="Node000002" class="node">
<title>Node2</title>
<g id="a_Node000002"><a xlink:href="../../d7/d1d/classtoy_1_1application_1_1_core_application.html" target="_top" xlink:title="Abstract base for platform application lifecycle management.">
<polygon fill="white" stroke="#666666" points="308.5,-86 133.5,-86 133.5,-67 308.5,-67 308.5,-86"/>
<text text-anchor="middle" x="221" y="-74" font-family="Helvetica,sans-Serif" font-size="10.00">toy::application::CoreApplication</text>
</a>
</g>
</g>
<!-- Node2&#45;&gt;Node1 -->
<g id="edge1_Node000001_Node000002" class="edge">
<title>Node2&#45;&gt;Node1</title>
<g id="a_edge1_Node000001_Node000002"><a xlink:title=" ">
<path fill="none" stroke="#63b8ff" d="M221,-56.73C221,-48.09 221,-38 221,-30.02"/>
<polygon fill="#63b8ff" stroke="#63b8ff" points="217.5,-56.98 221,-66.98 224.5,-56.98 217.5,-56.98"/>
</a>
</g>
</g>
<!-- Node3 -->
<g id="Node000003" class="node">
<title>Node3</title>
<g id="a_Node000003"><a xlink:href="../../d7/d33/structtoy_1_1application_1_1_version.html" target="_top" xlink:title="Application version information structure.">
<polygon fill="white" stroke="#666666" points="134,-158 0,-158 0,-139 134,-139 134,-158"/>
<text text-anchor="middle" x="67" y="-146" font-family="Helvetica,sans-Serif" font-size="10.00">toy::application::Version</text>
</a>
</g>
</g>
<!-- Node3&#45;&gt;Node2 -->
<g id="edge2_Node000002_Node000003" class="edge">
<title>Node3&#45;&gt;Node2</title>
<g id="a_edge2_Node000002_Node000003"><a xlink:title=" ">
<path fill="none" stroke="#9a32cd" stroke-dasharray="5,2" d="M95.27,-134.65C126.29,-120.55 175.21,-98.32 201.96,-86.15"/>
<polygon fill="#9a32cd" stroke="#9a32cd" points="93.54,-131.59 85.88,-138.92 96.44,-137.96 93.54,-131.59"/>
</a>
</g>
<text text-anchor="start" x="166" y="-109.5" font-family="Helvetica,sans-Serif" font-size="10.00" fill="grey">_version</text>
</g>
<!-- Node4 -->
<g id="Node000004" class="node">
<title>Node4</title>
<g id="a_Node000004"><a xlink:href="../../d5/d03/classtoy_1_1_c_string_view.html" target="_top" xlink:title="Non&#45;owning string view class for C&#45;style strings.">
<polygon fill="white" stroke="#666666" points="115.5,-230 18.5,-230 18.5,-211 115.5,-211 115.5,-230"/>
<text text-anchor="middle" x="67" y="-218" font-family="Helvetica,sans-Serif" font-size="10.00">toy::CStringView</text>
</a>
</g>
</g>
<!-- Node4&#45;&gt;Node3 -->
<g id="edge3_Node000003_Node000004" class="edge">
<title>Node4&#45;&gt;Node3</title>
<g id="a_edge3_Node000003_Node000004"><a xlink:title=" ">
<path fill="none" stroke="#9a32cd" stroke-dasharray="5,2" d="M67,-200.58C67,-186.76 67,-168.68 67,-158.15"/>
<polygon fill="#9a32cd" stroke="#9a32cd" points="63.5,-200.92 67,-210.92 70.5,-200.92 63.5,-200.92"/>
</a>
</g>
<text text-anchor="start" x="70" y="-181.5" font-family="Helvetica,sans-Serif" font-size="10.00" fill="grey">revision</text>
</g>
<!-- Node5 -->
<g id="Node000005" class="node">
<title>Node5</title>
<g id="a_Node000005"><a xlink:href="../../d9/d63/classtoy_1_1chrono_1_1_clock_source.html" target="_top" xlink:title="RAII owner of the platform hardware time source.">
<polygon fill="white" stroke="#666666" points="289.5,-158 152.5,-158 152.5,-139 289.5,-139 289.5,-158"/>
<text text-anchor="middle" x="221" y="-146" font-family="Helvetica,sans-Serif" font-size="10.00">toy::chrono::ClockSource</text>
</a>
</g>
</g>
<!-- Node5&#45;&gt;Node2 -->
<g id="edge4_Node000002_Node000005" class="edge">
<title>Node5&#45;&gt;Node2</title>
<g id="a_edge4_Node000002_Node000005"><a xlink:title=" ">
<path fill="none" stroke="#9a32cd" stroke-dasharray="5,2" d="M221,-128.58C221,-114.76 221,-96.68 221,-86.15"/>
<polygon fill="#9a32cd" stroke="#9a32cd" points="217.5,-128.92 221,-138.92 224.5,-128.92 217.5,-128.92"/>
</a>
</g>
<text text-anchor="start" x="224" y="-109.5" font-family="Helvetica,sans-Serif" font-size="10.00" fill="grey">_clockSource</text>
</g>
<!-- Node6 -->
<g id="Node000006" class="node">
<title>Node6</title>
<g id="a_Node000006"><a xlink:href="../../d7/dfa/classtoy_1_1log_1_1_backend.html" target="_top" xlink:title="Process&#45;wide singleton transport for log records.">
<polygon fill="white" stroke="#666666" points="408,-158 308,-158 308,-139 408,-139 408,-158"/>
<text text-anchor="middle" x="358" y="-146" font-family="Helvetica,sans-Serif" font-size="10.00">toy::log::Backend</text>
</a>
</g>
</g>
<!-- Node6&#45;&gt;Node2 -->
<g id="edge5_Node000002_Node000006" class="edge">
<title>Node6&#45;&gt;Node2</title>
<g id="a_edge5_Node000002_Node000006"><a xlink:title=" ">
<path fill="none" stroke="#9a32cd" stroke-dasharray="5,2" d="M339.39,-132.73C327.26,-123.6 310.8,-112.11 295,-104 280.79,-96.71 264.12,-90.55 250.19,-86.01"/>
<polygon fill="#9a32cd" stroke="#9a32cd" points="337.33,-135.56 347.39,-138.89 341.6,-130.01 337.33,-135.56"/>
</a>
</g>
<text text-anchor="start" x="325" y="-109.5" font-family="Helvetica,sans-Serif" font-size="10.00" fill="grey">_logBackend</text>
</g>
<!-- Node7 -->
<g id="Node000007" class="node">
<title>Node7</title>
<g id="a_Node000007"><a xlink:href="../../d4/dc4/classtoy_1_1log_1_1_i_sink.html" target="_top" xlink:title="Abstract output destination for log records.">
<polygon fill="white" stroke="#666666" points="399.5,-230 316.5,-230 316.5,-211 399.5,-211 399.5,-230"/>
<text text-anchor="middle" x="358" y="-218" font-family="Helvetica,sans-Serif" font-size="10.00">toy::log::ISink</text>
</a>
</g>
</g>
<!-- Node7&#45;&gt;Node6 -->
<g id="edge6_Node000006_Node000007" class="edge">
<title>Node7&#45;&gt;Node6</title>
<g id="a_edge6_Node000006_Node000007"><a xlink:title=" ">
<path fill="none" stroke="#9a32cd" stroke-dasharray="5,2" d="M358,-200.58C358,-186.76 358,-168.68 358,-158.15"/>
<polygon fill="#9a32cd" stroke="#9a32cd" points="354.5,-200.92 358,-210.92 361.5,-200.92 354.5,-200.92"/>
</a>
</g>
<text text-anchor="start" x="361" y="-181.5" font-family="Helvetica,sans-Serif" font-size="10.00" fill="grey">_sink</text>
</g>
</g>
</svg>
