<?xml version="1.0" encoding="UTF-8" standalone="no"?>
<!DOCTYPE svg PUBLIC "-//W3C//DTD SVG 1.1//EN"
 "http://www.w3.org/Graphics/SVG/1.1/DTD/svg11.dtd">
<!-- Generated by graphviz version 2.43.0 (0)
 -->
<!-- Title: include/core.hpp Pages: 1 -->
<svg width="1915pt" height="104pt"
 viewBox="0.00 0.00 1914.50 104.00" xmlns="http://www.w3.org/2000/svg" xmlns:xlink="http://www.w3.org/1999/xlink">
<g id="graph0" class="graph" transform="scale(1 1) rotate(0) translate(4 100)">
<title>include/core.hpp</title>
<!-- Node1 -->
<g id="Node000001" class="node">
<title>Node1</title>
<g id="a_Node000001"><a xlink:title=" ">
<polygon fill="#999999" stroke="#666666" points="707.5,-96 610.5,-96 610.5,-77 707.5,-77 707.5,-96"/>
<text text-anchor="middle" x="659" y="-84" font-family="Helvetica,sans-Serif" font-size="10.00">include/core.hpp</text>
</a>
</g>
</g>
<!-- Node2 -->
<g id="Node000002" class="node">
<title>Node2</title>
<g id="a_Node000002"><a xlink:title=" ">
<polygon fill="#e0e0e0" stroke="#999999" points="64,-30 0,-30 0,-11 64,-11 64,-30"/>
<text text-anchor="middle" x="32" y="-18" font-family="Helvetica,sans-Serif" font-size="10.00">algorithm</text>
</a>
</g>
</g>
<!-- Node1&#45;&gt;Node2 -->
<g id="edge1_Node000001_Node000002" class="edge">
<title>Node1&#45;&gt;Node2</title>
<g id="a_edge1_Node000001_Node000002"><a xlink:title=" ">
<path fill="none" stroke="#63b8ff" d="M610.08,-84.09C488.27,-80.21 173.95,-67.84 73,-41 67.29,-39.48 61.4,-37.18 55.94,-34.68"/>
<polygon fill="#63b8ff" stroke="#63b8ff" points="57.2,-31.4 46.68,-30.11 54.09,-37.67 57.2,-31.4"/>
</a>
</g>
</g>
<!-- Node3 -->
<g id="Node000003" class="node">
<title>Node3</title>
<g id="a_Node000003"><a xlink:title=" ">
<polygon fill="#e0e0e0" stroke="#999999" points="124,-30 82,-30 82,-11 124,-11 124,-30"/>
<text text-anchor="middle" x="103" y="-18" font-family="Helvetica,sans-Serif" font-size="10.00">array</text>
</a>
</g>
</g>
<!-- Node1&#45;&gt;Node3 -->
<g id="edge2_Node000001_Node000003" class="edge">
<title>Node1&#45;&gt;Node3</title>
<g id="a_edge2_Node000001_Node000003"><a xlink:title=" ">
<path fill="none" stroke="#63b8ff" d="M610.35,-84.4C497.44,-81.37 220.56,-71.03 133,-41 129.25,-39.72 125.51,-37.86 122.01,-35.8"/>
<polygon fill="#63b8ff" stroke="#63b8ff" points="123.7,-32.73 113.43,-30.12 119.83,-38.56 123.7,-32.73"/>
</a>
</g>
</g>
<!-- Node4 -->
<g id="Node000004" class="node">
<title>Node4</title>
<g id="a_Node000004"><a xlink:title=" ">
<polygon fill="#e0e0e0" stroke="#999999" points="201.5,-30 142.5,-30 142.5,-11 201.5,-11 201.5,-30"/>
<text text-anchor="middle" x="172" y="-18" font-family="Helvetica,sans-Serif" font-size="10.00">compare</text>
</a>
</g>
</g>
<!-- Node1&#45;&gt;Node4 -->
<g id="edge3_Node000001_Node000004" class="edge">
<title>Node1&#45;&gt;Node4</title>
<g id="a_edge3_Node000001_Node000004"><a xlink:title=" ">
<path fill="none" stroke="#63b8ff" d="M610.18,-86.39C526.67,-86.65 351.79,-81.69 211,-41 205.68,-39.46 200.22,-37.21 195.13,-34.78"/>
<polygon fill="#63b8ff" stroke="#63b8ff" points="196.43,-31.51 185.94,-30.03 193.21,-37.73 196.43,-31.51"/>
</a>
</g>
</g>
<!-- Node5 -->
<g id="Node000005" class="node">
<title>Node5</title>
<g id="a_Node000005"><a xlink:title=" ">
<polygon fill="#e0e0e0" stroke="#999999" points="280,-30 220,-30 220,-11 280,-11 280,-30"/>
<text text-anchor="middle" x="250" y="-18" font-family="Helvetica,sans-Serif" font-size="10.00">concepts</text>
</a>
</g>
</g>
<!-- Node1&#45;&gt;Node5 -->
<g id="edge4_Node000001_Node000005" class="edge">
<title>Node1&#45;&gt;Node5</title>
<g id="a_edge4_Node000001_Node000005"><a xlink:title=" ">
<path fill="none" stroke="#63b8ff" d="M610.32,-84.93C538.53,-82.91 400.69,-74.53 289,-41 283.79,-39.43 278.42,-37.21 273.41,-34.82"/>
<polygon fill="#63b8ff" stroke="#63b8ff" points="274.82,-31.61 264.32,-30.15 271.62,-37.83 274.82,-31.61"/>
</a>
</g>
</g>
<!-- Node6 -->
<g id="Node000006" class="node">
<title>Node6</title>
<g id="a_Node000006"><a xlink:title=" ">
<polygon fill="#e0e0e0" stroke="#999999" points="351.5,-30 298.5,-30 298.5,-11 351.5,-11 351.5,-30"/>
<text text-anchor="middle" x="325" y="-18" font-family="Helvetica,sans-Serif" font-size="10.00">cstddef</text>
</a>
</g>
</g>
<!-- Node1&#45;&gt;Node6 -->
<g id="edge5_Node000001_Node000006" class="edge">
<title>Node1&#45;&gt;Node6</title>
<g id="a_edge5_Node000001_Node000006"><a xlink:title=" ">
<path fill="none" stroke="#63b8ff" d="M610.32,-83.41C550.3,-79.67 445.84,-69.34 361,-41 356.4,-39.46 351.7,-37.36 347.27,-35.1"/>
<polygon fill="#63b8ff" stroke="#63b8ff" points="348.61,-31.85 338.17,-30.07 345.23,-37.98 348.61,-31.85"/>
</a>
</g>
</g>
<!-- Node7 -->
<g id="Node000007" class="node">
<title>Node7</title>
<g id="a_Node000007"><a xlink:title=" ">
<polygon fill="#e0e0e0" stroke="#999999" points="420,-30 370,-30 370,-11 420,-11 420,-30"/>
<text text-anchor="middle" x="395" y="-18" font-family="Helvetica,sans-Serif" font-size="10.00">cstdint</text>
</a>
</g>
</g>
<!-- Node1&#45;&gt;Node7 -->
<g id="edge6_Node000001_Node000007" class="edge">
<title>Node1&#45;&gt;Node7</title>
<g id="a_edge6_Node000001_Node000007"><a xlink:title=" ">
<path fill="none" stroke="#63b8ff" d="M610.17,-80.77C562.73,-75.09 489.23,-63.39 429,-41 424.84,-39.45 420.59,-37.43 416.57,-35.27"/>
<polygon fill="#63b8ff" stroke="#63b8ff" points="418.15,-32.14 407.75,-30.15 414.64,-38.2 418.15,-32.14"/>
</a>
</g>
</g>
<!-- Node8 -->
<g id="Node000008" class="node">
<title>Node8</title>
<g id="a_Node000008"><a xlink:title=" ">
<polygon fill="#e0e0e0" stroke="#999999" points="488,-30 438,-30 438,-11 488,-11 488,-30"/>
<text text-anchor="middle" x="463" y="-18" font-family="Helvetica,sans-Serif" font-size="10.00">cstring</text>
</a>
</g>
</g>
<!-- Node1&#45;&gt;Node8 -->
<g id="edge7_Node000001_Node000008" class="edge">
<title>Node1&#45;&gt;Node8</title>
<g id="a_edge7_Node000001_Node000008"><a xlink:title=" ">
<path fill="none" stroke="#63b8ff" d="M616.75,-76.98C583.48,-69.54 536.31,-57.36 497,-41 492.97,-39.32 488.83,-37.26 484.88,-35.12"/>
<polygon fill="#63b8ff" stroke="#63b8ff" points="486.58,-32.06 476.17,-30.09 483.08,-38.12 486.58,-32.06"/>
</a>
</g>
</g>
<!-- Node9 -->
<g id="Node000009" class="node">
<title>Node9</title>
<g id="a_Node000009"><a xlink:title=" ">
<polygon fill="#e0e0e0" stroke="#999999" points="555.5,-30 506.5,-30 506.5,-11 555.5,-11 555.5,-30"/>
<text text-anchor="middle" x="531" y="-18" font-family="Helvetica,sans-Serif" font-size="10.00">cuchar</text>
</a>
</g>
</g>
<!-- Node1&#45;&gt;Node9 -->
<g id="edge8_Node000001_Node000009" class="edge">
<title>Node1&#45;&gt;Node9</title>
<g id="a_edge8_Node000001_Node000009"><a xlink:title=" ">
<path fill="none" stroke="#63b8ff" d="M639.7,-76.9C620.54,-68.24 590.45,-54.29 565,-41 561.54,-39.19 557.92,-37.22 554.39,-35.24"/>
<polygon fill="#63b8ff" stroke="#63b8ff" points="555.84,-32.03 545.42,-30.1 552.36,-38.11 555.84,-32.03"/>
</a>
</g>
</g>
<!-- Node10 -->
<g id="Node000010" class="node">
<title>Node10</title>
<g id="a_Node000010"><a xlink:title=" ">
<polygon fill="#e0e0e0" stroke="#999999" points="618,-30 574,-30 574,-11 618,-11 618,-30"/>
<text text-anchor="middle" x="596" y="-18" font-family="Helvetica,sans-Serif" font-size="10.00">string</text>
</a>
</g>
</g>
<!-- Node1&#45;&gt;Node10 -->
<g id="edge9_Node000001_Node000010" class="edge">
<title>Node1&#45;&gt;Node10</title>
<g id="a_edge9_Node000001_Node000010"><a xlink:title=" ">
<path fill="none" stroke="#63b8ff" d="M650.5,-76.87C640.7,-66.9 624.34,-50.29 612.11,-37.86"/>
<polygon fill="#63b8ff" stroke="#63b8ff" points="614.28,-35.08 604.77,-30.41 609.29,-39.99 614.28,-35.08"/>
</a>
</g>
</g>
<!-- Node11 -->
<g id="Node000011" class="node">
<title>Node11</title>
<g id="a_Node000011"><a xlink:title=" ">
<polygon fill="#e0e0e0" stroke="#999999" points="681.5,-30 636.5,-30 636.5,-11 681.5,-11 681.5,-30"/>
<text text-anchor="middle" x="659" y="-18" font-family="Helvetica,sans-Serif" font-size="10.00">utility</text>
</a>
</g>
</g>
<!-- Node1&#45;&gt;Node11 -->
<g id="edge10_Node000001_Node000011" class="edge">
<title>Node1&#45;&gt;Node11</title>
<g id="a_edge10_Node000001_Node000011"><a xlink:title=" ">
<path fill="none" stroke="#63b8ff" d="M659,-76.87C659,-67.66 659,-52.79 659,-40.77"/>
<polygon fill="#63b8ff" stroke="#63b8ff" points="662.5,-40.41 659,-30.41 655.5,-40.41 662.5,-40.41"/>
</a>
</g>
</g>
<!-- Node12 -->
<g id="Node000012" class="node">
<title>Node12</title>
<g id="a_Node000012"><a xlink:href="../../dd/d9e/linux_2platform__config_8hpp.html" target="_top" xlink:title="additional linux platform header">
<polygon fill="white" stroke="#666666" points="854.5,-41 699.5,-41 699.5,0 854.5,0 854.5,-41"/>
<text text-anchor="start" x="707.5" y="-29" font-family="Helvetica,sans-Serif" font-size="10.00">/home/runner/work/toygine2</text>
<text text-anchor="start" x="707.5" y="-18" font-family="Helvetica,sans-Serif" font-size="10.00">/toygine2/src/platforms</text>
<text text-anchor="middle" x="777" y="-7" font-family="Helvetica,sans-Serif" font-size="10.00">/linux/platform_config.hpp</text>
</a>
</g>
</g>
<!-- Node1&#45;&gt;Node12 -->
<g id="edge11_Node000001_Node000012" class="edge">
<title>Node1&#45;&gt;Node12</title>
<g id="a_edge11_Node000001_Node000012"><a xlink:title=" ">
<path fill="none" stroke="#63b8ff" d="M674.91,-76.87C689.53,-68.94 711.92,-56.8 732,-45.91"/>
<polygon fill="#63b8ff" stroke="#63b8ff" points="733.91,-48.85 741.03,-41.01 730.57,-42.7 733.91,-48.85"/>
</a>
</g>
</g>
<!-- Node13 -->
<g id="Node000013" class="node">
<title>Node13</title>
<g id="a_Node000013"><a xlink:href="../../dd/ded/c__string__view_8hpp.html" target="_top" xlink:title="TODO.">
<polygon fill="white" stroke="#666666" points="1001,-30 873,-30 873,-11 1001,-11 1001,-30"/>
<text text-anchor="middle" x="937" y="-18" font-family="Helvetica,sans-Serif" font-size="10.00">core/c_string_view.hpp</text>
</a>
</g>
</g>
<!-- Node1&#45;&gt;Node13 -->
<g id="edge12_Node000001_Node000013" class="edge">
<title>Node1&#45;&gt;Node13</title>
<g id="a_edge12_Node000001_Node000013"><a xlink:title=" ">
<path fill="none" stroke="#63b8ff" d="M701.14,-76.96C742.68,-68.4 807.89,-54.57 864,-41 874.53,-38.45 885.87,-35.52 896.39,-32.71"/>
<polygon fill="#63b8ff" stroke="#63b8ff" points="897.43,-36.06 906.18,-30.08 895.61,-29.3 897.43,-36.06"/>
</a>
</g>
</g>
<!-- Node14 -->
<g id="Node000014" class="node">
<title>Node14</title>
<g id="a_Node000014"><a xlink:href="../../d4/dc0/constexpr__utils_8hpp.html" target="_top" xlink:title="Constexpr utility functions for compile&#45;time operations.">
<polygon fill="white" stroke="#666666" points="1155,-30 1019,-30 1019,-11 1155,-11 1155,-30"/>
<text text-anchor="middle" x="1087" y="-18" font-family="Helvetica,sans-Serif" font-size="10.00">core/constexpr_utils.hpp</text>
</a>
</g>
</g>
<!-- Node1&#45;&gt;Node14 -->
<g id="edge13_Node000001_Node000014" class="edge">
<title>Node1&#45;&gt;Node14</title>
<g id="a_edge13_Node000001_Node000014"><a xlink:title=" ">
<path fill="none" stroke="#63b8ff" d="M707.55,-81.23C775.56,-74.83 902.87,-61.28 1010,-41 1022.05,-38.72 1035.02,-35.67 1046.82,-32.66"/>
<polygon fill="#63b8ff" stroke="#63b8ff" points="1048.04,-35.96 1056.84,-30.05 1046.28,-29.19 1048.04,-35.96"/>
</a>
</g>
</g>
<!-- Node15 -->
<g id="Node000015" class="node">
<title>Node15</title>
<g id="a_Node000015"><a xlink:href="../../d7/d7f/fixed__string_8hpp.html" target="_top" xlink:title="Template string class with fixed&#45;size character buffer.">
<polygon fill="white" stroke="#666666" points="1291,-30 1173,-30 1173,-11 1291,-11 1291,-30"/>
<text text-anchor="middle" x="1232" y="-18" font-family="Helvetica,sans-Serif" font-size="10.00">core/fixed_string.hpp</text>
</a>
</g>
</g>
<!-- Node1&#45;&gt;Node15 -->
<g id="edge14_Node000001_Node000015" class="edge">
<title>Node1&#45;&gt;Node15</title>
<g id="a_edge14_Node000001_Node000015"><a xlink:title=" ">
<path fill="none" stroke="#63b8ff" d="M707.81,-84.3C798.43,-81.38 998.5,-71.73 1164,-41 1174.8,-39 1186.35,-36.01 1196.81,-32.98"/>
<polygon fill="#63b8ff" stroke="#63b8ff" points="1197.87,-36.31 1206.45,-30.08 1195.86,-29.61 1197.87,-36.31"/>
</a>
</g>
</g>
<!-- Node16 -->
<g id="Node000016" class="node">
<title>Node16</title>
<g id="a_Node000016"><a xlink:href="../../df/d93/utils_8hpp.html" target="_top" xlink:title="Core utility functions for string manipulation, encoding conversion, and number formatting.">
<polygon fill="white" stroke="#666666" points="1392.5,-30 1309.5,-30 1309.5,-11 1392.5,-11 1392.5,-30"/>
<text text-anchor="middle" x="1351" y="-18" font-family="Helvetica,sans-Serif" font-size="10.00">core/utils.hpp</text>
</a>
</g>
</g>
<!-- Node1&#45;&gt;Node16 -->
<g id="edge15_Node000001_Node000016" class="edge">
<title>Node1&#45;&gt;Node16</title>
<g id="a_edge15_Node000001_Node000016"><a xlink:title=" ">
<path fill="none" stroke="#63b8ff" d="M707.6,-83.98C836.89,-79.66 1187.12,-65.92 1300,-41 1307.64,-39.31 1315.65,-36.69 1323,-33.91"/>
<polygon fill="#63b8ff" stroke="#63b8ff" points="1324.54,-37.06 1332.52,-30.09 1321.93,-30.56 1324.54,-37.06"/>
</a>
</g>
</g>
<!-- Node17 -->
<g id="Node000017" class="node">
<title>Node17</title>
<g id="a_Node000017"><a xlink:href="../../df/d4a/c__string__view_8inl.html" target="_top" xlink:title="TODO.">
<polygon fill="white" stroke="#666666" points="1533,-30 1411,-30 1411,-11 1533,-11 1533,-30"/>
<text text-anchor="middle" x="1472" y="-18" font-family="Helvetica,sans-Serif" font-size="10.00">core/c_string_view.inl</text>
</a>
</g>
</g>
<!-- Node1&#45;&gt;Node17 -->
<g id="edge16_Node000001_Node000017" class="edge">
<title>Node1&#45;&gt;Node17</title>
<g id="a_edge16_Node000001_Node000017"><a xlink:title=" ">
<path fill="none" stroke="#63b8ff" d="M707.64,-86.13C826.89,-86.91 1142.95,-84.34 1402,-41 1413.43,-39.09 1425.67,-36.04 1436.67,-32.91"/>
<polygon fill="#63b8ff" stroke="#63b8ff" points="1437.77,-36.24 1446.36,-30.05 1435.78,-29.52 1437.77,-36.24"/>
</a>
</g>
</g>
<!-- Node18 -->
<g id="Node000018" class="node">
<title>Node18</title>
<g id="a_Node000018"><a xlink:href="../../dc/d28/constexpr__utils_8inl.html" target="_top" xlink:title="Inline implementations for constexpr utility functions.">
<polygon fill="white" stroke="#666666" points="1681,-30 1551,-30 1551,-11 1681,-11 1681,-30"/>
<text text-anchor="middle" x="1616" y="-18" font-family="Helvetica,sans-Serif" font-size="10.00">core/constexpr_utils.inl</text>
</a>
</g>
</g>
<!-- Node1&#45;&gt;Node18 -->
<g id="edge17_Node000001_Node000018" class="edge">
<title>Node1&#45;&gt;Node18</title>
<g id="a_edge17_Node000001_Node000018"><a xlink:title=" ">
<path fill="none" stroke="#63b8ff" d="M707.7,-84.38C868.15,-80.46 1379.14,-66.28 1542,-41 1554.18,-39.11 1567.26,-36.03 1578.98,-32.86"/>
<polygon fill="#63b8ff" stroke="#63b8ff" points="1580.19,-36.16 1588.87,-30.09 1578.3,-29.42 1580.19,-36.16"/>
</a>
</g>
</g>
<!-- Node19 -->
<g id="Node000019" class="node">
<title>Node19</title>
<g id="a_Node000019"><a xlink:href="../../d7/d40/fixed__string_8inl.html" target="_top" xlink:title="Inline implementations for FixedString template class.">
<polygon fill="white" stroke="#666666" points="1811,-30 1699,-30 1699,-11 1811,-11 1811,-30"/>
<text text-anchor="middle" x="1755" y="-18" font-family="Helvetica,sans-Serif" font-size="10.00">core/fixed_string.inl</text>
</a>
</g>
</g>
<!-- Node1&#45;&gt;Node19 -->
<g id="edge18_Node000001_Node000019" class="edge">
<title>Node1&#45;&gt;Node19</title>
<g id="a_edge18_Node000001_Node000019"><a xlink:title=" ">
<path fill="none" stroke="#63b8ff" d="M707.68,-85C885.2,-82.92 1497.44,-73.52 1690,-41 1700.54,-39.22 1711.78,-36.25 1721.89,-33.16"/>
<polygon fill="#63b8ff" stroke="#63b8ff" points="1723.1,-36.45 1731.56,-30.07 1720.97,-29.78 1723.1,-36.45"/>
</a>
</g>
</g>
<!-- Node20 -->
<g id="Node000020" class="node">
<title>Node20</title>
<g id="a_Node000020"><a xlink:href="../../df/d7d/utils_8inl.html" target="_top" xlink:title="Inline implementations of core utility functions for string manipulation and encoding conversion.">
<polygon fill="white" stroke="#666666" points="1906.5,-30 1829.5,-30 1829.5,-11 1906.5,-11 1906.5,-30"/>
<text text-anchor="middle" x="1868" y="-18" font-family="Helvetica,sans-Serif" font-size="10.00">core/utils.inl</text>
</a>
</g>
</g>
<!-- Node1&#45;&gt;Node20 -->
<g id="edge19_Node000001_Node000020" class="edge">
<title>Node1&#45;&gt;Node20</title>
<g id="a_edge19_Node000001_Node000020"><a xlink:title=" ">
<path fill="none" stroke="#63b8ff" d="M707.57,-85.87C899.17,-87 1602.72,-87.79 1820,-41 1827.21,-39.45 1834.72,-36.89 1841.6,-34.13"/>
<polygon fill="#63b8ff" stroke="#63b8ff" points="1843.33,-37.2 1851.13,-30.04 1840.56,-30.77 1843.33,-37.2"/>
</a>
</g>
</g>
</g>
</svg>
