<?xml version="1.0" encoding="UTF-8" standalone="no"?>
<!DOCTYPE svg PUBLIC "-//W3C//DTD SVG 1.1//EN"
 "http://www.w3.org/Graphics/SVG/1.1/DTD/svg11.dtd">
<!-- Generated by graphviz version 2.43.0 (0)
 -->
<!-- Title: include/application/core_application.hpp Pages: 1 -->
<svg width="754pt" height="236pt"
 viewBox="0.00 0.00 754.00 236.00" xmlns="http://www.w3.org/2000/svg" xmlns:xlink="http://www.w3.org/1999/xlink">
<g id="graph0" class="graph" transform="scale(1 1) rotate(0) translate(4 232)">
<title>include/application/core_application.hpp</title>
<!-- Node1 -->
<g id="Node000001" class="node">
<title>Node1</title>
<g id="a_Node000001"><a xlink:title="Abstract base class for platform application lifecycle.">
<polygon fill="#999999" stroke="#666666" points="400,-228 279,-228 279,-198 400,-198 400,-228"/>
<text text-anchor="start" x="287" y="-216" font-family="Helvetica,sans-Serif" font-size="10.00">include/application</text>
<text text-anchor="middle" x="339.5" y="-205" font-family="Helvetica,sans-Serif" font-size="10.00">/core_application.hpp</text>
</a>
</g>
</g>
<!-- Node2 -->
<g id="Node000002" class="node">
<title>Node2</title>
<g id="a_Node000002"><a xlink:href="../../d4/d01/application_8hpp.html" target="_top" xlink:title="Umbrella header for the application module.">
<polygon fill="white" stroke="#666666" points="404.5,-96 274.5,-96 274.5,-77 404.5,-77 404.5,-96"/>
<text text-anchor="middle" x="339.5" y="-84" font-family="Helvetica,sans-Serif" font-size="10.00">include/application.hpp</text>
</a>
</g>
</g>
<!-- Node1&#45;&gt;Node2 -->
<g id="edge1_Node000001_Node000002" class="edge">
<title>Node1&#45;&gt;Node2</title>
<g id="a_edge1_Node000001_Node000002"><a xlink:title=" ">
<path fill="none" stroke="#63b8ff" d="M322.82,-189.06C317.84,-180.92 313.04,-171.43 310.5,-162 307.04,-149.12 306.7,-144.78 310.5,-132 314.6,-118.21 324.47,-104.7 331.56,-96.25"/>
<polygon fill="#63b8ff" stroke="#63b8ff" points="320,-191.15 328.4,-197.6 325.86,-187.32 320,-191.15"/>
</a>
</g>
</g>
<!-- Node8 -->
<g id="Node000008" class="node">
<title>Node8</title>
<g id="a_Node000008"><a xlink:href="../../d5/ddf/console__application_8hpp.html" target="_top" xlink:title="Abstract base for console&#45;mode application lifecycle.">
<polygon fill="white" stroke="#666666" points="457,-162 320,-162 320,-132 457,-132 457,-162"/>
<text text-anchor="start" x="328" y="-150" font-family="Helvetica,sans-Serif" font-size="10.00">include/application</text>
<text text-anchor="middle" x="388.5" y="-139" font-family="Helvetica,sans-Serif" font-size="10.00">/console_application.hpp</text>
</a>
</g>
</g>
<!-- Node1&#45;&gt;Node8 -->
<g id="edge7_Node000001_Node000008" class="edge">
<title>Node1&#45;&gt;Node8</title>
<g id="a_edge7_Node000001_Node000008"><a xlink:title=" ">
<path fill="none" stroke="#63b8ff" d="M356.49,-189.81C363.51,-180.64 371.44,-170.28 377.66,-162.16"/>
<polygon fill="#63b8ff" stroke="#63b8ff" points="353.67,-187.73 350.37,-197.8 359.23,-191.98 353.67,-187.73"/>
</a>
</g>
</g>
<!-- Node3 -->
<g id="Node000003" class="node">
<title>Node3</title>
<g id="a_Node000003"><a xlink:href="../../d8/d8c/toygine2_8hpp.html" target="_top" xlink:title="Main umbrella header for the engine.">
<polygon fill="white" stroke="#666666" points="119,-30 0,-30 0,-11 119,-11 119,-30"/>
<text text-anchor="middle" x="59.5" y="-18" font-family="Helvetica,sans-Serif" font-size="10.00">include/toygine2.hpp</text>
</a>
</g>
</g>
<!-- Node2&#45;&gt;Node3 -->
<g id="edge2_Node000002_Node000003" class="edge">
<title>Node2&#45;&gt;Node3</title>
<g id="a_edge2_Node000002_Node000003"><a xlink:title=" ">
<path fill="none" stroke="#63b8ff" d="M284.93,-75.04C242.19,-66.6 181.33,-54.02 128.5,-41 115.2,-37.72 100.6,-33.66 88.26,-30.1"/>
<polygon fill="#63b8ff" stroke="#63b8ff" points="284.36,-78.5 294.84,-76.99 285.71,-71.63 284.36,-78.5"/>
</a>
</g>
</g>
<!-- Node4 -->
<g id="Node000004" class="node">
<title>Node4</title>
<g id="a_Node000004"><a xlink:href="../../db/db6/console__application_8cpp.html" target="_top" xlink:title="Implementations for toy::application::ConsoleApplication.">
<polygon fill="white" stroke="#666666" points="265.5,-35.5 137.5,-35.5 137.5,-5.5 265.5,-5.5 265.5,-35.5"/>
<text text-anchor="start" x="145.5" y="-23.5" font-family="Helvetica,sans-Serif" font-size="10.00">src/application/console</text>
<text text-anchor="middle" x="201.5" y="-12.5" font-family="Helvetica,sans-Serif" font-size="10.00">_application.cpp</text>
</a>
</g>
</g>
<!-- Node2&#45;&gt;Node4 -->
<g id="edge3_Node000002_Node000004" class="edge">
<title>Node2&#45;&gt;Node4</title>
<g id="a_edge3_Node000002_Node000004"><a xlink:title=" ">
<path fill="none" stroke="#63b8ff" d="M311.63,-72.58C288.53,-61.86 255.73,-46.65 231.94,-35.62"/>
<polygon fill="#63b8ff" stroke="#63b8ff" points="310.34,-75.84 320.89,-76.87 313.29,-69.49 310.34,-75.84"/>
</a>
</g>
</g>
<!-- Node5 -->
<g id="Node000005" class="node">
<title>Node5</title>
<g id="a_Node000005"><a xlink:href="../../d0/dbb/core__application_8cpp.html" target="_top" xlink:title="Implementations for toy::application::CoreApplication.">
<polygon fill="white" stroke="#666666" points="395.5,-35.5 283.5,-35.5 283.5,-5.5 395.5,-5.5 395.5,-35.5"/>
<text text-anchor="start" x="291.5" y="-23.5" font-family="Helvetica,sans-Serif" font-size="10.00">src/application/core</text>
<text text-anchor="middle" x="339.5" y="-12.5" font-family="Helvetica,sans-Serif" font-size="10.00">_application.cpp</text>
</a>
</g>
</g>
<!-- Node2&#45;&gt;Node5 -->
<g id="edge4_Node000002_Node000005" class="edge">
<title>Node2&#45;&gt;Node5</title>
<g id="a_edge4_Node000002_Node000005"><a xlink:title=" ">
<path fill="none" stroke="#63b8ff" d="M339.5,-66.85C339.5,-56.97 339.5,-45.01 339.5,-35.86"/>
<polygon fill="#63b8ff" stroke="#63b8ff" points="336,-66.87 339.5,-76.87 343,-66.87 336,-66.87"/>
</a>
</g>
</g>
<!-- Node6 -->
<g id="Node000006" class="node">
<title>Node6</title>
<g id="a_Node000006"><a xlink:href="../../d8/d89/core__application__macos_8cpp.html" target="_top" xlink:title="macOS implementations of toy::application::CoreApplication via POSIX APIs.">
<polygon fill="white" stroke="#666666" points="571,-41 414,-41 414,0 571,0 571,-41"/>
<text text-anchor="start" x="422" y="-29" font-family="Helvetica,sans-Serif" font-size="10.00">src/platforms/macos</text>
<text text-anchor="start" x="422" y="-18" font-family="Helvetica,sans-Serif" font-size="10.00">/application/core_application</text>
<text text-anchor="middle" x="492.5" y="-7" font-family="Helvetica,sans-Serif" font-size="10.00">_macos.cpp</text>
</a>
</g>
</g>
<!-- Node2&#45;&gt;Node6 -->
<g id="edge5_Node000002_Node000006" class="edge">
<title>Node2&#45;&gt;Node6</title>
<g id="a_edge5_Node000002_Node000006"><a xlink:title=" ">
<path fill="none" stroke="#63b8ff" d="M369.51,-72.95C391.24,-63.86 421.04,-51.39 445.86,-41.01"/>
<polygon fill="#63b8ff" stroke="#63b8ff" points="368.01,-69.78 360.13,-76.87 370.71,-76.24 368.01,-69.78"/>
</a>
</g>
</g>
<!-- Node7 -->
<g id="Node000007" class="node">
<title>Node7</title>
<g id="a_Node000007"><a xlink:href="../../db/da8/core__application__stub_8cpp.html" target="_top" xlink:title="Stub implementation of toy::application::CoreApplication::sleep() for platforms without OS sleep supp...">
<polygon fill="white" stroke="#666666" points="746,-41 589,-41 589,0 746,0 746,-41"/>
<text text-anchor="start" x="597" y="-29" font-family="Helvetica,sans-Serif" font-size="10.00">src/platforms/stub</text>
<text text-anchor="start" x="597" y="-18" font-family="Helvetica,sans-Serif" font-size="10.00">/application/core_application</text>
<text text-anchor="middle" x="667.5" y="-7" font-family="Helvetica,sans-Serif" font-size="10.00">_stub.cpp</text>
</a>
</g>
</g>
<!-- Node2&#45;&gt;Node7 -->
<g id="edge6_Node000002_Node000007" class="edge">
<title>Node2&#45;&gt;Node7</title>
<g id="a_edge6_Node000002_Node000007"><a xlink:title=" ">
<path fill="none" stroke="#63b8ff" d="M399.07,-75.15C447.92,-66.5 518.81,-53.6 580.5,-41 583.23,-40.44 586.01,-39.87 588.81,-39.28"/>
<polygon fill="#63b8ff" stroke="#63b8ff" points="398.23,-71.74 388.99,-76.93 399.45,-78.64 398.23,-71.74"/>
</a>
</g>
</g>
<!-- Node8&#45;&gt;Node2 -->
<g id="edge8_Node000008_Node000002" class="edge">
<title>Node8&#45;&gt;Node2</title>
<g id="a_edge8_Node000008_Node000002"><a xlink:title=" ">
<path fill="none" stroke="#63b8ff" d="M370.15,-124.09C362.05,-114.42 353,-103.61 346.84,-96.27"/>
<polygon fill="#63b8ff" stroke="#63b8ff" points="367.53,-126.42 376.64,-131.84 372.9,-121.93 367.53,-126.42"/>
</a>
</g>
</g>
</g>
</svg>
