<?xml version="1.0" encoding="UTF-8" standalone="no"?>
<!DOCTYPE svg PUBLIC "-//W3C//DTD SVG 1.1//EN"
 "http://www.w3.org/Graphics/SVG/1.1/DTD/svg11.dtd">
<!-- Generated by graphviz version 14.1.2 (0)
 -->
<!-- Title: include/application/core_application.hpp Pages: 1 -->
<!--zoomable 250 -->

<svg id="main" version="1.1" xmlns="http://www.w3.org/2000/svg" xmlns:xlink="http://www.w3.org/1999/xlink" xml:space="preserve" onload="init(evt)">

<style type="text/css"><![CDATA[
.node, .edge {opacity: 0.7;}
.node.selected, .edge.selected {opacity: 1;}
.edge:hover path { stroke: red; }
.edge:hover polygon { stroke: red; fill: red; }
]]></style>

<defs>
  <circle id="rim" cx="0" cy="0" r="7"/>
  <circle id="rim2" cx="0" cy="0" r="3.5"/>
  <g id="zoomPlus">
    <use xlink:href="#rim" fill="#404040"><set attributeName="fill" to="#808080" begin="zoomplus.mouseover" end="zoomplus.mouseout"/></use>
    <path d="M-4,0h8M0,-4v8" fill="none" stroke="white" stroke-width="1.5" pointer-events="none"/>
  </g>
  <g id="zoomMin">
    <use xlink:href="#rim" fill="#404040"><set attributeName="fill" to="#808080" begin="zoomminus.mouseover" end="zoomminus.mouseout"/></use>
    <path d="M-4,0h8" fill="none" stroke="white" stroke-width="1.5" pointer-events="none"/>
  </g>
  <g id="arrowUp" transform="translate(30 24)">
    <use xlink:href="#rim"/>
    <path pointer-events="none" fill="none" stroke="white" stroke-width="1.5" d="M0,-3.0v7 M-2.5,-0.5L0,-3.0L2.5,-0.5"/>
  </g>
  <g id="arrowRight" transform="rotate(90) translate(36 -43)">
    <use xlink:href="#rim"/>
    <path pointer-events="none" fill="none" stroke="white" stroke-width="1.5" d="M0,-3.0v7 M-2.5,-0.5L0,-3.0L2.5,-0.5"/>
  </g>
  <g id="arrowDown" transform="rotate(180) translate(-30 -48)">
    <use xlink:href="#rim"/>
    <path pointer-events="none" fill="none" stroke="white" stroke-width="1.5" d="M0,-3.0v7 M-2.5,-0.5L0,-3.0L2.5,-0.5"/>
  </g>
  <g id="arrowLeft" transform="rotate(270) translate(-36 17)">
    <use xlink:href="#rim"/>
    <path pointer-events="none" fill="none" stroke="white" stroke-width="1.5" d="M0,-3.0v7 M-2.5,-0.5L0,-3.0L2.5,-0.5"/>
  </g>
  <g id="resetDef">
    <use xlink:href="#rim2" fill="#404040"><set attributeName="fill" to="#808080" begin="reset.mouseover" end="reset.mouseout"/></use>
  </g>
</defs>
<script type="application/ecmascript">
var viewWidth = 1436;
var viewHeight = 250;
var sectionId = 'dynsection-1';
</script>
<script type="application/ecmascript" xlink:href="../../svg.min.js"/>
<svg id="graph" class="graph">
<g id="viewport">
<title>include/application/core_application.hpp</title>
<!-- Node1 -->
<g id="Node000001" class="node">
<title>Node1</title>
<g id="a_Node000001"><a xlink:title="Abstract base class for platform application lifecycle.">
<polygon fill="#999999" stroke="#666666" points="726.12,-242 605.88,-242 605.88,-208.5 726.12,-208.5 726.12,-242"/>
<text xml:space="preserve" text-anchor="start" x="613.88" y="-228.5" font-family="Helvetica,sans-Serif" font-size="10.00">include/application</text>
<text xml:space="preserve" text-anchor="middle" x="666" y="-215.75" font-family="Helvetica,sans-Serif" font-size="10.00">/core_application.hpp</text>
</a>
</g>
</g>
<!-- Node2 -->
<g id="Node000002" class="node">
<title>Node2</title>
<g id="a_Node000002"><a xlink:href="../../d4/d01/application_8hpp.html" target="_top" xlink:title="Umbrella header for the application module.">
<polygon fill="white" stroke="#666666" points="730.62,-103 601.38,-103 601.38,-82.25 730.62,-82.25 730.62,-103"/>
<text xml:space="preserve" text-anchor="middle" x="666" y="-89.5" font-family="Helvetica,sans-Serif" font-size="10.00">include/application.hpp</text>
</a>
</g>
</g>
<!-- Node1&#45;&gt;Node2 -->
<g id="edge1_Node000001_Node000002" class="edge">
<title>Node1&#45;&gt;Node2</title>
<g id="a_edge1_Node000001_Node000002"><a xlink:title=" ">
<path fill="none" stroke="#63b8ff" d="M648.25,-198.61C643.66,-190.61 639.35,-181.51 637,-172.5 633.24,-158.09 632.82,-153.29 637,-139 640.99,-125.36 650.46,-111.92 657.5,-103.25"/>
<polygon fill="#63b8ff" stroke="#63b8ff" points="645.27,-200.44 653.5,-207.11 651.22,-196.76 645.27,-200.44"/>
</a>
</g>
</g>
<!-- Node12 -->
<g id="Node000012" class="node">
<title>Node12</title>
<g id="a_Node000012"><a xlink:href="../../d5/ddf/console__application_8hpp.html" target="_top" xlink:title="Abstract base for console&#45;mode application lifecycle.">
<polygon fill="white" stroke="#666666" points="782.38,-172.5 645.62,-172.5 645.62,-139 782.38,-139 782.38,-172.5"/>
<text xml:space="preserve" text-anchor="start" x="653.62" y="-159" font-family="Helvetica,sans-Serif" font-size="10.00">include/application</text>
<text xml:space="preserve" text-anchor="middle" x="714" y="-146.25" font-family="Helvetica,sans-Serif" font-size="10.00">/console_application.hpp</text>
</a>
</g>
</g>
<!-- Node1&#45;&gt;Node12 -->
<g id="edge11_Node000001_Node000012" class="edge">
<title>Node1&#45;&gt;Node12</title>
<g id="a_edge11_Node000001_Node000012"><a xlink:title=" ">
<path fill="none" stroke="#63b8ff" d="M683.89,-199.09C690.19,-190.23 697.1,-180.52 702.71,-172.63"/>
<polygon fill="#63b8ff" stroke="#63b8ff" points="681.2,-196.84 678.25,-207.02 686.9,-200.9 681.2,-196.84"/>
</a>
</g>
</g>
<!-- Node3 -->
<g id="Node000003" class="node">
<title>Node3</title>
<g id="a_Node000003"><a xlink:href="../../d8/d8c/toygine2_8hpp.html" target="_top" xlink:title="Main umbrella header for the engine.">
<polygon fill="white" stroke="#666666" points="118,-33.5 0,-33.5 0,-12.75 118,-12.75 118,-33.5"/>
<text xml:space="preserve" text-anchor="middle" x="59" y="-20" font-family="Helvetica,sans-Serif" font-size="10.00">include/toygine2.hpp</text>
</a>
</g>
</g>
<!-- Node2&#45;&gt;Node3 -->
<g id="edge2_Node000002_Node000003" class="edge">
<title>Node2&#45;&gt;Node3</title>
<g id="a_edge2_Node000002_Node000003"><a xlink:title=" ">
<path fill="none" stroke="#63b8ff" d="M589.58,-90.71C484.4,-88.21 289.58,-79.08 127,-46.25 112.64,-43.35 97.07,-38.42 84.46,-33.95"/>
<polygon fill="#63b8ff" stroke="#63b8ff" points="589.43,-94.21 599.51,-90.93 589.59,-87.21 589.43,-94.21"/>
</a>
</g>
</g>
<!-- Node4 -->
<g id="Node000004" class="node">
<title>Node4</title>
<g id="a_Node000004"><a xlink:href="../../d0/dbb/core__application_8cpp.html" target="_top" xlink:title="Implementations for toy::application::CoreApplication.">
<polygon fill="white" stroke="#666666" points="247.62,-39.88 136.38,-39.88 136.38,-6.38 247.62,-6.38 247.62,-39.88"/>
<text xml:space="preserve" text-anchor="start" x="144.38" y="-26.38" font-family="Helvetica,sans-Serif" font-size="10.00">src/application/core</text>
<text xml:space="preserve" text-anchor="middle" x="192" y="-13.62" font-family="Helvetica,sans-Serif" font-size="10.00">_application.cpp</text>
</a>
</g>
</g>
<!-- Node2&#45;&gt;Node4 -->
<g id="edge3_Node000002_Node000004" class="edge">
<title>Node2&#45;&gt;Node4</title>
<g id="a_edge3_Node000002_Node000004"><a xlink:title=" ">
<path fill="none" stroke="#63b8ff" d="M589.86,-88.13C507.11,-83.2 371.38,-71.74 257,-46.25 249.9,-44.67 242.5,-42.58 235.33,-40.33"/>
<polygon fill="#63b8ff" stroke="#63b8ff" points="589.48,-91.62 599.67,-88.7 589.89,-84.63 589.48,-91.62"/>
</a>
</g>
</g>
<!-- Node5 -->
<g id="Node000005" class="node">
<title>Node5</title>
<g id="a_Node000005"><a xlink:href="../../db/db6/console__application_8cpp.html" target="_top" xlink:title="Implementations for toy::application::ConsoleApplication.">
<polygon fill="white" stroke="#666666" points="392.12,-46.25 265.88,-46.25 265.88,0 392.12,0 392.12,-46.25"/>
<text xml:space="preserve" text-anchor="start" x="273.88" y="-32.75" font-family="Helvetica,sans-Serif" font-size="10.00">src/platforms/common</text>
<text xml:space="preserve" text-anchor="start" x="273.88" y="-20" font-family="Helvetica,sans-Serif" font-size="10.00">/application/console</text>
<text xml:space="preserve" text-anchor="middle" x="329" y="-7.25" font-family="Helvetica,sans-Serif" font-size="10.00">_application.cpp</text>
</a>
</g>
</g>
<!-- Node2&#45;&gt;Node5 -->
<g id="edge4_Node000002_Node000005" class="edge">
<title>Node2&#45;&gt;Node5</title>
<g id="a_edge4_Node000002_Node000005"><a xlink:title=" ">
<path fill="none" stroke="#63b8ff" d="M589.94,-81.25C536.68,-73.35 464.06,-61.27 401,-46.25 398.2,-45.58 395.35,-44.87 392.48,-44.12"/>
<polygon fill="#63b8ff" stroke="#63b8ff" points="589.1,-84.67 599.5,-82.66 590.12,-77.74 589.1,-84.67"/>
</a>
</g>
</g>
<!-- Node6 -->
<g id="Node000006" class="node">
<title>Node6</title>
<g id="a_Node000006"><a xlink:href="../../da/d50/console__application__gba_8cpp.html" target="_top" xlink:title="GBA implementations of toy::application::ConsoleApplication.">
<polygon fill="white" stroke="#666666" points="569.62,-39.88 410.38,-39.88 410.38,-6.38 569.62,-6.38 569.62,-39.88"/>
<text xml:space="preserve" text-anchor="start" x="418.38" y="-26.38" font-family="Helvetica,sans-Serif" font-size="10.00">src/platforms/gba/application</text>
<text xml:space="preserve" text-anchor="middle" x="490" y="-13.62" font-family="Helvetica,sans-Serif" font-size="10.00">/console_application_gba.cpp</text>
</a>
</g>
</g>
<!-- Node2&#45;&gt;Node6 -->
<g id="edge5_Node000002_Node000006" class="edge">
<title>Node2&#45;&gt;Node6</title>
<g id="a_edge5_Node000002_Node000006"><a xlink:title=" ">
<path fill="none" stroke="#63b8ff" d="M629.77,-77.73C601.46,-66.87 562.07,-51.76 532.31,-40.35"/>
<polygon fill="#63b8ff" stroke="#63b8ff" points="628.4,-80.95 638.99,-81.27 630.91,-74.42 628.4,-80.95"/>
</a>
</g>
</g>
<!-- Node7 -->
<g id="Node000007" class="node">
<title>Node7</title>
<g id="a_Node000007"><a xlink:href="../../d0/d8a/core__application__linux_8cpp.html" target="_top" xlink:title="Linux implementations of toy::application::CoreApplication via POSIX APIs.">
<polygon fill="white" stroke="#666666" points="744.12,-46.25 587.88,-46.25 587.88,0 744.12,0 744.12,-46.25"/>
<text xml:space="preserve" text-anchor="start" x="595.88" y="-32.75" font-family="Helvetica,sans-Serif" font-size="10.00">src/platforms/linux</text>
<text xml:space="preserve" text-anchor="start" x="595.88" y="-20" font-family="Helvetica,sans-Serif" font-size="10.00">/application/core_application</text>
<text xml:space="preserve" text-anchor="middle" x="666" y="-7.25" font-family="Helvetica,sans-Serif" font-size="10.00">_linux.cpp</text>
</a>
</g>
</g>
<!-- Node2&#45;&gt;Node7 -->
<g id="edge6_Node000002_Node000007" class="edge">
<title>Node2&#45;&gt;Node7</title>
<g id="a_edge6_Node000002_Node000007"><a xlink:title=" ">
<path fill="none" stroke="#63b8ff" d="M666,-70.46C666,-62.87 666,-54.3 666,-46.61"/>
<polygon fill="#63b8ff" stroke="#63b8ff" points="662.5,-70.44 666,-80.44 669.5,-70.44 662.5,-70.44"/>
</a>
</g>
</g>
<!-- Node8 -->
<g id="Node000008" class="node">
<title>Node8</title>
<g id="a_Node000008"><a xlink:href="../../d8/d89/core__application__macos_8cpp.html" target="_top" xlink:title="macOS implementations of toy::application::CoreApplication via POSIX APIs.">
<polygon fill="white" stroke="#666666" points="918.12,-46.25 761.88,-46.25 761.88,0 918.12,0 918.12,-46.25"/>
<text xml:space="preserve" text-anchor="start" x="769.88" y="-32.75" font-family="Helvetica,sans-Serif" font-size="10.00">src/platforms/macos</text>
<text xml:space="preserve" text-anchor="start" x="769.88" y="-20" font-family="Helvetica,sans-Serif" font-size="10.00">/application/core_application</text>
<text xml:space="preserve" text-anchor="middle" x="840" y="-7.25" font-family="Helvetica,sans-Serif" font-size="10.00">_macos.cpp</text>
</a>
</g>
</g>
<!-- Node2&#45;&gt;Node8 -->
<g id="edge7_Node000002_Node000008" class="edge">
<title>Node2&#45;&gt;Node8</title>
<g id="a_edge7_Node000002_Node000008"><a xlink:title=" ">
<path fill="none" stroke="#63b8ff" d="M701.98,-77.67C725.03,-68.72 755.48,-56.91 781.92,-46.66"/>
<polygon fill="#63b8ff" stroke="#63b8ff" points="700.77,-74.38 692.71,-81.26 703.3,-80.91 700.77,-74.38"/>
</a>
</g>
</g>
<!-- Node9 -->
<g id="Node000009" class="node">
<title>Node9</title>
<g id="a_Node000009"><a xlink:href="../../db/da8/core__application__stub_8cpp.html" target="_top" xlink:title="Stub implementation of toy::application::CoreApplication::sleep() for platforms without OS sleep supp...">
<polygon fill="white" stroke="#666666" points="1092.12,-46.25 935.88,-46.25 935.88,0 1092.12,0 1092.12,-46.25"/>
<text xml:space="preserve" text-anchor="start" x="943.88" y="-32.75" font-family="Helvetica,sans-Serif" font-size="10.00">src/platforms/stub</text>
<text xml:space="preserve" text-anchor="start" x="943.88" y="-20" font-family="Helvetica,sans-Serif" font-size="10.00">/application/core_application</text>
<text xml:space="preserve" text-anchor="middle" x="1014" y="-7.25" font-family="Helvetica,sans-Serif" font-size="10.00">_stub.cpp</text>
</a>
</g>
</g>
<!-- Node2&#45;&gt;Node9 -->
<g id="edge8_Node000002_Node000009" class="edge">
<title>Node2&#45;&gt;Node9</title>
<g id="a_edge8_Node000002_Node000009"><a xlink:title=" ">
<path fill="none" stroke="#63b8ff" d="M742.08,-79.98C794.3,-71.6 865.09,-59.48 927,-46.25 929.9,-45.63 932.84,-44.98 935.81,-44.31"/>
<polygon fill="#63b8ff" stroke="#63b8ff" points="741.71,-76.5 732.39,-81.53 742.81,-83.41 741.71,-76.5"/>
</a>
</g>
</g>
<!-- Node10 -->
<g id="Node000010" class="node">
<title>Node10</title>
<g id="a_Node000010"><a xlink:href="../../df/dd0/console__application__windows_8cpp.html" target="_top" xlink:title="Windows console entry&#45;point argument conversion from UTF&#45;16 to UTF&#45;8.">
<polygon fill="white" stroke="#666666" points="1253.75,-46.25 1110.25,-46.25 1110.25,0 1253.75,0 1253.75,-46.25"/>
<text xml:space="preserve" text-anchor="start" x="1118.25" y="-32.75" font-family="Helvetica,sans-Serif" font-size="10.00">src/platforms/windows</text>
<text xml:space="preserve" text-anchor="start" x="1118.25" y="-20" font-family="Helvetica,sans-Serif" font-size="10.00">/application/console</text>
<text xml:space="preserve" text-anchor="middle" x="1182" y="-7.25" font-family="Helvetica,sans-Serif" font-size="10.00">_application_windows.cpp</text>
</a>
</g>
</g>
<!-- Node2&#45;&gt;Node10 -->
<g id="edge9_Node000002_Node000010" class="edge">
<title>Node2&#45;&gt;Node10</title>
<g id="a_edge9_Node000002_Node000010"><a xlink:title=" ">
<path fill="none" stroke="#63b8ff" d="M742.35,-87.43C829.64,-81.77 976.54,-69.58 1101,-46.25 1104.01,-45.69 1107.07,-45.07 1110.15,-44.4"/>
<polygon fill="#63b8ff" stroke="#63b8ff" points="742.23,-83.93 732.47,-88.06 742.68,-90.92 742.23,-83.93"/>
</a>
</g>
</g>
<!-- Node11 -->
<g id="Node000011" class="node">
<title>Node11</title>
<g id="a_Node000011"><a xlink:href="../../dc/d2d/core__application__windows_8cpp.html" target="_top" xlink:title="Windows implementations of toy::application::CoreApplication via Win32 APIs.">
<polygon fill="white" stroke="#666666" points="1428.12,-46.25 1271.88,-46.25 1271.88,0 1428.12,0 1428.12,-46.25"/>
<text xml:space="preserve" text-anchor="start" x="1279.88" y="-32.75" font-family="Helvetica,sans-Serif" font-size="10.00">src/platforms/windows</text>
<text xml:space="preserve" text-anchor="start" x="1279.88" y="-20" font-family="Helvetica,sans-Serif" font-size="10.00">/application/core_application</text>
<text xml:space="preserve" text-anchor="middle" x="1350" y="-7.25" font-family="Helvetica,sans-Serif" font-size="10.00">_windows.cpp</text>
</a>
</g>
</g>
<!-- Node2&#45;&gt;Node11 -->
<g id="edge10_Node000002_Node000011" class="edge">
<title>Node2&#45;&gt;Node11</title>
<g id="a_edge10_Node000002_Node000011"><a xlink:title=" ">
<path fill="none" stroke="#63b8ff" d="M742.29,-90.05C856.29,-86.74 1077.55,-76.64 1263,-46.25 1265.77,-45.8 1268.58,-45.3 1271.41,-44.76"/>
<polygon fill="#63b8ff" stroke="#63b8ff" points="742.34,-86.54 732.44,-90.32 742.53,-93.54 742.34,-86.54"/>
</a>
</g>
</g>
<!-- Node12&#45;&gt;Node2 -->
<g id="edge12_Node000012_Node000002" class="edge">
<title>Node12&#45;&gt;Node2</title>
<g id="a_edge12_Node000012_Node000002"><a xlink:title=" ">
<path fill="none" stroke="#63b8ff" d="M694.41,-129.81C687.15,-120.55 679.32,-110.59 673.73,-103.47"/>
<polygon fill="#63b8ff" stroke="#63b8ff" points="691.52,-131.8 700.45,-137.5 697.03,-127.47 691.52,-131.8"/>
</a>
</g>
</g>
</g>
</svg>

<g id="navigator" transform="translate(0 0)" fill="#404254">
  <rect fill="#f2f5e9" fill-opacity="0.5" stroke="#606060" stroke-width=".5" x="0" y="0" width="60" height="60"/>
  <use id="zoomplus" xlink:href="#zoomPlus" x="17" y="9" onmousedown="handleZoom(evt,'in')"/>
  <use id="zoomminus" xlink:href="#zoomMin" x="42" y="9" onmousedown="handleZoom(evt,'out')"/>
  <use id="reset" xlink:href="#resetDef" x="30" y="36" onmousedown="handleReset()"/>
   <use id="arrowup" xlink:href="#arrowUp" x="0" y="0" onmousedown="handlePan(0,-1)"/>
  <use id="arrowright" xlink:href="#arrowRight" x="0" y="0" onmousedown="handlePan(1,0)"/>
  <use id="arrowdown" xlink:href="#arrowDown" x="0" y="0" onmousedown="handlePan(0,1)"/>
  <use id="arrowleft" xlink:href="#arrowLeft" x="0" y="0" onmousedown="handlePan(-1,0)"/>
</g>
<svg viewBox="0 0 15 15" width="100%" height="30px" preserveAspectRatio="xMaxYMin meet">
 <g id="arrow_out" transform="scale(0.3 0.3)">
  <a xlink:href="core__application_8hpp__dep__incl_org.svg" target="_base">
   <rect id="button" ry="5" rx="5" y="6" x="6" height="38" width="38"
        fill="#f2f5e9" fill-opacity="0.5" stroke="#606060" stroke-width="1.0"/>
   <path id="arrow"
     d="M 11.500037,31.436501 C 11.940474,20.09759 22.043105,11.32322 32.158766,21.979434 L 37.068811,17.246167 C 37.068811,17.246167 37.088388,32 37.088388,32 L 22.160133,31.978069 C 22.160133,31.978069 26.997745,27.140456 26.997745,27.140456 C 18.528582,18.264221 13.291696,25.230495 11.500037,31.436501 z"
     style="fill:#404040;"/>
  </a>
 </g>
</svg>

<style type='text/css'>
<![CDATA[
[data-mouse-over-selected='false'] { opacity: 0.7; }
[data-mouse-over-selected='true']  { opacity: 1.0; }
]]>
</style>
<script type="application/ecmascript"><![CDATA[
document.addEventListener('DOMContentLoaded', (event) => {
  highlightEdges();
  highlightAdjacentNodes();
});
]]></script>
</svg>
