<?xml version="1.0" encoding="UTF-8" standalone="no"?>
<!DOCTYPE svg PUBLIC "-//W3C//DTD SVG 1.1//EN"
 "http://www.w3.org/Graphics/SVG/1.1/DTD/svg11.dtd">
<!-- Generated by graphviz version 2.43.0 (0)
 -->
<!-- Title: include/application/core_application.hpp Pages: 1 -->
<svg width="579pt" height="236pt"
 viewBox="0.00 0.00 579.00 236.00" xmlns="http://www.w3.org/2000/svg" xmlns:xlink="http://www.w3.org/1999/xlink">
<g id="graph0" class="graph" transform="scale(1 1) rotate(0) translate(4 232)">
<title>include/application/core_application.hpp</title>
<!-- Node1 -->
<g id="Node000001" class="node">
<title>Node1</title>
<g id="a_Node000001"><a xlink:title="Abstract base class for platform application lifecycle.">
<polygon fill="#999999" stroke="#666666" points="331,-228 210,-228 210,-198 331,-198 331,-228"/>
<text text-anchor="start" x="218" y="-216" font-family="Helvetica,sans-Serif" font-size="10.00">include/application</text>
<text text-anchor="middle" x="270.5" y="-205" font-family="Helvetica,sans-Serif" font-size="10.00">/core_application.hpp</text>
</a>
</g>
</g>
<!-- Node2 -->
<g id="Node000002" class="node">
<title>Node2</title>
<g id="a_Node000002"><a xlink:href="../../d4/d01/application_8hpp.html" target="_top" xlink:title="Umbrella header for the application module.">
<polygon fill="white" stroke="#666666" points="335.5,-96 205.5,-96 205.5,-77 335.5,-77 335.5,-96"/>
<text text-anchor="middle" x="270.5" y="-84" font-family="Helvetica,sans-Serif" font-size="10.00">include/application.hpp</text>
</a>
</g>
</g>
<!-- Node1&#45;&gt;Node2 -->
<g id="edge1_Node000001_Node000002" class="edge">
<title>Node1&#45;&gt;Node2</title>
<g id="a_edge1_Node000001_Node000002"><a xlink:title=" ">
<path fill="none" stroke="#63b8ff" d="M253.82,-189.06C248.84,-180.92 244.04,-171.43 241.5,-162 238.04,-149.12 237.7,-144.78 241.5,-132 245.6,-118.21 255.47,-104.7 262.56,-96.25"/>
<polygon fill="#63b8ff" stroke="#63b8ff" points="251,-191.15 259.4,-197.6 256.86,-187.32 251,-191.15"/>
</a>
</g>
</g>
<!-- Node7 -->
<g id="Node000007" class="node">
<title>Node7</title>
<g id="a_Node000007"><a xlink:href="../../d5/ddf/console__application_8hpp.html" target="_top" xlink:title="Abstract base for console&#45;mode application lifecycle.">
<polygon fill="white" stroke="#666666" points="388,-162 251,-162 251,-132 388,-132 388,-162"/>
<text text-anchor="start" x="259" y="-150" font-family="Helvetica,sans-Serif" font-size="10.00">include/application</text>
<text text-anchor="middle" x="319.5" y="-139" font-family="Helvetica,sans-Serif" font-size="10.00">/console_application.hpp</text>
</a>
</g>
</g>
<!-- Node1&#45;&gt;Node7 -->
<g id="edge6_Node000001_Node000007" class="edge">
<title>Node1&#45;&gt;Node7</title>
<g id="a_edge6_Node000001_Node000007"><a xlink:title=" ">
<path fill="none" stroke="#63b8ff" d="M287.49,-189.81C294.51,-180.64 302.44,-170.28 308.66,-162.16"/>
<polygon fill="#63b8ff" stroke="#63b8ff" points="284.67,-187.73 281.37,-197.8 290.23,-191.98 284.67,-187.73"/>
</a>
</g>
</g>
<!-- Node3 -->
<g id="Node000003" class="node">
<title>Node3</title>
<g id="a_Node000003"><a xlink:href="../../d8/d8c/toygine2_8hpp.html" target="_top" xlink:title="Main umbrella header for the engine.">
<polygon fill="white" stroke="#666666" points="119,-30 0,-30 0,-11 119,-11 119,-30"/>
<text text-anchor="middle" x="59.5" y="-18" font-family="Helvetica,sans-Serif" font-size="10.00">include/toygine2.hpp</text>
</a>
</g>
</g>
<!-- Node2&#45;&gt;Node3 -->
<g id="edge2_Node000002_Node000003" class="edge">
<title>Node2&#45;&gt;Node3</title>
<g id="a_edge2_Node000002_Node000003"><a xlink:title=" ">
<path fill="none" stroke="#63b8ff" d="M232.27,-73.9C190.66,-61.28 125.09,-41.39 87.84,-30.1"/>
<polygon fill="#63b8ff" stroke="#63b8ff" points="231.46,-77.32 242.04,-76.87 233.49,-70.62 231.46,-77.32"/>
</a>
</g>
</g>
<!-- Node4 -->
<g id="Node000004" class="node">
<title>Node4</title>
<g id="a_Node000004"><a xlink:href="../../db/db6/console__application_8cpp.html" target="_top" xlink:title="Implementations for toy::application::ConsoleApplication.">
<polygon fill="white" stroke="#666666" points="265.5,-35.5 137.5,-35.5 137.5,-5.5 265.5,-5.5 265.5,-35.5"/>
<text text-anchor="start" x="145.5" y="-23.5" font-family="Helvetica,sans-Serif" font-size="10.00">src/application/console</text>
<text text-anchor="middle" x="201.5" y="-12.5" font-family="Helvetica,sans-Serif" font-size="10.00">_application.cpp</text>
</a>
</g>
</g>
<!-- Node2&#45;&gt;Node4 -->
<g id="edge3_Node000002_Node000004" class="edge">
<title>Node2&#45;&gt;Node4</title>
<g id="a_edge3_Node000002_Node000004"><a xlink:title=" ">
<path fill="none" stroke="#63b8ff" d="M253.69,-69.91C242.41,-59.44 227.66,-45.76 216.72,-35.62"/>
<polygon fill="#63b8ff" stroke="#63b8ff" points="251.48,-72.63 261.19,-76.87 256.24,-67.5 251.48,-72.63"/>
</a>
</g>
</g>
<!-- Node5 -->
<g id="Node000005" class="node">
<title>Node5</title>
<g id="a_Node000005"><a xlink:href="../../d0/dbb/core__application_8cpp.html" target="_top" xlink:title="Implementations for toy::application::CoreApplication.">
<polygon fill="white" stroke="#666666" points="395.5,-35.5 283.5,-35.5 283.5,-5.5 395.5,-5.5 395.5,-35.5"/>
<text text-anchor="start" x="291.5" y="-23.5" font-family="Helvetica,sans-Serif" font-size="10.00">src/application/core</text>
<text text-anchor="middle" x="339.5" y="-12.5" font-family="Helvetica,sans-Serif" font-size="10.00">_application.cpp</text>
</a>
</g>
</g>
<!-- Node2&#45;&gt;Node5 -->
<g id="edge4_Node000002_Node000005" class="edge">
<title>Node2&#45;&gt;Node5</title>
<g id="a_edge4_Node000002_Node000005"><a xlink:title=" ">
<path fill="none" stroke="#63b8ff" d="M287.31,-69.91C298.59,-59.44 313.34,-45.76 324.28,-35.62"/>
<polygon fill="#63b8ff" stroke="#63b8ff" points="284.76,-67.5 279.81,-76.87 289.52,-72.63 284.76,-67.5"/>
</a>
</g>
</g>
<!-- Node6 -->
<g id="Node000006" class="node">
<title>Node6</title>
<g id="a_Node000006"><a xlink:href="../../db/da8/core__application__stub_8cpp.html" target="_top" xlink:title="Stub implementation of toy::application::CoreApplication::sleep() for platforms without OS sleep supp...">
<polygon fill="white" stroke="#666666" points="571,-41 414,-41 414,0 571,0 571,-41"/>
<text text-anchor="start" x="422" y="-29" font-family="Helvetica,sans-Serif" font-size="10.00">src/platforms/stub</text>
<text text-anchor="start" x="422" y="-18" font-family="Helvetica,sans-Serif" font-size="10.00">/application/core_application</text>
<text text-anchor="middle" x="492.5" y="-7" font-family="Helvetica,sans-Serif" font-size="10.00">_stub.cpp</text>
</a>
</g>
</g>
<!-- Node2&#45;&gt;Node6 -->
<g id="edge5_Node000002_Node000006" class="edge">
<title>Node2&#45;&gt;Node6</title>
<g id="a_edge5_Node000002_Node000006"><a xlink:title=" ">
<path fill="none" stroke="#63b8ff" d="M310.26,-74.04C342.05,-64.87 387.35,-51.81 424.83,-41.01"/>
<polygon fill="#63b8ff" stroke="#63b8ff" points="309.08,-70.74 300.44,-76.87 311.02,-77.46 309.08,-70.74"/>
</a>
</g>
</g>
<!-- Node7&#45;&gt;Node2 -->
<g id="edge7_Node000007_Node000002" class="edge">
<title>Node7&#45;&gt;Node2</title>
<g id="a_edge7_Node000007_Node000002"><a xlink:title=" ">
<path fill="none" stroke="#63b8ff" d="M301.15,-124.09C293.05,-114.42 284,-103.61 277.84,-96.27"/>
<polygon fill="#63b8ff" stroke="#63b8ff" points="298.53,-126.42 307.64,-131.84 303.9,-121.93 298.53,-126.42"/>
</a>
</g>
</g>
</g>
</svg>
