<?xml version="1.0" encoding="UTF-8" standalone="no"?>
<!DOCTYPE svg PUBLIC "-//W3C//DTD SVG 1.1//EN"
 "http://www.w3.org/Graphics/SVG/1.1/DTD/svg11.dtd">
<!-- Generated by graphviz version 2.43.0 (0)
 -->
<!-- Title: include/math/fixed.hpp Pages: 1 -->
<svg width="241pt" height="247pt"
 viewBox="0.00 0.00 241.00 247.00" xmlns="http://www.w3.org/2000/svg" xmlns:xlink="http://www.w3.org/1999/xlink">

<svg id="main" version="1.1" xmlns="http://www.w3.org/2000/svg" xmlns:xlink="http://www.w3.org/1999/xlink" xml:space="preserve">

<style type="text/css"><![CDATA[
.node, .edge {opacity: 0.7;}
.node.selected, .edge.selected {opacity: 1;}
.edge:hover path { stroke: red; }
.edge:hover polygon { stroke: red; fill: red; }
]]></style>
<script type="application/ecmascript" xlink:href="../../svg.min.js"/>
<svg id="graph" class="graph">
<g id="graph0" class="graph" transform="scale(1 1) rotate(0) translate(4 243)">
<title>include/math/fixed.hpp</title>
<!-- Node1 -->
<g id="Node000001" class="node">
<title>Node1</title>
<g id="a_Node000001"><a xlink:title="Fixed&#45;point numeric type template and related concepts.">
<polygon fill="#999999" stroke="#666666" points="169,-239 41,-239 41,-220 169,-220 169,-239"/>
<text text-anchor="middle" x="105" y="-227" font-family="Helvetica,sans-Serif" font-size="10.00">include/math/fixed.hpp</text>
</a>
</g>
</g>
<!-- Node2 -->
<g id="Node000002" class="node">
<title>Node2</title>
<g id="a_Node000002"><a xlink:href="../../d4/d78/math_8hpp.html" target="_top" xlink:title="Umbrella header for the math module.">
<polygon fill="white" stroke="#666666" points="155.5,-129 54.5,-129 54.5,-110 155.5,-110 155.5,-129"/>
<text text-anchor="middle" x="105" y="-117" font-family="Helvetica,sans-Serif" font-size="10.00">include/math.hpp</text>
</a>
</g>
</g>
<!-- Node1&#45;&gt;Node2 -->
<g id="edge1_Node000001_Node000002" class="edge">
<title>Node1&#45;&gt;Node2</title>
<g id="a_edge1_Node000001_Node000002"><a xlink:title=" ">
<path fill="none" stroke="#63b8ff" d="M89.08,-212.34C82.43,-204.47 75.46,-194.46 72,-184 65.14,-163.24 83.31,-141.01 95.34,-129.14"/>
<polygon fill="#63b8ff" stroke="#63b8ff" points="86.67,-214.9 95.98,-219.96 91.86,-210.2 86.67,-214.9"/>
</a>
</g>
</g>
<!-- Node5 -->
<g id="Node000005" class="node">
<title>Node5</title>
<g id="a_Node000005"><a xlink:href="../../d3/dad/constants_8hpp.html" target="_top" xlink:title="Mathematical constants for floating&#45;point and toy::math::fixed_point types.">
<polygon fill="white" stroke="#666666" points="233,-184 81,-184 81,-165 233,-165 233,-184"/>
<text text-anchor="middle" x="157" y="-172" font-family="Helvetica,sans-Serif" font-size="10.00">include/math/constants.hpp</text>
</a>
</g>
</g>
<!-- Node1&#45;&gt;Node5 -->
<g id="edge5_Node000001_Node000005" class="edge">
<title>Node1&#45;&gt;Node5</title>
<g id="a_edge5_Node000001_Node000005"><a xlink:title=" ">
<path fill="none" stroke="#63b8ff" d="M120.68,-212.52C129.84,-203.18 141.05,-191.75 148.57,-184.09"/>
<polygon fill="#63b8ff" stroke="#63b8ff" points="118.09,-210.16 113.59,-219.75 123.09,-215.06 118.09,-210.16"/>
</a>
</g>
</g>
<!-- Node3 -->
<g id="Node000003" class="node">
<title>Node3</title>
<g id="a_Node000003"><a xlink:href="../../db/dbb/geometry_8hpp.html" target="_top" xlink:title="Umbrella header for the geometry module.">
<polygon fill="white" stroke="#666666" points="122,-74 0,-74 0,-55 122,-55 122,-74"/>
<text text-anchor="middle" x="61" y="-62" font-family="Helvetica,sans-Serif" font-size="10.00">include/geometry.hpp</text>
</a>
</g>
</g>
<!-- Node2&#45;&gt;Node3 -->
<g id="edge2_Node000002_Node000003" class="edge">
<title>Node2&#45;&gt;Node3</title>
<g id="a_edge2_Node000002_Node000003"><a xlink:title=" ">
<path fill="none" stroke="#63b8ff" d="M91.27,-101.96C83.6,-92.72 74.37,-81.6 68.13,-74.09"/>
<polygon fill="#63b8ff" stroke="#63b8ff" points="88.65,-104.29 97.73,-109.75 94.04,-99.82 88.65,-104.29"/>
</a>
</g>
</g>
<!-- Node4 -->
<g id="Node000004" class="node">
<title>Node4</title>
<g id="a_Node000004"><a xlink:href="../../d8/d8c/toygine2_8hpp.html" target="_top" xlink:title="Main umbrella header for the engine.">
<polygon fill="white" stroke="#666666" points="164.5,-19 45.5,-19 45.5,0 164.5,0 164.5,-19"/>
<text text-anchor="middle" x="105" y="-7" font-family="Helvetica,sans-Serif" font-size="10.00">include/toygine2.hpp</text>
</a>
</g>
</g>
<!-- Node2&#45;&gt;Node4 -->
<g id="edge4_Node000002_Node000004" class="edge">
<title>Node2&#45;&gt;Node4</title>
<g id="a_edge4_Node000002_Node000004"><a xlink:title=" ">
<path fill="none" stroke="#63b8ff" d="M117.72,-101.61C122.93,-93.67 128.34,-83.81 131,-74 136.48,-53.76 122.14,-31.34 112.64,-19.3"/>
<polygon fill="#63b8ff" stroke="#63b8ff" points="114.77,-99.73 111.89,-109.93 120.5,-103.75 114.77,-99.73"/>
</a>
</g>
</g>
<!-- Node3&#45;&gt;Node4 -->
<g id="edge3_Node000003_Node000004" class="edge">
<title>Node3&#45;&gt;Node4</title>
<g id="a_edge3_Node000003_Node000004"><a xlink:title=" ">
<path fill="none" stroke="#63b8ff" d="M74.73,-46.96C82.4,-37.72 91.63,-26.6 97.87,-19.09"/>
<polygon fill="#63b8ff" stroke="#63b8ff" points="71.96,-44.82 68.27,-54.75 77.35,-49.29 71.96,-44.82"/>
</a>
</g>
</g>
<!-- Node5&#45;&gt;Node2 -->
<g id="edge6_Node000005_Node000002" class="edge">
<title>Node5&#45;&gt;Node2</title>
<g id="a_edge6_Node000005_Node000002"><a xlink:title=" ">
<path fill="none" stroke="#63b8ff" d="M141.32,-157.52C132.16,-148.18 120.95,-136.75 113.43,-129.09"/>
<polygon fill="#63b8ff" stroke="#63b8ff" points="138.91,-160.06 148.41,-164.75 143.91,-155.16 138.91,-160.06"/>
</a>
</g>
</g>
</g>
</svg>
</svg>

<style type='text/css'>
<![CDATA[
[data-mouse-over-selected='false'] { opacity: 0.7; }
[data-mouse-over-selected='true']  { opacity: 1.0; }
]]>
</style>
<script type="application/ecmascript"><![CDATA[
document.addEventListener('DOMContentLoaded', (event) => {
  highlightEdges();
  highlightAdjacentNodes();
});
]]></script>
</svg>
