<?xml version="1.0" encoding="UTF-8" standalone="no"?>
<!DOCTYPE svg PUBLIC "-//W3C//DTD SVG 1.1//EN"
 "http://www.w3.org/Graphics/SVG/1.1/DTD/svg11.dtd">
<!-- Generated by graphviz version 2.43.0 (0)
 -->
<!-- Title: include/math/fixed.hpp Pages: 1 -->
<svg width="241pt" height="302pt"
 viewBox="0.00 0.00 241.00 302.00" xmlns="http://www.w3.org/2000/svg" xmlns:xlink="http://www.w3.org/1999/xlink">
<g id="page0,1_graph0" class="graph" transform="scale(1 1) rotate(0) translate(4 298)">
<title>include/math/fixed.hpp</title>
<!-- Node1 -->
<g id="Node000001" class="node">
<title>Node1</title>
<g id="a_Node000001"><a xlink:title="Fixed&#45;point numeric type template and related concepts.">
<polygon fill="#999999" stroke="#666666" points="169,-294 41,-294 41,-275 169,-275 169,-294"/>
<text text-anchor="middle" x="105" y="-282" font-family="Helvetica,sans-Serif" font-size="10.00">include/math/fixed.hpp</text>
</a>
</g>
</g>
<!-- Node2 -->
<g id="Node000002" class="node">
<title>Node2</title>
<g id="a_Node000002"><a xlink:href="../../d4/d78/math_8hpp.html" target="_top" xlink:title="Umbrella header for the math module.">
<polygon fill="white" stroke="#666666" points="155.5,-184 54.5,-184 54.5,-165 155.5,-165 155.5,-184"/>
<text text-anchor="middle" x="105" y="-172" font-family="Helvetica,sans-Serif" font-size="10.00">include/math.hpp</text>
</a>
</g>
</g>
<!-- Node1&#45;&gt;Node2 -->
<g id="edge1_Node000001_Node000002" class="edge">
<title>Node1&#45;&gt;Node2</title>
<g id="a_edge1_Node000001_Node000002"><a xlink:title=" ">
<path fill="none" stroke="#63b8ff" d="M89.08,-267.34C82.43,-259.47 75.46,-249.46 72,-239 65.14,-218.24 83.31,-196.01 95.34,-184.14"/>
<polygon fill="#63b8ff" stroke="#63b8ff" points="86.67,-269.9 95.98,-274.96 91.86,-265.2 86.67,-269.9"/>
</a>
</g>
</g>
<!-- Node6 -->
<g id="Node000006" class="node">
<title>Node6</title>
<g id="a_Node000006"><a xlink:href="../../d3/dad/constants_8hpp.html" target="_top" xlink:title="Mathematical constants for floating&#45;point and toy::math::fixed_point types.">
<polygon fill="white" stroke="#666666" points="233,-239 81,-239 81,-220 233,-220 233,-239"/>
<text text-anchor="middle" x="157" y="-227" font-family="Helvetica,sans-Serif" font-size="10.00">include/math/constants.hpp</text>
</a>
</g>
</g>
<!-- Node1&#45;&gt;Node6 -->
<g id="edge6_Node000001_Node000006" class="edge">
<title>Node1&#45;&gt;Node6</title>
<g id="a_edge6_Node000001_Node000006"><a xlink:title=" ">
<path fill="none" stroke="#63b8ff" d="M120.68,-267.52C129.84,-258.18 141.05,-246.75 148.57,-239.09"/>
<polygon fill="#63b8ff" stroke="#63b8ff" points="118.09,-265.16 113.59,-274.75 123.09,-270.06 118.09,-265.16"/>
</a>
</g>
</g>
<!-- Node3 -->
<g id="Node000003" class="node">
<title>Node3</title>
<g id="a_Node000003"><a xlink:href="../../db/dbb/geometry_8hpp.html" target="_top" xlink:title="Umbrella header for the geometry module.">
<polygon fill="white" stroke="#666666" points="122,-129 0,-129 0,-110 122,-110 122,-129"/>
<text text-anchor="middle" x="61" y="-117" font-family="Helvetica,sans-Serif" font-size="10.00">include/geometry.hpp</text>
</a>
</g>
</g>
<!-- Node2&#45;&gt;Node3 -->
<g id="edge2_Node000002_Node000003" class="edge">
<title>Node2&#45;&gt;Node3</title>
<g id="a_edge2_Node000002_Node000003"><a xlink:title=" ">
<path fill="none" stroke="#63b8ff" d="M91.27,-156.96C83.6,-147.72 74.37,-136.6 68.13,-129.09"/>
<polygon fill="#63b8ff" stroke="#63b8ff" points="88.65,-159.29 97.73,-164.75 94.04,-154.82 88.65,-159.29"/>
</a>
</g>
</g>
<!-- Node4 -->
<g id="Node000004" class="node">
<title>Node4</title>
<g id="a_Node000004"><a xlink:href="../../d8/d8c/toygine2_8hpp.html" target="_top" xlink:title="Main umbrella header for the engine.">
<polygon fill="white" stroke="#666666" points="164.5,-74 45.5,-74 45.5,-55 164.5,-55 164.5,-74"/>
<text text-anchor="middle" x="105" y="-62" font-family="Helvetica,sans-Serif" font-size="10.00">include/toygine2.hpp</text>
</a>
</g>
</g>
<!-- Node2&#45;&gt;Node4 -->
<g id="edge5_Node000002_Node000004" class="edge">
<title>Node2&#45;&gt;Node4</title>
<g id="a_edge5_Node000002_Node000004"><a xlink:title=" ">
<path fill="none" stroke="#63b8ff" d="M117.72,-156.61C122.93,-148.67 128.34,-138.81 131,-129 136.48,-108.76 122.14,-86.34 112.64,-74.3"/>
<polygon fill="#63b8ff" stroke="#63b8ff" points="114.77,-154.73 111.89,-164.93 120.5,-158.75 114.77,-154.73"/>
</a>
</g>
</g>
<!-- Node3&#45;&gt;Node4 -->
<g id="edge3_Node000003_Node000004" class="edge">
<title>Node3&#45;&gt;Node4</title>
<g id="a_edge3_Node000003_Node000004"><a xlink:title=" ">
<path fill="none" stroke="#63b8ff" d="M74.73,-101.96C82.4,-92.72 91.63,-81.6 97.87,-74.09"/>
<polygon fill="#63b8ff" stroke="#63b8ff" points="71.96,-99.82 68.27,-109.75 77.35,-104.29 71.96,-99.82"/>
</a>
</g>
</g>
<!-- Node5 -->
<g id="Node000005" class="node">
<title>Node5</title>
<g id="a_Node000005"><a xlink:href="../../df/d0a/main_8cpp.html" target="_top" xlink:title="Entry point of the Qt&#45;based ToyGine 2 editor.">
<polygon fill="white" stroke="#666666" points="160,-19 50,-19 50,0 160,0 160,-19"/>
<text text-anchor="middle" x="105" y="-7" font-family="Helvetica,sans-Serif" font-size="10.00">editor/src/main.cpp</text>
</a>
</g>
</g>
<!-- Node4&#45;&gt;Node5 -->
<g id="edge4_Node000004_Node000005" class="edge">
<title>Node4&#45;&gt;Node5</title>
<g id="a_edge4_Node000004_Node000005"><a xlink:title=" ">
<path fill="none" stroke="#63b8ff" d="M105,-44.66C105,-35.93 105,-25.99 105,-19.09"/>
<polygon fill="#63b8ff" stroke="#63b8ff" points="101.5,-44.75 105,-54.75 108.5,-44.75 101.5,-44.75"/>
</a>
</g>
</g>
<!-- Node6&#45;&gt;Node2 -->
<g id="edge7_Node000006_Node000002" class="edge">
<title>Node6&#45;&gt;Node2</title>
<g id="a_edge7_Node000006_Node000002"><a xlink:title=" ">
<path fill="none" stroke="#63b8ff" d="M141.32,-212.52C132.16,-203.18 120.95,-191.75 113.43,-184.09"/>
<polygon fill="#63b8ff" stroke="#63b8ff" points="138.91,-215.06 148.41,-219.75 143.91,-210.16 138.91,-215.06"/>
</a>
</g>
</g>
</g>
</svg>
