<?xml version="1.0" encoding="UTF-8" standalone="no"?>
<!DOCTYPE svg PUBLIC "-//W3C//DTD SVG 1.1//EN"
 "http://www.w3.org/Graphics/SVG/1.1/DTD/svg11.dtd">
<!-- Generated by graphviz version 14.1.2 (0)
 -->
<!-- Title: include/math/fixed.hpp Pages: 1 -->
<svg width="240pt" height="256pt"
 viewBox="0.00 0.00 240.00 256.00" xmlns="http://www.w3.org/2000/svg" xmlns:xlink="http://www.w3.org/1999/xlink">
<g id="page0,1_graph0" class="graph" transform="scale(1 1) rotate(0) translate(4 251.75)">
<title>include/math/fixed.hpp</title>
<!-- Node1 -->
<g id="Node000001" class="node">
<title>Node1</title>
<g id="a_Node000001"><a xlink:title="Fixed&#45;point numeric type template and related concepts.">
<polygon fill="#999999" stroke="#666666" points="168,-247.75 41,-247.75 41,-227 168,-227 168,-247.75"/>
<text xml:space="preserve" text-anchor="middle" x="104.5" y="-234.25" font-family="Helvetica,sans-Serif" font-size="10.00">include/math/fixed.hpp</text>
</a>
</g>
</g>
<!-- Node2 -->
<g id="Node000002" class="node">
<title>Node2</title>
<g id="a_Node000002"><a xlink:href="../../d4/d78/math_8hpp.html" target="_top" xlink:title="Umbrella header for the math module.">
<polygon fill="white" stroke="#666666" points="154.88,-134.25 54.12,-134.25 54.12,-113.5 154.88,-113.5 154.88,-134.25"/>
<text xml:space="preserve" text-anchor="middle" x="104.5" y="-120.75" font-family="Helvetica,sans-Serif" font-size="10.00">include/math.hpp</text>
</a>
</g>
</g>
<!-- Node1&#45;&gt;Node2 -->
<g id="edge1_Node000001_Node000002" class="edge">
<title>Node1&#45;&gt;Node2</title>
<g id="a_edge1_Node000001_Node000002"><a xlink:title=" ">
<path fill="none" stroke="#63b8ff" d="M87.19,-218.15C80.97,-210.4 74.71,-200.88 71.5,-191 68.65,-182.23 68.65,-179.02 71.5,-170.25 76.02,-156.36 86.57,-143.17 94.54,-134.62"/>
<polygon fill="#63b8ff" stroke="#63b8ff" points="84.35,-220.22 93.54,-225.48 89.64,-215.63 84.35,-220.22"/>
</a>
</g>
</g>
<!-- Node5 -->
<g id="Node000005" class="node">
<title>Node5</title>
<g id="a_Node000005"><a xlink:href="../../d3/dad/constants_8hpp.html" target="_top" xlink:title="Mathematical constants for floating&#45;point and toy::math::fixed_point types.">
<polygon fill="white" stroke="#666666" points="232,-191 81,-191 81,-170.25 232,-170.25 232,-191"/>
<text xml:space="preserve" text-anchor="middle" x="156.5" y="-177.5" font-family="Helvetica,sans-Serif" font-size="10.00">include/math/constants.hpp</text>
</a>
</g>
</g>
<!-- Node1&#45;&gt;Node5 -->
<g id="edge5_Node000001_Node000005" class="edge">
<title>Node1&#45;&gt;Node5</title>
<g id="a_edge5_Node000001_Node000005"><a xlink:title=" ">
<path fill="none" stroke="#63b8ff" d="M121.7,-218.27C130.23,-209.28 140.21,-198.78 147.28,-191.33"/>
<polygon fill="#63b8ff" stroke="#63b8ff" points="119.19,-215.83 114.84,-225.49 124.26,-220.65 119.19,-215.83"/>
</a>
</g>
</g>
<!-- Node3 -->
<g id="Node000003" class="node">
<title>Node3</title>
<g id="a_Node000003"><a xlink:href="../../db/dbb/geometry_8hpp.html" target="_top" xlink:title="Umbrella header for the geometry module.">
<polygon fill="white" stroke="#666666" points="121,-77.5 0,-77.5 0,-56.75 121,-56.75 121,-77.5"/>
<text xml:space="preserve" text-anchor="middle" x="60.5" y="-64" font-family="Helvetica,sans-Serif" font-size="10.00">include/geometry.hpp</text>
</a>
</g>
</g>
<!-- Node2&#45;&gt;Node3 -->
<g id="edge2_Node000002_Node000003" class="edge">
<title>Node2&#45;&gt;Node3</title>
<g id="a_edge2_Node000002_Node000003"><a xlink:title=" ">
<path fill="none" stroke="#63b8ff" d="M89.5,-104.21C82.38,-95.34 74.16,-85.12 68.3,-77.83"/>
<polygon fill="#63b8ff" stroke="#63b8ff" points="86.69,-106.3 95.69,-111.91 92.15,-101.92 86.69,-106.3"/>
</a>
</g>
</g>
<!-- Node4 -->
<g id="Node000004" class="node">
<title>Node4</title>
<g id="a_Node000004"><a xlink:href="../../d8/d8c/toygine2_8hpp.html" target="_top" xlink:title="Main umbrella header for the engine.">
<polygon fill="white" stroke="#666666" points="163.5,-20.75 45.5,-20.75 45.5,0 163.5,0 163.5,-20.75"/>
<text xml:space="preserve" text-anchor="middle" x="104.5" y="-7.25" font-family="Helvetica,sans-Serif" font-size="10.00">include/toygine2.hpp</text>
</a>
</g>
</g>
<!-- Node2&#45;&gt;Node4 -->
<g id="edge4_Node000002_Node000004" class="edge">
<title>Node2&#45;&gt;Node4</title>
<g id="a_edge4_Node000002_Node000004"><a xlink:title=" ">
<path fill="none" stroke="#63b8ff" d="M118.48,-103.64C123.28,-95.91 128.06,-86.67 130.5,-77.5 132.87,-68.59 132.87,-65.66 130.5,-56.75 126.95,-43.41 118.45,-29.92 112.13,-21.15"/>
<polygon fill="#63b8ff" stroke="#63b8ff" points="115.64,-101.59 112.97,-111.84 121.45,-105.49 115.64,-101.59"/>
</a>
</g>
</g>
<!-- Node3&#45;&gt;Node4 -->
<g id="edge3_Node000003_Node000004" class="edge">
<title>Node3&#45;&gt;Node4</title>
<g id="a_edge3_Node000003_Node000004"><a xlink:title=" ">
<path fill="none" stroke="#63b8ff" d="M75.5,-47.46C82.62,-38.59 90.84,-28.37 96.7,-21.08"/>
<polygon fill="#63b8ff" stroke="#63b8ff" points="72.85,-45.17 69.31,-55.16 78.31,-49.55 72.85,-45.17"/>
</a>
</g>
</g>
<!-- Node5&#45;&gt;Node2 -->
<g id="edge6_Node000005_Node000002" class="edge">
<title>Node5&#45;&gt;Node2</title>
<g id="a_edge6_Node000005_Node000002"><a xlink:title=" ">
<path fill="none" stroke="#63b8ff" d="M139.3,-161.52C130.77,-152.53 120.79,-142.03 113.72,-134.58"/>
<polygon fill="#63b8ff" stroke="#63b8ff" points="136.74,-163.9 146.16,-168.74 141.81,-159.08 136.74,-163.9"/>
</a>
</g>
</g>
</g>
</svg>
