<?xml version="1.0" encoding="UTF-8" standalone="no"?>
<!DOCTYPE svg PUBLIC "-//W3C//DTD SVG 1.1//EN"
 "http://www.w3.org/Graphics/SVG/1.1/DTD/svg11.dtd">
<!-- Generated by graphviz version 2.43.0 (0)
 -->
<!-- Title: include/core/platform.hpp Pages: 1 -->
<svg width="1373pt" height="324pt"
 viewBox="0.00 0.00 1372.50 324.00" xmlns="http://www.w3.org/2000/svg" xmlns:xlink="http://www.w3.org/1999/xlink">
<g id="graph0" class="graph" transform="scale(1 1) rotate(0) translate(4 320)">
<title>include/core/platform.hpp</title>
<!-- Node1 -->
<g id="Node000001" class="node">
<title>Node1</title>
<g id="a_Node000001"><a xlink:title="Platform and CPU architecture enumerations with compile&#45;time and runtime detection.">
<polygon fill="#999999" stroke="#666666" points="864,-316 722,-316 722,-297 864,-297 864,-316"/>
<text text-anchor="middle" x="793" y="-304" font-family="Helvetica,sans-Serif" font-size="10.00">include/core/platform.hpp</text>
</a>
</g>
</g>
<!-- Node2 -->
<g id="Node000002" class="node">
<title>Node2</title>
<g id="a_Node000002"><a xlink:href="../../da/d47/core_8hpp.html" target="_top" xlink:title="Umbrella header for the engine core module.">
<polygon fill="white" stroke="#666666" points="566.5,-195 469.5,-195 469.5,-176 566.5,-176 566.5,-195"/>
<text text-anchor="middle" x="518" y="-183" font-family="Helvetica,sans-Serif" font-size="10.00">include/core.hpp</text>
</a>
</g>
</g>
<!-- Node1&#45;&gt;Node2 -->
<g id="edge1_Node000001_Node000002" class="edge">
<title>Node1&#45;&gt;Node2</title>
<g id="a_edge1_Node000001_Node000002"><a xlink:title=" ">
<path fill="none" stroke="#63b8ff" d="M711.51,-303.52C585.25,-299.6 354.17,-288.7 329,-261 285.77,-213.43 399.88,-195.83 469.22,-189.64"/>
<polygon fill="#63b8ff" stroke="#63b8ff" points="711.43,-307.02 721.53,-303.82 711.64,-300.02 711.43,-307.02"/>
</a>
</g>
</g>
<!-- Node16 -->
<g id="Node000016" class="node">
<title>Node16</title>
<g id="a_Node000016"><a xlink:href="../../d5/d82/3ds_2platform__config_8hpp.html" target="_top" xlink:title="additional nintendo 3ds platform header">
<polygon fill="white" stroke="#666666" points="484,-261 338,-261 338,-231 484,-231 484,-261"/>
<text text-anchor="start" x="346" y="-249" font-family="Helvetica,sans-Serif" font-size="10.00">src/platforms/3ds/platform</text>
<text text-anchor="middle" x="411" y="-238" font-family="Helvetica,sans-Serif" font-size="10.00">_config.hpp</text>
</a>
</g>
</g>
<!-- Node1&#45;&gt;Node16 -->
<g id="edge22_Node000001_Node000016" class="edge">
<title>Node1&#45;&gt;Node16</title>
<g id="a_edge22_Node000001_Node000016"><a xlink:title=" ">
<path fill="none" stroke="#63b8ff" d="M722.64,-295.51C661.8,-286.76 571.52,-273.53 493,-261 490.15,-260.55 487.24,-260.08 484.3,-259.6"/>
<polygon fill="#63b8ff" stroke="#63b8ff" points="722.5,-299.02 732.89,-296.98 723.49,-292.09 722.5,-299.02"/>
</a>
</g>
</g>
<!-- Node17 -->
<g id="Node000017" class="node">
<title>Node17</title>
<g id="a_Node000017"><a xlink:href="../../df/db1/gba_2platform__config_8hpp.html" target="_top" xlink:title="additional nintendo game boy advance platform header">
<polygon fill="white" stroke="#666666" points="649.5,-261 502.5,-261 502.5,-231 649.5,-231 649.5,-261"/>
<text text-anchor="start" x="510.5" y="-249" font-family="Helvetica,sans-Serif" font-size="10.00">src/platforms/gba/platform</text>
<text text-anchor="middle" x="576" y="-238" font-family="Helvetica,sans-Serif" font-size="10.00">_config.hpp</text>
</a>
</g>
</g>
<!-- Node1&#45;&gt;Node17 -->
<g id="edge23_Node000001_Node000017" class="edge">
<title>Node1&#45;&gt;Node17</title>
<g id="a_edge23_Node000001_Node000017"><a xlink:title=" ">
<path fill="none" stroke="#63b8ff" d="M751.53,-294.32C716.45,-284.86 665.99,-271.26 628.17,-261.06"/>
<polygon fill="#63b8ff" stroke="#63b8ff" points="750.88,-297.77 761.45,-296.99 752.7,-291.01 750.88,-297.77"/>
</a>
</g>
</g>
<!-- Node18 -->
<g id="Node000018" class="node">
<title>Node18</title>
<g id="a_Node000018"><a xlink:href="../../dd/d9e/linux_2platform__config_8hpp.html" target="_top" xlink:title="additional linux platform header">
<polygon fill="white" stroke="#666666" points="784.5,-261 667.5,-261 667.5,-231 784.5,-231 784.5,-261"/>
<text text-anchor="start" x="675.5" y="-249" font-family="Helvetica,sans-Serif" font-size="10.00">src/platforms/linux</text>
<text text-anchor="middle" x="726" y="-238" font-family="Helvetica,sans-Serif" font-size="10.00">/platform_config.hpp</text>
</a>
</g>
</g>
<!-- Node1&#45;&gt;Node18 -->
<g id="edge24_Node000001_Node000018" class="edge">
<title>Node1&#45;&gt;Node18</title>
<g id="a_edge24_Node000001_Node000018"><a xlink:title=" ">
<path fill="none" stroke="#63b8ff" d="M775.52,-290.23C765.2,-281.23 752.24,-269.91 742.17,-261.11"/>
<polygon fill="#63b8ff" stroke="#63b8ff" points="773.28,-292.93 783.11,-296.87 777.88,-287.65 773.28,-292.93"/>
</a>
</g>
</g>
<!-- Node19 -->
<g id="Node000019" class="node">
<title>Node19</title>
<g id="a_Node000019"><a xlink:href="../../d8/d80/macos_2platform__config_8hpp.html" target="_top" xlink:title="additional macOS platform header">
<polygon fill="white" stroke="#666666" points="919.5,-261 802.5,-261 802.5,-231 919.5,-231 919.5,-261"/>
<text text-anchor="start" x="810.5" y="-249" font-family="Helvetica,sans-Serif" font-size="10.00">src/platforms/macos</text>
<text text-anchor="middle" x="861" y="-238" font-family="Helvetica,sans-Serif" font-size="10.00">/platform_config.hpp</text>
</a>
</g>
</g>
<!-- Node1&#45;&gt;Node19 -->
<g id="edge26_Node000001_Node000019" class="edge">
<title>Node1&#45;&gt;Node19</title>
<g id="a_edge26_Node000001_Node000019"><a xlink:title=" ">
<path fill="none" stroke="#63b8ff" d="M810.74,-290.23C821.21,-281.23 834.37,-269.91 844.59,-261.11"/>
<polygon fill="#63b8ff" stroke="#63b8ff" points="808.33,-287.69 803.03,-296.87 812.9,-293 808.33,-287.69"/>
</a>
</g>
</g>
<!-- Node20 -->
<g id="Node000020" class="node">
<title>Node20</title>
<g id="a_Node000020"><a xlink:href="../../dc/d74/nds_2platform__config_8hpp.html" target="_top" xlink:title="additional nintendo ds platform header">
<polygon fill="white" stroke="#666666" points="1084,-261 938,-261 938,-231 1084,-231 1084,-261"/>
<text text-anchor="start" x="946" y="-249" font-family="Helvetica,sans-Serif" font-size="10.00">src/platforms/nds/platform</text>
<text text-anchor="middle" x="1011" y="-238" font-family="Helvetica,sans-Serif" font-size="10.00">_config.hpp</text>
</a>
</g>
</g>
<!-- Node1&#45;&gt;Node20 -->
<g id="edge27_Node000001_Node000020" class="edge">
<title>Node1&#45;&gt;Node20</title>
<g id="a_edge27_Node000001_Node000020"><a xlink:title=" ">
<path fill="none" stroke="#63b8ff" d="M834.66,-294.32C869.9,-284.86 920.59,-271.26 958.59,-261.06"/>
<polygon fill="#63b8ff" stroke="#63b8ff" points="833.45,-291.02 824.7,-296.99 835.26,-297.78 833.45,-291.02"/>
</a>
</g>
</g>
<!-- Node21 -->
<g id="Node000021" class="node">
<title>Node21</title>
<g id="a_Node000021"><a xlink:href="../../db/d83/switch_2platform__config_8hpp.html" target="_top" xlink:title="additional nintendo switch platform header">
<polygon fill="white" stroke="#666666" points="1219.5,-261 1102.5,-261 1102.5,-231 1219.5,-231 1219.5,-261"/>
<text text-anchor="start" x="1110.5" y="-249" font-family="Helvetica,sans-Serif" font-size="10.00">src/platforms/switch</text>
<text text-anchor="middle" x="1161" y="-238" font-family="Helvetica,sans-Serif" font-size="10.00">/platform_config.hpp</text>
</a>
</g>
</g>
<!-- Node1&#45;&gt;Node21 -->
<g id="edge28_Node000001_Node000021" class="edge">
<title>Node1&#45;&gt;Node21</title>
<g id="a_edge28_Node000001_Node000021"><a xlink:title=" ">
<path fill="none" stroke="#63b8ff" d="M867.81,-295.58C928.62,-287.24 1016.54,-274.53 1093,-261 1096.09,-260.45 1099.25,-259.87 1102.43,-259.27"/>
<polygon fill="#63b8ff" stroke="#63b8ff" points="866.98,-292.16 857.54,-296.99 867.92,-299.1 866.98,-292.16"/>
</a>
</g>
</g>
<!-- Node22 -->
<g id="Node000022" class="node">
<title>Node22</title>
<g id="a_Node000022"><a xlink:href="../../db/d29/windows_2platform__config_8hpp.html" target="_top" xlink:title="additional windows platform header">
<polygon fill="white" stroke="#666666" points="1364.5,-261 1237.5,-261 1237.5,-231 1364.5,-231 1364.5,-261"/>
<text text-anchor="start" x="1245.5" y="-249" font-family="Helvetica,sans-Serif" font-size="10.00">src/platforms/windows</text>
<text text-anchor="middle" x="1301" y="-238" font-family="Helvetica,sans-Serif" font-size="10.00">/platform_config.hpp</text>
</a>
</g>
</g>
<!-- Node1&#45;&gt;Node22 -->
<g id="edge29_Node000001_Node000022" class="edge">
<title>Node1&#45;&gt;Node22</title>
<g id="a_edge29_Node000001_Node000022"><a xlink:title=" ">
<path fill="none" stroke="#63b8ff" d="M874.39,-299.4C962.18,-292.31 1105.92,-279.21 1229,-261 1231.77,-260.59 1234.6,-260.15 1237.45,-259.68"/>
<polygon fill="#63b8ff" stroke="#63b8ff" points="873.92,-295.93 864.23,-300.22 874.48,-302.91 873.92,-295.93"/>
</a>
</g>
</g>
<!-- Node3 -->
<g id="Node000003" class="node">
<title>Node3</title>
<g id="a_Node000003"><a xlink:href="../../d4/d01/application_8hpp.html" target="_top" xlink:title="Umbrella header for the app module.">
<polygon fill="white" stroke="#666666" points="130,-74 0,-74 0,-55 130,-55 130,-74"/>
<text text-anchor="middle" x="65" y="-62" font-family="Helvetica,sans-Serif" font-size="10.00">include/application.hpp</text>
</a>
</g>
</g>
<!-- Node2&#45;&gt;Node3 -->
<g id="edge2_Node000002_Node000003" class="edge">
<title>Node2&#45;&gt;Node3</title>
<g id="a_edge2_Node000002_Node000003"><a xlink:title=" ">
<path fill="none" stroke="#63b8ff" d="M459.05,-181.98C368.15,-177.34 198.54,-165.5 144,-140 111.21,-124.67 83.17,-90.43 71.2,-74.27"/>
<polygon fill="#63b8ff" stroke="#63b8ff" points="459.03,-185.48 469.2,-182.48 459.38,-178.49 459.03,-185.48"/>
</a>
</g>
</g>
<!-- Node4 -->
<g id="Node000004" class="node">
<title>Node4</title>
<g id="a_Node000004"><a xlink:href="../../d8/d8c/toygine2_8hpp.html" target="_top" xlink:title="Main umbrella header for the engine.">
<polygon fill="white" stroke="#666666" points="421.5,-19 302.5,-19 302.5,0 421.5,0 421.5,-19"/>
<text text-anchor="middle" x="362" y="-7" font-family="Helvetica,sans-Serif" font-size="10.00">include/toygine2.hpp</text>
</a>
</g>
</g>
<!-- Node2&#45;&gt;Node4 -->
<g id="edge18_Node000002_Node000004" class="edge">
<title>Node2&#45;&gt;Node4</title>
<g id="a_edge18_Node000002_Node000004"><a xlink:title=" ">
<path fill="none" stroke="#63b8ff" d="M459.16,-179.7C388.63,-173.16 275.28,-159.94 238,-140 202.78,-121.16 191.56,-111.2 177,-74 173.92,-66.14 171.77,-61.63 177,-55 192.49,-35.35 254.44,-23.37 302.43,-16.87"/>
<polygon fill="#63b8ff" stroke="#63b8ff" points="458.96,-183.19 469.24,-180.61 459.59,-176.22 458.96,-183.19"/>
</a>
</g>
</g>
<!-- Node5 -->
<g id="Node000005" class="node">
<title>Node5</title>
<g id="a_Node000005"><a xlink:href="../../d1/d71/audio_8hpp.html" target="_top" xlink:title="Umbrella header for the audio module.">
<polygon fill="white" stroke="#666666" points="289.5,-74 186.5,-74 186.5,-55 289.5,-55 289.5,-74"/>
<text text-anchor="middle" x="238" y="-62" font-family="Helvetica,sans-Serif" font-size="10.00">include/audio.hpp</text>
</a>
</g>
</g>
<!-- Node2&#45;&gt;Node5 -->
<g id="edge4_Node000002_Node000005" class="edge">
<title>Node2&#45;&gt;Node5</title>
<g id="a_edge4_Node000002_Node000005"><a xlink:title=" ">
<path fill="none" stroke="#63b8ff" d="M459.18,-181.78C391.42,-177.42 285.73,-166.49 257,-140 238.26,-122.72 236.91,-89.75 237.43,-74.13"/>
<polygon fill="#63b8ff" stroke="#63b8ff" points="459.1,-185.28 469.29,-182.4 459.53,-178.29 459.1,-185.28"/>
</a>
</g>
</g>
<!-- Node6 -->
<g id="Node000006" class="node">
<title>Node6</title>
<g id="a_Node000006"><a xlink:href="../../d8/d39/game_8hpp.html" target="_top" xlink:title="Umbrella header for the game module.">
<polygon fill="white" stroke="#666666" points="370,-134.5 266,-134.5 266,-115.5 370,-115.5 370,-134.5"/>
<text text-anchor="middle" x="318" y="-122.5" font-family="Helvetica,sans-Serif" font-size="10.00">include/game.hpp</text>
</a>
</g>
</g>
<!-- Node2&#45;&gt;Node6 -->
<g id="edge6_Node000002_Node000006" class="edge">
<title>Node2&#45;&gt;Node6</title>
<g id="a_edge6_Node000002_Node000006"><a xlink:title=" ">
<path fill="none" stroke="#63b8ff" d="M479.05,-173.11C440.37,-161.79 381.94,-144.7 347.12,-134.52"/>
<polygon fill="#63b8ff" stroke="#63b8ff" points="478.34,-176.55 488.92,-175.99 480.3,-169.83 478.34,-176.55"/>
</a>
</g>
</g>
<!-- Node7 -->
<g id="Node000007" class="node">
<title>Node7</title>
<g id="a_Node000007"><a xlink:href="../../d4/d78/math_8hpp.html" target="_top" xlink:title="Umbrella header for the math module.">
<polygon fill="white" stroke="#666666" points="489.5,-134.5 388.5,-134.5 388.5,-115.5 489.5,-115.5 489.5,-134.5"/>
<text text-anchor="middle" x="439" y="-122.5" font-family="Helvetica,sans-Serif" font-size="10.00">include/math.hpp</text>
</a>
</g>
</g>
<!-- Node2&#45;&gt;Node7 -->
<g id="edge7_Node000002_Node000007" class="edge">
<title>Node2&#45;&gt;Node7</title>
<g id="a_edge7_Node000002_Node000007"><a xlink:title=" ">
<path fill="none" stroke="#63b8ff" d="M498.21,-169.85C483.25,-158.77 463.21,-143.93 450.7,-134.67"/>
<polygon fill="#63b8ff" stroke="#63b8ff" points="496.22,-172.73 506.34,-175.87 500.39,-167.1 496.22,-172.73"/>
</a>
</g>
</g>
<!-- Node9 -->
<g id="Node000009" class="node">
<title>Node9</title>
<g id="a_Node000009"><a xlink:href="../../d6/d67/network_8hpp.html" target="_top" xlink:title="Umbrella header for the network module.">
<polygon fill="white" stroke="#666666" points="602,-74 486,-74 486,-55 602,-55 602,-74"/>
<text text-anchor="middle" x="544" y="-62" font-family="Helvetica,sans-Serif" font-size="10.00">include/network.hpp</text>
</a>
</g>
</g>
<!-- Node2&#45;&gt;Node9 -->
<g id="edge11_Node000002_Node000009" class="edge">
<title>Node2&#45;&gt;Node9</title>
<g id="a_edge11_Node000002_Node000009"><a xlink:title=" ">
<path fill="none" stroke="#63b8ff" d="M522.07,-165.86C527.76,-139.81 537.87,-93.56 542.08,-74.3"/>
<polygon fill="#63b8ff" stroke="#63b8ff" points="518.59,-165.43 519.87,-175.94 525.42,-166.92 518.59,-165.43"/>
</a>
</g>
</g>
<!-- Node10 -->
<g id="Node000010" class="node">
<title>Node10</title>
<g id="a_Node000010"><a xlink:href="../../de/dd6/ui_8hpp.html" target="_top" xlink:title="Umbrella header for platform UI types.">
<polygon fill="white" stroke="#666666" points="750,-74 620,-74 620,-55 750,-55 750,-74"/>
<text text-anchor="middle" x="685" y="-62" font-family="Helvetica,sans-Serif" font-size="10.00">include/platform/ui.hpp</text>
</a>
</g>
</g>
<!-- Node2&#45;&gt;Node10 -->
<g id="edge13_Node000002_Node000010" class="edge">
<title>Node2&#45;&gt;Node10</title>
<g id="a_edge13_Node000002_Node000010"><a xlink:title=" ">
<path fill="none" stroke="#63b8ff" d="M527.51,-167.22C537.44,-150.58 554.43,-125.68 575,-110 597.78,-92.65 628.25,-81.02 651.35,-74.01"/>
<polygon fill="#63b8ff" stroke="#63b8ff" points="524.45,-165.52 522.5,-175.94 530.52,-169.01 524.45,-165.52"/>
</a>
</g>
</g>
<!-- Node11 -->
<g id="Node000011" class="node">
<title>Node11</title>
<g id="a_Node000011"><a xlink:href="../../d6/d4b/render_8hpp.html" target="_top" xlink:title="Umbrella header for the render module.">
<polygon fill="white" stroke="#666666" points="691.5,-134.5 584.5,-134.5 584.5,-115.5 691.5,-115.5 691.5,-134.5"/>
<text text-anchor="middle" x="638" y="-122.5" font-family="Helvetica,sans-Serif" font-size="10.00">include/render.hpp</text>
</a>
</g>
</g>
<!-- Node2&#45;&gt;Node11 -->
<g id="edge15_Node000002_Node000011" class="edge">
<title>Node2&#45;&gt;Node11</title>
<g id="a_edge15_Node000002_Node000011"><a xlink:title=" ">
<path fill="none" stroke="#63b8ff" d="M544.7,-171.48C567.83,-160.21 600.61,-144.23 620.53,-134.52"/>
<polygon fill="#63b8ff" stroke="#63b8ff" points="542.9,-168.47 535.45,-175.99 545.97,-174.76 542.9,-168.47"/>
</a>
</g>
</g>
<!-- Node13 -->
<g id="Node000013" class="node">
<title>Node13</title>
<g id="a_Node000013"><a xlink:href="../../db/d2d/hashes_8cpp.html" target="_top" xlink:title="Implementation of CRC hash functions with lookup tables for optimal performance.">
<polygon fill="white" stroke="#666666" points="822.5,-134.5 709.5,-134.5 709.5,-115.5 822.5,-115.5 822.5,-134.5"/>
<text text-anchor="middle" x="766" y="-122.5" font-family="Helvetica,sans-Serif" font-size="10.00">src/core/hashes.cpp</text>
</a>
</g>
</g>
<!-- Node2&#45;&gt;Node13 -->
<g id="edge19_Node000002_Node000013" class="edge">
<title>Node2&#45;&gt;Node13</title>
<g id="a_edge19_Node000002_Node000013"><a xlink:title=" ">
<path fill="none" stroke="#63b8ff" d="M563.87,-173.68C611.79,-162.38 685.98,-144.88 729.9,-134.52"/>
<polygon fill="#63b8ff" stroke="#63b8ff" points="562.99,-170.29 554.06,-175.99 564.6,-177.1 562.99,-170.29"/>
</a>
</g>
</g>
<!-- Node14 -->
<g id="Node000014" class="node">
<title>Node14</title>
<g id="a_Node000014"><a xlink:href="../../de/d06/utils_8cpp.html" target="_top" xlink:title="Implementation of core utility functions for string manipulation, encoding conversion,...">
<polygon fill="white" stroke="#666666" points="939.5,-134.5 840.5,-134.5 840.5,-115.5 939.5,-115.5 939.5,-134.5"/>
<text text-anchor="middle" x="890" y="-122.5" font-family="Helvetica,sans-Serif" font-size="10.00">src/core/utils.cpp</text>
</a>
</g>
</g>
<!-- Node2&#45;&gt;Node14 -->
<g id="edge20_Node000002_Node000014" class="edge">
<title>Node2&#45;&gt;Node14</title>
<g id="a_edge20_Node000002_Node000014"><a xlink:title=" ">
<path fill="none" stroke="#63b8ff" d="M576.91,-177.76C640.03,-170.16 743.01,-156.66 831,-140 839.27,-138.43 848.14,-136.48 856.42,-134.53"/>
<polygon fill="#63b8ff" stroke="#63b8ff" points="576.27,-174.31 566.75,-178.97 577.1,-181.26 576.27,-174.31"/>
</a>
</g>
</g>
<!-- Node15 -->
<g id="Node000015" class="node">
<title>Node15</title>
<g id="a_Node000015"><a xlink:href="../../d7/d90/assertion__stub_8cpp.html" target="_top" xlink:title="Stub implementation of assertion system for platforms without native assertion support.">
<polygon fill="white" stroke="#666666" points="1092.5,-140 957.5,-140 957.5,-110 1092.5,-110 1092.5,-140"/>
<text text-anchor="start" x="965.5" y="-128" font-family="Helvetica,sans-Serif" font-size="10.00">src/platforms/stub</text>
<text text-anchor="middle" x="1025" y="-117" font-family="Helvetica,sans-Serif" font-size="10.00">/core/assertion_stub.cpp</text>
</a>
</g>
</g>
<!-- Node2&#45;&gt;Node15 -->
<g id="edge21_Node000002_Node000015" class="edge">
<title>Node2&#45;&gt;Node15</title>
<g id="a_edge21_Node000002_Node000015"><a xlink:title=" ">
<path fill="none" stroke="#63b8ff" d="M576.5,-179.88C659.39,-173.01 815.69,-158.85 948,-140 951.09,-139.56 954.25,-139.08 957.44,-138.59"/>
<polygon fill="#63b8ff" stroke="#63b8ff" points="576.19,-176.39 566.51,-180.7 576.77,-183.37 576.19,-176.39"/>
</a>
</g>
</g>
<!-- Node3&#45;&gt;Node4 -->
<g id="edge3_Node000003_Node000004" class="edge">
<title>Node3&#45;&gt;Node4</title>
<g id="a_edge3_Node000003_Node000004"><a xlink:title=" ">
<path fill="none" stroke="#63b8ff" d="M122.78,-53.19C178.46,-43.25 261.74,-28.39 313.91,-19.08"/>
<polygon fill="#63b8ff" stroke="#63b8ff" points="121.95,-49.78 112.72,-54.98 123.18,-56.67 121.95,-49.78"/>
</a>
</g>
</g>
<!-- Node5&#45;&gt;Node4 -->
<g id="edge5_Node000005_Node000004" class="edge">
<title>Node5&#45;&gt;Node4</title>
<g id="a_edge5_Node000005_Node000004"><a xlink:title=" ">
<path fill="none" stroke="#63b8ff" d="M267.18,-51.03C290.11,-41.23 321.45,-27.83 341.71,-19.17"/>
<polygon fill="#63b8ff" stroke="#63b8ff" points="265.74,-47.84 257.92,-54.98 268.49,-54.27 265.74,-47.84"/>
</a>
</g>
</g>
<!-- Node7&#45;&gt;Node4 -->
<g id="edge10_Node000007_Node000004" class="edge">
<title>Node7&#45;&gt;Node4</title>
<g id="a_edge10_Node000007_Node000004"><a xlink:title=" ">
<path fill="none" stroke="#63b8ff" d="M389.66,-112.16C369.73,-104.69 348.7,-92.77 337,-74 325.72,-55.9 342.66,-31.86 353.71,-19.18"/>
<polygon fill="#63b8ff" stroke="#63b8ff" points="388.72,-115.54 399.31,-115.48 390.99,-108.92 388.72,-115.54"/>
</a>
</g>
</g>
<!-- Node8 -->
<g id="Node000008" class="node">
<title>Node8</title>
<g id="a_Node000008"><a xlink:href="../../db/dbb/geometry_8hpp.html" target="_top" xlink:title="Umbrella header for the geometry module.">
<polygon fill="white" stroke="#666666" points="468,-74 346,-74 346,-55 468,-55 468,-74"/>
<text text-anchor="middle" x="407" y="-62" font-family="Helvetica,sans-Serif" font-size="10.00">include/geometry.hpp</text>
</a>
</g>
</g>
<!-- Node7&#45;&gt;Node8 -->
<g id="edge8_Node000007_Node000008" class="edge">
<title>Node7&#45;&gt;Node8</title>
<g id="a_edge8_Node000007_Node000008"><a xlink:title=" ">
<path fill="none" stroke="#63b8ff" d="M429.42,-106.48C423.58,-95.81 416.38,-82.65 411.74,-74.17"/>
<polygon fill="#63b8ff" stroke="#63b8ff" points="426.41,-108.27 434.28,-115.37 432.55,-104.92 426.41,-108.27"/>
</a>
</g>
</g>
<!-- Node8&#45;&gt;Node4 -->
<g id="edge9_Node000008_Node000004" class="edge">
<title>Node8&#45;&gt;Node4</title>
<g id="a_edge9_Node000008_Node000004"><a xlink:title=" ">
<path fill="none" stroke="#63b8ff" d="M392.95,-46.96C385.11,-37.72 375.67,-26.6 369.29,-19.09"/>
<polygon fill="#63b8ff" stroke="#63b8ff" points="390.43,-49.39 399.57,-54.75 395.76,-44.86 390.43,-49.39"/>
</a>
</g>
</g>
<!-- Node9&#45;&gt;Node4 -->
<g id="edge12_Node000009_Node000004" class="edge">
<title>Node9&#45;&gt;Node4</title>
<g id="a_edge12_Node000009_Node000004"><a xlink:title=" ">
<path fill="none" stroke="#63b8ff" d="M505.14,-52.18C471.1,-42.27 422.38,-28.08 391.47,-19.08"/>
<polygon fill="#63b8ff" stroke="#63b8ff" points="504.18,-55.55 514.76,-54.98 506.14,-48.83 504.18,-55.55"/>
</a>
</g>
</g>
<!-- Node10&#45;&gt;Node4 -->
<g id="edge14_Node000010_Node000004" class="edge">
<title>Node10&#45;&gt;Node4</title>
<g id="a_edge14_Node000010_Node000004"><a xlink:title=" ">
<path fill="none" stroke="#63b8ff" d="M622.9,-53.31C562.24,-43.36 470.98,-28.38 414.03,-19.04"/>
<polygon fill="#63b8ff" stroke="#63b8ff" points="622.67,-56.82 633.1,-54.98 623.8,-49.91 622.67,-56.82"/>
</a>
</g>
</g>
<!-- Node11&#45;&gt;Node4 -->
<g id="edge16_Node000011_Node000004" class="edge">
<title>Node11&#45;&gt;Node4</title>
<g id="a_edge16_Node000011_Node000004"><a xlink:title=" ">
<path fill="none" stroke="#63b8ff" d="M678.88,-112.45C710.2,-102.68 749.59,-88.07 759,-74 763.69,-66.98 764.63,-61.29 759,-55 736.93,-30.31 526.8,-17.69 421.52,-12.88"/>
<polygon fill="#63b8ff" stroke="#63b8ff" points="677.59,-109.19 669.05,-115.45 679.63,-115.88 677.59,-109.19"/>
</a>
</g>
</g>
<!-- Node12 -->
<g id="Node000012" class="node">
<title>Node12</title>
<g id="a_Node000012"><a xlink:href="../../db/d3d/pixel__format_8cpp.html" target="_top" xlink:title="Implementation of pixelFormatName() and pixelFormatFromName().">
<polygon fill="white" stroke="#666666" points="956,-74 806,-74 806,-55 956,-55 956,-74"/>
<text text-anchor="middle" x="881" y="-62" font-family="Helvetica,sans-Serif" font-size="10.00">src/render/pixel_format.cpp</text>
</a>
</g>
</g>
<!-- Node11&#45;&gt;Node12 -->
<g id="edge17_Node000011_Node000012" class="edge">
<title>Node11&#45;&gt;Node12</title>
<g id="a_edge17_Node000011_Node000012"><a xlink:title=" ">
<path fill="none" stroke="#63b8ff" d="M683.24,-113.11C730.2,-101.8 802.68,-84.35 845.62,-74.02"/>
<polygon fill="#63b8ff" stroke="#63b8ff" points="682.24,-109.75 673.33,-115.49 683.88,-116.56 682.24,-109.75"/>
</a>
</g>
</g>
<!-- Node18&#45;&gt;Node2 -->
<g id="edge25_Node000018_Node000002" class="edge">
<title>Node18&#45;&gt;Node2</title>
<g id="a_edge25_Node000018_Node000002"><a xlink:title=" ">
<path fill="none" stroke="#63b8ff" d="M666.11,-228.16C627.6,-217.33 579.19,-203.71 548.41,-195.05"/>
<polygon fill="#63b8ff" stroke="#63b8ff" points="665.6,-231.65 676.18,-230.99 667.5,-224.91 665.6,-231.65"/>
</a>
</g>
</g>
</g>
</svg>
