<?xml version="1.0" encoding="UTF-8" standalone="no"?>
<!DOCTYPE svg PUBLIC "-//W3C//DTD SVG 1.1//EN"
 "http://www.w3.org/Graphics/SVG/1.1/DTD/svg11.dtd">
<!-- Generated by graphviz version 2.43.0 (0)
 -->
<!-- Title: include/core/platform.hpp Pages: 1 -->
<!--zoomable 269 -->

<svg id="main" version="1.1" xmlns="http://www.w3.org/2000/svg" xmlns:xlink="http://www.w3.org/1999/xlink" xml:space="preserve" onload="init(evt)">

<style type="text/css"><![CDATA[
.node, .edge {opacity: 0.7;}
.node.selected, .edge.selected {opacity: 1;}
.edge:hover path { stroke: red; }
.edge:hover polygon { stroke: red; fill: red; }
]]></style>

<defs>
  <circle id="rim" cx="0" cy="0" r="7"/>
  <circle id="rim2" cx="0" cy="0" r="3.5"/>
  <g id="zoomPlus">
    <use xlink:href="#rim" fill="#404040"><set attributeName="fill" to="#808080" begin="zoomplus.mouseover" end="zoomplus.mouseout"/></use>
    <path d="M-4,0h8M0,-4v8" fill="none" stroke="white" stroke-width="1.5" pointer-events="none"/>
  </g>
  <g id="zoomMin">
    <use xlink:href="#rim" fill="#404040"><set attributeName="fill" to="#808080" begin="zoomminus.mouseover" end="zoomminus.mouseout"/></use>
    <path d="M-4,0h8" fill="none" stroke="white" stroke-width="1.5" pointer-events="none"/>
  </g>
  <g id="arrowUp" transform="translate(30 24)">
    <use xlink:href="#rim"/>
    <path pointer-events="none" fill="none" stroke="white" stroke-width="1.5" d="M0,-3.0v7 M-2.5,-0.5L0,-3.0L2.5,-0.5"/>
  </g>
  <g id="arrowRight" transform="rotate(90) translate(36 -43)">
    <use xlink:href="#rim"/>
    <path pointer-events="none" fill="none" stroke="white" stroke-width="1.5" d="M0,-3.0v7 M-2.5,-0.5L0,-3.0L2.5,-0.5"/>
  </g>
  <g id="arrowDown" transform="rotate(180) translate(-30 -48)">
    <use xlink:href="#rim"/>
    <path pointer-events="none" fill="none" stroke="white" stroke-width="1.5" d="M0,-3.0v7 M-2.5,-0.5L0,-3.0L2.5,-0.5"/>
  </g>
  <g id="arrowLeft" transform="rotate(270) translate(-36 17)">
    <use xlink:href="#rim"/>
    <path pointer-events="none" fill="none" stroke="white" stroke-width="1.5" d="M0,-3.0v7 M-2.5,-0.5L0,-3.0L2.5,-0.5"/>
  </g>
  <g id="resetDef">
    <use xlink:href="#rim2" fill="#404040"><set attributeName="fill" to="#808080" begin="reset.mouseover" end="reset.mouseout"/></use>
  </g>
</defs>
<script type="application/ecmascript">
var viewWidth = 1118;
var viewHeight = 269;
var sectionId = 'dynsection-0';
</script>
<script type="application/ecmascript" xlink:href="../../svg.min.js"/>
<svg id="graph" class="graph">
<g id="viewport">
<title>include/core/platform.hpp</title>
<!-- Node1 -->
<g id="Node000001" class="node">
<title>Node1</title>
<g id="a_Node000001"><a xlink:title="Platform and CPU architecture enumerations with compile&#45;time and runtime detection utilities.">
<polygon fill="#999999" stroke="#666666" points="609,-261 467,-261 467,-242 609,-242 609,-261"/>
<text text-anchor="middle" x="538" y="-249" font-family="Helvetica,sans-Serif" font-size="10.00">include/core/platform.hpp</text>
</a>
</g>
</g>
<!-- Node2 -->
<g id="Node000002" class="node">
<title>Node2</title>
<g id="a_Node000002"><a xlink:href="../../da/d47/core_8hpp.html" target="_top" xlink:title="Umbrella header for the engine core module.">
<polygon fill="white" stroke="#666666" points="311.5,-140 214.5,-140 214.5,-121 311.5,-121 311.5,-140"/>
<text text-anchor="middle" x="263" y="-128" font-family="Helvetica,sans-Serif" font-size="10.00">include/core.hpp</text>
</a>
</g>
</g>
<!-- Node1&#45;&gt;Node2 -->
<g id="edge1_Node000001_Node000002" class="edge">
<title>Node1&#45;&gt;Node2</title>
<g id="a_edge1_Node000001_Node000002"><a xlink:title=" ">
<path fill="none" stroke="#63b8ff" d="M456.51,-248.52C330.25,-244.6 99.17,-233.7 74,-206 30.77,-158.43 144.88,-140.83 214.22,-134.64"/>
<polygon fill="#63b8ff" stroke="#63b8ff" points="456.43,-252.02 466.53,-248.82 456.64,-245.02 456.43,-252.02"/>
</a>
</g>
</g>
<!-- Node9 -->
<g id="Node000009" class="node">
<title>Node9</title>
<g id="a_Node000009"><a xlink:href="../../d5/d82/3ds_2platform__config_8hpp.html" target="_top" xlink:title="additional nintendo 3ds platform header">
<polygon fill="white" stroke="#666666" points="229,-206 83,-206 83,-176 229,-176 229,-206"/>
<text text-anchor="start" x="91" y="-194" font-family="Helvetica,sans-Serif" font-size="10.00">src/platforms/3ds/platform</text>
<text text-anchor="middle" x="156" y="-183" font-family="Helvetica,sans-Serif" font-size="10.00">_config.hpp</text>
</a>
</g>
</g>
<!-- Node1&#45;&gt;Node9 -->
<g id="edge10_Node000001_Node000009" class="edge">
<title>Node1&#45;&gt;Node9</title>
<g id="a_edge10_Node000001_Node000009"><a xlink:title=" ">
<path fill="none" stroke="#63b8ff" d="M467.64,-240.51C406.8,-231.76 316.52,-218.53 238,-206 235.15,-205.55 232.24,-205.08 229.3,-204.6"/>
<polygon fill="#63b8ff" stroke="#63b8ff" points="467.5,-244.02 477.89,-241.98 468.49,-237.09 467.5,-244.02"/>
</a>
</g>
</g>
<!-- Node10 -->
<g id="Node000010" class="node">
<title>Node10</title>
<g id="a_Node000010"><a xlink:href="../../df/db1/gba_2platform__config_8hpp.html" target="_top" xlink:title="additional nintendo game boy advance platform header">
<polygon fill="white" stroke="#666666" points="394.5,-206 247.5,-206 247.5,-176 394.5,-176 394.5,-206"/>
<text text-anchor="start" x="255.5" y="-194" font-family="Helvetica,sans-Serif" font-size="10.00">src/platforms/gba/platform</text>
<text text-anchor="middle" x="321" y="-183" font-family="Helvetica,sans-Serif" font-size="10.00">_config.hpp</text>
</a>
</g>
</g>
<!-- Node1&#45;&gt;Node10 -->
<g id="edge11_Node000001_Node000010" class="edge">
<title>Node1&#45;&gt;Node10</title>
<g id="a_edge11_Node000001_Node000010"><a xlink:title=" ">
<path fill="none" stroke="#63b8ff" d="M496.53,-239.32C461.45,-229.86 410.99,-216.26 373.17,-206.06"/>
<polygon fill="#63b8ff" stroke="#63b8ff" points="495.88,-242.77 506.45,-241.99 497.7,-236.01 495.88,-242.77"/>
</a>
</g>
</g>
<!-- Node11 -->
<g id="Node000011" class="node">
<title>Node11</title>
<g id="a_Node000011"><a xlink:href="../../dd/d9e/linux_2platform__config_8hpp.html" target="_top" xlink:title="additional linux platform header">
<polygon fill="white" stroke="#666666" points="529.5,-206 412.5,-206 412.5,-176 529.5,-176 529.5,-206"/>
<text text-anchor="start" x="420.5" y="-194" font-family="Helvetica,sans-Serif" font-size="10.00">src/platforms/linux</text>
<text text-anchor="middle" x="471" y="-183" font-family="Helvetica,sans-Serif" font-size="10.00">/platform_config.hpp</text>
</a>
</g>
</g>
<!-- Node1&#45;&gt;Node11 -->
<g id="edge12_Node000001_Node000011" class="edge">
<title>Node1&#45;&gt;Node11</title>
<g id="a_edge12_Node000001_Node000011"><a xlink:title=" ">
<path fill="none" stroke="#63b8ff" d="M520.52,-235.23C510.2,-226.23 497.24,-214.91 487.17,-206.11"/>
<polygon fill="#63b8ff" stroke="#63b8ff" points="518.28,-237.93 528.11,-241.87 522.88,-232.65 518.28,-237.93"/>
</a>
</g>
</g>
<!-- Node12 -->
<g id="Node000012" class="node">
<title>Node12</title>
<g id="a_Node000012"><a xlink:href="../../d8/d80/macos_2platform__config_8hpp.html" target="_top" xlink:title="additional macOS platform header">
<polygon fill="white" stroke="#666666" points="664.5,-206 547.5,-206 547.5,-176 664.5,-176 664.5,-206"/>
<text text-anchor="start" x="555.5" y="-194" font-family="Helvetica,sans-Serif" font-size="10.00">src/platforms/macos</text>
<text text-anchor="middle" x="606" y="-183" font-family="Helvetica,sans-Serif" font-size="10.00">/platform_config.hpp</text>
</a>
</g>
</g>
<!-- Node1&#45;&gt;Node12 -->
<g id="edge14_Node000001_Node000012" class="edge">
<title>Node1&#45;&gt;Node12</title>
<g id="a_edge14_Node000001_Node000012"><a xlink:title=" ">
<path fill="none" stroke="#63b8ff" d="M555.74,-235.23C566.21,-226.23 579.37,-214.91 589.59,-206.11"/>
<polygon fill="#63b8ff" stroke="#63b8ff" points="553.33,-232.69 548.03,-241.87 557.9,-238 553.33,-232.69"/>
</a>
</g>
</g>
<!-- Node13 -->
<g id="Node000013" class="node">
<title>Node13</title>
<g id="a_Node000013"><a xlink:href="../../dc/d74/nds_2platform__config_8hpp.html" target="_top" xlink:title="additional nintendo ds platform header">
<polygon fill="white" stroke="#666666" points="829,-206 683,-206 683,-176 829,-176 829,-206"/>
<text text-anchor="start" x="691" y="-194" font-family="Helvetica,sans-Serif" font-size="10.00">src/platforms/nds/platform</text>
<text text-anchor="middle" x="756" y="-183" font-family="Helvetica,sans-Serif" font-size="10.00">_config.hpp</text>
</a>
</g>
</g>
<!-- Node1&#45;&gt;Node13 -->
<g id="edge15_Node000001_Node000013" class="edge">
<title>Node1&#45;&gt;Node13</title>
<g id="a_edge15_Node000001_Node000013"><a xlink:title=" ">
<path fill="none" stroke="#63b8ff" d="M579.66,-239.32C614.9,-229.86 665.59,-216.26 703.59,-206.06"/>
<polygon fill="#63b8ff" stroke="#63b8ff" points="578.45,-236.02 569.7,-241.99 580.26,-242.78 578.45,-236.02"/>
</a>
</g>
</g>
<!-- Node14 -->
<g id="Node000014" class="node">
<title>Node14</title>
<g id="a_Node000014"><a xlink:href="../../db/d83/switch_2platform__config_8hpp.html" target="_top" xlink:title="additional nintendo switch platform header">
<polygon fill="white" stroke="#666666" points="964.5,-206 847.5,-206 847.5,-176 964.5,-176 964.5,-206"/>
<text text-anchor="start" x="855.5" y="-194" font-family="Helvetica,sans-Serif" font-size="10.00">src/platforms/switch</text>
<text text-anchor="middle" x="906" y="-183" font-family="Helvetica,sans-Serif" font-size="10.00">/platform_config.hpp</text>
</a>
</g>
</g>
<!-- Node1&#45;&gt;Node14 -->
<g id="edge16_Node000001_Node000014" class="edge">
<title>Node1&#45;&gt;Node14</title>
<g id="a_edge16_Node000001_Node000014"><a xlink:title=" ">
<path fill="none" stroke="#63b8ff" d="M612.81,-240.58C673.62,-232.24 761.54,-219.53 838,-206 841.09,-205.45 844.25,-204.87 847.43,-204.27"/>
<polygon fill="#63b8ff" stroke="#63b8ff" points="611.98,-237.16 602.54,-241.99 612.92,-244.1 611.98,-237.16"/>
</a>
</g>
</g>
<!-- Node15 -->
<g id="Node000015" class="node">
<title>Node15</title>
<g id="a_Node000015"><a xlink:href="../../db/d29/windows_2platform__config_8hpp.html" target="_top" xlink:title="additional windows platform header">
<polygon fill="white" stroke="#666666" points="1109.5,-206 982.5,-206 982.5,-176 1109.5,-176 1109.5,-206"/>
<text text-anchor="start" x="990.5" y="-194" font-family="Helvetica,sans-Serif" font-size="10.00">src/platforms/windows</text>
<text text-anchor="middle" x="1046" y="-183" font-family="Helvetica,sans-Serif" font-size="10.00">/platform_config.hpp</text>
</a>
</g>
</g>
<!-- Node1&#45;&gt;Node15 -->
<g id="edge17_Node000001_Node000015" class="edge">
<title>Node1&#45;&gt;Node15</title>
<g id="a_edge17_Node000001_Node000015"><a xlink:title=" ">
<path fill="none" stroke="#63b8ff" d="M619.39,-244.4C707.18,-237.31 850.92,-224.21 974,-206 976.77,-205.59 979.6,-205.15 982.45,-204.68"/>
<polygon fill="#63b8ff" stroke="#63b8ff" points="618.92,-240.93 609.23,-245.22 619.48,-247.91 618.92,-240.93"/>
</a>
</g>
</g>
<!-- Node3 -->
<g id="Node000003" class="node">
<title>Node3</title>
<g id="a_Node000003"><a xlink:href="../../d6/d2c/app_8hpp.html" target="_top" xlink:title="Umbrella header for the engine application module.">
<polygon fill="white" stroke="#666666" points="94,-79.5 0,-79.5 0,-60.5 94,-60.5 94,-79.5"/>
<text text-anchor="middle" x="47" y="-67.5" font-family="Helvetica,sans-Serif" font-size="10.00">include/app.hpp</text>
</a>
</g>
</g>
<!-- Node2&#45;&gt;Node3 -->
<g id="edge2_Node000002_Node000003" class="edge">
<title>Node2&#45;&gt;Node3</title>
<g id="a_edge2_Node000002_Node000003"><a xlink:title=" ">
<path fill="none" stroke="#63b8ff" d="M221.73,-118.32C179.96,-107.01 116.3,-89.77 78.45,-79.52"/>
<polygon fill="#63b8ff" stroke="#63b8ff" points="221.02,-121.76 231.59,-120.99 222.85,-115 221.02,-121.76"/>
</a>
</g>
</g>
<!-- Node4 -->
<g id="Node000004" class="node">
<title>Node4</title>
<g id="a_Node000004"><a xlink:href="../../d8/d8c/toygine2_8hpp.html" target="_top" xlink:title="Main umbrella header for the entire ToyGine2 engine.">
<polygon fill="white" stroke="#666666" points="181.5,-19 62.5,-19 62.5,0 181.5,0 181.5,-19"/>
<text text-anchor="middle" x="122" y="-7" font-family="Helvetica,sans-Serif" font-size="10.00">include/toygine2.hpp</text>
</a>
</g>
</g>
<!-- Node2&#45;&gt;Node4 -->
<g id="edge6_Node000002_Node000004" class="edge">
<title>Node2&#45;&gt;Node4</title>
<g id="a_edge6_Node000002_Node000004"><a xlink:title=" ">
<path fill="none" stroke="#63b8ff" d="M204.48,-120.26C181.8,-113.89 157.4,-103.13 141,-85 123.99,-66.19 121.76,-34.26 121.74,-19.05"/>
<polygon fill="#63b8ff" stroke="#63b8ff" points="203.85,-123.71 214.4,-122.81 205.59,-116.93 203.85,-123.71"/>
</a>
</g>
</g>
<!-- Node5 -->
<g id="Node000005" class="node">
<title>Node5</title>
<g id="a_Node000005"><a xlink:href="../../d4/d78/math_8hpp.html" target="_top" xlink:title="Umbrella header for the engine mathematics module.">
<polygon fill="white" stroke="#666666" points="251.5,-79.5 150.5,-79.5 150.5,-60.5 251.5,-60.5 251.5,-79.5"/>
<text text-anchor="middle" x="201" y="-67.5" font-family="Helvetica,sans-Serif" font-size="10.00">include/math.hpp</text>
</a>
</g>
</g>
<!-- Node2&#45;&gt;Node5 -->
<g id="edge4_Node000002_Node000005" class="edge">
<title>Node2&#45;&gt;Node5</title>
<g id="a_edge4_Node000002_Node000005"><a xlink:title=" ">
<path fill="none" stroke="#63b8ff" d="M246.48,-113.91C234.85,-102.94 219.72,-88.67 210.19,-79.67"/>
<polygon fill="#63b8ff" stroke="#63b8ff" points="244.18,-116.55 253.85,-120.87 248.98,-111.46 244.18,-116.55"/>
</a>
</g>
</g>
<!-- Node6 -->
<g id="Node000006" class="node">
<title>Node6</title>
<g id="a_Node000006"><a xlink:href="../../db/d2d/hashes_8cpp.html" target="_top" xlink:title="Implementation of CRC hash functions with lookup tables for optimal performance.">
<polygon fill="white" stroke="#666666" points="382.5,-79.5 269.5,-79.5 269.5,-60.5 382.5,-60.5 382.5,-79.5"/>
<text text-anchor="middle" x="326" y="-67.5" font-family="Helvetica,sans-Serif" font-size="10.00">src/core/hashes.cpp</text>
</a>
</g>
</g>
<!-- Node2&#45;&gt;Node6 -->
<g id="edge7_Node000002_Node000006" class="edge">
<title>Node2&#45;&gt;Node6</title>
<g id="a_edge7_Node000002_Node000006"><a xlink:title=" ">
<path fill="none" stroke="#63b8ff" d="M279.79,-113.91C291.6,-102.94 306.97,-88.67 316.67,-79.67"/>
<polygon fill="#63b8ff" stroke="#63b8ff" points="277.24,-111.5 272.3,-120.87 282.01,-116.63 277.24,-111.5"/>
</a>
</g>
</g>
<!-- Node7 -->
<g id="Node000007" class="node">
<title>Node7</title>
<g id="a_Node000007"><a xlink:href="../../de/d06/utils_8cpp.html" target="_top" xlink:title="Implementation of core utility functions for string manipulation, encoding conversion,...">
<polygon fill="white" stroke="#666666" points="499.5,-79.5 400.5,-79.5 400.5,-60.5 499.5,-60.5 499.5,-79.5"/>
<text text-anchor="middle" x="450" y="-67.5" font-family="Helvetica,sans-Serif" font-size="10.00">src/core/utils.cpp</text>
</a>
</g>
</g>
<!-- Node2&#45;&gt;Node7 -->
<g id="edge8_Node000002_Node000007" class="edge">
<title>Node2&#45;&gt;Node7</title>
<g id="a_edge8_Node000002_Node000007"><a xlink:title=" ">
<path fill="none" stroke="#63b8ff" d="M299.88,-117.96C336.05,-106.65 390.35,-89.66 422.78,-79.52"/>
<polygon fill="#63b8ff" stroke="#63b8ff" points="298.69,-114.67 290.19,-120.99 300.78,-121.35 298.69,-114.67"/>
</a>
</g>
</g>
<!-- Node8 -->
<g id="Node000008" class="node">
<title>Node8</title>
<g id="a_Node000008"><a xlink:href="../../d7/d90/assertion__stub_8cpp.html" target="_top" xlink:title="Stub implementation of assertion system for platforms without native assertion support.">
<polygon fill="white" stroke="#666666" points="652.5,-85 517.5,-85 517.5,-55 652.5,-55 652.5,-85"/>
<text text-anchor="start" x="525.5" y="-73" font-family="Helvetica,sans-Serif" font-size="10.00">src/platforms/stub</text>
<text text-anchor="middle" x="585" y="-62" font-family="Helvetica,sans-Serif" font-size="10.00">/core/assertion_stub.cpp</text>
</a>
</g>
</g>
<!-- Node2&#45;&gt;Node8 -->
<g id="edge9_Node000002_Node000008" class="edge">
<title>Node2&#45;&gt;Node8</title>
<g id="a_edge9_Node000002_Node000008"><a xlink:title=" ">
<path fill="none" stroke="#63b8ff" d="M320.58,-119.14C370.44,-110.15 444.49,-96.78 509,-85 511.77,-84.49 514.6,-83.98 517.46,-83.45"/>
<polygon fill="#63b8ff" stroke="#63b8ff" points="319.85,-115.71 310.63,-120.93 321.09,-122.6 319.85,-115.71"/>
</a>
</g>
</g>
<!-- Node3&#45;&gt;Node4 -->
<g id="edge3_Node000003_Node000004" class="edge">
<title>Node3&#45;&gt;Node4</title>
<g id="a_edge3_Node000003_Node000004"><a xlink:title=" ">
<path fill="none" stroke="#63b8ff" d="M66.18,-54.04C80.35,-42.99 99.13,-28.34 110.89,-19.17"/>
<polygon fill="#63b8ff" stroke="#63b8ff" points="63.8,-51.46 58.07,-60.37 68.1,-56.98 63.8,-51.46"/>
</a>
</g>
</g>
<!-- Node5&#45;&gt;Node4 -->
<g id="edge5_Node000005_Node000004" class="edge">
<title>Node5&#45;&gt;Node4</title>
<g id="a_edge5_Node000005_Node000004"><a xlink:title=" ">
<path fill="none" stroke="#63b8ff" d="M181.21,-54.35C166.25,-43.27 146.21,-28.43 133.7,-19.17"/>
<polygon fill="#63b8ff" stroke="#63b8ff" points="179.22,-57.23 189.34,-60.37 183.39,-51.6 179.22,-57.23"/>
</a>
</g>
</g>
<!-- Node11&#45;&gt;Node2 -->
<g id="edge13_Node000011_Node000002" class="edge">
<title>Node11&#45;&gt;Node2</title>
<g id="a_edge13_Node000011_Node000002"><a xlink:title=" ">
<path fill="none" stroke="#63b8ff" d="M411.11,-173.16C372.6,-162.33 324.19,-148.71 293.41,-140.05"/>
<polygon fill="#63b8ff" stroke="#63b8ff" points="410.6,-176.65 421.18,-175.99 412.5,-169.91 410.6,-176.65"/>
</a>
</g>
</g>
</g>
</svg>

<g id="navigator" transform="translate(0 0)" fill="#404254">
  <rect fill="#f2f5e9" fill-opacity="0.5" stroke="#606060" stroke-width=".5" x="0" y="0" width="60" height="60"/>
  <use id="zoomplus" xlink:href="#zoomPlus" x="17" y="9" onmousedown="handleZoom(evt,'in')"/>
  <use id="zoomminus" xlink:href="#zoomMin" x="42" y="9" onmousedown="handleZoom(evt,'out')"/>
  <use id="reset" xlink:href="#resetDef" x="30" y="36" onmousedown="handleReset()"/>
   <use id="arrowup" xlink:href="#arrowUp" x="0" y="0" onmousedown="handlePan(0,-1)"/>
  <use id="arrowright" xlink:href="#arrowRight" x="0" y="0" onmousedown="handlePan(1,0)"/>
  <use id="arrowdown" xlink:href="#arrowDown" x="0" y="0" onmousedown="handlePan(0,1)"/>
  <use id="arrowleft" xlink:href="#arrowLeft" x="0" y="0" onmousedown="handlePan(-1,0)"/>
</g>
<svg viewBox="0 0 15 15" width="100%" height="30px" preserveAspectRatio="xMaxYMin meet">
 <g id="arrow_out" transform="scale(0.3 0.3)">
  <a xlink:href="platform_8hpp__dep__incl_org.svg" target="_base">
   <rect id="button" ry="5" rx="5" y="6" x="6" height="38" width="38"
        fill="#f2f5e9" fill-opacity="0.5" stroke="#606060" stroke-width="1.0"/>
   <path id="arrow"
     d="M 11.500037,31.436501 C 11.940474,20.09759 22.043105,11.32322 32.158766,21.979434 L 37.068811,17.246167 C 37.068811,17.246167 37.088388,32 37.088388,32 L 22.160133,31.978069 C 22.160133,31.978069 26.997745,27.140456 26.997745,27.140456 C 18.528582,18.264221 13.291696,25.230495 11.500037,31.436501 z"
     style="fill:#404040;"/>
  </a>
 </g>
</svg>

<style type='text/css'>
<![CDATA[
[data-mouse-over-selected='false'] { opacity: 0.7; }
[data-mouse-over-selected='true']  { opacity: 1.0; }
]]>
</style>
<script type="application/ecmascript"><![CDATA[
document.addEventListener('DOMContentLoaded', (event) => {
  highlightEdges();
  highlightAdjacentNodes();
});
]]></script>
</svg>
