<?xml version="1.0" encoding="UTF-8" standalone="no"?>
<!DOCTYPE svg PUBLIC "-//W3C//DTD SVG 1.1//EN"
 "http://www.w3.org/Graphics/SVG/1.1/DTD/svg11.dtd">
<!-- Generated by graphviz version 2.43.0 (0)
 -->
<!-- Title: include/core/platform.hpp Pages: 1 -->
<svg width="1367pt" height="269pt"
 viewBox="0.00 0.00 1366.50 269.00" xmlns="http://www.w3.org/2000/svg" xmlns:xlink="http://www.w3.org/1999/xlink">
<g id="graph0" class="graph" transform="scale(1 1) rotate(0) translate(4 265)">
<title>include/core/platform.hpp</title>
<!-- Node1 -->
<g id="Node000001" class="node">
<title>Node1</title>
<g id="a_Node000001"><a xlink:title="Platform and CPU architecture enumerations with compile&#45;time and runtime detection.">
<polygon fill="#999999" stroke="#666666" points="858,-261 716,-261 716,-242 858,-242 858,-261"/>
<text text-anchor="middle" x="787" y="-249" font-family="Helvetica,sans-Serif" font-size="10.00">include/core/platform.hpp</text>
</a>
</g>
</g>
<!-- Node2 -->
<g id="Node000002" class="node">
<title>Node2</title>
<g id="a_Node000002"><a xlink:href="../../da/d47/core_8hpp.html" target="_top" xlink:title="Umbrella header for the engine core module.">
<polygon fill="white" stroke="#666666" points="560.5,-140 463.5,-140 463.5,-121 560.5,-121 560.5,-140"/>
<text text-anchor="middle" x="512" y="-128" font-family="Helvetica,sans-Serif" font-size="10.00">include/core.hpp</text>
</a>
</g>
</g>
<!-- Node1&#45;&gt;Node2 -->
<g id="edge1_Node000001_Node000002" class="edge">
<title>Node1&#45;&gt;Node2</title>
<g id="a_edge1_Node000001_Node000002"><a xlink:title=" ">
<path fill="none" stroke="#63b8ff" d="M705.51,-248.52C579.25,-244.6 348.17,-233.7 323,-206 279.77,-158.43 393.88,-140.83 463.22,-134.64"/>
<polygon fill="#63b8ff" stroke="#63b8ff" points="705.43,-252.02 715.53,-248.82 705.64,-245.02 705.43,-252.02"/>
</a>
</g>
</g>
<!-- Node13 -->
<g id="Node000013" class="node">
<title>Node13</title>
<g id="a_Node000013"><a xlink:href="../../d5/d82/3ds_2platform__config_8hpp.html" target="_top" xlink:title="additional nintendo 3ds platform header">
<polygon fill="white" stroke="#666666" points="478,-206 332,-206 332,-176 478,-176 478,-206"/>
<text text-anchor="start" x="340" y="-194" font-family="Helvetica,sans-Serif" font-size="10.00">src/platforms/3ds/platform</text>
<text text-anchor="middle" x="405" y="-183" font-family="Helvetica,sans-Serif" font-size="10.00">_config.hpp</text>
</a>
</g>
</g>
<!-- Node1&#45;&gt;Node13 -->
<g id="edge17_Node000001_Node000013" class="edge">
<title>Node1&#45;&gt;Node13</title>
<g id="a_edge17_Node000001_Node000013"><a xlink:title=" ">
<path fill="none" stroke="#63b8ff" d="M716.64,-240.51C655.8,-231.76 565.52,-218.53 487,-206 484.15,-205.55 481.24,-205.08 478.3,-204.6"/>
<polygon fill="#63b8ff" stroke="#63b8ff" points="716.5,-244.02 726.89,-241.98 717.49,-237.09 716.5,-244.02"/>
</a>
</g>
</g>
<!-- Node14 -->
<g id="Node000014" class="node">
<title>Node14</title>
<g id="a_Node000014"><a xlink:href="../../df/db1/gba_2platform__config_8hpp.html" target="_top" xlink:title="additional nintendo game boy advance platform header">
<polygon fill="white" stroke="#666666" points="643.5,-206 496.5,-206 496.5,-176 643.5,-176 643.5,-206"/>
<text text-anchor="start" x="504.5" y="-194" font-family="Helvetica,sans-Serif" font-size="10.00">src/platforms/gba/platform</text>
<text text-anchor="middle" x="570" y="-183" font-family="Helvetica,sans-Serif" font-size="10.00">_config.hpp</text>
</a>
</g>
</g>
<!-- Node1&#45;&gt;Node14 -->
<g id="edge18_Node000001_Node000014" class="edge">
<title>Node1&#45;&gt;Node14</title>
<g id="a_edge18_Node000001_Node000014"><a xlink:title=" ">
<path fill="none" stroke="#63b8ff" d="M745.53,-239.32C710.45,-229.86 659.99,-216.26 622.17,-206.06"/>
<polygon fill="#63b8ff" stroke="#63b8ff" points="744.88,-242.77 755.45,-241.99 746.7,-236.01 744.88,-242.77"/>
</a>
</g>
</g>
<!-- Node15 -->
<g id="Node000015" class="node">
<title>Node15</title>
<g id="a_Node000015"><a xlink:href="../../dd/d9e/linux_2platform__config_8hpp.html" target="_top" xlink:title="additional linux platform header">
<polygon fill="white" stroke="#666666" points="778.5,-206 661.5,-206 661.5,-176 778.5,-176 778.5,-206"/>
<text text-anchor="start" x="669.5" y="-194" font-family="Helvetica,sans-Serif" font-size="10.00">src/platforms/linux</text>
<text text-anchor="middle" x="720" y="-183" font-family="Helvetica,sans-Serif" font-size="10.00">/platform_config.hpp</text>
</a>
</g>
</g>
<!-- Node1&#45;&gt;Node15 -->
<g id="edge19_Node000001_Node000015" class="edge">
<title>Node1&#45;&gt;Node15</title>
<g id="a_edge19_Node000001_Node000015"><a xlink:title=" ">
<path fill="none" stroke="#63b8ff" d="M769.52,-235.23C759.2,-226.23 746.24,-214.91 736.17,-206.11"/>
<polygon fill="#63b8ff" stroke="#63b8ff" points="767.28,-237.93 777.11,-241.87 771.88,-232.65 767.28,-237.93"/>
</a>
</g>
</g>
<!-- Node16 -->
<g id="Node000016" class="node">
<title>Node16</title>
<g id="a_Node000016"><a xlink:href="../../d8/d80/macos_2platform__config_8hpp.html" target="_top" xlink:title="additional macOS platform header">
<polygon fill="white" stroke="#666666" points="913.5,-206 796.5,-206 796.5,-176 913.5,-176 913.5,-206"/>
<text text-anchor="start" x="804.5" y="-194" font-family="Helvetica,sans-Serif" font-size="10.00">src/platforms/macos</text>
<text text-anchor="middle" x="855" y="-183" font-family="Helvetica,sans-Serif" font-size="10.00">/platform_config.hpp</text>
</a>
</g>
</g>
<!-- Node1&#45;&gt;Node16 -->
<g id="edge21_Node000001_Node000016" class="edge">
<title>Node1&#45;&gt;Node16</title>
<g id="a_edge21_Node000001_Node000016"><a xlink:title=" ">
<path fill="none" stroke="#63b8ff" d="M804.74,-235.23C815.21,-226.23 828.37,-214.91 838.59,-206.11"/>
<polygon fill="#63b8ff" stroke="#63b8ff" points="802.33,-232.69 797.03,-241.87 806.9,-238 802.33,-232.69"/>
</a>
</g>
</g>
<!-- Node17 -->
<g id="Node000017" class="node">
<title>Node17</title>
<g id="a_Node000017"><a xlink:href="../../dc/d74/nds_2platform__config_8hpp.html" target="_top" xlink:title="additional nintendo ds platform header">
<polygon fill="white" stroke="#666666" points="1078,-206 932,-206 932,-176 1078,-176 1078,-206"/>
<text text-anchor="start" x="940" y="-194" font-family="Helvetica,sans-Serif" font-size="10.00">src/platforms/nds/platform</text>
<text text-anchor="middle" x="1005" y="-183" font-family="Helvetica,sans-Serif" font-size="10.00">_config.hpp</text>
</a>
</g>
</g>
<!-- Node1&#45;&gt;Node17 -->
<g id="edge22_Node000001_Node000017" class="edge">
<title>Node1&#45;&gt;Node17</title>
<g id="a_edge22_Node000001_Node000017"><a xlink:title=" ">
<path fill="none" stroke="#63b8ff" d="M828.66,-239.32C863.9,-229.86 914.59,-216.26 952.59,-206.06"/>
<polygon fill="#63b8ff" stroke="#63b8ff" points="827.45,-236.02 818.7,-241.99 829.26,-242.78 827.45,-236.02"/>
</a>
</g>
</g>
<!-- Node18 -->
<g id="Node000018" class="node">
<title>Node18</title>
<g id="a_Node000018"><a xlink:href="../../db/d83/switch_2platform__config_8hpp.html" target="_top" xlink:title="additional nintendo switch platform header">
<polygon fill="white" stroke="#666666" points="1213.5,-206 1096.5,-206 1096.5,-176 1213.5,-176 1213.5,-206"/>
<text text-anchor="start" x="1104.5" y="-194" font-family="Helvetica,sans-Serif" font-size="10.00">src/platforms/switch</text>
<text text-anchor="middle" x="1155" y="-183" font-family="Helvetica,sans-Serif" font-size="10.00">/platform_config.hpp</text>
</a>
</g>
</g>
<!-- Node1&#45;&gt;Node18 -->
<g id="edge23_Node000001_Node000018" class="edge">
<title>Node1&#45;&gt;Node18</title>
<g id="a_edge23_Node000001_Node000018"><a xlink:title=" ">
<path fill="none" stroke="#63b8ff" d="M861.81,-240.58C922.62,-232.24 1010.54,-219.53 1087,-206 1090.09,-205.45 1093.25,-204.87 1096.43,-204.27"/>
<polygon fill="#63b8ff" stroke="#63b8ff" points="860.98,-237.16 851.54,-241.99 861.92,-244.1 860.98,-237.16"/>
</a>
</g>
</g>
<!-- Node19 -->
<g id="Node000019" class="node">
<title>Node19</title>
<g id="a_Node000019"><a xlink:href="../../db/d29/windows_2platform__config_8hpp.html" target="_top" xlink:title="additional windows platform header">
<polygon fill="white" stroke="#666666" points="1358.5,-206 1231.5,-206 1231.5,-176 1358.5,-176 1358.5,-206"/>
<text text-anchor="start" x="1239.5" y="-194" font-family="Helvetica,sans-Serif" font-size="10.00">src/platforms/windows</text>
<text text-anchor="middle" x="1295" y="-183" font-family="Helvetica,sans-Serif" font-size="10.00">/platform_config.hpp</text>
</a>
</g>
</g>
<!-- Node1&#45;&gt;Node19 -->
<g id="edge24_Node000001_Node000019" class="edge">
<title>Node1&#45;&gt;Node19</title>
<g id="a_edge24_Node000001_Node000019"><a xlink:title=" ">
<path fill="none" stroke="#63b8ff" d="M868.39,-244.4C956.18,-237.31 1099.92,-224.21 1223,-206 1225.77,-205.59 1228.6,-205.15 1231.45,-204.68"/>
<polygon fill="#63b8ff" stroke="#63b8ff" points="867.92,-240.93 858.23,-245.22 868.48,-247.91 867.92,-240.93"/>
</a>
</g>
</g>
<!-- Node3 -->
<g id="Node000003" class="node">
<title>Node3</title>
<g id="a_Node000003"><a xlink:href="../../d6/d2c/app_8hpp.html" target="_top" xlink:title="Umbrella header for the engine application module.">
<polygon fill="white" stroke="#666666" points="94,-79.5 0,-79.5 0,-60.5 94,-60.5 94,-79.5"/>
<text text-anchor="middle" x="47" y="-67.5" font-family="Helvetica,sans-Serif" font-size="10.00">include/app.hpp</text>
</a>
</g>
</g>
<!-- Node2&#45;&gt;Node3 -->
<g id="edge2_Node000002_Node000003" class="edge">
<title>Node2&#45;&gt;Node3</title>
<g id="a_edge2_Node000002_Node000003"><a xlink:title=" ">
<path fill="none" stroke="#63b8ff" d="M453.01,-125.16C374.06,-118.86 229.85,-105.62 108,-85 99.22,-83.51 89.8,-81.54 81.06,-79.55"/>
<polygon fill="#63b8ff" stroke="#63b8ff" points="453,-128.67 463.24,-125.96 453.55,-121.69 453,-128.67"/>
</a>
</g>
</g>
<!-- Node4 -->
<g id="Node000004" class="node">
<title>Node4</title>
<g id="a_Node000004"><a xlink:href="../../d8/d8c/toygine2_8hpp.html" target="_top" xlink:title="Main umbrella header for the entire ToyGine2 engine.">
<polygon fill="white" stroke="#666666" points="382.5,-19 263.5,-19 263.5,0 382.5,0 382.5,-19"/>
<text text-anchor="middle" x="323" y="-7" font-family="Helvetica,sans-Serif" font-size="10.00">include/toygine2.hpp</text>
</a>
</g>
</g>
<!-- Node2&#45;&gt;Node4 -->
<g id="edge13_Node000002_Node000004" class="edge">
<title>Node2&#45;&gt;Node4</title>
<g id="a_edge13_Node000002_Node000004"><a xlink:title=" ">
<path fill="none" stroke="#63b8ff" d="M452.96,-126.65C353.49,-121.23 161.32,-107.91 141,-85 102.25,-41.33 196.47,-22.76 263.32,-15.24"/>
<polygon fill="#63b8ff" stroke="#63b8ff" points="452.98,-130.15 463.16,-127.19 453.36,-123.16 452.98,-130.15"/>
</a>
</g>
</g>
<!-- Node5 -->
<g id="Node000005" class="node">
<title>Node5</title>
<g id="a_Node000005"><a xlink:href="../../d1/d71/audio_8hpp.html" target="_top" xlink:title="Umbrella header for the audio module (volume types, mixing, etc.).">
<polygon fill="white" stroke="#666666" points="253.5,-79.5 150.5,-79.5 150.5,-60.5 253.5,-60.5 253.5,-79.5"/>
<text text-anchor="middle" x="202" y="-67.5" font-family="Helvetica,sans-Serif" font-size="10.00">include/audio.hpp</text>
</a>
</g>
</g>
<!-- Node2&#45;&gt;Node5 -->
<g id="edge4_Node000002_Node000005" class="edge">
<title>Node2&#45;&gt;Node5</title>
<g id="a_edge4_Node000002_Node000005"><a xlink:title=" ">
<path fill="none" stroke="#63b8ff" d="M453.11,-119.81C402.55,-111.29 327.81,-98.22 263,-85 254.8,-83.33 246.02,-81.39 237.74,-79.51"/>
<polygon fill="#63b8ff" stroke="#63b8ff" points="452.76,-123.3 463.2,-121.5 453.92,-116.39 452.76,-123.3"/>
</a>
</g>
</g>
<!-- Node6 -->
<g id="Node000006" class="node">
<title>Node6</title>
<g id="a_Node000006"><a xlink:href="../../d8/d39/game_8hpp.html" target="_top" xlink:title="Umbrella header for the game module.">
<polygon fill="white" stroke="#666666" points="376,-79.5 272,-79.5 272,-60.5 376,-60.5 376,-79.5"/>
<text text-anchor="middle" x="324" y="-67.5" font-family="Helvetica,sans-Serif" font-size="10.00">include/game.hpp</text>
</a>
</g>
</g>
<!-- Node2&#45;&gt;Node6 -->
<g id="edge6_Node000002_Node000006" class="edge">
<title>Node2&#45;&gt;Node6</title>
<g id="a_edge6_Node000002_Node000006"><a xlink:title=" ">
<path fill="none" stroke="#63b8ff" d="M474.92,-117.96C438.56,-106.65 383.97,-89.66 351.37,-79.52"/>
<polygon fill="#63b8ff" stroke="#63b8ff" points="474.07,-121.36 484.66,-120.99 476.15,-114.68 474.07,-121.36"/>
</a>
</g>
</g>
<!-- Node7 -->
<g id="Node000007" class="node">
<title>Node7</title>
<g id="a_Node000007"><a xlink:href="../../d4/d78/math_8hpp.html" target="_top" xlink:title="Umbrella header for the engine mathematics module.">
<polygon fill="white" stroke="#666666" points="495.5,-79.5 394.5,-79.5 394.5,-60.5 495.5,-60.5 495.5,-79.5"/>
<text text-anchor="middle" x="445" y="-67.5" font-family="Helvetica,sans-Serif" font-size="10.00">include/math.hpp</text>
</a>
</g>
</g>
<!-- Node2&#45;&gt;Node7 -->
<g id="edge7_Node000002_Node000007" class="edge">
<title>Node2&#45;&gt;Node7</title>
<g id="a_edge7_Node000002_Node000007"><a xlink:title=" ">
<path fill="none" stroke="#63b8ff" d="M494.5,-114.22C481.9,-103.21 465.33,-88.75 454.93,-79.67"/>
<polygon fill="#63b8ff" stroke="#63b8ff" points="492.28,-116.93 502.11,-120.87 496.88,-111.65 492.28,-116.93"/>
</a>
</g>
</g>
<!-- Node8 -->
<g id="Node000008" class="node">
<title>Node8</title>
<g id="a_Node000008"><a xlink:href="../../de/dd6/ui_8hpp.html" target="_top" xlink:title="Umbrella header for platform UI types.">
<polygon fill="white" stroke="#666666" points="644,-79.5 514,-79.5 514,-60.5 644,-60.5 644,-79.5"/>
<text text-anchor="middle" x="579" y="-67.5" font-family="Helvetica,sans-Serif" font-size="10.00">include/platform/ui.hpp</text>
</a>
</g>
</g>
<!-- Node2&#45;&gt;Node8 -->
<g id="edge9_Node000002_Node000008" class="edge">
<title>Node2&#45;&gt;Node8</title>
<g id="a_edge9_Node000002_Node000008"><a xlink:title=" ">
<path fill="none" stroke="#63b8ff" d="M529.5,-114.22C542.1,-103.21 558.67,-88.75 569.07,-79.67"/>
<polygon fill="#63b8ff" stroke="#63b8ff" points="527.12,-111.65 521.89,-120.87 531.72,-116.93 527.12,-111.65"/>
</a>
</g>
</g>
<!-- Node9 -->
<g id="Node000009" class="node">
<title>Node9</title>
<g id="a_Node000009"><a xlink:href="../../d6/d4b/render_8hpp.html" target="_top" xlink:title="Umbrella header for the render module (clear flags, framebuffer operations, etc.).">
<polygon fill="white" stroke="#666666" points="769.5,-79.5 662.5,-79.5 662.5,-60.5 769.5,-60.5 769.5,-79.5"/>
<text text-anchor="middle" x="716" y="-67.5" font-family="Helvetica,sans-Serif" font-size="10.00">include/render.hpp</text>
</a>
</g>
</g>
<!-- Node2&#45;&gt;Node9 -->
<g id="edge11_Node000002_Node000009" class="edge">
<title>Node2&#45;&gt;Node9</title>
<g id="a_edge11_Node000002_Node000009"><a xlink:title=" ">
<path fill="none" stroke="#63b8ff" d="M551.48,-118.18C590.93,-106.87 650.7,-89.72 686.3,-79.52"/>
<polygon fill="#63b8ff" stroke="#63b8ff" points="550.31,-114.87 541.66,-120.99 552.24,-121.6 550.31,-114.87"/>
</a>
</g>
</g>
<!-- Node10 -->
<g id="Node000010" class="node">
<title>Node10</title>
<g id="a_Node000010"><a xlink:href="../../db/d2d/hashes_8cpp.html" target="_top" xlink:title="Implementation of CRC hash functions with lookup tables for optimal performance.">
<polygon fill="white" stroke="#666666" points="900.5,-79.5 787.5,-79.5 787.5,-60.5 900.5,-60.5 900.5,-79.5"/>
<text text-anchor="middle" x="844" y="-67.5" font-family="Helvetica,sans-Serif" font-size="10.00">src/core/hashes.cpp</text>
</a>
</g>
</g>
<!-- Node2&#45;&gt;Node10 -->
<g id="edge14_Node000002_Node000010" class="edge">
<title>Node2&#45;&gt;Node10</title>
<g id="a_edge14_Node000002_Node000010"><a xlink:title=" ">
<path fill="none" stroke="#63b8ff" d="M570.96,-120.49C625.16,-112.01 707.66,-98.62 779,-85 787.73,-83.33 797.09,-81.4 805.91,-79.52"/>
<polygon fill="#63b8ff" stroke="#63b8ff" points="570.19,-117.07 560.84,-122.07 571.26,-123.98 570.19,-117.07"/>
</a>
</g>
</g>
<!-- Node11 -->
<g id="Node000011" class="node">
<title>Node11</title>
<g id="a_Node000011"><a xlink:href="../../de/d06/utils_8cpp.html" target="_top" xlink:title="Implementation of core utility functions for string manipulation, encoding conversion,...">
<polygon fill="white" stroke="#666666" points="1017.5,-79.5 918.5,-79.5 918.5,-60.5 1017.5,-60.5 1017.5,-79.5"/>
<text text-anchor="middle" x="968" y="-67.5" font-family="Helvetica,sans-Serif" font-size="10.00">src/core/utils.cpp</text>
</a>
</g>
</g>
<!-- Node2&#45;&gt;Node11 -->
<g id="edge15_Node000002_Node000011" class="edge">
<title>Node2&#45;&gt;Node11</title>
<g id="a_edge15_Node000002_Node000011"><a xlink:title=" ">
<path fill="none" stroke="#63b8ff" d="M570.79,-125.25C648.74,-119.08 790.4,-106.04 910,-85 918.37,-83.53 927.32,-81.56 935.63,-79.57"/>
<polygon fill="#63b8ff" stroke="#63b8ff" points="570.38,-121.77 560.68,-126.04 570.92,-128.75 570.38,-121.77"/>
</a>
</g>
</g>
<!-- Node12 -->
<g id="Node000012" class="node">
<title>Node12</title>
<g id="a_Node000012"><a xlink:href="../../d7/d90/assertion__stub_8cpp.html" target="_top" xlink:title="Stub implementation of assertion system for platforms without native assertion support.">
<polygon fill="white" stroke="#666666" points="1170.5,-85 1035.5,-85 1035.5,-55 1170.5,-55 1170.5,-85"/>
<text text-anchor="start" x="1043.5" y="-73" font-family="Helvetica,sans-Serif" font-size="10.00">src/platforms/stub</text>
<text text-anchor="middle" x="1103" y="-62" font-family="Helvetica,sans-Serif" font-size="10.00">/core/assertion_stub.cpp</text>
</a>
</g>
</g>
<!-- Node2&#45;&gt;Node12 -->
<g id="edge16_Node000002_Node000012" class="edge">
<title>Node2&#45;&gt;Node12</title>
<g id="a_edge16_Node000002_Node000012"><a xlink:title=" ">
<path fill="none" stroke="#63b8ff" d="M570.89,-126.26C666.77,-120.56 862.46,-107.21 1027,-85 1029.66,-84.64 1032.37,-84.25 1035.1,-83.84"/>
<polygon fill="#63b8ff" stroke="#63b8ff" points="570.59,-122.77 560.81,-126.85 571,-129.76 570.59,-122.77"/>
</a>
</g>
</g>
<!-- Node3&#45;&gt;Node4 -->
<g id="edge3_Node000003_Node000004" class="edge">
<title>Node3&#45;&gt;Node4</title>
<g id="a_edge3_Node000003_Node000004"><a xlink:title=" ">
<path fill="none" stroke="#63b8ff" d="M93.62,-58.19C98.48,-57.1 103.34,-56.02 108,-55 167.77,-41.96 237.11,-27.78 280.52,-19.01"/>
<polygon fill="#63b8ff" stroke="#63b8ff" points="92.72,-54.81 83.74,-60.43 94.27,-61.63 92.72,-54.81"/>
</a>
</g>
</g>
<!-- Node5&#45;&gt;Node4 -->
<g id="edge5_Node000005_Node000004" class="edge">
<title>Node5&#45;&gt;Node4</title>
<g id="a_edge5_Node000005_Node000004"><a xlink:title=" ">
<path fill="none" stroke="#63b8ff" d="M228.61,-56.13C251.95,-44.85 285.21,-28.77 305.38,-19.02"/>
<polygon fill="#63b8ff" stroke="#63b8ff" points="227.07,-52.99 219.59,-60.49 230.12,-59.29 227.07,-52.99"/>
</a>
</g>
</g>
<!-- Node7&#45;&gt;Node4 -->
<g id="edge8_Node000007_Node000004" class="edge">
<title>Node7&#45;&gt;Node4</title>
<g id="a_edge8_Node000007_Node000004"><a xlink:title=" ">
<path fill="none" stroke="#63b8ff" d="M418.17,-56.13C394.64,-44.85 361.1,-28.77 340.76,-19.02"/>
<polygon fill="#63b8ff" stroke="#63b8ff" points="416.73,-59.33 427.26,-60.49 419.76,-53.01 416.73,-59.33"/>
</a>
</g>
</g>
<!-- Node8&#45;&gt;Node4 -->
<g id="edge10_Node000008_Node000004" class="edge">
<title>Node8&#45;&gt;Node4</title>
<g id="a_edge10_Node000008_Node000004"><a xlink:title=" ">
<path fill="none" stroke="#63b8ff" d="M531.96,-58.25C482.51,-46.95 405.7,-29.4 360.27,-19.02"/>
<polygon fill="#63b8ff" stroke="#63b8ff" points="531.25,-61.68 541.78,-60.49 532.81,-54.85 531.25,-61.68"/>
</a>
</g>
</g>
<!-- Node9&#45;&gt;Node4 -->
<g id="edge12_Node000009_Node000004" class="edge">
<title>Node9&#45;&gt;Node4</title>
<g id="a_edge12_Node000009_Node000004"><a xlink:title=" ">
<path fill="none" stroke="#63b8ff" d="M669.98,-58.3C664.28,-57.12 658.52,-55.98 653,-55 558.95,-38.24 448.82,-24.58 382.55,-16.99"/>
<polygon fill="#63b8ff" stroke="#63b8ff" points="669.61,-61.8 680.12,-60.48 671.08,-54.96 669.61,-61.8"/>
</a>
</g>
</g>
<!-- Node15&#45;&gt;Node2 -->
<g id="edge20_Node000015_Node000002" class="edge">
<title>Node15&#45;&gt;Node2</title>
<g id="a_edge20_Node000015_Node000002"><a xlink:title=" ">
<path fill="none" stroke="#63b8ff" d="M660.11,-173.16C621.6,-162.33 573.19,-148.71 542.41,-140.05"/>
<polygon fill="#63b8ff" stroke="#63b8ff" points="659.6,-176.65 670.18,-175.99 661.5,-169.91 659.6,-176.65"/>
</a>
</g>
</g>
</g>
</svg>
