<?xml version="1.0" encoding="UTF-8" standalone="no"?>
<!DOCTYPE svg PUBLIC "-//W3C//DTD SVG 1.1//EN"
 "http://www.w3.org/Graphics/SVG/1.1/DTD/svg11.dtd">
<!-- Generated by graphviz version 2.43.0 (0)
 -->
<!-- Title: include/core/platform.hpp Pages: 1 -->
<!--zoomable 346 -->

<svg id="main" version="1.1" xmlns="http://www.w3.org/2000/svg" xmlns:xlink="http://www.w3.org/1999/xlink" xml:space="preserve" onload="init(evt)">

<style type="text/css"><![CDATA[
.node, .edge {opacity: 0.7;}
.node.selected, .edge.selected {opacity: 1;}
.edge:hover path { stroke: red; }
.edge:hover polygon { stroke: red; fill: red; }
]]></style>

<defs>
  <circle id="rim" cx="0" cy="0" r="7"/>
  <circle id="rim2" cx="0" cy="0" r="3.5"/>
  <g id="zoomPlus">
    <use xlink:href="#rim" fill="#404040"><set attributeName="fill" to="#808080" begin="zoomplus.mouseover" end="zoomplus.mouseout"/></use>
    <path d="M-4,0h8M0,-4v8" fill="none" stroke="white" stroke-width="1.5" pointer-events="none"/>
  </g>
  <g id="zoomMin">
    <use xlink:href="#rim" fill="#404040"><set attributeName="fill" to="#808080" begin="zoomminus.mouseover" end="zoomminus.mouseout"/></use>
    <path d="M-4,0h8" fill="none" stroke="white" stroke-width="1.5" pointer-events="none"/>
  </g>
  <g id="arrowUp" transform="translate(30 24)">
    <use xlink:href="#rim"/>
    <path pointer-events="none" fill="none" stroke="white" stroke-width="1.5" d="M0,-3.0v7 M-2.5,-0.5L0,-3.0L2.5,-0.5"/>
  </g>
  <g id="arrowRight" transform="rotate(90) translate(36 -43)">
    <use xlink:href="#rim"/>
    <path pointer-events="none" fill="none" stroke="white" stroke-width="1.5" d="M0,-3.0v7 M-2.5,-0.5L0,-3.0L2.5,-0.5"/>
  </g>
  <g id="arrowDown" transform="rotate(180) translate(-30 -48)">
    <use xlink:href="#rim"/>
    <path pointer-events="none" fill="none" stroke="white" stroke-width="1.5" d="M0,-3.0v7 M-2.5,-0.5L0,-3.0L2.5,-0.5"/>
  </g>
  <g id="arrowLeft" transform="rotate(270) translate(-36 17)">
    <use xlink:href="#rim"/>
    <path pointer-events="none" fill="none" stroke="white" stroke-width="1.5" d="M0,-3.0v7 M-2.5,-0.5L0,-3.0L2.5,-0.5"/>
  </g>
  <g id="resetDef">
    <use xlink:href="#rim2" fill="#404040"><set attributeName="fill" to="#808080" begin="reset.mouseover" end="reset.mouseout"/></use>
  </g>
</defs>
<script type="application/ecmascript">
var viewWidth = 3187;
var viewHeight = 346;
var sectionId = 'dynsection-0';
</script>
<script type="application/ecmascript" xlink:href="../../svg.min.js"/>
<svg id="graph" class="graph">
<g id="viewport">
<title>include/core/platform.hpp</title>
<!-- Node1 -->
<g id="Node000001" class="node">
<title>Node1</title>
<g id="a_Node000001"><a xlink:title="Platform and CPU architecture enums with compile&#45;time and runtime detection.">
<polygon fill="#999999" stroke="#666666" points="2263.39,-338 2121.39,-338 2121.39,-319 2263.39,-319 2263.39,-338"/>
<text text-anchor="middle" x="2192.39" y="-326" font-family="Helvetica,sans-Serif" font-size="10.00">include/core/platform.hpp</text>
</a>
</g>
</g>
<!-- Node2 -->
<g id="Node000002" class="node">
<title>Node2</title>
<g id="a_Node000002"><a xlink:href="../../da/d47/core_8hpp.html" target="_top" xlink:title="Umbrella header for the engine core module.">
<polygon fill="white" stroke="#666666" points="1965.89,-217 1868.89,-217 1868.89,-198 1965.89,-198 1965.89,-217"/>
<text text-anchor="middle" x="1917.39" y="-205" font-family="Helvetica,sans-Serif" font-size="10.00">include/core.hpp</text>
</a>
</g>
</g>
<!-- Node1&#45;&gt;Node2 -->
<g id="edge1_Node000001_Node000002" class="edge">
<title>Node1&#45;&gt;Node2</title>
<g id="a_edge1_Node000001_Node000002"><a xlink:title=" ">
<path fill="none" stroke="#63b8ff" d="M2110.9,-325.52C1984.64,-321.6 1753.55,-310.7 1728.39,-283 1685.16,-235.43 1799.27,-217.83 1868.6,-211.64"/>
<polygon fill="#63b8ff" stroke="#63b8ff" points="2110.82,-329.02 2120.92,-325.82 2111.03,-322.02 2110.82,-329.02"/>
</a>
</g>
</g>
<!-- Node30 -->
<g id="Node000030" class="node">
<title>Node30</title>
<g id="a_Node000030"><a xlink:href="../../d5/d82/3ds_2platform__config_8hpp.html" target="_top" xlink:title="Compile&#45;time platform and CPU bindings for Nintendo 3DS.">
<polygon fill="white" stroke="#666666" points="1883.39,-283 1737.39,-283 1737.39,-253 1883.39,-253 1883.39,-283"/>
<text text-anchor="start" x="1745.39" y="-271" font-family="Helvetica,sans-Serif" font-size="10.00">src/platforms/3ds/platform</text>
<text text-anchor="middle" x="1810.39" y="-260" font-family="Helvetica,sans-Serif" font-size="10.00">_config.hpp</text>
</a>
</g>
</g>
<!-- Node1&#45;&gt;Node30 -->
<g id="edge37_Node000001_Node000030" class="edge">
<title>Node1&#45;&gt;Node30</title>
<g id="a_edge37_Node000001_Node000030"><a xlink:title=" ">
<path fill="none" stroke="#63b8ff" d="M2122.02,-317.51C2061.18,-308.76 1970.91,-295.53 1892.39,-283 1889.53,-282.55 1886.63,-282.08 1883.69,-281.6"/>
<polygon fill="#63b8ff" stroke="#63b8ff" points="2121.88,-321.02 2132.28,-318.98 2122.88,-314.09 2121.88,-321.02"/>
</a>
</g>
</g>
<!-- Node31 -->
<g id="Node000031" class="node">
<title>Node31</title>
<g id="a_Node000031"><a xlink:href="../../df/db1/gba_2platform__config_8hpp.html" target="_top" xlink:title="Compile&#45;time platform and CPU bindings for Nintendo GBA.">
<polygon fill="white" stroke="#666666" points="2048.89,-283 1901.89,-283 1901.89,-253 2048.89,-253 2048.89,-283"/>
<text text-anchor="start" x="1909.89" y="-271" font-family="Helvetica,sans-Serif" font-size="10.00">src/platforms/gba/platform</text>
<text text-anchor="middle" x="1975.39" y="-260" font-family="Helvetica,sans-Serif" font-size="10.00">_config.hpp</text>
</a>
</g>
</g>
<!-- Node1&#45;&gt;Node31 -->
<g id="edge38_Node000001_Node000031" class="edge">
<title>Node1&#45;&gt;Node31</title>
<g id="a_edge38_Node000001_Node000031"><a xlink:title=" ">
<path fill="none" stroke="#63b8ff" d="M2150.92,-316.32C2115.84,-306.86 2065.38,-293.26 2027.56,-283.06"/>
<polygon fill="#63b8ff" stroke="#63b8ff" points="2150.27,-319.77 2160.83,-318.99 2152.09,-313.01 2150.27,-319.77"/>
</a>
</g>
</g>
<!-- Node32 -->
<g id="Node000032" class="node">
<title>Node32</title>
<g id="a_Node000032"><a xlink:href="../../dd/d9e/linux_2platform__config_8hpp.html" target="_top" xlink:title="Compile&#45;time platform and CPU bindings for Linux.">
<polygon fill="white" stroke="#666666" points="2183.89,-283 2066.89,-283 2066.89,-253 2183.89,-253 2183.89,-283"/>
<text text-anchor="start" x="2074.89" y="-271" font-family="Helvetica,sans-Serif" font-size="10.00">src/platforms/linux</text>
<text text-anchor="middle" x="2125.39" y="-260" font-family="Helvetica,sans-Serif" font-size="10.00">/platform_config.hpp</text>
</a>
</g>
</g>
<!-- Node1&#45;&gt;Node32 -->
<g id="edge39_Node000001_Node000032" class="edge">
<title>Node1&#45;&gt;Node32</title>
<g id="a_edge39_Node000001_Node000032"><a xlink:title=" ">
<path fill="none" stroke="#63b8ff" d="M2174.9,-312.23C2164.59,-303.23 2151.63,-291.91 2141.55,-283.11"/>
<polygon fill="#63b8ff" stroke="#63b8ff" points="2172.66,-314.93 2182.5,-318.87 2177.27,-309.65 2172.66,-314.93"/>
</a>
</g>
</g>
<!-- Node33 -->
<g id="Node000033" class="node">
<title>Node33</title>
<g id="a_Node000033"><a xlink:href="../../d8/d80/macos_2platform__config_8hpp.html" target="_top" xlink:title="Compile&#45;time platform and CPU bindings for macOS.">
<polygon fill="white" stroke="#666666" points="2318.89,-283 2201.89,-283 2201.89,-253 2318.89,-253 2318.89,-283"/>
<text text-anchor="start" x="2209.89" y="-271" font-family="Helvetica,sans-Serif" font-size="10.00">src/platforms/macos</text>
<text text-anchor="middle" x="2260.39" y="-260" font-family="Helvetica,sans-Serif" font-size="10.00">/platform_config.hpp</text>
</a>
</g>
</g>
<!-- Node1&#45;&gt;Node33 -->
<g id="edge41_Node000001_Node000033" class="edge">
<title>Node1&#45;&gt;Node33</title>
<g id="a_edge41_Node000001_Node000033"><a xlink:title=" ">
<path fill="none" stroke="#63b8ff" d="M2210.13,-312.23C2220.6,-303.23 2233.75,-291.91 2243.98,-283.11"/>
<polygon fill="#63b8ff" stroke="#63b8ff" points="2207.72,-309.69 2202.42,-318.87 2212.28,-315 2207.72,-309.69"/>
</a>
</g>
</g>
<!-- Node34 -->
<g id="Node000034" class="node">
<title>Node34</title>
<g id="a_Node000034"><a xlink:href="../../dc/d74/nds_2platform__config_8hpp.html" target="_top" xlink:title="Compile&#45;time platform and CPU bindings for Nintendo DS.">
<polygon fill="white" stroke="#666666" points="2483.39,-283 2337.39,-283 2337.39,-253 2483.39,-253 2483.39,-283"/>
<text text-anchor="start" x="2345.39" y="-271" font-family="Helvetica,sans-Serif" font-size="10.00">src/platforms/nds/platform</text>
<text text-anchor="middle" x="2410.39" y="-260" font-family="Helvetica,sans-Serif" font-size="10.00">_config.hpp</text>
</a>
</g>
</g>
<!-- Node1&#45;&gt;Node34 -->
<g id="edge42_Node000001_Node000034" class="edge">
<title>Node1&#45;&gt;Node34</title>
<g id="a_edge42_Node000001_Node000034"><a xlink:title=" ">
<path fill="none" stroke="#63b8ff" d="M2234.04,-316.32C2269.29,-306.86 2319.98,-293.26 2357.98,-283.06"/>
<polygon fill="#63b8ff" stroke="#63b8ff" points="2232.84,-313.02 2224.08,-318.99 2234.65,-319.78 2232.84,-313.02"/>
</a>
</g>
</g>
<!-- Node35 -->
<g id="Node000035" class="node">
<title>Node35</title>
<g id="a_Node000035"><a xlink:href="../../db/d83/switch_2platform__config_8hpp.html" target="_top" xlink:title="Compile&#45;time platform and CPU bindings for Nintendo Switch.">
<polygon fill="white" stroke="#666666" points="2618.89,-283 2501.89,-283 2501.89,-253 2618.89,-253 2618.89,-283"/>
<text text-anchor="start" x="2509.89" y="-271" font-family="Helvetica,sans-Serif" font-size="10.00">src/platforms/switch</text>
<text text-anchor="middle" x="2560.39" y="-260" font-family="Helvetica,sans-Serif" font-size="10.00">/platform_config.hpp</text>
</a>
</g>
</g>
<!-- Node1&#45;&gt;Node35 -->
<g id="edge43_Node000001_Node000035" class="edge">
<title>Node1&#45;&gt;Node35</title>
<g id="a_edge43_Node000001_Node000035"><a xlink:title=" ">
<path fill="none" stroke="#63b8ff" d="M2267.2,-317.58C2328.01,-309.24 2415.93,-296.53 2492.39,-283 2495.47,-282.45 2498.63,-281.87 2501.82,-281.27"/>
<polygon fill="#63b8ff" stroke="#63b8ff" points="2266.36,-314.16 2256.93,-318.99 2267.31,-321.1 2266.36,-314.16"/>
</a>
</g>
</g>
<!-- Node36 -->
<g id="Node000036" class="node">
<title>Node36</title>
<g id="a_Node000036"><a xlink:href="../../db/d29/windows_2platform__config_8hpp.html" target="_top" xlink:title="Compile&#45;time platform and CPU bindings for Windows.">
<polygon fill="white" stroke="#666666" points="2763.89,-283 2636.89,-283 2636.89,-253 2763.89,-253 2763.89,-283"/>
<text text-anchor="start" x="2644.89" y="-271" font-family="Helvetica,sans-Serif" font-size="10.00">src/platforms/windows</text>
<text text-anchor="middle" x="2700.39" y="-260" font-family="Helvetica,sans-Serif" font-size="10.00">/platform_config.hpp</text>
</a>
</g>
</g>
<!-- Node1&#45;&gt;Node36 -->
<g id="edge44_Node000001_Node000036" class="edge">
<title>Node1&#45;&gt;Node36</title>
<g id="a_edge44_Node000001_Node000036"><a xlink:title=" ">
<path fill="none" stroke="#63b8ff" d="M2273.78,-321.4C2361.56,-314.31 2505.3,-301.21 2628.39,-283 2631.16,-282.59 2633.98,-282.15 2636.84,-281.68"/>
<polygon fill="#63b8ff" stroke="#63b8ff" points="2273.31,-317.93 2263.62,-322.22 2273.87,-324.91 2273.31,-317.93"/>
</a>
</g>
</g>
<!-- Node3 -->
<g id="Node000003" class="node">
<title>Node3</title>
<g id="a_Node000003"><a xlink:href="../../d4/d01/application_8hpp.html" target="_top" xlink:title="Umbrella header for the application module.">
<polygon fill="white" stroke="#666666" points="613.39,-156.5 483.39,-156.5 483.39,-137.5 613.39,-137.5 613.39,-156.5"/>
<text text-anchor="middle" x="548.39" y="-144.5" font-family="Helvetica,sans-Serif" font-size="10.00">include/application.hpp</text>
</a>
</g>
</g>
<!-- Node2&#45;&gt;Node3 -->
<g id="edge2_Node000002_Node000003" class="edge">
<title>Node2&#45;&gt;Node3</title>
<g id="a_edge2_Node000002_Node000003"><a xlink:title=" ">
<path fill="none" stroke="#63b8ff" d="M1858.5,-203.98C1635.92,-194.47 846.83,-160.75 613.7,-150.79"/>
<polygon fill="#63b8ff" stroke="#63b8ff" points="1858.52,-207.49 1868.66,-204.42 1858.82,-200.49 1858.52,-207.49"/>
</a>
</g>
</g>
<!-- Node4 -->
<g id="Node000004" class="node">
<title>Node4</title>
<g id="a_Node000004"><a xlink:href="../../d8/d8c/toygine2_8hpp.html" target="_top" xlink:title="Main umbrella header for the engine.">
<polygon fill="white" stroke="#666666" points="1509.89,-19 1390.89,-19 1390.89,0 1509.89,0 1509.89,-19"/>
<text text-anchor="middle" x="1450.39" y="-7" font-family="Helvetica,sans-Serif" font-size="10.00">include/toygine2.hpp</text>
</a>
</g>
</g>
<!-- Node2&#45;&gt;Node4 -->
<g id="edge27_Node000002_Node000004" class="edge">
<title>Node2&#45;&gt;Node4</title>
<g id="a_edge27_Node000002_Node000004"><a xlink:title=" ">
<path fill="none" stroke="#63b8ff" d="M1858.29,-204.6C1730.38,-200.07 1431.48,-187.08 1333.39,-162 1264.39,-144.36 1226,-155.83 1187.39,-96 1177.5,-80.69 1175.62,-68.92 1187.39,-55 1212.9,-24.8 1321.38,-15.09 1390.8,-11.97"/>
<polygon fill="#63b8ff" stroke="#63b8ff" points="1858.55,-208.11 1868.67,-204.96 1858.79,-201.12 1858.55,-208.11"/>
</a>
</g>
</g>
<!-- Node12 -->
<g id="Node000012" class="node">
<title>Node12</title>
<g id="a_Node000012"><a xlink:href="../../d1/d71/audio_8hpp.html" target="_top" xlink:title="Umbrella header for the audio module.">
<polygon fill="white" stroke="#666666" points="1299.89,-85 1196.89,-85 1196.89,-66 1299.89,-66 1299.89,-85"/>
<text text-anchor="middle" x="1248.39" y="-73" font-family="Helvetica,sans-Serif" font-size="10.00">include/audio.hpp</text>
</a>
</g>
</g>
<!-- Node2&#45;&gt;Node12 -->
<g id="edge11_Node000002_Node000012" class="edge">
<title>Node2&#45;&gt;Node12</title>
<g id="a_edge11_Node000002_Node000012"><a xlink:title=" ">
<path fill="none" stroke="#63b8ff" d="M1858.61,-204.48C1742.36,-199.97 1487.09,-187.46 1403.39,-162 1345.46,-144.39 1284.9,-103.25 1260.06,-85.22"/>
<polygon fill="#63b8ff" stroke="#63b8ff" points="1858.62,-207.98 1868.74,-204.86 1858.88,-200.98 1858.62,-207.98"/>
</a>
</g>
</g>
<!-- Node13 -->
<g id="Node000013" class="node">
<title>Node13</title>
<g id="a_Node000013"><a xlink:href="../../d8/d39/game_8hpp.html" target="_top" xlink:title="Umbrella header for the game module.">
<polygon fill="white" stroke="#666666" points="1422.39,-85 1318.39,-85 1318.39,-66 1422.39,-66 1422.39,-85"/>
<text text-anchor="middle" x="1370.39" y="-73" font-family="Helvetica,sans-Serif" font-size="10.00">include/game.hpp</text>
</a>
</g>
</g>
<!-- Node2&#45;&gt;Node13 -->
<g id="edge13_Node000002_Node000013" class="edge">
<title>Node2&#45;&gt;Node13</title>
<g id="a_edge13_Node000002_Node000013"><a xlink:title=" ">
<path fill="none" stroke="#63b8ff" d="M1858.76,-206.54C1747.92,-205.72 1512.39,-199.47 1441.39,-162 1407.77,-144.26 1383.85,-103.19 1374.6,-85.2"/>
<polygon fill="#63b8ff" stroke="#63b8ff" points="1858.74,-210.04 1868.76,-206.6 1858.78,-203.04 1858.74,-210.04"/>
</a>
</g>
</g>
<!-- Node14 -->
<g id="Node000014" class="node">
<title>Node14</title>
<g id="a_Node000014"><a xlink:href="../../d4/d78/math_8hpp.html" target="_top" xlink:title="Umbrella header for the math module.">
<polygon fill="white" stroke="#666666" points="1551.89,-156.5 1450.89,-156.5 1450.89,-137.5 1551.89,-137.5 1551.89,-156.5"/>
<text text-anchor="middle" x="1501.39" y="-144.5" font-family="Helvetica,sans-Serif" font-size="10.00">include/math.hpp</text>
</a>
</g>
</g>
<!-- Node2&#45;&gt;Node14 -->
<g id="edge15_Node000002_Node000014" class="edge">
<title>Node2&#45;&gt;Node14</title>
<g id="a_edge15_Node000002_Node000014"><a xlink:title=" ">
<path fill="none" stroke="#63b8ff" d="M1858.71,-201.07C1787.91,-194.08 1665.41,-180.59 1561.39,-162 1552.86,-160.48 1543.72,-158.52 1535.21,-156.55"/>
<polygon fill="#63b8ff" stroke="#63b8ff" points="1858.48,-204.56 1868.77,-202.05 1859.16,-197.6 1858.48,-204.56"/>
</a>
</g>
</g>
<!-- Node16 -->
<g id="Node000016" class="node">
<title>Node16</title>
<g id="a_Node000016"><a xlink:href="../../d6/d67/network_8hpp.html" target="_top" xlink:title="Umbrella header for the network module.">
<polygon fill="white" stroke="#666666" points="1686.39,-156.5 1570.39,-156.5 1570.39,-137.5 1686.39,-137.5 1686.39,-156.5"/>
<text text-anchor="middle" x="1628.39" y="-144.5" font-family="Helvetica,sans-Serif" font-size="10.00">include/network.hpp</text>
</a>
</g>
</g>
<!-- Node2&#45;&gt;Node16 -->
<g id="edge19_Node000002_Node000016" class="edge">
<title>Node2&#45;&gt;Node16</title>
<g id="a_edge19_Node000002_Node000016"><a xlink:title=" ">
<path fill="none" stroke="#63b8ff" d="M1865.33,-195.96C1809.54,-184.67 1722.06,-166.96 1670.46,-156.52"/>
<polygon fill="#63b8ff" stroke="#63b8ff" points="1864.87,-199.44 1875.36,-197.99 1866.26,-192.58 1864.87,-199.44"/>
</a>
</g>
</g>
<!-- Node18 -->
<g id="Node000018" class="node">
<title>Node18</title>
<g id="a_Node000018"><a xlink:href="../../de/dd6/ui_8hpp.html" target="_top" xlink:title="Umbrella header for platform UI types.">
<polygon fill="white" stroke="#666666" points="1944.39,-85 1814.39,-85 1814.39,-66 1944.39,-66 1944.39,-85"/>
<text text-anchor="middle" x="1879.39" y="-73" font-family="Helvetica,sans-Serif" font-size="10.00">include/platform/ui.hpp</text>
</a>
</g>
</g>
<!-- Node2&#45;&gt;Node18 -->
<g id="edge22_Node000002_Node000018" class="edge">
<title>Node2&#45;&gt;Node18</title>
<g id="a_edge22_Node000002_Node000018"><a xlink:title=" ">
<path fill="none" stroke="#63b8ff" d="M1858.77,-200.18C1810.95,-193.66 1748.85,-181.65 1733.39,-162 1725.14,-151.52 1725.82,-142.98 1733.39,-132 1746.32,-113.25 1805.15,-95.21 1844.07,-85.02"/>
<polygon fill="#63b8ff" stroke="#63b8ff" points="1858.37,-203.65 1868.74,-201.48 1859.28,-196.71 1858.37,-203.65"/>
</a>
</g>
</g>
<!-- Node19 -->
<g id="Node000019" class="node">
<title>Node19</title>
<g id="a_Node000019"><a xlink:href="../../d6/d4b/render_8hpp.html" target="_top" xlink:title="Umbrella header for the render module.">
<polygon fill="white" stroke="#666666" points="1849.89,-156.5 1742.89,-156.5 1742.89,-137.5 1849.89,-137.5 1849.89,-156.5"/>
<text text-anchor="middle" x="1796.39" y="-144.5" font-family="Helvetica,sans-Serif" font-size="10.00">include/render.hpp</text>
</a>
</g>
</g>
<!-- Node2&#45;&gt;Node19 -->
<g id="edge24_Node000002_Node000019" class="edge">
<title>Node2&#45;&gt;Node19</title>
<g id="a_edge24_Node000002_Node000019"><a xlink:title=" ">
<path fill="none" stroke="#63b8ff" d="M1890.77,-193.63C1867.44,-182.35 1834.17,-166.27 1814,-156.52"/>
<polygon fill="#63b8ff" stroke="#63b8ff" points="1889.26,-196.79 1899.79,-197.99 1892.31,-190.49 1889.26,-196.79"/>
</a>
</g>
</g>
<!-- Node21 -->
<g id="Node000021" class="node">
<title>Node21</title>
<g id="a_Node000021"><a xlink:href="../../da/de0/core_8cpp.html" target="_top" xlink:title="Implementation of toy::initialize() and toy::deInitialize() lifecycle functions.">
<polygon fill="white" stroke="#666666" points="1966.89,-156.5 1867.89,-156.5 1867.89,-137.5 1966.89,-137.5 1966.89,-156.5"/>
<text text-anchor="middle" x="1917.39" y="-144.5" font-family="Helvetica,sans-Serif" font-size="10.00">src/core/core.cpp</text>
</a>
</g>
</g>
<!-- Node2&#45;&gt;Node21 -->
<g id="edge28_Node000002_Node000021" class="edge">
<title>Node2&#45;&gt;Node21</title>
<g id="a_edge28_Node000002_Node000021"><a xlink:title=" ">
<path fill="none" stroke="#63b8ff" d="M1917.39,-187.66C1917.39,-177.24 1917.39,-164.8 1917.39,-156.67"/>
<polygon fill="#63b8ff" stroke="#63b8ff" points="1913.89,-187.87 1917.39,-197.87 1920.89,-187.87 1913.89,-187.87"/>
</a>
</g>
</g>
<!-- Node22 -->
<g id="Node000022" class="node">
<title>Node22</title>
<g id="a_Node000022"><a xlink:href="../../db/d2d/hashes_8cpp.html" target="_top" xlink:title="Table&#45;driven implementations of toy::crc8(), toy::crc16(), and toy::crc32().">
<polygon fill="white" stroke="#666666" points="2097.89,-156.5 1984.89,-156.5 1984.89,-137.5 2097.89,-137.5 2097.89,-156.5"/>
<text text-anchor="middle" x="2041.39" y="-144.5" font-family="Helvetica,sans-Serif" font-size="10.00">src/core/hashes.cpp</text>
</a>
</g>
</g>
<!-- Node2&#45;&gt;Node22 -->
<g id="edge29_Node000002_Node000022" class="edge">
<title>Node2&#45;&gt;Node22</title>
<g id="a_edge29_Node000002_Node000022"><a xlink:title=" ">
<path fill="none" stroke="#63b8ff" d="M1944.66,-193.63C1968.57,-182.35 2002.66,-166.27 2023.33,-156.52"/>
<polygon fill="#63b8ff" stroke="#63b8ff" points="1942.97,-190.56 1935.42,-197.99 1945.95,-196.89 1942.97,-190.56"/>
</a>
</g>
</g>
<!-- Node23 -->
<g id="Node000023" class="node">
<title>Node23</title>
<g id="a_Node000023"><a xlink:href="../../d2/d51/log__sink_8cpp.html" target="_top" xlink:title="Out&#45;of&#45;line definitions for toy::log::ISink.">
<polygon fill="white" stroke="#666666" points="2234.89,-156.5 2115.89,-156.5 2115.89,-137.5 2234.89,-137.5 2234.89,-156.5"/>
<text text-anchor="middle" x="2175.39" y="-144.5" font-family="Helvetica,sans-Serif" font-size="10.00">src/core/log_sink.cpp</text>
</a>
</g>
</g>
<!-- Node2&#45;&gt;Node23 -->
<g id="edge30_Node000002_Node000023" class="edge">
<title>Node2&#45;&gt;Node23</title>
<g id="a_edge30_Node000002_Node000023"><a xlink:title=" ">
<path fill="none" stroke="#63b8ff" d="M1964.79,-195.75C2014.63,-184.45 2092.04,-166.9 2137.82,-156.52"/>
<polygon fill="#63b8ff" stroke="#63b8ff" points="1963.88,-192.37 1954.9,-197.99 1965.43,-199.2 1963.88,-192.37"/>
</a>
</g>
</g>
<!-- Node24 -->
<g id="Node000024" class="node">
<title>Node24</title>
<g id="a_Node000024"><a xlink:href="../../de/d06/utils_8cpp.html" target="_top" xlink:title="Definitions for string, encoding, and number utilities declared in core/utils.hpp.">
<polygon fill="white" stroke="#666666" points="2351.89,-156.5 2252.89,-156.5 2252.89,-137.5 2351.89,-137.5 2351.89,-156.5"/>
<text text-anchor="middle" x="2302.39" y="-144.5" font-family="Helvetica,sans-Serif" font-size="10.00">src/core/utils.cpp</text>
</a>
</g>
</g>
<!-- Node2&#45;&gt;Node24 -->
<g id="edge31_Node000002_Node000024" class="edge">
<title>Node2&#45;&gt;Node24</title>
<g id="a_edge31_Node000002_Node000024"><a xlink:title=" ">
<path fill="none" stroke="#63b8ff" d="M1976.08,-200.23C2041.56,-192.83 2150.51,-179.32 2243.39,-162 2251.66,-160.46 2260.53,-158.51 2268.81,-156.56"/>
<polygon fill="#63b8ff" stroke="#63b8ff" points="1975.5,-196.77 1965.95,-201.37 1976.28,-203.73 1975.5,-196.77"/>
</a>
</g>
</g>
<!-- Node25 -->
<g id="Node000025" class="node">
<title>Node25</title>
<g id="a_Node000025"><a xlink:href="../../df/de5/assertion__linux_8cpp.html" target="_top" xlink:title="Linux implementation of the toy::assertion crash handler and stack trace capture.">
<polygon fill="white" stroke="#666666" points="2508.39,-162 2370.39,-162 2370.39,-132 2508.39,-132 2508.39,-162"/>
<text text-anchor="start" x="2378.39" y="-150" font-family="Helvetica,sans-Serif" font-size="10.00">src/platforms/linux</text>
<text text-anchor="middle" x="2439.39" y="-139" font-family="Helvetica,sans-Serif" font-size="10.00">/core/assertion_linux.cpp</text>
</a>
</g>
</g>
<!-- Node2&#45;&gt;Node25 -->
<g id="edge32_Node000002_Node000025" class="edge">
<title>Node2&#45;&gt;Node25</title>
<g id="a_edge32_Node000002_Node000025"><a xlink:title=" ">
<path fill="none" stroke="#63b8ff" d="M1976.01,-202.03C2060.97,-195.22 2223.17,-181.02 2360.39,-162 2363.56,-161.56 2366.8,-161.09 2370.07,-160.59"/>
<polygon fill="#63b8ff" stroke="#63b8ff" points="1975.73,-198.54 1966.04,-202.82 1976.28,-205.51 1975.73,-198.54"/>
</a>
</g>
</g>
<!-- Node26 -->
<g id="Node000026" class="node">
<title>Node26</title>
<g id="a_Node000026"><a xlink:href="../../d5/d5a/assertion__macos_8cpp.html" target="_top" xlink:title="macOS implementation of the toy::assertion crash handler and stack trace capture.">
<polygon fill="white" stroke="#666666" points="2672.39,-162 2526.39,-162 2526.39,-132 2672.39,-132 2672.39,-162"/>
<text text-anchor="start" x="2534.39" y="-150" font-family="Helvetica,sans-Serif" font-size="10.00">src/platforms/macos</text>
<text text-anchor="middle" x="2599.39" y="-139" font-family="Helvetica,sans-Serif" font-size="10.00">/core/assertion_macos.cpp</text>
</a>
</g>
</g>
<!-- Node2&#45;&gt;Node26 -->
<g id="edge33_Node000002_Node000026" class="edge">
<title>Node2&#45;&gt;Node26</title>
<g id="a_edge33_Node000002_Node000026"><a xlink:title=" ">
<path fill="none" stroke="#63b8ff" d="M1976.16,-204C2083.82,-199 2319.77,-186.14 2517.39,-162 2520.25,-161.65 2523.17,-161.27 2526.12,-160.86"/>
<polygon fill="#63b8ff" stroke="#63b8ff" points="1975.98,-200.5 1966.15,-204.46 1976.3,-207.5 1975.98,-200.5"/>
</a>
</g>
</g>
<!-- Node27 -->
<g id="Node000027" class="node">
<title>Node27</title>
<g id="a_Node000027"><a xlink:href="../../d6/d9a/clock__source__macos_8cpp.html" target="_top" xlink:title="macOS implementation of toy::chrono::ClockSource using CLOCK_MONOTONIC_RAW.">
<polygon fill="white" stroke="#666666" points="2854.39,-162 2690.39,-162 2690.39,-132 2854.39,-132 2854.39,-162"/>
<text text-anchor="start" x="2698.39" y="-150" font-family="Helvetica,sans-Serif" font-size="10.00">src/platforms/macos</text>
<text text-anchor="middle" x="2772.39" y="-139" font-family="Helvetica,sans-Serif" font-size="10.00">/core/clock_source_macos.cpp</text>
</a>
</g>
</g>
<!-- Node2&#45;&gt;Node27 -->
<g id="edge34_Node000002_Node000027" class="edge">
<title>Node2&#45;&gt;Node27</title>
<g id="a_edge34_Node000002_Node000027"><a xlink:title=" ">
<path fill="none" stroke="#63b8ff" d="M1976.24,-204.97C2104.62,-201.21 2419.28,-189.73 2681.39,-162 2684.25,-161.7 2687.16,-161.37 2690.09,-161.02"/>
<polygon fill="#63b8ff" stroke="#63b8ff" points="1976.12,-201.47 1966.23,-205.26 1976.33,-208.47 1976.12,-201.47"/>
</a>
</g>
</g>
<!-- Node28 -->
<g id="Node000028" class="node">
<title>Node28</title>
<g id="a_Node000028"><a xlink:href="../../d7/d90/assertion__stub_8cpp.html" target="_top" xlink:title="Stub definitions for the assertion callback API declared in core/assertion.hpp.">
<polygon fill="white" stroke="#666666" points="3007.89,-162 2872.89,-162 2872.89,-132 3007.89,-132 3007.89,-162"/>
<text text-anchor="start" x="2880.89" y="-150" font-family="Helvetica,sans-Serif" font-size="10.00">src/platforms/stub</text>
<text text-anchor="middle" x="2940.39" y="-139" font-family="Helvetica,sans-Serif" font-size="10.00">/core/assertion_stub.cpp</text>
</a>
</g>
</g>
<!-- Node2&#45;&gt;Node28 -->
<g id="edge35_Node000002_Node000028" class="edge">
<title>Node2&#45;&gt;Node28</title>
<g id="a_edge35_Node000002_Node000028"><a xlink:title=" ">
<path fill="none" stroke="#63b8ff" d="M1976.35,-206.44C2125.43,-205.71 2529.36,-200.05 2863.39,-162 2866.49,-161.65 2869.66,-161.24 2872.85,-160.8"/>
<polygon fill="#63b8ff" stroke="#63b8ff" points="1976.04,-202.94 1966.06,-206.49 1976.07,-209.94 1976.04,-202.94"/>
</a>
</g>
</g>
<!-- Node29 -->
<g id="Node000029" class="node">
<title>Node29</title>
<g id="a_Node000029"><a xlink:href="../../d4/dbf/clock__source__stub_8cpp.html" target="_top" xlink:title="Stub implementation of toy::chrono::ClockSource.">
<polygon fill="white" stroke="#666666" points="3178.89,-162 3025.89,-162 3025.89,-132 3178.89,-132 3178.89,-162"/>
<text text-anchor="start" x="3033.89" y="-150" font-family="Helvetica,sans-Serif" font-size="10.00">src/platforms/stub</text>
<text text-anchor="middle" x="3102.39" y="-139" font-family="Helvetica,sans-Serif" font-size="10.00">/core/clock_source_stub.cpp</text>
</a>
</g>
</g>
<!-- Node2&#45;&gt;Node29 -->
<g id="edge36_Node000002_Node000029" class="edge">
<title>Node2&#45;&gt;Node29</title>
<g id="a_edge36_Node000002_Node000029"><a xlink:title=" ">
<path fill="none" stroke="#63b8ff" d="M1976.47,-206.66C2141.52,-206.54 2621.32,-202.47 3017.39,-162 3020.06,-161.73 3022.79,-161.42 3025.53,-161.09"/>
<polygon fill="#63b8ff" stroke="#63b8ff" points="1976.06,-203.16 1966.06,-206.66 1976.06,-210.16 1976.06,-203.16"/>
</a>
</g>
</g>
<!-- Node3&#45;&gt;Node4 -->
<g id="edge3_Node000003_Node000004" class="edge">
<title>Node3&#45;&gt;Node4</title>
<g id="a_edge3_Node000003_Node000004"><a xlink:title=" ">
<path fill="none" stroke="#63b8ff" d="M472.97,-144.52C332.01,-140.96 40,-129.58 9.39,-96 -2.89,-82.53 -3.3,-68.08 9.39,-55 33.81,-29.81 1121.17,-14.61 1390.51,-11.22"/>
<polygon fill="#63b8ff" stroke="#63b8ff" points="473.18,-148.02 483.26,-144.77 473.35,-141.03 473.18,-148.02"/>
</a>
</g>
</g>
<!-- Node5 -->
<g id="Node000005" class="node">
<title>Node5</title>
<g id="a_Node000005"><a xlink:href="../../db/db6/console__application_8cpp.html" target="_top" xlink:title="Implementations for toy::application::ConsoleApplication.">
<polygon fill="white" stroke="#666666" points="146.39,-90.5 18.39,-90.5 18.39,-60.5 146.39,-60.5 146.39,-90.5"/>
<text text-anchor="start" x="26.39" y="-78.5" font-family="Helvetica,sans-Serif" font-size="10.00">src/application/console</text>
<text text-anchor="middle" x="82.39" y="-67.5" font-family="Helvetica,sans-Serif" font-size="10.00">_application.cpp</text>
</a>
</g>
</g>
<!-- Node3&#45;&gt;Node5 -->
<g id="edge4_Node000003_Node000005" class="edge">
<title>Node3&#45;&gt;Node5</title>
<g id="a_edge4_Node000003_Node000005"><a xlink:title=" ">
<path fill="none" stroke="#63b8ff" d="M472.88,-139.44C393.4,-131.82 264.87,-117.49 155.39,-96 147.53,-94.46 139.28,-92.55 131.26,-90.52"/>
<polygon fill="#63b8ff" stroke="#63b8ff" points="473,-142.96 483.28,-140.42 473.66,-135.99 473,-142.96"/>
</a>
</g>
</g>
<!-- Node6 -->
<g id="Node000006" class="node">
<title>Node6</title>
<g id="a_Node000006"><a xlink:href="../../d0/dbb/core__application_8cpp.html" target="_top" xlink:title="Implementations for toy::application::CoreApplication.">
<polygon fill="white" stroke="#666666" points="276.39,-90.5 164.39,-90.5 164.39,-60.5 276.39,-60.5 276.39,-90.5"/>
<text text-anchor="start" x="172.39" y="-78.5" font-family="Helvetica,sans-Serif" font-size="10.00">src/application/core</text>
<text text-anchor="middle" x="220.39" y="-67.5" font-family="Helvetica,sans-Serif" font-size="10.00">_application.cpp</text>
</a>
</g>
</g>
<!-- Node3&#45;&gt;Node6 -->
<g id="edge5_Node000003_Node000006" class="edge">
<title>Node3&#45;&gt;Node6</title>
<g id="a_edge5_Node000003_Node000006"><a xlink:title=" ">
<path fill="none" stroke="#63b8ff" d="M484.61,-135.78C431.11,-126.75 352.83,-112.48 285.39,-96 278.75,-94.38 271.78,-92.49 264.98,-90.54"/>
<polygon fill="#63b8ff" stroke="#63b8ff" points="484.2,-139.26 494.64,-137.46 485.36,-132.36 484.2,-139.26"/>
</a>
</g>
</g>
<!-- Node7 -->
<g id="Node000007" class="node">
<title>Node7</title>
<g id="a_Node000007"><a xlink:href="../../d0/d8a/core__application__linux_8cpp.html" target="_top" xlink:title="Linux implementations of toy::application::CoreApplication via POSIX APIs.">
<polygon fill="white" stroke="#666666" points="451.89,-96 294.89,-96 294.89,-55 451.89,-55 451.89,-96"/>
<text text-anchor="start" x="302.89" y="-84" font-family="Helvetica,sans-Serif" font-size="10.00">src/platforms/linux</text>
<text text-anchor="start" x="302.89" y="-73" font-family="Helvetica,sans-Serif" font-size="10.00">/application/core_application</text>
<text text-anchor="middle" x="373.39" y="-62" font-family="Helvetica,sans-Serif" font-size="10.00">_linux.cpp</text>
</a>
</g>
</g>
<!-- Node3&#45;&gt;Node7 -->
<g id="edge6_Node000003_Node000007" class="edge">
<title>Node3&#45;&gt;Node7</title>
<g id="a_edge6_Node000003_Node000007"><a xlink:title=" ">
<path fill="none" stroke="#63b8ff" d="M517.48,-133.73C491.21,-123.29 453.02,-108.13 422.55,-96.03"/>
<polygon fill="#63b8ff" stroke="#63b8ff" points="516.34,-137.04 526.93,-137.48 518.93,-130.53 516.34,-137.04"/>
</a>
</g>
</g>
<!-- Node8 -->
<g id="Node000008" class="node">
<title>Node8</title>
<g id="a_Node000008"><a xlink:href="../../d8/d89/core__application__macos_8cpp.html" target="_top" xlink:title="macOS implementations of toy::application::CoreApplication via POSIX APIs.">
<polygon fill="white" stroke="#666666" points="626.89,-96 469.89,-96 469.89,-55 626.89,-55 626.89,-96"/>
<text text-anchor="start" x="477.89" y="-84" font-family="Helvetica,sans-Serif" font-size="10.00">src/platforms/macos</text>
<text text-anchor="start" x="477.89" y="-73" font-family="Helvetica,sans-Serif" font-size="10.00">/application/core_application</text>
<text text-anchor="middle" x="548.39" y="-62" font-family="Helvetica,sans-Serif" font-size="10.00">_macos.cpp</text>
</a>
</g>
</g>
<!-- Node3&#45;&gt;Node8 -->
<g id="edge7_Node000003_Node000008" class="edge">
<title>Node3&#45;&gt;Node8</title>
<g id="a_edge7_Node000003_Node000008"><a xlink:title=" ">
<path fill="none" stroke="#63b8ff" d="M548.39,-127.38C548.39,-117.74 548.39,-105.96 548.39,-96.17"/>
<polygon fill="#63b8ff" stroke="#63b8ff" points="544.89,-127.48 548.39,-137.48 551.89,-127.48 544.89,-127.48"/>
</a>
</g>
</g>
<!-- Node9 -->
<g id="Node000009" class="node">
<title>Node9</title>
<g id="a_Node000009"><a xlink:href="../../db/da8/core__application__stub_8cpp.html" target="_top" xlink:title="Stub implementation of toy::application::CoreApplication::sleep() for platforms without OS sleep supp...">
<polygon fill="white" stroke="#666666" points="801.89,-96 644.89,-96 644.89,-55 801.89,-55 801.89,-96"/>
<text text-anchor="start" x="652.89" y="-84" font-family="Helvetica,sans-Serif" font-size="10.00">src/platforms/stub</text>
<text text-anchor="start" x="652.89" y="-73" font-family="Helvetica,sans-Serif" font-size="10.00">/application/core_application</text>
<text text-anchor="middle" x="723.39" y="-62" font-family="Helvetica,sans-Serif" font-size="10.00">_stub.cpp</text>
</a>
</g>
</g>
<!-- Node3&#45;&gt;Node9 -->
<g id="edge8_Node000003_Node000009" class="edge">
<title>Node3&#45;&gt;Node9</title>
<g id="a_edge8_Node000003_Node000009"><a xlink:title=" ">
<path fill="none" stroke="#63b8ff" d="M579.29,-133.73C605.56,-123.29 643.75,-108.13 674.22,-96.03"/>
<polygon fill="#63b8ff" stroke="#63b8ff" points="577.85,-130.53 569.84,-137.48 580.43,-137.04 577.85,-130.53"/>
</a>
</g>
</g>
<!-- Node10 -->
<g id="Node000010" class="node">
<title>Node10</title>
<g id="a_Node000010"><a xlink:href="../../df/dd0/console__application__windows_8cpp.html" target="_top" xlink:title="Windows console entry&#45;point argument conversion from UTF&#45;16 to UTF&#45;8.">
<polygon fill="white" stroke="#666666" points="964.39,-96 820.39,-96 820.39,-55 964.39,-55 964.39,-96"/>
<text text-anchor="start" x="828.39" y="-84" font-family="Helvetica,sans-Serif" font-size="10.00">src/platforms/windows</text>
<text text-anchor="start" x="828.39" y="-73" font-family="Helvetica,sans-Serif" font-size="10.00">/application/console</text>
<text text-anchor="middle" x="892.39" y="-62" font-family="Helvetica,sans-Serif" font-size="10.00">_application_windows.cpp</text>
</a>
</g>
</g>
<!-- Node3&#45;&gt;Node10 -->
<g id="edge9_Node000003_Node000010" class="edge">
<title>Node3&#45;&gt;Node10</title>
<g id="a_edge9_Node000003_Node000010"><a xlink:title=" ">
<path fill="none" stroke="#63b8ff" d="M606.74,-135.64C659.93,-126.01 740.62,-110.94 810.39,-96 813.53,-95.33 816.75,-94.62 819.99,-93.9"/>
<polygon fill="#63b8ff" stroke="#63b8ff" points="606.02,-132.21 596.81,-137.43 607.27,-139.1 606.02,-132.21"/>
</a>
</g>
</g>
<!-- Node11 -->
<g id="Node000011" class="node">
<title>Node11</title>
<g id="a_Node000011"><a xlink:href="../../dc/d2d/core__application__windows_8cpp.html" target="_top" xlink:title="Windows implementations of toy::application::CoreApplication via Win32 APIs.">
<polygon fill="white" stroke="#666666" points="1139.89,-96 982.89,-96 982.89,-55 1139.89,-55 1139.89,-96"/>
<text text-anchor="start" x="990.89" y="-84" font-family="Helvetica,sans-Serif" font-size="10.00">src/platforms/windows</text>
<text text-anchor="start" x="990.89" y="-73" font-family="Helvetica,sans-Serif" font-size="10.00">/application/core_application</text>
<text text-anchor="middle" x="1061.39" y="-62" font-family="Helvetica,sans-Serif" font-size="10.00">_windows.cpp</text>
</a>
</g>
</g>
<!-- Node3&#45;&gt;Node11 -->
<g id="edge10_Node000003_Node000011" class="edge">
<title>Node3&#45;&gt;Node11</title>
<g id="a_edge10_Node000003_Node000011"><a xlink:title=" ">
<path fill="none" stroke="#63b8ff" d="M623.58,-139.47C708.77,-131.53 851.61,-116.6 973.39,-96 976.47,-95.48 979.61,-94.92 982.78,-94.33"/>
<polygon fill="#63b8ff" stroke="#63b8ff" points="623.11,-136 613.48,-140.4 623.76,-142.97 623.11,-136"/>
</a>
</g>
</g>
<!-- Node12&#45;&gt;Node4 -->
<g id="edge12_Node000012_Node000004" class="edge">
<title>Node12&#45;&gt;Node4</title>
<g id="a_edge12_Node000012_Node000004"><a xlink:title=" ">
<path fill="none" stroke="#63b8ff" d="M1284.71,-62.86C1292.83,-60.27 1301.4,-57.54 1309.39,-55 1349.02,-42.41 1394.95,-27.93 1423.35,-19"/>
<polygon fill="#63b8ff" stroke="#63b8ff" points="1283.56,-59.56 1275.1,-65.94 1285.69,-66.22 1283.56,-59.56"/>
</a>
</g>
</g>
<!-- Node13&#45;&gt;Node4 -->
<g id="edge14_Node000013_Node000004" class="edge">
<title>Node13&#45;&gt;Node4</title>
<g id="a_edge14_Node000013_Node000004"><a xlink:title=" ">
<path fill="none" stroke="#63b8ff" d="M1389.15,-59.49C1404.81,-46.96 1426.59,-29.54 1439.51,-19.2"/>
<polygon fill="#63b8ff" stroke="#63b8ff" points="1386.8,-56.89 1381.17,-65.87 1391.17,-62.35 1386.8,-56.89"/>
</a>
</g>
</g>
<!-- Node14&#45;&gt;Node4 -->
<g id="edge18_Node000014_Node000004" class="edge">
<title>Node14&#45;&gt;Node4</title>
<g id="a_edge18_Node000014_Node000004"><a xlink:title=" ">
<path fill="none" stroke="#63b8ff" d="M1488.39,-129.01C1481.83,-119.71 1474.25,-107.71 1469.39,-96 1458.24,-69.18 1453.15,-34.79 1451.28,-19.05"/>
<polygon fill="#63b8ff" stroke="#63b8ff" points="1485.74,-131.32 1494.47,-137.32 1491.38,-127.18 1485.74,-131.32"/>
</a>
</g>
</g>
<!-- Node15 -->
<g id="Node000015" class="node">
<title>Node15</title>
<g id="a_Node000015"><a xlink:href="../../db/dbb/geometry_8hpp.html" target="_top" xlink:title="Umbrella header for the geometry module.">
<polygon fill="white" stroke="#666666" points="1600.39,-85 1478.39,-85 1478.39,-66 1600.39,-66 1600.39,-85"/>
<text text-anchor="middle" x="1539.39" y="-73" font-family="Helvetica,sans-Serif" font-size="10.00">include/geometry.hpp</text>
</a>
</g>
</g>
<!-- Node14&#45;&gt;Node15 -->
<g id="edge16_Node000014_Node000015" class="edge">
<title>Node14&#45;&gt;Node15</title>
<g id="a_edge16_Node000014_Node000015"><a xlink:title=" ">
<path fill="none" stroke="#63b8ff" d="M1510.99,-128.43C1518.56,-114.58 1528.8,-95.86 1534.69,-85.09"/>
<polygon fill="#63b8ff" stroke="#63b8ff" points="1507.77,-127.02 1506.05,-137.48 1513.91,-130.38 1507.77,-127.02"/>
</a>
</g>
</g>
<!-- Node15&#45;&gt;Node4 -->
<g id="edge17_Node000015_Node000004" class="edge">
<title>Node15&#45;&gt;Node4</title>
<g id="a_edge17_Node000015_Node000004"><a xlink:title=" ">
<path fill="none" stroke="#63b8ff" d="M1518.99,-59.83C1501.53,-47.28 1476.99,-29.63 1462.48,-19.2"/>
<polygon fill="#63b8ff" stroke="#63b8ff" points="1517.22,-62.87 1527.38,-65.87 1521.31,-57.19 1517.22,-62.87"/>
</a>
</g>
</g>
<!-- Node16&#45;&gt;Node4 -->
<g id="edge20_Node000016_Node000004" class="edge">
<title>Node16&#45;&gt;Node4</title>
<g id="a_edge20_Node000016_Node000004"><a xlink:title=" ">
<path fill="none" stroke="#63b8ff" d="M1629.78,-127.22C1630.22,-106.81 1627.62,-74.5 1609.39,-55 1584.03,-27.89 1543.64,-16.82 1509.92,-12.5"/>
<polygon fill="#63b8ff" stroke="#63b8ff" points="1626.27,-127.27 1629.28,-137.43 1633.27,-127.61 1626.27,-127.27"/>
</a>
</g>
</g>
<!-- Node17 -->
<g id="Node000017" class="node">
<title>Node17</title>
<g id="a_Node000017"><a xlink:href="../../d3/d80/endpoint_8cpp.html" target="_top" xlink:title="Definitions for the toy::network::Endpoint destructor declared in network/endpoint....">
<polygon fill="white" stroke="#666666" points="1796.39,-85 1656.39,-85 1656.39,-66 1796.39,-66 1796.39,-85"/>
<text text-anchor="middle" x="1726.39" y="-73" font-family="Helvetica,sans-Serif" font-size="10.00">src/network/endpoint.cpp</text>
</a>
</g>
</g>
<!-- Node16&#45;&gt;Node17 -->
<g id="edge21_Node000016_Node000017" class="edge">
<title>Node16&#45;&gt;Node17</title>
<g id="a_edge21_Node000016_Node000017"><a xlink:title=" ">
<path fill="none" stroke="#63b8ff" d="M1648.73,-131.57C1668.52,-117.54 1697.91,-96.7 1714.27,-85.09"/>
<polygon fill="#63b8ff" stroke="#63b8ff" points="1646.53,-128.84 1640.4,-137.48 1650.58,-134.55 1646.53,-128.84"/>
</a>
</g>
</g>
<!-- Node18&#45;&gt;Node4 -->
<g id="edge23_Node000018_Node000004" class="edge">
<title>Node18&#45;&gt;Node4</title>
<g id="a_edge23_Node000018_Node000004"><a xlink:title=" ">
<path fill="none" stroke="#63b8ff" d="M1840.45,-63.2C1829.21,-60.22 1816.87,-57.22 1805.39,-55 1702.48,-35.08 1580.99,-22.09 1510.13,-15.54"/>
<polygon fill="#63b8ff" stroke="#63b8ff" points="1839.85,-66.67 1850.42,-65.91 1841.69,-59.91 1839.85,-66.67"/>
</a>
</g>
</g>
<!-- Node19&#45;&gt;Node4 -->
<g id="edge25_Node000019_Node000004" class="edge">
<title>Node19&#45;&gt;Node4</title>
<g id="a_edge25_Node000019_Node000004"><a xlink:title=" ">
<path fill="none" stroke="#63b8ff" d="M1840.17,-134.88C1884.17,-123.27 1946.47,-105.45 1953.39,-96 1964.14,-81.29 1965.69,-68.44 1953.39,-55 1923.97,-22.87 1637.05,-13.81 1510.19,-11.36"/>
<polygon fill="#63b8ff" stroke="#63b8ff" points="1839.04,-131.56 1830.25,-137.48 1840.81,-138.33 1839.04,-131.56"/>
</a>
</g>
</g>
<!-- Node20 -->
<g id="Node000020" class="node">
<title>Node20</title>
<g id="a_Node000020"><a xlink:href="../../db/d3d/pixel__format_8cpp.html" target="_top" xlink:title="Definitions for pixelFormatName() and pixelFormatFromName() declared in render/pixel_format....">
<polygon fill="white" stroke="#666666" points="2150.39,-85 2000.39,-85 2000.39,-66 2150.39,-66 2150.39,-85"/>
<text text-anchor="middle" x="2075.39" y="-73" font-family="Helvetica,sans-Serif" font-size="10.00">src/render/pixel_format.cpp</text>
</a>
</g>
</g>
<!-- Node19&#45;&gt;Node20 -->
<g id="edge26_Node000019_Node000020" class="edge">
<title>Node19&#45;&gt;Node20</title>
<g id="a_edge26_Node000019_Node000020"><a xlink:title=" ">
<path fill="none" stroke="#63b8ff" d="M1840.5,-135.01C1896.05,-121.17 1990.32,-97.69 2040.89,-85.09"/>
<polygon fill="#63b8ff" stroke="#63b8ff" points="1839.45,-131.66 1830.6,-137.48 1841.15,-138.46 1839.45,-131.66"/>
</a>
</g>
</g>
<!-- Node32&#45;&gt;Node2 -->
<g id="edge40_Node000032_Node000002" class="edge">
<title>Node32&#45;&gt;Node2</title>
<g id="a_edge40_Node000032_Node000002"><a xlink:title=" ">
<path fill="none" stroke="#63b8ff" d="M2065.5,-250.16C2026.99,-239.33 1978.58,-225.71 1947.8,-217.05"/>
<polygon fill="#63b8ff" stroke="#63b8ff" points="2064.99,-253.65 2075.56,-252.99 2066.89,-246.91 2064.99,-253.65"/>
</a>
</g>
</g>
</g>
</svg>

<g id="navigator" transform="translate(0 0)" fill="#404254">
  <rect fill="#f2f5e9" fill-opacity="0.5" stroke="#606060" stroke-width=".5" x="0" y="0" width="60" height="60"/>
  <use id="zoomplus" xlink:href="#zoomPlus" x="17" y="9" onmousedown="handleZoom(evt,'in')"/>
  <use id="zoomminus" xlink:href="#zoomMin" x="42" y="9" onmousedown="handleZoom(evt,'out')"/>
  <use id="reset" xlink:href="#resetDef" x="30" y="36" onmousedown="handleReset()"/>
   <use id="arrowup" xlink:href="#arrowUp" x="0" y="0" onmousedown="handlePan(0,-1)"/>
  <use id="arrowright" xlink:href="#arrowRight" x="0" y="0" onmousedown="handlePan(1,0)"/>
  <use id="arrowdown" xlink:href="#arrowDown" x="0" y="0" onmousedown="handlePan(0,1)"/>
  <use id="arrowleft" xlink:href="#arrowLeft" x="0" y="0" onmousedown="handlePan(-1,0)"/>
</g>
<svg viewBox="0 0 15 15" width="100%" height="30px" preserveAspectRatio="xMaxYMin meet">
 <g id="arrow_out" transform="scale(0.3 0.3)">
  <a xlink:href="platform_8hpp__dep__incl_org.svg" target="_base">
   <rect id="button" ry="5" rx="5" y="6" x="6" height="38" width="38"
        fill="#f2f5e9" fill-opacity="0.5" stroke="#606060" stroke-width="1.0"/>
   <path id="arrow"
     d="M 11.500037,31.436501 C 11.940474,20.09759 22.043105,11.32322 32.158766,21.979434 L 37.068811,17.246167 C 37.068811,17.246167 37.088388,32 37.088388,32 L 22.160133,31.978069 C 22.160133,31.978069 26.997745,27.140456 26.997745,27.140456 C 18.528582,18.264221 13.291696,25.230495 11.500037,31.436501 z"
     style="fill:#404040;"/>
  </a>
 </g>
</svg>

<style type='text/css'>
<![CDATA[
[data-mouse-over-selected='false'] { opacity: 0.7; }
[data-mouse-over-selected='true']  { opacity: 1.0; }
]]>
</style>
<script type="application/ecmascript"><![CDATA[
document.addEventListener('DOMContentLoaded', (event) => {
  highlightEdges();
  highlightAdjacentNodes();
});
]]></script>
</svg>
