<?xml version="1.0" encoding="UTF-8" standalone="no"?>
<!DOCTYPE svg PUBLIC "-//W3C//DTD SVG 1.1//EN"
 "http://www.w3.org/Graphics/SVG/1.1/DTD/svg11.dtd">
<!-- Generated by graphviz version 2.43.0 (0)
 -->
<!-- Title: include/core/platform.hpp Pages: 1 -->
<!--zoomable 324 -->

<svg id="main" version="1.1" xmlns="http://www.w3.org/2000/svg" xmlns:xlink="http://www.w3.org/1999/xlink" xml:space="preserve" onload="init(evt)">

<style type="text/css"><![CDATA[
.node, .edge {opacity: 0.7;}
.node.selected, .edge.selected {opacity: 1;}
.edge:hover path { stroke: red; }
.edge:hover polygon { stroke: red; fill: red; }
]]></style>

<defs>
  <circle id="rim" cx="0" cy="0" r="7"/>
  <circle id="rim2" cx="0" cy="0" r="3.5"/>
  <g id="zoomPlus">
    <use xlink:href="#rim" fill="#404040"><set attributeName="fill" to="#808080" begin="zoomplus.mouseover" end="zoomplus.mouseout"/></use>
    <path d="M-4,0h8M0,-4v8" fill="none" stroke="white" stroke-width="1.5" pointer-events="none"/>
  </g>
  <g id="zoomMin">
    <use xlink:href="#rim" fill="#404040"><set attributeName="fill" to="#808080" begin="zoomminus.mouseover" end="zoomminus.mouseout"/></use>
    <path d="M-4,0h8" fill="none" stroke="white" stroke-width="1.5" pointer-events="none"/>
  </g>
  <g id="arrowUp" transform="translate(30 24)">
    <use xlink:href="#rim"/>
    <path pointer-events="none" fill="none" stroke="white" stroke-width="1.5" d="M0,-3.0v7 M-2.5,-0.5L0,-3.0L2.5,-0.5"/>
  </g>
  <g id="arrowRight" transform="rotate(90) translate(36 -43)">
    <use xlink:href="#rim"/>
    <path pointer-events="none" fill="none" stroke="white" stroke-width="1.5" d="M0,-3.0v7 M-2.5,-0.5L0,-3.0L2.5,-0.5"/>
  </g>
  <g id="arrowDown" transform="rotate(180) translate(-30 -48)">
    <use xlink:href="#rim"/>
    <path pointer-events="none" fill="none" stroke="white" stroke-width="1.5" d="M0,-3.0v7 M-2.5,-0.5L0,-3.0L2.5,-0.5"/>
  </g>
  <g id="arrowLeft" transform="rotate(270) translate(-36 17)">
    <use xlink:href="#rim"/>
    <path pointer-events="none" fill="none" stroke="white" stroke-width="1.5" d="M0,-3.0v7 M-2.5,-0.5L0,-3.0L2.5,-0.5"/>
  </g>
  <g id="resetDef">
    <use xlink:href="#rim2" fill="#404040"><set attributeName="fill" to="#808080" begin="reset.mouseover" end="reset.mouseout"/></use>
  </g>
</defs>
<script type="application/ecmascript">
var viewWidth = 1405;
var viewHeight = 324;
var sectionId = 'dynsection-0';
</script>
<script type="application/ecmascript" xlink:href="../../svg.min.js"/>
<svg id="graph" class="graph">
<g id="viewport">
<title>include/core/platform.hpp</title>
<!-- Node1 -->
<g id="Node000001" class="node">
<title>Node1</title>
<g id="a_Node000001"><a xlink:title="Platform and CPU architecture enums with compile&#45;time and runtime detection.">
<polygon fill="#999999" stroke="#666666" points="896,-316 754,-316 754,-297 896,-297 896,-316"/>
<text text-anchor="middle" x="825" y="-304" font-family="Helvetica,sans-Serif" font-size="10.00">include/core/platform.hpp</text>
</a>
</g>
</g>
<!-- Node2 -->
<g id="Node000002" class="node">
<title>Node2</title>
<g id="a_Node000002"><a xlink:href="../../da/d47/core_8hpp.html" target="_top" xlink:title="Umbrella header for the engine core module.">
<polygon fill="white" stroke="#666666" points="598.5,-195 501.5,-195 501.5,-176 598.5,-176 598.5,-195"/>
<text text-anchor="middle" x="550" y="-183" font-family="Helvetica,sans-Serif" font-size="10.00">include/core.hpp</text>
</a>
</g>
</g>
<!-- Node1&#45;&gt;Node2 -->
<g id="edge1_Node000001_Node000002" class="edge">
<title>Node1&#45;&gt;Node2</title>
<g id="a_edge1_Node000001_Node000002"><a xlink:title=" ">
<path fill="none" stroke="#63b8ff" d="M743.51,-303.52C617.25,-299.6 386.17,-288.7 361,-261 317.77,-213.43 431.88,-195.83 501.22,-189.64"/>
<polygon fill="#63b8ff" stroke="#63b8ff" points="743.43,-307.02 753.53,-303.82 743.64,-300.02 743.43,-307.02"/>
</a>
</g>
</g>
<!-- Node17 -->
<g id="Node000017" class="node">
<title>Node17</title>
<g id="a_Node000017"><a xlink:href="../../d5/d82/3ds_2platform__config_8hpp.html" target="_top" xlink:title="Compile&#45;time platform and CPU bindings for Nintendo 3DS.">
<polygon fill="white" stroke="#666666" points="516,-261 370,-261 370,-231 516,-231 516,-261"/>
<text text-anchor="start" x="378" y="-249" font-family="Helvetica,sans-Serif" font-size="10.00">src/platforms/3ds/platform</text>
<text text-anchor="middle" x="443" y="-238" font-family="Helvetica,sans-Serif" font-size="10.00">_config.hpp</text>
</a>
</g>
</g>
<!-- Node1&#45;&gt;Node17 -->
<g id="edge23_Node000001_Node000017" class="edge">
<title>Node1&#45;&gt;Node17</title>
<g id="a_edge23_Node000001_Node000017"><a xlink:title=" ">
<path fill="none" stroke="#63b8ff" d="M754.64,-295.51C693.8,-286.76 603.52,-273.53 525,-261 522.15,-260.55 519.24,-260.08 516.3,-259.6"/>
<polygon fill="#63b8ff" stroke="#63b8ff" points="754.5,-299.02 764.89,-296.98 755.49,-292.09 754.5,-299.02"/>
</a>
</g>
</g>
<!-- Node18 -->
<g id="Node000018" class="node">
<title>Node18</title>
<g id="a_Node000018"><a xlink:href="../../df/db1/gba_2platform__config_8hpp.html" target="_top" xlink:title="Compile&#45;time platform and CPU bindings for Nintendo GBA.">
<polygon fill="white" stroke="#666666" points="681.5,-261 534.5,-261 534.5,-231 681.5,-231 681.5,-261"/>
<text text-anchor="start" x="542.5" y="-249" font-family="Helvetica,sans-Serif" font-size="10.00">src/platforms/gba/platform</text>
<text text-anchor="middle" x="608" y="-238" font-family="Helvetica,sans-Serif" font-size="10.00">_config.hpp</text>
</a>
</g>
</g>
<!-- Node1&#45;&gt;Node18 -->
<g id="edge24_Node000001_Node000018" class="edge">
<title>Node1&#45;&gt;Node18</title>
<g id="a_edge24_Node000001_Node000018"><a xlink:title=" ">
<path fill="none" stroke="#63b8ff" d="M783.53,-294.32C748.45,-284.86 697.99,-271.26 660.17,-261.06"/>
<polygon fill="#63b8ff" stroke="#63b8ff" points="782.88,-297.77 793.45,-296.99 784.7,-291.01 782.88,-297.77"/>
</a>
</g>
</g>
<!-- Node19 -->
<g id="Node000019" class="node">
<title>Node19</title>
<g id="a_Node000019"><a xlink:href="../../dd/d9e/linux_2platform__config_8hpp.html" target="_top" xlink:title="Compile&#45;time platform and CPU bindings for Linux.">
<polygon fill="white" stroke="#666666" points="816.5,-261 699.5,-261 699.5,-231 816.5,-231 816.5,-261"/>
<text text-anchor="start" x="707.5" y="-249" font-family="Helvetica,sans-Serif" font-size="10.00">src/platforms/linux</text>
<text text-anchor="middle" x="758" y="-238" font-family="Helvetica,sans-Serif" font-size="10.00">/platform_config.hpp</text>
</a>
</g>
</g>
<!-- Node1&#45;&gt;Node19 -->
<g id="edge25_Node000001_Node000019" class="edge">
<title>Node1&#45;&gt;Node19</title>
<g id="a_edge25_Node000001_Node000019"><a xlink:title=" ">
<path fill="none" stroke="#63b8ff" d="M807.52,-290.23C797.2,-281.23 784.24,-269.91 774.17,-261.11"/>
<polygon fill="#63b8ff" stroke="#63b8ff" points="805.28,-292.93 815.11,-296.87 809.88,-287.65 805.28,-292.93"/>
</a>
</g>
</g>
<!-- Node20 -->
<g id="Node000020" class="node">
<title>Node20</title>
<g id="a_Node000020"><a xlink:href="../../d8/d80/macos_2platform__config_8hpp.html" target="_top" xlink:title="Compile&#45;time platform and CPU bindings for macOS.">
<polygon fill="white" stroke="#666666" points="951.5,-261 834.5,-261 834.5,-231 951.5,-231 951.5,-261"/>
<text text-anchor="start" x="842.5" y="-249" font-family="Helvetica,sans-Serif" font-size="10.00">src/platforms/macos</text>
<text text-anchor="middle" x="893" y="-238" font-family="Helvetica,sans-Serif" font-size="10.00">/platform_config.hpp</text>
</a>
</g>
</g>
<!-- Node1&#45;&gt;Node20 -->
<g id="edge27_Node000001_Node000020" class="edge">
<title>Node1&#45;&gt;Node20</title>
<g id="a_edge27_Node000001_Node000020"><a xlink:title=" ">
<path fill="none" stroke="#63b8ff" d="M842.74,-290.23C853.21,-281.23 866.37,-269.91 876.59,-261.11"/>
<polygon fill="#63b8ff" stroke="#63b8ff" points="840.33,-287.69 835.03,-296.87 844.9,-293 840.33,-287.69"/>
</a>
</g>
</g>
<!-- Node21 -->
<g id="Node000021" class="node">
<title>Node21</title>
<g id="a_Node000021"><a xlink:href="../../dc/d74/nds_2platform__config_8hpp.html" target="_top" xlink:title="Compile&#45;time platform and CPU bindings for Nintendo DS.">
<polygon fill="white" stroke="#666666" points="1116,-261 970,-261 970,-231 1116,-231 1116,-261"/>
<text text-anchor="start" x="978" y="-249" font-family="Helvetica,sans-Serif" font-size="10.00">src/platforms/nds/platform</text>
<text text-anchor="middle" x="1043" y="-238" font-family="Helvetica,sans-Serif" font-size="10.00">_config.hpp</text>
</a>
</g>
</g>
<!-- Node1&#45;&gt;Node21 -->
<g id="edge28_Node000001_Node000021" class="edge">
<title>Node1&#45;&gt;Node21</title>
<g id="a_edge28_Node000001_Node000021"><a xlink:title=" ">
<path fill="none" stroke="#63b8ff" d="M866.66,-294.32C901.9,-284.86 952.59,-271.26 990.59,-261.06"/>
<polygon fill="#63b8ff" stroke="#63b8ff" points="865.45,-291.02 856.7,-296.99 867.26,-297.78 865.45,-291.02"/>
</a>
</g>
</g>
<!-- Node22 -->
<g id="Node000022" class="node">
<title>Node22</title>
<g id="a_Node000022"><a xlink:href="../../db/d83/switch_2platform__config_8hpp.html" target="_top" xlink:title="Compile&#45;time platform and CPU bindings for Nintendo Switch.">
<polygon fill="white" stroke="#666666" points="1251.5,-261 1134.5,-261 1134.5,-231 1251.5,-231 1251.5,-261"/>
<text text-anchor="start" x="1142.5" y="-249" font-family="Helvetica,sans-Serif" font-size="10.00">src/platforms/switch</text>
<text text-anchor="middle" x="1193" y="-238" font-family="Helvetica,sans-Serif" font-size="10.00">/platform_config.hpp</text>
</a>
</g>
</g>
<!-- Node1&#45;&gt;Node22 -->
<g id="edge29_Node000001_Node000022" class="edge">
<title>Node1&#45;&gt;Node22</title>
<g id="a_edge29_Node000001_Node000022"><a xlink:title=" ">
<path fill="none" stroke="#63b8ff" d="M899.81,-295.58C960.62,-287.24 1048.54,-274.53 1125,-261 1128.09,-260.45 1131.25,-259.87 1134.43,-259.27"/>
<polygon fill="#63b8ff" stroke="#63b8ff" points="898.98,-292.16 889.54,-296.99 899.92,-299.1 898.98,-292.16"/>
</a>
</g>
</g>
<!-- Node23 -->
<g id="Node000023" class="node">
<title>Node23</title>
<g id="a_Node000023"><a xlink:href="../../db/d29/windows_2platform__config_8hpp.html" target="_top" xlink:title="Compile&#45;time platform and CPU bindings for Windows.">
<polygon fill="white" stroke="#666666" points="1396.5,-261 1269.5,-261 1269.5,-231 1396.5,-231 1396.5,-261"/>
<text text-anchor="start" x="1277.5" y="-249" font-family="Helvetica,sans-Serif" font-size="10.00">src/platforms/windows</text>
<text text-anchor="middle" x="1333" y="-238" font-family="Helvetica,sans-Serif" font-size="10.00">/platform_config.hpp</text>
</a>
</g>
</g>
<!-- Node1&#45;&gt;Node23 -->
<g id="edge30_Node000001_Node000023" class="edge">
<title>Node1&#45;&gt;Node23</title>
<g id="a_edge30_Node000001_Node000023"><a xlink:title=" ">
<path fill="none" stroke="#63b8ff" d="M906.39,-299.4C994.18,-292.31 1137.92,-279.21 1261,-261 1263.77,-260.59 1266.6,-260.15 1269.45,-259.68"/>
<polygon fill="#63b8ff" stroke="#63b8ff" points="905.92,-295.93 896.23,-300.22 906.48,-302.91 905.92,-295.93"/>
</a>
</g>
</g>
<!-- Node3 -->
<g id="Node000003" class="node">
<title>Node3</title>
<g id="a_Node000003"><a xlink:href="../../d4/d01/application_8hpp.html" target="_top" xlink:title="Umbrella header for the app module.">
<polygon fill="white" stroke="#666666" points="130,-74 0,-74 0,-55 130,-55 130,-74"/>
<text text-anchor="middle" x="65" y="-62" font-family="Helvetica,sans-Serif" font-size="10.00">include/application.hpp</text>
</a>
</g>
</g>
<!-- Node2&#45;&gt;Node3 -->
<g id="edge2_Node000002_Node000003" class="edge">
<title>Node2&#45;&gt;Node3</title>
<g id="a_edge2_Node000002_Node000003"><a xlink:title=" ">
<path fill="none" stroke="#63b8ff" d="M491.19,-182.63C393.93,-178.78 204.33,-167.86 144,-140 111.14,-124.82 83.13,-90.51 71.18,-74.3"/>
<polygon fill="#63b8ff" stroke="#63b8ff" points="491.32,-186.14 501.44,-183.02 491.58,-179.14 491.32,-186.14"/>
</a>
</g>
</g>
<!-- Node4 -->
<g id="Node000004" class="node">
<title>Node4</title>
<g id="a_Node000004"><a xlink:href="../../d8/d8c/toygine2_8hpp.html" target="_top" xlink:title="Main umbrella header for the engine.">
<polygon fill="white" stroke="#666666" points="421.5,-19 302.5,-19 302.5,0 421.5,0 421.5,-19"/>
<text text-anchor="middle" x="362" y="-7" font-family="Helvetica,sans-Serif" font-size="10.00">include/toygine2.hpp</text>
</a>
</g>
</g>
<!-- Node2&#45;&gt;Node4 -->
<g id="edge19_Node000002_Node000004" class="edge">
<title>Node2&#45;&gt;Node4</title>
<g id="a_edge19_Node000002_Node000004"><a xlink:title=" ">
<path fill="none" stroke="#63b8ff" d="M491.25,-181.76C410.61,-177.1 270.62,-165.54 227,-140 195.24,-121.41 188.72,-108.88 177,-74 174.31,-66 171.77,-61.63 177,-55 192.49,-35.35 254.44,-23.37 302.43,-16.87"/>
<polygon fill="#63b8ff" stroke="#63b8ff" points="491.08,-185.26 501.26,-182.32 491.47,-178.27 491.08,-185.26"/>
</a>
</g>
</g>
<!-- Node5 -->
<g id="Node000005" class="node">
<title>Node5</title>
<g id="a_Node000005"><a xlink:href="../../d1/d71/audio_8hpp.html" target="_top" xlink:title="Umbrella header for the audio module.">
<polygon fill="white" stroke="#666666" points="289.5,-74 186.5,-74 186.5,-55 289.5,-55 289.5,-74"/>
<text text-anchor="middle" x="238" y="-62" font-family="Helvetica,sans-Serif" font-size="10.00">include/audio.hpp</text>
</a>
</g>
</g>
<!-- Node2&#45;&gt;Node5 -->
<g id="edge4_Node000002_Node000005" class="edge">
<title>Node2&#45;&gt;Node5</title>
<g id="a_edge4_Node000002_Node000005"><a xlink:title=" ">
<path fill="none" stroke="#63b8ff" d="M490.76,-184.6C410.46,-183.36 273.36,-175.87 241,-140 224.53,-121.74 230.85,-89.55 235.21,-74.16"/>
<polygon fill="#63b8ff" stroke="#63b8ff" points="491.17,-188.11 501.21,-184.74 491.26,-181.11 491.17,-188.11"/>
</a>
</g>
</g>
<!-- Node6 -->
<g id="Node000006" class="node">
<title>Node6</title>
<g id="a_Node000006"><a xlink:href="../../d8/d39/game_8hpp.html" target="_top" xlink:title="Umbrella header for the game module.">
<polygon fill="white" stroke="#666666" points="354,-134.5 250,-134.5 250,-115.5 354,-115.5 354,-134.5"/>
<text text-anchor="middle" x="302" y="-122.5" font-family="Helvetica,sans-Serif" font-size="10.00">include/game.hpp</text>
</a>
</g>
</g>
<!-- Node2&#45;&gt;Node6 -->
<g id="edge6_Node000002_Node000006" class="edge">
<title>Node2&#45;&gt;Node6</title>
<g id="a_edge6_Node000002_Node000006"><a xlink:title=" ">
<path fill="none" stroke="#63b8ff" d="M504.13,-173.68C456.21,-162.38 382.02,-144.88 338.1,-134.52"/>
<polygon fill="#63b8ff" stroke="#63b8ff" points="503.4,-177.1 513.94,-175.99 505.01,-170.29 503.4,-177.1"/>
</a>
</g>
</g>
<!-- Node7 -->
<g id="Node000007" class="node">
<title>Node7</title>
<g id="a_Node000007"><a xlink:href="../../d4/d78/math_8hpp.html" target="_top" xlink:title="Umbrella header for the math module.">
<polygon fill="white" stroke="#666666" points="473.5,-134.5 372.5,-134.5 372.5,-115.5 473.5,-115.5 473.5,-134.5"/>
<text text-anchor="middle" x="423" y="-122.5" font-family="Helvetica,sans-Serif" font-size="10.00">include/math.hpp</text>
</a>
</g>
</g>
<!-- Node2&#45;&gt;Node7 -->
<g id="edge7_Node000002_Node000007" class="edge">
<title>Node2&#45;&gt;Node7</title>
<g id="a_edge7_Node000002_Node000007"><a xlink:title=" ">
<path fill="none" stroke="#63b8ff" d="M522.39,-171.78C497.88,-160.49 462.76,-144.31 441.49,-134.52"/>
<polygon fill="#63b8ff" stroke="#63b8ff" points="520.99,-174.99 531.53,-175.99 523.91,-168.63 520.99,-174.99"/>
</a>
</g>
</g>
<!-- Node9 -->
<g id="Node000009" class="node">
<title>Node9</title>
<g id="a_Node000009"><a xlink:href="../../d6/d67/network_8hpp.html" target="_top" xlink:title="Umbrella header for the network module.">
<polygon fill="white" stroke="#666666" points="608,-134.5 492,-134.5 492,-115.5 608,-115.5 608,-134.5"/>
<text text-anchor="middle" x="550" y="-122.5" font-family="Helvetica,sans-Serif" font-size="10.00">include/network.hpp</text>
</a>
</g>
</g>
<!-- Node2&#45;&gt;Node9 -->
<g id="edge11_Node000002_Node000009" class="edge">
<title>Node2&#45;&gt;Node9</title>
<g id="a_edge11_Node000002_Node000009"><a xlink:title=" ">
<path fill="none" stroke="#63b8ff" d="M550,-165.66C550,-155.24 550,-142.8 550,-134.67"/>
<polygon fill="#63b8ff" stroke="#63b8ff" points="546.5,-165.87 550,-175.87 553.5,-165.87 546.5,-165.87"/>
</a>
</g>
</g>
<!-- Node11 -->
<g id="Node000011" class="node">
<title>Node11</title>
<g id="a_Node000011"><a xlink:href="../../de/dd6/ui_8hpp.html" target="_top" xlink:title="Umbrella header for platform UI types.">
<polygon fill="white" stroke="#666666" points="812,-74 682,-74 682,-55 812,-55 812,-74"/>
<text text-anchor="middle" x="747" y="-62" font-family="Helvetica,sans-Serif" font-size="10.00">include/platform/ui.hpp</text>
</a>
</g>
</g>
<!-- Node2&#45;&gt;Node11 -->
<g id="edge14_Node000002_Node000011" class="edge">
<title>Node2&#45;&gt;Node11</title>
<g id="a_edge14_Node000002_Node000011"><a xlink:title=" ">
<path fill="none" stroke="#63b8ff" d="M572.03,-170.51C585.26,-161.96 602.3,-150.65 617,-140 634.42,-127.37 636.76,-121.42 655,-110 678.16,-95.5 706.75,-82.34 725.85,-74.16"/>
<polygon fill="#63b8ff" stroke="#63b8ff" points="570.09,-167.6 563.57,-175.95 573.87,-173.49 570.09,-167.6"/>
</a>
</g>
</g>
<!-- Node12 -->
<g id="Node000012" class="node">
<title>Node12</title>
<g id="a_Node000012"><a xlink:href="../../d6/d4b/render_8hpp.html" target="_top" xlink:title="Umbrella header for the render module.">
<polygon fill="white" stroke="#666666" points="771.5,-134.5 664.5,-134.5 664.5,-115.5 771.5,-115.5 771.5,-134.5"/>
<text text-anchor="middle" x="718" y="-122.5" font-family="Helvetica,sans-Serif" font-size="10.00">include/render.hpp</text>
</a>
</g>
</g>
<!-- Node2&#45;&gt;Node12 -->
<g id="edge16_Node000002_Node000012" class="edge">
<title>Node2&#45;&gt;Node12</title>
<g id="a_edge16_Node000002_Node000012"><a xlink:title=" ">
<path fill="none" stroke="#63b8ff" d="M583.97,-172.67C616.46,-161.36 664.66,-144.57 693.54,-134.52"/>
<polygon fill="#63b8ff" stroke="#63b8ff" points="582.72,-169.4 574.43,-175.99 585.02,-176.01 582.72,-169.4"/>
</a>
</g>
</g>
<!-- Node14 -->
<g id="Node000014" class="node">
<title>Node14</title>
<g id="a_Node000014"><a xlink:href="../../db/d2d/hashes_8cpp.html" target="_top" xlink:title="Table&#45;driven implementations of toy::crc8(), toy::crc16(), and toy::crc32().">
<polygon fill="white" stroke="#666666" points="902.5,-134.5 789.5,-134.5 789.5,-115.5 902.5,-115.5 902.5,-134.5"/>
<text text-anchor="middle" x="846" y="-122.5" font-family="Helvetica,sans-Serif" font-size="10.00">src/core/hashes.cpp</text>
</a>
</g>
</g>
<!-- Node2&#45;&gt;Node14 -->
<g id="edge20_Node000002_Node000014" class="edge">
<title>Node2&#45;&gt;Node14</title>
<g id="a_edge20_Node000002_Node000014"><a xlink:title=" ">
<path fill="none" stroke="#63b8ff" d="M605.33,-174.08C651.95,-165.24 720.4,-152.09 780,-140 788.49,-138.28 797.59,-136.38 806.24,-134.55"/>
<polygon fill="#63b8ff" stroke="#63b8ff" points="604.61,-170.66 595.43,-175.96 605.91,-177.53 604.61,-170.66"/>
</a>
</g>
</g>
<!-- Node15 -->
<g id="Node000015" class="node">
<title>Node15</title>
<g id="a_Node000015"><a xlink:href="../../de/d06/utils_8cpp.html" target="_top" xlink:title="Definitions for string, encoding, and number utilities declared in core/utils.hpp.">
<polygon fill="white" stroke="#666666" points="1019.5,-134.5 920.5,-134.5 920.5,-115.5 1019.5,-115.5 1019.5,-134.5"/>
<text text-anchor="middle" x="970" y="-122.5" font-family="Helvetica,sans-Serif" font-size="10.00">src/core/utils.cpp</text>
</a>
</g>
</g>
<!-- Node2&#45;&gt;Node15 -->
<g id="edge21_Node000002_Node000015" class="edge">
<title>Node2&#45;&gt;Node15</title>
<g id="a_edge21_Node000002_Node000015"><a xlink:title=" ">
<path fill="none" stroke="#63b8ff" d="M608.91,-179.25C680.62,-172.4 805.26,-159 911,-140 919.39,-138.49 928.38,-136.54 936.75,-134.57"/>
<polygon fill="#63b8ff" stroke="#63b8ff" points="608.35,-175.79 598.72,-180.22 609.01,-182.76 608.35,-175.79"/>
</a>
</g>
</g>
<!-- Node16 -->
<g id="Node000016" class="node">
<title>Node16</title>
<g id="a_Node000016"><a xlink:href="../../d7/d90/assertion__stub_8cpp.html" target="_top" xlink:title="Stub definitions for the assertion callback API declared in core/assertion.hpp.">
<polygon fill="white" stroke="#666666" points="1172.5,-140 1037.5,-140 1037.5,-110 1172.5,-110 1172.5,-140"/>
<text text-anchor="start" x="1045.5" y="-128" font-family="Helvetica,sans-Serif" font-size="10.00">src/platforms/stub</text>
<text text-anchor="middle" x="1105" y="-117" font-family="Helvetica,sans-Serif" font-size="10.00">/core/assertion_stub.cpp</text>
</a>
</g>
</g>
<!-- Node2&#45;&gt;Node16 -->
<g id="edge22_Node000002_Node000016" class="edge">
<title>Node2&#45;&gt;Node16</title>
<g id="a_edge22_Node000002_Node000016"><a xlink:title=" ">
<path fill="none" stroke="#63b8ff" d="M608.72,-180.69C699.08,-174.45 877.53,-160.64 1028,-140 1031.1,-139.58 1034.26,-139.11 1037.45,-138.63"/>
<polygon fill="#63b8ff" stroke="#63b8ff" points="608.41,-177.2 598.67,-181.37 608.89,-184.18 608.41,-177.2"/>
</a>
</g>
</g>
<!-- Node3&#45;&gt;Node4 -->
<g id="edge3_Node000003_Node000004" class="edge">
<title>Node3&#45;&gt;Node4</title>
<g id="a_edge3_Node000003_Node000004"><a xlink:title=" ">
<path fill="none" stroke="#63b8ff" d="M122.78,-53.19C178.46,-43.25 261.74,-28.39 313.91,-19.08"/>
<polygon fill="#63b8ff" stroke="#63b8ff" points="121.95,-49.78 112.72,-54.98 123.18,-56.67 121.95,-49.78"/>
</a>
</g>
</g>
<!-- Node5&#45;&gt;Node4 -->
<g id="edge5_Node000005_Node000004" class="edge">
<title>Node5&#45;&gt;Node4</title>
<g id="a_edge5_Node000005_Node000004"><a xlink:title=" ">
<path fill="none" stroke="#63b8ff" d="M267.18,-51.03C290.11,-41.23 321.45,-27.83 341.71,-19.17"/>
<polygon fill="#63b8ff" stroke="#63b8ff" points="265.74,-47.84 257.92,-54.98 268.49,-54.27 265.74,-47.84"/>
</a>
</g>
</g>
<!-- Node7&#45;&gt;Node4 -->
<g id="edge10_Node000007_Node000004" class="edge">
<title>Node7&#45;&gt;Node4</title>
<g id="a_edge10_Node000007_Node000004"><a xlink:title=" ">
<path fill="none" stroke="#63b8ff" d="M383.89,-111.5C366.27,-103.69 347.17,-91.68 337,-74 326.36,-55.51 343.04,-31.63 353.89,-19.08"/>
<polygon fill="#63b8ff" stroke="#63b8ff" points="382.88,-114.87 393.46,-115.41 385.53,-108.39 382.88,-114.87"/>
</a>
</g>
</g>
<!-- Node8 -->
<g id="Node000008" class="node">
<title>Node8</title>
<g id="a_Node000008"><a xlink:href="../../db/dbb/geometry_8hpp.html" target="_top" xlink:title="Umbrella header for the geometry module.">
<polygon fill="white" stroke="#666666" points="468,-74 346,-74 346,-55 468,-55 468,-74"/>
<text text-anchor="middle" x="407" y="-62" font-family="Helvetica,sans-Serif" font-size="10.00">include/geometry.hpp</text>
</a>
</g>
</g>
<!-- Node7&#45;&gt;Node8 -->
<g id="edge8_Node000007_Node000008" class="edge">
<title>Node7&#45;&gt;Node8</title>
<g id="a_edge8_Node000007_Node000008"><a xlink:title=" ">
<path fill="none" stroke="#63b8ff" d="M417.94,-105.49C415.07,-95.01 411.62,-82.39 409.37,-74.17"/>
<polygon fill="#63b8ff" stroke="#63b8ff" points="414.62,-106.65 420.64,-115.37 421.38,-104.8 414.62,-106.65"/>
</a>
</g>
</g>
<!-- Node8&#45;&gt;Node4 -->
<g id="edge9_Node000008_Node000004" class="edge">
<title>Node8&#45;&gt;Node4</title>
<g id="a_edge9_Node000008_Node000004"><a xlink:title=" ">
<path fill="none" stroke="#63b8ff" d="M392.95,-46.96C385.11,-37.72 375.67,-26.6 369.29,-19.09"/>
<polygon fill="#63b8ff" stroke="#63b8ff" points="390.43,-49.39 399.57,-54.75 395.76,-44.86 390.43,-49.39"/>
</a>
</g>
</g>
<!-- Node9&#45;&gt;Node4 -->
<g id="edge12_Node000009_Node000004" class="edge">
<title>Node9&#45;&gt;Node4</title>
<g id="a_edge12_Node000009_Node000004"><a xlink:title=" ">
<path fill="none" stroke="#63b8ff" d="M536.06,-107.56C522.34,-92.24 500.14,-69.61 477,-55 450.93,-38.54 417.81,-26.52 393.81,-19.15"/>
<polygon fill="#63b8ff" stroke="#63b8ff" points="533.55,-110 542.76,-115.23 538.82,-105.4 533.55,-110"/>
</a>
</g>
</g>
<!-- Node10 -->
<g id="Node000010" class="node">
<title>Node10</title>
<g id="a_Node000010"><a xlink:href="../../d3/d80/endpoint_8cpp.html" target="_top" xlink:title="Definitions for the toy::network::Endpoint destructor declared in network/endpoint....">
<polygon fill="white" stroke="#666666" points="664,-74 524,-74 524,-55 664,-55 664,-74"/>
<text text-anchor="middle" x="594" y="-62" font-family="Helvetica,sans-Serif" font-size="10.00">src/network/endpoint.cpp</text>
</a>
</g>
</g>
<!-- Node9&#45;&gt;Node10 -->
<g id="edge13_Node000009_Node000010" class="edge">
<title>Node9&#45;&gt;Node10</title>
<g id="a_edge13_Node000009_Node000010"><a xlink:title=" ">
<path fill="none" stroke="#63b8ff" d="M562.69,-107.13C570.8,-96.35 580.97,-82.82 587.48,-74.17"/>
<polygon fill="#63b8ff" stroke="#63b8ff" points="559.71,-105.27 556.49,-115.37 565.3,-109.48 559.71,-105.27"/>
</a>
</g>
</g>
<!-- Node11&#45;&gt;Node4 -->
<g id="edge15_Node000011_Node000004" class="edge">
<title>Node11&#45;&gt;Node4</title>
<g id="a_edge15_Node000011_Node000004"><a xlink:title=" ">
<path fill="none" stroke="#63b8ff" d="M675.1,-53.6C602.04,-43.54 490.17,-28.14 421.8,-18.73"/>
<polygon fill="#63b8ff" stroke="#63b8ff" points="674.76,-57.09 685.14,-54.98 675.71,-50.15 674.76,-57.09"/>
</a>
</g>
</g>
<!-- Node12&#45;&gt;Node4 -->
<g id="edge17_Node000012_Node000004" class="edge">
<title>Node12&#45;&gt;Node4</title>
<g id="a_edge17_Node000012_Node000004"><a xlink:title=" ">
<path fill="none" stroke="#63b8ff" d="M761.85,-112.45C799.33,-100.53 843.84,-80.16 821,-55 794.67,-25.99 540.23,-15.33 421.93,-11.91"/>
<polygon fill="#63b8ff" stroke="#63b8ff" points="760.58,-109.18 752.03,-115.44 762.61,-115.88 760.58,-109.18"/>
</a>
</g>
</g>
<!-- Node13 -->
<g id="Node000013" class="node">
<title>Node13</title>
<g id="a_Node000013"><a xlink:href="../../db/d3d/pixel__format_8cpp.html" target="_top" xlink:title="Definitions for pixelFormatName() and pixelFormatFromName() declared in render/pixel_format....">
<polygon fill="white" stroke="#666666" points="1018,-74 868,-74 868,-55 1018,-55 1018,-74"/>
<text text-anchor="middle" x="943" y="-62" font-family="Helvetica,sans-Serif" font-size="10.00">src/render/pixel_format.cpp</text>
</a>
</g>
</g>
<!-- Node12&#45;&gt;Node13 -->
<g id="edge18_Node000012_Node000013" class="edge">
<title>Node12&#45;&gt;Node13</title>
<g id="a_edge18_Node000012_Node000013"><a xlink:title=" ">
<path fill="none" stroke="#63b8ff" d="M760.44,-112.97C803.93,-101.66 870.65,-84.31 910.24,-74.02"/>
<polygon fill="#63b8ff" stroke="#63b8ff" points="759.51,-109.59 750.72,-115.49 761.28,-116.36 759.51,-109.59"/>
</a>
</g>
</g>
<!-- Node19&#45;&gt;Node2 -->
<g id="edge26_Node000019_Node000002" class="edge">
<title>Node19&#45;&gt;Node2</title>
<g id="a_edge26_Node000019_Node000002"><a xlink:title=" ">
<path fill="none" stroke="#63b8ff" d="M698.11,-228.16C659.6,-217.33 611.19,-203.71 580.41,-195.05"/>
<polygon fill="#63b8ff" stroke="#63b8ff" points="697.6,-231.65 708.18,-230.99 699.5,-224.91 697.6,-231.65"/>
</a>
</g>
</g>
</g>
</svg>

<g id="navigator" transform="translate(0 0)" fill="#404254">
  <rect fill="#f2f5e9" fill-opacity="0.5" stroke="#606060" stroke-width=".5" x="0" y="0" width="60" height="60"/>
  <use id="zoomplus" xlink:href="#zoomPlus" x="17" y="9" onmousedown="handleZoom(evt,'in')"/>
  <use id="zoomminus" xlink:href="#zoomMin" x="42" y="9" onmousedown="handleZoom(evt,'out')"/>
  <use id="reset" xlink:href="#resetDef" x="30" y="36" onmousedown="handleReset()"/>
   <use id="arrowup" xlink:href="#arrowUp" x="0" y="0" onmousedown="handlePan(0,-1)"/>
  <use id="arrowright" xlink:href="#arrowRight" x="0" y="0" onmousedown="handlePan(1,0)"/>
  <use id="arrowdown" xlink:href="#arrowDown" x="0" y="0" onmousedown="handlePan(0,1)"/>
  <use id="arrowleft" xlink:href="#arrowLeft" x="0" y="0" onmousedown="handlePan(-1,0)"/>
</g>
<svg viewBox="0 0 15 15" width="100%" height="30px" preserveAspectRatio="xMaxYMin meet">
 <g id="arrow_out" transform="scale(0.3 0.3)">
  <a xlink:href="platform_8hpp__dep__incl_org.svg" target="_base">
   <rect id="button" ry="5" rx="5" y="6" x="6" height="38" width="38"
        fill="#f2f5e9" fill-opacity="0.5" stroke="#606060" stroke-width="1.0"/>
   <path id="arrow"
     d="M 11.500037,31.436501 C 11.940474,20.09759 22.043105,11.32322 32.158766,21.979434 L 37.068811,17.246167 C 37.068811,17.246167 37.088388,32 37.088388,32 L 22.160133,31.978069 C 22.160133,31.978069 26.997745,27.140456 26.997745,27.140456 C 18.528582,18.264221 13.291696,25.230495 11.500037,31.436501 z"
     style="fill:#404040;"/>
  </a>
 </g>
</svg>

<style type='text/css'>
<![CDATA[
[data-mouse-over-selected='false'] { opacity: 0.7; }
[data-mouse-over-selected='true']  { opacity: 1.0; }
]]>
</style>
<script type="application/ecmascript"><![CDATA[
document.addEventListener('DOMContentLoaded', (event) => {
  highlightEdges();
  highlightAdjacentNodes();
});
]]></script>
</svg>
