<?xml version="1.0" encoding="UTF-8" standalone="no"?>
<!DOCTYPE svg PUBLIC "-//W3C//DTD SVG 1.1//EN"
 "http://www.w3.org/Graphics/SVG/1.1/DTD/svg11.dtd">
<!-- Generated by graphviz version 2.43.0 (0)
 -->
<!-- Title: include/core/platform.hpp Pages: 1 -->
<svg width="2061pt" height="346pt"
 viewBox="0.00 0.00 2061.25 346.00" xmlns="http://www.w3.org/2000/svg" xmlns:xlink="http://www.w3.org/1999/xlink">
<g id="graph0" class="graph" transform="scale(1 1) rotate(0) translate(4 342)">
<title>include/core/platform.hpp</title>
<!-- Node1 -->
<g id="Node000001" class="node">
<title>Node1</title>
<g id="a_Node000001"><a xlink:title="Platform and CPU architecture enums with compile&#45;time and runtime detection.">
<polygon fill="#999999" stroke="#666666" points="1552.75,-338 1410.75,-338 1410.75,-319 1552.75,-319 1552.75,-338"/>
<text text-anchor="middle" x="1481.75" y="-326" font-family="Helvetica,sans-Serif" font-size="10.00">include/core/platform.hpp</text>
</a>
</g>
</g>
<!-- Node2 -->
<g id="Node000002" class="node">
<title>Node2</title>
<g id="a_Node000002"><a xlink:href="../../da/d47/core_8hpp.html" target="_top" xlink:title="Umbrella header for the engine core module.">
<polygon fill="white" stroke="#666666" points="1255.25,-217 1158.25,-217 1158.25,-198 1255.25,-198 1255.25,-217"/>
<text text-anchor="middle" x="1206.75" y="-205" font-family="Helvetica,sans-Serif" font-size="10.00">include/core.hpp</text>
</a>
</g>
</g>
<!-- Node1&#45;&gt;Node2 -->
<g id="edge1_Node000001_Node000002" class="edge">
<title>Node1&#45;&gt;Node2</title>
<g id="a_edge1_Node000001_Node000002"><a xlink:title=" ">
<path fill="none" stroke="#63b8ff" d="M1400.27,-325.52C1274.01,-321.6 1042.92,-310.7 1017.75,-283 974.53,-235.43 1088.64,-217.83 1157.97,-211.64"/>
<polygon fill="#63b8ff" stroke="#63b8ff" points="1400.19,-329.02 1410.29,-325.82 1400.4,-322.02 1400.19,-329.02"/>
</a>
</g>
</g>
<!-- Node23 -->
<g id="Node000023" class="node">
<title>Node23</title>
<g id="a_Node000023"><a xlink:href="../../d5/d82/3ds_2platform__config_8hpp.html" target="_top" xlink:title="Compile&#45;time platform and CPU bindings for Nintendo 3DS.">
<polygon fill="white" stroke="#666666" points="1172.75,-283 1026.75,-283 1026.75,-253 1172.75,-253 1172.75,-283"/>
<text text-anchor="start" x="1034.75" y="-271" font-family="Helvetica,sans-Serif" font-size="10.00">src/platforms/3ds/platform</text>
<text text-anchor="middle" x="1099.75" y="-260" font-family="Helvetica,sans-Serif" font-size="10.00">_config.hpp</text>
</a>
</g>
</g>
<!-- Node1&#45;&gt;Node23 -->
<g id="edge30_Node000001_Node000023" class="edge">
<title>Node1&#45;&gt;Node23</title>
<g id="a_edge30_Node000001_Node000023"><a xlink:title=" ">
<path fill="none" stroke="#63b8ff" d="M1411.39,-317.51C1350.55,-308.76 1260.27,-295.53 1181.75,-283 1178.9,-282.55 1175.99,-282.08 1173.06,-281.6"/>
<polygon fill="#63b8ff" stroke="#63b8ff" points="1411.25,-321.02 1421.65,-318.98 1412.24,-314.09 1411.25,-321.02"/>
</a>
</g>
</g>
<!-- Node24 -->
<g id="Node000024" class="node">
<title>Node24</title>
<g id="a_Node000024"><a xlink:href="../../df/db1/gba_2platform__config_8hpp.html" target="_top" xlink:title="Compile&#45;time platform and CPU bindings for Nintendo GBA.">
<polygon fill="white" stroke="#666666" points="1338.25,-283 1191.25,-283 1191.25,-253 1338.25,-253 1338.25,-283"/>
<text text-anchor="start" x="1199.25" y="-271" font-family="Helvetica,sans-Serif" font-size="10.00">src/platforms/gba/platform</text>
<text text-anchor="middle" x="1264.75" y="-260" font-family="Helvetica,sans-Serif" font-size="10.00">_config.hpp</text>
</a>
</g>
</g>
<!-- Node1&#45;&gt;Node24 -->
<g id="edge31_Node000001_Node000024" class="edge">
<title>Node1&#45;&gt;Node24</title>
<g id="a_edge31_Node000001_Node000024"><a xlink:title=" ">
<path fill="none" stroke="#63b8ff" d="M1440.29,-316.32C1405.2,-306.86 1354.75,-293.26 1316.92,-283.06"/>
<polygon fill="#63b8ff" stroke="#63b8ff" points="1439.63,-319.77 1450.2,-318.99 1441.46,-313.01 1439.63,-319.77"/>
</a>
</g>
</g>
<!-- Node25 -->
<g id="Node000025" class="node">
<title>Node25</title>
<g id="a_Node000025"><a xlink:href="../../dd/d9e/linux_2platform__config_8hpp.html" target="_top" xlink:title="Compile&#45;time platform and CPU bindings for Linux.">
<polygon fill="white" stroke="#666666" points="1473.25,-283 1356.25,-283 1356.25,-253 1473.25,-253 1473.25,-283"/>
<text text-anchor="start" x="1364.25" y="-271" font-family="Helvetica,sans-Serif" font-size="10.00">src/platforms/linux</text>
<text text-anchor="middle" x="1414.75" y="-260" font-family="Helvetica,sans-Serif" font-size="10.00">/platform_config.hpp</text>
</a>
</g>
</g>
<!-- Node1&#45;&gt;Node25 -->
<g id="edge32_Node000001_Node000025" class="edge">
<title>Node1&#45;&gt;Node25</title>
<g id="a_edge32_Node000001_Node000025"><a xlink:title=" ">
<path fill="none" stroke="#63b8ff" d="M1464.27,-312.23C1453.96,-303.23 1440.99,-291.91 1430.92,-283.11"/>
<polygon fill="#63b8ff" stroke="#63b8ff" points="1462.03,-314.93 1471.87,-318.87 1466.64,-309.65 1462.03,-314.93"/>
</a>
</g>
</g>
<!-- Node26 -->
<g id="Node000026" class="node">
<title>Node26</title>
<g id="a_Node000026"><a xlink:href="../../d8/d80/macos_2platform__config_8hpp.html" target="_top" xlink:title="Compile&#45;time platform and CPU bindings for macOS.">
<polygon fill="white" stroke="#666666" points="1608.25,-283 1491.25,-283 1491.25,-253 1608.25,-253 1608.25,-283"/>
<text text-anchor="start" x="1499.25" y="-271" font-family="Helvetica,sans-Serif" font-size="10.00">src/platforms/macos</text>
<text text-anchor="middle" x="1549.75" y="-260" font-family="Helvetica,sans-Serif" font-size="10.00">/platform_config.hpp</text>
</a>
</g>
</g>
<!-- Node1&#45;&gt;Node26 -->
<g id="edge34_Node000001_Node000026" class="edge">
<title>Node1&#45;&gt;Node26</title>
<g id="a_edge34_Node000001_Node000026"><a xlink:title=" ">
<path fill="none" stroke="#63b8ff" d="M1499.5,-312.23C1509.97,-303.23 1523.12,-291.91 1533.35,-283.11"/>
<polygon fill="#63b8ff" stroke="#63b8ff" points="1497.09,-309.69 1491.79,-318.87 1501.65,-315 1497.09,-309.69"/>
</a>
</g>
</g>
<!-- Node27 -->
<g id="Node000027" class="node">
<title>Node27</title>
<g id="a_Node000027"><a xlink:href="../../dc/d74/nds_2platform__config_8hpp.html" target="_top" xlink:title="Compile&#45;time platform and CPU bindings for Nintendo DS.">
<polygon fill="white" stroke="#666666" points="1772.75,-283 1626.75,-283 1626.75,-253 1772.75,-253 1772.75,-283"/>
<text text-anchor="start" x="1634.75" y="-271" font-family="Helvetica,sans-Serif" font-size="10.00">src/platforms/nds/platform</text>
<text text-anchor="middle" x="1699.75" y="-260" font-family="Helvetica,sans-Serif" font-size="10.00">_config.hpp</text>
</a>
</g>
</g>
<!-- Node1&#45;&gt;Node27 -->
<g id="edge35_Node000001_Node000027" class="edge">
<title>Node1&#45;&gt;Node27</title>
<g id="a_edge35_Node000001_Node000027"><a xlink:title=" ">
<path fill="none" stroke="#63b8ff" d="M1523.41,-316.32C1558.66,-306.86 1609.35,-293.26 1647.34,-283.06"/>
<polygon fill="#63b8ff" stroke="#63b8ff" points="1522.2,-313.02 1513.45,-318.99 1524.02,-319.78 1522.2,-313.02"/>
</a>
</g>
</g>
<!-- Node28 -->
<g id="Node000028" class="node">
<title>Node28</title>
<g id="a_Node000028"><a xlink:href="../../db/d83/switch_2platform__config_8hpp.html" target="_top" xlink:title="Compile&#45;time platform and CPU bindings for Nintendo Switch.">
<polygon fill="white" stroke="#666666" points="1908.25,-283 1791.25,-283 1791.25,-253 1908.25,-253 1908.25,-283"/>
<text text-anchor="start" x="1799.25" y="-271" font-family="Helvetica,sans-Serif" font-size="10.00">src/platforms/switch</text>
<text text-anchor="middle" x="1849.75" y="-260" font-family="Helvetica,sans-Serif" font-size="10.00">/platform_config.hpp</text>
</a>
</g>
</g>
<!-- Node1&#45;&gt;Node28 -->
<g id="edge36_Node000001_Node000028" class="edge">
<title>Node1&#45;&gt;Node28</title>
<g id="a_edge36_Node000001_Node000028"><a xlink:title=" ">
<path fill="none" stroke="#63b8ff" d="M1556.57,-317.58C1617.37,-309.24 1705.3,-296.53 1781.75,-283 1784.84,-282.45 1788,-281.87 1791.19,-281.27"/>
<polygon fill="#63b8ff" stroke="#63b8ff" points="1555.73,-314.16 1546.3,-318.99 1556.68,-321.1 1555.73,-314.16"/>
</a>
</g>
</g>
<!-- Node29 -->
<g id="Node000029" class="node">
<title>Node29</title>
<g id="a_Node000029"><a xlink:href="../../db/d29/windows_2platform__config_8hpp.html" target="_top" xlink:title="Compile&#45;time platform and CPU bindings for Windows.">
<polygon fill="white" stroke="#666666" points="2053.25,-283 1926.25,-283 1926.25,-253 2053.25,-253 2053.25,-283"/>
<text text-anchor="start" x="1934.25" y="-271" font-family="Helvetica,sans-Serif" font-size="10.00">src/platforms/windows</text>
<text text-anchor="middle" x="1989.75" y="-260" font-family="Helvetica,sans-Serif" font-size="10.00">/platform_config.hpp</text>
</a>
</g>
</g>
<!-- Node1&#45;&gt;Node29 -->
<g id="edge37_Node000001_Node000029" class="edge">
<title>Node1&#45;&gt;Node29</title>
<g id="a_edge37_Node000001_Node000029"><a xlink:title=" ">
<path fill="none" stroke="#63b8ff" d="M1563.15,-321.4C1650.93,-314.31 1794.67,-301.21 1917.75,-283 1920.53,-282.59 1923.35,-282.15 1926.2,-281.68"/>
<polygon fill="#63b8ff" stroke="#63b8ff" points="1562.68,-317.93 1552.99,-322.22 1563.23,-324.91 1562.68,-317.93"/>
</a>
</g>
</g>
<!-- Node3 -->
<g id="Node000003" class="node">
<title>Node3</title>
<g id="a_Node000003"><a xlink:href="../../d4/d01/application_8hpp.html" target="_top" xlink:title="Umbrella header for the application module.">
<polygon fill="white" stroke="#666666" points="367.75,-156.5 237.75,-156.5 237.75,-137.5 367.75,-137.5 367.75,-156.5"/>
<text text-anchor="middle" x="302.75" y="-144.5" font-family="Helvetica,sans-Serif" font-size="10.00">include/application.hpp</text>
</a>
</g>
</g>
<!-- Node2&#45;&gt;Node3 -->
<g id="edge2_Node000002_Node000003" class="edge">
<title>Node2&#45;&gt;Node3</title>
<g id="a_edge2_Node000002_Node000003"><a xlink:title=" ">
<path fill="none" stroke="#63b8ff" d="M1147.93,-202.69C986.34,-192.24 536.48,-163.13 367.77,-152.21"/>
<polygon fill="#63b8ff" stroke="#63b8ff" points="1147.95,-206.2 1158.15,-203.35 1148.4,-199.22 1147.95,-206.2"/>
</a>
</g>
</g>
<!-- Node4 -->
<g id="Node000004" class="node">
<title>Node4</title>
<g id="a_Node000004"><a xlink:href="../../d8/d8c/toygine2_8hpp.html" target="_top" xlink:title="Main umbrella header for the engine.">
<polygon fill="white" stroke="#666666" points="1002.25,-19 883.25,-19 883.25,0 1002.25,0 1002.25,-19"/>
<text text-anchor="middle" x="942.75" y="-7" font-family="Helvetica,sans-Serif" font-size="10.00">include/toygine2.hpp</text>
</a>
</g>
</g>
<!-- Node2&#45;&gt;Node4 -->
<g id="edge24_Node000002_Node000004" class="edge">
<title>Node2&#45;&gt;Node4</title>
<g id="a_edge24_Node000002_Node000004"><a xlink:title=" ">
<path fill="none" stroke="#63b8ff" d="M1147.8,-204.14C1021.1,-197.61 730.23,-174.21 679.75,-96 669.87,-80.69 667.99,-68.92 679.75,-55 705.27,-24.8 813.75,-15.09 883.17,-11.97"/>
<polygon fill="#63b8ff" stroke="#63b8ff" points="1147.93,-207.65 1158.09,-204.66 1148.27,-200.66 1147.93,-207.65"/>
</a>
</g>
</g>
<!-- Node9 -->
<g id="Node000009" class="node">
<title>Node9</title>
<g id="a_Node000009"><a xlink:href="../../d1/d71/audio_8hpp.html" target="_top" xlink:title="Umbrella header for the audio module.">
<polygon fill="white" stroke="#666666" points="792.25,-85 689.25,-85 689.25,-66 792.25,-66 792.25,-85"/>
<text text-anchor="middle" x="740.75" y="-73" font-family="Helvetica,sans-Serif" font-size="10.00">include/audio.hpp</text>
</a>
</g>
</g>
<!-- Node2&#45;&gt;Node9 -->
<g id="edge8_Node000002_Node000009" class="edge">
<title>Node2&#45;&gt;Node9</title>
<g id="a_edge8_Node000002_Node000009"><a xlink:title=" ">
<path fill="none" stroke="#63b8ff" d="M1147.85,-204.38C1084.2,-200.66 980.51,-190.38 895.75,-162 838.64,-142.87 778.12,-102.92 752.89,-85.24"/>
<polygon fill="#63b8ff" stroke="#63b8ff" points="1147.92,-207.89 1158.09,-204.95 1148.3,-200.9 1147.92,-207.89"/>
</a>
</g>
</g>
<!-- Node10 -->
<g id="Node000010" class="node">
<title>Node10</title>
<g id="a_Node000010"><a xlink:href="../../d8/d39/game_8hpp.html" target="_top" xlink:title="Umbrella header for the game module.">
<polygon fill="white" stroke="#666666" points="914.75,-85 810.75,-85 810.75,-66 914.75,-66 914.75,-85"/>
<text text-anchor="middle" x="862.75" y="-73" font-family="Helvetica,sans-Serif" font-size="10.00">include/game.hpp</text>
</a>
</g>
</g>
<!-- Node2&#45;&gt;Node10 -->
<g id="edge10_Node000002_Node000010" class="edge">
<title>Node2&#45;&gt;Node10</title>
<g id="a_edge10_Node000002_Node000010"><a xlink:title=" ">
<path fill="none" stroke="#63b8ff" d="M1147.92,-201.75C1078.89,-195.35 969.34,-182.36 933.75,-162 900.76,-143.12 876.5,-102.67 867.07,-85.02"/>
<polygon fill="#63b8ff" stroke="#63b8ff" points="1147.94,-205.27 1158.21,-202.69 1148.57,-198.3 1147.94,-205.27"/>
</a>
</g>
</g>
<!-- Node11 -->
<g id="Node000011" class="node">
<title>Node11</title>
<g id="a_Node000011"><a xlink:href="../../d4/d78/math_8hpp.html" target="_top" xlink:title="Umbrella header for the math module.">
<polygon fill="white" stroke="#666666" points="1044.25,-156.5 943.25,-156.5 943.25,-137.5 1044.25,-137.5 1044.25,-156.5"/>
<text text-anchor="middle" x="993.75" y="-144.5" font-family="Helvetica,sans-Serif" font-size="10.00">include/math.hpp</text>
</a>
</g>
</g>
<!-- Node2&#45;&gt;Node11 -->
<g id="edge12_Node000002_Node000011" class="edge">
<title>Node2&#45;&gt;Node11</title>
<g id="a_edge12_Node000002_Node000011"><a xlink:title=" ">
<path fill="none" stroke="#63b8ff" d="M1166.06,-195.32C1124.87,-184.01 1062.09,-166.77 1024.76,-156.52"/>
<polygon fill="#63b8ff" stroke="#63b8ff" points="1165.21,-198.72 1175.78,-197.99 1167.07,-191.97 1165.21,-198.72"/>
</a>
</g>
</g>
<!-- Node13 -->
<g id="Node000013" class="node">
<title>Node13</title>
<g id="a_Node000013"><a xlink:href="../../d6/d67/network_8hpp.html" target="_top" xlink:title="Umbrella header for the network module.">
<polygon fill="white" stroke="#666666" points="1178.75,-156.5 1062.75,-156.5 1062.75,-137.5 1178.75,-137.5 1178.75,-156.5"/>
<text text-anchor="middle" x="1120.75" y="-144.5" font-family="Helvetica,sans-Serif" font-size="10.00">include/network.hpp</text>
</a>
</g>
</g>
<!-- Node2&#45;&gt;Node13 -->
<g id="edge16_Node000002_Node000013" class="edge">
<title>Node2&#45;&gt;Node13</title>
<g id="a_edge16_Node000002_Node000013"><a xlink:title=" ">
<path fill="none" stroke="#63b8ff" d="M1185.67,-192.16C1169.33,-181.05 1147.24,-166.01 1133.5,-156.67"/>
<polygon fill="#63b8ff" stroke="#63b8ff" points="1183.83,-195.14 1194.06,-197.87 1187.76,-189.35 1183.83,-195.14"/>
</a>
</g>
</g>
<!-- Node15 -->
<g id="Node000015" class="node">
<title>Node15</title>
<g id="a_Node000015"><a xlink:href="../../de/dd6/ui_8hpp.html" target="_top" xlink:title="Umbrella header for platform UI types.">
<polygon fill="white" stroke="#666666" points="1436.75,-85 1306.75,-85 1306.75,-66 1436.75,-66 1436.75,-85"/>
<text text-anchor="middle" x="1371.75" y="-73" font-family="Helvetica,sans-Serif" font-size="10.00">include/platform/ui.hpp</text>
</a>
</g>
</g>
<!-- Node2&#45;&gt;Node15 -->
<g id="edge19_Node000002_Node000015" class="edge">
<title>Node2&#45;&gt;Node15</title>
<g id="a_edge19_Node000002_Node000015"><a xlink:title=" ">
<path fill="none" stroke="#63b8ff" d="M1206.87,-187.87C1207.95,-171.3 1212.03,-147.37 1225.75,-132 1241.19,-114.7 1301.15,-95.75 1339.26,-85.07"/>
<polygon fill="#63b8ff" stroke="#63b8ff" points="1203.37,-187.86 1206.52,-197.97 1210.37,-188.1 1203.37,-187.86"/>
</a>
</g>
</g>
<!-- Node16 -->
<g id="Node000016" class="node">
<title>Node16</title>
<g id="a_Node000016"><a xlink:href="../../d6/d4b/render_8hpp.html" target="_top" xlink:title="Umbrella header for the render module.">
<polygon fill="white" stroke="#666666" points="1342.25,-156.5 1235.25,-156.5 1235.25,-137.5 1342.25,-137.5 1342.25,-156.5"/>
<text text-anchor="middle" x="1288.75" y="-144.5" font-family="Helvetica,sans-Serif" font-size="10.00">include/render.hpp</text>
</a>
</g>
</g>
<!-- Node2&#45;&gt;Node16 -->
<g id="edge21_Node000002_Node000016" class="edge">
<title>Node2&#45;&gt;Node16</title>
<g id="a_edge21_Node000002_Node000016"><a xlink:title=" ">
<path fill="none" stroke="#63b8ff" d="M1227.29,-191.85C1242.82,-180.77 1263.63,-165.93 1276.61,-156.67"/>
<polygon fill="#63b8ff" stroke="#63b8ff" points="1224.96,-189.21 1218.85,-197.87 1229.03,-194.91 1224.96,-189.21"/>
</a>
</g>
</g>
<!-- Node18 -->
<g id="Node000018" class="node">
<title>Node18</title>
<g id="a_Node000018"><a xlink:href="../../da/de0/core_8cpp.html" target="_top" xlink:title="Implementation of toy::initialize() and toy::deInitialize() lifecycle functions.">
<polygon fill="white" stroke="#666666" points="1459.25,-156.5 1360.25,-156.5 1360.25,-137.5 1459.25,-137.5 1459.25,-156.5"/>
<text text-anchor="middle" x="1409.75" y="-144.5" font-family="Helvetica,sans-Serif" font-size="10.00">src/core/core.cpp</text>
</a>
</g>
</g>
<!-- Node2&#45;&gt;Node18 -->
<g id="edge25_Node000002_Node000018" class="edge">
<title>Node2&#45;&gt;Node18</title>
<g id="a_edge25_Node000002_Node000018"><a xlink:title=" ">
<path fill="none" stroke="#63b8ff" d="M1246.04,-195.18C1285.3,-183.87 1344.78,-166.72 1380.2,-156.52"/>
<polygon fill="#63b8ff" stroke="#63b8ff" points="1244.91,-191.86 1236.27,-197.99 1246.85,-198.59 1244.91,-191.86"/>
</a>
</g>
</g>
<!-- Node19 -->
<g id="Node000019" class="node">
<title>Node19</title>
<g id="a_Node000019"><a xlink:href="../../db/d2d/hashes_8cpp.html" target="_top" xlink:title="Table&#45;driven implementations of toy::crc8(), toy::crc16(), and toy::crc32().">
<polygon fill="white" stroke="#666666" points="1590.25,-156.5 1477.25,-156.5 1477.25,-137.5 1590.25,-137.5 1590.25,-156.5"/>
<text text-anchor="middle" x="1533.75" y="-144.5" font-family="Helvetica,sans-Serif" font-size="10.00">src/core/hashes.cpp</text>
</a>
</g>
</g>
<!-- Node2&#45;&gt;Node19 -->
<g id="edge26_Node000002_Node000019" class="edge">
<title>Node2&#45;&gt;Node19</title>
<g id="a_edge26_Node000002_Node000019"><a xlink:title=" ">
<path fill="none" stroke="#63b8ff" d="M1265.34,-197.2C1318.32,-188.63 1398.41,-175.26 1467.75,-162 1476.5,-160.33 1485.87,-158.41 1494.72,-156.55"/>
<polygon fill="#63b8ff" stroke="#63b8ff" points="1264.76,-193.75 1255.44,-198.8 1265.87,-200.66 1264.76,-193.75"/>
</a>
</g>
</g>
<!-- Node20 -->
<g id="Node000020" class="node">
<title>Node20</title>
<g id="a_Node000020"><a xlink:href="../../d2/d51/log__sink_8cpp.html" target="_top" xlink:title="Out&#45;of&#45;line definitions for toy::log::ISink.">
<polygon fill="white" stroke="#666666" points="1727.25,-156.5 1608.25,-156.5 1608.25,-137.5 1727.25,-137.5 1727.25,-156.5"/>
<text text-anchor="middle" x="1667.75" y="-144.5" font-family="Helvetica,sans-Serif" font-size="10.00">src/core/log_sink.cpp</text>
</a>
</g>
</g>
<!-- Node2&#45;&gt;Node20 -->
<g id="edge27_Node000002_Node000020" class="edge">
<title>Node2&#45;&gt;Node20</title>
<g id="a_edge27_Node000002_Node000020"><a xlink:title=" ">
<path fill="none" stroke="#63b8ff" d="M1265.49,-201.44C1342.34,-194.46 1481.08,-180.58 1598.75,-162 1608.53,-160.46 1619.03,-158.49 1628.82,-156.52"/>
<polygon fill="#63b8ff" stroke="#63b8ff" points="1265.17,-197.96 1255.52,-202.34 1265.8,-204.93 1265.17,-197.96"/>
</a>
</g>
</g>
<!-- Node21 -->
<g id="Node000021" class="node">
<title>Node21</title>
<g id="a_Node000021"><a xlink:href="../../de/d06/utils_8cpp.html" target="_top" xlink:title="Definitions for string, encoding, and number utilities declared in core/utils.hpp.">
<polygon fill="white" stroke="#666666" points="1844.25,-156.5 1745.25,-156.5 1745.25,-137.5 1844.25,-137.5 1844.25,-156.5"/>
<text text-anchor="middle" x="1794.75" y="-144.5" font-family="Helvetica,sans-Serif" font-size="10.00">src/core/utils.cpp</text>
</a>
</g>
</g>
<!-- Node2&#45;&gt;Node21 -->
<g id="edge28_Node000002_Node000021" class="edge">
<title>Node2&#45;&gt;Node21</title>
<g id="a_edge28_Node000002_Node000021"><a xlink:title=" ">
<path fill="none" stroke="#63b8ff" d="M1265.56,-204.42C1363.57,-200.3 1566.33,-189.07 1735.75,-162 1744.59,-160.59 1754.06,-158.57 1762.78,-156.5"/>
<polygon fill="#63b8ff" stroke="#63b8ff" points="1265.4,-200.92 1255.55,-204.83 1265.68,-207.91 1265.4,-200.92"/>
</a>
</g>
</g>
<!-- Node22 -->
<g id="Node000022" class="node">
<title>Node22</title>
<g id="a_Node000022"><a xlink:href="../../d7/d90/assertion__stub_8cpp.html" target="_top" xlink:title="Stub definitions for the assertion callback API declared in core/assertion.hpp.">
<polygon fill="white" stroke="#666666" points="1997.25,-162 1862.25,-162 1862.25,-132 1997.25,-132 1997.25,-162"/>
<text text-anchor="start" x="1870.25" y="-150" font-family="Helvetica,sans-Serif" font-size="10.00">src/platforms/stub</text>
<text text-anchor="middle" x="1929.75" y="-139" font-family="Helvetica,sans-Serif" font-size="10.00">/core/assertion_stub.cpp</text>
</a>
</g>
</g>
<!-- Node2&#45;&gt;Node22 -->
<g id="edge29_Node000002_Node000022" class="edge">
<title>Node2&#45;&gt;Node22</title>
<g id="a_edge29_Node000002_Node000022"><a xlink:title=" ">
<path fill="none" stroke="#63b8ff" d="M1265.89,-204.68C1379.97,-200.67 1638.19,-189.18 1853.75,-162 1856.42,-161.66 1859.13,-161.3 1861.86,-160.9"/>
<polygon fill="#63b8ff" stroke="#63b8ff" points="1265.51,-201.19 1255.64,-205.03 1265.75,-208.19 1265.51,-201.19"/>
</a>
</g>
</g>
<!-- Node3&#45;&gt;Node4 -->
<g id="edge3_Node000003_Node000004" class="edge">
<title>Node3&#45;&gt;Node4</title>
<g id="a_edge3_Node000003_Node000004"><a xlink:title=" ">
<path fill="none" stroke="#63b8ff" d="M227.34,-144.88C121.57,-140.86 -50.96,-123.94 14.75,-55 44.75,-23.53 682.58,-13.5 883.02,-11.12"/>
<polygon fill="#63b8ff" stroke="#63b8ff" points="227.24,-148.38 237.36,-145.23 227.49,-141.38 227.24,-148.38"/>
</a>
</g>
</g>
<!-- Node5 -->
<g id="Node000005" class="node">
<title>Node5</title>
<g id="a_Node000005"><a xlink:href="../../db/db6/console__application_8cpp.html" target="_top" xlink:title="Implementations for toy::application::ConsoleApplication.">
<polygon fill="white" stroke="#666666" points="151.75,-90.5 23.75,-90.5 23.75,-60.5 151.75,-60.5 151.75,-90.5"/>
<text text-anchor="start" x="31.75" y="-78.5" font-family="Helvetica,sans-Serif" font-size="10.00">src/application/console</text>
<text text-anchor="middle" x="87.75" y="-67.5" font-family="Helvetica,sans-Serif" font-size="10.00">_application.cpp</text>
</a>
</g>
</g>
<!-- Node3&#45;&gt;Node5 -->
<g id="edge4_Node000003_Node000005" class="edge">
<title>Node3&#45;&gt;Node5</title>
<g id="a_edge4_Node000003_Node000005"><a xlink:title=" ">
<path fill="none" stroke="#63b8ff" d="M266.44,-134.26C229.06,-122.18 170.84,-103.36 131.08,-90.51"/>
<polygon fill="#63b8ff" stroke="#63b8ff" points="265.8,-137.73 276.39,-137.48 267.95,-131.07 265.8,-137.73"/>
</a>
</g>
</g>
<!-- Node6 -->
<g id="Node000006" class="node">
<title>Node6</title>
<g id="a_Node000006"><a xlink:href="../../d0/dbb/core__application_8cpp.html" target="_top" xlink:title="Implementations for toy::application::CoreApplication.">
<polygon fill="white" stroke="#666666" points="281.75,-90.5 169.75,-90.5 169.75,-60.5 281.75,-60.5 281.75,-90.5"/>
<text text-anchor="start" x="177.75" y="-78.5" font-family="Helvetica,sans-Serif" font-size="10.00">src/application/core</text>
<text text-anchor="middle" x="225.75" y="-67.5" font-family="Helvetica,sans-Serif" font-size="10.00">_application.cpp</text>
</a>
</g>
</g>
<!-- Node3&#45;&gt;Node6 -->
<g id="edge5_Node000003_Node000006" class="edge">
<title>Node3&#45;&gt;Node6</title>
<g id="a_edge5_Node000003_Node000006"><a xlink:title=" ">
<path fill="none" stroke="#63b8ff" d="M285.81,-130.71C272.57,-118.76 254.32,-102.28 241.42,-90.64"/>
<polygon fill="#63b8ff" stroke="#63b8ff" points="283.54,-133.38 293.31,-137.48 288.23,-128.18 283.54,-133.38"/>
</a>
</g>
</g>
<!-- Node7 -->
<g id="Node000007" class="node">
<title>Node7</title>
<g id="a_Node000007"><a xlink:href="../../d8/d89/core__application__macos_8cpp.html" target="_top" xlink:title="macOS implementations of toy::application::CoreApplication via POSIX APIs.">
<polygon fill="white" stroke="#666666" points="457.25,-96 300.25,-96 300.25,-55 457.25,-55 457.25,-96"/>
<text text-anchor="start" x="308.25" y="-84" font-family="Helvetica,sans-Serif" font-size="10.00">src/platforms/macos</text>
<text text-anchor="start" x="308.25" y="-73" font-family="Helvetica,sans-Serif" font-size="10.00">/application/core_application</text>
<text text-anchor="middle" x="378.75" y="-62" font-family="Helvetica,sans-Serif" font-size="10.00">_macos.cpp</text>
</a>
</g>
</g>
<!-- Node3&#45;&gt;Node7 -->
<g id="edge6_Node000003_Node000007" class="edge">
<title>Node3&#45;&gt;Node7</title>
<g id="a_edge6_Node000003_Node000007"><a xlink:title=" ">
<path fill="none" stroke="#63b8ff" d="M319.76,-130.45C330.83,-120.32 345.37,-107.03 357.24,-96.17"/>
<polygon fill="#63b8ff" stroke="#63b8ff" points="317.09,-128.15 312.07,-137.48 321.81,-133.31 317.09,-128.15"/>
</a>
</g>
</g>
<!-- Node8 -->
<g id="Node000008" class="node">
<title>Node8</title>
<g id="a_Node000008"><a xlink:href="../../db/da8/core__application__stub_8cpp.html" target="_top" xlink:title="Stub implementation of toy::application::CoreApplication::sleep() for platforms without OS sleep supp...">
<polygon fill="white" stroke="#666666" points="632.25,-96 475.25,-96 475.25,-55 632.25,-55 632.25,-96"/>
<text text-anchor="start" x="483.25" y="-84" font-family="Helvetica,sans-Serif" font-size="10.00">src/platforms/stub</text>
<text text-anchor="start" x="483.25" y="-73" font-family="Helvetica,sans-Serif" font-size="10.00">/application/core_application</text>
<text text-anchor="middle" x="553.75" y="-62" font-family="Helvetica,sans-Serif" font-size="10.00">_stub.cpp</text>
</a>
</g>
</g>
<!-- Node3&#45;&gt;Node8 -->
<g id="edge7_Node000003_Node000008" class="edge">
<title>Node3&#45;&gt;Node8</title>
<g id="a_edge7_Node000003_Node000008"><a xlink:title=" ">
<path fill="none" stroke="#63b8ff" d="M343.64,-134.68C381.37,-124.23 438.19,-108.5 483.23,-96.03"/>
<polygon fill="#63b8ff" stroke="#63b8ff" points="342.24,-131.44 333.53,-137.48 344.1,-138.18 342.24,-131.44"/>
</a>
</g>
</g>
<!-- Node9&#45;&gt;Node4 -->
<g id="edge9_Node000009_Node000004" class="edge">
<title>Node9&#45;&gt;Node4</title>
<g id="a_edge9_Node000009_Node000004"><a xlink:title=" ">
<path fill="none" stroke="#63b8ff" d="M777.08,-62.86C785.2,-60.27 793.77,-57.54 801.75,-55 841.39,-42.41 887.32,-27.93 915.71,-19"/>
<polygon fill="#63b8ff" stroke="#63b8ff" points="775.93,-59.56 767.47,-65.94 778.06,-66.22 775.93,-59.56"/>
</a>
</g>
</g>
<!-- Node10&#45;&gt;Node4 -->
<g id="edge11_Node000010_Node000004" class="edge">
<title>Node10&#45;&gt;Node4</title>
<g id="a_edge11_Node000010_Node000004"><a xlink:title=" ">
<path fill="none" stroke="#63b8ff" d="M881.52,-59.49C897.18,-46.96 918.96,-29.54 931.88,-19.2"/>
<polygon fill="#63b8ff" stroke="#63b8ff" points="879.17,-56.89 873.54,-65.87 883.54,-62.35 879.17,-56.89"/>
</a>
</g>
</g>
<!-- Node11&#45;&gt;Node4 -->
<g id="edge15_Node000011_Node000004" class="edge">
<title>Node11&#45;&gt;Node4</title>
<g id="a_edge15_Node000011_Node000004"><a xlink:title=" ">
<path fill="none" stroke="#63b8ff" d="M980.76,-129.01C974.2,-119.71 966.62,-107.71 961.75,-96 950.61,-69.18 945.52,-34.79 943.65,-19.05"/>
<polygon fill="#63b8ff" stroke="#63b8ff" points="978.11,-131.32 986.84,-137.32 983.75,-127.18 978.11,-131.32"/>
</a>
</g>
</g>
<!-- Node12 -->
<g id="Node000012" class="node">
<title>Node12</title>
<g id="a_Node000012"><a xlink:href="../../db/dbb/geometry_8hpp.html" target="_top" xlink:title="Umbrella header for the geometry module.">
<polygon fill="white" stroke="#666666" points="1092.75,-85 970.75,-85 970.75,-66 1092.75,-66 1092.75,-85"/>
<text text-anchor="middle" x="1031.75" y="-73" font-family="Helvetica,sans-Serif" font-size="10.00">include/geometry.hpp</text>
</a>
</g>
</g>
<!-- Node11&#45;&gt;Node12 -->
<g id="edge13_Node000011_Node000012" class="edge">
<title>Node11&#45;&gt;Node12</title>
<g id="a_edge13_Node000011_Node000012"><a xlink:title=" ">
<path fill="none" stroke="#63b8ff" d="M1003.36,-128.43C1010.93,-114.58 1021.17,-95.86 1027.06,-85.09"/>
<polygon fill="#63b8ff" stroke="#63b8ff" points="1000.14,-127.02 998.41,-137.48 1006.28,-130.38 1000.14,-127.02"/>
</a>
</g>
</g>
<!-- Node12&#45;&gt;Node4 -->
<g id="edge14_Node000012_Node000004" class="edge">
<title>Node12&#45;&gt;Node4</title>
<g id="a_edge14_Node000012_Node000004"><a xlink:title=" ">
<path fill="none" stroke="#63b8ff" d="M1011.36,-59.83C993.9,-47.28 969.36,-29.63 954.85,-19.2"/>
<polygon fill="#63b8ff" stroke="#63b8ff" points="1009.59,-62.87 1019.75,-65.87 1013.68,-57.19 1009.59,-62.87"/>
</a>
</g>
</g>
<!-- Node13&#45;&gt;Node4 -->
<g id="edge17_Node000013_Node000004" class="edge">
<title>Node13&#45;&gt;Node4</title>
<g id="a_edge17_Node000013_Node000004"><a xlink:title=" ">
<path fill="none" stroke="#63b8ff" d="M1122.15,-127.22C1122.59,-106.81 1119.99,-74.5 1101.75,-55 1076.4,-27.89 1036.01,-16.82 1002.28,-12.5"/>
<polygon fill="#63b8ff" stroke="#63b8ff" points="1118.64,-127.27 1121.65,-137.43 1125.63,-127.61 1118.64,-127.27"/>
</a>
</g>
</g>
<!-- Node14 -->
<g id="Node000014" class="node">
<title>Node14</title>
<g id="a_Node000014"><a xlink:href="../../d3/d80/endpoint_8cpp.html" target="_top" xlink:title="Definitions for the toy::network::Endpoint destructor declared in network/endpoint....">
<polygon fill="white" stroke="#666666" points="1288.75,-85 1148.75,-85 1148.75,-66 1288.75,-66 1288.75,-85"/>
<text text-anchor="middle" x="1218.75" y="-73" font-family="Helvetica,sans-Serif" font-size="10.00">src/network/endpoint.cpp</text>
</a>
</g>
</g>
<!-- Node13&#45;&gt;Node14 -->
<g id="edge18_Node000013_Node000014" class="edge">
<title>Node13&#45;&gt;Node14</title>
<g id="a_edge18_Node000013_Node000014"><a xlink:title=" ">
<path fill="none" stroke="#63b8ff" d="M1141.1,-131.57C1160.89,-117.54 1190.28,-96.7 1206.64,-85.09"/>
<polygon fill="#63b8ff" stroke="#63b8ff" points="1138.9,-128.84 1132.77,-137.48 1142.95,-134.55 1138.9,-128.84"/>
</a>
</g>
</g>
<!-- Node15&#45;&gt;Node4 -->
<g id="edge20_Node000015_Node000004" class="edge">
<title>Node15&#45;&gt;Node4</title>
<g id="a_edge20_Node000015_Node000004"><a xlink:title=" ">
<path fill="none" stroke="#63b8ff" d="M1332.82,-63.2C1321.58,-60.22 1309.24,-57.22 1297.75,-55 1194.85,-35.08 1073.35,-22.09 1002.49,-15.54"/>
<polygon fill="#63b8ff" stroke="#63b8ff" points="1332.22,-66.67 1342.79,-65.91 1334.06,-59.91 1332.22,-66.67"/>
</a>
</g>
</g>
<!-- Node16&#45;&gt;Node4 -->
<g id="edge22_Node000016_Node000004" class="edge">
<title>Node16&#45;&gt;Node4</title>
<g id="a_edge22_Node000016_Node000004"><a xlink:title=" ">
<path fill="none" stroke="#63b8ff" d="M1332.53,-134.88C1376.54,-123.27 1438.84,-105.45 1445.75,-96 1456.51,-81.29 1458.06,-68.44 1445.75,-55 1416.34,-22.87 1129.42,-13.81 1002.56,-11.36"/>
<polygon fill="#63b8ff" stroke="#63b8ff" points="1331.41,-131.56 1322.62,-137.48 1333.18,-138.33 1331.41,-131.56"/>
</a>
</g>
</g>
<!-- Node17 -->
<g id="Node000017" class="node">
<title>Node17</title>
<g id="a_Node000017"><a xlink:href="../../db/d3d/pixel__format_8cpp.html" target="_top" xlink:title="Definitions for pixelFormatName() and pixelFormatFromName() declared in render/pixel_format....">
<polygon fill="white" stroke="#666666" points="1642.75,-85 1492.75,-85 1492.75,-66 1642.75,-66 1642.75,-85"/>
<text text-anchor="middle" x="1567.75" y="-73" font-family="Helvetica,sans-Serif" font-size="10.00">src/render/pixel_format.cpp</text>
</a>
</g>
</g>
<!-- Node16&#45;&gt;Node17 -->
<g id="edge23_Node000016_Node000017" class="edge">
<title>Node16&#45;&gt;Node17</title>
<g id="a_edge23_Node000016_Node000017"><a xlink:title=" ">
<path fill="none" stroke="#63b8ff" d="M1332.87,-135.01C1388.42,-121.17 1482.69,-97.69 1533.26,-85.09"/>
<polygon fill="#63b8ff" stroke="#63b8ff" points="1331.82,-131.66 1322.97,-137.48 1333.51,-138.46 1331.82,-131.66"/>
</a>
</g>
</g>
<!-- Node25&#45;&gt;Node2 -->
<g id="edge33_Node000025_Node000002" class="edge">
<title>Node25&#45;&gt;Node2</title>
<g id="a_edge33_Node000025_Node000002"><a xlink:title=" ">
<path fill="none" stroke="#63b8ff" d="M1354.87,-250.16C1316.36,-239.33 1267.95,-225.71 1237.17,-217.05"/>
<polygon fill="#63b8ff" stroke="#63b8ff" points="1354.36,-253.65 1364.93,-252.99 1356.25,-246.91 1354.36,-253.65"/>
</a>
</g>
</g>
</g>
</svg>
