<?xml version="1.0" encoding="UTF-8" standalone="no"?>
<!DOCTYPE svg PUBLIC "-//W3C//DTD SVG 1.1//EN"
 "http://www.w3.org/Graphics/SVG/1.1/DTD/svg11.dtd">
<!-- Generated by graphviz version 2.43.0 (0)
 -->
<!-- Title: include/core/format_pattern.hpp Pages: 1 -->
<svg width="1318pt" height="269pt"
 viewBox="0.00 0.00 1317.50 269.00" xmlns="http://www.w3.org/2000/svg" xmlns:xlink="http://www.w3.org/1999/xlink">
<g id="graph0" class="graph" transform="scale(1 1) rotate(0) translate(4 265)">
<title>include/core/format_pattern.hpp</title>
<!-- Node1 -->
<g id="Node000001" class="node">
<title>Node1</title>
<g id="a_Node000001"><a xlink:title="Shared compile&#45;time validation for format patterns using {} and {N} placeholders.">
<polygon fill="#999999" stroke="#666666" points="649,-261 537,-261 537,-231 649,-231 649,-261"/>
<text text-anchor="start" x="545" y="-249" font-family="Helvetica,sans-Serif" font-size="10.00">include/core/format</text>
<text text-anchor="middle" x="593" y="-238" font-family="Helvetica,sans-Serif" font-size="10.00">_pattern.hpp</text>
</a>
</g>
</g>
<!-- Node2 -->
<g id="Node000002" class="node">
<title>Node2</title>
<g id="a_Node000002"><a xlink:href="../../da/d47/core_8hpp.html" target="_top" xlink:title="Umbrella header for the engine core module.">
<polygon fill="white" stroke="#666666" points="641.5,-195 544.5,-195 544.5,-176 641.5,-176 641.5,-195"/>
<text text-anchor="middle" x="593" y="-183" font-family="Helvetica,sans-Serif" font-size="10.00">include/core.hpp</text>
</a>
</g>
</g>
<!-- Node1&#45;&gt;Node2 -->
<g id="edge1_Node000001_Node000002" class="edge">
<title>Node1&#45;&gt;Node2</title>
<g id="a_edge1_Node000001_Node000002"><a xlink:title=" ">
<path fill="none" stroke="#63b8ff" d="M593,-220.75C593,-211.72 593,-202.03 593,-195.27"/>
<polygon fill="#63b8ff" stroke="#63b8ff" points="589.5,-220.84 593,-230.84 596.5,-220.84 589.5,-220.84"/>
</a>
</g>
</g>
<!-- Node3 -->
<g id="Node000003" class="node">
<title>Node3</title>
<g id="a_Node000003"><a xlink:href="../../d4/d01/application_8hpp.html" target="_top" xlink:title="Umbrella header for the app module.">
<polygon fill="white" stroke="#666666" points="130,-74 0,-74 0,-55 130,-55 130,-74"/>
<text text-anchor="middle" x="65" y="-62" font-family="Helvetica,sans-Serif" font-size="10.00">include/application.hpp</text>
</a>
</g>
</g>
<!-- Node2&#45;&gt;Node3 -->
<g id="edge2_Node000002_Node000003" class="edge">
<title>Node2&#45;&gt;Node3</title>
<g id="a_edge2_Node000002_Node000003"><a xlink:title=" ">
<path fill="none" stroke="#63b8ff" d="M534.25,-183.35C428.82,-180.53 212.13,-171.03 144,-140 111.06,-125 83.09,-90.59 71.17,-74.33"/>
<polygon fill="#63b8ff" stroke="#63b8ff" points="534.32,-186.86 544.4,-183.61 534.5,-179.86 534.32,-186.86"/>
</a>
</g>
</g>
<!-- Node4 -->
<g id="Node000004" class="node">
<title>Node4</title>
<g id="a_Node000004"><a xlink:href="../../d8/d8c/toygine2_8hpp.html" target="_top" xlink:title="Main umbrella header for the engine.">
<polygon fill="white" stroke="#666666" points="421.5,-19 302.5,-19 302.5,0 421.5,0 421.5,-19"/>
<text text-anchor="middle" x="362" y="-7" font-family="Helvetica,sans-Serif" font-size="10.00">include/toygine2.hpp</text>
</a>
</g>
</g>
<!-- Node2&#45;&gt;Node4 -->
<g id="edge19_Node000002_Node000004" class="edge">
<title>Node2&#45;&gt;Node4</title>
<g id="a_edge19_Node000002_Node000004"><a xlink:title=" ">
<path fill="none" stroke="#63b8ff" d="M534.42,-182.88C444.63,-179.49 278.03,-169.33 227,-140 195.1,-121.66 188.72,-108.88 177,-74 174.31,-66 171.77,-61.63 177,-55 192.49,-35.35 254.44,-23.37 302.43,-16.87"/>
<polygon fill="#63b8ff" stroke="#63b8ff" points="534.33,-186.38 544.45,-183.24 534.58,-179.38 534.33,-186.38"/>
</a>
</g>
</g>
<!-- Node5 -->
<g id="Node000005" class="node">
<title>Node5</title>
<g id="a_Node000005"><a xlink:href="../../d1/d71/audio_8hpp.html" target="_top" xlink:title="Umbrella header for the audio module.">
<polygon fill="white" stroke="#666666" points="289.5,-74 186.5,-74 186.5,-55 289.5,-55 289.5,-74"/>
<text text-anchor="middle" x="238" y="-62" font-family="Helvetica,sans-Serif" font-size="10.00">include/audio.hpp</text>
</a>
</g>
</g>
<!-- Node2&#45;&gt;Node5 -->
<g id="edge4_Node000002_Node000005" class="edge">
<title>Node2&#45;&gt;Node5</title>
<g id="a_edge4_Node000002_Node000005"><a xlink:title=" ">
<path fill="none" stroke="#63b8ff" d="M534.22,-181.16C439.2,-175.17 260.47,-161.21 241,-140 224.37,-121.88 230.77,-89.62 235.18,-74.19"/>
<polygon fill="#63b8ff" stroke="#63b8ff" points="534.06,-184.66 544.26,-181.78 534.5,-177.67 534.06,-184.66"/>
</a>
</g>
</g>
<!-- Node6 -->
<g id="Node000006" class="node">
<title>Node6</title>
<g id="a_Node000006"><a xlink:href="../../d8/d39/game_8hpp.html" target="_top" xlink:title="Umbrella header for the game module.">
<polygon fill="white" stroke="#666666" points="354,-134.5 250,-134.5 250,-115.5 354,-115.5 354,-134.5"/>
<text text-anchor="middle" x="302" y="-122.5" font-family="Helvetica,sans-Serif" font-size="10.00">include/game.hpp</text>
</a>
</g>
</g>
<!-- Node2&#45;&gt;Node6 -->
<g id="edge6_Node000002_Node000006" class="edge">
<title>Node2&#45;&gt;Node6</title>
<g id="a_edge6_Node000002_Node000006"><a xlink:title=" ">
<path fill="none" stroke="#63b8ff" d="M536.3,-174.09C489.68,-165.4 421.94,-152.46 363,-140 355.03,-138.31 346.49,-136.41 338.4,-134.57"/>
<polygon fill="#63b8ff" stroke="#63b8ff" points="535.74,-177.55 546.21,-175.94 537.02,-170.67 535.74,-177.55"/>
</a>
</g>
</g>
<!-- Node7 -->
<g id="Node000007" class="node">
<title>Node7</title>
<g id="a_Node000007"><a xlink:href="../../d4/d78/math_8hpp.html" target="_top" xlink:title="Umbrella header for the math module.">
<polygon fill="white" stroke="#666666" points="473.5,-134.5 372.5,-134.5 372.5,-115.5 473.5,-115.5 473.5,-134.5"/>
<text text-anchor="middle" x="423" y="-122.5" font-family="Helvetica,sans-Serif" font-size="10.00">include/math.hpp</text>
</a>
</g>
</g>
<!-- Node2&#45;&gt;Node7 -->
<g id="edge7_Node000002_Node000007" class="edge">
<title>Node2&#45;&gt;Node7</title>
<g id="a_edge7_Node000002_Node000007"><a xlink:title=" ">
<path fill="none" stroke="#63b8ff" d="M558.63,-172.67C525.75,-161.36 476.97,-144.57 447.75,-134.52"/>
<polygon fill="#63b8ff" stroke="#63b8ff" points="557.69,-176.05 568.28,-175.99 559.96,-169.43 557.69,-176.05"/>
</a>
</g>
</g>
<!-- Node9 -->
<g id="Node000009" class="node">
<title>Node9</title>
<g id="a_Node000009"><a xlink:href="../../d6/d67/network_8hpp.html" target="_top" xlink:title="Umbrella header for the network module.">
<polygon fill="white" stroke="#666666" points="608,-134.5 492,-134.5 492,-115.5 608,-115.5 608,-134.5"/>
<text text-anchor="middle" x="550" y="-122.5" font-family="Helvetica,sans-Serif" font-size="10.00">include/network.hpp</text>
</a>
</g>
</g>
<!-- Node2&#45;&gt;Node9 -->
<g id="edge11_Node000002_Node000009" class="edge">
<title>Node2&#45;&gt;Node9</title>
<g id="a_edge11_Node000002_Node000009"><a xlink:title=" ">
<path fill="none" stroke="#63b8ff" d="M580.6,-167.63C572.68,-156.85 562.73,-143.32 556.37,-134.67"/>
<polygon fill="#63b8ff" stroke="#63b8ff" points="577.91,-169.88 586.66,-175.87 583.55,-165.74 577.91,-169.88"/>
</a>
</g>
</g>
<!-- Node11 -->
<g id="Node000011" class="node">
<title>Node11</title>
<g id="a_Node000011"><a xlink:href="../../de/dd6/ui_8hpp.html" target="_top" xlink:title="Umbrella header for platform UI types.">
<polygon fill="white" stroke="#666666" points="812,-74 682,-74 682,-55 812,-55 812,-74"/>
<text text-anchor="middle" x="747" y="-62" font-family="Helvetica,sans-Serif" font-size="10.00">include/platform/ui.hpp</text>
</a>
</g>
</g>
<!-- Node2&#45;&gt;Node11 -->
<g id="edge14_Node000002_Node000011" class="edge">
<title>Node2&#45;&gt;Node11</title>
<g id="a_edge14_Node000002_Node000011"><a xlink:title=" ">
<path fill="none" stroke="#63b8ff" d="M604.53,-167.07C616.04,-150.71 635,-126.36 656,-110 676.53,-94 703.74,-81.63 723.04,-74.04"/>
<polygon fill="#63b8ff" stroke="#63b8ff" points="601.41,-165.44 598.66,-175.67 607.19,-169.39 601.41,-165.44"/>
</a>
</g>
</g>
<!-- Node12 -->
<g id="Node000012" class="node">
<title>Node12</title>
<g id="a_Node000012"><a xlink:href="../../d6/d4b/render_8hpp.html" target="_top" xlink:title="Umbrella header for the render module.">
<polygon fill="white" stroke="#666666" points="771.5,-134.5 664.5,-134.5 664.5,-115.5 771.5,-115.5 771.5,-134.5"/>
<text text-anchor="middle" x="718" y="-122.5" font-family="Helvetica,sans-Serif" font-size="10.00">include/render.hpp</text>
</a>
</g>
</g>
<!-- Node2&#45;&gt;Node12 -->
<g id="edge16_Node000002_Node000012" class="edge">
<title>Node2&#45;&gt;Node12</title>
<g id="a_edge16_Node000002_Node000012"><a xlink:title=" ">
<path fill="none" stroke="#63b8ff" d="M620.49,-171.63C644.6,-160.35 678.96,-144.27 699.8,-134.52"/>
<polygon fill="#63b8ff" stroke="#63b8ff" points="618.75,-168.58 611.18,-175.99 621.72,-174.92 618.75,-168.58"/>
</a>
</g>
</g>
<!-- Node14 -->
<g id="Node000014" class="node">
<title>Node14</title>
<g id="a_Node000014"><a xlink:href="../../db/d2d/hashes_8cpp.html" target="_top" xlink:title="Table&#45;driven implementations of toy::crc8(), toy::crc16(), and toy::crc32().">
<polygon fill="white" stroke="#666666" points="902.5,-134.5 789.5,-134.5 789.5,-115.5 902.5,-115.5 902.5,-134.5"/>
<text text-anchor="middle" x="846" y="-122.5" font-family="Helvetica,sans-Serif" font-size="10.00">src/core/hashes.cpp</text>
</a>
</g>
</g>
<!-- Node2&#45;&gt;Node14 -->
<g id="edge20_Node000002_Node000014" class="edge">
<title>Node2&#45;&gt;Node14</title>
<g id="a_edge20_Node000002_Node000014"><a xlink:title=" ">
<path fill="none" stroke="#63b8ff" d="M639.79,-173.68C688.68,-162.38 764.37,-144.88 809.17,-134.52"/>
<polygon fill="#63b8ff" stroke="#63b8ff" points="638.74,-170.33 629.79,-175.99 640.32,-177.15 638.74,-170.33"/>
</a>
</g>
</g>
<!-- Node15 -->
<g id="Node000015" class="node">
<title>Node15</title>
<g id="a_Node000015"><a xlink:href="../../d2/d51/log__sink_8cpp.html" target="_top" xlink:title="Out&#45;of&#45;line definitions for toy::log::ISink.">
<polygon fill="white" stroke="#666666" points="1039.5,-134.5 920.5,-134.5 920.5,-115.5 1039.5,-115.5 1039.5,-134.5"/>
<text text-anchor="middle" x="980" y="-122.5" font-family="Helvetica,sans-Serif" font-size="10.00">src/core/log_sink.cpp</text>
</a>
</g>
</g>
<!-- Node2&#45;&gt;Node15 -->
<g id="edge21_Node000002_Node000015" class="edge">
<title>Node2&#45;&gt;Node15</title>
<g id="a_edge21_Node000002_Node000015"><a xlink:title=" ">
<path fill="none" stroke="#63b8ff" d="M651.84,-177.45C715.98,-169.49 821.57,-155.6 912,-140 921.38,-138.38 931.45,-136.43 940.89,-134.5"/>
<polygon fill="#63b8ff" stroke="#63b8ff" points="651.02,-174.02 641.52,-178.72 651.87,-180.97 651.02,-174.02"/>
</a>
</g>
</g>
<!-- Node16 -->
<g id="Node000016" class="node">
<title>Node16</title>
<g id="a_Node000016"><a xlink:href="../../de/d06/utils_8cpp.html" target="_top" xlink:title="Definitions for string, encoding, and number utilities declared in core/utils.hpp.">
<polygon fill="white" stroke="#666666" points="1156.5,-134.5 1057.5,-134.5 1057.5,-115.5 1156.5,-115.5 1156.5,-134.5"/>
<text text-anchor="middle" x="1107" y="-122.5" font-family="Helvetica,sans-Serif" font-size="10.00">src/core/utils.cpp</text>
</a>
</g>
</g>
<!-- Node2&#45;&gt;Node16 -->
<g id="edge22_Node000002_Node000016" class="edge">
<title>Node2&#45;&gt;Node16</title>
<g id="a_edge22_Node000002_Node000016"><a xlink:title=" ">
<path fill="none" stroke="#63b8ff" d="M651.77,-181.39C738.96,-176.19 907.49,-163.86 1049,-140 1057.58,-138.55 1066.77,-136.55 1075.26,-134.51"/>
<polygon fill="#63b8ff" stroke="#63b8ff" points="651.33,-177.91 641.55,-181.99 651.74,-184.9 651.33,-177.91"/>
</a>
</g>
</g>
<!-- Node17 -->
<g id="Node000017" class="node">
<title>Node17</title>
<g id="a_Node000017"><a xlink:href="../../d7/d90/assertion__stub_8cpp.html" target="_top" xlink:title="Stub definitions for the assertion callback API declared in core/assertion.hpp.">
<polygon fill="white" stroke="#666666" points="1309.5,-140 1174.5,-140 1174.5,-110 1309.5,-110 1309.5,-140"/>
<text text-anchor="start" x="1182.5" y="-128" font-family="Helvetica,sans-Serif" font-size="10.00">src/platforms/stub</text>
<text text-anchor="middle" x="1242" y="-117" font-family="Helvetica,sans-Serif" font-size="10.00">/core/assertion_stub.cpp</text>
</a>
</g>
</g>
<!-- Node2&#45;&gt;Node17 -->
<g id="edge23_Node000002_Node000017" class="edge">
<title>Node2&#45;&gt;Node17</title>
<g id="a_edge23_Node000002_Node000017"><a xlink:title=" ">
<path fill="none" stroke="#63b8ff" d="M651.85,-181.97C755.9,-177.03 979.05,-164.41 1166,-140 1168.66,-139.65 1171.37,-139.27 1174.1,-138.87"/>
<polygon fill="#63b8ff" stroke="#63b8ff" points="651.68,-178.47 641.85,-182.43 652.01,-185.46 651.68,-178.47"/>
</a>
</g>
</g>
<!-- Node3&#45;&gt;Node4 -->
<g id="edge3_Node000003_Node000004" class="edge">
<title>Node3&#45;&gt;Node4</title>
<g id="a_edge3_Node000003_Node000004"><a xlink:title=" ">
<path fill="none" stroke="#63b8ff" d="M122.78,-53.19C178.46,-43.25 261.74,-28.39 313.91,-19.08"/>
<polygon fill="#63b8ff" stroke="#63b8ff" points="121.95,-49.78 112.72,-54.98 123.18,-56.67 121.95,-49.78"/>
</a>
</g>
</g>
<!-- Node5&#45;&gt;Node4 -->
<g id="edge5_Node000005_Node000004" class="edge">
<title>Node5&#45;&gt;Node4</title>
<g id="a_edge5_Node000005_Node000004"><a xlink:title=" ">
<path fill="none" stroke="#63b8ff" d="M267.18,-51.03C290.11,-41.23 321.45,-27.83 341.71,-19.17"/>
<polygon fill="#63b8ff" stroke="#63b8ff" points="265.74,-47.84 257.92,-54.98 268.49,-54.27 265.74,-47.84"/>
</a>
</g>
</g>
<!-- Node7&#45;&gt;Node4 -->
<g id="edge10_Node000007_Node000004" class="edge">
<title>Node7&#45;&gt;Node4</title>
<g id="a_edge10_Node000007_Node000004"><a xlink:title=" ">
<path fill="none" stroke="#63b8ff" d="M383.89,-111.5C366.27,-103.69 347.17,-91.68 337,-74 326.36,-55.51 343.04,-31.63 353.89,-19.08"/>
<polygon fill="#63b8ff" stroke="#63b8ff" points="382.88,-114.87 393.46,-115.41 385.53,-108.39 382.88,-114.87"/>
</a>
</g>
</g>
<!-- Node8 -->
<g id="Node000008" class="node">
<title>Node8</title>
<g id="a_Node000008"><a xlink:href="../../db/dbb/geometry_8hpp.html" target="_top" xlink:title="Umbrella header for the geometry module.">
<polygon fill="white" stroke="#666666" points="468,-74 346,-74 346,-55 468,-55 468,-74"/>
<text text-anchor="middle" x="407" y="-62" font-family="Helvetica,sans-Serif" font-size="10.00">include/geometry.hpp</text>
</a>
</g>
</g>
<!-- Node7&#45;&gt;Node8 -->
<g id="edge8_Node000007_Node000008" class="edge">
<title>Node7&#45;&gt;Node8</title>
<g id="a_edge8_Node000007_Node000008"><a xlink:title=" ">
<path fill="none" stroke="#63b8ff" d="M417.94,-105.49C415.07,-95.01 411.62,-82.39 409.37,-74.17"/>
<polygon fill="#63b8ff" stroke="#63b8ff" points="414.62,-106.65 420.64,-115.37 421.38,-104.8 414.62,-106.65"/>
</a>
</g>
</g>
<!-- Node8&#45;&gt;Node4 -->
<g id="edge9_Node000008_Node000004" class="edge">
<title>Node8&#45;&gt;Node4</title>
<g id="a_edge9_Node000008_Node000004"><a xlink:title=" ">
<path fill="none" stroke="#63b8ff" d="M392.95,-46.96C385.11,-37.72 375.67,-26.6 369.29,-19.09"/>
<polygon fill="#63b8ff" stroke="#63b8ff" points="390.43,-49.39 399.57,-54.75 395.76,-44.86 390.43,-49.39"/>
</a>
</g>
</g>
<!-- Node9&#45;&gt;Node4 -->
<g id="edge12_Node000009_Node000004" class="edge">
<title>Node9&#45;&gt;Node4</title>
<g id="a_edge12_Node000009_Node000004"><a xlink:title=" ">
<path fill="none" stroke="#63b8ff" d="M536.06,-107.56C522.34,-92.24 500.14,-69.61 477,-55 450.93,-38.54 417.81,-26.52 393.81,-19.15"/>
<polygon fill="#63b8ff" stroke="#63b8ff" points="533.55,-110 542.76,-115.23 538.82,-105.4 533.55,-110"/>
</a>
</g>
</g>
<!-- Node10 -->
<g id="Node000010" class="node">
<title>Node10</title>
<g id="a_Node000010"><a xlink:href="../../d3/d80/endpoint_8cpp.html" target="_top" xlink:title="Definitions for the toy::network::Endpoint destructor declared in network/endpoint....">
<polygon fill="white" stroke="#666666" points="664,-74 524,-74 524,-55 664,-55 664,-74"/>
<text text-anchor="middle" x="594" y="-62" font-family="Helvetica,sans-Serif" font-size="10.00">src/network/endpoint.cpp</text>
</a>
</g>
</g>
<!-- Node9&#45;&gt;Node10 -->
<g id="edge13_Node000009_Node000010" class="edge">
<title>Node9&#45;&gt;Node10</title>
<g id="a_edge13_Node000009_Node000010"><a xlink:title=" ">
<path fill="none" stroke="#63b8ff" d="M562.69,-107.13C570.8,-96.35 580.97,-82.82 587.48,-74.17"/>
<polygon fill="#63b8ff" stroke="#63b8ff" points="559.71,-105.27 556.49,-115.37 565.3,-109.48 559.71,-105.27"/>
</a>
</g>
</g>
<!-- Node11&#45;&gt;Node4 -->
<g id="edge15_Node000011_Node000004" class="edge">
<title>Node11&#45;&gt;Node4</title>
<g id="a_edge15_Node000011_Node000004"><a xlink:title=" ">
<path fill="none" stroke="#63b8ff" d="M675.1,-53.6C602.04,-43.54 490.17,-28.14 421.8,-18.73"/>
<polygon fill="#63b8ff" stroke="#63b8ff" points="674.76,-57.09 685.14,-54.98 675.71,-50.15 674.76,-57.09"/>
</a>
</g>
</g>
<!-- Node12&#45;&gt;Node4 -->
<g id="edge17_Node000012_Node000004" class="edge">
<title>Node12&#45;&gt;Node4</title>
<g id="a_edge17_Node000012_Node000004"><a xlink:title=" ">
<path fill="none" stroke="#63b8ff" d="M761.85,-112.45C799.33,-100.53 843.84,-80.16 821,-55 794.67,-25.99 540.23,-15.33 421.93,-11.91"/>
<polygon fill="#63b8ff" stroke="#63b8ff" points="760.58,-109.18 752.03,-115.44 762.61,-115.88 760.58,-109.18"/>
</a>
</g>
</g>
<!-- Node13 -->
<g id="Node000013" class="node">
<title>Node13</title>
<g id="a_Node000013"><a xlink:href="../../db/d3d/pixel__format_8cpp.html" target="_top" xlink:title="Definitions for pixelFormatName() and pixelFormatFromName() declared in render/pixel_format....">
<polygon fill="white" stroke="#666666" points="1018,-74 868,-74 868,-55 1018,-55 1018,-74"/>
<text text-anchor="middle" x="943" y="-62" font-family="Helvetica,sans-Serif" font-size="10.00">src/render/pixel_format.cpp</text>
</a>
</g>
</g>
<!-- Node12&#45;&gt;Node13 -->
<g id="edge18_Node000012_Node000013" class="edge">
<title>Node12&#45;&gt;Node13</title>
<g id="a_edge18_Node000012_Node000013"><a xlink:title=" ">
<path fill="none" stroke="#63b8ff" d="M760.44,-112.97C803.93,-101.66 870.65,-84.31 910.24,-74.02"/>
<polygon fill="#63b8ff" stroke="#63b8ff" points="759.51,-109.59 750.72,-115.49 761.28,-116.36 759.51,-109.59"/>
</a>
</g>
</g>
</g>
</svg>
