<?xml version="1.0" encoding="UTF-8" standalone="no"?>
<!DOCTYPE svg PUBLIC "-//W3C//DTD SVG 1.1//EN"
 "http://www.w3.org/Graphics/SVG/1.1/DTD/svg11.dtd">
<!-- Generated by graphviz version 2.43.0 (0)
 -->
<!-- Title: src/core/hashes.cpp Pages: 1 -->
<svg width="2375pt" height="159pt"
 viewBox="0.00 0.00 2374.50 159.00" xmlns="http://www.w3.org/2000/svg" xmlns:xlink="http://www.w3.org/1999/xlink">
<g id="graph0" class="graph" transform="scale(1 1) rotate(0) translate(4 155)">
<title>src/core/hashes.cpp</title>
<!-- Node1 -->
<g id="Node000001" class="node">
<title>Node1</title>
<g id="a_Node000001"><a xlink:title="Implementation of CRC hash functions with lookup tables for optimal performance.">
<polygon fill="#999999" stroke="#666666" points="909.5,-151 796.5,-151 796.5,-132 909.5,-132 909.5,-151"/>
<text text-anchor="middle" x="853" y="-139" font-family="Helvetica,sans-Serif" font-size="10.00">src/core/hashes.cpp</text>
</a>
</g>
</g>
<!-- Node2 -->
<g id="Node000002" class="node">
<title>Node2</title>
<g id="a_Node000002"><a xlink:href="../../da/d47/core_8hpp.html" target="_top" xlink:title="Umbrella header for the engine core module.">
<polygon fill="white" stroke="#666666" points="882.5,-96 823.5,-96 823.5,-77 882.5,-77 882.5,-96"/>
<text text-anchor="middle" x="853" y="-84" font-family="Helvetica,sans-Serif" font-size="10.00">core.hpp</text>
</a>
</g>
</g>
<!-- Node1&#45;&gt;Node2 -->
<g id="edge1_Node000001_Node000002" class="edge">
<title>Node1&#45;&gt;Node2</title>
<g id="a_edge1_Node000001_Node000002"><a xlink:title=" ">
<path fill="none" stroke="#63b8ff" d="M853,-131.75C853,-124.8 853,-114.85 853,-106.13"/>
<polygon fill="#63b8ff" stroke="#63b8ff" points="856.5,-106.09 853,-96.09 849.5,-106.09 856.5,-106.09"/>
</a>
</g>
</g>
<!-- Node3 -->
<g id="Node000003" class="node">
<title>Node3</title>
<g id="a_Node000003"><a xlink:title=" ">
<polygon fill="#e0e0e0" stroke="#999999" points="64,-30 0,-30 0,-11 64,-11 64,-30"/>
<text text-anchor="middle" x="32" y="-18" font-family="Helvetica,sans-Serif" font-size="10.00">algorithm</text>
</a>
</g>
</g>
<!-- Node2&#45;&gt;Node3 -->
<g id="edge2_Node000002_Node000003" class="edge">
<title>Node2&#45;&gt;Node3</title>
<g id="a_edge2_Node000002_Node000003"><a xlink:title=" ">
<path fill="none" stroke="#63b8ff" d="M823.1,-85.33C698.31,-84.38 218.86,-78.32 73,-41 67.27,-39.53 61.38,-37.25 55.92,-34.76"/>
<polygon fill="#63b8ff" stroke="#63b8ff" points="57.18,-31.48 46.66,-30.18 54.07,-37.75 57.18,-31.48"/>
</a>
</g>
</g>
<!-- Node4 -->
<g id="Node000004" class="node">
<title>Node4</title>
<g id="a_Node000004"><a xlink:title=" ">
<polygon fill="#e0e0e0" stroke="#999999" points="124,-30 82,-30 82,-11 124,-11 124,-30"/>
<text text-anchor="middle" x="103" y="-18" font-family="Helvetica,sans-Serif" font-size="10.00">array</text>
</a>
</g>
</g>
<!-- Node2&#45;&gt;Node4 -->
<g id="edge3_Node000002_Node000004" class="edge">
<title>Node2&#45;&gt;Node4</title>
<g id="a_edge3_Node000002_Node000004"><a xlink:title=" ">
<path fill="none" stroke="#63b8ff" d="M823.27,-85.67C704.52,-86.03 264.26,-84.36 133,-41 129.24,-39.76 125.49,-37.93 121.98,-35.87"/>
<polygon fill="#63b8ff" stroke="#63b8ff" points="123.68,-32.8 113.41,-30.18 119.81,-38.63 123.68,-32.8"/>
</a>
</g>
</g>
<!-- Node5 -->
<g id="Node000005" class="node">
<title>Node5</title>
<g id="a_Node000005"><a xlink:title=" ">
<polygon fill="#e0e0e0" stroke="#999999" points="201.5,-30 142.5,-30 142.5,-11 201.5,-11 201.5,-30"/>
<text text-anchor="middle" x="172" y="-18" font-family="Helvetica,sans-Serif" font-size="10.00">compare</text>
</a>
</g>
</g>
<!-- Node2&#45;&gt;Node5 -->
<g id="edge4_Node000002_Node000005" class="edge">
<title>Node2&#45;&gt;Node5</title>
<g id="a_edge4_Node000002_Node000005"><a xlink:title=" ">
<path fill="none" stroke="#63b8ff" d="M823.29,-84.98C713.19,-82.83 328.75,-73.14 211,-41 205.66,-39.54 200.19,-37.33 195.1,-34.9"/>
<polygon fill="#63b8ff" stroke="#63b8ff" points="196.39,-31.64 185.91,-30.14 193.17,-37.85 196.39,-31.64"/>
</a>
</g>
</g>
<!-- Node6 -->
<g id="Node000006" class="node">
<title>Node6</title>
<g id="a_Node000006"><a xlink:title=" ">
<polygon fill="#e0e0e0" stroke="#999999" points="280,-30 220,-30 220,-11 280,-11 280,-30"/>
<text text-anchor="middle" x="250" y="-18" font-family="Helvetica,sans-Serif" font-size="10.00">concepts</text>
</a>
</g>
</g>
<!-- Node2&#45;&gt;Node6 -->
<g id="edge5_Node000002_Node000006" class="edge">
<title>Node2&#45;&gt;Node6</title>
<g id="a_edge5_Node000002_Node000006"><a xlink:title=" ">
<path fill="none" stroke="#63b8ff" d="M823.48,-84.66C722.46,-81.56 391.2,-69.42 289,-41 283.67,-39.52 278.2,-37.29 273.11,-34.87"/>
<polygon fill="#63b8ff" stroke="#63b8ff" points="274.4,-31.6 263.92,-30.1 271.18,-37.81 274.4,-31.6"/>
</a>
</g>
</g>
<!-- Node7 -->
<g id="Node000007" class="node">
<title>Node7</title>
<g id="a_Node000007"><a xlink:title=" ">
<polygon fill="#e0e0e0" stroke="#999999" points="351.5,-30 298.5,-30 298.5,-11 351.5,-11 351.5,-30"/>
<text text-anchor="middle" x="325" y="-18" font-family="Helvetica,sans-Serif" font-size="10.00">cstddef</text>
</a>
</g>
</g>
<!-- Node2&#45;&gt;Node7 -->
<g id="edge6_Node000002_Node000007" class="edge">
<title>Node2&#45;&gt;Node7</title>
<g id="a_edge6_Node000002_Node000007"><a xlink:title=" ">
<path fill="none" stroke="#63b8ff" d="M823.42,-84.39C730.97,-80.68 448.44,-67.41 361,-41 356.15,-39.54 351.21,-37.38 346.61,-35.02"/>
<polygon fill="#63b8ff" stroke="#63b8ff" points="348.21,-31.9 337.77,-30.07 344.79,-38.01 348.21,-31.9"/>
</a>
</g>
</g>
<!-- Node8 -->
<g id="Node000008" class="node">
<title>Node8</title>
<g id="a_Node000008"><a xlink:title=" ">
<polygon fill="#e0e0e0" stroke="#999999" points="420,-30 370,-30 370,-11 420,-11 420,-30"/>
<text text-anchor="middle" x="395" y="-18" font-family="Helvetica,sans-Serif" font-size="10.00">cstdint</text>
</a>
</g>
</g>
<!-- Node2&#45;&gt;Node8 -->
<g id="edge7_Node000002_Node000008" class="edge">
<title>Node2&#45;&gt;Node8</title>
<g id="a_edge7_Node000002_Node000008"><a xlink:title=" ">
<path fill="none" stroke="#63b8ff" d="M823.42,-83.99C739.76,-79.47 502.77,-64.85 429,-41 424.51,-39.55 419.95,-37.45 415.7,-35.16"/>
<polygon fill="#63b8ff" stroke="#63b8ff" points="417.4,-32.11 407.01,-30.04 413.85,-38.13 417.4,-32.11"/>
</a>
</g>
</g>
<!-- Node9 -->
<g id="Node000009" class="node">
<title>Node9</title>
<g id="a_Node000009"><a xlink:title=" ">
<polygon fill="#e0e0e0" stroke="#999999" points="488,-30 438,-30 438,-11 488,-11 488,-30"/>
<text text-anchor="middle" x="463" y="-18" font-family="Helvetica,sans-Serif" font-size="10.00">cstring</text>
</a>
</g>
</g>
<!-- Node2&#45;&gt;Node9 -->
<g id="edge8_Node000002_Node000009" class="edge">
<title>Node2&#45;&gt;Node9</title>
<g id="a_edge8_Node000002_Node000009"><a xlink:title=" ">
<path fill="none" stroke="#63b8ff" d="M823.06,-85.69C760.71,-85.25 613.08,-79.8 497,-41 492.72,-39.57 488.37,-37.57 484.28,-35.39"/>
<polygon fill="#63b8ff" stroke="#63b8ff" points="485.75,-32.2 475.35,-30.17 482.22,-38.24 485.75,-32.2"/>
</a>
</g>
</g>
<!-- Node10 -->
<g id="Node000010" class="node">
<title>Node10</title>
<g id="a_Node000010"><a xlink:title=" ">
<polygon fill="#e0e0e0" stroke="#999999" points="555.5,-30 506.5,-30 506.5,-11 555.5,-11 555.5,-30"/>
<text text-anchor="middle" x="531" y="-18" font-family="Helvetica,sans-Serif" font-size="10.00">cuchar</text>
</a>
</g>
</g>
<!-- Node2&#45;&gt;Node10 -->
<g id="edge9_Node000002_Node000010" class="edge">
<title>Node2&#45;&gt;Node10</title>
<g id="a_edge9_Node000002_Node000010"><a xlink:title=" ">
<path fill="none" stroke="#63b8ff" d="M823.11,-84.47C769.82,-81.85 655.48,-72.7 565,-41 560.74,-39.51 556.4,-37.48 552.31,-35.29"/>
<polygon fill="#63b8ff" stroke="#63b8ff" points="553.78,-32.09 543.38,-30.08 550.25,-38.14 553.78,-32.09"/>
</a>
</g>
</g>
<!-- Node11 -->
<g id="Node000011" class="node">
<title>Node11</title>
<g id="a_Node000011"><a xlink:title=" ">
<polygon fill="#e0e0e0" stroke="#999999" points="632,-30 574,-30 574,-11 632,-11 632,-30"/>
<text text-anchor="middle" x="603" y="-18" font-family="Helvetica,sans-Serif" font-size="10.00">memory</text>
</a>
</g>
</g>
<!-- Node2&#45;&gt;Node11 -->
<g id="edge10_Node000002_Node000011" class="edge">
<title>Node2&#45;&gt;Node11</title>
<g id="a_edge10_Node000002_Node000011"><a xlink:title=" ">
<path fill="none" stroke="#63b8ff" d="M823.17,-81.8C781.51,-76.07 703.92,-63.29 641,-41 636.19,-39.29 631.21,-37.1 626.51,-34.79"/>
<polygon fill="#63b8ff" stroke="#63b8ff" points="627.88,-31.56 617.39,-30.04 624.64,-37.76 627.88,-31.56"/>
</a>
</g>
</g>
<!-- Node12 -->
<g id="Node000012" class="node">
<title>Node12</title>
<g id="a_Node000012"><a xlink:title=" ">
<polygon fill="#e0e0e0" stroke="#999999" points="694,-30 650,-30 650,-11 694,-11 694,-30"/>
<text text-anchor="middle" x="672" y="-18" font-family="Helvetica,sans-Serif" font-size="10.00">string</text>
</a>
</g>
</g>
<!-- Node2&#45;&gt;Node12 -->
<g id="edge11_Node000002_Node000012" class="edge">
<title>Node2&#45;&gt;Node12</title>
<g id="a_edge11_Node000002_Node000012"><a xlink:title=" ">
<path fill="none" stroke="#63b8ff" d="M823.4,-79.24C792.51,-72.14 743.09,-59.14 703,-41 699.49,-39.41 695.91,-37.48 692.48,-35.47"/>
<polygon fill="#63b8ff" stroke="#63b8ff" points="694.26,-32.45 683.94,-30.08 690.53,-38.38 694.26,-32.45"/>
</a>
</g>
</g>
<!-- Node13 -->
<g id="Node000013" class="node">
<title>Node13</title>
<g id="a_Node000013"><a xlink:title=" ">
<polygon fill="#e0e0e0" stroke="#999999" points="757.5,-30 712.5,-30 712.5,-11 757.5,-11 757.5,-30"/>
<text text-anchor="middle" x="735" y="-18" font-family="Helvetica,sans-Serif" font-size="10.00">utility</text>
</a>
</g>
</g>
<!-- Node2&#45;&gt;Node13 -->
<g id="edge12_Node000002_Node000013" class="edge">
<title>Node2&#45;&gt;Node13</title>
<g id="a_edge12_Node000002_Node000013"><a xlink:title=" ">
<path fill="none" stroke="#63b8ff" d="M835.09,-76.92C817.33,-68.27 789.45,-54.34 766,-41 763.02,-39.3 759.91,-37.45 756.87,-35.59"/>
<polygon fill="#63b8ff" stroke="#63b8ff" points="758.45,-32.45 748.12,-30.11 754.74,-38.39 758.45,-32.45"/>
</a>
</g>
</g>
<!-- Node14 -->
<g id="Node000014" class="node">
<title>Node14</title>
<g id="a_Node000014"><a xlink:href="../../dd/d9e/linux_2platform__config_8hpp.html" target="_top" xlink:title="additional linux platform header">
<polygon fill="white" stroke="#666666" points="930.5,-41 775.5,-41 775.5,0 930.5,0 930.5,-41"/>
<text text-anchor="start" x="783.5" y="-29" font-family="Helvetica,sans-Serif" font-size="10.00">/home/runner/work/toygine2</text>
<text text-anchor="start" x="783.5" y="-18" font-family="Helvetica,sans-Serif" font-size="10.00">/toygine2/src/platforms</text>
<text text-anchor="middle" x="853" y="-7" font-family="Helvetica,sans-Serif" font-size="10.00">/linux/platform_config.hpp</text>
</a>
</g>
</g>
<!-- Node2&#45;&gt;Node14 -->
<g id="edge13_Node000002_Node000014" class="edge">
<title>Node2&#45;&gt;Node14</title>
<g id="a_edge13_Node000002_Node000014"><a xlink:title=" ">
<path fill="none" stroke="#63b8ff" d="M853,-76.87C853,-70.22 853,-60.63 853,-51.28"/>
<polygon fill="#63b8ff" stroke="#63b8ff" points="856.5,-51.01 853,-41.01 849.5,-51.01 856.5,-51.01"/>
</a>
</g>
</g>
<!-- Node15 -->
<g id="Node000015" class="node">
<title>Node15</title>
<g id="a_Node000015"><a xlink:href="../../dd/ded/c__string__view_8hpp.html" target="_top" xlink:title="Non&#45;owning string view class for C&#45;style strings.">
<polygon fill="white" stroke="#666666" points="1077,-30 949,-30 949,-11 1077,-11 1077,-30"/>
<text text-anchor="middle" x="1013" y="-18" font-family="Helvetica,sans-Serif" font-size="10.00">core/c_string_view.hpp</text>
</a>
</g>
</g>
<!-- Node2&#45;&gt;Node15 -->
<g id="edge14_Node000002_Node000015" class="edge">
<title>Node2&#45;&gt;Node15</title>
<g id="a_edge14_Node000002_Node000015"><a xlink:title=" ">
<path fill="none" stroke="#63b8ff" d="M874.58,-76.87C902.21,-65.82 950.29,-46.58 981.88,-33.95"/>
<polygon fill="#63b8ff" stroke="#63b8ff" points="983.52,-37.06 991.51,-30.1 980.92,-30.56 983.52,-37.06"/>
</a>
</g>
</g>
<!-- Node16 -->
<g id="Node000016" class="node">
<title>Node16</title>
<g id="a_Node000016"><a xlink:href="../../d4/dc0/constexpr__utils_8hpp.html" target="_top" xlink:title="Constexpr utility functions for compile&#45;time operations.">
<polygon fill="white" stroke="#666666" points="1231,-30 1095,-30 1095,-11 1231,-11 1231,-30"/>
<text text-anchor="middle" x="1163" y="-18" font-family="Helvetica,sans-Serif" font-size="10.00">core/constexpr_utils.hpp</text>
</a>
</g>
</g>
<!-- Node2&#45;&gt;Node16 -->
<g id="edge15_Node000002_Node000016" class="edge">
<title>Node2&#45;&gt;Node16</title>
<g id="a_edge15_Node000002_Node000016"><a xlink:title=" ">
<path fill="none" stroke="#63b8ff" d="M882.54,-80.44C926.89,-72.71 1013.23,-57.15 1086,-41 1097.45,-38.46 1109.8,-35.45 1121.18,-32.57"/>
<polygon fill="#63b8ff" stroke="#63b8ff" points="1122.06,-35.96 1130.88,-30.09 1120.33,-29.18 1122.06,-35.96"/>
</a>
</g>
</g>
<!-- Node17 -->
<g id="Node000017" class="node">
<title>Node17</title>
<g id="a_Node000017"><a xlink:href="../../d7/d7f/fixed__string_8hpp.html" target="_top" xlink:title="Template string class with fixed&#45;size character buffer.">
<polygon fill="white" stroke="#666666" points="1367,-30 1249,-30 1249,-11 1367,-11 1367,-30"/>
<text text-anchor="middle" x="1308" y="-18" font-family="Helvetica,sans-Serif" font-size="10.00">core/fixed_string.hpp</text>
</a>
</g>
</g>
<!-- Node2&#45;&gt;Node17 -->
<g id="edge16_Node000002_Node000017" class="edge">
<title>Node2&#45;&gt;Node17</title>
<g id="a_edge16_Node000002_Node000017"><a xlink:title=" ">
<path fill="none" stroke="#63b8ff" d="M882.88,-83.75C948.18,-79.55 1108.35,-67.26 1240,-41 1250.57,-38.89 1261.88,-35.94 1272.19,-32.97"/>
<polygon fill="#63b8ff" stroke="#63b8ff" points="1273.51,-36.23 1282.09,-30.02 1271.51,-29.52 1273.51,-36.23"/>
</a>
</g>
</g>
<!-- Node18 -->
<g id="Node000018" class="node">
<title>Node18</title>
<g id="a_Node000018"><a xlink:href="../../d7/dea/fixed__vector_8hpp.html" target="_top" xlink:title="TODO.">
<polygon fill="white" stroke="#666666" points="1505,-30 1385,-30 1385,-11 1505,-11 1505,-30"/>
<text text-anchor="middle" x="1445" y="-18" font-family="Helvetica,sans-Serif" font-size="10.00">core/fixed_vector.hpp</text>
</a>
</g>
</g>
<!-- Node2&#45;&gt;Node18 -->
<g id="edge17_Node000002_Node000018" class="edge">
<title>Node2&#45;&gt;Node18</title>
<g id="a_edge17_Node000002_Node000018"><a xlink:title=" ">
<path fill="none" stroke="#63b8ff" d="M882.75,-84.95C963.01,-83.03 1190.42,-74.8 1376,-41 1386.95,-39.01 1398.67,-36.03 1409.29,-32.99"/>
<polygon fill="#63b8ff" stroke="#63b8ff" points="1410.47,-36.29 1419.06,-30.1 1408.48,-29.58 1410.47,-36.29"/>
</a>
</g>
</g>
<!-- Node19 -->
<g id="Node000019" class="node">
<title>Node19</title>
<g id="a_Node000019"><a xlink:href="../../dd/d8e/hashes_8hpp.html" target="_top" xlink:title="CRC hash functions.">
<polygon fill="white" stroke="#666666" points="1619,-30 1523,-30 1523,-11 1619,-11 1619,-30"/>
<text text-anchor="middle" x="1571" y="-18" font-family="Helvetica,sans-Serif" font-size="10.00">core/hashes.hpp</text>
</a>
</g>
</g>
<!-- Node2&#45;&gt;Node19 -->
<g id="edge18_Node000002_Node000019" class="edge">
<title>Node2&#45;&gt;Node19</title>
<g id="a_edge18_Node000002_Node000019"><a xlink:title=" ">
<path fill="none" stroke="#63b8ff" d="M882.69,-84.54C994.57,-80.74 1390.53,-65.83 1514,-41 1522.84,-39.22 1532.2,-36.43 1540.72,-33.51"/>
<polygon fill="#63b8ff" stroke="#63b8ff" points="1542.03,-36.75 1550.25,-30.07 1539.66,-30.17 1542.03,-36.75"/>
</a>
</g>
</g>
<!-- Node20 -->
<g id="Node000020" class="node">
<title>Node20</title>
<g id="a_Node000020"><a xlink:href="../../df/d93/utils_8hpp.html" target="_top" xlink:title="Core utility functions for string manipulation, encoding conversion, and number formatting.">
<polygon fill="white" stroke="#666666" points="1720.5,-30 1637.5,-30 1637.5,-11 1720.5,-11 1720.5,-30"/>
<text text-anchor="middle" x="1679" y="-18" font-family="Helvetica,sans-Serif" font-size="10.00">core/utils.hpp</text>
</a>
</g>
</g>
<!-- Node2&#45;&gt;Node20 -->
<g id="edge19_Node000002_Node000020" class="edge">
<title>Node2&#45;&gt;Node20</title>
<g id="a_edge19_Node000002_Node000020"><a xlink:title=" ">
<path fill="none" stroke="#63b8ff" d="M882.64,-85.01C1006.34,-82.8 1481.73,-72.37 1628,-41 1635.65,-39.36 1643.66,-36.75 1651.01,-33.97"/>
<polygon fill="#63b8ff" stroke="#63b8ff" points="1652.56,-37.12 1660.53,-30.14 1649.95,-30.63 1652.56,-37.12"/>
</a>
</g>
</g>
<!-- Node21 -->
<g id="Node000021" class="node">
<title>Node21</title>
<g id="a_Node000021"><a xlink:href="../../df/d4a/c__string__view_8inl.html" target="_top" xlink:title="Inline implementations for CStringView class.">
<polygon fill="white" stroke="#666666" points="1861,-30 1739,-30 1739,-11 1861,-11 1861,-30"/>
<text text-anchor="middle" x="1800" y="-18" font-family="Helvetica,sans-Serif" font-size="10.00">core/c_string_view.inl</text>
</a>
</g>
</g>
<!-- Node2&#45;&gt;Node21 -->
<g id="edge20_Node000002_Node000021" class="edge">
<title>Node2&#45;&gt;Node21</title>
<g id="a_edge20_Node000002_Node000021"><a xlink:title=" ">
<path fill="none" stroke="#63b8ff" d="M882.78,-84.87C1016.41,-81.92 1561.47,-68.4 1730,-41 1741.54,-39.12 1753.89,-36.05 1764.96,-32.9"/>
<polygon fill="#63b8ff" stroke="#63b8ff" points="1766.11,-36.2 1774.7,-30.01 1764.12,-29.49 1766.11,-36.2"/>
</a>
</g>
</g>
<!-- Node22 -->
<g id="Node000022" class="node">
<title>Node22</title>
<g id="a_Node000022"><a xlink:href="../../dc/d28/constexpr__utils_8inl.html" target="_top" xlink:title="Inline implementations for constexpr utility functions.">
<polygon fill="white" stroke="#666666" points="2009,-30 1879,-30 1879,-11 2009,-11 2009,-30"/>
<text text-anchor="middle" x="1944" y="-18" font-family="Helvetica,sans-Serif" font-size="10.00">core/constexpr_utils.inl</text>
</a>
</g>
</g>
<!-- Node2&#45;&gt;Node22 -->
<g id="edge21_Node000002_Node000022" class="edge">
<title>Node2&#45;&gt;Node22</title>
<g id="a_edge21_Node000002_Node000022"><a xlink:title=" ">
<path fill="none" stroke="#63b8ff" d="M882.52,-85.06C1028.28,-82.76 1672.12,-71.05 1870,-41 1882.29,-39.13 1895.49,-36.03 1907.28,-32.83"/>
<polygon fill="#63b8ff" stroke="#63b8ff" points="1908.55,-36.11 1917.23,-30.04 1906.65,-29.37 1908.55,-36.11"/>
</a>
</g>
</g>
<!-- Node23 -->
<g id="Node000023" class="node">
<title>Node23</title>
<g id="a_Node000023"><a xlink:href="../../d7/d40/fixed__string_8inl.html" target="_top" xlink:title="Inline implementations for FixedString template class.">
<polygon fill="white" stroke="#666666" points="2139,-30 2027,-30 2027,-11 2139,-11 2139,-30"/>
<text text-anchor="middle" x="2083" y="-18" font-family="Helvetica,sans-Serif" font-size="10.00">core/fixed_string.inl</text>
</a>
</g>
</g>
<!-- Node2&#45;&gt;Node23 -->
<g id="edge22_Node000002_Node000023" class="edge">
<title>Node2&#45;&gt;Node23</title>
<g id="a_edge22_Node000002_Node000023"><a xlink:title=" ">
<path fill="none" stroke="#63b8ff" d="M882.55,-85.38C1040.84,-84.6 1789.89,-78.94 2018,-41 2028.55,-39.25 2039.78,-36.28 2049.9,-33.19"/>
<polygon fill="#63b8ff" stroke="#63b8ff" points="2051.11,-36.48 2059.57,-30.1 2048.98,-29.81 2051.11,-36.48"/>
</a>
</g>
</g>
<!-- Node24 -->
<g id="Node000024" class="node">
<title>Node24</title>
<g id="a_Node000024"><a xlink:href="../../da/dc9/fixed__vector_8inl.html" target="_top" xlink:title="TODO.">
<polygon fill="white" stroke="#666666" points="2271,-30 2157,-30 2157,-11 2271,-11 2271,-30"/>
<text text-anchor="middle" x="2214" y="-18" font-family="Helvetica,sans-Serif" font-size="10.00">core/fixed_vector.inl</text>
</a>
</g>
</g>
<!-- Node2&#45;&gt;Node24 -->
<g id="edge23_Node000002_Node000024" class="edge">
<title>Node2&#45;&gt;Node24</title>
<g id="a_edge23_Node000002_Node000024"><a xlink:title=" ">
<path fill="none" stroke="#63b8ff" d="M882.73,-85.5C1051.73,-85.33 1892.77,-82.4 2148,-41 2158.9,-39.23 2170.54,-36.2 2180.96,-33.04"/>
<polygon fill="#63b8ff" stroke="#63b8ff" points="2182.03,-36.37 2190.51,-30.02 2179.92,-29.7 2182.03,-36.37"/>
</a>
</g>
</g>
<!-- Node25 -->
<g id="Node000025" class="node">
<title>Node25</title>
<g id="a_Node000025"><a xlink:href="../../df/d7d/utils_8inl.html" target="_top" xlink:title="Inline implementations of core utility functions for string manipulation and encoding conversion.">
<polygon fill="white" stroke="#666666" points="2366.5,-30 2289.5,-30 2289.5,-11 2366.5,-11 2366.5,-30"/>
<text text-anchor="middle" x="2328" y="-18" font-family="Helvetica,sans-Serif" font-size="10.00">core/utils.inl</text>
</a>
</g>
</g>
<!-- Node2&#45;&gt;Node25 -->
<g id="edge24_Node000002_Node000025" class="edge">
<title>Node2&#45;&gt;Node25</title>
<g id="a_edge24_Node000002_Node000025"><a xlink:title=" ">
<path fill="none" stroke="#63b8ff" d="M882.68,-85.2C1074.8,-83.21 2138.9,-70.86 2280,-41 2287.21,-39.47 2294.73,-36.93 2301.61,-34.17"/>
<polygon fill="#63b8ff" stroke="#63b8ff" points="2303.34,-37.24 2311.14,-30.07 2300.57,-30.81 2303.34,-37.24"/>
</a>
</g>
</g>
</g>
</svg>
