<?xml version="1.0" encoding="UTF-8" standalone="no"?>
<!DOCTYPE svg PUBLIC "-//W3C//DTD SVG 1.1//EN"
 "http://www.w3.org/Graphics/SVG/1.1/DTD/svg11.dtd">
<!-- Generated by graphviz version 2.43.0 (0)
 -->
<!-- Title: src/core/hashes.cpp Pages: 1 -->
<svg width="2546pt" height="225pt"
 viewBox="0.00 0.00 2545.50 225.00" xmlns="http://www.w3.org/2000/svg" xmlns:xlink="http://www.w3.org/1999/xlink">
<g id="graph0" class="graph" transform="scale(1 1) rotate(0) translate(4 221)">
<title>src/core/hashes.cpp</title>
<!-- Node1 -->
<g id="Node000001" class="node">
<title>Node1</title>
<g id="a_Node000001"><a xlink:title="Implementation of CRC hash functions with lookup tables for optimal performance.">
<polygon fill="#999999" stroke="#666666" points="962.5,-217 849.5,-217 849.5,-198 962.5,-198 962.5,-217"/>
<text text-anchor="middle" x="906" y="-205" font-family="Helvetica,sans-Serif" font-size="10.00">src/core/hashes.cpp</text>
</a>
</g>
</g>
<!-- Node2 -->
<g id="Node000002" class="node">
<title>Node2</title>
<g id="a_Node000002"><a xlink:href="../../da/d47/core_8hpp.html" target="_top" xlink:title="Umbrella header for the engine core module.">
<polygon fill="white" stroke="#666666" points="935.5,-162 876.5,-162 876.5,-143 935.5,-143 935.5,-162"/>
<text text-anchor="middle" x="906" y="-150" font-family="Helvetica,sans-Serif" font-size="10.00">core.hpp</text>
</a>
</g>
</g>
<!-- Node1&#45;&gt;Node2 -->
<g id="edge1_Node000001_Node000002" class="edge">
<title>Node1&#45;&gt;Node2</title>
<g id="a_edge1_Node000001_Node000002"><a xlink:title=" ">
<path fill="none" stroke="#63b8ff" d="M906,-197.75C906,-190.8 906,-180.85 906,-172.13"/>
<polygon fill="#63b8ff" stroke="#63b8ff" points="909.5,-172.09 906,-162.09 902.5,-172.09 909.5,-172.09"/>
</a>
</g>
</g>
<!-- Node3 -->
<g id="Node000003" class="node">
<title>Node3</title>
<g id="a_Node000003"><a xlink:title=" ">
<polygon fill="#e0e0e0" stroke="#999999" points="64,-96 0,-96 0,-77 64,-77 64,-96"/>
<text text-anchor="middle" x="32" y="-84" font-family="Helvetica,sans-Serif" font-size="10.00">algorithm</text>
</a>
</g>
</g>
<!-- Node2&#45;&gt;Node3 -->
<g id="edge2_Node000002_Node000003" class="edge">
<title>Node2&#45;&gt;Node3</title>
<g id="a_edge2_Node000002_Node000003"><a xlink:title=" ">
<path fill="none" stroke="#63b8ff" d="M876.28,-151.45C746.59,-151.02 229.69,-146.79 73,-107 67.27,-105.55 61.38,-103.27 55.91,-100.78"/>
<polygon fill="#63b8ff" stroke="#63b8ff" points="57.17,-97.5 46.66,-96.19 54.06,-103.77 57.17,-97.5"/>
</a>
</g>
</g>
<!-- Node4 -->
<g id="Node000004" class="node">
<title>Node4</title>
<g id="a_Node000004"><a xlink:title=" ">
<polygon fill="#e0e0e0" stroke="#999999" points="124,-96 82,-96 82,-77 124,-77 124,-96"/>
<text text-anchor="middle" x="103" y="-84" font-family="Helvetica,sans-Serif" font-size="10.00">array</text>
</a>
</g>
</g>
<!-- Node2&#45;&gt;Node4 -->
<g id="edge3_Node000002_Node000004" class="edge">
<title>Node2&#45;&gt;Node4</title>
<g id="a_edge3_Node000002_Node000004"><a xlink:title=" ">
<path fill="none" stroke="#63b8ff" d="M876.28,-151.76C752.26,-152.52 275.94,-152.39 134,-107 130.03,-105.73 126.05,-103.83 122.34,-101.7"/>
<polygon fill="#63b8ff" stroke="#63b8ff" points="124.1,-98.67 113.8,-96.2 120.3,-104.56 124.1,-98.67"/>
</a>
</g>
</g>
<!-- Node5 -->
<g id="Node000005" class="node">
<title>Node5</title>
<g id="a_Node000005"><a xlink:title=" ">
<polygon fill="#e0e0e0" stroke="#999999" points="201.5,-96 142.5,-96 142.5,-77 201.5,-77 201.5,-96"/>
<text text-anchor="middle" x="172" y="-84" font-family="Helvetica,sans-Serif" font-size="10.00">compare</text>
</a>
</g>
</g>
<!-- Node2&#45;&gt;Node5 -->
<g id="edge4_Node000002_Node000005" class="edge">
<title>Node2&#45;&gt;Node5</title>
<g id="a_edge4_Node000002_Node000005"><a xlink:title=" ">
<path fill="none" stroke="#63b8ff" d="M876.25,-151.16C760.39,-149.62 339.4,-141.68 211,-107 205.66,-105.56 200.18,-103.35 195.09,-100.93"/>
<polygon fill="#63b8ff" stroke="#63b8ff" points="196.39,-97.66 185.9,-96.16 193.16,-103.87 196.39,-97.66"/>
</a>
</g>
</g>
<!-- Node6 -->
<g id="Node000006" class="node">
<title>Node6</title>
<g id="a_Node000006"><a xlink:title=" ">
<polygon fill="#e0e0e0" stroke="#999999" points="280,-96 220,-96 220,-77 280,-77 280,-96"/>
<text text-anchor="middle" x="250" y="-84" font-family="Helvetica,sans-Serif" font-size="10.00">concepts</text>
</a>
</g>
</g>
<!-- Node2&#45;&gt;Node6 -->
<g id="edge5_Node000002_Node000006" class="edge">
<title>Node2&#45;&gt;Node6</title>
<g id="a_edge5_Node000002_Node000006"><a xlink:title=" ">
<path fill="none" stroke="#63b8ff" d="M876.4,-150.85C769.36,-148.26 402.73,-137.33 290,-107 284.4,-105.49 278.65,-103.2 273.32,-100.7"/>
<polygon fill="#63b8ff" stroke="#63b8ff" points="274.79,-97.52 264.29,-96.12 271.63,-103.77 274.79,-97.52"/>
</a>
</g>
</g>
<!-- Node7 -->
<g id="Node000007" class="node">
<title>Node7</title>
<g id="a_Node000007"><a xlink:title=" ">
<polygon fill="#e0e0e0" stroke="#999999" points="351.5,-96 298.5,-96 298.5,-77 351.5,-77 351.5,-96"/>
<text text-anchor="middle" x="325" y="-84" font-family="Helvetica,sans-Serif" font-size="10.00">cstddef</text>
</a>
</g>
</g>
<!-- Node2&#45;&gt;Node7 -->
<g id="edge6_Node000002_Node000007" class="edge">
<title>Node2&#45;&gt;Node7</title>
<g id="a_edge6_Node000002_Node000007"><a xlink:title=" ">
<path fill="none" stroke="#63b8ff" d="M876.41,-150.69C777.48,-147.73 458.94,-136.11 361,-107 356.15,-105.56 351.2,-103.41 346.6,-101.05"/>
<polygon fill="#63b8ff" stroke="#63b8ff" points="348.2,-97.94 337.76,-96.11 344.78,-104.04 348.2,-97.94"/>
</a>
</g>
</g>
<!-- Node8 -->
<g id="Node000008" class="node">
<title>Node8</title>
<g id="a_Node000008"><a xlink:title=" ">
<polygon fill="#e0e0e0" stroke="#999999" points="420,-96 370,-96 370,-77 420,-77 420,-96"/>
<text text-anchor="middle" x="395" y="-84" font-family="Helvetica,sans-Serif" font-size="10.00">cstdint</text>
</a>
</g>
</g>
<!-- Node2&#45;&gt;Node8 -->
<g id="edge7_Node000002_Node000008" class="edge">
<title>Node2&#45;&gt;Node8</title>
<g id="a_edge7_Node000002_Node000008"><a xlink:title=" ">
<path fill="none" stroke="#63b8ff" d="M876.34,-150.38C785.65,-146.7 513.14,-133.66 429,-107 424.5,-105.57 419.94,-103.49 415.69,-101.21"/>
<polygon fill="#63b8ff" stroke="#63b8ff" points="417.39,-98.15 407,-96.07 413.83,-104.17 417.39,-98.15"/>
</a>
</g>
</g>
<!-- Node9 -->
<g id="Node000009" class="node">
<title>Node9</title>
<g id="a_Node000009"><a xlink:title=" ">
<polygon fill="#e0e0e0" stroke="#999999" points="488,-96 438,-96 438,-77 488,-77 488,-96"/>
<text text-anchor="middle" x="463" y="-84" font-family="Helvetica,sans-Serif" font-size="10.00">cstring</text>
</a>
</g>
</g>
<!-- Node2&#45;&gt;Node9 -->
<g id="edge8_Node000002_Node000009" class="edge">
<title>Node2&#45;&gt;Node9</title>
<g id="a_edge8_Node000002_Node000009"><a xlink:title=" ">
<path fill="none" stroke="#63b8ff" d="M876.49,-152.24C808.15,-153.12 634.46,-150.48 498,-107 493.4,-105.53 488.73,-103.43 484.35,-101.14"/>
<polygon fill="#63b8ff" stroke="#63b8ff" points="485.82,-97.95 475.4,-96.02 482.34,-104.03 485.82,-97.95"/>
</a>
</g>
</g>
<!-- Node10 -->
<g id="Node000010" class="node">
<title>Node10</title>
<g id="a_Node000010"><a xlink:title=" ">
<polygon fill="#e0e0e0" stroke="#999999" points="555.5,-96 506.5,-96 506.5,-77 555.5,-77 555.5,-96"/>
<text text-anchor="middle" x="531" y="-84" font-family="Helvetica,sans-Serif" font-size="10.00">cuchar</text>
</a>
</g>
</g>
<!-- Node2&#45;&gt;Node10 -->
<g id="edge9_Node000002_Node000010" class="edge">
<title>Node2&#45;&gt;Node10</title>
<g id="a_edge9_Node000002_Node000010"><a xlink:title=" ">
<path fill="none" stroke="#63b8ff" d="M876.4,-151.47C816.15,-150.58 675.6,-144.3 565,-107 560.72,-105.56 556.37,-103.55 552.28,-101.37"/>
<polygon fill="#63b8ff" stroke="#63b8ff" points="553.75,-98.18 543.36,-96.15 550.22,-104.22 553.75,-98.18"/>
</a>
</g>
</g>
<!-- Node11 -->
<g id="Node000011" class="node">
<title>Node11</title>
<g id="a_Node000011"><a xlink:title=" ">
<polygon fill="#e0e0e0" stroke="#999999" points="632,-96 574,-96 574,-77 632,-77 632,-96"/>
<text text-anchor="middle" x="603" y="-84" font-family="Helvetica,sans-Serif" font-size="10.00">memory</text>
</a>
</g>
</g>
<!-- Node2&#45;&gt;Node11 -->
<g id="edge10_Node000002_Node000011" class="edge">
<title>Node2&#45;&gt;Node11</title>
<g id="a_edge10_Node000002_Node000011"><a xlink:title=" ">
<path fill="none" stroke="#63b8ff" d="M876.41,-149.39C826.86,-145.21 724.41,-133.88 642,-107 636.91,-105.34 631.66,-103.11 626.72,-100.75"/>
<polygon fill="#63b8ff" stroke="#63b8ff" points="628.24,-97.6 617.74,-96.17 625.06,-103.83 628.24,-97.6"/>
</a>
</g>
</g>
<!-- Node12 -->
<g id="Node000012" class="node">
<title>Node12</title>
<g id="a_Node000012"><a xlink:title=" ">
<polygon fill="#e0e0e0" stroke="#999999" points="715.5,-96 650.5,-96 650.5,-77 715.5,-77 715.5,-96"/>
<text text-anchor="middle" x="683" y="-84" font-family="Helvetica,sans-Serif" font-size="10.00">stdexcept</text>
</a>
</g>
</g>
<!-- Node2&#45;&gt;Node12 -->
<g id="edge11_Node000002_Node000012" class="edge">
<title>Node2&#45;&gt;Node12</title>
<g id="a_edge11_Node000002_Node000012"><a xlink:title=" ">
<path fill="none" stroke="#63b8ff" d="M876.34,-146.04C840.06,-138.96 777.05,-125.29 725,-107 719.6,-105.1 713.95,-102.75 708.61,-100.34"/>
<polygon fill="#63b8ff" stroke="#63b8ff" points="709.99,-97.13 699.45,-96.04 707.01,-103.46 709.99,-97.13"/>
</a>
</g>
</g>
<!-- Node13 -->
<g id="Node000013" class="node">
<title>Node13</title>
<g id="a_Node000013"><a xlink:title=" ">
<polygon fill="#e0e0e0" stroke="#999999" points="778,-96 734,-96 734,-77 778,-77 778,-96"/>
<text text-anchor="middle" x="756" y="-84" font-family="Helvetica,sans-Serif" font-size="10.00">string</text>
</a>
</g>
</g>
<!-- Node2&#45;&gt;Node13 -->
<g id="edge12_Node000002_Node000013" class="edge">
<title>Node2&#45;&gt;Node13</title>
<g id="a_edge12_Node000002_Node000013"><a xlink:title=" ">
<path fill="none" stroke="#63b8ff" d="M879.16,-142.98C854.85,-134.89 818.3,-121.79 788,-107 784.52,-105.3 780.93,-103.34 777.47,-101.33"/>
<polygon fill="#63b8ff" stroke="#63b8ff" points="779.13,-98.24 768.77,-96.04 775.49,-104.22 779.13,-98.24"/>
</a>
</g>
</g>
<!-- Node14 -->
<g id="Node000014" class="node">
<title>Node14</title>
<g id="a_Node000014"><a xlink:title=" ">
<polygon fill="#e0e0e0" stroke="#999999" points="865.5,-96 796.5,-96 796.5,-77 865.5,-77 865.5,-96"/>
<text text-anchor="middle" x="831" y="-84" font-family="Helvetica,sans-Serif" font-size="10.00">type_traits</text>
</a>
</g>
</g>
<!-- Node2&#45;&gt;Node14 -->
<g id="edge13_Node000002_Node000014" class="edge">
<title>Node2&#45;&gt;Node14</title>
<g id="a_edge13_Node000002_Node000014"><a xlink:title=" ">
<path fill="none" stroke="#63b8ff" d="M895.89,-142.87C883.99,-132.71 864,-115.66 849.35,-103.15"/>
<polygon fill="#63b8ff" stroke="#63b8ff" points="851.31,-100.23 841.44,-96.41 846.77,-105.56 851.31,-100.23"/>
</a>
</g>
</g>
<!-- Node15 -->
<g id="Node000015" class="node">
<title>Node15</title>
<g id="a_Node000015"><a xlink:title=" ">
<polygon fill="#e0e0e0" stroke="#999999" points="928.5,-96 883.5,-96 883.5,-77 928.5,-77 928.5,-96"/>
<text text-anchor="middle" x="906" y="-84" font-family="Helvetica,sans-Serif" font-size="10.00">utility</text>
</a>
</g>
</g>
<!-- Node2&#45;&gt;Node15 -->
<g id="edge14_Node000002_Node000015" class="edge">
<title>Node2&#45;&gt;Node15</title>
<g id="a_edge14_Node000002_Node000015"><a xlink:title=" ">
<path fill="none" stroke="#63b8ff" d="M906,-142.87C906,-133.66 906,-118.79 906,-106.77"/>
<polygon fill="#63b8ff" stroke="#63b8ff" points="909.5,-106.41 906,-96.41 902.5,-106.41 909.5,-106.41"/>
</a>
</g>
</g>
<!-- Node16 -->
<g id="Node000016" class="node">
<title>Node16</title>
<g id="a_Node000016"><a xlink:href="../../dd/d9e/linux_2platform__config_8hpp.html" target="_top" xlink:title="additional linux platform header">
<polygon fill="white" stroke="#666666" points="1101.5,-107 946.5,-107 946.5,-66 1101.5,-66 1101.5,-107"/>
<text text-anchor="start" x="954.5" y="-95" font-family="Helvetica,sans-Serif" font-size="10.00">/home/runner/work/toygine2</text>
<text text-anchor="start" x="954.5" y="-84" font-family="Helvetica,sans-Serif" font-size="10.00">/toygine2/src/platforms</text>
<text text-anchor="middle" x="1024" y="-73" font-family="Helvetica,sans-Serif" font-size="10.00">/linux/platform_config.hpp</text>
</a>
</g>
</g>
<!-- Node2&#45;&gt;Node16 -->
<g id="edge15_Node000002_Node000016" class="edge">
<title>Node2&#45;&gt;Node16</title>
<g id="a_edge15_Node000002_Node000016"><a xlink:title=" ">
<path fill="none" stroke="#63b8ff" d="M921.91,-142.87C936.53,-134.94 958.92,-122.8 979,-111.91"/>
<polygon fill="#63b8ff" stroke="#63b8ff" points="980.91,-114.85 988.03,-107.01 977.57,-108.7 980.91,-114.85"/>
</a>
</g>
</g>
<!-- Node18 -->
<g id="Node000018" class="node">
<title>Node18</title>
<g id="a_Node000018"><a xlink:href="../../dd/ded/c__string__view_8hpp.html" target="_top" xlink:title="Non&#45;owning string view class for C&#45;style strings.">
<polygon fill="white" stroke="#666666" points="1248,-96 1120,-96 1120,-77 1248,-77 1248,-96"/>
<text text-anchor="middle" x="1184" y="-84" font-family="Helvetica,sans-Serif" font-size="10.00">core/c_string_view.hpp</text>
</a>
</g>
</g>
<!-- Node2&#45;&gt;Node18 -->
<g id="edge17_Node000002_Node000018" class="edge">
<title>Node2&#45;&gt;Node18</title>
<g id="a_edge17_Node000002_Node000018"><a xlink:title=" ">
<path fill="none" stroke="#63b8ff" d="M935.64,-145.53C975.59,-137.37 1048.88,-122.03 1111,-107 1121.53,-104.45 1132.87,-101.52 1143.39,-98.71"/>
<polygon fill="#63b8ff" stroke="#63b8ff" points="1144.43,-102.06 1153.18,-96.08 1142.61,-95.3 1144.43,-102.06"/>
</a>
</g>
</g>
<!-- Node19 -->
<g id="Node000019" class="node">
<title>Node19</title>
<g id="a_Node000019"><a xlink:href="../../d4/dc0/constexpr__utils_8hpp.html" target="_top" xlink:title="Constexpr utility functions for compile&#45;time operations.">
<polygon fill="white" stroke="#666666" points="1402,-96 1266,-96 1266,-77 1402,-77 1402,-96"/>
<text text-anchor="middle" x="1334" y="-84" font-family="Helvetica,sans-Serif" font-size="10.00">core/constexpr_utils.hpp</text>
</a>
</g>
</g>
<!-- Node2&#45;&gt;Node19 -->
<g id="edge18_Node000002_Node000019" class="edge">
<title>Node2&#45;&gt;Node19</title>
<g id="a_edge18_Node000002_Node000019"><a xlink:title=" ">
<path fill="none" stroke="#63b8ff" d="M935.78,-148.96C996.53,-143.51 1139.01,-129.33 1257,-107 1269.05,-104.72 1282.02,-101.67 1293.82,-98.66"/>
<polygon fill="#63b8ff" stroke="#63b8ff" points="1295.04,-101.96 1303.84,-96.05 1293.28,-95.19 1295.04,-101.96"/>
</a>
</g>
</g>
<!-- Node20 -->
<g id="Node000020" class="node">
<title>Node20</title>
<g id="a_Node000020"><a xlink:href="../../d7/d7f/fixed__string_8hpp.html" target="_top" xlink:title="Template string class with fixed&#45;size character buffer.">
<polygon fill="white" stroke="#666666" points="1538,-96 1420,-96 1420,-77 1538,-77 1538,-96"/>
<text text-anchor="middle" x="1479" y="-84" font-family="Helvetica,sans-Serif" font-size="10.00">core/fixed_string.hpp</text>
</a>
</g>
</g>
<!-- Node2&#45;&gt;Node20 -->
<g id="edge19_Node000002_Node000020" class="edge">
<title>Node2&#45;&gt;Node20</title>
<g id="a_edge19_Node000002_Node000020"><a xlink:title=" ">
<path fill="none" stroke="#63b8ff" d="M935.58,-150.87C1013.84,-148.76 1232.52,-140.14 1411,-107 1421.8,-105 1433.35,-102.01 1443.81,-98.98"/>
<polygon fill="#63b8ff" stroke="#63b8ff" points="1444.87,-102.31 1453.45,-96.08 1442.86,-95.61 1444.87,-102.31"/>
</a>
</g>
</g>
<!-- Node21 -->
<g id="Node000021" class="node">
<title>Node21</title>
<g id="a_Node000021"><a xlink:href="../../d7/dea/fixed__vector_8hpp.html" target="_top" xlink:title="TODO.">
<polygon fill="white" stroke="#666666" points="1676,-96 1556,-96 1556,-77 1676,-77 1676,-96"/>
<text text-anchor="middle" x="1616" y="-84" font-family="Helvetica,sans-Serif" font-size="10.00">core/fixed_vector.hpp</text>
</a>
</g>
</g>
<!-- Node2&#45;&gt;Node21 -->
<g id="edge20_Node000002_Node000021" class="edge">
<title>Node2&#45;&gt;Node21</title>
<g id="a_edge20_Node000002_Node000021"><a xlink:title=" ">
<path fill="none" stroke="#63b8ff" d="M935.65,-151.6C1027.32,-151.46 1314.01,-147.56 1547,-107 1558.06,-105.07 1569.89,-102.09 1580.57,-99.02"/>
<polygon fill="#63b8ff" stroke="#63b8ff" points="1581.82,-102.3 1590.41,-96.09 1579.82,-95.59 1581.82,-102.3"/>
</a>
</g>
</g>
<!-- Node22 -->
<g id="Node000022" class="node">
<title>Node22</title>
<g id="a_Node000022"><a xlink:href="../../dd/d8e/hashes_8hpp.html" target="_top" xlink:title="CRC hash functions.">
<polygon fill="white" stroke="#666666" points="1790,-96 1694,-96 1694,-77 1790,-77 1790,-96"/>
<text text-anchor="middle" x="1742" y="-84" font-family="Helvetica,sans-Serif" font-size="10.00">core/hashes.hpp</text>
</a>
</g>
</g>
<!-- Node2&#45;&gt;Node22 -->
<g id="edge21_Node000002_Node000022" class="edge">
<title>Node2&#45;&gt;Node22</title>
<g id="a_edge21_Node000002_Node000022"><a xlink:title=" ">
<path fill="none" stroke="#63b8ff" d="M935.76,-150.88C1059.98,-148.14 1537.44,-135.89 1685,-107 1693.93,-105.25 1703.37,-102.44 1711.94,-99.49"/>
<polygon fill="#63b8ff" stroke="#63b8ff" points="1713.32,-102.72 1721.53,-96.02 1710.93,-96.13 1713.32,-102.72"/>
</a>
</g>
</g>
<!-- Node23 -->
<g id="Node000023" class="node">
<title>Node23</title>
<g id="a_Node000023"><a xlink:href="../../df/d93/utils_8hpp.html" target="_top" xlink:title="Core utility functions for string manipulation, encoding conversion, and number formatting.">
<polygon fill="white" stroke="#666666" points="1891.5,-96 1808.5,-96 1808.5,-77 1891.5,-77 1891.5,-96"/>
<text text-anchor="middle" x="1850" y="-84" font-family="Helvetica,sans-Serif" font-size="10.00">core/utils.hpp</text>
</a>
</g>
</g>
<!-- Node2&#45;&gt;Node23 -->
<g id="edge22_Node000002_Node000023" class="edge">
<title>Node2&#45;&gt;Node23</title>
<g id="a_edge22_Node000002_Node000023"><a xlink:title=" ">
<path fill="none" stroke="#63b8ff" d="M935.94,-151.27C1071.52,-150.04 1628.68,-142.86 1799,-107 1806.65,-105.39 1814.67,-102.79 1822.02,-100.01"/>
<polygon fill="#63b8ff" stroke="#63b8ff" points="1823.57,-103.16 1831.54,-96.18 1820.95,-96.67 1823.57,-103.16"/>
</a>
</g>
</g>
<!-- Node24 -->
<g id="Node000024" class="node">
<title>Node24</title>
<g id="a_Node000024"><a xlink:href="../../df/d4a/c__string__view_8inl.html" target="_top" xlink:title="Inline implementations for CStringView class.">
<polygon fill="white" stroke="#666666" points="2032,-96 1910,-96 1910,-77 2032,-77 2032,-96"/>
<text text-anchor="middle" x="1971" y="-84" font-family="Helvetica,sans-Serif" font-size="10.00">core/c_string_view.inl</text>
</a>
</g>
</g>
<!-- Node2&#45;&gt;Node24 -->
<g id="edge23_Node000002_Node000024" class="edge">
<title>Node2&#45;&gt;Node24</title>
<g id="a_edge23_Node000002_Node000024"><a xlink:title=" ">
<path fill="none" stroke="#63b8ff" d="M935.84,-151.08C1080.32,-148.9 1708.04,-137.78 1901,-107 1912.54,-105.16 1924.9,-102.1 1935.96,-98.94"/>
<polygon fill="#63b8ff" stroke="#63b8ff" points="1937.12,-102.25 1945.71,-96.04 1935.13,-95.54 1937.12,-102.25"/>
</a>
</g>
</g>
<!-- Node25 -->
<g id="Node000025" class="node">
<title>Node25</title>
<g id="a_Node000025"><a xlink:href="../../dc/d28/constexpr__utils_8inl.html" target="_top" xlink:title="Inline implementations for constexpr utility functions.">
<polygon fill="white" stroke="#666666" points="2180,-96 2050,-96 2050,-77 2180,-77 2180,-96"/>
<text text-anchor="middle" x="2115" y="-84" font-family="Helvetica,sans-Serif" font-size="10.00">core/constexpr_utils.inl</text>
</a>
</g>
</g>
<!-- Node2&#45;&gt;Node25 -->
<g id="edge24_Node000002_Node000025" class="edge">
<title>Node2&#45;&gt;Node25</title>
<g id="a_edge24_Node000002_Node000025"><a xlink:title=" ">
<path fill="none" stroke="#63b8ff" d="M935.53,-151.22C1091.27,-149.58 1818.54,-140.26 2041,-107 2053.3,-105.16 2066.49,-102.06 2078.29,-98.87"/>
<polygon fill="#63b8ff" stroke="#63b8ff" points="2079.56,-102.15 2088.23,-96.07 2077.66,-95.41 2079.56,-102.15"/>
</a>
</g>
</g>
<!-- Node26 -->
<g id="Node000026" class="node">
<title>Node26</title>
<g id="a_Node000026"><a xlink:href="../../d7/d40/fixed__string_8inl.html" target="_top" xlink:title="Inline implementations for FixedString template class.">
<polygon fill="white" stroke="#666666" points="2310,-96 2198,-96 2198,-77 2310,-77 2310,-96"/>
<text text-anchor="middle" x="2254" y="-84" font-family="Helvetica,sans-Serif" font-size="10.00">core/fixed_string.inl</text>
</a>
</g>
</g>
<!-- Node2&#45;&gt;Node26 -->
<g id="edge25_Node000002_Node000026" class="edge">
<title>Node2&#45;&gt;Node26</title>
<g id="a_edge25_Node000002_Node000026"><a xlink:title=" ">
<path fill="none" stroke="#63b8ff" d="M935.73,-151.5C1103.82,-151.37 1936.37,-148.56 2189,-107 2199.64,-105.25 2210.97,-102.26 2221.15,-99.14"/>
<polygon fill="#63b8ff" stroke="#63b8ff" points="2222.42,-102.41 2230.87,-96.02 2220.28,-95.74 2222.42,-102.41"/>
</a>
</g>
</g>
<!-- Node27 -->
<g id="Node000027" class="node">
<title>Node27</title>
<g id="a_Node000027"><a xlink:href="../../da/dc9/fixed__vector_8inl.html" target="_top" xlink:title="TODO.">
<polygon fill="white" stroke="#666666" points="2442,-96 2328,-96 2328,-77 2442,-77 2442,-96"/>
<text text-anchor="middle" x="2385" y="-84" font-family="Helvetica,sans-Serif" font-size="10.00">core/fixed_vector.inl</text>
</a>
</g>
</g>
<!-- Node2&#45;&gt;Node27 -->
<g id="edge26_Node000002_Node000027" class="edge">
<title>Node2&#45;&gt;Node27</title>
<g id="a_edge26_Node000002_Node000027"><a xlink:title=" ">
<path fill="none" stroke="#63b8ff" d="M935.79,-151.6C1113.84,-152.02 2039.12,-151.99 2319,-107 2329.91,-105.25 2341.54,-102.22 2351.96,-99.06"/>
<polygon fill="#63b8ff" stroke="#63b8ff" points="2353.04,-102.39 2361.51,-96.03 2350.92,-95.72 2353.04,-102.39"/>
</a>
</g>
</g>
<!-- Node28 -->
<g id="Node000028" class="node">
<title>Node28</title>
<g id="a_Node000028"><a xlink:href="../../df/d7d/utils_8inl.html" target="_top" xlink:title="Inline implementations of core utility functions for string manipulation and encoding conversion.">
<polygon fill="white" stroke="#666666" points="2537.5,-96 2460.5,-96 2460.5,-77 2537.5,-77 2537.5,-96"/>
<text text-anchor="middle" x="2499" y="-84" font-family="Helvetica,sans-Serif" font-size="10.00">core/utils.inl</text>
</a>
</g>
</g>
<!-- Node2&#45;&gt;Node28 -->
<g id="edge27_Node000002_Node000028" class="edge">
<title>Node2&#45;&gt;Node28</title>
<g id="a_edge27_Node000002_Node000028"><a xlink:title=" ">
<path fill="none" stroke="#63b8ff" d="M935.51,-151.28C1136.22,-149.71 2297.55,-139.28 2451,-107 2458.21,-105.48 2465.73,-102.94 2472.61,-100.18"/>
<polygon fill="#63b8ff" stroke="#63b8ff" points="2474.34,-103.25 2482.14,-96.08 2471.57,-96.82 2474.34,-103.25"/>
</a>
</g>
</g>
<!-- Node17 -->
<g id="Node000017" class="node">
<title>Node17</title>
<g id="a_Node000017"><a xlink:href="../../d1/d5f/assertion__macro__gcc__clang_8hpp.html" target="_top" xlink:title="Debug and Release assertion macro implementations for GCC/Clang platforms.">
<polygon fill="white" stroke="#666666" points="1087.5,-30 960.5,-30 960.5,0 1087.5,0 1087.5,-30"/>
<text text-anchor="start" x="968.5" y="-18" font-family="Helvetica,sans-Serif" font-size="10.00">../common/assertion</text>
<text text-anchor="middle" x="1024" y="-7" font-family="Helvetica,sans-Serif" font-size="10.00">_macro_gcc_clang.hpp</text>
</a>
</g>
</g>
<!-- Node16&#45;&gt;Node17 -->
<g id="edge16_Node000016_Node000017" class="edge">
<title>Node16&#45;&gt;Node17</title>
<g id="a_edge16_Node000016_Node000017"><a xlink:title=" ">
<path fill="none" stroke="#63b8ff" d="M1024,-65.77C1024,-57.85 1024,-48.63 1024,-40.3"/>
<polygon fill="#63b8ff" stroke="#63b8ff" points="1027.5,-40.04 1024,-30.04 1020.5,-40.04 1027.5,-40.04"/>
</a>
</g>
</g>
</g>
</svg>
