<?xml version="1.0" encoding="UTF-8" standalone="no"?>
<!DOCTYPE svg PUBLIC "-//W3C//DTD SVG 1.1//EN"
 "http://www.w3.org/Graphics/SVG/1.1/DTD/svg11.dtd">
<!-- Generated by graphviz version 2.43.0 (0)
 -->
<!-- Title: src/core/hashes.cpp Pages: 1 -->
<svg width="3218pt" height="225pt"
 viewBox="0.00 0.00 3217.50 225.00" xmlns="http://www.w3.org/2000/svg" xmlns:xlink="http://www.w3.org/1999/xlink">
<g id="graph0" class="graph" transform="scale(1 1) rotate(0) translate(4 221)">
<title>src/core/hashes.cpp</title>
<!-- Node1 -->
<g id="Node000001" class="node">
<title>Node1</title>
<g id="a_Node000001"><a xlink:title="Implementation of CRC hash functions with lookup tables for optimal performance.">
<polygon fill="#999999" stroke="#666666" points="1238.5,-217 1125.5,-217 1125.5,-198 1238.5,-198 1238.5,-217"/>
<text text-anchor="middle" x="1182" y="-205" font-family="Helvetica,sans-Serif" font-size="10.00">src/core/hashes.cpp</text>
</a>
</g>
</g>
<!-- Node2 -->
<g id="Node000002" class="node">
<title>Node2</title>
<g id="a_Node000002"><a xlink:href="../../da/d47/core_8hpp.html" target="_top" xlink:title="Umbrella header for the engine core module.">
<polygon fill="white" stroke="#666666" points="1211.5,-162 1152.5,-162 1152.5,-143 1211.5,-143 1211.5,-162"/>
<text text-anchor="middle" x="1182" y="-150" font-family="Helvetica,sans-Serif" font-size="10.00">core.hpp</text>
</a>
</g>
</g>
<!-- Node1&#45;&gt;Node2 -->
<g id="edge1_Node000001_Node000002" class="edge">
<title>Node1&#45;&gt;Node2</title>
<g id="a_edge1_Node000001_Node000002"><a xlink:title=" ">
<path fill="none" stroke="#63b8ff" d="M1182,-197.75C1182,-190.8 1182,-180.85 1182,-172.13"/>
<polygon fill="#63b8ff" stroke="#63b8ff" points="1185.5,-172.09 1182,-162.09 1178.5,-172.09 1185.5,-172.09"/>
</a>
</g>
</g>
<!-- Node3 -->
<g id="Node000003" class="node">
<title>Node3</title>
<g id="a_Node000003"><a xlink:title=" ">
<polygon fill="#e0e0e0" stroke="#999999" points="64,-96 0,-96 0,-77 64,-77 64,-96"/>
<text text-anchor="middle" x="32" y="-84" font-family="Helvetica,sans-Serif" font-size="10.00">algorithm</text>
</a>
</g>
</g>
<!-- Node2&#45;&gt;Node3 -->
<g id="edge2_Node000002_Node000003" class="edge">
<title>Node2&#45;&gt;Node3</title>
<g id="a_edge2_Node000002_Node000003"><a xlink:title=" ">
<path fill="none" stroke="#63b8ff" d="M1152.26,-151.02C986.51,-148.25 180.33,-133.5 73,-107 67.02,-105.52 60.87,-103.13 55.21,-100.52"/>
<polygon fill="#63b8ff" stroke="#63b8ff" points="56.78,-97.39 46.27,-96.04 53.64,-103.65 56.78,-97.39"/>
</a>
</g>
</g>
<!-- Node4 -->
<g id="Node000004" class="node">
<title>Node4</title>
<g id="a_Node000004"><a xlink:title=" ">
<polygon fill="#e0e0e0" stroke="#999999" points="124,-96 82,-96 82,-77 124,-77 124,-96"/>
<text text-anchor="middle" x="103" y="-84" font-family="Helvetica,sans-Serif" font-size="10.00">array</text>
</a>
</g>
</g>
<!-- Node2&#45;&gt;Node4 -->
<g id="edge3_Node000002_Node000004" class="edge">
<title>Node2&#45;&gt;Node4</title>
<g id="a_edge3_Node000002_Node000004"><a xlink:title=" ">
<path fill="none" stroke="#63b8ff" d="M1152.25,-151.17C991.7,-149.29 232.29,-138.74 133,-107 129.05,-105.74 125.12,-103.81 121.47,-101.65"/>
<polygon fill="#63b8ff" stroke="#63b8ff" points="123.37,-98.71 113.12,-96.04 119.47,-104.52 123.37,-98.71"/>
</a>
</g>
</g>
<!-- Node5 -->
<g id="Node000005" class="node">
<title>Node5</title>
<g id="a_Node000005"><a xlink:title=" ">
<polygon fill="#e0e0e0" stroke="#999999" points="201.5,-96 142.5,-96 142.5,-77 201.5,-77 201.5,-96"/>
<text text-anchor="middle" x="172" y="-84" font-family="Helvetica,sans-Serif" font-size="10.00">compare</text>
</a>
</g>
</g>
<!-- Node2&#45;&gt;Node5 -->
<g id="edge4_Node000002_Node000005" class="edge">
<title>Node2&#45;&gt;Node5</title>
<g id="a_edge4_Node000002_Node000005"><a xlink:title=" ">
<path fill="none" stroke="#63b8ff" d="M1152.25,-151.79C1009.65,-152.95 395.33,-155 211,-107 205.41,-105.55 199.7,-103.23 194.42,-100.69"/>
<polygon fill="#63b8ff" stroke="#63b8ff" points="196.01,-97.57 185.52,-96.02 192.75,-103.77 196.01,-97.57"/>
</a>
</g>
</g>
<!-- Node6 -->
<g id="Node000006" class="node">
<title>Node6</title>
<g id="a_Node000006"><a xlink:title=" ">
<polygon fill="#e0e0e0" stroke="#999999" points="280,-96 220,-96 220,-77 280,-77 280,-96"/>
<text text-anchor="middle" x="250" y="-84" font-family="Helvetica,sans-Serif" font-size="10.00">concepts</text>
</a>
</g>
</g>
<!-- Node2&#45;&gt;Node6 -->
<g id="edge5_Node000002_Node000006" class="edge">
<title>Node2&#45;&gt;Node6</title>
<g id="a_edge5_Node000002_Node000006"><a xlink:title=" ">
<path fill="none" stroke="#63b8ff" d="M1152.42,-151.65C1017.23,-152.11 457.53,-151.24 289,-107 283.42,-105.53 277.7,-103.21 272.42,-100.67"/>
<polygon fill="#63b8ff" stroke="#63b8ff" points="274.01,-97.55 263.53,-96.01 270.76,-103.75 274.01,-97.55"/>
</a>
</g>
</g>
<!-- Node7 -->
<g id="Node000007" class="node">
<title>Node7</title>
<g id="a_Node000007"><a xlink:title=" ">
<polygon fill="#e0e0e0" stroke="#999999" points="351.5,-96 298.5,-96 298.5,-77 351.5,-77 351.5,-96"/>
<text text-anchor="middle" x="325" y="-84" font-family="Helvetica,sans-Serif" font-size="10.00">cstddef</text>
</a>
</g>
</g>
<!-- Node2&#45;&gt;Node7 -->
<g id="edge6_Node000002_Node000007" class="edge">
<title>Node2&#45;&gt;Node7</title>
<g id="a_edge6_Node000002_Node000007"><a xlink:title=" ">
<path fill="none" stroke="#63b8ff" d="M1152.23,-151.63C1023.47,-151.92 514.17,-150.26 361,-107 356.13,-105.62 351.18,-103.5 346.57,-101.16"/>
<polygon fill="#63b8ff" stroke="#63b8ff" points="348.17,-98.04 337.74,-96.2 344.74,-104.15 348.17,-98.04"/>
</a>
</g>
</g>
<!-- Node8 -->
<g id="Node000008" class="node">
<title>Node8</title>
<g id="a_Node000008"><a xlink:title=" ">
<polygon fill="#e0e0e0" stroke="#999999" points="420,-96 370,-96 370,-77 420,-77 420,-96"/>
<text text-anchor="middle" x="395" y="-84" font-family="Helvetica,sans-Serif" font-size="10.00">cstdint</text>
</a>
</g>
</g>
<!-- Node2&#45;&gt;Node8 -->
<g id="edge7_Node000002_Node000008" class="edge">
<title>Node2&#45;&gt;Node8</title>
<g id="a_edge7_Node000002_Node000008"><a xlink:title=" ">
<path fill="none" stroke="#63b8ff" d="M1152.23,-151.55C1030.18,-151.49 567.98,-148.46 429,-107 424.48,-105.65 419.91,-103.6 415.65,-101.33"/>
<polygon fill="#63b8ff" stroke="#63b8ff" points="417.35,-98.27 406.97,-96.19 413.79,-104.29 417.35,-98.27"/>
</a>
</g>
</g>
<!-- Node9 -->
<g id="Node000009" class="node">
<title>Node9</title>
<g id="a_Node000009"><a xlink:title=" ">
<polygon fill="#e0e0e0" stroke="#999999" points="488,-96 438,-96 438,-77 488,-77 488,-96"/>
<text text-anchor="middle" x="463" y="-84" font-family="Helvetica,sans-Serif" font-size="10.00">cstring</text>
</a>
</g>
</g>
<!-- Node2&#45;&gt;Node9 -->
<g id="edge8_Node000002_Node000009" class="edge">
<title>Node2&#45;&gt;Node9</title>
<g id="a_edge8_Node000002_Node000009"><a xlink:title=" ">
<path fill="none" stroke="#63b8ff" d="M1152.23,-151.35C1037.25,-150.49 622.37,-144.79 497,-107 492.48,-105.64 487.91,-103.58 483.66,-101.31"/>
<polygon fill="#63b8ff" stroke="#63b8ff" points="485.36,-98.25 474.97,-96.17 481.79,-104.27 485.36,-98.25"/>
</a>
</g>
</g>
<!-- Node10 -->
<g id="Node000010" class="node">
<title>Node10</title>
<g id="a_Node000010"><a xlink:title=" ">
<polygon fill="#e0e0e0" stroke="#999999" points="555.5,-96 506.5,-96 506.5,-77 555.5,-77 555.5,-96"/>
<text text-anchor="middle" x="531" y="-84" font-family="Helvetica,sans-Serif" font-size="10.00">cuchar</text>
</a>
</g>
</g>
<!-- Node2&#45;&gt;Node10 -->
<g id="edge9_Node000002_Node000010" class="edge">
<title>Node2&#45;&gt;Node10</title>
<g id="a_edge9_Node000002_Node000010"><a xlink:title=" ">
<path fill="none" stroke="#63b8ff" d="M1152.22,-151.16C1044.53,-149.63 675.79,-141.92 564,-107 559.71,-105.66 555.39,-103.67 551.35,-101.47"/>
<polygon fill="#63b8ff" stroke="#63b8ff" points="552.96,-98.35 542.59,-96.15 549.32,-104.33 552.96,-98.35"/>
</a>
</g>
</g>
<!-- Node11 -->
<g id="Node000011" class="node">
<title>Node11</title>
<g id="a_Node000011"><a xlink:title=" ">
<polygon fill="#e0e0e0" stroke="#999999" points="656.5,-96 573.5,-96 573.5,-77 656.5,-77 656.5,-96"/>
<text text-anchor="middle" x="615" y="-84" font-family="Helvetica,sans-Serif" font-size="10.00">initializer_list</text>
</a>
</g>
</g>
<!-- Node2&#45;&gt;Node11 -->
<g id="edge10_Node000002_Node000011" class="edge">
<title>Node2&#45;&gt;Node11</title>
<g id="a_edge10_Node000002_Node000011"><a xlink:title=" ">
<path fill="none" stroke="#63b8ff" d="M1152.39,-151.88C1072.55,-152.29 846.62,-149.31 665,-107 657.51,-105.26 649.66,-102.61 642.45,-99.83"/>
<polygon fill="#63b8ff" stroke="#63b8ff" points="643.7,-96.56 633.12,-96.02 641.06,-103.04 643.7,-96.56"/>
</a>
</g>
</g>
<!-- Node12 -->
<g id="Node000012" class="node">
<title>Node12</title>
<g id="a_Node000012"><a xlink:title=" ">
<polygon fill="#e0e0e0" stroke="#999999" points="727.5,-96 674.5,-96 674.5,-77 727.5,-77 727.5,-96"/>
<text text-anchor="middle" x="701" y="-84" font-family="Helvetica,sans-Serif" font-size="10.00">iterator</text>
</a>
</g>
</g>
<!-- Node2&#45;&gt;Node12 -->
<g id="edge11_Node000002_Node000012" class="edge">
<title>Node2&#45;&gt;Node12</title>
<g id="a_edge11_Node000002_Node000012"><a xlink:title=" ">
<path fill="none" stroke="#63b8ff" d="M1152.23,-150.06C1065.64,-145.62 815.12,-131 737,-107 732.16,-105.51 727.22,-103.34 722.62,-100.99"/>
<polygon fill="#63b8ff" stroke="#63b8ff" points="724.22,-97.87 713.78,-96.04 720.8,-103.98 724.22,-97.87"/>
</a>
</g>
</g>
<!-- Node13 -->
<g id="Node000013" class="node">
<title>Node13</title>
<g id="a_Node000013"><a xlink:title=" ">
<polygon fill="#e0e0e0" stroke="#999999" points="804,-96 746,-96 746,-77 804,-77 804,-96"/>
<text text-anchor="middle" x="775" y="-84" font-family="Helvetica,sans-Serif" font-size="10.00">memory</text>
</a>
</g>
</g>
<!-- Node2&#45;&gt;Node13 -->
<g id="edge12_Node000002_Node000013" class="edge">
<title>Node2&#45;&gt;Node13</title>
<g id="a_edge12_Node000002_Node000013"><a xlink:title=" ">
<path fill="none" stroke="#63b8ff" d="M1152.09,-151.43C1088.32,-150.53 934.86,-144.3 813,-107 807.9,-105.44 802.67,-103.22 797.78,-100.83"/>
<polygon fill="#63b8ff" stroke="#63b8ff" points="799.41,-97.73 788.93,-96.16 796.14,-103.92 799.41,-97.73"/>
</a>
</g>
</g>
<!-- Node14 -->
<g id="Node000014" class="node">
<title>Node14</title>
<g id="a_Node000014"><a xlink:title=" ">
<polygon fill="#e0e0e0" stroke="#999999" points="887.5,-96 822.5,-96 822.5,-77 887.5,-77 887.5,-96"/>
<text text-anchor="middle" x="855" y="-84" font-family="Helvetica,sans-Serif" font-size="10.00">stdexcept</text>
</a>
</g>
</g>
<!-- Node2&#45;&gt;Node14 -->
<g id="edge13_Node000002_Node000014" class="edge">
<title>Node2&#45;&gt;Node14</title>
<g id="a_edge13_Node000002_Node000014"><a xlink:title=" ">
<path fill="none" stroke="#63b8ff" d="M1152.26,-149.6C1099.75,-145.65 987.57,-134.5 897,-107 891.42,-105.31 885.64,-103.01 880.21,-100.58"/>
<polygon fill="#63b8ff" stroke="#63b8ff" points="881.47,-97.31 870.94,-96.19 878.47,-103.64 881.47,-97.31"/>
</a>
</g>
</g>
<!-- Node15 -->
<g id="Node000015" class="node">
<title>Node15</title>
<g id="a_Node000015"><a xlink:title=" ">
<polygon fill="#e0e0e0" stroke="#999999" points="950,-96 906,-96 906,-77 950,-77 950,-96"/>
<text text-anchor="middle" x="928" y="-84" font-family="Helvetica,sans-Serif" font-size="10.00">string</text>
</a>
</g>
</g>
<!-- Node2&#45;&gt;Node15 -->
<g id="edge14_Node000002_Node000015" class="edge">
<title>Node2&#45;&gt;Node15</title>
<g id="a_edge14_Node000002_Node000015"><a xlink:title=" ">
<path fill="none" stroke="#63b8ff" d="M1152.16,-149.02C1108.44,-144.62 1025.01,-133.31 959,-107 955.36,-105.55 951.68,-103.67 948.18,-101.65"/>
<polygon fill="#63b8ff" stroke="#63b8ff" points="949.85,-98.56 939.53,-96.17 946.1,-104.47 949.85,-98.56"/>
</a>
</g>
</g>
<!-- Node16 -->
<g id="Node000016" class="node">
<title>Node16</title>
<g id="a_Node000016"><a xlink:title=" ">
<polygon fill="#e0e0e0" stroke="#999999" points="1037.5,-96 968.5,-96 968.5,-77 1037.5,-77 1037.5,-96"/>
<text text-anchor="middle" x="1003" y="-84" font-family="Helvetica,sans-Serif" font-size="10.00">type_traits</text>
</a>
</g>
</g>
<!-- Node2&#45;&gt;Node16 -->
<g id="edge15_Node000002_Node000016" class="edge">
<title>Node2&#45;&gt;Node16</title>
<g id="a_edge15_Node000002_Node000016"><a xlink:title=" ">
<path fill="none" stroke="#63b8ff" d="M1152.76,-142.95C1124.99,-134.59 1082.23,-121.1 1046,-107 1040.75,-104.96 1035.22,-102.6 1029.93,-100.26"/>
<polygon fill="#63b8ff" stroke="#63b8ff" points="1031.36,-97.06 1020.81,-96.1 1028.46,-103.43 1031.36,-97.06"/>
</a>
</g>
</g>
<!-- Node17 -->
<g id="Node000017" class="node">
<title>Node17</title>
<g id="a_Node000017"><a xlink:title=" ">
<polygon fill="#e0e0e0" stroke="#999999" points="1100.5,-96 1055.5,-96 1055.5,-77 1100.5,-77 1100.5,-96"/>
<text text-anchor="middle" x="1078" y="-84" font-family="Helvetica,sans-Serif" font-size="10.00">utility</text>
</a>
</g>
</g>
<!-- Node2&#45;&gt;Node17 -->
<g id="edge16_Node000002_Node000017" class="edge">
<title>Node2&#45;&gt;Node17</title>
<g id="a_edge16_Node000002_Node000017"><a xlink:title=" ">
<path fill="none" stroke="#63b8ff" d="M1167.97,-142.87C1150.76,-132.28 1121.34,-114.17 1100.85,-101.56"/>
<polygon fill="#63b8ff" stroke="#63b8ff" points="1102.49,-98.46 1092.14,-96.2 1098.82,-104.42 1102.49,-98.46"/>
</a>
</g>
</g>
<!-- Node18 -->
<g id="Node000018" class="node">
<title>Node18</title>
<g id="a_Node000018"><a xlink:href="../../dd/d9e/linux_2platform__config_8hpp.html" target="_top" xlink:title="additional linux platform header">
<polygon fill="white" stroke="#666666" points="1312.5,-107 1157.5,-107 1157.5,-66 1312.5,-66 1312.5,-107"/>
<text text-anchor="start" x="1165.5" y="-95" font-family="Helvetica,sans-Serif" font-size="10.00">/home/runner/work/toygine2</text>
<text text-anchor="start" x="1165.5" y="-84" font-family="Helvetica,sans-Serif" font-size="10.00">/toygine2/src/platforms</text>
<text text-anchor="middle" x="1235" y="-73" font-family="Helvetica,sans-Serif" font-size="10.00">/linux/platform_config.hpp</text>
</a>
</g>
</g>
<!-- Node2&#45;&gt;Node18 -->
<g id="edge17_Node000002_Node000018" class="edge">
<title>Node2&#45;&gt;Node18</title>
<g id="a_edge17_Node000002_Node000018"><a xlink:title=" ">
<path fill="none" stroke="#63b8ff" d="M1189.15,-142.87C1195.12,-135.65 1203.98,-124.95 1212.33,-114.88"/>
<polygon fill="#63b8ff" stroke="#63b8ff" points="1215.16,-116.94 1218.84,-107.01 1209.77,-112.48 1215.16,-116.94"/>
</a>
</g>
</g>
<!-- Node19 -->
<g id="Node000019" class="node">
<title>Node19</title>
<g id="a_Node000019"><a xlink:href="../../d3/d60/platform_8hpp.html" target="_top" xlink:title="Platform and CPU architecture enumerations with compile&#45;time and runtime detection utilities.">
<polygon fill="white" stroke="#666666" points="1180.5,-30 1077.5,-30 1077.5,0 1180.5,0 1180.5,-30"/>
<text text-anchor="start" x="1085.5" y="-18" font-family="Helvetica,sans-Serif" font-size="10.00">../../../include/core</text>
<text text-anchor="middle" x="1129" y="-7" font-family="Helvetica,sans-Serif" font-size="10.00">/platform.hpp</text>
</a>
</g>
</g>
<!-- Node2&#45;&gt;Node19 -->
<g id="edge29_Node000002_Node000019" class="edge">
<title>Node2&#45;&gt;Node19</title>
<g id="a_edge29_Node000002_Node000019"><a xlink:title=" ">
<path fill="none" stroke="#63b8ff" d="M1173.38,-142.75C1165.56,-134.3 1154.31,-120.79 1148,-107 1138.23,-85.65 1133.43,-59.19 1131.1,-40.31"/>
<polygon fill="#63b8ff" stroke="#63b8ff" points="1134.56,-39.73 1130,-30.17 1127.6,-40.49 1134.56,-39.73"/>
</a>
</g>
</g>
<!-- Node21 -->
<g id="Node000021" class="node">
<title>Node21</title>
<g id="a_Node000021"><a xlink:href="../../d5/d96/assertion_8hpp.html" target="_top" xlink:title="Assertion system for runtime and compile&#45;time validation of engine invariants.">
<polygon fill="white" stroke="#666666" points="1437.5,-96 1330.5,-96 1330.5,-77 1437.5,-77 1437.5,-96"/>
<text text-anchor="middle" x="1384" y="-84" font-family="Helvetica,sans-Serif" font-size="10.00">core/assertion.hpp</text>
</a>
</g>
</g>
<!-- Node2&#45;&gt;Node21 -->
<g id="edge20_Node000002_Node000021" class="edge">
<title>Node2&#45;&gt;Node21</title>
<g id="a_edge20_Node000002_Node000021"><a xlink:title=" ">
<path fill="none" stroke="#63b8ff" d="M1209.24,-142.87C1244.88,-131.58 1307.47,-111.75 1347.27,-99.14"/>
<polygon fill="#63b8ff" stroke="#63b8ff" points="1348.39,-102.45 1356.87,-96.1 1346.28,-95.78 1348.39,-102.45"/>
</a>
</g>
</g>
<!-- Node22 -->
<g id="Node000022" class="node">
<title>Node22</title>
<g id="a_Node000022"><a xlink:href="../../dd/ded/c__string__view_8hpp.html" target="_top" xlink:title="Non&#45;owning string view class for C&#45;style strings.">
<polygon fill="white" stroke="#666666" points="1584,-96 1456,-96 1456,-77 1584,-77 1584,-96"/>
<text text-anchor="middle" x="1520" y="-84" font-family="Helvetica,sans-Serif" font-size="10.00">core/c_string_view.hpp</text>
</a>
</g>
</g>
<!-- Node2&#45;&gt;Node22 -->
<g id="edge21_Node000002_Node000022" class="edge">
<title>Node2&#45;&gt;Node22</title>
<g id="a_edge21_Node000002_Node000022"><a xlink:title=" ">
<path fill="none" stroke="#63b8ff" d="M1211.86,-147.37C1260.96,-140.37 1361.72,-125.17 1446,-107 1457.14,-104.6 1469.12,-101.62 1480.12,-98.72"/>
<polygon fill="#63b8ff" stroke="#63b8ff" points="1481.15,-102.06 1489.91,-96.09 1479.34,-95.3 1481.15,-102.06"/>
</a>
</g>
</g>
<!-- Node23 -->
<g id="Node000023" class="node">
<title>Node23</title>
<g id="a_Node000023"><a xlink:href="../../de/deb/string__like_8hpp.html" target="_top" xlink:title="C++ concept for string&#45;like types with size() and c_str() methods.">
<polygon fill="white" stroke="#666666" points="1656,-24.5 1568,-24.5 1568,-5.5 1656,-5.5 1656,-24.5"/>
<text text-anchor="middle" x="1612" y="-12.5" font-family="Helvetica,sans-Serif" font-size="10.00">string_like.hpp</text>
</a>
</g>
</g>
<!-- Node2&#45;&gt;Node23 -->
<g id="edge30_Node000002_Node000023" class="edge">
<title>Node2&#45;&gt;Node23</title>
<g id="a_edge30_Node000002_Node000023"><a xlink:title=" ">
<path fill="none" stroke="#63b8ff" d="M1211.75,-150.27C1301.45,-146.3 1564.82,-132.55 1593,-107 1612.98,-88.89 1614.97,-55.66 1613.95,-34.76"/>
<polygon fill="#63b8ff" stroke="#63b8ff" points="1617.42,-34.29 1613.16,-24.59 1610.44,-34.83 1617.42,-34.29"/>
</a>
</g>
</g>
<!-- Node24 -->
<g id="Node000024" class="node">
<title>Node24</title>
<g id="a_Node000024"><a xlink:href="../../d1/d5c/callbacks__pool_8hpp.html" target="_top" xlink:title="Template callback pool class with fixed&#45;size callback storage.">
<polygon fill="white" stroke="#666666" points="1774,-96 1640,-96 1640,-77 1774,-77 1774,-96"/>
<text text-anchor="middle" x="1707" y="-84" font-family="Helvetica,sans-Serif" font-size="10.00">core/callbacks_pool.hpp</text>
</a>
</g>
</g>
<!-- Node2&#45;&gt;Node24 -->
<g id="edge23_Node000002_Node000024" class="edge">
<title>Node2&#45;&gt;Node24</title>
<g id="a_edge23_Node000002_Node000024"><a xlink:title=" ">
<path fill="none" stroke="#63b8ff" d="M1211.54,-149.94C1283.08,-145.84 1471.14,-133.27 1626,-107 1639.05,-104.79 1653.13,-101.66 1665.82,-98.56"/>
<polygon fill="#63b8ff" stroke="#63b8ff" points="1666.81,-101.92 1675.66,-96.1 1665.11,-95.13 1666.81,-101.92"/>
</a>
</g>
</g>
<!-- Node25 -->
<g id="Node000025" class="node">
<title>Node25</title>
<g id="a_Node000025"><a xlink:href="../../d4/dc0/constexpr__utils_8hpp.html" target="_top" xlink:title="Constexpr utility functions for compile&#45;time operations.">
<polygon fill="white" stroke="#666666" points="1928,-96 1792,-96 1792,-77 1928,-77 1928,-96"/>
<text text-anchor="middle" x="1860" y="-84" font-family="Helvetica,sans-Serif" font-size="10.00">core/constexpr_utils.hpp</text>
</a>
</g>
</g>
<!-- Node2&#45;&gt;Node25 -->
<g id="edge24_Node000002_Node000025" class="edge">
<title>Node2&#45;&gt;Node25</title>
<g id="a_edge24_Node000002_Node000025"><a xlink:title=" ">
<path fill="none" stroke="#63b8ff" d="M1211.61,-151.13C1299.38,-149.63 1565.61,-142.3 1783,-107 1795.65,-104.95 1809.27,-101.81 1821.49,-98.65"/>
<polygon fill="#63b8ff" stroke="#63b8ff" points="1822.6,-101.98 1831.36,-96.02 1820.8,-95.21 1822.6,-101.98"/>
</a>
</g>
</g>
<!-- Node26 -->
<g id="Node000026" class="node">
<title>Node26</title>
<g id="a_Node000026"><a xlink:href="../../d7/d7f/fixed__string_8hpp.html" target="_top" xlink:title="Template string class with fixed&#45;size character buffer.">
<polygon fill="white" stroke="#666666" points="2064,-96 1946,-96 1946,-77 2064,-77 2064,-96"/>
<text text-anchor="middle" x="2005" y="-84" font-family="Helvetica,sans-Serif" font-size="10.00">core/fixed_string.hpp</text>
</a>
</g>
</g>
<!-- Node2&#45;&gt;Node26 -->
<g id="edge25_Node000002_Node000026" class="edge">
<title>Node2&#45;&gt;Node26</title>
<g id="a_edge25_Node000002_Node000026"><a xlink:title=" ">
<path fill="none" stroke="#63b8ff" d="M1211.63,-150.63C1333.15,-146.91 1793.65,-131.47 1937,-107 1948.01,-105.12 1959.78,-102.12 1970.38,-99.02"/>
<polygon fill="#63b8ff" stroke="#63b8ff" points="1971.57,-102.32 1980.12,-96.06 1969.53,-95.62 1971.57,-102.32"/>
</a>
</g>
</g>
<!-- Node27 -->
<g id="Node000027" class="node">
<title>Node27</title>
<g id="a_Node000027"><a xlink:href="../../d7/dea/fixed__vector_8hpp.html" target="_top" xlink:title="TODO.">
<polygon fill="white" stroke="#666666" points="2202,-96 2082,-96 2082,-77 2202,-77 2202,-96"/>
<text text-anchor="middle" x="2142" y="-84" font-family="Helvetica,sans-Serif" font-size="10.00">core/fixed_vector.hpp</text>
</a>
</g>
</g>
<!-- Node2&#45;&gt;Node27 -->
<g id="edge27_Node000002_Node000027" class="edge">
<title>Node2&#45;&gt;Node27</title>
<g id="a_edge27_Node000002_Node000027"><a xlink:title=" ">
<path fill="none" stroke="#63b8ff" d="M1211.81,-150.91C1346.8,-148.12 1901.63,-135.12 2073,-107 2084.38,-105.13 2096.56,-102.06 2107.47,-98.91"/>
<polygon fill="#63b8ff" stroke="#63b8ff" points="2108.51,-102.25 2117.07,-96.01 2106.49,-95.55 2108.51,-102.25"/>
</a>
</g>
</g>
<!-- Node28 -->
<g id="Node000028" class="node">
<title>Node28</title>
<g id="a_Node000028"><a xlink:href="../../dd/d8e/hashes_8hpp.html" target="_top" xlink:title="CRC hash functions.">
<polygon fill="white" stroke="#666666" points="2316,-96 2220,-96 2220,-77 2316,-77 2316,-96"/>
<text text-anchor="middle" x="2268" y="-84" font-family="Helvetica,sans-Serif" font-size="10.00">core/hashes.hpp</text>
</a>
</g>
</g>
<!-- Node2&#45;&gt;Node28 -->
<g id="edge28_Node000002_Node000028" class="edge">
<title>Node2&#45;&gt;Node28</title>
<g id="a_edge28_Node000002_Node000028"><a xlink:title=" ">
<path fill="none" stroke="#63b8ff" d="M1211.92,-151.36C1359.63,-150.49 2012,-144.53 2211,-107 2219.94,-105.31 2229.38,-102.52 2237.96,-99.57"/>
<polygon fill="#63b8ff" stroke="#63b8ff" points="2239.33,-102.8 2247.54,-96.09 2236.95,-96.22 2239.33,-102.8"/>
</a>
</g>
</g>
<!-- Node29 -->
<g id="Node000029" class="node">
<title>Node29</title>
<g id="a_Node000029"><a xlink:href="../../df/d93/utils_8hpp.html" target="_top" xlink:title="Core utility functions for string manipulation, encoding conversion, and number formatting.">
<polygon fill="white" stroke="#666666" points="2417.5,-96 2334.5,-96 2334.5,-77 2417.5,-77 2417.5,-96"/>
<text text-anchor="middle" x="2376" y="-84" font-family="Helvetica,sans-Serif" font-size="10.00">core/utils.hpp</text>
</a>
</g>
</g>
<!-- Node2&#45;&gt;Node29 -->
<g id="edge31_Node000002_Node000029" class="edge">
<title>Node2&#45;&gt;Node29</title>
<g id="a_edge31_Node000002_Node000029"><a xlink:title=" ">
<path fill="none" stroke="#63b8ff" d="M1211.55,-151.65C1368.23,-152.24 2102.97,-152.48 2325,-107 2332.88,-105.39 2341.13,-102.7 2348.65,-99.83"/>
<polygon fill="#63b8ff" stroke="#63b8ff" points="2350.07,-103.03 2358.02,-96.03 2347.44,-96.55 2350.07,-103.03"/>
</a>
</g>
</g>
<!-- Node30 -->
<g id="Node000030" class="node">
<title>Node30</title>
<g id="a_Node000030"><a xlink:href="../../df/d4a/c__string__view_8inl.html" target="_top" xlink:title="Inline implementations for CStringView class.">
<polygon fill="white" stroke="#666666" points="2558,-96 2436,-96 2436,-77 2558,-77 2558,-96"/>
<text text-anchor="middle" x="2497" y="-84" font-family="Helvetica,sans-Serif" font-size="10.00">core/c_string_view.inl</text>
</a>
</g>
</g>
<!-- Node2&#45;&gt;Node30 -->
<g id="edge32_Node000002_Node000030" class="edge">
<title>Node2&#45;&gt;Node30</title>
<g id="a_edge32_Node000002_Node000030"><a xlink:title=" ">
<path fill="none" stroke="#63b8ff" d="M1211.65,-151.39C1376.51,-150.62 2181.87,-144.98 2427,-107 2438.55,-105.21 2450.91,-102.16 2461.97,-99"/>
<polygon fill="#63b8ff" stroke="#63b8ff" points="2463.13,-102.31 2471.72,-96.1 2461.13,-95.6 2463.13,-102.31"/>
</a>
</g>
</g>
<!-- Node31 -->
<g id="Node000031" class="node">
<title>Node31</title>
<g id="a_Node000031"><a xlink:href="../../d6/ddb/callbacks__pool_8inl.html" target="_top" xlink:title="Inline implementations for template callback pool class with fixed&#45;size callback storage.">
<polygon fill="white" stroke="#666666" points="2704,-96 2576,-96 2576,-77 2704,-77 2704,-96"/>
<text text-anchor="middle" x="2640" y="-84" font-family="Helvetica,sans-Serif" font-size="10.00">core/callbacks_pool.inl</text>
</a>
</g>
</g>
<!-- Node2&#45;&gt;Node31 -->
<g id="edge33_Node000002_Node000031" class="edge">
<title>Node2&#45;&gt;Node31</title>
<g id="a_edge33_Node000002_Node000031"><a xlink:title=" ">
<path fill="none" stroke="#63b8ff" d="M1211.75,-151.47C1387.57,-151.15 2292.41,-147.54 2567,-107 2579.25,-105.19 2592.38,-102.07 2604.09,-98.84"/>
<polygon fill="#63b8ff" stroke="#63b8ff" points="2605.3,-102.14 2613.95,-96.01 2603.37,-95.41 2605.3,-102.14"/>
</a>
</g>
</g>
<!-- Node32 -->
<g id="Node000032" class="node">
<title>Node32</title>
<g id="a_Node000032"><a xlink:href="../../dc/d28/constexpr__utils_8inl.html" target="_top" xlink:title="Inline implementations for constexpr utility functions.">
<polygon fill="white" stroke="#666666" points="2852,-96 2722,-96 2722,-77 2852,-77 2852,-96"/>
<text text-anchor="middle" x="2787" y="-84" font-family="Helvetica,sans-Serif" font-size="10.00">core/constexpr_utils.inl</text>
</a>
</g>
</g>
<!-- Node2&#45;&gt;Node32 -->
<g id="edge34_Node000002_Node000032" class="edge">
<title>Node2&#45;&gt;Node32</title>
<g id="a_edge34_Node000002_Node000032"><a xlink:title=" ">
<path fill="none" stroke="#63b8ff" d="M1211.8,-151.56C1398.36,-151.81 2407.71,-151.07 2713,-107 2725.53,-105.19 2738.99,-102.03 2750.95,-98.77"/>
<polygon fill="#63b8ff" stroke="#63b8ff" points="2751.92,-102.13 2760.59,-96.03 2750.01,-95.39 2751.92,-102.13"/>
</a>
</g>
</g>
<!-- Node33 -->
<g id="Node000033" class="node">
<title>Node33</title>
<g id="a_Node000033"><a xlink:href="../../d7/d40/fixed__string_8inl.html" target="_top" xlink:title="Inline implementations for FixedString template class.">
<polygon fill="white" stroke="#666666" points="2982,-96 2870,-96 2870,-77 2982,-77 2982,-96"/>
<text text-anchor="middle" x="2926" y="-84" font-family="Helvetica,sans-Serif" font-size="10.00">core/fixed_string.inl</text>
</a>
</g>
</g>
<!-- Node2&#45;&gt;Node33 -->
<g id="edge35_Node000002_Node000033" class="edge">
<title>Node2&#45;&gt;Node33</title>
<g id="a_edge35_Node000002_Node000033"><a xlink:title=" ">
<path fill="none" stroke="#63b8ff" d="M1211.63,-151.19C1422.47,-148.9 2692.12,-134.08 2861,-107 2871.64,-105.29 2882.98,-102.32 2893.16,-99.19"/>
<polygon fill="#63b8ff" stroke="#63b8ff" points="2894.44,-102.46 2902.88,-96.06 2892.29,-95.8 2894.44,-102.46"/>
</a>
</g>
</g>
<!-- Node34 -->
<g id="Node000034" class="node">
<title>Node34</title>
<g id="a_Node000034"><a xlink:href="../../da/dc9/fixed__vector_8inl.html" target="_top" xlink:title="TODO.">
<polygon fill="white" stroke="#666666" points="3114,-96 3000,-96 3000,-77 3114,-77 3114,-96"/>
<text text-anchor="middle" x="3057" y="-84" font-family="Helvetica,sans-Serif" font-size="10.00">core/fixed_vector.inl</text>
</a>
</g>
</g>
<!-- Node2&#45;&gt;Node34 -->
<g id="edge36_Node000002_Node000034" class="edge">
<title>Node2&#45;&gt;Node34</title>
<g id="a_edge36_Node000002_Node000034"><a xlink:title=" ">
<path fill="none" stroke="#63b8ff" d="M1211.78,-151.24C1432.32,-149.24 2808.38,-135.71 2991,-107 3001.91,-105.28 3013.55,-102.26 3023.97,-99.11"/>
<polygon fill="#63b8ff" stroke="#63b8ff" points="3025.05,-102.44 3033.52,-96.07 3022.93,-95.76 3025.05,-102.44"/>
</a>
</g>
</g>
<!-- Node35 -->
<g id="Node000035" class="node">
<title>Node35</title>
<g id="a_Node000035"><a xlink:href="../../df/d7d/utils_8inl.html" target="_top" xlink:title="Inline implementations of core utility functions for string manipulation and encoding conversion.">
<polygon fill="white" stroke="#666666" points="3209.5,-96 3132.5,-96 3132.5,-77 3209.5,-77 3209.5,-96"/>
<text text-anchor="middle" x="3171" y="-84" font-family="Helvetica,sans-Serif" font-size="10.00">core/utils.inl</text>
</a>
</g>
</g>
<!-- Node2&#45;&gt;Node35 -->
<g id="edge37_Node000002_Node000035" class="edge">
<title>Node2&#45;&gt;Node35</title>
<g id="a_edge37_Node000002_Node000035"><a xlink:title=" ">
<path fill="none" stroke="#63b8ff" d="M1211.76,-151.47C1441.43,-151.13 2928.17,-147.39 3123,-107 3130.22,-105.5 3137.74,-102.97 3144.62,-100.21"/>
<polygon fill="#63b8ff" stroke="#63b8ff" points="3146.35,-103.28 3154.15,-96.1 3143.58,-96.85 3146.35,-103.28"/>
</a>
</g>
</g>
<!-- Node18&#45;&gt;Node19 -->
<g id="edge18_Node000018_Node000019" class="edge">
<title>Node18&#45;&gt;Node19</title>
<g id="a_edge18_Node000018_Node000019"><a xlink:title=" ">
<path fill="none" stroke="#63b8ff" d="M1205.19,-65.96C1190.79,-56.51 1173.54,-45.2 1159.1,-35.74"/>
<polygon fill="#63b8ff" stroke="#63b8ff" points="1160.81,-32.67 1150.52,-30.11 1156.97,-38.52 1160.81,-32.67"/>
</a>
</g>
</g>
<!-- Node20 -->
<g id="Node000020" class="node">
<title>Node20</title>
<g id="a_Node000020"><a xlink:href="../../d1/d5f/assertion__macro__gcc__clang_8hpp.html" target="_top" xlink:title="Debug and Release assertion macro implementations for GCC/Clang platforms.">
<polygon fill="white" stroke="#666666" points="1325.5,-30 1198.5,-30 1198.5,0 1325.5,0 1325.5,-30"/>
<text text-anchor="start" x="1206.5" y="-18" font-family="Helvetica,sans-Serif" font-size="10.00">../common/assertion</text>
<text text-anchor="middle" x="1262" y="-7" font-family="Helvetica,sans-Serif" font-size="10.00">_macro_gcc_clang.hpp</text>
</a>
</g>
</g>
<!-- Node18&#45;&gt;Node20 -->
<g id="edge19_Node000018_Node000020" class="edge">
<title>Node18&#45;&gt;Node20</title>
<g id="a_edge19_Node000018_Node000020"><a xlink:title=" ">
<path fill="none" stroke="#63b8ff" d="M1242.66,-65.77C1245.85,-57.58 1249.57,-48.01 1252.89,-39.46"/>
<polygon fill="#63b8ff" stroke="#63b8ff" points="1256.19,-40.63 1256.55,-30.04 1249.66,-38.09 1256.19,-40.63"/>
</a>
</g>
</g>
<!-- Node22&#45;&gt;Node23 -->
<g id="edge22_Node000022_Node000023" class="edge">
<title>Node22&#45;&gt;Node23</title>
<g id="a_edge22_Node000022_Node000023"><a xlink:title=" ">
<path fill="none" stroke="#63b8ff" d="M1531.28,-76.98C1546.52,-65.46 1573.93,-44.76 1592.53,-30.71"/>
<polygon fill="#63b8ff" stroke="#63b8ff" points="1594.76,-33.41 1600.63,-24.59 1590.54,-27.83 1594.76,-33.41"/>
</a>
</g>
</g>
<!-- Node26&#45;&gt;Node23 -->
<g id="edge26_Node000026_Node000023" class="edge">
<title>Node26&#45;&gt;Node23</title>
<g id="a_edge26_Node000026_Node000023"><a xlink:title=" ">
<path fill="none" stroke="#63b8ff" d="M1978.07,-76.93C1965.66,-73.2 1950.68,-69 1937,-66 1842.65,-45.3 1731.05,-30.12 1666.21,-22.21"/>
<polygon fill="#63b8ff" stroke="#63b8ff" points="1666.57,-18.73 1656.22,-21 1665.73,-25.67 1666.57,-18.73"/>
</a>
</g>
</g>
</g>
</svg>
