<?xml version="1.0" encoding="UTF-8" standalone="no"?>
<!DOCTYPE svg PUBLIC "-//W3C//DTD SVG 1.1//EN"
 "http://www.w3.org/Graphics/SVG/1.1/DTD/svg11.dtd">
<!-- Generated by graphviz version 2.43.0 (0)
 -->
<!-- Title: src/core/hashes.cpp Pages: 1 -->
<!--zoomable 225 -->

<svg id="main" version="1.1" xmlns="http://www.w3.org/2000/svg" xmlns:xlink="http://www.w3.org/1999/xlink" xml:space="preserve" onload="init(evt)">

<style type="text/css"><![CDATA[
.node, .edge {opacity: 0.7;}
.node.selected, .edge.selected {opacity: 1;}
.edge:hover path { stroke: red; }
.edge:hover polygon { stroke: red; fill: red; }
]]></style>

<defs>
  <circle id="rim" cx="0" cy="0" r="7"/>
  <circle id="rim2" cx="0" cy="0" r="3.5"/>
  <g id="zoomPlus">
    <use xlink:href="#rim" fill="#404040"><set attributeName="fill" to="#808080" begin="zoomplus.mouseover" end="zoomplus.mouseout"/></use>
    <path d="M-4,0h8M0,-4v8" fill="none" stroke="white" stroke-width="1.5" pointer-events="none"/>
  </g>
  <g id="zoomMin">
    <use xlink:href="#rim" fill="#404040"><set attributeName="fill" to="#808080" begin="zoomminus.mouseover" end="zoomminus.mouseout"/></use>
    <path d="M-4,0h8" fill="none" stroke="white" stroke-width="1.5" pointer-events="none"/>
  </g>
  <g id="arrowUp" transform="translate(30 24)">
    <use xlink:href="#rim"/>
    <path pointer-events="none" fill="none" stroke="white" stroke-width="1.5" d="M0,-3.0v7 M-2.5,-0.5L0,-3.0L2.5,-0.5"/>
  </g>
  <g id="arrowRight" transform="rotate(90) translate(36 -43)">
    <use xlink:href="#rim"/>
    <path pointer-events="none" fill="none" stroke="white" stroke-width="1.5" d="M0,-3.0v7 M-2.5,-0.5L0,-3.0L2.5,-0.5"/>
  </g>
  <g id="arrowDown" transform="rotate(180) translate(-30 -48)">
    <use xlink:href="#rim"/>
    <path pointer-events="none" fill="none" stroke="white" stroke-width="1.5" d="M0,-3.0v7 M-2.5,-0.5L0,-3.0L2.5,-0.5"/>
  </g>
  <g id="arrowLeft" transform="rotate(270) translate(-36 17)">
    <use xlink:href="#rim"/>
    <path pointer-events="none" fill="none" stroke="white" stroke-width="1.5" d="M0,-3.0v7 M-2.5,-0.5L0,-3.0L2.5,-0.5"/>
  </g>
  <g id="resetDef">
    <use xlink:href="#rim2" fill="#404040"><set attributeName="fill" to="#808080" begin="reset.mouseover" end="reset.mouseout"/></use>
  </g>
</defs>
<script type="application/ecmascript">
var viewWidth = 4214;
var viewHeight = 225;
var sectionId = 'dynsection-0';
</script>
<script type="application/ecmascript" xlink:href="../../svg.min.js"/>
<svg id="graph" class="graph">
<g id="viewport">
<title>src/core/hashes.cpp</title>
<!-- Node1 -->
<g id="Node000001" class="node">
<title>Node1</title>
<g id="a_Node000001"><a xlink:title="Implementation of CRC hash functions with lookup tables for optimal performance.">
<polygon fill="#999999" stroke="#666666" points="1614.5,-217 1501.5,-217 1501.5,-198 1614.5,-198 1614.5,-217"/>
<text text-anchor="middle" x="1558" y="-205" font-family="Helvetica,sans-Serif" font-size="10.00">src/core/hashes.cpp</text>
</a>
</g>
</g>
<!-- Node2 -->
<g id="Node000002" class="node">
<title>Node2</title>
<g id="a_Node000002"><a xlink:href="../../da/d47/core_8hpp.html" target="_top" xlink:title="Umbrella header for the engine core module.">
<polygon fill="white" stroke="#666666" points="1587.5,-162 1528.5,-162 1528.5,-143 1587.5,-143 1587.5,-162"/>
<text text-anchor="middle" x="1558" y="-150" font-family="Helvetica,sans-Serif" font-size="10.00">core.hpp</text>
</a>
</g>
</g>
<!-- Node1&#45;&gt;Node2 -->
<g id="edge1_Node000001_Node000002" class="edge">
<title>Node1&#45;&gt;Node2</title>
<g id="a_edge1_Node000001_Node000002"><a xlink:title=" ">
<path fill="none" stroke="#63b8ff" d="M1558,-197.75C1558,-190.8 1558,-180.85 1558,-172.13"/>
<polygon fill="#63b8ff" stroke="#63b8ff" points="1561.5,-172.09 1558,-162.09 1554.5,-172.09 1561.5,-172.09"/>
</a>
</g>
</g>
<!-- Node3 -->
<g id="Node000003" class="node">
<title>Node3</title>
<g id="a_Node000003"><a xlink:title=" ">
<polygon fill="#e0e0e0" stroke="#999999" points="64,-96 0,-96 0,-77 64,-77 64,-96"/>
<text text-anchor="middle" x="32" y="-84" font-family="Helvetica,sans-Serif" font-size="10.00">algorithm</text>
</a>
</g>
</g>
<!-- Node2&#45;&gt;Node3 -->
<g id="edge2_Node000002_Node000003" class="edge">
<title>Node2&#45;&gt;Node3</title>
<g id="a_edge2_Node000002_Node000003"><a xlink:title=" ">
<path fill="none" stroke="#63b8ff" d="M1528.37,-151.34C1331.78,-150.22 219.2,-142.31 73,-107 67.01,-105.55 60.86,-103.17 55.2,-100.56"/>
<polygon fill="#63b8ff" stroke="#63b8ff" points="56.77,-97.43 46.26,-96.08 53.63,-103.69 56.77,-97.43"/>
</a>
</g>
</g>
<!-- Node4 -->
<g id="Node000004" class="node">
<title>Node4</title>
<g id="a_Node000004"><a xlink:title=" ">
<polygon fill="#e0e0e0" stroke="#999999" points="124,-96 82,-96 82,-77 124,-77 124,-96"/>
<text text-anchor="middle" x="103" y="-84" font-family="Helvetica,sans-Serif" font-size="10.00">array</text>
</a>
</g>
</g>
<!-- Node2&#45;&gt;Node4 -->
<g id="edge3_Node000002_Node000004" class="edge">
<title>Node2&#45;&gt;Node4</title>
<g id="a_edge3_Node000002_Node000004"><a xlink:title=" ">
<path fill="none" stroke="#63b8ff" d="M1528.27,-151.53C1335.88,-151.61 270.43,-150.08 133,-107 129.05,-105.76 125.11,-103.84 121.46,-101.68"/>
<polygon fill="#63b8ff" stroke="#63b8ff" points="123.36,-98.74 113.11,-96.07 119.46,-104.55 123.36,-98.74"/>
</a>
</g>
</g>
<!-- Node5 -->
<g id="Node000005" class="node">
<title>Node5</title>
<g id="a_Node000005"><a xlink:title=" ">
<polygon fill="#e0e0e0" stroke="#999999" points="171.5,-96 142.5,-96 142.5,-77 171.5,-77 171.5,-96"/>
<text text-anchor="middle" x="157" y="-84" font-family="Helvetica,sans-Serif" font-size="10.00">bit</text>
</a>
</g>
</g>
<!-- Node2&#45;&gt;Node5 -->
<g id="edge4_Node000002_Node000005" class="edge">
<title>Node2&#45;&gt;Node5</title>
<g id="a_edge4_Node000002_Node000005"><a xlink:title=" ">
<path fill="none" stroke="#63b8ff" d="M1528.27,-151.71C1339.35,-152.89 309.76,-156.99 180,-107 177.44,-106.01 174.96,-104.61 172.63,-103"/>
<polygon fill="#63b8ff" stroke="#63b8ff" points="174.52,-100.01 164.61,-96.25 170.01,-105.37 174.52,-100.01"/>
</a>
</g>
</g>
<!-- Node6 -->
<g id="Node000006" class="node">
<title>Node6</title>
<g id="a_Node000006"><a xlink:title=" ">
<polygon fill="#e0e0e0" stroke="#999999" points="236.5,-96 189.5,-96 189.5,-77 236.5,-77 236.5,-96"/>
<text text-anchor="middle" x="213" y="-84" font-family="Helvetica,sans-Serif" font-size="10.00">cmath</text>
</a>
</g>
</g>
<!-- Node2&#45;&gt;Node6 -->
<g id="edge5_Node000002_Node000006" class="edge">
<title>Node2&#45;&gt;Node6</title>
<g id="a_edge5_Node000002_Node000006"><a xlink:title=" ">
<path fill="none" stroke="#63b8ff" d="M1528.3,-151.4C1345.02,-150.64 371.61,-144.86 245,-107 240.72,-105.72 236.44,-103.73 232.46,-101.49"/>
<polygon fill="#63b8ff" stroke="#63b8ff" points="234.2,-98.45 223.87,-96.07 230.46,-104.37 234.2,-98.45"/>
</a>
</g>
</g>
<!-- Node7 -->
<g id="Node000007" class="node">
<title>Node7</title>
<g id="a_Node000007"><a xlink:title=" ">
<polygon fill="#e0e0e0" stroke="#999999" points="313.5,-96 254.5,-96 254.5,-77 313.5,-77 313.5,-96"/>
<text text-anchor="middle" x="284" y="-84" font-family="Helvetica,sans-Serif" font-size="10.00">compare</text>
</a>
</g>
</g>
<!-- Node2&#45;&gt;Node7 -->
<g id="edge6_Node000002_Node000007" class="edge">
<title>Node2&#45;&gt;Node7</title>
<g id="a_edge6_Node000002_Node000007"><a xlink:title=" ">
<path fill="none" stroke="#63b8ff" d="M1528.4,-151.19C1352.02,-149.22 443.06,-137.63 323,-107 317.41,-105.57 311.69,-103.27 306.41,-100.73"/>
<polygon fill="#63b8ff" stroke="#63b8ff" points="308,-97.61 297.51,-96.06 304.74,-103.81 308,-97.61"/>
</a>
</g>
</g>
<!-- Node8 -->
<g id="Node000008" class="node">
<title>Node8</title>
<g id="a_Node000008"><a xlink:title=" ">
<polygon fill="#e0e0e0" stroke="#999999" points="392,-96 332,-96 332,-77 392,-77 392,-96"/>
<text text-anchor="middle" x="362" y="-84" font-family="Helvetica,sans-Serif" font-size="10.00">concepts</text>
</a>
</g>
</g>
<!-- Node2&#45;&gt;Node8 -->
<g id="edge7_Node000002_Node000008" class="edge">
<title>Node2&#45;&gt;Node8</title>
<g id="a_edge7_Node000002_Node000008"><a xlink:title=" ">
<path fill="none" stroke="#63b8ff" d="M1528.36,-151.11C1358.58,-148.77 513.02,-135.73 401,-107 395.41,-105.57 389.69,-103.26 384.41,-100.72"/>
<polygon fill="#63b8ff" stroke="#63b8ff" points="386,-97.6 375.52,-96.05 382.74,-103.8 386,-97.6"/>
</a>
</g>
</g>
<!-- Node9 -->
<g id="Node000009" class="node">
<title>Node9</title>
<g id="a_Node000009"><a xlink:title=" ">
<polygon fill="#e0e0e0" stroke="#999999" points="463.5,-96 410.5,-96 410.5,-77 463.5,-77 463.5,-96"/>
<text text-anchor="middle" x="437" y="-84" font-family="Helvetica,sans-Serif" font-size="10.00">cstddef</text>
</a>
</g>
</g>
<!-- Node2&#45;&gt;Node9 -->
<g id="edge8_Node000002_Node000009" class="edge">
<title>Node2&#45;&gt;Node9</title>
<g id="a_edge8_Node000002_Node000009"><a xlink:title=" ">
<path fill="none" stroke="#63b8ff" d="M1528.35,-151.08C1364.87,-148.68 577.17,-135.69 473,-107 468.04,-105.63 463,-103.48 458.33,-101.09"/>
<polygon fill="#63b8ff" stroke="#63b8ff" points="459.82,-97.92 449.39,-96.04 456.38,-104.01 459.82,-97.92"/>
</a>
</g>
</g>
<!-- Node10 -->
<g id="Node000010" class="node">
<title>Node10</title>
<g id="a_Node000010"><a xlink:title=" ">
<polygon fill="#e0e0e0" stroke="#999999" points="532,-96 482,-96 482,-77 532,-77 532,-96"/>
<text text-anchor="middle" x="507" y="-84" font-family="Helvetica,sans-Serif" font-size="10.00">cstdint</text>
</a>
</g>
</g>
<!-- Node2&#45;&gt;Node10 -->
<g id="edge9_Node000002_Node000010" class="edge">
<title>Node2&#45;&gt;Node10</title>
<g id="a_edge9_Node000002_Node000010"><a xlink:title=" ">
<path fill="none" stroke="#63b8ff" d="M1528.41,-151.04C1371.27,-148.48 637.91,-135.1 541,-107 536.39,-105.66 531.74,-103.58 527.42,-101.27"/>
<polygon fill="#63b8ff" stroke="#63b8ff" points="529.02,-98.15 518.64,-96.03 525.44,-104.16 529.02,-98.15"/>
</a>
</g>
</g>
<!-- Node11 -->
<g id="Node000011" class="node">
<title>Node11</title>
<g id="a_Node000011"><a xlink:title=" ">
<polygon fill="#e0e0e0" stroke="#999999" points="600,-96 550,-96 550,-77 600,-77 600,-96"/>
<text text-anchor="middle" x="575" y="-84" font-family="Helvetica,sans-Serif" font-size="10.00">cstring</text>
</a>
</g>
</g>
<!-- Node2&#45;&gt;Node11 -->
<g id="edge10_Node000002_Node000011" class="edge">
<title>Node2&#45;&gt;Node11</title>
<g id="a_edge10_Node000002_Node000011"><a xlink:title=" ">
<path fill="none" stroke="#63b8ff" d="M1528.18,-150.94C1377.02,-147.96 698.96,-133.24 609,-107 604.39,-105.66 599.74,-103.57 595.42,-101.26"/>
<polygon fill="#63b8ff" stroke="#63b8ff" points="597.03,-98.14 586.64,-96.02 593.44,-104.15 597.03,-98.14"/>
</a>
</g>
</g>
<!-- Node12 -->
<g id="Node000012" class="node">
<title>Node12</title>
<g id="a_Node000012"><a xlink:title=" ">
<polygon fill="#e0e0e0" stroke="#999999" points="667.5,-96 618.5,-96 618.5,-77 667.5,-77 667.5,-96"/>
<text text-anchor="middle" x="643" y="-84" font-family="Helvetica,sans-Serif" font-size="10.00">cuchar</text>
</a>
</g>
</g>
<!-- Node2&#45;&gt;Node12 -->
<g id="edge11_Node000002_Node000012" class="edge">
<title>Node2&#45;&gt;Node12</title>
<g id="a_edge11_Node000002_Node000012"><a xlink:title=" ">
<path fill="none" stroke="#63b8ff" d="M1528.4,-150.85C1384.22,-147.56 759.05,-131.97 676,-107 671.63,-105.69 667.23,-103.67 663.13,-101.43"/>
<polygon fill="#63b8ff" stroke="#63b8ff" points="664.63,-98.25 654.27,-96.01 660.97,-104.22 664.63,-98.25"/>
</a>
</g>
</g>
<!-- Node13 -->
<g id="Node000013" class="node">
<title>Node13</title>
<g id="a_Node000013"><a xlink:title=" ">
<polygon fill="#e0e0e0" stroke="#999999" points="768.5,-96 685.5,-96 685.5,-77 768.5,-77 768.5,-96"/>
<text text-anchor="middle" x="727" y="-84" font-family="Helvetica,sans-Serif" font-size="10.00">initializer_list</text>
</a>
</g>
</g>
<!-- Node2&#45;&gt;Node13 -->
<g id="edge12_Node000002_Node000013" class="edge">
<title>Node2&#45;&gt;Node13</title>
<g id="a_edge12_Node000002_Node000013"><a xlink:title=" ">
<path fill="none" stroke="#63b8ff" d="M1528.13,-151.05C1403.45,-148.98 924.3,-139.07 777,-107 769.49,-105.36 761.63,-102.76 754.42,-99.98"/>
<polygon fill="#63b8ff" stroke="#63b8ff" points="755.67,-96.71 745.09,-96.15 753.01,-103.18 755.67,-96.71"/>
</a>
</g>
</g>
<!-- Node14 -->
<g id="Node000014" class="node">
<title>Node14</title>
<g id="a_Node000014"><a xlink:title=" ">
<polygon fill="#e0e0e0" stroke="#999999" points="839.5,-96 786.5,-96 786.5,-77 839.5,-77 839.5,-96"/>
<text text-anchor="middle" x="813" y="-84" font-family="Helvetica,sans-Serif" font-size="10.00">iterator</text>
</a>
</g>
</g>
<!-- Node2&#45;&gt;Node14 -->
<g id="edge13_Node000002_Node000014" class="edge">
<title>Node2&#45;&gt;Node14</title>
<g id="a_edge13_Node000002_Node000014"><a xlink:title=" ">
<path fill="none" stroke="#63b8ff" d="M1528.42,-151.33C1411.24,-150.42 979.7,-144.52 849,-107 844.13,-105.6 839.19,-103.47 834.58,-101.13"/>
<polygon fill="#63b8ff" stroke="#63b8ff" points="836.18,-98.01 825.74,-96.17 832.75,-104.11 836.18,-98.01"/>
</a>
</g>
</g>
<!-- Node15 -->
<g id="Node000015" class="node">
<title>Node15</title>
<g id="a_Node000015"><a xlink:title=" ">
<polygon fill="#e0e0e0" stroke="#999999" points="902,-96 858,-96 858,-77 902,-77 902,-96"/>
<text text-anchor="middle" x="880" y="-84" font-family="Helvetica,sans-Serif" font-size="10.00">limits</text>
</a>
</g>
</g>
<!-- Node2&#45;&gt;Node15 -->
<g id="edge14_Node000002_Node000015" class="edge">
<title>Node2&#45;&gt;Node15</title>
<g id="a_edge14_Node000002_Node000015"><a xlink:title=" ">
<path fill="none" stroke="#63b8ff" d="M1528.33,-151.37C1417.49,-150.6 1028.08,-145.16 911,-107 907.03,-105.71 903.06,-103.8 899.35,-101.67"/>
<polygon fill="#63b8ff" stroke="#63b8ff" points="901.11,-98.64 890.81,-96.16 897.32,-104.52 901.11,-98.64"/>
</a>
</g>
</g>
<!-- Node16 -->
<g id="Node000016" class="node">
<title>Node16</title>
<g id="a_Node000016"><a xlink:title=" ">
<polygon fill="#e0e0e0" stroke="#999999" points="978,-96 920,-96 920,-77 978,-77 978,-96"/>
<text text-anchor="middle" x="949" y="-84" font-family="Helvetica,sans-Serif" font-size="10.00">memory</text>
</a>
</g>
</g>
<!-- Node2&#45;&gt;Node16 -->
<g id="edge15_Node000002_Node000016" class="edge">
<title>Node2&#45;&gt;Node16</title>
<g id="a_edge15_Node000002_Node000016"><a xlink:title=" ">
<path fill="none" stroke="#63b8ff" d="M1528.46,-150.73C1426.57,-147.85 1090.44,-136.29 987,-107 981.78,-105.52 976.45,-103.3 971.48,-100.87"/>
<polygon fill="#63b8ff" stroke="#63b8ff" points="973,-97.72 962.53,-96.11 969.71,-103.9 973,-97.72"/>
</a>
</g>
</g>
<!-- Node17 -->
<g id="Node000017" class="node">
<title>Node17</title>
<g id="a_Node000017"><a xlink:title=" ">
<polygon fill="#e0e0e0" stroke="#999999" points="1061.5,-96 996.5,-96 996.5,-77 1061.5,-77 1061.5,-96"/>
<text text-anchor="middle" x="1029" y="-84" font-family="Helvetica,sans-Serif" font-size="10.00">stdexcept</text>
</a>
</g>
</g>
<!-- Node2&#45;&gt;Node17 -->
<g id="edge16_Node000002_Node000017" class="edge">
<title>Node2&#45;&gt;Node17</title>
<g id="a_edge16_Node000002_Node000017"><a xlink:title=" ">
<path fill="none" stroke="#63b8ff" d="M1528.46,-150.13C1436.81,-145.66 1158.21,-130.47 1071,-107 1065.03,-105.39 1058.86,-102.99 1053.15,-100.42"/>
<polygon fill="#63b8ff" stroke="#63b8ff" points="1054.61,-97.24 1044.08,-96.04 1051.56,-103.54 1054.61,-97.24"/>
</a>
</g>
</g>
<!-- Node18 -->
<g id="Node000018" class="node">
<title>Node18</title>
<g id="a_Node000018"><a xlink:title=" ">
<polygon fill="#e0e0e0" stroke="#999999" points="1124,-96 1080,-96 1080,-77 1124,-77 1124,-96"/>
<text text-anchor="middle" x="1102" y="-84" font-family="Helvetica,sans-Serif" font-size="10.00">string</text>
</a>
</g>
</g>
<!-- Node2&#45;&gt;Node18 -->
<g id="edge17_Node000002_Node000018" class="edge">
<title>Node2&#45;&gt;Node18</title>
<g id="a_edge17_Node000002_Node000018"><a xlink:title=" ">
<path fill="none" stroke="#63b8ff" d="M1528.3,-150.14C1444.31,-146.03 1206.45,-132.4 1133,-107 1129.06,-105.64 1125.1,-103.69 1121.39,-101.55"/>
<polygon fill="#63b8ff" stroke="#63b8ff" points="1123.15,-98.52 1112.85,-96.05 1119.36,-104.41 1123.15,-98.52"/>
</a>
</g>
</g>
<!-- Node19 -->
<g id="Node000019" class="node">
<title>Node19</title>
<g id="a_Node000019"><a xlink:title=" ">
<polygon fill="#e0e0e0" stroke="#999999" points="1211.5,-96 1142.5,-96 1142.5,-77 1211.5,-77 1211.5,-96"/>
<text text-anchor="middle" x="1177" y="-84" font-family="Helvetica,sans-Serif" font-size="10.00">type_traits</text>
</a>
</g>
</g>
<!-- Node2&#45;&gt;Node19 -->
<g id="edge18_Node000002_Node000019" class="edge">
<title>Node2&#45;&gt;Node19</title>
<g id="a_edge18_Node000002_Node000019"><a xlink:title=" ">
<path fill="none" stroke="#63b8ff" d="M1528.48,-150.53C1469,-147.93 1330.97,-138.71 1220,-107 1214.04,-105.3 1207.85,-102.9 1202.09,-100.37"/>
<polygon fill="#63b8ff" stroke="#63b8ff" points="1203.45,-97.14 1192.91,-96.07 1200.48,-103.48 1203.45,-97.14"/>
</a>
</g>
</g>
<!-- Node20 -->
<g id="Node000020" class="node">
<title>Node20</title>
<g id="a_Node000020"><a xlink:title=" ">
<polygon fill="#e0e0e0" stroke="#999999" points="1274.5,-96 1229.5,-96 1229.5,-77 1274.5,-77 1274.5,-96"/>
<text text-anchor="middle" x="1252" y="-84" font-family="Helvetica,sans-Serif" font-size="10.00">utility</text>
</a>
</g>
</g>
<!-- Node2&#45;&gt;Node20 -->
<g id="edge19_Node000002_Node000020" class="edge">
<title>Node2&#45;&gt;Node20</title>
<g id="a_edge19_Node000002_Node000020"><a xlink:title=" ">
<path fill="none" stroke="#63b8ff" d="M1528.19,-149.69C1477.76,-145.96 1372.9,-135.22 1289,-107 1284.18,-105.38 1279.22,-103.18 1274.57,-100.85"/>
<polygon fill="#63b8ff" stroke="#63b8ff" points="1276.05,-97.67 1265.58,-96.01 1272.73,-103.83 1276.05,-97.67"/>
</a>
</g>
</g>
<!-- Node21 -->
<g id="Node000021" class="node">
<title>Node21</title>
<g id="a_Node000021"><a xlink:href="../../dd/d9e/linux_2platform__config_8hpp.html" target="_top" xlink:title="additional linux platform header">
<polygon fill="white" stroke="#666666" points="1486.5,-107 1331.5,-107 1331.5,-66 1486.5,-66 1486.5,-107"/>
<text text-anchor="start" x="1339.5" y="-95" font-family="Helvetica,sans-Serif" font-size="10.00">/home/runner/work/toygine2</text>
<text text-anchor="start" x="1339.5" y="-84" font-family="Helvetica,sans-Serif" font-size="10.00">/toygine2/src/platforms</text>
<text text-anchor="middle" x="1409" y="-73" font-family="Helvetica,sans-Serif" font-size="10.00">/linux/platform_config.hpp</text>
</a>
</g>
</g>
<!-- Node2&#45;&gt;Node21 -->
<g id="edge20_Node000002_Node000021" class="edge">
<title>Node2&#45;&gt;Node21</title>
<g id="a_edge20_Node000002_Node000021"><a xlink:title=" ">
<path fill="none" stroke="#63b8ff" d="M1537.91,-142.87C1518.95,-134.72 1489.65,-122.14 1463.77,-111.03"/>
<polygon fill="#63b8ff" stroke="#63b8ff" points="1464.99,-107.74 1454.42,-107.01 1462.23,-114.17 1464.99,-107.74"/>
</a>
</g>
</g>
<!-- Node22 -->
<g id="Node000022" class="node">
<title>Node22</title>
<g id="a_Node000022"><a xlink:href="../../d3/d60/platform_8hpp.html" target="_top" xlink:title="Platform and CPU architecture enums with compile&#45;time and runtime detection.">
<polygon fill="white" stroke="#666666" points="1354.5,-30 1251.5,-30 1251.5,0 1354.5,0 1354.5,-30"/>
<text text-anchor="start" x="1259.5" y="-18" font-family="Helvetica,sans-Serif" font-size="10.00">../../../include/core</text>
<text text-anchor="middle" x="1303" y="-7" font-family="Helvetica,sans-Serif" font-size="10.00">/platform.hpp</text>
</a>
</g>
</g>
<!-- Node2&#45;&gt;Node22 -->
<g id="edge37_Node000002_Node000022" class="edge">
<title>Node2&#45;&gt;Node22</title>
<g id="a_edge37_Node000002_Node000022"><a xlink:title=" ">
<path fill="none" stroke="#63b8ff" d="M1528.26,-149.92C1471.52,-146.27 1350.87,-135.32 1322,-107 1304.52,-89.85 1301.08,-61.07 1301.19,-40.46"/>
<polygon fill="#63b8ff" stroke="#63b8ff" points="1304.69,-40.37 1301.52,-30.26 1297.7,-40.13 1304.69,-40.37"/>
</a>
</g>
</g>
<!-- Node24 -->
<g id="Node000024" class="node">
<title>Node24</title>
<g id="a_Node000024"><a xlink:href="../../d5/d96/assertion_8hpp.html" target="_top" xlink:title="Assertion system: callbacks, initialize/shutdown, and assertion() entry point.">
<polygon fill="white" stroke="#666666" points="1611.5,-96 1504.5,-96 1504.5,-77 1611.5,-77 1611.5,-96"/>
<text text-anchor="middle" x="1558" y="-84" font-family="Helvetica,sans-Serif" font-size="10.00">core/assertion.hpp</text>
</a>
</g>
</g>
<!-- Node2&#45;&gt;Node24 -->
<g id="edge23_Node000002_Node000024" class="edge">
<title>Node2&#45;&gt;Node24</title>
<g id="a_edge23_Node000002_Node000024"><a xlink:title=" ">
<path fill="none" stroke="#63b8ff" d="M1558,-142.87C1558,-133.66 1558,-118.79 1558,-106.77"/>
<polygon fill="#63b8ff" stroke="#63b8ff" points="1561.5,-106.41 1558,-96.41 1554.5,-106.41 1561.5,-106.41"/>
</a>
</g>
</g>
<!-- Node25 -->
<g id="Node000025" class="node">
<title>Node25</title>
<g id="a_Node000025"><a xlink:href="../../df/d61/bitwise__enum_8hpp.html" target="_top" xlink:title="Trait and generic bitwise operators for scoped enums.">
<polygon fill="white" stroke="#666666" points="1760,-96 1630,-96 1630,-77 1760,-77 1760,-96"/>
<text text-anchor="middle" x="1695" y="-84" font-family="Helvetica,sans-Serif" font-size="10.00">core/bitwise_enum.hpp</text>
</a>
</g>
</g>
<!-- Node2&#45;&gt;Node25 -->
<g id="edge24_Node000002_Node000025" class="edge">
<title>Node2&#45;&gt;Node25</title>
<g id="a_edge24_Node000002_Node000025"><a xlink:title=" ">
<path fill="none" stroke="#63b8ff" d="M1576.48,-142.87C1599.76,-131.99 1640.01,-113.19 1667.06,-100.55"/>
<polygon fill="#63b8ff" stroke="#63b8ff" points="1668.8,-103.6 1676.38,-96.2 1665.84,-97.26 1668.8,-103.6"/>
</a>
</g>
</g>
<!-- Node26 -->
<g id="Node000026" class="node">
<title>Node26</title>
<g id="a_Node000026"><a xlink:href="../../dd/ded/c__string__view_8hpp.html" target="_top" xlink:title="Non&#45;owning string view class for C&#45;style strings.">
<polygon fill="white" stroke="#666666" points="1906,-96 1778,-96 1778,-77 1906,-77 1906,-96"/>
<text text-anchor="middle" x="1842" y="-84" font-family="Helvetica,sans-Serif" font-size="10.00">core/c_string_view.hpp</text>
</a>
</g>
</g>
<!-- Node2&#45;&gt;Node26 -->
<g id="edge25_Node000002_Node000026" class="edge">
<title>Node2&#45;&gt;Node26</title>
<g id="a_edge25_Node000002_Node000026"><a xlink:title=" ">
<path fill="none" stroke="#63b8ff" d="M1587.81,-145.73C1628.78,-137.69 1704.73,-122.35 1769,-107 1779.64,-104.46 1791.09,-101.51 1801.69,-98.68"/>
<polygon fill="#63b8ff" stroke="#63b8ff" points="1802.8,-102 1811.55,-96.02 1800.98,-95.24 1802.8,-102"/>
</a>
</g>
</g>
<!-- Node27 -->
<g id="Node000027" class="node">
<title>Node27</title>
<g id="a_Node000027"><a xlink:href="../../de/deb/string__like_8hpp.html" target="_top" xlink:title="C++ concept for string&#45;like types with size() and c_str() methods.">
<polygon fill="white" stroke="#666666" points="2371,-24.5 2283,-24.5 2283,-5.5 2371,-5.5 2371,-24.5"/>
<text text-anchor="middle" x="2327" y="-12.5" font-family="Helvetica,sans-Serif" font-size="10.00">string_like.hpp</text>
</a>
</g>
</g>
<!-- Node2&#45;&gt;Node27 -->
<g id="edge38_Node000002_Node000027" class="edge">
<title>Node2&#45;&gt;Node27</title>
<g id="a_edge38_Node000002_Node000027"><a xlink:title=" ">
<path fill="none" stroke="#63b8ff" d="M1587.53,-150.41C1662.42,-147.22 1857.89,-136.28 1915,-107 1937.11,-95.67 1930.94,-77.43 1953,-66 2007.53,-37.74 2182.85,-24.05 2272.74,-18.75"/>
<polygon fill="#63b8ff" stroke="#63b8ff" points="2272.96,-22.25 2282.74,-18.18 2272.56,-15.26 2272.96,-22.25"/>
</a>
</g>
</g>
<!-- Node28 -->
<g id="Node000028" class="node">
<title>Node28</title>
<g id="a_Node000028"><a xlink:href="../../d1/d5c/callbacks__pool_8hpp.html" target="_top" xlink:title="Template callback pool class with fixed&#45;size callback storage.">
<polygon fill="white" stroke="#666666" points="2096,-96 1962,-96 1962,-77 2096,-77 2096,-96"/>
<text text-anchor="middle" x="2029" y="-84" font-family="Helvetica,sans-Serif" font-size="10.00">core/callbacks_pool.hpp</text>
</a>
</g>
</g>
<!-- Node2&#45;&gt;Node28 -->
<g id="edge27_Node000002_Node000028" class="edge">
<title>Node2&#45;&gt;Node28</title>
<g id="a_edge27_Node000002_Node000028"><a xlink:title=" ">
<path fill="none" stroke="#63b8ff" d="M1587.53,-149.37C1652.87,-144.4 1814.46,-130.6 1948,-107 1960.92,-104.72 1974.86,-101.6 1987.47,-98.53"/>
<polygon fill="#63b8ff" stroke="#63b8ff" points="1988.4,-101.91 1997.26,-96.1 1986.71,-95.11 1988.4,-101.91"/>
</a>
</g>
</g>
<!-- Node29 -->
<g id="Node000029" class="node">
<title>Node29</title>
<g id="a_Node000029"><a xlink:href="../../d4/dc0/constexpr__utils_8hpp.html" target="_top" xlink:title="Constexpr utility functions for compile&#45;time operations.">
<polygon fill="white" stroke="#666666" points="2250,-96 2114,-96 2114,-77 2250,-77 2250,-96"/>
<text text-anchor="middle" x="2182" y="-84" font-family="Helvetica,sans-Serif" font-size="10.00">core/constexpr_utils.hpp</text>
</a>
</g>
</g>
<!-- Node2&#45;&gt;Node29 -->
<g id="edge28_Node000002_Node000029" class="edge">
<title>Node2&#45;&gt;Node29</title>
<g id="a_edge28_Node000002_Node000029"><a xlink:title=" ">
<path fill="none" stroke="#63b8ff" d="M1587.56,-150.83C1670.01,-148.58 1909.26,-139.51 2105,-107 2117.54,-104.92 2131.03,-101.81 2143.17,-98.68"/>
<polygon fill="#63b8ff" stroke="#63b8ff" points="2144.23,-102.02 2152.99,-96.07 2142.43,-95.25 2144.23,-102.02"/>
</a>
</g>
</g>
<!-- Node30 -->
<g id="Node000030" class="node">
<title>Node30</title>
<g id="a_Node000030"><a xlink:href="../../d7/d7f/fixed__string_8hpp.html" target="_top" xlink:title="Template string class with fixed&#45;size character buffer.">
<polygon fill="white" stroke="#666666" points="2386,-96 2268,-96 2268,-77 2386,-77 2386,-96"/>
<text text-anchor="middle" x="2327" y="-84" font-family="Helvetica,sans-Serif" font-size="10.00">core/fixed_string.hpp</text>
</a>
</g>
</g>
<!-- Node2&#45;&gt;Node30 -->
<g id="edge29_Node000002_Node000030" class="edge">
<title>Node2&#45;&gt;Node30</title>
<g id="a_edge29_Node000002_Node000030"><a xlink:title=" ">
<path fill="none" stroke="#63b8ff" d="M1587.65,-151.89C1684.77,-152.7 2001.86,-151.49 2259,-107 2270,-105.1 2281.77,-102.08 2292.37,-98.99"/>
<polygon fill="#63b8ff" stroke="#63b8ff" points="2293.56,-102.29 2302.11,-96.04 2291.53,-95.59 2293.56,-102.29"/>
</a>
</g>
</g>
<!-- Node31 -->
<g id="Node000031" class="node">
<title>Node31</title>
<g id="a_Node000031"><a xlink:href="../../d7/dea/fixed__vector_8hpp.html" target="_top" xlink:title="TODO.">
<polygon fill="white" stroke="#666666" points="2524,-96 2404,-96 2404,-77 2524,-77 2524,-96"/>
<text text-anchor="middle" x="2464" y="-84" font-family="Helvetica,sans-Serif" font-size="10.00">core/fixed_vector.hpp</text>
</a>
</g>
</g>
<!-- Node2&#45;&gt;Node31 -->
<g id="edge31_Node000002_Node000031" class="edge">
<title>Node2&#45;&gt;Node31</title>
<g id="a_edge31_Node000002_Node000031"><a xlink:title=" ">
<path fill="none" stroke="#63b8ff" d="M1587.72,-150.81C1717.46,-147.64 2234.75,-133.56 2395,-107 2406.17,-105.15 2418.11,-102.15 2428.86,-99.06"/>
<polygon fill="#63b8ff" stroke="#63b8ff" points="2430.17,-102.32 2438.75,-96.09 2428.16,-95.61 2430.17,-102.32"/>
</a>
</g>
</g>
<!-- Node32 -->
<g id="Node000032" class="node">
<title>Node32</title>
<g id="a_Node000032"><a xlink:href="../../d4/d0a/format_8hpp.html" target="_top" xlink:title="Compile&#45;time format string validation class.">
<polygon fill="white" stroke="#666666" points="2637.5,-96 2542.5,-96 2542.5,-77 2637.5,-77 2637.5,-96"/>
<text text-anchor="middle" x="2590" y="-84" font-family="Helvetica,sans-Serif" font-size="10.00">core/format.hpp</text>
</a>
</g>
</g>
<!-- Node2&#45;&gt;Node32 -->
<g id="edge32_Node000002_Node000032" class="edge">
<title>Node2&#45;&gt;Node32</title>
<g id="a_edge32_Node000002_Node000032"><a xlink:title=" ">
<path fill="none" stroke="#63b8ff" d="M1587.75,-151.28C1730.4,-150.04 2345.09,-142.67 2533,-107 2541.94,-105.3 2551.38,-102.51 2559.95,-99.56"/>
<polygon fill="#63b8ff" stroke="#63b8ff" points="2561.33,-102.78 2569.54,-96.08 2558.94,-96.2 2561.33,-102.78"/>
</a>
</g>
</g>
<!-- Node33 -->
<g id="Node000033" class="node">
<title>Node33</title>
<g id="a_Node000033"><a xlink:href="../../dd/d8e/hashes_8hpp.html" target="_top" xlink:title="CRC hash functions.">
<polygon fill="white" stroke="#666666" points="2752,-96 2656,-96 2656,-77 2752,-77 2752,-96"/>
<text text-anchor="middle" x="2704" y="-84" font-family="Helvetica,sans-Serif" font-size="10.00">core/hashes.hpp</text>
</a>
</g>
</g>
<!-- Node2&#45;&gt;Node33 -->
<g id="edge34_Node000002_Node000033" class="edge">
<title>Node2&#45;&gt;Node33</title>
<g id="a_edge34_Node000002_Node000033"><a xlink:title=" ">
<path fill="none" stroke="#63b8ff" d="M1587.62,-151.44C1739.87,-150.97 2435.44,-146.64 2647,-107 2656.01,-105.31 2665.54,-102.49 2674.17,-99.51"/>
<polygon fill="#63b8ff" stroke="#63b8ff" points="2675.61,-102.71 2683.81,-96 2673.21,-96.14 2675.61,-102.71"/>
</a>
</g>
</g>
<!-- Node34 -->
<g id="Node000034" class="node">
<title>Node34</title>
<g id="a_Node000034"><a xlink:href="../../de/d2d/o__string__stream_8hpp.html" target="_top" xlink:title="Output string stream class for building strings from various data types.">
<polygon fill="white" stroke="#666666" points="2910,-96 2770,-96 2770,-77 2910,-77 2910,-96"/>
<text text-anchor="middle" x="2840" y="-84" font-family="Helvetica,sans-Serif" font-size="10.00">core/o_string_stream.hpp</text>
</a>
</g>
</g>
<!-- Node2&#45;&gt;Node34 -->
<g id="edge35_Node000002_Node000034" class="edge">
<title>Node2&#45;&gt;Node34</title>
<g id="a_edge35_Node000002_Node000034"><a xlink:title=" ">
<path fill="none" stroke="#63b8ff" d="M1587.68,-151.23C1749.24,-149.62 2524.15,-140.25 2761,-107 2774.36,-105.12 2788.74,-101.94 2801.52,-98.67"/>
<polygon fill="#63b8ff" stroke="#63b8ff" points="2802.61,-102.01 2811.39,-96.07 2800.82,-95.24 2802.61,-102.01"/>
</a>
</g>
</g>
<!-- Node35 -->
<g id="Node000035" class="node">
<title>Node35</title>
<g id="a_Node000035"><a xlink:href="../../d8/d43/core_2utils_8hpp.html" target="_top" xlink:title="Core utilities: string encoding conversion, length, reversal, and number formatting.">
<polygon fill="white" stroke="#666666" points="3011.5,-96 2928.5,-96 2928.5,-77 3011.5,-77 3011.5,-96"/>
<text text-anchor="middle" x="2970" y="-84" font-family="Helvetica,sans-Serif" font-size="10.00">core/utils.hpp</text>
</a>
</g>
</g>
<!-- Node2&#45;&gt;Node35 -->
<g id="edge39_Node000002_Node000035" class="edge">
<title>Node2&#45;&gt;Node35</title>
<g id="a_edge39_Node000002_Node000035"><a xlink:title=" ">
<path fill="none" stroke="#63b8ff" d="M1587.8,-151.12C1774.94,-148.64 2784.51,-134.11 2919,-107 2926.88,-105.41 2935.14,-102.73 2942.66,-99.86"/>
<polygon fill="#63b8ff" stroke="#63b8ff" points="2944.08,-103.06 2952.03,-96.06 2941.44,-96.58 2944.08,-103.06"/>
</a>
</g>
</g>
<!-- Node36 -->
<g id="Node000036" class="node">
<title>Node36</title>
<g id="a_Node000036"><a xlink:href="../../dd/d61/bitwise__enum_8inl.html" target="_top" xlink:title="Inline implementations for toy::EnableBitwiseOperators bitwise operators.">
<polygon fill="white" stroke="#666666" points="3154,-96 3030,-96 3030,-77 3154,-77 3154,-96"/>
<text text-anchor="middle" x="3092" y="-84" font-family="Helvetica,sans-Serif" font-size="10.00">core/bitwise_enum.inl</text>
</a>
</g>
</g>
<!-- Node2&#45;&gt;Node36 -->
<g id="edge40_Node000002_Node000036" class="edge">
<title>Node2&#45;&gt;Node36</title>
<g id="a_edge40_Node000002_Node000036"><a xlink:title=" ">
<path fill="none" stroke="#63b8ff" d="M1587.64,-151.56C1768.95,-151.76 2730.14,-150.73 3021,-107 3032.81,-105.22 3045.45,-102.15 3056.75,-98.96"/>
<polygon fill="#63b8ff" stroke="#63b8ff" points="3058.08,-102.21 3066.68,-96.03 3056.1,-95.5 3058.08,-102.21"/>
</a>
</g>
</g>
<!-- Node37 -->
<g id="Node000037" class="node">
<title>Node37</title>
<g id="a_Node000037"><a xlink:href="../../df/d4a/c__string__view_8inl.html" target="_top" xlink:title="Inline implementations for CStringView class.">
<polygon fill="white" stroke="#666666" points="3294,-96 3172,-96 3172,-77 3294,-77 3294,-96"/>
<text text-anchor="middle" x="3233" y="-84" font-family="Helvetica,sans-Serif" font-size="10.00">core/c_string_view.inl</text>
</a>
</g>
</g>
<!-- Node2&#45;&gt;Node37 -->
<g id="edge41_Node000002_Node000037" class="edge">
<title>Node2&#45;&gt;Node37</title>
<g id="a_edge41_Node000002_Node000037"><a xlink:title=" ">
<path fill="none" stroke="#63b8ff" d="M1587.68,-151.66C1779.17,-152.58 2842.4,-155.36 3163,-107 3174.65,-105.24 3187.12,-102.17 3198.26,-98.98"/>
<polygon fill="#63b8ff" stroke="#63b8ff" points="3199.47,-102.27 3208.05,-96.05 3197.47,-95.56 3199.47,-102.27"/>
</a>
</g>
</g>
<!-- Node38 -->
<g id="Node000038" class="node">
<title>Node38</title>
<g id="a_Node000038"><a xlink:href="../../d6/ddb/callbacks__pool_8inl.html" target="_top" xlink:title="Inline implementations for template callback pool class with fixed&#45;size callback storage.">
<polygon fill="white" stroke="#666666" points="3440,-96 3312,-96 3312,-77 3440,-77 3440,-96"/>
<text text-anchor="middle" x="3376" y="-84" font-family="Helvetica,sans-Serif" font-size="10.00">core/callbacks_pool.inl</text>
</a>
</g>
</g>
<!-- Node2&#45;&gt;Node38 -->
<g id="edge42_Node000002_Node000038" class="edge">
<title>Node2&#45;&gt;Node38</title>
<g id="a_edge42_Node000002_Node000038"><a xlink:title=" ">
<path fill="none" stroke="#63b8ff" d="M1587.63,-151.7C1788.46,-152.9 2952.63,-157.54 3303,-107 3315.25,-105.23 3328.39,-102.12 3340.09,-98.89"/>
<polygon fill="#63b8ff" stroke="#63b8ff" points="3341.31,-102.18 3349.96,-96.06 3339.38,-95.46 3341.31,-102.18"/>
</a>
</g>
</g>
<!-- Node39 -->
<g id="Node000039" class="node">
<title>Node39</title>
<g id="a_Node000039"><a xlink:href="../../dc/d28/constexpr__utils_8inl.html" target="_top" xlink:title="Inline implementations for constexpr utility functions.">
<polygon fill="white" stroke="#666666" points="3588,-96 3458,-96 3458,-77 3588,-77 3588,-96"/>
<text text-anchor="middle" x="3523" y="-84" font-family="Helvetica,sans-Serif" font-size="10.00">core/constexpr_utils.inl</text>
</a>
</g>
</g>
<!-- Node2&#45;&gt;Node39 -->
<g id="edge43_Node000002_Node000039" class="edge">
<title>Node2&#45;&gt;Node39</title>
<g id="a_edge43_Node000002_Node000039"><a xlink:title=" ">
<path fill="none" stroke="#63b8ff" d="M1587.67,-151.22C1813.48,-149.04 3257.26,-134.14 3449,-107 3461.54,-105.23 3475,-102.07 3486.95,-98.81"/>
<polygon fill="#63b8ff" stroke="#63b8ff" points="3487.93,-102.17 3496.59,-96.07 3486.02,-95.43 3487.93,-102.17"/>
</a>
</g>
</g>
<!-- Node40 -->
<g id="Node000040" class="node">
<title>Node40</title>
<g id="a_Node000040"><a xlink:href="../../d7/d40/fixed__string_8inl.html" target="_top" xlink:title="Inline implementations for FixedString template class.">
<polygon fill="white" stroke="#666666" points="3718,-96 3606,-96 3606,-77 3718,-77 3718,-96"/>
<text text-anchor="middle" x="3662" y="-84" font-family="Helvetica,sans-Serif" font-size="10.00">core/fixed_string.inl</text>
</a>
</g>
</g>
<!-- Node2&#45;&gt;Node40 -->
<g id="edge44_Node000002_Node000040" class="edge">
<title>Node2&#45;&gt;Node40</title>
<g id="a_edge44_Node000002_Node000040"><a xlink:title=" ">
<path fill="none" stroke="#63b8ff" d="M1587.72,-151.34C1823.64,-149.97 3390.11,-139.68 3597,-107 3607.65,-105.32 3618.99,-102.35 3629.17,-99.22"/>
<polygon fill="#63b8ff" stroke="#63b8ff" points="3630.44,-102.49 3638.89,-96.09 3628.29,-95.83 3630.44,-102.49"/>
</a>
</g>
</g>
<!-- Node41 -->
<g id="Node000041" class="node">
<title>Node41</title>
<g id="a_Node000041"><a xlink:href="../../da/dc9/fixed__vector_8inl.html" target="_top" xlink:title="TODO.">
<polygon fill="white" stroke="#666666" points="3850,-96 3736,-96 3736,-77 3850,-77 3850,-96"/>
<text text-anchor="middle" x="3793" y="-84" font-family="Helvetica,sans-Serif" font-size="10.00">core/fixed_vector.inl</text>
</a>
</g>
</g>
<!-- Node2&#45;&gt;Node41 -->
<g id="edge45_Node000002_Node000041" class="edge">
<title>Node2&#45;&gt;Node41</title>
<g id="a_edge45_Node000002_Node000041"><a xlink:title=" ">
<path fill="none" stroke="#63b8ff" d="M1587.65,-151.37C1831.75,-150.24 3506.24,-141.24 3727,-107 3737.92,-105.31 3749.56,-102.29 3759.97,-99.13"/>
<polygon fill="#63b8ff" stroke="#63b8ff" points="3761.05,-102.46 3769.52,-96.1 3758.93,-95.79 3761.05,-102.46"/>
</a>
</g>
</g>
<!-- Node42 -->
<g id="Node000042" class="node">
<title>Node42</title>
<g id="a_Node000042"><a xlink:href="../../d0/d67/format_8inl.html" target="_top" xlink:title="Inline implementations for FormatString class.">
<polygon fill="white" stroke="#666666" points="3957.5,-96 3868.5,-96 3868.5,-77 3957.5,-77 3957.5,-96"/>
<text text-anchor="middle" x="3913" y="-84" font-family="Helvetica,sans-Serif" font-size="10.00">core/format.inl</text>
</a>
</g>
</g>
<!-- Node2&#45;&gt;Node42 -->
<g id="edge46_Node000002_Node000042" class="edge">
<title>Node2&#45;&gt;Node42</title>
<g id="a_edge46_Node000002_Node000042"><a xlink:title=" ">
<path fill="none" stroke="#63b8ff" d="M1587.85,-151.51C1841.08,-151.54 3625.48,-150.2 3859,-107 3867.5,-105.43 3876.44,-102.68 3884.54,-99.74"/>
<polygon fill="#63b8ff" stroke="#63b8ff" points="3885.86,-102.98 3893.93,-96.12 3883.34,-96.45 3885.86,-102.98"/>
</a>
</g>
</g>
<!-- Node43 -->
<g id="Node000043" class="node">
<title>Node43</title>
<g id="a_Node000043"><a xlink:href="../../d9/dcb/o__string__stream_8inl.html" target="_top" xlink:title="Implementation of OStringStream template methods.">
<polygon fill="white" stroke="#666666" points="4110,-96 3976,-96 3976,-77 4110,-77 4110,-96"/>
<text text-anchor="middle" x="4043" y="-84" font-family="Helvetica,sans-Serif" font-size="10.00">core/o_string_stream.inl</text>
</a>
</g>
</g>
<!-- Node2&#45;&gt;Node43 -->
<g id="edge47_Node000002_Node000043" class="edge">
<title>Node2&#45;&gt;Node43</title>
<g id="a_edge47_Node000002_Node000043"><a xlink:title=" ">
<path fill="none" stroke="#63b8ff" d="M1587.58,-151.37C1846.24,-150.19 3720.11,-140.49 3967,-107 3979.87,-105.25 3993.69,-102.11 4005.97,-98.84"/>
<polygon fill="#63b8ff" stroke="#63b8ff" points="4007.16,-102.14 4015.87,-96.1 4005.29,-95.4 4007.16,-102.14"/>
</a>
</g>
</g>
<!-- Node44 -->
<g id="Node000044" class="node">
<title>Node44</title>
<g id="a_Node000044"><a xlink:href="../../d2/d2b/core_2utils_8inl.html" target="_top" xlink:title="Inline implementations of core utility functions for string manipulation and encoding conversion.">
<polygon fill="white" stroke="#666666" points="4205.5,-96 4128.5,-96 4128.5,-77 4205.5,-77 4205.5,-96"/>
<text text-anchor="middle" x="4167" y="-84" font-family="Helvetica,sans-Serif" font-size="10.00">core/utils.inl</text>
</a>
</g>
</g>
<!-- Node2&#45;&gt;Node44 -->
<g id="edge48_Node000002_Node000044" class="edge">
<title>Node2&#45;&gt;Node44</title>
<g id="a_edge48_Node000002_Node000044"><a xlink:title=" ">
<path fill="none" stroke="#63b8ff" d="M1587.78,-151.3C1865.12,-149.35 3988.71,-133.63 4119,-107 4126.22,-105.52 4133.74,-102.99 4140.63,-100.24"/>
<polygon fill="#63b8ff" stroke="#63b8ff" points="4142.35,-103.3 4150.15,-96.13 4139.58,-96.87 4142.35,-103.3"/>
</a>
</g>
</g>
<!-- Node21&#45;&gt;Node22 -->
<g id="edge21_Node000021_Node000022" class="edge">
<title>Node21&#45;&gt;Node22</title>
<g id="a_edge21_Node000021_Node000022"><a xlink:title=" ">
<path fill="none" stroke="#63b8ff" d="M1379.19,-65.96C1364.79,-56.51 1347.54,-45.2 1333.1,-35.74"/>
<polygon fill="#63b8ff" stroke="#63b8ff" points="1334.81,-32.67 1324.52,-30.11 1330.97,-38.52 1334.81,-32.67"/>
</a>
</g>
</g>
<!-- Node23 -->
<g id="Node000023" class="node">
<title>Node23</title>
<g id="a_Node000023"><a xlink:href="../../d1/d5f/assertion__macro__gcc__clang_8hpp.html" target="_top" xlink:title="Debug and Release assertion macro implementations for GCC/Clang platforms.">
<polygon fill="white" stroke="#666666" points="1499.5,-30 1372.5,-30 1372.5,0 1499.5,0 1499.5,-30"/>
<text text-anchor="start" x="1380.5" y="-18" font-family="Helvetica,sans-Serif" font-size="10.00">../common/assertion</text>
<text text-anchor="middle" x="1436" y="-7" font-family="Helvetica,sans-Serif" font-size="10.00">_macro_gcc_clang.hpp</text>
</a>
</g>
</g>
<!-- Node21&#45;&gt;Node23 -->
<g id="edge22_Node000021_Node000023" class="edge">
<title>Node21&#45;&gt;Node23</title>
<g id="a_edge22_Node000021_Node000023"><a xlink:title=" ">
<path fill="none" stroke="#63b8ff" d="M1416.66,-65.77C1419.85,-57.58 1423.57,-48.01 1426.89,-39.46"/>
<polygon fill="#63b8ff" stroke="#63b8ff" points="1430.19,-40.63 1430.55,-30.04 1423.66,-38.09 1430.19,-40.63"/>
</a>
</g>
</g>
<!-- Node26&#45;&gt;Node27 -->
<g id="edge26_Node000026_Node000027" class="edge">
<title>Node26&#45;&gt;Node27</title>
<g id="a_edge26_Node000026_Node000027"><a xlink:title=" ">
<path fill="none" stroke="#63b8ff" d="M1872.56,-76.94C1886.87,-73.16 1904.22,-68.93 1920,-66 2045.27,-42.74 2194.3,-27.56 2272.65,-20.54"/>
<polygon fill="#63b8ff" stroke="#63b8ff" points="2273.11,-24.01 2282.76,-19.64 2272.49,-17.04 2273.11,-24.01"/>
</a>
</g>
</g>
<!-- Node30&#45;&gt;Node27 -->
<g id="edge30_Node000030_Node000027" class="edge">
<title>Node30&#45;&gt;Node27</title>
<g id="a_edge30_Node000030_Node000027"><a xlink:title=" ">
<path fill="none" stroke="#63b8ff" d="M2327,-76.98C2327,-66.56 2327,-48.61 2327,-34.88"/>
<polygon fill="#63b8ff" stroke="#63b8ff" points="2330.5,-34.59 2327,-24.59 2323.5,-34.59 2330.5,-34.59"/>
</a>
</g>
</g>
<!-- Node32&#45;&gt;Node27 -->
<g id="edge33_Node000032_Node000027" class="edge">
<title>Node32&#45;&gt;Node27</title>
<g id="a_edge33_Node000032_Node000027"><a xlink:title=" ">
<path fill="none" stroke="#63b8ff" d="M2566.58,-76.95C2556.34,-73.35 2544.14,-69.25 2533,-66 2480.13,-50.57 2418.67,-36.1 2376.73,-26.73"/>
<polygon fill="#63b8ff" stroke="#63b8ff" points="2377.3,-23.27 2366.78,-24.52 2375.78,-30.1 2377.3,-23.27"/>
</a>
</g>
</g>
<!-- Node34&#45;&gt;Node27 -->
<g id="edge36_Node000034_Node000027" class="edge">
<title>Node34&#45;&gt;Node27</title>
<g id="a_edge36_Node000034_Node000027"><a xlink:title=" ">
<path fill="none" stroke="#63b8ff" d="M2809.43,-76.99C2794.86,-73.18 2777.13,-68.91 2761,-66 2625.35,-41.55 2463.59,-26.62 2381.14,-20.01"/>
<polygon fill="#63b8ff" stroke="#63b8ff" points="2381.25,-16.51 2371.01,-19.21 2380.7,-23.49 2381.25,-16.51"/>
</a>
</g>
</g>
</g>
</svg>

<g id="navigator" transform="translate(0 0)" fill="#404254">
  <rect fill="#f2f5e9" fill-opacity="0.5" stroke="#606060" stroke-width=".5" x="0" y="0" width="60" height="60"/>
  <use id="zoomplus" xlink:href="#zoomPlus" x="17" y="9" onmousedown="handleZoom(evt,'in')"/>
  <use id="zoomminus" xlink:href="#zoomMin" x="42" y="9" onmousedown="handleZoom(evt,'out')"/>
  <use id="reset" xlink:href="#resetDef" x="30" y="36" onmousedown="handleReset()"/>
   <use id="arrowup" xlink:href="#arrowUp" x="0" y="0" onmousedown="handlePan(0,-1)"/>
  <use id="arrowright" xlink:href="#arrowRight" x="0" y="0" onmousedown="handlePan(1,0)"/>
  <use id="arrowdown" xlink:href="#arrowDown" x="0" y="0" onmousedown="handlePan(0,1)"/>
  <use id="arrowleft" xlink:href="#arrowLeft" x="0" y="0" onmousedown="handlePan(-1,0)"/>
</g>
<svg viewBox="0 0 15 15" width="100%" height="30px" preserveAspectRatio="xMaxYMin meet">
 <g id="arrow_out" transform="scale(0.3 0.3)">
  <a xlink:href="hashes_8cpp__incl_org.svg" target="_base">
   <rect id="button" ry="5" rx="5" y="6" x="6" height="38" width="38"
        fill="#f2f5e9" fill-opacity="0.5" stroke="#606060" stroke-width="1.0"/>
   <path id="arrow"
     d="M 11.500037,31.436501 C 11.940474,20.09759 22.043105,11.32322 32.158766,21.979434 L 37.068811,17.246167 C 37.068811,17.246167 37.088388,32 37.088388,32 L 22.160133,31.978069 C 22.160133,31.978069 26.997745,27.140456 26.997745,27.140456 C 18.528582,18.264221 13.291696,25.230495 11.500037,31.436501 z"
     style="fill:#404040;"/>
  </a>
 </g>
</svg>

<style type='text/css'>
<![CDATA[
[data-mouse-over-selected='false'] { opacity: 0.7; }
[data-mouse-over-selected='true']  { opacity: 1.0; }
]]>
</style>
<script type="application/ecmascript"><![CDATA[
document.addEventListener('DOMContentLoaded', (event) => {
  highlightEdges();
  highlightAdjacentNodes();
});
]]></script>
</svg>
