<?xml version="1.0" encoding="UTF-8" standalone="no"?>
<!DOCTYPE svg PUBLIC "-//W3C//DTD SVG 1.1//EN"
 "http://www.w3.org/Graphics/SVG/1.1/DTD/svg11.dtd">
<!-- Generated by graphviz version 14.1.2 (0)
 -->
<!-- Title: include/platform/ui/message_box_buttons.hpp Pages: 1 -->
<svg width="158pt" height="155pt"
 viewBox="0.00 0.00 158.00 155.00" xmlns="http://www.w3.org/2000/svg" xmlns:xlink="http://www.w3.org/1999/xlink">
<g id="page0,1_graph0" class="graph" transform="scale(1 1) rotate(0) translate(4 151)">
<title>include/platform/ui/message_box_buttons.hpp</title>
<!-- Node1 -->
<g id="Node000001" class="node">
<title>Node1</title>
<g id="a_Node000001"><a xlink:title="Button set configuration for message boxes / dialogs.">
<polygon fill="#999999" stroke="#666666" points="149.5,-147 0,-147 0,-113.5 149.5,-113.5 149.5,-147"/>
<text xml:space="preserve" text-anchor="start" x="8" y="-133.5" font-family="Helvetica,sans-Serif" font-size="10.00">include/platform/ui</text>
<text xml:space="preserve" text-anchor="middle" x="74.75" y="-120.75" font-family="Helvetica,sans-Serif" font-size="10.00">/message_box_buttons.hpp</text>
</a>
</g>
</g>
<!-- Node2 -->
<g id="Node000002" class="node">
<title>Node2</title>
<g id="a_Node000002"><a xlink:href="../../de/dd6/ui_8hpp.html" target="_top" xlink:title="Umbrella header for platform UI types.">
<polygon fill="white" stroke="#666666" points="139.38,-77.5 10.12,-77.5 10.12,-56.75 139.38,-56.75 139.38,-77.5"/>
<text xml:space="preserve" text-anchor="middle" x="74.75" y="-64" font-family="Helvetica,sans-Serif" font-size="10.00">include/platform/ui.hpp</text>
</a>
</g>
</g>
<!-- Node1&#45;&gt;Node2 -->
<g id="edge1_Node000001_Node000002" class="edge">
<title>Node1&#45;&gt;Node2</title>
<g id="a_edge1_Node000001_Node000002"><a xlink:title=" ">
<path fill="none" stroke="#63b8ff" d="M74.75,-101.69C74.75,-93.21 74.75,-84.42 74.75,-77.97"/>
<polygon fill="#63b8ff" stroke="#63b8ff" points="71.25,-101.68 74.75,-111.68 78.25,-101.68 71.25,-101.68"/>
</a>
</g>
</g>
<!-- Node3 -->
<g id="Node000003" class="node">
<title>Node3</title>
<g id="a_Node000003"><a xlink:href="../../d8/d8c/toygine2_8hpp.html" target="_top" xlink:title="Main umbrella header for the engine.">
<polygon fill="white" stroke="#666666" points="133.75,-20.75 15.75,-20.75 15.75,0 133.75,0 133.75,-20.75"/>
<text xml:space="preserve" text-anchor="middle" x="74.75" y="-7.25" font-family="Helvetica,sans-Serif" font-size="10.00">include/toygine2.hpp</text>
</a>
</g>
</g>
<!-- Node2&#45;&gt;Node3 -->
<g id="edge2_Node000002_Node000003" class="edge">
<title>Node2&#45;&gt;Node3</title>
<g id="a_edge2_Node000002_Node000003"><a xlink:title=" ">
<path fill="none" stroke="#63b8ff" d="M74.75,-44.88C74.75,-36.66 74.75,-27.68 74.75,-21.08"/>
<polygon fill="#63b8ff" stroke="#63b8ff" points="71.25,-44.82 74.75,-54.82 78.25,-44.82 71.25,-44.82"/>
</a>
</g>
</g>
</g>
</svg>
