<?xml version="1.0" encoding="UTF-8" standalone="no"?>
<!DOCTYPE svg PUBLIC "-//W3C//DTD SVG 1.1//EN"
 "http://www.w3.org/Graphics/SVG/1.1/DTD/svg11.dtd">
<!-- Generated by graphviz version 2.43.0 (0)
 -->
<!-- Title: include/application/version.hpp Pages: 1 -->
<svg width="1104pt" height="302pt"
 viewBox="0.00 0.00 1104.00 302.00" xmlns="http://www.w3.org/2000/svg" xmlns:xlink="http://www.w3.org/1999/xlink">
<g id="page0,1_graph0" class="graph" transform="scale(1 1) rotate(0) translate(4 298)">
<title>include/application/version.hpp</title>
<!-- Node1 -->
<g id="Node000001" class="node">
<title>Node1</title>
<g id="a_Node000001"><a xlink:title="Application version type and comparison operators.">
<polygon fill="#999999" stroke="#666666" points="553,-294 444,-294 444,-264 553,-264 553,-294"/>
<text text-anchor="start" x="452" y="-282" font-family="Helvetica,sans-Serif" font-size="10.00">include/application</text>
<text text-anchor="middle" x="498.5" y="-271" font-family="Helvetica,sans-Serif" font-size="10.00">/version.hpp</text>
</a>
</g>
</g>
<!-- Node2 -->
<g id="Node000002" class="node">
<title>Node2</title>
<g id="a_Node000002"><a xlink:href="../../d4/d01/application_8hpp.html" target="_top" xlink:title="Umbrella header for the application module.">
<polygon fill="white" stroke="#666666" points="557.5,-96 427.5,-96 427.5,-77 557.5,-77 557.5,-96"/>
<text text-anchor="middle" x="492.5" y="-84" font-family="Helvetica,sans-Serif" font-size="10.00">include/application.hpp</text>
</a>
</g>
</g>
<!-- Node1&#45;&gt;Node2 -->
<g id="edge1_Node000001_Node000002" class="edge">
<title>Node1&#45;&gt;Node2</title>
<g id="a_edge1_Node000001_Node000002"><a xlink:title=" ">
<path fill="none" stroke="#63b8ff" d="M484.15,-254.89C479.84,-246.7 475.68,-237.23 473.5,-228 461.91,-178.89 481.06,-118.34 489.16,-96.16"/>
<polygon fill="#63b8ff" stroke="#63b8ff" points="481.22,-256.81 489.17,-263.81 487.32,-253.38 481.22,-256.81"/>
</a>
</g>
</g>
<!-- Node10 -->
<g id="Node000010" class="node">
<title>Node10</title>
<g id="a_Node000010"><a xlink:href="../../db/dd6/core__application_8hpp.html" target="_top" xlink:title="Abstract base class for platform application lifecycle.">
<polygon fill="white" stroke="#666666" points="604,-228 483,-228 483,-198 604,-198 604,-228"/>
<text text-anchor="start" x="491" y="-216" font-family="Helvetica,sans-Serif" font-size="10.00">include/application</text>
<text text-anchor="middle" x="543.5" y="-205" font-family="Helvetica,sans-Serif" font-size="10.00">/core_application.hpp</text>
</a>
</g>
</g>
<!-- Node1&#45;&gt;Node10 -->
<g id="edge9_Node000001_Node000010" class="edge">
<title>Node1&#45;&gt;Node10</title>
<g id="a_edge9_Node000001_Node000010"><a xlink:title=" ">
<path fill="none" stroke="#63b8ff" d="M514.3,-255.53C520.7,-246.43 527.89,-236.19 533.54,-228.16"/>
<polygon fill="#63b8ff" stroke="#63b8ff" points="511.38,-253.6 508.49,-263.8 517.1,-257.63 511.38,-253.6"/>
</a>
</g>
</g>
<!-- Node3 -->
<g id="Node000003" class="node">
<title>Node3</title>
<g id="a_Node000003"><a xlink:href="../../d8/d8c/toygine2_8hpp.html" target="_top" xlink:title="Main umbrella header for the engine.">
<polygon fill="white" stroke="#666666" points="119,-30 0,-30 0,-11 119,-11 119,-30"/>
<text text-anchor="middle" x="59.5" y="-18" font-family="Helvetica,sans-Serif" font-size="10.00">include/toygine2.hpp</text>
</a>
</g>
</g>
<!-- Node2&#45;&gt;Node3 -->
<g id="edge2_Node000002_Node000003" class="edge">
<title>Node2&#45;&gt;Node3</title>
<g id="a_edge2_Node000002_Node000003"><a xlink:title=" ">
<path fill="none" stroke="#63b8ff" d="M417.09,-79.69C343.1,-73.19 227.3,-60.88 128.5,-41 114.34,-38.15 98.85,-33.88 86.14,-30.06"/>
<polygon fill="#63b8ff" stroke="#63b8ff" points="416.99,-83.19 427.25,-80.57 417.59,-76.22 416.99,-83.19"/>
</a>
</g>
</g>
<!-- Node4 -->
<g id="Node000004" class="node">
<title>Node4</title>
<g id="a_Node000004"><a xlink:href="../../db/db6/console__application_8cpp.html" target="_top" xlink:title="Implementations for toy::application::ConsoleApplication.">
<polygon fill="white" stroke="#666666" points="265.5,-35.5 137.5,-35.5 137.5,-5.5 265.5,-5.5 265.5,-35.5"/>
<text text-anchor="start" x="145.5" y="-23.5" font-family="Helvetica,sans-Serif" font-size="10.00">src/application/console</text>
<text text-anchor="middle" x="201.5" y="-12.5" font-family="Helvetica,sans-Serif" font-size="10.00">_application.cpp</text>
</a>
</g>
</g>
<!-- Node2&#45;&gt;Node4 -->
<g id="edge3_Node000002_Node000004" class="edge">
<title>Node2&#45;&gt;Node4</title>
<g id="a_edge3_Node000002_Node000004"><a xlink:title=" ">
<path fill="none" stroke="#63b8ff" d="M436.85,-75.09C392.68,-66.6 329.44,-53.93 274.5,-41 267.35,-39.32 259.83,-37.44 252.46,-35.53"/>
<polygon fill="#63b8ff" stroke="#63b8ff" points="436.34,-78.56 446.82,-77 437.65,-71.68 436.34,-78.56"/>
</a>
</g>
</g>
<!-- Node5 -->
<g id="Node000005" class="node">
<title>Node5</title>
<g id="a_Node000005"><a xlink:href="../../d0/dbb/core__application_8cpp.html" target="_top" xlink:title="Implementations for toy::application::CoreApplication.">
<polygon fill="white" stroke="#666666" points="395.5,-35.5 283.5,-35.5 283.5,-5.5 395.5,-5.5 395.5,-35.5"/>
<text text-anchor="start" x="291.5" y="-23.5" font-family="Helvetica,sans-Serif" font-size="10.00">src/application/core</text>
<text text-anchor="middle" x="339.5" y="-12.5" font-family="Helvetica,sans-Serif" font-size="10.00">_application.cpp</text>
</a>
</g>
</g>
<!-- Node2&#45;&gt;Node5 -->
<g id="edge4_Node000002_Node000005" class="edge">
<title>Node2&#45;&gt;Node5</title>
<g id="a_edge4_Node000002_Node000005"><a xlink:title=" ">
<path fill="none" stroke="#63b8ff" d="M462.63,-73C436.96,-62.27 399.97,-46.8 373.25,-35.62"/>
<polygon fill="#63b8ff" stroke="#63b8ff" points="461.29,-76.24 471.87,-76.87 463.99,-69.78 461.29,-76.24"/>
</a>
</g>
</g>
<!-- Node6 -->
<g id="Node000006" class="node">
<title>Node6</title>
<g id="a_Node000006"><a xlink:href="../../d0/d8a/core__application__linux_8cpp.html" target="_top" xlink:title="Linux implementations of toy::application::CoreApplication via POSIX APIs.">
<polygon fill="white" stroke="#666666" points="571,-41 414,-41 414,0 571,0 571,-41"/>
<text text-anchor="start" x="422" y="-29" font-family="Helvetica,sans-Serif" font-size="10.00">src/platforms/linux</text>
<text text-anchor="start" x="422" y="-18" font-family="Helvetica,sans-Serif" font-size="10.00">/application/core_application</text>
<text text-anchor="middle" x="492.5" y="-7" font-family="Helvetica,sans-Serif" font-size="10.00">_linux.cpp</text>
</a>
</g>
</g>
<!-- Node2&#45;&gt;Node6 -->
<g id="edge5_Node000002_Node000006" class="edge">
<title>Node2&#45;&gt;Node6</title>
<g id="a_edge5_Node000002_Node000006"><a xlink:title=" ">
<path fill="none" stroke="#63b8ff" d="M492.5,-66.63C492.5,-58.56 492.5,-49.15 492.5,-41.01"/>
<polygon fill="#63b8ff" stroke="#63b8ff" points="489,-66.87 492.5,-76.87 496,-66.87 489,-66.87"/>
</a>
</g>
</g>
<!-- Node7 -->
<g id="Node000007" class="node">
<title>Node7</title>
<g id="a_Node000007"><a xlink:href="../../d8/d89/core__application__macos_8cpp.html" target="_top" xlink:title="macOS implementations of toy::application::CoreApplication via POSIX APIs.">
<polygon fill="white" stroke="#666666" points="746,-41 589,-41 589,0 746,0 746,-41"/>
<text text-anchor="start" x="597" y="-29" font-family="Helvetica,sans-Serif" font-size="10.00">src/platforms/macos</text>
<text text-anchor="start" x="597" y="-18" font-family="Helvetica,sans-Serif" font-size="10.00">/application/core_application</text>
<text text-anchor="middle" x="667.5" y="-7" font-family="Helvetica,sans-Serif" font-size="10.00">_macos.cpp</text>
</a>
</g>
</g>
<!-- Node2&#45;&gt;Node7 -->
<g id="edge6_Node000002_Node000007" class="edge">
<title>Node2&#45;&gt;Node7</title>
<g id="a_edge6_Node000002_Node000007"><a xlink:title=" ">
<path fill="none" stroke="#63b8ff" d="M525.82,-73.32C550.76,-64.19 585.38,-51.53 614.15,-41.01"/>
<polygon fill="#63b8ff" stroke="#63b8ff" points="524.29,-70.15 516.1,-76.87 526.7,-76.72 524.29,-70.15"/>
</a>
</g>
</g>
<!-- Node8 -->
<g id="Node000008" class="node">
<title>Node8</title>
<g id="a_Node000008"><a xlink:href="../../db/da8/core__application__stub_8cpp.html" target="_top" xlink:title="Stub implementation of toy::application::CoreApplication::sleep() for platforms without OS sleep supp...">
<polygon fill="white" stroke="#666666" points="921,-41 764,-41 764,0 921,0 921,-41"/>
<text text-anchor="start" x="772" y="-29" font-family="Helvetica,sans-Serif" font-size="10.00">src/platforms/stub</text>
<text text-anchor="start" x="772" y="-18" font-family="Helvetica,sans-Serif" font-size="10.00">/application/core_application</text>
<text text-anchor="middle" x="842.5" y="-7" font-family="Helvetica,sans-Serif" font-size="10.00">_stub.cpp</text>
</a>
</g>
</g>
<!-- Node2&#45;&gt;Node8 -->
<g id="edge7_Node000002_Node000008" class="edge">
<title>Node2&#45;&gt;Node8</title>
<g id="a_edge7_Node000002_Node000008"><a xlink:title=" ">
<path fill="none" stroke="#63b8ff" d="M558.07,-75.39C611.38,-66.94 688.48,-54.17 755.5,-41 758.23,-40.46 761.01,-39.9 763.82,-39.33"/>
<polygon fill="#63b8ff" stroke="#63b8ff" points="557.4,-71.95 548.07,-76.97 558.49,-78.87 557.4,-71.95"/>
</a>
</g>
</g>
<!-- Node9 -->
<g id="Node000009" class="node">
<title>Node9</title>
<g id="a_Node000009"><a xlink:href="../../dc/d2d/core__application__windows_8cpp.html" target="_top" xlink:title="Windows implementations of toy::application::CoreApplication via Win32 APIs.">
<polygon fill="white" stroke="#666666" points="1096,-41 939,-41 939,0 1096,0 1096,-41"/>
<text text-anchor="start" x="947" y="-29" font-family="Helvetica,sans-Serif" font-size="10.00">src/platforms/windows</text>
<text text-anchor="start" x="947" y="-18" font-family="Helvetica,sans-Serif" font-size="10.00">/application/core_application</text>
<text text-anchor="middle" x="1017.5" y="-7" font-family="Helvetica,sans-Serif" font-size="10.00">_windows.cpp</text>
</a>
</g>
</g>
<!-- Node2&#45;&gt;Node9 -->
<g id="edge8_Node000002_Node000009" class="edge">
<title>Node2&#45;&gt;Node9</title>
<g id="a_edge8_Node000002_Node000009"><a xlink:title=" ">
<path fill="none" stroke="#63b8ff" d="M567.86,-80.59C655.41,-74.25 804.04,-61.52 930.5,-41 933.25,-40.55 936.04,-40.07 938.86,-39.57"/>
<polygon fill="#63b8ff" stroke="#63b8ff" points="567.48,-77.11 557.75,-81.31 567.98,-84.09 567.48,-77.11"/>
</a>
</g>
</g>
<!-- Node10&#45;&gt;Node2 -->
<g id="edge10_Node000010_Node000002" class="edge">
<title>Node10&#45;&gt;Node2</title>
<g id="a_edge10_Node000010_Node000002"><a xlink:title=" ">
<path fill="none" stroke="#63b8ff" d="M526.88,-189.43C521.37,-181.13 515.6,-171.44 511.5,-162 501.61,-139.23 496.06,-110.22 493.77,-96.06"/>
<polygon fill="#63b8ff" stroke="#63b8ff" points="524.11,-191.58 532.68,-197.82 529.87,-187.6 524.11,-191.58"/>
</a>
</g>
</g>
<!-- Node11 -->
<g id="Node000011" class="node">
<title>Node11</title>
<g id="a_Node000011"><a xlink:href="../../d5/ddf/console__application_8hpp.html" target="_top" xlink:title="Abstract base for console&#45;mode application lifecycle.">
<polygon fill="white" stroke="#666666" points="658,-162 521,-162 521,-132 658,-132 658,-162"/>
<text text-anchor="start" x="529" y="-150" font-family="Helvetica,sans-Serif" font-size="10.00">include/application</text>
<text text-anchor="middle" x="589.5" y="-139" font-family="Helvetica,sans-Serif" font-size="10.00">/console_application.hpp</text>
</a>
</g>
</g>
<!-- Node10&#45;&gt;Node11 -->
<g id="edge11_Node000010_Node000011" class="edge">
<title>Node10&#45;&gt;Node11</title>
<g id="a_edge11_Node000010_Node000011"><a xlink:title=" ">
<path fill="none" stroke="#63b8ff" d="M559.65,-189.53C566.19,-180.43 573.55,-170.19 579.32,-162.16"/>
<polygon fill="#63b8ff" stroke="#63b8ff" points="556.7,-187.63 553.71,-197.8 562.39,-191.72 556.7,-187.63"/>
</a>
</g>
</g>
<!-- Node11&#45;&gt;Node2 -->
<g id="edge12_Node000011_Node000002" class="edge">
<title>Node11&#45;&gt;Node2</title>
<g id="a_edge12_Node000011_Node000002"><a xlink:title=" ">
<path fill="none" stroke="#63b8ff" d="M557.39,-126.64C540.25,-116.3 520.01,-104.09 506.75,-96.09"/>
<polygon fill="#63b8ff" stroke="#63b8ff" points="555.65,-129.67 566.02,-131.84 559.26,-123.68 555.65,-129.67"/>
</a>
</g>
</g>
</g>
</svg>
