<?xml version="1.0" encoding="UTF-8" standalone="no"?>
<!DOCTYPE svg PUBLIC "-//W3C//DTD SVG 1.1//EN"
 "http://www.w3.org/Graphics/SVG/1.1/DTD/svg11.dtd">
<!-- Generated by graphviz version 2.43.0 (0)
 -->
<!-- Title: include/math/constants.hpp Pages: 1 -->
<svg width="222pt" height="82pt"
 viewBox="0.00 0.00 221.50 82.00" xmlns="http://www.w3.org/2000/svg" xmlns:xlink="http://www.w3.org/1999/xlink">
<g id="graph0" class="graph" transform="scale(1 1) rotate(0) translate(4 78)">
<title>include/math/constants.hpp</title>
<!-- Node1 -->
<g id="Node000001" class="node">
<title>Node1</title>
<g id="a_Node000001"><a xlink:title="Mathematical constants for floating&#45;point and toy::math::fixed_point types.">
<polygon fill="#999999" stroke="#666666" points="164.5,-74 12.5,-74 12.5,-55 164.5,-55 164.5,-74"/>
<text text-anchor="middle" x="88.5" y="-62" font-family="Helvetica,sans-Serif" font-size="10.00">include/math/constants.hpp</text>
</a>
</g>
</g>
<!-- Node2 -->
<g id="Node000002" class="node">
<title>Node2</title>
<g id="a_Node000002"><a xlink:href="../../d5/d42/fixed_8hpp.html" target="_top" xlink:title="Fixed&#45;point numeric type template and related concepts.">
<polygon fill="white" stroke="#666666" points="61,-19 0,-19 0,0 61,0 61,-19"/>
<text text-anchor="middle" x="30.5" y="-7" font-family="Helvetica,sans-Serif" font-size="10.00">fixed.hpp</text>
</a>
</g>
</g>
<!-- Node1&#45;&gt;Node2 -->
<g id="edge1_Node000001_Node000002" class="edge">
<title>Node1&#45;&gt;Node2</title>
<g id="a_edge1_Node000001_Node000002"><a xlink:title=" ">
<path fill="none" stroke="#63b8ff" d="M79.18,-54.98C70.69,-47.23 57.94,-35.58 47.62,-26.14"/>
<polygon fill="#63b8ff" stroke="#63b8ff" points="49.73,-23.33 39.99,-19.17 45.01,-28.5 49.73,-23.33"/>
</a>
</g>
</g>
<!-- Node3 -->
<g id="Node000003" class="node">
<title>Node3</title>
<g id="a_Node000003"><a xlink:href="../../d3/d21/fixed__std__extension_8hpp.html" target="_top" xlink:title="Standard library extensions for toy::math::fixed: numeric_limits and std::numbers mathematical consta...">
<polygon fill="white" stroke="#666666" points="213.5,-19 79.5,-19 79.5,0 213.5,0 213.5,-19"/>
<text text-anchor="middle" x="146.5" y="-7" font-family="Helvetica,sans-Serif" font-size="10.00">fixed_std_extension.hpp</text>
</a>
</g>
</g>
<!-- Node1&#45;&gt;Node3 -->
<g id="edge2_Node000001_Node000003" class="edge">
<title>Node1&#45;&gt;Node3</title>
<g id="a_edge2_Node000001_Node000003"><a xlink:title=" ">
<path fill="none" stroke="#63b8ff" d="M97.82,-54.98C106.31,-47.23 119.06,-35.58 129.38,-26.14"/>
<polygon fill="#63b8ff" stroke="#63b8ff" points="131.99,-28.5 137.01,-19.17 127.27,-23.33 131.99,-28.5"/>
</a>
</g>
</g>
</g>
</svg>
