<?xml version="1.0" encoding="UTF-8" standalone="no"?>
<!DOCTYPE svg PUBLIC "-//W3C//DTD SVG 1.1//EN"
 "http://www.w3.org/Graphics/SVG/1.1/DTD/svg11.dtd">
<!-- Generated by graphviz version 2.43.0 (0)
 -->
<!-- Title: include/math/constants.hpp Pages: 1 -->
<svg width="278pt" height="82pt"
 viewBox="0.00 0.00 278.00 82.00" xmlns="http://www.w3.org/2000/svg" xmlns:xlink="http://www.w3.org/1999/xlink">
<g id="graph0" class="graph" transform="scale(1 1) rotate(0) translate(4 78)">
<title>include/math/constants.hpp</title>
<!-- Node1 -->
<g id="Node000001" class="node">
<title>Node1</title>
<g id="a_Node000001"><a xlink:title="Mathematical constants for floating&#45;point and toy::math::fixed_point types.">
<polygon fill="#999999" stroke="#666666" points="192.5,-74 40.5,-74 40.5,-55 192.5,-55 192.5,-74"/>
<text text-anchor="middle" x="116.5" y="-62" font-family="Helvetica,sans-Serif" font-size="10.00">include/math/constants.hpp</text>
</a>
</g>
</g>
<!-- Node2 -->
<g id="Node000002" class="node">
<title>Node2</title>
<g id="a_Node000002"><a xlink:href="../../d5/d42/fixed_8hpp.html" target="_top" xlink:title="Fixed&#45;point numeric type template.">
<polygon fill="white" stroke="#666666" points="89,-19 0,-19 0,0 89,0 89,-19"/>
<text text-anchor="middle" x="44.5" y="-7" font-family="Helvetica,sans-Serif" font-size="10.00">math/fixed.hpp</text>
</a>
</g>
</g>
<!-- Node1&#45;&gt;Node2 -->
<g id="edge1_Node000001_Node000002" class="edge">
<title>Node1&#45;&gt;Node2</title>
<g id="a_edge1_Node000001_Node000002"><a xlink:title=" ">
<path fill="none" stroke="#63b8ff" d="M104.93,-54.98C94.08,-47 77.62,-34.88 64.62,-25.31"/>
<polygon fill="#63b8ff" stroke="#63b8ff" points="66.41,-22.28 56.28,-19.17 62.26,-27.92 66.41,-22.28"/>
</a>
</g>
</g>
<!-- Node3 -->
<g id="Node000003" class="node">
<title>Node3</title>
<g id="a_Node000003"><a xlink:href="../../d3/d21/fixed__std__extension_8hpp.html" target="_top" xlink:title="Standard library extensions for toy::math::fixed: numeric_limits and std::numbers mathematical consta...">
<polygon fill="white" stroke="#666666" points="270,-19 107,-19 107,0 270,0 270,-19"/>
<text text-anchor="middle" x="188.5" y="-7" font-family="Helvetica,sans-Serif" font-size="10.00">math/fixed_std_extension.hpp</text>
</a>
</g>
</g>
<!-- Node1&#45;&gt;Node3 -->
<g id="edge2_Node000001_Node000003" class="edge">
<title>Node1&#45;&gt;Node3</title>
<g id="a_edge2_Node000001_Node000003"><a xlink:title=" ">
<path fill="none" stroke="#63b8ff" d="M128.07,-54.98C138.92,-47 155.38,-34.88 168.38,-25.31"/>
<polygon fill="#63b8ff" stroke="#63b8ff" points="170.74,-27.92 176.72,-19.17 166.59,-22.28 170.74,-27.92"/>
</a>
</g>
</g>
</g>
</svg>
