<?xml version="1.0" encoding="UTF-8" standalone="no"?>
<!DOCTYPE svg PUBLIC "-//W3C//DTD SVG 1.1//EN"
 "http://www.w3.org/Graphics/SVG/1.1/DTD/svg11.dtd">
<!-- Generated by graphviz version 14.1.2 (0)
 -->
<!-- Title: include/geometry/section.inl Pages: 1 -->
<svg width="163pt" height="142pt"
 viewBox="0.00 0.00 163.00 142.00" xmlns="http://www.w3.org/2000/svg" xmlns:xlink="http://www.w3.org/1999/xlink">
<g id="page0,1_graph0" class="graph" transform="scale(1 1) rotate(0) translate(4 138.25)">
<title>include/geometry/section.inl</title>
<!-- Node1 -->
<g id="Node000001" class="node">
<title>Node1</title>
<g id="a_Node000001"><a xlink:title="Inline implementations for toy::geometry::Section.">
<polygon fill="#999999" stroke="#666666" points="154.75,-134.25 0,-134.25 0,-113.5 154.75,-113.5 154.75,-134.25"/>
<text xml:space="preserve" text-anchor="middle" x="77.38" y="-120.75" font-family="Helvetica,sans-Serif" font-size="10.00">include/geometry/section.inl</text>
</a>
</g>
</g>
<!-- Node2 -->
<g id="Node000002" class="node">
<title>Node2</title>
<g id="a_Node000002"><a xlink:href="../../db/dbb/geometry_8hpp.html" target="_top" xlink:title="Umbrella header for the geometry module.">
<polygon fill="white" stroke="#666666" points="137.88,-77.5 16.88,-77.5 16.88,-56.75 137.88,-56.75 137.88,-77.5"/>
<text xml:space="preserve" text-anchor="middle" x="77.38" y="-64" font-family="Helvetica,sans-Serif" font-size="10.00">include/geometry.hpp</text>
</a>
</g>
</g>
<!-- Node1&#45;&gt;Node2 -->
<g id="edge1_Node000001_Node000002" class="edge">
<title>Node1&#45;&gt;Node2</title>
<g id="a_edge1_Node000001_Node000002"><a xlink:title=" ">
<path fill="none" stroke="#63b8ff" d="M77.38,-101.63C77.38,-93.41 77.38,-84.43 77.38,-77.83"/>
<polygon fill="#63b8ff" stroke="#63b8ff" points="73.88,-101.57 77.38,-111.57 80.88,-101.57 73.88,-101.57"/>
</a>
</g>
</g>
<!-- Node3 -->
<g id="Node000003" class="node">
<title>Node3</title>
<g id="a_Node000003"><a xlink:href="../../d8/d8c/toygine2_8hpp.html" target="_top" xlink:title="Main umbrella header for the engine.">
<polygon fill="white" stroke="#666666" points="136.38,-20.75 18.38,-20.75 18.38,0 136.38,0 136.38,-20.75"/>
<text xml:space="preserve" text-anchor="middle" x="77.38" y="-7.25" font-family="Helvetica,sans-Serif" font-size="10.00">include/toygine2.hpp</text>
</a>
</g>
</g>
<!-- Node2&#45;&gt;Node3 -->
<g id="edge2_Node000002_Node000003" class="edge">
<title>Node2&#45;&gt;Node3</title>
<g id="a_edge2_Node000002_Node000003"><a xlink:title=" ">
<path fill="none" stroke="#63b8ff" d="M77.38,-44.88C77.38,-36.66 77.38,-27.68 77.38,-21.08"/>
<polygon fill="#63b8ff" stroke="#63b8ff" points="73.88,-44.82 77.38,-54.82 80.88,-44.82 73.88,-44.82"/>
</a>
</g>
</g>
</g>
</svg>
