<?xml version="1.0" encoding="UTF-8" standalone="no"?>
<!DOCTYPE svg PUBLIC "-//W3C//DTD SVG 1.1//EN"
 "http://www.w3.org/Graphics/SVG/1.1/DTD/svg11.dtd">
<!-- Generated by graphviz version 14.1.2 (0)
 -->
<!-- Title: include/game/achievement_state.hpp Pages: 1 -->
<svg width="157pt" height="155pt"
 viewBox="0.00 0.00 157.00 155.00" xmlns="http://www.w3.org/2000/svg" xmlns:xlink="http://www.w3.org/1999/xlink">
<g id="page0,1_graph0" class="graph" transform="scale(1 1) rotate(0) translate(4 151)">
<title>include/game/achievement_state.hpp</title>
<!-- Node1 -->
<g id="Node000001" class="node">
<title>Node1</title>
<g id="a_Node000001"><a xlink:title="Achievement visibility and unlock state for the game module.">
<polygon fill="#999999" stroke="#666666" points="148.75,-147 0,-147 0,-113.5 148.75,-113.5 148.75,-147"/>
<text xml:space="preserve" text-anchor="start" x="8" y="-133.5" font-family="Helvetica,sans-Serif" font-size="10.00">include/game/achievement</text>
<text xml:space="preserve" text-anchor="middle" x="74.38" y="-120.75" font-family="Helvetica,sans-Serif" font-size="10.00">_state.hpp</text>
</a>
</g>
</g>
<!-- Node2 -->
<g id="Node000002" class="node">
<title>Node2</title>
<g id="a_Node000002"><a xlink:href="../../d8/d39/game_8hpp.html" target="_top" xlink:title="Umbrella header for the game module.">
<polygon fill="white" stroke="#666666" points="125.88,-77.5 22.88,-77.5 22.88,-56.75 125.88,-56.75 125.88,-77.5"/>
<text xml:space="preserve" text-anchor="middle" x="74.38" y="-64" font-family="Helvetica,sans-Serif" font-size="10.00">include/game.hpp</text>
</a>
</g>
</g>
<!-- Node1&#45;&gt;Node2 -->
<g id="edge1_Node000001_Node000002" class="edge">
<title>Node1&#45;&gt;Node2</title>
<g id="a_edge1_Node000001_Node000002"><a xlink:title=" ">
<path fill="none" stroke="#63b8ff" d="M74.38,-101.69C74.38,-93.21 74.38,-84.42 74.38,-77.97"/>
<polygon fill="#63b8ff" stroke="#63b8ff" points="70.88,-101.68 74.38,-111.68 77.88,-101.68 70.88,-101.68"/>
</a>
</g>
</g>
<!-- Node3 -->
<g id="Node000003" class="node">
<title>Node3</title>
<g id="a_Node000003"><a xlink:href="../../d8/d8c/toygine2_8hpp.html" target="_top" xlink:title="Main umbrella header for the engine.">
<polygon fill="white" stroke="#666666" points="133.38,-20.75 15.38,-20.75 15.38,0 133.38,0 133.38,-20.75"/>
<text xml:space="preserve" text-anchor="middle" x="74.38" y="-7.25" font-family="Helvetica,sans-Serif" font-size="10.00">include/toygine2.hpp</text>
</a>
</g>
</g>
<!-- Node2&#45;&gt;Node3 -->
<g id="edge2_Node000002_Node000003" class="edge">
<title>Node2&#45;&gt;Node3</title>
<g id="a_edge2_Node000002_Node000003"><a xlink:title=" ">
<path fill="none" stroke="#63b8ff" d="M74.38,-44.88C74.38,-36.66 74.38,-27.68 74.38,-21.08"/>
<polygon fill="#63b8ff" stroke="#63b8ff" points="70.88,-44.82 74.38,-54.82 77.88,-44.82 70.88,-44.82"/>
</a>
</g>
</g>
</g>
</svg>
