<?xml version="1.0" encoding="UTF-8" standalone="no"?>
<!DOCTYPE svg PUBLIC "-//W3C//DTD SVG 1.1//EN"
 "http://www.w3.org/Graphics/SVG/1.1/DTD/svg11.dtd">
<!-- Generated by graphviz version 2.43.0 (0)
 -->
<!-- Title: include/core/utils.inl Pages: 1 -->
<svg width="3908pt" height="280pt"
 viewBox="0.00 0.00 3907.89 280.00" xmlns="http://www.w3.org/2000/svg" xmlns:xlink="http://www.w3.org/1999/xlink">
<g id="page0,1_graph0" class="graph" transform="scale(1 1) rotate(0) translate(4 276)">
<title>include/core/utils.inl</title>
<!-- Node1 -->
<g id="Node000001" class="node">
<title>Node1</title>
<g id="a_Node000001"><a xlink:title="Inline implementations for utilities declared in utils.hpp.">
<polygon fill="#999999" stroke="#666666" points="2242.89,-272 2127.89,-272 2127.89,-253 2242.89,-253 2242.89,-272"/>
<text text-anchor="middle" x="2185.39" y="-260" font-family="Helvetica,sans-Serif" font-size="10.00">include/core/utils.inl</text>
</a>
</g>
</g>
<!-- Node2 -->
<g id="Node000002" class="node">
<title>Node2</title>
<g id="a_Node000002"><a xlink:href="../../da/d47/core_8hpp.html" target="_top" xlink:title="Umbrella header for the engine core module.">
<polygon fill="white" stroke="#666666" points="2233.89,-217 2136.89,-217 2136.89,-198 2233.89,-198 2233.89,-217"/>
<text text-anchor="middle" x="2185.39" y="-205" font-family="Helvetica,sans-Serif" font-size="10.00">include/core.hpp</text>
</a>
</g>
</g>
<!-- Node1&#45;&gt;Node2 -->
<g id="edge1_Node000001_Node000002" class="edge">
<title>Node1&#45;&gt;Node2</title>
<g id="a_edge1_Node000001_Node000002"><a xlink:title=" ">
<path fill="none" stroke="#63b8ff" d="M2185.39,-242.66C2185.39,-233.93 2185.39,-223.99 2185.39,-217.09"/>
<polygon fill="#63b8ff" stroke="#63b8ff" points="2181.89,-242.75 2185.39,-252.75 2188.89,-242.75 2181.89,-242.75"/>
</a>
</g>
</g>
<!-- Node3 -->
<g id="Node000003" class="node">
<title>Node3</title>
<g id="a_Node000003"><a xlink:href="../../d4/d01/application_8hpp.html" target="_top" xlink:title="Umbrella header for the application module.">
<polygon fill="white" stroke="#666666" points="613.39,-156.5 483.39,-156.5 483.39,-137.5 613.39,-137.5 613.39,-156.5"/>
<text text-anchor="middle" x="548.39" y="-144.5" font-family="Helvetica,sans-Serif" font-size="10.00">include/application.hpp</text>
</a>
</g>
</g>
<!-- Node2&#45;&gt;Node3 -->
<g id="edge2_Node000002_Node000003" class="edge">
<title>Node2&#45;&gt;Node3</title>
<g id="a_edge2_Node000002_Node000003"><a xlink:title=" ">
<path fill="none" stroke="#63b8ff" d="M2126.76,-204.4C1874.02,-195.37 878.41,-159.79 613.45,-150.33"/>
<polygon fill="#63b8ff" stroke="#63b8ff" points="2126.72,-207.91 2136.84,-204.77 2126.97,-200.91 2126.72,-207.91"/>
</a>
</g>
</g>
<!-- Node4 -->
<g id="Node000004" class="node">
<title>Node4</title>
<g id="a_Node000004"><a xlink:href="../../d8/d8c/toygine2_8hpp.html" target="_top" xlink:title="Main umbrella header for the engine.">
<polygon fill="white" stroke="#666666" points="1509.89,-19 1390.89,-19 1390.89,0 1509.89,0 1509.89,-19"/>
<text text-anchor="middle" x="1450.39" y="-7" font-family="Helvetica,sans-Serif" font-size="10.00">include/toygine2.hpp</text>
</a>
</g>
</g>
<!-- Node2&#45;&gt;Node4 -->
<g id="edge27_Node000002_Node000004" class="edge">
<title>Node2&#45;&gt;Node4</title>
<g id="a_edge27_Node000002_Node000004"><a xlink:title=" ">
<path fill="none" stroke="#63b8ff" d="M2126.75,-206.26C1959.81,-205.13 1484.32,-198.68 1333.39,-162 1264.19,-145.19 1226,-155.83 1187.39,-96 1177.5,-80.69 1175.62,-68.92 1187.39,-55 1212.9,-24.8 1321.38,-15.09 1390.8,-11.97"/>
<polygon fill="#63b8ff" stroke="#63b8ff" points="2126.8,-209.76 2136.82,-206.32 2126.85,-202.76 2126.8,-209.76"/>
</a>
</g>
</g>
<!-- Node12 -->
<g id="Node000012" class="node">
<title>Node12</title>
<g id="a_Node000012"><a xlink:href="../../d1/d71/audio_8hpp.html" target="_top" xlink:title="Umbrella header for the audio module.">
<polygon fill="white" stroke="#666666" points="1299.89,-85 1196.89,-85 1196.89,-66 1299.89,-66 1299.89,-85"/>
<text text-anchor="middle" x="1248.39" y="-73" font-family="Helvetica,sans-Serif" font-size="10.00">include/audio.hpp</text>
</a>
</g>
</g>
<!-- Node2&#45;&gt;Node12 -->
<g id="edge11_Node000002_Node000012" class="edge">
<title>Node2&#45;&gt;Node12</title>
<g id="a_edge11_Node000002_Node000012"><a xlink:title=" ">
<path fill="none" stroke="#63b8ff" d="M2126.38,-206.52C1968.45,-206.03 1538.94,-201.05 1403.39,-162 1344.91,-145.16 1284.17,-103.22 1259.64,-85.08"/>
<polygon fill="#63b8ff" stroke="#63b8ff" points="2126.82,-210.02 2136.82,-206.55 2126.83,-203.02 2126.82,-210.02"/>
</a>
</g>
</g>
<!-- Node13 -->
<g id="Node000013" class="node">
<title>Node13</title>
<g id="a_Node000013"><a xlink:href="../../d8/d39/game_8hpp.html" target="_top" xlink:title="Umbrella header for the game module.">
<polygon fill="white" stroke="#666666" points="1422.39,-85 1318.39,-85 1318.39,-66 1422.39,-66 1422.39,-85"/>
<text text-anchor="middle" x="1370.39" y="-73" font-family="Helvetica,sans-Serif" font-size="10.00">include/game.hpp</text>
</a>
</g>
</g>
<!-- Node2&#45;&gt;Node13 -->
<g id="edge13_Node000002_Node000013" class="edge">
<title>Node2&#45;&gt;Node13</title>
<g id="a_edge13_Node000002_Node000013"><a xlink:title=" ">
<path fill="none" stroke="#63b8ff" d="M2126.42,-205.66C1961.19,-202.92 1501.82,-192.6 1441.39,-162 1407.3,-144.74 1383.47,-103.03 1374.42,-85.02"/>
<polygon fill="#63b8ff" stroke="#63b8ff" points="2126.81,-209.16 2136.87,-205.83 2126.92,-202.16 2126.81,-209.16"/>
</a>
</g>
</g>
<!-- Node14 -->
<g id="Node000014" class="node">
<title>Node14</title>
<g id="a_Node000014"><a xlink:href="../../d4/d78/math_8hpp.html" target="_top" xlink:title="Umbrella header for the math module.">
<polygon fill="white" stroke="#666666" points="1551.89,-156.5 1450.89,-156.5 1450.89,-137.5 1551.89,-137.5 1551.89,-156.5"/>
<text text-anchor="middle" x="1501.39" y="-144.5" font-family="Helvetica,sans-Serif" font-size="10.00">include/math.hpp</text>
</a>
</g>
</g>
<!-- Node2&#45;&gt;Node14 -->
<g id="edge15_Node000002_Node000014" class="edge">
<title>Node2&#45;&gt;Node14</title>
<g id="a_edge15_Node000002_Node000014"><a xlink:title=" ">
<path fill="none" stroke="#63b8ff" d="M2126.22,-205.39C2014.99,-202.62 1767.36,-193.18 1561.39,-162 1552.29,-160.62 1542.53,-158.59 1533.59,-156.5"/>
<polygon fill="#63b8ff" stroke="#63b8ff" points="2126.47,-208.9 2136.55,-205.64 2126.64,-201.9 2126.47,-208.9"/>
</a>
</g>
</g>
<!-- Node16 -->
<g id="Node000016" class="node">
<title>Node16</title>
<g id="a_Node000016"><a xlink:href="../../d6/d67/network_8hpp.html" target="_top" xlink:title="Umbrella header for the network module.">
<polygon fill="white" stroke="#666666" points="1686.39,-156.5 1570.39,-156.5 1570.39,-137.5 1686.39,-137.5 1686.39,-156.5"/>
<text text-anchor="middle" x="1628.39" y="-144.5" font-family="Helvetica,sans-Serif" font-size="10.00">include/network.hpp</text>
</a>
</g>
</g>
<!-- Node2&#45;&gt;Node16 -->
<g id="edge19_Node000002_Node000016" class="edge">
<title>Node2&#45;&gt;Node16</title>
<g id="a_edge19_Node000002_Node000016"><a xlink:title=" ">
<path fill="none" stroke="#63b8ff" d="M2126.5,-203.01C2035,-197.17 1853.32,-183.83 1700.39,-162 1690.05,-160.52 1678.95,-158.56 1668.63,-156.57"/>
<polygon fill="#63b8ff" stroke="#63b8ff" points="2126.46,-206.52 2136.67,-203.66 2126.91,-199.53 2126.46,-206.52"/>
</a>
</g>
</g>
<!-- Node18 -->
<g id="Node000018" class="node">
<title>Node18</title>
<g id="a_Node000018"><a xlink:href="../../de/dd6/ui_8hpp.html" target="_top" xlink:title="Umbrella header for platform UI types.">
<polygon fill="white" stroke="#666666" points="1944.39,-85 1814.39,-85 1814.39,-66 1944.39,-66 1944.39,-85"/>
<text text-anchor="middle" x="1879.39" y="-73" font-family="Helvetica,sans-Serif" font-size="10.00">include/platform/ui.hpp</text>
</a>
</g>
</g>
<!-- Node2&#45;&gt;Node18 -->
<g id="edge22_Node000002_Node000018" class="edge">
<title>Node2&#45;&gt;Node18</title>
<g id="a_edge22_Node000002_Node000018"><a xlink:title=" ">
<path fill="none" stroke="#63b8ff" d="M2126.66,-205.01C2010.48,-201.46 1760.25,-190.54 1734.39,-162 1725.43,-152.12 1726.83,-142.98 1734.39,-132 1747.22,-113.35 1805.65,-95.27 1844.31,-85.05"/>
<polygon fill="#63b8ff" stroke="#63b8ff" points="2126.7,-208.51 2136.8,-205.31 2126.91,-201.52 2126.7,-208.51"/>
</a>
</g>
</g>
<!-- Node19 -->
<g id="Node000019" class="node">
<title>Node19</title>
<g id="a_Node000019"><a xlink:href="../../d6/d4b/render_8hpp.html" target="_top" xlink:title="Umbrella header for the render module.">
<polygon fill="white" stroke="#666666" points="1849.89,-156.5 1742.89,-156.5 1742.89,-137.5 1849.89,-137.5 1849.89,-156.5"/>
<text text-anchor="middle" x="1796.39" y="-144.5" font-family="Helvetica,sans-Serif" font-size="10.00">include/render.hpp</text>
</a>
</g>
</g>
<!-- Node2&#45;&gt;Node19 -->
<g id="edge24_Node000002_Node000019" class="edge">
<title>Node2&#45;&gt;Node19</title>
<g id="a_edge24_Node000002_Node000019"><a xlink:title=" ">
<path fill="none" stroke="#63b8ff" d="M2126.74,-199.98C2061.3,-192.36 1952.39,-178.65 1859.39,-162 1850.56,-160.42 1841.1,-158.46 1832.26,-156.51"/>
<polygon fill="#63b8ff" stroke="#63b8ff" points="2126.52,-203.48 2136.86,-201.15 2127.33,-196.53 2126.52,-203.48"/>
</a>
</g>
</g>
<!-- Node21 -->
<g id="Node000021" class="node">
<title>Node21</title>
<g id="a_Node000021"><a xlink:href="../../da/de0/core_8cpp.html" target="_top" xlink:title="Implementation of toy::initialize() and toy::deInitialize() lifecycle functions.">
<polygon fill="white" stroke="#666666" points="1966.89,-156.5 1867.89,-156.5 1867.89,-137.5 1966.89,-137.5 1966.89,-156.5"/>
<text text-anchor="middle" x="1917.39" y="-144.5" font-family="Helvetica,sans-Serif" font-size="10.00">src/core/core.cpp</text>
</a>
</g>
</g>
<!-- Node2&#45;&gt;Node21 -->
<g id="edge28_Node000002_Node000021" class="edge">
<title>Node2&#45;&gt;Node21</title>
<g id="a_edge28_Node000002_Node000021"><a xlink:title=" ">
<path fill="none" stroke="#63b8ff" d="M2133.89,-195.88C2091.54,-187.07 2030,-174.07 1976.39,-162 1968.79,-160.29 1960.65,-158.4 1952.92,-156.57"/>
<polygon fill="#63b8ff" stroke="#63b8ff" points="2133.18,-199.31 2143.69,-197.92 2134.61,-192.46 2133.18,-199.31"/>
</a>
</g>
</g>
<!-- Node22 -->
<g id="Node000022" class="node">
<title>Node22</title>
<g id="a_Node000022"><a xlink:href="../../db/d2d/hashes_8cpp.html" target="_top" xlink:title="Table&#45;driven implementations of toy::crc8(), toy::crc16(), and toy::crc32().">
<polygon fill="white" stroke="#666666" points="2097.89,-156.5 1984.89,-156.5 1984.89,-137.5 2097.89,-137.5 2097.89,-156.5"/>
<text text-anchor="middle" x="2041.39" y="-144.5" font-family="Helvetica,sans-Serif" font-size="10.00">src/core/hashes.cpp</text>
</a>
</g>
</g>
<!-- Node2&#45;&gt;Node22 -->
<g id="edge29_Node000002_Node000022" class="edge">
<title>Node2&#45;&gt;Node22</title>
<g id="a_edge29_Node000002_Node000022"><a xlink:title=" ">
<path fill="none" stroke="#63b8ff" d="M2154.82,-194.08C2127,-182.78 2086.68,-166.4 2062.35,-156.52"/>
<polygon fill="#63b8ff" stroke="#63b8ff" points="2153.86,-197.47 2164.45,-197.99 2156.5,-190.99 2153.86,-197.47"/>
</a>
</g>
</g>
<!-- Node23 -->
<g id="Node000023" class="node">
<title>Node23</title>
<g id="a_Node000023"><a xlink:href="../../d8/d34/log__backend_8cpp.html" target="_top" xlink:title="Implementation of toy::log::Backend lifecycle, sink, and timestamp&#45;policy accessors.">
<polygon fill="white" stroke="#666666" points="2254.89,-156.5 2115.89,-156.5 2115.89,-137.5 2254.89,-137.5 2254.89,-156.5"/>
<text text-anchor="middle" x="2185.39" y="-144.5" font-family="Helvetica,sans-Serif" font-size="10.00">src/core/log_backend.cpp</text>
</a>
</g>
</g>
<!-- Node2&#45;&gt;Node23 -->
<g id="edge30_Node000002_Node000023" class="edge">
<title>Node2&#45;&gt;Node23</title>
<g id="a_edge30_Node000002_Node000023"><a xlink:title=" ">
<path fill="none" stroke="#63b8ff" d="M2185.39,-187.66C2185.39,-177.24 2185.39,-164.8 2185.39,-156.67"/>
<polygon fill="#63b8ff" stroke="#63b8ff" points="2181.89,-187.87 2185.39,-197.87 2188.89,-187.87 2181.89,-187.87"/>
</a>
</g>
</g>
<!-- Node24 -->
<g id="Node000024" class="node">
<title>Node24</title>
<g id="a_Node000024"><a xlink:href="../../d2/d51/log__sink_8cpp.html" target="_top" xlink:title="Out&#45;of&#45;line definitions for toy::log::ISink.">
<polygon fill="white" stroke="#666666" points="2391.89,-156.5 2272.89,-156.5 2272.89,-137.5 2391.89,-137.5 2391.89,-156.5"/>
<text text-anchor="middle" x="2332.39" y="-144.5" font-family="Helvetica,sans-Serif" font-size="10.00">src/core/log_sink.cpp</text>
</a>
</g>
</g>
<!-- Node2&#45;&gt;Node24 -->
<g id="edge31_Node000002_Node000024" class="edge">
<title>Node2&#45;&gt;Node24</title>
<g id="a_edge31_Node000002_Node000024"><a xlink:title=" ">
<path fill="none" stroke="#63b8ff" d="M2216.22,-194.23C2244.63,-182.92 2286.04,-166.44 2310.98,-156.52"/>
<polygon fill="#63b8ff" stroke="#63b8ff" points="2214.76,-191.04 2206.76,-197.99 2217.35,-197.55 2214.76,-191.04"/>
</a>
</g>
</g>
<!-- Node25 -->
<g id="Node000025" class="node">
<title>Node25</title>
<g id="a_Node000025"><a xlink:href="../../de/d06/utils_8cpp.html" target="_top" xlink:title="Definitions for string, encoding, and number utilities declared in core/utils.hpp.">
<polygon fill="white" stroke="#666666" points="2508.89,-156.5 2409.89,-156.5 2409.89,-137.5 2508.89,-137.5 2508.89,-156.5"/>
<text text-anchor="middle" x="2459.39" y="-144.5" font-family="Helvetica,sans-Serif" font-size="10.00">src/core/utils.cpp</text>
</a>
</g>
</g>
<!-- Node2&#45;&gt;Node25 -->
<g id="edge32_Node000002_Node000025" class="edge">
<title>Node2&#45;&gt;Node25</title>
<g id="a_edge32_Node000002_Node000025"><a xlink:title=" ">
<path fill="none" stroke="#63b8ff" d="M2238.78,-196.02C2282.56,-187.3 2346.1,-174.36 2401.39,-162 2408.97,-160.3 2417.08,-158.4 2424.77,-156.56"/>
<polygon fill="#63b8ff" stroke="#63b8ff" points="2238.04,-192.6 2228.92,-197.98 2239.41,-199.46 2238.04,-192.6"/>
</a>
</g>
</g>
<!-- Node26 -->
<g id="Node000026" class="node">
<title>Node26</title>
<g id="a_Node000026"><a xlink:href="../../df/de5/assertion__linux_8cpp.html" target="_top" xlink:title="Linux implementation of the toy::assertion crash handler and stack trace capture.">
<polygon fill="white" stroke="#666666" points="2665.39,-162 2527.39,-162 2527.39,-132 2665.39,-132 2665.39,-162"/>
<text text-anchor="start" x="2535.39" y="-150" font-family="Helvetica,sans-Serif" font-size="10.00">src/platforms/linux</text>
<text text-anchor="middle" x="2596.39" y="-139" font-family="Helvetica,sans-Serif" font-size="10.00">/core/assertion_linux.cpp</text>
</a>
</g>
</g>
<!-- Node2&#45;&gt;Node26 -->
<g id="edge33_Node000002_Node000026" class="edge">
<title>Node2&#45;&gt;Node26</title>
<g id="a_edge33_Node000002_Node000026"><a xlink:title=" ">
<path fill="none" stroke="#63b8ff" d="M2244.31,-199.43C2310.96,-191.26 2422.66,-176.98 2518.39,-162 2521.24,-161.55 2524.15,-161.09 2527.09,-160.6"/>
<polygon fill="#63b8ff" stroke="#63b8ff" points="2243.52,-196.01 2234.01,-200.69 2244.37,-202.95 2243.52,-196.01"/>
</a>
</g>
</g>
<!-- Node27 -->
<g id="Node000027" class="node">
<title>Node27</title>
<g id="a_Node000027"><a xlink:href="../../d5/d5a/assertion__macos_8cpp.html" target="_top" xlink:title="macOS implementation of the toy::assertion crash handler and stack trace capture.">
<polygon fill="white" stroke="#666666" points="2829.39,-162 2683.39,-162 2683.39,-132 2829.39,-132 2829.39,-162"/>
<text text-anchor="start" x="2691.39" y="-150" font-family="Helvetica,sans-Serif" font-size="10.00">src/platforms/macos</text>
<text text-anchor="middle" x="2756.39" y="-139" font-family="Helvetica,sans-Serif" font-size="10.00">/core/assertion_macos.cpp</text>
</a>
</g>
</g>
<!-- Node2&#45;&gt;Node27 -->
<g id="edge34_Node000002_Node000027" class="edge">
<title>Node2&#45;&gt;Node27</title>
<g id="a_edge34_Node000002_Node000027"><a xlink:title=" ">
<path fill="none" stroke="#63b8ff" d="M2244.34,-202.63C2336.39,-196.26 2519.74,-182.21 2674.39,-162 2677.25,-161.63 2680.17,-161.22 2683.11,-160.8"/>
<polygon fill="#63b8ff" stroke="#63b8ff" points="2243.85,-199.16 2234.11,-203.34 2244.33,-206.14 2243.85,-199.16"/>
</a>
</g>
</g>
<!-- Node28 -->
<g id="Node000028" class="node">
<title>Node28</title>
<g id="a_Node000028"><a xlink:href="../../d6/d79/clock__source__posix_8cpp.html" target="_top" xlink:title="Implementation of toy::chrono::ClockSource and toy::chrono::SteadyClock for POSIX.">
<polygon fill="white" stroke="#666666" points="3005.39,-162 2847.39,-162 2847.39,-132 3005.39,-132 3005.39,-162"/>
<text text-anchor="start" x="2855.39" y="-150" font-family="Helvetica,sans-Serif" font-size="10.00">src/platforms/posix</text>
<text text-anchor="middle" x="2926.39" y="-139" font-family="Helvetica,sans-Serif" font-size="10.00">/core/clock_source_posix.cpp</text>
</a>
</g>
</g>
<!-- Node2&#45;&gt;Node28 -->
<g id="edge35_Node000002_Node000028" class="edge">
<title>Node2&#45;&gt;Node28</title>
<g id="a_edge35_Node000002_Node000028"><a xlink:title=" ">
<path fill="none" stroke="#63b8ff" d="M2244.58,-204.25C2359.4,-199.48 2620.23,-186.74 2838.39,-162 2841.31,-161.67 2844.28,-161.31 2847.28,-160.93"/>
<polygon fill="#63b8ff" stroke="#63b8ff" points="2244.11,-200.76 2234.26,-204.67 2244.4,-207.76 2244.11,-200.76"/>
</a>
</g>
</g>
<!-- Node29 -->
<g id="Node000029" class="node">
<title>Node29</title>
<g id="a_Node000029"><a xlink:href="../../db/d09/system__clock__posix_8cpp.html" target="_top" xlink:title="Implementation of toy::chrono::SystemClock for POSIX.">
<polygon fill="white" stroke="#666666" points="3185.39,-162 3023.39,-162 3023.39,-132 3185.39,-132 3185.39,-162"/>
<text text-anchor="start" x="3031.39" y="-150" font-family="Helvetica,sans-Serif" font-size="10.00">src/platforms/posix</text>
<text text-anchor="middle" x="3104.39" y="-139" font-family="Helvetica,sans-Serif" font-size="10.00">/core/system_clock_posix.cpp</text>
</a>
</g>
</g>
<!-- Node2&#45;&gt;Node29 -->
<g id="edge36_Node000002_Node000029" class="edge">
<title>Node2&#45;&gt;Node29</title>
<g id="a_edge36_Node000002_Node000029"><a xlink:title=" ">
<path fill="none" stroke="#63b8ff" d="M2244.31,-205.37C2380.32,-202.33 2726.58,-192.03 3014.39,-162 3017.22,-161.7 3020.09,-161.38 3023,-161.04"/>
<polygon fill="#63b8ff" stroke="#63b8ff" points="2244.03,-201.88 2234.11,-205.6 2244.18,-208.88 2244.03,-201.88"/>
</a>
</g>
</g>
<!-- Node30 -->
<g id="Node000030" class="node">
<title>Node30</title>
<g id="a_Node000030"><a xlink:href="../../d7/d90/assertion__stub_8cpp.html" target="_top" xlink:title="Stub definitions for the assertion callback API declared in core/assertion.hpp.">
<polygon fill="white" stroke="#666666" points="3338.89,-162 3203.89,-162 3203.89,-132 3338.89,-132 3338.89,-162"/>
<text text-anchor="start" x="3211.89" y="-150" font-family="Helvetica,sans-Serif" font-size="10.00">src/platforms/stub</text>
<text text-anchor="middle" x="3271.39" y="-139" font-family="Helvetica,sans-Serif" font-size="10.00">/core/assertion_stub.cpp</text>
</a>
</g>
</g>
<!-- Node2&#45;&gt;Node30 -->
<g id="edge37_Node000002_Node000030" class="edge">
<title>Node2&#45;&gt;Node30</title>
<g id="a_edge37_Node000002_Node000030"><a xlink:title=" ">
<path fill="none" stroke="#63b8ff" d="M2244.43,-206.69C2400.24,-206.59 2835.2,-202.39 3194.39,-162 3197.49,-161.65 3200.66,-161.25 3203.86,-160.81"/>
<polygon fill="#63b8ff" stroke="#63b8ff" points="2244.13,-203.19 2234.13,-206.69 2244.14,-210.19 2244.13,-203.19"/>
</a>
</g>
</g>
<!-- Node31 -->
<g id="Node000031" class="node">
<title>Node31</title>
<g id="a_Node000031"><a xlink:href="../../d4/dbf/clock__source__stub_8cpp.html" target="_top" xlink:title="Stub implementations of toy::chrono::ClockSource, toy::chrono::SteadyClock, and toy::chrono::SystemCl...">
<polygon fill="white" stroke="#666666" points="3509.89,-162 3356.89,-162 3356.89,-132 3509.89,-132 3509.89,-162"/>
<text text-anchor="start" x="3364.89" y="-150" font-family="Helvetica,sans-Serif" font-size="10.00">src/platforms/stub</text>
<text text-anchor="middle" x="3433.39" y="-139" font-family="Helvetica,sans-Serif" font-size="10.00">/core/clock_source_stub.cpp</text>
</a>
</g>
</g>
<!-- Node2&#45;&gt;Node31 -->
<g id="edge38_Node000002_Node000031" class="edge">
<title>Node2&#45;&gt;Node31</title>
<g id="a_edge38_Node000002_Node000031"><a xlink:title=" ">
<path fill="none" stroke="#63b8ff" d="M2244.04,-206.84C2414.86,-207.28 2926.54,-204.64 3348.39,-162 3351.06,-161.73 3353.79,-161.43 3356.53,-161.1"/>
<polygon fill="#63b8ff" stroke="#63b8ff" points="2244.02,-203.34 2234.01,-206.81 2244,-210.34 2244.02,-203.34"/>
</a>
</g>
</g>
<!-- Node32 -->
<g id="Node000032" class="node">
<title>Node32</title>
<g id="a_Node000032"><a xlink:href="../../d0/db3/clock__source__windows_8cpp.html" target="_top" xlink:title="Implementation of toy::chrono::ClockSource and toy::chrono::SteadyClock for Windows.">
<polygon fill="white" stroke="#666666" points="3702.89,-162 3527.89,-162 3527.89,-132 3702.89,-132 3702.89,-162"/>
<text text-anchor="start" x="3535.89" y="-150" font-family="Helvetica,sans-Serif" font-size="10.00">src/platforms/windows</text>
<text text-anchor="middle" x="3615.39" y="-139" font-family="Helvetica,sans-Serif" font-size="10.00">/core/clock_source_windows.cpp</text>
</a>
</g>
</g>
<!-- Node2&#45;&gt;Node32 -->
<g id="edge39_Node000002_Node000032" class="edge">
<title>Node2&#45;&gt;Node32</title>
<g id="a_edge39_Node000002_Node000032"><a xlink:title=" ">
<path fill="none" stroke="#63b8ff" d="M2244.11,-206.87C2430.88,-207.56 3027.83,-205.9 3519.39,-162 3522.15,-161.75 3524.96,-161.48 3527.8,-161.18"/>
<polygon fill="#63b8ff" stroke="#63b8ff" points="2243.98,-203.37 2233.96,-206.83 2243.95,-210.37 2243.98,-203.37"/>
</a>
</g>
</g>
<!-- Node33 -->
<g id="Node000033" class="node">
<title>Node33</title>
<g id="a_Node000033"><a xlink:href="../../d4/d3a/system__clock__windows_8cpp.html" target="_top" xlink:title="Implementation of toy::chrono::SystemClock for Windows.">
<polygon fill="white" stroke="#666666" points="3899.89,-162 3720.89,-162 3720.89,-132 3899.89,-132 3899.89,-162"/>
<text text-anchor="start" x="3728.89" y="-150" font-family="Helvetica,sans-Serif" font-size="10.00">src/platforms/windows</text>
<text text-anchor="middle" x="3810.39" y="-139" font-family="Helvetica,sans-Serif" font-size="10.00">/core/system_clock_windows.cpp</text>
</a>
</g>
</g>
<!-- Node2&#45;&gt;Node33 -->
<g id="edge40_Node000002_Node000033" class="edge">
<title>Node2&#45;&gt;Node33</title>
<g id="a_edge40_Node000002_Node000033"><a xlink:title=" ">
<path fill="none" stroke="#63b8ff" d="M2244.13,-205.68C2487.71,-202.12 3419.32,-187.12 3712.39,-162 3715.13,-161.77 3717.91,-161.5 3720.71,-161.22"/>
<polygon fill="#63b8ff" stroke="#63b8ff" points="2244.01,-202.18 2234.06,-205.82 2244.11,-209.18 2244.01,-202.18"/>
</a>
</g>
</g>
<!-- Node3&#45;&gt;Node4 -->
<g id="edge3_Node000003_Node000004" class="edge">
<title>Node3&#45;&gt;Node4</title>
<g id="a_edge3_Node000003_Node000004"><a xlink:title=" ">
<path fill="none" stroke="#63b8ff" d="M472.97,-144.52C332.01,-140.96 40,-129.58 9.39,-96 -2.89,-82.53 -3.3,-68.08 9.39,-55 33.81,-29.81 1121.17,-14.61 1390.51,-11.22"/>
<polygon fill="#63b8ff" stroke="#63b8ff" points="473.18,-148.02 483.26,-144.77 473.35,-141.03 473.18,-148.02"/>
</a>
</g>
</g>
<!-- Node5 -->
<g id="Node000005" class="node">
<title>Node5</title>
<g id="a_Node000005"><a xlink:href="../../db/db6/console__application_8cpp.html" target="_top" xlink:title="Implementations for toy::application::ConsoleApplication.">
<polygon fill="white" stroke="#666666" points="146.39,-90.5 18.39,-90.5 18.39,-60.5 146.39,-60.5 146.39,-90.5"/>
<text text-anchor="start" x="26.39" y="-78.5" font-family="Helvetica,sans-Serif" font-size="10.00">src/application/console</text>
<text text-anchor="middle" x="82.39" y="-67.5" font-family="Helvetica,sans-Serif" font-size="10.00">_application.cpp</text>
</a>
</g>
</g>
<!-- Node3&#45;&gt;Node5 -->
<g id="edge4_Node000003_Node000005" class="edge">
<title>Node3&#45;&gt;Node5</title>
<g id="a_edge4_Node000003_Node000005"><a xlink:title=" ">
<path fill="none" stroke="#63b8ff" d="M472.88,-139.44C393.4,-131.82 264.87,-117.49 155.39,-96 147.53,-94.46 139.28,-92.55 131.26,-90.52"/>
<polygon fill="#63b8ff" stroke="#63b8ff" points="473,-142.96 483.28,-140.42 473.66,-135.99 473,-142.96"/>
</a>
</g>
</g>
<!-- Node6 -->
<g id="Node000006" class="node">
<title>Node6</title>
<g id="a_Node000006"><a xlink:href="../../d0/dbb/core__application_8cpp.html" target="_top" xlink:title="Implementations for toy::application::CoreApplication.">
<polygon fill="white" stroke="#666666" points="276.39,-90.5 164.39,-90.5 164.39,-60.5 276.39,-60.5 276.39,-90.5"/>
<text text-anchor="start" x="172.39" y="-78.5" font-family="Helvetica,sans-Serif" font-size="10.00">src/application/core</text>
<text text-anchor="middle" x="220.39" y="-67.5" font-family="Helvetica,sans-Serif" font-size="10.00">_application.cpp</text>
</a>
</g>
</g>
<!-- Node3&#45;&gt;Node6 -->
<g id="edge5_Node000003_Node000006" class="edge">
<title>Node3&#45;&gt;Node6</title>
<g id="a_edge5_Node000003_Node000006"><a xlink:title=" ">
<path fill="none" stroke="#63b8ff" d="M484.61,-135.78C431.11,-126.75 352.83,-112.48 285.39,-96 278.75,-94.38 271.78,-92.49 264.98,-90.54"/>
<polygon fill="#63b8ff" stroke="#63b8ff" points="484.2,-139.26 494.64,-137.46 485.36,-132.36 484.2,-139.26"/>
</a>
</g>
</g>
<!-- Node7 -->
<g id="Node000007" class="node">
<title>Node7</title>
<g id="a_Node000007"><a xlink:href="../../d0/d8a/core__application__linux_8cpp.html" target="_top" xlink:title="Linux implementations of toy::application::CoreApplication via POSIX APIs.">
<polygon fill="white" stroke="#666666" points="451.89,-96 294.89,-96 294.89,-55 451.89,-55 451.89,-96"/>
<text text-anchor="start" x="302.89" y="-84" font-family="Helvetica,sans-Serif" font-size="10.00">src/platforms/linux</text>
<text text-anchor="start" x="302.89" y="-73" font-family="Helvetica,sans-Serif" font-size="10.00">/application/core_application</text>
<text text-anchor="middle" x="373.39" y="-62" font-family="Helvetica,sans-Serif" font-size="10.00">_linux.cpp</text>
</a>
</g>
</g>
<!-- Node3&#45;&gt;Node7 -->
<g id="edge6_Node000003_Node000007" class="edge">
<title>Node3&#45;&gt;Node7</title>
<g id="a_edge6_Node000003_Node000007"><a xlink:title=" ">
<path fill="none" stroke="#63b8ff" d="M517.48,-133.73C491.21,-123.29 453.02,-108.13 422.55,-96.03"/>
<polygon fill="#63b8ff" stroke="#63b8ff" points="516.34,-137.04 526.93,-137.48 518.93,-130.53 516.34,-137.04"/>
</a>
</g>
</g>
<!-- Node8 -->
<g id="Node000008" class="node">
<title>Node8</title>
<g id="a_Node000008"><a xlink:href="../../d8/d89/core__application__macos_8cpp.html" target="_top" xlink:title="macOS implementations of toy::application::CoreApplication via POSIX APIs.">
<polygon fill="white" stroke="#666666" points="626.89,-96 469.89,-96 469.89,-55 626.89,-55 626.89,-96"/>
<text text-anchor="start" x="477.89" y="-84" font-family="Helvetica,sans-Serif" font-size="10.00">src/platforms/macos</text>
<text text-anchor="start" x="477.89" y="-73" font-family="Helvetica,sans-Serif" font-size="10.00">/application/core_application</text>
<text text-anchor="middle" x="548.39" y="-62" font-family="Helvetica,sans-Serif" font-size="10.00">_macos.cpp</text>
</a>
</g>
</g>
<!-- Node3&#45;&gt;Node8 -->
<g id="edge7_Node000003_Node000008" class="edge">
<title>Node3&#45;&gt;Node8</title>
<g id="a_edge7_Node000003_Node000008"><a xlink:title=" ">
<path fill="none" stroke="#63b8ff" d="M548.39,-127.38C548.39,-117.74 548.39,-105.96 548.39,-96.17"/>
<polygon fill="#63b8ff" stroke="#63b8ff" points="544.89,-127.48 548.39,-137.48 551.89,-127.48 544.89,-127.48"/>
</a>
</g>
</g>
<!-- Node9 -->
<g id="Node000009" class="node">
<title>Node9</title>
<g id="a_Node000009"><a xlink:href="../../db/da8/core__application__stub_8cpp.html" target="_top" xlink:title="Stub implementation of toy::application::CoreApplication::sleep() for platforms without OS sleep supp...">
<polygon fill="white" stroke="#666666" points="801.89,-96 644.89,-96 644.89,-55 801.89,-55 801.89,-96"/>
<text text-anchor="start" x="652.89" y="-84" font-family="Helvetica,sans-Serif" font-size="10.00">src/platforms/stub</text>
<text text-anchor="start" x="652.89" y="-73" font-family="Helvetica,sans-Serif" font-size="10.00">/application/core_application</text>
<text text-anchor="middle" x="723.39" y="-62" font-family="Helvetica,sans-Serif" font-size="10.00">_stub.cpp</text>
</a>
</g>
</g>
<!-- Node3&#45;&gt;Node9 -->
<g id="edge8_Node000003_Node000009" class="edge">
<title>Node3&#45;&gt;Node9</title>
<g id="a_edge8_Node000003_Node000009"><a xlink:title=" ">
<path fill="none" stroke="#63b8ff" d="M579.29,-133.73C605.56,-123.29 643.75,-108.13 674.22,-96.03"/>
<polygon fill="#63b8ff" stroke="#63b8ff" points="577.85,-130.53 569.84,-137.48 580.43,-137.04 577.85,-130.53"/>
</a>
</g>
</g>
<!-- Node10 -->
<g id="Node000010" class="node">
<title>Node10</title>
<g id="a_Node000010"><a xlink:href="../../df/dd0/console__application__windows_8cpp.html" target="_top" xlink:title="Windows console entry&#45;point argument conversion from UTF&#45;16 to UTF&#45;8.">
<polygon fill="white" stroke="#666666" points="964.39,-96 820.39,-96 820.39,-55 964.39,-55 964.39,-96"/>
<text text-anchor="start" x="828.39" y="-84" font-family="Helvetica,sans-Serif" font-size="10.00">src/platforms/windows</text>
<text text-anchor="start" x="828.39" y="-73" font-family="Helvetica,sans-Serif" font-size="10.00">/application/console</text>
<text text-anchor="middle" x="892.39" y="-62" font-family="Helvetica,sans-Serif" font-size="10.00">_application_windows.cpp</text>
</a>
</g>
</g>
<!-- Node3&#45;&gt;Node10 -->
<g id="edge9_Node000003_Node000010" class="edge">
<title>Node3&#45;&gt;Node10</title>
<g id="a_edge9_Node000003_Node000010"><a xlink:title=" ">
<path fill="none" stroke="#63b8ff" d="M606.74,-135.64C659.93,-126.01 740.62,-110.94 810.39,-96 813.53,-95.33 816.75,-94.62 819.99,-93.9"/>
<polygon fill="#63b8ff" stroke="#63b8ff" points="606.02,-132.21 596.81,-137.43 607.27,-139.1 606.02,-132.21"/>
</a>
</g>
</g>
<!-- Node11 -->
<g id="Node000011" class="node">
<title>Node11</title>
<g id="a_Node000011"><a xlink:href="../../dc/d2d/core__application__windows_8cpp.html" target="_top" xlink:title="Windows implementations of toy::application::CoreApplication via Win32 APIs.">
<polygon fill="white" stroke="#666666" points="1139.89,-96 982.89,-96 982.89,-55 1139.89,-55 1139.89,-96"/>
<text text-anchor="start" x="990.89" y="-84" font-family="Helvetica,sans-Serif" font-size="10.00">src/platforms/windows</text>
<text text-anchor="start" x="990.89" y="-73" font-family="Helvetica,sans-Serif" font-size="10.00">/application/core_application</text>
<text text-anchor="middle" x="1061.39" y="-62" font-family="Helvetica,sans-Serif" font-size="10.00">_windows.cpp</text>
</a>
</g>
</g>
<!-- Node3&#45;&gt;Node11 -->
<g id="edge10_Node000003_Node000011" class="edge">
<title>Node3&#45;&gt;Node11</title>
<g id="a_edge10_Node000003_Node000011"><a xlink:title=" ">
<path fill="none" stroke="#63b8ff" d="M623.58,-139.47C708.77,-131.53 851.61,-116.6 973.39,-96 976.47,-95.48 979.61,-94.92 982.78,-94.33"/>
<polygon fill="#63b8ff" stroke="#63b8ff" points="623.11,-136 613.48,-140.4 623.76,-142.97 623.11,-136"/>
</a>
</g>
</g>
<!-- Node12&#45;&gt;Node4 -->
<g id="edge12_Node000012_Node000004" class="edge">
<title>Node12&#45;&gt;Node4</title>
<g id="a_edge12_Node000012_Node000004"><a xlink:title=" ">
<path fill="none" stroke="#63b8ff" d="M1284.71,-62.86C1292.83,-60.27 1301.4,-57.54 1309.39,-55 1349.02,-42.41 1394.95,-27.93 1423.35,-19"/>
<polygon fill="#63b8ff" stroke="#63b8ff" points="1283.56,-59.56 1275.1,-65.94 1285.69,-66.22 1283.56,-59.56"/>
</a>
</g>
</g>
<!-- Node13&#45;&gt;Node4 -->
<g id="edge14_Node000013_Node000004" class="edge">
<title>Node13&#45;&gt;Node4</title>
<g id="a_edge14_Node000013_Node000004"><a xlink:title=" ">
<path fill="none" stroke="#63b8ff" d="M1389.15,-59.49C1404.81,-46.96 1426.59,-29.54 1439.51,-19.2"/>
<polygon fill="#63b8ff" stroke="#63b8ff" points="1386.8,-56.89 1381.17,-65.87 1391.17,-62.35 1386.8,-56.89"/>
</a>
</g>
</g>
<!-- Node14&#45;&gt;Node4 -->
<g id="edge18_Node000014_Node000004" class="edge">
<title>Node14&#45;&gt;Node4</title>
<g id="a_edge18_Node000014_Node000004"><a xlink:title=" ">
<path fill="none" stroke="#63b8ff" d="M1488.39,-129.01C1481.83,-119.71 1474.25,-107.71 1469.39,-96 1458.24,-69.18 1453.15,-34.79 1451.28,-19.05"/>
<polygon fill="#63b8ff" stroke="#63b8ff" points="1485.74,-131.32 1494.47,-137.32 1491.38,-127.18 1485.74,-131.32"/>
</a>
</g>
</g>
<!-- Node15 -->
<g id="Node000015" class="node">
<title>Node15</title>
<g id="a_Node000015"><a xlink:href="../../db/dbb/geometry_8hpp.html" target="_top" xlink:title="Umbrella header for the geometry module.">
<polygon fill="white" stroke="#666666" points="1600.39,-85 1478.39,-85 1478.39,-66 1600.39,-66 1600.39,-85"/>
<text text-anchor="middle" x="1539.39" y="-73" font-family="Helvetica,sans-Serif" font-size="10.00">include/geometry.hpp</text>
</a>
</g>
</g>
<!-- Node14&#45;&gt;Node15 -->
<g id="edge16_Node000014_Node000015" class="edge">
<title>Node14&#45;&gt;Node15</title>
<g id="a_edge16_Node000014_Node000015"><a xlink:title=" ">
<path fill="none" stroke="#63b8ff" d="M1510.99,-128.43C1518.56,-114.58 1528.8,-95.86 1534.69,-85.09"/>
<polygon fill="#63b8ff" stroke="#63b8ff" points="1507.77,-127.02 1506.05,-137.48 1513.91,-130.38 1507.77,-127.02"/>
</a>
</g>
</g>
<!-- Node15&#45;&gt;Node4 -->
<g id="edge17_Node000015_Node000004" class="edge">
<title>Node15&#45;&gt;Node4</title>
<g id="a_edge17_Node000015_Node000004"><a xlink:title=" ">
<path fill="none" stroke="#63b8ff" d="M1518.99,-59.83C1501.53,-47.28 1476.99,-29.63 1462.48,-19.2"/>
<polygon fill="#63b8ff" stroke="#63b8ff" points="1517.22,-62.87 1527.38,-65.87 1521.31,-57.19 1517.22,-62.87"/>
</a>
</g>
</g>
<!-- Node16&#45;&gt;Node4 -->
<g id="edge20_Node000016_Node000004" class="edge">
<title>Node16&#45;&gt;Node4</title>
<g id="a_edge20_Node000016_Node000004"><a xlink:title=" ">
<path fill="none" stroke="#63b8ff" d="M1629.78,-127.22C1630.22,-106.81 1627.62,-74.5 1609.39,-55 1584.03,-27.89 1543.64,-16.82 1509.92,-12.5"/>
<polygon fill="#63b8ff" stroke="#63b8ff" points="1626.27,-127.27 1629.28,-137.43 1633.27,-127.61 1626.27,-127.27"/>
</a>
</g>
</g>
<!-- Node17 -->
<g id="Node000017" class="node">
<title>Node17</title>
<g id="a_Node000017"><a xlink:href="../../d3/d80/endpoint_8cpp.html" target="_top" xlink:title="Definitions for the toy::network::Endpoint destructor declared in network/endpoint....">
<polygon fill="white" stroke="#666666" points="1796.39,-85 1656.39,-85 1656.39,-66 1796.39,-66 1796.39,-85"/>
<text text-anchor="middle" x="1726.39" y="-73" font-family="Helvetica,sans-Serif" font-size="10.00">src/network/endpoint.cpp</text>
</a>
</g>
</g>
<!-- Node16&#45;&gt;Node17 -->
<g id="edge21_Node000016_Node000017" class="edge">
<title>Node16&#45;&gt;Node17</title>
<g id="a_edge21_Node000016_Node000017"><a xlink:title=" ">
<path fill="none" stroke="#63b8ff" d="M1648.73,-131.57C1668.52,-117.54 1697.91,-96.7 1714.27,-85.09"/>
<polygon fill="#63b8ff" stroke="#63b8ff" points="1646.53,-128.84 1640.4,-137.48 1650.58,-134.55 1646.53,-128.84"/>
</a>
</g>
</g>
<!-- Node18&#45;&gt;Node4 -->
<g id="edge23_Node000018_Node000004" class="edge">
<title>Node18&#45;&gt;Node4</title>
<g id="a_edge23_Node000018_Node000004"><a xlink:title=" ">
<path fill="none" stroke="#63b8ff" d="M1840.45,-63.2C1829.21,-60.22 1816.87,-57.22 1805.39,-55 1702.48,-35.08 1580.99,-22.09 1510.13,-15.54"/>
<polygon fill="#63b8ff" stroke="#63b8ff" points="1839.85,-66.67 1850.42,-65.91 1841.69,-59.91 1839.85,-66.67"/>
</a>
</g>
</g>
<!-- Node19&#45;&gt;Node4 -->
<g id="edge25_Node000019_Node000004" class="edge">
<title>Node19&#45;&gt;Node4</title>
<g id="a_edge25_Node000019_Node000004"><a xlink:title=" ">
<path fill="none" stroke="#63b8ff" d="M1840.17,-134.88C1884.17,-123.27 1946.47,-105.45 1953.39,-96 1964.14,-81.29 1965.69,-68.44 1953.39,-55 1923.97,-22.87 1637.05,-13.81 1510.19,-11.36"/>
<polygon fill="#63b8ff" stroke="#63b8ff" points="1839.04,-131.56 1830.25,-137.48 1840.81,-138.33 1839.04,-131.56"/>
</a>
</g>
</g>
<!-- Node20 -->
<g id="Node000020" class="node">
<title>Node20</title>
<g id="a_Node000020"><a xlink:href="../../db/d3d/pixel__format_8cpp.html" target="_top" xlink:title="Definitions for pixelFormatName() and pixelFormatFromName() declared in render/pixel_format....">
<polygon fill="white" stroke="#666666" points="2150.39,-85 2000.39,-85 2000.39,-66 2150.39,-66 2150.39,-85"/>
<text text-anchor="middle" x="2075.39" y="-73" font-family="Helvetica,sans-Serif" font-size="10.00">src/render/pixel_format.cpp</text>
</a>
</g>
</g>
<!-- Node19&#45;&gt;Node20 -->
<g id="edge26_Node000019_Node000020" class="edge">
<title>Node19&#45;&gt;Node20</title>
<g id="a_edge26_Node000019_Node000020"><a xlink:title=" ">
<path fill="none" stroke="#63b8ff" d="M1840.5,-135.01C1896.05,-121.17 1990.32,-97.69 2040.89,-85.09"/>
<polygon fill="#63b8ff" stroke="#63b8ff" points="1839.45,-131.66 1830.6,-137.48 1841.15,-138.46 1839.45,-131.66"/>
</a>
</g>
</g>
</g>
</svg>
