<?xml version="1.0" encoding="UTF-8" standalone="no"?>
<!DOCTYPE svg PUBLIC "-//W3C//DTD SVG 1.1//EN"
 "http://www.w3.org/Graphics/SVG/1.1/DTD/svg11.dtd">
<!-- Generated by graphviz version 2.43.0 (0)
 -->
<!-- Title: include/core/utils.inl Pages: 1 -->
<!--zoomable 280 -->

<svg id="main" version="1.1" xmlns="http://www.w3.org/2000/svg" xmlns:xlink="http://www.w3.org/1999/xlink" xml:space="preserve" onload="init(evt)">

<style type="text/css"><![CDATA[
.node, .edge {opacity: 0.7;}
.node.selected, .edge.selected {opacity: 1;}
.edge:hover path { stroke: red; }
.edge:hover polygon { stroke: red; fill: red; }
]]></style>

<defs>
  <circle id="rim" cx="0" cy="0" r="7"/>
  <circle id="rim2" cx="0" cy="0" r="3.5"/>
  <g id="zoomPlus">
    <use xlink:href="#rim" fill="#404040"><set attributeName="fill" to="#808080" begin="zoomplus.mouseover" end="zoomplus.mouseout"/></use>
    <path d="M-4,0h8M0,-4v8" fill="none" stroke="white" stroke-width="1.5" pointer-events="none"/>
  </g>
  <g id="zoomMin">
    <use xlink:href="#rim" fill="#404040"><set attributeName="fill" to="#808080" begin="zoomminus.mouseover" end="zoomminus.mouseout"/></use>
    <path d="M-4,0h8" fill="none" stroke="white" stroke-width="1.5" pointer-events="none"/>
  </g>
  <g id="arrowUp" transform="translate(30 24)">
    <use xlink:href="#rim"/>
    <path pointer-events="none" fill="none" stroke="white" stroke-width="1.5" d="M0,-3.0v7 M-2.5,-0.5L0,-3.0L2.5,-0.5"/>
  </g>
  <g id="arrowRight" transform="rotate(90) translate(36 -43)">
    <use xlink:href="#rim"/>
    <path pointer-events="none" fill="none" stroke="white" stroke-width="1.5" d="M0,-3.0v7 M-2.5,-0.5L0,-3.0L2.5,-0.5"/>
  </g>
  <g id="arrowDown" transform="rotate(180) translate(-30 -48)">
    <use xlink:href="#rim"/>
    <path pointer-events="none" fill="none" stroke="white" stroke-width="1.5" d="M0,-3.0v7 M-2.5,-0.5L0,-3.0L2.5,-0.5"/>
  </g>
  <g id="arrowLeft" transform="rotate(270) translate(-36 17)">
    <use xlink:href="#rim"/>
    <path pointer-events="none" fill="none" stroke="white" stroke-width="1.5" d="M0,-3.0v7 M-2.5,-0.5L0,-3.0L2.5,-0.5"/>
  </g>
  <g id="resetDef">
    <use xlink:href="#rim2" fill="#404040"><set attributeName="fill" to="#808080" begin="reset.mouseover" end="reset.mouseout"/></use>
  </g>
</defs>
<script type="application/ecmascript">
var viewWidth = 2340;
var viewHeight = 280;
var sectionId = 'dynsection-0';
</script>
<script type="application/ecmascript" xlink:href="../../svg.min.js"/>
<svg id="graph" class="graph">
<g id="viewport">
<title>include/core/utils.inl</title>
<!-- Node1 -->
<g id="Node000001" class="node">
<title>Node1</title>
<g id="a_Node000001"><a xlink:title="Inline implementations for utilities declared in utils.hpp.">
<polygon fill="#999999" stroke="#666666" points="1474.77,-272 1359.77,-272 1359.77,-253 1474.77,-253 1474.77,-272"/>
<text text-anchor="middle" x="1417.27" y="-260" font-family="Helvetica,sans-Serif" font-size="10.00">include/core/utils.inl</text>
</a>
</g>
</g>
<!-- Node2 -->
<g id="Node000002" class="node">
<title>Node2</title>
<g id="a_Node000002"><a xlink:href="../../da/d47/core_8hpp.html" target="_top" xlink:title="Umbrella header for the engine core module.">
<polygon fill="white" stroke="#666666" points="1465.77,-217 1368.77,-217 1368.77,-198 1465.77,-198 1465.77,-217"/>
<text text-anchor="middle" x="1417.27" y="-205" font-family="Helvetica,sans-Serif" font-size="10.00">include/core.hpp</text>
</a>
</g>
</g>
<!-- Node1&#45;&gt;Node2 -->
<g id="edge1_Node000001_Node000002" class="edge">
<title>Node1&#45;&gt;Node2</title>
<g id="a_edge1_Node000001_Node000002"><a xlink:title=" ">
<path fill="none" stroke="#63b8ff" d="M1417.27,-242.66C1417.27,-233.93 1417.27,-223.99 1417.27,-217.09"/>
<polygon fill="#63b8ff" stroke="#63b8ff" points="1413.77,-242.75 1417.27,-252.75 1420.77,-242.75 1413.77,-242.75"/>
</a>
</g>
</g>
<!-- Node3 -->
<g id="Node000003" class="node">
<title>Node3</title>
<g id="a_Node000003"><a xlink:href="../../d4/d01/application_8hpp.html" target="_top" xlink:title="Umbrella header for the application module.">
<polygon fill="white" stroke="#666666" points="438.27,-156.5 308.27,-156.5 308.27,-137.5 438.27,-137.5 438.27,-156.5"/>
<text text-anchor="middle" x="373.27" y="-144.5" font-family="Helvetica,sans-Serif" font-size="10.00">include/application.hpp</text>
</a>
</g>
</g>
<!-- Node2&#45;&gt;Node3 -->
<g id="edge2_Node000002_Node000003" class="edge">
<title>Node2&#45;&gt;Node3</title>
<g id="a_edge2_Node000002_Node000003"><a xlink:title=" ">
<path fill="none" stroke="#63b8ff" d="M1358.53,-203.21C1177.31,-193.05 627.78,-162.26 438.31,-151.64"/>
<polygon fill="#63b8ff" stroke="#63b8ff" points="1358.48,-206.71 1368.66,-203.78 1358.87,-199.72 1358.48,-206.71"/>
</a>
</g>
</g>
<!-- Node4 -->
<g id="Node000004" class="node">
<title>Node4</title>
<g id="a_Node000004"><a xlink:href="../../d8/d8c/toygine2_8hpp.html" target="_top" xlink:title="Main umbrella header for the engine.">
<polygon fill="white" stroke="#666666" points="1171.77,-19 1052.77,-19 1052.77,0 1171.77,0 1171.77,-19"/>
<text text-anchor="middle" x="1112.27" y="-7" font-family="Helvetica,sans-Serif" font-size="10.00">include/toygine2.hpp</text>
</a>
</g>
</g>
<!-- Node2&#45;&gt;Node4 -->
<g id="edge25_Node000002_Node000004" class="edge">
<title>Node2&#45;&gt;Node4</title>
<g id="a_edge25_Node000002_Node000004"><a xlink:title=" ">
<path fill="none" stroke="#63b8ff" d="M1358.46,-205.17C1224.53,-200.67 904.15,-181.04 849.27,-96 839.38,-80.69 837.5,-68.92 849.27,-55 874.78,-24.8 983.26,-15.09 1052.68,-11.97"/>
<polygon fill="#63b8ff" stroke="#63b8ff" points="1358.43,-208.67 1368.54,-205.49 1358.66,-201.68 1358.43,-208.67"/>
</a>
</g>
</g>
<!-- Node10 -->
<g id="Node000010" class="node">
<title>Node10</title>
<g id="a_Node000010"><a xlink:href="../../d1/d71/audio_8hpp.html" target="_top" xlink:title="Umbrella header for the audio module.">
<polygon fill="white" stroke="#666666" points="961.77,-85 858.77,-85 858.77,-66 961.77,-66 961.77,-85"/>
<text text-anchor="middle" x="910.27" y="-73" font-family="Helvetica,sans-Serif" font-size="10.00">include/audio.hpp</text>
</a>
</g>
</g>
<!-- Node2&#45;&gt;Node10 -->
<g id="edge9_Node000002_Node000010" class="edge">
<title>Node2&#45;&gt;Node10</title>
<g id="a_edge9_Node000002_Node000010"><a xlink:title=" ">
<path fill="none" stroke="#63b8ff" d="M1358.66,-205.79C1287.58,-203.43 1164.91,-194.46 1065.27,-162 1007.7,-143.25 946.94,-102.73 922,-85.04"/>
<polygon fill="#63b8ff" stroke="#63b8ff" points="1358.66,-209.3 1368.76,-206.1 1358.87,-202.3 1358.66,-209.3"/>
</a>
</g>
</g>
<!-- Node11 -->
<g id="Node000011" class="node">
<title>Node11</title>
<g id="a_Node000011"><a xlink:href="../../d8/d39/game_8hpp.html" target="_top" xlink:title="Umbrella header for the game module.">
<polygon fill="white" stroke="#666666" points="1084.27,-85 980.27,-85 980.27,-66 1084.27,-66 1084.27,-85"/>
<text text-anchor="middle" x="1032.27" y="-73" font-family="Helvetica,sans-Serif" font-size="10.00">include/game.hpp</text>
</a>
</g>
</g>
<!-- Node2&#45;&gt;Node11 -->
<g id="edge11_Node000002_Node000011" class="edge">
<title>Node2&#45;&gt;Node11</title>
<g id="a_edge11_Node000002_Node000011"><a xlink:title=" ">
<path fill="none" stroke="#63b8ff" d="M1358.24,-203.19C1279.7,-197.94 1145.82,-185.76 1103.27,-162 1070.08,-143.47 1045.92,-102.83 1036.55,-85.08"/>
<polygon fill="#63b8ff" stroke="#63b8ff" points="1358.26,-206.7 1368.46,-203.86 1358.71,-199.72 1358.26,-206.7"/>
</a>
</g>
</g>
<!-- Node12 -->
<g id="Node000012" class="node">
<title>Node12</title>
<g id="a_Node000012"><a xlink:href="../../d4/d78/math_8hpp.html" target="_top" xlink:title="Umbrella header for the math module.">
<polygon fill="white" stroke="#666666" points="1213.77,-156.5 1112.77,-156.5 1112.77,-137.5 1213.77,-137.5 1213.77,-156.5"/>
<text text-anchor="middle" x="1163.27" y="-144.5" font-family="Helvetica,sans-Serif" font-size="10.00">include/math.hpp</text>
</a>
</g>
</g>
<!-- Node2&#45;&gt;Node12 -->
<g id="edge13_Node000002_Node000012" class="edge">
<title>Node2&#45;&gt;Node12</title>
<g id="a_edge13_Node000002_Node000012"><a xlink:title=" ">
<path fill="none" stroke="#63b8ff" d="M1369.87,-195.68C1330.58,-186.7 1273.28,-173.57 1223.27,-162 1215.66,-160.24 1207.51,-158.35 1199.75,-156.54"/>
<polygon fill="#63b8ff" stroke="#63b8ff" points="1369.17,-199.11 1379.7,-197.93 1370.73,-192.29 1369.17,-199.11"/>
</a>
</g>
</g>
<!-- Node14 -->
<g id="Node000014" class="node">
<title>Node14</title>
<g id="a_Node000014"><a xlink:href="../../d6/d67/network_8hpp.html" target="_top" xlink:title="Umbrella header for the network module.">
<polygon fill="white" stroke="#666666" points="1348.27,-156.5 1232.27,-156.5 1232.27,-137.5 1348.27,-137.5 1348.27,-156.5"/>
<text text-anchor="middle" x="1290.27" y="-144.5" font-family="Helvetica,sans-Serif" font-size="10.00">include/network.hpp</text>
</a>
</g>
</g>
<!-- Node2&#45;&gt;Node14 -->
<g id="edge17_Node000002_Node000014" class="edge">
<title>Node2&#45;&gt;Node14</title>
<g id="a_edge17_Node000002_Node000014"><a xlink:title=" ">
<path fill="none" stroke="#63b8ff" d="M1389.66,-193.78C1365.15,-182.49 1330.02,-166.31 1308.75,-156.52"/>
<polygon fill="#63b8ff" stroke="#63b8ff" points="1388.25,-196.99 1398.8,-197.99 1391.18,-190.63 1388.25,-196.99"/>
</a>
</g>
</g>
<!-- Node16 -->
<g id="Node000016" class="node">
<title>Node16</title>
<g id="a_Node000016"><a xlink:href="../../de/dd6/ui_8hpp.html" target="_top" xlink:title="Umbrella header for platform UI types.">
<polygon fill="white" stroke="#666666" points="1606.27,-85 1476.27,-85 1476.27,-66 1606.27,-66 1606.27,-85"/>
<text text-anchor="middle" x="1541.27" y="-73" font-family="Helvetica,sans-Serif" font-size="10.00">include/platform/ui.hpp</text>
</a>
</g>
</g>
<!-- Node2&#45;&gt;Node16 -->
<g id="edge20_Node000002_Node000016" class="edge">
<title>Node2&#45;&gt;Node16</title>
<g id="a_edge20_Node000002_Node000016"><a xlink:title=" ">
<path fill="none" stroke="#63b8ff" d="M1404.94,-189.54C1394.94,-173.51 1384.29,-149.4 1396.27,-132 1409.1,-113.35 1467.53,-95.27 1506.19,-85.05"/>
<polygon fill="#63b8ff" stroke="#63b8ff" points="1402.09,-191.58 1410.58,-197.93 1407.9,-187.68 1402.09,-191.58"/>
</a>
</g>
</g>
<!-- Node17 -->
<g id="Node000017" class="node">
<title>Node17</title>
<g id="a_Node000017"><a xlink:href="../../d6/d4b/render_8hpp.html" target="_top" xlink:title="Umbrella header for the render module.">
<polygon fill="white" stroke="#666666" points="1511.77,-156.5 1404.77,-156.5 1404.77,-137.5 1511.77,-137.5 1511.77,-156.5"/>
<text text-anchor="middle" x="1458.27" y="-144.5" font-family="Helvetica,sans-Serif" font-size="10.00">include/render.hpp</text>
</a>
</g>
</g>
<!-- Node2&#45;&gt;Node17 -->
<g id="edge22_Node000002_Node000017" class="edge">
<title>Node2&#45;&gt;Node17</title>
<g id="a_edge22_Node000002_Node000017"><a xlink:title=" ">
<path fill="none" stroke="#63b8ff" d="M1429.09,-189.63C1436.64,-178.85 1446.13,-165.32 1452.19,-156.67"/>
<polygon fill="#63b8ff" stroke="#63b8ff" points="1426.19,-187.67 1423.31,-197.87 1431.92,-191.69 1426.19,-187.67"/>
</a>
</g>
</g>
<!-- Node19 -->
<g id="Node000019" class="node">
<title>Node19</title>
<g id="a_Node000019"><a xlink:href="../../da/de0/core_8cpp.html" target="_top" xlink:title="Implementation of toy::initialize() and toy::deInitialize() lifecycle functions.">
<polygon fill="white" stroke="#666666" points="1628.77,-156.5 1529.77,-156.5 1529.77,-137.5 1628.77,-137.5 1628.77,-156.5"/>
<text text-anchor="middle" x="1579.27" y="-144.5" font-family="Helvetica,sans-Serif" font-size="10.00">src/core/core.cpp</text>
</a>
</g>
</g>
<!-- Node2&#45;&gt;Node19 -->
<g id="edge26_Node000002_Node000019" class="edge">
<title>Node2&#45;&gt;Node19</title>
<g id="a_edge26_Node000002_Node000019"><a xlink:title=" ">
<path fill="none" stroke="#63b8ff" d="M1450.43,-194.52C1481.75,-183.21 1527.95,-166.53 1555.68,-156.52"/>
<polygon fill="#63b8ff" stroke="#63b8ff" points="1449.04,-191.31 1440.82,-197.99 1451.42,-197.89 1449.04,-191.31"/>
</a>
</g>
</g>
<!-- Node20 -->
<g id="Node000020" class="node">
<title>Node20</title>
<g id="a_Node000020"><a xlink:href="../../db/d2d/hashes_8cpp.html" target="_top" xlink:title="Table&#45;driven implementations of toy::crc8(), toy::crc16(), and toy::crc32().">
<polygon fill="white" stroke="#666666" points="1759.77,-156.5 1646.77,-156.5 1646.77,-137.5 1759.77,-137.5 1759.77,-156.5"/>
<text text-anchor="middle" x="1703.27" y="-144.5" font-family="Helvetica,sans-Serif" font-size="10.00">src/core/hashes.cpp</text>
</a>
</g>
</g>
<!-- Node2&#45;&gt;Node20 -->
<g id="edge27_Node000002_Node000020" class="edge">
<title>Node2&#45;&gt;Node20</title>
<g id="a_edge27_Node000002_Node000020"><a xlink:title=" ">
<path fill="none" stroke="#63b8ff" d="M1470.57,-195.98C1515.35,-187.08 1581.04,-173.92 1638.27,-162 1646.63,-160.26 1655.59,-158.35 1664.1,-156.52"/>
<polygon fill="#63b8ff" stroke="#63b8ff" points="1469.62,-192.6 1460.49,-197.97 1470.98,-199.46 1469.62,-192.6"/>
</a>
</g>
</g>
<!-- Node21 -->
<g id="Node000021" class="node">
<title>Node21</title>
<g id="a_Node000021"><a xlink:href="../../d2/d51/log__sink_8cpp.html" target="_top" xlink:title="Out&#45;of&#45;line definitions for toy::log::ISink.">
<polygon fill="white" stroke="#666666" points="1896.77,-156.5 1777.77,-156.5 1777.77,-137.5 1896.77,-137.5 1896.77,-156.5"/>
<text text-anchor="middle" x="1837.27" y="-144.5" font-family="Helvetica,sans-Serif" font-size="10.00">src/core/log_sink.cpp</text>
</a>
</g>
</g>
<!-- Node2&#45;&gt;Node21 -->
<g id="edge28_Node000002_Node000021" class="edge">
<title>Node2&#45;&gt;Node21</title>
<g id="a_edge28_Node000002_Node000021"><a xlink:title=" ">
<path fill="none" stroke="#63b8ff" d="M1475.79,-200.5C1545.8,-193 1666.46,-179.06 1769.27,-162 1778.78,-160.42 1788.99,-158.46 1798.52,-156.52"/>
<polygon fill="#63b8ff" stroke="#63b8ff" points="1475.41,-197.02 1465.83,-201.56 1476.15,-203.98 1475.41,-197.02"/>
</a>
</g>
</g>
<!-- Node22 -->
<g id="Node000022" class="node">
<title>Node22</title>
<g id="a_Node000022"><a xlink:href="../../de/d06/utils_8cpp.html" target="_top" xlink:title="Definitions for string, encoding, and number utilities declared in core/utils.hpp.">
<polygon fill="white" stroke="#666666" points="2013.77,-156.5 1914.77,-156.5 1914.77,-137.5 2013.77,-137.5 2013.77,-156.5"/>
<text text-anchor="middle" x="1964.27" y="-144.5" font-family="Helvetica,sans-Serif" font-size="10.00">src/core/utils.cpp</text>
</a>
</g>
</g>
<!-- Node2&#45;&gt;Node22 -->
<g id="edge29_Node000002_Node000022" class="edge">
<title>Node2&#45;&gt;Node22</title>
<g id="a_edge29_Node000002_Node000022"><a xlink:title=" ">
<path fill="none" stroke="#63b8ff" d="M1476.04,-203.93C1568.23,-199.27 1752.19,-187.47 1906.27,-162 1914.85,-160.58 1924.05,-158.59 1932.53,-156.55"/>
<polygon fill="#63b8ff" stroke="#63b8ff" points="1475.62,-200.45 1465.8,-204.44 1475.96,-207.44 1475.62,-200.45"/>
</a>
</g>
</g>
<!-- Node23 -->
<g id="Node000023" class="node">
<title>Node23</title>
<g id="a_Node000023"><a xlink:href="../../d5/d5a/assertion__macos_8cpp.html" target="_top" xlink:title="macOS implementation of the toy::assertion crash handler and stack trace capture.">
<polygon fill="white" stroke="#666666" points="2178.27,-162 2032.27,-162 2032.27,-132 2178.27,-132 2178.27,-162"/>
<text text-anchor="start" x="2040.27" y="-150" font-family="Helvetica,sans-Serif" font-size="10.00">src/platforms/macos</text>
<text text-anchor="middle" x="2105.27" y="-139" font-family="Helvetica,sans-Serif" font-size="10.00">/core/assertion_macos.cpp</text>
</a>
</g>
</g>
<!-- Node2&#45;&gt;Node23 -->
<g id="edge30_Node000002_Node000023" class="edge">
<title>Node2&#45;&gt;Node23</title>
<g id="a_edge30_Node000002_Node000023"><a xlink:title=" ">
<path fill="none" stroke="#63b8ff" d="M1476.21,-204.05C1584.75,-199.12 1823.42,-186.34 2023.27,-162 2026.13,-161.65 2029.05,-161.27 2032,-160.87"/>
<polygon fill="#63b8ff" stroke="#63b8ff" points="1475.95,-200.56 1466.12,-204.5 1476.27,-207.55 1475.95,-200.56"/>
</a>
</g>
</g>
<!-- Node24 -->
<g id="Node000024" class="node">
<title>Node24</title>
<g id="a_Node000024"><a xlink:href="../../d7/d90/assertion__stub_8cpp.html" target="_top" xlink:title="Stub definitions for the assertion callback API declared in core/assertion.hpp.">
<polygon fill="white" stroke="#666666" points="2331.77,-162 2196.77,-162 2196.77,-132 2331.77,-132 2331.77,-162"/>
<text text-anchor="start" x="2204.77" y="-150" font-family="Helvetica,sans-Serif" font-size="10.00">src/platforms/stub</text>
<text text-anchor="middle" x="2264.27" y="-139" font-family="Helvetica,sans-Serif" font-size="10.00">/core/assertion_stub.cpp</text>
</a>
</g>
</g>
<!-- Node2&#45;&gt;Node24 -->
<g id="edge31_Node000002_Node000024" class="edge">
<title>Node2&#45;&gt;Node24</title>
<g id="a_edge31_Node000002_Node000024"><a xlink:title=" ">
<path fill="none" stroke="#63b8ff" d="M1476.17,-205.55C1605.37,-202.92 1923.18,-193.52 2187.27,-162 2190.37,-161.63 2193.54,-161.21 2196.73,-160.76"/>
<polygon fill="#63b8ff" stroke="#63b8ff" points="1476.02,-202.05 1466.09,-205.74 1476.16,-209.05 1476.02,-202.05"/>
</a>
</g>
</g>
<!-- Node3&#45;&gt;Node4 -->
<g id="edge3_Node000003_Node000004" class="edge">
<title>Node3&#45;&gt;Node4</title>
<g id="a_edge3_Node000003_Node000004"><a xlink:title=" ">
<path fill="none" stroke="#63b8ff" d="M297.82,-146.78C202.36,-145.97 45.92,-138.04 9.27,-96 -2.71,-82.27 -3.36,-68.14 9.27,-55 45.63,-17.14 827.87,-11.49 1052.47,-10.65"/>
<polygon fill="#63b8ff" stroke="#63b8ff" points="297.98,-150.28 308,-146.84 298.02,-143.28 297.98,-150.28"/>
</a>
</g>
</g>
<!-- Node5 -->
<g id="Node000005" class="node">
<title>Node5</title>
<g id="a_Node000005"><a xlink:href="../../db/db6/console__application_8cpp.html" target="_top" xlink:title="Implementations for toy::application::ConsoleApplication.">
<polygon fill="white" stroke="#666666" points="146.27,-90.5 18.27,-90.5 18.27,-60.5 146.27,-60.5 146.27,-90.5"/>
<text text-anchor="start" x="26.27" y="-78.5" font-family="Helvetica,sans-Serif" font-size="10.00">src/application/console</text>
<text text-anchor="middle" x="82.27" y="-67.5" font-family="Helvetica,sans-Serif" font-size="10.00">_application.cpp</text>
</a>
</g>
</g>
<!-- Node3&#45;&gt;Node5 -->
<g id="edge4_Node000003_Node000005" class="edge">
<title>Node3&#45;&gt;Node5</title>
<g id="a_edge4_Node000003_Node000005"><a xlink:title=" ">
<path fill="none" stroke="#63b8ff" d="M324.26,-135.28C280,-125.48 213.13,-110.36 155.27,-96 148.39,-94.29 141.17,-92.44 134.05,-90.58"/>
<polygon fill="#63b8ff" stroke="#63b8ff" points="323.66,-138.73 334.18,-137.48 325.17,-131.9 323.66,-138.73"/>
</a>
</g>
</g>
<!-- Node6 -->
<g id="Node000006" class="node">
<title>Node6</title>
<g id="a_Node000006"><a xlink:href="../../d0/dbb/core__application_8cpp.html" target="_top" xlink:title="Implementations for toy::application::CoreApplication.">
<polygon fill="white" stroke="#666666" points="276.27,-90.5 164.27,-90.5 164.27,-60.5 276.27,-60.5 276.27,-90.5"/>
<text text-anchor="start" x="172.27" y="-78.5" font-family="Helvetica,sans-Serif" font-size="10.00">src/application/core</text>
<text text-anchor="middle" x="220.27" y="-67.5" font-family="Helvetica,sans-Serif" font-size="10.00">_application.cpp</text>
</a>
</g>
</g>
<!-- Node3&#45;&gt;Node6 -->
<g id="edge5_Node000003_Node000006" class="edge">
<title>Node3&#45;&gt;Node6</title>
<g id="a_edge5_Node000003_Node000006"><a xlink:title=" ">
<path fill="none" stroke="#63b8ff" d="M345.34,-133.32C318.71,-121.22 278.67,-103.03 251.1,-90.51"/>
<polygon fill="#63b8ff" stroke="#63b8ff" points="343.95,-136.53 354.5,-137.48 346.85,-130.16 343.95,-136.53"/>
</a>
</g>
</g>
<!-- Node7 -->
<g id="Node000007" class="node">
<title>Node7</title>
<g id="a_Node000007"><a xlink:href="../../d0/d8a/core__application__linux_8cpp.html" target="_top" xlink:title="Linux implementations of toy::application::CoreApplication via POSIX APIs.">
<polygon fill="white" stroke="#666666" points="451.77,-96 294.77,-96 294.77,-55 451.77,-55 451.77,-96"/>
<text text-anchor="start" x="302.77" y="-84" font-family="Helvetica,sans-Serif" font-size="10.00">src/platforms/linux</text>
<text text-anchor="start" x="302.77" y="-73" font-family="Helvetica,sans-Serif" font-size="10.00">/application/core_application</text>
<text text-anchor="middle" x="373.27" y="-62" font-family="Helvetica,sans-Serif" font-size="10.00">_linux.cpp</text>
</a>
</g>
</g>
<!-- Node3&#45;&gt;Node7 -->
<g id="edge6_Node000003_Node000007" class="edge">
<title>Node3&#45;&gt;Node7</title>
<g id="a_edge6_Node000003_Node000007"><a xlink:title=" ">
<path fill="none" stroke="#63b8ff" d="M373.27,-127.38C373.27,-117.74 373.27,-105.96 373.27,-96.17"/>
<polygon fill="#63b8ff" stroke="#63b8ff" points="369.77,-127.48 373.27,-137.48 376.77,-127.48 369.77,-127.48"/>
</a>
</g>
</g>
<!-- Node8 -->
<g id="Node000008" class="node">
<title>Node8</title>
<g id="a_Node000008"><a xlink:href="../../d8/d89/core__application__macos_8cpp.html" target="_top" xlink:title="macOS implementations of toy::application::CoreApplication via POSIX APIs.">
<polygon fill="white" stroke="#666666" points="626.77,-96 469.77,-96 469.77,-55 626.77,-55 626.77,-96"/>
<text text-anchor="start" x="477.77" y="-84" font-family="Helvetica,sans-Serif" font-size="10.00">src/platforms/macos</text>
<text text-anchor="start" x="477.77" y="-73" font-family="Helvetica,sans-Serif" font-size="10.00">/application/core_application</text>
<text text-anchor="middle" x="548.27" y="-62" font-family="Helvetica,sans-Serif" font-size="10.00">_macos.cpp</text>
</a>
</g>
</g>
<!-- Node3&#45;&gt;Node8 -->
<g id="edge7_Node000003_Node000008" class="edge">
<title>Node3&#45;&gt;Node8</title>
<g id="a_edge7_Node000003_Node000008"><a xlink:title=" ">
<path fill="none" stroke="#63b8ff" d="M404.17,-133.73C430.44,-123.29 468.63,-108.13 499.1,-96.03"/>
<polygon fill="#63b8ff" stroke="#63b8ff" points="402.73,-130.53 394.72,-137.48 405.31,-137.04 402.73,-130.53"/>
</a>
</g>
</g>
<!-- Node9 -->
<g id="Node000009" class="node">
<title>Node9</title>
<g id="a_Node000009"><a xlink:href="../../db/da8/core__application__stub_8cpp.html" target="_top" xlink:title="Stub implementation of toy::application::CoreApplication::sleep() for platforms without OS sleep supp...">
<polygon fill="white" stroke="#666666" points="801.77,-96 644.77,-96 644.77,-55 801.77,-55 801.77,-96"/>
<text text-anchor="start" x="652.77" y="-84" font-family="Helvetica,sans-Serif" font-size="10.00">src/platforms/stub</text>
<text text-anchor="start" x="652.77" y="-73" font-family="Helvetica,sans-Serif" font-size="10.00">/application/core_application</text>
<text text-anchor="middle" x="723.27" y="-62" font-family="Helvetica,sans-Serif" font-size="10.00">_stub.cpp</text>
</a>
</g>
</g>
<!-- Node3&#45;&gt;Node9 -->
<g id="edge8_Node000003_Node000009" class="edge">
<title>Node3&#45;&gt;Node9</title>
<g id="a_edge8_Node000003_Node000009"><a xlink:title=" ">
<path fill="none" stroke="#63b8ff" d="M430.11,-135.65C483.25,-125.86 564.75,-110.54 635.27,-96 638.33,-95.37 641.45,-94.72 644.61,-94.05"/>
<polygon fill="#63b8ff" stroke="#63b8ff" points="429.4,-132.22 420.2,-137.47 430.67,-139.11 429.4,-132.22"/>
</a>
</g>
</g>
<!-- Node10&#45;&gt;Node4 -->
<g id="edge10_Node000010_Node000004" class="edge">
<title>Node10&#45;&gt;Node4</title>
<g id="a_edge10_Node000010_Node000004"><a xlink:title=" ">
<path fill="none" stroke="#63b8ff" d="M946.59,-62.86C954.71,-60.27 963.28,-57.54 971.27,-55 1010.9,-42.41 1056.83,-27.93 1085.22,-19"/>
<polygon fill="#63b8ff" stroke="#63b8ff" points="945.44,-59.56 936.98,-65.94 947.57,-66.22 945.44,-59.56"/>
</a>
</g>
</g>
<!-- Node11&#45;&gt;Node4 -->
<g id="edge12_Node000011_Node000004" class="edge">
<title>Node11&#45;&gt;Node4</title>
<g id="a_edge12_Node000011_Node000004"><a xlink:title=" ">
<path fill="none" stroke="#63b8ff" d="M1051.03,-59.49C1066.69,-46.96 1088.47,-29.54 1101.39,-19.2"/>
<polygon fill="#63b8ff" stroke="#63b8ff" points="1048.68,-56.89 1043.05,-65.87 1053.05,-62.35 1048.68,-56.89"/>
</a>
</g>
</g>
<!-- Node12&#45;&gt;Node4 -->
<g id="edge16_Node000012_Node000004" class="edge">
<title>Node12&#45;&gt;Node4</title>
<g id="a_edge16_Node000012_Node000004"><a xlink:title=" ">
<path fill="none" stroke="#63b8ff" d="M1150.27,-129.01C1143.71,-119.71 1136.13,-107.71 1131.27,-96 1120.12,-69.18 1115.03,-34.79 1113.16,-19.05"/>
<polygon fill="#63b8ff" stroke="#63b8ff" points="1147.62,-131.32 1156.35,-137.32 1153.26,-127.18 1147.62,-131.32"/>
</a>
</g>
</g>
<!-- Node13 -->
<g id="Node000013" class="node">
<title>Node13</title>
<g id="a_Node000013"><a xlink:href="../../db/dbb/geometry_8hpp.html" target="_top" xlink:title="Umbrella header for the geometry module.">
<polygon fill="white" stroke="#666666" points="1262.27,-85 1140.27,-85 1140.27,-66 1262.27,-66 1262.27,-85"/>
<text text-anchor="middle" x="1201.27" y="-73" font-family="Helvetica,sans-Serif" font-size="10.00">include/geometry.hpp</text>
</a>
</g>
</g>
<!-- Node12&#45;&gt;Node13 -->
<g id="edge14_Node000012_Node000013" class="edge">
<title>Node12&#45;&gt;Node13</title>
<g id="a_edge14_Node000012_Node000013"><a xlink:title=" ">
<path fill="none" stroke="#63b8ff" d="M1172.87,-128.43C1180.44,-114.58 1190.68,-95.86 1196.57,-85.09"/>
<polygon fill="#63b8ff" stroke="#63b8ff" points="1169.65,-127.02 1167.92,-137.48 1175.79,-130.38 1169.65,-127.02"/>
</a>
</g>
</g>
<!-- Node13&#45;&gt;Node4 -->
<g id="edge15_Node000013_Node000004" class="edge">
<title>Node13&#45;&gt;Node4</title>
<g id="a_edge15_Node000013_Node000004"><a xlink:title=" ">
<path fill="none" stroke="#63b8ff" d="M1180.87,-59.83C1163.41,-47.28 1138.87,-29.63 1124.36,-19.2"/>
<polygon fill="#63b8ff" stroke="#63b8ff" points="1179.1,-62.87 1189.26,-65.87 1183.19,-57.19 1179.1,-62.87"/>
</a>
</g>
</g>
<!-- Node14&#45;&gt;Node4 -->
<g id="edge18_Node000014_Node000004" class="edge">
<title>Node14&#45;&gt;Node4</title>
<g id="a_edge18_Node000014_Node000004"><a xlink:title=" ">
<path fill="none" stroke="#63b8ff" d="M1291.66,-127.22C1292.1,-106.81 1289.5,-74.5 1271.27,-55 1245.91,-27.89 1205.52,-16.82 1171.8,-12.5"/>
<polygon fill="#63b8ff" stroke="#63b8ff" points="1288.15,-127.27 1291.16,-137.43 1295.15,-127.61 1288.15,-127.27"/>
</a>
</g>
</g>
<!-- Node15 -->
<g id="Node000015" class="node">
<title>Node15</title>
<g id="a_Node000015"><a xlink:href="../../d3/d80/endpoint_8cpp.html" target="_top" xlink:title="Definitions for the toy::network::Endpoint destructor declared in network/endpoint....">
<polygon fill="white" stroke="#666666" points="1458.27,-85 1318.27,-85 1318.27,-66 1458.27,-66 1458.27,-85"/>
<text text-anchor="middle" x="1388.27" y="-73" font-family="Helvetica,sans-Serif" font-size="10.00">src/network/endpoint.cpp</text>
</a>
</g>
</g>
<!-- Node14&#45;&gt;Node15 -->
<g id="edge19_Node000014_Node000015" class="edge">
<title>Node14&#45;&gt;Node15</title>
<g id="a_edge19_Node000014_Node000015"><a xlink:title=" ">
<path fill="none" stroke="#63b8ff" d="M1310.61,-131.57C1330.4,-117.54 1359.79,-96.7 1376.15,-85.09"/>
<polygon fill="#63b8ff" stroke="#63b8ff" points="1308.41,-128.84 1302.28,-137.48 1312.46,-134.55 1308.41,-128.84"/>
</a>
</g>
</g>
<!-- Node16&#45;&gt;Node4 -->
<g id="edge21_Node000016_Node000004" class="edge">
<title>Node16&#45;&gt;Node4</title>
<g id="a_edge21_Node000016_Node000004"><a xlink:title=" ">
<path fill="none" stroke="#63b8ff" d="M1502.33,-63.2C1491.09,-60.22 1478.75,-57.22 1467.27,-55 1364.36,-35.08 1242.86,-22.09 1172,-15.54"/>
<polygon fill="#63b8ff" stroke="#63b8ff" points="1501.73,-66.67 1512.3,-65.91 1503.57,-59.91 1501.73,-66.67"/>
</a>
</g>
</g>
<!-- Node17&#45;&gt;Node4 -->
<g id="edge23_Node000017_Node000004" class="edge">
<title>Node17&#45;&gt;Node4</title>
<g id="a_edge23_Node000017_Node000004"><a xlink:title=" ">
<path fill="none" stroke="#63b8ff" d="M1502.04,-134.88C1546.05,-123.27 1608.35,-105.45 1615.27,-96 1626.02,-81.29 1627.57,-68.44 1615.27,-55 1585.85,-22.87 1298.93,-13.81 1172.07,-11.36"/>
<polygon fill="#63b8ff" stroke="#63b8ff" points="1500.92,-131.56 1492.13,-137.48 1502.69,-138.33 1500.92,-131.56"/>
</a>
</g>
</g>
<!-- Node18 -->
<g id="Node000018" class="node">
<title>Node18</title>
<g id="a_Node000018"><a xlink:href="../../db/d3d/pixel__format_8cpp.html" target="_top" xlink:title="Definitions for pixelFormatName() and pixelFormatFromName() declared in render/pixel_format....">
<polygon fill="white" stroke="#666666" points="1812.27,-85 1662.27,-85 1662.27,-66 1812.27,-66 1812.27,-85"/>
<text text-anchor="middle" x="1737.27" y="-73" font-family="Helvetica,sans-Serif" font-size="10.00">src/render/pixel_format.cpp</text>
</a>
</g>
</g>
<!-- Node17&#45;&gt;Node18 -->
<g id="edge24_Node000017_Node000018" class="edge">
<title>Node17&#45;&gt;Node18</title>
<g id="a_edge24_Node000017_Node000018"><a xlink:title=" ">
<path fill="none" stroke="#63b8ff" d="M1502.38,-135.01C1557.93,-121.17 1652.2,-97.69 1702.77,-85.09"/>
<polygon fill="#63b8ff" stroke="#63b8ff" points="1501.33,-131.66 1492.48,-137.48 1503.03,-138.46 1501.33,-131.66"/>
</a>
</g>
</g>
</g>
</svg>

<g id="navigator" transform="translate(0 0)" fill="#404254">
  <rect fill="#f2f5e9" fill-opacity="0.5" stroke="#606060" stroke-width=".5" x="0" y="0" width="60" height="60"/>
  <use id="zoomplus" xlink:href="#zoomPlus" x="17" y="9" onmousedown="handleZoom(evt,'in')"/>
  <use id="zoomminus" xlink:href="#zoomMin" x="42" y="9" onmousedown="handleZoom(evt,'out')"/>
  <use id="reset" xlink:href="#resetDef" x="30" y="36" onmousedown="handleReset()"/>
   <use id="arrowup" xlink:href="#arrowUp" x="0" y="0" onmousedown="handlePan(0,-1)"/>
  <use id="arrowright" xlink:href="#arrowRight" x="0" y="0" onmousedown="handlePan(1,0)"/>
  <use id="arrowdown" xlink:href="#arrowDown" x="0" y="0" onmousedown="handlePan(0,1)"/>
  <use id="arrowleft" xlink:href="#arrowLeft" x="0" y="0" onmousedown="handlePan(-1,0)"/>
</g>
<svg viewBox="0 0 15 15" width="100%" height="30px" preserveAspectRatio="xMaxYMin meet">
 <g id="arrow_out" transform="scale(0.3 0.3)">
  <a xlink:href="core_2utils_8inl__dep__incl_org.svg" target="_base">
   <rect id="button" ry="5" rx="5" y="6" x="6" height="38" width="38"
        fill="#f2f5e9" fill-opacity="0.5" stroke="#606060" stroke-width="1.0"/>
   <path id="arrow"
     d="M 11.500037,31.436501 C 11.940474,20.09759 22.043105,11.32322 32.158766,21.979434 L 37.068811,17.246167 C 37.068811,17.246167 37.088388,32 37.088388,32 L 22.160133,31.978069 C 22.160133,31.978069 26.997745,27.140456 26.997745,27.140456 C 18.528582,18.264221 13.291696,25.230495 11.500037,31.436501 z"
     style="fill:#404040;"/>
  </a>
 </g>
</svg>

<style type='text/css'>
<![CDATA[
[data-mouse-over-selected='false'] { opacity: 0.7; }
[data-mouse-over-selected='true']  { opacity: 1.0; }
]]>
</style>
<script type="application/ecmascript"><![CDATA[
document.addEventListener('DOMContentLoaded', (event) => {
  highlightEdges();
  highlightAdjacentNodes();
});
]]></script>
</svg>
