<?xml version="1.0" encoding="UTF-8" standalone="no"?>
<!DOCTYPE svg PUBLIC "-//W3C//DTD SVG 1.1//EN"
 "http://www.w3.org/Graphics/SVG/1.1/DTD/svg11.dtd">
<!-- Generated by graphviz version 2.43.0 (0)
 -->
<!-- Title: include/core/format.hpp Pages: 1 -->
<svg width="388pt" height="137pt"
 viewBox="0.00 0.00 387.50 137.00" xmlns="http://www.w3.org/2000/svg" xmlns:xlink="http://www.w3.org/1999/xlink">

<svg id="main" version="1.1" xmlns="http://www.w3.org/2000/svg" xmlns:xlink="http://www.w3.org/1999/xlink" xml:space="preserve">

<style type="text/css"><![CDATA[
.node, .edge {opacity: 0.7;}
.node.selected, .edge.selected {opacity: 1;}
.edge:hover path { stroke: red; }
.edge:hover polygon { stroke: red; fill: red; }
]]></style>
<script type="application/ecmascript" xlink:href="../../svg.min.js"/>
<svg id="graph" class="graph">
<g id="graph0" class="graph" transform="scale(1 1) rotate(0) translate(4 133)">
<title>include/core/format.hpp</title>
<!-- Node1 -->
<g id="Node000001" class="node">
<title>Node1</title>
<g id="a_Node000001"><a xlink:title="Format functions for substituting arguments into {} and {N} placeholders.">
<polygon fill="#999999" stroke="#666666" points="260,-129 127,-129 127,-110 260,-110 260,-129"/>
<text text-anchor="middle" x="193.5" y="-117" font-family="Helvetica,sans-Serif" font-size="10.00">include/core/format.hpp</text>
</a>
</g>
</g>
<!-- Node2 -->
<g id="Node000002" class="node">
<title>Node2</title>
<g id="a_Node000002"><a xlink:href="../../d5/d0e/format__argument_8hpp.html" target="_top" xlink:title="Type&#45;erased format argument for the runtime formatting path.">
<polygon fill="white" stroke="#666666" points="123,-74 0,-74 0,-55 123,-55 123,-74"/>
<text text-anchor="middle" x="61.5" y="-62" font-family="Helvetica,sans-Serif" font-size="10.00">format_argument.hpp</text>
</a>
</g>
</g>
<!-- Node1&#45;&gt;Node2 -->
<g id="edge1_Node000001_Node000002" class="edge">
<title>Node1&#45;&gt;Node2</title>
<g id="a_edge1_Node000001_Node000002"><a xlink:title=" ">
<path fill="none" stroke="#63b8ff" d="M172.29,-109.98C150.77,-101.34 117.22,-87.87 92.67,-78.02"/>
<polygon fill="#63b8ff" stroke="#63b8ff" points="93.68,-74.65 83.09,-74.17 91.07,-81.14 93.68,-74.65"/>
</a>
</g>
</g>
<!-- Node4 -->
<g id="Node000004" class="node">
<title>Node4</title>
<g id="a_Node000004"><a xlink:href="../../d9/d6a/format__string_8hpp.html" target="_top" xlink:title="Compile&#45;time validated format&#45;string wrapper for auto {} and positional {N} placeholders.">
<polygon fill="white" stroke="#666666" points="245.5,-74 141.5,-74 141.5,-55 245.5,-55 245.5,-74"/>
<text text-anchor="middle" x="193.5" y="-62" font-family="Helvetica,sans-Serif" font-size="10.00">format_string.hpp</text>
</a>
</g>
</g>
<!-- Node1&#45;&gt;Node4 -->
<g id="edge3_Node000001_Node000004" class="edge">
<title>Node1&#45;&gt;Node4</title>
<g id="a_edge3_Node000001_Node000004"><a xlink:title=" ">
<path fill="none" stroke="#63b8ff" d="M193.5,-109.75C193.5,-102.8 193.5,-92.85 193.5,-84.13"/>
<polygon fill="#63b8ff" stroke="#63b8ff" points="197,-84.09 193.5,-74.09 190,-84.09 197,-84.09"/>
</a>
</g>
</g>
<!-- Node6 -->
<g id="Node000006" class="node">
<title>Node6</title>
<g id="a_Node000006"><a xlink:href="../../de/d2d/o__string__stream_8hpp.html" target="_top" xlink:title="Allocator&#45;free output string stream that appends into string&#45;like storage.">
<polygon fill="white" stroke="#666666" points="379.5,-74 263.5,-74 263.5,-55 379.5,-55 379.5,-74"/>
<text text-anchor="middle" x="321.5" y="-62" font-family="Helvetica,sans-Serif" font-size="10.00">o_string_stream.hpp</text>
</a>
</g>
</g>
<!-- Node1&#45;&gt;Node6 -->
<g id="edge5_Node000001_Node000006" class="edge">
<title>Node1&#45;&gt;Node6</title>
<g id="a_edge5_Node000001_Node000006"><a xlink:title=" ">
<path fill="none" stroke="#63b8ff" d="M214.07,-109.98C234.93,-101.34 267.47,-87.87 291.27,-78.02"/>
<polygon fill="#63b8ff" stroke="#63b8ff" points="292.66,-81.23 300.56,-74.17 289.98,-74.76 292.66,-81.23"/>
</a>
</g>
</g>
<!-- Node3 -->
<g id="Node000003" class="node">
<title>Node3</title>
<g id="a_Node000003"><a xlink:href="../../d8/d0d/format__context_8hpp.html" target="_top" xlink:title="Type&#45;erased write sink for the runtime formatting path.">
<polygon fill="white" stroke="#666666" points="118,-19 5,-19 5,0 118,0 118,-19"/>
<text text-anchor="middle" x="61.5" y="-7" font-family="Helvetica,sans-Serif" font-size="10.00">format_context.hpp</text>
</a>
</g>
</g>
<!-- Node2&#45;&gt;Node3 -->
<g id="edge2_Node000002_Node000003" class="edge">
<title>Node2&#45;&gt;Node3</title>
<g id="a_edge2_Node000002_Node000003"><a xlink:title=" ">
<path fill="none" stroke="#63b8ff" d="M61.5,-54.75C61.5,-47.8 61.5,-37.85 61.5,-29.13"/>
<polygon fill="#63b8ff" stroke="#63b8ff" points="65,-29.09 61.5,-19.09 58,-29.09 65,-29.09"/>
</a>
</g>
</g>
<!-- Node5 -->
<g id="Node000005" class="node">
<title>Node5</title>
<g id="a_Node000005"><a xlink:href="../../de/deb/string__like_8hpp.html" target="_top" xlink:title="Concept for read&#45;only C&#45;string views with explicit length.">
<polygon fill="white" stroke="#666666" points="301.5,-19 213.5,-19 213.5,0 301.5,0 301.5,-19"/>
<text text-anchor="middle" x="257.5" y="-7" font-family="Helvetica,sans-Serif" font-size="10.00">string_like.hpp</text>
</a>
</g>
</g>
<!-- Node4&#45;&gt;Node5 -->
<g id="edge4_Node000004_Node000005" class="edge">
<title>Node4&#45;&gt;Node5</title>
<g id="a_edge4_Node000004_Node000005"><a xlink:title=" ">
<path fill="none" stroke="#63b8ff" d="M203.78,-54.98C213.34,-47.07 227.78,-35.11 239.28,-25.58"/>
<polygon fill="#63b8ff" stroke="#63b8ff" points="241.56,-28.24 247.03,-19.17 237.1,-22.85 241.56,-28.24"/>
</a>
</g>
</g>
<!-- Node6&#45;&gt;Node5 -->
<g id="edge6_Node000006_Node000005" class="edge">
<title>Node6&#45;&gt;Node5</title>
<g id="a_edge6_Node000006_Node000005"><a xlink:title=" ">
<path fill="none" stroke="#63b8ff" d="M311.22,-54.98C301.66,-47.07 287.22,-35.11 275.72,-25.58"/>
<polygon fill="#63b8ff" stroke="#63b8ff" points="277.9,-22.85 267.97,-19.17 273.44,-28.24 277.9,-22.85"/>
</a>
</g>
</g>
</g>
</svg>
</svg>

<style type='text/css'>
<![CDATA[
[data-mouse-over-selected='false'] { opacity: 0.7; }
[data-mouse-over-selected='true']  { opacity: 1.0; }
]]>
</style>
<script type="application/ecmascript"><![CDATA[
document.addEventListener('DOMContentLoaded', (event) => {
  highlightEdges();
  highlightAdjacentNodes();
});
]]></script>
</svg>
