<?xml version="1.0" encoding="UTF-8" standalone="no"?>
<!DOCTYPE svg PUBLIC "-//W3C//DTD SVG 1.1//EN"
 "http://www.w3.org/Graphics/SVG/1.1/DTD/svg11.dtd">
<!-- Generated by graphviz version 14.1.2 (0)
 -->
<!-- Title: include/core/format.hpp Pages: 1 -->
<svg width="244pt" height="142pt"
 viewBox="0.00 0.00 244.00 142.00" xmlns="http://www.w3.org/2000/svg" xmlns:xlink="http://www.w3.org/1999/xlink">
<g id="page0,1_graph0" class="graph" transform="scale(1 1) rotate(0) translate(4 138.25)">
<title>include/core/format.hpp</title>
<!-- Node1 -->
<g id="Node000001" class="node">
<title>Node1</title>
<g id="a_Node000001"><a xlink:title="Format functions for substituting arguments into {} and {N} placeholders.">
<polygon fill="#999999" stroke="#666666" points="180.62,-134.25 48.38,-134.25 48.38,-113.5 180.62,-113.5 180.62,-134.25"/>
<text xml:space="preserve" text-anchor="middle" x="114.5" y="-120.75" font-family="Helvetica,sans-Serif" font-size="10.00">include/core/format.hpp</text>
</a>
</g>
</g>
<!-- Node2 -->
<g id="Node000002" class="node">
<title>Node2</title>
<g id="a_Node000002"><a xlink:href="../../d9/d6a/format__string_8hpp.html" target="_top" xlink:title="Compile&#45;time validated format&#45;string wrapper for auto {} and positional {N} placeholders.">
<polygon fill="white" stroke="#666666" points="103,-77.5 0,-77.5 0,-56.75 103,-56.75 103,-77.5"/>
<text xml:space="preserve" text-anchor="middle" x="51.5" y="-64" font-family="Helvetica,sans-Serif" font-size="10.00">format_string.hpp</text>
</a>
</g>
</g>
<!-- Node1&#45;&gt;Node2 -->
<g id="edge1_Node000001_Node000002" class="edge">
<title>Node1&#45;&gt;Node2</title>
<g id="a_edge1_Node000001_Node000002"><a xlink:title=" ">
<path fill="none" stroke="#63b8ff" d="M103.24,-113.09C94.37,-105.38 81.79,-94.45 71.25,-85.29"/>
<polygon fill="#63b8ff" stroke="#63b8ff" points="73.65,-82.74 63.81,-78.82 69.06,-88.02 73.65,-82.74"/>
</a>
</g>
</g>
<!-- Node4 -->
<g id="Node000004" class="node">
<title>Node4</title>
<g id="a_Node000004"><a xlink:href="../../de/d2d/o__string__stream_8hpp.html" target="_top" xlink:title="Allocator&#45;free output string stream that appends into string&#45;like storage.">
<polygon fill="white" stroke="#666666" points="236.38,-77.5 120.62,-77.5 120.62,-56.75 236.38,-56.75 236.38,-77.5"/>
<text xml:space="preserve" text-anchor="middle" x="178.5" y="-64" font-family="Helvetica,sans-Serif" font-size="10.00">o_string_stream.hpp</text>
</a>
</g>
</g>
<!-- Node1&#45;&gt;Node4 -->
<g id="edge3_Node000001_Node000004" class="edge">
<title>Node1&#45;&gt;Node4</title>
<g id="a_edge3_Node000001_Node000004"><a xlink:title=" ">
<path fill="none" stroke="#63b8ff" d="M125.94,-113.09C134.95,-105.38 147.73,-94.45 158.43,-85.29"/>
<polygon fill="#63b8ff" stroke="#63b8ff" points="160.68,-87.97 166.01,-78.81 156.13,-82.65 160.68,-87.97"/>
</a>
</g>
</g>
<!-- Node3 -->
<g id="Node000003" class="node">
<title>Node3</title>
<g id="a_Node000003"><a xlink:href="../../de/deb/string__like_8hpp.html" target="_top" xlink:title="Concept for read&#45;only C&#45;string views with explicit length.">
<polygon fill="white" stroke="#666666" points="158.12,-20.75 70.88,-20.75 70.88,0 158.12,0 158.12,-20.75"/>
<text xml:space="preserve" text-anchor="middle" x="114.5" y="-7.25" font-family="Helvetica,sans-Serif" font-size="10.00">string_like.hpp</text>
</a>
</g>
</g>
<!-- Node2&#45;&gt;Node3 -->
<g id="edge2_Node000002_Node000003" class="edge">
<title>Node2&#45;&gt;Node3</title>
<g id="a_edge2_Node000002_Node000003"><a xlink:title=" ">
<path fill="none" stroke="#63b8ff" d="M62.76,-56.34C71.63,-48.63 84.21,-37.7 94.75,-28.54"/>
<polygon fill="#63b8ff" stroke="#63b8ff" points="96.94,-31.27 102.19,-22.07 92.35,-25.99 96.94,-31.27"/>
</a>
</g>
</g>
<!-- Node4&#45;&gt;Node3 -->
<g id="edge4_Node000004_Node000003" class="edge">
<title>Node4&#45;&gt;Node3</title>
<g id="a_edge4_Node000004_Node000003"><a xlink:title=" ">
<path fill="none" stroke="#63b8ff" d="M167.06,-56.34C158.05,-48.63 145.27,-37.7 134.57,-28.54"/>
<polygon fill="#63b8ff" stroke="#63b8ff" points="136.87,-25.9 126.99,-22.06 132.32,-31.22 136.87,-25.9"/>
</a>
</g>
</g>
</g>
</svg>
