<?xml version="1.0" encoding="UTF-8" standalone="no"?>
<!DOCTYPE svg PUBLIC "-//W3C//DTD SVG 1.1//EN"
 "http://www.w3.org/Graphics/SVG/1.1/DTD/svg11.dtd">
<!-- Generated by graphviz version 2.43.0 (0)
 -->
<!-- Title: include/core/class_macros.hpp Pages: 1 -->
<svg width="4086pt" height="412pt"
 viewBox="0.00 0.00 4085.92 412.00" xmlns="http://www.w3.org/2000/svg" xmlns:xlink="http://www.w3.org/1999/xlink">
<g id="page0,1_graph0" class="graph" transform="scale(1 1) rotate(0) translate(4 408)">
<title>include/core/class_macros.hpp</title>
<!-- Node1 -->
<g id="Node000001" class="node">
<title>Node1</title>
<g id="a_Node000001"><a xlink:title="Class&#45;level utility macros for explicit Rule of Five compliance.">
<polygon fill="#999999" stroke="#666666" points="2415.42,-404 2311.42,-404 2311.42,-374 2415.42,-374 2415.42,-404"/>
<text text-anchor="start" x="2319.42" y="-392" font-family="Helvetica,sans-Serif" font-size="10.00">include/core/class</text>
<text text-anchor="middle" x="2363.42" y="-381" font-family="Helvetica,sans-Serif" font-size="10.00">_macros.hpp</text>
</a>
</g>
</g>
<!-- Node2 -->
<g id="Node000002" class="node">
<title>Node2</title>
<g id="a_Node000002"><a xlink:href="../../da/d47/core_8hpp.html" target="_top" xlink:title="Umbrella header for the engine core module.">
<polygon fill="white" stroke="#666666" points="2411.92,-272 2314.92,-272 2314.92,-253 2411.92,-253 2411.92,-272"/>
<text text-anchor="middle" x="2363.42" y="-260" font-family="Helvetica,sans-Serif" font-size="10.00">include/core.hpp</text>
</a>
</g>
</g>
<!-- Node1&#45;&gt;Node2 -->
<g id="edge1_Node000001_Node000002" class="edge">
<title>Node1&#45;&gt;Node2</title>
<g id="a_edge1_Node000001_Node000002"><a xlink:title=" ">
<path fill="none" stroke="#63b8ff" d="M2350.21,-364.76C2346.25,-356.57 2342.42,-347.12 2340.42,-338 2337.57,-324.98 2337.27,-320.96 2340.42,-308 2343.67,-294.65 2351.67,-280.83 2357.32,-272.2"/>
<polygon fill="#63b8ff" stroke="#63b8ff" points="2347.13,-366.43 2354.83,-373.71 2353.35,-363.22 2347.13,-366.43"/>
</a>
</g>
</g>
<!-- Node36 -->
<g id="Node000036" class="node">
<title>Node36</title>
<g id="a_Node000036"><a xlink:href="../../d7/d97/chrono__clock__source_8hpp.html" target="_top" xlink:title="RAII owner of the platform hardware time source.">
<polygon fill="white" stroke="#666666" points="2461.42,-338 2349.42,-338 2349.42,-308 2461.42,-308 2461.42,-338"/>
<text text-anchor="start" x="2357.42" y="-326" font-family="Helvetica,sans-Serif" font-size="10.00">include/core/chrono</text>
<text text-anchor="middle" x="2405.42" y="-315" font-family="Helvetica,sans-Serif" font-size="10.00">_clock_source.hpp</text>
</a>
</g>
</g>
<!-- Node1&#45;&gt;Node36 -->
<g id="edge43_Node000001_Node000036" class="edge">
<title>Node1&#45;&gt;Node36</title>
<g id="a_edge43_Node000001_Node000036"><a xlink:title=" ">
<path fill="none" stroke="#63b8ff" d="M2378.36,-365.24C2384.28,-356.21 2390.91,-346.11 2396.13,-338.16"/>
<polygon fill="#63b8ff" stroke="#63b8ff" points="2375.3,-363.52 2372.74,-373.8 2381.16,-367.36 2375.3,-363.52"/>
</a>
</g>
</g>
<!-- Node3 -->
<g id="Node000003" class="node">
<title>Node3</title>
<g id="a_Node000003"><a xlink:href="../../d4/d01/application_8hpp.html" target="_top" xlink:title="Umbrella header for the application module.">
<polygon fill="white" stroke="#666666" points="704.42,-211.5 574.42,-211.5 574.42,-192.5 704.42,-192.5 704.42,-211.5"/>
<text text-anchor="middle" x="639.42" y="-199.5" font-family="Helvetica,sans-Serif" font-size="10.00">include/application.hpp</text>
</a>
</g>
</g>
<!-- Node2&#45;&gt;Node3 -->
<g id="edge2_Node000002_Node000003" class="edge">
<title>Node2&#45;&gt;Node3</title>
<g id="a_edge2_Node000002_Node000003"><a xlink:title=" ">
<path fill="none" stroke="#63b8ff" d="M2304.51,-259.5C2041.95,-250.59 979.23,-214.53 704.51,-205.21"/>
<polygon fill="#63b8ff" stroke="#63b8ff" points="2304.49,-263 2314.6,-259.84 2304.73,-256.01 2304.49,-263"/>
</a>
</g>
</g>
<!-- Node4 -->
<g id="Node000004" class="node">
<title>Node4</title>
<g id="a_Node000004"><a xlink:href="../../d8/d8c/toygine2_8hpp.html" target="_top" xlink:title="Main umbrella header for the engine.">
<polygon fill="white" stroke="#666666" points="1687.92,-74 1568.92,-74 1568.92,-55 1687.92,-55 1687.92,-74"/>
<text text-anchor="middle" x="1628.42" y="-62" font-family="Helvetica,sans-Serif" font-size="10.00">include/toygine2.hpp</text>
</a>
</g>
</g>
<!-- Node2&#45;&gt;Node4 -->
<g id="edge29_Node000002_Node000004" class="edge">
<title>Node2&#45;&gt;Node4</title>
<g id="a_edge29_Node000002_Node000004"><a xlink:title=" ">
<path fill="none" stroke="#63b8ff" d="M2304.79,-261.26C2137.85,-260.13 1662.36,-253.68 1511.42,-217 1442.23,-200.19 1404.04,-210.83 1365.42,-151 1355.54,-135.69 1353.66,-123.92 1365.42,-110 1390.94,-79.8 1499.42,-70.09 1568.84,-66.97"/>
<polygon fill="#63b8ff" stroke="#63b8ff" points="2304.84,-264.76 2314.86,-261.32 2304.88,-257.76 2304.84,-264.76"/>
</a>
</g>
</g>
<!-- Node14 -->
<g id="Node000014" class="node">
<title>Node14</title>
<g id="a_Node000014"><a xlink:href="../../d1/d71/audio_8hpp.html" target="_top" xlink:title="Umbrella header for the audio module.">
<polygon fill="white" stroke="#666666" points="1477.92,-140 1374.92,-140 1374.92,-121 1477.92,-121 1477.92,-140"/>
<text text-anchor="middle" x="1426.42" y="-128" font-family="Helvetica,sans-Serif" font-size="10.00">include/audio.hpp</text>
</a>
</g>
</g>
<!-- Node2&#45;&gt;Node14 -->
<g id="edge13_Node000002_Node000014" class="edge">
<title>Node2&#45;&gt;Node14</title>
<g id="a_edge13_Node000002_Node000014"><a xlink:title=" ">
<path fill="none" stroke="#63b8ff" d="M2304.41,-261.52C2146.48,-261.03 1716.98,-256.05 1581.42,-217 1522.95,-200.16 1462.21,-158.22 1437.68,-140.08"/>
<polygon fill="#63b8ff" stroke="#63b8ff" points="2304.85,-265.02 2314.86,-261.55 2304.87,-258.02 2304.85,-265.02"/>
</a>
</g>
</g>
<!-- Node15 -->
<g id="Node000015" class="node">
<title>Node15</title>
<g id="a_Node000015"><a xlink:href="../../d8/d39/game_8hpp.html" target="_top" xlink:title="Umbrella header for the game module.">
<polygon fill="white" stroke="#666666" points="1600.42,-140 1496.42,-140 1496.42,-121 1600.42,-121 1600.42,-140"/>
<text text-anchor="middle" x="1548.42" y="-128" font-family="Helvetica,sans-Serif" font-size="10.00">include/game.hpp</text>
</a>
</g>
</g>
<!-- Node2&#45;&gt;Node15 -->
<g id="edge15_Node000002_Node000015" class="edge">
<title>Node2&#45;&gt;Node15</title>
<g id="a_edge15_Node000002_Node000015"><a xlink:title=" ">
<path fill="none" stroke="#63b8ff" d="M2304.45,-260.66C2139.22,-257.92 1679.86,-247.6 1619.42,-217 1585.34,-199.74 1561.51,-158.03 1552.46,-140.02"/>
<polygon fill="#63b8ff" stroke="#63b8ff" points="2304.85,-264.16 2314.9,-260.83 2304.96,-257.16 2304.85,-264.16"/>
</a>
</g>
</g>
<!-- Node16 -->
<g id="Node000016" class="node">
<title>Node16</title>
<g id="a_Node000016"><a xlink:href="../../d4/d78/math_8hpp.html" target="_top" xlink:title="Umbrella header for the math module.">
<polygon fill="white" stroke="#666666" points="1729.92,-211.5 1628.92,-211.5 1628.92,-192.5 1729.92,-192.5 1729.92,-211.5"/>
<text text-anchor="middle" x="1679.42" y="-199.5" font-family="Helvetica,sans-Serif" font-size="10.00">include/math.hpp</text>
</a>
</g>
</g>
<!-- Node2&#45;&gt;Node16 -->
<g id="edge17_Node000002_Node000016" class="edge">
<title>Node2&#45;&gt;Node16</title>
<g id="a_edge17_Node000002_Node000016"><a xlink:title=" ">
<path fill="none" stroke="#63b8ff" d="M2304.26,-260.39C2193.03,-257.62 1945.4,-248.18 1739.42,-217 1730.33,-215.62 1720.57,-213.59 1711.63,-211.5"/>
<polygon fill="#63b8ff" stroke="#63b8ff" points="2304.51,-263.9 2314.59,-260.64 2304.68,-256.9 2304.51,-263.9"/>
</a>
</g>
</g>
<!-- Node18 -->
<g id="Node000018" class="node">
<title>Node18</title>
<g id="a_Node000018"><a xlink:href="../../d6/d67/network_8hpp.html" target="_top" xlink:title="Umbrella header for the network module.">
<polygon fill="white" stroke="#666666" points="1864.42,-211.5 1748.42,-211.5 1748.42,-192.5 1864.42,-192.5 1864.42,-211.5"/>
<text text-anchor="middle" x="1806.42" y="-199.5" font-family="Helvetica,sans-Serif" font-size="10.00">include/network.hpp</text>
</a>
</g>
</g>
<!-- Node2&#45;&gt;Node18 -->
<g id="edge21_Node000002_Node000018" class="edge">
<title>Node2&#45;&gt;Node18</title>
<g id="a_edge21_Node000002_Node000018"><a xlink:title=" ">
<path fill="none" stroke="#63b8ff" d="M2304.53,-258.01C2213.04,-252.17 2031.36,-238.83 1878.42,-217 1868.09,-215.52 1856.98,-213.56 1846.67,-211.57"/>
<polygon fill="#63b8ff" stroke="#63b8ff" points="2304.5,-261.52 2314.7,-258.66 2304.94,-254.53 2304.5,-261.52"/>
</a>
</g>
</g>
<!-- Node20 -->
<g id="Node000020" class="node">
<title>Node20</title>
<g id="a_Node000020"><a xlink:href="../../de/dd6/ui_8hpp.html" target="_top" xlink:title="Umbrella header for platform UI types.">
<polygon fill="white" stroke="#666666" points="2122.42,-140 1992.42,-140 1992.42,-121 2122.42,-121 2122.42,-140"/>
<text text-anchor="middle" x="2057.42" y="-128" font-family="Helvetica,sans-Serif" font-size="10.00">include/platform/ui.hpp</text>
</a>
</g>
</g>
<!-- Node2&#45;&gt;Node20 -->
<g id="edge24_Node000002_Node000020" class="edge">
<title>Node2&#45;&gt;Node20</title>
<g id="a_edge24_Node000002_Node000020"><a xlink:title=" ">
<path fill="none" stroke="#63b8ff" d="M2304.56,-260.02C2188.13,-256.49 1937.35,-245.6 1911.42,-217 1902.47,-207.12 1903.85,-197.98 1911.42,-187 1924.36,-168.25 1983.19,-150.21 2022.11,-140.02"/>
<polygon fill="#63b8ff" stroke="#63b8ff" points="2304.63,-263.52 2314.73,-260.32 2304.84,-256.53 2304.63,-263.52"/>
</a>
</g>
</g>
<!-- Node21 -->
<g id="Node000021" class="node">
<title>Node21</title>
<g id="a_Node000021"><a xlink:href="../../d6/d4b/render_8hpp.html" target="_top" xlink:title="Umbrella header for the render module.">
<polygon fill="white" stroke="#666666" points="2027.92,-211.5 1920.92,-211.5 1920.92,-192.5 2027.92,-192.5 2027.92,-211.5"/>
<text text-anchor="middle" x="1974.42" y="-199.5" font-family="Helvetica,sans-Serif" font-size="10.00">include/render.hpp</text>
</a>
</g>
</g>
<!-- Node2&#45;&gt;Node21 -->
<g id="edge26_Node000002_Node000021" class="edge">
<title>Node2&#45;&gt;Node21</title>
<g id="a_edge26_Node000002_Node000021"><a xlink:title=" ">
<path fill="none" stroke="#63b8ff" d="M2304.59,-255.05C2238.93,-247.5 2129.68,-233.84 2036.42,-217 2027.74,-215.43 2018.42,-213.48 2009.72,-211.53"/>
<polygon fill="#63b8ff" stroke="#63b8ff" points="2304.41,-258.55 2314.74,-256.21 2305.2,-251.6 2304.41,-258.55"/>
</a>
</g>
</g>
<!-- Node23 -->
<g id="Node000023" class="node">
<title>Node23</title>
<g id="a_Node000023"><a xlink:href="../../da/de0/core_8cpp.html" target="_top" xlink:title="Implementation of toy::initialize() and toy::deInitialize() lifecycle functions.">
<polygon fill="white" stroke="#666666" points="2144.92,-211.5 2045.92,-211.5 2045.92,-192.5 2144.92,-192.5 2144.92,-211.5"/>
<text text-anchor="middle" x="2095.42" y="-199.5" font-family="Helvetica,sans-Serif" font-size="10.00">src/core/core.cpp</text>
</a>
</g>
</g>
<!-- Node2&#45;&gt;Node23 -->
<g id="edge30_Node000002_Node000023" class="edge">
<title>Node2&#45;&gt;Node23</title>
<g id="a_edge30_Node000002_Node000023"><a xlink:title=" ">
<path fill="none" stroke="#63b8ff" d="M2311.66,-250.95C2269.1,-242.18 2207.26,-229.2 2153.42,-217 2145.85,-215.28 2137.73,-213.37 2130.04,-211.52"/>
<polygon fill="#63b8ff" stroke="#63b8ff" points="2311.01,-254.39 2321.51,-252.98 2312.42,-247.54 2311.01,-254.39"/>
</a>
</g>
</g>
<!-- Node24 -->
<g id="Node000024" class="node">
<title>Node24</title>
<g id="a_Node000024"><a xlink:href="../../db/d2d/hashes_8cpp.html" target="_top" xlink:title="Table&#45;driven implementations of toy::crc8(), toy::crc16(), and toy::crc32().">
<polygon fill="white" stroke="#666666" points="2275.92,-211.5 2162.92,-211.5 2162.92,-192.5 2275.92,-192.5 2275.92,-211.5"/>
<text text-anchor="middle" x="2219.42" y="-199.5" font-family="Helvetica,sans-Serif" font-size="10.00">src/core/hashes.cpp</text>
</a>
</g>
</g>
<!-- Node2&#45;&gt;Node24 -->
<g id="edge31_Node000002_Node000024" class="edge">
<title>Node2&#45;&gt;Node24</title>
<g id="a_edge31_Node000002_Node000024"><a xlink:title=" ">
<path fill="none" stroke="#63b8ff" d="M2332.85,-249.08C2305.04,-237.78 2264.71,-221.4 2240.39,-211.52"/>
<polygon fill="#63b8ff" stroke="#63b8ff" points="2331.9,-252.47 2342.48,-252.99 2334.54,-245.99 2331.9,-252.47"/>
</a>
</g>
</g>
<!-- Node25 -->
<g id="Node000025" class="node">
<title>Node25</title>
<g id="a_Node000025"><a xlink:href="../../d8/d34/log__backend_8cpp.html" target="_top" xlink:title="Implementation of toy::log::Backend lifecycle, sink, and timestamp&#45;policy accessors.">
<polygon fill="white" stroke="#666666" points="2432.92,-211.5 2293.92,-211.5 2293.92,-192.5 2432.92,-192.5 2432.92,-211.5"/>
<text text-anchor="middle" x="2363.42" y="-199.5" font-family="Helvetica,sans-Serif" font-size="10.00">src/core/log_backend.cpp</text>
</a>
</g>
</g>
<!-- Node2&#45;&gt;Node25 -->
<g id="edge32_Node000002_Node000025" class="edge">
<title>Node2&#45;&gt;Node25</title>
<g id="a_edge32_Node000002_Node000025"><a xlink:title=" ">
<path fill="none" stroke="#63b8ff" d="M2363.42,-242.66C2363.42,-232.24 2363.42,-219.8 2363.42,-211.67"/>
<polygon fill="#63b8ff" stroke="#63b8ff" points="2359.92,-242.87 2363.42,-252.87 2366.92,-242.87 2359.92,-242.87"/>
</a>
</g>
</g>
<!-- Node26 -->
<g id="Node000026" class="node">
<title>Node26</title>
<g id="a_Node000026"><a xlink:href="../../d2/d51/log__sink_8cpp.html" target="_top" xlink:title="Out&#45;of&#45;line definitions for toy::log::ISink.">
<polygon fill="white" stroke="#666666" points="2569.92,-211.5 2450.92,-211.5 2450.92,-192.5 2569.92,-192.5 2569.92,-211.5"/>
<text text-anchor="middle" x="2510.42" y="-199.5" font-family="Helvetica,sans-Serif" font-size="10.00">src/core/log_sink.cpp</text>
</a>
</g>
</g>
<!-- Node2&#45;&gt;Node26 -->
<g id="edge33_Node000002_Node000026" class="edge">
<title>Node2&#45;&gt;Node26</title>
<g id="a_edge33_Node000002_Node000026"><a xlink:title=" ">
<path fill="none" stroke="#63b8ff" d="M2394.26,-249.23C2422.66,-237.92 2464.08,-221.44 2489.02,-211.52"/>
<polygon fill="#63b8ff" stroke="#63b8ff" points="2392.8,-246.04 2384.8,-252.99 2395.38,-252.55 2392.8,-246.04"/>
</a>
</g>
</g>
<!-- Node27 -->
<g id="Node000027" class="node">
<title>Node27</title>
<g id="a_Node000027"><a xlink:href="../../de/d06/utils_8cpp.html" target="_top" xlink:title="Definitions for string, encoding, and number utilities declared in core/utils.hpp.">
<polygon fill="white" stroke="#666666" points="2686.92,-211.5 2587.92,-211.5 2587.92,-192.5 2686.92,-192.5 2686.92,-211.5"/>
<text text-anchor="middle" x="2637.42" y="-199.5" font-family="Helvetica,sans-Serif" font-size="10.00">src/core/utils.cpp</text>
</a>
</g>
</g>
<!-- Node2&#45;&gt;Node27 -->
<g id="edge34_Node000002_Node000027" class="edge">
<title>Node2&#45;&gt;Node27</title>
<g id="a_edge34_Node000002_Node000027"><a xlink:title=" ">
<path fill="none" stroke="#63b8ff" d="M2416.14,-251.03C2459.72,-242.27 2523.19,-229.27 2578.42,-217 2586.13,-215.29 2594.39,-213.38 2602.21,-211.53"/>
<polygon fill="#63b8ff" stroke="#63b8ff" points="2415.45,-247.6 2406.33,-253 2416.83,-254.46 2415.45,-247.6"/>
</a>
</g>
</g>
<!-- Node28 -->
<g id="Node000028" class="node">
<title>Node28</title>
<g id="a_Node000028"><a xlink:href="../../df/de5/assertion__linux_8cpp.html" target="_top" xlink:title="Linux implementation of the toy::assertion crash handler and stack trace capture.">
<polygon fill="white" stroke="#666666" points="2843.42,-217 2705.42,-217 2705.42,-187 2843.42,-187 2843.42,-217"/>
<text text-anchor="start" x="2713.42" y="-205" font-family="Helvetica,sans-Serif" font-size="10.00">src/platforms/linux</text>
<text text-anchor="middle" x="2774.42" y="-194" font-family="Helvetica,sans-Serif" font-size="10.00">/core/assertion_linux.cpp</text>
</a>
</g>
</g>
<!-- Node2&#45;&gt;Node28 -->
<g id="edge35_Node000002_Node000028" class="edge">
<title>Node2&#45;&gt;Node28</title>
<g id="a_edge35_Node000002_Node000028"><a xlink:title=" ">
<path fill="none" stroke="#63b8ff" d="M2422.45,-254.35C2488.92,-246.12 2600.11,-231.83 2695.42,-217 2698.59,-216.51 2701.82,-215.99 2705.09,-215.46"/>
<polygon fill="#63b8ff" stroke="#63b8ff" points="2421.67,-250.92 2412.18,-255.62 2422.53,-257.87 2421.67,-250.92"/>
</a>
</g>
</g>
<!-- Node29 -->
<g id="Node000029" class="node">
<title>Node29</title>
<g id="a_Node000029"><a xlink:href="../../d5/d5a/assertion__macos_8cpp.html" target="_top" xlink:title="macOS implementation of the toy::assertion crash handler and stack trace capture.">
<polygon fill="white" stroke="#666666" points="3007.42,-217 2861.42,-217 2861.42,-187 3007.42,-187 3007.42,-217"/>
<text text-anchor="start" x="2869.42" y="-205" font-family="Helvetica,sans-Serif" font-size="10.00">src/platforms/macos</text>
<text text-anchor="middle" x="2934.42" y="-194" font-family="Helvetica,sans-Serif" font-size="10.00">/core/assertion_macos.cpp</text>
</a>
</g>
</g>
<!-- Node2&#45;&gt;Node29 -->
<g id="edge36_Node000002_Node000029" class="edge">
<title>Node2&#45;&gt;Node29</title>
<g id="a_edge36_Node000002_Node000029"><a xlink:title=" ">
<path fill="none" stroke="#63b8ff" d="M2422.38,-257.63C2514.43,-251.26 2697.78,-237.21 2852.42,-217 2855.29,-216.63 2858.2,-216.22 2861.15,-215.8"/>
<polygon fill="#63b8ff" stroke="#63b8ff" points="2421.88,-254.16 2412.15,-258.34 2422.36,-261.14 2421.88,-254.16"/>
</a>
</g>
</g>
<!-- Node30 -->
<g id="Node000030" class="node">
<title>Node30</title>
<g id="a_Node000030"><a xlink:href="../../d6/d79/clock__source__posix_8cpp.html" target="_top" xlink:title="Implementation of toy::chrono::ClockSource and toy::chrono::SteadyClock for POSIX.">
<polygon fill="white" stroke="#666666" points="3183.42,-217 3025.42,-217 3025.42,-187 3183.42,-187 3183.42,-217"/>
<text text-anchor="start" x="3033.42" y="-205" font-family="Helvetica,sans-Serif" font-size="10.00">src/platforms/posix</text>
<text text-anchor="middle" x="3104.42" y="-194" font-family="Helvetica,sans-Serif" font-size="10.00">/core/clock_source_posix.cpp</text>
</a>
</g>
</g>
<!-- Node2&#45;&gt;Node30 -->
<g id="edge37_Node000002_Node000030" class="edge">
<title>Node2&#45;&gt;Node30</title>
<g id="a_edge37_Node000002_Node000030"><a xlink:title=" ">
<path fill="none" stroke="#63b8ff" d="M2422.62,-259.25C2537.43,-254.48 2798.27,-241.74 3016.42,-217 3019.34,-216.67 3022.32,-216.31 3025.31,-215.93"/>
<polygon fill="#63b8ff" stroke="#63b8ff" points="2422.15,-255.76 2412.3,-259.67 2422.43,-262.76 2422.15,-255.76"/>
</a>
</g>
</g>
<!-- Node31 -->
<g id="Node000031" class="node">
<title>Node31</title>
<g id="a_Node000031"><a xlink:href="../../db/d09/system__clock__posix_8cpp.html" target="_top" xlink:title="Implementation of toy::chrono::SystemClock for POSIX.">
<polygon fill="white" stroke="#666666" points="3363.42,-217 3201.42,-217 3201.42,-187 3363.42,-187 3363.42,-217"/>
<text text-anchor="start" x="3209.42" y="-205" font-family="Helvetica,sans-Serif" font-size="10.00">src/platforms/posix</text>
<text text-anchor="middle" x="3282.42" y="-194" font-family="Helvetica,sans-Serif" font-size="10.00">/core/system_clock_posix.cpp</text>
</a>
</g>
</g>
<!-- Node2&#45;&gt;Node31 -->
<g id="edge38_Node000002_Node000031" class="edge">
<title>Node2&#45;&gt;Node31</title>
<g id="a_edge38_Node000002_Node000031"><a xlink:title=" ">
<path fill="none" stroke="#63b8ff" d="M2422.34,-260.37C2558.35,-257.33 2904.62,-247.03 3192.42,-217 3195.25,-216.7 3198.13,-216.38 3201.04,-216.04"/>
<polygon fill="#63b8ff" stroke="#63b8ff" points="2422.07,-256.88 2412.15,-260.6 2422.22,-263.88 2422.07,-256.88"/>
</a>
</g>
</g>
<!-- Node32 -->
<g id="Node000032" class="node">
<title>Node32</title>
<g id="a_Node000032"><a xlink:href="../../d7/d90/assertion__stub_8cpp.html" target="_top" xlink:title="Stub definitions for the assertion callback API declared in core/assertion.hpp.">
<polygon fill="white" stroke="#666666" points="3516.92,-217 3381.92,-217 3381.92,-187 3516.92,-187 3516.92,-217"/>
<text text-anchor="start" x="3389.92" y="-205" font-family="Helvetica,sans-Serif" font-size="10.00">src/platforms/stub</text>
<text text-anchor="middle" x="3449.42" y="-194" font-family="Helvetica,sans-Serif" font-size="10.00">/core/assertion_stub.cpp</text>
</a>
</g>
</g>
<!-- Node2&#45;&gt;Node32 -->
<g id="edge39_Node000002_Node000032" class="edge">
<title>Node2&#45;&gt;Node32</title>
<g id="a_edge39_Node000002_Node000032"><a xlink:title=" ">
<path fill="none" stroke="#63b8ff" d="M2422.47,-261.69C2578.28,-261.59 3013.24,-257.39 3372.42,-217 3375.53,-216.65 3378.7,-216.25 3381.89,-215.81"/>
<polygon fill="#63b8ff" stroke="#63b8ff" points="2422.17,-258.19 2412.17,-261.69 2422.17,-265.19 2422.17,-258.19"/>
</a>
</g>
</g>
<!-- Node33 -->
<g id="Node000033" class="node">
<title>Node33</title>
<g id="a_Node000033"><a xlink:href="../../d4/dbf/clock__source__stub_8cpp.html" target="_top" xlink:title="Stub implementations of toy::chrono::ClockSource, toy::chrono::SteadyClock, and toy::chrono::SystemCl...">
<polygon fill="white" stroke="#666666" points="3687.92,-217 3534.92,-217 3534.92,-187 3687.92,-187 3687.92,-217"/>
<text text-anchor="start" x="3542.92" y="-205" font-family="Helvetica,sans-Serif" font-size="10.00">src/platforms/stub</text>
<text text-anchor="middle" x="3611.42" y="-194" font-family="Helvetica,sans-Serif" font-size="10.00">/core/clock_source_stub.cpp</text>
</a>
</g>
</g>
<!-- Node2&#45;&gt;Node33 -->
<g id="edge40_Node000002_Node000033" class="edge">
<title>Node2&#45;&gt;Node33</title>
<g id="a_edge40_Node000002_Node000033"><a xlink:title=" ">
<path fill="none" stroke="#63b8ff" d="M2422.08,-261.84C2592.9,-262.28 3104.58,-259.64 3526.42,-217 3529.1,-216.73 3531.82,-216.43 3534.57,-216.1"/>
<polygon fill="#63b8ff" stroke="#63b8ff" points="2422.05,-258.34 2412.04,-261.81 2422.03,-265.34 2422.05,-258.34"/>
</a>
</g>
</g>
<!-- Node34 -->
<g id="Node000034" class="node">
<title>Node34</title>
<g id="a_Node000034"><a xlink:href="../../d0/db3/clock__source__windows_8cpp.html" target="_top" xlink:title="Implementation of toy::chrono::ClockSource and toy::chrono::SteadyClock for Windows.">
<polygon fill="white" stroke="#666666" points="3880.92,-217 3705.92,-217 3705.92,-187 3880.92,-187 3880.92,-217"/>
<text text-anchor="start" x="3713.92" y="-205" font-family="Helvetica,sans-Serif" font-size="10.00">src/platforms/windows</text>
<text text-anchor="middle" x="3793.42" y="-194" font-family="Helvetica,sans-Serif" font-size="10.00">/core/clock_source_windows.cpp</text>
</a>
</g>
</g>
<!-- Node2&#45;&gt;Node34 -->
<g id="edge41_Node000002_Node000034" class="edge">
<title>Node2&#45;&gt;Node34</title>
<g id="a_edge41_Node000002_Node000034"><a xlink:title=" ">
<path fill="none" stroke="#63b8ff" d="M2422.15,-261.87C2608.92,-262.56 3205.86,-260.9 3697.42,-217 3700.19,-216.75 3703,-216.48 3705.84,-216.18"/>
<polygon fill="#63b8ff" stroke="#63b8ff" points="2422.01,-258.37 2412,-261.83 2421.98,-265.37 2422.01,-258.37"/>
</a>
</g>
</g>
<!-- Node35 -->
<g id="Node000035" class="node">
<title>Node35</title>
<g id="a_Node000035"><a xlink:href="../../d4/d3a/system__clock__windows_8cpp.html" target="_top" xlink:title="Implementation of toy::chrono::SystemClock for Windows.">
<polygon fill="white" stroke="#666666" points="4077.92,-217 3898.92,-217 3898.92,-187 4077.92,-187 4077.92,-217"/>
<text text-anchor="start" x="3906.92" y="-205" font-family="Helvetica,sans-Serif" font-size="10.00">src/platforms/windows</text>
<text text-anchor="middle" x="3988.42" y="-194" font-family="Helvetica,sans-Serif" font-size="10.00">/core/system_clock_windows.cpp</text>
</a>
</g>
</g>
<!-- Node2&#45;&gt;Node35 -->
<g id="edge42_Node000002_Node000035" class="edge">
<title>Node2&#45;&gt;Node35</title>
<g id="a_edge42_Node000002_Node000035"><a xlink:title=" ">
<path fill="none" stroke="#63b8ff" d="M2422.16,-260.68C2665.75,-257.12 3597.35,-242.12 3890.42,-217 3893.16,-216.77 3895.94,-216.5 3898.75,-216.22"/>
<polygon fill="#63b8ff" stroke="#63b8ff" points="2422.05,-257.18 2412.1,-260.82 2422.15,-264.18 2422.05,-257.18"/>
</a>
</g>
</g>
<!-- Node3&#45;&gt;Node4 -->
<g id="edge3_Node000003_Node000004" class="edge">
<title>Node3&#45;&gt;Node4</title>
<g id="a_edge3_Node000003_Node000004"><a xlink:title=" ">
<path fill="none" stroke="#63b8ff" d="M563.98,-200.62C404.85,-199.03 46.37,-191 9.42,-151 -2.94,-137.61 -3.28,-123.06 9.42,-110 37.13,-81.52 1279.07,-68.63 1568.56,-66.01"/>
<polygon fill="#63b8ff" stroke="#63b8ff" points="564.14,-204.12 574.17,-200.71 564.2,-197.12 564.14,-204.12"/>
</a>
</g>
</g>
<!-- Node6 -->
<g id="Node000006" class="node">
<title>Node6</title>
<g id="a_Node000006"><a xlink:href="../../d0/dbb/core__application_8cpp.html" target="_top" xlink:title="Implementations for toy::application::CoreApplication.">
<polygon fill="white" stroke="#666666" points="130.42,-145.5 18.42,-145.5 18.42,-115.5 130.42,-115.5 130.42,-145.5"/>
<text text-anchor="start" x="26.42" y="-133.5" font-family="Helvetica,sans-Serif" font-size="10.00">src/application/core</text>
<text text-anchor="middle" x="74.42" y="-122.5" font-family="Helvetica,sans-Serif" font-size="10.00">_application.cpp</text>
</a>
</g>
</g>
<!-- Node3&#45;&gt;Node6 -->
<g id="edge5_Node000003_Node000006" class="edge">
<title>Node3&#45;&gt;Node6</title>
<g id="a_edge5_Node000003_Node000006"><a xlink:title=" ">
<path fill="none" stroke="#63b8ff" d="M563.96,-197.96C465.49,-192.97 288.19,-180.47 139.42,-151 132.14,-149.56 124.51,-147.64 117.14,-145.58"/>
<polygon fill="#63b8ff" stroke="#63b8ff" points="563.95,-201.47 574.11,-198.46 564.3,-194.47 563.95,-201.47"/>
</a>
</g>
</g>
<!-- Node7 -->
<g id="Node000007" class="node">
<title>Node7</title>
<g id="a_Node000007"><a xlink:href="../../db/db6/console__application_8cpp.html" target="_top" xlink:title="Implementations for toy::application::ConsoleApplication.">
<polygon fill="white" stroke="#666666" points="275.92,-151 148.92,-151 148.92,-110 275.92,-110 275.92,-151"/>
<text text-anchor="start" x="156.92" y="-139" font-family="Helvetica,sans-Serif" font-size="10.00">src/platforms/common</text>
<text text-anchor="start" x="156.92" y="-128" font-family="Helvetica,sans-Serif" font-size="10.00">/application/console</text>
<text text-anchor="middle" x="212.42" y="-117" font-family="Helvetica,sans-Serif" font-size="10.00">_application.cpp</text>
</a>
</g>
</g>
<!-- Node3&#45;&gt;Node7 -->
<g id="edge6_Node000003_Node000007" class="edge">
<title>Node3&#45;&gt;Node7</title>
<g id="a_edge6_Node000003_Node000007"><a xlink:title=" ">
<path fill="none" stroke="#63b8ff" d="M563.77,-192.99C491.79,-184.75 380.64,-170.37 285.42,-151 282.34,-150.37 279.19,-149.69 276.02,-148.97"/>
<polygon fill="#63b8ff" stroke="#63b8ff" points="563.77,-196.52 574.1,-194.17 564.56,-189.56 563.77,-196.52"/>
</a>
</g>
</g>
<!-- Node8 -->
<g id="Node000008" class="node">
<title>Node8</title>
<g id="a_Node000008"><a xlink:href="../../da/d50/console__application__gba_8cpp.html" target="_top" xlink:title="GBA implementations of toy::application::ConsoleApplication.">
<polygon fill="white" stroke="#666666" points="454.42,-145.5 294.42,-145.5 294.42,-115.5 454.42,-115.5 454.42,-145.5"/>
<text text-anchor="start" x="302.42" y="-133.5" font-family="Helvetica,sans-Serif" font-size="10.00">src/platforms/gba/application</text>
<text text-anchor="middle" x="374.42" y="-122.5" font-family="Helvetica,sans-Serif" font-size="10.00">/console_application_gba.cpp</text>
</a>
</g>
</g>
<!-- Node3&#45;&gt;Node8 -->
<g id="edge7_Node000003_Node000008" class="edge">
<title>Node3&#45;&gt;Node8</title>
<g id="a_edge7_Node000003_Node000008"><a xlink:title=" ">
<path fill="none" stroke="#63b8ff" d="M597,-189.87C551.05,-177.82 477.67,-158.58 427.83,-145.51"/>
<polygon fill="#63b8ff" stroke="#63b8ff" points="596.37,-193.33 606.93,-192.48 598.14,-186.56 596.37,-193.33"/>
</a>
</g>
</g>
<!-- Node9 -->
<g id="Node000009" class="node">
<title>Node9</title>
<g id="a_Node000009"><a xlink:href="../../d0/d8a/core__application__linux_8cpp.html" target="_top" xlink:title="Linux implementations of toy::application::CoreApplication via POSIX APIs.">
<polygon fill="white" stroke="#666666" points="629.92,-151 472.92,-151 472.92,-110 629.92,-110 629.92,-151"/>
<text text-anchor="start" x="480.92" y="-139" font-family="Helvetica,sans-Serif" font-size="10.00">src/platforms/linux</text>
<text text-anchor="start" x="480.92" y="-128" font-family="Helvetica,sans-Serif" font-size="10.00">/application/core_application</text>
<text text-anchor="middle" x="551.42" y="-117" font-family="Helvetica,sans-Serif" font-size="10.00">_linux.cpp</text>
</a>
</g>
</g>
<!-- Node3&#45;&gt;Node9 -->
<g id="edge8_Node000003_Node000009" class="edge">
<title>Node3&#45;&gt;Node9</title>
<g id="a_edge8_Node000003_Node000009"><a xlink:title=" ">
<path fill="none" stroke="#63b8ff" d="M620.48,-186.04C607.57,-175.84 590.35,-162.24 576.33,-151.17"/>
<polygon fill="#63b8ff" stroke="#63b8ff" points="618.62,-189.03 628.63,-192.48 622.95,-183.53 618.62,-189.03"/>
</a>
</g>
</g>
<!-- Node10 -->
<g id="Node000010" class="node">
<title>Node10</title>
<g id="a_Node000010"><a xlink:href="../../d8/d89/core__application__macos_8cpp.html" target="_top" xlink:title="macOS implementations of toy::application::CoreApplication via POSIX APIs.">
<polygon fill="white" stroke="#666666" points="804.92,-151 647.92,-151 647.92,-110 804.92,-110 804.92,-151"/>
<text text-anchor="start" x="655.92" y="-139" font-family="Helvetica,sans-Serif" font-size="10.00">src/platforms/macos</text>
<text text-anchor="start" x="655.92" y="-128" font-family="Helvetica,sans-Serif" font-size="10.00">/application/core_application</text>
<text text-anchor="middle" x="726.42" y="-117" font-family="Helvetica,sans-Serif" font-size="10.00">_macos.cpp</text>
</a>
</g>
</g>
<!-- Node3&#45;&gt;Node10 -->
<g id="edge9_Node000003_Node000010" class="edge">
<title>Node3&#45;&gt;Node10</title>
<g id="a_edge9_Node000003_Node000010"><a xlink:title=" ">
<path fill="none" stroke="#63b8ff" d="M658.15,-186.04C670.91,-175.84 687.94,-162.24 701.8,-151.17"/>
<polygon fill="#63b8ff" stroke="#63b8ff" points="655.72,-183.5 650.09,-192.48 660.09,-188.97 655.72,-183.5"/>
</a>
</g>
</g>
<!-- Node11 -->
<g id="Node000011" class="node">
<title>Node11</title>
<g id="a_Node000011"><a xlink:href="../../db/da8/core__application__stub_8cpp.html" target="_top" xlink:title="Stub implementation of toy::application::CoreApplication::sleep() for platforms without OS sleep supp...">
<polygon fill="white" stroke="#666666" points="979.92,-151 822.92,-151 822.92,-110 979.92,-110 979.92,-151"/>
<text text-anchor="start" x="830.92" y="-139" font-family="Helvetica,sans-Serif" font-size="10.00">src/platforms/stub</text>
<text text-anchor="start" x="830.92" y="-128" font-family="Helvetica,sans-Serif" font-size="10.00">/application/core_application</text>
<text text-anchor="middle" x="901.42" y="-117" font-family="Helvetica,sans-Serif" font-size="10.00">_stub.cpp</text>
</a>
</g>
</g>
<!-- Node3&#45;&gt;Node11 -->
<g id="edge10_Node000003_Node000011" class="edge">
<title>Node3&#45;&gt;Node11</title>
<g id="a_edge10_Node000003_Node000011"><a xlink:title=" ">
<path fill="none" stroke="#63b8ff" d="M681.35,-189.88C720.72,-179.43 780.49,-163.58 827.81,-151.03"/>
<polygon fill="#63b8ff" stroke="#63b8ff" points="680.32,-186.53 671.55,-192.48 682.11,-193.3 680.32,-186.53"/>
</a>
</g>
</g>
<!-- Node12 -->
<g id="Node000012" class="node">
<title>Node12</title>
<g id="a_Node000012"><a xlink:href="../../df/dd0/console__application__windows_8cpp.html" target="_top" xlink:title="Windows console entry&#45;point argument conversion from UTF&#45;16 to UTF&#45;8.">
<polygon fill="white" stroke="#666666" points="1142.42,-151 998.42,-151 998.42,-110 1142.42,-110 1142.42,-151"/>
<text text-anchor="start" x="1006.42" y="-139" font-family="Helvetica,sans-Serif" font-size="10.00">src/platforms/windows</text>
<text text-anchor="start" x="1006.42" y="-128" font-family="Helvetica,sans-Serif" font-size="10.00">/application/console</text>
<text text-anchor="middle" x="1070.42" y="-117" font-family="Helvetica,sans-Serif" font-size="10.00">_application_windows.cpp</text>
</a>
</g>
</g>
<!-- Node3&#45;&gt;Node12 -->
<g id="edge11_Node000003_Node000012" class="edge">
<title>Node3&#45;&gt;Node12</title>
<g id="a_edge11_Node000003_Node000012"><a xlink:title=" ">
<path fill="none" stroke="#63b8ff" d="M714.86,-192.21C785.77,-183.47 894.72,-168.82 988.42,-151 991.59,-150.4 994.81,-149.76 998.06,-149.09"/>
<polygon fill="#63b8ff" stroke="#63b8ff" points="714.18,-188.77 704.68,-193.46 715.03,-195.71 714.18,-188.77"/>
</a>
</g>
</g>
<!-- Node13 -->
<g id="Node000013" class="node">
<title>Node13</title>
<g id="a_Node000013"><a xlink:href="../../dc/d2d/core__application__windows_8cpp.html" target="_top" xlink:title="Windows implementations of toy::application::CoreApplication via Win32 APIs.">
<polygon fill="white" stroke="#666666" points="1317.92,-151 1160.92,-151 1160.92,-110 1317.92,-110 1317.92,-151"/>
<text text-anchor="start" x="1168.92" y="-139" font-family="Helvetica,sans-Serif" font-size="10.00">src/platforms/windows</text>
<text text-anchor="start" x="1168.92" y="-128" font-family="Helvetica,sans-Serif" font-size="10.00">/application/core_application</text>
<text text-anchor="middle" x="1239.42" y="-117" font-family="Helvetica,sans-Serif" font-size="10.00">_windows.cpp</text>
</a>
</g>
</g>
<!-- Node3&#45;&gt;Node13 -->
<g id="edge12_Node000003_Node000013" class="edge">
<title>Node3&#45;&gt;Node13</title>
<g id="a_edge12_Node000003_Node000013"><a xlink:title=" ">
<path fill="none" stroke="#63b8ff" d="M714.83,-196.49C815.01,-189.86 997.29,-175.51 1151.42,-151 1154.51,-150.51 1157.66,-149.97 1160.83,-149.41"/>
<polygon fill="#63b8ff" stroke="#63b8ff" points="714.56,-193.01 704.81,-197.15 715.01,-199.99 714.56,-193.01"/>
</a>
</g>
</g>
<!-- Node5 -->
<g id="Node000005" class="node">
<title>Node5</title>
<g id="a_Node000005"><a xlink:href="../../df/d0a/main_8cpp.html" target="_top" xlink:title="Entry point of the Qt&#45;based ToyGine 2 editor.">
<polygon fill="white" stroke="#666666" points="1683.42,-19 1573.42,-19 1573.42,0 1683.42,0 1683.42,-19"/>
<text text-anchor="middle" x="1628.42" y="-7" font-family="Helvetica,sans-Serif" font-size="10.00">editor/src/main.cpp</text>
</a>
</g>
</g>
<!-- Node4&#45;&gt;Node5 -->
<g id="edge4_Node000004_Node000005" class="edge">
<title>Node4&#45;&gt;Node5</title>
<g id="a_edge4_Node000004_Node000005"><a xlink:title=" ">
<path fill="none" stroke="#63b8ff" d="M1628.42,-44.66C1628.42,-35.93 1628.42,-25.99 1628.42,-19.09"/>
<polygon fill="#63b8ff" stroke="#63b8ff" points="1624.92,-44.75 1628.42,-54.75 1631.92,-44.75 1624.92,-44.75"/>
</a>
</g>
</g>
<!-- Node14&#45;&gt;Node4 -->
<g id="edge14_Node000014_Node000004" class="edge">
<title>Node14&#45;&gt;Node4</title>
<g id="a_edge14_Node000014_Node000004"><a xlink:title=" ">
<path fill="none" stroke="#63b8ff" d="M1462.75,-117.86C1470.87,-115.27 1479.44,-112.54 1487.42,-110 1527.06,-97.41 1572.99,-82.93 1601.38,-74"/>
<polygon fill="#63b8ff" stroke="#63b8ff" points="1461.6,-114.56 1453.14,-120.94 1463.73,-121.22 1461.6,-114.56"/>
</a>
</g>
</g>
<!-- Node15&#45;&gt;Node4 -->
<g id="edge16_Node000015_Node000004" class="edge">
<title>Node15&#45;&gt;Node4</title>
<g id="a_edge16_Node000015_Node000004"><a xlink:title=" ">
<path fill="none" stroke="#63b8ff" d="M1567.19,-114.49C1582.85,-101.96 1604.63,-84.54 1617.55,-74.2"/>
<polygon fill="#63b8ff" stroke="#63b8ff" points="1564.83,-111.89 1559.21,-120.87 1569.21,-117.35 1564.83,-111.89"/>
</a>
</g>
</g>
<!-- Node16&#45;&gt;Node4 -->
<g id="edge20_Node000016_Node000004" class="edge">
<title>Node16&#45;&gt;Node4</title>
<g id="a_edge20_Node000016_Node000004"><a xlink:title=" ">
<path fill="none" stroke="#63b8ff" d="M1666.43,-184.01C1659.87,-174.71 1652.29,-162.71 1647.42,-151 1636.27,-124.18 1631.19,-89.79 1629.32,-74.05"/>
<polygon fill="#63b8ff" stroke="#63b8ff" points="1663.78,-186.32 1672.51,-192.32 1669.42,-182.18 1663.78,-186.32"/>
</a>
</g>
</g>
<!-- Node17 -->
<g id="Node000017" class="node">
<title>Node17</title>
<g id="a_Node000017"><a xlink:href="../../db/dbb/geometry_8hpp.html" target="_top" xlink:title="Umbrella header for the geometry module.">
<polygon fill="white" stroke="#666666" points="1778.42,-140 1656.42,-140 1656.42,-121 1778.42,-121 1778.42,-140"/>
<text text-anchor="middle" x="1717.42" y="-128" font-family="Helvetica,sans-Serif" font-size="10.00">include/geometry.hpp</text>
</a>
</g>
</g>
<!-- Node16&#45;&gt;Node17 -->
<g id="edge18_Node000016_Node000017" class="edge">
<title>Node16&#45;&gt;Node17</title>
<g id="a_edge18_Node000016_Node000017"><a xlink:title=" ">
<path fill="none" stroke="#63b8ff" d="M1689.03,-183.43C1696.6,-169.58 1706.84,-150.86 1712.73,-140.09"/>
<polygon fill="#63b8ff" stroke="#63b8ff" points="1685.81,-182.02 1684.08,-192.48 1691.95,-185.38 1685.81,-182.02"/>
</a>
</g>
</g>
<!-- Node17&#45;&gt;Node4 -->
<g id="edge19_Node000017_Node000004" class="edge">
<title>Node17&#45;&gt;Node4</title>
<g id="a_edge19_Node000017_Node000004"><a xlink:title=" ">
<path fill="none" stroke="#63b8ff" d="M1697.03,-114.83C1679.57,-102.28 1655.03,-84.63 1640.52,-74.2"/>
<polygon fill="#63b8ff" stroke="#63b8ff" points="1695.26,-117.87 1705.42,-120.87 1699.34,-112.19 1695.26,-117.87"/>
</a>
</g>
</g>
<!-- Node18&#45;&gt;Node4 -->
<g id="edge22_Node000018_Node000004" class="edge">
<title>Node18&#45;&gt;Node4</title>
<g id="a_edge22_Node000018_Node000004"><a xlink:title=" ">
<path fill="none" stroke="#63b8ff" d="M1807.82,-182.22C1808.26,-161.81 1805.66,-129.5 1787.42,-110 1762.07,-82.89 1721.68,-71.82 1687.95,-67.5"/>
<polygon fill="#63b8ff" stroke="#63b8ff" points="1804.31,-182.27 1807.32,-192.43 1811.3,-182.61 1804.31,-182.27"/>
</a>
</g>
</g>
<!-- Node19 -->
<g id="Node000019" class="node">
<title>Node19</title>
<g id="a_Node000019"><a xlink:href="../../d3/d80/endpoint_8cpp.html" target="_top" xlink:title="Definitions for the toy::network::Endpoint destructor declared in network/endpoint....">
<polygon fill="white" stroke="#666666" points="1974.42,-140 1834.42,-140 1834.42,-121 1974.42,-121 1974.42,-140"/>
<text text-anchor="middle" x="1904.42" y="-128" font-family="Helvetica,sans-Serif" font-size="10.00">src/network/endpoint.cpp</text>
</a>
</g>
</g>
<!-- Node18&#45;&gt;Node19 -->
<g id="edge23_Node000018_Node000019" class="edge">
<title>Node18&#45;&gt;Node19</title>
<g id="a_edge23_Node000018_Node000019"><a xlink:title=" ">
<path fill="none" stroke="#63b8ff" d="M1826.77,-186.57C1846.56,-172.54 1875.95,-151.7 1892.31,-140.09"/>
<polygon fill="#63b8ff" stroke="#63b8ff" points="1824.57,-183.84 1818.44,-192.48 1828.62,-189.55 1824.57,-183.84"/>
</a>
</g>
</g>
<!-- Node20&#45;&gt;Node4 -->
<g id="edge25_Node000020_Node000004" class="edge">
<title>Node20&#45;&gt;Node4</title>
<g id="a_edge25_Node000020_Node000004"><a xlink:title=" ">
<path fill="none" stroke="#63b8ff" d="M2018.49,-118.2C2007.25,-115.22 1994.91,-112.22 1983.42,-110 1880.52,-90.08 1759.02,-77.09 1688.16,-70.54"/>
<polygon fill="#63b8ff" stroke="#63b8ff" points="2017.89,-121.67 2028.46,-120.91 2019.73,-114.91 2017.89,-121.67"/>
</a>
</g>
</g>
<!-- Node21&#45;&gt;Node4 -->
<g id="edge27_Node000021_Node000004" class="edge">
<title>Node21&#45;&gt;Node4</title>
<g id="a_edge27_Node000021_Node000004"><a xlink:title=" ">
<path fill="none" stroke="#63b8ff" d="M2018.2,-189.88C2062.21,-178.27 2124.51,-160.45 2131.42,-151 2142.18,-136.29 2143.73,-123.44 2131.42,-110 2102.01,-77.87 1815.09,-68.81 1688.23,-66.36"/>
<polygon fill="#63b8ff" stroke="#63b8ff" points="2017.08,-186.56 2008.29,-192.48 2018.85,-193.33 2017.08,-186.56"/>
</a>
</g>
</g>
<!-- Node22 -->
<g id="Node000022" class="node">
<title>Node22</title>
<g id="a_Node000022"><a xlink:href="../../db/d3d/pixel__format_8cpp.html" target="_top" xlink:title="Definitions for pixelFormatName() and pixelFormatFromName() declared in render/pixel_format....">
<polygon fill="white" stroke="#666666" points="2328.42,-140 2178.42,-140 2178.42,-121 2328.42,-121 2328.42,-140"/>
<text text-anchor="middle" x="2253.42" y="-128" font-family="Helvetica,sans-Serif" font-size="10.00">src/render/pixel_format.cpp</text>
</a>
</g>
</g>
<!-- Node21&#45;&gt;Node22 -->
<g id="edge28_Node000021_Node000022" class="edge">
<title>Node21&#45;&gt;Node22</title>
<g id="a_edge28_Node000021_Node000022"><a xlink:title=" ">
<path fill="none" stroke="#63b8ff" d="M2018.54,-190.01C2074.09,-176.17 2168.36,-152.69 2218.93,-140.09"/>
<polygon fill="#63b8ff" stroke="#63b8ff" points="2017.49,-186.66 2008.63,-192.48 2019.18,-193.46 2017.49,-186.66"/>
</a>
</g>
</g>
<!-- Node36&#45;&gt;Node2 -->
<g id="edge44_Node000036_Node000002" class="edge">
<title>Node36&#45;&gt;Node2</title>
<g id="a_edge44_Node000036_Node000002"><a xlink:title=" ">
<path fill="none" stroke="#63b8ff" d="M2389.27,-299.51C2382.44,-289.99 2374.89,-279.47 2369.72,-272.27"/>
<polygon fill="#63b8ff" stroke="#63b8ff" points="2386.58,-301.76 2395.26,-307.84 2392.27,-297.67 2386.58,-301.76"/>
</a>
</g>
</g>
</g>
</svg>
