<?xml version="1.0" encoding="UTF-8" standalone="no"?>
<!DOCTYPE svg PUBLIC "-//W3C//DTD SVG 1.1//EN"
 "http://www.w3.org/Graphics/SVG/1.1/DTD/svg11.dtd">
<!-- Generated by graphviz version 2.43.0 (0)
 -->
<!-- Title: include/math.hpp Pages: 1 -->
<svg width="2546pt" height="159pt"
 viewBox="0.00 0.00 2545.50 159.00" xmlns="http://www.w3.org/2000/svg" xmlns:xlink="http://www.w3.org/1999/xlink">
<g id="graph0" class="graph" transform="scale(1 1) rotate(0) translate(4 155)">
<title>include/math.hpp</title>
<!-- Node1 -->
<g id="Node000001" class="node">
<title>Node1</title>
<g id="a_Node000001"><a xlink:title="Umbrella header for the engine mathematics module.">
<polygon fill="#999999" stroke="#666666" points="1167.5,-151 1066.5,-151 1066.5,-132 1167.5,-132 1167.5,-151"/>
<text text-anchor="middle" x="1117" y="-139" font-family="Helvetica,sans-Serif" font-size="10.00">include/math.hpp</text>
</a>
</g>
</g>
<!-- Node2 -->
<g id="Node000002" class="node">
<title>Node2</title>
<g id="a_Node000002"><a xlink:href="../../da/d47/core_8hpp.html" target="_top" xlink:title="Umbrella header for the engine core module.">
<polygon fill="white" stroke="#666666" points="935.5,-96 876.5,-96 876.5,-77 935.5,-77 935.5,-96"/>
<text text-anchor="middle" x="906" y="-84" font-family="Helvetica,sans-Serif" font-size="10.00">core.hpp</text>
</a>
</g>
</g>
<!-- Node1&#45;&gt;Node2 -->
<g id="edge1_Node000001_Node000002" class="edge">
<title>Node1&#45;&gt;Node2</title>
<g id="a_edge1_Node000001_Node000002"><a xlink:title=" ">
<path fill="none" stroke="#63b8ff" d="M1083.1,-131.98C1045.59,-122.56 985.22,-107.4 945.58,-97.44"/>
<polygon fill="#63b8ff" stroke="#63b8ff" points="946.28,-94.01 935.72,-94.97 944.57,-100.8 946.28,-94.01"/>
</a>
</g>
</g>
<!-- Node28 -->
<g id="Node000028" class="node">
<title>Node28</title>
<g id="a_Node000028"><a xlink:href="../../d0/de4/point_8hpp.html" target="_top" xlink:title="2D integer point class for UI and input handling.">
<polygon fill="white" stroke="#666666" points="1044.5,-96 953.5,-96 953.5,-77 1044.5,-77 1044.5,-96"/>
<text text-anchor="middle" x="999" y="-84" font-family="Helvetica,sans-Serif" font-size="10.00">math/point.hpp</text>
</a>
</g>
</g>
<!-- Node1&#45;&gt;Node28 -->
<g id="edge27_Node000001_Node000028" class="edge">
<title>Node1&#45;&gt;Node28</title>
<g id="a_edge27_Node000001_Node000028"><a xlink:title=" ">
<path fill="none" stroke="#63b8ff" d="M1098.04,-131.98C1078.97,-123.42 1049.34,-110.11 1027.45,-100.28"/>
<polygon fill="#63b8ff" stroke="#63b8ff" points="1028.86,-97.07 1018.3,-96.17 1025.99,-103.46 1028.86,-97.07"/>
</a>
</g>
</g>
<!-- Node29 -->
<g id="Node000029" class="node">
<title>Node29</title>
<g id="a_Node000029"><a xlink:href="../../d6/de1/vector2d_8hpp.html" target="_top" xlink:title="TODO.">
<polygon fill="white" stroke="#666666" points="1171.5,-96 1062.5,-96 1062.5,-77 1171.5,-77 1171.5,-96"/>
<text text-anchor="middle" x="1117" y="-84" font-family="Helvetica,sans-Serif" font-size="10.00">math/vector2d.hpp</text>
</a>
</g>
</g>
<!-- Node1&#45;&gt;Node29 -->
<g id="edge28_Node000001_Node000029" class="edge">
<title>Node1&#45;&gt;Node29</title>
<g id="a_edge28_Node000001_Node000029"><a xlink:title=" ">
<path fill="none" stroke="#63b8ff" d="M1117,-131.75C1117,-124.8 1117,-114.85 1117,-106.13"/>
<polygon fill="#63b8ff" stroke="#63b8ff" points="1120.5,-106.09 1117,-96.09 1113.5,-106.09 1120.5,-106.09"/>
</a>
</g>
</g>
<!-- Node30 -->
<g id="Node000030" class="node">
<title>Node30</title>
<g id="a_Node000030"><a xlink:href="../../d4/dee/point_8inl.html" target="_top" xlink:title="Inline implementations for 2D integer point class.">
<polygon fill="white" stroke="#666666" points="1274.5,-96 1189.5,-96 1189.5,-77 1274.5,-77 1274.5,-96"/>
<text text-anchor="middle" x="1232" y="-84" font-family="Helvetica,sans-Serif" font-size="10.00">math/point.inl</text>
</a>
</g>
</g>
<!-- Node1&#45;&gt;Node30 -->
<g id="edge29_Node000001_Node000030" class="edge">
<title>Node1&#45;&gt;Node30</title>
<g id="a_edge29_Node000001_Node000030"><a xlink:title=" ">
<path fill="none" stroke="#63b8ff" d="M1135.48,-131.98C1153.98,-123.46 1182.68,-110.23 1203.98,-100.41"/>
<polygon fill="#63b8ff" stroke="#63b8ff" points="1205.57,-103.53 1213.19,-96.17 1202.64,-97.18 1205.57,-103.53"/>
</a>
</g>
</g>
<!-- Node31 -->
<g id="Node000031" class="node">
<title>Node31</title>
<g id="a_Node000031"><a xlink:href="../../dd/d53/vector2d_8inl.html" target="_top" xlink:title="TODO.">
<polygon fill="white" stroke="#666666" points="1395.5,-96 1292.5,-96 1292.5,-77 1395.5,-77 1395.5,-96"/>
<text text-anchor="middle" x="1344" y="-84" font-family="Helvetica,sans-Serif" font-size="10.00">math/vector2d.inl</text>
</a>
</g>
</g>
<!-- Node1&#45;&gt;Node31 -->
<g id="edge30_Node000001_Node000031" class="edge">
<title>Node1&#45;&gt;Node31</title>
<g id="a_edge30_Node000001_Node000031"><a xlink:title=" ">
<path fill="none" stroke="#63b8ff" d="M1153.47,-131.98C1192.57,-122.86 1254.77,-108.33 1297.39,-98.38"/>
<polygon fill="#63b8ff" stroke="#63b8ff" points="1298.3,-101.76 1307.24,-96.08 1296.71,-94.95 1298.3,-101.76"/>
</a>
</g>
</g>
<!-- Node3 -->
<g id="Node000003" class="node">
<title>Node3</title>
<g id="a_Node000003"><a xlink:title=" ">
<polygon fill="#e0e0e0" stroke="#999999" points="64,-30 0,-30 0,-11 64,-11 64,-30"/>
<text text-anchor="middle" x="32" y="-18" font-family="Helvetica,sans-Serif" font-size="10.00">algorithm</text>
</a>
</g>
</g>
<!-- Node2&#45;&gt;Node3 -->
<g id="edge2_Node000002_Node000003" class="edge">
<title>Node2&#45;&gt;Node3</title>
<g id="a_edge2_Node000002_Node000003"><a xlink:title=" ">
<path fill="none" stroke="#63b8ff" d="M876.28,-85.45C746.59,-85.02 229.69,-80.79 73,-41 67.27,-39.55 61.38,-37.27 55.91,-34.78"/>
<polygon fill="#63b8ff" stroke="#63b8ff" points="57.17,-31.5 46.66,-30.19 54.06,-37.77 57.17,-31.5"/>
</a>
</g>
</g>
<!-- Node4 -->
<g id="Node000004" class="node">
<title>Node4</title>
<g id="a_Node000004"><a xlink:title=" ">
<polygon fill="#e0e0e0" stroke="#999999" points="124,-30 82,-30 82,-11 124,-11 124,-30"/>
<text text-anchor="middle" x="103" y="-18" font-family="Helvetica,sans-Serif" font-size="10.00">array</text>
</a>
</g>
</g>
<!-- Node2&#45;&gt;Node4 -->
<g id="edge3_Node000002_Node000004" class="edge">
<title>Node2&#45;&gt;Node4</title>
<g id="a_edge3_Node000002_Node000004"><a xlink:title=" ">
<path fill="none" stroke="#63b8ff" d="M876.22,-85.81C751.97,-86.82 274.78,-87.5 133,-41 129.24,-39.77 125.49,-37.94 121.98,-35.89"/>
<polygon fill="#63b8ff" stroke="#63b8ff" points="123.67,-32.81 113.41,-30.2 119.8,-38.64 123.67,-32.81"/>
</a>
</g>
</g>
<!-- Node5 -->
<g id="Node000005" class="node">
<title>Node5</title>
<g id="a_Node000005"><a xlink:title=" ">
<polygon fill="#e0e0e0" stroke="#999999" points="201.5,-30 142.5,-30 142.5,-11 201.5,-11 201.5,-30"/>
<text text-anchor="middle" x="172" y="-18" font-family="Helvetica,sans-Serif" font-size="10.00">compare</text>
</a>
</g>
</g>
<!-- Node2&#45;&gt;Node5 -->
<g id="edge4_Node000002_Node000005" class="edge">
<title>Node2&#45;&gt;Node5</title>
<g id="a_edge4_Node000002_Node000005"><a xlink:title=" ">
<path fill="none" stroke="#63b8ff" d="M876.25,-85.16C760.39,-83.62 339.4,-75.68 211,-41 205.66,-39.56 200.18,-37.35 195.09,-34.93"/>
<polygon fill="#63b8ff" stroke="#63b8ff" points="196.39,-31.66 185.9,-30.16 193.16,-37.87 196.39,-31.66"/>
</a>
</g>
</g>
<!-- Node6 -->
<g id="Node000006" class="node">
<title>Node6</title>
<g id="a_Node000006"><a xlink:title=" ">
<polygon fill="#e0e0e0" stroke="#999999" points="280,-30 220,-30 220,-11 280,-11 280,-30"/>
<text text-anchor="middle" x="250" y="-18" font-family="Helvetica,sans-Serif" font-size="10.00">concepts</text>
</a>
</g>
</g>
<!-- Node2&#45;&gt;Node6 -->
<g id="edge5_Node000002_Node000006" class="edge">
<title>Node2&#45;&gt;Node6</title>
<g id="a_edge5_Node000002_Node000006"><a xlink:title=" ">
<path fill="none" stroke="#63b8ff" d="M876.35,-84.89C769.09,-82.44 401.76,-71.94 289,-41 283.66,-39.54 278.19,-37.32 273.1,-34.89"/>
<polygon fill="#63b8ff" stroke="#63b8ff" points="274.4,-31.62 263.91,-30.13 271.17,-37.84 274.4,-31.62"/>
</a>
</g>
</g>
<!-- Node7 -->
<g id="Node000007" class="node">
<title>Node7</title>
<g id="a_Node000007"><a xlink:title=" ">
<polygon fill="#e0e0e0" stroke="#999999" points="351.5,-30 298.5,-30 298.5,-11 351.5,-11 351.5,-30"/>
<text text-anchor="middle" x="325" y="-18" font-family="Helvetica,sans-Serif" font-size="10.00">cstddef</text>
</a>
</g>
</g>
<!-- Node2&#45;&gt;Node7 -->
<g id="edge6_Node000002_Node000007" class="edge">
<title>Node2&#45;&gt;Node7</title>
<g id="a_edge6_Node000002_Node000007"><a xlink:title=" ">
<path fill="none" stroke="#63b8ff" d="M876.41,-84.69C777.48,-81.73 458.94,-70.11 361,-41 356.15,-39.56 351.2,-37.41 346.6,-35.05"/>
<polygon fill="#63b8ff" stroke="#63b8ff" points="348.2,-31.94 337.76,-30.11 344.78,-38.04 348.2,-31.94"/>
</a>
</g>
</g>
<!-- Node8 -->
<g id="Node000008" class="node">
<title>Node8</title>
<g id="a_Node000008"><a xlink:title=" ">
<polygon fill="#e0e0e0" stroke="#999999" points="420,-30 370,-30 370,-11 420,-11 420,-30"/>
<text text-anchor="middle" x="395" y="-18" font-family="Helvetica,sans-Serif" font-size="10.00">cstdint</text>
</a>
</g>
</g>
<!-- Node2&#45;&gt;Node8 -->
<g id="edge7_Node000002_Node000008" class="edge">
<title>Node2&#45;&gt;Node8</title>
<g id="a_edge7_Node000002_Node000008"><a xlink:title=" ">
<path fill="none" stroke="#63b8ff" d="M876.34,-84.38C785.65,-80.7 513.14,-67.66 429,-41 424.5,-39.57 419.94,-37.49 415.69,-35.21"/>
<polygon fill="#63b8ff" stroke="#63b8ff" points="417.39,-32.15 407,-30.07 413.83,-38.17 417.39,-32.15"/>
</a>
</g>
</g>
<!-- Node9 -->
<g id="Node000009" class="node">
<title>Node9</title>
<g id="a_Node000009"><a xlink:title=" ">
<polygon fill="#e0e0e0" stroke="#999999" points="488,-30 438,-30 438,-11 488,-11 488,-30"/>
<text text-anchor="middle" x="463" y="-18" font-family="Helvetica,sans-Serif" font-size="10.00">cstring</text>
</a>
</g>
</g>
<!-- Node2&#45;&gt;Node9 -->
<g id="edge8_Node000002_Node000009" class="edge">
<title>Node2&#45;&gt;Node9</title>
<g id="a_edge8_Node000002_Node000009"><a xlink:title=" ">
<path fill="none" stroke="#63b8ff" d="M876.3,-83.85C794.58,-79.07 567.81,-64.04 497,-41 492.51,-39.54 487.96,-37.44 483.71,-35.15"/>
<polygon fill="#63b8ff" stroke="#63b8ff" points="485.41,-32.09 475.02,-30.02 481.85,-38.12 485.41,-32.09"/>
</a>
</g>
</g>
<!-- Node10 -->
<g id="Node000010" class="node">
<title>Node10</title>
<g id="a_Node000010"><a xlink:title=" ">
<polygon fill="#e0e0e0" stroke="#999999" points="555.5,-30 506.5,-30 506.5,-11 555.5,-11 555.5,-30"/>
<text text-anchor="middle" x="531" y="-18" font-family="Helvetica,sans-Serif" font-size="10.00">cuchar</text>
</a>
</g>
</g>
<!-- Node2&#45;&gt;Node10 -->
<g id="edge9_Node000002_Node000010" class="edge">
<title>Node2&#45;&gt;Node10</title>
<g id="a_edge9_Node000002_Node000010"><a xlink:title=" ">
<path fill="none" stroke="#63b8ff" d="M876.4,-85.47C816.15,-84.58 675.6,-78.3 565,-41 560.72,-39.56 556.37,-37.55 552.28,-35.37"/>
<polygon fill="#63b8ff" stroke="#63b8ff" points="553.75,-32.18 543.36,-30.15 550.22,-38.22 553.75,-32.18"/>
</a>
</g>
</g>
<!-- Node11 -->
<g id="Node000011" class="node">
<title>Node11</title>
<g id="a_Node000011"><a xlink:title=" ">
<polygon fill="#e0e0e0" stroke="#999999" points="632,-30 574,-30 574,-11 632,-11 632,-30"/>
<text text-anchor="middle" x="603" y="-18" font-family="Helvetica,sans-Serif" font-size="10.00">memory</text>
</a>
</g>
</g>
<!-- Node2&#45;&gt;Node11 -->
<g id="edge10_Node000002_Node000011" class="edge">
<title>Node2&#45;&gt;Node11</title>
<g id="a_edge10_Node000002_Node000011"><a xlink:title=" ">
<path fill="none" stroke="#63b8ff" d="M876.27,-83.5C826.48,-79.49 723.58,-68.39 641,-41 636.15,-39.39 631.16,-37.24 626.46,-34.95"/>
<polygon fill="#63b8ff" stroke="#63b8ff" points="627.82,-31.71 617.34,-30.19 624.58,-37.92 627.82,-31.71"/>
</a>
</g>
</g>
<!-- Node12 -->
<g id="Node000012" class="node">
<title>Node12</title>
<g id="a_Node000012"><a xlink:title=" ">
<polygon fill="#e0e0e0" stroke="#999999" points="715.5,-30 650.5,-30 650.5,-11 715.5,-11 715.5,-30"/>
<text text-anchor="middle" x="683" y="-18" font-family="Helvetica,sans-Serif" font-size="10.00">stdexcept</text>
</a>
</g>
</g>
<!-- Node2&#45;&gt;Node12 -->
<g id="edge11_Node000002_Node000012" class="edge">
<title>Node2&#45;&gt;Node12</title>
<g id="a_edge11_Node000002_Node000012"><a xlink:title=" ">
<path fill="none" stroke="#63b8ff" d="M876.34,-80.04C840.06,-72.96 777.05,-59.29 725,-41 719.6,-39.1 713.95,-36.75 708.61,-34.34"/>
<polygon fill="#63b8ff" stroke="#63b8ff" points="709.99,-31.13 699.45,-30.04 707.01,-37.46 709.99,-31.13"/>
</a>
</g>
</g>
<!-- Node13 -->
<g id="Node000013" class="node">
<title>Node13</title>
<g id="a_Node000013"><a xlink:title=" ">
<polygon fill="#e0e0e0" stroke="#999999" points="778,-30 734,-30 734,-11 778,-11 778,-30"/>
<text text-anchor="middle" x="756" y="-18" font-family="Helvetica,sans-Serif" font-size="10.00">string</text>
</a>
</g>
</g>
<!-- Node2&#45;&gt;Node13 -->
<g id="edge12_Node000002_Node000013" class="edge">
<title>Node2&#45;&gt;Node13</title>
<g id="a_edge12_Node000002_Node000013"><a xlink:title=" ">
<path fill="none" stroke="#63b8ff" d="M878.4,-76.96C853.84,-68.94 817.24,-55.97 787,-41 783.71,-39.37 780.33,-37.48 777.06,-35.54"/>
<polygon fill="#63b8ff" stroke="#63b8ff" points="778.67,-32.42 768.33,-30.07 774.95,-38.35 778.67,-32.42"/>
</a>
</g>
</g>
<!-- Node14 -->
<g id="Node000014" class="node">
<title>Node14</title>
<g id="a_Node000014"><a xlink:title=" ">
<polygon fill="#e0e0e0" stroke="#999999" points="865.5,-30 796.5,-30 796.5,-11 865.5,-11 865.5,-30"/>
<text text-anchor="middle" x="831" y="-18" font-family="Helvetica,sans-Serif" font-size="10.00">type_traits</text>
</a>
</g>
</g>
<!-- Node2&#45;&gt;Node14 -->
<g id="edge13_Node000002_Node000014" class="edge">
<title>Node2&#45;&gt;Node14</title>
<g id="a_edge13_Node000002_Node000014"><a xlink:title=" ">
<path fill="none" stroke="#63b8ff" d="M895.89,-76.87C883.99,-66.71 864,-49.66 849.35,-37.15"/>
<polygon fill="#63b8ff" stroke="#63b8ff" points="851.31,-34.23 841.44,-30.41 846.77,-39.56 851.31,-34.23"/>
</a>
</g>
</g>
<!-- Node15 -->
<g id="Node000015" class="node">
<title>Node15</title>
<g id="a_Node000015"><a xlink:title=" ">
<polygon fill="#e0e0e0" stroke="#999999" points="928.5,-30 883.5,-30 883.5,-11 928.5,-11 928.5,-30"/>
<text text-anchor="middle" x="906" y="-18" font-family="Helvetica,sans-Serif" font-size="10.00">utility</text>
</a>
</g>
</g>
<!-- Node2&#45;&gt;Node15 -->
<g id="edge14_Node000002_Node000015" class="edge">
<title>Node2&#45;&gt;Node15</title>
<g id="a_edge14_Node000002_Node000015"><a xlink:title=" ">
<path fill="none" stroke="#63b8ff" d="M906,-76.87C906,-67.66 906,-52.79 906,-40.77"/>
<polygon fill="#63b8ff" stroke="#63b8ff" points="909.5,-40.41 906,-30.41 902.5,-40.41 909.5,-40.41"/>
</a>
</g>
</g>
<!-- Node16 -->
<g id="Node000016" class="node">
<title>Node16</title>
<g id="a_Node000016"><a xlink:href="../../dd/d9e/linux_2platform__config_8hpp.html" target="_top" xlink:title="additional linux platform header">
<polygon fill="white" stroke="#666666" points="1101.5,-41 946.5,-41 946.5,0 1101.5,0 1101.5,-41"/>
<text text-anchor="start" x="954.5" y="-29" font-family="Helvetica,sans-Serif" font-size="10.00">/home/runner/work/toygine2</text>
<text text-anchor="start" x="954.5" y="-18" font-family="Helvetica,sans-Serif" font-size="10.00">/toygine2/src/platforms</text>
<text text-anchor="middle" x="1024" y="-7" font-family="Helvetica,sans-Serif" font-size="10.00">/linux/platform_config.hpp</text>
</a>
</g>
</g>
<!-- Node2&#45;&gt;Node16 -->
<g id="edge15_Node000002_Node000016" class="edge">
<title>Node2&#45;&gt;Node16</title>
<g id="a_edge15_Node000002_Node000016"><a xlink:title=" ">
<path fill="none" stroke="#63b8ff" d="M921.91,-76.87C936.53,-68.94 958.92,-56.8 979,-45.91"/>
<polygon fill="#63b8ff" stroke="#63b8ff" points="980.91,-48.85 988.03,-41.01 977.57,-42.7 980.91,-48.85"/>
</a>
</g>
</g>
<!-- Node17 -->
<g id="Node000017" class="node">
<title>Node17</title>
<g id="a_Node000017"><a xlink:href="../../dd/ded/c__string__view_8hpp.html" target="_top" xlink:title="Non&#45;owning string view class for C&#45;style strings.">
<polygon fill="white" stroke="#666666" points="1248,-30 1120,-30 1120,-11 1248,-11 1248,-30"/>
<text text-anchor="middle" x="1184" y="-18" font-family="Helvetica,sans-Serif" font-size="10.00">core/c_string_view.hpp</text>
</a>
</g>
</g>
<!-- Node2&#45;&gt;Node17 -->
<g id="edge16_Node000002_Node000017" class="edge">
<title>Node2&#45;&gt;Node17</title>
<g id="a_edge16_Node000002_Node000017"><a xlink:title=" ">
<path fill="none" stroke="#63b8ff" d="M935.81,-79C938.91,-78.32 942.02,-77.65 945,-77 1018.77,-60.96 1037.62,-58.75 1111,-41 1121.53,-38.45 1132.87,-35.52 1143.39,-32.71"/>
<polygon fill="#63b8ff" stroke="#63b8ff" points="1144.43,-36.06 1153.18,-30.08 1142.61,-29.3 1144.43,-36.06"/>
</a>
</g>
</g>
<!-- Node18 -->
<g id="Node000018" class="node">
<title>Node18</title>
<g id="a_Node000018"><a xlink:href="../../d4/dc0/constexpr__utils_8hpp.html" target="_top" xlink:title="Constexpr utility functions for compile&#45;time operations.">
<polygon fill="white" stroke="#666666" points="1402,-30 1266,-30 1266,-11 1402,-11 1402,-30"/>
<text text-anchor="middle" x="1334" y="-18" font-family="Helvetica,sans-Serif" font-size="10.00">core/constexpr_utils.hpp</text>
</a>
</g>
</g>
<!-- Node2&#45;&gt;Node18 -->
<g id="edge17_Node000002_Node000018" class="edge">
<title>Node2&#45;&gt;Node18</title>
<g id="a_edge17_Node000002_Node000018"><a xlink:title=" ">
<path fill="none" stroke="#63b8ff" d="M935.75,-78.7C938.87,-78.08 941.99,-77.5 945,-77 1082.7,-54.11 1119.71,-66.19 1257,-41 1269.29,-38.74 1282.53,-35.64 1294.51,-32.58"/>
<polygon fill="#63b8ff" stroke="#63b8ff" points="1295.43,-35.95 1304.22,-30.03 1293.66,-29.18 1295.43,-35.95"/>
</a>
</g>
</g>
<!-- Node19 -->
<g id="Node000019" class="node">
<title>Node19</title>
<g id="a_Node000019"><a xlink:href="../../d7/d7f/fixed__string_8hpp.html" target="_top" xlink:title="Template string class with fixed&#45;size character buffer.">
<polygon fill="white" stroke="#666666" points="1538,-30 1420,-30 1420,-11 1538,-11 1538,-30"/>
<text text-anchor="middle" x="1479" y="-18" font-family="Helvetica,sans-Serif" font-size="10.00">core/fixed_string.hpp</text>
</a>
</g>
</g>
<!-- Node2&#45;&gt;Node19 -->
<g id="edge18_Node000002_Node000019" class="edge">
<title>Node2&#45;&gt;Node19</title>
<g id="a_edge18_Node000002_Node000019"><a xlink:title=" ">
<path fill="none" stroke="#63b8ff" d="M935.73,-78.58C938.85,-77.99 941.98,-77.44 945,-77 1150.52,-46.81 1206.56,-77.82 1411,-41 1421.9,-39.04 1433.56,-36.04 1444.09,-32.97"/>
<polygon fill="#63b8ff" stroke="#63b8ff" points="1445.22,-36.29 1453.78,-30.05 1443.19,-29.59 1445.22,-36.29"/>
</a>
</g>
</g>
<!-- Node20 -->
<g id="Node000020" class="node">
<title>Node20</title>
<g id="a_Node000020"><a xlink:href="../../d7/dea/fixed__vector_8hpp.html" target="_top" xlink:title="TODO.">
<polygon fill="white" stroke="#666666" points="1676,-30 1556,-30 1556,-11 1676,-11 1676,-30"/>
<text text-anchor="middle" x="1616" y="-18" font-family="Helvetica,sans-Serif" font-size="10.00">core/fixed_vector.hpp</text>
</a>
</g>
</g>
<!-- Node2&#45;&gt;Node20 -->
<g id="edge19_Node000002_Node000020" class="edge">
<title>Node2&#45;&gt;Node20</title>
<g id="a_edge19_Node000002_Node000020"><a xlink:title=" ">
<path fill="none" stroke="#63b8ff" d="M935.73,-78.52C938.85,-77.94 941.98,-77.42 945,-77 1210.52,-40.35 1282.72,-85.71 1547,-41 1558.16,-39.11 1570.1,-36.1 1580.86,-33.01"/>
<polygon fill="#63b8ff" stroke="#63b8ff" points="1582.16,-36.27 1590.74,-30.05 1580.16,-29.57 1582.16,-36.27"/>
</a>
</g>
</g>
<!-- Node21 -->
<g id="Node000021" class="node">
<title>Node21</title>
<g id="a_Node000021"><a xlink:href="../../dd/d8e/hashes_8hpp.html" target="_top" xlink:title="CRC hash functions.">
<polygon fill="white" stroke="#666666" points="1790,-30 1694,-30 1694,-11 1790,-11 1790,-30"/>
<text text-anchor="middle" x="1742" y="-18" font-family="Helvetica,sans-Serif" font-size="10.00">core/hashes.hpp</text>
</a>
</g>
</g>
<!-- Node2&#45;&gt;Node21 -->
<g id="edge20_Node000002_Node000021" class="edge">
<title>Node2&#45;&gt;Node21</title>
<g id="a_edge20_Node000002_Node000021"><a xlink:title=" ">
<path fill="none" stroke="#63b8ff" d="M935.72,-78.49C938.84,-77.91 941.98,-77.4 945,-77 1271.43,-33.79 1361.59,-102.9 1685,-41 1693.93,-39.29 1703.38,-36.49 1711.95,-33.54"/>
<polygon fill="#63b8ff" stroke="#63b8ff" points="1713.33,-36.76 1721.53,-30.06 1710.94,-30.18 1713.33,-36.76"/>
</a>
</g>
</g>
<!-- Node22 -->
<g id="Node000022" class="node">
<title>Node22</title>
<g id="a_Node000022"><a xlink:href="../../df/d93/utils_8hpp.html" target="_top" xlink:title="Core utility functions for string manipulation, encoding conversion, and number formatting.">
<polygon fill="white" stroke="#666666" points="1891.5,-30 1808.5,-30 1808.5,-11 1891.5,-11 1891.5,-30"/>
<text text-anchor="middle" x="1850" y="-18" font-family="Helvetica,sans-Serif" font-size="10.00">core/utils.hpp</text>
</a>
</g>
</g>
<!-- Node2&#45;&gt;Node22 -->
<g id="edge21_Node000002_Node000022" class="edge">
<title>Node2&#45;&gt;Node22</title>
<g id="a_edge21_Node000002_Node000022"><a xlink:title=" ">
<path fill="none" stroke="#63b8ff" d="M935.72,-78.47C938.84,-77.9 941.98,-77.39 945,-77 1321.77,-28.37 1426.96,-117.84 1799,-41 1806.87,-39.37 1815.13,-36.68 1822.65,-33.81"/>
<polygon fill="#63b8ff" stroke="#63b8ff" points="1824.07,-37.02 1832.02,-30.01 1821.44,-30.53 1824.07,-37.02"/>
</a>
</g>
</g>
<!-- Node23 -->
<g id="Node000023" class="node">
<title>Node23</title>
<g id="a_Node000023"><a xlink:href="../../df/d4a/c__string__view_8inl.html" target="_top" xlink:title="Inline implementations for CStringView class.">
<polygon fill="white" stroke="#666666" points="2032,-30 1910,-30 1910,-11 2032,-11 2032,-30"/>
<text text-anchor="middle" x="1971" y="-18" font-family="Helvetica,sans-Serif" font-size="10.00">core/c_string_view.inl</text>
</a>
</g>
</g>
<!-- Node2&#45;&gt;Node23 -->
<g id="edge22_Node000002_Node000023" class="edge">
<title>Node2&#45;&gt;Node23</title>
<g id="a_edge22_Node000002_Node000023"><a xlink:title=" ">
<path fill="none" stroke="#63b8ff" d="M935.72,-78.46C938.84,-77.89 941.98,-77.38 945,-77 1366.81,-23.52 1480.89,-106.5 1901,-41 1912.55,-39.2 1924.9,-36.15 1935.97,-32.99"/>
<polygon fill="#63b8ff" stroke="#63b8ff" points="1937.13,-36.3 1945.71,-30.09 1935.13,-29.59 1937.13,-36.3"/>
</a>
</g>
</g>
<!-- Node24 -->
<g id="Node000024" class="node">
<title>Node24</title>
<g id="a_Node000024"><a xlink:href="../../dc/d28/constexpr__utils_8inl.html" target="_top" xlink:title="Inline implementations for constexpr utility functions.">
<polygon fill="white" stroke="#666666" points="2180,-30 2050,-30 2050,-11 2180,-11 2180,-30"/>
<text text-anchor="middle" x="2115" y="-18" font-family="Helvetica,sans-Serif" font-size="10.00">core/constexpr_utils.inl</text>
</a>
</g>
</g>
<!-- Node2&#45;&gt;Node24 -->
<g id="edge23_Node000002_Node000024" class="edge">
<title>Node2&#45;&gt;Node24</title>
<g id="a_edge23_Node000002_Node000024"><a xlink:title=" ">
<path fill="none" stroke="#63b8ff" d="M935.71,-78.44C938.84,-77.87 941.97,-77.38 945,-77 1428.65,-16.86 1558.76,-111.54 2041,-41 2053.53,-39.17 2066.99,-36 2078.94,-32.74"/>
<polygon fill="#63b8ff" stroke="#63b8ff" points="2079.92,-36.1 2088.58,-30.01 2078.01,-29.37 2079.92,-36.1"/>
</a>
</g>
</g>
<!-- Node25 -->
<g id="Node000025" class="node">
<title>Node25</title>
<g id="a_Node000025"><a xlink:href="../../d7/d40/fixed__string_8inl.html" target="_top" xlink:title="Inline implementations for FixedString template class.">
<polygon fill="white" stroke="#666666" points="2310,-30 2198,-30 2198,-11 2310,-11 2310,-30"/>
<text text-anchor="middle" x="2254" y="-18" font-family="Helvetica,sans-Serif" font-size="10.00">core/fixed_string.inl</text>
</a>
</g>
</g>
<!-- Node2&#45;&gt;Node25 -->
<g id="edge24_Node000002_Node000025" class="edge">
<title>Node2&#45;&gt;Node25</title>
<g id="a_edge24_Node000002_Node000025"><a xlink:title=" ">
<path fill="none" stroke="#63b8ff" d="M935.71,-78.43C938.84,-77.86 941.97,-77.37 945,-77 1494.03,-9.82 1642.96,-129.23 2189,-41 2199.64,-39.28 2210.98,-36.3 2221.16,-33.18"/>
<polygon fill="#63b8ff" stroke="#63b8ff" points="2222.43,-36.44 2230.88,-30.05 2220.29,-29.78 2222.43,-36.44"/>
</a>
</g>
</g>
<!-- Node26 -->
<g id="Node000026" class="node">
<title>Node26</title>
<g id="a_Node000026"><a xlink:href="../../da/dc9/fixed__vector_8inl.html" target="_top" xlink:title="TODO.">
<polygon fill="white" stroke="#666666" points="2442,-30 2328,-30 2328,-11 2442,-11 2442,-30"/>
<text text-anchor="middle" x="2385" y="-18" font-family="Helvetica,sans-Serif" font-size="10.00">core/fixed_vector.inl</text>
</a>
</g>
</g>
<!-- Node2&#45;&gt;Node26 -->
<g id="edge25_Node000002_Node000026" class="edge">
<title>Node2&#45;&gt;Node26</title>
<g id="a_edge25_Node000002_Node000026"><a xlink:title=" ">
<path fill="none" stroke="#63b8ff" d="M935.71,-78.42C938.83,-77.86 941.97,-77.37 945,-77 1248.23,-40.32 2017.31,-88.68 2319,-41 2329.91,-39.28 2341.55,-36.25 2351.97,-33.1"/>
<polygon fill="#63b8ff" stroke="#63b8ff" points="2353.04,-36.43 2361.52,-30.06 2350.93,-29.75 2353.04,-36.43"/>
</a>
</g>
</g>
<!-- Node27 -->
<g id="Node000027" class="node">
<title>Node27</title>
<g id="a_Node000027"><a xlink:href="../../df/d7d/utils_8inl.html" target="_top" xlink:title="Inline implementations of core utility functions for string manipulation and encoding conversion.">
<polygon fill="white" stroke="#666666" points="2537.5,-30 2460.5,-30 2460.5,-11 2537.5,-11 2537.5,-30"/>
<text text-anchor="middle" x="2499" y="-18" font-family="Helvetica,sans-Serif" font-size="10.00">core/utils.inl</text>
</a>
</g>
</g>
<!-- Node2&#45;&gt;Node27 -->
<g id="edge26_Node000002_Node000027" class="edge">
<title>Node2&#45;&gt;Node27</title>
<g id="a_edge26_Node000002_Node000027"><a xlink:title=" ">
<path fill="none" stroke="#63b8ff" d="M935.71,-78.41C938.83,-77.85 941.97,-77.36 945,-77 1277.38,-37.18 2123.24,-109.11 2451,-41 2458.22,-39.5 2465.74,-36.96 2472.62,-34.2"/>
<polygon fill="#63b8ff" stroke="#63b8ff" points="2474.35,-37.27 2482.14,-30.1 2471.58,-30.84 2474.35,-37.27"/>
</a>
</g>
</g>
</g>
</svg>
