<?xml version="1.0" encoding="UTF-8" standalone="no"?>
<!DOCTYPE svg PUBLIC "-//W3C//DTD SVG 1.1//EN"
 "http://www.w3.org/Graphics/SVG/1.1/DTD/svg11.dtd">
<!-- Generated by graphviz version 14.1.2 (0)
 -->
<!-- Title: include/audio/volume_type.hpp Pages: 1 -->
<svg width="129pt" height="155pt"
 viewBox="0.00 0.00 129.00 155.00" xmlns="http://www.w3.org/2000/svg" xmlns:xlink="http://www.w3.org/1999/xlink">
<g id="graph0" class="graph" transform="scale(1 1) rotate(0) translate(4 151)">
<title>include/audio/volume_type.hpp</title>
<!-- Node1 -->
<g id="Node000001" class="node">
<title>Node1</title>
<g id="a_Node000001"><a xlink:title="Volume category enumeration for audio mixing and per&#45;channel gain control.">
<polygon fill="#999999" stroke="#666666" points="121,-147 0,-147 0,-113.5 121,-113.5 121,-147"/>
<text xml:space="preserve" text-anchor="start" x="8" y="-133.5" font-family="Helvetica,sans-Serif" font-size="10.00">include/audio/volume</text>
<text xml:space="preserve" text-anchor="middle" x="60.5" y="-120.75" font-family="Helvetica,sans-Serif" font-size="10.00">_type.hpp</text>
</a>
</g>
</g>
<!-- Node2 -->
<g id="Node000002" class="node">
<title>Node2</title>
<g id="a_Node000002"><a xlink:href="../../d1/d71/audio_8hpp.html" target="_top" xlink:title="Umbrella header for the audio module.">
<polygon fill="white" stroke="#666666" points="111.62,-77.5 9.38,-77.5 9.38,-56.75 111.62,-56.75 111.62,-77.5"/>
<text xml:space="preserve" text-anchor="middle" x="60.5" y="-64" font-family="Helvetica,sans-Serif" font-size="10.00">include/audio.hpp</text>
</a>
</g>
</g>
<!-- Node1&#45;&gt;Node2 -->
<g id="edge1_Node000001_Node000002" class="edge">
<title>Node1&#45;&gt;Node2</title>
<g id="a_edge1_Node000001_Node000002"><a xlink:title=" ">
<path fill="none" stroke="#63b8ff" d="M60.5,-101.69C60.5,-93.21 60.5,-84.42 60.5,-77.97"/>
<polygon fill="#63b8ff" stroke="#63b8ff" points="57,-101.68 60.5,-111.68 64,-101.68 57,-101.68"/>
</a>
</g>
</g>
<!-- Node3 -->
<g id="Node000003" class="node">
<title>Node3</title>
<g id="a_Node000003"><a xlink:href="../../d8/d8c/toygine2_8hpp.html" target="_top" xlink:title="Main umbrella header for the engine.">
<polygon fill="white" stroke="#666666" points="119.5,-20.75 1.5,-20.75 1.5,0 119.5,0 119.5,-20.75"/>
<text xml:space="preserve" text-anchor="middle" x="60.5" y="-7.25" font-family="Helvetica,sans-Serif" font-size="10.00">include/toygine2.hpp</text>
</a>
</g>
</g>
<!-- Node2&#45;&gt;Node3 -->
<g id="edge2_Node000002_Node000003" class="edge">
<title>Node2&#45;&gt;Node3</title>
<g id="a_edge2_Node000002_Node000003"><a xlink:title=" ">
<path fill="none" stroke="#63b8ff" d="M60.5,-44.88C60.5,-36.66 60.5,-27.68 60.5,-21.08"/>
<polygon fill="#63b8ff" stroke="#63b8ff" points="57,-44.82 60.5,-54.82 64,-44.82 57,-44.82"/>
</a>
</g>
</g>
</g>
</svg>
