<?xml version="1.0" encoding="UTF-8" standalone="no"?>
<!DOCTYPE svg PUBLIC "-//W3C//DTD SVG 1.1//EN"
 "http://www.w3.org/Graphics/SVG/1.1/DTD/svg11.dtd">
<!-- Generated by graphviz version 2.43.0 (0)
 -->
<!-- Title: src/core/utils.cpp Pages: 1 -->
<!--zoomable 159 -->

<svg id="main" version="1.1" xmlns="http://www.w3.org/2000/svg" xmlns:xlink="http://www.w3.org/1999/xlink" xml:space="preserve" onload="init(evt)">

<style type="text/css"><![CDATA[
.node, .edge {opacity: 0.7;}
.node.selected, .edge.selected {opacity: 1;}
.edge:hover path { stroke: red; }
.edge:hover polygon { stroke: red; fill: red; }
]]></style>

<defs>
  <circle id="rim" cx="0" cy="0" r="7"/>
  <circle id="rim2" cx="0" cy="0" r="3.5"/>
  <g id="zoomPlus">
    <use xlink:href="#rim" fill="#404040"><set attributeName="fill" to="#808080" begin="zoomplus.mouseover" end="zoomplus.mouseout"/></use>
    <path d="M-4,0h8M0,-4v8" fill="none" stroke="white" stroke-width="1.5" pointer-events="none"/>
  </g>
  <g id="zoomMin">
    <use xlink:href="#rim" fill="#404040"><set attributeName="fill" to="#808080" begin="zoomminus.mouseover" end="zoomminus.mouseout"/></use>
    <path d="M-4,0h8" fill="none" stroke="white" stroke-width="1.5" pointer-events="none"/>
  </g>
  <g id="arrowUp" transform="translate(30 24)">
    <use xlink:href="#rim"/>
    <path pointer-events="none" fill="none" stroke="white" stroke-width="1.5" d="M0,-3.0v7 M-2.5,-0.5L0,-3.0L2.5,-0.5"/>
  </g>
  <g id="arrowRight" transform="rotate(90) translate(36 -43)">
    <use xlink:href="#rim"/>
    <path pointer-events="none" fill="none" stroke="white" stroke-width="1.5" d="M0,-3.0v7 M-2.5,-0.5L0,-3.0L2.5,-0.5"/>
  </g>
  <g id="arrowDown" transform="rotate(180) translate(-30 -48)">
    <use xlink:href="#rim"/>
    <path pointer-events="none" fill="none" stroke="white" stroke-width="1.5" d="M0,-3.0v7 M-2.5,-0.5L0,-3.0L2.5,-0.5"/>
  </g>
  <g id="arrowLeft" transform="rotate(270) translate(-36 17)">
    <use xlink:href="#rim"/>
    <path pointer-events="none" fill="none" stroke="white" stroke-width="1.5" d="M0,-3.0v7 M-2.5,-0.5L0,-3.0L2.5,-0.5"/>
  </g>
  <g id="resetDef">
    <use xlink:href="#rim2" fill="#404040"><set attributeName="fill" to="#808080" begin="reset.mouseover" end="reset.mouseout"/></use>
  </g>
</defs>
<script type="application/ecmascript">
var viewWidth = 1467;
var viewHeight = 159;
var sectionId = 'dynsection-0';
</script>
<script type="application/ecmascript" xlink:href="../../svg.min.js"/>
<svg id="graph" class="graph">
<g id="viewport">
<title>src/core/utils.cpp</title>
<!-- Node1 -->
<g id="Node000001" class="node">
<title>Node1</title>
<g id="a_Node000001"><a xlink:title=" ">
<polygon fill="#999999" stroke="#666666" points="562.5,-151 463.5,-151 463.5,-132 562.5,-132 562.5,-151"/>
<text text-anchor="middle" x="513" y="-139" font-family="Helvetica,sans-Serif" font-size="10.00">src/core/utils.cpp</text>
</a>
</g>
</g>
<!-- Node2 -->
<g id="Node000002" class="node">
<title>Node2</title>
<g id="a_Node000002"><a xlink:title=" ">
<polygon fill="#e0e0e0" stroke="#999999" points="436.5,-96 407.5,-96 407.5,-77 436.5,-77 436.5,-96"/>
<text text-anchor="middle" x="422" y="-84" font-family="Helvetica,sans-Serif" font-size="10.00">bit</text>
</a>
</g>
</g>
<!-- Node1&#45;&gt;Node2 -->
<g id="edge1_Node000001_Node000002" class="edge">
<title>Node1&#45;&gt;Node2</title>
<g id="a_edge1_Node000001_Node000002"><a xlink:title=" ">
<path fill="none" stroke="#63b8ff" d="M498.38,-131.98C484.05,-123.64 461.99,-110.79 445.25,-101.04"/>
<polygon fill="#63b8ff" stroke="#63b8ff" points="446.99,-98 436.58,-95.99 443.46,-104.05 446.99,-98"/>
</a>
</g>
</g>
<!-- Node3 -->
<g id="Node000003" class="node">
<title>Node3</title>
<g id="a_Node000003"><a xlink:title=" ">
<polygon fill="#e0e0e0" stroke="#999999" points="501.5,-96 454.5,-96 454.5,-77 501.5,-77 501.5,-96"/>
<text text-anchor="middle" x="478" y="-84" font-family="Helvetica,sans-Serif" font-size="10.00">cmath</text>
</a>
</g>
</g>
<!-- Node1&#45;&gt;Node3 -->
<g id="edge2_Node000001_Node000003" class="edge">
<title>Node1&#45;&gt;Node3</title>
<g id="a_edge2_Node000001_Node000003"><a xlink:title=" ">
<path fill="none" stroke="#63b8ff" d="M507.22,-131.75C502.38,-124.42 495.32,-113.73 489.36,-104.7"/>
<polygon fill="#63b8ff" stroke="#63b8ff" points="492.1,-102.5 483.67,-96.09 486.26,-106.36 492.1,-102.5"/>
</a>
</g>
</g>
<!-- Node4 -->
<g id="Node000004" class="node">
<title>Node4</title>
<g id="a_Node000004"><a xlink:href="../../da/d47/core_8hpp.html" target="_top" xlink:title=" ">
<polygon fill="white" stroke="#666666" points="578.5,-96 519.5,-96 519.5,-77 578.5,-77 578.5,-96"/>
<text text-anchor="middle" x="549" y="-84" font-family="Helvetica,sans-Serif" font-size="10.00">core.hpp</text>
</a>
</g>
</g>
<!-- Node1&#45;&gt;Node4 -->
<g id="edge3_Node000001_Node000004" class="edge">
<title>Node1&#45;&gt;Node4</title>
<g id="a_edge3_Node000001_Node000004"><a xlink:title=" ">
<path fill="none" stroke="#63b8ff" d="M518.94,-131.75C523.98,-124.34 531.34,-113.5 537.51,-104.41"/>
<polygon fill="#63b8ff" stroke="#63b8ff" points="540.44,-106.33 543.17,-96.09 534.65,-102.39 540.44,-106.33"/>
</a>
</g>
</g>
<!-- Node20 -->
<g id="Node000020" class="node">
<title>Node20</title>
<g id="a_Node000020"><a xlink:href="../../d4/d85/utils__internal_8inl.html" target="_top" xlink:title=" ">
<polygon fill="white" stroke="#666666" points="1096.5,-96 1001.5,-96 1001.5,-77 1096.5,-77 1096.5,-96"/>
<text text-anchor="middle" x="1049" y="-84" font-family="Helvetica,sans-Serif" font-size="10.00">utils_internal.inl</text>
</a>
</g>
</g>
<!-- Node1&#45;&gt;Node20 -->
<g id="edge19_Node000001_Node000020" class="edge">
<title>Node1&#45;&gt;Node20</title>
<g id="a_edge19_Node000001_Node000020"><a xlink:title=" ">
<path fill="none" stroke="#63b8ff" d="M562.94,-135.56C662.54,-125.71 885.36,-103.68 991.14,-93.22"/>
<polygon fill="#63b8ff" stroke="#63b8ff" points="991.7,-96.68 1001.3,-92.22 991.01,-89.72 991.7,-96.68"/>
</a>
</g>
</g>
<!-- Node5 -->
<g id="Node000005" class="node">
<title>Node5</title>
<g id="a_Node000005"><a xlink:title=" ">
<polygon fill="#e0e0e0" stroke="#999999" points="64,-30 0,-30 0,-11 64,-11 64,-30"/>
<text text-anchor="middle" x="32" y="-18" font-family="Helvetica,sans-Serif" font-size="10.00">algorithm</text>
</a>
</g>
</g>
<!-- Node4&#45;&gt;Node5 -->
<g id="edge4_Node000004_Node000005" class="edge">
<title>Node4&#45;&gt;Node5</title>
<g id="a_edge4_Node000004_Node000005"><a xlink:title=" ">
<path fill="none" stroke="#63b8ff" d="M519.26,-78.59C516.15,-78 513.02,-77.45 510,-77 317.26,-48.19 261.18,-91.68 73,-41 67.29,-39.46 61.41,-37.15 55.94,-34.65"/>
<polygon fill="#63b8ff" stroke="#63b8ff" points="57.2,-31.37 46.69,-30.08 54.1,-37.65 57.2,-31.37"/>
</a>
</g>
</g>
<!-- Node6 -->
<g id="Node000006" class="node">
<title>Node6</title>
<g id="a_Node000006"><a xlink:title=" ">
<polygon fill="#e0e0e0" stroke="#999999" points="124,-30 82,-30 82,-11 124,-11 124,-30"/>
<text text-anchor="middle" x="103" y="-18" font-family="Helvetica,sans-Serif" font-size="10.00">array</text>
</a>
</g>
</g>
<!-- Node4&#45;&gt;Node6 -->
<g id="edge5_Node000004_Node000006" class="edge">
<title>Node4&#45;&gt;Node6</title>
<g id="a_edge5_Node000004_Node000006"><a xlink:title=" ">
<path fill="none" stroke="#63b8ff" d="M519.26,-78.63C516.14,-78.03 513.01,-77.47 510,-77 343.7,-51.03 291.92,-96.46 133,-41 129.26,-39.7 125.52,-37.83 122.02,-35.77"/>
<polygon fill="#63b8ff" stroke="#63b8ff" points="123.71,-32.69 113.45,-30.08 119.85,-38.53 123.71,-32.69"/>
</a>
</g>
</g>
<!-- Node7 -->
<g id="Node000007" class="node">
<title>Node7</title>
<g id="a_Node000007"><a xlink:title=" ">
<polygon fill="#e0e0e0" stroke="#999999" points="202,-30 142,-30 142,-11 202,-11 202,-30"/>
<text text-anchor="middle" x="172" y="-18" font-family="Helvetica,sans-Serif" font-size="10.00">concepts</text>
</a>
</g>
</g>
<!-- Node4&#45;&gt;Node7 -->
<g id="edge6_Node000004_Node000007" class="edge">
<title>Node4&#45;&gt;Node7</title>
<g id="a_edge6_Node000004_Node000007"><a xlink:title=" ">
<path fill="none" stroke="#63b8ff" d="M519.25,-78.71C516.13,-78.09 513.01,-77.51 510,-77 378.02,-54.72 339.19,-79.5 211,-41 205.79,-39.43 200.43,-37.21 195.41,-34.82"/>
<polygon fill="#63b8ff" stroke="#63b8ff" points="196.82,-31.61 186.32,-30.15 193.62,-37.83 196.82,-31.61"/>
</a>
</g>
</g>
<!-- Node8 -->
<g id="Node000008" class="node">
<title>Node8</title>
<g id="a_Node000008"><a xlink:title=" ">
<polygon fill="#e0e0e0" stroke="#999999" points="273.5,-30 220.5,-30 220.5,-11 273.5,-11 273.5,-30"/>
<text text-anchor="middle" x="247" y="-18" font-family="Helvetica,sans-Serif" font-size="10.00">cstddef</text>
</a>
</g>
</g>
<!-- Node4&#45;&gt;Node8 -->
<g id="edge7_Node000004_Node000008" class="edge">
<title>Node4&#45;&gt;Node8</title>
<g id="a_edge7_Node000004_Node000008"><a xlink:title=" ">
<path fill="none" stroke="#63b8ff" d="M519.23,-78.83C516.12,-78.18 513,-77.56 510,-77 409.61,-58.12 379.74,-73.8 283,-41 278.41,-39.44 273.71,-37.33 269.28,-35.07"/>
<polygon fill="#63b8ff" stroke="#63b8ff" points="270.63,-31.82 260.18,-30.04 267.24,-37.94 270.63,-31.82"/>
</a>
</g>
</g>
<!-- Node9 -->
<g id="Node000009" class="node">
<title>Node9</title>
<g id="a_Node000009"><a xlink:title=" ">
<polygon fill="#e0e0e0" stroke="#999999" points="342,-30 292,-30 292,-11 342,-11 342,-30"/>
<text text-anchor="middle" x="317" y="-18" font-family="Helvetica,sans-Serif" font-size="10.00">cstdint</text>
</a>
</g>
</g>
<!-- Node4&#45;&gt;Node9 -->
<g id="edge8_Node000004_Node000009" class="edge">
<title>Node4&#45;&gt;Node9</title>
<g id="a_edge8_Node000004_Node000009"><a xlink:title=" ">
<path fill="none" stroke="#63b8ff" d="M519.23,-78.93C464.92,-66.92 354.95,-42.54 351,-41 346.86,-39.39 342.62,-37.33 338.61,-35.16"/>
<polygon fill="#63b8ff" stroke="#63b8ff" points="340.19,-32.04 329.78,-30.05 336.68,-38.09 340.19,-32.04"/>
</a>
</g>
</g>
<!-- Node10 -->
<g id="Node000010" class="node">
<title>Node10</title>
<g id="a_Node000010"><a xlink:title=" ">
<polygon fill="#e0e0e0" stroke="#999999" points="410,-30 360,-30 360,-11 410,-11 410,-30"/>
<text text-anchor="middle" x="385" y="-18" font-family="Helvetica,sans-Serif" font-size="10.00">cstring</text>
</a>
</g>
</g>
<!-- Node4&#45;&gt;Node10 -->
<g id="edge9_Node000004_Node000010" class="edge">
<title>Node4&#45;&gt;Node10</title>
<g id="a_edge9_Node000004_Node000010"><a xlink:title=" ">
<path fill="none" stroke="#63b8ff" d="M519.47,-77.15C492.71,-69.18 452.46,-56.16 419,-41 415.2,-39.28 411.28,-37.27 407.5,-35.2"/>
<polygon fill="#63b8ff" stroke="#63b8ff" points="409,-32.02 398.58,-30.08 405.51,-38.1 409,-32.02"/>
</a>
</g>
</g>
<!-- Node11 -->
<g id="Node000011" class="node">
<title>Node11</title>
<g id="a_Node000011"><a xlink:title=" ">
<polygon fill="#e0e0e0" stroke="#999999" points="477.5,-30 428.5,-30 428.5,-11 477.5,-11 477.5,-30"/>
<text text-anchor="middle" x="453" y="-18" font-family="Helvetica,sans-Serif" font-size="10.00">cuchar</text>
</a>
</g>
</g>
<!-- Node4&#45;&gt;Node11 -->
<g id="edge10_Node000004_Node000011" class="edge">
<title>Node4&#45;&gt;Node11</title>
<g id="a_edge10_Node000004_Node000011"><a xlink:title=" ">
<path fill="none" stroke="#63b8ff" d="M536.05,-76.87C520.31,-66.37 493.5,-48.5 474.6,-35.9"/>
<polygon fill="#63b8ff" stroke="#63b8ff" points="476.31,-32.83 466.05,-30.2 472.43,-38.66 476.31,-32.83"/>
</a>
</g>
</g>
<!-- Node12 -->
<g id="Node000012" class="node">
<title>Node12</title>
<g id="a_Node000012"><a xlink:title=" ">
<polygon fill="#e0e0e0" stroke="#999999" points="540,-30 496,-30 496,-11 540,-11 540,-30"/>
<text text-anchor="middle" x="518" y="-18" font-family="Helvetica,sans-Serif" font-size="10.00">string</text>
</a>
</g>
</g>
<!-- Node4&#45;&gt;Node12 -->
<g id="edge11_Node000004_Node000012" class="edge">
<title>Node4&#45;&gt;Node12</title>
<g id="a_edge11_Node000004_Node000012"><a xlink:title=" ">
<path fill="none" stroke="#63b8ff" d="M544.82,-76.87C540.22,-67.38 532.71,-51.86 526.8,-39.66"/>
<polygon fill="#63b8ff" stroke="#63b8ff" points="529.82,-37.88 522.31,-30.41 523.52,-40.93 529.82,-37.88"/>
</a>
</g>
</g>
<!-- Node13 -->
<g id="Node000013" class="node">
<title>Node13</title>
<g id="a_Node000013"><a xlink:title=" ">
<polygon fill="#e0e0e0" stroke="#999999" points="603.5,-30 558.5,-30 558.5,-11 603.5,-11 603.5,-30"/>
<text text-anchor="middle" x="581" y="-18" font-family="Helvetica,sans-Serif" font-size="10.00">utility</text>
</a>
</g>
</g>
<!-- Node4&#45;&gt;Node13 -->
<g id="edge12_Node000004_Node000013" class="edge">
<title>Node4&#45;&gt;Node13</title>
<g id="a_edge12_Node000004_Node000013"><a xlink:title=" ">
<path fill="none" stroke="#63b8ff" d="M553.32,-76.87C558.06,-67.38 565.82,-51.86 571.92,-39.66"/>
<polygon fill="#63b8ff" stroke="#63b8ff" points="575.21,-40.91 576.55,-30.41 568.94,-37.78 575.21,-40.91"/>
</a>
</g>
</g>
<!-- Node14 -->
<g id="Node000014" class="node">
<title>Node14</title>
<g id="a_Node000014"><a xlink:href="../../dd/d9e/linux_2platform__config_8hpp.html" target="_top" xlink:title="additional linux platform header">
<polygon fill="white" stroke="#666666" points="776.5,-41 621.5,-41 621.5,0 776.5,0 776.5,-41"/>
<text text-anchor="start" x="629.5" y="-29" font-family="Helvetica,sans-Serif" font-size="10.00">/home/runner/work/toygine2</text>
<text text-anchor="start" x="629.5" y="-18" font-family="Helvetica,sans-Serif" font-size="10.00">/toygine2/src/platforms</text>
<text text-anchor="middle" x="699" y="-7" font-family="Helvetica,sans-Serif" font-size="10.00">/linux/platform_config.hpp</text>
</a>
</g>
</g>
<!-- Node4&#45;&gt;Node14 -->
<g id="edge13_Node000004_Node000014" class="edge">
<title>Node4&#45;&gt;Node14</title>
<g id="a_edge13_Node000004_Node000014"><a xlink:title=" ">
<path fill="none" stroke="#63b8ff" d="M569.23,-76.87C588.32,-68.72 617.81,-56.14 643.86,-45.03"/>
<polygon fill="#63b8ff" stroke="#63b8ff" points="645.45,-48.15 653.28,-41.01 642.7,-41.71 645.45,-48.15"/>
</a>
</g>
</g>
<!-- Node15 -->
<g id="Node000015" class="node">
<title>Node15</title>
<g id="a_Node000015"><a xlink:href="../../d4/dc0/constexpr__utils_8hpp.html" target="_top" xlink:title="Constexpr utility functions for compile&#45;time operations.">
<polygon fill="white" stroke="#666666" points="931,-30 795,-30 795,-11 931,-11 931,-30"/>
<text text-anchor="middle" x="863" y="-18" font-family="Helvetica,sans-Serif" font-size="10.00">core/constexpr_utils.hpp</text>
</a>
</g>
</g>
<!-- Node4&#45;&gt;Node15 -->
<g id="edge14_Node000004_Node000015" class="edge">
<title>Node4&#45;&gt;Node15</title>
<g id="a_edge14_Node000004_Node000015"><a xlink:title=" ">
<path fill="none" stroke="#63b8ff" d="M578.55,-80.5C623.35,-72.79 711.08,-57.19 785,-41 796.6,-38.46 809.11,-35.45 820.63,-32.57"/>
<polygon fill="#63b8ff" stroke="#63b8ff" points="821.63,-35.93 830.46,-30.09 819.91,-29.14 821.63,-35.93"/>
</a>
</g>
</g>
<!-- Node16 -->
<g id="Node000016" class="node">
<title>Node16</title>
<g id="a_Node000016"><a xlink:href="../../d0/d46/fix__string_8hpp.html" target="_top" xlink:title="Template string class with fixed&#45;size character buffer.">
<polygon fill="white" stroke="#666666" points="1056.5,-30 949.5,-30 949.5,-11 1056.5,-11 1056.5,-30"/>
<text text-anchor="middle" x="1003" y="-18" font-family="Helvetica,sans-Serif" font-size="10.00">core/fix_string.hpp</text>
</a>
</g>
</g>
<!-- Node4&#45;&gt;Node16 -->
<g id="edge15_Node000004_Node000016" class="edge">
<title>Node4&#45;&gt;Node16</title>
<g id="a_edge15_Node000004_Node000016"><a xlink:title=" ">
<path fill="none" stroke="#63b8ff" d="M578.73,-84.01C644.48,-80.32 806.94,-68.91 940,-41 949.63,-38.98 959.89,-36.12 969.28,-33.21"/>
<polygon fill="#63b8ff" stroke="#63b8ff" points="970.6,-36.46 979.05,-30.07 968.45,-29.8 970.6,-36.46"/>
</a>
</g>
</g>
<!-- Node17 -->
<g id="Node000017" class="node">
<title>Node17</title>
<g id="a_Node000017"><a xlink:href="../../df/d93/utils_8hpp.html" target="_top" xlink:title="Core utility functions for string manipulation, encoding conversion, and number formatting.">
<polygon fill="white" stroke="#666666" points="1157.5,-30 1074.5,-30 1074.5,-11 1157.5,-11 1157.5,-30"/>
<text text-anchor="middle" x="1116" y="-18" font-family="Helvetica,sans-Serif" font-size="10.00">core/utils.hpp</text>
</a>
</g>
</g>
<!-- Node4&#45;&gt;Node17 -->
<g id="edge16_Node000004_Node000017" class="edge">
<title>Node4&#45;&gt;Node17</title>
<g id="a_edge16_Node000004_Node000017"><a xlink:title=" ">
<path fill="none" stroke="#63b8ff" d="M578.61,-85.88C658.45,-86.29 884.38,-83.31 1066,-41 1073.49,-39.26 1081.34,-36.61 1088.55,-33.83"/>
<polygon fill="#63b8ff" stroke="#63b8ff" points="1089.94,-37.04 1097.88,-30.02 1087.3,-30.56 1089.94,-37.04"/>
</a>
</g>
</g>
<!-- Node18 -->
<g id="Node000018" class="node">
<title>Node18</title>
<g id="a_Node000018"><a xlink:href="../../db/d84/fix__string_8inl.html" target="_top" xlink:title="Inline implementations for FixString template class.">
<polygon fill="white" stroke="#666666" points="1276.5,-30 1175.5,-30 1175.5,-11 1276.5,-11 1276.5,-30"/>
<text text-anchor="middle" x="1226" y="-18" font-family="Helvetica,sans-Serif" font-size="10.00">core/fix_string.inl</text>
</a>
</g>
</g>
<!-- Node4&#45;&gt;Node18 -->
<g id="edge17_Node000004_Node000018" class="edge">
<title>Node4&#45;&gt;Node18</title>
<g id="a_edge17_Node000004_Node000018"><a xlink:title=" ">
<path fill="none" stroke="#63b8ff" d="M578.62,-85.94C668.24,-86.74 944.09,-85.15 1167,-41 1176.23,-39.17 1186.01,-36.33 1194.91,-33.37"/>
<polygon fill="#63b8ff" stroke="#63b8ff" points="1196.2,-36.63 1204.49,-30.03 1193.9,-30.02 1196.2,-36.63"/>
</a>
</g>
</g>
<!-- Node19 -->
<g id="Node000019" class="node">
<title>Node19</title>
<g id="a_Node000019"><a xlink:href="../../df/d7d/utils_8inl.html" target="_top" xlink:title="Inline implementations of core utility functions for string manipulation and encoding conversion.">
<polygon fill="white" stroke="#666666" points="1371.5,-30 1294.5,-30 1294.5,-11 1371.5,-11 1371.5,-30"/>
<text text-anchor="middle" x="1333" y="-18" font-family="Helvetica,sans-Serif" font-size="10.00">core/utils.inl</text>
</a>
</g>
</g>
<!-- Node4&#45;&gt;Node19 -->
<g id="edge18_Node000004_Node000019" class="edge">
<title>Node4&#45;&gt;Node19</title>
<g id="a_edge18_Node000004_Node000019"><a xlink:title=" ">
<path fill="none" stroke="#63b8ff" d="M578.82,-85.02C699.01,-82.87 1147.98,-72.85 1286,-41 1292.94,-39.4 1300.17,-36.87 1306.82,-34.16"/>
<polygon fill="#63b8ff" stroke="#63b8ff" points="1308.27,-37.35 1316.05,-30.14 1305.48,-30.93 1308.27,-37.35"/>
</a>
</g>
</g>
<!-- Node21 -->
<g id="Node000021" class="node">
<title>Node21</title>
<g id="a_Node000021"><a xlink:title=" ">
<polygon fill="#e0e0e0" stroke="#999999" points="1458.5,-30 1389.5,-30 1389.5,-11 1458.5,-11 1458.5,-30"/>
<text text-anchor="middle" x="1424" y="-18" font-family="Helvetica,sans-Serif" font-size="10.00">type_traits</text>
</a>
</g>
</g>
<!-- Node20&#45;&gt;Node21 -->
<g id="edge20_Node000020_Node000021" class="edge">
<title>Node20&#45;&gt;Node21</title>
<g id="a_edge20_Node000020_Node000021"><a xlink:title=" ">
<path fill="none" stroke="#63b8ff" d="M1096.62,-83.48C1161.91,-79.74 1282.34,-69.32 1381,-41 1386.96,-39.29 1393.14,-36.89 1398.91,-34.36"/>
<polygon fill="#63b8ff" stroke="#63b8ff" points="1400.51,-37.47 1408.09,-30.06 1397.55,-31.13 1400.51,-37.47"/>
</a>
</g>
</g>
</g>
</svg>

<g id="navigator" transform="translate(0 0)" fill="#404254">
  <rect fill="#f2f5e9" fill-opacity="0.5" stroke="#606060" stroke-width=".5" x="0" y="0" width="60" height="60"/>
  <use id="zoomplus" xlink:href="#zoomPlus" x="17" y="9" onmousedown="handleZoom(evt,'in')"/>
  <use id="zoomminus" xlink:href="#zoomMin" x="42" y="9" onmousedown="handleZoom(evt,'out')"/>
  <use id="reset" xlink:href="#resetDef" x="30" y="36" onmousedown="handleReset()"/>
   <use id="arrowup" xlink:href="#arrowUp" x="0" y="0" onmousedown="handlePan(0,-1)"/>
  <use id="arrowright" xlink:href="#arrowRight" x="0" y="0" onmousedown="handlePan(1,0)"/>
  <use id="arrowdown" xlink:href="#arrowDown" x="0" y="0" onmousedown="handlePan(0,1)"/>
  <use id="arrowleft" xlink:href="#arrowLeft" x="0" y="0" onmousedown="handlePan(-1,0)"/>
</g>
<svg viewBox="0 0 15 15" width="100%" height="30px" preserveAspectRatio="xMaxYMin meet">
 <g id="arrow_out" transform="scale(0.3 0.3)">
  <a xlink:href="utils_8cpp__incl_org.svg" target="_base">
   <rect id="button" ry="5" rx="5" y="6" x="6" height="38" width="38"
        fill="#f2f5e9" fill-opacity="0.5" stroke="#606060" stroke-width="1.0"/>
   <path id="arrow"
     d="M 11.500037,31.436501 C 11.940474,20.09759 22.043105,11.32322 32.158766,21.979434 L 37.068811,17.246167 C 37.068811,17.246167 37.088388,32 37.088388,32 L 22.160133,31.978069 C 22.160133,31.978069 26.997745,27.140456 26.997745,27.140456 C 18.528582,18.264221 13.291696,25.230495 11.500037,31.436501 z"
     style="fill:#404040;"/>
  </a>
 </g>
</svg>

<style type='text/css'>
<![CDATA[
[data-mouse-over-selected='false'] { opacity: 0.7; }
[data-mouse-over-selected='true']  { opacity: 1.0; }
]]>
</style>
<script type="application/ecmascript"><![CDATA[
document.addEventListener('DOMContentLoaded', (event) => {
  highlightEdges();
  highlightAdjacentNodes();
});
]]></script>
</svg>
