<?xml version="1.0" encoding="UTF-8" standalone="no"?>
<!DOCTYPE svg PUBLIC "-//W3C//DTD SVG 1.1//EN"
 "http://www.w3.org/Graphics/SVG/1.1/DTD/svg11.dtd">
<!-- Generated by graphviz version 2.43.0 (0)
 -->
<!-- Title: src/core/utils.cpp Pages: 1 -->
<svg width="2546pt" height="225pt"
 viewBox="0.00 0.00 2546.00 225.00" xmlns="http://www.w3.org/2000/svg" xmlns:xlink="http://www.w3.org/1999/xlink">
<g id="graph0" class="graph" transform="scale(1 1) rotate(0) translate(4 221)">
<title>src/core/utils.cpp</title>
<!-- Node1 -->
<g id="Node000001" class="node">
<title>Node1</title>
<g id="a_Node000001"><a xlink:title="Implementation of core utility functions for string manipulation, encoding conversion,...">
<polygon fill="#999999" stroke="#666666" points="427,-217 328,-217 328,-198 427,-198 427,-217"/>
<text text-anchor="middle" x="377.5" y="-205" font-family="Helvetica,sans-Serif" font-size="10.00">src/core/utils.cpp</text>
</a>
</g>
</g>
<!-- Node2 -->
<g id="Node000002" class="node">
<title>Node2</title>
<g id="a_Node000002"><a xlink:title=" ">
<polygon fill="#e0e0e0" stroke="#999999" points="292,-162 263,-162 263,-143 292,-143 292,-162"/>
<text text-anchor="middle" x="277.5" y="-150" font-family="Helvetica,sans-Serif" font-size="10.00">bit</text>
</a>
</g>
</g>
<!-- Node1&#45;&gt;Node2 -->
<g id="edge1_Node000001_Node000002" class="edge">
<title>Node1&#45;&gt;Node2</title>
<g id="a_edge1_Node000001_Node000002"><a xlink:title=" ">
<path fill="none" stroke="#63b8ff" d="M361.43,-197.98C345.17,-189.36 319.83,-175.93 301.24,-166.08"/>
<polygon fill="#63b8ff" stroke="#63b8ff" points="302.7,-162.89 292.22,-161.3 299.42,-169.08 302.7,-162.89"/>
</a>
</g>
</g>
<!-- Node3 -->
<g id="Node000003" class="node">
<title>Node3</title>
<g id="a_Node000003"><a xlink:title=" ">
<polygon fill="#e0e0e0" stroke="#999999" points="357,-162 310,-162 310,-143 357,-143 357,-162"/>
<text text-anchor="middle" x="333.5" y="-150" font-family="Helvetica,sans-Serif" font-size="10.00">cmath</text>
</a>
</g>
</g>
<!-- Node1&#45;&gt;Node3 -->
<g id="edge2_Node000001_Node000003" class="edge">
<title>Node1&#45;&gt;Node3</title>
<g id="a_edge2_Node000001_Node000003"><a xlink:title=" ">
<path fill="none" stroke="#63b8ff" d="M370.23,-197.75C363.96,-190.18 354.71,-179.05 347.07,-169.84"/>
<polygon fill="#63b8ff" stroke="#63b8ff" points="349.71,-167.55 340.63,-162.09 344.33,-172.02 349.71,-167.55"/>
</a>
</g>
</g>
<!-- Node4 -->
<g id="Node000004" class="node">
<title>Node4</title>
<g id="a_Node000004"><a xlink:href="../../da/d47/core_8hpp.html" target="_top" xlink:title="Umbrella header for the engine core module.">
<polygon fill="white" stroke="#666666" points="904,-162 845,-162 845,-143 904,-143 904,-162"/>
<text text-anchor="middle" x="874.5" y="-150" font-family="Helvetica,sans-Serif" font-size="10.00">core.hpp</text>
</a>
</g>
</g>
<!-- Node1&#45;&gt;Node4 -->
<g id="edge3_Node000001_Node000004" class="edge">
<title>Node1&#45;&gt;Node4</title>
<g id="a_edge3_Node000001_Node000004"><a xlink:title=" ">
<path fill="none" stroke="#63b8ff" d="M427.43,-201.18C526.29,-190.63 745.12,-167.3 834.89,-157.72"/>
<polygon fill="#63b8ff" stroke="#63b8ff" points="835.36,-161.19 844.94,-156.65 834.62,-154.23 835.36,-161.19"/>
</a>
</g>
</g>
<!-- Node31 -->
<g id="Node000031" class="node">
<title>Node31</title>
<g id="a_Node000031"><a xlink:href="../../d4/d85/utils__internal_8inl.html" target="_top" xlink:title="Internal utilities: inline helpers used by the core utils implementation.">
<polygon fill="white" stroke="#666666" points="470,-162 375,-162 375,-143 470,-143 470,-162"/>
<text text-anchor="middle" x="422.5" y="-150" font-family="Helvetica,sans-Serif" font-size="10.00">utils_internal.inl</text>
</a>
</g>
</g>
<!-- Node1&#45;&gt;Node31 -->
<g id="edge30_Node000001_Node000031" class="edge">
<title>Node1&#45;&gt;Node31</title>
<g id="a_edge30_Node000001_Node000031"><a xlink:title=" ">
<path fill="none" stroke="#63b8ff" d="M384.93,-197.75C391.35,-190.18 400.81,-179.05 408.62,-169.84"/>
<polygon fill="#63b8ff" stroke="#63b8ff" points="411.4,-171.98 415.21,-162.09 406.07,-167.45 411.4,-171.98"/>
</a>
</g>
</g>
<!-- Node5 -->
<g id="Node000005" class="node">
<title>Node5</title>
<g id="a_Node000005"><a xlink:title=" ">
<polygon fill="#e0e0e0" stroke="#999999" points="151.5,-96 87.5,-96 87.5,-77 151.5,-77 151.5,-96"/>
<text text-anchor="middle" x="119.5" y="-84" font-family="Helvetica,sans-Serif" font-size="10.00">algorithm</text>
</a>
</g>
</g>
<!-- Node4&#45;&gt;Node5 -->
<g id="edge4_Node000004_Node000005" class="edge">
<title>Node4&#45;&gt;Node5</title>
<g id="a_edge4_Node000004_Node000005"><a xlink:title=" ">
<path fill="none" stroke="#63b8ff" d="M844.77,-151.15C726.97,-149.52 293.07,-141.29 160.5,-107 154.78,-105.52 148.89,-103.23 143.42,-100.74"/>
<polygon fill="#63b8ff" stroke="#63b8ff" points="144.68,-97.46 134.17,-96.16 141.58,-103.73 144.68,-97.46"/>
</a>
</g>
</g>
<!-- Node6 -->
<g id="Node000006" class="node">
<title>Node6</title>
<g id="a_Node000006"><a xlink:title=" ">
<polygon fill="#e0e0e0" stroke="#999999" points="211.5,-96 169.5,-96 169.5,-77 211.5,-77 211.5,-96"/>
<text text-anchor="middle" x="190.5" y="-84" font-family="Helvetica,sans-Serif" font-size="10.00">array</text>
</a>
</g>
</g>
<!-- Node4&#45;&gt;Node6 -->
<g id="edge5_Node000004_Node000006" class="edge">
<title>Node4&#45;&gt;Node6</title>
<g id="a_edge5_Node000004_Node000006"><a xlink:title=" ">
<path fill="none" stroke="#63b8ff" d="M844.94,-151.39C733.58,-150.7 339.81,-145.52 221.5,-107 217.53,-105.71 213.56,-103.8 209.85,-101.67"/>
<polygon fill="#63b8ff" stroke="#63b8ff" points="211.61,-98.64 201.31,-96.16 207.82,-104.52 211.61,-98.64"/>
</a>
</g>
</g>
<!-- Node7 -->
<g id="Node000007" class="node">
<title>Node7</title>
<g id="a_Node000007"><a xlink:title=" ">
<polygon fill="#e0e0e0" stroke="#999999" points="289,-96 230,-96 230,-77 289,-77 289,-96"/>
<text text-anchor="middle" x="259.5" y="-84" font-family="Helvetica,sans-Serif" font-size="10.00">compare</text>
</a>
</g>
</g>
<!-- Node4&#45;&gt;Node7 -->
<g id="edge6_Node000004_Node000007" class="edge">
<title>Node4&#45;&gt;Node7</title>
<g id="a_edge6_Node000004_Node000007"><a xlink:title=" ">
<path fill="none" stroke="#63b8ff" d="M844.71,-150.71C741.97,-147.75 403.01,-135.97 298.5,-107 293.17,-105.52 287.7,-103.3 282.6,-100.87"/>
<polygon fill="#63b8ff" stroke="#63b8ff" points="283.9,-97.6 273.41,-96.11 280.68,-103.82 283.9,-97.6"/>
</a>
</g>
</g>
<!-- Node8 -->
<g id="Node000008" class="node">
<title>Node8</title>
<g id="a_Node000008"><a xlink:title=" ">
<polygon fill="#e0e0e0" stroke="#999999" points="367.5,-96 307.5,-96 307.5,-77 367.5,-77 367.5,-96"/>
<text text-anchor="middle" x="337.5" y="-84" font-family="Helvetica,sans-Serif" font-size="10.00">concepts</text>
</a>
</g>
</g>
<!-- Node4&#45;&gt;Node8 -->
<g id="edge7_Node000004_Node000008" class="edge">
<title>Node4&#45;&gt;Node8</title>
<g id="a_edge7_Node000004_Node000008"><a xlink:title=" ">
<path fill="none" stroke="#63b8ff" d="M844.99,-150.26C752.09,-146.15 466.49,-131.77 377.5,-107 371.92,-105.45 366.17,-103.13 360.84,-100.63"/>
<polygon fill="#63b8ff" stroke="#63b8ff" points="362.31,-97.45 351.81,-96.06 359.15,-103.7 362.31,-97.45"/>
</a>
</g>
</g>
<!-- Node9 -->
<g id="Node000009" class="node">
<title>Node9</title>
<g id="a_Node000009"><a xlink:title=" ">
<polygon fill="#e0e0e0" stroke="#999999" points="439,-96 386,-96 386,-77 439,-77 439,-96"/>
<text text-anchor="middle" x="412.5" y="-84" font-family="Helvetica,sans-Serif" font-size="10.00">cstddef</text>
</a>
</g>
</g>
<!-- Node4&#45;&gt;Node9 -->
<g id="edge8_Node000004_Node000009" class="edge">
<title>Node4&#45;&gt;Node9</title>
<g id="a_edge8_Node000004_Node000009"><a xlink:title=" ">
<path fill="none" stroke="#63b8ff" d="M844.81,-149.91C760.83,-145.17 522.91,-130.04 448.5,-107 443.66,-105.5 438.73,-103.33 434.13,-100.97"/>
<polygon fill="#63b8ff" stroke="#63b8ff" points="435.72,-97.85 425.29,-96.03 432.31,-103.96 435.72,-97.85"/>
</a>
</g>
</g>
<!-- Node10 -->
<g id="Node000010" class="node">
<title>Node10</title>
<g id="a_Node000010"><a xlink:title=" ">
<polygon fill="#e0e0e0" stroke="#999999" points="507.5,-96 457.5,-96 457.5,-77 507.5,-77 507.5,-96"/>
<text text-anchor="middle" x="482.5" y="-84" font-family="Helvetica,sans-Serif" font-size="10.00">cstdint</text>
</a>
</g>
</g>
<!-- Node4&#45;&gt;Node10 -->
<g id="edge9_Node000004_Node000010" class="edge">
<title>Node4&#45;&gt;Node10</title>
<g id="a_edge9_Node000004_Node000010"><a xlink:title=" ">
<path fill="none" stroke="#63b8ff" d="M844.87,-151.72C782.45,-151.36 633.53,-146.07 516.5,-107 512.22,-105.57 507.87,-103.57 503.78,-101.39"/>
<polygon fill="#63b8ff" stroke="#63b8ff" points="505.25,-98.2 494.85,-96.17 501.72,-104.24 505.25,-98.2"/>
</a>
</g>
</g>
<!-- Node11 -->
<g id="Node000011" class="node">
<title>Node11</title>
<g id="a_Node000011"><a xlink:title=" ">
<polygon fill="#e0e0e0" stroke="#999999" points="575.5,-96 525.5,-96 525.5,-77 575.5,-77 575.5,-96"/>
<text text-anchor="middle" x="550.5" y="-84" font-family="Helvetica,sans-Serif" font-size="10.00">cstring</text>
</a>
</g>
</g>
<!-- Node4&#45;&gt;Node11 -->
<g id="edge10_Node000004_Node000011" class="edge">
<title>Node4&#45;&gt;Node11</title>
<g id="a_edge10_Node000004_Node000011"><a xlink:title=" ">
<path fill="none" stroke="#63b8ff" d="M844.97,-150.39C791.73,-147.65 676.73,-138.3 585.5,-107 581.01,-105.46 576.43,-103.36 572.12,-101.1"/>
<polygon fill="#63b8ff" stroke="#63b8ff" points="573.7,-97.97 563.28,-96.07 570.24,-104.05 573.7,-97.97"/>
</a>
</g>
</g>
<!-- Node12 -->
<g id="Node000012" class="node">
<title>Node12</title>
<g id="a_Node000012"><a xlink:title=" ">
<polygon fill="#e0e0e0" stroke="#999999" points="643,-96 594,-96 594,-77 643,-77 643,-96"/>
<text text-anchor="middle" x="618.5" y="-84" font-family="Helvetica,sans-Serif" font-size="10.00">cuchar</text>
</a>
</g>
</g>
<!-- Node4&#45;&gt;Node12 -->
<g id="edge11_Node000004_Node000012" class="edge">
<title>Node4&#45;&gt;Node12</title>
<g id="a_edge11_Node000004_Node000012"><a xlink:title=" ">
<path fill="none" stroke="#63b8ff" d="M844.93,-148.64C801.58,-143.77 718.74,-131.88 652.5,-107 648.34,-105.44 644.1,-103.41 640.08,-101.25"/>
<polygon fill="#63b8ff" stroke="#63b8ff" points="641.66,-98.12 631.25,-96.13 638.15,-104.17 641.66,-98.12"/>
</a>
</g>
</g>
<!-- Node13 -->
<g id="Node000013" class="node">
<title>Node13</title>
<g id="a_Node000013"><a xlink:title=" ">
<polygon fill="#e0e0e0" stroke="#999999" points="719.5,-96 661.5,-96 661.5,-77 719.5,-77 719.5,-96"/>
<text text-anchor="middle" x="690.5" y="-84" font-family="Helvetica,sans-Serif" font-size="10.00">memory</text>
</a>
</g>
</g>
<!-- Node4&#45;&gt;Node13 -->
<g id="edge12_Node000004_Node000013" class="edge">
<title>Node4&#45;&gt;Node13</title>
<g id="a_edge12_Node000004_Node000013"><a xlink:title=" ">
<path fill="none" stroke="#63b8ff" d="M844.84,-143.95C815.18,-136.04 768.49,-122.61 729.5,-107 724.83,-105.13 719.95,-102.91 715.29,-100.66"/>
<polygon fill="#63b8ff" stroke="#63b8ff" points="716.67,-97.44 706.17,-96.08 713.53,-103.69 716.67,-97.44"/>
</a>
</g>
</g>
<!-- Node14 -->
<g id="Node000014" class="node">
<title>Node14</title>
<g id="a_Node000014"><a xlink:title=" ">
<polygon fill="#e0e0e0" stroke="#999999" points="803,-96 738,-96 738,-77 803,-77 803,-96"/>
<text text-anchor="middle" x="770.5" y="-84" font-family="Helvetica,sans-Serif" font-size="10.00">stdexcept</text>
</a>
</g>
</g>
<!-- Node4&#45;&gt;Node14 -->
<g id="edge13_Node000004_Node000014" class="edge">
<title>Node4&#45;&gt;Node14</title>
<g id="a_edge13_Node000004_Node000014"><a xlink:title=" ">
<path fill="none" stroke="#63b8ff" d="M860.47,-142.87C843.26,-132.28 813.84,-114.17 793.35,-101.56"/>
<polygon fill="#63b8ff" stroke="#63b8ff" points="794.99,-98.46 784.64,-96.2 791.32,-104.42 794.99,-98.46"/>
</a>
</g>
</g>
<!-- Node15 -->
<g id="Node000015" class="node">
<title>Node15</title>
<g id="a_Node000015"><a xlink:title=" ">
<polygon fill="#e0e0e0" stroke="#999999" points="865.5,-96 821.5,-96 821.5,-77 865.5,-77 865.5,-96"/>
<text text-anchor="middle" x="843.5" y="-84" font-family="Helvetica,sans-Serif" font-size="10.00">string</text>
</a>
</g>
</g>
<!-- Node4&#45;&gt;Node15 -->
<g id="edge14_Node000004_Node000015" class="edge">
<title>Node4&#45;&gt;Node15</title>
<g id="a_edge14_Node000004_Node000015"><a xlink:title=" ">
<path fill="none" stroke="#63b8ff" d="M870.32,-142.87C865.72,-133.38 858.21,-117.86 852.3,-105.66"/>
<polygon fill="#63b8ff" stroke="#63b8ff" points="855.32,-103.88 847.81,-96.41 849.02,-106.93 855.32,-103.88"/>
</a>
</g>
</g>
<!-- Node16 -->
<g id="Node000016" class="node">
<title>Node16</title>
<g id="a_Node000016"><a xlink:title=" ">
<polygon fill="#e0e0e0" stroke="#999999" points="69,-96 0,-96 0,-77 69,-77 69,-96"/>
<text text-anchor="middle" x="34.5" y="-84" font-family="Helvetica,sans-Serif" font-size="10.00">type_traits</text>
</a>
</g>
</g>
<!-- Node4&#45;&gt;Node16 -->
<g id="edge15_Node000004_Node000016" class="edge">
<title>Node4&#45;&gt;Node16</title>
<g id="a_edge15_Node000004_Node000016"><a xlink:title=" ">
<path fill="none" stroke="#63b8ff" d="M844.87,-151.27C718.98,-150.06 228.19,-143.08 78.5,-107 72.26,-105.49 65.79,-103.14 59.81,-100.57"/>
<polygon fill="#63b8ff" stroke="#63b8ff" points="60.85,-97.2 50.31,-96.17 57.91,-103.55 60.85,-97.2"/>
</a>
</g>
</g>
<!-- Node17 -->
<g id="Node000017" class="node">
<title>Node17</title>
<g id="a_Node000017"><a xlink:title=" ">
<polygon fill="#e0e0e0" stroke="#999999" points="929,-96 884,-96 884,-77 929,-77 929,-96"/>
<text text-anchor="middle" x="906.5" y="-84" font-family="Helvetica,sans-Serif" font-size="10.00">utility</text>
</a>
</g>
</g>
<!-- Node4&#45;&gt;Node17 -->
<g id="edge16_Node000004_Node000017" class="edge">
<title>Node4&#45;&gt;Node17</title>
<g id="a_edge16_Node000004_Node000017"><a xlink:title=" ">
<path fill="none" stroke="#63b8ff" d="M878.82,-142.87C883.56,-133.38 891.32,-117.86 897.42,-105.66"/>
<polygon fill="#63b8ff" stroke="#63b8ff" points="900.71,-106.91 902.05,-96.41 894.44,-103.78 900.71,-106.91"/>
</a>
</g>
</g>
<!-- Node18 -->
<g id="Node000018" class="node">
<title>Node18</title>
<g id="a_Node000018"><a xlink:href="../../dd/d9e/linux_2platform__config_8hpp.html" target="_top" xlink:title="additional linux platform header">
<polygon fill="white" stroke="#666666" points="1102,-107 947,-107 947,-66 1102,-66 1102,-107"/>
<text text-anchor="start" x="955" y="-95" font-family="Helvetica,sans-Serif" font-size="10.00">/home/runner/work/toygine2</text>
<text text-anchor="start" x="955" y="-84" font-family="Helvetica,sans-Serif" font-size="10.00">/toygine2/src/platforms</text>
<text text-anchor="middle" x="1024.5" y="-73" font-family="Helvetica,sans-Serif" font-size="10.00">/linux/platform_config.hpp</text>
</a>
</g>
</g>
<!-- Node4&#45;&gt;Node18 -->
<g id="edge17_Node000004_Node000018" class="edge">
<title>Node4&#45;&gt;Node18</title>
<g id="a_edge17_Node000004_Node000018"><a xlink:title=" ">
<path fill="none" stroke="#63b8ff" d="M894.73,-142.87C913.82,-134.72 943.31,-122.14 969.36,-111.03"/>
<polygon fill="#63b8ff" stroke="#63b8ff" points="970.95,-114.15 978.78,-107.01 968.2,-107.71 970.95,-114.15"/>
</a>
</g>
</g>
<!-- Node20 -->
<g id="Node000020" class="node">
<title>Node20</title>
<g id="a_Node000020"><a xlink:href="../../dd/ded/c__string__view_8hpp.html" target="_top" xlink:title="Non&#45;owning string view class for C&#45;style strings.">
<polygon fill="white" stroke="#666666" points="1248.5,-96 1120.5,-96 1120.5,-77 1248.5,-77 1248.5,-96"/>
<text text-anchor="middle" x="1184.5" y="-84" font-family="Helvetica,sans-Serif" font-size="10.00">core/c_string_view.hpp</text>
</a>
</g>
</g>
<!-- Node4&#45;&gt;Node20 -->
<g id="edge19_Node000004_Node000020" class="edge">
<title>Node4&#45;&gt;Node20</title>
<g id="a_edge19_Node000004_Node000020"><a xlink:title=" ">
<path fill="none" stroke="#63b8ff" d="M904.21,-146.66C949.24,-139.16 1037.4,-123.83 1111.5,-107 1122.26,-104.56 1133.83,-101.61 1144.52,-98.76"/>
<polygon fill="#63b8ff" stroke="#63b8ff" points="1145.7,-102.07 1154.44,-96.08 1143.87,-95.31 1145.7,-102.07"/>
</a>
</g>
</g>
<!-- Node21 -->
<g id="Node000021" class="node">
<title>Node21</title>
<g id="a_Node000021"><a xlink:href="../../d4/dc0/constexpr__utils_8hpp.html" target="_top" xlink:title="Constexpr utility functions for compile&#45;time operations.">
<polygon fill="white" stroke="#666666" points="1402.5,-96 1266.5,-96 1266.5,-77 1402.5,-77 1402.5,-96"/>
<text text-anchor="middle" x="1334.5" y="-84" font-family="Helvetica,sans-Serif" font-size="10.00">core/constexpr_utils.hpp</text>
</a>
</g>
</g>
<!-- Node4&#45;&gt;Node21 -->
<g id="edge20_Node000004_Node000021" class="edge">
<title>Node4&#45;&gt;Node21</title>
<g id="a_edge20_Node000004_Node000021"><a xlink:title=" ">
<path fill="none" stroke="#63b8ff" d="M904.01,-149.41C968.52,-144.55 1126.81,-131.03 1257.5,-107 1269.79,-104.74 1283.03,-101.64 1295,-98.57"/>
<polygon fill="#63b8ff" stroke="#63b8ff" points="1295.93,-101.94 1304.72,-96.02 1294.16,-95.17 1295.93,-101.94"/>
</a>
</g>
</g>
<!-- Node22 -->
<g id="Node000022" class="node">
<title>Node22</title>
<g id="a_Node000022"><a xlink:href="../../d7/d7f/fixed__string_8hpp.html" target="_top" xlink:title="Template string class with fixed&#45;size character buffer.">
<polygon fill="white" stroke="#666666" points="1538.5,-96 1420.5,-96 1420.5,-77 1538.5,-77 1538.5,-96"/>
<text text-anchor="middle" x="1479.5" y="-84" font-family="Helvetica,sans-Serif" font-size="10.00">core/fixed_string.hpp</text>
</a>
</g>
</g>
<!-- Node4&#45;&gt;Node22 -->
<g id="edge21_Node000004_Node000022" class="edge">
<title>Node4&#45;&gt;Node22</title>
<g id="a_edge21_Node000004_Node000022"><a xlink:title=" ">
<path fill="none" stroke="#63b8ff" d="M904.16,-151.08C985.78,-149.49 1220.33,-141.98 1411.5,-107 1422.39,-105.01 1434.05,-102 1444.58,-98.94"/>
<polygon fill="#63b8ff" stroke="#63b8ff" points="1445.71,-102.25 1454.27,-96.02 1443.69,-95.55 1445.71,-102.25"/>
</a>
</g>
</g>
<!-- Node23 -->
<g id="Node000023" class="node">
<title>Node23</title>
<g id="a_Node000023"><a xlink:href="../../d7/dea/fixed__vector_8hpp.html" target="_top" xlink:title="TODO.">
<polygon fill="white" stroke="#666666" points="1676.5,-96 1556.5,-96 1556.5,-77 1676.5,-77 1676.5,-96"/>
<text text-anchor="middle" x="1616.5" y="-84" font-family="Helvetica,sans-Serif" font-size="10.00">core/fixed_vector.hpp</text>
</a>
</g>
</g>
<!-- Node4&#45;&gt;Node23 -->
<g id="edge22_Node000004_Node000023" class="edge">
<title>Node4&#45;&gt;Node23</title>
<g id="a_edge22_Node000004_Node000023"><a xlink:title=" ">
<path fill="none" stroke="#63b8ff" d="M904.28,-151.74C999.03,-152.04 1301.71,-149.37 1547.5,-107 1558.66,-105.08 1570.59,-102.06 1581.35,-98.97"/>
<polygon fill="#63b8ff" stroke="#63b8ff" points="1582.65,-102.23 1591.23,-96.01 1580.65,-95.52 1582.65,-102.23"/>
</a>
</g>
</g>
<!-- Node24 -->
<g id="Node000024" class="node">
<title>Node24</title>
<g id="a_Node000024"><a xlink:href="../../dd/d8e/hashes_8hpp.html" target="_top" xlink:title="CRC hash functions.">
<polygon fill="white" stroke="#666666" points="1790.5,-96 1694.5,-96 1694.5,-77 1790.5,-77 1790.5,-96"/>
<text text-anchor="middle" x="1742.5" y="-84" font-family="Helvetica,sans-Serif" font-size="10.00">core/hashes.hpp</text>
</a>
</g>
</g>
<!-- Node4&#45;&gt;Node24 -->
<g id="edge23_Node000004_Node000024" class="edge">
<title>Node4&#45;&gt;Node24</title>
<g id="a_edge23_Node000004_Node000024"><a xlink:title=" ">
<path fill="none" stroke="#63b8ff" d="M904.19,-150.96C1031.44,-148.48 1531.34,-137 1685.5,-107 1694.43,-105.26 1703.87,-102.45 1712.44,-99.5"/>
<polygon fill="#63b8ff" stroke="#63b8ff" points="1713.82,-102.73 1722.03,-96.03 1711.43,-96.15 1713.82,-102.73"/>
</a>
</g>
</g>
<!-- Node25 -->
<g id="Node000025" class="node">
<title>Node25</title>
<g id="a_Node000025"><a xlink:href="../../df/d93/utils_8hpp.html" target="_top" xlink:title="Core utility functions for string manipulation, encoding conversion, and number formatting.">
<polygon fill="white" stroke="#666666" points="1892,-96 1809,-96 1809,-77 1892,-77 1892,-96"/>
<text text-anchor="middle" x="1850.5" y="-84" font-family="Helvetica,sans-Serif" font-size="10.00">core/utils.hpp</text>
</a>
</g>
</g>
<!-- Node4&#45;&gt;Node25 -->
<g id="edge24_Node000004_Node000025" class="edge">
<title>Node4&#45;&gt;Node25</title>
<g id="a_edge24_Node000004_Node000025"><a xlink:title=" ">
<path fill="none" stroke="#63b8ff" d="M904.12,-151.33C1042.09,-150.36 1622.47,-144.11 1799.5,-107 1807.15,-105.4 1815.17,-102.8 1822.52,-100.02"/>
<polygon fill="#63b8ff" stroke="#63b8ff" points="1824.07,-103.17 1832.04,-96.19 1821.46,-96.68 1824.07,-103.17"/>
</a>
</g>
</g>
<!-- Node26 -->
<g id="Node000026" class="node">
<title>Node26</title>
<g id="a_Node000026"><a xlink:href="../../df/d4a/c__string__view_8inl.html" target="_top" xlink:title="Inline implementations for CStringView class.">
<polygon fill="white" stroke="#666666" points="2032.5,-96 1910.5,-96 1910.5,-77 2032.5,-77 2032.5,-96"/>
<text text-anchor="middle" x="1971.5" y="-84" font-family="Helvetica,sans-Serif" font-size="10.00">core/c_string_view.inl</text>
</a>
</g>
</g>
<!-- Node4&#45;&gt;Node26 -->
<g id="edge25_Node000004_Node000026" class="edge">
<title>Node4&#45;&gt;Node26</title>
<g id="a_edge25_Node000004_Node000026"><a xlink:title=" ">
<path fill="none" stroke="#63b8ff" d="M904.32,-151.13C1051.55,-149.14 1701.89,-138.7 1901.5,-107 1913.04,-105.17 1925.4,-102.11 1936.47,-98.95"/>
<polygon fill="#63b8ff" stroke="#63b8ff" points="1937.62,-102.26 1946.21,-96.05 1935.63,-95.55 1937.62,-102.26"/>
</a>
</g>
</g>
<!-- Node27 -->
<g id="Node000027" class="node">
<title>Node27</title>
<g id="a_Node000027"><a xlink:href="../../dc/d28/constexpr__utils_8inl.html" target="_top" xlink:title="Inline implementations for constexpr utility functions.">
<polygon fill="white" stroke="#666666" points="2180.5,-96 2050.5,-96 2050.5,-77 2180.5,-77 2180.5,-96"/>
<text text-anchor="middle" x="2115.5" y="-84" font-family="Helvetica,sans-Serif" font-size="10.00">core/constexpr_utils.inl</text>
</a>
</g>
</g>
<!-- Node4&#45;&gt;Node27 -->
<g id="edge26_Node000004_Node000027" class="edge">
<title>Node4&#45;&gt;Node27</title>
<g id="a_edge26_Node000004_Node000027"><a xlink:title=" ">
<path fill="none" stroke="#63b8ff" d="M904.07,-151.25C1062.53,-149.79 1812.38,-141.13 2041.5,-107 2053.8,-105.17 2066.99,-102.07 2078.79,-98.88"/>
<polygon fill="#63b8ff" stroke="#63b8ff" points="2080.06,-102.15 2088.73,-96.07 2078.16,-95.42 2080.06,-102.15"/>
</a>
</g>
</g>
<!-- Node28 -->
<g id="Node000028" class="node">
<title>Node28</title>
<g id="a_Node000028"><a xlink:href="../../d7/d40/fixed__string_8inl.html" target="_top" xlink:title="Inline implementations for FixedString template class.">
<polygon fill="white" stroke="#666666" points="2310.5,-96 2198.5,-96 2198.5,-77 2310.5,-77 2310.5,-96"/>
<text text-anchor="middle" x="2254.5" y="-84" font-family="Helvetica,sans-Serif" font-size="10.00">core/fixed_string.inl</text>
</a>
</g>
</g>
<!-- Node4&#45;&gt;Node28 -->
<g id="edge27_Node000004_Node000028" class="edge">
<title>Node4&#45;&gt;Node28</title>
<g id="a_edge27_Node000004_Node000028"><a xlink:title=" ">
<path fill="none" stroke="#63b8ff" d="M904.14,-151.53C1074.46,-151.56 1930.13,-149.56 2189.5,-107 2200.14,-105.25 2211.48,-102.27 2221.65,-99.15"/>
<polygon fill="#63b8ff" stroke="#63b8ff" points="2222.92,-102.41 2231.38,-96.02 2220.78,-95.75 2222.92,-102.41"/>
</a>
</g>
</g>
<!-- Node29 -->
<g id="Node000029" class="node">
<title>Node29</title>
<g id="a_Node000029"><a xlink:href="../../da/dc9/fixed__vector_8inl.html" target="_top" xlink:title="TODO.">
<polygon fill="white" stroke="#666666" points="2442.5,-96 2328.5,-96 2328.5,-77 2442.5,-77 2442.5,-96"/>
<text text-anchor="middle" x="2385.5" y="-84" font-family="Helvetica,sans-Serif" font-size="10.00">core/fixed_vector.inl</text>
</a>
</g>
</g>
<!-- Node4&#45;&gt;Node29 -->
<g id="edge28_Node000004_Node000029" class="edge">
<title>Node4&#45;&gt;Node29</title>
<g id="a_edge28_Node000004_Node000029"><a xlink:title=" ">
<path fill="none" stroke="#63b8ff" d="M904.08,-151.62C1083.97,-152.2 2032.8,-152.98 2319.5,-107 2330.41,-105.25 2342.04,-102.22 2352.46,-99.07"/>
<polygon fill="#63b8ff" stroke="#63b8ff" points="2353.54,-102.4 2362.01,-96.04 2351.42,-95.72 2353.54,-102.4"/>
</a>
</g>
</g>
<!-- Node30 -->
<g id="Node000030" class="node">
<title>Node30</title>
<g id="a_Node000030"><a xlink:href="../../df/d7d/utils_8inl.html" target="_top" xlink:title="Inline implementations of core utility functions for string manipulation and encoding conversion.">
<polygon fill="white" stroke="#666666" points="2538,-96 2461,-96 2461,-77 2538,-77 2538,-96"/>
<text text-anchor="middle" x="2499.5" y="-84" font-family="Helvetica,sans-Serif" font-size="10.00">core/utils.inl</text>
</a>
</g>
</g>
<!-- Node4&#45;&gt;Node30 -->
<g id="edge29_Node000004_Node000030" class="edge">
<title>Node4&#45;&gt;Node30</title>
<g id="a_edge29_Node000004_Node000030"><a xlink:title=" ">
<path fill="none" stroke="#63b8ff" d="M904.29,-151.3C1108.22,-149.83 2294.78,-139.92 2451.5,-107 2458.72,-105.48 2466.23,-102.94 2473.12,-100.18"/>
<polygon fill="#63b8ff" stroke="#63b8ff" points="2474.84,-103.25 2482.64,-96.08 2472.07,-96.82 2474.84,-103.25"/>
</a>
</g>
</g>
<!-- Node19 -->
<g id="Node000019" class="node">
<title>Node19</title>
<g id="a_Node000019"><a xlink:href="../../d1/d5f/assertion__macro__gcc__clang_8hpp.html" target="_top" xlink:title="Debug and Release assertion macro implementations for GCC/Clang platforms.">
<polygon fill="white" stroke="#666666" points="1088,-30 961,-30 961,0 1088,0 1088,-30"/>
<text text-anchor="start" x="969" y="-18" font-family="Helvetica,sans-Serif" font-size="10.00">../common/assertion</text>
<text text-anchor="middle" x="1024.5" y="-7" font-family="Helvetica,sans-Serif" font-size="10.00">_macro_gcc_clang.hpp</text>
</a>
</g>
</g>
<!-- Node18&#45;&gt;Node19 -->
<g id="edge18_Node000018_Node000019" class="edge">
<title>Node18&#45;&gt;Node19</title>
<g id="a_edge18_Node000018_Node000019"><a xlink:title=" ">
<path fill="none" stroke="#63b8ff" d="M1024.5,-65.77C1024.5,-57.85 1024.5,-48.63 1024.5,-40.3"/>
<polygon fill="#63b8ff" stroke="#63b8ff" points="1028,-40.04 1024.5,-30.04 1021,-40.04 1028,-40.04"/>
</a>
</g>
</g>
<!-- Node31&#45;&gt;Node16 -->
<g id="edge31_Node000031_Node000016" class="edge">
<title>Node31&#45;&gt;Node16</title>
<g id="a_edge31_Node000031_Node000016"><a xlink:title=" ">
<path fill="none" stroke="#63b8ff" d="M374.85,-144.18C372.03,-143.77 369.23,-143.38 366.5,-143 238.72,-125.32 202.8,-141.5 78.5,-107 72.41,-105.31 66.09,-102.92 60.19,-100.39"/>
<polygon fill="#63b8ff" stroke="#63b8ff" points="61.34,-97.06 50.79,-96.09 58.43,-103.43 61.34,-97.06"/>
</a>
</g>
</g>
</g>
</svg>
