<?xml version="1.0" encoding="UTF-8" standalone="no"?>
<!DOCTYPE svg PUBLIC "-//W3C//DTD SVG 1.1//EN"
 "http://www.w3.org/Graphics/SVG/1.1/DTD/svg11.dtd">
<!-- Generated by graphviz version 2.43.0 (0)
 -->
<!-- Title: src/core/utils.cpp Pages: 1 -->
<svg width="2002pt" height="159pt"
 viewBox="0.00 0.00 2001.50 159.00" xmlns="http://www.w3.org/2000/svg" xmlns:xlink="http://www.w3.org/1999/xlink">
<g id="graph0" class="graph" transform="scale(1 1) rotate(0) translate(4 155)">
<title>src/core/utils.cpp</title>
<!-- Node1 -->
<g id="Node000001" class="node">
<title>Node1</title>
<g id="a_Node000001"><a xlink:title=" ">
<polygon fill="#999999" stroke="#666666" points="731.5,-151 632.5,-151 632.5,-132 731.5,-132 731.5,-151"/>
<text text-anchor="middle" x="682" y="-139" font-family="Helvetica,sans-Serif" font-size="10.00">src/core/utils.cpp</text>
</a>
</g>
</g>
<!-- Node2 -->
<g id="Node000002" class="node">
<title>Node2</title>
<g id="a_Node000002"><a xlink:title=" ">
<polygon fill="#e0e0e0" stroke="#999999" points="605.5,-96 576.5,-96 576.5,-77 605.5,-77 605.5,-96"/>
<text text-anchor="middle" x="591" y="-84" font-family="Helvetica,sans-Serif" font-size="10.00">bit</text>
</a>
</g>
</g>
<!-- Node1&#45;&gt;Node2 -->
<g id="edge1_Node000001_Node000002" class="edge">
<title>Node1&#45;&gt;Node2</title>
<g id="a_edge1_Node000001_Node000002"><a xlink:title=" ">
<path fill="none" stroke="#63b8ff" d="M667.38,-131.98C653.05,-123.64 630.99,-110.79 614.25,-101.04"/>
<polygon fill="#63b8ff" stroke="#63b8ff" points="615.99,-98 605.58,-95.99 612.46,-104.05 615.99,-98"/>
</a>
</g>
</g>
<!-- Node3 -->
<g id="Node000003" class="node">
<title>Node3</title>
<g id="a_Node000003"><a xlink:title=" ">
<polygon fill="#e0e0e0" stroke="#999999" points="670.5,-96 623.5,-96 623.5,-77 670.5,-77 670.5,-96"/>
<text text-anchor="middle" x="647" y="-84" font-family="Helvetica,sans-Serif" font-size="10.00">cmath</text>
</a>
</g>
</g>
<!-- Node1&#45;&gt;Node3 -->
<g id="edge2_Node000001_Node000003" class="edge">
<title>Node1&#45;&gt;Node3</title>
<g id="a_edge2_Node000001_Node000003"><a xlink:title=" ">
<path fill="none" stroke="#63b8ff" d="M676.22,-131.75C671.38,-124.42 664.32,-113.73 658.36,-104.7"/>
<polygon fill="#63b8ff" stroke="#63b8ff" points="661.1,-102.5 652.67,-96.09 655.26,-106.36 661.1,-102.5"/>
</a>
</g>
</g>
<!-- Node4 -->
<g id="Node000004" class="node">
<title>Node4</title>
<g id="a_Node000004"><a xlink:href="../../da/d47/core_8hpp.html" target="_top" xlink:title=" ">
<polygon fill="white" stroke="#666666" points="747.5,-96 688.5,-96 688.5,-77 747.5,-77 747.5,-96"/>
<text text-anchor="middle" x="718" y="-84" font-family="Helvetica,sans-Serif" font-size="10.00">core.hpp</text>
</a>
</g>
</g>
<!-- Node1&#45;&gt;Node4 -->
<g id="edge3_Node000001_Node000004" class="edge">
<title>Node1&#45;&gt;Node4</title>
<g id="a_edge3_Node000001_Node000004"><a xlink:title=" ">
<path fill="none" stroke="#63b8ff" d="M687.94,-131.75C692.98,-124.34 700.34,-113.5 706.51,-104.41"/>
<polygon fill="#63b8ff" stroke="#63b8ff" points="709.44,-106.33 712.17,-96.09 703.65,-102.39 709.44,-106.33"/>
</a>
</g>
</g>
<!-- Node24 -->
<g id="Node000024" class="node">
<title>Node24</title>
<g id="a_Node000024"><a xlink:href="../../d4/d85/utils__internal_8inl.html" target="_top" xlink:title=" ">
<polygon fill="white" stroke="#666666" points="1462.5,-96 1367.5,-96 1367.5,-77 1462.5,-77 1462.5,-96"/>
<text text-anchor="middle" x="1415" y="-84" font-family="Helvetica,sans-Serif" font-size="10.00">utils_internal.inl</text>
</a>
</g>
</g>
<!-- Node1&#45;&gt;Node24 -->
<g id="edge23_Node000001_Node000024" class="edge">
<title>Node1&#45;&gt;Node24</title>
<g id="a_edge23_Node000001_Node000024"><a xlink:title=" ">
<path fill="none" stroke="#63b8ff" d="M731.52,-136.92C862.51,-127.45 1217.63,-101.77 1357.39,-91.67"/>
<polygon fill="#63b8ff" stroke="#63b8ff" points="1357.74,-95.15 1367.47,-90.94 1357.24,-88.17 1357.74,-95.15"/>
</a>
</g>
</g>
<!-- Node5 -->
<g id="Node000005" class="node">
<title>Node5</title>
<g id="a_Node000005"><a xlink:title=" ">
<polygon fill="#e0e0e0" stroke="#999999" points="64,-30 0,-30 0,-11 64,-11 64,-30"/>
<text text-anchor="middle" x="32" y="-18" font-family="Helvetica,sans-Serif" font-size="10.00">algorithm</text>
</a>
</g>
</g>
<!-- Node4&#45;&gt;Node5 -->
<g id="edge4_Node000004_Node000005" class="edge">
<title>Node4&#45;&gt;Node5</title>
<g id="a_edge4_Node000004_Node000005"><a xlink:title=" ">
<path fill="none" stroke="#63b8ff" d="M688.27,-78.52C685.15,-77.94 682.02,-77.42 679,-77 411.72,-40.16 334.31,-108.18 73,-41 67.27,-39.53 61.38,-37.24 55.92,-34.75"/>
<polygon fill="#63b8ff" stroke="#63b8ff" points="57.18,-31.47 46.66,-30.17 54.07,-37.74 57.18,-31.47"/>
</a>
</g>
</g>
<!-- Node6 -->
<g id="Node000006" class="node">
<title>Node6</title>
<g id="a_Node000006"><a xlink:title=" ">
<polygon fill="#e0e0e0" stroke="#999999" points="124,-30 82,-30 82,-11 124,-11 124,-30"/>
<text text-anchor="middle" x="103" y="-18" font-family="Helvetica,sans-Serif" font-size="10.00">array</text>
</a>
</g>
</g>
<!-- Node4&#45;&gt;Node6 -->
<g id="edge5_Node000004_Node000006" class="edge">
<title>Node4&#45;&gt;Node6</title>
<g id="a_edge5_Node000004_Node000006"><a xlink:title=" ">
<path fill="none" stroke="#63b8ff" d="M688.27,-78.54C685.15,-77.96 682.02,-77.43 679,-77 558.6,-60.01 248.38,-79.38 133,-41 129.24,-39.75 125.5,-37.91 121.99,-35.86"/>
<polygon fill="#63b8ff" stroke="#63b8ff" points="123.68,-32.78 113.42,-30.17 119.81,-38.62 123.68,-32.78"/>
</a>
</g>
</g>
<!-- Node7 -->
<g id="Node000007" class="node">
<title>Node7</title>
<g id="a_Node000007"><a xlink:title=" ">
<polygon fill="#e0e0e0" stroke="#999999" points="201.5,-30 142.5,-30 142.5,-11 201.5,-11 201.5,-30"/>
<text text-anchor="middle" x="172" y="-18" font-family="Helvetica,sans-Serif" font-size="10.00">compare</text>
</a>
</g>
</g>
<!-- Node4&#45;&gt;Node7 -->
<g id="edge6_Node000004_Node000007" class="edge">
<title>Node4&#45;&gt;Node7</title>
<g id="a_edge6_Node000004_Node000007"><a xlink:title=" ">
<path fill="none" stroke="#63b8ff" d="M688.27,-78.58C685.15,-77.98 682.02,-77.44 679,-77 472.6,-46.72 412.04,-96.69 211,-41 205.67,-39.52 200.2,-37.3 195.1,-34.87"/>
<polygon fill="#63b8ff" stroke="#63b8ff" points="196.4,-31.6 185.91,-30.11 193.18,-37.82 196.4,-31.6"/>
</a>
</g>
</g>
<!-- Node8 -->
<g id="Node000008" class="node">
<title>Node8</title>
<g id="a_Node000008"><a xlink:title=" ">
<polygon fill="#e0e0e0" stroke="#999999" points="280,-30 220,-30 220,-11 280,-11 280,-30"/>
<text text-anchor="middle" x="250" y="-18" font-family="Helvetica,sans-Serif" font-size="10.00">concepts</text>
</a>
</g>
</g>
<!-- Node4&#45;&gt;Node8 -->
<g id="edge7_Node000004_Node000008" class="edge">
<title>Node4&#45;&gt;Node8</title>
<g id="a_edge7_Node000004_Node000008"><a xlink:title=" ">
<path fill="none" stroke="#63b8ff" d="M688.26,-78.63C685.14,-78.02 682.01,-77.47 679,-77 506.97,-50.42 456.39,-88.75 289,-41 283.68,-39.48 278.21,-37.24 273.12,-34.81"/>
<polygon fill="#63b8ff" stroke="#63b8ff" points="274.42,-31.54 263.93,-30.05 271.2,-37.76 274.42,-31.54"/>
</a>
</g>
</g>
<!-- Node9 -->
<g id="Node000009" class="node">
<title>Node9</title>
<g id="a_Node000009"><a xlink:title=" ">
<polygon fill="#e0e0e0" stroke="#999999" points="351.5,-30 298.5,-30 298.5,-11 351.5,-11 351.5,-30"/>
<text text-anchor="middle" x="325" y="-18" font-family="Helvetica,sans-Serif" font-size="10.00">cstddef</text>
</a>
</g>
</g>
<!-- Node4&#45;&gt;Node9 -->
<g id="edge8_Node000004_Node000009" class="edge">
<title>Node4&#45;&gt;Node9</title>
<g id="a_edge8_Node000004_Node000009"><a xlink:title=" ">
<path fill="none" stroke="#63b8ff" d="M688.25,-78.69C685.13,-78.07 682.01,-77.5 679,-77 538.66,-53.83 496.69,-83.65 361,-41 356.37,-39.55 351.66,-37.48 347.23,-35.24"/>
<polygon fill="#63b8ff" stroke="#63b8ff" points="348.57,-31.98 338.13,-30.2 345.18,-38.1 348.57,-31.98"/>
</a>
</g>
</g>
<!-- Node10 -->
<g id="Node000010" class="node">
<title>Node10</title>
<g id="a_Node000010"><a xlink:title=" ">
<polygon fill="#e0e0e0" stroke="#999999" points="420,-30 370,-30 370,-11 420,-11 420,-30"/>
<text text-anchor="middle" x="395" y="-18" font-family="Helvetica,sans-Serif" font-size="10.00">cstdint</text>
</a>
</g>
</g>
<!-- Node4&#45;&gt;Node10 -->
<g id="edge9_Node000004_Node000010" class="edge">
<title>Node4&#45;&gt;Node10</title>
<g id="a_edge9_Node000004_Node000010"><a xlink:title=" ">
<path fill="none" stroke="#63b8ff" d="M688.23,-78.78C685.12,-78.15 682,-77.54 679,-77 568.53,-57.03 535.13,-77.57 429,-41 424.73,-39.53 420.39,-37.51 416.3,-35.32"/>
<polygon fill="#63b8ff" stroke="#63b8ff" points="417.77,-32.13 407.37,-30.11 414.24,-38.18 417.77,-32.13"/>
</a>
</g>
</g>
<!-- Node11 -->
<g id="Node000011" class="node">
<title>Node11</title>
<g id="a_Node000011"><a xlink:title=" ">
<polygon fill="#e0e0e0" stroke="#999999" points="488,-30 438,-30 438,-11 488,-11 488,-30"/>
<text text-anchor="middle" x="463" y="-18" font-family="Helvetica,sans-Serif" font-size="10.00">cstring</text>
</a>
</g>
</g>
<!-- Node4&#45;&gt;Node11 -->
<g id="edge10_Node000004_Node000011" class="edge">
<title>Node4&#45;&gt;Node11</title>
<g id="a_edge10_Node000004_Node000011"><a xlink:title=" ">
<path fill="none" stroke="#63b8ff" d="M688.2,-78.94C685.1,-78.28 681.99,-77.62 679,-77 598.27,-60.22 574.23,-69.89 497,-41 492.84,-39.44 488.59,-37.41 484.57,-35.25"/>
<polygon fill="#63b8ff" stroke="#63b8ff" points="486.16,-32.13 475.75,-30.14 482.64,-38.18 486.16,-32.13"/>
</a>
</g>
</g>
<!-- Node12 -->
<g id="Node000012" class="node">
<title>Node12</title>
<g id="a_Node000012"><a xlink:title=" ">
<polygon fill="#e0e0e0" stroke="#999999" points="555.5,-30 506.5,-30 506.5,-11 555.5,-11 555.5,-30"/>
<text text-anchor="middle" x="531" y="-18" font-family="Helvetica,sans-Serif" font-size="10.00">cuchar</text>
</a>
</g>
</g>
<!-- Node4&#45;&gt;Node12 -->
<g id="edge11_Node000004_Node000012" class="edge">
<title>Node4&#45;&gt;Node12</title>
<g id="a_edge11_Node000004_Node000012"><a xlink:title=" ">
<path fill="none" stroke="#63b8ff" d="M688.24,-79.06C656.87,-71.77 606.37,-58.58 565,-41 560.98,-39.29 556.85,-37.22 552.9,-35.07"/>
<polygon fill="#63b8ff" stroke="#63b8ff" points="554.6,-32.01 544.19,-30.04 551.1,-38.07 554.6,-32.01"/>
</a>
</g>
</g>
<!-- Node13 -->
<g id="Node000013" class="node">
<title>Node13</title>
<g id="a_Node000013"><a xlink:title=" ">
<polygon fill="#e0e0e0" stroke="#999999" points="618,-30 574,-30 574,-11 618,-11 618,-30"/>
<text text-anchor="middle" x="596" y="-18" font-family="Helvetica,sans-Serif" font-size="10.00">string</text>
</a>
</g>
</g>
<!-- Node4&#45;&gt;Node13 -->
<g id="edge12_Node000004_Node000013" class="edge">
<title>Node4&#45;&gt;Node13</title>
<g id="a_edge12_Node000004_Node000013"><a xlink:title=" ">
<path fill="none" stroke="#63b8ff" d="M698.88,-76.87C680.25,-68.3 651.28,-54.52 627,-41 624,-39.33 620.89,-37.5 617.84,-35.64"/>
<polygon fill="#63b8ff" stroke="#63b8ff" points="619.42,-32.5 609.09,-30.17 615.71,-38.44 619.42,-32.5"/>
</a>
</g>
</g>
<!-- Node14 -->
<g id="Node000014" class="node">
<title>Node14</title>
<g id="a_Node000014"><a xlink:title=" ">
<polygon fill="#e0e0e0" stroke="#999999" points="681.5,-30 636.5,-30 636.5,-11 681.5,-11 681.5,-30"/>
<text text-anchor="middle" x="659" y="-18" font-family="Helvetica,sans-Serif" font-size="10.00">utility</text>
</a>
</g>
</g>
<!-- Node4&#45;&gt;Node14 -->
<g id="edge13_Node000004_Node000014" class="edge">
<title>Node4&#45;&gt;Node14</title>
<g id="a_edge13_Node000004_Node000014"><a xlink:title=" ">
<path fill="none" stroke="#63b8ff" d="M710.04,-76.87C700.86,-66.9 685.54,-50.29 674.08,-37.86"/>
<polygon fill="#63b8ff" stroke="#63b8ff" points="676.56,-35.39 667.21,-30.41 671.41,-40.13 676.56,-35.39"/>
</a>
</g>
</g>
<!-- Node15 -->
<g id="Node000015" class="node">
<title>Node15</title>
<g id="a_Node000015"><a xlink:href="../../dd/d9e/linux_2platform__config_8hpp.html" target="_top" xlink:title="additional linux platform header">
<polygon fill="white" stroke="#666666" points="854.5,-41 699.5,-41 699.5,0 854.5,0 854.5,-41"/>
<text text-anchor="start" x="707.5" y="-29" font-family="Helvetica,sans-Serif" font-size="10.00">/home/runner/work/toygine2</text>
<text text-anchor="start" x="707.5" y="-18" font-family="Helvetica,sans-Serif" font-size="10.00">/toygine2/src/platforms</text>
<text text-anchor="middle" x="777" y="-7" font-family="Helvetica,sans-Serif" font-size="10.00">/linux/platform_config.hpp</text>
</a>
</g>
</g>
<!-- Node4&#45;&gt;Node15 -->
<g id="edge14_Node000004_Node000015" class="edge">
<title>Node4&#45;&gt;Node15</title>
<g id="a_edge14_Node000004_Node000015"><a xlink:title=" ">
<path fill="none" stroke="#63b8ff" d="M725.96,-76.87C732.67,-69.58 742.67,-58.74 752.04,-48.58"/>
<polygon fill="#63b8ff" stroke="#63b8ff" points="754.81,-50.73 759.02,-41.01 749.66,-45.99 754.81,-50.73"/>
</a>
</g>
</g>
<!-- Node16 -->
<g id="Node000016" class="node">
<title>Node16</title>
<g id="a_Node000016"><a xlink:href="../../dd/ded/c__string__view_8hpp.html" target="_top" xlink:title="TODO.">
<polygon fill="white" stroke="#666666" points="1001,-30 873,-30 873,-11 1001,-11 1001,-30"/>
<text text-anchor="middle" x="937" y="-18" font-family="Helvetica,sans-Serif" font-size="10.00">core/c_string_view.hpp</text>
</a>
</g>
</g>
<!-- Node4&#45;&gt;Node16 -->
<g id="edge15_Node000004_Node000016" class="edge">
<title>Node4&#45;&gt;Node16</title>
<g id="a_edge15_Node000004_Node000016"><a xlink:title=" ">
<path fill="none" stroke="#63b8ff" d="M747.54,-76.87C786.34,-65.53 854.6,-45.58 897.72,-32.98"/>
<polygon fill="#63b8ff" stroke="#63b8ff" points="898.97,-36.26 907.58,-30.1 897,-29.54 898.97,-36.26"/>
</a>
</g>
</g>
<!-- Node17 -->
<g id="Node000017" class="node">
<title>Node17</title>
<g id="a_Node000017"><a xlink:href="../../d4/dc0/constexpr__utils_8hpp.html" target="_top" xlink:title="Constexpr utility functions for compile&#45;time operations.">
<polygon fill="white" stroke="#666666" points="1155,-30 1019,-30 1019,-11 1155,-11 1155,-30"/>
<text text-anchor="middle" x="1087" y="-18" font-family="Helvetica,sans-Serif" font-size="10.00">core/constexpr_utils.hpp</text>
</a>
</g>
</g>
<!-- Node4&#45;&gt;Node17 -->
<g id="edge16_Node000004_Node000017" class="edge">
<title>Node4&#45;&gt;Node17</title>
<g id="a_edge16_Node000004_Node000017"><a xlink:title=" ">
<path fill="none" stroke="#63b8ff" d="M747.59,-81.95C800.52,-75.4 914.75,-60.27 1010,-41 1021.81,-38.61 1034.53,-35.58 1046.17,-32.62"/>
<polygon fill="#63b8ff" stroke="#63b8ff" points="1047.26,-35.96 1056.06,-30.06 1045.5,-29.18 1047.26,-35.96"/>
</a>
</g>
</g>
<!-- Node18 -->
<g id="Node000018" class="node">
<title>Node18</title>
<g id="a_Node000018"><a xlink:href="../../d7/d7f/fixed__string_8hpp.html" target="_top" xlink:title="Template string class with fixed&#45;size character buffer.">
<polygon fill="white" stroke="#666666" points="1291,-30 1173,-30 1173,-11 1291,-11 1291,-30"/>
<text text-anchor="middle" x="1232" y="-18" font-family="Helvetica,sans-Serif" font-size="10.00">core/fixed_string.hpp</text>
</a>
</g>
</g>
<!-- Node4&#45;&gt;Node18 -->
<g id="edge17_Node000004_Node000018" class="edge">
<title>Node4&#45;&gt;Node18</title>
<g id="a_edge17_Node000004_Node000018"><a xlink:title=" ">
<path fill="none" stroke="#63b8ff" d="M747.75,-84.38C819.78,-81.27 1009.05,-70.7 1164,-41 1174.79,-38.93 1186.33,-35.93 1196.79,-32.9"/>
<polygon fill="#63b8ff" stroke="#63b8ff" points="1197.86,-36.23 1206.43,-30.01 1195.85,-29.53 1197.86,-36.23"/>
</a>
</g>
</g>
<!-- Node19 -->
<g id="Node000019" class="node">
<title>Node19</title>
<g id="a_Node000019"><a xlink:href="../../df/d93/utils_8hpp.html" target="_top" xlink:title="Core utility functions for string manipulation, encoding conversion, and number formatting.">
<polygon fill="white" stroke="#666666" points="1392.5,-30 1309.5,-30 1309.5,-11 1392.5,-11 1392.5,-30"/>
<text text-anchor="middle" x="1351" y="-18" font-family="Helvetica,sans-Serif" font-size="10.00">core/utils.hpp</text>
</a>
</g>
</g>
<!-- Node4&#45;&gt;Node19 -->
<g id="edge18_Node000004_Node000019" class="edge">
<title>Node4&#45;&gt;Node19</title>
<g id="a_edge18_Node000004_Node000019"><a xlink:title=" ">
<path fill="none" stroke="#63b8ff" d="M747.65,-84.36C850.72,-80.24 1192.97,-65.02 1300,-41 1307.63,-39.29 1315.64,-36.65 1322.99,-33.87"/>
<polygon fill="#63b8ff" stroke="#63b8ff" points="1324.53,-37.02 1332.51,-30.05 1321.93,-30.53 1324.53,-37.02"/>
</a>
</g>
</g>
<!-- Node20 -->
<g id="Node000020" class="node">
<title>Node20</title>
<g id="a_Node000020"><a xlink:href="../../df/d4a/c__string__view_8inl.html" target="_top" xlink:title="TODO.">
<polygon fill="white" stroke="#666666" points="1533,-30 1411,-30 1411,-11 1533,-11 1533,-30"/>
<text text-anchor="middle" x="1472" y="-18" font-family="Helvetica,sans-Serif" font-size="10.00">core/c_string_view.inl</text>
</a>
</g>
</g>
<!-- Node4&#45;&gt;Node20 -->
<g id="edge19_Node000004_Node000020" class="edge">
<title>Node4&#45;&gt;Node20</title>
<g id="a_edge19_Node000004_Node000020"><a xlink:title=" ">
<path fill="none" stroke="#63b8ff" d="M747.59,-85.75C843.09,-86.08 1151.52,-83.56 1402,-41 1413.43,-39.06 1425.67,-36 1436.67,-32.87"/>
<polygon fill="#63b8ff" stroke="#63b8ff" points="1437.76,-36.2 1446.36,-30.02 1435.78,-29.49 1437.76,-36.2"/>
</a>
</g>
</g>
<!-- Node21 -->
<g id="Node000021" class="node">
<title>Node21</title>
<g id="a_Node000021"><a xlink:href="../../dc/d28/constexpr__utils_8inl.html" target="_top" xlink:title="Inline implementations for constexpr utility functions.">
<polygon fill="white" stroke="#666666" points="1681,-30 1551,-30 1551,-11 1681,-11 1681,-30"/>
<text text-anchor="middle" x="1616" y="-18" font-family="Helvetica,sans-Serif" font-size="10.00">core/constexpr_utils.inl</text>
</a>
</g>
</g>
<!-- Node4&#45;&gt;Node21 -->
<g id="edge20_Node000004_Node000021" class="edge">
<title>Node4&#45;&gt;Node21</title>
<g id="a_edge20_Node000004_Node000021"><a xlink:title=" ">
<path fill="none" stroke="#63b8ff" d="M747.68,-84.71C876.06,-81.16 1384.2,-65.79 1542,-41 1554.18,-39.09 1567.26,-36 1578.98,-32.84"/>
<polygon fill="#63b8ff" stroke="#63b8ff" points="1580.18,-36.13 1588.87,-30.07 1578.3,-29.39 1580.18,-36.13"/>
</a>
</g>
</g>
<!-- Node22 -->
<g id="Node000022" class="node">
<title>Node22</title>
<g id="a_Node000022"><a xlink:href="../../d7/d40/fixed__string_8inl.html" target="_top" xlink:title="Inline implementations for FixedString template class.">
<polygon fill="white" stroke="#666666" points="1811,-30 1699,-30 1699,-11 1811,-11 1811,-30"/>
<text text-anchor="middle" x="1755" y="-18" font-family="Helvetica,sans-Serif" font-size="10.00">core/fixed_string.inl</text>
</a>
</g>
</g>
<!-- Node4&#45;&gt;Node22 -->
<g id="edge21_Node000004_Node000022" class="edge">
<title>Node4&#45;&gt;Node22</title>
<g id="a_edge21_Node000004_Node000022"><a xlink:title=" ">
<path fill="none" stroke="#63b8ff" d="M747.63,-85.12C889.72,-83.17 1502.03,-73 1690,-41 1700.54,-39.21 1711.78,-36.23 1721.89,-33.14"/>
<polygon fill="#63b8ff" stroke="#63b8ff" points="1723.1,-36.43 1731.56,-30.05 1720.97,-29.76 1723.1,-36.43"/>
</a>
</g>
</g>
<!-- Node23 -->
<g id="Node000023" class="node">
<title>Node23</title>
<g id="a_Node000023"><a xlink:href="../../df/d7d/utils_8inl.html" target="_top" xlink:title="Inline implementations of core utility functions for string manipulation and encoding conversion.">
<polygon fill="white" stroke="#666666" points="1906.5,-30 1829.5,-30 1829.5,-11 1906.5,-11 1906.5,-30"/>
<text text-anchor="middle" x="1868" y="-18" font-family="Helvetica,sans-Serif" font-size="10.00">core/utils.inl</text>
</a>
</g>
</g>
<!-- Node4&#45;&gt;Node23 -->
<g id="edge22_Node000004_Node000023" class="edge">
<title>Node4&#45;&gt;Node23</title>
<g id="a_edge22_Node000004_Node000023"><a xlink:title=" ">
<path fill="none" stroke="#63b8ff" d="M747.53,-84.92C912.11,-81.57 1712.63,-64.24 1820,-41 1827.21,-39.44 1834.72,-36.88 1841.6,-34.12"/>
<polygon fill="#63b8ff" stroke="#63b8ff" points="1843.32,-37.19 1851.13,-30.03 1840.56,-30.76 1843.32,-37.19"/>
</a>
</g>
</g>
<!-- Node25 -->
<g id="Node000025" class="node">
<title>Node25</title>
<g id="a_Node000025"><a xlink:title=" ">
<polygon fill="#e0e0e0" stroke="#999999" points="1993.5,-30 1924.5,-30 1924.5,-11 1993.5,-11 1993.5,-30"/>
<text text-anchor="middle" x="1959" y="-18" font-family="Helvetica,sans-Serif" font-size="10.00">type_traits</text>
</a>
</g>
</g>
<!-- Node24&#45;&gt;Node25 -->
<g id="edge24_Node000024_Node000025" class="edge">
<title>Node24&#45;&gt;Node25</title>
<g id="a_edge24_Node000024_Node000025"><a xlink:title=" ">
<path fill="none" stroke="#63b8ff" d="M1462.69,-83.31C1570.68,-78.02 1831.13,-63.32 1916,-41 1922.09,-39.4 1928.41,-37 1934.25,-34.43"/>
<polygon fill="#63b8ff" stroke="#63b8ff" points="1935.99,-37.48 1943.54,-30.04 1933,-31.15 1935.99,-37.48"/>
</a>
</g>
</g>
</g>
</svg>
