<?xml version="1.0" encoding="UTF-8" standalone="no"?>
<!DOCTYPE svg PUBLIC "-//W3C//DTD SVG 1.1//EN"
 "http://www.w3.org/Graphics/SVG/1.1/DTD/svg11.dtd">
<!-- Generated by graphviz version 2.43.0 (0)
 -->
<!-- Title: anonymous_namespace{utils::cpp}::floatPostProcess Pages: 1 -->
<svg width="281pt" height="64pt"
 viewBox="0.00 0.00 281.00 64.00" xmlns="http://www.w3.org/2000/svg" xmlns:xlink="http://www.w3.org/1999/xlink">
<g id="graph0" class="graph" transform="scale(1 1) rotate(0) translate(4 60)">
<title>anonymous_namespace{utils::cpp}::floatPostProcess</title>
<!-- Node1 -->
<g id="Node000001" class="node">
<title>Node1</title>
<g id="a_Node000001"><a xlink:title="Processes a string representation of a floating&#45;point number, adjusting the exponent,...">
<polygon fill="#999999" stroke="#666666" points="273,-42.5 114,-42.5 114,-12.5 273,-12.5 273,-42.5"/>
<text text-anchor="start" x="122" y="-30.5" font-family="Helvetica,sans-Serif" font-size="10.00">anonymous_namespace</text>
<text text-anchor="middle" x="193.5" y="-19.5" font-family="Helvetica,sans-Serif" font-size="10.00">{utils::cpp}::floatPostProcess</text>
</a>
</g>
</g>
<!-- Node2 -->
<g id="Node000002" class="node">
<title>Node2</title>
<g id="a_Node000002"><a xlink:href="../../d7/de6/namespacetoygine.html#af7d6996d5d592d01988772546b56666e" target="_top" xlink:title="Converts a 64&#45;bit floating&#45;point number to its string representation with specified precision.">
<polygon fill="white" stroke="#666666" points="78,-56 0,-56 0,-37 78,-37 78,-56"/>
<text text-anchor="middle" x="39" y="-44" font-family="Helvetica,sans-Serif" font-size="10.00">toygine::ftoa</text>
</a>
</g>
</g>
<!-- Node1&#45;&gt;Node2 -->
<g id="edge1_Node000001_Node000002" class="edge">
<title>Node1&#45;&gt;Node2</title>
<g id="a_edge1_Node000001_Node000002"><a xlink:title=" ">
<path fill="none" stroke="#63b8ff" d="M103.48,-38.59C94.61,-39.7 85.98,-40.77 78.09,-41.75"/>
<polygon fill="#63b8ff" stroke="#63b8ff" points="104.08,-42.04 113.57,-37.33 103.21,-35.1 104.08,-42.04"/>
</a>
</g>
</g>
<!-- Node3 -->
<g id="Node000003" class="node">
<title>Node3</title>
<g id="a_Node000003"><a xlink:href="../../d7/de6/namespacetoygine.html#affdb6875d17aaa1db906010940f7ce7f" target="_top" xlink:title="Converts a 32&#45;bit floating&#45;point number to its string representation with specified precision.">
<polygon fill="white" stroke="#666666" points="78,-19 0,-19 0,0 78,0 78,-19"/>
<text text-anchor="middle" x="39" y="-7" font-family="Helvetica,sans-Serif" font-size="10.00">toygine::ftoa</text>
</a>
</g>
</g>
<!-- Node1&#45;&gt;Node3 -->
<g id="edge2_Node000001_Node000003" class="edge">
<title>Node1&#45;&gt;Node3</title>
<g id="a_edge2_Node000001_Node000003"><a xlink:title=" ">
<path fill="none" stroke="#63b8ff" d="M103.48,-16.99C94.61,-15.95 85.98,-14.93 78.09,-14"/>
<polygon fill="#63b8ff" stroke="#63b8ff" points="103.23,-20.49 113.57,-18.18 104.05,-13.54 103.23,-20.49"/>
</a>
</g>
</g>
</g>
</svg>
