<?xml version="1.0" encoding="UTF-8" standalone="no"?>
<!DOCTYPE svg PUBLIC "-//W3C//DTD SVG 1.1//EN"
 "http://www.w3.org/Graphics/SVG/1.1/DTD/svg11.dtd">
<!-- Generated by graphviz version 2.43.0 (0)
 -->
<!-- Title: include/core/format_context.inl Pages: 1 -->
<svg width="2496pt" height="291pt"
 viewBox="0.00 0.00 2495.77 291.00" xmlns="http://www.w3.org/2000/svg" xmlns:xlink="http://www.w3.org/1999/xlink">
<g id="page0,1_graph0" class="graph" transform="scale(1 1) rotate(0) translate(4 287)">
<title>include/core/format_context.inl</title>
<!-- Node1 -->
<g id="Node000001" class="node">
<title>Node1</title>
<g id="a_Node000001"><a xlink:title="Inline implementations for toy::FormatContext.">
<polygon fill="#999999" stroke="#666666" points="1514.27,-283 1402.27,-283 1402.27,-253 1514.27,-253 1514.27,-283"/>
<text text-anchor="start" x="1410.27" y="-271" font-family="Helvetica,sans-Serif" font-size="10.00">include/core/format</text>
<text text-anchor="middle" x="1458.27" y="-260" font-family="Helvetica,sans-Serif" font-size="10.00">_context.inl</text>
</a>
</g>
</g>
<!-- Node2 -->
<g id="Node000002" class="node">
<title>Node2</title>
<g id="a_Node000002"><a xlink:href="../../da/d47/core_8hpp.html" target="_top" xlink:title="Umbrella header for the engine core module.">
<polygon fill="white" stroke="#666666" points="1506.77,-217 1409.77,-217 1409.77,-198 1506.77,-198 1506.77,-217"/>
<text text-anchor="middle" x="1458.27" y="-205" font-family="Helvetica,sans-Serif" font-size="10.00">include/core.hpp</text>
</a>
</g>
</g>
<!-- Node1&#45;&gt;Node2 -->
<g id="edge1_Node000001_Node000002" class="edge">
<title>Node1&#45;&gt;Node2</title>
<g id="a_edge1_Node000001_Node000002"><a xlink:title=" ">
<path fill="none" stroke="#63b8ff" d="M1458.27,-242.75C1458.27,-233.72 1458.27,-224.03 1458.27,-217.27"/>
<polygon fill="#63b8ff" stroke="#63b8ff" points="1454.77,-242.84 1458.27,-252.84 1461.77,-242.84 1454.77,-242.84"/>
</a>
</g>
</g>
<!-- Node3 -->
<g id="Node000003" class="node">
<title>Node3</title>
<g id="a_Node000003"><a xlink:href="../../d4/d01/application_8hpp.html" target="_top" xlink:title="Umbrella header for the application module.">
<polygon fill="white" stroke="#666666" points="438.27,-156.5 308.27,-156.5 308.27,-137.5 438.27,-137.5 438.27,-156.5"/>
<text text-anchor="middle" x="373.27" y="-144.5" font-family="Helvetica,sans-Serif" font-size="10.00">include/application.hpp</text>
</a>
</g>
</g>
<!-- Node2&#45;&gt;Node3 -->
<g id="edge2_Node000002_Node000003" class="edge">
<title>Node2&#45;&gt;Node3</title>
<g id="a_edge2_Node000002_Node000003"><a xlink:title=" ">
<path fill="none" stroke="#63b8ff" d="M1399.36,-203.32C1212.47,-193.25 633.67,-162.04 438.38,-151.51"/>
<polygon fill="#63b8ff" stroke="#63b8ff" points="1399.36,-206.83 1409.54,-203.87 1399.74,-199.84 1399.36,-206.83"/>
</a>
</g>
</g>
<!-- Node4 -->
<g id="Node000004" class="node">
<title>Node4</title>
<g id="a_Node000004"><a xlink:href="../../d8/d8c/toygine2_8hpp.html" target="_top" xlink:title="Main umbrella header for the engine.">
<polygon fill="white" stroke="#666666" points="1171.77,-19 1052.77,-19 1052.77,0 1171.77,0 1171.77,-19"/>
<text text-anchor="middle" x="1112.27" y="-7" font-family="Helvetica,sans-Serif" font-size="10.00">include/toygine2.hpp</text>
</a>
</g>
</g>
<!-- Node2&#45;&gt;Node4 -->
<g id="edge25_Node000002_Node000004" class="edge">
<title>Node2&#45;&gt;Node4</title>
<g id="a_edge25_Node000002_Node000004"><a xlink:title=" ">
<path fill="none" stroke="#63b8ff" d="M1399.22,-206.05C1258.1,-203.49 908.53,-187.82 849.27,-96 839.38,-80.69 837.5,-68.92 849.27,-55 874.78,-24.8 983.26,-15.09 1052.68,-11.97"/>
<polygon fill="#63b8ff" stroke="#63b8ff" points="1399.36,-209.55 1409.42,-206.22 1399.48,-202.56 1399.36,-209.55"/>
</a>
</g>
</g>
<!-- Node10 -->
<g id="Node000010" class="node">
<title>Node10</title>
<g id="a_Node000010"><a xlink:href="../../d1/d71/audio_8hpp.html" target="_top" xlink:title="Umbrella header for the audio module.">
<polygon fill="white" stroke="#666666" points="961.77,-85 858.77,-85 858.77,-66 961.77,-66 961.77,-85"/>
<text text-anchor="middle" x="910.27" y="-73" font-family="Helvetica,sans-Serif" font-size="10.00">include/audio.hpp</text>
</a>
</g>
</g>
<!-- Node2&#45;&gt;Node10 -->
<g id="edge9_Node000002_Node000010" class="edge">
<title>Node2&#45;&gt;Node10</title>
<g id="a_edge9_Node000002_Node000010"><a xlink:title=" ">
<path fill="none" stroke="#63b8ff" d="M1399.38,-206.91C1321.2,-205.87 1179.69,-198.45 1065.27,-162 1007.58,-143.62 946.89,-102.9 921.98,-85.1"/>
<polygon fill="#63b8ff" stroke="#63b8ff" points="1399.48,-210.41 1409.52,-207.01 1399.55,-203.41 1399.48,-210.41"/>
</a>
</g>
</g>
<!-- Node11 -->
<g id="Node000011" class="node">
<title>Node11</title>
<g id="a_Node000011"><a xlink:href="../../d8/d39/game_8hpp.html" target="_top" xlink:title="Umbrella header for the game module.">
<polygon fill="white" stroke="#666666" points="1084.27,-85 980.27,-85 980.27,-66 1084.27,-66 1084.27,-85"/>
<text text-anchor="middle" x="1032.27" y="-73" font-family="Helvetica,sans-Serif" font-size="10.00">include/game.hpp</text>
</a>
</g>
</g>
<!-- Node2&#45;&gt;Node11 -->
<g id="edge11_Node000002_Node000011" class="edge">
<title>Node2&#45;&gt;Node11</title>
<g id="a_edge11_Node000002_Node000011"><a xlink:title=" ">
<path fill="none" stroke="#63b8ff" d="M1399.6,-204.34C1312.26,-200.26 1152.98,-189.24 1103.27,-162 1069.93,-143.74 1045.86,-102.95 1036.53,-85.12"/>
<polygon fill="#63b8ff" stroke="#63b8ff" points="1399.48,-207.84 1409.63,-204.79 1399.8,-200.84 1399.48,-207.84"/>
</a>
</g>
</g>
<!-- Node12 -->
<g id="Node000012" class="node">
<title>Node12</title>
<g id="a_Node000012"><a xlink:href="../../d4/d78/math_8hpp.html" target="_top" xlink:title="Umbrella header for the math module.">
<polygon fill="white" stroke="#666666" points="1213.77,-156.5 1112.77,-156.5 1112.77,-137.5 1213.77,-137.5 1213.77,-156.5"/>
<text text-anchor="middle" x="1163.27" y="-144.5" font-family="Helvetica,sans-Serif" font-size="10.00">include/math.hpp</text>
</a>
</g>
</g>
<!-- Node2&#45;&gt;Node12 -->
<g id="edge13_Node000002_Node000012" class="edge">
<title>Node2&#45;&gt;Node12</title>
<g id="a_edge13_Node000002_Node000012"><a xlink:title=" ">
<path fill="none" stroke="#63b8ff" d="M1399.86,-196.15C1352.23,-187.53 1283.26,-174.67 1223.27,-162 1215.31,-160.32 1206.79,-158.4 1198.74,-156.54"/>
<polygon fill="#63b8ff" stroke="#63b8ff" points="1399.53,-199.64 1409.99,-197.97 1400.77,-192.75 1399.53,-199.64"/>
</a>
</g>
</g>
<!-- Node14 -->
<g id="Node000014" class="node">
<title>Node14</title>
<g id="a_Node000014"><a xlink:href="../../d6/d67/network_8hpp.html" target="_top" xlink:title="Umbrella header for the network module.">
<polygon fill="white" stroke="#666666" points="1348.27,-156.5 1232.27,-156.5 1232.27,-137.5 1348.27,-137.5 1348.27,-156.5"/>
<text text-anchor="middle" x="1290.27" y="-144.5" font-family="Helvetica,sans-Serif" font-size="10.00">include/network.hpp</text>
</a>
</g>
</g>
<!-- Node2&#45;&gt;Node14 -->
<g id="edge17_Node000002_Node000014" class="edge">
<title>Node2&#45;&gt;Node14</title>
<g id="a_edge17_Node000002_Node000014"><a xlink:title=" ">
<path fill="none" stroke="#63b8ff" d="M1424.3,-194.67C1391.8,-183.36 1343.6,-166.57 1314.72,-156.52"/>
<polygon fill="#63b8ff" stroke="#63b8ff" points="1423.24,-198.01 1433.84,-197.99 1425.54,-191.4 1423.24,-198.01"/>
</a>
</g>
</g>
<!-- Node16 -->
<g id="Node000016" class="node">
<title>Node16</title>
<g id="a_Node000016"><a xlink:href="../../de/dd6/ui_8hpp.html" target="_top" xlink:title="Umbrella header for platform UI types.">
<polygon fill="white" stroke="#666666" points="1606.27,-85 1476.27,-85 1476.27,-66 1606.27,-66 1606.27,-85"/>
<text text-anchor="middle" x="1541.27" y="-73" font-family="Helvetica,sans-Serif" font-size="10.00">include/platform/ui.hpp</text>
</a>
</g>
</g>
<!-- Node2&#45;&gt;Node16 -->
<g id="edge20_Node000002_Node000016" class="edge">
<title>Node2&#45;&gt;Node16</title>
<g id="a_edge20_Node000002_Node000016"><a xlink:title=" ">
<path fill="none" stroke="#63b8ff" d="M1428.91,-193.22C1416.46,-185.93 1403.23,-175.56 1396.27,-162 1390.18,-150.14 1388.71,-142.98 1396.27,-132 1409.1,-113.35 1467.53,-95.27 1506.19,-85.05"/>
<polygon fill="#63b8ff" stroke="#63b8ff" points="1427.28,-196.32 1437.75,-198 1430.61,-190.16 1427.28,-196.32"/>
</a>
</g>
</g>
<!-- Node17 -->
<g id="Node000017" class="node">
<title>Node17</title>
<g id="a_Node000017"><a xlink:href="../../d6/d4b/render_8hpp.html" target="_top" xlink:title="Umbrella header for the render module.">
<polygon fill="white" stroke="#666666" points="1511.77,-156.5 1404.77,-156.5 1404.77,-137.5 1511.77,-137.5 1511.77,-156.5"/>
<text text-anchor="middle" x="1458.27" y="-144.5" font-family="Helvetica,sans-Serif" font-size="10.00">include/render.hpp</text>
</a>
</g>
</g>
<!-- Node2&#45;&gt;Node17 -->
<g id="edge22_Node000002_Node000017" class="edge">
<title>Node2&#45;&gt;Node17</title>
<g id="a_edge22_Node000002_Node000017"><a xlink:title=" ">
<path fill="none" stroke="#63b8ff" d="M1458.27,-187.66C1458.27,-177.24 1458.27,-164.8 1458.27,-156.67"/>
<polygon fill="#63b8ff" stroke="#63b8ff" points="1454.77,-187.87 1458.27,-197.87 1461.77,-187.87 1454.77,-187.87"/>
</a>
</g>
</g>
<!-- Node19 -->
<g id="Node000019" class="node">
<title>Node19</title>
<g id="a_Node000019"><a xlink:href="../../da/de0/core_8cpp.html" target="_top" xlink:title="Implementation of toy::initialize() and toy::deInitialize() lifecycle functions.">
<polygon fill="white" stroke="#666666" points="1628.77,-156.5 1529.77,-156.5 1529.77,-137.5 1628.77,-137.5 1628.77,-156.5"/>
<text text-anchor="middle" x="1579.27" y="-144.5" font-family="Helvetica,sans-Serif" font-size="10.00">src/core/core.cpp</text>
</a>
</g>
</g>
<!-- Node2&#45;&gt;Node19 -->
<g id="edge26_Node000002_Node000019" class="edge">
<title>Node2&#45;&gt;Node19</title>
<g id="a_edge26_Node000002_Node000019"><a xlink:title=" ">
<path fill="none" stroke="#63b8ff" d="M1484.88,-193.63C1508.21,-182.35 1541.48,-166.27 1561.65,-156.52"/>
<polygon fill="#63b8ff" stroke="#63b8ff" points="1483.34,-190.49 1475.86,-197.99 1486.39,-196.79 1483.34,-190.49"/>
</a>
</g>
</g>
<!-- Node20 -->
<g id="Node000020" class="node">
<title>Node20</title>
<g id="a_Node000020"><a xlink:href="../../db/d2d/hashes_8cpp.html" target="_top" xlink:title="Table&#45;driven implementations of toy::crc8(), toy::crc16(), and toy::crc32().">
<polygon fill="white" stroke="#666666" points="1759.77,-156.5 1646.77,-156.5 1646.77,-137.5 1759.77,-137.5 1759.77,-156.5"/>
<text text-anchor="middle" x="1703.27" y="-144.5" font-family="Helvetica,sans-Serif" font-size="10.00">src/core/hashes.cpp</text>
</a>
</g>
</g>
<!-- Node2&#45;&gt;Node20 -->
<g id="edge27_Node000002_Node000020" class="edge">
<title>Node2&#45;&gt;Node20</title>
<g id="a_edge27_Node000002_Node000020"><a xlink:title=" ">
<path fill="none" stroke="#63b8ff" d="M1503.88,-195.61C1551.22,-184.3 1624.3,-166.85 1667.6,-156.52"/>
<polygon fill="#63b8ff" stroke="#63b8ff" points="1502.8,-192.27 1493.89,-197.99 1504.43,-199.08 1502.8,-192.27"/>
</a>
</g>
</g>
<!-- Node21 -->
<g id="Node000021" class="node">
<title>Node21</title>
<g id="a_Node000021"><a xlink:href="../../d2/d51/log__sink_8cpp.html" target="_top" xlink:title="Out&#45;of&#45;line definitions for toy::log::ISink.">
<polygon fill="white" stroke="#666666" points="1896.77,-156.5 1777.77,-156.5 1777.77,-137.5 1896.77,-137.5 1896.77,-156.5"/>
<text text-anchor="middle" x="1837.27" y="-144.5" font-family="Helvetica,sans-Serif" font-size="10.00">src/core/log_sink.cpp</text>
</a>
</g>
</g>
<!-- Node2&#45;&gt;Node21 -->
<g id="edge28_Node000002_Node000021" class="edge">
<title>Node2&#45;&gt;Node21</title>
<g id="a_edge28_Node000002_Node000021"><a xlink:title=" ">
<path fill="none" stroke="#63b8ff" d="M1516.98,-199.18C1579.63,-191.12 1681.72,-177.26 1769.27,-162 1778.53,-160.39 1788.46,-158.46 1797.79,-156.55"/>
<polygon fill="#63b8ff" stroke="#63b8ff" points="1516.37,-195.73 1506.89,-200.47 1517.26,-202.68 1516.37,-195.73"/>
</a>
</g>
</g>
<!-- Node22 -->
<g id="Node000022" class="node">
<title>Node22</title>
<g id="a_Node000022"><a xlink:href="../../de/d06/utils_8cpp.html" target="_top" xlink:title="Definitions for string, encoding, and number utilities declared in core/utils.hpp.">
<polygon fill="white" stroke="#666666" points="2013.77,-156.5 1914.77,-156.5 1914.77,-137.5 2013.77,-137.5 2013.77,-156.5"/>
<text text-anchor="middle" x="1964.27" y="-144.5" font-family="Helvetica,sans-Serif" font-size="10.00">src/core/utils.cpp</text>
</a>
</g>
</g>
<!-- Node2&#45;&gt;Node22 -->
<g id="edge29_Node000002_Node000022" class="edge">
<title>Node2&#45;&gt;Node22</title>
<g id="a_edge29_Node000002_Node000022"><a xlink:title=" ">
<path fill="none" stroke="#63b8ff" d="M1517.04,-203.25C1602.98,-197.92 1767.79,-185.47 1906.27,-162 1914.74,-160.56 1923.82,-158.59 1932.22,-156.57"/>
<polygon fill="#63b8ff" stroke="#63b8ff" points="1516.72,-199.77 1506.95,-203.87 1517.15,-206.75 1516.72,-199.77"/>
</a>
</g>
</g>
<!-- Node23 -->
<g id="Node000023" class="node">
<title>Node23</title>
<g id="a_Node000023"><a xlink:href="../../df/de5/assertion__linux_8cpp.html" target="_top" xlink:title="Linux implementation of the toy::assertion crash handler and stack trace capture.">
<polygon fill="white" stroke="#666666" points="2170.27,-162 2032.27,-162 2032.27,-132 2170.27,-132 2170.27,-162"/>
<text text-anchor="start" x="2040.27" y="-150" font-family="Helvetica,sans-Serif" font-size="10.00">src/platforms/linux</text>
<text text-anchor="middle" x="2101.27" y="-139" font-family="Helvetica,sans-Serif" font-size="10.00">/core/assertion_linux.cpp</text>
</a>
</g>
</g>
<!-- Node2&#45;&gt;Node23 -->
<g id="edge30_Node000002_Node000023" class="edge">
<title>Node2&#45;&gt;Node23</title>
<g id="a_edge30_Node000002_Node000023"><a xlink:title=" ">
<path fill="none" stroke="#63b8ff" d="M1516.98,-203.79C1619.87,-198.63 1839.29,-185.7 2023.27,-162 2026.13,-161.63 2029.05,-161.23 2032,-160.8"/>
<polygon fill="#63b8ff" stroke="#63b8ff" points="1516.62,-200.31 1506.8,-204.3 1516.96,-207.3 1516.62,-200.31"/>
</a>
</g>
</g>
<!-- Node24 -->
<g id="Node000024" class="node">
<title>Node24</title>
<g id="a_Node000024"><a xlink:href="../../d5/d5a/assertion__macos_8cpp.html" target="_top" xlink:title="macOS implementation of the toy::assertion crash handler and stack trace capture.">
<polygon fill="white" stroke="#666666" points="2334.27,-162 2188.27,-162 2188.27,-132 2334.27,-132 2334.27,-162"/>
<text text-anchor="start" x="2196.27" y="-150" font-family="Helvetica,sans-Serif" font-size="10.00">src/platforms/macos</text>
<text text-anchor="middle" x="2261.27" y="-139" font-family="Helvetica,sans-Serif" font-size="10.00">/core/assertion_macos.cpp</text>
</a>
</g>
</g>
<!-- Node2&#45;&gt;Node24 -->
<g id="edge31_Node000002_Node000024" class="edge">
<title>Node2&#45;&gt;Node24</title>
<g id="a_edge31_Node000002_Node000024"><a xlink:title=" ">
<path fill="none" stroke="#63b8ff" d="M1517.29,-205C1640.61,-201.41 1934.44,-190.37 2179.27,-162 2182.13,-161.67 2185.06,-161.3 2188,-160.91"/>
<polygon fill="#63b8ff" stroke="#63b8ff" points="1516.84,-201.52 1506.95,-205.3 1517.05,-208.51 1516.84,-201.52"/>
</a>
</g>
</g>
<!-- Node25 -->
<g id="Node000025" class="node">
<title>Node25</title>
<g id="a_Node000025"><a xlink:href="../../d7/d90/assertion__stub_8cpp.html" target="_top" xlink:title="Stub definitions for the assertion callback API declared in core/assertion.hpp.">
<polygon fill="white" stroke="#666666" points="2487.77,-162 2352.77,-162 2352.77,-132 2487.77,-132 2487.77,-162"/>
<text text-anchor="start" x="2360.77" y="-150" font-family="Helvetica,sans-Serif" font-size="10.00">src/platforms/stub</text>
<text text-anchor="middle" x="2420.27" y="-139" font-family="Helvetica,sans-Serif" font-size="10.00">/core/assertion_stub.cpp</text>
</a>
</g>
</g>
<!-- Node2&#45;&gt;Node25 -->
<g id="edge32_Node000002_Node000025" class="edge">
<title>Node2&#45;&gt;Node25</title>
<g id="a_edge32_Node000002_Node000025"><a xlink:title=" ">
<path fill="none" stroke="#63b8ff" d="M1517.14,-206.17C1659.51,-204.8 2033.53,-197.79 2343.27,-162 2346.37,-161.64 2349.54,-161.23 2352.73,-160.79"/>
<polygon fill="#63b8ff" stroke="#63b8ff" points="1516.86,-202.67 1506.89,-206.26 1516.93,-209.67 1516.86,-202.67"/>
</a>
</g>
</g>
<!-- Node3&#45;&gt;Node4 -->
<g id="edge3_Node000003_Node000004" class="edge">
<title>Node3&#45;&gt;Node4</title>
<g id="a_edge3_Node000003_Node000004"><a xlink:title=" ">
<path fill="none" stroke="#63b8ff" d="M297.82,-146.78C202.36,-145.97 45.92,-138.04 9.27,-96 -2.71,-82.27 -3.36,-68.14 9.27,-55 45.63,-17.14 827.87,-11.49 1052.47,-10.65"/>
<polygon fill="#63b8ff" stroke="#63b8ff" points="297.98,-150.28 308,-146.84 298.02,-143.28 297.98,-150.28"/>
</a>
</g>
</g>
<!-- Node5 -->
<g id="Node000005" class="node">
<title>Node5</title>
<g id="a_Node000005"><a xlink:href="../../db/db6/console__application_8cpp.html" target="_top" xlink:title="Implementations for toy::application::ConsoleApplication.">
<polygon fill="white" stroke="#666666" points="146.27,-90.5 18.27,-90.5 18.27,-60.5 146.27,-60.5 146.27,-90.5"/>
<text text-anchor="start" x="26.27" y="-78.5" font-family="Helvetica,sans-Serif" font-size="10.00">src/application/console</text>
<text text-anchor="middle" x="82.27" y="-67.5" font-family="Helvetica,sans-Serif" font-size="10.00">_application.cpp</text>
</a>
</g>
</g>
<!-- Node3&#45;&gt;Node5 -->
<g id="edge4_Node000003_Node000005" class="edge">
<title>Node3&#45;&gt;Node5</title>
<g id="a_edge4_Node000003_Node000005"><a xlink:title=" ">
<path fill="none" stroke="#63b8ff" d="M324.26,-135.28C280,-125.48 213.13,-110.36 155.27,-96 148.39,-94.29 141.17,-92.44 134.05,-90.58"/>
<polygon fill="#63b8ff" stroke="#63b8ff" points="323.66,-138.73 334.18,-137.48 325.17,-131.9 323.66,-138.73"/>
</a>
</g>
</g>
<!-- Node6 -->
<g id="Node000006" class="node">
<title>Node6</title>
<g id="a_Node000006"><a xlink:href="../../d0/dbb/core__application_8cpp.html" target="_top" xlink:title="Implementations for toy::application::CoreApplication.">
<polygon fill="white" stroke="#666666" points="276.27,-90.5 164.27,-90.5 164.27,-60.5 276.27,-60.5 276.27,-90.5"/>
<text text-anchor="start" x="172.27" y="-78.5" font-family="Helvetica,sans-Serif" font-size="10.00">src/application/core</text>
<text text-anchor="middle" x="220.27" y="-67.5" font-family="Helvetica,sans-Serif" font-size="10.00">_application.cpp</text>
</a>
</g>
</g>
<!-- Node3&#45;&gt;Node6 -->
<g id="edge5_Node000003_Node000006" class="edge">
<title>Node3&#45;&gt;Node6</title>
<g id="a_edge5_Node000003_Node000006"><a xlink:title=" ">
<path fill="none" stroke="#63b8ff" d="M345.34,-133.32C318.71,-121.22 278.67,-103.03 251.1,-90.51"/>
<polygon fill="#63b8ff" stroke="#63b8ff" points="343.95,-136.53 354.5,-137.48 346.85,-130.16 343.95,-136.53"/>
</a>
</g>
</g>
<!-- Node7 -->
<g id="Node000007" class="node">
<title>Node7</title>
<g id="a_Node000007"><a xlink:href="../../d0/d8a/core__application__linux_8cpp.html" target="_top" xlink:title="Linux implementations of toy::application::CoreApplication via POSIX APIs.">
<polygon fill="white" stroke="#666666" points="451.77,-96 294.77,-96 294.77,-55 451.77,-55 451.77,-96"/>
<text text-anchor="start" x="302.77" y="-84" font-family="Helvetica,sans-Serif" font-size="10.00">src/platforms/linux</text>
<text text-anchor="start" x="302.77" y="-73" font-family="Helvetica,sans-Serif" font-size="10.00">/application/core_application</text>
<text text-anchor="middle" x="373.27" y="-62" font-family="Helvetica,sans-Serif" font-size="10.00">_linux.cpp</text>
</a>
</g>
</g>
<!-- Node3&#45;&gt;Node7 -->
<g id="edge6_Node000003_Node000007" class="edge">
<title>Node3&#45;&gt;Node7</title>
<g id="a_edge6_Node000003_Node000007"><a xlink:title=" ">
<path fill="none" stroke="#63b8ff" d="M373.27,-127.38C373.27,-117.74 373.27,-105.96 373.27,-96.17"/>
<polygon fill="#63b8ff" stroke="#63b8ff" points="369.77,-127.48 373.27,-137.48 376.77,-127.48 369.77,-127.48"/>
</a>
</g>
</g>
<!-- Node8 -->
<g id="Node000008" class="node">
<title>Node8</title>
<g id="a_Node000008"><a xlink:href="../../d8/d89/core__application__macos_8cpp.html" target="_top" xlink:title="macOS implementations of toy::application::CoreApplication via POSIX APIs.">
<polygon fill="white" stroke="#666666" points="626.77,-96 469.77,-96 469.77,-55 626.77,-55 626.77,-96"/>
<text text-anchor="start" x="477.77" y="-84" font-family="Helvetica,sans-Serif" font-size="10.00">src/platforms/macos</text>
<text text-anchor="start" x="477.77" y="-73" font-family="Helvetica,sans-Serif" font-size="10.00">/application/core_application</text>
<text text-anchor="middle" x="548.27" y="-62" font-family="Helvetica,sans-Serif" font-size="10.00">_macos.cpp</text>
</a>
</g>
</g>
<!-- Node3&#45;&gt;Node8 -->
<g id="edge7_Node000003_Node000008" class="edge">
<title>Node3&#45;&gt;Node8</title>
<g id="a_edge7_Node000003_Node000008"><a xlink:title=" ">
<path fill="none" stroke="#63b8ff" d="M404.17,-133.73C430.44,-123.29 468.63,-108.13 499.1,-96.03"/>
<polygon fill="#63b8ff" stroke="#63b8ff" points="402.73,-130.53 394.72,-137.48 405.31,-137.04 402.73,-130.53"/>
</a>
</g>
</g>
<!-- Node9 -->
<g id="Node000009" class="node">
<title>Node9</title>
<g id="a_Node000009"><a xlink:href="../../db/da8/core__application__stub_8cpp.html" target="_top" xlink:title="Stub implementation of toy::application::CoreApplication::sleep() for platforms without OS sleep supp...">
<polygon fill="white" stroke="#666666" points="801.77,-96 644.77,-96 644.77,-55 801.77,-55 801.77,-96"/>
<text text-anchor="start" x="652.77" y="-84" font-family="Helvetica,sans-Serif" font-size="10.00">src/platforms/stub</text>
<text text-anchor="start" x="652.77" y="-73" font-family="Helvetica,sans-Serif" font-size="10.00">/application/core_application</text>
<text text-anchor="middle" x="723.27" y="-62" font-family="Helvetica,sans-Serif" font-size="10.00">_stub.cpp</text>
</a>
</g>
</g>
<!-- Node3&#45;&gt;Node9 -->
<g id="edge8_Node000003_Node000009" class="edge">
<title>Node3&#45;&gt;Node9</title>
<g id="a_edge8_Node000003_Node000009"><a xlink:title=" ">
<path fill="none" stroke="#63b8ff" d="M430.11,-135.65C483.25,-125.86 564.75,-110.54 635.27,-96 638.33,-95.37 641.45,-94.72 644.61,-94.05"/>
<polygon fill="#63b8ff" stroke="#63b8ff" points="429.4,-132.22 420.2,-137.47 430.67,-139.11 429.4,-132.22"/>
</a>
</g>
</g>
<!-- Node10&#45;&gt;Node4 -->
<g id="edge10_Node000010_Node000004" class="edge">
<title>Node10&#45;&gt;Node4</title>
<g id="a_edge10_Node000010_Node000004"><a xlink:title=" ">
<path fill="none" stroke="#63b8ff" d="M946.59,-62.86C954.71,-60.27 963.28,-57.54 971.27,-55 1010.9,-42.41 1056.83,-27.93 1085.22,-19"/>
<polygon fill="#63b8ff" stroke="#63b8ff" points="945.44,-59.56 936.98,-65.94 947.57,-66.22 945.44,-59.56"/>
</a>
</g>
</g>
<!-- Node11&#45;&gt;Node4 -->
<g id="edge12_Node000011_Node000004" class="edge">
<title>Node11&#45;&gt;Node4</title>
<g id="a_edge12_Node000011_Node000004"><a xlink:title=" ">
<path fill="none" stroke="#63b8ff" d="M1051.03,-59.49C1066.69,-46.96 1088.47,-29.54 1101.39,-19.2"/>
<polygon fill="#63b8ff" stroke="#63b8ff" points="1048.68,-56.89 1043.05,-65.87 1053.05,-62.35 1048.68,-56.89"/>
</a>
</g>
</g>
<!-- Node12&#45;&gt;Node4 -->
<g id="edge16_Node000012_Node000004" class="edge">
<title>Node12&#45;&gt;Node4</title>
<g id="a_edge16_Node000012_Node000004"><a xlink:title=" ">
<path fill="none" stroke="#63b8ff" d="M1150.27,-129.01C1143.71,-119.71 1136.13,-107.71 1131.27,-96 1120.12,-69.18 1115.03,-34.79 1113.16,-19.05"/>
<polygon fill="#63b8ff" stroke="#63b8ff" points="1147.62,-131.32 1156.35,-137.32 1153.26,-127.18 1147.62,-131.32"/>
</a>
</g>
</g>
<!-- Node13 -->
<g id="Node000013" class="node">
<title>Node13</title>
<g id="a_Node000013"><a xlink:href="../../db/dbb/geometry_8hpp.html" target="_top" xlink:title="Umbrella header for the geometry module.">
<polygon fill="white" stroke="#666666" points="1262.27,-85 1140.27,-85 1140.27,-66 1262.27,-66 1262.27,-85"/>
<text text-anchor="middle" x="1201.27" y="-73" font-family="Helvetica,sans-Serif" font-size="10.00">include/geometry.hpp</text>
</a>
</g>
</g>
<!-- Node12&#45;&gt;Node13 -->
<g id="edge14_Node000012_Node000013" class="edge">
<title>Node12&#45;&gt;Node13</title>
<g id="a_edge14_Node000012_Node000013"><a xlink:title=" ">
<path fill="none" stroke="#63b8ff" d="M1172.87,-128.43C1180.44,-114.58 1190.68,-95.86 1196.57,-85.09"/>
<polygon fill="#63b8ff" stroke="#63b8ff" points="1169.65,-127.02 1167.92,-137.48 1175.79,-130.38 1169.65,-127.02"/>
</a>
</g>
</g>
<!-- Node13&#45;&gt;Node4 -->
<g id="edge15_Node000013_Node000004" class="edge">
<title>Node13&#45;&gt;Node4</title>
<g id="a_edge15_Node000013_Node000004"><a xlink:title=" ">
<path fill="none" stroke="#63b8ff" d="M1180.87,-59.83C1163.41,-47.28 1138.87,-29.63 1124.36,-19.2"/>
<polygon fill="#63b8ff" stroke="#63b8ff" points="1179.1,-62.87 1189.26,-65.87 1183.19,-57.19 1179.1,-62.87"/>
</a>
</g>
</g>
<!-- Node14&#45;&gt;Node4 -->
<g id="edge18_Node000014_Node000004" class="edge">
<title>Node14&#45;&gt;Node4</title>
<g id="a_edge18_Node000014_Node000004"><a xlink:title=" ">
<path fill="none" stroke="#63b8ff" d="M1291.66,-127.22C1292.1,-106.81 1289.5,-74.5 1271.27,-55 1245.91,-27.89 1205.52,-16.82 1171.8,-12.5"/>
<polygon fill="#63b8ff" stroke="#63b8ff" points="1288.15,-127.27 1291.16,-137.43 1295.15,-127.61 1288.15,-127.27"/>
</a>
</g>
</g>
<!-- Node15 -->
<g id="Node000015" class="node">
<title>Node15</title>
<g id="a_Node000015"><a xlink:href="../../d3/d80/endpoint_8cpp.html" target="_top" xlink:title="Definitions for the toy::network::Endpoint destructor declared in network/endpoint....">
<polygon fill="white" stroke="#666666" points="1458.27,-85 1318.27,-85 1318.27,-66 1458.27,-66 1458.27,-85"/>
<text text-anchor="middle" x="1388.27" y="-73" font-family="Helvetica,sans-Serif" font-size="10.00">src/network/endpoint.cpp</text>
</a>
</g>
</g>
<!-- Node14&#45;&gt;Node15 -->
<g id="edge19_Node000014_Node000015" class="edge">
<title>Node14&#45;&gt;Node15</title>
<g id="a_edge19_Node000014_Node000015"><a xlink:title=" ">
<path fill="none" stroke="#63b8ff" d="M1310.61,-131.57C1330.4,-117.54 1359.79,-96.7 1376.15,-85.09"/>
<polygon fill="#63b8ff" stroke="#63b8ff" points="1308.41,-128.84 1302.28,-137.48 1312.46,-134.55 1308.41,-128.84"/>
</a>
</g>
</g>
<!-- Node16&#45;&gt;Node4 -->
<g id="edge21_Node000016_Node000004" class="edge">
<title>Node16&#45;&gt;Node4</title>
<g id="a_edge21_Node000016_Node000004"><a xlink:title=" ">
<path fill="none" stroke="#63b8ff" d="M1502.33,-63.2C1491.09,-60.22 1478.75,-57.22 1467.27,-55 1364.36,-35.08 1242.86,-22.09 1172,-15.54"/>
<polygon fill="#63b8ff" stroke="#63b8ff" points="1501.73,-66.67 1512.3,-65.91 1503.57,-59.91 1501.73,-66.67"/>
</a>
</g>
</g>
<!-- Node17&#45;&gt;Node4 -->
<g id="edge23_Node000017_Node000004" class="edge">
<title>Node17&#45;&gt;Node4</title>
<g id="a_edge23_Node000017_Node000004"><a xlink:title=" ">
<path fill="none" stroke="#63b8ff" d="M1502.04,-134.88C1546.05,-123.27 1608.35,-105.45 1615.27,-96 1626.02,-81.29 1627.57,-68.44 1615.27,-55 1585.85,-22.87 1298.93,-13.81 1172.07,-11.36"/>
<polygon fill="#63b8ff" stroke="#63b8ff" points="1500.92,-131.56 1492.13,-137.48 1502.69,-138.33 1500.92,-131.56"/>
</a>
</g>
</g>
<!-- Node18 -->
<g id="Node000018" class="node">
<title>Node18</title>
<g id="a_Node000018"><a xlink:href="../../db/d3d/pixel__format_8cpp.html" target="_top" xlink:title="Definitions for pixelFormatName() and pixelFormatFromName() declared in render/pixel_format....">
<polygon fill="white" stroke="#666666" points="1812.27,-85 1662.27,-85 1662.27,-66 1812.27,-66 1812.27,-85"/>
<text text-anchor="middle" x="1737.27" y="-73" font-family="Helvetica,sans-Serif" font-size="10.00">src/render/pixel_format.cpp</text>
</a>
</g>
</g>
<!-- Node17&#45;&gt;Node18 -->
<g id="edge24_Node000017_Node000018" class="edge">
<title>Node17&#45;&gt;Node18</title>
<g id="a_edge24_Node000017_Node000018"><a xlink:title=" ">
<path fill="none" stroke="#63b8ff" d="M1502.38,-135.01C1557.93,-121.17 1652.2,-97.69 1702.77,-85.09"/>
<polygon fill="#63b8ff" stroke="#63b8ff" points="1501.33,-131.66 1492.48,-137.48 1503.03,-138.46 1501.33,-131.66"/>
</a>
</g>
</g>
</g>
</svg>
