<?xml version="1.0" encoding="UTF-8" standalone="no"?>
<!DOCTYPE svg PUBLIC "-//W3C//DTD SVG 1.1//EN"
 "http://www.w3.org/Graphics/SVG/1.1/DTD/svg11.dtd">
<!-- Generated by graphviz version 2.43.0 (0)
 -->
<!-- Title: include/core/format_context.inl Pages: 1 -->
<svg width="2170pt" height="291pt"
 viewBox="0.00 0.00 2170.25 291.00" xmlns="http://www.w3.org/2000/svg" xmlns:xlink="http://www.w3.org/1999/xlink">
<g id="page0,1_graph0" class="graph" transform="scale(1 1) rotate(0) translate(4 287)">
<title>include/core/format_context.inl</title>
<!-- Node1 -->
<g id="Node000001" class="node">
<title>Node1</title>
<g id="a_Node000001"><a xlink:title="Inline implementations for toy::FormatContext.">
<polygon fill="#999999" stroke="#666666" points="1303.75,-283 1191.75,-283 1191.75,-253 1303.75,-253 1303.75,-283"/>
<text text-anchor="start" x="1199.75" y="-271" font-family="Helvetica,sans-Serif" font-size="10.00">include/core/format</text>
<text text-anchor="middle" x="1247.75" y="-260" font-family="Helvetica,sans-Serif" font-size="10.00">_context.inl</text>
</a>
</g>
</g>
<!-- Node2 -->
<g id="Node000002" class="node">
<title>Node2</title>
<g id="a_Node000002"><a xlink:href="../../da/d47/core_8hpp.html" target="_top" xlink:title="Umbrella header for the engine core module.">
<polygon fill="white" stroke="#666666" points="1296.25,-217 1199.25,-217 1199.25,-198 1296.25,-198 1296.25,-217"/>
<text text-anchor="middle" x="1247.75" y="-205" font-family="Helvetica,sans-Serif" font-size="10.00">include/core.hpp</text>
</a>
</g>
</g>
<!-- Node1&#45;&gt;Node2 -->
<g id="edge1_Node000001_Node000002" class="edge">
<title>Node1&#45;&gt;Node2</title>
<g id="a_edge1_Node000001_Node000002"><a xlink:title=" ">
<path fill="none" stroke="#63b8ff" d="M1247.75,-242.75C1247.75,-233.72 1247.75,-224.03 1247.75,-217.27"/>
<polygon fill="#63b8ff" stroke="#63b8ff" points="1244.25,-242.84 1247.75,-252.84 1251.25,-242.84 1244.25,-242.84"/>
</a>
</g>
</g>
<!-- Node3 -->
<g id="Node000003" class="node">
<title>Node3</title>
<g id="a_Node000003"><a xlink:href="../../d4/d01/application_8hpp.html" target="_top" xlink:title="Umbrella header for the application module.">
<polygon fill="white" stroke="#666666" points="367.75,-156.5 237.75,-156.5 237.75,-137.5 367.75,-137.5 367.75,-156.5"/>
<text text-anchor="middle" x="302.75" y="-144.5" font-family="Helvetica,sans-Serif" font-size="10.00">include/application.hpp</text>
</a>
</g>
</g>
<!-- Node2&#45;&gt;Node3 -->
<g id="edge2_Node000002_Node000003" class="edge">
<title>Node2&#45;&gt;Node3</title>
<g id="a_edge2_Node000002_Node000003"><a xlink:title=" ">
<path fill="none" stroke="#63b8ff" d="M1188.83,-202.85C1021.26,-192.48 542.91,-162.87 367.91,-152.03"/>
<polygon fill="#63b8ff" stroke="#63b8ff" points="1188.74,-206.35 1198.94,-203.48 1189.17,-199.37 1188.74,-206.35"/>
</a>
</g>
</g>
<!-- Node4 -->
<g id="Node000004" class="node">
<title>Node4</title>
<g id="a_Node000004"><a xlink:href="../../d8/d8c/toygine2_8hpp.html" target="_top" xlink:title="Main umbrella header for the engine.">
<polygon fill="white" stroke="#666666" points="1002.25,-19 883.25,-19 883.25,0 1002.25,0 1002.25,-19"/>
<text text-anchor="middle" x="942.75" y="-7" font-family="Helvetica,sans-Serif" font-size="10.00">include/toygine2.hpp</text>
</a>
</g>
</g>
<!-- Node2&#45;&gt;Node4 -->
<g id="edge24_Node000002_Node000004" class="edge">
<title>Node2&#45;&gt;Node4</title>
<g id="a_edge24_Node000002_Node000004"><a xlink:title=" ">
<path fill="none" stroke="#63b8ff" d="M1188.95,-205.17C1055.02,-200.67 734.64,-181.04 679.75,-96 669.87,-80.69 667.99,-68.92 679.75,-55 705.27,-24.8 813.75,-15.09 883.17,-11.97"/>
<polygon fill="#63b8ff" stroke="#63b8ff" points="1188.92,-208.67 1199.03,-205.49 1189.15,-201.68 1188.92,-208.67"/>
</a>
</g>
</g>
<!-- Node9 -->
<g id="Node000009" class="node">
<title>Node9</title>
<g id="a_Node000009"><a xlink:href="../../d1/d71/audio_8hpp.html" target="_top" xlink:title="Umbrella header for the audio module.">
<polygon fill="white" stroke="#666666" points="792.25,-85 689.25,-85 689.25,-66 792.25,-66 792.25,-85"/>
<text text-anchor="middle" x="740.75" y="-73" font-family="Helvetica,sans-Serif" font-size="10.00">include/audio.hpp</text>
</a>
</g>
</g>
<!-- Node2&#45;&gt;Node9 -->
<g id="edge8_Node000002_Node000009" class="edge">
<title>Node2&#45;&gt;Node9</title>
<g id="a_edge8_Node000002_Node000009"><a xlink:title=" ">
<path fill="none" stroke="#63b8ff" d="M1189.15,-205.79C1118.07,-203.43 995.4,-194.46 895.75,-162 838.19,-143.25 777.43,-102.73 752.49,-85.04"/>
<polygon fill="#63b8ff" stroke="#63b8ff" points="1189.15,-209.3 1199.25,-206.1 1189.36,-202.3 1189.15,-209.3"/>
</a>
</g>
</g>
<!-- Node10 -->
<g id="Node000010" class="node">
<title>Node10</title>
<g id="a_Node000010"><a xlink:href="../../d8/d39/game_8hpp.html" target="_top" xlink:title="Umbrella header for the game module.">
<polygon fill="white" stroke="#666666" points="914.75,-85 810.75,-85 810.75,-66 914.75,-66 914.75,-85"/>
<text text-anchor="middle" x="862.75" y="-73" font-family="Helvetica,sans-Serif" font-size="10.00">include/game.hpp</text>
</a>
</g>
</g>
<!-- Node2&#45;&gt;Node10 -->
<g id="edge10_Node000002_Node000010" class="edge">
<title>Node2&#45;&gt;Node10</title>
<g id="a_edge10_Node000002_Node000010"><a xlink:title=" ">
<path fill="none" stroke="#63b8ff" d="M1188.72,-203.19C1110.19,-197.94 976.31,-185.76 933.75,-162 900.57,-143.47 876.41,-102.83 867.04,-85.08"/>
<polygon fill="#63b8ff" stroke="#63b8ff" points="1188.75,-206.7 1198.95,-203.86 1189.2,-199.72 1188.75,-206.7"/>
</a>
</g>
</g>
<!-- Node11 -->
<g id="Node000011" class="node">
<title>Node11</title>
<g id="a_Node000011"><a xlink:href="../../d4/d78/math_8hpp.html" target="_top" xlink:title="Umbrella header for the math module.">
<polygon fill="white" stroke="#666666" points="1044.25,-156.5 943.25,-156.5 943.25,-137.5 1044.25,-137.5 1044.25,-156.5"/>
<text text-anchor="middle" x="993.75" y="-144.5" font-family="Helvetica,sans-Serif" font-size="10.00">include/math.hpp</text>
</a>
</g>
</g>
<!-- Node2&#45;&gt;Node11 -->
<g id="edge12_Node000002_Node000011" class="edge">
<title>Node2&#45;&gt;Node11</title>
<g id="a_edge12_Node000002_Node000011"><a xlink:title=" ">
<path fill="none" stroke="#63b8ff" d="M1200.36,-195.68C1161.07,-186.7 1103.77,-173.57 1053.75,-162 1046.15,-160.24 1038,-158.35 1030.24,-156.54"/>
<polygon fill="#63b8ff" stroke="#63b8ff" points="1199.66,-199.11 1210.19,-197.93 1201.22,-192.29 1199.66,-199.11"/>
</a>
</g>
</g>
<!-- Node13 -->
<g id="Node000013" class="node">
<title>Node13</title>
<g id="a_Node000013"><a xlink:href="../../d6/d67/network_8hpp.html" target="_top" xlink:title="Umbrella header for the network module.">
<polygon fill="white" stroke="#666666" points="1178.75,-156.5 1062.75,-156.5 1062.75,-137.5 1178.75,-137.5 1178.75,-156.5"/>
<text text-anchor="middle" x="1120.75" y="-144.5" font-family="Helvetica,sans-Serif" font-size="10.00">include/network.hpp</text>
</a>
</g>
</g>
<!-- Node2&#45;&gt;Node13 -->
<g id="edge16_Node000002_Node000013" class="edge">
<title>Node2&#45;&gt;Node13</title>
<g id="a_edge16_Node000002_Node000013"><a xlink:title=" ">
<path fill="none" stroke="#63b8ff" d="M1220.15,-193.78C1195.64,-182.49 1160.51,-166.31 1139.24,-156.52"/>
<polygon fill="#63b8ff" stroke="#63b8ff" points="1218.74,-196.99 1229.29,-197.99 1221.67,-190.63 1218.74,-196.99"/>
</a>
</g>
</g>
<!-- Node15 -->
<g id="Node000015" class="node">
<title>Node15</title>
<g id="a_Node000015"><a xlink:href="../../de/dd6/ui_8hpp.html" target="_top" xlink:title="Umbrella header for platform UI types.">
<polygon fill="white" stroke="#666666" points="1436.75,-85 1306.75,-85 1306.75,-66 1436.75,-66 1436.75,-85"/>
<text text-anchor="middle" x="1371.75" y="-73" font-family="Helvetica,sans-Serif" font-size="10.00">include/platform/ui.hpp</text>
</a>
</g>
</g>
<!-- Node2&#45;&gt;Node15 -->
<g id="edge19_Node000002_Node000015" class="edge">
<title>Node2&#45;&gt;Node15</title>
<g id="a_edge19_Node000002_Node000015"><a xlink:title=" ">
<path fill="none" stroke="#63b8ff" d="M1235.43,-189.54C1225.42,-173.51 1214.78,-149.4 1226.75,-132 1239.59,-113.35 1298.02,-95.27 1336.68,-85.05"/>
<polygon fill="#63b8ff" stroke="#63b8ff" points="1232.58,-191.58 1241.07,-197.93 1238.39,-187.68 1232.58,-191.58"/>
</a>
</g>
</g>
<!-- Node16 -->
<g id="Node000016" class="node">
<title>Node16</title>
<g id="a_Node000016"><a xlink:href="../../d6/d4b/render_8hpp.html" target="_top" xlink:title="Umbrella header for the render module.">
<polygon fill="white" stroke="#666666" points="1342.25,-156.5 1235.25,-156.5 1235.25,-137.5 1342.25,-137.5 1342.25,-156.5"/>
<text text-anchor="middle" x="1288.75" y="-144.5" font-family="Helvetica,sans-Serif" font-size="10.00">include/render.hpp</text>
</a>
</g>
</g>
<!-- Node2&#45;&gt;Node16 -->
<g id="edge21_Node000002_Node000016" class="edge">
<title>Node2&#45;&gt;Node16</title>
<g id="a_edge21_Node000002_Node000016"><a xlink:title=" ">
<path fill="none" stroke="#63b8ff" d="M1259.58,-189.63C1267.13,-178.85 1276.61,-165.32 1282.68,-156.67"/>
<polygon fill="#63b8ff" stroke="#63b8ff" points="1256.68,-187.67 1253.8,-197.87 1262.41,-191.69 1256.68,-187.67"/>
</a>
</g>
</g>
<!-- Node18 -->
<g id="Node000018" class="node">
<title>Node18</title>
<g id="a_Node000018"><a xlink:href="../../da/de0/core_8cpp.html" target="_top" xlink:title="Implementation of toy::initialize() and toy::deInitialize() lifecycle functions.">
<polygon fill="white" stroke="#666666" points="1459.25,-156.5 1360.25,-156.5 1360.25,-137.5 1459.25,-137.5 1459.25,-156.5"/>
<text text-anchor="middle" x="1409.75" y="-144.5" font-family="Helvetica,sans-Serif" font-size="10.00">src/core/core.cpp</text>
</a>
</g>
</g>
<!-- Node2&#45;&gt;Node18 -->
<g id="edge25_Node000002_Node000018" class="edge">
<title>Node2&#45;&gt;Node18</title>
<g id="a_edge25_Node000002_Node000018"><a xlink:title=" ">
<path fill="none" stroke="#63b8ff" d="M1280.92,-194.52C1312.24,-183.21 1358.44,-166.53 1386.17,-156.52"/>
<polygon fill="#63b8ff" stroke="#63b8ff" points="1279.53,-191.31 1271.31,-197.99 1281.9,-197.89 1279.53,-191.31"/>
</a>
</g>
</g>
<!-- Node19 -->
<g id="Node000019" class="node">
<title>Node19</title>
<g id="a_Node000019"><a xlink:href="../../db/d2d/hashes_8cpp.html" target="_top" xlink:title="Table&#45;driven implementations of toy::crc8(), toy::crc16(), and toy::crc32().">
<polygon fill="white" stroke="#666666" points="1590.25,-156.5 1477.25,-156.5 1477.25,-137.5 1590.25,-137.5 1590.25,-156.5"/>
<text text-anchor="middle" x="1533.75" y="-144.5" font-family="Helvetica,sans-Serif" font-size="10.00">src/core/hashes.cpp</text>
</a>
</g>
</g>
<!-- Node2&#45;&gt;Node19 -->
<g id="edge26_Node000002_Node000019" class="edge">
<title>Node2&#45;&gt;Node19</title>
<g id="a_edge26_Node000002_Node000019"><a xlink:title=" ">
<path fill="none" stroke="#63b8ff" d="M1301.06,-195.98C1345.84,-187.08 1411.52,-173.92 1468.75,-162 1477.12,-160.26 1486.08,-158.35 1494.59,-156.52"/>
<polygon fill="#63b8ff" stroke="#63b8ff" points="1300.11,-192.6 1290.98,-197.97 1301.47,-199.46 1300.11,-192.6"/>
</a>
</g>
</g>
<!-- Node20 -->
<g id="Node000020" class="node">
<title>Node20</title>
<g id="a_Node000020"><a xlink:href="../../d2/d51/log__sink_8cpp.html" target="_top" xlink:title="Out&#45;of&#45;line definitions for toy::log::ISink.">
<polygon fill="white" stroke="#666666" points="1727.25,-156.5 1608.25,-156.5 1608.25,-137.5 1727.25,-137.5 1727.25,-156.5"/>
<text text-anchor="middle" x="1667.75" y="-144.5" font-family="Helvetica,sans-Serif" font-size="10.00">src/core/log_sink.cpp</text>
</a>
</g>
</g>
<!-- Node2&#45;&gt;Node20 -->
<g id="edge27_Node000002_Node000020" class="edge">
<title>Node2&#45;&gt;Node20</title>
<g id="a_edge27_Node000002_Node000020"><a xlink:title=" ">
<path fill="none" stroke="#63b8ff" d="M1306.28,-200.5C1376.29,-193 1496.95,-179.06 1599.75,-162 1609.27,-160.42 1619.47,-158.46 1629.01,-156.52"/>
<polygon fill="#63b8ff" stroke="#63b8ff" points="1305.9,-197.02 1296.32,-201.56 1306.64,-203.98 1305.9,-197.02"/>
</a>
</g>
</g>
<!-- Node21 -->
<g id="Node000021" class="node">
<title>Node21</title>
<g id="a_Node000021"><a xlink:href="../../de/d06/utils_8cpp.html" target="_top" xlink:title="Definitions for string, encoding, and number utilities declared in core/utils.hpp.">
<polygon fill="white" stroke="#666666" points="1844.25,-156.5 1745.25,-156.5 1745.25,-137.5 1844.25,-137.5 1844.25,-156.5"/>
<text text-anchor="middle" x="1794.75" y="-144.5" font-family="Helvetica,sans-Serif" font-size="10.00">src/core/utils.cpp</text>
</a>
</g>
</g>
<!-- Node2&#45;&gt;Node21 -->
<g id="edge28_Node000002_Node000021" class="edge">
<title>Node2&#45;&gt;Node21</title>
<g id="a_edge28_Node000002_Node000021"><a xlink:title=" ">
<path fill="none" stroke="#63b8ff" d="M1306.53,-203.93C1398.71,-199.27 1582.68,-187.47 1736.75,-162 1745.34,-160.58 1754.53,-158.59 1763.02,-156.55"/>
<polygon fill="#63b8ff" stroke="#63b8ff" points="1306.1,-200.45 1296.29,-204.44 1306.45,-207.44 1306.1,-200.45"/>
</a>
</g>
</g>
<!-- Node22 -->
<g id="Node000022" class="node">
<title>Node22</title>
<g id="a_Node000022"><a xlink:href="../../d5/d5a/assertion__macos_8cpp.html" target="_top" xlink:title="macOS implementation of the toy::assertion crash handler and stack trace capture.">
<polygon fill="white" stroke="#666666" points="2008.75,-162 1862.75,-162 1862.75,-132 2008.75,-132 2008.75,-162"/>
<text text-anchor="start" x="1870.75" y="-150" font-family="Helvetica,sans-Serif" font-size="10.00">src/platforms/macos</text>
<text text-anchor="middle" x="1935.75" y="-139" font-family="Helvetica,sans-Serif" font-size="10.00">/core/assertion_macos.cpp</text>
</a>
</g>
</g>
<!-- Node2&#45;&gt;Node22 -->
<g id="edge29_Node000002_Node000022" class="edge">
<title>Node2&#45;&gt;Node22</title>
<g id="a_edge29_Node000002_Node000022"><a xlink:title=" ">
<path fill="none" stroke="#63b8ff" d="M1306.7,-204.05C1415.24,-199.12 1653.91,-186.34 1853.75,-162 1856.62,-161.65 1859.54,-161.27 1862.49,-160.87"/>
<polygon fill="#63b8ff" stroke="#63b8ff" points="1306.44,-200.56 1296.61,-204.5 1306.76,-207.55 1306.44,-200.56"/>
</a>
</g>
</g>
<!-- Node23 -->
<g id="Node000023" class="node">
<title>Node23</title>
<g id="a_Node000023"><a xlink:href="../../d7/d90/assertion__stub_8cpp.html" target="_top" xlink:title="Stub definitions for the assertion callback API declared in core/assertion.hpp.">
<polygon fill="white" stroke="#666666" points="2162.25,-162 2027.25,-162 2027.25,-132 2162.25,-132 2162.25,-162"/>
<text text-anchor="start" x="2035.25" y="-150" font-family="Helvetica,sans-Serif" font-size="10.00">src/platforms/stub</text>
<text text-anchor="middle" x="2094.75" y="-139" font-family="Helvetica,sans-Serif" font-size="10.00">/core/assertion_stub.cpp</text>
</a>
</g>
</g>
<!-- Node2&#45;&gt;Node23 -->
<g id="edge30_Node000002_Node000023" class="edge">
<title>Node2&#45;&gt;Node23</title>
<g id="a_edge30_Node000002_Node000023"><a xlink:title=" ">
<path fill="none" stroke="#63b8ff" d="M1306.66,-205.55C1435.86,-202.92 1753.67,-193.52 2017.75,-162 2020.86,-161.63 2024.02,-161.21 2027.22,-160.76"/>
<polygon fill="#63b8ff" stroke="#63b8ff" points="1306.51,-202.05 1296.58,-205.74 1306.65,-209.05 1306.51,-202.05"/>
</a>
</g>
</g>
<!-- Node3&#45;&gt;Node4 -->
<g id="edge3_Node000003_Node000004" class="edge">
<title>Node3&#45;&gt;Node4</title>
<g id="a_edge3_Node000003_Node000004"><a xlink:title=" ">
<path fill="none" stroke="#63b8ff" d="M227.34,-144.88C121.57,-140.86 -50.96,-123.94 14.75,-55 44.75,-23.53 682.58,-13.5 883.02,-11.12"/>
<polygon fill="#63b8ff" stroke="#63b8ff" points="227.24,-148.38 237.36,-145.23 227.49,-141.38 227.24,-148.38"/>
</a>
</g>
</g>
<!-- Node5 -->
<g id="Node000005" class="node">
<title>Node5</title>
<g id="a_Node000005"><a xlink:href="../../db/db6/console__application_8cpp.html" target="_top" xlink:title="Implementations for toy::application::ConsoleApplication.">
<polygon fill="white" stroke="#666666" points="151.75,-90.5 23.75,-90.5 23.75,-60.5 151.75,-60.5 151.75,-90.5"/>
<text text-anchor="start" x="31.75" y="-78.5" font-family="Helvetica,sans-Serif" font-size="10.00">src/application/console</text>
<text text-anchor="middle" x="87.75" y="-67.5" font-family="Helvetica,sans-Serif" font-size="10.00">_application.cpp</text>
</a>
</g>
</g>
<!-- Node3&#45;&gt;Node5 -->
<g id="edge4_Node000003_Node000005" class="edge">
<title>Node3&#45;&gt;Node5</title>
<g id="a_edge4_Node000003_Node000005"><a xlink:title=" ">
<path fill="none" stroke="#63b8ff" d="M266.44,-134.26C229.06,-122.18 170.84,-103.36 131.08,-90.51"/>
<polygon fill="#63b8ff" stroke="#63b8ff" points="265.8,-137.73 276.39,-137.48 267.95,-131.07 265.8,-137.73"/>
</a>
</g>
</g>
<!-- Node6 -->
<g id="Node000006" class="node">
<title>Node6</title>
<g id="a_Node000006"><a xlink:href="../../d0/dbb/core__application_8cpp.html" target="_top" xlink:title="Implementations for toy::application::CoreApplication.">
<polygon fill="white" stroke="#666666" points="281.75,-90.5 169.75,-90.5 169.75,-60.5 281.75,-60.5 281.75,-90.5"/>
<text text-anchor="start" x="177.75" y="-78.5" font-family="Helvetica,sans-Serif" font-size="10.00">src/application/core</text>
<text text-anchor="middle" x="225.75" y="-67.5" font-family="Helvetica,sans-Serif" font-size="10.00">_application.cpp</text>
</a>
</g>
</g>
<!-- Node3&#45;&gt;Node6 -->
<g id="edge5_Node000003_Node000006" class="edge">
<title>Node3&#45;&gt;Node6</title>
<g id="a_edge5_Node000003_Node000006"><a xlink:title=" ">
<path fill="none" stroke="#63b8ff" d="M285.81,-130.71C272.57,-118.76 254.32,-102.28 241.42,-90.64"/>
<polygon fill="#63b8ff" stroke="#63b8ff" points="283.54,-133.38 293.31,-137.48 288.23,-128.18 283.54,-133.38"/>
</a>
</g>
</g>
<!-- Node7 -->
<g id="Node000007" class="node">
<title>Node7</title>
<g id="a_Node000007"><a xlink:href="../../d8/d89/core__application__macos_8cpp.html" target="_top" xlink:title="macOS implementations of toy::application::CoreApplication via POSIX APIs.">
<polygon fill="white" stroke="#666666" points="457.25,-96 300.25,-96 300.25,-55 457.25,-55 457.25,-96"/>
<text text-anchor="start" x="308.25" y="-84" font-family="Helvetica,sans-Serif" font-size="10.00">src/platforms/macos</text>
<text text-anchor="start" x="308.25" y="-73" font-family="Helvetica,sans-Serif" font-size="10.00">/application/core_application</text>
<text text-anchor="middle" x="378.75" y="-62" font-family="Helvetica,sans-Serif" font-size="10.00">_macos.cpp</text>
</a>
</g>
</g>
<!-- Node3&#45;&gt;Node7 -->
<g id="edge6_Node000003_Node000007" class="edge">
<title>Node3&#45;&gt;Node7</title>
<g id="a_edge6_Node000003_Node000007"><a xlink:title=" ">
<path fill="none" stroke="#63b8ff" d="M319.76,-130.45C330.83,-120.32 345.37,-107.03 357.24,-96.17"/>
<polygon fill="#63b8ff" stroke="#63b8ff" points="317.09,-128.15 312.07,-137.48 321.81,-133.31 317.09,-128.15"/>
</a>
</g>
</g>
<!-- Node8 -->
<g id="Node000008" class="node">
<title>Node8</title>
<g id="a_Node000008"><a xlink:href="../../db/da8/core__application__stub_8cpp.html" target="_top" xlink:title="Stub implementation of toy::application::CoreApplication::sleep() for platforms without OS sleep supp...">
<polygon fill="white" stroke="#666666" points="632.25,-96 475.25,-96 475.25,-55 632.25,-55 632.25,-96"/>
<text text-anchor="start" x="483.25" y="-84" font-family="Helvetica,sans-Serif" font-size="10.00">src/platforms/stub</text>
<text text-anchor="start" x="483.25" y="-73" font-family="Helvetica,sans-Serif" font-size="10.00">/application/core_application</text>
<text text-anchor="middle" x="553.75" y="-62" font-family="Helvetica,sans-Serif" font-size="10.00">_stub.cpp</text>
</a>
</g>
</g>
<!-- Node3&#45;&gt;Node8 -->
<g id="edge7_Node000003_Node000008" class="edge">
<title>Node3&#45;&gt;Node8</title>
<g id="a_edge7_Node000003_Node000008"><a xlink:title=" ">
<path fill="none" stroke="#63b8ff" d="M343.64,-134.68C381.37,-124.23 438.19,-108.5 483.23,-96.03"/>
<polygon fill="#63b8ff" stroke="#63b8ff" points="342.24,-131.44 333.53,-137.48 344.1,-138.18 342.24,-131.44"/>
</a>
</g>
</g>
<!-- Node9&#45;&gt;Node4 -->
<g id="edge9_Node000009_Node000004" class="edge">
<title>Node9&#45;&gt;Node4</title>
<g id="a_edge9_Node000009_Node000004"><a xlink:title=" ">
<path fill="none" stroke="#63b8ff" d="M777.08,-62.86C785.2,-60.27 793.77,-57.54 801.75,-55 841.39,-42.41 887.32,-27.93 915.71,-19"/>
<polygon fill="#63b8ff" stroke="#63b8ff" points="775.93,-59.56 767.47,-65.94 778.06,-66.22 775.93,-59.56"/>
</a>
</g>
</g>
<!-- Node10&#45;&gt;Node4 -->
<g id="edge11_Node000010_Node000004" class="edge">
<title>Node10&#45;&gt;Node4</title>
<g id="a_edge11_Node000010_Node000004"><a xlink:title=" ">
<path fill="none" stroke="#63b8ff" d="M881.52,-59.49C897.18,-46.96 918.96,-29.54 931.88,-19.2"/>
<polygon fill="#63b8ff" stroke="#63b8ff" points="879.17,-56.89 873.54,-65.87 883.54,-62.35 879.17,-56.89"/>
</a>
</g>
</g>
<!-- Node11&#45;&gt;Node4 -->
<g id="edge15_Node000011_Node000004" class="edge">
<title>Node11&#45;&gt;Node4</title>
<g id="a_edge15_Node000011_Node000004"><a xlink:title=" ">
<path fill="none" stroke="#63b8ff" d="M980.76,-129.01C974.2,-119.71 966.62,-107.71 961.75,-96 950.61,-69.18 945.52,-34.79 943.65,-19.05"/>
<polygon fill="#63b8ff" stroke="#63b8ff" points="978.11,-131.32 986.84,-137.32 983.75,-127.18 978.11,-131.32"/>
</a>
</g>
</g>
<!-- Node12 -->
<g id="Node000012" class="node">
<title>Node12</title>
<g id="a_Node000012"><a xlink:href="../../db/dbb/geometry_8hpp.html" target="_top" xlink:title="Umbrella header for the geometry module.">
<polygon fill="white" stroke="#666666" points="1092.75,-85 970.75,-85 970.75,-66 1092.75,-66 1092.75,-85"/>
<text text-anchor="middle" x="1031.75" y="-73" font-family="Helvetica,sans-Serif" font-size="10.00">include/geometry.hpp</text>
</a>
</g>
</g>
<!-- Node11&#45;&gt;Node12 -->
<g id="edge13_Node000011_Node000012" class="edge">
<title>Node11&#45;&gt;Node12</title>
<g id="a_edge13_Node000011_Node000012"><a xlink:title=" ">
<path fill="none" stroke="#63b8ff" d="M1003.36,-128.43C1010.93,-114.58 1021.17,-95.86 1027.06,-85.09"/>
<polygon fill="#63b8ff" stroke="#63b8ff" points="1000.14,-127.02 998.41,-137.48 1006.28,-130.38 1000.14,-127.02"/>
</a>
</g>
</g>
<!-- Node12&#45;&gt;Node4 -->
<g id="edge14_Node000012_Node000004" class="edge">
<title>Node12&#45;&gt;Node4</title>
<g id="a_edge14_Node000012_Node000004"><a xlink:title=" ">
<path fill="none" stroke="#63b8ff" d="M1011.36,-59.83C993.9,-47.28 969.36,-29.63 954.85,-19.2"/>
<polygon fill="#63b8ff" stroke="#63b8ff" points="1009.59,-62.87 1019.75,-65.87 1013.68,-57.19 1009.59,-62.87"/>
</a>
</g>
</g>
<!-- Node13&#45;&gt;Node4 -->
<g id="edge17_Node000013_Node000004" class="edge">
<title>Node13&#45;&gt;Node4</title>
<g id="a_edge17_Node000013_Node000004"><a xlink:title=" ">
<path fill="none" stroke="#63b8ff" d="M1122.15,-127.22C1122.59,-106.81 1119.99,-74.5 1101.75,-55 1076.4,-27.89 1036.01,-16.82 1002.28,-12.5"/>
<polygon fill="#63b8ff" stroke="#63b8ff" points="1118.64,-127.27 1121.65,-137.43 1125.63,-127.61 1118.64,-127.27"/>
</a>
</g>
</g>
<!-- Node14 -->
<g id="Node000014" class="node">
<title>Node14</title>
<g id="a_Node000014"><a xlink:href="../../d3/d80/endpoint_8cpp.html" target="_top" xlink:title="Definitions for the toy::network::Endpoint destructor declared in network/endpoint....">
<polygon fill="white" stroke="#666666" points="1288.75,-85 1148.75,-85 1148.75,-66 1288.75,-66 1288.75,-85"/>
<text text-anchor="middle" x="1218.75" y="-73" font-family="Helvetica,sans-Serif" font-size="10.00">src/network/endpoint.cpp</text>
</a>
</g>
</g>
<!-- Node13&#45;&gt;Node14 -->
<g id="edge18_Node000013_Node000014" class="edge">
<title>Node13&#45;&gt;Node14</title>
<g id="a_edge18_Node000013_Node000014"><a xlink:title=" ">
<path fill="none" stroke="#63b8ff" d="M1141.1,-131.57C1160.89,-117.54 1190.28,-96.7 1206.64,-85.09"/>
<polygon fill="#63b8ff" stroke="#63b8ff" points="1138.9,-128.84 1132.77,-137.48 1142.95,-134.55 1138.9,-128.84"/>
</a>
</g>
</g>
<!-- Node15&#45;&gt;Node4 -->
<g id="edge20_Node000015_Node000004" class="edge">
<title>Node15&#45;&gt;Node4</title>
<g id="a_edge20_Node000015_Node000004"><a xlink:title=" ">
<path fill="none" stroke="#63b8ff" d="M1332.82,-63.2C1321.58,-60.22 1309.24,-57.22 1297.75,-55 1194.85,-35.08 1073.35,-22.09 1002.49,-15.54"/>
<polygon fill="#63b8ff" stroke="#63b8ff" points="1332.22,-66.67 1342.79,-65.91 1334.06,-59.91 1332.22,-66.67"/>
</a>
</g>
</g>
<!-- Node16&#45;&gt;Node4 -->
<g id="edge22_Node000016_Node000004" class="edge">
<title>Node16&#45;&gt;Node4</title>
<g id="a_edge22_Node000016_Node000004"><a xlink:title=" ">
<path fill="none" stroke="#63b8ff" d="M1332.53,-134.88C1376.54,-123.27 1438.84,-105.45 1445.75,-96 1456.51,-81.29 1458.06,-68.44 1445.75,-55 1416.34,-22.87 1129.42,-13.81 1002.56,-11.36"/>
<polygon fill="#63b8ff" stroke="#63b8ff" points="1331.41,-131.56 1322.62,-137.48 1333.18,-138.33 1331.41,-131.56"/>
</a>
</g>
</g>
<!-- Node17 -->
<g id="Node000017" class="node">
<title>Node17</title>
<g id="a_Node000017"><a xlink:href="../../db/d3d/pixel__format_8cpp.html" target="_top" xlink:title="Definitions for pixelFormatName() and pixelFormatFromName() declared in render/pixel_format....">
<polygon fill="white" stroke="#666666" points="1642.75,-85 1492.75,-85 1492.75,-66 1642.75,-66 1642.75,-85"/>
<text text-anchor="middle" x="1567.75" y="-73" font-family="Helvetica,sans-Serif" font-size="10.00">src/render/pixel_format.cpp</text>
</a>
</g>
</g>
<!-- Node16&#45;&gt;Node17 -->
<g id="edge23_Node000016_Node000017" class="edge">
<title>Node16&#45;&gt;Node17</title>
<g id="a_edge23_Node000016_Node000017"><a xlink:title=" ">
<path fill="none" stroke="#63b8ff" d="M1332.87,-135.01C1388.42,-121.17 1482.69,-97.69 1533.26,-85.09"/>
<polygon fill="#63b8ff" stroke="#63b8ff" points="1331.82,-131.66 1322.97,-137.48 1333.51,-138.46 1331.82,-131.66"/>
</a>
</g>
</g>
</g>
</svg>
