<?xml version="1.0" encoding="UTF-8" standalone="no"?>
<!DOCTYPE svg PUBLIC "-//W3C//DTD SVG 1.1//EN"
 "http://www.w3.org/Graphics/SVG/1.1/DTD/svg11.dtd">
<!-- Generated by graphviz version 2.43.0 (0)
 -->
<!-- Title: toy::application::CoreApplication Pages: 1 -->
<svg width="416pt" height="171pt"
 viewBox="0.00 0.00 416.00 171.00" xmlns="http://www.w3.org/2000/svg" xmlns:xlink="http://www.w3.org/1999/xlink">
<g id="page0,1_graph0" class="graph" transform="scale(1 1) rotate(0) translate(4 167)">
<title>toy::application::CoreApplication</title>
<!-- Node1 -->
<g id="Node000001" class="node">
<title>Node1</title>
<g id="a_Node000001"><a xlink:title="Abstract base for platform application lifecycle management.">
<polygon fill="#999999" stroke="#666666" points="308.5,-19 133.5,-19 133.5,0 308.5,0 308.5,-19"/>
<text text-anchor="middle" x="221" y="-7" font-family="Helvetica,sans-Serif" font-size="10.00">toy::application::CoreApplication</text>
</a>
</g>
</g>
<!-- Node2 -->
<g id="Node000002" class="node">
<title>Node2</title>
<g id="a_Node000002"><a xlink:href="../../d7/d33/structtoy_1_1application_1_1_version.html" target="_top" xlink:title="Application version information structure.">
<polygon fill="white" stroke="#666666" points="134,-91 0,-91 0,-72 134,-72 134,-91"/>
<text text-anchor="middle" x="67" y="-79" font-family="Helvetica,sans-Serif" font-size="10.00">toy::application::Version</text>
</a>
</g>
</g>
<!-- Node2&#45;&gt;Node1 -->
<g id="edge1_Node000001_Node000002" class="edge">
<title>Node2&#45;&gt;Node1</title>
<g id="a_edge1_Node000001_Node000002"><a xlink:title=" ">
<path fill="none" stroke="#9a32cd" stroke-dasharray="5,2" d="M95.27,-67.65C126.29,-53.55 175.21,-31.32 201.96,-19.15"/>
<polygon fill="#9a32cd" stroke="#9a32cd" points="93.54,-64.59 85.88,-71.92 96.44,-70.96 93.54,-64.59"/>
</a>
</g>
<text text-anchor="start" x="166" y="-42.5" font-family="Helvetica,sans-Serif" font-size="10.00" fill="grey">_version</text>
</g>
<!-- Node3 -->
<g id="Node000003" class="node">
<title>Node3</title>
<g id="a_Node000003"><a xlink:href="../../d5/d03/classtoy_1_1_c_string_view.html" target="_top" xlink:title="Non&#45;owning string view class for C&#45;style strings.">
<polygon fill="white" stroke="#666666" points="115.5,-163 18.5,-163 18.5,-144 115.5,-144 115.5,-163"/>
<text text-anchor="middle" x="67" y="-151" font-family="Helvetica,sans-Serif" font-size="10.00">toy::CStringView</text>
</a>
</g>
</g>
<!-- Node3&#45;&gt;Node2 -->
<g id="edge2_Node000002_Node000003" class="edge">
<title>Node3&#45;&gt;Node2</title>
<g id="a_edge2_Node000002_Node000003"><a xlink:title=" ">
<path fill="none" stroke="#9a32cd" stroke-dasharray="5,2" d="M67,-133.58C67,-119.76 67,-101.68 67,-91.15"/>
<polygon fill="#9a32cd" stroke="#9a32cd" points="63.5,-133.92 67,-143.92 70.5,-133.92 63.5,-133.92"/>
</a>
</g>
<text text-anchor="start" x="70" y="-114.5" font-family="Helvetica,sans-Serif" font-size="10.00" fill="grey">revision</text>
</g>
<!-- Node4 -->
<g id="Node000004" class="node">
<title>Node4</title>
<g id="a_Node000004"><a xlink:href="../../d9/d63/classtoy_1_1chrono_1_1_clock_source.html" target="_top" xlink:title="RAII owner of the platform hardware time source.">
<polygon fill="white" stroke="#666666" points="289.5,-91 152.5,-91 152.5,-72 289.5,-72 289.5,-91"/>
<text text-anchor="middle" x="221" y="-79" font-family="Helvetica,sans-Serif" font-size="10.00">toy::chrono::ClockSource</text>
</a>
</g>
</g>
<!-- Node4&#45;&gt;Node1 -->
<g id="edge3_Node000001_Node000004" class="edge">
<title>Node4&#45;&gt;Node1</title>
<g id="a_edge3_Node000001_Node000004"><a xlink:title=" ">
<path fill="none" stroke="#9a32cd" stroke-dasharray="5,2" d="M221,-61.58C221,-47.76 221,-29.68 221,-19.15"/>
<polygon fill="#9a32cd" stroke="#9a32cd" points="217.5,-61.92 221,-71.92 224.5,-61.92 217.5,-61.92"/>
</a>
</g>
<text text-anchor="start" x="224" y="-42.5" font-family="Helvetica,sans-Serif" font-size="10.00" fill="grey">_clockSource</text>
</g>
<!-- Node5 -->
<g id="Node000005" class="node">
<title>Node5</title>
<g id="a_Node000005"><a xlink:href="../../d7/dfa/classtoy_1_1log_1_1_backend.html" target="_top" xlink:title="Process&#45;wide singleton transport for log records.">
<polygon fill="white" stroke="#666666" points="408,-91 308,-91 308,-72 408,-72 408,-91"/>
<text text-anchor="middle" x="358" y="-79" font-family="Helvetica,sans-Serif" font-size="10.00">toy::log::Backend</text>
</a>
</g>
</g>
<!-- Node5&#45;&gt;Node1 -->
<g id="edge4_Node000001_Node000005" class="edge">
<title>Node5&#45;&gt;Node1</title>
<g id="a_edge4_Node000001_Node000005"><a xlink:title=" ">
<path fill="none" stroke="#9a32cd" stroke-dasharray="5,2" d="M339.39,-65.73C327.26,-56.6 310.8,-45.11 295,-37 280.79,-29.71 264.12,-23.55 250.19,-19.01"/>
<polygon fill="#9a32cd" stroke="#9a32cd" points="337.33,-68.56 347.39,-71.89 341.6,-63.01 337.33,-68.56"/>
</a>
</g>
<text text-anchor="start" x="325" y="-42.5" font-family="Helvetica,sans-Serif" font-size="10.00" fill="grey">_logBackend</text>
</g>
<!-- Node6 -->
<g id="Node000006" class="node">
<title>Node6</title>
<g id="a_Node000006"><a xlink:href="../../d4/dc4/classtoy_1_1log_1_1_i_sink.html" target="_top" xlink:title="Abstract output destination for log records.">
<polygon fill="white" stroke="#666666" points="399.5,-163 316.5,-163 316.5,-144 399.5,-144 399.5,-163"/>
<text text-anchor="middle" x="358" y="-151" font-family="Helvetica,sans-Serif" font-size="10.00">toy::log::ISink</text>
</a>
</g>
</g>
<!-- Node6&#45;&gt;Node5 -->
<g id="edge5_Node000005_Node000006" class="edge">
<title>Node6&#45;&gt;Node5</title>
<g id="a_edge5_Node000005_Node000006"><a xlink:title=" ">
<path fill="none" stroke="#9a32cd" stroke-dasharray="5,2" d="M358,-133.58C358,-119.76 358,-101.68 358,-91.15"/>
<polygon fill="#9a32cd" stroke="#9a32cd" points="354.5,-133.92 358,-143.92 361.5,-133.92 354.5,-133.92"/>
</a>
</g>
<text text-anchor="start" x="361" y="-114.5" font-family="Helvetica,sans-Serif" font-size="10.00" fill="grey">_sink</text>
</g>
</g>
</svg>
