<?xml version="1.0" encoding="UTF-8" standalone="no"?>
<!DOCTYPE svg PUBLIC "-//W3C//DTD SVG 1.1//EN"
 "http://www.w3.org/Graphics/SVG/1.1/DTD/svg11.dtd">
<!-- Generated by graphviz version 2.43.0 (0)
 -->
<!-- Title: include/core/string_like.hpp Pages: 1 -->
<svg width="661pt" height="280pt"
 viewBox="0.00 0.00 660.50 280.00" xmlns="http://www.w3.org/2000/svg" xmlns:xlink="http://www.w3.org/1999/xlink">
<g id="graph0" class="graph" transform="scale(1 1) rotate(0) translate(4 276)">
<title>include/core/string_like.hpp</title>
<!-- Node1 -->
<g id="Node000001" class="node">
<title>Node1</title>
<g id="a_Node000001"><a xlink:title="C++ concept for string&#45;like types with size() and c_str() methods.">
<polygon fill="#999999" stroke="#666666" points="316.5,-272 209.5,-272 209.5,-242 316.5,-242 316.5,-272"/>
<text text-anchor="start" x="217.5" y="-260" font-family="Helvetica,sans-Serif" font-size="10.00">include/core/string</text>
<text text-anchor="middle" x="263" y="-249" font-family="Helvetica,sans-Serif" font-size="10.00">_like.hpp</text>
</a>
</g>
</g>
<!-- Node2 -->
<g id="Node000002" class="node">
<title>Node2</title>
<g id="a_Node000002"><a xlink:href="../../da/d47/core_8hpp.html" target="_top" xlink:title="Umbrella header for the engine core module.">
<polygon fill="white" stroke="#666666" points="311.5,-140 214.5,-140 214.5,-121 311.5,-121 311.5,-140"/>
<text text-anchor="middle" x="263" y="-128" font-family="Helvetica,sans-Serif" font-size="10.00">include/core.hpp</text>
</a>
</g>
</g>
<!-- Node1&#45;&gt;Node2 -->
<g id="edge1_Node000001_Node000002" class="edge">
<title>Node1&#45;&gt;Node2</title>
<g id="a_edge1_Node000001_Node000002"><a xlink:title=" ">
<path fill="none" stroke="#63b8ff" d="M199.07,-251.59C127.95,-244.22 27.88,-225 67,-176 85.07,-153.37 162.12,-141.38 214.06,-135.74"/>
<polygon fill="#63b8ff" stroke="#63b8ff" points="199.04,-255.1 209.33,-252.59 199.72,-248.14 199.04,-255.1"/>
</a>
</g>
</g>
<!-- Node9 -->
<g id="Node000009" class="node">
<title>Node9</title>
<g id="a_Node000009"><a xlink:href="../../dd/ded/c__string__view_8hpp.html" target="_top" xlink:title="Non&#45;owning string view class for C&#45;style strings.">
<polygon fill="white" stroke="#666666" points="193.5,-206 76.5,-206 76.5,-176 193.5,-176 193.5,-206"/>
<text text-anchor="start" x="84.5" y="-194" font-family="Helvetica,sans-Serif" font-size="10.00">include/core/c_string</text>
<text text-anchor="middle" x="135" y="-183" font-family="Helvetica,sans-Serif" font-size="10.00">_view.hpp</text>
</a>
</g>
</g>
<!-- Node1&#45;&gt;Node9 -->
<g id="edge10_Node000001_Node000009" class="edge">
<title>Node1&#45;&gt;Node9</title>
<g id="a_edge10_Node000001_Node000009"><a xlink:title=" ">
<path fill="none" stroke="#63b8ff" d="M225.76,-237.38C205.73,-227.36 181.43,-215.22 163.02,-206.01"/>
<polygon fill="#63b8ff" stroke="#63b8ff" points="224.4,-240.61 234.91,-241.95 227.53,-234.35 224.4,-240.61"/>
</a>
</g>
</g>
<!-- Node10 -->
<g id="Node000010" class="node">
<title>Node10</title>
<g id="a_Node000010"><a xlink:href="../../d7/d7f/fixed__string_8hpp.html" target="_top" xlink:title="Template string class with fixed&#45;size character buffer.">
<polygon fill="white" stroke="#666666" points="314,-206 212,-206 212,-176 314,-176 314,-206"/>
<text text-anchor="start" x="220" y="-194" font-family="Helvetica,sans-Serif" font-size="10.00">include/core/fixed</text>
<text text-anchor="middle" x="263" y="-183" font-family="Helvetica,sans-Serif" font-size="10.00">_string.hpp</text>
</a>
</g>
</g>
<!-- Node1&#45;&gt;Node10 -->
<g id="edge12_Node000001_Node000010" class="edge">
<title>Node1&#45;&gt;Node10</title>
<g id="a_edge12_Node000001_Node000010"><a xlink:title=" ">
<path fill="none" stroke="#63b8ff" d="M263,-231.54C263,-222.96 263,-213.61 263,-206.16"/>
<polygon fill="#63b8ff" stroke="#63b8ff" points="259.5,-231.8 263,-241.8 266.5,-231.8 259.5,-231.8"/>
</a>
</g>
</g>
<!-- Node11 -->
<g id="Node000011" class="node">
<title>Node11</title>
<g id="a_Node000011"><a xlink:href="../../d4/d0a/format_8hpp.html" target="_top" xlink:title="Compile&#45;time format string validation class.">
<polygon fill="white" stroke="#666666" points="465.5,-200.5 332.5,-200.5 332.5,-181.5 465.5,-181.5 465.5,-200.5"/>
<text text-anchor="middle" x="399" y="-188.5" font-family="Helvetica,sans-Serif" font-size="10.00">include/core/format.hpp</text>
</a>
</g>
</g>
<!-- Node1&#45;&gt;Node11 -->
<g id="edge14_Node000001_Node000011" class="edge">
<title>Node1&#45;&gt;Node11</title>
<g id="a_edge14_Node000001_Node000011"><a xlink:title=" ">
<path fill="none" stroke="#63b8ff" d="M302.06,-237.62C328.01,-225.41 360.88,-209.94 380.9,-200.52"/>
<polygon fill="#63b8ff" stroke="#63b8ff" points="300.4,-234.53 292.85,-241.95 303.38,-240.86 300.4,-234.53"/>
</a>
</g>
</g>
<!-- Node12 -->
<g id="Node000012" class="node">
<title>Node12</title>
<g id="a_Node000012"><a xlink:href="../../de/d2d/o__string__stream_8hpp.html" target="_top" xlink:title="Output string stream class for building strings from various data types.">
<polygon fill="white" stroke="#666666" points="602,-206 484,-206 484,-176 602,-176 602,-206"/>
<text text-anchor="start" x="492" y="-194" font-family="Helvetica,sans-Serif" font-size="10.00">include/core/o_string</text>
<text text-anchor="middle" x="543" y="-183" font-family="Helvetica,sans-Serif" font-size="10.00">_stream.hpp</text>
</a>
</g>
</g>
<!-- Node1&#45;&gt;Node12 -->
<g id="edge16_Node000001_Node000012" class="edge">
<title>Node1&#45;&gt;Node12</title>
<g id="a_edge16_Node000001_Node000012"><a xlink:title=" ">
<path fill="none" stroke="#63b8ff" d="M326.46,-241.5C373.64,-230.71 437.56,-216.1 483.71,-205.55"/>
<polygon fill="#63b8ff" stroke="#63b8ff" points="325.62,-238.1 316.66,-243.74 327.18,-244.92 325.62,-238.1"/>
</a>
</g>
</g>
<!-- Node3 -->
<g id="Node000003" class="node">
<title>Node3</title>
<g id="a_Node000003"><a xlink:href="../../d6/d2c/app_8hpp.html" target="_top" xlink:title="Umbrella header for the engine application module.">
<polygon fill="white" stroke="#666666" points="94,-79.5 0,-79.5 0,-60.5 94,-60.5 94,-79.5"/>
<text text-anchor="middle" x="47" y="-67.5" font-family="Helvetica,sans-Serif" font-size="10.00">include/app.hpp</text>
</a>
</g>
</g>
<!-- Node2&#45;&gt;Node3 -->
<g id="edge2_Node000002_Node000003" class="edge">
<title>Node2&#45;&gt;Node3</title>
<g id="a_edge2_Node000002_Node000003"><a xlink:title=" ">
<path fill="none" stroke="#63b8ff" d="M221.73,-118.32C179.96,-107.01 116.3,-89.77 78.45,-79.52"/>
<polygon fill="#63b8ff" stroke="#63b8ff" points="221.02,-121.76 231.59,-120.99 222.85,-115 221.02,-121.76"/>
</a>
</g>
</g>
<!-- Node4 -->
<g id="Node000004" class="node">
<title>Node4</title>
<g id="a_Node000004"><a xlink:href="../../d8/d8c/toygine2_8hpp.html" target="_top" xlink:title="Main umbrella header for the entire ToyGine2 engine.">
<polygon fill="white" stroke="#666666" points="181.5,-19 62.5,-19 62.5,0 181.5,0 181.5,-19"/>
<text text-anchor="middle" x="122" y="-7" font-family="Helvetica,sans-Serif" font-size="10.00">include/toygine2.hpp</text>
</a>
</g>
</g>
<!-- Node2&#45;&gt;Node4 -->
<g id="edge6_Node000002_Node000004" class="edge">
<title>Node2&#45;&gt;Node4</title>
<g id="a_edge6_Node000002_Node000004"><a xlink:title=" ">
<path fill="none" stroke="#63b8ff" d="M204.48,-120.26C181.8,-113.89 157.4,-103.13 141,-85 123.99,-66.19 121.76,-34.26 121.74,-19.05"/>
<polygon fill="#63b8ff" stroke="#63b8ff" points="203.85,-123.71 214.4,-122.81 205.59,-116.93 203.85,-123.71"/>
</a>
</g>
</g>
<!-- Node5 -->
<g id="Node000005" class="node">
<title>Node5</title>
<g id="a_Node000005"><a xlink:href="../../d4/d78/math_8hpp.html" target="_top" xlink:title="Umbrella header for the engine mathematics module.">
<polygon fill="white" stroke="#666666" points="251.5,-79.5 150.5,-79.5 150.5,-60.5 251.5,-60.5 251.5,-79.5"/>
<text text-anchor="middle" x="201" y="-67.5" font-family="Helvetica,sans-Serif" font-size="10.00">include/math.hpp</text>
</a>
</g>
</g>
<!-- Node2&#45;&gt;Node5 -->
<g id="edge4_Node000002_Node000005" class="edge">
<title>Node2&#45;&gt;Node5</title>
<g id="a_edge4_Node000002_Node000005"><a xlink:title=" ">
<path fill="none" stroke="#63b8ff" d="M246.48,-113.91C234.85,-102.94 219.72,-88.67 210.19,-79.67"/>
<polygon fill="#63b8ff" stroke="#63b8ff" points="244.18,-116.55 253.85,-120.87 248.98,-111.46 244.18,-116.55"/>
</a>
</g>
</g>
<!-- Node6 -->
<g id="Node000006" class="node">
<title>Node6</title>
<g id="a_Node000006"><a xlink:href="../../db/d2d/hashes_8cpp.html" target="_top" xlink:title="Implementation of CRC hash functions with lookup tables for optimal performance.">
<polygon fill="white" stroke="#666666" points="382.5,-79.5 269.5,-79.5 269.5,-60.5 382.5,-60.5 382.5,-79.5"/>
<text text-anchor="middle" x="326" y="-67.5" font-family="Helvetica,sans-Serif" font-size="10.00">src/core/hashes.cpp</text>
</a>
</g>
</g>
<!-- Node2&#45;&gt;Node6 -->
<g id="edge7_Node000002_Node000006" class="edge">
<title>Node2&#45;&gt;Node6</title>
<g id="a_edge7_Node000002_Node000006"><a xlink:title=" ">
<path fill="none" stroke="#63b8ff" d="M279.79,-113.91C291.6,-102.94 306.97,-88.67 316.67,-79.67"/>
<polygon fill="#63b8ff" stroke="#63b8ff" points="277.24,-111.5 272.3,-120.87 282.01,-116.63 277.24,-111.5"/>
</a>
</g>
</g>
<!-- Node7 -->
<g id="Node000007" class="node">
<title>Node7</title>
<g id="a_Node000007"><a xlink:href="../../de/d06/utils_8cpp.html" target="_top" xlink:title="Implementation of core utility functions for string manipulation, encoding conversion,...">
<polygon fill="white" stroke="#666666" points="499.5,-79.5 400.5,-79.5 400.5,-60.5 499.5,-60.5 499.5,-79.5"/>
<text text-anchor="middle" x="450" y="-67.5" font-family="Helvetica,sans-Serif" font-size="10.00">src/core/utils.cpp</text>
</a>
</g>
</g>
<!-- Node2&#45;&gt;Node7 -->
<g id="edge8_Node000002_Node000007" class="edge">
<title>Node2&#45;&gt;Node7</title>
<g id="a_edge8_Node000002_Node000007"><a xlink:title=" ">
<path fill="none" stroke="#63b8ff" d="M299.88,-117.96C336.05,-106.65 390.35,-89.66 422.78,-79.52"/>
<polygon fill="#63b8ff" stroke="#63b8ff" points="298.69,-114.67 290.19,-120.99 300.78,-121.35 298.69,-114.67"/>
</a>
</g>
</g>
<!-- Node8 -->
<g id="Node000008" class="node">
<title>Node8</title>
<g id="a_Node000008"><a xlink:href="../../d7/d90/assertion__stub_8cpp.html" target="_top" xlink:title="Stub implementation of assertion system for platforms without native assertion support.">
<polygon fill="white" stroke="#666666" points="652.5,-85 517.5,-85 517.5,-55 652.5,-55 652.5,-85"/>
<text text-anchor="start" x="525.5" y="-73" font-family="Helvetica,sans-Serif" font-size="10.00">src/platforms/stub</text>
<text text-anchor="middle" x="585" y="-62" font-family="Helvetica,sans-Serif" font-size="10.00">/core/assertion_stub.cpp</text>
</a>
</g>
</g>
<!-- Node2&#45;&gt;Node8 -->
<g id="edge9_Node000002_Node000008" class="edge">
<title>Node2&#45;&gt;Node8</title>
<g id="a_edge9_Node000002_Node000008"><a xlink:title=" ">
<path fill="none" stroke="#63b8ff" d="M320.58,-119.14C370.44,-110.15 444.49,-96.78 509,-85 511.77,-84.49 514.6,-83.98 517.46,-83.45"/>
<polygon fill="#63b8ff" stroke="#63b8ff" points="319.85,-115.71 310.63,-120.93 321.09,-122.6 319.85,-115.71"/>
</a>
</g>
</g>
<!-- Node3&#45;&gt;Node4 -->
<g id="edge3_Node000003_Node000004" class="edge">
<title>Node3&#45;&gt;Node4</title>
<g id="a_edge3_Node000003_Node000004"><a xlink:title=" ">
<path fill="none" stroke="#63b8ff" d="M66.18,-54.04C80.35,-42.99 99.13,-28.34 110.89,-19.17"/>
<polygon fill="#63b8ff" stroke="#63b8ff" points="63.8,-51.46 58.07,-60.37 68.1,-56.98 63.8,-51.46"/>
</a>
</g>
</g>
<!-- Node5&#45;&gt;Node4 -->
<g id="edge5_Node000005_Node000004" class="edge">
<title>Node5&#45;&gt;Node4</title>
<g id="a_edge5_Node000005_Node000004"><a xlink:title=" ">
<path fill="none" stroke="#63b8ff" d="M181.21,-54.35C166.25,-43.27 146.21,-28.43 133.7,-19.17"/>
<polygon fill="#63b8ff" stroke="#63b8ff" points="179.22,-57.23 189.34,-60.37 183.39,-51.6 179.22,-57.23"/>
</a>
</g>
</g>
<!-- Node9&#45;&gt;Node2 -->
<g id="edge11_Node000009_Node000002" class="edge">
<title>Node9&#45;&gt;Node2</title>
<g id="a_edge11_Node000009_Node000002"><a xlink:title=" ">
<path fill="none" stroke="#63b8ff" d="M174.88,-171.77C197.96,-161.22 225.95,-148.43 244.1,-140.14"/>
<polygon fill="#63b8ff" stroke="#63b8ff" points="173.3,-168.65 165.66,-175.99 176.21,-175.01 173.3,-168.65"/>
</a>
</g>
</g>
<!-- Node10&#45;&gt;Node2 -->
<g id="edge13_Node000010_Node000002" class="edge">
<title>Node10&#45;&gt;Node2</title>
<g id="a_edge13_Node000010_Node000002"><a xlink:title=" ">
<path fill="none" stroke="#63b8ff" d="M263,-165.75C263,-156.72 263,-147.03 263,-140.27"/>
<polygon fill="#63b8ff" stroke="#63b8ff" points="259.5,-165.84 263,-175.84 266.5,-165.84 259.5,-165.84"/>
</a>
</g>
</g>
<!-- Node11&#45;&gt;Node2 -->
<g id="edge15_Node000011_Node000002" class="edge">
<title>Node11&#45;&gt;Node2</title>
<g id="a_edge15_Node000011_Node000002"><a xlink:title=" ">
<path fill="none" stroke="#63b8ff" d="M369.78,-177.43C343.52,-166.14 305.67,-149.86 282.8,-140.02"/>
<polygon fill="#63b8ff" stroke="#63b8ff" points="368.66,-180.76 379.22,-181.49 371.42,-174.33 368.66,-180.76"/>
</a>
</g>
</g>
<!-- Node12&#45;&gt;Node2 -->
<g id="edge17_Node000012_Node000002" class="edge">
<title>Node12&#45;&gt;Node2</title>
<g id="a_edge17_Node000012_Node000002"><a xlink:title=" ">
<path fill="none" stroke="#63b8ff" d="M473.88,-175.56C420.48,-164.4 348.4,-149.34 303.84,-140.03"/>
<polygon fill="#63b8ff" stroke="#63b8ff" points="473.46,-179.05 483.96,-177.67 474.89,-172.19 473.46,-179.05"/>
</a>
</g>
</g>
</g>
</svg>
