<?xml version="1.0" encoding="UTF-8" standalone="no"?>
<!DOCTYPE svg PUBLIC "-//W3C//DTD SVG 1.1//EN"
 "http://www.w3.org/Graphics/SVG/1.1/DTD/svg11.dtd">
<!-- Generated by graphviz version 2.43.0 (0)
 -->
<!-- Title: include/core/string_like.hpp Pages: 1 -->
<svg width="998pt" height="335pt"
 viewBox="0.00 0.00 997.50 335.00" xmlns="http://www.w3.org/2000/svg" xmlns:xlink="http://www.w3.org/1999/xlink">
<g id="graph0" class="graph" transform="scale(1 1) rotate(0) translate(4 331)">
<title>include/core/string_like.hpp</title>
<!-- Node1 -->
<g id="Node000001" class="node">
<title>Node1</title>
<g id="a_Node000001"><a xlink:title="C++ concept for string&#45;like types with size() and c_str() methods.">
<polygon fill="#999999" stroke="#666666" points="555.5,-327 448.5,-327 448.5,-297 555.5,-297 555.5,-327"/>
<text text-anchor="start" x="456.5" y="-315" font-family="Helvetica,sans-Serif" font-size="10.00">include/core/string</text>
<text text-anchor="middle" x="502" y="-304" font-family="Helvetica,sans-Serif" font-size="10.00">_like.hpp</text>
</a>
</g>
</g>
<!-- Node2 -->
<g id="Node000002" class="node">
<title>Node2</title>
<g id="a_Node000002"><a xlink:href="../../da/d47/core_8hpp.html" target="_top" xlink:title="Umbrella header for the engine core module.">
<polygon fill="white" stroke="#666666" points="550.5,-195 453.5,-195 453.5,-176 550.5,-176 550.5,-195"/>
<text text-anchor="middle" x="502" y="-183" font-family="Helvetica,sans-Serif" font-size="10.00">include/core.hpp</text>
</a>
</g>
</g>
<!-- Node1&#45;&gt;Node2 -->
<g id="edge1_Node000001_Node000002" class="edge">
<title>Node1&#45;&gt;Node2</title>
<g id="a_edge1_Node000001_Node000002"><a xlink:title=" ">
<path fill="none" stroke="#63b8ff" d="M438.07,-306.59C366.95,-299.22 266.88,-280 306,-231 324.07,-208.37 401.12,-196.38 453.06,-190.74"/>
<polygon fill="#63b8ff" stroke="#63b8ff" points="438.04,-310.1 448.33,-307.59 438.72,-303.14 438.04,-310.1"/>
</a>
</g>
</g>
<!-- Node15 -->
<g id="Node000015" class="node">
<title>Node15</title>
<g id="a_Node000015"><a xlink:href="../../dd/ded/c__string__view_8hpp.html" target="_top" xlink:title="Non&#45;owning string view class for C&#45;style strings.">
<polygon fill="white" stroke="#666666" points="432.5,-261 315.5,-261 315.5,-231 432.5,-231 432.5,-261"/>
<text text-anchor="start" x="323.5" y="-249" font-family="Helvetica,sans-Serif" font-size="10.00">include/core/c_string</text>
<text text-anchor="middle" x="374" y="-238" font-family="Helvetica,sans-Serif" font-size="10.00">_view.hpp</text>
</a>
</g>
</g>
<!-- Node1&#45;&gt;Node15 -->
<g id="edge21_Node000001_Node000015" class="edge">
<title>Node1&#45;&gt;Node15</title>
<g id="a_edge21_Node000001_Node000015"><a xlink:title=" ">
<path fill="none" stroke="#63b8ff" d="M464.76,-292.38C444.73,-282.36 420.43,-270.22 402.02,-261.01"/>
<polygon fill="#63b8ff" stroke="#63b8ff" points="463.4,-295.61 473.91,-296.95 466.53,-289.35 463.4,-295.61"/>
</a>
</g>
</g>
<!-- Node16 -->
<g id="Node000016" class="node">
<title>Node16</title>
<g id="a_Node000016"><a xlink:href="../../d7/d7f/fixed__string_8hpp.html" target="_top" xlink:title="Template string class with fixed&#45;size character buffer.">
<polygon fill="white" stroke="#666666" points="553,-261 451,-261 451,-231 553,-231 553,-261"/>
<text text-anchor="start" x="459" y="-249" font-family="Helvetica,sans-Serif" font-size="10.00">include/core/fixed</text>
<text text-anchor="middle" x="502" y="-238" font-family="Helvetica,sans-Serif" font-size="10.00">_string.hpp</text>
</a>
</g>
</g>
<!-- Node1&#45;&gt;Node16 -->
<g id="edge23_Node000001_Node000016" class="edge">
<title>Node1&#45;&gt;Node16</title>
<g id="a_edge23_Node000001_Node000016"><a xlink:title=" ">
<path fill="none" stroke="#63b8ff" d="M502,-286.54C502,-277.96 502,-268.61 502,-261.16"/>
<polygon fill="#63b8ff" stroke="#63b8ff" points="498.5,-286.8 502,-296.8 505.5,-286.8 498.5,-286.8"/>
</a>
</g>
</g>
<!-- Node17 -->
<g id="Node000017" class="node">
<title>Node17</title>
<g id="a_Node000017"><a xlink:href="../../d4/d0a/format_8hpp.html" target="_top" xlink:title="Compile&#45;time format string validation class.">
<polygon fill="white" stroke="#666666" points="704.5,-255.5 571.5,-255.5 571.5,-236.5 704.5,-236.5 704.5,-255.5"/>
<text text-anchor="middle" x="638" y="-243.5" font-family="Helvetica,sans-Serif" font-size="10.00">include/core/format.hpp</text>
</a>
</g>
</g>
<!-- Node1&#45;&gt;Node17 -->
<g id="edge25_Node000001_Node000017" class="edge">
<title>Node1&#45;&gt;Node17</title>
<g id="a_edge25_Node000001_Node000017"><a xlink:title=" ">
<path fill="none" stroke="#63b8ff" d="M541.06,-292.62C567.01,-280.41 599.88,-264.94 619.9,-255.52"/>
<polygon fill="#63b8ff" stroke="#63b8ff" points="539.4,-289.53 531.85,-296.95 542.38,-295.86 539.4,-289.53"/>
</a>
</g>
</g>
<!-- Node18 -->
<g id="Node000018" class="node">
<title>Node18</title>
<g id="a_Node000018"><a xlink:href="../../de/d2d/o__string__stream_8hpp.html" target="_top" xlink:title="Output string stream class for building strings from various data types.">
<polygon fill="white" stroke="#666666" points="841,-261 723,-261 723,-231 841,-231 841,-261"/>
<text text-anchor="start" x="731" y="-249" font-family="Helvetica,sans-Serif" font-size="10.00">include/core/o_string</text>
<text text-anchor="middle" x="782" y="-238" font-family="Helvetica,sans-Serif" font-size="10.00">_stream.hpp</text>
</a>
</g>
</g>
<!-- Node1&#45;&gt;Node18 -->
<g id="edge27_Node000001_Node000018" class="edge">
<title>Node1&#45;&gt;Node18</title>
<g id="a_edge27_Node000001_Node000018"><a xlink:title=" ">
<path fill="none" stroke="#63b8ff" d="M565.46,-296.5C612.64,-285.71 676.56,-271.1 722.71,-260.55"/>
<polygon fill="#63b8ff" stroke="#63b8ff" points="564.62,-293.1 555.66,-298.74 566.18,-299.92 564.62,-293.1"/>
</a>
</g>
</g>
<!-- Node3 -->
<g id="Node000003" class="node">
<title>Node3</title>
<g id="a_Node000003"><a xlink:href="../../d4/d01/application_8hpp.html" target="_top" xlink:title="Umbrella header for the app module.">
<polygon fill="white" stroke="#666666" points="130,-74 0,-74 0,-55 130,-55 130,-74"/>
<text text-anchor="middle" x="65" y="-62" font-family="Helvetica,sans-Serif" font-size="10.00">include/application.hpp</text>
</a>
</g>
</g>
<!-- Node2&#45;&gt;Node3 -->
<g id="edge2_Node000002_Node000003" class="edge">
<title>Node2&#45;&gt;Node3</title>
<g id="a_edge2_Node000002_Node000003"><a xlink:title=" ">
<path fill="none" stroke="#63b8ff" d="M443.23,-181.62C355.67,-176.59 195.72,-164.34 144,-140 111.25,-124.59 83.19,-90.39 71.2,-74.25"/>
<polygon fill="#63b8ff" stroke="#63b8ff" points="443.1,-185.12 453.28,-182.19 443.5,-178.13 443.1,-185.12"/>
</a>
</g>
</g>
<!-- Node4 -->
<g id="Node000004" class="node">
<title>Node4</title>
<g id="a_Node000004"><a xlink:href="../../d8/d8c/toygine2_8hpp.html" target="_top" xlink:title="Main umbrella header for the engine.">
<polygon fill="white" stroke="#666666" points="421.5,-19 302.5,-19 302.5,0 421.5,0 421.5,-19"/>
<text text-anchor="middle" x="362" y="-7" font-family="Helvetica,sans-Serif" font-size="10.00">include/toygine2.hpp</text>
</a>
</g>
</g>
<!-- Node2&#45;&gt;Node4 -->
<g id="edge17_Node000002_Node000004" class="edge">
<title>Node2&#45;&gt;Node4</title>
<g id="a_edge17_Node000002_Node000004"><a xlink:title=" ">
<path fill="none" stroke="#63b8ff" d="M442.87,-180.09C373.2,-174 262.43,-161.31 227,-140 195.46,-121.03 188.72,-108.88 177,-74 174.31,-66 171.77,-61.63 177,-55 192.49,-35.35 254.44,-23.37 302.43,-16.87"/>
<polygon fill="#63b8ff" stroke="#63b8ff" points="443,-183.61 453.26,-180.97 443.59,-176.63 443,-183.61"/>
</a>
</g>
</g>
<!-- Node5 -->
<g id="Node000005" class="node">
<title>Node5</title>
<g id="a_Node000005"><a xlink:href="../../d1/d71/audio_8hpp.html" target="_top" xlink:title="Umbrella header for the audio module.">
<polygon fill="white" stroke="#666666" points="289.5,-74 186.5,-74 186.5,-55 289.5,-55 289.5,-74"/>
<text text-anchor="middle" x="238" y="-62" font-family="Helvetica,sans-Serif" font-size="10.00">include/audio.hpp</text>
</a>
</g>
</g>
<!-- Node2&#45;&gt;Node5 -->
<g id="edge4_Node000002_Node000005" class="edge">
<title>Node2&#45;&gt;Node5</title>
<g id="a_edge4_Node000002_Node000005"><a xlink:title=" ">
<path fill="none" stroke="#63b8ff" d="M443.05,-182.79C374.35,-179.43 266.91,-169.47 241,-140 224.76,-121.53 230.98,-89.44 235.26,-74.12"/>
<polygon fill="#63b8ff" stroke="#63b8ff" points="443.16,-186.3 453.31,-183.25 443.48,-179.3 443.16,-186.3"/>
</a>
</g>
</g>
<!-- Node6 -->
<g id="Node000006" class="node">
<title>Node6</title>
<g id="a_Node000006"><a xlink:href="../../d8/d39/game_8hpp.html" target="_top" xlink:title="Umbrella header for the game module.">
<polygon fill="white" stroke="#666666" points="354,-134.5 250,-134.5 250,-115.5 354,-115.5 354,-134.5"/>
<text text-anchor="middle" x="302" y="-122.5" font-family="Helvetica,sans-Serif" font-size="10.00">include/game.hpp</text>
</a>
</g>
</g>
<!-- Node2&#45;&gt;Node6 -->
<g id="edge6_Node000002_Node000006" class="edge">
<title>Node2&#45;&gt;Node6</title>
<g id="a_edge6_Node000002_Node000006"><a xlink:title=" ">
<path fill="none" stroke="#63b8ff" d="M463.05,-173.11C424.37,-161.79 365.94,-144.7 331.12,-134.52"/>
<polygon fill="#63b8ff" stroke="#63b8ff" points="462.34,-176.55 472.92,-175.99 464.3,-169.83 462.34,-176.55"/>
</a>
</g>
</g>
<!-- Node7 -->
<g id="Node000007" class="node">
<title>Node7</title>
<g id="a_Node000007"><a xlink:href="../../d4/d78/math_8hpp.html" target="_top" xlink:title="Umbrella header for the math module.">
<polygon fill="white" stroke="#666666" points="473.5,-134.5 372.5,-134.5 372.5,-115.5 473.5,-115.5 473.5,-134.5"/>
<text text-anchor="middle" x="423" y="-122.5" font-family="Helvetica,sans-Serif" font-size="10.00">include/math.hpp</text>
</a>
</g>
</g>
<!-- Node2&#45;&gt;Node7 -->
<g id="edge7_Node000002_Node000007" class="edge">
<title>Node2&#45;&gt;Node7</title>
<g id="a_edge7_Node000002_Node000007"><a xlink:title=" ">
<path fill="none" stroke="#63b8ff" d="M482.21,-169.85C467.25,-158.77 447.21,-143.93 434.7,-134.67"/>
<polygon fill="#63b8ff" stroke="#63b8ff" points="480.22,-172.73 490.34,-175.87 484.39,-167.1 480.22,-172.73"/>
</a>
</g>
</g>
<!-- Node9 -->
<g id="Node000009" class="node">
<title>Node9</title>
<g id="a_Node000009"><a xlink:href="../../d6/d67/network_8hpp.html" target="_top" xlink:title="Umbrella header for the network module.">
<polygon fill="white" stroke="#666666" points="602,-74 486,-74 486,-55 602,-55 602,-74"/>
<text text-anchor="middle" x="544" y="-62" font-family="Helvetica,sans-Serif" font-size="10.00">include/network.hpp</text>
</a>
</g>
</g>
<!-- Node2&#45;&gt;Node9 -->
<g id="edge11_Node000002_Node000009" class="edge">
<title>Node2&#45;&gt;Node9</title>
<g id="a_edge11_Node000002_Node000009"><a xlink:title=" ">
<path fill="none" stroke="#63b8ff" d="M507.54,-166.02C512.19,-150.87 519.14,-128.91 526,-110 530.55,-97.47 536.44,-83.22 540.22,-74.29"/>
<polygon fill="#63b8ff" stroke="#63b8ff" points="504.16,-165.13 504.6,-175.71 510.86,-167.16 504.16,-165.13"/>
</a>
</g>
</g>
<!-- Node10 -->
<g id="Node000010" class="node">
<title>Node10</title>
<g id="a_Node000010"><a xlink:href="../../de/dd6/ui_8hpp.html" target="_top" xlink:title="Umbrella header for platform UI types.">
<polygon fill="white" stroke="#666666" points="750,-74 620,-74 620,-55 750,-55 750,-74"/>
<text text-anchor="middle" x="685" y="-62" font-family="Helvetica,sans-Serif" font-size="10.00">include/platform/ui.hpp</text>
</a>
</g>
</g>
<!-- Node2&#45;&gt;Node10 -->
<g id="edge13_Node000002_Node000010" class="edge">
<title>Node2&#45;&gt;Node10</title>
<g id="a_edge13_Node000002_Node000010"><a xlink:title=" ">
<path fill="none" stroke="#63b8ff" d="M512.58,-167.11C523.56,-150.38 542.16,-125.41 564,-110 588.96,-92.38 621.71,-80.9 646.84,-74.02"/>
<polygon fill="#63b8ff" stroke="#63b8ff" points="509.42,-165.55 507.03,-175.87 515.34,-169.3 509.42,-165.55"/>
</a>
</g>
</g>
<!-- Node11 -->
<g id="Node000011" class="node">
<title>Node11</title>
<g id="a_Node000011"><a xlink:href="../../d6/d4b/render_8hpp.html" target="_top" xlink:title="Umbrella header for the render module.">
<polygon fill="white" stroke="#666666" points="875.5,-74 768.5,-74 768.5,-55 875.5,-55 875.5,-74"/>
<text text-anchor="middle" x="822" y="-62" font-family="Helvetica,sans-Serif" font-size="10.00">include/render.hpp</text>
</a>
</g>
</g>
<!-- Node2&#45;&gt;Node11 -->
<g id="edge15_Node000002_Node000011" class="edge">
<title>Node2&#45;&gt;Node11</title>
<g id="a_edge15_Node000002_Node000011"><a xlink:title=" ">
<path fill="none" stroke="#63b8ff" d="M522.83,-170.03C534.79,-161.54 549.97,-150.47 563,-140 578.71,-127.38 578.93,-118.93 597,-110 626.49,-95.42 711.66,-81.12 768.34,-72.81"/>
<polygon fill="#63b8ff" stroke="#63b8ff" points="520.57,-167.34 514.4,-175.96 524.59,-173.07 520.57,-167.34"/>
</a>
</g>
</g>
<!-- Node12 -->
<g id="Node000012" class="node">
<title>Node12</title>
<g id="a_Node000012"><a xlink:href="../../db/d2d/hashes_8cpp.html" target="_top" xlink:title="Implementation of CRC hash functions with lookup tables for optimal performance.">
<polygon fill="white" stroke="#666666" points="719.5,-134.5 606.5,-134.5 606.5,-115.5 719.5,-115.5 719.5,-134.5"/>
<text text-anchor="middle" x="663" y="-122.5" font-family="Helvetica,sans-Serif" font-size="10.00">src/core/hashes.cpp</text>
</a>
</g>
</g>
<!-- Node2&#45;&gt;Node12 -->
<g id="edge18_Node000002_Node000012" class="edge">
<title>Node2&#45;&gt;Node12</title>
<g id="a_edge18_Node000002_Node000012"><a xlink:title=" ">
<path fill="none" stroke="#63b8ff" d="M534.96,-172.52C566.09,-161.21 612,-144.53 639.56,-134.52"/>
<polygon fill="#63b8ff" stroke="#63b8ff" points="533.61,-169.29 525.41,-175.99 536,-175.87 533.61,-169.29"/>
</a>
</g>
</g>
<!-- Node13 -->
<g id="Node000013" class="node">
<title>Node13</title>
<g id="a_Node000013"><a xlink:href="../../de/d06/utils_8cpp.html" target="_top" xlink:title="Implementation of core utility functions for string manipulation, encoding conversion,...">
<polygon fill="white" stroke="#666666" points="836.5,-134.5 737.5,-134.5 737.5,-115.5 836.5,-115.5 836.5,-134.5"/>
<text text-anchor="middle" x="787" y="-122.5" font-family="Helvetica,sans-Serif" font-size="10.00">src/core/utils.cpp</text>
</a>
</g>
</g>
<!-- Node2&#45;&gt;Node13 -->
<g id="edge19_Node000002_Node000013" class="edge">
<title>Node2&#45;&gt;Node13</title>
<g id="a_edge19_Node000002_Node000013"><a xlink:title=" ">
<path fill="none" stroke="#63b8ff" d="M558.02,-174.09C603.82,-165.43 670.23,-152.54 728,-140 735.82,-138.3 744.2,-136.38 752.11,-134.51"/>
<polygon fill="#63b8ff" stroke="#63b8ff" points="557.17,-170.69 547.99,-175.98 558.46,-177.57 557.17,-170.69"/>
</a>
</g>
</g>
<!-- Node14 -->
<g id="Node000014" class="node">
<title>Node14</title>
<g id="a_Node000014"><a xlink:href="../../d7/d90/assertion__stub_8cpp.html" target="_top" xlink:title="Stub implementation of assertion system for platforms without native assertion support.">
<polygon fill="white" stroke="#666666" points="989.5,-140 854.5,-140 854.5,-110 989.5,-110 989.5,-140"/>
<text text-anchor="start" x="862.5" y="-128" font-family="Helvetica,sans-Serif" font-size="10.00">src/platforms/stub</text>
<text text-anchor="middle" x="922" y="-117" font-family="Helvetica,sans-Serif" font-size="10.00">/core/assertion_stub.cpp</text>
</a>
</g>
</g>
<!-- Node2&#45;&gt;Node14 -->
<g id="edge20_Node000002_Node000014" class="edge">
<title>Node2&#45;&gt;Node14</title>
<g id="a_edge20_Node000002_Node000014"><a xlink:title=" ">
<path fill="none" stroke="#63b8ff" d="M560.83,-177.79C629.25,-169.77 745.53,-155.48 845,-140 848.09,-139.52 851.24,-139.01 854.43,-138.49"/>
<polygon fill="#63b8ff" stroke="#63b8ff" points="560.2,-174.34 550.68,-178.97 561.01,-181.29 560.2,-174.34"/>
</a>
</g>
</g>
<!-- Node3&#45;&gt;Node4 -->
<g id="edge3_Node000003_Node000004" class="edge">
<title>Node3&#45;&gt;Node4</title>
<g id="a_edge3_Node000003_Node000004"><a xlink:title=" ">
<path fill="none" stroke="#63b8ff" d="M122.78,-53.19C178.46,-43.25 261.74,-28.39 313.91,-19.08"/>
<polygon fill="#63b8ff" stroke="#63b8ff" points="121.95,-49.78 112.72,-54.98 123.18,-56.67 121.95,-49.78"/>
</a>
</g>
</g>
<!-- Node5&#45;&gt;Node4 -->
<g id="edge5_Node000005_Node000004" class="edge">
<title>Node5&#45;&gt;Node4</title>
<g id="a_edge5_Node000005_Node000004"><a xlink:title=" ">
<path fill="none" stroke="#63b8ff" d="M267.18,-51.03C290.11,-41.23 321.45,-27.83 341.71,-19.17"/>
<polygon fill="#63b8ff" stroke="#63b8ff" points="265.74,-47.84 257.92,-54.98 268.49,-54.27 265.74,-47.84"/>
</a>
</g>
</g>
<!-- Node7&#45;&gt;Node4 -->
<g id="edge10_Node000007_Node000004" class="edge">
<title>Node7&#45;&gt;Node4</title>
<g id="a_edge10_Node000007_Node000004"><a xlink:title=" ">
<path fill="none" stroke="#63b8ff" d="M383.89,-111.5C366.27,-103.69 347.17,-91.68 337,-74 326.36,-55.51 343.04,-31.63 353.89,-19.08"/>
<polygon fill="#63b8ff" stroke="#63b8ff" points="382.88,-114.87 393.46,-115.41 385.53,-108.39 382.88,-114.87"/>
</a>
</g>
</g>
<!-- Node8 -->
<g id="Node000008" class="node">
<title>Node8</title>
<g id="a_Node000008"><a xlink:href="../../db/dbb/geometry_8hpp.html" target="_top" xlink:title="Umbrella header for the geometry module.">
<polygon fill="white" stroke="#666666" points="468,-74 346,-74 346,-55 468,-55 468,-74"/>
<text text-anchor="middle" x="407" y="-62" font-family="Helvetica,sans-Serif" font-size="10.00">include/geometry.hpp</text>
</a>
</g>
</g>
<!-- Node7&#45;&gt;Node8 -->
<g id="edge8_Node000007_Node000008" class="edge">
<title>Node7&#45;&gt;Node8</title>
<g id="a_edge8_Node000007_Node000008"><a xlink:title=" ">
<path fill="none" stroke="#63b8ff" d="M417.94,-105.49C415.07,-95.01 411.62,-82.39 409.37,-74.17"/>
<polygon fill="#63b8ff" stroke="#63b8ff" points="414.62,-106.65 420.64,-115.37 421.38,-104.8 414.62,-106.65"/>
</a>
</g>
</g>
<!-- Node8&#45;&gt;Node4 -->
<g id="edge9_Node000008_Node000004" class="edge">
<title>Node8&#45;&gt;Node4</title>
<g id="a_edge9_Node000008_Node000004"><a xlink:title=" ">
<path fill="none" stroke="#63b8ff" d="M392.95,-46.96C385.11,-37.72 375.67,-26.6 369.29,-19.09"/>
<polygon fill="#63b8ff" stroke="#63b8ff" points="390.43,-49.39 399.57,-54.75 395.76,-44.86 390.43,-49.39"/>
</a>
</g>
</g>
<!-- Node9&#45;&gt;Node4 -->
<g id="edge12_Node000009_Node000004" class="edge">
<title>Node9&#45;&gt;Node4</title>
<g id="a_edge12_Node000009_Node000004"><a xlink:title=" ">
<path fill="none" stroke="#63b8ff" d="M505.14,-52.18C471.1,-42.27 422.38,-28.08 391.47,-19.08"/>
<polygon fill="#63b8ff" stroke="#63b8ff" points="504.18,-55.55 514.76,-54.98 506.14,-48.83 504.18,-55.55"/>
</a>
</g>
</g>
<!-- Node10&#45;&gt;Node4 -->
<g id="edge14_Node000010_Node000004" class="edge">
<title>Node10&#45;&gt;Node4</title>
<g id="a_edge14_Node000010_Node000004"><a xlink:title=" ">
<path fill="none" stroke="#63b8ff" d="M622.9,-53.31C562.24,-43.36 470.98,-28.38 414.03,-19.04"/>
<polygon fill="#63b8ff" stroke="#63b8ff" points="622.67,-56.82 633.1,-54.98 623.8,-49.91 622.67,-56.82"/>
</a>
</g>
</g>
<!-- Node11&#45;&gt;Node4 -->
<g id="edge16_Node000011_Node000004" class="edge">
<title>Node11&#45;&gt;Node4</title>
<g id="a_edge16_Node000011_Node000004"><a xlink:title=" ">
<path fill="none" stroke="#63b8ff" d="M758.17,-54.92C632.06,-39.43 497.22,-24.79 421.57,-16.76"/>
<polygon fill="#63b8ff" stroke="#63b8ff" points="758.04,-58.43 768.39,-56.18 758.9,-51.49 758.04,-58.43"/>
</a>
</g>
</g>
<!-- Node15&#45;&gt;Node2 -->
<g id="edge22_Node000015_Node000002" class="edge">
<title>Node15&#45;&gt;Node2</title>
<g id="a_edge22_Node000015_Node000002"><a xlink:title=" ">
<path fill="none" stroke="#63b8ff" d="M413.88,-226.77C436.96,-216.22 464.95,-203.43 483.1,-195.14"/>
<polygon fill="#63b8ff" stroke="#63b8ff" points="412.3,-223.65 404.66,-230.99 415.21,-230.01 412.3,-223.65"/>
</a>
</g>
</g>
<!-- Node16&#45;&gt;Node2 -->
<g id="edge24_Node000016_Node000002" class="edge">
<title>Node16&#45;&gt;Node2</title>
<g id="a_edge24_Node000016_Node000002"><a xlink:title=" ">
<path fill="none" stroke="#63b8ff" d="M502,-220.75C502,-211.72 502,-202.03 502,-195.27"/>
<polygon fill="#63b8ff" stroke="#63b8ff" points="498.5,-220.84 502,-230.84 505.5,-220.84 498.5,-220.84"/>
</a>
</g>
</g>
<!-- Node17&#45;&gt;Node2 -->
<g id="edge26_Node000017_Node000002" class="edge">
<title>Node17&#45;&gt;Node2</title>
<g id="a_edge26_Node000017_Node000002"><a xlink:title=" ">
<path fill="none" stroke="#63b8ff" d="M608.78,-232.43C582.52,-221.14 544.67,-204.86 521.8,-195.02"/>
<polygon fill="#63b8ff" stroke="#63b8ff" points="607.66,-235.76 618.22,-236.49 610.42,-229.33 607.66,-235.76"/>
</a>
</g>
</g>
<!-- Node18&#45;&gt;Node2 -->
<g id="edge28_Node000018_Node000002" class="edge">
<title>Node18&#45;&gt;Node2</title>
<g id="a_edge28_Node000018_Node000002"><a xlink:title=" ">
<path fill="none" stroke="#63b8ff" d="M712.88,-230.56C659.48,-219.4 587.4,-204.34 542.84,-195.03"/>
<polygon fill="#63b8ff" stroke="#63b8ff" points="712.46,-234.05 722.96,-232.67 713.89,-227.19 712.46,-234.05"/>
</a>
</g>
</g>
</g>
</svg>
