<?xml version="1.0" encoding="UTF-8" standalone="no"?>
<!DOCTYPE svg PUBLIC "-//W3C//DTD SVG 1.1//EN"
 "http://www.w3.org/Graphics/SVG/1.1/DTD/svg11.dtd">
<!-- Generated by graphviz version 2.43.0 (0)
 -->
<!-- Title: include/core/string_like.hpp Pages: 1 -->
<svg width="3908pt" height="423pt"
 viewBox="0.00 0.00 3907.89 423.00" xmlns="http://www.w3.org/2000/svg" xmlns:xlink="http://www.w3.org/1999/xlink">
<g id="graph0" class="graph" transform="scale(1 1) rotate(0) translate(4 419)">
<title>include/core/string_like.hpp</title>
<!-- Node1 -->
<g id="Node000001" class="node">
<title>Node1</title>
<g id="a_Node000001"><a xlink:title="Concept for read&#45;only C&#45;string views with explicit length.">
<polygon fill="#999999" stroke="#666666" points="2194.89,-415 2087.89,-415 2087.89,-385 2194.89,-385 2194.89,-415"/>
<text text-anchor="start" x="2095.89" y="-403" font-family="Helvetica,sans-Serif" font-size="10.00">include/core/string</text>
<text text-anchor="middle" x="2141.39" y="-392" font-family="Helvetica,sans-Serif" font-size="10.00">_like.hpp</text>
</a>
</g>
</g>
<!-- Node2 -->
<g id="Node000002" class="node">
<title>Node2</title>
<g id="a_Node000002"><a xlink:href="../../da/d47/core_8hpp.html" target="_top" xlink:title="Umbrella header for the engine core module.">
<polygon fill="white" stroke="#666666" points="2233.89,-217 2136.89,-217 2136.89,-198 2233.89,-198 2233.89,-217"/>
<text text-anchor="middle" x="2185.39" y="-205" font-family="Helvetica,sans-Serif" font-size="10.00">include/core.hpp</text>
</a>
</g>
</g>
<!-- Node1&#45;&gt;Node2 -->
<g id="edge1_Node000001_Node000002" class="edge">
<title>Node1&#45;&gt;Node2</title>
<g id="a_edge1_Node000001_Node000002"><a xlink:title=" ">
<path fill="none" stroke="#63b8ff" d="M2083.32,-381.7C2011.34,-357.35 1903.53,-309.56 1950.39,-253 1973.56,-225.02 2074.87,-214.5 2136.66,-210.64"/>
<polygon fill="#63b8ff" stroke="#63b8ff" points="2082.63,-385.16 2093.22,-384.98 2084.83,-378.51 2082.63,-385.16"/>
</a>
</g>
</g>
<!-- Node34 -->
<g id="Node000034" class="node">
<title>Node34</title>
<g id="a_Node000034"><a xlink:href="../../dd/ded/c__string__view_8hpp.html" target="_top" xlink:title="Non&#45;owning view over null&#45;terminated C strings.">
<polygon fill="white" stroke="#666666" points="2076.89,-283 1959.89,-283 1959.89,-253 2076.89,-253 2076.89,-283"/>
<text text-anchor="start" x="1967.89" y="-271" font-family="Helvetica,sans-Serif" font-size="10.00">include/core/c_string</text>
<text text-anchor="middle" x="2018.39" y="-260" font-family="Helvetica,sans-Serif" font-size="10.00">_view.hpp</text>
</a>
</g>
</g>
<!-- Node1&#45;&gt;Node34 -->
<g id="edge41_Node000001_Node000034" class="edge">
<title>Node1&#45;&gt;Node34</title>
<g id="a_edge41_Node000001_Node000034"><a xlink:title=" ">
<path fill="none" stroke="#63b8ff" d="M2121.04,-377.49C2095.74,-350.76 2053.29,-305.89 2031.77,-283.14"/>
<polygon fill="#63b8ff" stroke="#63b8ff" points="2118.57,-379.98 2127.99,-384.84 2123.66,-375.17 2118.57,-379.98"/>
</a>
</g>
</g>
<!-- Node35 -->
<g id="Node000035" class="node">
<title>Node35</title>
<g id="a_Node000035"><a xlink:href="../../d7/d7f/fixed__string_8hpp.html" target="_top" xlink:title="Fixed&#45;capacity string with stack storage.">
<polygon fill="white" stroke="#666666" points="2197.39,-283 2095.39,-283 2095.39,-253 2197.39,-253 2197.39,-283"/>
<text text-anchor="start" x="2103.39" y="-271" font-family="Helvetica,sans-Serif" font-size="10.00">include/core/fixed</text>
<text text-anchor="middle" x="2146.39" y="-260" font-family="Helvetica,sans-Serif" font-size="10.00">_string.hpp</text>
</a>
</g>
</g>
<!-- Node1&#45;&gt;Node35 -->
<g id="edge43_Node000001_Node000035" class="edge">
<title>Node1&#45;&gt;Node35</title>
<g id="a_edge43_Node000001_Node000035"><a xlink:title=" ">
<path fill="none" stroke="#63b8ff" d="M2142.32,-374.68C2143.36,-347.7 2145,-305.11 2145.84,-283.14"/>
<polygon fill="#63b8ff" stroke="#63b8ff" points="2138.82,-374.71 2141.93,-384.84 2145.81,-374.98 2138.82,-374.71"/>
</a>
</g>
</g>
<!-- Node36 -->
<g id="Node000036" class="node">
<title>Node36</title>
<g id="a_Node000036"><a xlink:href="../../d9/d6a/format__string_8hpp.html" target="_top" xlink:title="Compile&#45;time validated format&#45;string wrapper for auto {} and positional {N} placeholders.">
<polygon fill="white" stroke="#666666" points="2281.39,-349 2169.39,-349 2169.39,-319 2281.39,-319 2281.39,-349"/>
<text text-anchor="start" x="2177.39" y="-337" font-family="Helvetica,sans-Serif" font-size="10.00">include/core/format</text>
<text text-anchor="middle" x="2225.39" y="-326" font-family="Helvetica,sans-Serif" font-size="10.00">_string.hpp</text>
</a>
</g>
</g>
<!-- Node1&#45;&gt;Node36 -->
<g id="edge45_Node000001_Node000036" class="edge">
<title>Node1&#45;&gt;Node36</title>
<g id="a_edge45_Node000001_Node000036"><a xlink:title=" ">
<path fill="none" stroke="#63b8ff" d="M2168.32,-378.48C2180.87,-368.91 2195.5,-357.77 2206.8,-349.16"/>
<polygon fill="#63b8ff" stroke="#63b8ff" points="2165.86,-375.95 2160.03,-384.8 2170.1,-381.52 2165.86,-375.95"/>
</a>
</g>
</g>
<!-- Node38 -->
<g id="Node000038" class="node">
<title>Node38</title>
<g id="a_Node000038"><a xlink:href="../../de/d2d/o__string__stream_8hpp.html" target="_top" xlink:title="Allocator&#45;free output string stream that appends into string&#45;like storage.">
<polygon fill="white" stroke="#666666" points="2417.39,-349 2299.39,-349 2299.39,-319 2417.39,-319 2417.39,-349"/>
<text text-anchor="start" x="2307.39" y="-337" font-family="Helvetica,sans-Serif" font-size="10.00">include/core/o_string</text>
<text text-anchor="middle" x="2358.39" y="-326" font-family="Helvetica,sans-Serif" font-size="10.00">_stream.hpp</text>
</a>
</g>
</g>
<!-- Node1&#45;&gt;Node38 -->
<g id="edge49_Node000001_Node000038" class="edge">
<title>Node1&#45;&gt;Node38</title>
<g id="a_edge49_Node000001_Node000038"><a xlink:title=" ">
<path fill="none" stroke="#63b8ff" d="M2198.61,-382.12C2233.6,-371.8 2277.83,-358.76 2310.88,-349.01"/>
<polygon fill="#63b8ff" stroke="#63b8ff" points="2197.61,-378.77 2189.01,-384.95 2199.59,-385.48 2197.61,-378.77"/>
</a>
</g>
</g>
<!-- Node3 -->
<g id="Node000003" class="node">
<title>Node3</title>
<g id="a_Node000003"><a xlink:href="../../d4/d01/application_8hpp.html" target="_top" xlink:title="Umbrella header for the application module.">
<polygon fill="white" stroke="#666666" points="613.39,-156.5 483.39,-156.5 483.39,-137.5 613.39,-137.5 613.39,-156.5"/>
<text text-anchor="middle" x="548.39" y="-144.5" font-family="Helvetica,sans-Serif" font-size="10.00">include/application.hpp</text>
</a>
</g>
</g>
<!-- Node2&#45;&gt;Node3 -->
<g id="edge2_Node000002_Node000003" class="edge">
<title>Node2&#45;&gt;Node3</title>
<g id="a_edge2_Node000002_Node000003"><a xlink:title=" ">
<path fill="none" stroke="#63b8ff" d="M2126.76,-204.4C1874.02,-195.37 878.41,-159.79 613.45,-150.33"/>
<polygon fill="#63b8ff" stroke="#63b8ff" points="2126.72,-207.91 2136.84,-204.77 2126.97,-200.91 2126.72,-207.91"/>
</a>
</g>
</g>
<!-- Node4 -->
<g id="Node000004" class="node">
<title>Node4</title>
<g id="a_Node000004"><a xlink:href="../../d8/d8c/toygine2_8hpp.html" target="_top" xlink:title="Main umbrella header for the engine.">
<polygon fill="white" stroke="#666666" points="1509.89,-19 1390.89,-19 1390.89,0 1509.89,0 1509.89,-19"/>
<text text-anchor="middle" x="1450.39" y="-7" font-family="Helvetica,sans-Serif" font-size="10.00">include/toygine2.hpp</text>
</a>
</g>
</g>
<!-- Node2&#45;&gt;Node4 -->
<g id="edge27_Node000002_Node000004" class="edge">
<title>Node2&#45;&gt;Node4</title>
<g id="a_edge27_Node000002_Node000004"><a xlink:title=" ">
<path fill="none" stroke="#63b8ff" d="M2126.75,-206.26C1959.81,-205.13 1484.32,-198.68 1333.39,-162 1264.19,-145.19 1226,-155.83 1187.39,-96 1177.5,-80.69 1175.62,-68.92 1187.39,-55 1212.9,-24.8 1321.38,-15.09 1390.8,-11.97"/>
<polygon fill="#63b8ff" stroke="#63b8ff" points="2126.8,-209.76 2136.82,-206.32 2126.85,-202.76 2126.8,-209.76"/>
</a>
</g>
</g>
<!-- Node12 -->
<g id="Node000012" class="node">
<title>Node12</title>
<g id="a_Node000012"><a xlink:href="../../d1/d71/audio_8hpp.html" target="_top" xlink:title="Umbrella header for the audio module.">
<polygon fill="white" stroke="#666666" points="1299.89,-85 1196.89,-85 1196.89,-66 1299.89,-66 1299.89,-85"/>
<text text-anchor="middle" x="1248.39" y="-73" font-family="Helvetica,sans-Serif" font-size="10.00">include/audio.hpp</text>
</a>
</g>
</g>
<!-- Node2&#45;&gt;Node12 -->
<g id="edge11_Node000002_Node000012" class="edge">
<title>Node2&#45;&gt;Node12</title>
<g id="a_edge11_Node000002_Node000012"><a xlink:title=" ">
<path fill="none" stroke="#63b8ff" d="M2126.38,-206.52C1968.45,-206.03 1538.94,-201.05 1403.39,-162 1344.91,-145.16 1284.17,-103.22 1259.64,-85.08"/>
<polygon fill="#63b8ff" stroke="#63b8ff" points="2126.82,-210.02 2136.82,-206.55 2126.83,-203.02 2126.82,-210.02"/>
</a>
</g>
</g>
<!-- Node13 -->
<g id="Node000013" class="node">
<title>Node13</title>
<g id="a_Node000013"><a xlink:href="../../d8/d39/game_8hpp.html" target="_top" xlink:title="Umbrella header for the game module.">
<polygon fill="white" stroke="#666666" points="1422.39,-85 1318.39,-85 1318.39,-66 1422.39,-66 1422.39,-85"/>
<text text-anchor="middle" x="1370.39" y="-73" font-family="Helvetica,sans-Serif" font-size="10.00">include/game.hpp</text>
</a>
</g>
</g>
<!-- Node2&#45;&gt;Node13 -->
<g id="edge13_Node000002_Node000013" class="edge">
<title>Node2&#45;&gt;Node13</title>
<g id="a_edge13_Node000002_Node000013"><a xlink:title=" ">
<path fill="none" stroke="#63b8ff" d="M2126.42,-205.66C1961.19,-202.92 1501.82,-192.6 1441.39,-162 1407.3,-144.74 1383.47,-103.03 1374.42,-85.02"/>
<polygon fill="#63b8ff" stroke="#63b8ff" points="2126.81,-209.16 2136.87,-205.83 2126.92,-202.16 2126.81,-209.16"/>
</a>
</g>
</g>
<!-- Node14 -->
<g id="Node000014" class="node">
<title>Node14</title>
<g id="a_Node000014"><a xlink:href="../../d4/d78/math_8hpp.html" target="_top" xlink:title="Umbrella header for the math module.">
<polygon fill="white" stroke="#666666" points="1551.89,-156.5 1450.89,-156.5 1450.89,-137.5 1551.89,-137.5 1551.89,-156.5"/>
<text text-anchor="middle" x="1501.39" y="-144.5" font-family="Helvetica,sans-Serif" font-size="10.00">include/math.hpp</text>
</a>
</g>
</g>
<!-- Node2&#45;&gt;Node14 -->
<g id="edge15_Node000002_Node000014" class="edge">
<title>Node2&#45;&gt;Node14</title>
<g id="a_edge15_Node000002_Node000014"><a xlink:title=" ">
<path fill="none" stroke="#63b8ff" d="M2126.22,-205.39C2014.99,-202.62 1767.36,-193.18 1561.39,-162 1552.29,-160.62 1542.53,-158.59 1533.59,-156.5"/>
<polygon fill="#63b8ff" stroke="#63b8ff" points="2126.47,-208.9 2136.55,-205.64 2126.64,-201.9 2126.47,-208.9"/>
</a>
</g>
</g>
<!-- Node16 -->
<g id="Node000016" class="node">
<title>Node16</title>
<g id="a_Node000016"><a xlink:href="../../d6/d67/network_8hpp.html" target="_top" xlink:title="Umbrella header for the network module.">
<polygon fill="white" stroke="#666666" points="1686.39,-156.5 1570.39,-156.5 1570.39,-137.5 1686.39,-137.5 1686.39,-156.5"/>
<text text-anchor="middle" x="1628.39" y="-144.5" font-family="Helvetica,sans-Serif" font-size="10.00">include/network.hpp</text>
</a>
</g>
</g>
<!-- Node2&#45;&gt;Node16 -->
<g id="edge19_Node000002_Node000016" class="edge">
<title>Node2&#45;&gt;Node16</title>
<g id="a_edge19_Node000002_Node000016"><a xlink:title=" ">
<path fill="none" stroke="#63b8ff" d="M2126.5,-203.01C2035,-197.17 1853.32,-183.83 1700.39,-162 1690.05,-160.52 1678.95,-158.56 1668.63,-156.57"/>
<polygon fill="#63b8ff" stroke="#63b8ff" points="2126.46,-206.52 2136.67,-203.66 2126.91,-199.53 2126.46,-206.52"/>
</a>
</g>
</g>
<!-- Node18 -->
<g id="Node000018" class="node">
<title>Node18</title>
<g id="a_Node000018"><a xlink:href="../../de/dd6/ui_8hpp.html" target="_top" xlink:title="Umbrella header for platform UI types.">
<polygon fill="white" stroke="#666666" points="1944.39,-85 1814.39,-85 1814.39,-66 1944.39,-66 1944.39,-85"/>
<text text-anchor="middle" x="1879.39" y="-73" font-family="Helvetica,sans-Serif" font-size="10.00">include/platform/ui.hpp</text>
</a>
</g>
</g>
<!-- Node2&#45;&gt;Node18 -->
<g id="edge22_Node000002_Node000018" class="edge">
<title>Node2&#45;&gt;Node18</title>
<g id="a_edge22_Node000002_Node000018"><a xlink:title=" ">
<path fill="none" stroke="#63b8ff" d="M2126.53,-205.02C2010.09,-201.49 1759.31,-190.6 1733.39,-162 1724.43,-152.12 1725.82,-142.98 1733.39,-132 1746.32,-113.25 1805.15,-95.21 1844.07,-85.02"/>
<polygon fill="#63b8ff" stroke="#63b8ff" points="2126.59,-208.52 2136.69,-205.32 2126.8,-201.53 2126.59,-208.52"/>
</a>
</g>
</g>
<!-- Node19 -->
<g id="Node000019" class="node">
<title>Node19</title>
<g id="a_Node000019"><a xlink:href="../../d6/d4b/render_8hpp.html" target="_top" xlink:title="Umbrella header for the render module.">
<polygon fill="white" stroke="#666666" points="1849.89,-156.5 1742.89,-156.5 1742.89,-137.5 1849.89,-137.5 1849.89,-156.5"/>
<text text-anchor="middle" x="1796.39" y="-144.5" font-family="Helvetica,sans-Serif" font-size="10.00">include/render.hpp</text>
</a>
</g>
</g>
<!-- Node2&#45;&gt;Node19 -->
<g id="edge24_Node000002_Node000019" class="edge">
<title>Node2&#45;&gt;Node19</title>
<g id="a_edge24_Node000002_Node000019"><a xlink:title=" ">
<path fill="none" stroke="#63b8ff" d="M2126.55,-200.05C2060.9,-192.5 1951.64,-178.84 1858.39,-162 1849.7,-160.43 1840.39,-158.48 1831.69,-156.53"/>
<polygon fill="#63b8ff" stroke="#63b8ff" points="2126.37,-203.55 2136.7,-201.21 2127.16,-196.6 2126.37,-203.55"/>
</a>
</g>
</g>
<!-- Node21 -->
<g id="Node000021" class="node">
<title>Node21</title>
<g id="a_Node000021"><a xlink:href="../../da/de0/core_8cpp.html" target="_top" xlink:title="Implementation of toy::initialize() and toy::deInitialize() lifecycle functions.">
<polygon fill="white" stroke="#666666" points="1966.89,-156.5 1867.89,-156.5 1867.89,-137.5 1966.89,-137.5 1966.89,-156.5"/>
<text text-anchor="middle" x="1917.39" y="-144.5" font-family="Helvetica,sans-Serif" font-size="10.00">src/core/core.cpp</text>
</a>
</g>
</g>
<!-- Node2&#45;&gt;Node21 -->
<g id="edge28_Node000002_Node000021" class="edge">
<title>Node2&#45;&gt;Node21</title>
<g id="a_edge28_Node000002_Node000021"><a xlink:title=" ">
<path fill="none" stroke="#63b8ff" d="M2133.62,-195.95C2091.07,-187.18 2029.22,-174.2 1975.39,-162 1967.81,-160.28 1959.69,-158.37 1952.01,-156.52"/>
<polygon fill="#63b8ff" stroke="#63b8ff" points="2132.97,-199.39 2143.47,-197.98 2134.38,-192.54 2132.97,-199.39"/>
</a>
</g>
</g>
<!-- Node22 -->
<g id="Node000022" class="node">
<title>Node22</title>
<g id="a_Node000022"><a xlink:href="../../db/d2d/hashes_8cpp.html" target="_top" xlink:title="Table&#45;driven implementations of toy::crc8(), toy::crc16(), and toy::crc32().">
<polygon fill="white" stroke="#666666" points="2097.89,-156.5 1984.89,-156.5 1984.89,-137.5 2097.89,-137.5 2097.89,-156.5"/>
<text text-anchor="middle" x="2041.39" y="-144.5" font-family="Helvetica,sans-Serif" font-size="10.00">src/core/hashes.cpp</text>
</a>
</g>
</g>
<!-- Node2&#45;&gt;Node22 -->
<g id="edge29_Node000002_Node000022" class="edge">
<title>Node2&#45;&gt;Node22</title>
<g id="a_edge29_Node000002_Node000022"><a xlink:title=" ">
<path fill="none" stroke="#63b8ff" d="M2154.82,-194.08C2127,-182.78 2086.68,-166.4 2062.35,-156.52"/>
<polygon fill="#63b8ff" stroke="#63b8ff" points="2153.86,-197.47 2164.45,-197.99 2156.5,-190.99 2153.86,-197.47"/>
</a>
</g>
</g>
<!-- Node23 -->
<g id="Node000023" class="node">
<title>Node23</title>
<g id="a_Node000023"><a xlink:href="../../d8/d34/log__backend_8cpp.html" target="_top" xlink:title="Implementation of toy::log::Backend lifecycle, sink, and timestamp&#45;policy accessors.">
<polygon fill="white" stroke="#666666" points="2254.89,-156.5 2115.89,-156.5 2115.89,-137.5 2254.89,-137.5 2254.89,-156.5"/>
<text text-anchor="middle" x="2185.39" y="-144.5" font-family="Helvetica,sans-Serif" font-size="10.00">src/core/log_backend.cpp</text>
</a>
</g>
</g>
<!-- Node2&#45;&gt;Node23 -->
<g id="edge30_Node000002_Node000023" class="edge">
<title>Node2&#45;&gt;Node23</title>
<g id="a_edge30_Node000002_Node000023"><a xlink:title=" ">
<path fill="none" stroke="#63b8ff" d="M2185.39,-187.66C2185.39,-177.24 2185.39,-164.8 2185.39,-156.67"/>
<polygon fill="#63b8ff" stroke="#63b8ff" points="2181.89,-187.87 2185.39,-197.87 2188.89,-187.87 2181.89,-187.87"/>
</a>
</g>
</g>
<!-- Node24 -->
<g id="Node000024" class="node">
<title>Node24</title>
<g id="a_Node000024"><a xlink:href="../../d2/d51/log__sink_8cpp.html" target="_top" xlink:title="Out&#45;of&#45;line definitions for toy::log::ISink.">
<polygon fill="white" stroke="#666666" points="2391.89,-156.5 2272.89,-156.5 2272.89,-137.5 2391.89,-137.5 2391.89,-156.5"/>
<text text-anchor="middle" x="2332.39" y="-144.5" font-family="Helvetica,sans-Serif" font-size="10.00">src/core/log_sink.cpp</text>
</a>
</g>
</g>
<!-- Node2&#45;&gt;Node24 -->
<g id="edge31_Node000002_Node000024" class="edge">
<title>Node2&#45;&gt;Node24</title>
<g id="a_edge31_Node000002_Node000024"><a xlink:title=" ">
<path fill="none" stroke="#63b8ff" d="M2216.22,-194.23C2244.63,-182.92 2286.04,-166.44 2310.98,-156.52"/>
<polygon fill="#63b8ff" stroke="#63b8ff" points="2214.76,-191.04 2206.76,-197.99 2217.35,-197.55 2214.76,-191.04"/>
</a>
</g>
</g>
<!-- Node25 -->
<g id="Node000025" class="node">
<title>Node25</title>
<g id="a_Node000025"><a xlink:href="../../de/d06/utils_8cpp.html" target="_top" xlink:title="Definitions for string, encoding, and number utilities declared in core/utils.hpp.">
<polygon fill="white" stroke="#666666" points="2508.89,-156.5 2409.89,-156.5 2409.89,-137.5 2508.89,-137.5 2508.89,-156.5"/>
<text text-anchor="middle" x="2459.39" y="-144.5" font-family="Helvetica,sans-Serif" font-size="10.00">src/core/utils.cpp</text>
</a>
</g>
</g>
<!-- Node2&#45;&gt;Node25 -->
<g id="edge32_Node000002_Node000025" class="edge">
<title>Node2&#45;&gt;Node25</title>
<g id="a_edge32_Node000002_Node000025"><a xlink:title=" ">
<path fill="none" stroke="#63b8ff" d="M2238.1,-196.03C2281.69,-187.27 2345.15,-174.27 2400.39,-162 2408.09,-160.29 2416.35,-158.38 2424.17,-156.53"/>
<polygon fill="#63b8ff" stroke="#63b8ff" points="2237.41,-192.6 2228.3,-198 2238.79,-199.46 2237.41,-192.6"/>
</a>
</g>
</g>
<!-- Node26 -->
<g id="Node000026" class="node">
<title>Node26</title>
<g id="a_Node000026"><a xlink:href="../../df/de5/assertion__linux_8cpp.html" target="_top" xlink:title="Linux implementation of the toy::assertion crash handler and stack trace capture.">
<polygon fill="white" stroke="#666666" points="2665.39,-162 2527.39,-162 2527.39,-132 2665.39,-132 2665.39,-162"/>
<text text-anchor="start" x="2535.39" y="-150" font-family="Helvetica,sans-Serif" font-size="10.00">src/platforms/linux</text>
<text text-anchor="middle" x="2596.39" y="-139" font-family="Helvetica,sans-Serif" font-size="10.00">/core/assertion_linux.cpp</text>
</a>
</g>
</g>
<!-- Node2&#45;&gt;Node26 -->
<g id="edge33_Node000002_Node000026" class="edge">
<title>Node2&#45;&gt;Node26</title>
<g id="a_edge33_Node000002_Node000026"><a xlink:title=" ">
<path fill="none" stroke="#63b8ff" d="M2244.31,-199.43C2310.96,-191.26 2422.66,-176.98 2518.39,-162 2521.24,-161.55 2524.15,-161.09 2527.09,-160.6"/>
<polygon fill="#63b8ff" stroke="#63b8ff" points="2243.52,-196.01 2234.01,-200.69 2244.37,-202.95 2243.52,-196.01"/>
</a>
</g>
</g>
<!-- Node27 -->
<g id="Node000027" class="node">
<title>Node27</title>
<g id="a_Node000027"><a xlink:href="../../d5/d5a/assertion__macos_8cpp.html" target="_top" xlink:title="macOS implementation of the toy::assertion crash handler and stack trace capture.">
<polygon fill="white" stroke="#666666" points="2829.39,-162 2683.39,-162 2683.39,-132 2829.39,-132 2829.39,-162"/>
<text text-anchor="start" x="2691.39" y="-150" font-family="Helvetica,sans-Serif" font-size="10.00">src/platforms/macos</text>
<text text-anchor="middle" x="2756.39" y="-139" font-family="Helvetica,sans-Serif" font-size="10.00">/core/assertion_macos.cpp</text>
</a>
</g>
</g>
<!-- Node2&#45;&gt;Node27 -->
<g id="edge34_Node000002_Node000027" class="edge">
<title>Node2&#45;&gt;Node27</title>
<g id="a_edge34_Node000002_Node000027"><a xlink:title=" ">
<path fill="none" stroke="#63b8ff" d="M2244.34,-202.63C2336.39,-196.26 2519.74,-182.21 2674.39,-162 2677.25,-161.63 2680.17,-161.22 2683.11,-160.8"/>
<polygon fill="#63b8ff" stroke="#63b8ff" points="2243.85,-199.16 2234.11,-203.34 2244.33,-206.14 2243.85,-199.16"/>
</a>
</g>
</g>
<!-- Node28 -->
<g id="Node000028" class="node">
<title>Node28</title>
<g id="a_Node000028"><a xlink:href="../../d6/d79/clock__source__posix_8cpp.html" target="_top" xlink:title="Implementation of toy::chrono::ClockSource and toy::chrono::SteadyClock for POSIX.">
<polygon fill="white" stroke="#666666" points="3005.39,-162 2847.39,-162 2847.39,-132 3005.39,-132 3005.39,-162"/>
<text text-anchor="start" x="2855.39" y="-150" font-family="Helvetica,sans-Serif" font-size="10.00">src/platforms/posix</text>
<text text-anchor="middle" x="2926.39" y="-139" font-family="Helvetica,sans-Serif" font-size="10.00">/core/clock_source_posix.cpp</text>
</a>
</g>
</g>
<!-- Node2&#45;&gt;Node28 -->
<g id="edge35_Node000002_Node000028" class="edge">
<title>Node2&#45;&gt;Node28</title>
<g id="a_edge35_Node000002_Node000028"><a xlink:title=" ">
<path fill="none" stroke="#63b8ff" d="M2244.58,-204.25C2359.4,-199.48 2620.23,-186.74 2838.39,-162 2841.31,-161.67 2844.28,-161.31 2847.28,-160.93"/>
<polygon fill="#63b8ff" stroke="#63b8ff" points="2244.11,-200.76 2234.26,-204.67 2244.4,-207.76 2244.11,-200.76"/>
</a>
</g>
</g>
<!-- Node29 -->
<g id="Node000029" class="node">
<title>Node29</title>
<g id="a_Node000029"><a xlink:href="../../db/d09/system__clock__posix_8cpp.html" target="_top" xlink:title="Implementation of toy::chrono::SystemClock for POSIX.">
<polygon fill="white" stroke="#666666" points="3185.39,-162 3023.39,-162 3023.39,-132 3185.39,-132 3185.39,-162"/>
<text text-anchor="start" x="3031.39" y="-150" font-family="Helvetica,sans-Serif" font-size="10.00">src/platforms/posix</text>
<text text-anchor="middle" x="3104.39" y="-139" font-family="Helvetica,sans-Serif" font-size="10.00">/core/system_clock_posix.cpp</text>
</a>
</g>
</g>
<!-- Node2&#45;&gt;Node29 -->
<g id="edge36_Node000002_Node000029" class="edge">
<title>Node2&#45;&gt;Node29</title>
<g id="a_edge36_Node000002_Node000029"><a xlink:title=" ">
<path fill="none" stroke="#63b8ff" d="M2244.31,-205.37C2380.32,-202.33 2726.58,-192.03 3014.39,-162 3017.22,-161.7 3020.09,-161.38 3023,-161.04"/>
<polygon fill="#63b8ff" stroke="#63b8ff" points="2244.03,-201.88 2234.11,-205.6 2244.18,-208.88 2244.03,-201.88"/>
</a>
</g>
</g>
<!-- Node30 -->
<g id="Node000030" class="node">
<title>Node30</title>
<g id="a_Node000030"><a xlink:href="../../d7/d90/assertion__stub_8cpp.html" target="_top" xlink:title="Stub definitions for the assertion callback API declared in core/assertion.hpp.">
<polygon fill="white" stroke="#666666" points="3338.89,-162 3203.89,-162 3203.89,-132 3338.89,-132 3338.89,-162"/>
<text text-anchor="start" x="3211.89" y="-150" font-family="Helvetica,sans-Serif" font-size="10.00">src/platforms/stub</text>
<text text-anchor="middle" x="3271.39" y="-139" font-family="Helvetica,sans-Serif" font-size="10.00">/core/assertion_stub.cpp</text>
</a>
</g>
</g>
<!-- Node2&#45;&gt;Node30 -->
<g id="edge37_Node000002_Node000030" class="edge">
<title>Node2&#45;&gt;Node30</title>
<g id="a_edge37_Node000002_Node000030"><a xlink:title=" ">
<path fill="none" stroke="#63b8ff" d="M2244.43,-206.69C2400.24,-206.59 2835.2,-202.39 3194.39,-162 3197.49,-161.65 3200.66,-161.25 3203.86,-160.81"/>
<polygon fill="#63b8ff" stroke="#63b8ff" points="2244.13,-203.19 2234.13,-206.69 2244.14,-210.19 2244.13,-203.19"/>
</a>
</g>
</g>
<!-- Node31 -->
<g id="Node000031" class="node">
<title>Node31</title>
<g id="a_Node000031"><a xlink:href="../../d4/dbf/clock__source__stub_8cpp.html" target="_top" xlink:title="Stub implementations of toy::chrono::ClockSource, toy::chrono::SteadyClock, and toy::chrono::SystemCl...">
<polygon fill="white" stroke="#666666" points="3509.89,-162 3356.89,-162 3356.89,-132 3509.89,-132 3509.89,-162"/>
<text text-anchor="start" x="3364.89" y="-150" font-family="Helvetica,sans-Serif" font-size="10.00">src/platforms/stub</text>
<text text-anchor="middle" x="3433.39" y="-139" font-family="Helvetica,sans-Serif" font-size="10.00">/core/clock_source_stub.cpp</text>
</a>
</g>
</g>
<!-- Node2&#45;&gt;Node31 -->
<g id="edge38_Node000002_Node000031" class="edge">
<title>Node2&#45;&gt;Node31</title>
<g id="a_edge38_Node000002_Node000031"><a xlink:title=" ">
<path fill="none" stroke="#63b8ff" d="M2244.04,-206.84C2414.86,-207.28 2926.54,-204.64 3348.39,-162 3351.06,-161.73 3353.79,-161.43 3356.53,-161.1"/>
<polygon fill="#63b8ff" stroke="#63b8ff" points="2244.02,-203.34 2234.01,-206.81 2244,-210.34 2244.02,-203.34"/>
</a>
</g>
</g>
<!-- Node32 -->
<g id="Node000032" class="node">
<title>Node32</title>
<g id="a_Node000032"><a xlink:href="../../d0/db3/clock__source__windows_8cpp.html" target="_top" xlink:title="Implementation of toy::chrono::ClockSource and toy::chrono::SteadyClock for Windows.">
<polygon fill="white" stroke="#666666" points="3702.89,-162 3527.89,-162 3527.89,-132 3702.89,-132 3702.89,-162"/>
<text text-anchor="start" x="3535.89" y="-150" font-family="Helvetica,sans-Serif" font-size="10.00">src/platforms/windows</text>
<text text-anchor="middle" x="3615.39" y="-139" font-family="Helvetica,sans-Serif" font-size="10.00">/core/clock_source_windows.cpp</text>
</a>
</g>
</g>
<!-- Node2&#45;&gt;Node32 -->
<g id="edge39_Node000002_Node000032" class="edge">
<title>Node2&#45;&gt;Node32</title>
<g id="a_edge39_Node000002_Node000032"><a xlink:title=" ">
<path fill="none" stroke="#63b8ff" d="M2244.11,-206.87C2430.88,-207.56 3027.83,-205.9 3519.39,-162 3522.15,-161.75 3524.96,-161.48 3527.8,-161.18"/>
<polygon fill="#63b8ff" stroke="#63b8ff" points="2243.98,-203.37 2233.96,-206.83 2243.95,-210.37 2243.98,-203.37"/>
</a>
</g>
</g>
<!-- Node33 -->
<g id="Node000033" class="node">
<title>Node33</title>
<g id="a_Node000033"><a xlink:href="../../d4/d3a/system__clock__windows_8cpp.html" target="_top" xlink:title="Implementation of toy::chrono::SystemClock for Windows.">
<polygon fill="white" stroke="#666666" points="3899.89,-162 3720.89,-162 3720.89,-132 3899.89,-132 3899.89,-162"/>
<text text-anchor="start" x="3728.89" y="-150" font-family="Helvetica,sans-Serif" font-size="10.00">src/platforms/windows</text>
<text text-anchor="middle" x="3810.39" y="-139" font-family="Helvetica,sans-Serif" font-size="10.00">/core/system_clock_windows.cpp</text>
</a>
</g>
</g>
<!-- Node2&#45;&gt;Node33 -->
<g id="edge40_Node000002_Node000033" class="edge">
<title>Node2&#45;&gt;Node33</title>
<g id="a_edge40_Node000002_Node000033"><a xlink:title=" ">
<path fill="none" stroke="#63b8ff" d="M2244.13,-205.68C2487.71,-202.12 3419.32,-187.12 3712.39,-162 3715.13,-161.77 3717.91,-161.5 3720.71,-161.22"/>
<polygon fill="#63b8ff" stroke="#63b8ff" points="2244.01,-202.18 2234.06,-205.82 2244.11,-209.18 2244.01,-202.18"/>
</a>
</g>
</g>
<!-- Node3&#45;&gt;Node4 -->
<g id="edge3_Node000003_Node000004" class="edge">
<title>Node3&#45;&gt;Node4</title>
<g id="a_edge3_Node000003_Node000004"><a xlink:title=" ">
<path fill="none" stroke="#63b8ff" d="M472.97,-144.52C332.01,-140.96 40,-129.58 9.39,-96 -2.89,-82.53 -3.3,-68.08 9.39,-55 33.81,-29.81 1121.17,-14.61 1390.51,-11.22"/>
<polygon fill="#63b8ff" stroke="#63b8ff" points="473.18,-148.02 483.26,-144.77 473.35,-141.03 473.18,-148.02"/>
</a>
</g>
</g>
<!-- Node5 -->
<g id="Node000005" class="node">
<title>Node5</title>
<g id="a_Node000005"><a xlink:href="../../db/db6/console__application_8cpp.html" target="_top" xlink:title="Implementations for toy::application::ConsoleApplication.">
<polygon fill="white" stroke="#666666" points="146.39,-90.5 18.39,-90.5 18.39,-60.5 146.39,-60.5 146.39,-90.5"/>
<text text-anchor="start" x="26.39" y="-78.5" font-family="Helvetica,sans-Serif" font-size="10.00">src/application/console</text>
<text text-anchor="middle" x="82.39" y="-67.5" font-family="Helvetica,sans-Serif" font-size="10.00">_application.cpp</text>
</a>
</g>
</g>
<!-- Node3&#45;&gt;Node5 -->
<g id="edge4_Node000003_Node000005" class="edge">
<title>Node3&#45;&gt;Node5</title>
<g id="a_edge4_Node000003_Node000005"><a xlink:title=" ">
<path fill="none" stroke="#63b8ff" d="M472.88,-139.44C393.4,-131.82 264.87,-117.49 155.39,-96 147.53,-94.46 139.28,-92.55 131.26,-90.52"/>
<polygon fill="#63b8ff" stroke="#63b8ff" points="473,-142.96 483.28,-140.42 473.66,-135.99 473,-142.96"/>
</a>
</g>
</g>
<!-- Node6 -->
<g id="Node000006" class="node">
<title>Node6</title>
<g id="a_Node000006"><a xlink:href="../../d0/dbb/core__application_8cpp.html" target="_top" xlink:title="Implementations for toy::application::CoreApplication.">
<polygon fill="white" stroke="#666666" points="276.39,-90.5 164.39,-90.5 164.39,-60.5 276.39,-60.5 276.39,-90.5"/>
<text text-anchor="start" x="172.39" y="-78.5" font-family="Helvetica,sans-Serif" font-size="10.00">src/application/core</text>
<text text-anchor="middle" x="220.39" y="-67.5" font-family="Helvetica,sans-Serif" font-size="10.00">_application.cpp</text>
</a>
</g>
</g>
<!-- Node3&#45;&gt;Node6 -->
<g id="edge5_Node000003_Node000006" class="edge">
<title>Node3&#45;&gt;Node6</title>
<g id="a_edge5_Node000003_Node000006"><a xlink:title=" ">
<path fill="none" stroke="#63b8ff" d="M484.61,-135.78C431.11,-126.75 352.83,-112.48 285.39,-96 278.75,-94.38 271.78,-92.49 264.98,-90.54"/>
<polygon fill="#63b8ff" stroke="#63b8ff" points="484.2,-139.26 494.64,-137.46 485.36,-132.36 484.2,-139.26"/>
</a>
</g>
</g>
<!-- Node7 -->
<g id="Node000007" class="node">
<title>Node7</title>
<g id="a_Node000007"><a xlink:href="../../d0/d8a/core__application__linux_8cpp.html" target="_top" xlink:title="Linux implementations of toy::application::CoreApplication via POSIX APIs.">
<polygon fill="white" stroke="#666666" points="451.89,-96 294.89,-96 294.89,-55 451.89,-55 451.89,-96"/>
<text text-anchor="start" x="302.89" y="-84" font-family="Helvetica,sans-Serif" font-size="10.00">src/platforms/linux</text>
<text text-anchor="start" x="302.89" y="-73" font-family="Helvetica,sans-Serif" font-size="10.00">/application/core_application</text>
<text text-anchor="middle" x="373.39" y="-62" font-family="Helvetica,sans-Serif" font-size="10.00">_linux.cpp</text>
</a>
</g>
</g>
<!-- Node3&#45;&gt;Node7 -->
<g id="edge6_Node000003_Node000007" class="edge">
<title>Node3&#45;&gt;Node7</title>
<g id="a_edge6_Node000003_Node000007"><a xlink:title=" ">
<path fill="none" stroke="#63b8ff" d="M517.48,-133.73C491.21,-123.29 453.02,-108.13 422.55,-96.03"/>
<polygon fill="#63b8ff" stroke="#63b8ff" points="516.34,-137.04 526.93,-137.48 518.93,-130.53 516.34,-137.04"/>
</a>
</g>
</g>
<!-- Node8 -->
<g id="Node000008" class="node">
<title>Node8</title>
<g id="a_Node000008"><a xlink:href="../../d8/d89/core__application__macos_8cpp.html" target="_top" xlink:title="macOS implementations of toy::application::CoreApplication via POSIX APIs.">
<polygon fill="white" stroke="#666666" points="626.89,-96 469.89,-96 469.89,-55 626.89,-55 626.89,-96"/>
<text text-anchor="start" x="477.89" y="-84" font-family="Helvetica,sans-Serif" font-size="10.00">src/platforms/macos</text>
<text text-anchor="start" x="477.89" y="-73" font-family="Helvetica,sans-Serif" font-size="10.00">/application/core_application</text>
<text text-anchor="middle" x="548.39" y="-62" font-family="Helvetica,sans-Serif" font-size="10.00">_macos.cpp</text>
</a>
</g>
</g>
<!-- Node3&#45;&gt;Node8 -->
<g id="edge7_Node000003_Node000008" class="edge">
<title>Node3&#45;&gt;Node8</title>
<g id="a_edge7_Node000003_Node000008"><a xlink:title=" ">
<path fill="none" stroke="#63b8ff" d="M548.39,-127.38C548.39,-117.74 548.39,-105.96 548.39,-96.17"/>
<polygon fill="#63b8ff" stroke="#63b8ff" points="544.89,-127.48 548.39,-137.48 551.89,-127.48 544.89,-127.48"/>
</a>
</g>
</g>
<!-- Node9 -->
<g id="Node000009" class="node">
<title>Node9</title>
<g id="a_Node000009"><a xlink:href="../../db/da8/core__application__stub_8cpp.html" target="_top" xlink:title="Stub implementation of toy::application::CoreApplication::sleep() for platforms without OS sleep supp...">
<polygon fill="white" stroke="#666666" points="801.89,-96 644.89,-96 644.89,-55 801.89,-55 801.89,-96"/>
<text text-anchor="start" x="652.89" y="-84" font-family="Helvetica,sans-Serif" font-size="10.00">src/platforms/stub</text>
<text text-anchor="start" x="652.89" y="-73" font-family="Helvetica,sans-Serif" font-size="10.00">/application/core_application</text>
<text text-anchor="middle" x="723.39" y="-62" font-family="Helvetica,sans-Serif" font-size="10.00">_stub.cpp</text>
</a>
</g>
</g>
<!-- Node3&#45;&gt;Node9 -->
<g id="edge8_Node000003_Node000009" class="edge">
<title>Node3&#45;&gt;Node9</title>
<g id="a_edge8_Node000003_Node000009"><a xlink:title=" ">
<path fill="none" stroke="#63b8ff" d="M579.29,-133.73C605.56,-123.29 643.75,-108.13 674.22,-96.03"/>
<polygon fill="#63b8ff" stroke="#63b8ff" points="577.85,-130.53 569.84,-137.48 580.43,-137.04 577.85,-130.53"/>
</a>
</g>
</g>
<!-- Node10 -->
<g id="Node000010" class="node">
<title>Node10</title>
<g id="a_Node000010"><a xlink:href="../../df/dd0/console__application__windows_8cpp.html" target="_top" xlink:title="Windows console entry&#45;point argument conversion from UTF&#45;16 to UTF&#45;8.">
<polygon fill="white" stroke="#666666" points="964.39,-96 820.39,-96 820.39,-55 964.39,-55 964.39,-96"/>
<text text-anchor="start" x="828.39" y="-84" font-family="Helvetica,sans-Serif" font-size="10.00">src/platforms/windows</text>
<text text-anchor="start" x="828.39" y="-73" font-family="Helvetica,sans-Serif" font-size="10.00">/application/console</text>
<text text-anchor="middle" x="892.39" y="-62" font-family="Helvetica,sans-Serif" font-size="10.00">_application_windows.cpp</text>
</a>
</g>
</g>
<!-- Node3&#45;&gt;Node10 -->
<g id="edge9_Node000003_Node000010" class="edge">
<title>Node3&#45;&gt;Node10</title>
<g id="a_edge9_Node000003_Node000010"><a xlink:title=" ">
<path fill="none" stroke="#63b8ff" d="M606.74,-135.64C659.93,-126.01 740.62,-110.94 810.39,-96 813.53,-95.33 816.75,-94.62 819.99,-93.9"/>
<polygon fill="#63b8ff" stroke="#63b8ff" points="606.02,-132.21 596.81,-137.43 607.27,-139.1 606.02,-132.21"/>
</a>
</g>
</g>
<!-- Node11 -->
<g id="Node000011" class="node">
<title>Node11</title>
<g id="a_Node000011"><a xlink:href="../../dc/d2d/core__application__windows_8cpp.html" target="_top" xlink:title="Windows implementations of toy::application::CoreApplication via Win32 APIs.">
<polygon fill="white" stroke="#666666" points="1139.89,-96 982.89,-96 982.89,-55 1139.89,-55 1139.89,-96"/>
<text text-anchor="start" x="990.89" y="-84" font-family="Helvetica,sans-Serif" font-size="10.00">src/platforms/windows</text>
<text text-anchor="start" x="990.89" y="-73" font-family="Helvetica,sans-Serif" font-size="10.00">/application/core_application</text>
<text text-anchor="middle" x="1061.39" y="-62" font-family="Helvetica,sans-Serif" font-size="10.00">_windows.cpp</text>
</a>
</g>
</g>
<!-- Node3&#45;&gt;Node11 -->
<g id="edge10_Node000003_Node000011" class="edge">
<title>Node3&#45;&gt;Node11</title>
<g id="a_edge10_Node000003_Node000011"><a xlink:title=" ">
<path fill="none" stroke="#63b8ff" d="M623.58,-139.47C708.77,-131.53 851.61,-116.6 973.39,-96 976.47,-95.48 979.61,-94.92 982.78,-94.33"/>
<polygon fill="#63b8ff" stroke="#63b8ff" points="623.11,-136 613.48,-140.4 623.76,-142.97 623.11,-136"/>
</a>
</g>
</g>
<!-- Node12&#45;&gt;Node4 -->
<g id="edge12_Node000012_Node000004" class="edge">
<title>Node12&#45;&gt;Node4</title>
<g id="a_edge12_Node000012_Node000004"><a xlink:title=" ">
<path fill="none" stroke="#63b8ff" d="M1284.71,-62.86C1292.83,-60.27 1301.4,-57.54 1309.39,-55 1349.02,-42.41 1394.95,-27.93 1423.35,-19"/>
<polygon fill="#63b8ff" stroke="#63b8ff" points="1283.56,-59.56 1275.1,-65.94 1285.69,-66.22 1283.56,-59.56"/>
</a>
</g>
</g>
<!-- Node13&#45;&gt;Node4 -->
<g id="edge14_Node000013_Node000004" class="edge">
<title>Node13&#45;&gt;Node4</title>
<g id="a_edge14_Node000013_Node000004"><a xlink:title=" ">
<path fill="none" stroke="#63b8ff" d="M1389.15,-59.49C1404.81,-46.96 1426.59,-29.54 1439.51,-19.2"/>
<polygon fill="#63b8ff" stroke="#63b8ff" points="1386.8,-56.89 1381.17,-65.87 1391.17,-62.35 1386.8,-56.89"/>
</a>
</g>
</g>
<!-- Node14&#45;&gt;Node4 -->
<g id="edge18_Node000014_Node000004" class="edge">
<title>Node14&#45;&gt;Node4</title>
<g id="a_edge18_Node000014_Node000004"><a xlink:title=" ">
<path fill="none" stroke="#63b8ff" d="M1488.39,-129.01C1481.83,-119.71 1474.25,-107.71 1469.39,-96 1458.24,-69.18 1453.15,-34.79 1451.28,-19.05"/>
<polygon fill="#63b8ff" stroke="#63b8ff" points="1485.74,-131.32 1494.47,-137.32 1491.38,-127.18 1485.74,-131.32"/>
</a>
</g>
</g>
<!-- Node15 -->
<g id="Node000015" class="node">
<title>Node15</title>
<g id="a_Node000015"><a xlink:href="../../db/dbb/geometry_8hpp.html" target="_top" xlink:title="Umbrella header for the geometry module.">
<polygon fill="white" stroke="#666666" points="1600.39,-85 1478.39,-85 1478.39,-66 1600.39,-66 1600.39,-85"/>
<text text-anchor="middle" x="1539.39" y="-73" font-family="Helvetica,sans-Serif" font-size="10.00">include/geometry.hpp</text>
</a>
</g>
</g>
<!-- Node14&#45;&gt;Node15 -->
<g id="edge16_Node000014_Node000015" class="edge">
<title>Node14&#45;&gt;Node15</title>
<g id="a_edge16_Node000014_Node000015"><a xlink:title=" ">
<path fill="none" stroke="#63b8ff" d="M1510.99,-128.43C1518.56,-114.58 1528.8,-95.86 1534.69,-85.09"/>
<polygon fill="#63b8ff" stroke="#63b8ff" points="1507.77,-127.02 1506.05,-137.48 1513.91,-130.38 1507.77,-127.02"/>
</a>
</g>
</g>
<!-- Node15&#45;&gt;Node4 -->
<g id="edge17_Node000015_Node000004" class="edge">
<title>Node15&#45;&gt;Node4</title>
<g id="a_edge17_Node000015_Node000004"><a xlink:title=" ">
<path fill="none" stroke="#63b8ff" d="M1518.99,-59.83C1501.53,-47.28 1476.99,-29.63 1462.48,-19.2"/>
<polygon fill="#63b8ff" stroke="#63b8ff" points="1517.22,-62.87 1527.38,-65.87 1521.31,-57.19 1517.22,-62.87"/>
</a>
</g>
</g>
<!-- Node16&#45;&gt;Node4 -->
<g id="edge20_Node000016_Node000004" class="edge">
<title>Node16&#45;&gt;Node4</title>
<g id="a_edge20_Node000016_Node000004"><a xlink:title=" ">
<path fill="none" stroke="#63b8ff" d="M1629.78,-127.22C1630.22,-106.81 1627.62,-74.5 1609.39,-55 1584.03,-27.89 1543.64,-16.82 1509.92,-12.5"/>
<polygon fill="#63b8ff" stroke="#63b8ff" points="1626.27,-127.27 1629.28,-137.43 1633.27,-127.61 1626.27,-127.27"/>
</a>
</g>
</g>
<!-- Node17 -->
<g id="Node000017" class="node">
<title>Node17</title>
<g id="a_Node000017"><a xlink:href="../../d3/d80/endpoint_8cpp.html" target="_top" xlink:title="Definitions for the toy::network::Endpoint destructor declared in network/endpoint....">
<polygon fill="white" stroke="#666666" points="1796.39,-85 1656.39,-85 1656.39,-66 1796.39,-66 1796.39,-85"/>
<text text-anchor="middle" x="1726.39" y="-73" font-family="Helvetica,sans-Serif" font-size="10.00">src/network/endpoint.cpp</text>
</a>
</g>
</g>
<!-- Node16&#45;&gt;Node17 -->
<g id="edge21_Node000016_Node000017" class="edge">
<title>Node16&#45;&gt;Node17</title>
<g id="a_edge21_Node000016_Node000017"><a xlink:title=" ">
<path fill="none" stroke="#63b8ff" d="M1648.73,-131.57C1668.52,-117.54 1697.91,-96.7 1714.27,-85.09"/>
<polygon fill="#63b8ff" stroke="#63b8ff" points="1646.53,-128.84 1640.4,-137.48 1650.58,-134.55 1646.53,-128.84"/>
</a>
</g>
</g>
<!-- Node18&#45;&gt;Node4 -->
<g id="edge23_Node000018_Node000004" class="edge">
<title>Node18&#45;&gt;Node4</title>
<g id="a_edge23_Node000018_Node000004"><a xlink:title=" ">
<path fill="none" stroke="#63b8ff" d="M1840.45,-63.2C1829.21,-60.22 1816.87,-57.22 1805.39,-55 1702.48,-35.08 1580.99,-22.09 1510.13,-15.54"/>
<polygon fill="#63b8ff" stroke="#63b8ff" points="1839.85,-66.67 1850.42,-65.91 1841.69,-59.91 1839.85,-66.67"/>
</a>
</g>
</g>
<!-- Node19&#45;&gt;Node4 -->
<g id="edge25_Node000019_Node000004" class="edge">
<title>Node19&#45;&gt;Node4</title>
<g id="a_edge25_Node000019_Node000004"><a xlink:title=" ">
<path fill="none" stroke="#63b8ff" d="M1840.17,-134.88C1884.17,-123.27 1946.47,-105.45 1953.39,-96 1964.14,-81.29 1965.69,-68.44 1953.39,-55 1923.97,-22.87 1637.05,-13.81 1510.19,-11.36"/>
<polygon fill="#63b8ff" stroke="#63b8ff" points="1839.04,-131.56 1830.25,-137.48 1840.81,-138.33 1839.04,-131.56"/>
</a>
</g>
</g>
<!-- Node20 -->
<g id="Node000020" class="node">
<title>Node20</title>
<g id="a_Node000020"><a xlink:href="../../db/d3d/pixel__format_8cpp.html" target="_top" xlink:title="Definitions for pixelFormatName() and pixelFormatFromName() declared in render/pixel_format....">
<polygon fill="white" stroke="#666666" points="2150.39,-85 2000.39,-85 2000.39,-66 2150.39,-66 2150.39,-85"/>
<text text-anchor="middle" x="2075.39" y="-73" font-family="Helvetica,sans-Serif" font-size="10.00">src/render/pixel_format.cpp</text>
</a>
</g>
</g>
<!-- Node19&#45;&gt;Node20 -->
<g id="edge26_Node000019_Node000020" class="edge">
<title>Node19&#45;&gt;Node20</title>
<g id="a_edge26_Node000019_Node000020"><a xlink:title=" ">
<path fill="none" stroke="#63b8ff" d="M1840.5,-135.01C1896.05,-121.17 1990.32,-97.69 2040.89,-85.09"/>
<polygon fill="#63b8ff" stroke="#63b8ff" points="1839.45,-131.66 1830.6,-137.48 1841.15,-138.46 1839.45,-131.66"/>
</a>
</g>
</g>
<!-- Node34&#45;&gt;Node2 -->
<g id="edge42_Node000034_Node000002" class="edge">
<title>Node34&#45;&gt;Node2</title>
<g id="a_edge42_Node000034_Node000002"><a xlink:title=" ">
<path fill="none" stroke="#63b8ff" d="M2068.02,-249.61C2098.58,-238.91 2136.41,-225.65 2160.72,-217.14"/>
<polygon fill="#63b8ff" stroke="#63b8ff" points="2066.67,-246.38 2058.39,-252.99 2068.98,-252.98 2066.67,-246.38"/>
</a>
</g>
</g>
<!-- Node35&#45;&gt;Node2 -->
<g id="edge44_Node000035_Node000002" class="edge">
<title>Node35&#45;&gt;Node2</title>
<g id="a_edge44_Node000035_Node000002"><a xlink:title=" ">
<path fill="none" stroke="#63b8ff" d="M2161.38,-244.51C2167.72,-234.99 2174.74,-224.47 2179.54,-217.27"/>
<polygon fill="#63b8ff" stroke="#63b8ff" points="2158.46,-242.58 2155.83,-252.84 2164.29,-246.46 2158.46,-242.58"/>
</a>
</g>
</g>
<!-- Node36&#45;&gt;Node2 -->
<g id="edge46_Node000036_Node000002" class="edge">
<title>Node36&#45;&gt;Node2</title>
<g id="a_edge46_Node000036_Node000002"><a xlink:title=" ">
<path fill="none" stroke="#63b8ff" d="M2220.98,-308.71C2217.74,-292.66 2212.79,-271.28 2206.39,-253 2201.87,-240.1 2194.79,-225.94 2190.12,-217.14"/>
<polygon fill="#63b8ff" stroke="#63b8ff" points="2217.62,-309.72 2222.95,-318.87 2224.49,-308.39 2217.62,-309.72"/>
</a>
</g>
</g>
<!-- Node37 -->
<g id="Node000037" class="node">
<title>Node37</title>
<g id="a_Node000037"><a xlink:href="../../d4/d0a/format_8hpp.html" target="_top" xlink:title="Format functions for substituting arguments into {} and {N} placeholders.">
<polygon fill="white" stroke="#666666" points="2386.89,-277.5 2253.89,-277.5 2253.89,-258.5 2386.89,-258.5 2386.89,-277.5"/>
<text text-anchor="middle" x="2320.39" y="-265.5" font-family="Helvetica,sans-Serif" font-size="10.00">include/core/format.hpp</text>
</a>
</g>
</g>
<!-- Node36&#45;&gt;Node37 -->
<g id="edge47_Node000036_Node000037" class="edge">
<title>Node36&#45;&gt;Node37</title>
<g id="a_edge47_Node000036_Node000037"><a xlink:title=" ">
<path fill="none" stroke="#63b8ff" d="M2254.78,-313.2C2272.46,-301.29 2294.07,-286.73 2307.53,-277.66"/>
<polygon fill="#63b8ff" stroke="#63b8ff" points="2252.81,-310.31 2246.47,-318.8 2256.72,-316.11 2252.81,-310.31"/>
</a>
</g>
</g>
<!-- Node37&#45;&gt;Node2 -->
<g id="edge48_Node000037_Node000002" class="edge">
<title>Node37&#45;&gt;Node2</title>
<g id="a_edge48_Node000037_Node000002"><a xlink:title=" ">
<path fill="none" stroke="#63b8ff" d="M2291.38,-254.43C2265.32,-243.14 2227.75,-226.86 2205.04,-217.02"/>
<polygon fill="#63b8ff" stroke="#63b8ff" points="2290.19,-257.73 2300.76,-258.49 2292.97,-251.31 2290.19,-257.73"/>
</a>
</g>
</g>
<!-- Node38&#45;&gt;Node2 -->
<g id="edge50_Node000038_Node000002" class="edge">
<title>Node38&#45;&gt;Node2</title>
<g id="a_edge50_Node000038_Node000002"><a xlink:title=" ">
<path fill="none" stroke="#63b8ff" d="M2380.77,-311.03C2395.42,-293.97 2409.46,-270.37 2395.39,-253 2375.5,-228.46 2289.89,-216.91 2234.3,-211.9"/>
<polygon fill="#63b8ff" stroke="#63b8ff" points="2377.81,-309.08 2373.65,-318.82 2382.98,-313.8 2377.81,-309.08"/>
</a>
</g>
</g>
<!-- Node38&#45;&gt;Node37 -->
<g id="edge51_Node000038_Node000037" class="edge">
<title>Node38&#45;&gt;Node37</title>
<g id="a_edge51_Node000038_Node000037"><a xlink:title=" ">
<path fill="none" stroke="#63b8ff" d="M2344.7,-309.95C2338.09,-298.81 2330.54,-286.11 2325.64,-277.84"/>
<polygon fill="#63b8ff" stroke="#63b8ff" points="2341.84,-311.98 2349.95,-318.8 2347.86,-308.41 2341.84,-311.98"/>
</a>
</g>
</g>
</g>
</svg>
