<?xml version="1.0" encoding="UTF-8" standalone="no"?>
<!DOCTYPE svg PUBLIC "-//W3C//DTD SVG 1.1//EN"
 "http://www.w3.org/Graphics/SVG/1.1/DTD/svg11.dtd">
<!-- Generated by graphviz version 2.43.0 (0)
 -->
<!-- Title: include/core/string_like.hpp Pages: 1 -->
<svg width="4086pt" height="423pt"
 viewBox="0.00 0.00 4085.92 423.00" xmlns="http://www.w3.org/2000/svg" xmlns:xlink="http://www.w3.org/1999/xlink">
<g id="page0,1_graph0" class="graph" transform="scale(1 1) rotate(0) translate(4 419)">
<title>include/core/string_like.hpp</title>
<!-- Node1 -->
<g id="Node000001" class="node">
<title>Node1</title>
<g id="a_Node000001"><a xlink:title="Concept for read&#45;only C&#45;string views with explicit length.">
<polygon fill="#999999" stroke="#666666" points="2372.92,-415 2265.92,-415 2265.92,-385 2372.92,-385 2372.92,-415"/>
<text text-anchor="start" x="2273.92" y="-403" font-family="Helvetica,sans-Serif" font-size="10.00">include/core/string</text>
<text text-anchor="middle" x="2319.42" y="-392" font-family="Helvetica,sans-Serif" font-size="10.00">_like.hpp</text>
</a>
</g>
</g>
<!-- Node2 -->
<g id="Node000002" class="node">
<title>Node2</title>
<g id="a_Node000002"><a xlink:href="../../da/d47/core_8hpp.html" target="_top" xlink:title="Umbrella header for the engine core module.">
<polygon fill="white" stroke="#666666" points="2411.92,-217 2314.92,-217 2314.92,-198 2411.92,-198 2411.92,-217"/>
<text text-anchor="middle" x="2363.42" y="-205" font-family="Helvetica,sans-Serif" font-size="10.00">include/core.hpp</text>
</a>
</g>
</g>
<!-- Node1&#45;&gt;Node2 -->
<g id="edge1_Node000001_Node000002" class="edge">
<title>Node1&#45;&gt;Node2</title>
<g id="a_edge1_Node000001_Node000002"><a xlink:title=" ">
<path fill="none" stroke="#63b8ff" d="M2261.36,-381.7C2189.38,-357.35 2081.57,-309.56 2128.42,-253 2151.6,-225.02 2252.91,-214.5 2314.69,-210.64"/>
<polygon fill="#63b8ff" stroke="#63b8ff" points="2260.67,-385.16 2271.26,-384.98 2262.87,-378.51 2260.67,-385.16"/>
</a>
</g>
</g>
<!-- Node35 -->
<g id="Node000035" class="node">
<title>Node35</title>
<g id="a_Node000035"><a xlink:href="../../dd/ded/c__string__view_8hpp.html" target="_top" xlink:title="Non&#45;owning view over null&#45;terminated C strings.">
<polygon fill="white" stroke="#666666" points="2254.92,-283 2137.92,-283 2137.92,-253 2254.92,-253 2254.92,-283"/>
<text text-anchor="start" x="2145.92" y="-271" font-family="Helvetica,sans-Serif" font-size="10.00">include/core/c_string</text>
<text text-anchor="middle" x="2196.42" y="-260" font-family="Helvetica,sans-Serif" font-size="10.00">_view.hpp</text>
</a>
</g>
</g>
<!-- Node1&#45;&gt;Node35 -->
<g id="edge42_Node000001_Node000035" class="edge">
<title>Node1&#45;&gt;Node35</title>
<g id="a_edge42_Node000001_Node000035"><a xlink:title=" ">
<path fill="none" stroke="#63b8ff" d="M2299.07,-377.49C2273.78,-350.76 2231.33,-305.89 2209.8,-283.14"/>
<polygon fill="#63b8ff" stroke="#63b8ff" points="2296.61,-379.98 2306.03,-384.84 2301.7,-375.17 2296.61,-379.98"/>
</a>
</g>
</g>
<!-- Node36 -->
<g id="Node000036" class="node">
<title>Node36</title>
<g id="a_Node000036"><a xlink:href="../../d7/d7f/fixed__string_8hpp.html" target="_top" xlink:title="Fixed&#45;capacity string with stack storage.">
<polygon fill="white" stroke="#666666" points="2375.42,-283 2273.42,-283 2273.42,-253 2375.42,-253 2375.42,-283"/>
<text text-anchor="start" x="2281.42" y="-271" font-family="Helvetica,sans-Serif" font-size="10.00">include/core/fixed</text>
<text text-anchor="middle" x="2324.42" y="-260" font-family="Helvetica,sans-Serif" font-size="10.00">_string.hpp</text>
</a>
</g>
</g>
<!-- Node1&#45;&gt;Node36 -->
<g id="edge44_Node000001_Node000036" class="edge">
<title>Node1&#45;&gt;Node36</title>
<g id="a_edge44_Node000001_Node000036"><a xlink:title=" ">
<path fill="none" stroke="#63b8ff" d="M2320.36,-374.68C2321.4,-347.7 2323.03,-305.11 2323.88,-283.14"/>
<polygon fill="#63b8ff" stroke="#63b8ff" points="2316.85,-374.71 2319.97,-384.84 2323.85,-374.98 2316.85,-374.71"/>
</a>
</g>
</g>
<!-- Node37 -->
<g id="Node000037" class="node">
<title>Node37</title>
<g id="a_Node000037"><a xlink:href="../../d9/d6a/format__string_8hpp.html" target="_top" xlink:title="Compile&#45;time validated format&#45;string wrapper for auto {} and positional {N} placeholders.">
<polygon fill="white" stroke="#666666" points="2459.42,-349 2347.42,-349 2347.42,-319 2459.42,-319 2459.42,-349"/>
<text text-anchor="start" x="2355.42" y="-337" font-family="Helvetica,sans-Serif" font-size="10.00">include/core/format</text>
<text text-anchor="middle" x="2403.42" y="-326" font-family="Helvetica,sans-Serif" font-size="10.00">_string.hpp</text>
</a>
</g>
</g>
<!-- Node1&#45;&gt;Node37 -->
<g id="edge46_Node000001_Node000037" class="edge">
<title>Node1&#45;&gt;Node37</title>
<g id="a_edge46_Node000001_Node000037"><a xlink:title=" ">
<path fill="none" stroke="#63b8ff" d="M2346.36,-378.48C2358.91,-368.91 2373.53,-357.77 2384.83,-349.16"/>
<polygon fill="#63b8ff" stroke="#63b8ff" points="2343.9,-375.95 2338.07,-384.8 2348.14,-381.52 2343.9,-375.95"/>
</a>
</g>
</g>
<!-- Node39 -->
<g id="Node000039" class="node">
<title>Node39</title>
<g id="a_Node000039"><a xlink:href="../../de/d2d/o__string__stream_8hpp.html" target="_top" xlink:title="Allocator&#45;free output string stream that appends into string&#45;like storage.">
<polygon fill="white" stroke="#666666" points="2595.42,-349 2477.42,-349 2477.42,-319 2595.42,-319 2595.42,-349"/>
<text text-anchor="start" x="2485.42" y="-337" font-family="Helvetica,sans-Serif" font-size="10.00">include/core/o_string</text>
<text text-anchor="middle" x="2536.42" y="-326" font-family="Helvetica,sans-Serif" font-size="10.00">_stream.hpp</text>
</a>
</g>
</g>
<!-- Node1&#45;&gt;Node39 -->
<g id="edge50_Node000001_Node000039" class="edge">
<title>Node1&#45;&gt;Node39</title>
<g id="a_edge50_Node000001_Node000039"><a xlink:title=" ">
<path fill="none" stroke="#63b8ff" d="M2376.65,-382.12C2411.64,-371.8 2455.87,-358.76 2488.91,-349.01"/>
<polygon fill="#63b8ff" stroke="#63b8ff" points="2375.65,-378.77 2367.04,-384.95 2377.63,-385.48 2375.65,-378.77"/>
</a>
</g>
</g>
<!-- Node3 -->
<g id="Node000003" class="node">
<title>Node3</title>
<g id="a_Node000003"><a xlink:href="../../d4/d01/application_8hpp.html" target="_top" xlink:title="Umbrella header for the application module.">
<polygon fill="white" stroke="#666666" points="704.42,-156.5 574.42,-156.5 574.42,-137.5 704.42,-137.5 704.42,-156.5"/>
<text text-anchor="middle" x="639.42" y="-144.5" font-family="Helvetica,sans-Serif" font-size="10.00">include/application.hpp</text>
</a>
</g>
</g>
<!-- Node2&#45;&gt;Node3 -->
<g id="edge2_Node000002_Node000003" class="edge">
<title>Node2&#45;&gt;Node3</title>
<g id="a_edge2_Node000002_Node000003"><a xlink:title=" ">
<path fill="none" stroke="#63b8ff" d="M2304.51,-204.5C2041.95,-195.59 979.23,-159.53 704.51,-150.21"/>
<polygon fill="#63b8ff" stroke="#63b8ff" points="2304.49,-208 2314.6,-204.84 2304.73,-201.01 2304.49,-208"/>
</a>
</g>
</g>
<!-- Node4 -->
<g id="Node000004" class="node">
<title>Node4</title>
<g id="a_Node000004"><a xlink:href="../../d8/d8c/toygine2_8hpp.html" target="_top" xlink:title="Main umbrella header for the engine.">
<polygon fill="white" stroke="#666666" points="1687.92,-19 1568.92,-19 1568.92,0 1687.92,0 1687.92,-19"/>
<text text-anchor="middle" x="1628.42" y="-7" font-family="Helvetica,sans-Serif" font-size="10.00">include/toygine2.hpp</text>
</a>
</g>
</g>
<!-- Node2&#45;&gt;Node4 -->
<g id="edge28_Node000002_Node000004" class="edge">
<title>Node2&#45;&gt;Node4</title>
<g id="a_edge28_Node000002_Node000004"><a xlink:title=" ">
<path fill="none" stroke="#63b8ff" d="M2304.79,-206.26C2137.85,-205.13 1662.36,-198.68 1511.42,-162 1442.23,-145.19 1404.04,-155.83 1365.42,-96 1355.54,-80.69 1353.66,-68.92 1365.42,-55 1390.94,-24.8 1499.42,-15.09 1568.84,-11.97"/>
<polygon fill="#63b8ff" stroke="#63b8ff" points="2304.84,-209.76 2314.86,-206.32 2304.88,-202.76 2304.84,-209.76"/>
</a>
</g>
</g>
<!-- Node13 -->
<g id="Node000013" class="node">
<title>Node13</title>
<g id="a_Node000013"><a xlink:href="../../d1/d71/audio_8hpp.html" target="_top" xlink:title="Umbrella header for the audio module.">
<polygon fill="white" stroke="#666666" points="1477.92,-85 1374.92,-85 1374.92,-66 1477.92,-66 1477.92,-85"/>
<text text-anchor="middle" x="1426.42" y="-73" font-family="Helvetica,sans-Serif" font-size="10.00">include/audio.hpp</text>
</a>
</g>
</g>
<!-- Node2&#45;&gt;Node13 -->
<g id="edge12_Node000002_Node000013" class="edge">
<title>Node2&#45;&gt;Node13</title>
<g id="a_edge12_Node000002_Node000013"><a xlink:title=" ">
<path fill="none" stroke="#63b8ff" d="M2304.41,-206.52C2146.48,-206.03 1716.98,-201.05 1581.42,-162 1522.95,-145.16 1462.21,-103.22 1437.68,-85.08"/>
<polygon fill="#63b8ff" stroke="#63b8ff" points="2304.85,-210.02 2314.86,-206.55 2304.87,-203.02 2304.85,-210.02"/>
</a>
</g>
</g>
<!-- Node14 -->
<g id="Node000014" class="node">
<title>Node14</title>
<g id="a_Node000014"><a xlink:href="../../d8/d39/game_8hpp.html" target="_top" xlink:title="Umbrella header for the game module.">
<polygon fill="white" stroke="#666666" points="1600.42,-85 1496.42,-85 1496.42,-66 1600.42,-66 1600.42,-85"/>
<text text-anchor="middle" x="1548.42" y="-73" font-family="Helvetica,sans-Serif" font-size="10.00">include/game.hpp</text>
</a>
</g>
</g>
<!-- Node2&#45;&gt;Node14 -->
<g id="edge14_Node000002_Node000014" class="edge">
<title>Node2&#45;&gt;Node14</title>
<g id="a_edge14_Node000002_Node000014"><a xlink:title=" ">
<path fill="none" stroke="#63b8ff" d="M2304.45,-205.66C2139.22,-202.92 1679.86,-192.6 1619.42,-162 1585.34,-144.74 1561.51,-103.03 1552.46,-85.02"/>
<polygon fill="#63b8ff" stroke="#63b8ff" points="2304.85,-209.16 2314.9,-205.83 2304.96,-202.16 2304.85,-209.16"/>
</a>
</g>
</g>
<!-- Node15 -->
<g id="Node000015" class="node">
<title>Node15</title>
<g id="a_Node000015"><a xlink:href="../../d4/d78/math_8hpp.html" target="_top" xlink:title="Umbrella header for the math module.">
<polygon fill="white" stroke="#666666" points="1729.92,-156.5 1628.92,-156.5 1628.92,-137.5 1729.92,-137.5 1729.92,-156.5"/>
<text text-anchor="middle" x="1679.42" y="-144.5" font-family="Helvetica,sans-Serif" font-size="10.00">include/math.hpp</text>
</a>
</g>
</g>
<!-- Node2&#45;&gt;Node15 -->
<g id="edge16_Node000002_Node000015" class="edge">
<title>Node2&#45;&gt;Node15</title>
<g id="a_edge16_Node000002_Node000015"><a xlink:title=" ">
<path fill="none" stroke="#63b8ff" d="M2304.26,-205.39C2193.03,-202.62 1945.4,-193.18 1739.42,-162 1730.33,-160.62 1720.57,-158.59 1711.63,-156.5"/>
<polygon fill="#63b8ff" stroke="#63b8ff" points="2304.51,-208.9 2314.59,-205.64 2304.68,-201.9 2304.51,-208.9"/>
</a>
</g>
</g>
<!-- Node17 -->
<g id="Node000017" class="node">
<title>Node17</title>
<g id="a_Node000017"><a xlink:href="../../d6/d67/network_8hpp.html" target="_top" xlink:title="Umbrella header for the network module.">
<polygon fill="white" stroke="#666666" points="1864.42,-156.5 1748.42,-156.5 1748.42,-137.5 1864.42,-137.5 1864.42,-156.5"/>
<text text-anchor="middle" x="1806.42" y="-144.5" font-family="Helvetica,sans-Serif" font-size="10.00">include/network.hpp</text>
</a>
</g>
</g>
<!-- Node2&#45;&gt;Node17 -->
<g id="edge20_Node000002_Node000017" class="edge">
<title>Node2&#45;&gt;Node17</title>
<g id="a_edge20_Node000002_Node000017"><a xlink:title=" ">
<path fill="none" stroke="#63b8ff" d="M2304.53,-203.01C2213.04,-197.17 2031.36,-183.83 1878.42,-162 1868.09,-160.52 1856.98,-158.56 1846.67,-156.57"/>
<polygon fill="#63b8ff" stroke="#63b8ff" points="2304.5,-206.52 2314.7,-203.66 2304.94,-199.53 2304.5,-206.52"/>
</a>
</g>
</g>
<!-- Node19 -->
<g id="Node000019" class="node">
<title>Node19</title>
<g id="a_Node000019"><a xlink:href="../../de/dd6/ui_8hpp.html" target="_top" xlink:title="Umbrella header for platform UI types.">
<polygon fill="white" stroke="#666666" points="2122.42,-85 1992.42,-85 1992.42,-66 2122.42,-66 2122.42,-85"/>
<text text-anchor="middle" x="2057.42" y="-73" font-family="Helvetica,sans-Serif" font-size="10.00">include/platform/ui.hpp</text>
</a>
</g>
</g>
<!-- Node2&#45;&gt;Node19 -->
<g id="edge23_Node000002_Node000019" class="edge">
<title>Node2&#45;&gt;Node19</title>
<g id="a_edge23_Node000002_Node000019"><a xlink:title=" ">
<path fill="none" stroke="#63b8ff" d="M2304.56,-205.02C2188.13,-201.49 1937.35,-190.6 1911.42,-162 1902.47,-152.12 1903.85,-142.98 1911.42,-132 1924.36,-113.25 1983.19,-95.21 2022.11,-85.02"/>
<polygon fill="#63b8ff" stroke="#63b8ff" points="2304.63,-208.52 2314.73,-205.32 2304.84,-201.53 2304.63,-208.52"/>
</a>
</g>
</g>
<!-- Node20 -->
<g id="Node000020" class="node">
<title>Node20</title>
<g id="a_Node000020"><a xlink:href="../../d6/d4b/render_8hpp.html" target="_top" xlink:title="Umbrella header for the render module.">
<polygon fill="white" stroke="#666666" points="2027.92,-156.5 1920.92,-156.5 1920.92,-137.5 2027.92,-137.5 2027.92,-156.5"/>
<text text-anchor="middle" x="1974.42" y="-144.5" font-family="Helvetica,sans-Serif" font-size="10.00">include/render.hpp</text>
</a>
</g>
</g>
<!-- Node2&#45;&gt;Node20 -->
<g id="edge25_Node000002_Node000020" class="edge">
<title>Node2&#45;&gt;Node20</title>
<g id="a_edge25_Node000002_Node000020"><a xlink:title=" ">
<path fill="none" stroke="#63b8ff" d="M2304.59,-200.05C2238.93,-192.5 2129.68,-178.84 2036.42,-162 2027.74,-160.43 2018.42,-158.48 2009.72,-156.53"/>
<polygon fill="#63b8ff" stroke="#63b8ff" points="2304.41,-203.55 2314.74,-201.21 2305.2,-196.6 2304.41,-203.55"/>
</a>
</g>
</g>
<!-- Node22 -->
<g id="Node000022" class="node">
<title>Node22</title>
<g id="a_Node000022"><a xlink:href="../../da/de0/core_8cpp.html" target="_top" xlink:title="Implementation of toy::initialize() and toy::deInitialize() lifecycle functions.">
<polygon fill="white" stroke="#666666" points="2144.92,-156.5 2045.92,-156.5 2045.92,-137.5 2144.92,-137.5 2144.92,-156.5"/>
<text text-anchor="middle" x="2095.42" y="-144.5" font-family="Helvetica,sans-Serif" font-size="10.00">src/core/core.cpp</text>
</a>
</g>
</g>
<!-- Node2&#45;&gt;Node22 -->
<g id="edge29_Node000002_Node000022" class="edge">
<title>Node2&#45;&gt;Node22</title>
<g id="a_edge29_Node000002_Node000022"><a xlink:title=" ">
<path fill="none" stroke="#63b8ff" d="M2311.66,-195.95C2269.1,-187.18 2207.26,-174.2 2153.42,-162 2145.85,-160.28 2137.73,-158.37 2130.04,-156.52"/>
<polygon fill="#63b8ff" stroke="#63b8ff" points="2311.01,-199.39 2321.51,-197.98 2312.42,-192.54 2311.01,-199.39"/>
</a>
</g>
</g>
<!-- Node23 -->
<g id="Node000023" class="node">
<title>Node23</title>
<g id="a_Node000023"><a xlink:href="../../db/d2d/hashes_8cpp.html" target="_top" xlink:title="Table&#45;driven implementations of toy::crc8(), toy::crc16(), and toy::crc32().">
<polygon fill="white" stroke="#666666" points="2275.92,-156.5 2162.92,-156.5 2162.92,-137.5 2275.92,-137.5 2275.92,-156.5"/>
<text text-anchor="middle" x="2219.42" y="-144.5" font-family="Helvetica,sans-Serif" font-size="10.00">src/core/hashes.cpp</text>
</a>
</g>
</g>
<!-- Node2&#45;&gt;Node23 -->
<g id="edge30_Node000002_Node000023" class="edge">
<title>Node2&#45;&gt;Node23</title>
<g id="a_edge30_Node000002_Node000023"><a xlink:title=" ">
<path fill="none" stroke="#63b8ff" d="M2332.85,-194.08C2305.04,-182.78 2264.71,-166.4 2240.39,-156.52"/>
<polygon fill="#63b8ff" stroke="#63b8ff" points="2331.9,-197.47 2342.48,-197.99 2334.54,-190.99 2331.9,-197.47"/>
</a>
</g>
</g>
<!-- Node24 -->
<g id="Node000024" class="node">
<title>Node24</title>
<g id="a_Node000024"><a xlink:href="../../d8/d34/log__backend_8cpp.html" target="_top" xlink:title="Implementation of toy::log::Backend lifecycle, sink, and timestamp&#45;policy accessors.">
<polygon fill="white" stroke="#666666" points="2432.92,-156.5 2293.92,-156.5 2293.92,-137.5 2432.92,-137.5 2432.92,-156.5"/>
<text text-anchor="middle" x="2363.42" y="-144.5" font-family="Helvetica,sans-Serif" font-size="10.00">src/core/log_backend.cpp</text>
</a>
</g>
</g>
<!-- Node2&#45;&gt;Node24 -->
<g id="edge31_Node000002_Node000024" class="edge">
<title>Node2&#45;&gt;Node24</title>
<g id="a_edge31_Node000002_Node000024"><a xlink:title=" ">
<path fill="none" stroke="#63b8ff" d="M2363.42,-187.66C2363.42,-177.24 2363.42,-164.8 2363.42,-156.67"/>
<polygon fill="#63b8ff" stroke="#63b8ff" points="2359.92,-187.87 2363.42,-197.87 2366.92,-187.87 2359.92,-187.87"/>
</a>
</g>
</g>
<!-- Node25 -->
<g id="Node000025" class="node">
<title>Node25</title>
<g id="a_Node000025"><a xlink:href="../../d2/d51/log__sink_8cpp.html" target="_top" xlink:title="Out&#45;of&#45;line definitions for toy::log::ISink.">
<polygon fill="white" stroke="#666666" points="2569.92,-156.5 2450.92,-156.5 2450.92,-137.5 2569.92,-137.5 2569.92,-156.5"/>
<text text-anchor="middle" x="2510.42" y="-144.5" font-family="Helvetica,sans-Serif" font-size="10.00">src/core/log_sink.cpp</text>
</a>
</g>
</g>
<!-- Node2&#45;&gt;Node25 -->
<g id="edge32_Node000002_Node000025" class="edge">
<title>Node2&#45;&gt;Node25</title>
<g id="a_edge32_Node000002_Node000025"><a xlink:title=" ">
<path fill="none" stroke="#63b8ff" d="M2394.26,-194.23C2422.66,-182.92 2464.08,-166.44 2489.02,-156.52"/>
<polygon fill="#63b8ff" stroke="#63b8ff" points="2392.8,-191.04 2384.8,-197.99 2395.38,-197.55 2392.8,-191.04"/>
</a>
</g>
</g>
<!-- Node26 -->
<g id="Node000026" class="node">
<title>Node26</title>
<g id="a_Node000026"><a xlink:href="../../de/d06/utils_8cpp.html" target="_top" xlink:title="Definitions for string, encoding, and number utilities declared in core/utils.hpp.">
<polygon fill="white" stroke="#666666" points="2686.92,-156.5 2587.92,-156.5 2587.92,-137.5 2686.92,-137.5 2686.92,-156.5"/>
<text text-anchor="middle" x="2637.42" y="-144.5" font-family="Helvetica,sans-Serif" font-size="10.00">src/core/utils.cpp</text>
</a>
</g>
</g>
<!-- Node2&#45;&gt;Node26 -->
<g id="edge33_Node000002_Node000026" class="edge">
<title>Node2&#45;&gt;Node26</title>
<g id="a_edge33_Node000002_Node000026"><a xlink:title=" ">
<path fill="none" stroke="#63b8ff" d="M2416.14,-196.03C2459.72,-187.27 2523.19,-174.27 2578.42,-162 2586.13,-160.29 2594.39,-158.38 2602.21,-156.53"/>
<polygon fill="#63b8ff" stroke="#63b8ff" points="2415.45,-192.6 2406.33,-198 2416.83,-199.46 2415.45,-192.6"/>
</a>
</g>
</g>
<!-- Node27 -->
<g id="Node000027" class="node">
<title>Node27</title>
<g id="a_Node000027"><a xlink:href="../../df/de5/assertion__linux_8cpp.html" target="_top" xlink:title="Linux implementation of the toy::assertion crash handler and stack trace capture.">
<polygon fill="white" stroke="#666666" points="2843.42,-162 2705.42,-162 2705.42,-132 2843.42,-132 2843.42,-162"/>
<text text-anchor="start" x="2713.42" y="-150" font-family="Helvetica,sans-Serif" font-size="10.00">src/platforms/linux</text>
<text text-anchor="middle" x="2774.42" y="-139" font-family="Helvetica,sans-Serif" font-size="10.00">/core/assertion_linux.cpp</text>
</a>
</g>
</g>
<!-- Node2&#45;&gt;Node27 -->
<g id="edge34_Node000002_Node000027" class="edge">
<title>Node2&#45;&gt;Node27</title>
<g id="a_edge34_Node000002_Node000027"><a xlink:title=" ">
<path fill="none" stroke="#63b8ff" d="M2422.35,-199.43C2488.99,-191.26 2600.7,-176.98 2696.42,-162 2699.28,-161.55 2702.19,-161.09 2705.13,-160.6"/>
<polygon fill="#63b8ff" stroke="#63b8ff" points="2421.55,-196.01 2412.05,-200.69 2422.4,-202.95 2421.55,-196.01"/>
</a>
</g>
</g>
<!-- Node28 -->
<g id="Node000028" class="node">
<title>Node28</title>
<g id="a_Node000028"><a xlink:href="../../d5/d5a/assertion__macos_8cpp.html" target="_top" xlink:title="macOS implementation of the toy::assertion crash handler and stack trace capture.">
<polygon fill="white" stroke="#666666" points="3007.42,-162 2861.42,-162 2861.42,-132 3007.42,-132 3007.42,-162"/>
<text text-anchor="start" x="2869.42" y="-150" font-family="Helvetica,sans-Serif" font-size="10.00">src/platforms/macos</text>
<text text-anchor="middle" x="2934.42" y="-139" font-family="Helvetica,sans-Serif" font-size="10.00">/core/assertion_macos.cpp</text>
</a>
</g>
</g>
<!-- Node2&#45;&gt;Node28 -->
<g id="edge35_Node000002_Node000028" class="edge">
<title>Node2&#45;&gt;Node28</title>
<g id="a_edge35_Node000002_Node000028"><a xlink:title=" ">
<path fill="none" stroke="#63b8ff" d="M2422.38,-202.63C2514.43,-196.26 2697.78,-182.21 2852.42,-162 2855.29,-161.63 2858.2,-161.22 2861.15,-160.8"/>
<polygon fill="#63b8ff" stroke="#63b8ff" points="2421.88,-199.16 2412.15,-203.34 2422.36,-206.14 2421.88,-199.16"/>
</a>
</g>
</g>
<!-- Node29 -->
<g id="Node000029" class="node">
<title>Node29</title>
<g id="a_Node000029"><a xlink:href="../../d6/d79/clock__source__posix_8cpp.html" target="_top" xlink:title="Implementation of toy::chrono::ClockSource and toy::chrono::SteadyClock for POSIX.">
<polygon fill="white" stroke="#666666" points="3183.42,-162 3025.42,-162 3025.42,-132 3183.42,-132 3183.42,-162"/>
<text text-anchor="start" x="3033.42" y="-150" font-family="Helvetica,sans-Serif" font-size="10.00">src/platforms/posix</text>
<text text-anchor="middle" x="3104.42" y="-139" font-family="Helvetica,sans-Serif" font-size="10.00">/core/clock_source_posix.cpp</text>
</a>
</g>
</g>
<!-- Node2&#45;&gt;Node29 -->
<g id="edge36_Node000002_Node000029" class="edge">
<title>Node2&#45;&gt;Node29</title>
<g id="a_edge36_Node000002_Node000029"><a xlink:title=" ">
<path fill="none" stroke="#63b8ff" d="M2422.62,-204.25C2537.43,-199.48 2798.27,-186.74 3016.42,-162 3019.34,-161.67 3022.32,-161.31 3025.31,-160.93"/>
<polygon fill="#63b8ff" stroke="#63b8ff" points="2422.15,-200.76 2412.3,-204.67 2422.43,-207.76 2422.15,-200.76"/>
</a>
</g>
</g>
<!-- Node30 -->
<g id="Node000030" class="node">
<title>Node30</title>
<g id="a_Node000030"><a xlink:href="../../db/d09/system__clock__posix_8cpp.html" target="_top" xlink:title="Implementation of toy::chrono::SystemClock for POSIX.">
<polygon fill="white" stroke="#666666" points="3363.42,-162 3201.42,-162 3201.42,-132 3363.42,-132 3363.42,-162"/>
<text text-anchor="start" x="3209.42" y="-150" font-family="Helvetica,sans-Serif" font-size="10.00">src/platforms/posix</text>
<text text-anchor="middle" x="3282.42" y="-139" font-family="Helvetica,sans-Serif" font-size="10.00">/core/system_clock_posix.cpp</text>
</a>
</g>
</g>
<!-- Node2&#45;&gt;Node30 -->
<g id="edge37_Node000002_Node000030" class="edge">
<title>Node2&#45;&gt;Node30</title>
<g id="a_edge37_Node000002_Node000030"><a xlink:title=" ">
<path fill="none" stroke="#63b8ff" d="M2422.34,-205.37C2558.35,-202.33 2904.62,-192.03 3192.42,-162 3195.25,-161.7 3198.13,-161.38 3201.04,-161.04"/>
<polygon fill="#63b8ff" stroke="#63b8ff" points="2422.07,-201.88 2412.15,-205.6 2422.22,-208.88 2422.07,-201.88"/>
</a>
</g>
</g>
<!-- Node31 -->
<g id="Node000031" class="node">
<title>Node31</title>
<g id="a_Node000031"><a xlink:href="../../d7/d90/assertion__stub_8cpp.html" target="_top" xlink:title="Stub definitions for the assertion callback API declared in core/assertion.hpp.">
<polygon fill="white" stroke="#666666" points="3516.92,-162 3381.92,-162 3381.92,-132 3516.92,-132 3516.92,-162"/>
<text text-anchor="start" x="3389.92" y="-150" font-family="Helvetica,sans-Serif" font-size="10.00">src/platforms/stub</text>
<text text-anchor="middle" x="3449.42" y="-139" font-family="Helvetica,sans-Serif" font-size="10.00">/core/assertion_stub.cpp</text>
</a>
</g>
</g>
<!-- Node2&#45;&gt;Node31 -->
<g id="edge38_Node000002_Node000031" class="edge">
<title>Node2&#45;&gt;Node31</title>
<g id="a_edge38_Node000002_Node000031"><a xlink:title=" ">
<path fill="none" stroke="#63b8ff" d="M2422.47,-206.69C2578.28,-206.59 3013.24,-202.39 3372.42,-162 3375.53,-161.65 3378.7,-161.25 3381.89,-160.81"/>
<polygon fill="#63b8ff" stroke="#63b8ff" points="2422.17,-203.19 2412.17,-206.69 2422.17,-210.19 2422.17,-203.19"/>
</a>
</g>
</g>
<!-- Node32 -->
<g id="Node000032" class="node">
<title>Node32</title>
<g id="a_Node000032"><a xlink:href="../../d4/dbf/clock__source__stub_8cpp.html" target="_top" xlink:title="Stub implementations of toy::chrono::ClockSource, toy::chrono::SteadyClock, and toy::chrono::SystemCl...">
<polygon fill="white" stroke="#666666" points="3687.92,-162 3534.92,-162 3534.92,-132 3687.92,-132 3687.92,-162"/>
<text text-anchor="start" x="3542.92" y="-150" font-family="Helvetica,sans-Serif" font-size="10.00">src/platforms/stub</text>
<text text-anchor="middle" x="3611.42" y="-139" font-family="Helvetica,sans-Serif" font-size="10.00">/core/clock_source_stub.cpp</text>
</a>
</g>
</g>
<!-- Node2&#45;&gt;Node32 -->
<g id="edge39_Node000002_Node000032" class="edge">
<title>Node2&#45;&gt;Node32</title>
<g id="a_edge39_Node000002_Node000032"><a xlink:title=" ">
<path fill="none" stroke="#63b8ff" d="M2422.08,-206.84C2592.9,-207.28 3104.58,-204.64 3526.42,-162 3529.1,-161.73 3531.82,-161.43 3534.57,-161.1"/>
<polygon fill="#63b8ff" stroke="#63b8ff" points="2422.05,-203.34 2412.04,-206.81 2422.03,-210.34 2422.05,-203.34"/>
</a>
</g>
</g>
<!-- Node33 -->
<g id="Node000033" class="node">
<title>Node33</title>
<g id="a_Node000033"><a xlink:href="../../d0/db3/clock__source__windows_8cpp.html" target="_top" xlink:title="Implementation of toy::chrono::ClockSource and toy::chrono::SteadyClock for Windows.">
<polygon fill="white" stroke="#666666" points="3880.92,-162 3705.92,-162 3705.92,-132 3880.92,-132 3880.92,-162"/>
<text text-anchor="start" x="3713.92" y="-150" font-family="Helvetica,sans-Serif" font-size="10.00">src/platforms/windows</text>
<text text-anchor="middle" x="3793.42" y="-139" font-family="Helvetica,sans-Serif" font-size="10.00">/core/clock_source_windows.cpp</text>
</a>
</g>
</g>
<!-- Node2&#45;&gt;Node33 -->
<g id="edge40_Node000002_Node000033" class="edge">
<title>Node2&#45;&gt;Node33</title>
<g id="a_edge40_Node000002_Node000033"><a xlink:title=" ">
<path fill="none" stroke="#63b8ff" d="M2422.15,-206.87C2608.92,-207.56 3205.86,-205.9 3697.42,-162 3700.19,-161.75 3703,-161.48 3705.84,-161.18"/>
<polygon fill="#63b8ff" stroke="#63b8ff" points="2422.01,-203.37 2412,-206.83 2421.98,-210.37 2422.01,-203.37"/>
</a>
</g>
</g>
<!-- Node34 -->
<g id="Node000034" class="node">
<title>Node34</title>
<g id="a_Node000034"><a xlink:href="../../d4/d3a/system__clock__windows_8cpp.html" target="_top" xlink:title="Implementation of toy::chrono::SystemClock for Windows.">
<polygon fill="white" stroke="#666666" points="4077.92,-162 3898.92,-162 3898.92,-132 4077.92,-132 4077.92,-162"/>
<text text-anchor="start" x="3906.92" y="-150" font-family="Helvetica,sans-Serif" font-size="10.00">src/platforms/windows</text>
<text text-anchor="middle" x="3988.42" y="-139" font-family="Helvetica,sans-Serif" font-size="10.00">/core/system_clock_windows.cpp</text>
</a>
</g>
</g>
<!-- Node2&#45;&gt;Node34 -->
<g id="edge41_Node000002_Node000034" class="edge">
<title>Node2&#45;&gt;Node34</title>
<g id="a_edge41_Node000002_Node000034"><a xlink:title=" ">
<path fill="none" stroke="#63b8ff" d="M2422.16,-205.68C2665.75,-202.12 3597.35,-187.12 3890.42,-162 3893.16,-161.77 3895.94,-161.5 3898.75,-161.22"/>
<polygon fill="#63b8ff" stroke="#63b8ff" points="2422.05,-202.18 2412.1,-205.82 2422.15,-209.18 2422.05,-202.18"/>
</a>
</g>
</g>
<!-- Node3&#45;&gt;Node4 -->
<g id="edge3_Node000003_Node000004" class="edge">
<title>Node3&#45;&gt;Node4</title>
<g id="a_edge3_Node000003_Node000004"><a xlink:title=" ">
<path fill="none" stroke="#63b8ff" d="M563.98,-145.62C404.85,-144.03 46.37,-136 9.42,-96 -2.94,-82.61 -3.28,-68.06 9.42,-55 37.13,-26.52 1279.07,-13.63 1568.56,-11.01"/>
<polygon fill="#63b8ff" stroke="#63b8ff" points="564.14,-149.12 574.17,-145.71 564.2,-142.12 564.14,-149.12"/>
</a>
</g>
</g>
<!-- Node5 -->
<g id="Node000005" class="node">
<title>Node5</title>
<g id="a_Node000005"><a xlink:href="../../d0/dbb/core__application_8cpp.html" target="_top" xlink:title="Implementations for toy::application::CoreApplication.">
<polygon fill="white" stroke="#666666" points="130.42,-90.5 18.42,-90.5 18.42,-60.5 130.42,-60.5 130.42,-90.5"/>
<text text-anchor="start" x="26.42" y="-78.5" font-family="Helvetica,sans-Serif" font-size="10.00">src/application/core</text>
<text text-anchor="middle" x="74.42" y="-67.5" font-family="Helvetica,sans-Serif" font-size="10.00">_application.cpp</text>
</a>
</g>
</g>
<!-- Node3&#45;&gt;Node5 -->
<g id="edge4_Node000003_Node000005" class="edge">
<title>Node3&#45;&gt;Node5</title>
<g id="a_edge4_Node000003_Node000005"><a xlink:title=" ">
<path fill="none" stroke="#63b8ff" d="M563.96,-142.96C465.49,-137.97 288.19,-125.47 139.42,-96 132.14,-94.56 124.51,-92.64 117.14,-90.58"/>
<polygon fill="#63b8ff" stroke="#63b8ff" points="563.95,-146.47 574.11,-143.46 564.3,-139.47 563.95,-146.47"/>
</a>
</g>
</g>
<!-- Node6 -->
<g id="Node000006" class="node">
<title>Node6</title>
<g id="a_Node000006"><a xlink:href="../../db/db6/console__application_8cpp.html" target="_top" xlink:title="Implementations for toy::application::ConsoleApplication.">
<polygon fill="white" stroke="#666666" points="275.92,-96 148.92,-96 148.92,-55 275.92,-55 275.92,-96"/>
<text text-anchor="start" x="156.92" y="-84" font-family="Helvetica,sans-Serif" font-size="10.00">src/platforms/common</text>
<text text-anchor="start" x="156.92" y="-73" font-family="Helvetica,sans-Serif" font-size="10.00">/application/console</text>
<text text-anchor="middle" x="212.42" y="-62" font-family="Helvetica,sans-Serif" font-size="10.00">_application.cpp</text>
</a>
</g>
</g>
<!-- Node3&#45;&gt;Node6 -->
<g id="edge5_Node000003_Node000006" class="edge">
<title>Node3&#45;&gt;Node6</title>
<g id="a_edge5_Node000003_Node000006"><a xlink:title=" ">
<path fill="none" stroke="#63b8ff" d="M563.77,-137.99C491.79,-129.75 380.64,-115.37 285.42,-96 282.34,-95.37 279.19,-94.69 276.02,-93.97"/>
<polygon fill="#63b8ff" stroke="#63b8ff" points="563.77,-141.52 574.1,-139.17 564.56,-134.56 563.77,-141.52"/>
</a>
</g>
</g>
<!-- Node7 -->
<g id="Node000007" class="node">
<title>Node7</title>
<g id="a_Node000007"><a xlink:href="../../da/d50/console__application__gba_8cpp.html" target="_top" xlink:title="GBA implementations of toy::application::ConsoleApplication.">
<polygon fill="white" stroke="#666666" points="454.42,-90.5 294.42,-90.5 294.42,-60.5 454.42,-60.5 454.42,-90.5"/>
<text text-anchor="start" x="302.42" y="-78.5" font-family="Helvetica,sans-Serif" font-size="10.00">src/platforms/gba/application</text>
<text text-anchor="middle" x="374.42" y="-67.5" font-family="Helvetica,sans-Serif" font-size="10.00">/console_application_gba.cpp</text>
</a>
</g>
</g>
<!-- Node3&#45;&gt;Node7 -->
<g id="edge6_Node000003_Node000007" class="edge">
<title>Node3&#45;&gt;Node7</title>
<g id="a_edge6_Node000003_Node000007"><a xlink:title=" ">
<path fill="none" stroke="#63b8ff" d="M597,-134.87C551.05,-122.82 477.67,-103.58 427.83,-90.51"/>
<polygon fill="#63b8ff" stroke="#63b8ff" points="596.37,-138.33 606.93,-137.48 598.14,-131.56 596.37,-138.33"/>
</a>
</g>
</g>
<!-- Node8 -->
<g id="Node000008" class="node">
<title>Node8</title>
<g id="a_Node000008"><a xlink:href="../../d0/d8a/core__application__linux_8cpp.html" target="_top" xlink:title="Linux implementations of toy::application::CoreApplication via POSIX APIs.">
<polygon fill="white" stroke="#666666" points="629.92,-96 472.92,-96 472.92,-55 629.92,-55 629.92,-96"/>
<text text-anchor="start" x="480.92" y="-84" font-family="Helvetica,sans-Serif" font-size="10.00">src/platforms/linux</text>
<text text-anchor="start" x="480.92" y="-73" font-family="Helvetica,sans-Serif" font-size="10.00">/application/core_application</text>
<text text-anchor="middle" x="551.42" y="-62" font-family="Helvetica,sans-Serif" font-size="10.00">_linux.cpp</text>
</a>
</g>
</g>
<!-- Node3&#45;&gt;Node8 -->
<g id="edge7_Node000003_Node000008" class="edge">
<title>Node3&#45;&gt;Node8</title>
<g id="a_edge7_Node000003_Node000008"><a xlink:title=" ">
<path fill="none" stroke="#63b8ff" d="M620.48,-131.04C607.57,-120.84 590.35,-107.24 576.33,-96.17"/>
<polygon fill="#63b8ff" stroke="#63b8ff" points="618.62,-134.03 628.63,-137.48 622.95,-128.53 618.62,-134.03"/>
</a>
</g>
</g>
<!-- Node9 -->
<g id="Node000009" class="node">
<title>Node9</title>
<g id="a_Node000009"><a xlink:href="../../d8/d89/core__application__macos_8cpp.html" target="_top" xlink:title="macOS implementations of toy::application::CoreApplication via POSIX APIs.">
<polygon fill="white" stroke="#666666" points="804.92,-96 647.92,-96 647.92,-55 804.92,-55 804.92,-96"/>
<text text-anchor="start" x="655.92" y="-84" font-family="Helvetica,sans-Serif" font-size="10.00">src/platforms/macos</text>
<text text-anchor="start" x="655.92" y="-73" font-family="Helvetica,sans-Serif" font-size="10.00">/application/core_application</text>
<text text-anchor="middle" x="726.42" y="-62" font-family="Helvetica,sans-Serif" font-size="10.00">_macos.cpp</text>
</a>
</g>
</g>
<!-- Node3&#45;&gt;Node9 -->
<g id="edge8_Node000003_Node000009" class="edge">
<title>Node3&#45;&gt;Node9</title>
<g id="a_edge8_Node000003_Node000009"><a xlink:title=" ">
<path fill="none" stroke="#63b8ff" d="M658.15,-131.04C670.91,-120.84 687.94,-107.24 701.8,-96.17"/>
<polygon fill="#63b8ff" stroke="#63b8ff" points="655.72,-128.5 650.09,-137.48 660.09,-133.97 655.72,-128.5"/>
</a>
</g>
</g>
<!-- Node10 -->
<g id="Node000010" class="node">
<title>Node10</title>
<g id="a_Node000010"><a xlink:href="../../db/da8/core__application__stub_8cpp.html" target="_top" xlink:title="Stub implementation of toy::application::CoreApplication::sleep() for platforms without OS sleep supp...">
<polygon fill="white" stroke="#666666" points="979.92,-96 822.92,-96 822.92,-55 979.92,-55 979.92,-96"/>
<text text-anchor="start" x="830.92" y="-84" font-family="Helvetica,sans-Serif" font-size="10.00">src/platforms/stub</text>
<text text-anchor="start" x="830.92" y="-73" font-family="Helvetica,sans-Serif" font-size="10.00">/application/core_application</text>
<text text-anchor="middle" x="901.42" y="-62" font-family="Helvetica,sans-Serif" font-size="10.00">_stub.cpp</text>
</a>
</g>
</g>
<!-- Node3&#45;&gt;Node10 -->
<g id="edge9_Node000003_Node000010" class="edge">
<title>Node3&#45;&gt;Node10</title>
<g id="a_edge9_Node000003_Node000010"><a xlink:title=" ">
<path fill="none" stroke="#63b8ff" d="M681.35,-134.88C720.72,-124.43 780.49,-108.58 827.81,-96.03"/>
<polygon fill="#63b8ff" stroke="#63b8ff" points="680.32,-131.53 671.55,-137.48 682.11,-138.3 680.32,-131.53"/>
</a>
</g>
</g>
<!-- Node11 -->
<g id="Node000011" class="node">
<title>Node11</title>
<g id="a_Node000011"><a xlink:href="../../df/dd0/console__application__windows_8cpp.html" target="_top" xlink:title="Windows console entry&#45;point argument conversion from UTF&#45;16 to UTF&#45;8.">
<polygon fill="white" stroke="#666666" points="1142.42,-96 998.42,-96 998.42,-55 1142.42,-55 1142.42,-96"/>
<text text-anchor="start" x="1006.42" y="-84" font-family="Helvetica,sans-Serif" font-size="10.00">src/platforms/windows</text>
<text text-anchor="start" x="1006.42" y="-73" font-family="Helvetica,sans-Serif" font-size="10.00">/application/console</text>
<text text-anchor="middle" x="1070.42" y="-62" font-family="Helvetica,sans-Serif" font-size="10.00">_application_windows.cpp</text>
</a>
</g>
</g>
<!-- Node3&#45;&gt;Node11 -->
<g id="edge10_Node000003_Node000011" class="edge">
<title>Node3&#45;&gt;Node11</title>
<g id="a_edge10_Node000003_Node000011"><a xlink:title=" ">
<path fill="none" stroke="#63b8ff" d="M714.86,-137.21C785.77,-128.47 894.72,-113.82 988.42,-96 991.59,-95.4 994.81,-94.76 998.06,-94.09"/>
<polygon fill="#63b8ff" stroke="#63b8ff" points="714.18,-133.77 704.68,-138.46 715.03,-140.71 714.18,-133.77"/>
</a>
</g>
</g>
<!-- Node12 -->
<g id="Node000012" class="node">
<title>Node12</title>
<g id="a_Node000012"><a xlink:href="../../dc/d2d/core__application__windows_8cpp.html" target="_top" xlink:title="Windows implementations of toy::application::CoreApplication via Win32 APIs.">
<polygon fill="white" stroke="#666666" points="1317.92,-96 1160.92,-96 1160.92,-55 1317.92,-55 1317.92,-96"/>
<text text-anchor="start" x="1168.92" y="-84" font-family="Helvetica,sans-Serif" font-size="10.00">src/platforms/windows</text>
<text text-anchor="start" x="1168.92" y="-73" font-family="Helvetica,sans-Serif" font-size="10.00">/application/core_application</text>
<text text-anchor="middle" x="1239.42" y="-62" font-family="Helvetica,sans-Serif" font-size="10.00">_windows.cpp</text>
</a>
</g>
</g>
<!-- Node3&#45;&gt;Node12 -->
<g id="edge11_Node000003_Node000012" class="edge">
<title>Node3&#45;&gt;Node12</title>
<g id="a_edge11_Node000003_Node000012"><a xlink:title=" ">
<path fill="none" stroke="#63b8ff" d="M714.83,-141.49C815.01,-134.86 997.29,-120.51 1151.42,-96 1154.51,-95.51 1157.66,-94.97 1160.83,-94.41"/>
<polygon fill="#63b8ff" stroke="#63b8ff" points="714.56,-138.01 704.81,-142.15 715.01,-144.99 714.56,-138.01"/>
</a>
</g>
</g>
<!-- Node13&#45;&gt;Node4 -->
<g id="edge13_Node000013_Node000004" class="edge">
<title>Node13&#45;&gt;Node4</title>
<g id="a_edge13_Node000013_Node000004"><a xlink:title=" ">
<path fill="none" stroke="#63b8ff" d="M1462.75,-62.86C1470.87,-60.27 1479.44,-57.54 1487.42,-55 1527.06,-42.41 1572.99,-27.93 1601.38,-19"/>
<polygon fill="#63b8ff" stroke="#63b8ff" points="1461.6,-59.56 1453.14,-65.94 1463.73,-66.22 1461.6,-59.56"/>
</a>
</g>
</g>
<!-- Node14&#45;&gt;Node4 -->
<g id="edge15_Node000014_Node000004" class="edge">
<title>Node14&#45;&gt;Node4</title>
<g id="a_edge15_Node000014_Node000004"><a xlink:title=" ">
<path fill="none" stroke="#63b8ff" d="M1567.19,-59.49C1582.85,-46.96 1604.63,-29.54 1617.55,-19.2"/>
<polygon fill="#63b8ff" stroke="#63b8ff" points="1564.83,-56.89 1559.21,-65.87 1569.21,-62.35 1564.83,-56.89"/>
</a>
</g>
</g>
<!-- Node15&#45;&gt;Node4 -->
<g id="edge19_Node000015_Node000004" class="edge">
<title>Node15&#45;&gt;Node4</title>
<g id="a_edge19_Node000015_Node000004"><a xlink:title=" ">
<path fill="none" stroke="#63b8ff" d="M1666.43,-129.01C1659.87,-119.71 1652.29,-107.71 1647.42,-96 1636.27,-69.18 1631.19,-34.79 1629.32,-19.05"/>
<polygon fill="#63b8ff" stroke="#63b8ff" points="1663.78,-131.32 1672.51,-137.32 1669.42,-127.18 1663.78,-131.32"/>
</a>
</g>
</g>
<!-- Node16 -->
<g id="Node000016" class="node">
<title>Node16</title>
<g id="a_Node000016"><a xlink:href="../../db/dbb/geometry_8hpp.html" target="_top" xlink:title="Umbrella header for the geometry module.">
<polygon fill="white" stroke="#666666" points="1778.42,-85 1656.42,-85 1656.42,-66 1778.42,-66 1778.42,-85"/>
<text text-anchor="middle" x="1717.42" y="-73" font-family="Helvetica,sans-Serif" font-size="10.00">include/geometry.hpp</text>
</a>
</g>
</g>
<!-- Node15&#45;&gt;Node16 -->
<g id="edge17_Node000015_Node000016" class="edge">
<title>Node15&#45;&gt;Node16</title>
<g id="a_edge17_Node000015_Node000016"><a xlink:title=" ">
<path fill="none" stroke="#63b8ff" d="M1689.03,-128.43C1696.6,-114.58 1706.84,-95.86 1712.73,-85.09"/>
<polygon fill="#63b8ff" stroke="#63b8ff" points="1685.81,-127.02 1684.08,-137.48 1691.95,-130.38 1685.81,-127.02"/>
</a>
</g>
</g>
<!-- Node16&#45;&gt;Node4 -->
<g id="edge18_Node000016_Node000004" class="edge">
<title>Node16&#45;&gt;Node4</title>
<g id="a_edge18_Node000016_Node000004"><a xlink:title=" ">
<path fill="none" stroke="#63b8ff" d="M1697.03,-59.83C1679.57,-47.28 1655.03,-29.63 1640.52,-19.2"/>
<polygon fill="#63b8ff" stroke="#63b8ff" points="1695.26,-62.87 1705.42,-65.87 1699.34,-57.19 1695.26,-62.87"/>
</a>
</g>
</g>
<!-- Node17&#45;&gt;Node4 -->
<g id="edge21_Node000017_Node000004" class="edge">
<title>Node17&#45;&gt;Node4</title>
<g id="a_edge21_Node000017_Node000004"><a xlink:title=" ">
<path fill="none" stroke="#63b8ff" d="M1807.82,-127.22C1808.26,-106.81 1805.66,-74.5 1787.42,-55 1762.07,-27.89 1721.68,-16.82 1687.95,-12.5"/>
<polygon fill="#63b8ff" stroke="#63b8ff" points="1804.31,-127.27 1807.32,-137.43 1811.3,-127.61 1804.31,-127.27"/>
</a>
</g>
</g>
<!-- Node18 -->
<g id="Node000018" class="node">
<title>Node18</title>
<g id="a_Node000018"><a xlink:href="../../d3/d80/endpoint_8cpp.html" target="_top" xlink:title="Definitions for the toy::network::Endpoint destructor declared in network/endpoint....">
<polygon fill="white" stroke="#666666" points="1974.42,-85 1834.42,-85 1834.42,-66 1974.42,-66 1974.42,-85"/>
<text text-anchor="middle" x="1904.42" y="-73" font-family="Helvetica,sans-Serif" font-size="10.00">src/network/endpoint.cpp</text>
</a>
</g>
</g>
<!-- Node17&#45;&gt;Node18 -->
<g id="edge22_Node000017_Node000018" class="edge">
<title>Node17&#45;&gt;Node18</title>
<g id="a_edge22_Node000017_Node000018"><a xlink:title=" ">
<path fill="none" stroke="#63b8ff" d="M1826.77,-131.57C1846.56,-117.54 1875.95,-96.7 1892.31,-85.09"/>
<polygon fill="#63b8ff" stroke="#63b8ff" points="1824.57,-128.84 1818.44,-137.48 1828.62,-134.55 1824.57,-128.84"/>
</a>
</g>
</g>
<!-- Node19&#45;&gt;Node4 -->
<g id="edge24_Node000019_Node000004" class="edge">
<title>Node19&#45;&gt;Node4</title>
<g id="a_edge24_Node000019_Node000004"><a xlink:title=" ">
<path fill="none" stroke="#63b8ff" d="M2018.49,-63.2C2007.25,-60.22 1994.91,-57.22 1983.42,-55 1880.52,-35.08 1759.02,-22.09 1688.16,-15.54"/>
<polygon fill="#63b8ff" stroke="#63b8ff" points="2017.89,-66.67 2028.46,-65.91 2019.73,-59.91 2017.89,-66.67"/>
</a>
</g>
</g>
<!-- Node20&#45;&gt;Node4 -->
<g id="edge26_Node000020_Node000004" class="edge">
<title>Node20&#45;&gt;Node4</title>
<g id="a_edge26_Node000020_Node000004"><a xlink:title=" ">
<path fill="none" stroke="#63b8ff" d="M2018.2,-134.88C2062.21,-123.27 2124.51,-105.45 2131.42,-96 2142.18,-81.29 2143.73,-68.44 2131.42,-55 2102.01,-22.87 1815.09,-13.81 1688.23,-11.36"/>
<polygon fill="#63b8ff" stroke="#63b8ff" points="2017.08,-131.56 2008.29,-137.48 2018.85,-138.33 2017.08,-131.56"/>
</a>
</g>
</g>
<!-- Node21 -->
<g id="Node000021" class="node">
<title>Node21</title>
<g id="a_Node000021"><a xlink:href="../../db/d3d/pixel__format_8cpp.html" target="_top" xlink:title="Definitions for pixelFormatName() and pixelFormatFromName() declared in render/pixel_format....">
<polygon fill="white" stroke="#666666" points="2328.42,-85 2178.42,-85 2178.42,-66 2328.42,-66 2328.42,-85"/>
<text text-anchor="middle" x="2253.42" y="-73" font-family="Helvetica,sans-Serif" font-size="10.00">src/render/pixel_format.cpp</text>
</a>
</g>
</g>
<!-- Node20&#45;&gt;Node21 -->
<g id="edge27_Node000020_Node000021" class="edge">
<title>Node20&#45;&gt;Node21</title>
<g id="a_edge27_Node000020_Node000021"><a xlink:title=" ">
<path fill="none" stroke="#63b8ff" d="M2018.54,-135.01C2074.09,-121.17 2168.36,-97.69 2218.93,-85.09"/>
<polygon fill="#63b8ff" stroke="#63b8ff" points="2017.49,-131.66 2008.63,-137.48 2019.18,-138.46 2017.49,-131.66"/>
</a>
</g>
</g>
<!-- Node35&#45;&gt;Node2 -->
<g id="edge43_Node000035_Node000002" class="edge">
<title>Node35&#45;&gt;Node2</title>
<g id="a_edge43_Node000035_Node000002"><a xlink:title=" ">
<path fill="none" stroke="#63b8ff" d="M2246.06,-249.61C2276.62,-238.91 2314.45,-225.65 2338.76,-217.14"/>
<polygon fill="#63b8ff" stroke="#63b8ff" points="2244.7,-246.38 2236.42,-252.99 2247.02,-252.98 2244.7,-246.38"/>
</a>
</g>
</g>
<!-- Node36&#45;&gt;Node2 -->
<g id="edge45_Node000036_Node000002" class="edge">
<title>Node36&#45;&gt;Node2</title>
<g id="a_edge45_Node000036_Node000002"><a xlink:title=" ">
<path fill="none" stroke="#63b8ff" d="M2339.42,-244.51C2345.76,-234.99 2352.78,-224.47 2357.58,-217.27"/>
<polygon fill="#63b8ff" stroke="#63b8ff" points="2336.5,-242.58 2333.86,-252.84 2342.32,-246.46 2336.5,-242.58"/>
</a>
</g>
</g>
<!-- Node37&#45;&gt;Node2 -->
<g id="edge47_Node000037_Node000002" class="edge">
<title>Node37&#45;&gt;Node2</title>
<g id="a_edge47_Node000037_Node000002"><a xlink:title=" ">
<path fill="none" stroke="#63b8ff" d="M2399.02,-308.71C2395.78,-292.66 2390.83,-271.28 2384.42,-253 2379.9,-240.1 2372.83,-225.94 2368.16,-217.14"/>
<polygon fill="#63b8ff" stroke="#63b8ff" points="2395.65,-309.72 2400.99,-318.87 2402.53,-308.39 2395.65,-309.72"/>
</a>
</g>
</g>
<!-- Node38 -->
<g id="Node000038" class="node">
<title>Node38</title>
<g id="a_Node000038"><a xlink:href="../../d4/d0a/format_8hpp.html" target="_top" xlink:title="Format functions for substituting arguments into {} and {N} placeholders.">
<polygon fill="white" stroke="#666666" points="2564.92,-277.5 2431.92,-277.5 2431.92,-258.5 2564.92,-258.5 2564.92,-277.5"/>
<text text-anchor="middle" x="2498.42" y="-265.5" font-family="Helvetica,sans-Serif" font-size="10.00">include/core/format.hpp</text>
</a>
</g>
</g>
<!-- Node37&#45;&gt;Node38 -->
<g id="edge48_Node000037_Node000038" class="edge">
<title>Node37&#45;&gt;Node38</title>
<g id="a_edge48_Node000037_Node000038"><a xlink:title=" ">
<path fill="none" stroke="#63b8ff" d="M2432.82,-313.2C2450.49,-301.29 2472.11,-286.73 2485.57,-277.66"/>
<polygon fill="#63b8ff" stroke="#63b8ff" points="2430.84,-310.31 2424.51,-318.8 2434.76,-316.11 2430.84,-310.31"/>
</a>
</g>
</g>
<!-- Node38&#45;&gt;Node2 -->
<g id="edge49_Node000038_Node000002" class="edge">
<title>Node38&#45;&gt;Node2</title>
<g id="a_edge49_Node000038_Node000002"><a xlink:title=" ">
<path fill="none" stroke="#63b8ff" d="M2469.42,-254.43C2443.36,-243.14 2405.78,-226.86 2383.08,-217.02"/>
<polygon fill="#63b8ff" stroke="#63b8ff" points="2468.23,-257.73 2478.79,-258.49 2471.01,-251.31 2468.23,-257.73"/>
</a>
</g>
</g>
<!-- Node39&#45;&gt;Node2 -->
<g id="edge51_Node000039_Node000002" class="edge">
<title>Node39&#45;&gt;Node2</title>
<g id="a_edge51_Node000039_Node000002"><a xlink:title=" ">
<path fill="none" stroke="#63b8ff" d="M2558.81,-311.03C2573.46,-293.97 2587.5,-270.37 2573.42,-253 2553.54,-228.46 2467.92,-216.91 2412.34,-211.9"/>
<polygon fill="#63b8ff" stroke="#63b8ff" points="2555.85,-309.08 2551.69,-318.82 2561.02,-313.8 2555.85,-309.08"/>
</a>
</g>
</g>
<!-- Node39&#45;&gt;Node38 -->
<g id="edge52_Node000039_Node000038" class="edge">
<title>Node39&#45;&gt;Node38</title>
<g id="a_edge52_Node000039_Node000038"><a xlink:title=" ">
<path fill="none" stroke="#63b8ff" d="M2522.74,-309.95C2516.13,-298.81 2508.58,-286.11 2503.67,-277.84"/>
<polygon fill="#63b8ff" stroke="#63b8ff" points="2519.87,-311.98 2527.99,-318.8 2525.89,-308.41 2519.87,-311.98"/>
</a>
</g>
</g>
</g>
</svg>
