<?xml version="1.0" encoding="UTF-8" standalone="no"?>
<!DOCTYPE svg PUBLIC "-//W3C//DTD SVG 1.1//EN"
 "http://www.w3.org/Graphics/SVG/1.1/DTD/svg11.dtd">
<!-- Generated by graphviz version 2.43.0 (0)
 -->
<!-- Title: include/core/string_like.hpp Pages: 1 -->
<!--zoomable 423 -->

<svg id="main" version="1.1" xmlns="http://www.w3.org/2000/svg" xmlns:xlink="http://www.w3.org/1999/xlink" xml:space="preserve" onload="init(evt)">

<style type="text/css"><![CDATA[
.node, .edge {opacity: 0.7;}
.node.selected, .edge.selected {opacity: 1;}
.edge:hover path { stroke: red; }
.edge:hover polygon { stroke: red; fill: red; }
]]></style>

<defs>
  <circle id="rim" cx="0" cy="0" r="7"/>
  <circle id="rim2" cx="0" cy="0" r="3.5"/>
  <g id="zoomPlus">
    <use xlink:href="#rim" fill="#404040"><set attributeName="fill" to="#808080" begin="zoomplus.mouseover" end="zoomplus.mouseout"/></use>
    <path d="M-4,0h8M0,-4v8" fill="none" stroke="white" stroke-width="1.5" pointer-events="none"/>
  </g>
  <g id="zoomMin">
    <use xlink:href="#rim" fill="#404040"><set attributeName="fill" to="#808080" begin="zoomminus.mouseover" end="zoomminus.mouseout"/></use>
    <path d="M-4,0h8" fill="none" stroke="white" stroke-width="1.5" pointer-events="none"/>
  </g>
  <g id="arrowUp" transform="translate(30 24)">
    <use xlink:href="#rim"/>
    <path pointer-events="none" fill="none" stroke="white" stroke-width="1.5" d="M0,-3.0v7 M-2.5,-0.5L0,-3.0L2.5,-0.5"/>
  </g>
  <g id="arrowRight" transform="rotate(90) translate(36 -43)">
    <use xlink:href="#rim"/>
    <path pointer-events="none" fill="none" stroke="white" stroke-width="1.5" d="M0,-3.0v7 M-2.5,-0.5L0,-3.0L2.5,-0.5"/>
  </g>
  <g id="arrowDown" transform="rotate(180) translate(-30 -48)">
    <use xlink:href="#rim"/>
    <path pointer-events="none" fill="none" stroke="white" stroke-width="1.5" d="M0,-3.0v7 M-2.5,-0.5L0,-3.0L2.5,-0.5"/>
  </g>
  <g id="arrowLeft" transform="rotate(270) translate(-36 17)">
    <use xlink:href="#rim"/>
    <path pointer-events="none" fill="none" stroke="white" stroke-width="1.5" d="M0,-3.0v7 M-2.5,-0.5L0,-3.0L2.5,-0.5"/>
  </g>
  <g id="resetDef">
    <use xlink:href="#rim2" fill="#404040"><set attributeName="fill" to="#808080" begin="reset.mouseover" end="reset.mouseout"/></use>
  </g>
</defs>
<script type="application/ecmascript">
var viewWidth = 1610;
var viewHeight = 423;
var sectionId = 'dynsection-0';
</script>
<script type="application/ecmascript" xlink:href="../../svg.min.js"/>
<svg id="graph" class="graph">
<g id="viewport">
<title>include/core/string_like.hpp</title>
<!-- Node1 -->
<g id="Node000001" class="node">
<title>Node1</title>
<g id="a_Node000001"><a xlink:title="Concept for read&#45;only C&#45;string views with explicit length.">
<polygon fill="#999999" stroke="#666666" points="821.19,-415 714.19,-415 714.19,-385 821.19,-385 821.19,-415"/>
<text text-anchor="start" x="722.19" y="-403" font-family="Helvetica,sans-Serif" font-size="10.00">include/core/string</text>
<text text-anchor="middle" x="767.69" y="-392" font-family="Helvetica,sans-Serif" font-size="10.00">_like.hpp</text>
</a>
</g>
</g>
<!-- Node2 -->
<g id="Node000002" class="node">
<title>Node2</title>
<g id="a_Node000002"><a xlink:href="../../da/d47/core_8hpp.html" target="_top" xlink:title="Umbrella header for the engine core module.">
<polygon fill="white" stroke="#666666" points="860.19,-217 763.19,-217 763.19,-198 860.19,-198 860.19,-217"/>
<text text-anchor="middle" x="811.69" y="-205" font-family="Helvetica,sans-Serif" font-size="10.00">include/core.hpp</text>
</a>
</g>
</g>
<!-- Node1&#45;&gt;Node2 -->
<g id="edge1_Node000001_Node000002" class="edge">
<title>Node1&#45;&gt;Node2</title>
<g id="a_edge1_Node000001_Node000002"><a xlink:title=" ">
<path fill="none" stroke="#63b8ff" d="M709.62,-381.7C637.64,-357.35 529.83,-309.56 576.69,-253 599.86,-225.02 701.17,-214.5 762.96,-210.64"/>
<polygon fill="#63b8ff" stroke="#63b8ff" points="708.93,-385.16 719.52,-384.98 711.13,-378.51 708.93,-385.16"/>
</a>
</g>
</g>
<!-- Node21 -->
<g id="Node000021" class="node">
<title>Node21</title>
<g id="a_Node000021"><a xlink:href="../../dd/ded/c__string__view_8hpp.html" target="_top" xlink:title="Non&#45;owning view over null&#45;terminated C strings.">
<polygon fill="white" stroke="#666666" points="703.19,-283 586.19,-283 586.19,-253 703.19,-253 703.19,-283"/>
<text text-anchor="start" x="594.19" y="-271" font-family="Helvetica,sans-Serif" font-size="10.00">include/core/c_string</text>
<text text-anchor="middle" x="644.69" y="-260" font-family="Helvetica,sans-Serif" font-size="10.00">_view.hpp</text>
</a>
</g>
</g>
<!-- Node1&#45;&gt;Node21 -->
<g id="edge27_Node000001_Node000021" class="edge">
<title>Node1&#45;&gt;Node21</title>
<g id="a_edge27_Node000001_Node000021"><a xlink:title=" ">
<path fill="none" stroke="#63b8ff" d="M747.34,-377.49C722.04,-350.76 679.59,-305.89 658.07,-283.14"/>
<polygon fill="#63b8ff" stroke="#63b8ff" points="744.87,-379.98 754.29,-384.84 749.96,-375.17 744.87,-379.98"/>
</a>
</g>
</g>
<!-- Node22 -->
<g id="Node000022" class="node">
<title>Node22</title>
<g id="a_Node000022"><a xlink:href="../../d7/d7f/fixed__string_8hpp.html" target="_top" xlink:title="Fixed&#45;capacity string with stack storage.">
<polygon fill="white" stroke="#666666" points="823.69,-283 721.69,-283 721.69,-253 823.69,-253 823.69,-283"/>
<text text-anchor="start" x="729.69" y="-271" font-family="Helvetica,sans-Serif" font-size="10.00">include/core/fixed</text>
<text text-anchor="middle" x="772.69" y="-260" font-family="Helvetica,sans-Serif" font-size="10.00">_string.hpp</text>
</a>
</g>
</g>
<!-- Node1&#45;&gt;Node22 -->
<g id="edge29_Node000001_Node000022" class="edge">
<title>Node1&#45;&gt;Node22</title>
<g id="a_edge29_Node000001_Node000022"><a xlink:title=" ">
<path fill="none" stroke="#63b8ff" d="M768.62,-374.68C769.66,-347.7 771.3,-305.11 772.14,-283.14"/>
<polygon fill="#63b8ff" stroke="#63b8ff" points="765.12,-374.71 768.23,-384.84 772.11,-374.98 765.12,-374.71"/>
</a>
</g>
</g>
<!-- Node23 -->
<g id="Node000023" class="node">
<title>Node23</title>
<g id="a_Node000023"><a xlink:href="../../d9/d6a/format__string_8hpp.html" target="_top" xlink:title="Compile&#45;time validated format&#45;string wrapper for auto {} and positional {N} placeholders.">
<polygon fill="white" stroke="#666666" points="907.69,-349 795.69,-349 795.69,-319 907.69,-319 907.69,-349"/>
<text text-anchor="start" x="803.69" y="-337" font-family="Helvetica,sans-Serif" font-size="10.00">include/core/format</text>
<text text-anchor="middle" x="851.69" y="-326" font-family="Helvetica,sans-Serif" font-size="10.00">_string.hpp</text>
</a>
</g>
</g>
<!-- Node1&#45;&gt;Node23 -->
<g id="edge31_Node000001_Node000023" class="edge">
<title>Node1&#45;&gt;Node23</title>
<g id="a_edge31_Node000001_Node000023"><a xlink:title=" ">
<path fill="none" stroke="#63b8ff" d="M794.62,-378.48C807.17,-368.91 821.8,-357.77 833.1,-349.16"/>
<polygon fill="#63b8ff" stroke="#63b8ff" points="792.16,-375.95 786.33,-384.8 796.4,-381.52 792.16,-375.95"/>
</a>
</g>
</g>
<!-- Node25 -->
<g id="Node000025" class="node">
<title>Node25</title>
<g id="a_Node000025"><a xlink:href="../../de/d2d/o__string__stream_8hpp.html" target="_top" xlink:title="Allocator&#45;free output string stream that appends into string&#45;like storage.">
<polygon fill="white" stroke="#666666" points="1043.69,-349 925.69,-349 925.69,-319 1043.69,-319 1043.69,-349"/>
<text text-anchor="start" x="933.69" y="-337" font-family="Helvetica,sans-Serif" font-size="10.00">include/core/o_string</text>
<text text-anchor="middle" x="984.69" y="-326" font-family="Helvetica,sans-Serif" font-size="10.00">_stream.hpp</text>
</a>
</g>
</g>
<!-- Node1&#45;&gt;Node25 -->
<g id="edge35_Node000001_Node000025" class="edge">
<title>Node1&#45;&gt;Node25</title>
<g id="a_edge35_Node000001_Node000025"><a xlink:title=" ">
<path fill="none" stroke="#63b8ff" d="M824.91,-382.12C859.9,-371.8 904.13,-358.76 937.18,-349.01"/>
<polygon fill="#63b8ff" stroke="#63b8ff" points="823.91,-378.77 815.31,-384.95 825.89,-385.48 823.91,-378.77"/>
</a>
</g>
</g>
<!-- Node3 -->
<g id="Node000003" class="node">
<title>Node3</title>
<g id="a_Node000003"><a xlink:href="../../d4/d01/application_8hpp.html" target="_top" xlink:title="Umbrella header for the application module.">
<polygon fill="white" stroke="#666666" points="215.69,-156.5 85.69,-156.5 85.69,-137.5 215.69,-137.5 215.69,-156.5"/>
<text text-anchor="middle" x="150.69" y="-144.5" font-family="Helvetica,sans-Serif" font-size="10.00">include/application.hpp</text>
</a>
</g>
</g>
<!-- Node2&#45;&gt;Node3 -->
<g id="edge2_Node000002_Node000003" class="edge">
<title>Node2&#45;&gt;Node3</title>
<g id="a_edge2_Node000002_Node000003"><a xlink:title=" ">
<path fill="none" stroke="#63b8ff" d="M753.08,-201.31C629.82,-190.4 344.57,-165.16 215.82,-153.76"/>
<polygon fill="#63b8ff" stroke="#63b8ff" points="752.81,-204.8 763.08,-202.2 753.43,-197.83 752.81,-204.8"/>
</a>
</g>
</g>
<!-- Node4 -->
<g id="Node000004" class="node">
<title>Node4</title>
<g id="a_Node000004"><a xlink:href="../../d8/d8c/toygine2_8hpp.html" target="_top" xlink:title="Main umbrella header for the engine.">
<polygon fill="white" stroke="#666666" points="597.19,-19 478.19,-19 478.19,0 597.19,0 597.19,-19"/>
<text text-anchor="middle" x="537.69" y="-7" font-family="Helvetica,sans-Serif" font-size="10.00">include/toygine2.hpp</text>
</a>
</g>
</g>
<!-- Node2&#45;&gt;Node4 -->
<g id="edge21_Node000002_Node000004" class="edge">
<title>Node2&#45;&gt;Node4</title>
<g id="a_edge21_Node000002_Node000004"><a xlink:title=" ">
<path fill="none" stroke="#63b8ff" d="M752.78,-205.83C654.02,-203.78 460.12,-195.47 401.69,-162 356.3,-136 320.31,-96.08 352.69,-55 368.17,-35.35 430.12,-23.37 478.12,-16.87"/>
<polygon fill="#63b8ff" stroke="#63b8ff" points="752.83,-209.33 762.9,-206.03 752.97,-202.33 752.83,-209.33"/>
</a>
</g>
</g>
<!-- Node7 -->
<g id="Node000007" class="node">
<title>Node7</title>
<g id="a_Node000007"><a xlink:href="../../d1/d71/audio_8hpp.html" target="_top" xlink:title="Umbrella header for the audio module.">
<polygon fill="white" stroke="#666666" points="465.19,-85 362.19,-85 362.19,-66 465.19,-66 465.19,-85"/>
<text text-anchor="middle" x="413.69" y="-73" font-family="Helvetica,sans-Serif" font-size="10.00">include/audio.hpp</text>
</a>
</g>
</g>
<!-- Node2&#45;&gt;Node7 -->
<g id="edge6_Node000002_Node000007" class="edge">
<title>Node2&#45;&gt;Node7</title>
<g id="a_edge6_Node000002_Node000007"><a xlink:title=" ">
<path fill="none" stroke="#63b8ff" d="M752.77,-204.04C648.23,-199.07 439.09,-186.2 416.69,-162 397.01,-140.75 405.57,-102.26 410.76,-85.13"/>
<polygon fill="#63b8ff" stroke="#63b8ff" points="752.71,-207.54 762.86,-204.51 753.03,-200.55 752.71,-207.54"/>
</a>
</g>
</g>
<!-- Node8 -->
<g id="Node000008" class="node">
<title>Node8</title>
<g id="a_Node000008"><a xlink:href="../../d8/d39/game_8hpp.html" target="_top" xlink:title="Umbrella header for the game module.">
<polygon fill="white" stroke="#666666" points="529.69,-156.5 425.69,-156.5 425.69,-137.5 529.69,-137.5 529.69,-156.5"/>
<text text-anchor="middle" x="477.69" y="-144.5" font-family="Helvetica,sans-Serif" font-size="10.00">include/game.hpp</text>
</a>
</g>
</g>
<!-- Node2&#45;&gt;Node8 -->
<g id="edge8_Node000002_Node000008" class="edge">
<title>Node2&#45;&gt;Node8</title>
<g id="a_edge8_Node000002_Node000008"><a xlink:title=" ">
<path fill="none" stroke="#63b8ff" d="M752.7,-198C697.28,-189.75 612.11,-176.39 538.69,-162 530.37,-160.37 521.46,-158.43 513.09,-156.53"/>
<polygon fill="#63b8ff" stroke="#63b8ff" points="752.29,-201.48 762.7,-199.48 753.32,-194.55 752.29,-201.48"/>
</a>
</g>
</g>
<!-- Node9 -->
<g id="Node000009" class="node">
<title>Node9</title>
<g id="a_Node000009"><a xlink:href="../../d4/d78/math_8hpp.html" target="_top" xlink:title="Umbrella header for the math module.">
<polygon fill="white" stroke="#666666" points="649.19,-156.5 548.19,-156.5 548.19,-137.5 649.19,-137.5 649.19,-156.5"/>
<text text-anchor="middle" x="598.69" y="-144.5" font-family="Helvetica,sans-Serif" font-size="10.00">include/math.hpp</text>
</a>
</g>
</g>
<!-- Node2&#45;&gt;Node9 -->
<g id="edge9_Node000002_Node000009" class="edge">
<title>Node2&#45;&gt;Node9</title>
<g id="a_edge9_Node000002_Node000009"><a xlink:title=" ">
<path fill="none" stroke="#63b8ff" d="M770.99,-195.32C729.8,-184.01 667.02,-166.77 629.7,-156.52"/>
<polygon fill="#63b8ff" stroke="#63b8ff" points="770.14,-198.72 780.71,-197.99 772,-191.97 770.14,-198.72"/>
</a>
</g>
</g>
<!-- Node11 -->
<g id="Node000011" class="node">
<title>Node11</title>
<g id="a_Node000011"><a xlink:href="../../d6/d67/network_8hpp.html" target="_top" xlink:title="Umbrella header for the network module.">
<polygon fill="white" stroke="#666666" points="783.69,-156.5 667.69,-156.5 667.69,-137.5 783.69,-137.5 783.69,-156.5"/>
<text text-anchor="middle" x="725.69" y="-144.5" font-family="Helvetica,sans-Serif" font-size="10.00">include/network.hpp</text>
</a>
</g>
</g>
<!-- Node2&#45;&gt;Node11 -->
<g id="edge13_Node000002_Node000011" class="edge">
<title>Node2&#45;&gt;Node11</title>
<g id="a_edge13_Node000002_Node000011"><a xlink:title=" ">
<path fill="none" stroke="#63b8ff" d="M790.6,-192.16C774.27,-181.05 752.17,-166.01 738.43,-156.67"/>
<polygon fill="#63b8ff" stroke="#63b8ff" points="788.76,-195.14 799,-197.87 792.7,-189.35 788.76,-195.14"/>
</a>
</g>
</g>
<!-- Node13 -->
<g id="Node000013" class="node">
<title>Node13</title>
<g id="a_Node000013"><a xlink:href="../../de/dd6/ui_8hpp.html" target="_top" xlink:title="Umbrella header for platform UI types.">
<polygon fill="white" stroke="#666666" points="987.69,-85 857.69,-85 857.69,-66 987.69,-66 987.69,-85"/>
<text text-anchor="middle" x="922.69" y="-73" font-family="Helvetica,sans-Serif" font-size="10.00">include/platform/ui.hpp</text>
</a>
</g>
</g>
<!-- Node2&#45;&gt;Node13 -->
<g id="edge16_Node000002_Node000013" class="edge">
<title>Node2&#45;&gt;Node13</title>
<g id="a_edge16_Node000002_Node000013"><a xlink:title=" ">
<path fill="none" stroke="#63b8ff" d="M812.58,-187.44C814.2,-171.28 818.65,-148.21 830.69,-132 847.7,-109.09 877.24,-93.74 898.26,-85.1"/>
<polygon fill="#63b8ff" stroke="#63b8ff" points="809.06,-187.56 811.83,-197.79 816.04,-188.07 809.06,-187.56"/>
</a>
</g>
</g>
<!-- Node14 -->
<g id="Node000014" class="node">
<title>Node14</title>
<g id="a_Node000014"><a xlink:href="../../d6/d4b/render_8hpp.html" target="_top" xlink:title="Umbrella header for the render module.">
<polygon fill="white" stroke="#666666" points="947.19,-156.5 840.19,-156.5 840.19,-137.5 947.19,-137.5 947.19,-156.5"/>
<text text-anchor="middle" x="893.69" y="-144.5" font-family="Helvetica,sans-Serif" font-size="10.00">include/render.hpp</text>
</a>
</g>
</g>
<!-- Node2&#45;&gt;Node14 -->
<g id="edge18_Node000002_Node000014" class="edge">
<title>Node2&#45;&gt;Node14</title>
<g id="a_edge18_Node000002_Node000014"><a xlink:title=" ">
<path fill="none" stroke="#63b8ff" d="M832.22,-191.85C847.76,-180.77 868.56,-165.93 881.54,-156.67"/>
<polygon fill="#63b8ff" stroke="#63b8ff" points="829.89,-189.21 823.79,-197.87 833.96,-194.91 829.89,-189.21"/>
</a>
</g>
</g>
<!-- Node16 -->
<g id="Node000016" class="node">
<title>Node16</title>
<g id="a_Node000016"><a xlink:href="../../da/de0/core_8cpp.html" target="_top" xlink:title="Implementation of toy::initialize() and toy::deInitialize() lifecycle functions.">
<polygon fill="white" stroke="#666666" points="1064.19,-156.5 965.19,-156.5 965.19,-137.5 1064.19,-137.5 1064.19,-156.5"/>
<text text-anchor="middle" x="1014.69" y="-144.5" font-family="Helvetica,sans-Serif" font-size="10.00">src/core/core.cpp</text>
</a>
</g>
</g>
<!-- Node2&#45;&gt;Node16 -->
<g id="edge22_Node000002_Node000016" class="edge">
<title>Node2&#45;&gt;Node16</title>
<g id="a_edge22_Node000002_Node000016"><a xlink:title=" ">
<path fill="none" stroke="#63b8ff" d="M850.97,-195.18C890.23,-183.87 949.71,-166.72 985.13,-156.52"/>
<polygon fill="#63b8ff" stroke="#63b8ff" points="849.84,-191.86 841.2,-197.99 851.78,-198.59 849.84,-191.86"/>
</a>
</g>
</g>
<!-- Node17 -->
<g id="Node000017" class="node">
<title>Node17</title>
<g id="a_Node000017"><a xlink:href="../../db/d2d/hashes_8cpp.html" target="_top" xlink:title="Table&#45;driven implementations of toy::crc8(), toy::crc16(), and toy::crc32().">
<polygon fill="white" stroke="#666666" points="1195.19,-156.5 1082.19,-156.5 1082.19,-137.5 1195.19,-137.5 1195.19,-156.5"/>
<text text-anchor="middle" x="1138.69" y="-144.5" font-family="Helvetica,sans-Serif" font-size="10.00">src/core/hashes.cpp</text>
</a>
</g>
</g>
<!-- Node2&#45;&gt;Node17 -->
<g id="edge23_Node000002_Node000017" class="edge">
<title>Node2&#45;&gt;Node17</title>
<g id="a_edge23_Node000002_Node000017"><a xlink:title=" ">
<path fill="none" stroke="#63b8ff" d="M870.27,-197.2C923.25,-188.63 1003.34,-175.26 1072.69,-162 1081.43,-160.33 1090.8,-158.41 1099.65,-156.55"/>
<polygon fill="#63b8ff" stroke="#63b8ff" points="869.69,-193.75 860.38,-198.8 870.81,-200.66 869.69,-193.75"/>
</a>
</g>
</g>
<!-- Node18 -->
<g id="Node000018" class="node">
<title>Node18</title>
<g id="a_Node000018"><a xlink:href="../../d2/d51/log__sink_8cpp.html" target="_top" xlink:title="Out&#45;of&#45;line definitions for toy::log::ISink.">
<polygon fill="white" stroke="#666666" points="1332.19,-156.5 1213.19,-156.5 1213.19,-137.5 1332.19,-137.5 1332.19,-156.5"/>
<text text-anchor="middle" x="1272.69" y="-144.5" font-family="Helvetica,sans-Serif" font-size="10.00">src/core/log_sink.cpp</text>
</a>
</g>
</g>
<!-- Node2&#45;&gt;Node18 -->
<g id="edge24_Node000002_Node000018" class="edge">
<title>Node2&#45;&gt;Node18</title>
<g id="a_edge24_Node000002_Node000018"><a xlink:title=" ">
<path fill="none" stroke="#63b8ff" d="M870.26,-201.53C947.25,-194.62 1086.57,-180.81 1204.69,-162 1214.33,-160.46 1224.68,-158.5 1234.32,-156.53"/>
<polygon fill="#63b8ff" stroke="#63b8ff" points="869.93,-198.05 860.28,-202.42 870.55,-205.02 869.93,-198.05"/>
</a>
</g>
</g>
<!-- Node19 -->
<g id="Node000019" class="node">
<title>Node19</title>
<g id="a_Node000019"><a xlink:href="../../de/d06/utils_8cpp.html" target="_top" xlink:title="Definitions for string, encoding, and number utilities declared in core/utils.hpp.">
<polygon fill="white" stroke="#666666" points="1449.19,-156.5 1350.19,-156.5 1350.19,-137.5 1449.19,-137.5 1449.19,-156.5"/>
<text text-anchor="middle" x="1399.69" y="-144.5" font-family="Helvetica,sans-Serif" font-size="10.00">src/core/utils.cpp</text>
</a>
</g>
</g>
<!-- Node2&#45;&gt;Node19 -->
<g id="edge25_Node000002_Node000019" class="edge">
<title>Node2&#45;&gt;Node19</title>
<g id="a_edge25_Node000002_Node000019"><a xlink:title=" ">
<path fill="none" stroke="#63b8ff" d="M870.23,-204.51C968.3,-200.53 1171.77,-189.47 1341.69,-162 1350.38,-160.59 1359.69,-158.58 1368.26,-156.51"/>
<polygon fill="#63b8ff" stroke="#63b8ff" points="870.07,-201.02 860.22,-204.91 870.35,-208.01 870.07,-201.02"/>
</a>
</g>
</g>
<!-- Node20 -->
<g id="Node000020" class="node">
<title>Node20</title>
<g id="a_Node000020"><a xlink:href="../../d7/d90/assertion__stub_8cpp.html" target="_top" xlink:title="Stub definitions for the assertion callback API declared in core/assertion.hpp.">
<polygon fill="white" stroke="#666666" points="1602.19,-162 1467.19,-162 1467.19,-132 1602.19,-132 1602.19,-162"/>
<text text-anchor="start" x="1475.19" y="-150" font-family="Helvetica,sans-Serif" font-size="10.00">src/platforms/stub</text>
<text text-anchor="middle" x="1534.69" y="-139" font-family="Helvetica,sans-Serif" font-size="10.00">/core/assertion_stub.cpp</text>
</a>
</g>
</g>
<!-- Node2&#45;&gt;Node20 -->
<g id="edge26_Node000002_Node000020" class="edge">
<title>Node2&#45;&gt;Node20</title>
<g id="a_edge26_Node000002_Node000020"><a xlink:title=" ">
<path fill="none" stroke="#63b8ff" d="M870.82,-204.68C984.9,-200.67 1243.12,-189.18 1458.69,-162 1461.35,-161.66 1464.06,-161.3 1466.79,-160.9"/>
<polygon fill="#63b8ff" stroke="#63b8ff" points="870.44,-201.19 860.57,-205.03 870.68,-208.19 870.44,-201.19"/>
</a>
</g>
</g>
<!-- Node3&#45;&gt;Node4 -->
<g id="edge3_Node000003_Node000004" class="edge">
<title>Node3&#45;&gt;Node4</title>
<g id="a_edge3_Node000003_Node000004"><a xlink:title=" ">
<path fill="none" stroke="#63b8ff" d="M75.72,-137.28C50.2,-130.32 24.22,-117.94 8.69,-96 -1.84,-81.13 -3.65,-68.41 8.69,-55 39.91,-21.03 345.97,-12.98 477.79,-11.08"/>
<polygon fill="#63b8ff" stroke="#63b8ff" points="74.9,-140.69 85.45,-139.69 76.59,-133.89 74.9,-140.69"/>
</a>
</g>
</g>
<!-- Node5 -->
<g id="Node000005" class="node">
<title>Node5</title>
<g id="a_Node000005"><a xlink:href="../../d0/dbb/core__application_8cpp.html" target="_top" xlink:title="Implementations for toy::application::CoreApplication.">
<polygon fill="white" stroke="#666666" points="129.69,-90.5 17.69,-90.5 17.69,-60.5 129.69,-60.5 129.69,-90.5"/>
<text text-anchor="start" x="25.69" y="-78.5" font-family="Helvetica,sans-Serif" font-size="10.00">src/application/core</text>
<text text-anchor="middle" x="73.69" y="-67.5" font-family="Helvetica,sans-Serif" font-size="10.00">_application.cpp</text>
</a>
</g>
</g>
<!-- Node3&#45;&gt;Node5 -->
<g id="edge4_Node000003_Node000005" class="edge">
<title>Node3&#45;&gt;Node5</title>
<g id="a_edge4_Node000003_Node000005"><a xlink:title=" ">
<path fill="none" stroke="#63b8ff" d="M133.74,-130.71C120.51,-118.76 102.25,-102.28 89.35,-90.64"/>
<polygon fill="#63b8ff" stroke="#63b8ff" points="131.48,-133.38 141.24,-137.48 136.17,-128.18 131.48,-133.38"/>
</a>
</g>
</g>
<!-- Node6 -->
<g id="Node000006" class="node">
<title>Node6</title>
<g id="a_Node000006"><a xlink:href="../../db/da8/core__application__stub_8cpp.html" target="_top" xlink:title="Stub implementation of toy::application::CoreApplication::sleep() for platforms without OS sleep supp...">
<polygon fill="white" stroke="#666666" points="305.19,-96 148.19,-96 148.19,-55 305.19,-55 305.19,-96"/>
<text text-anchor="start" x="156.19" y="-84" font-family="Helvetica,sans-Serif" font-size="10.00">src/platforms/stub</text>
<text text-anchor="start" x="156.19" y="-73" font-family="Helvetica,sans-Serif" font-size="10.00">/application/core_application</text>
<text text-anchor="middle" x="226.69" y="-62" font-family="Helvetica,sans-Serif" font-size="10.00">_stub.cpp</text>
</a>
</g>
</g>
<!-- Node3&#45;&gt;Node6 -->
<g id="edge5_Node000003_Node000006" class="edge">
<title>Node3&#45;&gt;Node6</title>
<g id="a_edge5_Node000003_Node000006"><a xlink:title=" ">
<path fill="none" stroke="#63b8ff" d="M167.7,-130.45C178.77,-120.32 193.3,-107.03 205.17,-96.17"/>
<polygon fill="#63b8ff" stroke="#63b8ff" points="165.02,-128.15 160.01,-137.48 169.75,-133.31 165.02,-128.15"/>
</a>
</g>
</g>
<!-- Node7&#45;&gt;Node4 -->
<g id="edge7_Node000007_Node000004" class="edge">
<title>Node7&#45;&gt;Node4</title>
<g id="a_edge7_Node000007_Node000004"><a xlink:title=" ">
<path fill="none" stroke="#63b8ff" d="M439.46,-61.19C463.89,-48.59 499.88,-30.01 520.83,-19.2"/>
<polygon fill="#63b8ff" stroke="#63b8ff" points="437.69,-58.17 430.41,-65.87 440.9,-64.39 437.69,-58.17"/>
</a>
</g>
</g>
<!-- Node9&#45;&gt;Node4 -->
<g id="edge12_Node000009_Node000004" class="edge">
<title>Node9&#45;&gt;Node4</title>
<g id="a_edge12_Node000009_Node000004"><a xlink:title=" ">
<path fill="none" stroke="#63b8ff" d="M559.57,-133.5C541.96,-125.69 522.86,-113.68 512.69,-96 497.88,-70.26 519.35,-35.04 531,-19.03"/>
<polygon fill="#63b8ff" stroke="#63b8ff" points="558.56,-136.87 569.14,-137.41 561.21,-130.39 558.56,-136.87"/>
</a>
</g>
</g>
<!-- Node10 -->
<g id="Node000010" class="node">
<title>Node10</title>
<g id="a_Node000010"><a xlink:href="../../db/dbb/geometry_8hpp.html" target="_top" xlink:title="Umbrella header for the geometry module.">
<polygon fill="white" stroke="#666666" points="643.69,-85 521.69,-85 521.69,-66 643.69,-66 643.69,-85"/>
<text text-anchor="middle" x="582.69" y="-73" font-family="Helvetica,sans-Serif" font-size="10.00">include/geometry.hpp</text>
</a>
</g>
</g>
<!-- Node9&#45;&gt;Node10 -->
<g id="edge10_Node000009_Node000010" class="edge">
<title>Node9&#45;&gt;Node10</title>
<g id="a_edge10_Node000009_Node000010"><a xlink:title=" ">
<path fill="none" stroke="#63b8ff" d="M594.46,-127.62C591.29,-113.86 587.1,-95.65 584.66,-85.09"/>
<polygon fill="#63b8ff" stroke="#63b8ff" points="591.07,-128.52 596.72,-137.48 597.89,-126.95 591.07,-128.52"/>
</a>
</g>
</g>
<!-- Node10&#45;&gt;Node4 -->
<g id="edge11_Node000010_Node000004" class="edge">
<title>Node10&#45;&gt;Node4</title>
<g id="a_edge11_Node000010_Node000004"><a xlink:title=" ">
<path fill="none" stroke="#63b8ff" d="M570.67,-57.41C562.07,-45.18 550.84,-29.2 543.95,-19.41"/>
<polygon fill="#63b8ff" stroke="#63b8ff" points="568,-59.7 576.62,-65.87 573.73,-55.68 568,-59.7"/>
</a>
</g>
</g>
<!-- Node11&#45;&gt;Node4 -->
<g id="edge14_Node000011_Node000004" class="edge">
<title>Node11&#45;&gt;Node4</title>
<g id="a_edge14_Node000011_Node000004"><a xlink:title=" ">
<path fill="none" stroke="#63b8ff" d="M713.87,-129.24C697.25,-106.03 667.33,-65.72 652.69,-55 628.85,-37.55 597.29,-25.98 573.27,-19.02"/>
<polygon fill="#63b8ff" stroke="#63b8ff" points="711.08,-131.35 719.73,-137.48 716.79,-127.3 711.08,-131.35"/>
</a>
</g>
</g>
<!-- Node12 -->
<g id="Node000012" class="node">
<title>Node12</title>
<g id="a_Node000012"><a xlink:href="../../d3/d80/endpoint_8cpp.html" target="_top" xlink:title="Definitions for the toy::network::Endpoint destructor declared in network/endpoint....">
<polygon fill="white" stroke="#666666" points="839.69,-85 699.69,-85 699.69,-66 839.69,-66 839.69,-85"/>
<text text-anchor="middle" x="769.69" y="-73" font-family="Helvetica,sans-Serif" font-size="10.00">src/network/endpoint.cpp</text>
</a>
</g>
</g>
<!-- Node11&#45;&gt;Node12 -->
<g id="edge15_Node000011_Node000012" class="edge">
<title>Node11&#45;&gt;Node12</title>
<g id="a_edge15_Node000011_Node000012"><a xlink:title=" ">
<path fill="none" stroke="#63b8ff" d="M736.55,-128.84C745.35,-114.95 757.36,-95.96 764.25,-85.09"/>
<polygon fill="#63b8ff" stroke="#63b8ff" points="733.47,-127.16 731.08,-137.48 739.39,-130.9 733.47,-127.16"/>
</a>
</g>
</g>
<!-- Node13&#45;&gt;Node4 -->
<g id="edge17_Node000013_Node000004" class="edge">
<title>Node13&#45;&gt;Node4</title>
<g id="a_edge17_Node000013_Node000004"><a xlink:title=" ">
<path fill="none" stroke="#63b8ff" d="M883.44,-63.25C872.27,-60.3 860.05,-57.3 848.69,-55 761.95,-37.43 660.24,-24.25 597.37,-16.96"/>
<polygon fill="#63b8ff" stroke="#63b8ff" points="882.78,-66.7 893.34,-65.93 884.6,-59.94 882.78,-66.7"/>
</a>
</g>
</g>
<!-- Node14&#45;&gt;Node4 -->
<g id="edge19_Node000014_Node000004" class="edge">
<title>Node14&#45;&gt;Node4</title>
<g id="a_edge19_Node000014_Node000004"><a xlink:title=" ">
<path fill="none" stroke="#63b8ff" d="M943.96,-134.11C963.95,-126.65 984.95,-114.75 996.69,-96 1006.36,-80.56 1008.93,-68.49 996.69,-55 970.35,-25.99 715.92,-15.33 597.62,-11.91"/>
<polygon fill="#63b8ff" stroke="#63b8ff" points="942.6,-130.87 934.27,-137.42 944.87,-137.49 942.6,-130.87"/>
</a>
</g>
</g>
<!-- Node15 -->
<g id="Node000015" class="node">
<title>Node15</title>
<g id="a_Node000015"><a xlink:href="../../db/d3d/pixel__format_8cpp.html" target="_top" xlink:title="Definitions for pixelFormatName() and pixelFormatFromName() declared in render/pixel_format....">
<polygon fill="white" stroke="#666666" points="1193.69,-85 1043.69,-85 1043.69,-66 1193.69,-66 1193.69,-85"/>
<text text-anchor="middle" x="1118.69" y="-73" font-family="Helvetica,sans-Serif" font-size="10.00">src/render/pixel_format.cpp</text>
</a>
</g>
</g>
<!-- Node14&#45;&gt;Node15 -->
<g id="edge20_Node000014_Node000015" class="edge">
<title>Node14&#45;&gt;Node15</title>
<g id="a_edge20_Node000014_Node000015"><a xlink:title=" ">
<path fill="none" stroke="#63b8ff" d="M930.95,-134.49C975.95,-120.59 1050.6,-97.53 1090.87,-85.09"/>
<polygon fill="#63b8ff" stroke="#63b8ff" points="929.8,-131.18 921.28,-137.48 931.86,-137.87 929.8,-131.18"/>
</a>
</g>
</g>
<!-- Node21&#45;&gt;Node2 -->
<g id="edge28_Node000021_Node000002" class="edge">
<title>Node21&#45;&gt;Node2</title>
<g id="a_edge28_Node000021_Node000002"><a xlink:title=" ">
<path fill="none" stroke="#63b8ff" d="M694.32,-249.61C724.88,-238.91 762.71,-225.65 787.02,-217.14"/>
<polygon fill="#63b8ff" stroke="#63b8ff" points="692.97,-246.38 684.69,-252.99 695.28,-252.98 692.97,-246.38"/>
</a>
</g>
</g>
<!-- Node22&#45;&gt;Node2 -->
<g id="edge30_Node000022_Node000002" class="edge">
<title>Node22&#45;&gt;Node2</title>
<g id="a_edge30_Node000022_Node000002"><a xlink:title=" ">
<path fill="none" stroke="#63b8ff" d="M787.68,-244.51C794.03,-234.99 801.04,-224.47 805.84,-217.27"/>
<polygon fill="#63b8ff" stroke="#63b8ff" points="784.76,-242.58 782.13,-252.84 790.59,-246.46 784.76,-242.58"/>
</a>
</g>
</g>
<!-- Node23&#45;&gt;Node2 -->
<g id="edge32_Node000023_Node000002" class="edge">
<title>Node23&#45;&gt;Node2</title>
<g id="a_edge32_Node000023_Node000002"><a xlink:title=" ">
<path fill="none" stroke="#63b8ff" d="M847.29,-308.71C844.05,-292.66 839.09,-271.28 832.69,-253 828.17,-240.1 821.09,-225.94 816.42,-217.14"/>
<polygon fill="#63b8ff" stroke="#63b8ff" points="843.92,-309.72 849.25,-318.87 850.79,-308.39 843.92,-309.72"/>
</a>
</g>
</g>
<!-- Node24 -->
<g id="Node000024" class="node">
<title>Node24</title>
<g id="a_Node000024"><a xlink:href="../../d4/d0a/format_8hpp.html" target="_top" xlink:title="Format functions for substituting arguments into {} and {N} placeholders.">
<polygon fill="white" stroke="#666666" points="1013.19,-277.5 880.19,-277.5 880.19,-258.5 1013.19,-258.5 1013.19,-277.5"/>
<text text-anchor="middle" x="946.69" y="-265.5" font-family="Helvetica,sans-Serif" font-size="10.00">include/core/format.hpp</text>
</a>
</g>
</g>
<!-- Node23&#45;&gt;Node24 -->
<g id="edge33_Node000023_Node000024" class="edge">
<title>Node23&#45;&gt;Node24</title>
<g id="a_edge33_Node000023_Node000024"><a xlink:title=" ">
<path fill="none" stroke="#63b8ff" d="M881.08,-313.2C898.76,-301.29 920.37,-286.73 933.83,-277.66"/>
<polygon fill="#63b8ff" stroke="#63b8ff" points="879.11,-310.31 872.77,-318.8 883.02,-316.11 879.11,-310.31"/>
</a>
</g>
</g>
<!-- Node24&#45;&gt;Node2 -->
<g id="edge34_Node000024_Node000002" class="edge">
<title>Node24&#45;&gt;Node2</title>
<g id="a_edge34_Node000024_Node000002"><a xlink:title=" ">
<path fill="none" stroke="#63b8ff" d="M917.68,-254.43C891.62,-243.14 854.05,-226.86 831.34,-217.02"/>
<polygon fill="#63b8ff" stroke="#63b8ff" points="916.49,-257.73 927.06,-258.49 919.27,-251.31 916.49,-257.73"/>
</a>
</g>
</g>
<!-- Node25&#45;&gt;Node2 -->
<g id="edge36_Node000025_Node000002" class="edge">
<title>Node25&#45;&gt;Node2</title>
<g id="a_edge36_Node000025_Node000002"><a xlink:title=" ">
<path fill="none" stroke="#63b8ff" d="M1007.07,-311.03C1021.72,-293.97 1035.76,-270.37 1021.69,-253 1001.8,-228.46 916.19,-216.91 860.6,-211.9"/>
<polygon fill="#63b8ff" stroke="#63b8ff" points="1004.11,-309.08 999.95,-318.82 1009.28,-313.8 1004.11,-309.08"/>
</a>
</g>
</g>
<!-- Node25&#45;&gt;Node24 -->
<g id="edge37_Node000025_Node000024" class="edge">
<title>Node25&#45;&gt;Node24</title>
<g id="a_edge37_Node000025_Node000024"><a xlink:title=" ">
<path fill="none" stroke="#63b8ff" d="M971,-309.95C964.39,-298.81 956.85,-286.11 951.94,-277.84"/>
<polygon fill="#63b8ff" stroke="#63b8ff" points="968.14,-311.98 976.25,-318.8 974.16,-308.41 968.14,-311.98"/>
</a>
</g>
</g>
</g>
</svg>

<g id="navigator" transform="translate(0 0)" fill="#404254">
  <rect fill="#f2f5e9" fill-opacity="0.5" stroke="#606060" stroke-width=".5" x="0" y="0" width="60" height="60"/>
  <use id="zoomplus" xlink:href="#zoomPlus" x="17" y="9" onmousedown="handleZoom(evt,'in')"/>
  <use id="zoomminus" xlink:href="#zoomMin" x="42" y="9" onmousedown="handleZoom(evt,'out')"/>
  <use id="reset" xlink:href="#resetDef" x="30" y="36" onmousedown="handleReset()"/>
   <use id="arrowup" xlink:href="#arrowUp" x="0" y="0" onmousedown="handlePan(0,-1)"/>
  <use id="arrowright" xlink:href="#arrowRight" x="0" y="0" onmousedown="handlePan(1,0)"/>
  <use id="arrowdown" xlink:href="#arrowDown" x="0" y="0" onmousedown="handlePan(0,1)"/>
  <use id="arrowleft" xlink:href="#arrowLeft" x="0" y="0" onmousedown="handlePan(-1,0)"/>
</g>
<svg viewBox="0 0 15 15" width="100%" height="30px" preserveAspectRatio="xMaxYMin meet">
 <g id="arrow_out" transform="scale(0.3 0.3)">
  <a xlink:href="string__like_8hpp__dep__incl_org.svg" target="_base">
   <rect id="button" ry="5" rx="5" y="6" x="6" height="38" width="38"
        fill="#f2f5e9" fill-opacity="0.5" stroke="#606060" stroke-width="1.0"/>
   <path id="arrow"
     d="M 11.500037,31.436501 C 11.940474,20.09759 22.043105,11.32322 32.158766,21.979434 L 37.068811,17.246167 C 37.068811,17.246167 37.088388,32 37.088388,32 L 22.160133,31.978069 C 22.160133,31.978069 26.997745,27.140456 26.997745,27.140456 C 18.528582,18.264221 13.291696,25.230495 11.500037,31.436501 z"
     style="fill:#404040;"/>
  </a>
 </g>
</svg>

<style type='text/css'>
<![CDATA[
[data-mouse-over-selected='false'] { opacity: 0.7; }
[data-mouse-over-selected='true']  { opacity: 1.0; }
]]>
</style>
<script type="application/ecmascript"><![CDATA[
document.addEventListener('DOMContentLoaded', (event) => {
  highlightEdges();
  highlightAdjacentNodes();
});
]]></script>
</svg>
