<?xml version="1.0" encoding="UTF-8" standalone="no"?>
<!DOCTYPE svg PUBLIC "-//W3C//DTD SVG 1.1//EN"
 "http://www.w3.org/Graphics/SVG/1.1/DTD/svg11.dtd">
<!-- Generated by graphviz version 2.43.0 (0)
 -->
<!-- Title: include/core/string_like.hpp Pages: 1 -->
<svg width="623pt" height="225pt"
 viewBox="0.00 0.00 622.50 225.00" xmlns="http://www.w3.org/2000/svg" xmlns:xlink="http://www.w3.org/1999/xlink">
<g id="graph0" class="graph" transform="scale(1 1) rotate(0) translate(4 221)">
<title>include/core/string_like.hpp</title>
<!-- Node1 -->
<g id="Node000001" class="node">
<title>Node1</title>
<g id="a_Node000001"><a xlink:title="C++ concept for string&#45;like types with size() and c_str() methods.">
<polygon fill="#999999" stroke="#666666" points="341.5,-217 234.5,-217 234.5,-187 341.5,-187 341.5,-217"/>
<text text-anchor="start" x="242.5" y="-205" font-family="Helvetica,sans-Serif" font-size="10.00">include/core/string</text>
<text text-anchor="middle" x="288" y="-194" font-family="Helvetica,sans-Serif" font-size="10.00">_like.hpp</text>
</a>
</g>
</g>
<!-- Node2 -->
<g id="Node000002" class="node">
<title>Node2</title>
<g id="a_Node000002"><a xlink:href="../../da/d47/core_8hpp.html" target="_top" xlink:title="Umbrella header for the engine core module.">
<polygon fill="white" stroke="#666666" points="336.5,-85 239.5,-85 239.5,-66 336.5,-66 336.5,-85"/>
<text text-anchor="middle" x="288" y="-73" font-family="Helvetica,sans-Serif" font-size="10.00">include/core.hpp</text>
</a>
</g>
</g>
<!-- Node1&#45;&gt;Node2 -->
<g id="edge1_Node000001_Node000002" class="edge">
<title>Node1&#45;&gt;Node2</title>
<g id="a_edge1_Node000001_Node000002"><a xlink:title=" ">
<path fill="none" stroke="#63b8ff" d="M248.82,-181.44C237.41,-173.64 226.33,-163.5 220,-151 213.98,-139.1 213.66,-132.73 220,-121 229.33,-103.75 248.57,-92.11 264.22,-85.08"/>
<polygon fill="#63b8ff" stroke="#63b8ff" points="247.21,-184.56 257.54,-186.94 250.95,-178.64 247.21,-184.56"/>
</a>
</g>
</g>
<!-- Node8 -->
<g id="Node000008" class="node">
<title>Node8</title>
<g id="a_Node000008"><a xlink:href="../../dd/ded/c__string__view_8hpp.html" target="_top" xlink:title="Non&#45;owning string view class for C&#45;style strings.">
<polygon fill="white" stroke="#666666" points="346.5,-151 229.5,-151 229.5,-121 346.5,-121 346.5,-151"/>
<text text-anchor="start" x="237.5" y="-139" font-family="Helvetica,sans-Serif" font-size="10.00">include/core/c_string</text>
<text text-anchor="middle" x="288" y="-128" font-family="Helvetica,sans-Serif" font-size="10.00">_view.hpp</text>
</a>
</g>
</g>
<!-- Node1&#45;&gt;Node8 -->
<g id="edge7_Node000001_Node000008" class="edge">
<title>Node1&#45;&gt;Node8</title>
<g id="a_edge7_Node000001_Node000008"><a xlink:title=" ">
<path fill="none" stroke="#63b8ff" d="M288,-176.54C288,-167.96 288,-158.61 288,-151.16"/>
<polygon fill="#63b8ff" stroke="#63b8ff" points="284.5,-176.8 288,-186.8 291.5,-176.8 284.5,-176.8"/>
</a>
</g>
</g>
<!-- Node9 -->
<g id="Node000009" class="node">
<title>Node9</title>
<g id="a_Node000009"><a xlink:href="../../d7/d7f/fixed__string_8hpp.html" target="_top" xlink:title="Template string class with fixed&#45;size character buffer.">
<polygon fill="white" stroke="#666666" points="467,-151 365,-151 365,-121 467,-121 467,-151"/>
<text text-anchor="start" x="373" y="-139" font-family="Helvetica,sans-Serif" font-size="10.00">include/core/fixed</text>
<text text-anchor="middle" x="416" y="-128" font-family="Helvetica,sans-Serif" font-size="10.00">_string.hpp</text>
</a>
</g>
</g>
<!-- Node1&#45;&gt;Node9 -->
<g id="edge9_Node000001_Node000009" class="edge">
<title>Node1&#45;&gt;Node9</title>
<g id="a_edge9_Node000001_Node000009"><a xlink:title=" ">
<path fill="none" stroke="#63b8ff" d="M325.24,-182.38C345.27,-172.36 369.57,-160.22 387.98,-151.01"/>
<polygon fill="#63b8ff" stroke="#63b8ff" points="323.47,-179.35 316.09,-186.95 326.6,-185.61 323.47,-179.35"/>
</a>
</g>
</g>
<!-- Node3 -->
<g id="Node000003" class="node">
<title>Node3</title>
<g id="a_Node000003"><a xlink:href="../../d6/d2c/app_8hpp.html" target="_top" xlink:title="Umbrella header for the engine application module.">
<polygon fill="white" stroke="#666666" points="94,-24.5 0,-24.5 0,-5.5 94,-5.5 94,-24.5"/>
<text text-anchor="middle" x="47" y="-12.5" font-family="Helvetica,sans-Serif" font-size="10.00">include/app.hpp</text>
</a>
</g>
</g>
<!-- Node2&#45;&gt;Node3 -->
<g id="edge2_Node000002_Node000003" class="edge">
<title>Node2&#45;&gt;Node3</title>
<g id="a_edge2_Node000002_Node000003"><a xlink:title=" ">
<path fill="none" stroke="#63b8ff" d="M242.07,-63.57C204.62,-54.63 150.36,-41.62 103,-30 95.89,-28.26 88.29,-26.37 81.04,-24.56"/>
<polygon fill="#63b8ff" stroke="#63b8ff" points="241.63,-67.06 252.17,-65.98 243.25,-60.26 241.63,-67.06"/>
</a>
</g>
</g>
<!-- Node4 -->
<g id="Node000004" class="node">
<title>Node4</title>
<g id="a_Node000004"><a xlink:href="../../d4/d78/math_8hpp.html" target="_top" xlink:title="Umbrella header for the engine mathematics module.">
<polygon fill="white" stroke="#666666" points="213.5,-24.5 112.5,-24.5 112.5,-5.5 213.5,-5.5 213.5,-24.5"/>
<text text-anchor="middle" x="163" y="-12.5" font-family="Helvetica,sans-Serif" font-size="10.00">include/math.hpp</text>
</a>
</g>
</g>
<!-- Node2&#45;&gt;Node4 -->
<g id="edge3_Node000002_Node000004" class="edge">
<title>Node2&#45;&gt;Node4</title>
<g id="a_edge3_Node000002_Node000004"><a xlink:title=" ">
<path fill="none" stroke="#63b8ff" d="M260.51,-61.63C236.4,-50.35 202.04,-34.27 181.2,-24.52"/>
<polygon fill="#63b8ff" stroke="#63b8ff" points="259.28,-64.92 269.82,-65.99 262.25,-58.58 259.28,-64.92"/>
</a>
</g>
</g>
<!-- Node5 -->
<g id="Node000005" class="node">
<title>Node5</title>
<g id="a_Node000005"><a xlink:href="../../db/d2d/hashes_8cpp.html" target="_top" xlink:title="Implementation of CRC hash functions with lookup tables for optimal performance.">
<polygon fill="white" stroke="#666666" points="344.5,-24.5 231.5,-24.5 231.5,-5.5 344.5,-5.5 344.5,-24.5"/>
<text text-anchor="middle" x="288" y="-12.5" font-family="Helvetica,sans-Serif" font-size="10.00">src/core/hashes.cpp</text>
</a>
</g>
</g>
<!-- Node2&#45;&gt;Node5 -->
<g id="edge4_Node000002_Node000005" class="edge">
<title>Node2&#45;&gt;Node5</title>
<g id="a_edge4_Node000002_Node000005"><a xlink:title=" ">
<path fill="none" stroke="#63b8ff" d="M288,-55.66C288,-45.24 288,-32.8 288,-24.67"/>
<polygon fill="#63b8ff" stroke="#63b8ff" points="284.5,-55.87 288,-65.87 291.5,-55.87 284.5,-55.87"/>
</a>
</g>
</g>
<!-- Node6 -->
<g id="Node000006" class="node">
<title>Node6</title>
<g id="a_Node000006"><a xlink:href="../../de/d06/utils_8cpp.html" target="_top" xlink:title="Implementation of core utility functions for string manipulation, encoding conversion,...">
<polygon fill="white" stroke="#666666" points="461.5,-24.5 362.5,-24.5 362.5,-5.5 461.5,-5.5 461.5,-24.5"/>
<text text-anchor="middle" x="412" y="-12.5" font-family="Helvetica,sans-Serif" font-size="10.00">src/core/utils.cpp</text>
</a>
</g>
</g>
<!-- Node2&#45;&gt;Node6 -->
<g id="edge5_Node000002_Node000006" class="edge">
<title>Node2&#45;&gt;Node6</title>
<g id="a_edge5_Node000002_Node000006"><a xlink:title=" ">
<path fill="none" stroke="#63b8ff" d="M315.27,-61.63C339.19,-50.35 373.28,-34.27 393.95,-24.52"/>
<polygon fill="#63b8ff" stroke="#63b8ff" points="313.58,-58.56 306.03,-65.99 316.57,-64.89 313.58,-58.56"/>
</a>
</g>
</g>
<!-- Node7 -->
<g id="Node000007" class="node">
<title>Node7</title>
<g id="a_Node000007"><a xlink:href="../../d7/d90/assertion__stub_8cpp.html" target="_top" xlink:title="Stub implementation of assertion system for platforms without native assertion support.">
<polygon fill="white" stroke="#666666" points="614.5,-30 479.5,-30 479.5,0 614.5,0 614.5,-30"/>
<text text-anchor="start" x="487.5" y="-18" font-family="Helvetica,sans-Serif" font-size="10.00">src/platforms/stub</text>
<text text-anchor="middle" x="547" y="-7" font-family="Helvetica,sans-Serif" font-size="10.00">/core/assertion_stub.cpp</text>
</a>
</g>
</g>
<!-- Node2&#45;&gt;Node7 -->
<g id="edge6_Node000002_Node000007" class="edge">
<title>Node2&#45;&gt;Node7</title>
<g id="a_edge6_Node000002_Node000007"><a xlink:title=" ">
<path fill="none" stroke="#63b8ff" d="M335.64,-63.74C377.65,-54.25 439.14,-40.36 484.98,-30.01"/>
<polygon fill="#63b8ff" stroke="#63b8ff" points="334.64,-60.38 325.66,-65.99 336.19,-67.2 334.64,-60.38"/>
</a>
</g>
</g>
<!-- Node8&#45;&gt;Node2 -->
<g id="edge8_Node000008_Node000002" class="edge">
<title>Node8&#45;&gt;Node2</title>
<g id="a_edge8_Node000008_Node000002"><a xlink:title=" ">
<path fill="none" stroke="#63b8ff" d="M288,-110.75C288,-101.72 288,-92.03 288,-85.27"/>
<polygon fill="#63b8ff" stroke="#63b8ff" points="284.5,-110.84 288,-120.84 291.5,-110.84 284.5,-110.84"/>
</a>
</g>
</g>
<!-- Node9&#45;&gt;Node2 -->
<g id="edge10_Node000009_Node000002" class="edge">
<title>Node9&#45;&gt;Node2</title>
<g id="a_edge10_Node000009_Node000002"><a xlink:title=" ">
<path fill="none" stroke="#63b8ff" d="M376.12,-116.77C353.04,-106.22 325.05,-93.43 306.9,-85.14"/>
<polygon fill="#63b8ff" stroke="#63b8ff" points="374.79,-120.01 385.34,-120.99 377.7,-113.65 374.79,-120.01"/>
</a>
</g>
</g>
</g>
</svg>
