<?xml version="1.0" encoding="UTF-8" standalone="no"?>
<!DOCTYPE svg PUBLIC "-//W3C//DTD SVG 1.1//EN"
 "http://www.w3.org/Graphics/SVG/1.1/DTD/svg11.dtd">
<!-- Generated by graphviz version 2.43.0 (0)
 -->
<!-- Title: include/math.hpp Pages: 1 -->
<svg width="3924pt" height="225pt"
 viewBox="0.00 0.00 3923.50 225.00" xmlns="http://www.w3.org/2000/svg" xmlns:xlink="http://www.w3.org/1999/xlink">
<g id="graph0" class="graph" transform="scale(1 1) rotate(0) translate(4 221)">
<title>include/math.hpp</title>
<!-- Node1 -->
<g id="Node000001" class="node">
<title>Node1</title>
<g id="a_Node000001"><a xlink:title="Umbrella header for the engine mathematics module.">
<polygon fill="#999999" stroke="#666666" points="1838.5,-217 1737.5,-217 1737.5,-198 1838.5,-198 1838.5,-217"/>
<text text-anchor="middle" x="1788" y="-205" font-family="Helvetica,sans-Serif" font-size="10.00">include/math.hpp</text>
</a>
</g>
</g>
<!-- Node2 -->
<g id="Node000002" class="node">
<title>Node2</title>
<g id="a_Node000002"><a xlink:title=" ">
<polygon fill="#e0e0e0" stroke="#999999" points="1361.5,-162 1302.5,-162 1302.5,-143 1361.5,-143 1361.5,-162"/>
<text text-anchor="middle" x="1332" y="-150" font-family="Helvetica,sans-Serif" font-size="10.00">numbers</text>
</a>
</g>
</g>
<!-- Node1&#45;&gt;Node2 -->
<g id="edge1_Node000001_Node000002" class="edge">
<title>Node1&#45;&gt;Node2</title>
<g id="a_edge1_Node000001_Node000002"><a xlink:title=" ">
<path fill="none" stroke="#63b8ff" d="M1737.24,-202.97C1660.25,-197.21 1509.21,-184.3 1372.08,-162.18"/>
<polygon fill="#63b8ff" stroke="#63b8ff" points="1372.24,-158.66 1361.81,-160.5 1371.11,-165.57 1372.24,-158.66"/>
</a>
</g>
</g>
<!-- Node3 -->
<g id="Node000003" class="node">
<title>Node3</title>
<g id="a_Node000003"><a xlink:href="../../da/d47/core_8hpp.html" target="_top" xlink:title="Umbrella header for the engine core module.">
<polygon fill="white" stroke="#666666" points="1438.5,-162 1379.5,-162 1379.5,-143 1438.5,-143 1438.5,-162"/>
<text text-anchor="middle" x="1409" y="-150" font-family="Helvetica,sans-Serif" font-size="10.00">core.hpp</text>
</a>
</g>
</g>
<!-- Node1&#45;&gt;Node3 -->
<g id="edge2_Node000001_Node000003" class="edge">
<title>Node1&#45;&gt;Node3</title>
<g id="a_edge2_Node000001_Node000003"><a xlink:title=" ">
<path fill="none" stroke="#63b8ff" d="M1737.23,-201.32C1672.44,-194.4 1556.72,-180.95 1448.89,-162.21"/>
<polygon fill="#63b8ff" stroke="#63b8ff" points="1449.27,-158.72 1438.82,-160.44 1448.06,-165.62 1449.27,-158.72"/>
</a>
</g>
</g>
<!-- Node44 -->
<g id="Node000044" class="node">
<title>Node44</title>
<g id="a_Node000044"><a xlink:href="../../d5/d42/fixed_8hpp.html" target="_top" xlink:title="Fixed&#45;point numeric type template.">
<polygon fill="white" stroke="#666666" points="1545.5,-162 1456.5,-162 1456.5,-143 1545.5,-143 1545.5,-162"/>
<text text-anchor="middle" x="1501" y="-150" font-family="Helvetica,sans-Serif" font-size="10.00">math/fixed.hpp</text>
</a>
</g>
</g>
<!-- Node1&#45;&gt;Node44 -->
<g id="edge48_Node000001_Node000044" class="edge">
<title>Node1&#45;&gt;Node44</title>
<g id="a_edge48_Node000001_Node000044"><a xlink:title=" ">
<path fill="none" stroke="#63b8ff" d="M1741.89,-197.98C1691.13,-188.61 1609.58,-173.55 1555.65,-163.59"/>
<polygon fill="#63b8ff" stroke="#63b8ff" points="1556.05,-160.11 1545.58,-161.73 1554.78,-166.99 1556.05,-160.11"/>
</a>
</g>
</g>
<!-- Node45 -->
<g id="Node000045" class="node">
<title>Node45</title>
<g id="a_Node000045"><a xlink:href="../../d3/d21/fixed__std__extension_8hpp.html" target="_top" xlink:title="Standard library extensions for toy::math::fixed: numeric_limits and std::numbers mathematical consta...">
<polygon fill="white" stroke="#666666" points="1726.5,-162 1563.5,-162 1563.5,-143 1726.5,-143 1726.5,-162"/>
<text text-anchor="middle" x="1645" y="-150" font-family="Helvetica,sans-Serif" font-size="10.00">math/fixed_std_extension.hpp</text>
</a>
</g>
</g>
<!-- Node1&#45;&gt;Node45 -->
<g id="edge49_Node000001_Node000045" class="edge">
<title>Node1&#45;&gt;Node45</title>
<g id="a_edge49_Node000001_Node000045"><a xlink:title=" ">
<path fill="none" stroke="#63b8ff" d="M1765.02,-197.98C1741.5,-189.27 1704.71,-175.63 1678.06,-165.75"/>
<polygon fill="#63b8ff" stroke="#63b8ff" points="1678.99,-162.36 1668.39,-162.17 1676.55,-168.93 1678.99,-162.36"/>
</a>
</g>
</g>
<!-- Node46 -->
<g id="Node000046" class="node">
<title>Node46</title>
<g id="a_Node000046"><a xlink:href="../../d8/dbd/math_2utils_8hpp.html" target="_top" xlink:title="General math utilities.">
<polygon fill="white" stroke="#666666" points="1831.5,-162 1744.5,-162 1744.5,-143 1831.5,-143 1831.5,-162"/>
<text text-anchor="middle" x="1788" y="-150" font-family="Helvetica,sans-Serif" font-size="10.00">math/utils.hpp</text>
</a>
</g>
</g>
<!-- Node1&#45;&gt;Node46 -->
<g id="edge50_Node000001_Node000046" class="edge">
<title>Node1&#45;&gt;Node46</title>
<g id="a_edge50_Node000001_Node000046"><a xlink:title=" ">
<path fill="none" stroke="#63b8ff" d="M1788,-197.75C1788,-190.8 1788,-180.85 1788,-172.13"/>
<polygon fill="#63b8ff" stroke="#63b8ff" points="1791.5,-172.09 1788,-162.09 1784.5,-172.09 1791.5,-172.09"/>
</a>
</g>
</g>
<!-- Node47 -->
<g id="Node000047" class="node">
<title>Node47</title>
<g id="a_Node000047"><a xlink:href="../../d6/de1/vector2d_8hpp.html" target="_top" xlink:title="2D floating&#45;point vector class for interactive game objects and physics calculations.">
<polygon fill="white" stroke="#666666" points="1958.5,-162 1849.5,-162 1849.5,-143 1958.5,-143 1958.5,-162"/>
<text text-anchor="middle" x="1904" y="-150" font-family="Helvetica,sans-Serif" font-size="10.00">math/vector2d.hpp</text>
</a>
</g>
</g>
<!-- Node1&#45;&gt;Node47 -->
<g id="edge51_Node000001_Node000047" class="edge">
<title>Node1&#45;&gt;Node47</title>
<g id="a_edge51_Node000001_Node000047"><a xlink:title=" ">
<path fill="none" stroke="#63b8ff" d="M1806.64,-197.98C1825.3,-189.46 1854.25,-176.23 1875.74,-166.41"/>
<polygon fill="#63b8ff" stroke="#63b8ff" points="1877.38,-169.51 1885.02,-162.17 1874.47,-163.14 1877.38,-169.51"/>
</a>
</g>
</g>
<!-- Node48 -->
<g id="Node000048" class="node">
<title>Node48</title>
<g id="a_Node000048"><a xlink:href="../../d3/d86/fixed_8inl.html" target="_top" xlink:title="Inline implementations for toy::math::fixed.">
<polygon fill="white" stroke="#666666" points="2059.5,-162 1976.5,-162 1976.5,-143 2059.5,-143 2059.5,-162"/>
<text text-anchor="middle" x="2018" y="-150" font-family="Helvetica,sans-Serif" font-size="10.00">math/fixed.inl</text>
</a>
</g>
</g>
<!-- Node1&#45;&gt;Node48 -->
<g id="edge52_Node000001_Node000048" class="edge">
<title>Node1&#45;&gt;Node48</title>
<g id="a_edge52_Node000001_Node000048"><a xlink:title=" ">
<path fill="none" stroke="#63b8ff" d="M1824.95,-197.98C1864.57,-188.86 1927.59,-174.33 1970.77,-164.38"/>
<polygon fill="#63b8ff" stroke="#63b8ff" points="1971.8,-167.74 1980.76,-162.08 1970.23,-160.92 1971.8,-167.74"/>
</a>
</g>
</g>
<!-- Node49 -->
<g id="Node000049" class="node">
<title>Node49</title>
<g id="a_Node000049"><a xlink:href="../../de/d5d/math_2utils_8inl.html" target="_top" xlink:title="Inline implementations for General math utilities.">
<polygon fill="white" stroke="#666666" points="2158.5,-162 2077.5,-162 2077.5,-143 2158.5,-143 2158.5,-162"/>
<text text-anchor="middle" x="2118" y="-150" font-family="Helvetica,sans-Serif" font-size="10.00">math/utils.inl</text>
</a>
</g>
</g>
<!-- Node1&#45;&gt;Node49 -->
<g id="edge53_Node000001_Node000049" class="edge">
<title>Node1&#45;&gt;Node49</title>
<g id="a_edge53_Node000001_Node000049"><a xlink:title=" ">
<path fill="none" stroke="#63b8ff" d="M1838.61,-198.62C1892.63,-190.18 1981,-176.26 2067.37,-162.09"/>
<polygon fill="#63b8ff" stroke="#63b8ff" points="2068.05,-165.52 2077.35,-160.45 2066.91,-158.62 2068.05,-165.52"/>
</a>
</g>
</g>
<!-- Node50 -->
<g id="Node000050" class="node">
<title>Node50</title>
<g id="a_Node000050"><a xlink:href="../../dd/d53/vector2d_8inl.html" target="_top" xlink:title="Inline implementations for 2D floating&#45;point vector class.">
<polygon fill="white" stroke="#666666" points="2279.5,-162 2176.5,-162 2176.5,-143 2279.5,-143 2279.5,-162"/>
<text text-anchor="middle" x="2228" y="-150" font-family="Helvetica,sans-Serif" font-size="10.00">math/vector2d.inl</text>
</a>
</g>
</g>
<!-- Node1&#45;&gt;Node50 -->
<g id="edge54_Node000001_Node000050" class="edge">
<title>Node1&#45;&gt;Node50</title>
<g id="a_edge54_Node000001_Node000050"><a xlink:title=" ">
<path fill="none" stroke="#63b8ff" d="M1838.62,-200.91C1909.42,-193.01 2042.3,-177.9 2166.37,-162.06"/>
<polygon fill="#63b8ff" stroke="#63b8ff" points="2166.95,-165.51 2176.43,-160.77 2166.06,-158.57 2166.95,-165.51"/>
</a>
</g>
</g>
<!-- Node4 -->
<g id="Node000004" class="node">
<title>Node4</title>
<g id="a_Node000004"><a xlink:title=" ">
<polygon fill="#e0e0e0" stroke="#999999" points="64,-96 0,-96 0,-77 64,-77 64,-96"/>
<text text-anchor="middle" x="32" y="-84" font-family="Helvetica,sans-Serif" font-size="10.00">algorithm</text>
</a>
</g>
</g>
<!-- Node3&#45;&gt;Node4 -->
<g id="edge3_Node000003_Node000004" class="edge">
<title>Node3&#45;&gt;Node4</title>
<g id="a_edge3_Node000003_Node000004"><a xlink:title=" ">
<path fill="none" stroke="#63b8ff" d="M1379.29,-144.43C1376.17,-143.86 1373.03,-143.37 1370,-143 1083.78,-108.15 353.35,-174.37 73,-107 67.01,-105.56 60.86,-103.18 55.2,-100.57"/>
<polygon fill="#63b8ff" stroke="#63b8ff" points="56.76,-97.44 46.26,-96.09 53.62,-103.7 56.76,-97.44"/>
</a>
</g>
</g>
<!-- Node5 -->
<g id="Node000005" class="node">
<title>Node5</title>
<g id="a_Node000005"><a xlink:title=" ">
<polygon fill="#e0e0e0" stroke="#999999" points="124,-96 82,-96 82,-77 124,-77 124,-96"/>
<text text-anchor="middle" x="103" y="-84" font-family="Helvetica,sans-Serif" font-size="10.00">array</text>
</a>
</g>
</g>
<!-- Node3&#45;&gt;Node5 -->
<g id="edge4_Node000003_Node000005" class="edge">
<title>Node3&#45;&gt;Node5</title>
<g id="a_edge4_Node000003_Node000005"><a xlink:title=" ">
<path fill="none" stroke="#63b8ff" d="M1379.29,-144.43C1376.16,-143.86 1373.03,-143.37 1370,-143 1233.52,-126.29 264.25,-147.99 133,-107 129.04,-105.76 125.11,-103.85 121.46,-101.69"/>
<polygon fill="#63b8ff" stroke="#63b8ff" points="123.36,-98.75 113.11,-96.08 119.46,-104.56 123.36,-98.75"/>
</a>
</g>
</g>
<!-- Node6 -->
<g id="Node000006" class="node">
<title>Node6</title>
<g id="a_Node000006"><a xlink:title=" ">
<polygon fill="#e0e0e0" stroke="#999999" points="171.5,-96 142.5,-96 142.5,-77 171.5,-77 171.5,-96"/>
<text text-anchor="middle" x="157" y="-84" font-family="Helvetica,sans-Serif" font-size="10.00">bit</text>
</a>
</g>
</g>
<!-- Node3&#45;&gt;Node6 -->
<g id="edge5_Node000003_Node000006" class="edge">
<title>Node3&#45;&gt;Node6</title>
<g id="a_edge5_Node000003_Node000006"><a xlink:title=" ">
<path fill="none" stroke="#63b8ff" d="M1379.29,-144.43C1376.16,-143.87 1373.03,-143.37 1370,-143 1238.71,-126.85 303.49,-154.43 180,-107 177.43,-106.01 174.95,-104.61 172.63,-103.01"/>
<polygon fill="#63b8ff" stroke="#63b8ff" points="174.52,-100.02 164.61,-96.26 170.01,-105.37 174.52,-100.02"/>
</a>
</g>
</g>
<!-- Node7 -->
<g id="Node000007" class="node">
<title>Node7</title>
<g id="a_Node000007"><a xlink:title=" ">
<polygon fill="#e0e0e0" stroke="#999999" points="236.5,-96 189.5,-96 189.5,-77 236.5,-77 236.5,-96"/>
<text text-anchor="middle" x="213" y="-84" font-family="Helvetica,sans-Serif" font-size="10.00">cmath</text>
</a>
</g>
</g>
<!-- Node3&#45;&gt;Node7 -->
<g id="edge6_Node000003_Node000007" class="edge">
<title>Node3&#45;&gt;Node7</title>
<g id="a_edge6_Node000003_Node000007"><a xlink:title=" ">
<path fill="none" stroke="#63b8ff" d="M1379.29,-144.44C1376.16,-143.87 1373.03,-143.37 1370,-143 1121.77,-112.24 484.71,-178.44 245,-107 240.72,-105.72 236.44,-103.73 232.46,-101.5"/>
<polygon fill="#63b8ff" stroke="#63b8ff" points="234.2,-98.46 223.87,-96.07 230.46,-104.37 234.2,-98.46"/>
</a>
</g>
</g>
<!-- Node8 -->
<g id="Node000008" class="node">
<title>Node8</title>
<g id="a_Node000008"><a xlink:title=" ">
<polygon fill="#e0e0e0" stroke="#999999" points="313.5,-96 254.5,-96 254.5,-77 313.5,-77 313.5,-96"/>
<text text-anchor="middle" x="284" y="-84" font-family="Helvetica,sans-Serif" font-size="10.00">compare</text>
</a>
</g>
</g>
<!-- Node3&#45;&gt;Node8 -->
<g id="edge7_Node000003_Node000008" class="edge">
<title>Node3&#45;&gt;Node8</title>
<g id="a_edge7_Node000003_Node000008"><a xlink:title=" ">
<path fill="none" stroke="#63b8ff" d="M1379.28,-144.45C1376.16,-143.88 1373.03,-143.38 1370,-143 1139,-114.09 548.62,-164.37 323,-107 317.41,-105.58 311.68,-103.27 306.41,-100.74"/>
<polygon fill="#63b8ff" stroke="#63b8ff" points="307.99,-97.62 297.51,-96.06 304.74,-103.81 307.99,-97.62"/>
</a>
</g>
</g>
<!-- Node9 -->
<g id="Node000009" class="node">
<title>Node9</title>
<g id="a_Node000009"><a xlink:title=" ">
<polygon fill="#e0e0e0" stroke="#999999" points="392,-96 332,-96 332,-77 392,-77 392,-96"/>
<text text-anchor="middle" x="362" y="-84" font-family="Helvetica,sans-Serif" font-size="10.00">concepts</text>
</a>
</g>
</g>
<!-- Node3&#45;&gt;Node9 -->
<g id="edge8_Node000003_Node000009" class="edge">
<title>Node3&#45;&gt;Node9</title>
<g id="a_edge8_Node000003_Node000009"><a xlink:title=" ">
<path fill="none" stroke="#63b8ff" d="M1379.28,-144.45C1376.16,-143.89 1373.02,-143.38 1370,-143 1156.22,-115.95 609.76,-160.39 401,-107 395.41,-105.57 389.69,-103.26 384.41,-100.73"/>
<polygon fill="#63b8ff" stroke="#63b8ff" points="386,-97.6 375.52,-96.05 382.74,-103.8 386,-97.6"/>
</a>
</g>
</g>
<!-- Node10 -->
<g id="Node000010" class="node">
<title>Node10</title>
<g id="a_Node000010"><a xlink:title=" ">
<polygon fill="#e0e0e0" stroke="#999999" points="463.5,-96 410.5,-96 410.5,-77 463.5,-77 463.5,-96"/>
<text text-anchor="middle" x="437" y="-84" font-family="Helvetica,sans-Serif" font-size="10.00">cstddef</text>
</a>
</g>
</g>
<!-- Node3&#45;&gt;Node10 -->
<g id="edge9_Node000003_Node000010" class="edge">
<title>Node3&#45;&gt;Node10</title>
<g id="a_edge9_Node000003_Node000010"><a xlink:title=" ">
<path fill="none" stroke="#63b8ff" d="M1379.28,-144.46C1376.16,-143.89 1373.02,-143.39 1370,-143 1172.12,-117.66 665.36,-159.88 473,-107 468.04,-105.64 463,-103.48 458.33,-101.09"/>
<polygon fill="#63b8ff" stroke="#63b8ff" points="459.82,-97.92 449.39,-96.05 456.38,-104.01 459.82,-97.92"/>
</a>
</g>
</g>
<!-- Node11 -->
<g id="Node000011" class="node">
<title>Node11</title>
<g id="a_Node000011"><a xlink:title=" ">
<polygon fill="#e0e0e0" stroke="#999999" points="532,-96 482,-96 482,-77 532,-77 532,-96"/>
<text text-anchor="middle" x="507" y="-84" font-family="Helvetica,sans-Serif" font-size="10.00">cstdint</text>
</a>
</g>
</g>
<!-- Node3&#45;&gt;Node11 -->
<g id="edge10_Node000003_Node000011" class="edge">
<title>Node3&#45;&gt;Node11</title>
<g id="a_edge10_Node000003_Node000011"><a xlink:title=" ">
<path fill="none" stroke="#63b8ff" d="M1379.28,-144.47C1376.16,-143.9 1373.02,-143.39 1370,-143 1187.14,-119.28 718.11,-158.32 541,-107 536.39,-105.66 531.74,-103.58 527.42,-101.27"/>
<polygon fill="#63b8ff" stroke="#63b8ff" points="529.02,-98.15 518.64,-96.04 525.44,-104.16 529.02,-98.15"/>
</a>
</g>
</g>
<!-- Node12 -->
<g id="Node000012" class="node">
<title>Node12</title>
<g id="a_Node000012"><a xlink:title=" ">
<polygon fill="#e0e0e0" stroke="#999999" points="600,-96 550,-96 550,-77 600,-77 600,-96"/>
<text text-anchor="middle" x="575" y="-84" font-family="Helvetica,sans-Serif" font-size="10.00">cstring</text>
</a>
</g>
</g>
<!-- Node3&#45;&gt;Node12 -->
<g id="edge11_Node000003_Node000012" class="edge">
<title>Node3&#45;&gt;Node12</title>
<g id="a_edge11_Node000003_Node000012"><a xlink:title=" ">
<path fill="none" stroke="#63b8ff" d="M1379.28,-144.49C1376.16,-143.91 1373.02,-143.4 1370,-143 1202.15,-120.9 771.52,-154.44 609,-107 604.39,-105.66 599.74,-103.57 595.42,-101.26"/>
<polygon fill="#63b8ff" stroke="#63b8ff" points="597.03,-98.14 586.64,-96.02 593.44,-104.15 597.03,-98.14"/>
</a>
</g>
</g>
<!-- Node13 -->
<g id="Node000013" class="node">
<title>Node13</title>
<g id="a_Node000013"><a xlink:title=" ">
<polygon fill="#e0e0e0" stroke="#999999" points="667.5,-96 618.5,-96 618.5,-77 667.5,-77 667.5,-96"/>
<text text-anchor="middle" x="643" y="-84" font-family="Helvetica,sans-Serif" font-size="10.00">cuchar</text>
</a>
</g>
</g>
<!-- Node3&#45;&gt;Node13 -->
<g id="edge12_Node000003_Node000013" class="edge">
<title>Node3&#45;&gt;Node13</title>
<g id="a_edge12_Node000003_Node000013"><a xlink:title=" ">
<path fill="none" stroke="#63b8ff" d="M1379.28,-144.5C1376.16,-143.92 1373.02,-143.4 1370,-143 1216.94,-122.49 823.86,-151.57 676,-107 671.63,-105.68 667.23,-103.67 663.13,-101.43"/>
<polygon fill="#63b8ff" stroke="#63b8ff" points="664.63,-98.24 654.27,-96.01 660.97,-104.21 664.63,-98.24"/>
</a>
</g>
</g>
<!-- Node14 -->
<g id="Node000014" class="node">
<title>Node14</title>
<g id="a_Node000014"><a xlink:title=" ">
<polygon fill="#e0e0e0" stroke="#999999" points="768.5,-96 685.5,-96 685.5,-77 768.5,-77 768.5,-96"/>
<text text-anchor="middle" x="727" y="-84" font-family="Helvetica,sans-Serif" font-size="10.00">initializer_list</text>
</a>
</g>
</g>
<!-- Node3&#45;&gt;Node14 -->
<g id="edge13_Node000003_Node000014" class="edge">
<title>Node3&#45;&gt;Node14</title>
<g id="a_edge13_Node000003_Node000014"><a xlink:title=" ">
<path fill="none" stroke="#63b8ff" d="M1379.27,-144.53C1376.15,-143.94 1373.02,-143.42 1370,-143 1108.46,-106.78 1034.89,-163.65 777,-107 769.49,-105.35 761.63,-102.74 754.42,-99.96"/>
<polygon fill="#63b8ff" stroke="#63b8ff" points="755.67,-96.69 745.09,-96.13 753.02,-103.16 755.67,-96.69"/>
</a>
</g>
</g>
<!-- Node15 -->
<g id="Node000015" class="node">
<title>Node15</title>
<g id="a_Node000015"><a xlink:title=" ">
<polygon fill="#e0e0e0" stroke="#999999" points="839.5,-96 786.5,-96 786.5,-77 839.5,-77 839.5,-96"/>
<text text-anchor="middle" x="813" y="-84" font-family="Helvetica,sans-Serif" font-size="10.00">iterator</text>
</a>
</g>
</g>
<!-- Node3&#45;&gt;Node15 -->
<g id="edge14_Node000003_Node000015" class="edge">
<title>Node3&#45;&gt;Node15</title>
<g id="a_edge14_Node000003_Node000015"><a xlink:title=" ">
<path fill="none" stroke="#63b8ff" d="M1379.27,-144.55C1376.15,-143.96 1373.02,-143.43 1370,-143 1140.22,-110.2 1071.89,-171.75 849,-107 844.14,-105.59 839.19,-103.45 834.59,-101.1"/>
<polygon fill="#63b8ff" stroke="#63b8ff" points="836.18,-97.98 825.75,-96.15 832.76,-104.09 836.18,-97.98"/>
</a>
</g>
</g>
<!-- Node16 -->
<g id="Node000016" class="node">
<title>Node16</title>
<g id="a_Node000016"><a xlink:title=" ">
<polygon fill="#e0e0e0" stroke="#999999" points="902,-96 858,-96 858,-77 902,-77 902,-96"/>
<text text-anchor="middle" x="880" y="-84" font-family="Helvetica,sans-Serif" font-size="10.00">limits</text>
</a>
</g>
</g>
<!-- Node3&#45;&gt;Node16 -->
<g id="edge15_Node000003_Node000016" class="edge">
<title>Node3&#45;&gt;Node16</title>
<g id="a_edge15_Node000003_Node000016"><a xlink:title=" ">
<path fill="none" stroke="#63b8ff" d="M1379.27,-144.58C1376.15,-143.99 1373.02,-143.44 1370,-143 1167.56,-113.14 1105.25,-171.35 911,-107 907.04,-105.69 903.07,-103.77 899.36,-101.64"/>
<polygon fill="#63b8ff" stroke="#63b8ff" points="901.12,-98.61 890.82,-96.13 897.33,-104.49 901.12,-98.61"/>
</a>
</g>
</g>
<!-- Node17 -->
<g id="Node000017" class="node">
<title>Node17</title>
<g id="a_Node000017"><a xlink:title=" ">
<polygon fill="#e0e0e0" stroke="#999999" points="978,-96 920,-96 920,-77 978,-77 978,-96"/>
<text text-anchor="middle" x="949" y="-84" font-family="Helvetica,sans-Serif" font-size="10.00">memory</text>
</a>
</g>
</g>
<!-- Node3&#45;&gt;Node17 -->
<g id="edge16_Node000003_Node000017" class="edge">
<title>Node3&#45;&gt;Node17</title>
<g id="a_edge16_Node000003_Node000017"><a xlink:title=" ">
<path fill="none" stroke="#63b8ff" d="M1379.26,-144.63C1376.14,-144.03 1373.01,-143.47 1370,-143 1201.05,-116.75 1151.13,-154.89 987,-107 981.79,-105.48 976.46,-103.24 971.5,-100.81"/>
<polygon fill="#63b8ff" stroke="#63b8ff" points="973.02,-97.65 962.55,-96.05 969.74,-103.84 973.02,-97.65"/>
</a>
</g>
</g>
<!-- Node18 -->
<g id="Node000018" class="node">
<title>Node18</title>
<g id="a_Node000018"><a xlink:title=" ">
<polygon fill="#e0e0e0" stroke="#999999" points="1061.5,-96 996.5,-96 996.5,-77 1061.5,-77 1061.5,-96"/>
<text text-anchor="middle" x="1029" y="-84" font-family="Helvetica,sans-Serif" font-size="10.00">stdexcept</text>
</a>
</g>
</g>
<!-- Node3&#45;&gt;Node18 -->
<g id="edge17_Node000003_Node000018" class="edge">
<title>Node3&#45;&gt;Node18</title>
<g id="a_edge17_Node000003_Node000018"><a xlink:title=" ">
<path fill="none" stroke="#63b8ff" d="M1379.25,-144.71C1376.13,-144.09 1373.01,-143.51 1370,-143 1238.02,-120.72 1199.74,-143.64 1071,-107 1065.3,-105.38 1059.39,-103.07 1053.88,-100.61"/>
<polygon fill="#63b8ff" stroke="#63b8ff" points="1055.03,-97.28 1044.5,-96.13 1052.01,-103.6 1055.03,-97.28"/>
</a>
</g>
</g>
<!-- Node19 -->
<g id="Node000019" class="node">
<title>Node19</title>
<g id="a_Node000019"><a xlink:title=" ">
<polygon fill="#e0e0e0" stroke="#999999" points="1124,-96 1080,-96 1080,-77 1124,-77 1124,-96"/>
<text text-anchor="middle" x="1102" y="-84" font-family="Helvetica,sans-Serif" font-size="10.00">string</text>
</a>
</g>
</g>
<!-- Node3&#45;&gt;Node19 -->
<g id="edge18_Node000003_Node000019" class="edge">
<title>Node3&#45;&gt;Node19</title>
<g id="a_edge18_Node000003_Node000019"><a xlink:title=" ">
<path fill="none" stroke="#63b8ff" d="M1379.23,-144.81C1376.12,-144.17 1373,-143.55 1370,-143 1265.23,-123.65 1232.86,-144.14 1133,-107 1129.15,-105.57 1125.28,-103.62 1121.63,-101.51"/>
<polygon fill="#63b8ff" stroke="#63b8ff" points="1123.49,-98.54 1113.18,-96.11 1119.73,-104.44 1123.49,-98.54"/>
</a>
</g>
</g>
<!-- Node20 -->
<g id="Node000020" class="node">
<title>Node20</title>
<g id="a_Node000020"><a xlink:title=" ">
<polygon fill="#e0e0e0" stroke="#999999" points="1211.5,-96 1142.5,-96 1142.5,-77 1211.5,-77 1211.5,-96"/>
<text text-anchor="middle" x="1177" y="-84" font-family="Helvetica,sans-Serif" font-size="10.00">type_traits</text>
</a>
</g>
</g>
<!-- Node3&#45;&gt;Node20 -->
<g id="edge19_Node000003_Node000020" class="edge">
<title>Node3&#45;&gt;Node20</title>
<g id="a_edge19_Node000003_Node000020"><a xlink:title=" ">
<path fill="none" stroke="#63b8ff" d="M1379.25,-144.83C1329.9,-133.71 1235,-112.11 1220,-107 1214.47,-105.12 1208.69,-102.77 1203.22,-100.37"/>
<polygon fill="#63b8ff" stroke="#63b8ff" points="1204.4,-97.05 1193.85,-96.06 1201.48,-103.41 1204.4,-97.05"/>
</a>
</g>
</g>
<!-- Node21 -->
<g id="Node000021" class="node">
<title>Node21</title>
<g id="a_Node000021"><a xlink:title=" ">
<polygon fill="#e0e0e0" stroke="#999999" points="1274.5,-96 1229.5,-96 1229.5,-77 1274.5,-77 1274.5,-96"/>
<text text-anchor="middle" x="1252" y="-84" font-family="Helvetica,sans-Serif" font-size="10.00">utility</text>
</a>
</g>
</g>
<!-- Node3&#45;&gt;Node21 -->
<g id="edge20_Node000003_Node000021" class="edge">
<title>Node3&#45;&gt;Node21</title>
<g id="a_edge20_Node000003_Node000021"><a xlink:title=" ">
<path fill="none" stroke="#63b8ff" d="M1382.86,-142.91C1358.29,-134.57 1320.65,-121.14 1289,-107 1284.78,-105.12 1280.38,-102.97 1276.14,-100.8"/>
<polygon fill="#63b8ff" stroke="#63b8ff" points="1277.74,-97.68 1267.26,-96.11 1274.47,-103.87 1277.74,-97.68"/>
</a>
</g>
</g>
<!-- Node22 -->
<g id="Node000022" class="node">
<title>Node22</title>
<g id="a_Node000022"><a xlink:href="../../dd/d9e/linux_2platform__config_8hpp.html" target="_top" xlink:title="additional linux platform header">
<polygon fill="white" stroke="#666666" points="1486.5,-107 1331.5,-107 1331.5,-66 1486.5,-66 1486.5,-107"/>
<text text-anchor="start" x="1339.5" y="-95" font-family="Helvetica,sans-Serif" font-size="10.00">/home/runner/work/toygine2</text>
<text text-anchor="start" x="1339.5" y="-84" font-family="Helvetica,sans-Serif" font-size="10.00">/toygine2/src/platforms</text>
<text text-anchor="middle" x="1409" y="-73" font-family="Helvetica,sans-Serif" font-size="10.00">/linux/platform_config.hpp</text>
</a>
</g>
</g>
<!-- Node3&#45;&gt;Node22 -->
<g id="edge21_Node000003_Node000022" class="edge">
<title>Node3&#45;&gt;Node22</title>
<g id="a_edge21_Node000003_Node000022"><a xlink:title=" ">
<path fill="none" stroke="#63b8ff" d="M1409,-142.87C1409,-136.22 1409,-126.63 1409,-117.28"/>
<polygon fill="#63b8ff" stroke="#63b8ff" points="1412.5,-117.01 1409,-107.01 1405.5,-117.01 1412.5,-117.01"/>
</a>
</g>
</g>
<!-- Node23 -->
<g id="Node000023" class="node">
<title>Node23</title>
<g id="a_Node000023"><a xlink:href="../../d3/d60/platform_8hpp.html" target="_top" xlink:title="Platform and CPU architecture enumerations with compile&#45;time and runtime detection.">
<polygon fill="white" stroke="#666666" points="1354.5,-30 1251.5,-30 1251.5,0 1354.5,0 1354.5,-30"/>
<text text-anchor="start" x="1259.5" y="-18" font-family="Helvetica,sans-Serif" font-size="10.00">../../../include/core</text>
<text text-anchor="middle" x="1303" y="-7" font-family="Helvetica,sans-Serif" font-size="10.00">/platform.hpp</text>
</a>
</g>
</g>
<!-- Node3&#45;&gt;Node23 -->
<g id="edge37_Node000003_Node000023" class="edge">
<title>Node3&#45;&gt;Node23</title>
<g id="a_edge37_Node000003_Node000023"><a xlink:title=" ">
<path fill="none" stroke="#63b8ff" d="M1379.22,-143.57C1360.03,-136.92 1336.1,-125.48 1322,-107 1307.38,-87.84 1303.35,-60.07 1302.53,-40.25"/>
<polygon fill="#63b8ff" stroke="#63b8ff" points="1306.03,-40.1 1302.36,-30.16 1299.03,-40.22 1306.03,-40.1"/>
</a>
</g>
</g>
<!-- Node25 -->
<g id="Node000025" class="node">
<title>Node25</title>
<g id="a_Node000025"><a xlink:href="../../d5/d96/assertion_8hpp.html" target="_top" xlink:title="Assertion system for runtime and compile&#45;time validation of engine invariants.">
<polygon fill="white" stroke="#666666" points="1611.5,-96 1504.5,-96 1504.5,-77 1611.5,-77 1611.5,-96"/>
<text text-anchor="middle" x="1558" y="-84" font-family="Helvetica,sans-Serif" font-size="10.00">core/assertion.hpp</text>
</a>
</g>
</g>
<!-- Node3&#45;&gt;Node25 -->
<g id="edge24_Node000003_Node000025" class="edge">
<title>Node3&#45;&gt;Node25</title>
<g id="a_edge24_Node000003_Node000025"><a xlink:title=" ">
<path fill="none" stroke="#63b8ff" d="M1429.09,-142.87C1454.64,-131.89 1498.96,-112.86 1528.39,-100.22"/>
<polygon fill="#63b8ff" stroke="#63b8ff" points="1529.94,-103.36 1537.75,-96.2 1527.18,-96.93 1529.94,-103.36"/>
</a>
</g>
</g>
<!-- Node26 -->
<g id="Node000026" class="node">
<title>Node26</title>
<g id="a_Node000026"><a xlink:href="../../dd/ded/c__string__view_8hpp.html" target="_top" xlink:title="Non&#45;owning string view class for C&#45;style strings.">
<polygon fill="white" stroke="#666666" points="1758,-96 1630,-96 1630,-77 1758,-77 1758,-96"/>
<text text-anchor="middle" x="1694" y="-84" font-family="Helvetica,sans-Serif" font-size="10.00">core/c_string_view.hpp</text>
</a>
</g>
</g>
<!-- Node3&#45;&gt;Node26 -->
<g id="edge25_Node000003_Node000026" class="edge">
<title>Node3&#45;&gt;Node26</title>
<g id="a_edge25_Node000003_Node000026"><a xlink:title=" ">
<path fill="none" stroke="#63b8ff" d="M1438.86,-144.78C1441.61,-144.17 1444.36,-143.57 1447,-143 1523.77,-126.43 1543.56,-125.01 1620,-107 1630.78,-104.46 1642.39,-101.51 1653.14,-98.68"/>
<polygon fill="#63b8ff" stroke="#63b8ff" points="1654.36,-101.97 1663.13,-96.02 1652.56,-95.21 1654.36,-101.97"/>
</a>
</g>
</g>
<!-- Node27 -->
<g id="Node000027" class="node">
<title>Node27</title>
<g id="a_Node000027"><a xlink:href="../../de/deb/string__like_8hpp.html" target="_top" xlink:title="C++ concept for string&#45;like types with size() and c_str() methods.">
<polygon fill="white" stroke="#666666" points="2223,-24.5 2135,-24.5 2135,-5.5 2223,-5.5 2223,-24.5"/>
<text text-anchor="middle" x="2179" y="-12.5" font-family="Helvetica,sans-Serif" font-size="10.00">string_like.hpp</text>
</a>
</g>
</g>
<!-- Node3&#45;&gt;Node27 -->
<g id="edge38_Node000003_Node000027" class="edge">
<title>Node3&#45;&gt;Node27</title>
<g id="a_edge38_Node000003_Node000027"><a xlink:title=" ">
<path fill="none" stroke="#63b8ff" d="M1438.81,-144.51C1441.57,-143.96 1444.33,-143.45 1447,-143 1588.15,-119.34 1639.25,-171.52 1767,-107 1789.18,-95.8 1782.94,-77.43 1805,-66 1859.53,-37.74 2034.85,-24.05 2124.74,-18.75"/>
<polygon fill="#63b8ff" stroke="#63b8ff" points="2124.96,-22.25 2134.74,-18.18 2124.56,-15.26 2124.96,-22.25"/>
</a>
</g>
</g>
<!-- Node28 -->
<g id="Node000028" class="node">
<title>Node28</title>
<g id="a_Node000028"><a xlink:href="../../d1/d5c/callbacks__pool_8hpp.html" target="_top" xlink:title="Template callback pool class with fixed&#45;size callback storage.">
<polygon fill="white" stroke="#666666" points="1948,-96 1814,-96 1814,-77 1948,-77 1948,-96"/>
<text text-anchor="middle" x="1881" y="-84" font-family="Helvetica,sans-Serif" font-size="10.00">core/callbacks_pool.hpp</text>
</a>
</g>
</g>
<!-- Node3&#45;&gt;Node28 -->
<g id="edge27_Node000003_Node000028" class="edge">
<title>Node3&#45;&gt;Node28</title>
<g id="a_edge27_Node000003_Node000028"><a xlink:title=" ">
<path fill="none" stroke="#63b8ff" d="M1438.81,-144.48C1441.57,-143.94 1444.33,-143.43 1447,-143 1602.67,-117.74 1644.54,-133.52 1800,-107 1813.05,-104.77 1827.12,-101.65 1839.82,-98.55"/>
<polygon fill="#63b8ff" stroke="#63b8ff" points="1840.81,-101.91 1849.66,-96.09 1839.11,-95.12 1840.81,-101.91"/>
</a>
</g>
</g>
<!-- Node29 -->
<g id="Node000029" class="node">
<title>Node29</title>
<g id="a_Node000029"><a xlink:href="../../d4/dc0/constexpr__utils_8hpp.html" target="_top" xlink:title="Constexpr utility functions for compile&#45;time operations.">
<polygon fill="white" stroke="#666666" points="2102,-96 1966,-96 1966,-77 2102,-77 2102,-96"/>
<text text-anchor="middle" x="2034" y="-84" font-family="Helvetica,sans-Serif" font-size="10.00">core/constexpr_utils.hpp</text>
</a>
</g>
</g>
<!-- Node3&#45;&gt;Node29 -->
<g id="edge28_Node000003_Node000029" class="edge">
<title>Node3&#45;&gt;Node29</title>
<g id="a_edge28_Node000003_Node000029"><a xlink:title=" ">
<path fill="none" stroke="#63b8ff" d="M1438.79,-144.39C1441.56,-143.87 1444.32,-143.39 1447,-143 1671.84,-110.11 1732.64,-143.03 1957,-107 1969.66,-104.97 1983.28,-101.84 1995.49,-98.68"/>
<polygon fill="#63b8ff" stroke="#63b8ff" points="1996.61,-102 2005.37,-96.04 1994.8,-95.24 1996.61,-102"/>
</a>
</g>
</g>
<!-- Node30 -->
<g id="Node000030" class="node">
<title>Node30</title>
<g id="a_Node000030"><a xlink:href="../../d7/d7f/fixed__string_8hpp.html" target="_top" xlink:title="Template string class with fixed&#45;size character buffer.">
<polygon fill="white" stroke="#666666" points="2238,-96 2120,-96 2120,-77 2238,-77 2238,-96"/>
<text text-anchor="middle" x="2179" y="-84" font-family="Helvetica,sans-Serif" font-size="10.00">core/fixed_string.hpp</text>
</a>
</g>
</g>
<!-- Node3&#45;&gt;Node30 -->
<g id="edge29_Node000003_Node000030" class="edge">
<title>Node3&#45;&gt;Node30</title>
<g id="a_edge29_Node000003_Node000030"><a xlink:title=" ">
<path fill="none" stroke="#63b8ff" d="M1438.79,-144.35C1441.55,-143.83 1444.32,-143.37 1447,-143 1739.77,-102.6 1819.55,-156.04 2111,-107 2122.01,-105.15 2133.78,-102.15 2144.38,-99.05"/>
<polygon fill="#63b8ff" stroke="#63b8ff" points="2145.57,-102.35 2154.12,-96.09 2143.54,-95.65 2145.57,-102.35"/>
</a>
</g>
</g>
<!-- Node31 -->
<g id="Node000031" class="node">
<title>Node31</title>
<g id="a_Node000031"><a xlink:href="../../d7/dea/fixed__vector_8hpp.html" target="_top" xlink:title="TODO.">
<polygon fill="white" stroke="#666666" points="2376,-96 2256,-96 2256,-77 2376,-77 2376,-96"/>
<text text-anchor="middle" x="2316" y="-84" font-family="Helvetica,sans-Serif" font-size="10.00">core/fixed_vector.hpp</text>
</a>
</g>
</g>
<!-- Node3&#45;&gt;Node31 -->
<g id="edge31_Node000003_Node000031" class="edge">
<title>Node3&#45;&gt;Node31</title>
<g id="a_edge31_Node000003_Node000031"><a xlink:title=" ">
<path fill="none" stroke="#63b8ff" d="M1438.78,-144.32C1441.55,-143.81 1444.32,-143.36 1447,-143 1799.79,-95.97 1895.64,-163.77 2247,-107 2258.38,-105.16 2270.57,-102.1 2281.48,-98.94"/>
<polygon fill="#63b8ff" stroke="#63b8ff" points="2282.51,-102.28 2291.08,-96.04 2280.49,-95.58 2282.51,-102.28"/>
</a>
</g>
</g>
<!-- Node32 -->
<g id="Node000032" class="node">
<title>Node32</title>
<g id="a_Node000032"><a xlink:href="../../d4/d0a/format_8hpp.html" target="_top" xlink:title="Compile&#45;time format string validation class.">
<polygon fill="white" stroke="#666666" points="2489.5,-96 2394.5,-96 2394.5,-77 2489.5,-77 2489.5,-96"/>
<text text-anchor="middle" x="2442" y="-84" font-family="Helvetica,sans-Serif" font-size="10.00">core/format.hpp</text>
</a>
</g>
</g>
<!-- Node3&#45;&gt;Node32 -->
<g id="edge32_Node000003_Node000032" class="edge">
<title>Node3&#45;&gt;Node32</title>
<g id="a_edge32_Node000003_Node000032"><a xlink:title=" ">
<path fill="none" stroke="#63b8ff" d="M1438.78,-144.3C1441.55,-143.8 1444.32,-143.35 1447,-143 1860.72,-89.24 1974.85,-183.33 2385,-107 2394.02,-105.32 2403.54,-102.51 2412.17,-99.53"/>
<polygon fill="#63b8ff" stroke="#63b8ff" points="2413.61,-102.73 2421.81,-96.02 2411.21,-96.15 2413.61,-102.73"/>
</a>
</g>
</g>
<!-- Node33 -->
<g id="Node000033" class="node">
<title>Node33</title>
<g id="a_Node000033"><a xlink:href="../../dd/d8e/hashes_8hpp.html" target="_top" xlink:title="CRC hash functions.">
<polygon fill="white" stroke="#666666" points="2604,-96 2508,-96 2508,-77 2604,-77 2604,-96"/>
<text text-anchor="middle" x="2556" y="-84" font-family="Helvetica,sans-Serif" font-size="10.00">core/hashes.hpp</text>
</a>
</g>
</g>
<!-- Node3&#45;&gt;Node33 -->
<g id="edge34_Node000003_Node000033" class="edge">
<title>Node3&#45;&gt;Node33</title>
<g id="a_edge34_Node000003_Node000033"><a xlink:title=" ">
<path fill="none" stroke="#63b8ff" d="M1438.78,-144.29C1441.55,-143.79 1444.32,-143.34 1447,-143 1911.05,-83.68 2038.89,-191.64 2499,-107 2508.02,-105.34 2517.55,-102.53 2526.18,-99.55"/>
<polygon fill="#63b8ff" stroke="#63b8ff" points="2527.62,-102.75 2535.81,-96.04 2525.22,-96.18 2527.62,-102.75"/>
</a>
</g>
</g>
<!-- Node34 -->
<g id="Node000034" class="node">
<title>Node34</title>
<g id="a_Node000034"><a xlink:href="../../de/d2d/o__string__stream_8hpp.html" target="_top" xlink:title="Output string stream class for building strings from various data types.">
<polygon fill="white" stroke="#666666" points="2762,-96 2622,-96 2622,-77 2762,-77 2762,-96"/>
<text text-anchor="middle" x="2692" y="-84" font-family="Helvetica,sans-Serif" font-size="10.00">core/o_string_stream.hpp</text>
</a>
</g>
</g>
<!-- Node3&#45;&gt;Node34 -->
<g id="edge35_Node000003_Node000034" class="edge">
<title>Node3&#45;&gt;Node34</title>
<g id="a_edge35_Node000003_Node000034"><a xlink:title=" ">
<path fill="none" stroke="#63b8ff" d="M1438.78,-144.28C1441.54,-143.78 1444.32,-143.34 1447,-143 1961.39,-78.12 2099.35,-177.52 2613,-107 2626.47,-105.15 2640.98,-101.93 2653.85,-98.64"/>
<polygon fill="#63b8ff" stroke="#63b8ff" points="2654.99,-101.96 2663.76,-96.01 2653.2,-95.19 2654.99,-101.96"/>
</a>
</g>
</g>
<!-- Node35 -->
<g id="Node000035" class="node">
<title>Node35</title>
<g id="a_Node000035"><a xlink:href="../../d8/d43/core_2utils_8hpp.html" target="_top" xlink:title="Core utility functions for string manipulation, encoding conversion, and number formatting.">
<polygon fill="white" stroke="#666666" points="2863.5,-96 2780.5,-96 2780.5,-77 2863.5,-77 2863.5,-96"/>
<text text-anchor="middle" x="2822" y="-84" font-family="Helvetica,sans-Serif" font-size="10.00">core/utils.hpp</text>
</a>
</g>
</g>
<!-- Node3&#45;&gt;Node35 -->
<g id="edge39_Node000003_Node000035" class="edge">
<title>Node3&#45;&gt;Node35</title>
<g id="a_edge39_Node000003_Node000035"><a xlink:title=" ">
<path fill="none" stroke="#63b8ff" d="M1438.78,-144.27C1441.54,-143.77 1444.32,-143.33 1447,-143 1739.08,-106.71 2482.32,-164.38 2771,-107 2778.89,-105.43 2787.15,-102.76 2794.67,-99.89"/>
<polygon fill="#63b8ff" stroke="#63b8ff" points="2796.09,-103.09 2804.03,-96.08 2793.45,-96.61 2796.09,-103.09"/>
</a>
</g>
</g>
<!-- Node36 -->
<g id="Node000036" class="node">
<title>Node36</title>
<g id="a_Node000036"><a xlink:href="../../df/d4a/c__string__view_8inl.html" target="_top" xlink:title="Inline implementations for CStringView class.">
<polygon fill="white" stroke="#666666" points="3004,-96 2882,-96 2882,-77 3004,-77 3004,-96"/>
<text text-anchor="middle" x="2943" y="-84" font-family="Helvetica,sans-Serif" font-size="10.00">core/c_string_view.inl</text>
</a>
</g>
</g>
<!-- Node3&#45;&gt;Node36 -->
<g id="edge40_Node000003_Node000036" class="edge">
<title>Node3&#45;&gt;Node36</title>
<g id="a_edge40_Node000003_Node000036"><a xlink:title=" ">
<path fill="none" stroke="#63b8ff" d="M1438.77,-144.26C1441.54,-143.77 1444.32,-143.33 1447,-143 2076.22,-65.44 2245.99,-200.78 2873,-107 2884.65,-105.26 2897.12,-102.19 2908.26,-99"/>
<polygon fill="#63b8ff" stroke="#63b8ff" points="2909.48,-102.29 2918.05,-96.06 2907.47,-95.58 2909.48,-102.29"/>
</a>
</g>
</g>
<!-- Node37 -->
<g id="Node000037" class="node">
<title>Node37</title>
<g id="a_Node000037"><a xlink:href="../../d6/ddb/callbacks__pool_8inl.html" target="_top" xlink:title="Inline implementations for template callback pool class with fixed&#45;size callback storage.">
<polygon fill="white" stroke="#666666" points="3150,-96 3022,-96 3022,-77 3150,-77 3150,-96"/>
<text text-anchor="middle" x="3086" y="-84" font-family="Helvetica,sans-Serif" font-size="10.00">core/callbacks_pool.inl</text>
</a>
</g>
</g>
<!-- Node3&#45;&gt;Node37 -->
<g id="edge41_Node000003_Node000037" class="edge">
<title>Node3&#45;&gt;Node37</title>
<g id="a_edge41_Node000003_Node000037"><a xlink:title=" ">
<path fill="none" stroke="#63b8ff" d="M1438.77,-144.26C1441.54,-143.76 1444.32,-143.33 1447,-143 2138.05,-58.61 2323.82,-205.53 3013,-107 3025.25,-105.25 3038.39,-102.14 3050.1,-98.91"/>
<polygon fill="#63b8ff" stroke="#63b8ff" points="3051.32,-102.2 3059.96,-96.07 3049.38,-95.47 3051.32,-102.2"/>
</a>
</g>
</g>
<!-- Node38 -->
<g id="Node000038" class="node">
<title>Node38</title>
<g id="a_Node000038"><a xlink:href="../../dc/d28/constexpr__utils_8inl.html" target="_top" xlink:title="Inline implementations for constexpr utility functions.">
<polygon fill="white" stroke="#666666" points="3298,-96 3168,-96 3168,-77 3298,-77 3298,-96"/>
<text text-anchor="middle" x="3233" y="-84" font-family="Helvetica,sans-Serif" font-size="10.00">core/constexpr_utils.inl</text>
</a>
</g>
</g>
<!-- Node3&#45;&gt;Node38 -->
<g id="edge42_Node000003_Node000038" class="edge">
<title>Node3&#45;&gt;Node38</title>
<g id="a_edge42_Node000003_Node000038"><a xlink:title=" ">
<path fill="none" stroke="#63b8ff" d="M1438.77,-144.25C1441.54,-143.76 1444.32,-143.33 1447,-143 1824.77,-97.24 2782.16,-159.85 3159,-107 3171.54,-105.24 3185,-102.09 3196.96,-98.82"/>
<polygon fill="#63b8ff" stroke="#63b8ff" points="3197.93,-102.19 3206.59,-96.08 3196.02,-95.45 3197.93,-102.19"/>
</a>
</g>
</g>
<!-- Node39 -->
<g id="Node000039" class="node">
<title>Node39</title>
<g id="a_Node000039"><a xlink:href="../../d7/d40/fixed__string_8inl.html" target="_top" xlink:title="Inline implementations for FixedString template class.">
<polygon fill="white" stroke="#666666" points="3428,-96 3316,-96 3316,-77 3428,-77 3428,-96"/>
<text text-anchor="middle" x="3372" y="-84" font-family="Helvetica,sans-Serif" font-size="10.00">core/fixed_string.inl</text>
</a>
</g>
</g>
<!-- Node3&#45;&gt;Node39 -->
<g id="edge43_Node000003_Node000039" class="edge">
<title>Node3&#45;&gt;Node39</title>
<g id="a_edge43_Node000003_Node000039"><a xlink:title=" ">
<path fill="none" stroke="#63b8ff" d="M1438.77,-144.25C1441.54,-143.75 1444.32,-143.32 1447,-143 1857.45,-93.63 2898.57,-170.99 3307,-107 3317.74,-105.32 3329.18,-102.32 3339.42,-99.16"/>
<polygon fill="#63b8ff" stroke="#63b8ff" points="3340.75,-102.41 3349.19,-96 3338.6,-95.75 3340.75,-102.41"/>
</a>
</g>
</g>
<!-- Node40 -->
<g id="Node000040" class="node">
<title>Node40</title>
<g id="a_Node000040"><a xlink:href="../../da/dc9/fixed__vector_8inl.html" target="_top" xlink:title="TODO.">
<polygon fill="white" stroke="#666666" points="3560,-96 3446,-96 3446,-77 3560,-77 3560,-96"/>
<text text-anchor="middle" x="3503" y="-84" font-family="Helvetica,sans-Serif" font-size="10.00">core/fixed_vector.inl</text>
</a>
</g>
</g>
<!-- Node3&#45;&gt;Node40 -->
<g id="edge44_Node000003_Node000040" class="edge">
<title>Node3&#45;&gt;Node40</title>
<g id="a_edge44_Node000003_Node000040"><a xlink:title=" ">
<path fill="none" stroke="#63b8ff" d="M1438.77,-144.24C1441.54,-143.75 1444.32,-143.32 1447,-143 1886.16,-90.46 2999.85,-174.27 3437,-107 3448.01,-105.31 3459.75,-102.26 3470.23,-99.07"/>
<polygon fill="#63b8ff" stroke="#63b8ff" points="3471.37,-102.38 3479.83,-96.01 3469.24,-95.72 3471.37,-102.38"/>
</a>
</g>
</g>
<!-- Node41 -->
<g id="Node000041" class="node">
<title>Node41</title>
<g id="a_Node000041"><a xlink:href="../../d0/d67/format_8inl.html" target="_top" xlink:title="Inline implementations for FormatString class.">
<polygon fill="white" stroke="#666666" points="3667.5,-96 3578.5,-96 3578.5,-77 3667.5,-77 3667.5,-96"/>
<text text-anchor="middle" x="3623" y="-84" font-family="Helvetica,sans-Serif" font-size="10.00">core/format.inl</text>
</a>
</g>
</g>
<!-- Node3&#45;&gt;Node41 -->
<g id="edge45_Node000003_Node000041" class="edge">
<title>Node3&#45;&gt;Node41</title>
<g id="a_edge45_Node000003_Node000041"><a xlink:title=" ">
<path fill="none" stroke="#63b8ff" d="M1438.77,-144.24C1441.54,-143.75 1444.31,-143.32 1447,-143 1915.32,-87.24 3105.14,-192.25 3569,-107 3577.5,-105.44 3586.44,-102.7 3594.55,-99.75"/>
<polygon fill="#63b8ff" stroke="#63b8ff" points="3595.87,-103 3603.93,-96.13 3593.34,-96.46 3595.87,-103"/>
</a>
</g>
</g>
<!-- Node42 -->
<g id="Node000042" class="node">
<title>Node42</title>
<g id="a_Node000042"><a xlink:href="../../d9/dcb/o__string__stream_8inl.html" target="_top" xlink:title="Implementation of OStringStream template methods.">
<polygon fill="white" stroke="#666666" points="3820,-96 3686,-96 3686,-77 3820,-77 3820,-96"/>
<text text-anchor="middle" x="3753" y="-84" font-family="Helvetica,sans-Serif" font-size="10.00">core/o_string_stream.inl</text>
</a>
</g>
</g>
<!-- Node3&#45;&gt;Node42 -->
<g id="edge46_Node000003_Node000042" class="edge">
<title>Node3&#45;&gt;Node42</title>
<g id="a_edge46_Node000003_Node000042"><a xlink:title=" ">
<path fill="none" stroke="#63b8ff" d="M1438.77,-144.24C1441.54,-143.75 1444.31,-143.32 1447,-143 1939.17,-84.6 3185.8,-173.04 3677,-107 3689.97,-105.26 3703.92,-102.07 3716.27,-98.78"/>
<polygon fill="#63b8ff" stroke="#63b8ff" points="3717.52,-102.06 3726.22,-96.01 3715.65,-95.32 3717.52,-102.06"/>
</a>
</g>
</g>
<!-- Node43 -->
<g id="Node000043" class="node">
<title>Node43</title>
<g id="a_Node000043"><a xlink:href="../../d2/d2b/core_2utils_8inl.html" target="_top" xlink:title="Inline implementations of core utility functions for string manipulation and encoding conversion.">
<polygon fill="white" stroke="#666666" points="3915.5,-96 3838.5,-96 3838.5,-77 3915.5,-77 3915.5,-96"/>
<text text-anchor="middle" x="3877" y="-84" font-family="Helvetica,sans-Serif" font-size="10.00">core/utils.inl</text>
</a>
</g>
</g>
<!-- Node3&#45;&gt;Node43 -->
<g id="edge47_Node000003_Node000043" class="edge">
<title>Node3&#45;&gt;Node43</title>
<g id="a_edge47_Node000003_Node000043"><a xlink:title=" ">
<path fill="none" stroke="#63b8ff" d="M1438.77,-144.24C1441.54,-143.74 1444.31,-143.32 1447,-143 1709.87,-111.95 3569.61,-159.72 3829,-107 3836.23,-105.53 3843.74,-103 3850.63,-100.25"/>
<polygon fill="#63b8ff" stroke="#63b8ff" points="3852.36,-103.31 3860.15,-96.14 3849.58,-96.89 3852.36,-103.31"/>
</a>
</g>
</g>
<!-- Node22&#45;&gt;Node23 -->
<g id="edge22_Node000022_Node000023" class="edge">
<title>Node22&#45;&gt;Node23</title>
<g id="a_edge22_Node000022_Node000023"><a xlink:title=" ">
<path fill="none" stroke="#63b8ff" d="M1379.19,-65.96C1364.79,-56.51 1347.54,-45.2 1333.1,-35.74"/>
<polygon fill="#63b8ff" stroke="#63b8ff" points="1334.81,-32.67 1324.52,-30.11 1330.97,-38.52 1334.81,-32.67"/>
</a>
</g>
</g>
<!-- Node24 -->
<g id="Node000024" class="node">
<title>Node24</title>
<g id="a_Node000024"><a xlink:href="../../d1/d5f/assertion__macro__gcc__clang_8hpp.html" target="_top" xlink:title="Debug and Release assertion macro implementations for GCC/Clang platforms.">
<polygon fill="white" stroke="#666666" points="1499.5,-30 1372.5,-30 1372.5,0 1499.5,0 1499.5,-30"/>
<text text-anchor="start" x="1380.5" y="-18" font-family="Helvetica,sans-Serif" font-size="10.00">../common/assertion</text>
<text text-anchor="middle" x="1436" y="-7" font-family="Helvetica,sans-Serif" font-size="10.00">_macro_gcc_clang.hpp</text>
</a>
</g>
</g>
<!-- Node22&#45;&gt;Node24 -->
<g id="edge23_Node000022_Node000024" class="edge">
<title>Node22&#45;&gt;Node24</title>
<g id="a_edge23_Node000022_Node000024"><a xlink:title=" ">
<path fill="none" stroke="#63b8ff" d="M1416.66,-65.77C1419.85,-57.58 1423.57,-48.01 1426.89,-39.46"/>
<polygon fill="#63b8ff" stroke="#63b8ff" points="1430.19,-40.63 1430.55,-30.04 1423.66,-38.09 1430.19,-40.63"/>
</a>
</g>
</g>
<!-- Node26&#45;&gt;Node27 -->
<g id="edge26_Node000026_Node000027" class="edge">
<title>Node26&#45;&gt;Node27</title>
<g id="a_edge26_Node000026_Node000027"><a xlink:title=" ">
<path fill="none" stroke="#63b8ff" d="M1724.56,-76.94C1738.87,-73.16 1756.22,-68.93 1772,-66 1897.27,-42.74 2046.3,-27.56 2124.65,-20.54"/>
<polygon fill="#63b8ff" stroke="#63b8ff" points="2125.11,-24.01 2134.76,-19.64 2124.49,-17.04 2125.11,-24.01"/>
</a>
</g>
</g>
<!-- Node30&#45;&gt;Node27 -->
<g id="edge30_Node000030_Node000027" class="edge">
<title>Node30&#45;&gt;Node27</title>
<g id="a_edge30_Node000030_Node000027"><a xlink:title=" ">
<path fill="none" stroke="#63b8ff" d="M2179,-76.98C2179,-66.56 2179,-48.61 2179,-34.88"/>
<polygon fill="#63b8ff" stroke="#63b8ff" points="2182.5,-34.59 2179,-24.59 2175.5,-34.59 2182.5,-34.59"/>
</a>
</g>
</g>
<!-- Node32&#45;&gt;Node27 -->
<g id="edge33_Node000032_Node000027" class="edge">
<title>Node32&#45;&gt;Node27</title>
<g id="a_edge33_Node000032_Node000027"><a xlink:title=" ">
<path fill="none" stroke="#63b8ff" d="M2418.58,-76.95C2408.34,-73.35 2396.14,-69.25 2385,-66 2332.13,-50.57 2270.67,-36.1 2228.73,-26.73"/>
<polygon fill="#63b8ff" stroke="#63b8ff" points="2229.3,-23.27 2218.78,-24.52 2227.78,-30.1 2229.3,-23.27"/>
</a>
</g>
</g>
<!-- Node34&#45;&gt;Node27 -->
<g id="edge36_Node000034_Node000027" class="edge">
<title>Node34&#45;&gt;Node27</title>
<g id="a_edge36_Node000034_Node000027"><a xlink:title=" ">
<path fill="none" stroke="#63b8ff" d="M2661.43,-76.99C2646.86,-73.18 2629.13,-68.91 2613,-66 2477.35,-41.55 2315.59,-26.62 2233.14,-20.01"/>
<polygon fill="#63b8ff" stroke="#63b8ff" points="2233.25,-16.51 2223.01,-19.21 2232.7,-23.49 2233.25,-16.51"/>
</a>
</g>
</g>
</g>
</svg>
