<?xml version="1.0" encoding="UTF-8" standalone="no"?>
<!DOCTYPE svg PUBLIC "-//W3C//DTD SVG 1.1//EN"
 "http://www.w3.org/Graphics/SVG/1.1/DTD/svg11.dtd">
<!-- Generated by graphviz version 2.43.0 (0)
 -->
<!-- Title: include/math.hpp Pages: 1 -->
<!--zoomable 225 -->

<svg id="main" version="1.1" xmlns="http://www.w3.org/2000/svg" xmlns:xlink="http://www.w3.org/1999/xlink" xml:space="preserve" onload="init(evt)">

<style type="text/css"><![CDATA[
.node, .edge {opacity: 0.7;}
.node.selected, .edge.selected {opacity: 1;}
.edge:hover path { stroke: red; }
.edge:hover polygon { stroke: red; fill: red; }
]]></style>

<defs>
  <circle id="rim" cx="0" cy="0" r="7"/>
  <circle id="rim2" cx="0" cy="0" r="3.5"/>
  <g id="zoomPlus">
    <use xlink:href="#rim" fill="#404040"><set attributeName="fill" to="#808080" begin="zoomplus.mouseover" end="zoomplus.mouseout"/></use>
    <path d="M-4,0h8M0,-4v8" fill="none" stroke="white" stroke-width="1.5" pointer-events="none"/>
  </g>
  <g id="zoomMin">
    <use xlink:href="#rim" fill="#404040"><set attributeName="fill" to="#808080" begin="zoomminus.mouseover" end="zoomminus.mouseout"/></use>
    <path d="M-4,0h8" fill="none" stroke="white" stroke-width="1.5" pointer-events="none"/>
  </g>
  <g id="arrowUp" transform="translate(30 24)">
    <use xlink:href="#rim"/>
    <path pointer-events="none" fill="none" stroke="white" stroke-width="1.5" d="M0,-3.0v7 M-2.5,-0.5L0,-3.0L2.5,-0.5"/>
  </g>
  <g id="arrowRight" transform="rotate(90) translate(36 -43)">
    <use xlink:href="#rim"/>
    <path pointer-events="none" fill="none" stroke="white" stroke-width="1.5" d="M0,-3.0v7 M-2.5,-0.5L0,-3.0L2.5,-0.5"/>
  </g>
  <g id="arrowDown" transform="rotate(180) translate(-30 -48)">
    <use xlink:href="#rim"/>
    <path pointer-events="none" fill="none" stroke="white" stroke-width="1.5" d="M0,-3.0v7 M-2.5,-0.5L0,-3.0L2.5,-0.5"/>
  </g>
  <g id="arrowLeft" transform="rotate(270) translate(-36 17)">
    <use xlink:href="#rim"/>
    <path pointer-events="none" fill="none" stroke="white" stroke-width="1.5" d="M0,-3.0v7 M-2.5,-0.5L0,-3.0L2.5,-0.5"/>
  </g>
  <g id="resetDef">
    <use xlink:href="#rim2" fill="#404040"><set attributeName="fill" to="#808080" begin="reset.mouseover" end="reset.mouseout"/></use>
  </g>
</defs>
<script type="application/ecmascript">
var viewWidth = 3139;
var viewHeight = 225;
var sectionId = 'dynsection-0';
</script>
<script type="application/ecmascript" xlink:href="../../svg.min.js"/>
<svg id="graph" class="graph">
<g id="viewport">
<title>include/math.hpp</title>
<!-- Node1 -->
<g id="Node000001" class="node">
<title>Node1</title>
<g id="a_Node000001"><a xlink:title="Umbrella header for the engine mathematics module.">
<polygon fill="#999999" stroke="#666666" points="1385.5,-217 1284.5,-217 1284.5,-198 1385.5,-198 1385.5,-217"/>
<text text-anchor="middle" x="1335" y="-205" font-family="Helvetica,sans-Serif" font-size="10.00">include/math.hpp</text>
</a>
</g>
</g>
<!-- Node2 -->
<g id="Node000002" class="node">
<title>Node2</title>
<g id="a_Node000002"><a xlink:href="../../da/d47/core_8hpp.html" target="_top" xlink:title="Umbrella header for the engine core module.">
<polygon fill="white" stroke="#666666" points="1153.5,-162 1094.5,-162 1094.5,-143 1153.5,-143 1153.5,-162"/>
<text text-anchor="middle" x="1124" y="-150" font-family="Helvetica,sans-Serif" font-size="10.00">core.hpp</text>
</a>
</g>
</g>
<!-- Node1&#45;&gt;Node2 -->
<g id="edge1_Node000001_Node000002" class="edge">
<title>Node1&#45;&gt;Node2</title>
<g id="a_edge1_Node000001_Node000002"><a xlink:title=" ">
<path fill="none" stroke="#63b8ff" d="M1301.1,-197.98C1263.59,-188.56 1203.22,-173.4 1163.58,-163.44"/>
<polygon fill="#63b8ff" stroke="#63b8ff" points="1164.28,-160.01 1153.72,-160.97 1162.57,-166.8 1164.28,-160.01"/>
</a>
</g>
</g>
<!-- Node34 -->
<g id="Node000034" class="node">
<title>Node34</title>
<g id="a_Node000034"><a xlink:href="../../d0/de4/point_8hpp.html" target="_top" xlink:title="2D integer point class for UI and input handling.">
<polygon fill="white" stroke="#666666" points="1262.5,-162 1171.5,-162 1171.5,-143 1262.5,-143 1262.5,-162"/>
<text text-anchor="middle" x="1217" y="-150" font-family="Helvetica,sans-Serif" font-size="10.00">math/point.hpp</text>
</a>
</g>
</g>
<!-- Node1&#45;&gt;Node34 -->
<g id="edge33_Node000001_Node000034" class="edge">
<title>Node1&#45;&gt;Node34</title>
<g id="a_edge33_Node000001_Node000034"><a xlink:title=" ">
<path fill="none" stroke="#63b8ff" d="M1316.04,-197.98C1296.97,-189.42 1267.34,-176.11 1245.45,-166.28"/>
<polygon fill="#63b8ff" stroke="#63b8ff" points="1246.86,-163.07 1236.3,-162.17 1243.99,-169.46 1246.86,-163.07"/>
</a>
</g>
</g>
<!-- Node35 -->
<g id="Node000035" class="node">
<title>Node35</title>
<g id="a_Node000035"><a xlink:href="../../d6/de1/vector2d_8hpp.html" target="_top" xlink:title="2D floating&#45;point vector class for interactive game objects and physics calculations.">
<polygon fill="white" stroke="#666666" points="1389.5,-162 1280.5,-162 1280.5,-143 1389.5,-143 1389.5,-162"/>
<text text-anchor="middle" x="1335" y="-150" font-family="Helvetica,sans-Serif" font-size="10.00">math/vector2d.hpp</text>
</a>
</g>
</g>
<!-- Node1&#45;&gt;Node35 -->
<g id="edge34_Node000001_Node000035" class="edge">
<title>Node1&#45;&gt;Node35</title>
<g id="a_edge34_Node000001_Node000035"><a xlink:title=" ">
<path fill="none" stroke="#63b8ff" d="M1335,-197.75C1335,-190.8 1335,-180.85 1335,-172.13"/>
<polygon fill="#63b8ff" stroke="#63b8ff" points="1338.5,-172.09 1335,-162.09 1331.5,-172.09 1338.5,-172.09"/>
</a>
</g>
</g>
<!-- Node36 -->
<g id="Node000036" class="node">
<title>Node36</title>
<g id="a_Node000036"><a xlink:href="../../d4/dee/point_8inl.html" target="_top" xlink:title="Inline implementations for 2D integer point class.">
<polygon fill="white" stroke="#666666" points="1492.5,-162 1407.5,-162 1407.5,-143 1492.5,-143 1492.5,-162"/>
<text text-anchor="middle" x="1450" y="-150" font-family="Helvetica,sans-Serif" font-size="10.00">math/point.inl</text>
</a>
</g>
</g>
<!-- Node1&#45;&gt;Node36 -->
<g id="edge35_Node000001_Node000036" class="edge">
<title>Node1&#45;&gt;Node36</title>
<g id="a_edge35_Node000001_Node000036"><a xlink:title=" ">
<path fill="none" stroke="#63b8ff" d="M1353.48,-197.98C1371.98,-189.46 1400.68,-176.23 1421.98,-166.41"/>
<polygon fill="#63b8ff" stroke="#63b8ff" points="1423.57,-169.53 1431.19,-162.17 1420.64,-163.18 1423.57,-169.53"/>
</a>
</g>
</g>
<!-- Node37 -->
<g id="Node000037" class="node">
<title>Node37</title>
<g id="a_Node000037"><a xlink:href="../../dd/d53/vector2d_8inl.html" target="_top" xlink:title="Inline implementations for 2D floating&#45;point vector class.">
<polygon fill="white" stroke="#666666" points="1613.5,-162 1510.5,-162 1510.5,-143 1613.5,-143 1613.5,-162"/>
<text text-anchor="middle" x="1562" y="-150" font-family="Helvetica,sans-Serif" font-size="10.00">math/vector2d.inl</text>
</a>
</g>
</g>
<!-- Node1&#45;&gt;Node37 -->
<g id="edge36_Node000001_Node000037" class="edge">
<title>Node1&#45;&gt;Node37</title>
<g id="a_edge36_Node000001_Node000037"><a xlink:title=" ">
<path fill="none" stroke="#63b8ff" d="M1371.47,-197.98C1410.57,-188.86 1472.77,-174.33 1515.39,-164.38"/>
<polygon fill="#63b8ff" stroke="#63b8ff" points="1516.3,-167.76 1525.24,-162.08 1514.71,-160.95 1516.3,-167.76"/>
</a>
</g>
</g>
<!-- Node3 -->
<g id="Node000003" class="node">
<title>Node3</title>
<g id="a_Node000003"><a xlink:title=" ">
<polygon fill="#e0e0e0" stroke="#999999" points="64,-96 0,-96 0,-77 64,-77 64,-96"/>
<text text-anchor="middle" x="32" y="-84" font-family="Helvetica,sans-Serif" font-size="10.00">algorithm</text>
</a>
</g>
</g>
<!-- Node2&#45;&gt;Node3 -->
<g id="edge2_Node000002_Node000003" class="edge">
<title>Node2&#45;&gt;Node3</title>
<g id="a_edge2_Node000002_Node000003"><a xlink:title=" ">
<path fill="none" stroke="#63b8ff" d="M1094.26,-150.95C933.74,-147.88 174.37,-132.14 73,-107 67.02,-105.52 60.87,-103.12 55.21,-100.51"/>
<polygon fill="#63b8ff" stroke="#63b8ff" points="56.78,-97.38 46.27,-96.03 53.64,-103.64 56.78,-97.38"/>
</a>
</g>
</g>
<!-- Node4 -->
<g id="Node000004" class="node">
<title>Node4</title>
<g id="a_Node000004"><a xlink:title=" ">
<polygon fill="#e0e0e0" stroke="#999999" points="124,-96 82,-96 82,-77 124,-77 124,-96"/>
<text text-anchor="middle" x="103" y="-84" font-family="Helvetica,sans-Serif" font-size="10.00">array</text>
</a>
</g>
</g>
<!-- Node2&#45;&gt;Node4 -->
<g id="edge3_Node000002_Node000004" class="edge">
<title>Node2&#45;&gt;Node4</title>
<g id="a_edge3_Node000002_Node000004"><a xlink:title=" ">
<path fill="none" stroke="#63b8ff" d="M1094.42,-151.07C939.75,-148.7 227.59,-136.28 134,-107 129.95,-105.73 125.91,-103.8 122.14,-101.64"/>
<polygon fill="#63b8ff" stroke="#63b8ff" points="123.8,-98.54 113.5,-96.03 119.98,-104.41 123.8,-98.54"/>
</a>
</g>
</g>
<!-- Node5 -->
<g id="Node000005" class="node">
<title>Node5</title>
<g id="a_Node000005"><a xlink:title=" ">
<polygon fill="#e0e0e0" stroke="#999999" points="201.5,-96 142.5,-96 142.5,-77 201.5,-77 201.5,-96"/>
<text text-anchor="middle" x="172" y="-84" font-family="Helvetica,sans-Serif" font-size="10.00">compare</text>
</a>
</g>
</g>
<!-- Node2&#45;&gt;Node5 -->
<g id="edge4_Node000002_Node000005" class="edge">
<title>Node2&#45;&gt;Node5</title>
<g id="a_edge4_Node000002_Node000005"><a xlink:title=" ">
<path fill="none" stroke="#63b8ff" d="M1094.22,-151.69C956.82,-152.33 383.51,-152.19 211,-107 205.42,-105.54 199.7,-103.22 194.42,-100.68"/>
<polygon fill="#63b8ff" stroke="#63b8ff" points="196.01,-97.56 185.53,-96.01 192.76,-103.76 196.01,-97.56"/>
</a>
</g>
</g>
<!-- Node6 -->
<g id="Node000006" class="node">
<title>Node6</title>
<g id="a_Node000006"><a xlink:title=" ">
<polygon fill="#e0e0e0" stroke="#999999" points="280,-96 220,-96 220,-77 280,-77 280,-96"/>
<text text-anchor="middle" x="250" y="-84" font-family="Helvetica,sans-Serif" font-size="10.00">concepts</text>
</a>
</g>
</g>
<!-- Node2&#45;&gt;Node6 -->
<g id="edge5_Node000002_Node000006" class="edge">
<title>Node2&#45;&gt;Node6</title>
<g id="a_edge5_Node000002_Node000006"><a xlink:title=" ">
<path fill="none" stroke="#63b8ff" d="M1094.24,-151.49C964.35,-151.23 446.68,-147.58 290,-107 284.39,-105.55 278.64,-103.27 273.3,-100.78"/>
<polygon fill="#63b8ff" stroke="#63b8ff" points="274.77,-97.6 264.27,-96.19 271.6,-103.84 274.77,-97.6"/>
</a>
</g>
</g>
<!-- Node7 -->
<g id="Node000007" class="node">
<title>Node7</title>
<g id="a_Node000007"><a xlink:title=" ">
<polygon fill="#e0e0e0" stroke="#999999" points="351.5,-96 298.5,-96 298.5,-77 351.5,-77 351.5,-96"/>
<text text-anchor="middle" x="325" y="-84" font-family="Helvetica,sans-Serif" font-size="10.00">cstddef</text>
</a>
</g>
</g>
<!-- Node2&#45;&gt;Node7 -->
<g id="edge6_Node000002_Node000007" class="edge">
<title>Node2&#45;&gt;Node7</title>
<g id="a_edge6_Node000002_Node000007"><a xlink:title=" ">
<path fill="none" stroke="#63b8ff" d="M1094.28,-151.49C971.36,-151.17 502.5,-147.28 361,-107 356.13,-105.61 351.18,-103.49 346.58,-101.14"/>
<polygon fill="#63b8ff" stroke="#63b8ff" points="348.17,-98.03 337.74,-96.19 344.75,-104.13 348.17,-98.03"/>
</a>
</g>
</g>
<!-- Node8 -->
<g id="Node000008" class="node">
<title>Node8</title>
<g id="a_Node000008"><a xlink:title=" ">
<polygon fill="#e0e0e0" stroke="#999999" points="420,-96 370,-96 370,-77 420,-77 420,-96"/>
<text text-anchor="middle" x="395" y="-84" font-family="Helvetica,sans-Serif" font-size="10.00">cstdint</text>
</a>
</g>
</g>
<!-- Node2&#45;&gt;Node8 -->
<g id="edge7_Node000002_Node000008" class="edge">
<title>Node2&#45;&gt;Node8</title>
<g id="a_edge7_Node000002_Node000008"><a xlink:title=" ">
<path fill="none" stroke="#63b8ff" d="M1094.19,-151.38C978.09,-150.64 556.35,-145.33 429,-107 424.48,-105.64 419.91,-103.58 415.66,-101.31"/>
<polygon fill="#63b8ff" stroke="#63b8ff" points="417.36,-98.25 406.97,-96.17 413.79,-104.28 417.36,-98.25"/>
</a>
</g>
</g>
<!-- Node9 -->
<g id="Node000009" class="node">
<title>Node9</title>
<g id="a_Node000009"><a xlink:title=" ">
<polygon fill="#e0e0e0" stroke="#999999" points="488,-96 438,-96 438,-77 488,-77 488,-96"/>
<text text-anchor="middle" x="463" y="-84" font-family="Helvetica,sans-Serif" font-size="10.00">cstring</text>
</a>
</g>
</g>
<!-- Node2&#45;&gt;Node9 -->
<g id="edge8_Node000002_Node000009" class="edge">
<title>Node2&#45;&gt;Node9</title>
<g id="a_edge8_Node000002_Node000009"><a xlink:title=" ">
<path fill="none" stroke="#63b8ff" d="M1094.24,-151.09C985.74,-149.34 611.81,-140.92 498,-107 493.38,-105.62 488.69,-103.56 484.31,-101.28"/>
<polygon fill="#63b8ff" stroke="#63b8ff" points="485.78,-98.09 475.37,-96.14 482.29,-104.16 485.78,-98.09"/>
</a>
</g>
</g>
<!-- Node10 -->
<g id="Node000010" class="node">
<title>Node10</title>
<g id="a_Node000010"><a xlink:title=" ">
<polygon fill="#e0e0e0" stroke="#999999" points="555.5,-96 506.5,-96 506.5,-77 555.5,-77 555.5,-96"/>
<text text-anchor="middle" x="531" y="-84" font-family="Helvetica,sans-Serif" font-size="10.00">cuchar</text>
</a>
</g>
</g>
<!-- Node2&#45;&gt;Node10 -->
<g id="edge9_Node000002_Node000010" class="edge">
<title>Node2&#45;&gt;Node10</title>
<g id="a_edge9_Node000002_Node000010"><a xlink:title=" ">
<path fill="none" stroke="#63b8ff" d="M1094.33,-150.85C993.59,-148.37 665.33,-138.04 565,-107 560.49,-105.6 555.93,-103.53 551.67,-101.26"/>
<polygon fill="#63b8ff" stroke="#63b8ff" points="553.38,-98.2 542.99,-96.12 549.81,-104.22 553.38,-98.2"/>
</a>
</g>
</g>
<!-- Node11 -->
<g id="Node000011" class="node">
<title>Node11</title>
<g id="a_Node000011"><a xlink:title=" ">
<polygon fill="#e0e0e0" stroke="#999999" points="656.5,-96 573.5,-96 573.5,-77 656.5,-77 656.5,-96"/>
<text text-anchor="middle" x="615" y="-84" font-family="Helvetica,sans-Serif" font-size="10.00">initializer_list</text>
</a>
</g>
</g>
<!-- Node2&#45;&gt;Node11 -->
<g id="edge10_Node000002_Node000011" class="edge">
<title>Node2&#45;&gt;Node11</title>
<g id="a_edge10_Node000002_Node000011"><a xlink:title=" ">
<path fill="none" stroke="#63b8ff" d="M1094.35,-151.35C1020.8,-150.4 824.45,-144.27 666,-107 658.51,-105.24 650.65,-102.64 643.4,-99.9"/>
<polygon fill="#63b8ff" stroke="#63b8ff" points="644.58,-96.6 633.99,-96.16 641.99,-103.11 644.58,-96.6"/>
</a>
</g>
</g>
<!-- Node12 -->
<g id="Node000012" class="node">
<title>Node12</title>
<g id="a_Node000012"><a xlink:title=" ">
<polygon fill="#e0e0e0" stroke="#999999" points="727.5,-96 674.5,-96 674.5,-77 727.5,-77 727.5,-96"/>
<text text-anchor="middle" x="701" y="-84" font-family="Helvetica,sans-Serif" font-size="10.00">iterator</text>
</a>
</g>
</g>
<!-- Node2&#45;&gt;Node12 -->
<g id="edge11_Node000002_Node000012" class="edge">
<title>Node2&#45;&gt;Node12</title>
<g id="a_edge11_Node000002_Node000012"><a xlink:title=" ">
<path fill="none" stroke="#63b8ff" d="M1094.08,-151.88C1028.01,-151.91 865.35,-147.47 737,-107 732.38,-105.54 727.66,-103.48 723.23,-101.23"/>
<polygon fill="#63b8ff" stroke="#63b8ff" points="724.58,-97.98 714.13,-96.19 721.18,-104.1 724.58,-97.98"/>
</a>
</g>
</g>
<!-- Node13 -->
<g id="Node000013" class="node">
<title>Node13</title>
<g id="a_Node000013"><a xlink:title=" ">
<polygon fill="#e0e0e0" stroke="#999999" points="804,-96 746,-96 746,-77 804,-77 804,-96"/>
<text text-anchor="middle" x="775" y="-84" font-family="Helvetica,sans-Serif" font-size="10.00">memory</text>
</a>
</g>
</g>
<!-- Node2&#45;&gt;Node13 -->
<g id="edge12_Node000002_Node000013" class="edge">
<title>Node2&#45;&gt;Node13</title>
<g id="a_edge12_Node000002_Node000013"><a xlink:title=" ">
<path fill="none" stroke="#63b8ff" d="M1094.24,-150.39C1038.19,-147.61 913.63,-138.16 814,-107 808.8,-105.38 803.45,-103.12 798.44,-100.73"/>
<polygon fill="#63b8ff" stroke="#63b8ff" points="799.84,-97.52 789.35,-96.07 796.65,-103.74 799.84,-97.52"/>
</a>
</g>
</g>
<!-- Node14 -->
<g id="Node000014" class="node">
<title>Node14</title>
<g id="a_Node000014"><a xlink:title=" ">
<polygon fill="#e0e0e0" stroke="#999999" points="887.5,-96 822.5,-96 822.5,-77 887.5,-77 887.5,-96"/>
<text text-anchor="middle" x="855" y="-84" font-family="Helvetica,sans-Serif" font-size="10.00">stdexcept</text>
</a>
</g>
</g>
<!-- Node2&#45;&gt;Node14 -->
<g id="edge13_Node000002_Node000014" class="edge">
<title>Node2&#45;&gt;Node14</title>
<g id="a_edge13_Node000002_Node000014"><a xlink:title=" ">
<path fill="none" stroke="#63b8ff" d="M1094.4,-148.02C1050.51,-142.33 965.94,-129.4 897,-107 891.46,-105.2 885.68,-102.85 880.26,-100.42"/>
<polygon fill="#63b8ff" stroke="#63b8ff" points="881.52,-97.14 870.99,-96.03 878.53,-103.47 881.52,-97.14"/>
</a>
</g>
</g>
<!-- Node15 -->
<g id="Node000015" class="node">
<title>Node15</title>
<g id="a_Node000015"><a xlink:title=" ">
<polygon fill="#e0e0e0" stroke="#999999" points="950,-96 906,-96 906,-77 950,-77 950,-96"/>
<text text-anchor="middle" x="928" y="-84" font-family="Helvetica,sans-Serif" font-size="10.00">string</text>
</a>
</g>
</g>
<!-- Node2&#45;&gt;Node15 -->
<g id="edge14_Node000002_Node000015" class="edge">
<title>Node2&#45;&gt;Node15</title>
<g id="a_edge14_Node000002_Node000015"><a xlink:title=" ">
<path fill="none" stroke="#63b8ff" d="M1094.43,-146.1C1060.93,-139.39 1005.12,-126.41 960,-107 956.38,-105.44 952.68,-103.53 949.15,-101.52"/>
<polygon fill="#63b8ff" stroke="#63b8ff" points="950.69,-98.36 940.33,-96.14 947.04,-104.34 950.69,-98.36"/>
</a>
</g>
</g>
<!-- Node16 -->
<g id="Node000016" class="node">
<title>Node16</title>
<g id="a_Node000016"><a xlink:title=" ">
<polygon fill="#e0e0e0" stroke="#999999" points="1037.5,-96 968.5,-96 968.5,-77 1037.5,-77 1037.5,-96"/>
<text text-anchor="middle" x="1003" y="-84" font-family="Helvetica,sans-Serif" font-size="10.00">type_traits</text>
</a>
</g>
</g>
<!-- Node2&#45;&gt;Node16 -->
<g id="edge15_Node000002_Node000016" class="edge">
<title>Node2&#45;&gt;Node16</title>
<g id="a_edge15_Node000002_Node000016"><a xlink:title=" ">
<path fill="none" stroke="#63b8ff" d="M1107.68,-142.87C1087.29,-132.09 1052.19,-113.52 1028.3,-100.88"/>
<polygon fill="#63b8ff" stroke="#63b8ff" points="1029.92,-97.78 1019.45,-96.2 1026.65,-103.97 1029.92,-97.78"/>
</a>
</g>
</g>
<!-- Node17 -->
<g id="Node000017" class="node">
<title>Node17</title>
<g id="a_Node000017"><a xlink:title=" ">
<polygon fill="#e0e0e0" stroke="#999999" points="1100.5,-96 1055.5,-96 1055.5,-77 1100.5,-77 1100.5,-96"/>
<text text-anchor="middle" x="1078" y="-84" font-family="Helvetica,sans-Serif" font-size="10.00">utility</text>
</a>
</g>
</g>
<!-- Node2&#45;&gt;Node17 -->
<g id="edge16_Node000002_Node000017" class="edge">
<title>Node2&#45;&gt;Node17</title>
<g id="a_edge16_Node000002_Node000017"><a xlink:title=" ">
<path fill="none" stroke="#63b8ff" d="M1117.8,-142.87C1110.77,-133.09 1099.15,-116.92 1090.27,-104.58"/>
<polygon fill="#63b8ff" stroke="#63b8ff" points="1093.08,-102.48 1084.4,-96.41 1087.39,-106.57 1093.08,-102.48"/>
</a>
</g>
</g>
<!-- Node18 -->
<g id="Node000018" class="node">
<title>Node18</title>
<g id="a_Node000018"><a xlink:href="../../d3/d60/platform_8hpp.html" target="_top" xlink:title="Platform and CPU architecture enumerations with compile&#45;time and runtime detection utilities.">
<polygon fill="white" stroke="#666666" points="1223,-96 1119,-96 1119,-77 1223,-77 1223,-96"/>
<text text-anchor="middle" x="1171" y="-84" font-family="Helvetica,sans-Serif" font-size="10.00">core/platform.hpp</text>
</a>
</g>
</g>
<!-- Node2&#45;&gt;Node18 -->
<g id="edge17_Node000002_Node000018" class="edge">
<title>Node2&#45;&gt;Node18</title>
<g id="a_edge17_Node000002_Node000018"><a xlink:title=" ">
<path fill="none" stroke="#63b8ff" d="M1130.34,-142.87C1137.52,-133.09 1149.39,-116.92 1158.46,-104.58"/>
<polygon fill="#63b8ff" stroke="#63b8ff" points="1161.36,-106.54 1164.46,-96.41 1155.72,-102.39 1161.36,-106.54"/>
</a>
</g>
</g>
<!-- Node19 -->
<g id="Node000019" class="node">
<title>Node19</title>
<g id="a_Node000019"><a xlink:href="../../dd/d9e/linux_2platform__config_8hpp.html" target="_top" xlink:title="additional linux platform header">
<polygon fill="white" stroke="#666666" points="1396.5,-107 1241.5,-107 1241.5,-66 1396.5,-66 1396.5,-107"/>
<text text-anchor="start" x="1249.5" y="-95" font-family="Helvetica,sans-Serif" font-size="10.00">/home/runner/work/toygine2</text>
<text text-anchor="start" x="1249.5" y="-84" font-family="Helvetica,sans-Serif" font-size="10.00">/toygine2/src/platforms</text>
<text text-anchor="middle" x="1319" y="-73" font-family="Helvetica,sans-Serif" font-size="10.00">/linux/platform_config.hpp</text>
</a>
</g>
</g>
<!-- Node2&#45;&gt;Node19 -->
<g id="edge18_Node000002_Node000019" class="edge">
<title>Node2&#45;&gt;Node19</title>
<g id="a_edge18_Node000002_Node000019"><a xlink:title=" ">
<path fill="none" stroke="#63b8ff" d="M1150.3,-142.87C1175.77,-134.51 1215.48,-121.48 1249.98,-110.15"/>
<polygon fill="#63b8ff" stroke="#63b8ff" points="1251.15,-113.45 1259.56,-107.01 1248.97,-106.8 1251.15,-113.45"/>
</a>
</g>
</g>
<!-- Node21 -->
<g id="Node000021" class="node">
<title>Node21</title>
<g id="a_Node000021"><a xlink:href="../../dd/ded/c__string__view_8hpp.html" target="_top" xlink:title="Non&#45;owning string view class for C&#45;style strings.">
<polygon fill="white" stroke="#666666" points="1543,-96 1415,-96 1415,-77 1543,-77 1543,-96"/>
<text text-anchor="middle" x="1479" y="-84" font-family="Helvetica,sans-Serif" font-size="10.00">core/c_string_view.hpp</text>
</a>
</g>
</g>
<!-- Node2&#45;&gt;Node21 -->
<g id="edge20_Node000002_Node000021" class="edge">
<title>Node2&#45;&gt;Node21</title>
<g id="a_edge20_Node000002_Node000021"><a xlink:title=" ">
<path fill="none" stroke="#63b8ff" d="M1153.77,-144.8C1156.88,-144.16 1160,-143.55 1163,-143 1270.4,-123.36 1299.09,-129.12 1406,-107 1417.21,-104.68 1429.26,-101.68 1440.28,-98.72"/>
<polygon fill="#63b8ff" stroke="#63b8ff" points="1441.33,-102.06 1450.05,-96.05 1439.48,-95.31 1441.33,-102.06"/>
</a>
</g>
</g>
<!-- Node22 -->
<g id="Node000022" class="node">
<title>Node22</title>
<g id="a_Node000022"><a xlink:href="../../d1/d5c/callbacks__pool_8hpp.html" target="_top" xlink:title="Template callback pool class with fixed&#45;size callback storage.">
<polygon fill="white" stroke="#666666" points="1695,-96 1561,-96 1561,-77 1695,-77 1695,-96"/>
<text text-anchor="middle" x="1628" y="-84" font-family="Helvetica,sans-Serif" font-size="10.00">core/callbacks_pool.hpp</text>
</a>
</g>
</g>
<!-- Node2&#45;&gt;Node22 -->
<g id="edge21_Node000002_Node000022" class="edge">
<title>Node2&#45;&gt;Node22</title>
<g id="a_edge21_Node000002_Node000022"><a xlink:title=" ">
<path fill="none" stroke="#63b8ff" d="M1153.74,-144.63C1156.86,-144.02 1159.99,-143.47 1163,-143 1334.59,-116.46 1380.93,-136.67 1552,-107 1564.15,-104.89 1577.2,-101.84 1589.01,-98.77"/>
<polygon fill="#63b8ff" stroke="#63b8ff" points="1590.25,-102.06 1599,-96.1 1588.44,-95.3 1590.25,-102.06"/>
</a>
</g>
</g>
<!-- Node23 -->
<g id="Node000023" class="node">
<title>Node23</title>
<g id="a_Node000023"><a xlink:href="../../d4/dc0/constexpr__utils_8hpp.html" target="_top" xlink:title="Constexpr utility functions for compile&#45;time operations.">
<polygon fill="white" stroke="#666666" points="1849,-96 1713,-96 1713,-77 1849,-77 1849,-96"/>
<text text-anchor="middle" x="1781" y="-84" font-family="Helvetica,sans-Serif" font-size="10.00">core/constexpr_utils.hpp</text>
</a>
</g>
</g>
<!-- Node2&#45;&gt;Node23 -->
<g id="edge22_Node000002_Node000023" class="edge">
<title>Node2&#45;&gt;Node23</title>
<g id="a_edge22_Node000002_Node000023"><a xlink:title=" ">
<path fill="none" stroke="#63b8ff" d="M1153.73,-144.55C1156.85,-143.96 1159.98,-143.43 1163,-143 1401.6,-109.25 1466,-144.73 1704,-107 1716.66,-104.99 1730.28,-101.87 1742.5,-98.71"/>
<polygon fill="#63b8ff" stroke="#63b8ff" points="1743.62,-102.03 1752.37,-96.07 1741.81,-95.27 1743.62,-102.03"/>
</a>
</g>
</g>
<!-- Node24 -->
<g id="Node000024" class="node">
<title>Node24</title>
<g id="a_Node000024"><a xlink:href="../../d7/d7f/fixed__string_8hpp.html" target="_top" xlink:title="Template string class with fixed&#45;size character buffer.">
<polygon fill="white" stroke="#666666" points="1985,-96 1867,-96 1867,-77 1985,-77 1985,-96"/>
<text text-anchor="middle" x="1926" y="-84" font-family="Helvetica,sans-Serif" font-size="10.00">core/fixed_string.hpp</text>
</a>
</g>
</g>
<!-- Node2&#45;&gt;Node24 -->
<g id="edge23_Node000002_Node000024" class="edge">
<title>Node2&#45;&gt;Node24</title>
<g id="a_edge23_Node000002_Node000024"><a xlink:title=" ">
<path fill="none" stroke="#63b8ff" d="M1153.72,-144.5C1156.84,-143.92 1159.98,-143.4 1163,-143 1469.56,-101.93 1552.92,-157.96 1858,-107 1869.11,-105.14 1880.98,-102.12 1891.65,-98.99"/>
<polygon fill="#63b8ff" stroke="#63b8ff" points="1892.9,-102.27 1901.44,-96.01 1890.86,-95.58 1892.9,-102.27"/>
</a>
</g>
</g>
<!-- Node25 -->
<g id="Node000025" class="node">
<title>Node25</title>
<g id="a_Node000025"><a xlink:href="../../d7/dea/fixed__vector_8hpp.html" target="_top" xlink:title="TODO.">
<polygon fill="white" stroke="#666666" points="2123,-96 2003,-96 2003,-77 2123,-77 2123,-96"/>
<text text-anchor="middle" x="2063" y="-84" font-family="Helvetica,sans-Serif" font-size="10.00">core/fixed_vector.hpp</text>
</a>
</g>
</g>
<!-- Node2&#45;&gt;Node25 -->
<g id="edge24_Node000002_Node000025" class="edge">
<title>Node2&#45;&gt;Node25</title>
<g id="a_edge24_Node000002_Node000025"><a xlink:title=" ">
<path fill="none" stroke="#63b8ff" d="M1153.72,-144.47C1156.84,-143.9 1159.98,-143.39 1163,-143 1529.61,-95.46 1629,-165.66 1994,-107 2005.39,-105.17 2017.57,-102.11 2028.48,-98.95"/>
<polygon fill="#63b8ff" stroke="#63b8ff" points="2029.52,-102.29 2038.08,-96.05 2027.5,-95.59 2029.52,-102.29"/>
</a>
</g>
</g>
<!-- Node26 -->
<g id="Node000026" class="node">
<title>Node26</title>
<g id="a_Node000026"><a xlink:href="../../dd/d8e/hashes_8hpp.html" target="_top" xlink:title="CRC hash functions.">
<polygon fill="white" stroke="#666666" points="2237,-96 2141,-96 2141,-77 2237,-77 2237,-96"/>
<text text-anchor="middle" x="2189" y="-84" font-family="Helvetica,sans-Serif" font-size="10.00">core/hashes.hpp</text>
</a>
</g>
</g>
<!-- Node2&#45;&gt;Node26 -->
<g id="edge25_Node000002_Node000026" class="edge">
<title>Node2&#45;&gt;Node26</title>
<g id="a_edge25_Node000002_Node000026"><a xlink:title=" ">
<path fill="none" stroke="#63b8ff" d="M1153.72,-144.45C1156.84,-143.89 1159.98,-143.38 1163,-143 1590.55,-88.9 1708.26,-185.59 2132,-107 2141.02,-105.33 2150.54,-102.51 2159.18,-99.53"/>
<polygon fill="#63b8ff" stroke="#63b8ff" points="2160.61,-102.74 2168.81,-96.02 2158.22,-96.16 2160.61,-102.74"/>
</a>
</g>
</g>
<!-- Node27 -->
<g id="Node000027" class="node">
<title>Node27</title>
<g id="a_Node000027"><a xlink:href="../../df/d93/utils_8hpp.html" target="_top" xlink:title="Core utility functions for string manipulation, encoding conversion, and number formatting.">
<polygon fill="white" stroke="#666666" points="2338.5,-96 2255.5,-96 2255.5,-77 2338.5,-77 2338.5,-96"/>
<text text-anchor="middle" x="2297" y="-84" font-family="Helvetica,sans-Serif" font-size="10.00">core/utils.hpp</text>
</a>
</g>
</g>
<!-- Node2&#45;&gt;Node27 -->
<g id="edge26_Node000002_Node000027" class="edge">
<title>Node2&#45;&gt;Node27</title>
<g id="a_edge26_Node000002_Node000027"><a xlink:title=" ">
<path fill="none" stroke="#63b8ff" d="M1153.71,-144.44C1156.84,-143.88 1159.97,-143.38 1163,-143 1401.95,-113.24 2009.96,-154.65 2246,-107 2253.88,-105.41 2262.14,-102.73 2269.66,-99.86"/>
<polygon fill="#63b8ff" stroke="#63b8ff" points="2271.08,-103.06 2279.03,-96.05 2268.44,-96.58 2271.08,-103.06"/>
</a>
</g>
</g>
<!-- Node28 -->
<g id="Node000028" class="node">
<title>Node28</title>
<g id="a_Node000028"><a xlink:href="../../df/d4a/c__string__view_8inl.html" target="_top" xlink:title="Inline implementations for CStringView class.">
<polygon fill="white" stroke="#666666" points="2479,-96 2357,-96 2357,-77 2479,-77 2479,-96"/>
<text text-anchor="middle" x="2418" y="-84" font-family="Helvetica,sans-Serif" font-size="10.00">core/c_string_view.inl</text>
</a>
</g>
</g>
<!-- Node2&#45;&gt;Node28 -->
<g id="edge27_Node000002_Node000028" class="edge">
<title>Node2&#45;&gt;Node28</title>
<g id="a_edge27_Node000002_Node000028"><a xlink:title=" ">
<path fill="none" stroke="#63b8ff" d="M1153.71,-144.43C1156.84,-143.87 1159.97,-143.37 1163,-143 1685.96,-78.62 1827.09,-186.28 2348,-107 2359.65,-105.23 2372.12,-102.15 2383.25,-98.96"/>
<polygon fill="#63b8ff" stroke="#63b8ff" points="2384.47,-102.25 2393.05,-96.03 2382.46,-95.54 2384.47,-102.25"/>
</a>
</g>
</g>
<!-- Node29 -->
<g id="Node000029" class="node">
<title>Node29</title>
<g id="a_Node000029"><a xlink:href="../../d6/ddb/callbacks__pool_8inl.html" target="_top" xlink:title="Inline implementations for template callback pool class with fixed&#45;size callback storage.">
<polygon fill="white" stroke="#666666" points="2625,-96 2497,-96 2497,-77 2625,-77 2625,-96"/>
<text text-anchor="middle" x="2561" y="-84" font-family="Helvetica,sans-Serif" font-size="10.00">core/callbacks_pool.inl</text>
</a>
</g>
</g>
<!-- Node2&#45;&gt;Node29 -->
<g id="edge28_Node000002_Node000029" class="edge">
<title>Node2&#45;&gt;Node29</title>
<g id="a_edge28_Node000002_Node000029"><a xlink:title=" ">
<path fill="none" stroke="#63b8ff" d="M1153.71,-144.42C1156.83,-143.86 1159.97,-143.37 1163,-143 1747.81,-71.96 1905,-191.59 2488,-107 2500.25,-105.22 2513.39,-102.11 2525.09,-98.88"/>
<polygon fill="#63b8ff" stroke="#63b8ff" points="2526.31,-102.17 2534.95,-96.05 2524.38,-95.44 2526.31,-102.17"/>
</a>
</g>
</g>
<!-- Node30 -->
<g id="Node000030" class="node">
<title>Node30</title>
<g id="a_Node000030"><a xlink:href="../../dc/d28/constexpr__utils_8inl.html" target="_top" xlink:title="Inline implementations for constexpr utility functions.">
<polygon fill="white" stroke="#666666" points="2773,-96 2643,-96 2643,-77 2773,-77 2773,-96"/>
<text text-anchor="middle" x="2708" y="-84" font-family="Helvetica,sans-Serif" font-size="10.00">core/constexpr_utils.inl</text>
</a>
</g>
</g>
<!-- Node2&#45;&gt;Node30 -->
<g id="edge29_Node000002_Node000030" class="edge">
<title>Node2&#45;&gt;Node30</title>
<g id="a_edge29_Node000002_Node000030"><a xlink:title=" ">
<path fill="none" stroke="#63b8ff" d="M1153.71,-144.42C1156.83,-143.85 1159.97,-143.36 1163,-143 1812.31,-65.02 1986.52,-198.95 2634,-107 2646.54,-105.22 2660,-102.06 2671.95,-98.8"/>
<polygon fill="#63b8ff" stroke="#63b8ff" points="2672.93,-102.16 2681.59,-96.06 2671.02,-95.43 2672.93,-102.16"/>
</a>
</g>
</g>
<!-- Node31 -->
<g id="Node000031" class="node">
<title>Node31</title>
<g id="a_Node000031"><a xlink:href="../../d7/d40/fixed__string_8inl.html" target="_top" xlink:title="Inline implementations for FixedString template class.">
<polygon fill="white" stroke="#666666" points="2903,-96 2791,-96 2791,-77 2903,-77 2903,-96"/>
<text text-anchor="middle" x="2847" y="-84" font-family="Helvetica,sans-Serif" font-size="10.00">core/fixed_string.inl</text>
</a>
</g>
</g>
<!-- Node2&#45;&gt;Node31 -->
<g id="edge30_Node000002_Node000031" class="edge">
<title>Node2&#45;&gt;Node31</title>
<g id="a_edge30_Node000002_Node000031"><a xlink:title=" ">
<path fill="none" stroke="#63b8ff" d="M1153.71,-144.41C1156.83,-143.85 1159.97,-143.36 1163,-143 1520.35,-100.49 2426.55,-163.21 2782,-107 2792.65,-105.32 2803.99,-102.34 2814.17,-99.22"/>
<polygon fill="#63b8ff" stroke="#63b8ff" points="2815.44,-102.49 2823.89,-96.09 2813.29,-95.82 2815.44,-102.49"/>
</a>
</g>
</g>
<!-- Node32 -->
<g id="Node000032" class="node">
<title>Node32</title>
<g id="a_Node000032"><a xlink:href="../../da/dc9/fixed__vector_8inl.html" target="_top" xlink:title="TODO.">
<polygon fill="white" stroke="#666666" points="3035,-96 2921,-96 2921,-77 3035,-77 3035,-96"/>
<text text-anchor="middle" x="2978" y="-84" font-family="Helvetica,sans-Serif" font-size="10.00">core/fixed_vector.inl</text>
</a>
</g>
</g>
<!-- Node2&#45;&gt;Node32 -->
<g id="edge31_Node000002_Node000032" class="edge">
<title>Node2&#45;&gt;Node32</title>
<g id="a_edge31_Node000002_Node000032"><a xlink:title=" ">
<path fill="none" stroke="#63b8ff" d="M1153.71,-144.4C1156.83,-143.84 1159.97,-143.36 1163,-143 1549.06,-97.39 2527.85,-166.6 2912,-107 2922.92,-105.31 2934.56,-102.29 2944.97,-99.13"/>
<polygon fill="#63b8ff" stroke="#63b8ff" points="2946.05,-102.46 2954.52,-96.1 2943.93,-95.79 2946.05,-102.46"/>
</a>
</g>
</g>
<!-- Node33 -->
<g id="Node000033" class="node">
<title>Node33</title>
<g id="a_Node000033"><a xlink:href="../../df/d7d/utils_8inl.html" target="_top" xlink:title="Inline implementations of core utility functions for string manipulation and encoding conversion.">
<polygon fill="white" stroke="#666666" points="3130.5,-96 3053.5,-96 3053.5,-77 3130.5,-77 3130.5,-96"/>
<text text-anchor="middle" x="3092" y="-84" font-family="Helvetica,sans-Serif" font-size="10.00">core/utils.inl</text>
</a>
</g>
</g>
<!-- Node2&#45;&gt;Node33 -->
<g id="edge32_Node000002_Node000033" class="edge">
<title>Node2&#45;&gt;Node33</title>
<g id="a_edge32_Node000002_Node000033"><a xlink:title=" ">
<path fill="none" stroke="#63b8ff" d="M1153.71,-144.4C1156.83,-143.84 1159.97,-143.36 1163,-143 1578.22,-94.25 2634.47,-191.09 3044,-107 3051.22,-105.52 3058.74,-102.98 3065.62,-100.23"/>
<polygon fill="#63b8ff" stroke="#63b8ff" points="3067.35,-103.29 3075.15,-96.12 3064.58,-96.87 3067.35,-103.29"/>
</a>
</g>
</g>
<!-- Node20 -->
<g id="Node000020" class="node">
<title>Node20</title>
<g id="a_Node000020"><a xlink:href="../../d1/d5f/assertion__macro__gcc__clang_8hpp.html" target="_top" xlink:title="Debug and Release assertion macro implementations for GCC/Clang platforms.">
<polygon fill="white" stroke="#666666" points="1382.5,-30 1255.5,-30 1255.5,0 1382.5,0 1382.5,-30"/>
<text text-anchor="start" x="1263.5" y="-18" font-family="Helvetica,sans-Serif" font-size="10.00">../common/assertion</text>
<text text-anchor="middle" x="1319" y="-7" font-family="Helvetica,sans-Serif" font-size="10.00">_macro_gcc_clang.hpp</text>
</a>
</g>
</g>
<!-- Node19&#45;&gt;Node20 -->
<g id="edge19_Node000019_Node000020" class="edge">
<title>Node19&#45;&gt;Node20</title>
<g id="a_edge19_Node000019_Node000020"><a xlink:title=" ">
<path fill="none" stroke="#63b8ff" d="M1319,-65.77C1319,-57.85 1319,-48.63 1319,-40.3"/>
<polygon fill="#63b8ff" stroke="#63b8ff" points="1322.5,-40.04 1319,-30.04 1315.5,-40.04 1322.5,-40.04"/>
</a>
</g>
</g>
</g>
</svg>

<g id="navigator" transform="translate(0 0)" fill="#404254">
  <rect fill="#f2f5e9" fill-opacity="0.5" stroke="#606060" stroke-width=".5" x="0" y="0" width="60" height="60"/>
  <use id="zoomplus" xlink:href="#zoomPlus" x="17" y="9" onmousedown="handleZoom(evt,'in')"/>
  <use id="zoomminus" xlink:href="#zoomMin" x="42" y="9" onmousedown="handleZoom(evt,'out')"/>
  <use id="reset" xlink:href="#resetDef" x="30" y="36" onmousedown="handleReset()"/>
   <use id="arrowup" xlink:href="#arrowUp" x="0" y="0" onmousedown="handlePan(0,-1)"/>
  <use id="arrowright" xlink:href="#arrowRight" x="0" y="0" onmousedown="handlePan(1,0)"/>
  <use id="arrowdown" xlink:href="#arrowDown" x="0" y="0" onmousedown="handlePan(0,1)"/>
  <use id="arrowleft" xlink:href="#arrowLeft" x="0" y="0" onmousedown="handlePan(-1,0)"/>
</g>
<svg viewBox="0 0 15 15" width="100%" height="30px" preserveAspectRatio="xMaxYMin meet">
 <g id="arrow_out" transform="scale(0.3 0.3)">
  <a xlink:href="math_8hpp__incl_org.svg" target="_base">
   <rect id="button" ry="5" rx="5" y="6" x="6" height="38" width="38"
        fill="#f2f5e9" fill-opacity="0.5" stroke="#606060" stroke-width="1.0"/>
   <path id="arrow"
     d="M 11.500037,31.436501 C 11.940474,20.09759 22.043105,11.32322 32.158766,21.979434 L 37.068811,17.246167 C 37.068811,17.246167 37.088388,32 37.088388,32 L 22.160133,31.978069 C 22.160133,31.978069 26.997745,27.140456 26.997745,27.140456 C 18.528582,18.264221 13.291696,25.230495 11.500037,31.436501 z"
     style="fill:#404040;"/>
  </a>
 </g>
</svg>

<style type='text/css'>
<![CDATA[
[data-mouse-over-selected='false'] { opacity: 0.7; }
[data-mouse-over-selected='true']  { opacity: 1.0; }
]]>
</style>
<script type="application/ecmascript"><![CDATA[
document.addEventListener('DOMContentLoaded', (event) => {
  highlightEdges();
  highlightAdjacentNodes();
});
]]></script>
</svg>
