<?xml version="1.0" encoding="UTF-8" standalone="no"?>
<!DOCTYPE svg PUBLIC "-//W3C//DTD SVG 1.1//EN"
 "http://www.w3.org/Graphics/SVG/1.1/DTD/svg11.dtd">
<!-- Generated by graphviz version 2.43.0 (0)
 -->
<!-- Title: include/math.hpp Pages: 1 -->
<!--zoomable 225 -->

<svg id="main" version="1.1" xmlns="http://www.w3.org/2000/svg" xmlns:xlink="http://www.w3.org/1999/xlink" xml:space="preserve" onload="init(evt)">

<style type="text/css"><![CDATA[
.node, .edge {opacity: 0.7;}
.node.selected, .edge.selected {opacity: 1;}
.edge:hover path { stroke: red; }
.edge:hover polygon { stroke: red; fill: red; }
]]></style>

<defs>
  <circle id="rim" cx="0" cy="0" r="7"/>
  <circle id="rim2" cx="0" cy="0" r="3.5"/>
  <g id="zoomPlus">
    <use xlink:href="#rim" fill="#404040"><set attributeName="fill" to="#808080" begin="zoomplus.mouseover" end="zoomplus.mouseout"/></use>
    <path d="M-4,0h8M0,-4v8" fill="none" stroke="white" stroke-width="1.5" pointer-events="none"/>
  </g>
  <g id="zoomMin">
    <use xlink:href="#rim" fill="#404040"><set attributeName="fill" to="#808080" begin="zoomminus.mouseover" end="zoomminus.mouseout"/></use>
    <path d="M-4,0h8" fill="none" stroke="white" stroke-width="1.5" pointer-events="none"/>
  </g>
  <g id="arrowUp" transform="translate(30 24)">
    <use xlink:href="#rim"/>
    <path pointer-events="none" fill="none" stroke="white" stroke-width="1.5" d="M0,-3.0v7 M-2.5,-0.5L0,-3.0L2.5,-0.5"/>
  </g>
  <g id="arrowRight" transform="rotate(90) translate(36 -43)">
    <use xlink:href="#rim"/>
    <path pointer-events="none" fill="none" stroke="white" stroke-width="1.5" d="M0,-3.0v7 M-2.5,-0.5L0,-3.0L2.5,-0.5"/>
  </g>
  <g id="arrowDown" transform="rotate(180) translate(-30 -48)">
    <use xlink:href="#rim"/>
    <path pointer-events="none" fill="none" stroke="white" stroke-width="1.5" d="M0,-3.0v7 M-2.5,-0.5L0,-3.0L2.5,-0.5"/>
  </g>
  <g id="arrowLeft" transform="rotate(270) translate(-36 17)">
    <use xlink:href="#rim"/>
    <path pointer-events="none" fill="none" stroke="white" stroke-width="1.5" d="M0,-3.0v7 M-2.5,-0.5L0,-3.0L2.5,-0.5"/>
  </g>
  <g id="resetDef">
    <use xlink:href="#rim2" fill="#404040"><set attributeName="fill" to="#808080" begin="reset.mouseover" end="reset.mouseout"/></use>
  </g>
</defs>
<script type="application/ecmascript">
var viewWidth = 3264;
var viewHeight = 225;
var sectionId = 'dynsection-0';
</script>
<script type="application/ecmascript" xlink:href="../../svg.min.js"/>
<svg id="graph" class="graph">
<g id="viewport">
<title>include/math.hpp</title>
<!-- Node1 -->
<g id="Node000001" class="node">
<title>Node1</title>
<g id="a_Node000001"><a xlink:title="Umbrella header for the engine mathematics module.">
<polygon fill="#999999" stroke="#666666" points="1432.5,-217 1331.5,-217 1331.5,-198 1432.5,-198 1432.5,-217"/>
<text text-anchor="middle" x="1382" y="-205" font-family="Helvetica,sans-Serif" font-size="10.00">include/math.hpp</text>
</a>
</g>
</g>
<!-- Node2 -->
<g id="Node000002" class="node">
<title>Node2</title>
<g id="a_Node000002"><a xlink:href="../../da/d47/core_8hpp.html" target="_top" xlink:title="Umbrella header for the engine core module.">
<polygon fill="white" stroke="#666666" points="1200.5,-162 1141.5,-162 1141.5,-143 1200.5,-143 1200.5,-162"/>
<text text-anchor="middle" x="1171" y="-150" font-family="Helvetica,sans-Serif" font-size="10.00">core.hpp</text>
</a>
</g>
</g>
<!-- Node1&#45;&gt;Node2 -->
<g id="edge1_Node000001_Node000002" class="edge">
<title>Node1&#45;&gt;Node2</title>
<g id="a_edge1_Node000001_Node000002"><a xlink:title=" ">
<path fill="none" stroke="#63b8ff" d="M1348.1,-197.98C1310.59,-188.56 1250.22,-173.4 1210.58,-163.44"/>
<polygon fill="#63b8ff" stroke="#63b8ff" points="1211.28,-160.01 1200.72,-160.97 1209.57,-166.8 1211.28,-160.01"/>
</a>
</g>
</g>
<!-- Node35 -->
<g id="Node000035" class="node">
<title>Node35</title>
<g id="a_Node000035"><a xlink:href="../../d0/de4/point_8hpp.html" target="_top" xlink:title="2D integer point class for UI and input handling.">
<polygon fill="white" stroke="#666666" points="1309.5,-162 1218.5,-162 1218.5,-143 1309.5,-143 1309.5,-162"/>
<text text-anchor="middle" x="1264" y="-150" font-family="Helvetica,sans-Serif" font-size="10.00">math/point.hpp</text>
</a>
</g>
</g>
<!-- Node1&#45;&gt;Node35 -->
<g id="edge34_Node000001_Node000035" class="edge">
<title>Node1&#45;&gt;Node35</title>
<g id="a_edge34_Node000001_Node000035"><a xlink:title=" ">
<path fill="none" stroke="#63b8ff" d="M1363.04,-197.98C1343.97,-189.42 1314.34,-176.11 1292.45,-166.28"/>
<polygon fill="#63b8ff" stroke="#63b8ff" points="1293.86,-163.07 1283.3,-162.17 1290.99,-169.46 1293.86,-163.07"/>
</a>
</g>
</g>
<!-- Node36 -->
<g id="Node000036" class="node">
<title>Node36</title>
<g id="a_Node000036"><a xlink:href="../../d6/de1/vector2d_8hpp.html" target="_top" xlink:title="2D floating&#45;point vector class for interactive game objects and physics calculations.">
<polygon fill="white" stroke="#666666" points="1436.5,-162 1327.5,-162 1327.5,-143 1436.5,-143 1436.5,-162"/>
<text text-anchor="middle" x="1382" y="-150" font-family="Helvetica,sans-Serif" font-size="10.00">math/vector2d.hpp</text>
</a>
</g>
</g>
<!-- Node1&#45;&gt;Node36 -->
<g id="edge35_Node000001_Node000036" class="edge">
<title>Node1&#45;&gt;Node36</title>
<g id="a_edge35_Node000001_Node000036"><a xlink:title=" ">
<path fill="none" stroke="#63b8ff" d="M1382,-197.75C1382,-190.8 1382,-180.85 1382,-172.13"/>
<polygon fill="#63b8ff" stroke="#63b8ff" points="1385.5,-172.09 1382,-162.09 1378.5,-172.09 1385.5,-172.09"/>
</a>
</g>
</g>
<!-- Node37 -->
<g id="Node000037" class="node">
<title>Node37</title>
<g id="a_Node000037"><a xlink:href="../../d4/dee/point_8inl.html" target="_top" xlink:title="Inline implementations for 2D integer point class.">
<polygon fill="white" stroke="#666666" points="1539.5,-162 1454.5,-162 1454.5,-143 1539.5,-143 1539.5,-162"/>
<text text-anchor="middle" x="1497" y="-150" font-family="Helvetica,sans-Serif" font-size="10.00">math/point.inl</text>
</a>
</g>
</g>
<!-- Node1&#45;&gt;Node37 -->
<g id="edge36_Node000001_Node000037" class="edge">
<title>Node1&#45;&gt;Node37</title>
<g id="a_edge36_Node000001_Node000037"><a xlink:title=" ">
<path fill="none" stroke="#63b8ff" d="M1400.48,-197.98C1418.98,-189.46 1447.68,-176.23 1468.98,-166.41"/>
<polygon fill="#63b8ff" stroke="#63b8ff" points="1470.57,-169.53 1478.19,-162.17 1467.64,-163.18 1470.57,-169.53"/>
</a>
</g>
</g>
<!-- Node38 -->
<g id="Node000038" class="node">
<title>Node38</title>
<g id="a_Node000038"><a xlink:href="../../dd/d53/vector2d_8inl.html" target="_top" xlink:title="Inline implementations for 2D floating&#45;point vector class.">
<polygon fill="white" stroke="#666666" points="1660.5,-162 1557.5,-162 1557.5,-143 1660.5,-143 1660.5,-162"/>
<text text-anchor="middle" x="1609" y="-150" font-family="Helvetica,sans-Serif" font-size="10.00">math/vector2d.inl</text>
</a>
</g>
</g>
<!-- Node1&#45;&gt;Node38 -->
<g id="edge37_Node000001_Node000038" class="edge">
<title>Node1&#45;&gt;Node38</title>
<g id="a_edge37_Node000001_Node000038"><a xlink:title=" ">
<path fill="none" stroke="#63b8ff" d="M1418.47,-197.98C1457.57,-188.86 1519.77,-174.33 1562.39,-164.38"/>
<polygon fill="#63b8ff" stroke="#63b8ff" points="1563.3,-167.76 1572.24,-162.08 1561.71,-160.95 1563.3,-167.76"/>
</a>
</g>
</g>
<!-- Node3 -->
<g id="Node000003" class="node">
<title>Node3</title>
<g id="a_Node000003"><a xlink:title=" ">
<polygon fill="#e0e0e0" stroke="#999999" points="64,-96 0,-96 0,-77 64,-77 64,-96"/>
<text text-anchor="middle" x="32" y="-84" font-family="Helvetica,sans-Serif" font-size="10.00">algorithm</text>
</a>
</g>
</g>
<!-- Node2&#45;&gt;Node3 -->
<g id="edge2_Node000002_Node000003" class="edge">
<title>Node2&#45;&gt;Node3</title>
<g id="a_edge2_Node000002_Node000003"><a xlink:title=" ">
<path fill="none" stroke="#63b8ff" d="M1141.29,-151.01C976.58,-148.18 179.21,-133.24 73,-107 67.02,-105.52 60.87,-103.13 55.21,-100.52"/>
<polygon fill="#63b8ff" stroke="#63b8ff" points="56.78,-97.39 46.27,-96.04 53.64,-103.65 56.78,-97.39"/>
</a>
</g>
</g>
<!-- Node4 -->
<g id="Node000004" class="node">
<title>Node4</title>
<g id="a_Node000004"><a xlink:title=" ">
<polygon fill="#e0e0e0" stroke="#999999" points="124,-96 82,-96 82,-77 124,-77 124,-96"/>
<text text-anchor="middle" x="103" y="-84" font-family="Helvetica,sans-Serif" font-size="10.00">array</text>
</a>
</g>
</g>
<!-- Node2&#45;&gt;Node4 -->
<g id="edge3_Node000002_Node000004" class="edge">
<title>Node2&#45;&gt;Node4</title>
<g id="a_edge3_Node000002_Node000004"><a xlink:title=" ">
<path fill="none" stroke="#63b8ff" d="M1141.34,-151.13C982.11,-149.05 232.33,-137.65 134,-107 129.95,-105.74 125.91,-103.81 122.14,-101.65"/>
<polygon fill="#63b8ff" stroke="#63b8ff" points="123.79,-98.55 113.5,-96.04 119.98,-104.42 123.79,-98.55"/>
</a>
</g>
</g>
<!-- Node5 -->
<g id="Node000005" class="node">
<title>Node5</title>
<g id="a_Node000005"><a xlink:title=" ">
<polygon fill="#e0e0e0" stroke="#999999" points="201.5,-96 142.5,-96 142.5,-77 201.5,-77 201.5,-96"/>
<text text-anchor="middle" x="172" y="-84" font-family="Helvetica,sans-Serif" font-size="10.00">compare</text>
</a>
</g>
</g>
<!-- Node2&#45;&gt;Node5 -->
<g id="edge4_Node000002_Node000005" class="edge">
<title>Node2&#45;&gt;Node5</title>
<g id="a_edge4_Node000002_Node000005"><a xlink:title=" ">
<path fill="none" stroke="#63b8ff" d="M1141.12,-151.78C999.25,-152.83 393.04,-154.45 211,-107 205.41,-105.54 199.7,-103.23 194.42,-100.69"/>
<polygon fill="#63b8ff" stroke="#63b8ff" points="196.01,-97.57 185.52,-96.02 192.75,-103.77 196.01,-97.57"/>
</a>
</g>
</g>
<!-- Node6 -->
<g id="Node000006" class="node">
<title>Node6</title>
<g id="a_Node000006"><a xlink:title=" ">
<polygon fill="#e0e0e0" stroke="#999999" points="280,-96 220,-96 220,-77 280,-77 280,-96"/>
<text text-anchor="middle" x="250" y="-84" font-family="Helvetica,sans-Serif" font-size="10.00">concepts</text>
</a>
</g>
</g>
<!-- Node2&#45;&gt;Node6 -->
<g id="edge5_Node000002_Node000006" class="edge">
<title>Node2&#45;&gt;Node6</title>
<g id="a_edge5_Node000002_Node000006"><a xlink:title=" ">
<path fill="none" stroke="#63b8ff" d="M1141.38,-151.59C1007.27,-151.77 456.29,-149.82 290,-107 284.3,-105.53 278.44,-103.21 273.03,-100.67"/>
<polygon fill="#63b8ff" stroke="#63b8ff" points="274.4,-97.44 263.9,-96 271.21,-103.67 274.4,-97.44"/>
</a>
</g>
</g>
<!-- Node7 -->
<g id="Node000007" class="node">
<title>Node7</title>
<g id="a_Node000007"><a xlink:title=" ">
<polygon fill="#e0e0e0" stroke="#999999" points="351.5,-96 298.5,-96 298.5,-77 351.5,-77 351.5,-96"/>
<text text-anchor="middle" x="325" y="-84" font-family="Helvetica,sans-Serif" font-size="10.00">cstddef</text>
</a>
</g>
</g>
<!-- Node2&#45;&gt;Node7 -->
<g id="edge6_Node000002_Node000007" class="edge">
<title>Node2&#45;&gt;Node7</title>
<g id="a_edge6_Node000002_Node000007"><a xlink:title=" ">
<path fill="none" stroke="#63b8ff" d="M1141.2,-151.6C1013.46,-151.78 511.94,-149.69 361,-107 356.13,-105.62 351.18,-103.5 346.57,-101.16"/>
<polygon fill="#63b8ff" stroke="#63b8ff" points="348.17,-98.04 337.74,-96.2 344.74,-104.14 348.17,-98.04"/>
</a>
</g>
</g>
<!-- Node8 -->
<g id="Node000008" class="node">
<title>Node8</title>
<g id="a_Node000008"><a xlink:title=" ">
<polygon fill="#e0e0e0" stroke="#999999" points="420,-96 370,-96 370,-77 420,-77 420,-96"/>
<text text-anchor="middle" x="395" y="-84" font-family="Helvetica,sans-Serif" font-size="10.00">cstdint</text>
</a>
</g>
</g>
<!-- Node2&#45;&gt;Node8 -->
<g id="edge7_Node000002_Node000008" class="edge">
<title>Node2&#45;&gt;Node8</title>
<g id="a_edge7_Node000002_Node000008"><a xlink:title=" ">
<path fill="none" stroke="#63b8ff" d="M1141.26,-151.52C1020.37,-151.33 565.79,-147.87 429,-107 424.48,-105.65 419.91,-103.6 415.65,-101.33"/>
<polygon fill="#63b8ff" stroke="#63b8ff" points="417.36,-98.27 406.97,-96.18 413.79,-104.29 417.36,-98.27"/>
</a>
</g>
</g>
<!-- Node9 -->
<g id="Node000009" class="node">
<title>Node9</title>
<g id="a_Node000009"><a xlink:title=" ">
<polygon fill="#e0e0e0" stroke="#999999" points="488,-96 438,-96 438,-77 488,-77 488,-96"/>
<text text-anchor="middle" x="463" y="-84" font-family="Helvetica,sans-Serif" font-size="10.00">cstring</text>
</a>
</g>
</g>
<!-- Node2&#45;&gt;Node9 -->
<g id="edge8_Node000002_Node000009" class="edge">
<title>Node2&#45;&gt;Node9</title>
<g id="a_edge8_Node000002_Node000009"><a xlink:title=" ">
<path fill="none" stroke="#63b8ff" d="M1141.37,-151.26C1027.92,-150.09 621.25,-143.4 498,-107 493.37,-105.63 488.68,-103.58 484.3,-101.3"/>
<polygon fill="#63b8ff" stroke="#63b8ff" points="485.77,-98.11 475.36,-96.16 482.29,-104.18 485.77,-98.11"/>
</a>
</g>
</g>
<!-- Node10 -->
<g id="Node000010" class="node">
<title>Node10</title>
<g id="a_Node000010"><a xlink:title=" ">
<polygon fill="#e0e0e0" stroke="#999999" points="555.5,-96 506.5,-96 506.5,-77 555.5,-77 555.5,-96"/>
<text text-anchor="middle" x="531" y="-84" font-family="Helvetica,sans-Serif" font-size="10.00">cuchar</text>
</a>
</g>
</g>
<!-- Node2&#45;&gt;Node10 -->
<g id="edge9_Node000002_Node000010" class="edge">
<title>Node2&#45;&gt;Node10</title>
<g id="a_edge9_Node000002_Node000010"><a xlink:title=" ">
<path fill="none" stroke="#63b8ff" d="M1141.45,-151.06C1035.43,-149.22 674.7,-140.58 565,-107 560.49,-105.62 555.92,-103.55 551.67,-101.28"/>
<polygon fill="#63b8ff" stroke="#63b8ff" points="553.37,-98.22 542.98,-96.14 549.81,-104.24 553.37,-98.22"/>
</a>
</g>
</g>
<!-- Node11 -->
<g id="Node000011" class="node">
<title>Node11</title>
<g id="a_Node000011"><a xlink:title=" ">
<polygon fill="#e0e0e0" stroke="#999999" points="656.5,-96 573.5,-96 573.5,-77 656.5,-77 656.5,-96"/>
<text text-anchor="middle" x="615" y="-84" font-family="Helvetica,sans-Serif" font-size="10.00">initializer_list</text>
</a>
</g>
</g>
<!-- Node2&#45;&gt;Node11 -->
<g id="edge10_Node000002_Node000011" class="edge">
<title>Node2&#45;&gt;Node11</title>
<g id="a_edge10_Node000002_Node000011"><a xlink:title=" ">
<path fill="none" stroke="#63b8ff" d="M1141.24,-151.73C1062.54,-151.73 842.89,-147.77 666,-107 658.51,-105.27 650.64,-102.68 643.39,-99.95"/>
<polygon fill="#63b8ff" stroke="#63b8ff" points="644.57,-96.65 633.98,-96.2 641.98,-103.15 644.57,-96.65"/>
</a>
</g>
</g>
<!-- Node12 -->
<g id="Node000012" class="node">
<title>Node12</title>
<g id="a_Node000012"><a xlink:title=" ">
<polygon fill="#e0e0e0" stroke="#999999" points="727.5,-96 674.5,-96 674.5,-77 727.5,-77 727.5,-96"/>
<text text-anchor="middle" x="701" y="-84" font-family="Helvetica,sans-Serif" font-size="10.00">iterator</text>
</a>
</g>
</g>
<!-- Node2&#45;&gt;Node12 -->
<g id="edge11_Node000002_Node000012" class="edge">
<title>Node2&#45;&gt;Node12</title>
<g id="a_edge11_Node000002_Node000012"><a xlink:title=" ">
<path fill="none" stroke="#63b8ff" d="M1141.36,-149.98C1056.35,-145.37 812.99,-130.45 737,-107 732.16,-105.51 727.23,-103.33 722.63,-100.98"/>
<polygon fill="#63b8ff" stroke="#63b8ff" points="724.22,-97.86 713.78,-96.03 720.81,-103.97 724.22,-97.86"/>
</a>
</g>
</g>
<!-- Node13 -->
<g id="Node000013" class="node">
<title>Node13</title>
<g id="a_Node000013"><a xlink:title=" ">
<polygon fill="#e0e0e0" stroke="#999999" points="804,-96 746,-96 746,-77 804,-77 804,-96"/>
<text text-anchor="middle" x="775" y="-84" font-family="Helvetica,sans-Serif" font-size="10.00">memory</text>
</a>
</g>
</g>
<!-- Node2&#45;&gt;Node13 -->
<g id="edge12_Node000002_Node000013" class="edge">
<title>Node2&#45;&gt;Node13</title>
<g id="a_edge12_Node000002_Node000013"><a xlink:title=" ">
<path fill="none" stroke="#63b8ff" d="M1141.15,-151.17C1078.94,-149.74 931.47,-142.55 814,-107 808.79,-105.42 803.43,-103.19 798.41,-100.8"/>
<polygon fill="#63b8ff" stroke="#63b8ff" points="799.82,-97.59 789.33,-96.13 796.62,-103.82 799.82,-97.59"/>
</a>
</g>
</g>
<!-- Node14 -->
<g id="Node000014" class="node">
<title>Node14</title>
<g id="a_Node000014"><a xlink:title=" ">
<polygon fill="#e0e0e0" stroke="#999999" points="887.5,-96 822.5,-96 822.5,-77 887.5,-77 887.5,-96"/>
<text text-anchor="middle" x="855" y="-84" font-family="Helvetica,sans-Serif" font-size="10.00">stdexcept</text>
</a>
</g>
</g>
<!-- Node2&#45;&gt;Node14 -->
<g id="edge13_Node000002_Node000014" class="edge">
<title>Node2&#45;&gt;Node14</title>
<g id="a_edge13_Node000002_Node000014"><a xlink:title=" ">
<path fill="none" stroke="#63b8ff" d="M1141.2,-149.34C1090.21,-145.06 983.38,-133.52 897,-107 891.43,-105.29 885.64,-102.98 880.21,-100.56"/>
<polygon fill="#63b8ff" stroke="#63b8ff" points="881.48,-97.28 870.95,-96.16 878.48,-103.61 881.48,-97.28"/>
</a>
</g>
</g>
<!-- Node15 -->
<g id="Node000015" class="node">
<title>Node15</title>
<g id="a_Node000015"><a xlink:title=" ">
<polygon fill="#e0e0e0" stroke="#999999" points="950,-96 906,-96 906,-77 950,-77 950,-96"/>
<text text-anchor="middle" x="928" y="-84" font-family="Helvetica,sans-Serif" font-size="10.00">string</text>
</a>
</g>
</g>
<!-- Node2&#45;&gt;Node15 -->
<g id="edge14_Node000002_Node000015" class="edge">
<title>Node2&#45;&gt;Node15</title>
<g id="a_edge14_Node000002_Node000015"><a xlink:title=" ">
<path fill="none" stroke="#63b8ff" d="M1141.42,-148.47C1099.76,-143.48 1021.95,-131.57 960,-107 956.16,-105.48 952.26,-103.51 948.57,-101.42"/>
<polygon fill="#63b8ff" stroke="#63b8ff" points="950.3,-98.38 939.95,-96.12 946.64,-104.34 950.3,-98.38"/>
</a>
</g>
</g>
<!-- Node16 -->
<g id="Node000016" class="node">
<title>Node16</title>
<g id="a_Node000016"><a xlink:title=" ">
<polygon fill="#e0e0e0" stroke="#999999" points="1037.5,-96 968.5,-96 968.5,-77 1037.5,-77 1037.5,-96"/>
<text text-anchor="middle" x="1003" y="-84" font-family="Helvetica,sans-Serif" font-size="10.00">type_traits</text>
</a>
</g>
</g>
<!-- Node2&#45;&gt;Node16 -->
<g id="edge15_Node000002_Node000016" class="edge">
<title>Node2&#45;&gt;Node16</title>
<g id="a_edge15_Node000002_Node000016"><a xlink:title=" ">
<path fill="none" stroke="#63b8ff" d="M1145.62,-143C1120.42,-134.41 1080.76,-120.52 1047,-107 1041.76,-104.9 1036.23,-102.56 1030.92,-100.24"/>
<polygon fill="#63b8ff" stroke="#63b8ff" points="1032.27,-97.01 1021.71,-96.15 1029.44,-103.41 1032.27,-97.01"/>
</a>
</g>
</g>
<!-- Node17 -->
<g id="Node000017" class="node">
<title>Node17</title>
<g id="a_Node000017"><a xlink:title=" ">
<polygon fill="#e0e0e0" stroke="#999999" points="1100.5,-96 1055.5,-96 1055.5,-77 1100.5,-77 1100.5,-96"/>
<text text-anchor="middle" x="1078" y="-84" font-family="Helvetica,sans-Serif" font-size="10.00">utility</text>
</a>
</g>
</g>
<!-- Node2&#45;&gt;Node17 -->
<g id="edge16_Node000002_Node000017" class="edge">
<title>Node2&#45;&gt;Node17</title>
<g id="a_edge16_Node000002_Node000017"><a xlink:title=" ">
<path fill="none" stroke="#63b8ff" d="M1158.46,-142.87C1143.2,-132.37 1117.23,-114.5 1098.93,-101.9"/>
<polygon fill="#63b8ff" stroke="#63b8ff" points="1100.86,-98.98 1090.64,-96.2 1096.89,-104.75 1100.86,-98.98"/>
</a>
</g>
</g>
<!-- Node18 -->
<g id="Node000018" class="node">
<title>Node18</title>
<g id="a_Node000018"><a xlink:href="../../d3/d60/platform_8hpp.html" target="_top" xlink:title="Platform and CPU architecture enumerations with compile&#45;time and runtime detection utilities.">
<polygon fill="white" stroke="#666666" points="1223,-96 1119,-96 1119,-77 1223,-77 1223,-96"/>
<text text-anchor="middle" x="1171" y="-84" font-family="Helvetica,sans-Serif" font-size="10.00">core/platform.hpp</text>
</a>
</g>
</g>
<!-- Node2&#45;&gt;Node18 -->
<g id="edge17_Node000002_Node000018" class="edge">
<title>Node2&#45;&gt;Node18</title>
<g id="a_edge17_Node000002_Node000018"><a xlink:title=" ">
<path fill="none" stroke="#63b8ff" d="M1171,-142.87C1171,-133.66 1171,-118.79 1171,-106.77"/>
<polygon fill="#63b8ff" stroke="#63b8ff" points="1174.5,-106.41 1171,-96.41 1167.5,-106.41 1174.5,-106.41"/>
</a>
</g>
</g>
<!-- Node19 -->
<g id="Node000019" class="node">
<title>Node19</title>
<g id="a_Node000019"><a xlink:href="../../dd/d9e/linux_2platform__config_8hpp.html" target="_top" xlink:title="additional linux platform header">
<polygon fill="white" stroke="#666666" points="1396.5,-107 1241.5,-107 1241.5,-66 1396.5,-66 1396.5,-107"/>
<text text-anchor="start" x="1249.5" y="-95" font-family="Helvetica,sans-Serif" font-size="10.00">/home/runner/work/toygine2</text>
<text text-anchor="start" x="1249.5" y="-84" font-family="Helvetica,sans-Serif" font-size="10.00">/toygine2/src/platforms</text>
<text text-anchor="middle" x="1319" y="-73" font-family="Helvetica,sans-Serif" font-size="10.00">/linux/platform_config.hpp</text>
</a>
</g>
</g>
<!-- Node2&#45;&gt;Node19 -->
<g id="edge18_Node000002_Node000019" class="edge">
<title>Node2&#45;&gt;Node19</title>
<g id="a_edge18_Node000002_Node000019"><a xlink:title=" ">
<path fill="none" stroke="#63b8ff" d="M1190.96,-142.87C1209.79,-134.72 1238.89,-122.14 1264.6,-111.03"/>
<polygon fill="#63b8ff" stroke="#63b8ff" points="1266.1,-114.19 1273.89,-107.01 1263.32,-107.77 1266.1,-114.19"/>
</a>
</g>
</g>
<!-- Node21 -->
<g id="Node000021" class="node">
<title>Node21</title>
<g id="a_Node000021"><a xlink:href="../../d5/d96/assertion_8hpp.html" target="_top" xlink:title="Assertion system for runtime and compile&#45;time validation of engine invariants.">
<polygon fill="white" stroke="#666666" points="1521.5,-96 1414.5,-96 1414.5,-77 1521.5,-77 1521.5,-96"/>
<text text-anchor="middle" x="1468" y="-84" font-family="Helvetica,sans-Serif" font-size="10.00">core/assertion.hpp</text>
</a>
</g>
</g>
<!-- Node2&#45;&gt;Node21 -->
<g id="edge20_Node000002_Node000021" class="edge">
<title>Node2&#45;&gt;Node21</title>
<g id="a_edge20_Node000002_Node000021"><a xlink:title=" ">
<path fill="none" stroke="#63b8ff" d="M1200.79,-144.9C1203.9,-144.25 1207.01,-143.6 1210,-143 1296.84,-125.57 1320.04,-128.33 1406,-107 1414.99,-104.77 1424.59,-101.96 1433.49,-99.18"/>
<polygon fill="#63b8ff" stroke="#63b8ff" points="1434.71,-102.47 1443.16,-96.08 1432.57,-95.8 1434.71,-102.47"/>
</a>
</g>
</g>
<!-- Node22 -->
<g id="Node000022" class="node">
<title>Node22</title>
<g id="a_Node000022"><a xlink:href="../../dd/ded/c__string__view_8hpp.html" target="_top" xlink:title="Non&#45;owning string view class for C&#45;style strings.">
<polygon fill="white" stroke="#666666" points="1668,-96 1540,-96 1540,-77 1668,-77 1668,-96"/>
<text text-anchor="middle" x="1604" y="-84" font-family="Helvetica,sans-Serif" font-size="10.00">core/c_string_view.hpp</text>
</a>
</g>
</g>
<!-- Node2&#45;&gt;Node22 -->
<g id="edge21_Node000002_Node000022" class="edge">
<title>Node2&#45;&gt;Node22</title>
<g id="a_edge21_Node000002_Node000022"><a xlink:title=" ">
<path fill="none" stroke="#63b8ff" d="M1200.75,-144.69C1203.86,-144.07 1206.99,-143.5 1210,-143 1351.65,-119.68 1389.92,-133.6 1531,-107 1542.45,-104.84 1554.74,-101.83 1565.91,-98.83"/>
<polygon fill="#63b8ff" stroke="#63b8ff" points="1567.1,-102.13 1575.8,-96.09 1565.23,-95.38 1567.1,-102.13"/>
</a>
</g>
</g>
<!-- Node23 -->
<g id="Node000023" class="node">
<title>Node23</title>
<g id="a_Node000023"><a xlink:href="../../d1/d5c/callbacks__pool_8hpp.html" target="_top" xlink:title="Template callback pool class with fixed&#45;size callback storage.">
<polygon fill="white" stroke="#666666" points="1820,-96 1686,-96 1686,-77 1820,-77 1820,-96"/>
<text text-anchor="middle" x="1753" y="-84" font-family="Helvetica,sans-Serif" font-size="10.00">core/callbacks_pool.hpp</text>
</a>
</g>
</g>
<!-- Node2&#45;&gt;Node23 -->
<g id="edge22_Node000002_Node000023" class="edge">
<title>Node2&#45;&gt;Node23</title>
<g id="a_edge22_Node000002_Node000023"><a xlink:title=" ">
<path fill="none" stroke="#63b8ff" d="M1200.73,-144.58C1203.85,-143.98 1206.98,-143.44 1210,-143 1415.96,-112.76 1471.62,-141 1677,-107 1689.49,-104.93 1702.94,-101.79 1714.99,-98.64"/>
<polygon fill="#63b8ff" stroke="#63b8ff" points="1716,-101.99 1724.74,-96 1714.17,-95.23 1716,-101.99"/>
</a>
</g>
</g>
<!-- Node24 -->
<g id="Node000024" class="node">
<title>Node24</title>
<g id="a_Node000024"><a xlink:href="../../d4/dc0/constexpr__utils_8hpp.html" target="_top" xlink:title="Constexpr utility functions for compile&#45;time operations.">
<polygon fill="white" stroke="#666666" points="1974,-96 1838,-96 1838,-77 1974,-77 1974,-96"/>
<text text-anchor="middle" x="1906" y="-84" font-family="Helvetica,sans-Serif" font-size="10.00">core/constexpr_utils.hpp</text>
</a>
</g>
</g>
<!-- Node2&#45;&gt;Node24 -->
<g id="edge23_Node000002_Node000024" class="edge">
<title>Node2&#45;&gt;Node24</title>
<g id="a_edge23_Node000002_Node000024"><a xlink:title=" ">
<path fill="none" stroke="#63b8ff" d="M1200.72,-144.52C1203.84,-143.94 1206.98,-143.41 1210,-143 1483.02,-105.54 1556.65,-149.02 1829,-107 1841.78,-105.03 1855.52,-101.89 1867.81,-98.69"/>
<polygon fill="#63b8ff" stroke="#63b8ff" points="1868.99,-102 1877.74,-96.03 1867.18,-95.24 1868.99,-102"/>
</a>
</g>
</g>
<!-- Node25 -->
<g id="Node000025" class="node">
<title>Node25</title>
<g id="a_Node000025"><a xlink:href="../../d7/d7f/fixed__string_8hpp.html" target="_top" xlink:title="Template string class with fixed&#45;size character buffer.">
<polygon fill="white" stroke="#666666" points="2110,-96 1992,-96 1992,-77 2110,-77 2110,-96"/>
<text text-anchor="middle" x="2051" y="-84" font-family="Helvetica,sans-Serif" font-size="10.00">core/fixed_string.hpp</text>
</a>
</g>
</g>
<!-- Node2&#45;&gt;Node25 -->
<g id="edge24_Node000002_Node000025" class="edge">
<title>Node2&#45;&gt;Node25</title>
<g id="a_edge24_Node000002_Node000025"><a xlink:title=" ">
<path fill="none" stroke="#63b8ff" d="M1200.72,-144.48C1203.84,-143.91 1206.98,-143.4 1210,-143 1551,-98.22 1643.63,-162.78 1983,-107 1994.11,-105.17 2005.99,-102.15 2016.66,-99.03"/>
<polygon fill="#63b8ff" stroke="#63b8ff" points="2017.91,-102.31 2026.45,-96.04 2015.86,-95.61 2017.91,-102.31"/>
</a>
</g>
</g>
<!-- Node26 -->
<g id="Node000026" class="node">
<title>Node26</title>
<g id="a_Node000026"><a xlink:href="../../d7/dea/fixed__vector_8hpp.html" target="_top" xlink:title="TODO.">
<polygon fill="white" stroke="#666666" points="2248,-96 2128,-96 2128,-77 2248,-77 2248,-96"/>
<text text-anchor="middle" x="2188" y="-84" font-family="Helvetica,sans-Serif" font-size="10.00">core/fixed_vector.hpp</text>
</a>
</g>
</g>
<!-- Node2&#45;&gt;Node26 -->
<g id="edge25_Node000002_Node000026" class="edge">
<title>Node2&#45;&gt;Node26</title>
<g id="a_edge25_Node000002_Node000026"><a xlink:title=" ">
<path fill="none" stroke="#63b8ff" d="M1200.72,-144.46C1203.84,-143.89 1206.98,-143.39 1210,-143 1611.06,-91.75 1719.69,-170.42 2119,-107 2130.39,-105.19 2142.57,-102.14 2153.48,-98.98"/>
<polygon fill="#63b8ff" stroke="#63b8ff" points="2154.52,-102.32 2163.08,-96.08 2152.5,-95.62 2154.52,-102.32"/>
</a>
</g>
</g>
<!-- Node27 -->
<g id="Node000027" class="node">
<title>Node27</title>
<g id="a_Node000027"><a xlink:href="../../dd/d8e/hashes_8hpp.html" target="_top" xlink:title="CRC hash functions.">
<polygon fill="white" stroke="#666666" points="2362,-96 2266,-96 2266,-77 2362,-77 2362,-96"/>
<text text-anchor="middle" x="2314" y="-84" font-family="Helvetica,sans-Serif" font-size="10.00">core/hashes.hpp</text>
</a>
</g>
</g>
<!-- Node2&#45;&gt;Node27 -->
<g id="edge26_Node000002_Node000027" class="edge">
<title>Node2&#45;&gt;Node27</title>
<g id="a_edge26_Node000002_Node000027"><a xlink:title=" ">
<path fill="none" stroke="#63b8ff" d="M1200.72,-144.45C1203.84,-143.88 1206.97,-143.38 1210,-143 1672.01,-85.19 1799.08,-191.27 2257,-107 2266.02,-105.34 2275.55,-102.53 2284.18,-99.55"/>
<polygon fill="#63b8ff" stroke="#63b8ff" points="2285.62,-102.75 2293.81,-96.04 2283.22,-96.18 2285.62,-102.75"/>
</a>
</g>
</g>
<!-- Node28 -->
<g id="Node000028" class="node">
<title>Node28</title>
<g id="a_Node000028"><a xlink:href="../../df/d93/utils_8hpp.html" target="_top" xlink:title="Core utility functions for string manipulation, encoding conversion, and number formatting.">
<polygon fill="white" stroke="#666666" points="2463.5,-96 2380.5,-96 2380.5,-77 2463.5,-77 2463.5,-96"/>
<text text-anchor="middle" x="2422" y="-84" font-family="Helvetica,sans-Serif" font-size="10.00">core/utils.hpp</text>
</a>
</g>
</g>
<!-- Node2&#45;&gt;Node28 -->
<g id="edge27_Node000002_Node000028" class="edge">
<title>Node2&#45;&gt;Node28</title>
<g id="a_edge27_Node000002_Node000028"><a xlink:title=" ">
<path fill="none" stroke="#63b8ff" d="M1200.71,-144.44C1203.84,-143.87 1206.97,-143.37 1210,-143 1466.18,-111.38 2117.92,-157.8 2371,-107 2378.88,-105.42 2387.14,-102.74 2394.66,-99.87"/>
<polygon fill="#63b8ff" stroke="#63b8ff" points="2396.08,-103.07 2404.03,-96.06 2393.45,-96.59 2396.08,-103.07"/>
</a>
</g>
</g>
<!-- Node29 -->
<g id="Node000029" class="node">
<title>Node29</title>
<g id="a_Node000029"><a xlink:href="../../df/d4a/c__string__view_8inl.html" target="_top" xlink:title="Inline implementations for CStringView class.">
<polygon fill="white" stroke="#666666" points="2604,-96 2482,-96 2482,-77 2604,-77 2604,-96"/>
<text text-anchor="middle" x="2543" y="-84" font-family="Helvetica,sans-Serif" font-size="10.00">core/c_string_view.inl</text>
</a>
</g>
</g>
<!-- Node2&#45;&gt;Node29 -->
<g id="edge28_Node000002_Node000029" class="edge">
<title>Node2&#45;&gt;Node29</title>
<g id="a_edge28_Node000002_Node000029"><a xlink:title=" ">
<path fill="none" stroke="#63b8ff" d="M1200.71,-144.43C1203.84,-143.86 1206.97,-143.37 1210,-143 1767.42,-74.91 1917.75,-190.97 2473,-107 2484.65,-105.24 2497.12,-102.17 2508.26,-98.97"/>
<polygon fill="#63b8ff" stroke="#63b8ff" points="2509.47,-102.26 2518.05,-96.04 2507.47,-95.56 2509.47,-102.26"/>
</a>
</g>
</g>
<!-- Node30 -->
<g id="Node000030" class="node">
<title>Node30</title>
<g id="a_Node000030"><a xlink:href="../../d6/ddb/callbacks__pool_8inl.html" target="_top" xlink:title="Inline implementations for template callback pool class with fixed&#45;size callback storage.">
<polygon fill="white" stroke="#666666" points="2750,-96 2622,-96 2622,-77 2750,-77 2750,-96"/>
<text text-anchor="middle" x="2686" y="-84" font-family="Helvetica,sans-Serif" font-size="10.00">core/callbacks_pool.inl</text>
</a>
</g>
</g>
<!-- Node2&#45;&gt;Node30 -->
<g id="edge29_Node000002_Node000030" class="edge">
<title>Node2&#45;&gt;Node30</title>
<g id="a_edge29_Node000002_Node000030"><a xlink:title=" ">
<path fill="none" stroke="#63b8ff" d="M1200.71,-144.42C1203.83,-143.86 1206.97,-143.37 1210,-143 1829.27,-68.25 1995.64,-196.1 2613,-107 2625.25,-105.23 2638.39,-102.12 2650.09,-98.89"/>
<polygon fill="#63b8ff" stroke="#63b8ff" points="2651.31,-102.18 2659.96,-96.06 2649.38,-95.45 2651.31,-102.18"/>
</a>
</g>
</g>
<!-- Node31 -->
<g id="Node000031" class="node">
<title>Node31</title>
<g id="a_Node000031"><a xlink:href="../../dc/d28/constexpr__utils_8inl.html" target="_top" xlink:title="Inline implementations for constexpr utility functions.">
<polygon fill="white" stroke="#666666" points="2898,-96 2768,-96 2768,-77 2898,-77 2898,-96"/>
<text text-anchor="middle" x="2833" y="-84" font-family="Helvetica,sans-Serif" font-size="10.00">core/constexpr_utils.inl</text>
</a>
</g>
</g>
<!-- Node2&#45;&gt;Node31 -->
<g id="edge30_Node000002_Node000031" class="edge">
<title>Node2&#45;&gt;Node31</title>
<g id="a_edge30_Node000002_Node000031"><a xlink:title=" ">
<path fill="none" stroke="#63b8ff" d="M1200.71,-144.41C1203.83,-143.85 1206.97,-143.36 1210,-143 1893.77,-61.3 2077.15,-203.4 2759,-107 2771.54,-105.23 2785,-102.07 2796.95,-98.81"/>
<polygon fill="#63b8ff" stroke="#63b8ff" points="2797.93,-102.17 2806.59,-96.07 2796.02,-95.44 2797.93,-102.17"/>
</a>
</g>
</g>
<!-- Node32 -->
<g id="Node000032" class="node">
<title>Node32</title>
<g id="a_Node000032"><a xlink:href="../../d7/d40/fixed__string_8inl.html" target="_top" xlink:title="Inline implementations for FixedString template class.">
<polygon fill="white" stroke="#666666" points="3028,-96 2916,-96 2916,-77 3028,-77 3028,-96"/>
<text text-anchor="middle" x="2972" y="-84" font-family="Helvetica,sans-Serif" font-size="10.00">core/fixed_string.inl</text>
</a>
</g>
</g>
<!-- Node2&#45;&gt;Node32 -->
<g id="edge31_Node000002_Node000032" class="edge">
<title>Node2&#45;&gt;Node32</title>
<g id="a_edge31_Node000002_Node000032"><a xlink:title=" ">
<path fill="none" stroke="#63b8ff" d="M1200.71,-144.4C1203.83,-143.85 1206.97,-143.36 1210,-143 1584.58,-98.63 2534.4,-165.73 2907,-107 2917.65,-105.32 2928.99,-102.35 2939.17,-99.23"/>
<polygon fill="#63b8ff" stroke="#63b8ff" points="2940.44,-102.49 2948.89,-96.1 2938.3,-95.83 2940.44,-102.49"/>
</a>
</g>
</g>
<!-- Node33 -->
<g id="Node000033" class="node">
<title>Node33</title>
<g id="a_Node000033"><a xlink:href="../../da/dc9/fixed__vector_8inl.html" target="_top" xlink:title="TODO.">
<polygon fill="white" stroke="#666666" points="3160,-96 3046,-96 3046,-77 3160,-77 3160,-96"/>
<text text-anchor="middle" x="3103" y="-84" font-family="Helvetica,sans-Serif" font-size="10.00">core/fixed_vector.inl</text>
</a>
</g>
</g>
<!-- Node2&#45;&gt;Node33 -->
<g id="edge32_Node000002_Node000033" class="edge">
<title>Node2&#45;&gt;Node33</title>
<g id="a_edge32_Node000002_Node000033"><a xlink:title=" ">
<path fill="none" stroke="#63b8ff" d="M1200.71,-144.4C1203.83,-143.84 1206.97,-143.36 1210,-143 1613.3,-95.54 2635.7,-169.09 3037,-107 3048.01,-105.3 3059.75,-102.25 3070.23,-99.06"/>
<polygon fill="#63b8ff" stroke="#63b8ff" points="3071.36,-102.37 3079.83,-96 3069.24,-95.7 3071.36,-102.37"/>
</a>
</g>
</g>
<!-- Node34 -->
<g id="Node000034" class="node">
<title>Node34</title>
<g id="a_Node000034"><a xlink:href="../../df/d7d/utils_8inl.html" target="_top" xlink:title="Inline implementations of core utility functions for string manipulation and encoding conversion.">
<polygon fill="white" stroke="#666666" points="3255.5,-96 3178.5,-96 3178.5,-77 3255.5,-77 3255.5,-96"/>
<text text-anchor="middle" x="3217" y="-84" font-family="Helvetica,sans-Serif" font-size="10.00">core/utils.inl</text>
</a>
</g>
</g>
<!-- Node2&#45;&gt;Node34 -->
<g id="edge33_Node000002_Node000034" class="edge">
<title>Node2&#45;&gt;Node34</title>
<g id="a_edge33_Node000002_Node000034"><a xlink:title=" ">
<path fill="none" stroke="#63b8ff" d="M1200.71,-144.4C1203.83,-143.84 1206.97,-143.35 1210,-143 1426.23,-117.7 2955.73,-150.71 3169,-107 3176.22,-105.52 3183.74,-102.99 3190.63,-100.23"/>
<polygon fill="#63b8ff" stroke="#63b8ff" points="3192.35,-103.3 3200.15,-96.12 3189.58,-96.87 3192.35,-103.3"/>
</a>
</g>
</g>
<!-- Node20 -->
<g id="Node000020" class="node">
<title>Node20</title>
<g id="a_Node000020"><a xlink:href="../../d1/d5f/assertion__macro__gcc__clang_8hpp.html" target="_top" xlink:title="Debug and Release assertion macro implementations for GCC/Clang platforms.">
<polygon fill="white" stroke="#666666" points="1382.5,-30 1255.5,-30 1255.5,0 1382.5,0 1382.5,-30"/>
<text text-anchor="start" x="1263.5" y="-18" font-family="Helvetica,sans-Serif" font-size="10.00">../common/assertion</text>
<text text-anchor="middle" x="1319" y="-7" font-family="Helvetica,sans-Serif" font-size="10.00">_macro_gcc_clang.hpp</text>
</a>
</g>
</g>
<!-- Node19&#45;&gt;Node20 -->
<g id="edge19_Node000019_Node000020" class="edge">
<title>Node19&#45;&gt;Node20</title>
<g id="a_edge19_Node000019_Node000020"><a xlink:title=" ">
<path fill="none" stroke="#63b8ff" d="M1319,-65.77C1319,-57.85 1319,-48.63 1319,-40.3"/>
<polygon fill="#63b8ff" stroke="#63b8ff" points="1322.5,-40.04 1319,-30.04 1315.5,-40.04 1322.5,-40.04"/>
</a>
</g>
</g>
</g>
</svg>

<g id="navigator" transform="translate(0 0)" fill="#404254">
  <rect fill="#f2f5e9" fill-opacity="0.5" stroke="#606060" stroke-width=".5" x="0" y="0" width="60" height="60"/>
  <use id="zoomplus" xlink:href="#zoomPlus" x="17" y="9" onmousedown="handleZoom(evt,'in')"/>
  <use id="zoomminus" xlink:href="#zoomMin" x="42" y="9" onmousedown="handleZoom(evt,'out')"/>
  <use id="reset" xlink:href="#resetDef" x="30" y="36" onmousedown="handleReset()"/>
   <use id="arrowup" xlink:href="#arrowUp" x="0" y="0" onmousedown="handlePan(0,-1)"/>
  <use id="arrowright" xlink:href="#arrowRight" x="0" y="0" onmousedown="handlePan(1,0)"/>
  <use id="arrowdown" xlink:href="#arrowDown" x="0" y="0" onmousedown="handlePan(0,1)"/>
  <use id="arrowleft" xlink:href="#arrowLeft" x="0" y="0" onmousedown="handlePan(-1,0)"/>
</g>
<svg viewBox="0 0 15 15" width="100%" height="30px" preserveAspectRatio="xMaxYMin meet">
 <g id="arrow_out" transform="scale(0.3 0.3)">
  <a xlink:href="math_8hpp__incl_org.svg" target="_base">
   <rect id="button" ry="5" rx="5" y="6" x="6" height="38" width="38"
        fill="#f2f5e9" fill-opacity="0.5" stroke="#606060" stroke-width="1.0"/>
   <path id="arrow"
     d="M 11.500037,31.436501 C 11.940474,20.09759 22.043105,11.32322 32.158766,21.979434 L 37.068811,17.246167 C 37.068811,17.246167 37.088388,32 37.088388,32 L 22.160133,31.978069 C 22.160133,31.978069 26.997745,27.140456 26.997745,27.140456 C 18.528582,18.264221 13.291696,25.230495 11.500037,31.436501 z"
     style="fill:#404040;"/>
  </a>
 </g>
</svg>

<style type='text/css'>
<![CDATA[
[data-mouse-over-selected='false'] { opacity: 0.7; }
[data-mouse-over-selected='true']  { opacity: 1.0; }
]]>
</style>
<script type="application/ecmascript"><![CDATA[
document.addEventListener('DOMContentLoaded', (event) => {
  highlightEdges();
  highlightAdjacentNodes();
});
]]></script>
</svg>
