<?xml version="1.0" encoding="UTF-8" standalone="no"?>
<!DOCTYPE svg PUBLIC "-//W3C//DTD SVG 1.1//EN"
 "http://www.w3.org/Graphics/SVG/1.1/DTD/svg11.dtd">
<!-- Generated by graphviz version 2.43.0 (0)
 -->
<!-- Title: include/application/console_application.hpp Pages: 1 -->
<!--zoomable 170 -->

<svg id="main" version="1.1" xmlns="http://www.w3.org/2000/svg" xmlns:xlink="http://www.w3.org/1999/xlink" xml:space="preserve" onload="init(evt)">

<style type="text/css"><![CDATA[
.node, .edge {opacity: 0.7;}
.node.selected, .edge.selected {opacity: 1;}
.edge:hover path { stroke: red; }
.edge:hover polygon { stroke: red; fill: red; }
]]></style>

<defs>
  <circle id="rim" cx="0" cy="0" r="7"/>
  <circle id="rim2" cx="0" cy="0" r="3.5"/>
  <g id="zoomPlus">
    <use xlink:href="#rim" fill="#404040"><set attributeName="fill" to="#808080" begin="zoomplus.mouseover" end="zoomplus.mouseout"/></use>
    <path d="M-4,0h8M0,-4v8" fill="none" stroke="white" stroke-width="1.5" pointer-events="none"/>
  </g>
  <g id="zoomMin">
    <use xlink:href="#rim" fill="#404040"><set attributeName="fill" to="#808080" begin="zoomminus.mouseover" end="zoomminus.mouseout"/></use>
    <path d="M-4,0h8" fill="none" stroke="white" stroke-width="1.5" pointer-events="none"/>
  </g>
  <g id="arrowUp" transform="translate(30 24)">
    <use xlink:href="#rim"/>
    <path pointer-events="none" fill="none" stroke="white" stroke-width="1.5" d="M0,-3.0v7 M-2.5,-0.5L0,-3.0L2.5,-0.5"/>
  </g>
  <g id="arrowRight" transform="rotate(90) translate(36 -43)">
    <use xlink:href="#rim"/>
    <path pointer-events="none" fill="none" stroke="white" stroke-width="1.5" d="M0,-3.0v7 M-2.5,-0.5L0,-3.0L2.5,-0.5"/>
  </g>
  <g id="arrowDown" transform="rotate(180) translate(-30 -48)">
    <use xlink:href="#rim"/>
    <path pointer-events="none" fill="none" stroke="white" stroke-width="1.5" d="M0,-3.0v7 M-2.5,-0.5L0,-3.0L2.5,-0.5"/>
  </g>
  <g id="arrowLeft" transform="rotate(270) translate(-36 17)">
    <use xlink:href="#rim"/>
    <path pointer-events="none" fill="none" stroke="white" stroke-width="1.5" d="M0,-3.0v7 M-2.5,-0.5L0,-3.0L2.5,-0.5"/>
  </g>
  <g id="resetDef">
    <use xlink:href="#rim2" fill="#404040"><set attributeName="fill" to="#808080" begin="reset.mouseover" end="reset.mouseout"/></use>
  </g>
</defs>
<script type="application/ecmascript">
var viewWidth = 1104;
var viewHeight = 170;
var sectionId = 'dynsection-1';
</script>
<script type="application/ecmascript" xlink:href="../../svg.min.js"/>
<svg id="graph" class="graph">
<g id="viewport">
<title>include/application/console_application.hpp</title>
<!-- Node1 -->
<g id="Node000001" class="node">
<title>Node1</title>
<g id="a_Node000001"><a xlink:title="Abstract base for console&#45;mode application lifecycle.">
<polygon fill="#999999" stroke="#666666" points="561,-162 424,-162 424,-132 561,-132 561,-162"/>
<text text-anchor="start" x="432" y="-150" font-family="Helvetica,sans-Serif" font-size="10.00">include/application</text>
<text text-anchor="middle" x="492.5" y="-139" font-family="Helvetica,sans-Serif" font-size="10.00">/console_application.hpp</text>
</a>
</g>
</g>
<!-- Node2 -->
<g id="Node000002" class="node">
<title>Node2</title>
<g id="a_Node000002"><a xlink:href="../../d4/d01/application_8hpp.html" target="_top" xlink:title="Umbrella header for the application module.">
<polygon fill="white" stroke="#666666" points="557.5,-96 427.5,-96 427.5,-77 557.5,-77 557.5,-96"/>
<text text-anchor="middle" x="492.5" y="-84" font-family="Helvetica,sans-Serif" font-size="10.00">include/application.hpp</text>
</a>
</g>
</g>
<!-- Node1&#45;&gt;Node2 -->
<g id="edge1_Node000001_Node000002" class="edge">
<title>Node1&#45;&gt;Node2</title>
<g id="a_edge1_Node000001_Node000002"><a xlink:title=" ">
<path fill="none" stroke="#63b8ff" d="M492.5,-121.75C492.5,-112.72 492.5,-103.03 492.5,-96.27"/>
<polygon fill="#63b8ff" stroke="#63b8ff" points="489,-121.84 492.5,-131.84 496,-121.84 489,-121.84"/>
</a>
</g>
</g>
<!-- Node3 -->
<g id="Node000003" class="node">
<title>Node3</title>
<g id="a_Node000003"><a xlink:href="../../d8/d8c/toygine2_8hpp.html" target="_top" xlink:title="Main umbrella header for the engine.">
<polygon fill="white" stroke="#666666" points="119,-30 0,-30 0,-11 119,-11 119,-30"/>
<text text-anchor="middle" x="59.5" y="-18" font-family="Helvetica,sans-Serif" font-size="10.00">include/toygine2.hpp</text>
</a>
</g>
</g>
<!-- Node2&#45;&gt;Node3 -->
<g id="edge2_Node000002_Node000003" class="edge">
<title>Node2&#45;&gt;Node3</title>
<g id="a_edge2_Node000002_Node000003"><a xlink:title=" ">
<path fill="none" stroke="#63b8ff" d="M417.09,-79.69C343.1,-73.19 227.3,-60.88 128.5,-41 114.34,-38.15 98.85,-33.88 86.14,-30.06"/>
<polygon fill="#63b8ff" stroke="#63b8ff" points="416.99,-83.19 427.25,-80.57 417.59,-76.22 416.99,-83.19"/>
</a>
</g>
</g>
<!-- Node4 -->
<g id="Node000004" class="node">
<title>Node4</title>
<g id="a_Node000004"><a xlink:href="../../db/db6/console__application_8cpp.html" target="_top" xlink:title="Implementations for toy::application::ConsoleApplication.">
<polygon fill="white" stroke="#666666" points="265.5,-35.5 137.5,-35.5 137.5,-5.5 265.5,-5.5 265.5,-35.5"/>
<text text-anchor="start" x="145.5" y="-23.5" font-family="Helvetica,sans-Serif" font-size="10.00">src/application/console</text>
<text text-anchor="middle" x="201.5" y="-12.5" font-family="Helvetica,sans-Serif" font-size="10.00">_application.cpp</text>
</a>
</g>
</g>
<!-- Node2&#45;&gt;Node4 -->
<g id="edge3_Node000002_Node000004" class="edge">
<title>Node2&#45;&gt;Node4</title>
<g id="a_edge3_Node000002_Node000004"><a xlink:title=" ">
<path fill="none" stroke="#63b8ff" d="M436.85,-75.09C392.68,-66.6 329.44,-53.93 274.5,-41 267.35,-39.32 259.83,-37.44 252.46,-35.53"/>
<polygon fill="#63b8ff" stroke="#63b8ff" points="436.34,-78.56 446.82,-77 437.65,-71.68 436.34,-78.56"/>
</a>
</g>
</g>
<!-- Node5 -->
<g id="Node000005" class="node">
<title>Node5</title>
<g id="a_Node000005"><a xlink:href="../../d0/dbb/core__application_8cpp.html" target="_top" xlink:title="Implementations for toy::application::CoreApplication.">
<polygon fill="white" stroke="#666666" points="395.5,-35.5 283.5,-35.5 283.5,-5.5 395.5,-5.5 395.5,-35.5"/>
<text text-anchor="start" x="291.5" y="-23.5" font-family="Helvetica,sans-Serif" font-size="10.00">src/application/core</text>
<text text-anchor="middle" x="339.5" y="-12.5" font-family="Helvetica,sans-Serif" font-size="10.00">_application.cpp</text>
</a>
</g>
</g>
<!-- Node2&#45;&gt;Node5 -->
<g id="edge4_Node000002_Node000005" class="edge">
<title>Node2&#45;&gt;Node5</title>
<g id="a_edge4_Node000002_Node000005"><a xlink:title=" ">
<path fill="none" stroke="#63b8ff" d="M462.63,-73C436.96,-62.27 399.97,-46.8 373.25,-35.62"/>
<polygon fill="#63b8ff" stroke="#63b8ff" points="461.29,-76.24 471.87,-76.87 463.99,-69.78 461.29,-76.24"/>
</a>
</g>
</g>
<!-- Node6 -->
<g id="Node000006" class="node">
<title>Node6</title>
<g id="a_Node000006"><a xlink:href="../../d0/d8a/core__application__linux_8cpp.html" target="_top" xlink:title="Linux implementations of toy::application::CoreApplication via POSIX APIs.">
<polygon fill="white" stroke="#666666" points="571,-41 414,-41 414,0 571,0 571,-41"/>
<text text-anchor="start" x="422" y="-29" font-family="Helvetica,sans-Serif" font-size="10.00">src/platforms/linux</text>
<text text-anchor="start" x="422" y="-18" font-family="Helvetica,sans-Serif" font-size="10.00">/application/core_application</text>
<text text-anchor="middle" x="492.5" y="-7" font-family="Helvetica,sans-Serif" font-size="10.00">_linux.cpp</text>
</a>
</g>
</g>
<!-- Node2&#45;&gt;Node6 -->
<g id="edge5_Node000002_Node000006" class="edge">
<title>Node2&#45;&gt;Node6</title>
<g id="a_edge5_Node000002_Node000006"><a xlink:title=" ">
<path fill="none" stroke="#63b8ff" d="M492.5,-66.63C492.5,-58.56 492.5,-49.15 492.5,-41.01"/>
<polygon fill="#63b8ff" stroke="#63b8ff" points="489,-66.87 492.5,-76.87 496,-66.87 489,-66.87"/>
</a>
</g>
</g>
<!-- Node7 -->
<g id="Node000007" class="node">
<title>Node7</title>
<g id="a_Node000007"><a xlink:href="../../d8/d89/core__application__macos_8cpp.html" target="_top" xlink:title="macOS implementations of toy::application::CoreApplication via POSIX APIs.">
<polygon fill="white" stroke="#666666" points="746,-41 589,-41 589,0 746,0 746,-41"/>
<text text-anchor="start" x="597" y="-29" font-family="Helvetica,sans-Serif" font-size="10.00">src/platforms/macos</text>
<text text-anchor="start" x="597" y="-18" font-family="Helvetica,sans-Serif" font-size="10.00">/application/core_application</text>
<text text-anchor="middle" x="667.5" y="-7" font-family="Helvetica,sans-Serif" font-size="10.00">_macos.cpp</text>
</a>
</g>
</g>
<!-- Node2&#45;&gt;Node7 -->
<g id="edge6_Node000002_Node000007" class="edge">
<title>Node2&#45;&gt;Node7</title>
<g id="a_edge6_Node000002_Node000007"><a xlink:title=" ">
<path fill="none" stroke="#63b8ff" d="M525.82,-73.32C550.76,-64.19 585.38,-51.53 614.15,-41.01"/>
<polygon fill="#63b8ff" stroke="#63b8ff" points="524.29,-70.15 516.1,-76.87 526.7,-76.72 524.29,-70.15"/>
</a>
</g>
</g>
<!-- Node8 -->
<g id="Node000008" class="node">
<title>Node8</title>
<g id="a_Node000008"><a xlink:href="../../db/da8/core__application__stub_8cpp.html" target="_top" xlink:title="Stub implementation of toy::application::CoreApplication::sleep() for platforms without OS sleep supp...">
<polygon fill="white" stroke="#666666" points="921,-41 764,-41 764,0 921,0 921,-41"/>
<text text-anchor="start" x="772" y="-29" font-family="Helvetica,sans-Serif" font-size="10.00">src/platforms/stub</text>
<text text-anchor="start" x="772" y="-18" font-family="Helvetica,sans-Serif" font-size="10.00">/application/core_application</text>
<text text-anchor="middle" x="842.5" y="-7" font-family="Helvetica,sans-Serif" font-size="10.00">_stub.cpp</text>
</a>
</g>
</g>
<!-- Node2&#45;&gt;Node8 -->
<g id="edge7_Node000002_Node000008" class="edge">
<title>Node2&#45;&gt;Node8</title>
<g id="a_edge7_Node000002_Node000008"><a xlink:title=" ">
<path fill="none" stroke="#63b8ff" d="M558.07,-75.39C611.38,-66.94 688.48,-54.17 755.5,-41 758.23,-40.46 761.01,-39.9 763.82,-39.33"/>
<polygon fill="#63b8ff" stroke="#63b8ff" points="557.4,-71.95 548.07,-76.97 558.49,-78.87 557.4,-71.95"/>
</a>
</g>
</g>
<!-- Node9 -->
<g id="Node000009" class="node">
<title>Node9</title>
<g id="a_Node000009"><a xlink:href="../../dc/d2d/core__application__windows_8cpp.html" target="_top" xlink:title="Windows implementations of toy::application::CoreApplication via Win32 APIs.">
<polygon fill="white" stroke="#666666" points="1096,-41 939,-41 939,0 1096,0 1096,-41"/>
<text text-anchor="start" x="947" y="-29" font-family="Helvetica,sans-Serif" font-size="10.00">src/platforms/windows</text>
<text text-anchor="start" x="947" y="-18" font-family="Helvetica,sans-Serif" font-size="10.00">/application/core_application</text>
<text text-anchor="middle" x="1017.5" y="-7" font-family="Helvetica,sans-Serif" font-size="10.00">_windows.cpp</text>
</a>
</g>
</g>
<!-- Node2&#45;&gt;Node9 -->
<g id="edge8_Node000002_Node000009" class="edge">
<title>Node2&#45;&gt;Node9</title>
<g id="a_edge8_Node000002_Node000009"><a xlink:title=" ">
<path fill="none" stroke="#63b8ff" d="M567.86,-80.59C655.41,-74.25 804.04,-61.52 930.5,-41 933.25,-40.55 936.04,-40.07 938.86,-39.57"/>
<polygon fill="#63b8ff" stroke="#63b8ff" points="567.48,-77.11 557.75,-81.31 567.98,-84.09 567.48,-77.11"/>
</a>
</g>
</g>
</g>
</svg>

<g id="navigator" transform="translate(0 0)" fill="#404254">
  <rect fill="#f2f5e9" fill-opacity="0.5" stroke="#606060" stroke-width=".5" x="0" y="0" width="60" height="60"/>
  <use id="zoomplus" xlink:href="#zoomPlus" x="17" y="9" onmousedown="handleZoom(evt,'in')"/>
  <use id="zoomminus" xlink:href="#zoomMin" x="42" y="9" onmousedown="handleZoom(evt,'out')"/>
  <use id="reset" xlink:href="#resetDef" x="30" y="36" onmousedown="handleReset()"/>
   <use id="arrowup" xlink:href="#arrowUp" x="0" y="0" onmousedown="handlePan(0,-1)"/>
  <use id="arrowright" xlink:href="#arrowRight" x="0" y="0" onmousedown="handlePan(1,0)"/>
  <use id="arrowdown" xlink:href="#arrowDown" x="0" y="0" onmousedown="handlePan(0,1)"/>
  <use id="arrowleft" xlink:href="#arrowLeft" x="0" y="0" onmousedown="handlePan(-1,0)"/>
</g>
<svg viewBox="0 0 15 15" width="100%" height="30px" preserveAspectRatio="xMaxYMin meet">
 <g id="arrow_out" transform="scale(0.3 0.3)">
  <a xlink:href="console__application_8hpp__dep__incl_org.svg" target="_base">
   <rect id="button" ry="5" rx="5" y="6" x="6" height="38" width="38"
        fill="#f2f5e9" fill-opacity="0.5" stroke="#606060" stroke-width="1.0"/>
   <path id="arrow"
     d="M 11.500037,31.436501 C 11.940474,20.09759 22.043105,11.32322 32.158766,21.979434 L 37.068811,17.246167 C 37.068811,17.246167 37.088388,32 37.088388,32 L 22.160133,31.978069 C 22.160133,31.978069 26.997745,27.140456 26.997745,27.140456 C 18.528582,18.264221 13.291696,25.230495 11.500037,31.436501 z"
     style="fill:#404040;"/>
  </a>
 </g>
</svg>

<style type='text/css'>
<![CDATA[
[data-mouse-over-selected='false'] { opacity: 0.7; }
[data-mouse-over-selected='true']  { opacity: 1.0; }
]]>
</style>
<script type="application/ecmascript"><![CDATA[
document.addEventListener('DOMContentLoaded', (event) => {
  highlightEdges();
  highlightAdjacentNodes();
});
]]></script>
</svg>
