<?xml version="1.0" encoding="UTF-8" standalone="no"?>
<!DOCTYPE svg PUBLIC "-//W3C//DTD SVG 1.1//EN"
 "http://www.w3.org/Graphics/SVG/1.1/DTD/svg11.dtd">
<!-- Generated by graphviz version 2.43.0 (0)
 -->
<!-- Title: include/core/bitwise_enum.inl Pages: 1 -->
<svg width="1610pt" height="291pt"
 viewBox="0.00 0.00 1610.19 291.00" xmlns="http://www.w3.org/2000/svg" xmlns:xlink="http://www.w3.org/1999/xlink">
<g id="graph0" class="graph" transform="scale(1 1) rotate(0) translate(4 287)">
<title>include/core/bitwise_enum.inl</title>
<!-- Node1 -->
<g id="Node000001" class="node">
<title>Node1</title>
<g id="a_Node000001"><a xlink:title="Inline implementations for toy::EnableBitwiseOperators and scoped&#45;enum bitwise operators.">
<polygon fill="#999999" stroke="#666666" points="868.69,-283 754.69,-283 754.69,-253 868.69,-253 868.69,-283"/>
<text text-anchor="start" x="762.69" y="-271" font-family="Helvetica,sans-Serif" font-size="10.00">include/core/bitwise</text>
<text text-anchor="middle" x="811.69" y="-260" font-family="Helvetica,sans-Serif" font-size="10.00">_enum.inl</text>
</a>
</g>
</g>
<!-- Node2 -->
<g id="Node000002" class="node">
<title>Node2</title>
<g id="a_Node000002"><a xlink:href="../../da/d47/core_8hpp.html" target="_top" xlink:title="Umbrella header for the engine core module.">
<polygon fill="white" stroke="#666666" points="860.19,-217 763.19,-217 763.19,-198 860.19,-198 860.19,-217"/>
<text text-anchor="middle" x="811.69" y="-205" font-family="Helvetica,sans-Serif" font-size="10.00">include/core.hpp</text>
</a>
</g>
</g>
<!-- Node1&#45;&gt;Node2 -->
<g id="edge1_Node000001_Node000002" class="edge">
<title>Node1&#45;&gt;Node2</title>
<g id="a_edge1_Node000001_Node000002"><a xlink:title=" ">
<path fill="none" stroke="#63b8ff" d="M811.69,-242.75C811.69,-233.72 811.69,-224.03 811.69,-217.27"/>
<polygon fill="#63b8ff" stroke="#63b8ff" points="808.19,-242.84 811.69,-252.84 815.19,-242.84 808.19,-242.84"/>
</a>
</g>
</g>
<!-- Node3 -->
<g id="Node000003" class="node">
<title>Node3</title>
<g id="a_Node000003"><a xlink:href="../../d4/d01/application_8hpp.html" target="_top" xlink:title="Umbrella header for the application module.">
<polygon fill="white" stroke="#666666" points="215.69,-156.5 85.69,-156.5 85.69,-137.5 215.69,-137.5 215.69,-156.5"/>
<text text-anchor="middle" x="150.69" y="-144.5" font-family="Helvetica,sans-Serif" font-size="10.00">include/application.hpp</text>
</a>
</g>
</g>
<!-- Node2&#45;&gt;Node3 -->
<g id="edge2_Node000002_Node000003" class="edge">
<title>Node2&#45;&gt;Node3</title>
<g id="a_edge2_Node000002_Node000003"><a xlink:title=" ">
<path fill="none" stroke="#63b8ff" d="M753.08,-201.31C629.82,-190.4 344.57,-165.16 215.82,-153.76"/>
<polygon fill="#63b8ff" stroke="#63b8ff" points="752.81,-204.8 763.08,-202.2 753.43,-197.83 752.81,-204.8"/>
</a>
</g>
</g>
<!-- Node4 -->
<g id="Node000004" class="node">
<title>Node4</title>
<g id="a_Node000004"><a xlink:href="../../d8/d8c/toygine2_8hpp.html" target="_top" xlink:title="Main umbrella header for the engine.">
<polygon fill="white" stroke="#666666" points="597.19,-19 478.19,-19 478.19,0 597.19,0 597.19,-19"/>
<text text-anchor="middle" x="537.69" y="-7" font-family="Helvetica,sans-Serif" font-size="10.00">include/toygine2.hpp</text>
</a>
</g>
</g>
<!-- Node2&#45;&gt;Node4 -->
<g id="edge21_Node000002_Node000004" class="edge">
<title>Node2&#45;&gt;Node4</title>
<g id="a_edge21_Node000002_Node000004"><a xlink:title=" ">
<path fill="none" stroke="#63b8ff" d="M752.78,-205.83C654.02,-203.78 460.12,-195.47 401.69,-162 356.3,-136 320.31,-96.08 352.69,-55 368.17,-35.35 430.12,-23.37 478.12,-16.87"/>
<polygon fill="#63b8ff" stroke="#63b8ff" points="752.83,-209.33 762.9,-206.03 752.97,-202.33 752.83,-209.33"/>
</a>
</g>
</g>
<!-- Node7 -->
<g id="Node000007" class="node">
<title>Node7</title>
<g id="a_Node000007"><a xlink:href="../../d1/d71/audio_8hpp.html" target="_top" xlink:title="Umbrella header for the audio module.">
<polygon fill="white" stroke="#666666" points="465.19,-85 362.19,-85 362.19,-66 465.19,-66 465.19,-85"/>
<text text-anchor="middle" x="413.69" y="-73" font-family="Helvetica,sans-Serif" font-size="10.00">include/audio.hpp</text>
</a>
</g>
</g>
<!-- Node2&#45;&gt;Node7 -->
<g id="edge6_Node000002_Node000007" class="edge">
<title>Node2&#45;&gt;Node7</title>
<g id="a_edge6_Node000002_Node000007"><a xlink:title=" ">
<path fill="none" stroke="#63b8ff" d="M752.77,-204.04C648.23,-199.07 439.09,-186.2 416.69,-162 397.01,-140.75 405.57,-102.26 410.76,-85.13"/>
<polygon fill="#63b8ff" stroke="#63b8ff" points="752.71,-207.54 762.86,-204.51 753.03,-200.55 752.71,-207.54"/>
</a>
</g>
</g>
<!-- Node8 -->
<g id="Node000008" class="node">
<title>Node8</title>
<g id="a_Node000008"><a xlink:href="../../d8/d39/game_8hpp.html" target="_top" xlink:title="Umbrella header for the game module.">
<polygon fill="white" stroke="#666666" points="529.69,-156.5 425.69,-156.5 425.69,-137.5 529.69,-137.5 529.69,-156.5"/>
<text text-anchor="middle" x="477.69" y="-144.5" font-family="Helvetica,sans-Serif" font-size="10.00">include/game.hpp</text>
</a>
</g>
</g>
<!-- Node2&#45;&gt;Node8 -->
<g id="edge8_Node000002_Node000008" class="edge">
<title>Node2&#45;&gt;Node8</title>
<g id="a_edge8_Node000002_Node000008"><a xlink:title=" ">
<path fill="none" stroke="#63b8ff" d="M752.7,-198C697.28,-189.75 612.11,-176.39 538.69,-162 530.37,-160.37 521.46,-158.43 513.09,-156.53"/>
<polygon fill="#63b8ff" stroke="#63b8ff" points="752.29,-201.48 762.7,-199.48 753.32,-194.55 752.29,-201.48"/>
</a>
</g>
</g>
<!-- Node9 -->
<g id="Node000009" class="node">
<title>Node9</title>
<g id="a_Node000009"><a xlink:href="../../d4/d78/math_8hpp.html" target="_top" xlink:title="Umbrella header for the math module.">
<polygon fill="white" stroke="#666666" points="649.19,-156.5 548.19,-156.5 548.19,-137.5 649.19,-137.5 649.19,-156.5"/>
<text text-anchor="middle" x="598.69" y="-144.5" font-family="Helvetica,sans-Serif" font-size="10.00">include/math.hpp</text>
</a>
</g>
</g>
<!-- Node2&#45;&gt;Node9 -->
<g id="edge9_Node000002_Node000009" class="edge">
<title>Node2&#45;&gt;Node9</title>
<g id="a_edge9_Node000002_Node000009"><a xlink:title=" ">
<path fill="none" stroke="#63b8ff" d="M770.99,-195.32C729.8,-184.01 667.02,-166.77 629.7,-156.52"/>
<polygon fill="#63b8ff" stroke="#63b8ff" points="770.14,-198.72 780.71,-197.99 772,-191.97 770.14,-198.72"/>
</a>
</g>
</g>
<!-- Node11 -->
<g id="Node000011" class="node">
<title>Node11</title>
<g id="a_Node000011"><a xlink:href="../../d6/d67/network_8hpp.html" target="_top" xlink:title="Umbrella header for the network module.">
<polygon fill="white" stroke="#666666" points="783.69,-156.5 667.69,-156.5 667.69,-137.5 783.69,-137.5 783.69,-156.5"/>
<text text-anchor="middle" x="725.69" y="-144.5" font-family="Helvetica,sans-Serif" font-size="10.00">include/network.hpp</text>
</a>
</g>
</g>
<!-- Node2&#45;&gt;Node11 -->
<g id="edge13_Node000002_Node000011" class="edge">
<title>Node2&#45;&gt;Node11</title>
<g id="a_edge13_Node000002_Node000011"><a xlink:title=" ">
<path fill="none" stroke="#63b8ff" d="M790.6,-192.16C774.27,-181.05 752.17,-166.01 738.43,-156.67"/>
<polygon fill="#63b8ff" stroke="#63b8ff" points="788.76,-195.14 799,-197.87 792.7,-189.35 788.76,-195.14"/>
</a>
</g>
</g>
<!-- Node13 -->
<g id="Node000013" class="node">
<title>Node13</title>
<g id="a_Node000013"><a xlink:href="../../de/dd6/ui_8hpp.html" target="_top" xlink:title="Umbrella header for platform UI types.">
<polygon fill="white" stroke="#666666" points="987.69,-85 857.69,-85 857.69,-66 987.69,-66 987.69,-85"/>
<text text-anchor="middle" x="922.69" y="-73" font-family="Helvetica,sans-Serif" font-size="10.00">include/platform/ui.hpp</text>
</a>
</g>
</g>
<!-- Node2&#45;&gt;Node13 -->
<g id="edge16_Node000002_Node000013" class="edge">
<title>Node2&#45;&gt;Node13</title>
<g id="a_edge16_Node000002_Node000013"><a xlink:title=" ">
<path fill="none" stroke="#63b8ff" d="M812.89,-187.44C814.77,-171.28 819.54,-148.22 831.69,-132 848.77,-109.19 878.23,-93.74 898.99,-85.05"/>
<polygon fill="#63b8ff" stroke="#63b8ff" points="809.37,-187.52 811.98,-197.79 816.34,-188.14 809.37,-187.52"/>
</a>
</g>
</g>
<!-- Node14 -->
<g id="Node000014" class="node">
<title>Node14</title>
<g id="a_Node000014"><a xlink:href="../../d6/d4b/render_8hpp.html" target="_top" xlink:title="Umbrella header for the render module.">
<polygon fill="white" stroke="#666666" points="947.19,-156.5 840.19,-156.5 840.19,-137.5 947.19,-137.5 947.19,-156.5"/>
<text text-anchor="middle" x="893.69" y="-144.5" font-family="Helvetica,sans-Serif" font-size="10.00">include/render.hpp</text>
</a>
</g>
</g>
<!-- Node2&#45;&gt;Node14 -->
<g id="edge18_Node000002_Node000014" class="edge">
<title>Node2&#45;&gt;Node14</title>
<g id="a_edge18_Node000002_Node000014"><a xlink:title=" ">
<path fill="none" stroke="#63b8ff" d="M832.22,-191.85C847.76,-180.77 868.56,-165.93 881.54,-156.67"/>
<polygon fill="#63b8ff" stroke="#63b8ff" points="829.89,-189.21 823.79,-197.87 833.96,-194.91 829.89,-189.21"/>
</a>
</g>
</g>
<!-- Node16 -->
<g id="Node000016" class="node">
<title>Node16</title>
<g id="a_Node000016"><a xlink:href="../../da/de0/core_8cpp.html" target="_top" xlink:title="Implementation of toy::initialize() and toy::deInitialize() lifecycle functions.">
<polygon fill="white" stroke="#666666" points="1064.19,-156.5 965.19,-156.5 965.19,-137.5 1064.19,-137.5 1064.19,-156.5"/>
<text text-anchor="middle" x="1014.69" y="-144.5" font-family="Helvetica,sans-Serif" font-size="10.00">src/core/core.cpp</text>
</a>
</g>
</g>
<!-- Node2&#45;&gt;Node16 -->
<g id="edge22_Node000002_Node000016" class="edge">
<title>Node2&#45;&gt;Node16</title>
<g id="a_edge22_Node000002_Node000016"><a xlink:title=" ">
<path fill="none" stroke="#63b8ff" d="M850.97,-195.18C890.23,-183.87 949.71,-166.72 985.13,-156.52"/>
<polygon fill="#63b8ff" stroke="#63b8ff" points="849.84,-191.86 841.2,-197.99 851.78,-198.59 849.84,-191.86"/>
</a>
</g>
</g>
<!-- Node17 -->
<g id="Node000017" class="node">
<title>Node17</title>
<g id="a_Node000017"><a xlink:href="../../db/d2d/hashes_8cpp.html" target="_top" xlink:title="Table&#45;driven implementations of toy::crc8(), toy::crc16(), and toy::crc32().">
<polygon fill="white" stroke="#666666" points="1195.19,-156.5 1082.19,-156.5 1082.19,-137.5 1195.19,-137.5 1195.19,-156.5"/>
<text text-anchor="middle" x="1138.69" y="-144.5" font-family="Helvetica,sans-Serif" font-size="10.00">src/core/hashes.cpp</text>
</a>
</g>
</g>
<!-- Node2&#45;&gt;Node17 -->
<g id="edge23_Node000002_Node000017" class="edge">
<title>Node2&#45;&gt;Node17</title>
<g id="a_edge23_Node000002_Node000017"><a xlink:title=" ">
<path fill="none" stroke="#63b8ff" d="M870.51,-197.27C923.69,-188.74 1004.1,-175.4 1073.69,-162 1082.3,-160.34 1091.53,-158.43 1100.25,-156.57"/>
<polygon fill="#63b8ff" stroke="#63b8ff" points="869.89,-193.82 860.57,-198.85 871,-200.73 869.89,-193.82"/>
</a>
</g>
</g>
<!-- Node18 -->
<g id="Node000018" class="node">
<title>Node18</title>
<g id="a_Node000018"><a xlink:href="../../d2/d51/log__sink_8cpp.html" target="_top" xlink:title="Out&#45;of&#45;line definitions for toy::log::ISink.">
<polygon fill="white" stroke="#666666" points="1332.19,-156.5 1213.19,-156.5 1213.19,-137.5 1332.19,-137.5 1332.19,-156.5"/>
<text text-anchor="middle" x="1272.69" y="-144.5" font-family="Helvetica,sans-Serif" font-size="10.00">src/core/log_sink.cpp</text>
</a>
</g>
</g>
<!-- Node2&#45;&gt;Node18 -->
<g id="edge24_Node000002_Node000018" class="edge">
<title>Node2&#45;&gt;Node18</title>
<g id="a_edge24_Node000002_Node000018"><a xlink:title=" ">
<path fill="none" stroke="#63b8ff" d="M870.26,-201.53C947.25,-194.62 1086.57,-180.81 1204.69,-162 1214.33,-160.46 1224.68,-158.5 1234.32,-156.53"/>
<polygon fill="#63b8ff" stroke="#63b8ff" points="869.93,-198.05 860.28,-202.42 870.55,-205.02 869.93,-198.05"/>
</a>
</g>
</g>
<!-- Node19 -->
<g id="Node000019" class="node">
<title>Node19</title>
<g id="a_Node000019"><a xlink:href="../../de/d06/utils_8cpp.html" target="_top" xlink:title="Definitions for string, encoding, and number utilities declared in core/utils.hpp.">
<polygon fill="white" stroke="#666666" points="1449.19,-156.5 1350.19,-156.5 1350.19,-137.5 1449.19,-137.5 1449.19,-156.5"/>
<text text-anchor="middle" x="1399.69" y="-144.5" font-family="Helvetica,sans-Serif" font-size="10.00">src/core/utils.cpp</text>
</a>
</g>
</g>
<!-- Node2&#45;&gt;Node19 -->
<g id="edge25_Node000002_Node000019" class="edge">
<title>Node2&#45;&gt;Node19</title>
<g id="a_edge25_Node000002_Node000019"><a xlink:title=" ">
<path fill="none" stroke="#63b8ff" d="M870.23,-204.51C968.3,-200.53 1171.77,-189.47 1341.69,-162 1350.38,-160.59 1359.69,-158.58 1368.26,-156.51"/>
<polygon fill="#63b8ff" stroke="#63b8ff" points="870.07,-201.02 860.22,-204.91 870.35,-208.01 870.07,-201.02"/>
</a>
</g>
</g>
<!-- Node20 -->
<g id="Node000020" class="node">
<title>Node20</title>
<g id="a_Node000020"><a xlink:href="../../d7/d90/assertion__stub_8cpp.html" target="_top" xlink:title="Stub definitions for the assertion callback API declared in core/assertion.hpp.">
<polygon fill="white" stroke="#666666" points="1602.19,-162 1467.19,-162 1467.19,-132 1602.19,-132 1602.19,-162"/>
<text text-anchor="start" x="1475.19" y="-150" font-family="Helvetica,sans-Serif" font-size="10.00">src/platforms/stub</text>
<text text-anchor="middle" x="1534.69" y="-139" font-family="Helvetica,sans-Serif" font-size="10.00">/core/assertion_stub.cpp</text>
</a>
</g>
</g>
<!-- Node2&#45;&gt;Node20 -->
<g id="edge26_Node000002_Node000020" class="edge">
<title>Node2&#45;&gt;Node20</title>
<g id="a_edge26_Node000002_Node000020"><a xlink:title=" ">
<path fill="none" stroke="#63b8ff" d="M870.82,-204.68C984.9,-200.67 1243.12,-189.18 1458.69,-162 1461.35,-161.66 1464.06,-161.3 1466.79,-160.9"/>
<polygon fill="#63b8ff" stroke="#63b8ff" points="870.44,-201.19 860.57,-205.03 870.68,-208.19 870.44,-201.19"/>
</a>
</g>
</g>
<!-- Node3&#45;&gt;Node4 -->
<g id="edge3_Node000003_Node000004" class="edge">
<title>Node3&#45;&gt;Node4</title>
<g id="a_edge3_Node000003_Node000004"><a xlink:title=" ">
<path fill="none" stroke="#63b8ff" d="M75.72,-137.28C50.2,-130.32 24.22,-117.94 8.69,-96 -1.84,-81.13 -3.65,-68.41 8.69,-55 39.91,-21.03 345.97,-12.98 477.79,-11.08"/>
<polygon fill="#63b8ff" stroke="#63b8ff" points="74.9,-140.69 85.45,-139.69 76.59,-133.89 74.9,-140.69"/>
</a>
</g>
</g>
<!-- Node5 -->
<g id="Node000005" class="node">
<title>Node5</title>
<g id="a_Node000005"><a xlink:href="../../d0/dbb/core__application_8cpp.html" target="_top" xlink:title="Implementations for toy::application::CoreApplication.">
<polygon fill="white" stroke="#666666" points="129.69,-90.5 17.69,-90.5 17.69,-60.5 129.69,-60.5 129.69,-90.5"/>
<text text-anchor="start" x="25.69" y="-78.5" font-family="Helvetica,sans-Serif" font-size="10.00">src/application/core</text>
<text text-anchor="middle" x="73.69" y="-67.5" font-family="Helvetica,sans-Serif" font-size="10.00">_application.cpp</text>
</a>
</g>
</g>
<!-- Node3&#45;&gt;Node5 -->
<g id="edge4_Node000003_Node000005" class="edge">
<title>Node3&#45;&gt;Node5</title>
<g id="a_edge4_Node000003_Node000005"><a xlink:title=" ">
<path fill="none" stroke="#63b8ff" d="M133.74,-130.71C120.51,-118.76 102.25,-102.28 89.35,-90.64"/>
<polygon fill="#63b8ff" stroke="#63b8ff" points="131.48,-133.38 141.24,-137.48 136.17,-128.18 131.48,-133.38"/>
</a>
</g>
</g>
<!-- Node6 -->
<g id="Node000006" class="node">
<title>Node6</title>
<g id="a_Node000006"><a xlink:href="../../db/da8/core__application__stub_8cpp.html" target="_top" xlink:title="Stub implementation of toy::application::CoreApplication::sleep() for platforms without OS sleep supp...">
<polygon fill="white" stroke="#666666" points="305.19,-96 148.19,-96 148.19,-55 305.19,-55 305.19,-96"/>
<text text-anchor="start" x="156.19" y="-84" font-family="Helvetica,sans-Serif" font-size="10.00">src/platforms/stub</text>
<text text-anchor="start" x="156.19" y="-73" font-family="Helvetica,sans-Serif" font-size="10.00">/application/core_application</text>
<text text-anchor="middle" x="226.69" y="-62" font-family="Helvetica,sans-Serif" font-size="10.00">_stub.cpp</text>
</a>
</g>
</g>
<!-- Node3&#45;&gt;Node6 -->
<g id="edge5_Node000003_Node000006" class="edge">
<title>Node3&#45;&gt;Node6</title>
<g id="a_edge5_Node000003_Node000006"><a xlink:title=" ">
<path fill="none" stroke="#63b8ff" d="M167.7,-130.45C178.77,-120.32 193.3,-107.03 205.17,-96.17"/>
<polygon fill="#63b8ff" stroke="#63b8ff" points="165.02,-128.15 160.01,-137.48 169.75,-133.31 165.02,-128.15"/>
</a>
</g>
</g>
<!-- Node7&#45;&gt;Node4 -->
<g id="edge7_Node000007_Node000004" class="edge">
<title>Node7&#45;&gt;Node4</title>
<g id="a_edge7_Node000007_Node000004"><a xlink:title=" ">
<path fill="none" stroke="#63b8ff" d="M439.46,-61.19C463.89,-48.59 499.88,-30.01 520.83,-19.2"/>
<polygon fill="#63b8ff" stroke="#63b8ff" points="437.69,-58.17 430.41,-65.87 440.9,-64.39 437.69,-58.17"/>
</a>
</g>
</g>
<!-- Node9&#45;&gt;Node4 -->
<g id="edge12_Node000009_Node000004" class="edge">
<title>Node9&#45;&gt;Node4</title>
<g id="a_edge12_Node000009_Node000004"><a xlink:title=" ">
<path fill="none" stroke="#63b8ff" d="M559.57,-133.5C541.96,-125.69 522.86,-113.68 512.69,-96 497.88,-70.26 519.35,-35.04 531,-19.03"/>
<polygon fill="#63b8ff" stroke="#63b8ff" points="558.56,-136.87 569.14,-137.41 561.21,-130.39 558.56,-136.87"/>
</a>
</g>
</g>
<!-- Node10 -->
<g id="Node000010" class="node">
<title>Node10</title>
<g id="a_Node000010"><a xlink:href="../../db/dbb/geometry_8hpp.html" target="_top" xlink:title="Umbrella header for the geometry module.">
<polygon fill="white" stroke="#666666" points="643.69,-85 521.69,-85 521.69,-66 643.69,-66 643.69,-85"/>
<text text-anchor="middle" x="582.69" y="-73" font-family="Helvetica,sans-Serif" font-size="10.00">include/geometry.hpp</text>
</a>
</g>
</g>
<!-- Node9&#45;&gt;Node10 -->
<g id="edge10_Node000009_Node000010" class="edge">
<title>Node9&#45;&gt;Node10</title>
<g id="a_edge10_Node000009_Node000010"><a xlink:title=" ">
<path fill="none" stroke="#63b8ff" d="M594.46,-127.62C591.29,-113.86 587.1,-95.65 584.66,-85.09"/>
<polygon fill="#63b8ff" stroke="#63b8ff" points="591.07,-128.52 596.72,-137.48 597.89,-126.95 591.07,-128.52"/>
</a>
</g>
</g>
<!-- Node10&#45;&gt;Node4 -->
<g id="edge11_Node000010_Node000004" class="edge">
<title>Node10&#45;&gt;Node4</title>
<g id="a_edge11_Node000010_Node000004"><a xlink:title=" ">
<path fill="none" stroke="#63b8ff" d="M570.67,-57.41C562.07,-45.18 550.84,-29.2 543.95,-19.41"/>
<polygon fill="#63b8ff" stroke="#63b8ff" points="568,-59.7 576.62,-65.87 573.73,-55.68 568,-59.7"/>
</a>
</g>
</g>
<!-- Node11&#45;&gt;Node4 -->
<g id="edge14_Node000011_Node000004" class="edge">
<title>Node11&#45;&gt;Node4</title>
<g id="a_edge14_Node000011_Node000004"><a xlink:title=" ">
<path fill="none" stroke="#63b8ff" d="M713.87,-129.24C697.25,-106.03 667.33,-65.72 652.69,-55 628.85,-37.55 597.29,-25.98 573.27,-19.02"/>
<polygon fill="#63b8ff" stroke="#63b8ff" points="711.08,-131.35 719.73,-137.48 716.79,-127.3 711.08,-131.35"/>
</a>
</g>
</g>
<!-- Node12 -->
<g id="Node000012" class="node">
<title>Node12</title>
<g id="a_Node000012"><a xlink:href="../../d3/d80/endpoint_8cpp.html" target="_top" xlink:title="Definitions for the toy::network::Endpoint destructor declared in network/endpoint....">
<polygon fill="white" stroke="#666666" points="839.69,-85 699.69,-85 699.69,-66 839.69,-66 839.69,-85"/>
<text text-anchor="middle" x="769.69" y="-73" font-family="Helvetica,sans-Serif" font-size="10.00">src/network/endpoint.cpp</text>
</a>
</g>
</g>
<!-- Node11&#45;&gt;Node12 -->
<g id="edge15_Node000011_Node000012" class="edge">
<title>Node11&#45;&gt;Node12</title>
<g id="a_edge15_Node000011_Node000012"><a xlink:title=" ">
<path fill="none" stroke="#63b8ff" d="M736.55,-128.84C745.35,-114.95 757.36,-95.96 764.25,-85.09"/>
<polygon fill="#63b8ff" stroke="#63b8ff" points="733.47,-127.16 731.08,-137.48 739.39,-130.9 733.47,-127.16"/>
</a>
</g>
</g>
<!-- Node13&#45;&gt;Node4 -->
<g id="edge17_Node000013_Node000004" class="edge">
<title>Node13&#45;&gt;Node4</title>
<g id="a_edge17_Node000013_Node000004"><a xlink:title=" ">
<path fill="none" stroke="#63b8ff" d="M883.44,-63.25C872.27,-60.3 860.05,-57.3 848.69,-55 761.95,-37.43 660.24,-24.25 597.37,-16.96"/>
<polygon fill="#63b8ff" stroke="#63b8ff" points="882.78,-66.7 893.34,-65.93 884.6,-59.94 882.78,-66.7"/>
</a>
</g>
</g>
<!-- Node14&#45;&gt;Node4 -->
<g id="edge19_Node000014_Node000004" class="edge">
<title>Node14&#45;&gt;Node4</title>
<g id="a_edge19_Node000014_Node000004"><a xlink:title=" ">
<path fill="none" stroke="#63b8ff" d="M943.96,-134.11C963.95,-126.65 984.95,-114.75 996.69,-96 1006.36,-80.56 1008.93,-68.49 996.69,-55 970.35,-25.99 715.92,-15.33 597.62,-11.91"/>
<polygon fill="#63b8ff" stroke="#63b8ff" points="942.6,-130.87 934.27,-137.42 944.87,-137.49 942.6,-130.87"/>
</a>
</g>
</g>
<!-- Node15 -->
<g id="Node000015" class="node">
<title>Node15</title>
<g id="a_Node000015"><a xlink:href="../../db/d3d/pixel__format_8cpp.html" target="_top" xlink:title="Definitions for pixelFormatName() and pixelFormatFromName() declared in render/pixel_format....">
<polygon fill="white" stroke="#666666" points="1193.69,-85 1043.69,-85 1043.69,-66 1193.69,-66 1193.69,-85"/>
<text text-anchor="middle" x="1118.69" y="-73" font-family="Helvetica,sans-Serif" font-size="10.00">src/render/pixel_format.cpp</text>
</a>
</g>
</g>
<!-- Node14&#45;&gt;Node15 -->
<g id="edge20_Node000014_Node000015" class="edge">
<title>Node14&#45;&gt;Node15</title>
<g id="a_edge20_Node000014_Node000015"><a xlink:title=" ">
<path fill="none" stroke="#63b8ff" d="M930.95,-134.49C975.95,-120.59 1050.6,-97.53 1090.87,-85.09"/>
<polygon fill="#63b8ff" stroke="#63b8ff" points="929.8,-131.18 921.28,-137.48 931.86,-137.87 929.8,-131.18"/>
</a>
</g>
</g>
</g>
</svg>
