<?xml version="1.0" encoding="UTF-8" standalone="no"?>
<!DOCTYPE svg PUBLIC "-//W3C//DTD SVG 1.1//EN"
 "http://www.w3.org/Graphics/SVG/1.1/DTD/svg11.dtd">
<!-- Generated by graphviz version 2.43.0 (0)
 -->
<!-- Title: include/core/bitwise_enum.inl Pages: 1 -->
<!--zoomable 291 -->

<svg id="main" version="1.1" xmlns="http://www.w3.org/2000/svg" xmlns:xlink="http://www.w3.org/1999/xlink" xml:space="preserve" onload="init(evt)">

<style type="text/css"><![CDATA[
.node, .edge {opacity: 0.7;}
.node.selected, .edge.selected {opacity: 1;}
.edge:hover path { stroke: red; }
.edge:hover polygon { stroke: red; fill: red; }
]]></style>

<defs>
  <circle id="rim" cx="0" cy="0" r="7"/>
  <circle id="rim2" cx="0" cy="0" r="3.5"/>
  <g id="zoomPlus">
    <use xlink:href="#rim" fill="#404040"><set attributeName="fill" to="#808080" begin="zoomplus.mouseover" end="zoomplus.mouseout"/></use>
    <path d="M-4,0h8M0,-4v8" fill="none" stroke="white" stroke-width="1.5" pointer-events="none"/>
  </g>
  <g id="zoomMin">
    <use xlink:href="#rim" fill="#404040"><set attributeName="fill" to="#808080" begin="zoomminus.mouseover" end="zoomminus.mouseout"/></use>
    <path d="M-4,0h8" fill="none" stroke="white" stroke-width="1.5" pointer-events="none"/>
  </g>
  <g id="arrowUp" transform="translate(30 24)">
    <use xlink:href="#rim"/>
    <path pointer-events="none" fill="none" stroke="white" stroke-width="1.5" d="M0,-3.0v7 M-2.5,-0.5L0,-3.0L2.5,-0.5"/>
  </g>
  <g id="arrowRight" transform="rotate(90) translate(36 -43)">
    <use xlink:href="#rim"/>
    <path pointer-events="none" fill="none" stroke="white" stroke-width="1.5" d="M0,-3.0v7 M-2.5,-0.5L0,-3.0L2.5,-0.5"/>
  </g>
  <g id="arrowDown" transform="rotate(180) translate(-30 -48)">
    <use xlink:href="#rim"/>
    <path pointer-events="none" fill="none" stroke="white" stroke-width="1.5" d="M0,-3.0v7 M-2.5,-0.5L0,-3.0L2.5,-0.5"/>
  </g>
  <g id="arrowLeft" transform="rotate(270) translate(-36 17)">
    <use xlink:href="#rim"/>
    <path pointer-events="none" fill="none" stroke="white" stroke-width="1.5" d="M0,-3.0v7 M-2.5,-0.5L0,-3.0L2.5,-0.5"/>
  </g>
  <g id="resetDef">
    <use xlink:href="#rim2" fill="#404040"><set attributeName="fill" to="#808080" begin="reset.mouseover" end="reset.mouseout"/></use>
  </g>
</defs>
<script type="application/ecmascript">
var viewWidth = 4086;
var viewHeight = 291;
var sectionId = 'dynsection-0';
</script>
<script type="application/ecmascript" xlink:href="../../svg.min.js"/>
<svg id="graph" class="graph">
<g id="viewport">
<title>include/core/bitwise_enum.inl</title>
<!-- Node1 -->
<g id="Node000001" class="node">
<title>Node1</title>
<g id="a_Node000001"><a xlink:title="Inline implementations for toy::EnableBitwiseOperators and scoped&#45;enum bitwise operators.">
<polygon fill="#999999" stroke="#666666" points="2420.42,-283 2306.42,-283 2306.42,-253 2420.42,-253 2420.42,-283"/>
<text text-anchor="start" x="2314.42" y="-271" font-family="Helvetica,sans-Serif" font-size="10.00">include/core/bitwise</text>
<text text-anchor="middle" x="2363.42" y="-260" font-family="Helvetica,sans-Serif" font-size="10.00">_enum.inl</text>
</a>
</g>
</g>
<!-- Node2 -->
<g id="Node000002" class="node">
<title>Node2</title>
<g id="a_Node000002"><a xlink:href="../../da/d47/core_8hpp.html" target="_top" xlink:title="Umbrella header for the engine core module.">
<polygon fill="white" stroke="#666666" points="2411.92,-217 2314.92,-217 2314.92,-198 2411.92,-198 2411.92,-217"/>
<text text-anchor="middle" x="2363.42" y="-205" font-family="Helvetica,sans-Serif" font-size="10.00">include/core.hpp</text>
</a>
</g>
</g>
<!-- Node1&#45;&gt;Node2 -->
<g id="edge1_Node000001_Node000002" class="edge">
<title>Node1&#45;&gt;Node2</title>
<g id="a_edge1_Node000001_Node000002"><a xlink:title=" ">
<path fill="none" stroke="#63b8ff" d="M2363.42,-242.75C2363.42,-233.72 2363.42,-224.03 2363.42,-217.27"/>
<polygon fill="#63b8ff" stroke="#63b8ff" points="2359.92,-242.84 2363.42,-252.84 2366.92,-242.84 2359.92,-242.84"/>
</a>
</g>
</g>
<!-- Node3 -->
<g id="Node000003" class="node">
<title>Node3</title>
<g id="a_Node000003"><a xlink:href="../../d4/d01/application_8hpp.html" target="_top" xlink:title="Umbrella header for the application module.">
<polygon fill="white" stroke="#666666" points="704.42,-156.5 574.42,-156.5 574.42,-137.5 704.42,-137.5 704.42,-156.5"/>
<text text-anchor="middle" x="639.42" y="-144.5" font-family="Helvetica,sans-Serif" font-size="10.00">include/application.hpp</text>
</a>
</g>
</g>
<!-- Node2&#45;&gt;Node3 -->
<g id="edge2_Node000002_Node000003" class="edge">
<title>Node2&#45;&gt;Node3</title>
<g id="a_edge2_Node000002_Node000003"><a xlink:title=" ">
<path fill="none" stroke="#63b8ff" d="M2304.51,-204.5C2041.95,-195.59 979.23,-159.53 704.51,-150.21"/>
<polygon fill="#63b8ff" stroke="#63b8ff" points="2304.49,-208 2314.6,-204.84 2304.73,-201.01 2304.49,-208"/>
</a>
</g>
</g>
<!-- Node4 -->
<g id="Node000004" class="node">
<title>Node4</title>
<g id="a_Node000004"><a xlink:href="../../d8/d8c/toygine2_8hpp.html" target="_top" xlink:title="Main umbrella header for the engine.">
<polygon fill="white" stroke="#666666" points="1687.92,-19 1568.92,-19 1568.92,0 1687.92,0 1687.92,-19"/>
<text text-anchor="middle" x="1628.42" y="-7" font-family="Helvetica,sans-Serif" font-size="10.00">include/toygine2.hpp</text>
</a>
</g>
</g>
<!-- Node2&#45;&gt;Node4 -->
<g id="edge28_Node000002_Node000004" class="edge">
<title>Node2&#45;&gt;Node4</title>
<g id="a_edge28_Node000002_Node000004"><a xlink:title=" ">
<path fill="none" stroke="#63b8ff" d="M2304.79,-206.26C2137.85,-205.13 1662.36,-198.68 1511.42,-162 1442.23,-145.19 1404.04,-155.83 1365.42,-96 1355.54,-80.69 1353.66,-68.92 1365.42,-55 1390.94,-24.8 1499.42,-15.09 1568.84,-11.97"/>
<polygon fill="#63b8ff" stroke="#63b8ff" points="2304.84,-209.76 2314.86,-206.32 2304.88,-202.76 2304.84,-209.76"/>
</a>
</g>
</g>
<!-- Node13 -->
<g id="Node000013" class="node">
<title>Node13</title>
<g id="a_Node000013"><a xlink:href="../../d1/d71/audio_8hpp.html" target="_top" xlink:title="Umbrella header for the audio module.">
<polygon fill="white" stroke="#666666" points="1477.92,-85 1374.92,-85 1374.92,-66 1477.92,-66 1477.92,-85"/>
<text text-anchor="middle" x="1426.42" y="-73" font-family="Helvetica,sans-Serif" font-size="10.00">include/audio.hpp</text>
</a>
</g>
</g>
<!-- Node2&#45;&gt;Node13 -->
<g id="edge12_Node000002_Node000013" class="edge">
<title>Node2&#45;&gt;Node13</title>
<g id="a_edge12_Node000002_Node000013"><a xlink:title=" ">
<path fill="none" stroke="#63b8ff" d="M2304.41,-206.52C2146.48,-206.03 1716.98,-201.05 1581.42,-162 1522.95,-145.16 1462.21,-103.22 1437.68,-85.08"/>
<polygon fill="#63b8ff" stroke="#63b8ff" points="2304.85,-210.02 2314.86,-206.55 2304.87,-203.02 2304.85,-210.02"/>
</a>
</g>
</g>
<!-- Node14 -->
<g id="Node000014" class="node">
<title>Node14</title>
<g id="a_Node000014"><a xlink:href="../../d8/d39/game_8hpp.html" target="_top" xlink:title="Umbrella header for the game module.">
<polygon fill="white" stroke="#666666" points="1600.42,-85 1496.42,-85 1496.42,-66 1600.42,-66 1600.42,-85"/>
<text text-anchor="middle" x="1548.42" y="-73" font-family="Helvetica,sans-Serif" font-size="10.00">include/game.hpp</text>
</a>
</g>
</g>
<!-- Node2&#45;&gt;Node14 -->
<g id="edge14_Node000002_Node000014" class="edge">
<title>Node2&#45;&gt;Node14</title>
<g id="a_edge14_Node000002_Node000014"><a xlink:title=" ">
<path fill="none" stroke="#63b8ff" d="M2304.45,-205.66C2139.22,-202.92 1679.86,-192.6 1619.42,-162 1585.34,-144.74 1561.51,-103.03 1552.46,-85.02"/>
<polygon fill="#63b8ff" stroke="#63b8ff" points="2304.85,-209.16 2314.9,-205.83 2304.96,-202.16 2304.85,-209.16"/>
</a>
</g>
</g>
<!-- Node15 -->
<g id="Node000015" class="node">
<title>Node15</title>
<g id="a_Node000015"><a xlink:href="../../d4/d78/math_8hpp.html" target="_top" xlink:title="Umbrella header for the math module.">
<polygon fill="white" stroke="#666666" points="1729.92,-156.5 1628.92,-156.5 1628.92,-137.5 1729.92,-137.5 1729.92,-156.5"/>
<text text-anchor="middle" x="1679.42" y="-144.5" font-family="Helvetica,sans-Serif" font-size="10.00">include/math.hpp</text>
</a>
</g>
</g>
<!-- Node2&#45;&gt;Node15 -->
<g id="edge16_Node000002_Node000015" class="edge">
<title>Node2&#45;&gt;Node15</title>
<g id="a_edge16_Node000002_Node000015"><a xlink:title=" ">
<path fill="none" stroke="#63b8ff" d="M2304.26,-205.39C2193.03,-202.62 1945.4,-193.18 1739.42,-162 1730.33,-160.62 1720.57,-158.59 1711.63,-156.5"/>
<polygon fill="#63b8ff" stroke="#63b8ff" points="2304.51,-208.9 2314.59,-205.64 2304.68,-201.9 2304.51,-208.9"/>
</a>
</g>
</g>
<!-- Node17 -->
<g id="Node000017" class="node">
<title>Node17</title>
<g id="a_Node000017"><a xlink:href="../../d6/d67/network_8hpp.html" target="_top" xlink:title="Umbrella header for the network module.">
<polygon fill="white" stroke="#666666" points="1864.42,-156.5 1748.42,-156.5 1748.42,-137.5 1864.42,-137.5 1864.42,-156.5"/>
<text text-anchor="middle" x="1806.42" y="-144.5" font-family="Helvetica,sans-Serif" font-size="10.00">include/network.hpp</text>
</a>
</g>
</g>
<!-- Node2&#45;&gt;Node17 -->
<g id="edge20_Node000002_Node000017" class="edge">
<title>Node2&#45;&gt;Node17</title>
<g id="a_edge20_Node000002_Node000017"><a xlink:title=" ">
<path fill="none" stroke="#63b8ff" d="M2304.53,-203.01C2213.04,-197.17 2031.36,-183.83 1878.42,-162 1868.09,-160.52 1856.98,-158.56 1846.67,-156.57"/>
<polygon fill="#63b8ff" stroke="#63b8ff" points="2304.5,-206.52 2314.7,-203.66 2304.94,-199.53 2304.5,-206.52"/>
</a>
</g>
</g>
<!-- Node19 -->
<g id="Node000019" class="node">
<title>Node19</title>
<g id="a_Node000019"><a xlink:href="../../de/dd6/ui_8hpp.html" target="_top" xlink:title="Umbrella header for platform UI types.">
<polygon fill="white" stroke="#666666" points="2122.42,-85 1992.42,-85 1992.42,-66 2122.42,-66 2122.42,-85"/>
<text text-anchor="middle" x="2057.42" y="-73" font-family="Helvetica,sans-Serif" font-size="10.00">include/platform/ui.hpp</text>
</a>
</g>
</g>
<!-- Node2&#45;&gt;Node19 -->
<g id="edge23_Node000002_Node000019" class="edge">
<title>Node2&#45;&gt;Node19</title>
<g id="a_edge23_Node000002_Node000019"><a xlink:title=" ">
<path fill="none" stroke="#63b8ff" d="M2304.69,-205.01C2188.52,-201.46 1938.29,-190.54 1912.42,-162 1903.47,-152.12 1904.87,-142.98 1912.42,-132 1925.26,-113.35 1983.69,-95.27 2022.35,-85.05"/>
<polygon fill="#63b8ff" stroke="#63b8ff" points="2304.74,-208.51 2314.84,-205.31 2304.95,-201.52 2304.74,-208.51"/>
</a>
</g>
</g>
<!-- Node20 -->
<g id="Node000020" class="node">
<title>Node20</title>
<g id="a_Node000020"><a xlink:href="../../d6/d4b/render_8hpp.html" target="_top" xlink:title="Umbrella header for the render module.">
<polygon fill="white" stroke="#666666" points="2027.92,-156.5 1920.92,-156.5 1920.92,-137.5 2027.92,-137.5 2027.92,-156.5"/>
<text text-anchor="middle" x="1974.42" y="-144.5" font-family="Helvetica,sans-Serif" font-size="10.00">include/render.hpp</text>
</a>
</g>
</g>
<!-- Node2&#45;&gt;Node20 -->
<g id="edge25_Node000002_Node000020" class="edge">
<title>Node2&#45;&gt;Node20</title>
<g id="a_edge25_Node000002_Node000020"><a xlink:title=" ">
<path fill="none" stroke="#63b8ff" d="M2304.78,-199.98C2239.34,-192.36 2130.43,-178.65 2037.42,-162 2028.6,-160.42 2019.14,-158.46 2010.3,-156.51"/>
<polygon fill="#63b8ff" stroke="#63b8ff" points="2304.56,-203.48 2314.9,-201.15 2305.37,-196.53 2304.56,-203.48"/>
</a>
</g>
</g>
<!-- Node22 -->
<g id="Node000022" class="node">
<title>Node22</title>
<g id="a_Node000022"><a xlink:href="../../da/de0/core_8cpp.html" target="_top" xlink:title="Implementation of toy::initialize() and toy::deInitialize() lifecycle functions.">
<polygon fill="white" stroke="#666666" points="2144.92,-156.5 2045.92,-156.5 2045.92,-137.5 2144.92,-137.5 2144.92,-156.5"/>
<text text-anchor="middle" x="2095.42" y="-144.5" font-family="Helvetica,sans-Serif" font-size="10.00">src/core/core.cpp</text>
</a>
</g>
</g>
<!-- Node2&#45;&gt;Node22 -->
<g id="edge29_Node000002_Node000022" class="edge">
<title>Node2&#45;&gt;Node22</title>
<g id="a_edge29_Node000002_Node000022"><a xlink:title=" ">
<path fill="none" stroke="#63b8ff" d="M2311.92,-195.88C2269.58,-187.07 2208.03,-174.07 2154.42,-162 2146.82,-160.29 2138.69,-158.4 2130.96,-156.57"/>
<polygon fill="#63b8ff" stroke="#63b8ff" points="2311.22,-199.31 2321.72,-197.92 2312.65,-192.46 2311.22,-199.31"/>
</a>
</g>
</g>
<!-- Node23 -->
<g id="Node000023" class="node">
<title>Node23</title>
<g id="a_Node000023"><a xlink:href="../../db/d2d/hashes_8cpp.html" target="_top" xlink:title="Table&#45;driven implementations of toy::crc8(), toy::crc16(), and toy::crc32().">
<polygon fill="white" stroke="#666666" points="2275.92,-156.5 2162.92,-156.5 2162.92,-137.5 2275.92,-137.5 2275.92,-156.5"/>
<text text-anchor="middle" x="2219.42" y="-144.5" font-family="Helvetica,sans-Serif" font-size="10.00">src/core/hashes.cpp</text>
</a>
</g>
</g>
<!-- Node2&#45;&gt;Node23 -->
<g id="edge30_Node000002_Node000023" class="edge">
<title>Node2&#45;&gt;Node23</title>
<g id="a_edge30_Node000002_Node000023"><a xlink:title=" ">
<path fill="none" stroke="#63b8ff" d="M2332.85,-194.08C2305.04,-182.78 2264.71,-166.4 2240.39,-156.52"/>
<polygon fill="#63b8ff" stroke="#63b8ff" points="2331.9,-197.47 2342.48,-197.99 2334.54,-190.99 2331.9,-197.47"/>
</a>
</g>
</g>
<!-- Node24 -->
<g id="Node000024" class="node">
<title>Node24</title>
<g id="a_Node000024"><a xlink:href="../../d8/d34/log__backend_8cpp.html" target="_top" xlink:title="Implementation of toy::log::Backend lifecycle, sink, and timestamp&#45;policy accessors.">
<polygon fill="white" stroke="#666666" points="2432.92,-156.5 2293.92,-156.5 2293.92,-137.5 2432.92,-137.5 2432.92,-156.5"/>
<text text-anchor="middle" x="2363.42" y="-144.5" font-family="Helvetica,sans-Serif" font-size="10.00">src/core/log_backend.cpp</text>
</a>
</g>
</g>
<!-- Node2&#45;&gt;Node24 -->
<g id="edge31_Node000002_Node000024" class="edge">
<title>Node2&#45;&gt;Node24</title>
<g id="a_edge31_Node000002_Node000024"><a xlink:title=" ">
<path fill="none" stroke="#63b8ff" d="M2363.42,-187.66C2363.42,-177.24 2363.42,-164.8 2363.42,-156.67"/>
<polygon fill="#63b8ff" stroke="#63b8ff" points="2359.92,-187.87 2363.42,-197.87 2366.92,-187.87 2359.92,-187.87"/>
</a>
</g>
</g>
<!-- Node25 -->
<g id="Node000025" class="node">
<title>Node25</title>
<g id="a_Node000025"><a xlink:href="../../d2/d51/log__sink_8cpp.html" target="_top" xlink:title="Out&#45;of&#45;line definitions for toy::log::ISink.">
<polygon fill="white" stroke="#666666" points="2569.92,-156.5 2450.92,-156.5 2450.92,-137.5 2569.92,-137.5 2569.92,-156.5"/>
<text text-anchor="middle" x="2510.42" y="-144.5" font-family="Helvetica,sans-Serif" font-size="10.00">src/core/log_sink.cpp</text>
</a>
</g>
</g>
<!-- Node2&#45;&gt;Node25 -->
<g id="edge32_Node000002_Node000025" class="edge">
<title>Node2&#45;&gt;Node25</title>
<g id="a_edge32_Node000002_Node000025"><a xlink:title=" ">
<path fill="none" stroke="#63b8ff" d="M2394.26,-194.23C2422.66,-182.92 2464.08,-166.44 2489.02,-156.52"/>
<polygon fill="#63b8ff" stroke="#63b8ff" points="2392.8,-191.04 2384.8,-197.99 2395.38,-197.55 2392.8,-191.04"/>
</a>
</g>
</g>
<!-- Node26 -->
<g id="Node000026" class="node">
<title>Node26</title>
<g id="a_Node000026"><a xlink:href="../../de/d06/utils_8cpp.html" target="_top" xlink:title="Definitions for string, encoding, and number utilities declared in core/utils.hpp.">
<polygon fill="white" stroke="#666666" points="2686.92,-156.5 2587.92,-156.5 2587.92,-137.5 2686.92,-137.5 2686.92,-156.5"/>
<text text-anchor="middle" x="2637.42" y="-144.5" font-family="Helvetica,sans-Serif" font-size="10.00">src/core/utils.cpp</text>
</a>
</g>
</g>
<!-- Node2&#45;&gt;Node26 -->
<g id="edge33_Node000002_Node000026" class="edge">
<title>Node2&#45;&gt;Node26</title>
<g id="a_edge33_Node000002_Node000026"><a xlink:title=" ">
<path fill="none" stroke="#63b8ff" d="M2416.81,-196.02C2460.59,-187.3 2524.13,-174.36 2579.42,-162 2587,-160.3 2595.12,-158.4 2602.81,-156.56"/>
<polygon fill="#63b8ff" stroke="#63b8ff" points="2416.08,-192.6 2406.96,-197.98 2417.45,-199.46 2416.08,-192.6"/>
</a>
</g>
</g>
<!-- Node27 -->
<g id="Node000027" class="node">
<title>Node27</title>
<g id="a_Node000027"><a xlink:href="../../df/de5/assertion__linux_8cpp.html" target="_top" xlink:title="Linux implementation of the toy::assertion crash handler and stack trace capture.">
<polygon fill="white" stroke="#666666" points="2843.42,-162 2705.42,-162 2705.42,-132 2843.42,-132 2843.42,-162"/>
<text text-anchor="start" x="2713.42" y="-150" font-family="Helvetica,sans-Serif" font-size="10.00">src/platforms/linux</text>
<text text-anchor="middle" x="2774.42" y="-139" font-family="Helvetica,sans-Serif" font-size="10.00">/core/assertion_linux.cpp</text>
</a>
</g>
</g>
<!-- Node2&#45;&gt;Node27 -->
<g id="edge34_Node000002_Node000027" class="edge">
<title>Node2&#45;&gt;Node27</title>
<g id="a_edge34_Node000002_Node000027"><a xlink:title=" ">
<path fill="none" stroke="#63b8ff" d="M2422.35,-199.43C2488.99,-191.26 2600.7,-176.98 2696.42,-162 2699.28,-161.55 2702.19,-161.09 2705.13,-160.6"/>
<polygon fill="#63b8ff" stroke="#63b8ff" points="2421.55,-196.01 2412.05,-200.69 2422.4,-202.95 2421.55,-196.01"/>
</a>
</g>
</g>
<!-- Node28 -->
<g id="Node000028" class="node">
<title>Node28</title>
<g id="a_Node000028"><a xlink:href="../../d5/d5a/assertion__macos_8cpp.html" target="_top" xlink:title="macOS implementation of the toy::assertion crash handler and stack trace capture.">
<polygon fill="white" stroke="#666666" points="3007.42,-162 2861.42,-162 2861.42,-132 3007.42,-132 3007.42,-162"/>
<text text-anchor="start" x="2869.42" y="-150" font-family="Helvetica,sans-Serif" font-size="10.00">src/platforms/macos</text>
<text text-anchor="middle" x="2934.42" y="-139" font-family="Helvetica,sans-Serif" font-size="10.00">/core/assertion_macos.cpp</text>
</a>
</g>
</g>
<!-- Node2&#45;&gt;Node28 -->
<g id="edge35_Node000002_Node000028" class="edge">
<title>Node2&#45;&gt;Node28</title>
<g id="a_edge35_Node000002_Node000028"><a xlink:title=" ">
<path fill="none" stroke="#63b8ff" d="M2422.38,-202.63C2514.43,-196.26 2697.78,-182.21 2852.42,-162 2855.29,-161.63 2858.2,-161.22 2861.15,-160.8"/>
<polygon fill="#63b8ff" stroke="#63b8ff" points="2421.88,-199.16 2412.15,-203.34 2422.36,-206.14 2421.88,-199.16"/>
</a>
</g>
</g>
<!-- Node29 -->
<g id="Node000029" class="node">
<title>Node29</title>
<g id="a_Node000029"><a xlink:href="../../d6/d79/clock__source__posix_8cpp.html" target="_top" xlink:title="Implementation of toy::chrono::ClockSource and toy::chrono::SteadyClock for POSIX.">
<polygon fill="white" stroke="#666666" points="3183.42,-162 3025.42,-162 3025.42,-132 3183.42,-132 3183.42,-162"/>
<text text-anchor="start" x="3033.42" y="-150" font-family="Helvetica,sans-Serif" font-size="10.00">src/platforms/posix</text>
<text text-anchor="middle" x="3104.42" y="-139" font-family="Helvetica,sans-Serif" font-size="10.00">/core/clock_source_posix.cpp</text>
</a>
</g>
</g>
<!-- Node2&#45;&gt;Node29 -->
<g id="edge36_Node000002_Node000029" class="edge">
<title>Node2&#45;&gt;Node29</title>
<g id="a_edge36_Node000002_Node000029"><a xlink:title=" ">
<path fill="none" stroke="#63b8ff" d="M2422.62,-204.25C2537.43,-199.48 2798.27,-186.74 3016.42,-162 3019.34,-161.67 3022.32,-161.31 3025.31,-160.93"/>
<polygon fill="#63b8ff" stroke="#63b8ff" points="2422.15,-200.76 2412.3,-204.67 2422.43,-207.76 2422.15,-200.76"/>
</a>
</g>
</g>
<!-- Node30 -->
<g id="Node000030" class="node">
<title>Node30</title>
<g id="a_Node000030"><a xlink:href="../../db/d09/system__clock__posix_8cpp.html" target="_top" xlink:title="Implementation of toy::chrono::SystemClock for POSIX.">
<polygon fill="white" stroke="#666666" points="3363.42,-162 3201.42,-162 3201.42,-132 3363.42,-132 3363.42,-162"/>
<text text-anchor="start" x="3209.42" y="-150" font-family="Helvetica,sans-Serif" font-size="10.00">src/platforms/posix</text>
<text text-anchor="middle" x="3282.42" y="-139" font-family="Helvetica,sans-Serif" font-size="10.00">/core/system_clock_posix.cpp</text>
</a>
</g>
</g>
<!-- Node2&#45;&gt;Node30 -->
<g id="edge37_Node000002_Node000030" class="edge">
<title>Node2&#45;&gt;Node30</title>
<g id="a_edge37_Node000002_Node000030"><a xlink:title=" ">
<path fill="none" stroke="#63b8ff" d="M2422.34,-205.37C2558.35,-202.33 2904.62,-192.03 3192.42,-162 3195.25,-161.7 3198.13,-161.38 3201.04,-161.04"/>
<polygon fill="#63b8ff" stroke="#63b8ff" points="2422.07,-201.88 2412.15,-205.6 2422.22,-208.88 2422.07,-201.88"/>
</a>
</g>
</g>
<!-- Node31 -->
<g id="Node000031" class="node">
<title>Node31</title>
<g id="a_Node000031"><a xlink:href="../../d7/d90/assertion__stub_8cpp.html" target="_top" xlink:title="Stub definitions for the assertion callback API declared in core/assertion.hpp.">
<polygon fill="white" stroke="#666666" points="3516.92,-162 3381.92,-162 3381.92,-132 3516.92,-132 3516.92,-162"/>
<text text-anchor="start" x="3389.92" y="-150" font-family="Helvetica,sans-Serif" font-size="10.00">src/platforms/stub</text>
<text text-anchor="middle" x="3449.42" y="-139" font-family="Helvetica,sans-Serif" font-size="10.00">/core/assertion_stub.cpp</text>
</a>
</g>
</g>
<!-- Node2&#45;&gt;Node31 -->
<g id="edge38_Node000002_Node000031" class="edge">
<title>Node2&#45;&gt;Node31</title>
<g id="a_edge38_Node000002_Node000031"><a xlink:title=" ">
<path fill="none" stroke="#63b8ff" d="M2422.47,-206.69C2578.28,-206.59 3013.24,-202.39 3372.42,-162 3375.53,-161.65 3378.7,-161.25 3381.89,-160.81"/>
<polygon fill="#63b8ff" stroke="#63b8ff" points="2422.17,-203.19 2412.17,-206.69 2422.17,-210.19 2422.17,-203.19"/>
</a>
</g>
</g>
<!-- Node32 -->
<g id="Node000032" class="node">
<title>Node32</title>
<g id="a_Node000032"><a xlink:href="../../d4/dbf/clock__source__stub_8cpp.html" target="_top" xlink:title="Stub implementations of toy::chrono::ClockSource, toy::chrono::SteadyClock, and toy::chrono::SystemCl...">
<polygon fill="white" stroke="#666666" points="3687.92,-162 3534.92,-162 3534.92,-132 3687.92,-132 3687.92,-162"/>
<text text-anchor="start" x="3542.92" y="-150" font-family="Helvetica,sans-Serif" font-size="10.00">src/platforms/stub</text>
<text text-anchor="middle" x="3611.42" y="-139" font-family="Helvetica,sans-Serif" font-size="10.00">/core/clock_source_stub.cpp</text>
</a>
</g>
</g>
<!-- Node2&#45;&gt;Node32 -->
<g id="edge39_Node000002_Node000032" class="edge">
<title>Node2&#45;&gt;Node32</title>
<g id="a_edge39_Node000002_Node000032"><a xlink:title=" ">
<path fill="none" stroke="#63b8ff" d="M2422.08,-206.84C2592.9,-207.28 3104.58,-204.64 3526.42,-162 3529.1,-161.73 3531.82,-161.43 3534.57,-161.1"/>
<polygon fill="#63b8ff" stroke="#63b8ff" points="2422.05,-203.34 2412.04,-206.81 2422.03,-210.34 2422.05,-203.34"/>
</a>
</g>
</g>
<!-- Node33 -->
<g id="Node000033" class="node">
<title>Node33</title>
<g id="a_Node000033"><a xlink:href="../../d0/db3/clock__source__windows_8cpp.html" target="_top" xlink:title="Implementation of toy::chrono::ClockSource and toy::chrono::SteadyClock for Windows.">
<polygon fill="white" stroke="#666666" points="3880.92,-162 3705.92,-162 3705.92,-132 3880.92,-132 3880.92,-162"/>
<text text-anchor="start" x="3713.92" y="-150" font-family="Helvetica,sans-Serif" font-size="10.00">src/platforms/windows</text>
<text text-anchor="middle" x="3793.42" y="-139" font-family="Helvetica,sans-Serif" font-size="10.00">/core/clock_source_windows.cpp</text>
</a>
</g>
</g>
<!-- Node2&#45;&gt;Node33 -->
<g id="edge40_Node000002_Node000033" class="edge">
<title>Node2&#45;&gt;Node33</title>
<g id="a_edge40_Node000002_Node000033"><a xlink:title=" ">
<path fill="none" stroke="#63b8ff" d="M2422.15,-206.87C2608.92,-207.56 3205.86,-205.9 3697.42,-162 3700.19,-161.75 3703,-161.48 3705.84,-161.18"/>
<polygon fill="#63b8ff" stroke="#63b8ff" points="2422.01,-203.37 2412,-206.83 2421.98,-210.37 2422.01,-203.37"/>
</a>
</g>
</g>
<!-- Node34 -->
<g id="Node000034" class="node">
<title>Node34</title>
<g id="a_Node000034"><a xlink:href="../../d4/d3a/system__clock__windows_8cpp.html" target="_top" xlink:title="Implementation of toy::chrono::SystemClock for Windows.">
<polygon fill="white" stroke="#666666" points="4077.92,-162 3898.92,-162 3898.92,-132 4077.92,-132 4077.92,-162"/>
<text text-anchor="start" x="3906.92" y="-150" font-family="Helvetica,sans-Serif" font-size="10.00">src/platforms/windows</text>
<text text-anchor="middle" x="3988.42" y="-139" font-family="Helvetica,sans-Serif" font-size="10.00">/core/system_clock_windows.cpp</text>
</a>
</g>
</g>
<!-- Node2&#45;&gt;Node34 -->
<g id="edge41_Node000002_Node000034" class="edge">
<title>Node2&#45;&gt;Node34</title>
<g id="a_edge41_Node000002_Node000034"><a xlink:title=" ">
<path fill="none" stroke="#63b8ff" d="M2422.16,-205.68C2665.75,-202.12 3597.35,-187.12 3890.42,-162 3893.16,-161.77 3895.94,-161.5 3898.75,-161.22"/>
<polygon fill="#63b8ff" stroke="#63b8ff" points="2422.05,-202.18 2412.1,-205.82 2422.15,-209.18 2422.05,-202.18"/>
</a>
</g>
</g>
<!-- Node3&#45;&gt;Node4 -->
<g id="edge3_Node000003_Node000004" class="edge">
<title>Node3&#45;&gt;Node4</title>
<g id="a_edge3_Node000003_Node000004"><a xlink:title=" ">
<path fill="none" stroke="#63b8ff" d="M563.98,-145.62C404.85,-144.03 46.37,-136 9.42,-96 -2.94,-82.61 -3.28,-68.06 9.42,-55 37.13,-26.52 1279.07,-13.63 1568.56,-11.01"/>
<polygon fill="#63b8ff" stroke="#63b8ff" points="564.14,-149.12 574.17,-145.71 564.2,-142.12 564.14,-149.12"/>
</a>
</g>
</g>
<!-- Node5 -->
<g id="Node000005" class="node">
<title>Node5</title>
<g id="a_Node000005"><a xlink:href="../../d0/dbb/core__application_8cpp.html" target="_top" xlink:title="Implementations for toy::application::CoreApplication.">
<polygon fill="white" stroke="#666666" points="130.42,-90.5 18.42,-90.5 18.42,-60.5 130.42,-60.5 130.42,-90.5"/>
<text text-anchor="start" x="26.42" y="-78.5" font-family="Helvetica,sans-Serif" font-size="10.00">src/application/core</text>
<text text-anchor="middle" x="74.42" y="-67.5" font-family="Helvetica,sans-Serif" font-size="10.00">_application.cpp</text>
</a>
</g>
</g>
<!-- Node3&#45;&gt;Node5 -->
<g id="edge4_Node000003_Node000005" class="edge">
<title>Node3&#45;&gt;Node5</title>
<g id="a_edge4_Node000003_Node000005"><a xlink:title=" ">
<path fill="none" stroke="#63b8ff" d="M563.96,-142.96C465.49,-137.97 288.19,-125.47 139.42,-96 132.14,-94.56 124.51,-92.64 117.14,-90.58"/>
<polygon fill="#63b8ff" stroke="#63b8ff" points="563.95,-146.47 574.11,-143.46 564.3,-139.47 563.95,-146.47"/>
</a>
</g>
</g>
<!-- Node6 -->
<g id="Node000006" class="node">
<title>Node6</title>
<g id="a_Node000006"><a xlink:href="../../db/db6/console__application_8cpp.html" target="_top" xlink:title="Implementations for toy::application::ConsoleApplication.">
<polygon fill="white" stroke="#666666" points="275.92,-96 148.92,-96 148.92,-55 275.92,-55 275.92,-96"/>
<text text-anchor="start" x="156.92" y="-84" font-family="Helvetica,sans-Serif" font-size="10.00">src/platforms/common</text>
<text text-anchor="start" x="156.92" y="-73" font-family="Helvetica,sans-Serif" font-size="10.00">/application/console</text>
<text text-anchor="middle" x="212.42" y="-62" font-family="Helvetica,sans-Serif" font-size="10.00">_application.cpp</text>
</a>
</g>
</g>
<!-- Node3&#45;&gt;Node6 -->
<g id="edge5_Node000003_Node000006" class="edge">
<title>Node3&#45;&gt;Node6</title>
<g id="a_edge5_Node000003_Node000006"><a xlink:title=" ">
<path fill="none" stroke="#63b8ff" d="M563.77,-137.99C491.79,-129.75 380.64,-115.37 285.42,-96 282.34,-95.37 279.19,-94.69 276.02,-93.97"/>
<polygon fill="#63b8ff" stroke="#63b8ff" points="563.77,-141.52 574.1,-139.17 564.56,-134.56 563.77,-141.52"/>
</a>
</g>
</g>
<!-- Node7 -->
<g id="Node000007" class="node">
<title>Node7</title>
<g id="a_Node000007"><a xlink:href="../../da/d50/console__application__gba_8cpp.html" target="_top" xlink:title="GBA implementations of toy::application::ConsoleApplication.">
<polygon fill="white" stroke="#666666" points="454.42,-90.5 294.42,-90.5 294.42,-60.5 454.42,-60.5 454.42,-90.5"/>
<text text-anchor="start" x="302.42" y="-78.5" font-family="Helvetica,sans-Serif" font-size="10.00">src/platforms/gba/application</text>
<text text-anchor="middle" x="374.42" y="-67.5" font-family="Helvetica,sans-Serif" font-size="10.00">/console_application_gba.cpp</text>
</a>
</g>
</g>
<!-- Node3&#45;&gt;Node7 -->
<g id="edge6_Node000003_Node000007" class="edge">
<title>Node3&#45;&gt;Node7</title>
<g id="a_edge6_Node000003_Node000007"><a xlink:title=" ">
<path fill="none" stroke="#63b8ff" d="M597,-134.87C551.05,-122.82 477.67,-103.58 427.83,-90.51"/>
<polygon fill="#63b8ff" stroke="#63b8ff" points="596.37,-138.33 606.93,-137.48 598.14,-131.56 596.37,-138.33"/>
</a>
</g>
</g>
<!-- Node8 -->
<g id="Node000008" class="node">
<title>Node8</title>
<g id="a_Node000008"><a xlink:href="../../d0/d8a/core__application__linux_8cpp.html" target="_top" xlink:title="Linux implementations of toy::application::CoreApplication via POSIX APIs.">
<polygon fill="white" stroke="#666666" points="629.92,-96 472.92,-96 472.92,-55 629.92,-55 629.92,-96"/>
<text text-anchor="start" x="480.92" y="-84" font-family="Helvetica,sans-Serif" font-size="10.00">src/platforms/linux</text>
<text text-anchor="start" x="480.92" y="-73" font-family="Helvetica,sans-Serif" font-size="10.00">/application/core_application</text>
<text text-anchor="middle" x="551.42" y="-62" font-family="Helvetica,sans-Serif" font-size="10.00">_linux.cpp</text>
</a>
</g>
</g>
<!-- Node3&#45;&gt;Node8 -->
<g id="edge7_Node000003_Node000008" class="edge">
<title>Node3&#45;&gt;Node8</title>
<g id="a_edge7_Node000003_Node000008"><a xlink:title=" ">
<path fill="none" stroke="#63b8ff" d="M620.48,-131.04C607.57,-120.84 590.35,-107.24 576.33,-96.17"/>
<polygon fill="#63b8ff" stroke="#63b8ff" points="618.62,-134.03 628.63,-137.48 622.95,-128.53 618.62,-134.03"/>
</a>
</g>
</g>
<!-- Node9 -->
<g id="Node000009" class="node">
<title>Node9</title>
<g id="a_Node000009"><a xlink:href="../../d8/d89/core__application__macos_8cpp.html" target="_top" xlink:title="macOS implementations of toy::application::CoreApplication via POSIX APIs.">
<polygon fill="white" stroke="#666666" points="804.92,-96 647.92,-96 647.92,-55 804.92,-55 804.92,-96"/>
<text text-anchor="start" x="655.92" y="-84" font-family="Helvetica,sans-Serif" font-size="10.00">src/platforms/macos</text>
<text text-anchor="start" x="655.92" y="-73" font-family="Helvetica,sans-Serif" font-size="10.00">/application/core_application</text>
<text text-anchor="middle" x="726.42" y="-62" font-family="Helvetica,sans-Serif" font-size="10.00">_macos.cpp</text>
</a>
</g>
</g>
<!-- Node3&#45;&gt;Node9 -->
<g id="edge8_Node000003_Node000009" class="edge">
<title>Node3&#45;&gt;Node9</title>
<g id="a_edge8_Node000003_Node000009"><a xlink:title=" ">
<path fill="none" stroke="#63b8ff" d="M658.15,-131.04C670.91,-120.84 687.94,-107.24 701.8,-96.17"/>
<polygon fill="#63b8ff" stroke="#63b8ff" points="655.72,-128.5 650.09,-137.48 660.09,-133.97 655.72,-128.5"/>
</a>
</g>
</g>
<!-- Node10 -->
<g id="Node000010" class="node">
<title>Node10</title>
<g id="a_Node000010"><a xlink:href="../../db/da8/core__application__stub_8cpp.html" target="_top" xlink:title="Stub implementation of toy::application::CoreApplication::sleep() for platforms without OS sleep supp...">
<polygon fill="white" stroke="#666666" points="979.92,-96 822.92,-96 822.92,-55 979.92,-55 979.92,-96"/>
<text text-anchor="start" x="830.92" y="-84" font-family="Helvetica,sans-Serif" font-size="10.00">src/platforms/stub</text>
<text text-anchor="start" x="830.92" y="-73" font-family="Helvetica,sans-Serif" font-size="10.00">/application/core_application</text>
<text text-anchor="middle" x="901.42" y="-62" font-family="Helvetica,sans-Serif" font-size="10.00">_stub.cpp</text>
</a>
</g>
</g>
<!-- Node3&#45;&gt;Node10 -->
<g id="edge9_Node000003_Node000010" class="edge">
<title>Node3&#45;&gt;Node10</title>
<g id="a_edge9_Node000003_Node000010"><a xlink:title=" ">
<path fill="none" stroke="#63b8ff" d="M681.35,-134.88C720.72,-124.43 780.49,-108.58 827.81,-96.03"/>
<polygon fill="#63b8ff" stroke="#63b8ff" points="680.32,-131.53 671.55,-137.48 682.11,-138.3 680.32,-131.53"/>
</a>
</g>
</g>
<!-- Node11 -->
<g id="Node000011" class="node">
<title>Node11</title>
<g id="a_Node000011"><a xlink:href="../../df/dd0/console__application__windows_8cpp.html" target="_top" xlink:title="Windows console entry&#45;point argument conversion from UTF&#45;16 to UTF&#45;8.">
<polygon fill="white" stroke="#666666" points="1142.42,-96 998.42,-96 998.42,-55 1142.42,-55 1142.42,-96"/>
<text text-anchor="start" x="1006.42" y="-84" font-family="Helvetica,sans-Serif" font-size="10.00">src/platforms/windows</text>
<text text-anchor="start" x="1006.42" y="-73" font-family="Helvetica,sans-Serif" font-size="10.00">/application/console</text>
<text text-anchor="middle" x="1070.42" y="-62" font-family="Helvetica,sans-Serif" font-size="10.00">_application_windows.cpp</text>
</a>
</g>
</g>
<!-- Node3&#45;&gt;Node11 -->
<g id="edge10_Node000003_Node000011" class="edge">
<title>Node3&#45;&gt;Node11</title>
<g id="a_edge10_Node000003_Node000011"><a xlink:title=" ">
<path fill="none" stroke="#63b8ff" d="M714.86,-137.21C785.77,-128.47 894.72,-113.82 988.42,-96 991.59,-95.4 994.81,-94.76 998.06,-94.09"/>
<polygon fill="#63b8ff" stroke="#63b8ff" points="714.18,-133.77 704.68,-138.46 715.03,-140.71 714.18,-133.77"/>
</a>
</g>
</g>
<!-- Node12 -->
<g id="Node000012" class="node">
<title>Node12</title>
<g id="a_Node000012"><a xlink:href="../../dc/d2d/core__application__windows_8cpp.html" target="_top" xlink:title="Windows implementations of toy::application::CoreApplication via Win32 APIs.">
<polygon fill="white" stroke="#666666" points="1317.92,-96 1160.92,-96 1160.92,-55 1317.92,-55 1317.92,-96"/>
<text text-anchor="start" x="1168.92" y="-84" font-family="Helvetica,sans-Serif" font-size="10.00">src/platforms/windows</text>
<text text-anchor="start" x="1168.92" y="-73" font-family="Helvetica,sans-Serif" font-size="10.00">/application/core_application</text>
<text text-anchor="middle" x="1239.42" y="-62" font-family="Helvetica,sans-Serif" font-size="10.00">_windows.cpp</text>
</a>
</g>
</g>
<!-- Node3&#45;&gt;Node12 -->
<g id="edge11_Node000003_Node000012" class="edge">
<title>Node3&#45;&gt;Node12</title>
<g id="a_edge11_Node000003_Node000012"><a xlink:title=" ">
<path fill="none" stroke="#63b8ff" d="M714.83,-141.49C815.01,-134.86 997.29,-120.51 1151.42,-96 1154.51,-95.51 1157.66,-94.97 1160.83,-94.41"/>
<polygon fill="#63b8ff" stroke="#63b8ff" points="714.56,-138.01 704.81,-142.15 715.01,-144.99 714.56,-138.01"/>
</a>
</g>
</g>
<!-- Node13&#45;&gt;Node4 -->
<g id="edge13_Node000013_Node000004" class="edge">
<title>Node13&#45;&gt;Node4</title>
<g id="a_edge13_Node000013_Node000004"><a xlink:title=" ">
<path fill="none" stroke="#63b8ff" d="M1462.75,-62.86C1470.87,-60.27 1479.44,-57.54 1487.42,-55 1527.06,-42.41 1572.99,-27.93 1601.38,-19"/>
<polygon fill="#63b8ff" stroke="#63b8ff" points="1461.6,-59.56 1453.14,-65.94 1463.73,-66.22 1461.6,-59.56"/>
</a>
</g>
</g>
<!-- Node14&#45;&gt;Node4 -->
<g id="edge15_Node000014_Node000004" class="edge">
<title>Node14&#45;&gt;Node4</title>
<g id="a_edge15_Node000014_Node000004"><a xlink:title=" ">
<path fill="none" stroke="#63b8ff" d="M1567.19,-59.49C1582.85,-46.96 1604.63,-29.54 1617.55,-19.2"/>
<polygon fill="#63b8ff" stroke="#63b8ff" points="1564.83,-56.89 1559.21,-65.87 1569.21,-62.35 1564.83,-56.89"/>
</a>
</g>
</g>
<!-- Node15&#45;&gt;Node4 -->
<g id="edge19_Node000015_Node000004" class="edge">
<title>Node15&#45;&gt;Node4</title>
<g id="a_edge19_Node000015_Node000004"><a xlink:title=" ">
<path fill="none" stroke="#63b8ff" d="M1666.43,-129.01C1659.87,-119.71 1652.29,-107.71 1647.42,-96 1636.27,-69.18 1631.19,-34.79 1629.32,-19.05"/>
<polygon fill="#63b8ff" stroke="#63b8ff" points="1663.78,-131.32 1672.51,-137.32 1669.42,-127.18 1663.78,-131.32"/>
</a>
</g>
</g>
<!-- Node16 -->
<g id="Node000016" class="node">
<title>Node16</title>
<g id="a_Node000016"><a xlink:href="../../db/dbb/geometry_8hpp.html" target="_top" xlink:title="Umbrella header for the geometry module.">
<polygon fill="white" stroke="#666666" points="1778.42,-85 1656.42,-85 1656.42,-66 1778.42,-66 1778.42,-85"/>
<text text-anchor="middle" x="1717.42" y="-73" font-family="Helvetica,sans-Serif" font-size="10.00">include/geometry.hpp</text>
</a>
</g>
</g>
<!-- Node15&#45;&gt;Node16 -->
<g id="edge17_Node000015_Node000016" class="edge">
<title>Node15&#45;&gt;Node16</title>
<g id="a_edge17_Node000015_Node000016"><a xlink:title=" ">
<path fill="none" stroke="#63b8ff" d="M1689.03,-128.43C1696.6,-114.58 1706.84,-95.86 1712.73,-85.09"/>
<polygon fill="#63b8ff" stroke="#63b8ff" points="1685.81,-127.02 1684.08,-137.48 1691.95,-130.38 1685.81,-127.02"/>
</a>
</g>
</g>
<!-- Node16&#45;&gt;Node4 -->
<g id="edge18_Node000016_Node000004" class="edge">
<title>Node16&#45;&gt;Node4</title>
<g id="a_edge18_Node000016_Node000004"><a xlink:title=" ">
<path fill="none" stroke="#63b8ff" d="M1697.03,-59.83C1679.57,-47.28 1655.03,-29.63 1640.52,-19.2"/>
<polygon fill="#63b8ff" stroke="#63b8ff" points="1695.26,-62.87 1705.42,-65.87 1699.34,-57.19 1695.26,-62.87"/>
</a>
</g>
</g>
<!-- Node17&#45;&gt;Node4 -->
<g id="edge21_Node000017_Node000004" class="edge">
<title>Node17&#45;&gt;Node4</title>
<g id="a_edge21_Node000017_Node000004"><a xlink:title=" ">
<path fill="none" stroke="#63b8ff" d="M1807.82,-127.22C1808.26,-106.81 1805.66,-74.5 1787.42,-55 1762.07,-27.89 1721.68,-16.82 1687.95,-12.5"/>
<polygon fill="#63b8ff" stroke="#63b8ff" points="1804.31,-127.27 1807.32,-137.43 1811.3,-127.61 1804.31,-127.27"/>
</a>
</g>
</g>
<!-- Node18 -->
<g id="Node000018" class="node">
<title>Node18</title>
<g id="a_Node000018"><a xlink:href="../../d3/d80/endpoint_8cpp.html" target="_top" xlink:title="Definitions for the toy::network::Endpoint destructor declared in network/endpoint....">
<polygon fill="white" stroke="#666666" points="1974.42,-85 1834.42,-85 1834.42,-66 1974.42,-66 1974.42,-85"/>
<text text-anchor="middle" x="1904.42" y="-73" font-family="Helvetica,sans-Serif" font-size="10.00">src/network/endpoint.cpp</text>
</a>
</g>
</g>
<!-- Node17&#45;&gt;Node18 -->
<g id="edge22_Node000017_Node000018" class="edge">
<title>Node17&#45;&gt;Node18</title>
<g id="a_edge22_Node000017_Node000018"><a xlink:title=" ">
<path fill="none" stroke="#63b8ff" d="M1826.77,-131.57C1846.56,-117.54 1875.95,-96.7 1892.31,-85.09"/>
<polygon fill="#63b8ff" stroke="#63b8ff" points="1824.57,-128.84 1818.44,-137.48 1828.62,-134.55 1824.57,-128.84"/>
</a>
</g>
</g>
<!-- Node19&#45;&gt;Node4 -->
<g id="edge24_Node000019_Node000004" class="edge">
<title>Node19&#45;&gt;Node4</title>
<g id="a_edge24_Node000019_Node000004"><a xlink:title=" ">
<path fill="none" stroke="#63b8ff" d="M2018.49,-63.2C2007.25,-60.22 1994.91,-57.22 1983.42,-55 1880.52,-35.08 1759.02,-22.09 1688.16,-15.54"/>
<polygon fill="#63b8ff" stroke="#63b8ff" points="2017.89,-66.67 2028.46,-65.91 2019.73,-59.91 2017.89,-66.67"/>
</a>
</g>
</g>
<!-- Node20&#45;&gt;Node4 -->
<g id="edge26_Node000020_Node000004" class="edge">
<title>Node20&#45;&gt;Node4</title>
<g id="a_edge26_Node000020_Node000004"><a xlink:title=" ">
<path fill="none" stroke="#63b8ff" d="M2018.2,-134.88C2062.21,-123.27 2124.51,-105.45 2131.42,-96 2142.18,-81.29 2143.73,-68.44 2131.42,-55 2102.01,-22.87 1815.09,-13.81 1688.23,-11.36"/>
<polygon fill="#63b8ff" stroke="#63b8ff" points="2017.08,-131.56 2008.29,-137.48 2018.85,-138.33 2017.08,-131.56"/>
</a>
</g>
</g>
<!-- Node21 -->
<g id="Node000021" class="node">
<title>Node21</title>
<g id="a_Node000021"><a xlink:href="../../db/d3d/pixel__format_8cpp.html" target="_top" xlink:title="Definitions for pixelFormatName() and pixelFormatFromName() declared in render/pixel_format....">
<polygon fill="white" stroke="#666666" points="2328.42,-85 2178.42,-85 2178.42,-66 2328.42,-66 2328.42,-85"/>
<text text-anchor="middle" x="2253.42" y="-73" font-family="Helvetica,sans-Serif" font-size="10.00">src/render/pixel_format.cpp</text>
</a>
</g>
</g>
<!-- Node20&#45;&gt;Node21 -->
<g id="edge27_Node000020_Node000021" class="edge">
<title>Node20&#45;&gt;Node21</title>
<g id="a_edge27_Node000020_Node000021"><a xlink:title=" ">
<path fill="none" stroke="#63b8ff" d="M2018.54,-135.01C2074.09,-121.17 2168.36,-97.69 2218.93,-85.09"/>
<polygon fill="#63b8ff" stroke="#63b8ff" points="2017.49,-131.66 2008.63,-137.48 2019.18,-138.46 2017.49,-131.66"/>
</a>
</g>
</g>
</g>
</svg>

<g id="navigator" transform="translate(0 0)" fill="#404254">
  <rect fill="#f2f5e9" fill-opacity="0.5" stroke="#606060" stroke-width=".5" x="0" y="0" width="60" height="60"/>
  <use id="zoomplus" xlink:href="#zoomPlus" x="17" y="9" onmousedown="handleZoom(evt,'in')"/>
  <use id="zoomminus" xlink:href="#zoomMin" x="42" y="9" onmousedown="handleZoom(evt,'out')"/>
  <use id="reset" xlink:href="#resetDef" x="30" y="36" onmousedown="handleReset()"/>
   <use id="arrowup" xlink:href="#arrowUp" x="0" y="0" onmousedown="handlePan(0,-1)"/>
  <use id="arrowright" xlink:href="#arrowRight" x="0" y="0" onmousedown="handlePan(1,0)"/>
  <use id="arrowdown" xlink:href="#arrowDown" x="0" y="0" onmousedown="handlePan(0,1)"/>
  <use id="arrowleft" xlink:href="#arrowLeft" x="0" y="0" onmousedown="handlePan(-1,0)"/>
</g>
<svg viewBox="0 0 15 15" width="100%" height="30px" preserveAspectRatio="xMaxYMin meet">
 <g id="arrow_out" transform="scale(0.3 0.3)">
  <a xlink:href="bitwise__enum_8inl__dep__incl_org.svg" target="_base">
   <rect id="button" ry="5" rx="5" y="6" x="6" height="38" width="38"
        fill="#f2f5e9" fill-opacity="0.5" stroke="#606060" stroke-width="1.0"/>
   <path id="arrow"
     d="M 11.500037,31.436501 C 11.940474,20.09759 22.043105,11.32322 32.158766,21.979434 L 37.068811,17.246167 C 37.068811,17.246167 37.088388,32 37.088388,32 L 22.160133,31.978069 C 22.160133,31.978069 26.997745,27.140456 26.997745,27.140456 C 18.528582,18.264221 13.291696,25.230495 11.500037,31.436501 z"
     style="fill:#404040;"/>
  </a>
 </g>
</svg>

<style type='text/css'>
<![CDATA[
[data-mouse-over-selected='false'] { opacity: 0.7; }
[data-mouse-over-selected='true']  { opacity: 1.0; }
]]>
</style>
<script type="application/ecmascript"><![CDATA[
document.addEventListener('DOMContentLoaded', (event) => {
  highlightEdges();
  highlightAdjacentNodes();
});
]]></script>
</svg>
