<?xml version="1.0" encoding="UTF-8" standalone="no"?>
<!DOCTYPE svg PUBLIC "-//W3C//DTD SVG 1.1//EN"
 "http://www.w3.org/Graphics/SVG/1.1/DTD/svg11.dtd">
<!-- Generated by graphviz version 2.43.0 (0)
 -->
<!-- Title: include/platform/ui/message_box_icon.hpp Pages: 1 -->
<svg width="142pt" height="203pt"
 viewBox="0.00 0.00 142.00 203.00" xmlns="http://www.w3.org/2000/svg" xmlns:xlink="http://www.w3.org/1999/xlink">
<g id="page0,1_graph0" class="graph" transform="scale(1 1) rotate(0) translate(4 199)">
<title>include/platform/ui/message_box_icon.hpp</title>
<!-- Node1 -->
<g id="Node000001" class="node">
<title>Node1</title>
<g id="a_Node000001"><a xlink:title="Icon type for message box / dialog.">
<polygon fill="#999999" stroke="#666666" points="134,-195 0,-195 0,-165 134,-165 134,-195"/>
<text text-anchor="start" x="8" y="-183" font-family="Helvetica,sans-Serif" font-size="10.00">include/platform/ui</text>
<text text-anchor="middle" x="67" y="-172" font-family="Helvetica,sans-Serif" font-size="10.00">/message_box_icon.hpp</text>
</a>
</g>
</g>
<!-- Node2 -->
<g id="Node000002" class="node">
<title>Node2</title>
<g id="a_Node000002"><a xlink:href="../../de/dd6/ui_8hpp.html" target="_top" xlink:title="Umbrella header for platform UI types.">
<polygon fill="white" stroke="#666666" points="132,-129 2,-129 2,-110 132,-110 132,-129"/>
<text text-anchor="middle" x="67" y="-117" font-family="Helvetica,sans-Serif" font-size="10.00">include/platform/ui.hpp</text>
</a>
</g>
</g>
<!-- Node1&#45;&gt;Node2 -->
<g id="edge1_Node000001_Node000002" class="edge">
<title>Node1&#45;&gt;Node2</title>
<g id="a_edge1_Node000001_Node000002"><a xlink:title=" ">
<path fill="none" stroke="#63b8ff" d="M67,-154.75C67,-145.72 67,-136.03 67,-129.27"/>
<polygon fill="#63b8ff" stroke="#63b8ff" points="63.5,-154.84 67,-164.84 70.5,-154.84 63.5,-154.84"/>
</a>
</g>
</g>
<!-- Node3 -->
<g id="Node000003" class="node">
<title>Node3</title>
<g id="a_Node000003"><a xlink:href="../../d8/d8c/toygine2_8hpp.html" target="_top" xlink:title="Main umbrella header for the engine.">
<polygon fill="white" stroke="#666666" points="126.5,-74 7.5,-74 7.5,-55 126.5,-55 126.5,-74"/>
<text text-anchor="middle" x="67" y="-62" font-family="Helvetica,sans-Serif" font-size="10.00">include/toygine2.hpp</text>
</a>
</g>
</g>
<!-- Node2&#45;&gt;Node3 -->
<g id="edge2_Node000002_Node000003" class="edge">
<title>Node2&#45;&gt;Node3</title>
<g id="a_edge2_Node000002_Node000003"><a xlink:title=" ">
<path fill="none" stroke="#63b8ff" d="M67,-99.66C67,-90.93 67,-80.99 67,-74.09"/>
<polygon fill="#63b8ff" stroke="#63b8ff" points="63.5,-99.75 67,-109.75 70.5,-99.75 63.5,-99.75"/>
</a>
</g>
</g>
<!-- Node4 -->
<g id="Node000004" class="node">
<title>Node4</title>
<g id="a_Node000004"><a xlink:href="../../df/d0a/main_8cpp.html" target="_top" xlink:title="Entry point of the Qt&#45;based ToyGine 2 editor.">
<polygon fill="white" stroke="#666666" points="122,-19 12,-19 12,0 122,0 122,-19"/>
<text text-anchor="middle" x="67" y="-7" font-family="Helvetica,sans-Serif" font-size="10.00">editor/src/main.cpp</text>
</a>
</g>
</g>
<!-- Node3&#45;&gt;Node4 -->
<g id="edge3_Node000003_Node000004" class="edge">
<title>Node3&#45;&gt;Node4</title>
<g id="a_edge3_Node000003_Node000004"><a xlink:title=" ">
<path fill="none" stroke="#63b8ff" d="M67,-44.66C67,-35.93 67,-25.99 67,-19.09"/>
<polygon fill="#63b8ff" stroke="#63b8ff" points="63.5,-44.75 67,-54.75 70.5,-44.75 63.5,-44.75"/>
</a>
</g>
</g>
</g>
</svg>
