<?xml version="1.0" encoding="UTF-8" standalone="no"?>
<!DOCTYPE svg PUBLIC "-//W3C//DTD SVG 1.1//EN"
 "http://www.w3.org/Graphics/SVG/1.1/DTD/svg11.dtd">
<!-- Generated by graphviz version 2.43.0 (0)
 -->
<!-- Title: src/core/utils.cpp Pages: 1 -->
<svg width="2078pt" height="159pt"
 viewBox="0.00 0.00 2077.50 159.00" xmlns="http://www.w3.org/2000/svg" xmlns:xlink="http://www.w3.org/1999/xlink">
<g id="graph0" class="graph" transform="scale(1 1) rotate(0) translate(4 155)">
<title>src/core/utils.cpp</title>
<!-- Node1 -->
<g id="Node000001" class="node">
<title>Node1</title>
<g id="a_Node000001"><a xlink:title=" ">
<polygon fill="#999999" stroke="#666666" points="748.5,-151 649.5,-151 649.5,-132 748.5,-132 748.5,-151"/>
<text text-anchor="middle" x="699" y="-139" font-family="Helvetica,sans-Serif" font-size="10.00">src/core/utils.cpp</text>
</a>
</g>
</g>
<!-- Node2 -->
<g id="Node000002" class="node">
<title>Node2</title>
<g id="a_Node000002"><a xlink:title=" ">
<polygon fill="#e0e0e0" stroke="#999999" points="622.5,-96 593.5,-96 593.5,-77 622.5,-77 622.5,-96"/>
<text text-anchor="middle" x="608" y="-84" font-family="Helvetica,sans-Serif" font-size="10.00">bit</text>
</a>
</g>
</g>
<!-- Node1&#45;&gt;Node2 -->
<g id="edge1_Node000001_Node000002" class="edge">
<title>Node1&#45;&gt;Node2</title>
<g id="a_edge1_Node000001_Node000002"><a xlink:title=" ">
<path fill="none" stroke="#63b8ff" d="M684.38,-131.98C670.05,-123.64 647.99,-110.79 631.25,-101.04"/>
<polygon fill="#63b8ff" stroke="#63b8ff" points="632.99,-98 622.58,-95.99 629.46,-104.05 632.99,-98"/>
</a>
</g>
</g>
<!-- Node3 -->
<g id="Node000003" class="node">
<title>Node3</title>
<g id="a_Node000003"><a xlink:title=" ">
<polygon fill="#e0e0e0" stroke="#999999" points="687.5,-96 640.5,-96 640.5,-77 687.5,-77 687.5,-96"/>
<text text-anchor="middle" x="664" y="-84" font-family="Helvetica,sans-Serif" font-size="10.00">cmath</text>
</a>
</g>
</g>
<!-- Node1&#45;&gt;Node3 -->
<g id="edge2_Node000001_Node000003" class="edge">
<title>Node1&#45;&gt;Node3</title>
<g id="a_edge2_Node000001_Node000003"><a xlink:title=" ">
<path fill="none" stroke="#63b8ff" d="M693.22,-131.75C688.38,-124.42 681.32,-113.73 675.36,-104.7"/>
<polygon fill="#63b8ff" stroke="#63b8ff" points="678.1,-102.5 669.67,-96.09 672.26,-106.36 678.1,-102.5"/>
</a>
</g>
</g>
<!-- Node4 -->
<g id="Node000004" class="node">
<title>Node4</title>
<g id="a_Node000004"><a xlink:href="../../da/d47/core_8hpp.html" target="_top" xlink:title=" ">
<polygon fill="white" stroke="#666666" points="764.5,-96 705.5,-96 705.5,-77 764.5,-77 764.5,-96"/>
<text text-anchor="middle" x="735" y="-84" font-family="Helvetica,sans-Serif" font-size="10.00">core.hpp</text>
</a>
</g>
</g>
<!-- Node1&#45;&gt;Node4 -->
<g id="edge3_Node000001_Node000004" class="edge">
<title>Node1&#45;&gt;Node4</title>
<g id="a_edge3_Node000001_Node000004"><a xlink:title=" ">
<path fill="none" stroke="#63b8ff" d="M704.94,-131.75C709.98,-124.34 717.34,-113.5 723.51,-104.41"/>
<polygon fill="#63b8ff" stroke="#63b8ff" points="726.44,-106.33 729.17,-96.09 720.65,-102.39 726.44,-106.33"/>
</a>
</g>
</g>
<!-- Node25 -->
<g id="Node000025" class="node">
<title>Node25</title>
<g id="a_Node000025"><a xlink:href="../../d4/d85/utils__internal_8inl.html" target="_top" xlink:title=" ">
<polygon fill="white" stroke="#666666" points="1479.5,-96 1384.5,-96 1384.5,-77 1479.5,-77 1479.5,-96"/>
<text text-anchor="middle" x="1432" y="-84" font-family="Helvetica,sans-Serif" font-size="10.00">utils_internal.inl</text>
</a>
</g>
</g>
<!-- Node1&#45;&gt;Node25 -->
<g id="edge24_Node000001_Node000025" class="edge">
<title>Node1&#45;&gt;Node25</title>
<g id="a_edge24_Node000001_Node000025"><a xlink:title=" ">
<path fill="none" stroke="#63b8ff" d="M748.52,-136.92C879.51,-127.45 1234.63,-101.77 1374.39,-91.67"/>
<polygon fill="#63b8ff" stroke="#63b8ff" points="1374.74,-95.15 1384.47,-90.94 1374.24,-88.17 1374.74,-95.15"/>
</a>
</g>
</g>
<!-- Node5 -->
<g id="Node000005" class="node">
<title>Node5</title>
<g id="a_Node000005"><a xlink:title=" ">
<polygon fill="#e0e0e0" stroke="#999999" points="64,-30 0,-30 0,-11 64,-11 64,-30"/>
<text text-anchor="middle" x="32" y="-18" font-family="Helvetica,sans-Serif" font-size="10.00">algorithm</text>
</a>
</g>
</g>
<!-- Node4&#45;&gt;Node5 -->
<g id="edge4_Node000004_Node000005" class="edge">
<title>Node4&#45;&gt;Node5</title>
<g id="a_edge4_Node000004_Node000005"><a xlink:title=" ">
<path fill="none" stroke="#63b8ff" d="M705.28,-78.52C702.16,-77.94 699.02,-77.41 696,-77 421.22,-39.35 341.67,-109.84 73,-41 67.27,-39.53 61.38,-37.25 55.92,-34.76"/>
<polygon fill="#63b8ff" stroke="#63b8ff" points="57.18,-31.48 46.66,-30.18 54.07,-37.75 57.18,-31.48"/>
</a>
</g>
</g>
<!-- Node6 -->
<g id="Node000006" class="node">
<title>Node6</title>
<g id="a_Node000006"><a xlink:title=" ">
<polygon fill="#e0e0e0" stroke="#999999" points="124,-30 82,-30 82,-11 124,-11 124,-30"/>
<text text-anchor="middle" x="103" y="-18" font-family="Helvetica,sans-Serif" font-size="10.00">array</text>
</a>
</g>
</g>
<!-- Node4&#45;&gt;Node6 -->
<g id="edge5_Node000004_Node000006" class="edge">
<title>Node4&#45;&gt;Node6</title>
<g id="a_edge5_Node000004_Node000006"><a xlink:title=" ">
<path fill="none" stroke="#63b8ff" d="M705.27,-78.54C702.15,-77.95 699.02,-77.42 696,-77 571.85,-59.6 252,-80.45 133,-41 129.24,-39.75 125.49,-37.92 121.99,-35.87"/>
<polygon fill="#63b8ff" stroke="#63b8ff" points="123.68,-32.79 113.41,-30.18 119.81,-38.62 123.68,-32.79"/>
</a>
</g>
</g>
<!-- Node7 -->
<g id="Node000007" class="node">
<title>Node7</title>
<g id="a_Node000007"><a xlink:title=" ">
<polygon fill="#e0e0e0" stroke="#999999" points="201.5,-30 142.5,-30 142.5,-11 201.5,-11 201.5,-30"/>
<text text-anchor="middle" x="172" y="-18" font-family="Helvetica,sans-Serif" font-size="10.00">compare</text>
</a>
</g>
</g>
<!-- Node4&#45;&gt;Node7 -->
<g id="edge6_Node000004_Node000007" class="edge">
<title>Node4&#45;&gt;Node7</title>
<g id="a_edge6_Node000004_Node000007"><a xlink:title=" ">
<path fill="none" stroke="#63b8ff" d="M705.27,-78.57C702.15,-77.98 699.02,-77.44 696,-77 482.1,-45.91 419.38,-98.42 211,-41 205.66,-39.53 200.19,-37.31 195.1,-34.88"/>
<polygon fill="#63b8ff" stroke="#63b8ff" points="196.4,-31.62 185.91,-30.12 193.18,-37.83 196.4,-31.62"/>
</a>
</g>
</g>
<!-- Node8 -->
<g id="Node000008" class="node">
<title>Node8</title>
<g id="a_Node000008"><a xlink:title=" ">
<polygon fill="#e0e0e0" stroke="#999999" points="280,-30 220,-30 220,-11 280,-11 280,-30"/>
<text text-anchor="middle" x="250" y="-18" font-family="Helvetica,sans-Serif" font-size="10.00">concepts</text>
</a>
</g>
</g>
<!-- Node4&#45;&gt;Node8 -->
<g id="edge7_Node000004_Node000008" class="edge">
<title>Node4&#45;&gt;Node8</title>
<g id="a_edge7_Node000004_Node000008"><a xlink:title=" ">
<path fill="none" stroke="#63b8ff" d="M705.26,-78.61C702.14,-78.01 699.01,-77.46 696,-77 516.48,-49.61 463.73,-90.47 289,-41 283.67,-39.49 278.21,-37.25 273.12,-34.83"/>
<polygon fill="#63b8ff" stroke="#63b8ff" points="274.41,-31.56 263.93,-30.07 271.2,-37.77 274.41,-31.56"/>
</a>
</g>
</g>
<!-- Node9 -->
<g id="Node000009" class="node">
<title>Node9</title>
<g id="a_Node000009"><a xlink:title=" ">
<polygon fill="#e0e0e0" stroke="#999999" points="351.5,-30 298.5,-30 298.5,-11 351.5,-11 351.5,-30"/>
<text text-anchor="middle" x="325" y="-18" font-family="Helvetica,sans-Serif" font-size="10.00">cstddef</text>
</a>
</g>
</g>
<!-- Node4&#45;&gt;Node9 -->
<g id="edge8_Node000004_Node000009" class="edge">
<title>Node4&#45;&gt;Node9</title>
<g id="a_edge8_Node000004_Node000009"><a xlink:title=" ">
<path fill="none" stroke="#63b8ff" d="M705.25,-78.67C702.14,-78.06 699.01,-77.49 696,-77 548.19,-53.02 503.98,-85.5 361,-41 356.16,-39.49 351.23,-37.32 346.63,-34.96"/>
<polygon fill="#63b8ff" stroke="#63b8ff" points="348.23,-31.84 337.79,-30.02 344.81,-37.95 348.23,-31.84"/>
</a>
</g>
</g>
<!-- Node10 -->
<g id="Node000010" class="node">
<title>Node10</title>
<g id="a_Node000010"><a xlink:title=" ">
<polygon fill="#e0e0e0" stroke="#999999" points="420,-30 370,-30 370,-11 420,-11 420,-30"/>
<text text-anchor="middle" x="395" y="-18" font-family="Helvetica,sans-Serif" font-size="10.00">cstdint</text>
</a>
</g>
</g>
<!-- Node4&#45;&gt;Node10 -->
<g id="edge9_Node000004_Node000010" class="edge">
<title>Node4&#45;&gt;Node10</title>
<g id="a_edge9_Node000004_Node000010"><a xlink:title=" ">
<path fill="none" stroke="#63b8ff" d="M705.24,-78.75C702.13,-78.13 699,-77.53 696,-77 578.07,-56.23 542.38,-79.5 429,-41 424.72,-39.55 420.38,-37.54 416.29,-35.36"/>
<polygon fill="#63b8ff" stroke="#63b8ff" points="417.76,-32.16 407.36,-30.14 414.23,-38.21 417.76,-32.16"/>
</a>
</g>
</g>
<!-- Node11 -->
<g id="Node000011" class="node">
<title>Node11</title>
<g id="a_Node000011"><a xlink:title=" ">
<polygon fill="#e0e0e0" stroke="#999999" points="488,-30 438,-30 438,-11 488,-11 488,-30"/>
<text text-anchor="middle" x="463" y="-18" font-family="Helvetica,sans-Serif" font-size="10.00">cstring</text>
</a>
</g>
</g>
<!-- Node4&#45;&gt;Node11 -->
<g id="edge10_Node000004_Node000011" class="edge">
<title>Node4&#45;&gt;Node11</title>
<g id="a_edge10_Node000004_Node000011"><a xlink:title=" ">
<path fill="none" stroke="#63b8ff" d="M705.21,-78.89C702.1,-78.24 698.99,-77.6 696,-77 607.85,-59.43 581.44,-71.81 497,-41 492.83,-39.48 488.58,-37.47 484.55,-35.31"/>
<polygon fill="#63b8ff" stroke="#63b8ff" points="486.14,-32.18 475.73,-30.19 482.62,-38.24 486.14,-32.18"/>
</a>
</g>
</g>
<!-- Node12 -->
<g id="Node000012" class="node">
<title>Node12</title>
<g id="a_Node000012"><a xlink:title=" ">
<polygon fill="#e0e0e0" stroke="#999999" points="555.5,-30 506.5,-30 506.5,-11 555.5,-11 555.5,-30"/>
<text text-anchor="middle" x="531" y="-18" font-family="Helvetica,sans-Serif" font-size="10.00">cuchar</text>
</a>
</g>
</g>
<!-- Node4&#45;&gt;Node12 -->
<g id="edge11_Node000004_Node000012" class="edge">
<title>Node4&#45;&gt;Node12</title>
<g id="a_edge11_Node000004_Node000012"><a xlink:title=" ">
<path fill="none" stroke="#63b8ff" d="M705.32,-78.73C663.72,-69.08 590.34,-51.37 565,-41 560.96,-39.35 556.81,-37.3 552.86,-35.16"/>
<polygon fill="#63b8ff" stroke="#63b8ff" points="554.56,-32.1 544.15,-30.13 551.06,-38.16 554.56,-32.1"/>
</a>
</g>
</g>
<!-- Node13 -->
<g id="Node000013" class="node">
<title>Node13</title>
<g id="a_Node000013"><a xlink:title=" ">
<polygon fill="#e0e0e0" stroke="#999999" points="632,-30 574,-30 574,-11 632,-11 632,-30"/>
<text text-anchor="middle" x="603" y="-18" font-family="Helvetica,sans-Serif" font-size="10.00">memory</text>
</a>
</g>
</g>
<!-- Node4&#45;&gt;Node13 -->
<g id="edge12_Node000004_Node000013" class="edge">
<title>Node4&#45;&gt;Node13</title>
<g id="a_edge12_Node000004_Node000013"><a xlink:title=" ">
<path fill="none" stroke="#63b8ff" d="M716.54,-76.98C697.53,-68.14 667.07,-53.86 641,-41 637.03,-39.04 632.86,-36.94 628.78,-34.87"/>
<polygon fill="#63b8ff" stroke="#63b8ff" points="630.08,-31.61 619.59,-30.16 626.89,-37.83 630.08,-31.61"/>
</a>
</g>
</g>
<!-- Node14 -->
<g id="Node000014" class="node">
<title>Node14</title>
<g id="a_Node000014"><a xlink:title=" ">
<polygon fill="#e0e0e0" stroke="#999999" points="694,-30 650,-30 650,-11 694,-11 694,-30"/>
<text text-anchor="middle" x="672" y="-18" font-family="Helvetica,sans-Serif" font-size="10.00">string</text>
</a>
</g>
</g>
<!-- Node4&#45;&gt;Node14 -->
<g id="edge13_Node000004_Node000014" class="edge">
<title>Node4&#45;&gt;Node14</title>
<g id="a_edge13_Node000004_Node000014"><a xlink:title=" ">
<path fill="none" stroke="#63b8ff" d="M726.5,-76.87C716.7,-66.9 700.34,-50.29 688.11,-37.86"/>
<polygon fill="#63b8ff" stroke="#63b8ff" points="690.28,-35.08 680.77,-30.41 685.29,-39.99 690.28,-35.08"/>
</a>
</g>
</g>
<!-- Node15 -->
<g id="Node000015" class="node">
<title>Node15</title>
<g id="a_Node000015"><a xlink:title=" ">
<polygon fill="#e0e0e0" stroke="#999999" points="757.5,-30 712.5,-30 712.5,-11 757.5,-11 757.5,-30"/>
<text text-anchor="middle" x="735" y="-18" font-family="Helvetica,sans-Serif" font-size="10.00">utility</text>
</a>
</g>
</g>
<!-- Node4&#45;&gt;Node15 -->
<g id="edge14_Node000004_Node000015" class="edge">
<title>Node4&#45;&gt;Node15</title>
<g id="a_edge14_Node000004_Node000015"><a xlink:title=" ">
<path fill="none" stroke="#63b8ff" d="M735,-76.87C735,-67.66 735,-52.79 735,-40.77"/>
<polygon fill="#63b8ff" stroke="#63b8ff" points="738.5,-40.41 735,-30.41 731.5,-40.41 738.5,-40.41"/>
</a>
</g>
</g>
<!-- Node16 -->
<g id="Node000016" class="node">
<title>Node16</title>
<g id="a_Node000016"><a xlink:href="../../dd/d9e/linux_2platform__config_8hpp.html" target="_top" xlink:title="additional linux platform header">
<polygon fill="white" stroke="#666666" points="930.5,-41 775.5,-41 775.5,0 930.5,0 930.5,-41"/>
<text text-anchor="start" x="783.5" y="-29" font-family="Helvetica,sans-Serif" font-size="10.00">/home/runner/work/toygine2</text>
<text text-anchor="start" x="783.5" y="-18" font-family="Helvetica,sans-Serif" font-size="10.00">/toygine2/src/platforms</text>
<text text-anchor="middle" x="853" y="-7" font-family="Helvetica,sans-Serif" font-size="10.00">/linux/platform_config.hpp</text>
</a>
</g>
</g>
<!-- Node4&#45;&gt;Node16 -->
<g id="edge15_Node000004_Node000016" class="edge">
<title>Node4&#45;&gt;Node16</title>
<g id="a_edge15_Node000004_Node000016"><a xlink:title=" ">
<path fill="none" stroke="#63b8ff" d="M750.91,-76.87C765.53,-68.94 787.92,-56.8 808,-45.91"/>
<polygon fill="#63b8ff" stroke="#63b8ff" points="809.91,-48.85 817.03,-41.01 806.57,-42.7 809.91,-48.85"/>
</a>
</g>
</g>
<!-- Node17 -->
<g id="Node000017" class="node">
<title>Node17</title>
<g id="a_Node000017"><a xlink:href="../../dd/ded/c__string__view_8hpp.html" target="_top" xlink:title="Non&#45;owning string view class for C&#45;style strings.">
<polygon fill="white" stroke="#666666" points="1077,-30 949,-30 949,-11 1077,-11 1077,-30"/>
<text text-anchor="middle" x="1013" y="-18" font-family="Helvetica,sans-Serif" font-size="10.00">core/c_string_view.hpp</text>
</a>
</g>
</g>
<!-- Node4&#45;&gt;Node17 -->
<g id="edge16_Node000004_Node000017" class="edge">
<title>Node4&#45;&gt;Node17</title>
<g id="a_edge16_Node000004_Node000017"><a xlink:title=" ">
<path fill="none" stroke="#63b8ff" d="M764.82,-79.41C804.64,-71.19 877.32,-55.85 939,-41 949.67,-38.43 961.16,-35.49 971.83,-32.68"/>
<polygon fill="#63b8ff" stroke="#63b8ff" points="972.98,-36 981.75,-30.05 971.19,-29.23 972.98,-36"/>
</a>
</g>
</g>
<!-- Node18 -->
<g id="Node000018" class="node">
<title>Node18</title>
<g id="a_Node000018"><a xlink:href="../../d4/dc0/constexpr__utils_8hpp.html" target="_top" xlink:title="Constexpr utility functions for compile&#45;time operations.">
<polygon fill="white" stroke="#666666" points="1231,-30 1095,-30 1095,-11 1231,-11 1231,-30"/>
<text text-anchor="middle" x="1163" y="-18" font-family="Helvetica,sans-Serif" font-size="10.00">core/constexpr_utils.hpp</text>
</a>
</g>
</g>
<!-- Node4&#45;&gt;Node18 -->
<g id="edge17_Node000004_Node000018" class="edge">
<title>Node4&#45;&gt;Node18</title>
<g id="a_edge17_Node000004_Node000018"><a xlink:title=" ">
<path fill="none" stroke="#63b8ff" d="M764.78,-82.96C825.53,-77.51 968.01,-63.33 1086,-41 1098.05,-38.72 1111.02,-35.67 1122.82,-32.66"/>
<polygon fill="#63b8ff" stroke="#63b8ff" points="1124.04,-35.96 1132.84,-30.05 1122.28,-29.19 1124.04,-35.96"/>
</a>
</g>
</g>
<!-- Node19 -->
<g id="Node000019" class="node">
<title>Node19</title>
<g id="a_Node000019"><a xlink:href="../../d7/d7f/fixed__string_8hpp.html" target="_top" xlink:title="Template string class with fixed&#45;size character buffer.">
<polygon fill="white" stroke="#666666" points="1367,-30 1249,-30 1249,-11 1367,-11 1367,-30"/>
<text text-anchor="middle" x="1308" y="-18" font-family="Helvetica,sans-Serif" font-size="10.00">core/fixed_string.hpp</text>
</a>
</g>
</g>
<!-- Node4&#45;&gt;Node19 -->
<g id="edge18_Node000004_Node000019" class="edge">
<title>Node4&#45;&gt;Node19</title>
<g id="a_edge18_Node000004_Node000019"><a xlink:title=" ">
<path fill="none" stroke="#63b8ff" d="M764.58,-84.87C842.84,-82.76 1061.52,-74.14 1240,-41 1250.8,-39 1262.35,-36.01 1272.81,-32.98"/>
<polygon fill="#63b8ff" stroke="#63b8ff" points="1273.87,-36.31 1282.45,-30.08 1271.86,-29.61 1273.87,-36.31"/>
</a>
</g>
</g>
<!-- Node20 -->
<g id="Node000020" class="node">
<title>Node20</title>
<g id="a_Node000020"><a xlink:href="../../df/d93/utils_8hpp.html" target="_top" xlink:title="Core utility functions for string manipulation, encoding conversion, and number formatting.">
<polygon fill="white" stroke="#666666" points="1468.5,-30 1385.5,-30 1385.5,-11 1468.5,-11 1468.5,-30"/>
<text text-anchor="middle" x="1427" y="-18" font-family="Helvetica,sans-Serif" font-size="10.00">core/utils.hpp</text>
</a>
</g>
</g>
<!-- Node4&#45;&gt;Node20 -->
<g id="edge19_Node000004_Node000020" class="edge">
<title>Node4&#45;&gt;Node20</title>
<g id="a_edge19_Node000004_Node000020"><a xlink:title=" ">
<path fill="none" stroke="#63b8ff" d="M764.57,-84.61C874.17,-81.11 1256.99,-67.27 1376,-41 1383.64,-39.31 1391.65,-36.69 1399,-33.91"/>
<polygon fill="#63b8ff" stroke="#63b8ff" points="1400.54,-37.06 1408.52,-30.09 1397.93,-30.56 1400.54,-37.06"/>
</a>
</g>
</g>
<!-- Node21 -->
<g id="Node000021" class="node">
<title>Node21</title>
<g id="a_Node000021"><a xlink:href="../../df/d4a/c__string__view_8inl.html" target="_top" xlink:title="Inline implementations for CStringView class.">
<polygon fill="white" stroke="#666666" points="1609,-30 1487,-30 1487,-11 1609,-11 1609,-30"/>
<text text-anchor="middle" x="1548" y="-18" font-family="Helvetica,sans-Serif" font-size="10.00">core/c_string_view.inl</text>
</a>
</g>
</g>
<!-- Node4&#45;&gt;Node21 -->
<g id="edge20_Node000004_Node000021" class="edge">
<title>Node4&#45;&gt;Node21</title>
<g id="a_edge20_Node000004_Node000021"><a xlink:title=" ">
<path fill="none" stroke="#63b8ff" d="M764.63,-85.96C865.38,-87.07 1203.66,-86.89 1478,-41 1489.43,-39.09 1501.67,-36.04 1512.67,-32.91"/>
<polygon fill="#63b8ff" stroke="#63b8ff" points="1513.77,-36.24 1522.36,-30.05 1511.78,-29.52 1513.77,-36.24"/>
</a>
</g>
</g>
<!-- Node22 -->
<g id="Node000022" class="node">
<title>Node22</title>
<g id="a_Node000022"><a xlink:href="../../dc/d28/constexpr__utils_8inl.html" target="_top" xlink:title="Inline implementations for constexpr utility functions.">
<polygon fill="white" stroke="#666666" points="1757,-30 1627,-30 1627,-11 1757,-11 1757,-30"/>
<text text-anchor="middle" x="1692" y="-18" font-family="Helvetica,sans-Serif" font-size="10.00">core/constexpr_utils.inl</text>
</a>
</g>
</g>
<!-- Node4&#45;&gt;Node22 -->
<g id="edge21_Node000004_Node000022" class="edge">
<title>Node4&#45;&gt;Node22</title>
<g id="a_edge21_Node000004_Node000022"><a xlink:title=" ">
<path fill="none" stroke="#63b8ff" d="M764.53,-84.83C898.26,-81.69 1447.93,-67.4 1618,-41 1630.18,-39.11 1643.26,-36.03 1654.98,-32.86"/>
<polygon fill="#63b8ff" stroke="#63b8ff" points="1656.19,-36.16 1664.87,-30.09 1654.3,-29.42 1656.19,-36.16"/>
</a>
</g>
</g>
<!-- Node23 -->
<g id="Node000023" class="node">
<title>Node23</title>
<g id="a_Node000023"><a xlink:href="../../d7/d40/fixed__string_8inl.html" target="_top" xlink:title="Inline implementations for FixedString template class.">
<polygon fill="white" stroke="#666666" points="1887,-30 1775,-30 1775,-11 1887,-11 1887,-30"/>
<text text-anchor="middle" x="1831" y="-18" font-family="Helvetica,sans-Serif" font-size="10.00">core/fixed_string.inl</text>
</a>
</g>
</g>
<!-- Node4&#45;&gt;Node23 -->
<g id="edge22_Node000004_Node000023" class="edge">
<title>Node4&#45;&gt;Node23</title>
<g id="a_edge22_Node000004_Node000023"><a xlink:title=" ">
<path fill="none" stroke="#63b8ff" d="M764.95,-85.21C912.81,-83.62 1565.93,-74.79 1766,-41 1776.54,-39.22 1787.78,-36.25 1797.89,-33.16"/>
<polygon fill="#63b8ff" stroke="#63b8ff" points="1799.1,-36.45 1807.56,-30.07 1796.97,-29.78 1799.1,-36.45"/>
</a>
</g>
</g>
<!-- Node24 -->
<g id="Node000024" class="node">
<title>Node24</title>
<g id="a_Node000024"><a xlink:href="../../df/d7d/utils_8inl.html" target="_top" xlink:title="Inline implementations of core utility functions for string manipulation and encoding conversion.">
<polygon fill="white" stroke="#666666" points="1982.5,-30 1905.5,-30 1905.5,-11 1982.5,-11 1982.5,-30"/>
<text text-anchor="middle" x="1944" y="-18" font-family="Helvetica,sans-Serif" font-size="10.00">core/utils.inl</text>
</a>
</g>
</g>
<!-- Node4&#45;&gt;Node24 -->
<g id="edge23_Node000004_Node000024" class="edge">
<title>Node4&#45;&gt;Node24</title>
<g id="a_edge23_Node000004_Node000024"><a xlink:title=" ">
<path fill="none" stroke="#63b8ff" d="M764.71,-84.98C934.9,-81.9 1782.55,-65.43 1896,-41 1903.21,-39.45 1910.72,-36.89 1917.6,-34.13"/>
<polygon fill="#63b8ff" stroke="#63b8ff" points="1919.33,-37.2 1927.13,-30.04 1916.56,-30.77 1919.33,-37.2"/>
</a>
</g>
</g>
<!-- Node26 -->
<g id="Node000026" class="node">
<title>Node26</title>
<g id="a_Node000026"><a xlink:title=" ">
<polygon fill="#e0e0e0" stroke="#999999" points="2069.5,-30 2000.5,-30 2000.5,-11 2069.5,-11 2069.5,-30"/>
<text text-anchor="middle" x="2035" y="-18" font-family="Helvetica,sans-Serif" font-size="10.00">type_traits</text>
</a>
</g>
</g>
<!-- Node25&#45;&gt;Node26 -->
<g id="edge25_Node000025_Node000026" class="edge">
<title>Node25&#45;&gt;Node26</title>
<g id="a_edge25_Node000025_Node000026"><a xlink:title=" ">
<path fill="none" stroke="#63b8ff" d="M1479.58,-83.83C1596.53,-79.39 1895.56,-65.89 1992,-41 1998.1,-39.43 2004.42,-37.04 2010.27,-34.47"/>
<polygon fill="#63b8ff" stroke="#63b8ff" points="2012,-37.52 2019.55,-30.08 2009.01,-31.19 2012,-37.52"/>
</a>
</g>
</g>
</g>
</svg>
