<?xml version="1.0" encoding="UTF-8" standalone="no"?>
<!DOCTYPE svg PUBLIC "-//W3C//DTD SVG 1.1//EN"
 "http://www.w3.org/Graphics/SVG/1.1/DTD/svg11.dtd">
<!-- Generated by graphviz version 2.43.0 (0)
 -->
<!-- Title: src/core/utils.cpp Pages: 1 -->
<!--zoomable 225 -->

<svg id="main" version="1.1" xmlns="http://www.w3.org/2000/svg" xmlns:xlink="http://www.w3.org/1999/xlink" xml:space="preserve" onload="init(evt)">

<style type="text/css"><![CDATA[
.node, .edge {opacity: 0.7;}
.node.selected, .edge.selected {opacity: 1;}
.edge:hover path { stroke: red; }
.edge:hover polygon { stroke: red; fill: red; }
]]></style>

<defs>
  <circle id="rim" cx="0" cy="0" r="7"/>
  <circle id="rim2" cx="0" cy="0" r="3.5"/>
  <g id="zoomPlus">
    <use xlink:href="#rim" fill="#404040"><set attributeName="fill" to="#808080" begin="zoomplus.mouseover" end="zoomplus.mouseout"/></use>
    <path d="M-4,0h8M0,-4v8" fill="none" stroke="white" stroke-width="1.5" pointer-events="none"/>
  </g>
  <g id="zoomMin">
    <use xlink:href="#rim" fill="#404040"><set attributeName="fill" to="#808080" begin="zoomminus.mouseover" end="zoomminus.mouseout"/></use>
    <path d="M-4,0h8" fill="none" stroke="white" stroke-width="1.5" pointer-events="none"/>
  </g>
  <g id="arrowUp" transform="translate(30 24)">
    <use xlink:href="#rim"/>
    <path pointer-events="none" fill="none" stroke="white" stroke-width="1.5" d="M0,-3.0v7 M-2.5,-0.5L0,-3.0L2.5,-0.5"/>
  </g>
  <g id="arrowRight" transform="rotate(90) translate(36 -43)">
    <use xlink:href="#rim"/>
    <path pointer-events="none" fill="none" stroke="white" stroke-width="1.5" d="M0,-3.0v7 M-2.5,-0.5L0,-3.0L2.5,-0.5"/>
  </g>
  <g id="arrowDown" transform="rotate(180) translate(-30 -48)">
    <use xlink:href="#rim"/>
    <path pointer-events="none" fill="none" stroke="white" stroke-width="1.5" d="M0,-3.0v7 M-2.5,-0.5L0,-3.0L2.5,-0.5"/>
  </g>
  <g id="arrowLeft" transform="rotate(270) translate(-36 17)">
    <use xlink:href="#rim"/>
    <path pointer-events="none" fill="none" stroke="white" stroke-width="1.5" d="M0,-3.0v7 M-2.5,-0.5L0,-3.0L2.5,-0.5"/>
  </g>
  <g id="resetDef">
    <use xlink:href="#rim2" fill="#404040"><set attributeName="fill" to="#808080" begin="reset.mouseover" end="reset.mouseout"/></use>
  </g>
</defs>
<script type="application/ecmascript">
var viewWidth = 3016;
var viewHeight = 225;
var sectionId = 'dynsection-0';
</script>
<script type="application/ecmascript" xlink:href="../../svg.min.js"/>
<svg id="graph" class="graph">
<g id="viewport">
<title>src/core/utils.cpp</title>
<!-- Node1 -->
<g id="Node000001" class="node">
<title>Node1</title>
<g id="a_Node000001"><a xlink:title="Implementation of core utility functions for string manipulation, encoding conversion,...">
<polygon fill="#999999" stroke="#666666" points="513,-217 414,-217 414,-198 513,-198 513,-217"/>
<text text-anchor="middle" x="463.5" y="-205" font-family="Helvetica,sans-Serif" font-size="10.00">src/core/utils.cpp</text>
</a>
</g>
</g>
<!-- Node2 -->
<g id="Node000002" class="node">
<title>Node2</title>
<g id="a_Node000002"><a xlink:title=" ">
<polygon fill="#e0e0e0" stroke="#999999" points="378,-162 349,-162 349,-143 378,-143 378,-162"/>
<text text-anchor="middle" x="363.5" y="-150" font-family="Helvetica,sans-Serif" font-size="10.00">bit</text>
</a>
</g>
</g>
<!-- Node1&#45;&gt;Node2 -->
<g id="edge1_Node000001_Node000002" class="edge">
<title>Node1&#45;&gt;Node2</title>
<g id="a_edge1_Node000001_Node000002"><a xlink:title=" ">
<path fill="none" stroke="#63b8ff" d="M447.43,-197.98C431.17,-189.36 405.83,-175.93 387.24,-166.08"/>
<polygon fill="#63b8ff" stroke="#63b8ff" points="388.7,-162.89 378.22,-161.3 385.42,-169.08 388.7,-162.89"/>
</a>
</g>
</g>
<!-- Node3 -->
<g id="Node000003" class="node">
<title>Node3</title>
<g id="a_Node000003"><a xlink:title=" ">
<polygon fill="#e0e0e0" stroke="#999999" points="443,-162 396,-162 396,-143 443,-143 443,-162"/>
<text text-anchor="middle" x="419.5" y="-150" font-family="Helvetica,sans-Serif" font-size="10.00">cmath</text>
</a>
</g>
</g>
<!-- Node1&#45;&gt;Node3 -->
<g id="edge2_Node000001_Node000003" class="edge">
<title>Node1&#45;&gt;Node3</title>
<g id="a_edge2_Node000001_Node000003"><a xlink:title=" ">
<path fill="none" stroke="#63b8ff" d="M456.23,-197.75C449.96,-190.18 440.71,-179.05 433.07,-169.84"/>
<polygon fill="#63b8ff" stroke="#63b8ff" points="435.71,-167.55 426.63,-162.09 430.33,-172.02 435.71,-167.55"/>
</a>
</g>
</g>
<!-- Node4 -->
<g id="Node000004" class="node">
<title>Node4</title>
<g id="a_Node000004"><a xlink:href="../../da/d47/core_8hpp.html" target="_top" xlink:title="Umbrella header for the engine core module.">
<polygon fill="white" stroke="#666666" points="1076,-162 1017,-162 1017,-143 1076,-143 1076,-162"/>
<text text-anchor="middle" x="1046.5" y="-150" font-family="Helvetica,sans-Serif" font-size="10.00">core.hpp</text>
</a>
</g>
</g>
<!-- Node1&#45;&gt;Node4 -->
<g id="edge3_Node000001_Node000004" class="edge">
<title>Node1&#45;&gt;Node4</title>
<g id="a_edge3_Node000001_Node000004"><a xlink:title=" ">
<path fill="none" stroke="#63b8ff" d="M513.21,-201.98C626.75,-191.66 903.3,-166.52 1006.65,-157.12"/>
<polygon fill="#63b8ff" stroke="#63b8ff" points="1007.04,-160.6 1016.68,-156.21 1006.4,-153.63 1007.04,-160.6"/>
</a>
</g>
</g>
<!-- Node35 -->
<g id="Node000035" class="node">
<title>Node35</title>
<g id="a_Node000035"><a xlink:href="../../d4/d85/utils__internal_8inl.html" target="_top" xlink:title="Internal utilities: inline helpers used by the core utils implementation.">
<polygon fill="white" stroke="#666666" points="556,-162 461,-162 461,-143 556,-143 556,-162"/>
<text text-anchor="middle" x="508.5" y="-150" font-family="Helvetica,sans-Serif" font-size="10.00">utils_internal.inl</text>
</a>
</g>
</g>
<!-- Node1&#45;&gt;Node35 -->
<g id="edge34_Node000001_Node000035" class="edge">
<title>Node1&#45;&gt;Node35</title>
<g id="a_edge34_Node000001_Node000035"><a xlink:title=" ">
<path fill="none" stroke="#63b8ff" d="M470.93,-197.75C477.35,-190.18 486.81,-179.05 494.62,-169.84"/>
<polygon fill="#63b8ff" stroke="#63b8ff" points="497.4,-171.98 501.21,-162.09 492.07,-167.45 497.4,-171.98"/>
</a>
</g>
</g>
<!-- Node5 -->
<g id="Node000005" class="node">
<title>Node5</title>
<g id="a_Node000005"><a xlink:title=" ">
<polygon fill="#e0e0e0" stroke="#999999" points="151.5,-96 87.5,-96 87.5,-77 151.5,-77 151.5,-96"/>
<text text-anchor="middle" x="119.5" y="-84" font-family="Helvetica,sans-Serif" font-size="10.00">algorithm</text>
</a>
</g>
</g>
<!-- Node4&#45;&gt;Node5 -->
<g id="edge4_Node000004_Node000005" class="edge">
<title>Node4&#45;&gt;Node5</title>
<g id="a_edge4_Node000004_Node000005"><a xlink:title=" ">
<path fill="none" stroke="#63b8ff" d="M1016.81,-150.7C872.17,-146.71 244.97,-128.3 160.5,-107 154.53,-105.49 148.38,-103.09 142.72,-100.48"/>
<polygon fill="#63b8ff" stroke="#63b8ff" points="144.29,-97.35 133.78,-96 141.15,-103.61 144.29,-97.35"/>
</a>
</g>
</g>
<!-- Node6 -->
<g id="Node000006" class="node">
<title>Node6</title>
<g id="a_Node000006"><a xlink:title=" ">
<polygon fill="#e0e0e0" stroke="#999999" points="211.5,-96 169.5,-96 169.5,-77 211.5,-77 211.5,-96"/>
<text text-anchor="middle" x="190.5" y="-84" font-family="Helvetica,sans-Serif" font-size="10.00">array</text>
</a>
</g>
</g>
<!-- Node4&#45;&gt;Node6 -->
<g id="edge5_Node000004_Node000006" class="edge">
<title>Node4&#45;&gt;Node6</title>
<g id="a_edge5_Node000004_Node000006"><a xlink:title=" ">
<path fill="none" stroke="#63b8ff" d="M1016.98,-150.79C878.7,-147.33 298.48,-131.46 221.5,-107 217.46,-105.72 213.42,-103.78 209.65,-101.61"/>
<polygon fill="#63b8ff" stroke="#63b8ff" points="211.31,-98.51 201.01,-96 207.5,-104.38 211.31,-98.51"/>
</a>
</g>
</g>
<!-- Node7 -->
<g id="Node000007" class="node">
<title>Node7</title>
<g id="a_Node000007"><a xlink:title=" ">
<polygon fill="#e0e0e0" stroke="#999999" points="289,-96 230,-96 230,-77 289,-77 289,-96"/>
<text text-anchor="middle" x="259.5" y="-84" font-family="Helvetica,sans-Serif" font-size="10.00">compare</text>
</a>
</g>
</g>
<!-- Node4&#45;&gt;Node7 -->
<g id="edge6_Node000004_Node000007" class="edge">
<title>Node4&#45;&gt;Node7</title>
<g id="a_edge6_Node000004_Node000007"><a xlink:title=" ">
<path fill="none" stroke="#63b8ff" d="M1016.99,-151.32C895.99,-150.35 437.68,-144.25 298.5,-107 293.15,-105.57 287.68,-103.36 282.59,-100.94"/>
<polygon fill="#63b8ff" stroke="#63b8ff" points="283.88,-97.68 273.4,-96.17 280.66,-103.89 283.88,-97.68"/>
</a>
</g>
</g>
<!-- Node8 -->
<g id="Node000008" class="node">
<title>Node8</title>
<g id="a_Node000008"><a xlink:title=" ">
<polygon fill="#e0e0e0" stroke="#999999" points="367.5,-96 307.5,-96 307.5,-77 367.5,-77 367.5,-96"/>
<text text-anchor="middle" x="337.5" y="-84" font-family="Helvetica,sans-Serif" font-size="10.00">concepts</text>
</a>
</g>
</g>
<!-- Node4&#45;&gt;Node8 -->
<g id="edge7_Node000004_Node000008" class="edge">
<title>Node4&#45;&gt;Node8</title>
<g id="a_edge7_Node000004_Node000008"><a xlink:title=" ">
<path fill="none" stroke="#63b8ff" d="M1016.72,-151.04C903.62,-149.06 500.82,-139.81 377.5,-107 371.9,-105.51 366.15,-103.22 360.81,-100.73"/>
<polygon fill="#63b8ff" stroke="#63b8ff" points="362.29,-97.55 351.79,-96.14 359.12,-103.79 362.29,-97.55"/>
</a>
</g>
</g>
<!-- Node9 -->
<g id="Node000009" class="node">
<title>Node9</title>
<g id="a_Node000009"><a xlink:title=" ">
<polygon fill="#e0e0e0" stroke="#999999" points="439,-96 386,-96 386,-77 439,-77 439,-96"/>
<text text-anchor="middle" x="412.5" y="-84" font-family="Helvetica,sans-Serif" font-size="10.00">cstddef</text>
</a>
</g>
</g>
<!-- Node4&#45;&gt;Node9 -->
<g id="edge8_Node000004_Node000009" class="edge">
<title>Node4&#45;&gt;Node9</title>
<g id="a_edge8_Node000004_Node000009"><a xlink:title=" ">
<path fill="none" stroke="#63b8ff" d="M1016.64,-150.93C911.2,-148.66 556.89,-138.8 448.5,-107 443.64,-105.57 438.7,-103.43 434.09,-101.08"/>
<polygon fill="#63b8ff" stroke="#63b8ff" points="435.69,-97.96 425.26,-96.13 432.27,-104.07 435.69,-97.96"/>
</a>
</g>
</g>
<!-- Node10 -->
<g id="Node000010" class="node">
<title>Node10</title>
<g id="a_Node000010"><a xlink:title=" ">
<polygon fill="#e0e0e0" stroke="#999999" points="507.5,-96 457.5,-96 457.5,-77 507.5,-77 507.5,-96"/>
<text text-anchor="middle" x="482.5" y="-84" font-family="Helvetica,sans-Serif" font-size="10.00">cstdint</text>
</a>
</g>
</g>
<!-- Node4&#45;&gt;Node10 -->
<g id="edge9_Node000004_Node000010" class="edge">
<title>Node4&#45;&gt;Node10</title>
<g id="a_edge9_Node000004_Node000010"><a xlink:title=" ">
<path fill="none" stroke="#63b8ff" d="M1016.69,-150.69C919.24,-147.8 611.04,-136.48 516.5,-107 511.99,-105.59 507.43,-103.52 503.18,-101.24"/>
<polygon fill="#63b8ff" stroke="#63b8ff" points="504.88,-98.18 494.49,-96.1 501.32,-104.21 504.88,-98.18"/>
</a>
</g>
</g>
<!-- Node11 -->
<g id="Node000011" class="node">
<title>Node11</title>
<g id="a_Node000011"><a xlink:title=" ">
<polygon fill="#e0e0e0" stroke="#999999" points="575.5,-96 525.5,-96 525.5,-77 575.5,-77 575.5,-96"/>
<text text-anchor="middle" x="550.5" y="-84" font-family="Helvetica,sans-Serif" font-size="10.00">cstring</text>
</a>
</g>
</g>
<!-- Node4&#45;&gt;Node11 -->
<g id="edge10_Node000004_Node000011" class="edge">
<title>Node4&#45;&gt;Node11</title>
<g id="a_edge10_Node000004_Node000011"><a xlink:title=" ">
<path fill="none" stroke="#63b8ff" d="M1016.91,-150.23C928.38,-146.17 666.68,-132.31 585.5,-107 580.89,-105.56 576.21,-103.47 571.84,-101.19"/>
<polygon fill="#63b8ff" stroke="#63b8ff" points="573.31,-98 562.89,-96.06 569.82,-104.07 573.31,-98"/>
</a>
</g>
</g>
<!-- Node12 -->
<g id="Node000012" class="node">
<title>Node12</title>
<g id="a_Node000012"><a xlink:title=" ">
<polygon fill="#e0e0e0" stroke="#999999" points="643,-96 594,-96 594,-77 643,-77 643,-96"/>
<text text-anchor="middle" x="618.5" y="-84" font-family="Helvetica,sans-Serif" font-size="10.00">cuchar</text>
</a>
</g>
</g>
<!-- Node4&#45;&gt;Node12 -->
<g id="edge11_Node000004_Node000012" class="edge">
<title>Node4&#45;&gt;Node12</title>
<g id="a_edge11_Node000004_Node000012"><a xlink:title=" ">
<path fill="none" stroke="#63b8ff" d="M1016.97,-152.2C950.22,-152.91 783.33,-149.86 652.5,-107 648.01,-105.53 643.46,-103.43 639.21,-101.14"/>
<polygon fill="#63b8ff" stroke="#63b8ff" points="640.91,-98.08 630.52,-96.01 637.36,-104.11 640.91,-98.08"/>
</a>
</g>
</g>
<!-- Node13 -->
<g id="Node000013" class="node">
<title>Node13</title>
<g id="a_Node000013"><a xlink:title=" ">
<polygon fill="#e0e0e0" stroke="#999999" points="744,-96 661,-96 661,-77 744,-77 744,-96"/>
<text text-anchor="middle" x="702.5" y="-84" font-family="Helvetica,sans-Serif" font-size="10.00">initializer_list</text>
</a>
</g>
</g>
<!-- Node4&#45;&gt;Node13 -->
<g id="edge12_Node000004_Node000013" class="edge">
<title>Node4&#45;&gt;Node13</title>
<g id="a_edge12_Node000004_Node000013"><a xlink:title=" ">
<path fill="none" stroke="#63b8ff" d="M1016.97,-149.12C963.64,-144.37 848.02,-131.94 753.5,-107 746.36,-105.12 738.84,-102.57 731.83,-99.94"/>
<polygon fill="#63b8ff" stroke="#63b8ff" points="732.62,-96.49 722.04,-96.1 730.07,-103.01 732.62,-96.49"/>
</a>
</g>
</g>
<!-- Node14 -->
<g id="Node000014" class="node">
<title>Node14</title>
<g id="a_Node000014"><a xlink:title=" ">
<polygon fill="#e0e0e0" stroke="#999999" points="815,-96 762,-96 762,-77 815,-77 815,-96"/>
<text text-anchor="middle" x="788.5" y="-84" font-family="Helvetica,sans-Serif" font-size="10.00">iterator</text>
</a>
</g>
</g>
<!-- Node4&#45;&gt;Node14 -->
<g id="edge13_Node000004_Node000014" class="edge">
<title>Node4&#45;&gt;Node14</title>
<g id="a_edge13_Node000004_Node000014"><a xlink:title=" ">
<path fill="none" stroke="#63b8ff" d="M1016.65,-148.38C973.3,-143.22 890.85,-131 824.5,-107 820.02,-105.38 815.41,-103.27 811.06,-101.04"/>
<polygon fill="#63b8ff" stroke="#63b8ff" points="812.52,-97.85 802.07,-96.1 809.15,-103.98 812.52,-97.85"/>
</a>
</g>
</g>
<!-- Node15 -->
<g id="Node000015" class="node">
<title>Node15</title>
<g id="a_Node000015"><a xlink:title=" ">
<polygon fill="#e0e0e0" stroke="#999999" points="891.5,-96 833.5,-96 833.5,-77 891.5,-77 891.5,-96"/>
<text text-anchor="middle" x="862.5" y="-84" font-family="Helvetica,sans-Serif" font-size="10.00">memory</text>
</a>
</g>
</g>
<!-- Node4&#45;&gt;Node15 -->
<g id="edge14_Node000004_Node000015" class="edge">
<title>Node4&#45;&gt;Node15</title>
<g id="a_edge14_Node000004_Node000015"><a xlink:title=" ">
<path fill="none" stroke="#63b8ff" d="M1016.84,-143.95C987.18,-136.04 940.49,-122.61 901.5,-107 896.83,-105.13 891.95,-102.91 887.29,-100.66"/>
<polygon fill="#63b8ff" stroke="#63b8ff" points="888.67,-97.44 878.17,-96.08 885.53,-103.69 888.67,-97.44"/>
</a>
</g>
</g>
<!-- Node16 -->
<g id="Node000016" class="node">
<title>Node16</title>
<g id="a_Node000016"><a xlink:title=" ">
<polygon fill="#e0e0e0" stroke="#999999" points="975,-96 910,-96 910,-77 975,-77 975,-96"/>
<text text-anchor="middle" x="942.5" y="-84" font-family="Helvetica,sans-Serif" font-size="10.00">stdexcept</text>
</a>
</g>
</g>
<!-- Node4&#45;&gt;Node16 -->
<g id="edge15_Node000004_Node000016" class="edge">
<title>Node4&#45;&gt;Node16</title>
<g id="a_edge15_Node000004_Node000016"><a xlink:title=" ">
<path fill="none" stroke="#63b8ff" d="M1032.47,-142.87C1015.26,-132.28 985.84,-114.17 965.35,-101.56"/>
<polygon fill="#63b8ff" stroke="#63b8ff" points="966.99,-98.46 956.64,-96.2 963.32,-104.42 966.99,-98.46"/>
</a>
</g>
</g>
<!-- Node17 -->
<g id="Node000017" class="node">
<title>Node17</title>
<g id="a_Node000017"><a xlink:title=" ">
<polygon fill="#e0e0e0" stroke="#999999" points="1037.5,-96 993.5,-96 993.5,-77 1037.5,-77 1037.5,-96"/>
<text text-anchor="middle" x="1015.5" y="-84" font-family="Helvetica,sans-Serif" font-size="10.00">string</text>
</a>
</g>
</g>
<!-- Node4&#45;&gt;Node17 -->
<g id="edge16_Node000004_Node000017" class="edge">
<title>Node4&#45;&gt;Node17</title>
<g id="a_edge16_Node000004_Node000017"><a xlink:title=" ">
<path fill="none" stroke="#63b8ff" d="M1042.32,-142.87C1037.72,-133.38 1030.21,-117.86 1024.3,-105.66"/>
<polygon fill="#63b8ff" stroke="#63b8ff" points="1027.32,-103.88 1019.81,-96.41 1021.02,-106.93 1027.32,-103.88"/>
</a>
</g>
</g>
<!-- Node18 -->
<g id="Node000018" class="node">
<title>Node18</title>
<g id="a_Node000018"><a xlink:title=" ">
<polygon fill="#e0e0e0" stroke="#999999" points="69,-96 0,-96 0,-77 69,-77 69,-96"/>
<text text-anchor="middle" x="34.5" y="-84" font-family="Helvetica,sans-Serif" font-size="10.00">type_traits</text>
</a>
</g>
</g>
<!-- Node4&#45;&gt;Node18 -->
<g id="edge17_Node000004_Node000018" class="edge">
<title>Node4&#45;&gt;Node18</title>
<g id="a_edge17_Node000004_Node000018"><a xlink:title=" ">
<path fill="none" stroke="#63b8ff" d="M1016.89,-150.79C864.46,-147.05 171.68,-128.97 78.5,-107 71.99,-105.46 65.25,-102.98 59.06,-100.3"/>
<polygon fill="#63b8ff" stroke="#63b8ff" points="60.43,-97.08 49.89,-96.01 57.47,-103.42 60.43,-97.08"/>
</a>
</g>
</g>
<!-- Node19 -->
<g id="Node000019" class="node">
<title>Node19</title>
<g id="a_Node000019"><a xlink:title=" ">
<polygon fill="#e0e0e0" stroke="#999999" points="1101,-96 1056,-96 1056,-77 1101,-77 1101,-96"/>
<text text-anchor="middle" x="1078.5" y="-84" font-family="Helvetica,sans-Serif" font-size="10.00">utility</text>
</a>
</g>
</g>
<!-- Node4&#45;&gt;Node19 -->
<g id="edge18_Node000004_Node000019" class="edge">
<title>Node4&#45;&gt;Node19</title>
<g id="a_edge18_Node000004_Node000019"><a xlink:title=" ">
<path fill="none" stroke="#63b8ff" d="M1050.82,-142.87C1055.56,-133.38 1063.32,-117.86 1069.42,-105.66"/>
<polygon fill="#63b8ff" stroke="#63b8ff" points="1072.71,-106.91 1074.05,-96.41 1066.44,-103.78 1072.71,-106.91"/>
</a>
</g>
</g>
<!-- Node20 -->
<g id="Node000020" class="node">
<title>Node20</title>
<g id="a_Node000020"><a xlink:href="../../dd/d9e/linux_2platform__config_8hpp.html" target="_top" xlink:title="additional linux platform header">
<polygon fill="white" stroke="#666666" points="1274,-107 1119,-107 1119,-66 1274,-66 1274,-107"/>
<text text-anchor="start" x="1127" y="-95" font-family="Helvetica,sans-Serif" font-size="10.00">/home/runner/work/toygine2</text>
<text text-anchor="start" x="1127" y="-84" font-family="Helvetica,sans-Serif" font-size="10.00">/toygine2/src/platforms</text>
<text text-anchor="middle" x="1196.5" y="-73" font-family="Helvetica,sans-Serif" font-size="10.00">/linux/platform_config.hpp</text>
</a>
</g>
</g>
<!-- Node4&#45;&gt;Node20 -->
<g id="edge19_Node000004_Node000020" class="edge">
<title>Node4&#45;&gt;Node20</title>
<g id="a_edge19_Node000004_Node000020"><a xlink:title=" ">
<path fill="none" stroke="#63b8ff" d="M1066.73,-142.87C1085.82,-134.72 1115.31,-122.14 1141.36,-111.03"/>
<polygon fill="#63b8ff" stroke="#63b8ff" points="1142.95,-114.15 1150.78,-107.01 1140.2,-107.71 1142.95,-114.15"/>
</a>
</g>
</g>
<!-- Node22 -->
<g id="Node000022" class="node">
<title>Node22</title>
<g id="a_Node000022"><a xlink:href="../../dd/ded/c__string__view_8hpp.html" target="_top" xlink:title="Non&#45;owning string view class for C&#45;style strings.">
<polygon fill="white" stroke="#666666" points="1420.5,-96 1292.5,-96 1292.5,-77 1420.5,-77 1420.5,-96"/>
<text text-anchor="middle" x="1356.5" y="-84" font-family="Helvetica,sans-Serif" font-size="10.00">core/c_string_view.hpp</text>
</a>
</g>
</g>
<!-- Node4&#45;&gt;Node22 -->
<g id="edge21_Node000004_Node000022" class="edge">
<title>Node4&#45;&gt;Node22</title>
<g id="a_edge21_Node000004_Node000022"><a xlink:title=" ">
<path fill="none" stroke="#63b8ff" d="M1076.21,-146.66C1121.24,-139.16 1209.4,-123.83 1283.5,-107 1294.26,-104.56 1305.83,-101.61 1316.52,-98.76"/>
<polygon fill="#63b8ff" stroke="#63b8ff" points="1317.7,-102.07 1326.44,-96.08 1315.87,-95.31 1317.7,-102.07"/>
</a>
</g>
</g>
<!-- Node23 -->
<g id="Node000023" class="node">
<title>Node23</title>
<g id="a_Node000023"><a xlink:href="../../d1/d5c/callbacks__pool_8hpp.html" target="_top" xlink:title="Template callback pool class with fixed&#45;size callback storage.">
<polygon fill="white" stroke="#666666" points="1572.5,-96 1438.5,-96 1438.5,-77 1572.5,-77 1572.5,-96"/>
<text text-anchor="middle" x="1505.5" y="-84" font-family="Helvetica,sans-Serif" font-size="10.00">core/callbacks_pool.hpp</text>
</a>
</g>
</g>
<!-- Node4&#45;&gt;Node23 -->
<g id="edge22_Node000004_Node000023" class="edge">
<title>Node4&#45;&gt;Node23</title>
<g id="a_edge22_Node000004_Node000023"><a xlink:title=" ">
<path fill="none" stroke="#63b8ff" d="M1076.01,-149.44C1140.54,-144.64 1298.85,-131.24 1429.5,-107 1441.52,-104.77 1454.44,-101.71 1466.17,-98.67"/>
<polygon fill="#63b8ff" stroke="#63b8ff" points="1467.35,-101.98 1476.11,-96.03 1465.55,-95.22 1467.35,-101.98"/>
</a>
</g>
</g>
<!-- Node24 -->
<g id="Node000024" class="node">
<title>Node24</title>
<g id="a_Node000024"><a xlink:href="../../d4/dc0/constexpr__utils_8hpp.html" target="_top" xlink:title="Constexpr utility functions for compile&#45;time operations.">
<polygon fill="white" stroke="#666666" points="1726.5,-96 1590.5,-96 1590.5,-77 1726.5,-77 1726.5,-96"/>
<text text-anchor="middle" x="1658.5" y="-84" font-family="Helvetica,sans-Serif" font-size="10.00">core/constexpr_utils.hpp</text>
</a>
</g>
</g>
<!-- Node4&#45;&gt;Node24 -->
<g id="edge23_Node000004_Node000024" class="edge">
<title>Node4&#45;&gt;Node24</title>
<g id="a_edge23_Node000004_Node000024"><a xlink:title=" ">
<path fill="none" stroke="#63b8ff" d="M1076.29,-150.74C1157.73,-148.31 1390.75,-138.86 1581.5,-107 1594.04,-104.91 1607.53,-101.79 1619.67,-98.66"/>
<polygon fill="#63b8ff" stroke="#63b8ff" points="1620.72,-102 1629.49,-96.05 1618.93,-95.24 1620.72,-102"/>
</a>
</g>
</g>
<!-- Node25 -->
<g id="Node000025" class="node">
<title>Node25</title>
<g id="a_Node000025"><a xlink:href="../../d7/d7f/fixed__string_8hpp.html" target="_top" xlink:title="Template string class with fixed&#45;size character buffer.">
<polygon fill="white" stroke="#666666" points="1862.5,-96 1744.5,-96 1744.5,-77 1862.5,-77 1862.5,-96"/>
<text text-anchor="middle" x="1803.5" y="-84" font-family="Helvetica,sans-Serif" font-size="10.00">core/fixed_string.hpp</text>
</a>
</g>
</g>
<!-- Node4&#45;&gt;Node25 -->
<g id="edge24_Node000004_Node000025" class="edge">
<title>Node4&#45;&gt;Node25</title>
<g id="a_edge24_Node000004_Node000025"><a xlink:title=" ">
<path fill="none" stroke="#63b8ff" d="M1076.32,-151.85C1172.56,-152.48 1483.35,-150.77 1735.5,-107 1746.5,-105.09 1758.27,-102.08 1768.87,-98.98"/>
<polygon fill="#63b8ff" stroke="#63b8ff" points="1770.06,-102.28 1778.61,-96.03 1768.03,-95.58 1770.06,-102.28"/>
</a>
</g>
</g>
<!-- Node26 -->
<g id="Node000026" class="node">
<title>Node26</title>
<g id="a_Node000026"><a xlink:href="../../d7/dea/fixed__vector_8hpp.html" target="_top" xlink:title="TODO.">
<polygon fill="white" stroke="#666666" points="2000.5,-96 1880.5,-96 1880.5,-77 2000.5,-77 2000.5,-96"/>
<text text-anchor="middle" x="1940.5" y="-84" font-family="Helvetica,sans-Serif" font-size="10.00">core/fixed_vector.hpp</text>
</a>
</g>
</g>
<!-- Node4&#45;&gt;Node26 -->
<g id="edge25_Node000004_Node000026" class="edge">
<title>Node4&#45;&gt;Node26</title>
<g id="a_edge25_Node000004_Node000026"><a xlink:title=" ">
<path fill="none" stroke="#63b8ff" d="M1076.23,-150.78C1204.81,-147.53 1713.73,-133.22 1871.5,-107 1882.67,-105.14 1894.61,-102.15 1905.36,-99.05"/>
<polygon fill="#63b8ff" stroke="#63b8ff" points="1906.67,-102.31 1915.25,-96.09 1904.66,-95.61 1906.67,-102.31"/>
</a>
</g>
</g>
<!-- Node27 -->
<g id="Node000027" class="node">
<title>Node27</title>
<g id="a_Node000027"><a xlink:href="../../dd/d8e/hashes_8hpp.html" target="_top" xlink:title="CRC hash functions.">
<polygon fill="white" stroke="#666666" points="2114.5,-96 2018.5,-96 2018.5,-77 2114.5,-77 2114.5,-96"/>
<text text-anchor="middle" x="2066.5" y="-84" font-family="Helvetica,sans-Serif" font-size="10.00">core/hashes.hpp</text>
</a>
</g>
</g>
<!-- Node4&#45;&gt;Node27 -->
<g id="edge26_Node000004_Node000027" class="edge">
<title>Node4&#45;&gt;Node27</title>
<g id="a_edge26_Node000004_Node000027"><a xlink:title=" ">
<path fill="none" stroke="#63b8ff" d="M1076.36,-151.26C1218.12,-149.93 1824.12,-142.25 2009.5,-107 2018.44,-105.3 2027.88,-102.51 2036.45,-99.56"/>
<polygon fill="#63b8ff" stroke="#63b8ff" points="2037.83,-102.78 2046.04,-96.08 2035.44,-96.2 2037.83,-102.78"/>
</a>
</g>
</g>
<!-- Node28 -->
<g id="Node000028" class="node">
<title>Node28</title>
<g id="a_Node000028"><a xlink:href="../../df/d93/utils_8hpp.html" target="_top" xlink:title="Core utility functions for string manipulation, encoding conversion, and number formatting.">
<polygon fill="white" stroke="#666666" points="2216,-96 2133,-96 2133,-77 2216,-77 2216,-96"/>
<text text-anchor="middle" x="2174.5" y="-84" font-family="Helvetica,sans-Serif" font-size="10.00">core/utils.hpp</text>
</a>
</g>
</g>
<!-- Node4&#45;&gt;Node28 -->
<g id="edge27_Node000004_Node000028" class="edge">
<title>Node4&#45;&gt;Node28</title>
<g id="a_edge27_Node000004_Node000028"><a xlink:title=" ">
<path fill="none" stroke="#63b8ff" d="M1076.32,-151.57C1228.04,-151.71 1915.24,-149.92 2123.5,-107 2131.38,-105.38 2139.63,-102.69 2147.15,-99.82"/>
<polygon fill="#63b8ff" stroke="#63b8ff" points="2148.57,-103.02 2156.52,-96.02 2145.94,-96.53 2148.57,-103.02"/>
</a>
</g>
</g>
<!-- Node29 -->
<g id="Node000029" class="node">
<title>Node29</title>
<g id="a_Node000029"><a xlink:href="../../df/d4a/c__string__view_8inl.html" target="_top" xlink:title="Inline implementations for CStringView class.">
<polygon fill="white" stroke="#666666" points="2356.5,-96 2234.5,-96 2234.5,-77 2356.5,-77 2356.5,-96"/>
<text text-anchor="middle" x="2295.5" y="-84" font-family="Helvetica,sans-Serif" font-size="10.00">core/c_string_view.inl</text>
</a>
</g>
</g>
<!-- Node4&#45;&gt;Node29 -->
<g id="edge28_Node000004_Node000029" class="edge">
<title>Node4&#45;&gt;Node29</title>
<g id="a_edge28_Node000004_Node000029"><a xlink:title=" ">
<path fill="none" stroke="#63b8ff" d="M1076.13,-151.32C1235.69,-150.21 1994.15,-143.08 2225.5,-107 2237.05,-105.2 2249.4,-102.15 2260.47,-98.99"/>
<polygon fill="#63b8ff" stroke="#63b8ff" points="2261.63,-102.29 2270.21,-96.09 2259.63,-95.59 2261.63,-102.29"/>
</a>
</g>
</g>
<!-- Node30 -->
<g id="Node000030" class="node">
<title>Node30</title>
<g id="a_Node000030"><a xlink:href="../../d6/ddb/callbacks__pool_8inl.html" target="_top" xlink:title="Inline implementations for template callback pool class with fixed&#45;size callback storage.">
<polygon fill="white" stroke="#666666" points="2502.5,-96 2374.5,-96 2374.5,-77 2502.5,-77 2502.5,-96"/>
<text text-anchor="middle" x="2438.5" y="-84" font-family="Helvetica,sans-Serif" font-size="10.00">core/callbacks_pool.inl</text>
</a>
</g>
</g>
<!-- Node4&#45;&gt;Node30 -->
<g id="edge29_Node000004_Node000030" class="edge">
<title>Node4&#45;&gt;Node30</title>
<g id="a_edge29_Node000004_Node000030"><a xlink:title=" ">
<path fill="none" stroke="#63b8ff" d="M1076.21,-151.41C1246.94,-150.78 2104.72,-145.71 2365.5,-107 2377.74,-105.18 2390.88,-102.06 2402.59,-98.83"/>
<polygon fill="#63b8ff" stroke="#63b8ff" points="2403.8,-102.12 2412.45,-96 2401.87,-95.4 2403.8,-102.12"/>
</a>
</g>
</g>
<!-- Node31 -->
<g id="Node000031" class="node">
<title>Node31</title>
<g id="a_Node000031"><a xlink:href="../../dc/d28/constexpr__utils_8inl.html" target="_top" xlink:title="Inline implementations for constexpr utility functions.">
<polygon fill="white" stroke="#666666" points="2650.5,-96 2520.5,-96 2520.5,-77 2650.5,-77 2650.5,-96"/>
<text text-anchor="middle" x="2585.5" y="-84" font-family="Helvetica,sans-Serif" font-size="10.00">core/constexpr_utils.inl</text>
</a>
</g>
</g>
<!-- Node4&#45;&gt;Node31 -->
<g id="edge30_Node000004_Node000031" class="edge">
<title>Node4&#45;&gt;Node31</title>
<g id="a_edge30_Node000004_Node000031"><a xlink:title=" ">
<path fill="none" stroke="#63b8ff" d="M1076.18,-151.52C1257.7,-151.48 2220.01,-149.27 2511.5,-107 2524.03,-105.18 2537.49,-102.02 2549.45,-98.76"/>
<polygon fill="#63b8ff" stroke="#63b8ff" points="2550.42,-102.12 2559.09,-96.02 2548.51,-95.38 2550.42,-102.12"/>
</a>
</g>
</g>
<!-- Node32 -->
<g id="Node000032" class="node">
<title>Node32</title>
<g id="a_Node000032"><a xlink:href="../../d7/d40/fixed__string_8inl.html" target="_top" xlink:title="Inline implementations for FixedString template class.">
<polygon fill="white" stroke="#666666" points="2780.5,-96 2668.5,-96 2668.5,-77 2780.5,-77 2780.5,-96"/>
<text text-anchor="middle" x="2724.5" y="-84" font-family="Helvetica,sans-Serif" font-size="10.00">core/fixed_string.inl</text>
</a>
</g>
</g>
<!-- Node4&#45;&gt;Node32 -->
<g id="edge31_Node000004_Node000032" class="edge">
<title>Node4&#45;&gt;Node32</title>
<g id="a_edge31_Node000004_Node000032"><a xlink:title=" ">
<path fill="none" stroke="#63b8ff" d="M1076.27,-151.15C1282.72,-148.67 2497.61,-133.05 2659.5,-107 2670.14,-105.29 2681.48,-102.31 2691.66,-99.19"/>
<polygon fill="#63b8ff" stroke="#63b8ff" points="2692.93,-102.45 2701.38,-96.06 2690.79,-95.79 2692.93,-102.45"/>
</a>
</g>
</g>
<!-- Node33 -->
<g id="Node000033" class="node">
<title>Node33</title>
<g id="a_Node000033"><a xlink:href="../../da/dc9/fixed__vector_8inl.html" target="_top" xlink:title="TODO.">
<polygon fill="white" stroke="#666666" points="2912.5,-96 2798.5,-96 2798.5,-77 2912.5,-77 2912.5,-96"/>
<text text-anchor="middle" x="2855.5" y="-84" font-family="Helvetica,sans-Serif" font-size="10.00">core/fixed_vector.inl</text>
</a>
</g>
</g>
<!-- Node4&#45;&gt;Node33 -->
<g id="edge32_Node000004_Node000033" class="edge">
<title>Node4&#45;&gt;Node33</title>
<g id="a_edge32_Node000004_Node000033"><a xlink:title=" ">
<path fill="none" stroke="#63b8ff" d="M1076.22,-151.21C1291.91,-149.04 2613.83,-134.7 2789.5,-107 2800.41,-105.28 2812.05,-102.26 2822.47,-99.1"/>
<polygon fill="#63b8ff" stroke="#63b8ff" points="2823.54,-102.43 2832.02,-96.07 2821.43,-95.76 2823.54,-102.43"/>
</a>
</g>
</g>
<!-- Node34 -->
<g id="Node000034" class="node">
<title>Node34</title>
<g id="a_Node000034"><a xlink:href="../../df/d7d/utils_8inl.html" target="_top" xlink:title="Inline implementations of core utility functions for string manipulation and encoding conversion.">
<polygon fill="white" stroke="#666666" points="3008,-96 2931,-96 2931,-77 3008,-77 3008,-96"/>
<text text-anchor="middle" x="2969.5" y="-84" font-family="Helvetica,sans-Serif" font-size="10.00">core/utils.inl</text>
</a>
</g>
</g>
<!-- Node4&#45;&gt;Node34 -->
<g id="edge33_Node000004_Node000034" class="edge">
<title>Node4&#45;&gt;Node34</title>
<g id="a_edge33_Node000004_Node000034"><a xlink:title=" ">
<path fill="none" stroke="#63b8ff" d="M1076.31,-151.44C1301.67,-150.91 2733.6,-146.03 2921.5,-107 2928.72,-105.5 2936.24,-102.96 2943.12,-100.2"/>
<polygon fill="#63b8ff" stroke="#63b8ff" points="2944.85,-103.27 2952.65,-96.1 2942.08,-96.84 2944.85,-103.27"/>
</a>
</g>
</g>
<!-- Node21 -->
<g id="Node000021" class="node">
<title>Node21</title>
<g id="a_Node000021"><a xlink:href="../../d1/d5f/assertion__macro__gcc__clang_8hpp.html" target="_top" xlink:title="Debug and Release assertion macro implementations for GCC/Clang platforms.">
<polygon fill="white" stroke="#666666" points="1260,-30 1133,-30 1133,0 1260,0 1260,-30"/>
<text text-anchor="start" x="1141" y="-18" font-family="Helvetica,sans-Serif" font-size="10.00">../common/assertion</text>
<text text-anchor="middle" x="1196.5" y="-7" font-family="Helvetica,sans-Serif" font-size="10.00">_macro_gcc_clang.hpp</text>
</a>
</g>
</g>
<!-- Node20&#45;&gt;Node21 -->
<g id="edge20_Node000020_Node000021" class="edge">
<title>Node20&#45;&gt;Node21</title>
<g id="a_edge20_Node000020_Node000021"><a xlink:title=" ">
<path fill="none" stroke="#63b8ff" d="M1196.5,-65.77C1196.5,-57.85 1196.5,-48.63 1196.5,-40.3"/>
<polygon fill="#63b8ff" stroke="#63b8ff" points="1200,-40.04 1196.5,-30.04 1193,-40.04 1200,-40.04"/>
</a>
</g>
</g>
<!-- Node35&#45;&gt;Node18 -->
<g id="edge35_Node000035_Node000018" class="edge">
<title>Node35&#45;&gt;Node18</title>
<g id="a_edge35_Node000035_Node000018"><a xlink:title=" ">
<path fill="none" stroke="#63b8ff" d="M460.87,-144.09C458.04,-143.7 455.23,-143.34 452.5,-143 286.78,-122.46 240.02,-149.38 78.5,-107 72.29,-105.37 65.84,-102.96 59.85,-100.39"/>
<polygon fill="#63b8ff" stroke="#63b8ff" points="60.9,-97.01 50.35,-96.01 57.97,-103.37 60.9,-97.01"/>
</a>
</g>
</g>
</g>
</svg>

<g id="navigator" transform="translate(0 0)" fill="#404254">
  <rect fill="#f2f5e9" fill-opacity="0.5" stroke="#606060" stroke-width=".5" x="0" y="0" width="60" height="60"/>
  <use id="zoomplus" xlink:href="#zoomPlus" x="17" y="9" onmousedown="handleZoom(evt,'in')"/>
  <use id="zoomminus" xlink:href="#zoomMin" x="42" y="9" onmousedown="handleZoom(evt,'out')"/>
  <use id="reset" xlink:href="#resetDef" x="30" y="36" onmousedown="handleReset()"/>
   <use id="arrowup" xlink:href="#arrowUp" x="0" y="0" onmousedown="handlePan(0,-1)"/>
  <use id="arrowright" xlink:href="#arrowRight" x="0" y="0" onmousedown="handlePan(1,0)"/>
  <use id="arrowdown" xlink:href="#arrowDown" x="0" y="0" onmousedown="handlePan(0,1)"/>
  <use id="arrowleft" xlink:href="#arrowLeft" x="0" y="0" onmousedown="handlePan(-1,0)"/>
</g>
<svg viewBox="0 0 15 15" width="100%" height="30px" preserveAspectRatio="xMaxYMin meet">
 <g id="arrow_out" transform="scale(0.3 0.3)">
  <a xlink:href="utils_8cpp__incl_org.svg" target="_base">
   <rect id="button" ry="5" rx="5" y="6" x="6" height="38" width="38"
        fill="#f2f5e9" fill-opacity="0.5" stroke="#606060" stroke-width="1.0"/>
   <path id="arrow"
     d="M 11.500037,31.436501 C 11.940474,20.09759 22.043105,11.32322 32.158766,21.979434 L 37.068811,17.246167 C 37.068811,17.246167 37.088388,32 37.088388,32 L 22.160133,31.978069 C 22.160133,31.978069 26.997745,27.140456 26.997745,27.140456 C 18.528582,18.264221 13.291696,25.230495 11.500037,31.436501 z"
     style="fill:#404040;"/>
  </a>
 </g>
</svg>

<style type='text/css'>
<![CDATA[
[data-mouse-over-selected='false'] { opacity: 0.7; }
[data-mouse-over-selected='true']  { opacity: 1.0; }
]]>
</style>
<script type="application/ecmascript"><![CDATA[
document.addEventListener('DOMContentLoaded', (event) => {
  highlightEdges();
  highlightAdjacentNodes();
});
]]></script>
</svg>
