<?xml version="1.0" encoding="UTF-8" standalone="no"?>
<!DOCTYPE svg PUBLIC "-//W3C//DTD SVG 1.1//EN"
 "http://www.w3.org/Graphics/SVG/1.1/DTD/svg11.dtd">
<!-- Generated by graphviz version 2.43.0 (0)
 -->
<!-- Title: src/core/utils.cpp Pages: 1 -->
<svg width="3528pt" height="225pt"
 viewBox="0.00 0.00 3527.50 225.00" xmlns="http://www.w3.org/2000/svg" xmlns:xlink="http://www.w3.org/1999/xlink">
<g id="graph0" class="graph" transform="scale(1 1) rotate(0) translate(4 221)">
<title>src/core/utils.cpp</title>
<!-- Node1 -->
<g id="Node000001" class="node">
<title>Node1</title>
<g id="a_Node000001"><a xlink:title="Implementation of core utility functions for string manipulation, encoding conversion,...">
<polygon fill="#999999" stroke="#666666" points="1322.5,-217 1223.5,-217 1223.5,-198 1322.5,-198 1322.5,-217"/>
<text text-anchor="middle" x="1273" y="-205" font-family="Helvetica,sans-Serif" font-size="10.00">src/core/utils.cpp</text>
</a>
</g>
</g>
<!-- Node2 -->
<g id="Node000002" class="node">
<title>Node2</title>
<g id="a_Node000002"><a xlink:title=" ">
<polygon fill="#e0e0e0" stroke="#999999" points="1196.5,-162 1167.5,-162 1167.5,-143 1196.5,-143 1196.5,-162"/>
<text text-anchor="middle" x="1182" y="-150" font-family="Helvetica,sans-Serif" font-size="10.00">bit</text>
</a>
</g>
</g>
<!-- Node1&#45;&gt;Node2 -->
<g id="edge1_Node000001_Node000002" class="edge">
<title>Node1&#45;&gt;Node2</title>
<g id="a_edge1_Node000001_Node000002"><a xlink:title=" ">
<path fill="none" stroke="#63b8ff" d="M1258.38,-197.98C1244.05,-189.64 1221.99,-176.79 1205.25,-167.04"/>
<polygon fill="#63b8ff" stroke="#63b8ff" points="1206.99,-164 1196.58,-161.99 1203.46,-170.05 1206.99,-164"/>
</a>
</g>
</g>
<!-- Node3 -->
<g id="Node000003" class="node">
<title>Node3</title>
<g id="a_Node000003"><a xlink:title=" ">
<polygon fill="#e0e0e0" stroke="#999999" points="1261.5,-162 1214.5,-162 1214.5,-143 1261.5,-143 1261.5,-162"/>
<text text-anchor="middle" x="1238" y="-150" font-family="Helvetica,sans-Serif" font-size="10.00">cmath</text>
</a>
</g>
</g>
<!-- Node1&#45;&gt;Node3 -->
<g id="edge2_Node000001_Node000003" class="edge">
<title>Node1&#45;&gt;Node3</title>
<g id="a_edge2_Node000001_Node000003"><a xlink:title=" ">
<path fill="none" stroke="#63b8ff" d="M1267.22,-197.75C1262.38,-190.42 1255.32,-179.73 1249.36,-170.7"/>
<polygon fill="#63b8ff" stroke="#63b8ff" points="1252.1,-168.5 1243.67,-162.09 1246.26,-172.36 1252.1,-168.5"/>
</a>
</g>
</g>
<!-- Node4 -->
<g id="Node000004" class="node">
<title>Node4</title>
<g id="a_Node000004"><a xlink:href="../../da/d47/core_8hpp.html" target="_top" xlink:title="Umbrella header for the engine core module.">
<polygon fill="white" stroke="#666666" points="1338.5,-162 1279.5,-162 1279.5,-143 1338.5,-143 1338.5,-162"/>
<text text-anchor="middle" x="1309" y="-150" font-family="Helvetica,sans-Serif" font-size="10.00">core.hpp</text>
</a>
</g>
</g>
<!-- Node1&#45;&gt;Node4 -->
<g id="edge3_Node000001_Node000004" class="edge">
<title>Node1&#45;&gt;Node4</title>
<g id="a_edge3_Node000001_Node000004"><a xlink:title=" ">
<path fill="none" stroke="#63b8ff" d="M1278.94,-197.75C1283.98,-190.34 1291.34,-179.5 1297.51,-170.41"/>
<polygon fill="#63b8ff" stroke="#63b8ff" points="1300.44,-172.33 1303.17,-162.09 1294.65,-168.39 1300.44,-172.33"/>
</a>
</g>
</g>
<!-- Node40 -->
<g id="Node000040" class="node">
<title>Node40</title>
<g id="a_Node000040"><a xlink:href="../../d4/d85/utils__internal_8inl.html" target="_top" xlink:title="Internal utilities: inline helpers used by the core utils implementation.">
<polygon fill="white" stroke="#666666" points="1451.5,-162 1356.5,-162 1356.5,-143 1451.5,-143 1451.5,-162"/>
<text text-anchor="middle" x="1404" y="-150" font-family="Helvetica,sans-Serif" font-size="10.00">utils_internal.inl</text>
</a>
</g>
</g>
<!-- Node1&#45;&gt;Node40 -->
<g id="edge43_Node000001_Node000040" class="edge">
<title>Node1&#45;&gt;Node40</title>
<g id="a_edge43_Node000001_Node000040"><a xlink:title=" ">
<path fill="none" stroke="#63b8ff" d="M1294.05,-197.98C1315.41,-189.34 1348.7,-175.87 1373.06,-166.02"/>
<polygon fill="#63b8ff" stroke="#63b8ff" points="1374.61,-169.17 1382.57,-162.17 1371.99,-162.68 1374.61,-169.17"/>
</a>
</g>
</g>
<!-- Node5 -->
<g id="Node000005" class="node">
<title>Node5</title>
<g id="a_Node000005"><a xlink:title=" ">
<polygon fill="#e0e0e0" stroke="#999999" points="64,-96 0,-96 0,-77 64,-77 64,-96"/>
<text text-anchor="middle" x="32" y="-84" font-family="Helvetica,sans-Serif" font-size="10.00">algorithm</text>
</a>
</g>
</g>
<!-- Node4&#45;&gt;Node5 -->
<g id="edge4_Node000004_Node000005" class="edge">
<title>Node4&#45;&gt;Node5</title>
<g id="a_edge4_Node000004_Node000005"><a xlink:title=" ">
<path fill="none" stroke="#63b8ff" d="M1279.29,-144.43C1276.16,-143.87 1273.03,-143.37 1270,-143 1005.87,-110.53 331.68,-169.48 73,-107 67.01,-105.55 60.86,-103.17 55.2,-100.56"/>
<polygon fill="#63b8ff" stroke="#63b8ff" points="56.77,-97.43 46.26,-96.08 53.63,-103.69 56.77,-97.43"/>
</a>
</g>
</g>
<!-- Node6 -->
<g id="Node000006" class="node">
<title>Node6</title>
<g id="a_Node000006"><a xlink:title=" ">
<polygon fill="#e0e0e0" stroke="#999999" points="124,-96 82,-96 82,-77 124,-77 124,-96"/>
<text text-anchor="middle" x="103" y="-84" font-family="Helvetica,sans-Serif" font-size="10.00">array</text>
</a>
</g>
</g>
<!-- Node4&#45;&gt;Node6 -->
<g id="edge5_Node000004_Node000006" class="edge">
<title>Node4&#45;&gt;Node6</title>
<g id="a_edge5_Node000004_Node000006"><a xlink:title=" ">
<path fill="none" stroke="#63b8ff" d="M1279.29,-144.44C1276.16,-143.87 1273.03,-143.37 1270,-143 1144.56,-127.48 253.6,-144.84 133,-107 129.05,-105.76 125.11,-103.84 121.46,-101.68"/>
<polygon fill="#63b8ff" stroke="#63b8ff" points="123.36,-98.74 113.11,-96.07 119.46,-104.55 123.36,-98.74"/>
</a>
</g>
</g>
<!-- Node7 -->
<g id="Node000007" class="node">
<title>Node7</title>
<g id="a_Node000007"><a xlink:title=" ">
<polygon fill="#e0e0e0" stroke="#999999" points="201.5,-96 142.5,-96 142.5,-77 201.5,-77 201.5,-96"/>
<text text-anchor="middle" x="172" y="-84" font-family="Helvetica,sans-Serif" font-size="10.00">compare</text>
</a>
</g>
</g>
<!-- Node4&#45;&gt;Node7 -->
<g id="edge6_Node000004_Node000007" class="edge">
<title>Node4&#45;&gt;Node7</title>
<g id="a_edge6_Node000004_Node000007"><a xlink:title=" ">
<path fill="none" stroke="#63b8ff" d="M1279.29,-144.44C1276.16,-143.88 1273.03,-143.38 1270,-143 1036.35,-113.81 439.22,-164.99 211,-107 205.41,-105.58 199.68,-103.27 194.41,-100.74"/>
<polygon fill="#63b8ff" stroke="#63b8ff" points="195.99,-97.62 185.51,-96.07 192.74,-103.81 195.99,-97.62"/>
</a>
</g>
</g>
<!-- Node8 -->
<g id="Node000008" class="node">
<title>Node8</title>
<g id="a_Node000008"><a xlink:title=" ">
<polygon fill="#e0e0e0" stroke="#999999" points="280,-96 220,-96 220,-77 280,-77 280,-96"/>
<text text-anchor="middle" x="250" y="-84" font-family="Helvetica,sans-Serif" font-size="10.00">concepts</text>
</a>
</g>
</g>
<!-- Node4&#45;&gt;Node8 -->
<g id="edge7_Node000004_Node000008" class="edge">
<title>Node4&#45;&gt;Node8</title>
<g id="a_edge7_Node000004_Node000008"><a xlink:title=" ">
<path fill="none" stroke="#63b8ff" d="M1279.28,-144.45C1276.16,-143.88 1273.03,-143.38 1270,-143 1053.57,-115.66 500.36,-161.01 289,-107 283.41,-105.57 277.69,-103.26 272.41,-100.73"/>
<polygon fill="#63b8ff" stroke="#63b8ff" points="274,-97.61 263.52,-96.06 270.74,-103.8 274,-97.61"/>
</a>
</g>
</g>
<!-- Node9 -->
<g id="Node000009" class="node">
<title>Node9</title>
<g id="a_Node000009"><a xlink:title=" ">
<polygon fill="#e0e0e0" stroke="#999999" points="351.5,-96 298.5,-96 298.5,-77 351.5,-77 351.5,-96"/>
<text text-anchor="middle" x="325" y="-84" font-family="Helvetica,sans-Serif" font-size="10.00">cstddef</text>
</a>
</g>
</g>
<!-- Node4&#45;&gt;Node9 -->
<g id="edge8_Node000004_Node000009" class="edge">
<title>Node4&#45;&gt;Node9</title>
<g id="a_edge8_Node000004_Node000009"><a xlink:title=" ">
<path fill="none" stroke="#63b8ff" d="M1279.28,-144.46C1276.16,-143.89 1273.02,-143.39 1270,-143 1069.47,-117.38 555.94,-160.53 361,-107 356.03,-105.64 351,-103.48 346.33,-101.1"/>
<polygon fill="#63b8ff" stroke="#63b8ff" points="347.82,-97.92 337.39,-96.05 344.38,-104.01 347.82,-97.92"/>
</a>
</g>
</g>
<!-- Node10 -->
<g id="Node000010" class="node">
<title>Node10</title>
<g id="a_Node000010"><a xlink:title=" ">
<polygon fill="#e0e0e0" stroke="#999999" points="420,-96 370,-96 370,-77 420,-77 420,-96"/>
<text text-anchor="middle" x="395" y="-84" font-family="Helvetica,sans-Serif" font-size="10.00">cstdint</text>
</a>
</g>
</g>
<!-- Node4&#45;&gt;Node10 -->
<g id="edge9_Node000004_Node000010" class="edge">
<title>Node4&#45;&gt;Node10</title>
<g id="a_edge9_Node000004_Node000010"><a xlink:title=" ">
<path fill="none" stroke="#63b8ff" d="M1279.28,-144.47C1276.16,-143.9 1273.02,-143.39 1270,-143 1084.49,-118.99 608.68,-159.01 429,-107 424.39,-105.67 419.74,-103.59 415.42,-101.27"/>
<polygon fill="#63b8ff" stroke="#63b8ff" points="417.02,-98.15 406.64,-96.04 413.44,-104.17 417.02,-98.15"/>
</a>
</g>
</g>
<!-- Node11 -->
<g id="Node000011" class="node">
<title>Node11</title>
<g id="a_Node000011"><a xlink:title=" ">
<polygon fill="#e0e0e0" stroke="#999999" points="488,-96 438,-96 438,-77 488,-77 488,-96"/>
<text text-anchor="middle" x="463" y="-84" font-family="Helvetica,sans-Serif" font-size="10.00">cstring</text>
</a>
</g>
</g>
<!-- Node4&#45;&gt;Node11 -->
<g id="edge10_Node000004_Node000011" class="edge">
<title>Node4&#45;&gt;Node11</title>
<g id="a_edge10_Node000004_Node000011"><a xlink:title=" ">
<path fill="none" stroke="#63b8ff" d="M1279.28,-144.48C1276.16,-143.91 1273.02,-143.4 1270,-143 1099.5,-120.61 662.09,-155.12 497,-107 492.39,-105.66 487.74,-103.57 483.42,-101.26"/>
<polygon fill="#63b8ff" stroke="#63b8ff" points="485.03,-98.14 474.64,-96.03 481.44,-104.15 485.03,-98.14"/>
</a>
</g>
</g>
<!-- Node12 -->
<g id="Node000012" class="node">
<title>Node12</title>
<g id="a_Node000012"><a xlink:title=" ">
<polygon fill="#e0e0e0" stroke="#999999" points="555.5,-96 506.5,-96 506.5,-77 555.5,-77 555.5,-96"/>
<text text-anchor="middle" x="531" y="-84" font-family="Helvetica,sans-Serif" font-size="10.00">cuchar</text>
</a>
</g>
</g>
<!-- Node4&#45;&gt;Node12 -->
<g id="edge11_Node000004_Node000012" class="edge">
<title>Node4&#45;&gt;Node12</title>
<g id="a_edge11_Node000004_Node000012"><a xlink:title=" ">
<path fill="none" stroke="#63b8ff" d="M1279.28,-144.5C1276.16,-143.92 1273.02,-143.4 1270,-143 1114.29,-122.2 714.43,-152.27 564,-107 559.63,-105.68 555.23,-103.67 551.13,-101.43"/>
<polygon fill="#63b8ff" stroke="#63b8ff" points="552.63,-98.25 542.27,-96.01 548.97,-104.22 552.63,-98.25"/>
</a>
</g>
</g>
<!-- Node13 -->
<g id="Node000013" class="node">
<title>Node13</title>
<g id="a_Node000013"><a xlink:title=" ">
<polygon fill="#e0e0e0" stroke="#999999" points="656.5,-96 573.5,-96 573.5,-77 656.5,-77 656.5,-96"/>
<text text-anchor="middle" x="615" y="-84" font-family="Helvetica,sans-Serif" font-size="10.00">initializer_list</text>
</a>
</g>
</g>
<!-- Node4&#45;&gt;Node13 -->
<g id="edge12_Node000004_Node000013" class="edge">
<title>Node4&#45;&gt;Node13</title>
<g id="a_edge12_Node000004_Node000013"><a xlink:title=" ">
<path fill="none" stroke="#63b8ff" d="M1279.27,-144.52C1276.15,-143.94 1273.02,-143.42 1270,-143 1003.16,-106.21 928.13,-164.64 665,-107 657.49,-105.36 649.63,-102.75 642.42,-99.96"/>
<polygon fill="#63b8ff" stroke="#63b8ff" points="643.67,-96.69 633.09,-96.14 641.02,-103.17 643.67,-96.69"/>
</a>
</g>
</g>
<!-- Node14 -->
<g id="Node000014" class="node">
<title>Node14</title>
<g id="a_Node000014"><a xlink:title=" ">
<polygon fill="#e0e0e0" stroke="#999999" points="727.5,-96 674.5,-96 674.5,-77 727.5,-77 727.5,-96"/>
<text text-anchor="middle" x="701" y="-84" font-family="Helvetica,sans-Serif" font-size="10.00">iterator</text>
</a>
</g>
</g>
<!-- Node4&#45;&gt;Node14 -->
<g id="edge13_Node000004_Node000014" class="edge">
<title>Node4&#45;&gt;Node14</title>
<g id="a_edge13_Node000004_Node000014"><a xlink:title=" ">
<path fill="none" stroke="#63b8ff" d="M1279.27,-144.55C1276.15,-143.96 1273.02,-143.43 1270,-143 1034.93,-109.63 965.05,-173.06 737,-107 732.14,-105.59 727.19,-103.46 722.59,-101.11"/>
<polygon fill="#63b8ff" stroke="#63b8ff" points="724.18,-97.99 713.75,-96.15 720.76,-104.1 724.18,-97.99"/>
</a>
</g>
</g>
<!-- Node15 -->
<g id="Node000015" class="node">
<title>Node15</title>
<g id="a_Node000015"><a xlink:title=" ">
<polygon fill="#e0e0e0" stroke="#999999" points="804,-96 746,-96 746,-77 804,-77 804,-96"/>
<text text-anchor="middle" x="775" y="-84" font-family="Helvetica,sans-Serif" font-size="10.00">memory</text>
</a>
</g>
</g>
<!-- Node4&#45;&gt;Node15 -->
<g id="edge14_Node000004_Node000015" class="edge">
<title>Node4&#45;&gt;Node15</title>
<g id="a_edge14_Node000004_Node000015"><a xlink:title=" ">
<path fill="none" stroke="#63b8ff" d="M1279.27,-144.58C1276.15,-143.99 1273.02,-143.45 1270,-143 1068.45,-113.24 1009.01,-162.59 813,-107 807.78,-105.52 802.45,-103.3 797.48,-100.87"/>
<polygon fill="#63b8ff" stroke="#63b8ff" points="799,-97.71 788.53,-96.11 795.71,-103.89 799,-97.71"/>
</a>
</g>
</g>
<!-- Node16 -->
<g id="Node000016" class="node">
<title>Node16</title>
<g id="a_Node000016"><a xlink:title=" ">
<polygon fill="#e0e0e0" stroke="#999999" points="887.5,-96 822.5,-96 822.5,-77 887.5,-77 887.5,-96"/>
<text text-anchor="middle" x="855" y="-84" font-family="Helvetica,sans-Serif" font-size="10.00">stdexcept</text>
</a>
</g>
</g>
<!-- Node4&#45;&gt;Node16 -->
<g id="edge15_Node000004_Node000016" class="edge">
<title>Node4&#45;&gt;Node16</title>
<g id="a_edge15_Node000004_Node000016"><a xlink:title=" ">
<path fill="none" stroke="#63b8ff" d="M1279.26,-144.64C1276.14,-144.03 1273.01,-143.47 1270,-143 1105.46,-117.22 1057.71,-150.69 897,-107 891.04,-105.38 884.87,-102.97 879.15,-100.4"/>
<polygon fill="#63b8ff" stroke="#63b8ff" points="880.61,-97.22 870.08,-96.02 877.57,-103.52 880.61,-97.22"/>
</a>
</g>
</g>
<!-- Node17 -->
<g id="Node000017" class="node">
<title>Node17</title>
<g id="a_Node000017"><a xlink:title=" ">
<polygon fill="#e0e0e0" stroke="#999999" points="950,-96 906,-96 906,-77 950,-77 950,-96"/>
<text text-anchor="middle" x="928" y="-84" font-family="Helvetica,sans-Serif" font-size="10.00">string</text>
</a>
</g>
</g>
<!-- Node4&#45;&gt;Node17 -->
<g id="edge16_Node000004_Node000017" class="edge">
<title>Node4&#45;&gt;Node17</title>
<g id="a_edge16_Node000004_Node000017"><a xlink:title=" ">
<path fill="none" stroke="#63b8ff" d="M1279.25,-144.7C1276.13,-144.08 1273.01,-143.5 1270,-143 1132.74,-120.16 1090.26,-153.19 959,-107 955.06,-105.61 951.11,-103.66 947.4,-101.51"/>
<polygon fill="#63b8ff" stroke="#63b8ff" points="949.16,-98.48 938.86,-96.02 945.37,-104.37 949.16,-98.48"/>
</a>
</g>
</g>
<!-- Node18 -->
<g id="Node000018" class="node">
<title>Node18</title>
<g id="a_Node000018"><a xlink:title=" ">
<polygon fill="#e0e0e0" stroke="#999999" points="1037.5,-96 968.5,-96 968.5,-77 1037.5,-77 1037.5,-96"/>
<text text-anchor="middle" x="1003" y="-84" font-family="Helvetica,sans-Serif" font-size="10.00">type_traits</text>
</a>
</g>
</g>
<!-- Node4&#45;&gt;Node18 -->
<g id="edge17_Node000004_Node000018" class="edge">
<title>Node4&#45;&gt;Node18</title>
<g id="a_edge17_Node000004_Node000018"><a xlink:title=" ">
<path fill="none" stroke="#63b8ff" d="M1279.22,-144.83C1276.11,-144.19 1273,-143.57 1270,-143 1170.92,-124.26 1142.55,-136.08 1046,-107 1040.17,-105.24 1034.1,-102.86 1028.42,-100.37"/>
<polygon fill="#63b8ff" stroke="#63b8ff" points="1029.89,-97.19 1019.35,-96.16 1026.94,-103.54 1029.89,-97.19"/>
</a>
</g>
</g>
<!-- Node19 -->
<g id="Node000019" class="node">
<title>Node19</title>
<g id="a_Node000019"><a xlink:title=" ">
<polygon fill="#e0e0e0" stroke="#999999" points="1100.5,-96 1055.5,-96 1055.5,-77 1100.5,-77 1100.5,-96"/>
<text text-anchor="middle" x="1078" y="-84" font-family="Helvetica,sans-Serif" font-size="10.00">utility</text>
</a>
</g>
</g>
<!-- Node4&#45;&gt;Node19 -->
<g id="edge18_Node000004_Node000019" class="edge">
<title>Node4&#45;&gt;Node19</title>
<g id="a_edge18_Node000004_Node000019"><a xlink:title=" ">
<path fill="none" stroke="#63b8ff" d="M1279.33,-144.91C1226.92,-133.23 1122.73,-109.87 1115,-107 1110.51,-105.34 1105.88,-103.24 1101.48,-101.03"/>
<polygon fill="#63b8ff" stroke="#63b8ff" points="1102.83,-97.79 1092.36,-96.19 1099.55,-103.97 1102.83,-97.79"/>
</a>
</g>
</g>
<!-- Node20 -->
<g id="Node000020" class="node">
<title>Node20</title>
<g id="a_Node000020"><a xlink:href="../../dd/d9e/linux_2platform__config_8hpp.html" target="_top" xlink:title="additional linux platform header">
<polygon fill="white" stroke="#666666" points="1312.5,-107 1157.5,-107 1157.5,-66 1312.5,-66 1312.5,-107"/>
<text text-anchor="start" x="1165.5" y="-95" font-family="Helvetica,sans-Serif" font-size="10.00">/home/runner/work/toygine2</text>
<text text-anchor="start" x="1165.5" y="-84" font-family="Helvetica,sans-Serif" font-size="10.00">/toygine2/src/platforms</text>
<text text-anchor="middle" x="1235" y="-73" font-family="Helvetica,sans-Serif" font-size="10.00">/linux/platform_config.hpp</text>
</a>
</g>
</g>
<!-- Node4&#45;&gt;Node20 -->
<g id="edge19_Node000004_Node000020" class="edge">
<title>Node4&#45;&gt;Node20</title>
<g id="a_edge19_Node000004_Node000020"><a xlink:title=" ">
<path fill="none" stroke="#63b8ff" d="M1299.02,-142.87C1290.35,-135.37 1277.32,-124.1 1265.27,-113.68"/>
<polygon fill="#63b8ff" stroke="#63b8ff" points="1267.41,-110.9 1257.56,-107.01 1262.83,-116.2 1267.41,-110.9"/>
</a>
</g>
</g>
<!-- Node21 -->
<g id="Node000021" class="node">
<title>Node21</title>
<g id="a_Node000021"><a xlink:href="../../d3/d60/platform_8hpp.html" target="_top" xlink:title="Platform and CPU architecture enumerations with compile&#45;time and runtime detection utilities.">
<polygon fill="white" stroke="#666666" points="1180.5,-30 1077.5,-30 1077.5,0 1180.5,0 1180.5,-30"/>
<text text-anchor="start" x="1085.5" y="-18" font-family="Helvetica,sans-Serif" font-size="10.00">../../../include/core</text>
<text text-anchor="middle" x="1129" y="-7" font-family="Helvetica,sans-Serif" font-size="10.00">/platform.hpp</text>
</a>
</g>
</g>
<!-- Node4&#45;&gt;Node21 -->
<g id="edge33_Node000004_Node000021" class="edge">
<title>Node4&#45;&gt;Node21</title>
<g id="a_edge33_Node000004_Node000021"><a xlink:title=" ">
<path fill="none" stroke="#63b8ff" d="M1279.41,-145.07C1235.45,-135.26 1157.08,-116.68 1148,-107 1131.25,-89.14 1127.68,-60.48 1127.55,-40.1"/>
<polygon fill="#63b8ff" stroke="#63b8ff" points="1131.05,-40.1 1127.76,-30.03 1124.05,-39.95 1131.05,-40.1"/>
</a>
</g>
</g>
<!-- Node23 -->
<g id="Node000023" class="node">
<title>Node23</title>
<g id="a_Node000023"><a xlink:href="../../d5/d96/assertion_8hpp.html" target="_top" xlink:title="Assertion system for runtime and compile&#45;time validation of engine invariants.">
<polygon fill="white" stroke="#666666" points="1437.5,-96 1330.5,-96 1330.5,-77 1437.5,-77 1437.5,-96"/>
<text text-anchor="middle" x="1384" y="-84" font-family="Helvetica,sans-Serif" font-size="10.00">core/assertion.hpp</text>
</a>
</g>
</g>
<!-- Node4&#45;&gt;Node23 -->
<g id="edge22_Node000004_Node000023" class="edge">
<title>Node4&#45;&gt;Node23</title>
<g id="a_edge22_Node000004_Node000023"><a xlink:title=" ">
<path fill="none" stroke="#63b8ff" d="M1319.11,-142.87C1331.01,-132.71 1351,-115.66 1365.65,-103.15"/>
<polygon fill="#63b8ff" stroke="#63b8ff" points="1368.23,-105.56 1373.56,-96.41 1363.69,-100.23 1368.23,-105.56"/>
</a>
</g>
</g>
<!-- Node24 -->
<g id="Node000024" class="node">
<title>Node24</title>
<g id="a_Node000024"><a xlink:href="../../dd/ded/c__string__view_8hpp.html" target="_top" xlink:title="Non&#45;owning string view class for C&#45;style strings.">
<polygon fill="white" stroke="#666666" points="1584,-96 1456,-96 1456,-77 1584,-77 1584,-96"/>
<text text-anchor="middle" x="1520" y="-84" font-family="Helvetica,sans-Serif" font-size="10.00">core/c_string_view.hpp</text>
</a>
</g>
</g>
<!-- Node4&#45;&gt;Node24 -->
<g id="edge23_Node000004_Node000024" class="edge">
<title>Node4&#45;&gt;Node24</title>
<g id="a_edge23_Node000004_Node000024"><a xlink:title=" ">
<path fill="none" stroke="#63b8ff" d="M1337.46,-142.87C1374.76,-131.55 1440.33,-111.66 1481.9,-99.06"/>
<polygon fill="#63b8ff" stroke="#63b8ff" points="1483.1,-102.35 1491.66,-96.1 1481.07,-95.65 1483.1,-102.35"/>
</a>
</g>
</g>
<!-- Node25 -->
<g id="Node000025" class="node">
<title>Node25</title>
<g id="a_Node000025"><a xlink:href="../../de/deb/string__like_8hpp.html" target="_top" xlink:title="C++ concept for string&#45;like types with size() and c_str() methods.">
<polygon fill="white" stroke="#666666" points="1852,-24.5 1764,-24.5 1764,-5.5 1852,-5.5 1852,-24.5"/>
<text text-anchor="middle" x="1808" y="-12.5" font-family="Helvetica,sans-Serif" font-size="10.00">string_like.hpp</text>
</a>
</g>
</g>
<!-- Node4&#45;&gt;Node25 -->
<g id="edge34_Node000004_Node000025" class="edge">
<title>Node4&#45;&gt;Node25</title>
<g id="a_edge34_Node000004_Node000025"><a xlink:title=" ">
<path fill="none" stroke="#63b8ff" d="M1338.83,-144.61C1341.59,-144.04 1344.34,-143.49 1347,-143 1455.66,-122.93 1495.21,-158.45 1593,-107 1614.99,-95.43 1609.81,-78.97 1631,-66 1668.59,-42.99 1717.1,-30.26 1753.82,-23.41"/>
<polygon fill="#63b8ff" stroke="#63b8ff" points="1754.62,-26.82 1763.85,-21.63 1753.39,-19.93 1754.62,-26.82"/>
</a>
</g>
</g>
<!-- Node26 -->
<g id="Node000026" class="node">
<title>Node26</title>
<g id="a_Node000026"><a xlink:href="../../d1/d5c/callbacks__pool_8hpp.html" target="_top" xlink:title="Template callback pool class with fixed&#45;size callback storage.">
<polygon fill="white" stroke="#666666" points="1774,-96 1640,-96 1640,-77 1774,-77 1774,-96"/>
<text text-anchor="middle" x="1707" y="-84" font-family="Helvetica,sans-Serif" font-size="10.00">core/callbacks_pool.hpp</text>
</a>
</g>
</g>
<!-- Node4&#45;&gt;Node26 -->
<g id="edge25_Node000004_Node000026" class="edge">
<title>Node4&#45;&gt;Node26</title>
<g id="a_edge25_Node000004_Node000026"><a xlink:title=" ">
<path fill="none" stroke="#63b8ff" d="M1338.82,-144.56C1341.58,-144 1344.34,-143.47 1347,-143 1470.14,-121.33 1503.04,-129.66 1626,-107 1638.8,-104.64 1652.6,-101.53 1665.12,-98.49"/>
<polygon fill="#63b8ff" stroke="#63b8ff" points="1665.98,-101.89 1674.85,-96.08 1664.3,-95.09 1665.98,-101.89"/>
</a>
</g>
</g>
<!-- Node27 -->
<g id="Node000027" class="node">
<title>Node27</title>
<g id="a_Node000027"><a xlink:href="../../d4/dc0/constexpr__utils_8hpp.html" target="_top" xlink:title="Constexpr utility functions for compile&#45;time operations.">
<polygon fill="white" stroke="#666666" points="1928,-96 1792,-96 1792,-77 1928,-77 1928,-96"/>
<text text-anchor="middle" x="1860" y="-84" font-family="Helvetica,sans-Serif" font-size="10.00">core/constexpr_utils.hpp</text>
</a>
</g>
</g>
<!-- Node4&#45;&gt;Node27 -->
<g id="edge26_Node000004_Node000027" class="edge">
<title>Node4&#45;&gt;Node27</title>
<g id="a_edge26_Node000004_Node000027"><a xlink:title=" ">
<path fill="none" stroke="#63b8ff" d="M1338.8,-144.43C1341.56,-143.89 1344.33,-143.41 1347,-143 1539.22,-113.71 1591.21,-138.98 1783,-107 1795.54,-104.91 1809.03,-101.8 1821.17,-98.67"/>
<polygon fill="#63b8ff" stroke="#63b8ff" points="1822.22,-102.01 1830.99,-96.06 1820.43,-95.24 1822.22,-102.01"/>
</a>
</g>
</g>
<!-- Node28 -->
<g id="Node000028" class="node">
<title>Node28</title>
<g id="a_Node000028"><a xlink:href="../../d7/d7f/fixed__string_8hpp.html" target="_top" xlink:title="Template string class with fixed&#45;size character buffer.">
<polygon fill="white" stroke="#666666" points="2064,-96 1946,-96 1946,-77 2064,-77 2064,-96"/>
<text text-anchor="middle" x="2005" y="-84" font-family="Helvetica,sans-Serif" font-size="10.00">core/fixed_string.hpp</text>
</a>
</g>
</g>
<!-- Node4&#45;&gt;Node28 -->
<g id="edge27_Node000004_Node000028" class="edge">
<title>Node4&#45;&gt;Node28</title>
<g id="a_edge27_Node000004_Node000028"><a xlink:title=" ">
<path fill="none" stroke="#63b8ff" d="M1338.79,-144.37C1341.55,-143.85 1344.32,-143.38 1347,-143 1607.12,-106.21 1678.08,-151.47 1937,-107 1948.01,-105.11 1959.77,-102.1 1970.37,-99.01"/>
<polygon fill="#63b8ff" stroke="#63b8ff" points="1971.56,-102.31 1980.11,-96.05 1969.53,-95.61 1971.56,-102.31"/>
</a>
</g>
</g>
<!-- Node29 -->
<g id="Node000029" class="node">
<title>Node29</title>
<g id="a_Node000029"><a xlink:href="../../d7/dea/fixed__vector_8hpp.html" target="_top" xlink:title="TODO.">
<polygon fill="white" stroke="#666666" points="2202,-96 2082,-96 2082,-77 2202,-77 2202,-96"/>
<text text-anchor="middle" x="2142" y="-84" font-family="Helvetica,sans-Serif" font-size="10.00">core/fixed_vector.hpp</text>
</a>
</g>
</g>
<!-- Node4&#45;&gt;Node29 -->
<g id="edge29_Node000004_Node000029" class="edge">
<title>Node4&#45;&gt;Node29</title>
<g id="a_edge29_Node000004_Node000029"><a xlink:title=" ">
<path fill="none" stroke="#63b8ff" d="M1338.78,-144.33C1341.55,-143.82 1344.32,-143.36 1347,-143 1667.13,-99.58 1754.19,-159.26 2073,-107 2084.38,-105.13 2096.56,-102.07 2107.47,-98.91"/>
<polygon fill="#63b8ff" stroke="#63b8ff" points="2108.51,-102.25 2117.07,-96.02 2106.49,-95.55 2108.51,-102.25"/>
</a>
</g>
</g>
<!-- Node30 -->
<g id="Node000030" class="node">
<title>Node30</title>
<g id="a_Node000030"><a xlink:href="../../dd/d8e/hashes_8hpp.html" target="_top" xlink:title="CRC hash functions.">
<polygon fill="white" stroke="#666666" points="2316,-96 2220,-96 2220,-77 2316,-77 2316,-96"/>
<text text-anchor="middle" x="2268" y="-84" font-family="Helvetica,sans-Serif" font-size="10.00">core/hashes.hpp</text>
</a>
</g>
</g>
<!-- Node4&#45;&gt;Node30 -->
<g id="edge30_Node000004_Node000030" class="edge">
<title>Node4&#45;&gt;Node30</title>
<g id="a_edge30_Node000004_Node000030"><a xlink:title=" ">
<path fill="none" stroke="#63b8ff" d="M1338.78,-144.31C1341.55,-143.8 1344.32,-143.35 1347,-143 1728.05,-92.85 1833.27,-177.94 2211,-107 2219.94,-105.32 2229.38,-102.53 2237.96,-99.58"/>
<polygon fill="#63b8ff" stroke="#63b8ff" points="2239.34,-102.8 2247.54,-96.1 2236.95,-96.23 2239.34,-102.8"/>
</a>
</g>
</g>
<!-- Node31 -->
<g id="Node000031" class="node">
<title>Node31</title>
<g id="a_Node000031"><a xlink:href="../../de/d2d/o__string__stream_8hpp.html" target="_top" xlink:title="Output string stream class for building strings from various data types.">
<polygon fill="white" stroke="#666666" points="2474,-96 2334,-96 2334,-77 2474,-77 2474,-96"/>
<text text-anchor="middle" x="2404" y="-84" font-family="Helvetica,sans-Serif" font-size="10.00">core/o_string_stream.hpp</text>
</a>
</g>
</g>
<!-- Node4&#45;&gt;Node31 -->
<g id="edge31_Node000004_Node000031" class="edge">
<title>Node4&#45;&gt;Node31</title>
<g id="a_edge31_Node000004_Node000031"><a xlink:title=" ">
<path fill="none" stroke="#63b8ff" d="M1338.78,-144.3C1341.55,-143.79 1344.32,-143.35 1347,-143 1778.38,-87.29 1894.26,-167.44 2325,-107 2338.36,-105.13 2352.74,-101.94 2365.52,-98.68"/>
<polygon fill="#63b8ff" stroke="#63b8ff" points="2366.61,-102.01 2375.39,-96.07 2364.82,-95.24 2366.61,-102.01"/>
</a>
</g>
</g>
<!-- Node32 -->
<g id="Node000032" class="node">
<title>Node32</title>
<g id="a_Node000032"><a xlink:href="../../df/d93/utils_8hpp.html" target="_top" xlink:title="Core utility functions for string manipulation, encoding conversion, and number formatting.">
<polygon fill="white" stroke="#666666" points="2575.5,-96 2492.5,-96 2492.5,-77 2575.5,-77 2575.5,-96"/>
<text text-anchor="middle" x="2534" y="-84" font-family="Helvetica,sans-Serif" font-size="10.00">core/utils.hpp</text>
</a>
</g>
</g>
<!-- Node4&#45;&gt;Node32 -->
<g id="edge35_Node000004_Node000032" class="edge">
<title>Node4&#45;&gt;Node32</title>
<g id="a_edge35_Node000004_Node000032"><a xlink:title=" ">
<path fill="none" stroke="#63b8ff" d="M1338.78,-144.28C1341.55,-143.78 1344.32,-143.34 1347,-143 1597.57,-111.29 2235.39,-156.79 2483,-107 2490.88,-105.41 2499.14,-102.74 2506.66,-99.87"/>
<polygon fill="#63b8ff" stroke="#63b8ff" points="2508.08,-103.07 2516.03,-96.06 2505.45,-96.59 2508.08,-103.07"/>
</a>
</g>
</g>
<!-- Node33 -->
<g id="Node000033" class="node">
<title>Node33</title>
<g id="a_Node000033"><a xlink:href="../../df/d4a/c__string__view_8inl.html" target="_top" xlink:title="Inline implementations for CStringView class.">
<polygon fill="white" stroke="#666666" points="2716,-96 2594,-96 2594,-77 2716,-77 2716,-96"/>
<text text-anchor="middle" x="2655" y="-84" font-family="Helvetica,sans-Serif" font-size="10.00">core/c_string_view.inl</text>
</a>
</g>
</g>
<!-- Node4&#45;&gt;Node33 -->
<g id="edge36_Node000004_Node000033" class="edge">
<title>Node4&#45;&gt;Node33</title>
<g id="a_edge36_Node000004_Node000033"><a xlink:title=" ">
<path fill="none" stroke="#63b8ff" d="M1338.78,-144.28C1341.54,-143.77 1344.32,-143.34 1347,-143 1893.19,-74.61 2040.76,-189.46 2585,-107 2596.65,-105.23 2609.12,-102.16 2620.26,-98.97"/>
<polygon fill="#63b8ff" stroke="#63b8ff" points="2621.47,-102.26 2630.05,-96.04 2619.47,-95.55 2621.47,-102.26"/>
</a>
</g>
</g>
<!-- Node34 -->
<g id="Node000034" class="node">
<title>Node34</title>
<g id="a_Node000034"><a xlink:href="../../d6/ddb/callbacks__pool_8inl.html" target="_top" xlink:title="Inline implementations for template callback pool class with fixed&#45;size callback storage.">
<polygon fill="white" stroke="#666666" points="2862,-96 2734,-96 2734,-77 2862,-77 2862,-96"/>
<text text-anchor="middle" x="2798" y="-84" font-family="Helvetica,sans-Serif" font-size="10.00">core/callbacks_pool.inl</text>
</a>
</g>
</g>
<!-- Node4&#45;&gt;Node34 -->
<g id="edge37_Node000004_Node000034" class="edge">
<title>Node4&#45;&gt;Node34</title>
<g id="a_edge37_Node000004_Node000034"><a xlink:title=" ">
<path fill="none" stroke="#63b8ff" d="M1338.78,-144.27C1341.54,-143.77 1344.32,-143.33 1347,-143 1955.02,-67.78 2118.65,-194.66 2725,-107 2737.25,-105.23 2750.39,-102.11 2762.09,-98.89"/>
<polygon fill="#63b8ff" stroke="#63b8ff" points="2763.31,-102.18 2771.95,-96.05 2761.38,-95.45 2763.31,-102.18"/>
</a>
</g>
</g>
<!-- Node35 -->
<g id="Node000035" class="node">
<title>Node35</title>
<g id="a_Node000035"><a xlink:href="../../dc/d28/constexpr__utils_8inl.html" target="_top" xlink:title="Inline implementations for constexpr utility functions.">
<polygon fill="white" stroke="#666666" points="3010,-96 2880,-96 2880,-77 3010,-77 3010,-96"/>
<text text-anchor="middle" x="2945" y="-84" font-family="Helvetica,sans-Serif" font-size="10.00">core/constexpr_utils.inl</text>
</a>
</g>
</g>
<!-- Node4&#45;&gt;Node35 -->
<g id="edge38_Node000004_Node000035" class="edge">
<title>Node4&#45;&gt;Node35</title>
<g id="a_edge38_Node000004_Node000035"><a xlink:title=" ">
<path fill="none" stroke="#63b8ff" d="M1338.77,-144.26C1341.54,-143.76 1344.32,-143.33 1347,-143 2019.5,-60.65 2200.17,-201.97 2871,-107 2883.54,-105.22 2897,-102.07 2908.95,-98.81"/>
<polygon fill="#63b8ff" stroke="#63b8ff" points="2909.93,-102.17 2918.59,-96.07 2908.02,-95.43 2909.93,-102.17"/>
</a>
</g>
</g>
<!-- Node36 -->
<g id="Node000036" class="node">
<title>Node36</title>
<g id="a_Node000036"><a xlink:href="../../d7/d40/fixed__string_8inl.html" target="_top" xlink:title="Inline implementations for FixedString template class.">
<polygon fill="white" stroke="#666666" points="3140,-96 3028,-96 3028,-77 3140,-77 3140,-96"/>
<text text-anchor="middle" x="3084" y="-84" font-family="Helvetica,sans-Serif" font-size="10.00">core/fixed_string.inl</text>
</a>
</g>
</g>
<!-- Node4&#45;&gt;Node36 -->
<g id="edge39_Node000004_Node000036" class="edge">
<title>Node4&#45;&gt;Node36</title>
<g id="a_edge39_Node000004_Node000036"><a xlink:title=" ">
<path fill="none" stroke="#63b8ff" d="M1338.77,-144.25C1341.54,-143.76 1344.32,-143.33 1347,-143 1715.93,-98.22 2651.9,-164.92 3019,-107 3029.65,-105.32 3040.99,-102.35 3051.17,-99.23"/>
<polygon fill="#63b8ff" stroke="#63b8ff" points="3052.44,-102.49 3060.89,-96.09 3050.3,-95.83 3052.44,-102.49"/>
</a>
</g>
</g>
<!-- Node37 -->
<g id="Node000037" class="node">
<title>Node37</title>
<g id="a_Node000037"><a xlink:href="../../da/dc9/fixed__vector_8inl.html" target="_top" xlink:title="TODO.">
<polygon fill="white" stroke="#666666" points="3272,-96 3158,-96 3158,-77 3272,-77 3272,-96"/>
<text text-anchor="middle" x="3215" y="-84" font-family="Helvetica,sans-Serif" font-size="10.00">core/fixed_vector.inl</text>
</a>
</g>
</g>
<!-- Node4&#45;&gt;Node37 -->
<g id="edge40_Node000004_Node000037" class="edge">
<title>Node4&#45;&gt;Node37</title>
<g id="a_edge40_Node000004_Node000037"><a xlink:title=" ">
<path fill="none" stroke="#63b8ff" d="M1338.77,-144.25C1341.54,-143.75 1344.32,-143.32 1347,-143 1744.64,-95.05 2753.19,-168.29 3149,-107 3160.01,-105.3 3171.75,-102.25 3182.23,-99.06"/>
<polygon fill="#63b8ff" stroke="#63b8ff" points="3183.36,-102.37 3191.83,-96 3181.24,-95.7 3183.36,-102.37"/>
</a>
</g>
</g>
<!-- Node38 -->
<g id="Node000038" class="node">
<title>Node38</title>
<g id="a_Node000038"><a xlink:href="../../d9/dcb/o__string__stream_8inl.html" target="_top" xlink:title="Implementation of OStringStream template methods.">
<polygon fill="white" stroke="#666666" points="3424,-96 3290,-96 3290,-77 3424,-77 3424,-96"/>
<text text-anchor="middle" x="3357" y="-84" font-family="Helvetica,sans-Serif" font-size="10.00">core/o_string_stream.inl</text>
</a>
</g>
</g>
<!-- Node4&#45;&gt;Node38 -->
<g id="edge41_Node000004_Node000038" class="edge">
<title>Node4&#45;&gt;Node38</title>
<g id="a_edge41_Node000004_Node000038"><a xlink:title=" ">
<path fill="none" stroke="#63b8ff" d="M1338.77,-144.25C1341.54,-143.75 1344.32,-143.32 1347,-143 1773.8,-91.82 2855.05,-164.81 3281,-107 3293.87,-105.25 3307.69,-102.11 3319.97,-98.84"/>
<polygon fill="#63b8ff" stroke="#63b8ff" points="3321.16,-102.14 3329.87,-96.1 3319.29,-95.39 3321.16,-102.14"/>
</a>
</g>
</g>
<!-- Node39 -->
<g id="Node000039" class="node">
<title>Node39</title>
<g id="a_Node000039"><a xlink:href="../../df/d7d/utils_8inl.html" target="_top" xlink:title="Inline implementations of core utility functions for string manipulation and encoding conversion.">
<polygon fill="white" stroke="#666666" points="3519.5,-96 3442.5,-96 3442.5,-77 3519.5,-77 3519.5,-96"/>
<text text-anchor="middle" x="3481" y="-84" font-family="Helvetica,sans-Serif" font-size="10.00">core/utils.inl</text>
</a>
</g>
</g>
<!-- Node4&#45;&gt;Node39 -->
<g id="edge42_Node000004_Node000039" class="edge">
<title>Node4&#45;&gt;Node39</title>
<g id="a_edge42_Node000004_Node000039"><a xlink:title=" ">
<path fill="none" stroke="#63b8ff" d="M1338.77,-144.24C1341.54,-143.75 1344.31,-143.32 1347,-143 1577.18,-115.56 3205.88,-153.41 3433,-107 3440.22,-105.52 3447.74,-102.99 3454.63,-100.24"/>
<polygon fill="#63b8ff" stroke="#63b8ff" points="3456.35,-103.3 3464.15,-96.13 3453.58,-96.88 3456.35,-103.3"/>
</a>
</g>
</g>
<!-- Node20&#45;&gt;Node21 -->
<g id="edge20_Node000020_Node000021" class="edge">
<title>Node20&#45;&gt;Node21</title>
<g id="a_edge20_Node000020_Node000021"><a xlink:title=" ">
<path fill="none" stroke="#63b8ff" d="M1205.19,-65.96C1190.79,-56.51 1173.54,-45.2 1159.1,-35.74"/>
<polygon fill="#63b8ff" stroke="#63b8ff" points="1160.81,-32.67 1150.52,-30.11 1156.97,-38.52 1160.81,-32.67"/>
</a>
</g>
</g>
<!-- Node22 -->
<g id="Node000022" class="node">
<title>Node22</title>
<g id="a_Node000022"><a xlink:href="../../d1/d5f/assertion__macro__gcc__clang_8hpp.html" target="_top" xlink:title="Debug and Release assertion macro implementations for GCC/Clang platforms.">
<polygon fill="white" stroke="#666666" points="1325.5,-30 1198.5,-30 1198.5,0 1325.5,0 1325.5,-30"/>
<text text-anchor="start" x="1206.5" y="-18" font-family="Helvetica,sans-Serif" font-size="10.00">../common/assertion</text>
<text text-anchor="middle" x="1262" y="-7" font-family="Helvetica,sans-Serif" font-size="10.00">_macro_gcc_clang.hpp</text>
</a>
</g>
</g>
<!-- Node20&#45;&gt;Node22 -->
<g id="edge21_Node000020_Node000022" class="edge">
<title>Node20&#45;&gt;Node22</title>
<g id="a_edge21_Node000020_Node000022"><a xlink:title=" ">
<path fill="none" stroke="#63b8ff" d="M1242.66,-65.77C1245.85,-57.58 1249.57,-48.01 1252.89,-39.46"/>
<polygon fill="#63b8ff" stroke="#63b8ff" points="1256.19,-40.63 1256.55,-30.04 1249.66,-38.09 1256.19,-40.63"/>
</a>
</g>
</g>
<!-- Node24&#45;&gt;Node25 -->
<g id="edge24_Node000024_Node000025" class="edge">
<title>Node24&#45;&gt;Node25</title>
<g id="a_edge24_Node000024_Node000025"><a xlink:title=" ">
<path fill="none" stroke="#63b8ff" d="M1553.77,-76.97C1567.48,-73.53 1583.49,-69.54 1598,-66 1654.29,-52.26 1719.18,-36.88 1761.76,-26.85"/>
<polygon fill="#63b8ff" stroke="#63b8ff" points="1762.62,-30.25 1771.55,-24.55 1761.01,-23.43 1762.62,-30.25"/>
</a>
</g>
</g>
<!-- Node28&#45;&gt;Node25 -->
<g id="edge28_Node000028_Node000025" class="edge">
<title>Node28&#45;&gt;Node25</title>
<g id="a_edge28_Node000028_Node000025"><a xlink:title=" ">
<path fill="none" stroke="#63b8ff" d="M1980.84,-76.98C1945.99,-64.68 1881.44,-41.91 1841.85,-27.94"/>
<polygon fill="#63b8ff" stroke="#63b8ff" points="1842.95,-24.62 1832.35,-24.59 1840.62,-31.22 1842.95,-24.62"/>
</a>
</g>
</g>
<!-- Node31&#45;&gt;Node25 -->
<g id="edge32_Node000031_Node000025" class="edge">
<title>Node31&#45;&gt;Node25</title>
<g id="a_edge32_Node000031_Node000025"><a xlink:title=" ">
<path fill="none" stroke="#63b8ff" d="M2373.83,-76.96C2359.19,-73.1 2341.29,-68.78 2325,-66 2157.72,-37.42 1956.99,-23.84 1862.39,-18.65"/>
<polygon fill="#63b8ff" stroke="#63b8ff" points="1862.38,-15.14 1852.2,-18.1 1862,-22.13 1862.38,-15.14"/>
</a>
</g>
</g>
</g>
</svg>
