<?xml version="1.0" encoding="UTF-8" standalone="no"?>
<!DOCTYPE svg PUBLIC "-//W3C//DTD SVG 1.1//EN"
 "http://www.w3.org/Graphics/SVG/1.1/DTD/svg11.dtd">
<!-- Generated by graphviz version 2.43.0 (0)
 -->
<!-- Title: src/core/utils.cpp Pages: 1 -->
<svg width="2546pt" height="159pt"
 viewBox="0.00 0.00 2546.00 159.00" xmlns="http://www.w3.org/2000/svg" xmlns:xlink="http://www.w3.org/1999/xlink">
<g id="graph0" class="graph" transform="scale(1 1) rotate(0) translate(4 155)">
<title>src/core/utils.cpp</title>
<!-- Node1 -->
<g id="Node000001" class="node">
<title>Node1</title>
<g id="a_Node000001"><a xlink:title="Implementation of core utility functions for string manipulation, encoding conversion,...">
<polygon fill="#999999" stroke="#666666" points="396,-151 297,-151 297,-132 396,-132 396,-151"/>
<text text-anchor="middle" x="346.5" y="-139" font-family="Helvetica,sans-Serif" font-size="10.00">src/core/utils.cpp</text>
</a>
</g>
</g>
<!-- Node2 -->
<g id="Node000002" class="node">
<title>Node2</title>
<g id="a_Node000002"><a xlink:title=" ">
<polygon fill="#e0e0e0" stroke="#999999" points="261,-96 232,-96 232,-77 261,-77 261,-96"/>
<text text-anchor="middle" x="246.5" y="-84" font-family="Helvetica,sans-Serif" font-size="10.00">bit</text>
</a>
</g>
</g>
<!-- Node1&#45;&gt;Node2 -->
<g id="edge1_Node000001_Node000002" class="edge">
<title>Node1&#45;&gt;Node2</title>
<g id="a_edge1_Node000001_Node000002"><a xlink:title=" ">
<path fill="none" stroke="#63b8ff" d="M330.43,-131.98C314.17,-123.36 288.83,-109.93 270.24,-100.08"/>
<polygon fill="#63b8ff" stroke="#63b8ff" points="271.7,-96.89 261.22,-95.3 268.42,-103.08 271.7,-96.89"/>
</a>
</g>
</g>
<!-- Node3 -->
<g id="Node000003" class="node">
<title>Node3</title>
<g id="a_Node000003"><a xlink:title=" ">
<polygon fill="#e0e0e0" stroke="#999999" points="326,-96 279,-96 279,-77 326,-77 326,-96"/>
<text text-anchor="middle" x="302.5" y="-84" font-family="Helvetica,sans-Serif" font-size="10.00">cmath</text>
</a>
</g>
</g>
<!-- Node1&#45;&gt;Node3 -->
<g id="edge2_Node000001_Node000003" class="edge">
<title>Node1&#45;&gt;Node3</title>
<g id="a_edge2_Node000001_Node000003"><a xlink:title=" ">
<path fill="none" stroke="#63b8ff" d="M339.23,-131.75C332.96,-124.18 323.71,-113.05 316.07,-103.84"/>
<polygon fill="#63b8ff" stroke="#63b8ff" points="318.71,-101.55 309.63,-96.09 313.33,-106.02 318.71,-101.55"/>
</a>
</g>
</g>
<!-- Node4 -->
<g id="Node000004" class="node">
<title>Node4</title>
<g id="a_Node000004"><a xlink:href="../../da/d47/core_8hpp.html" target="_top" xlink:title="Umbrella header for the engine core module.">
<polygon fill="white" stroke="#666666" points="904,-96 845,-96 845,-77 904,-77 904,-96"/>
<text text-anchor="middle" x="874.5" y="-84" font-family="Helvetica,sans-Serif" font-size="10.00">core.hpp</text>
</a>
</g>
</g>
<!-- Node1&#45;&gt;Node4 -->
<g id="edge3_Node000001_Node000004" class="edge">
<title>Node1&#45;&gt;Node4</title>
<g id="a_edge3_Node000001_Node000004"><a xlink:title=" ">
<path fill="none" stroke="#63b8ff" d="M396.17,-135.51C500.35,-125.06 739.85,-101.02 834.74,-91.49"/>
<polygon fill="#63b8ff" stroke="#63b8ff" points="835.18,-94.96 844.78,-90.48 834.48,-88 835.18,-94.96"/>
</a>
</g>
</g>
<!-- Node30 -->
<g id="Node000030" class="node">
<title>Node30</title>
<g id="a_Node000030"><a xlink:href="../../d4/d85/utils__internal_8inl.html" target="_top" xlink:title="Internal utilities: inline helpers used by the core utils implementation.">
<polygon fill="white" stroke="#666666" points="439,-96 344,-96 344,-77 439,-77 439,-96"/>
<text text-anchor="middle" x="391.5" y="-84" font-family="Helvetica,sans-Serif" font-size="10.00">utils_internal.inl</text>
</a>
</g>
</g>
<!-- Node1&#45;&gt;Node30 -->
<g id="edge29_Node000001_Node000030" class="edge">
<title>Node1&#45;&gt;Node30</title>
<g id="a_edge29_Node000001_Node000030"><a xlink:title=" ">
<path fill="none" stroke="#63b8ff" d="M353.93,-131.75C360.35,-124.18 369.81,-113.05 377.62,-103.84"/>
<polygon fill="#63b8ff" stroke="#63b8ff" points="380.4,-105.98 384.21,-96.09 375.07,-101.45 380.4,-105.98"/>
</a>
</g>
</g>
<!-- Node5 -->
<g id="Node000005" class="node">
<title>Node5</title>
<g id="a_Node000005"><a xlink:title=" ">
<polygon fill="#e0e0e0" stroke="#999999" points="151.5,-30 87.5,-30 87.5,-11 151.5,-11 151.5,-30"/>
<text text-anchor="middle" x="119.5" y="-18" font-family="Helvetica,sans-Serif" font-size="10.00">algorithm</text>
</a>
</g>
</g>
<!-- Node4&#45;&gt;Node5 -->
<g id="edge4_Node000004_Node000005" class="edge">
<title>Node4&#45;&gt;Node5</title>
<g id="a_edge4_Node000004_Node000005"><a xlink:title=" ">
<path fill="none" stroke="#63b8ff" d="M844.77,-85.15C726.97,-83.52 293.07,-75.29 160.5,-41 154.78,-39.52 148.89,-37.23 143.42,-34.74"/>
<polygon fill="#63b8ff" stroke="#63b8ff" points="144.68,-31.46 134.17,-30.16 141.58,-37.73 144.68,-31.46"/>
</a>
</g>
</g>
<!-- Node6 -->
<g id="Node000006" class="node">
<title>Node6</title>
<g id="a_Node000006"><a xlink:title=" ">
<polygon fill="#e0e0e0" stroke="#999999" points="211.5,-30 169.5,-30 169.5,-11 211.5,-11 211.5,-30"/>
<text text-anchor="middle" x="190.5" y="-18" font-family="Helvetica,sans-Serif" font-size="10.00">array</text>
</a>
</g>
</g>
<!-- Node4&#45;&gt;Node6 -->
<g id="edge5_Node000004_Node000006" class="edge">
<title>Node4&#45;&gt;Node6</title>
<g id="a_edge5_Node000004_Node000006"><a xlink:title=" ">
<path fill="none" stroke="#63b8ff" d="M844.94,-85.39C733.58,-84.7 339.81,-79.52 221.5,-41 217.53,-39.71 213.56,-37.8 209.85,-35.67"/>
<polygon fill="#63b8ff" stroke="#63b8ff" points="211.61,-32.64 201.31,-30.16 207.82,-38.52 211.61,-32.64"/>
</a>
</g>
</g>
<!-- Node7 -->
<g id="Node000007" class="node">
<title>Node7</title>
<g id="a_Node000007"><a xlink:title=" ">
<polygon fill="#e0e0e0" stroke="#999999" points="289,-30 230,-30 230,-11 289,-11 289,-30"/>
<text text-anchor="middle" x="259.5" y="-18" font-family="Helvetica,sans-Serif" font-size="10.00">compare</text>
</a>
</g>
</g>
<!-- Node4&#45;&gt;Node7 -->
<g id="edge6_Node000004_Node000007" class="edge">
<title>Node4&#45;&gt;Node7</title>
<g id="a_edge6_Node000004_Node000007"><a xlink:title=" ">
<path fill="none" stroke="#63b8ff" d="M844.71,-84.71C741.97,-81.75 403.01,-69.97 298.5,-41 293.17,-39.52 287.7,-37.3 282.6,-34.87"/>
<polygon fill="#63b8ff" stroke="#63b8ff" points="283.9,-31.6 273.41,-30.11 280.68,-37.82 283.9,-31.6"/>
</a>
</g>
</g>
<!-- Node8 -->
<g id="Node000008" class="node">
<title>Node8</title>
<g id="a_Node000008"><a xlink:title=" ">
<polygon fill="#e0e0e0" stroke="#999999" points="367.5,-30 307.5,-30 307.5,-11 367.5,-11 367.5,-30"/>
<text text-anchor="middle" x="337.5" y="-18" font-family="Helvetica,sans-Serif" font-size="10.00">concepts</text>
</a>
</g>
</g>
<!-- Node4&#45;&gt;Node8 -->
<g id="edge7_Node000004_Node000008" class="edge">
<title>Node4&#45;&gt;Node8</title>
<g id="a_edge7_Node000004_Node000008"><a xlink:title=" ">
<path fill="none" stroke="#63b8ff" d="M844.99,-84.26C752.09,-80.15 466.49,-65.77 377.5,-41 371.92,-39.45 366.17,-37.13 360.84,-34.63"/>
<polygon fill="#63b8ff" stroke="#63b8ff" points="362.31,-31.45 351.81,-30.06 359.15,-37.7 362.31,-31.45"/>
</a>
</g>
</g>
<!-- Node9 -->
<g id="Node000009" class="node">
<title>Node9</title>
<g id="a_Node000009"><a xlink:title=" ">
<polygon fill="#e0e0e0" stroke="#999999" points="439,-30 386,-30 386,-11 439,-11 439,-30"/>
<text text-anchor="middle" x="412.5" y="-18" font-family="Helvetica,sans-Serif" font-size="10.00">cstddef</text>
</a>
</g>
</g>
<!-- Node4&#45;&gt;Node9 -->
<g id="edge8_Node000004_Node000009" class="edge">
<title>Node4&#45;&gt;Node9</title>
<g id="a_edge8_Node000004_Node000009"><a xlink:title=" ">
<path fill="none" stroke="#63b8ff" d="M844.81,-83.91C760.83,-79.17 522.91,-64.04 448.5,-41 443.66,-39.5 438.73,-37.33 434.13,-34.97"/>
<polygon fill="#63b8ff" stroke="#63b8ff" points="435.72,-31.85 425.29,-30.03 432.31,-37.96 435.72,-31.85"/>
</a>
</g>
</g>
<!-- Node10 -->
<g id="Node000010" class="node">
<title>Node10</title>
<g id="a_Node000010"><a xlink:title=" ">
<polygon fill="#e0e0e0" stroke="#999999" points="507.5,-30 457.5,-30 457.5,-11 507.5,-11 507.5,-30"/>
<text text-anchor="middle" x="482.5" y="-18" font-family="Helvetica,sans-Serif" font-size="10.00">cstdint</text>
</a>
</g>
</g>
<!-- Node4&#45;&gt;Node10 -->
<g id="edge9_Node000004_Node000010" class="edge">
<title>Node4&#45;&gt;Node10</title>
<g id="a_edge9_Node000004_Node000010"><a xlink:title=" ">
<path fill="none" stroke="#63b8ff" d="M844.87,-85.72C782.45,-85.36 633.53,-80.07 516.5,-41 512.22,-39.57 507.87,-37.57 503.78,-35.39"/>
<polygon fill="#63b8ff" stroke="#63b8ff" points="505.25,-32.2 494.85,-30.17 501.72,-38.24 505.25,-32.2"/>
</a>
</g>
</g>
<!-- Node11 -->
<g id="Node000011" class="node">
<title>Node11</title>
<g id="a_Node000011"><a xlink:title=" ">
<polygon fill="#e0e0e0" stroke="#999999" points="575.5,-30 525.5,-30 525.5,-11 575.5,-11 575.5,-30"/>
<text text-anchor="middle" x="550.5" y="-18" font-family="Helvetica,sans-Serif" font-size="10.00">cstring</text>
</a>
</g>
</g>
<!-- Node4&#45;&gt;Node11 -->
<g id="edge10_Node000004_Node000011" class="edge">
<title>Node4&#45;&gt;Node11</title>
<g id="a_edge10_Node000004_Node000011"><a xlink:title=" ">
<path fill="none" stroke="#63b8ff" d="M844.97,-84.39C791.73,-81.65 676.73,-72.3 585.5,-41 581.01,-39.46 576.43,-37.36 572.12,-35.1"/>
<polygon fill="#63b8ff" stroke="#63b8ff" points="573.7,-31.97 563.28,-30.07 570.24,-38.05 573.7,-31.97"/>
</a>
</g>
</g>
<!-- Node12 -->
<g id="Node000012" class="node">
<title>Node12</title>
<g id="a_Node000012"><a xlink:title=" ">
<polygon fill="#e0e0e0" stroke="#999999" points="643,-30 594,-30 594,-11 643,-11 643,-30"/>
<text text-anchor="middle" x="618.5" y="-18" font-family="Helvetica,sans-Serif" font-size="10.00">cuchar</text>
</a>
</g>
</g>
<!-- Node4&#45;&gt;Node12 -->
<g id="edge11_Node000004_Node000012" class="edge">
<title>Node4&#45;&gt;Node12</title>
<g id="a_edge11_Node000004_Node000012"><a xlink:title=" ">
<path fill="none" stroke="#63b8ff" d="M844.93,-82.64C801.58,-77.77 718.74,-65.88 652.5,-41 648.34,-39.44 644.1,-37.41 640.08,-35.25"/>
<polygon fill="#63b8ff" stroke="#63b8ff" points="641.66,-32.12 631.25,-30.13 638.15,-38.17 641.66,-32.12"/>
</a>
</g>
</g>
<!-- Node13 -->
<g id="Node000013" class="node">
<title>Node13</title>
<g id="a_Node000013"><a xlink:title=" ">
<polygon fill="#e0e0e0" stroke="#999999" points="719.5,-30 661.5,-30 661.5,-11 719.5,-11 719.5,-30"/>
<text text-anchor="middle" x="690.5" y="-18" font-family="Helvetica,sans-Serif" font-size="10.00">memory</text>
</a>
</g>
</g>
<!-- Node4&#45;&gt;Node13 -->
<g id="edge12_Node000004_Node000013" class="edge">
<title>Node4&#45;&gt;Node13</title>
<g id="a_edge12_Node000004_Node000013"><a xlink:title=" ">
<path fill="none" stroke="#63b8ff" d="M844.84,-77.95C815.18,-70.04 768.49,-56.61 729.5,-41 724.83,-39.13 719.95,-36.91 715.29,-34.66"/>
<polygon fill="#63b8ff" stroke="#63b8ff" points="716.67,-31.44 706.17,-30.08 713.53,-37.69 716.67,-31.44"/>
</a>
</g>
</g>
<!-- Node14 -->
<g id="Node000014" class="node">
<title>Node14</title>
<g id="a_Node000014"><a xlink:title=" ">
<polygon fill="#e0e0e0" stroke="#999999" points="803,-30 738,-30 738,-11 803,-11 803,-30"/>
<text text-anchor="middle" x="770.5" y="-18" font-family="Helvetica,sans-Serif" font-size="10.00">stdexcept</text>
</a>
</g>
</g>
<!-- Node4&#45;&gt;Node14 -->
<g id="edge13_Node000004_Node000014" class="edge">
<title>Node4&#45;&gt;Node14</title>
<g id="a_edge13_Node000004_Node000014"><a xlink:title=" ">
<path fill="none" stroke="#63b8ff" d="M860.47,-76.87C843.26,-66.28 813.84,-48.17 793.35,-35.56"/>
<polygon fill="#63b8ff" stroke="#63b8ff" points="794.99,-32.46 784.64,-30.2 791.32,-38.42 794.99,-32.46"/>
</a>
</g>
</g>
<!-- Node15 -->
<g id="Node000015" class="node">
<title>Node15</title>
<g id="a_Node000015"><a xlink:title=" ">
<polygon fill="#e0e0e0" stroke="#999999" points="865.5,-30 821.5,-30 821.5,-11 865.5,-11 865.5,-30"/>
<text text-anchor="middle" x="843.5" y="-18" font-family="Helvetica,sans-Serif" font-size="10.00">string</text>
</a>
</g>
</g>
<!-- Node4&#45;&gt;Node15 -->
<g id="edge14_Node000004_Node000015" class="edge">
<title>Node4&#45;&gt;Node15</title>
<g id="a_edge14_Node000004_Node000015"><a xlink:title=" ">
<path fill="none" stroke="#63b8ff" d="M870.32,-76.87C865.72,-67.38 858.21,-51.86 852.3,-39.66"/>
<polygon fill="#63b8ff" stroke="#63b8ff" points="855.32,-37.88 847.81,-30.41 849.02,-40.93 855.32,-37.88"/>
</a>
</g>
</g>
<!-- Node16 -->
<g id="Node000016" class="node">
<title>Node16</title>
<g id="a_Node000016"><a xlink:title=" ">
<polygon fill="#e0e0e0" stroke="#999999" points="69,-30 0,-30 0,-11 69,-11 69,-30"/>
<text text-anchor="middle" x="34.5" y="-18" font-family="Helvetica,sans-Serif" font-size="10.00">type_traits</text>
</a>
</g>
</g>
<!-- Node4&#45;&gt;Node16 -->
<g id="edge15_Node000004_Node000016" class="edge">
<title>Node4&#45;&gt;Node16</title>
<g id="a_edge15_Node000004_Node000016"><a xlink:title=" ">
<path fill="none" stroke="#63b8ff" d="M844.87,-85.27C718.98,-84.06 228.19,-77.08 78.5,-41 72.26,-39.49 65.79,-37.14 59.81,-34.57"/>
<polygon fill="#63b8ff" stroke="#63b8ff" points="60.85,-31.2 50.31,-30.17 57.91,-37.55 60.85,-31.2"/>
</a>
</g>
</g>
<!-- Node17 -->
<g id="Node000017" class="node">
<title>Node17</title>
<g id="a_Node000017"><a xlink:title=" ">
<polygon fill="#e0e0e0" stroke="#999999" points="929,-30 884,-30 884,-11 929,-11 929,-30"/>
<text text-anchor="middle" x="906.5" y="-18" font-family="Helvetica,sans-Serif" font-size="10.00">utility</text>
</a>
</g>
</g>
<!-- Node4&#45;&gt;Node17 -->
<g id="edge16_Node000004_Node000017" class="edge">
<title>Node4&#45;&gt;Node17</title>
<g id="a_edge16_Node000004_Node000017"><a xlink:title=" ">
<path fill="none" stroke="#63b8ff" d="M878.82,-76.87C883.56,-67.38 891.32,-51.86 897.42,-39.66"/>
<polygon fill="#63b8ff" stroke="#63b8ff" points="900.71,-40.91 902.05,-30.41 894.44,-37.78 900.71,-40.91"/>
</a>
</g>
</g>
<!-- Node18 -->
<g id="Node000018" class="node">
<title>Node18</title>
<g id="a_Node000018"><a xlink:href="../../dd/d9e/linux_2platform__config_8hpp.html" target="_top" xlink:title="additional linux platform header">
<polygon fill="white" stroke="#666666" points="1102,-41 947,-41 947,0 1102,0 1102,-41"/>
<text text-anchor="start" x="955" y="-29" font-family="Helvetica,sans-Serif" font-size="10.00">/home/runner/work/toygine2</text>
<text text-anchor="start" x="955" y="-18" font-family="Helvetica,sans-Serif" font-size="10.00">/toygine2/src/platforms</text>
<text text-anchor="middle" x="1024.5" y="-7" font-family="Helvetica,sans-Serif" font-size="10.00">/linux/platform_config.hpp</text>
</a>
</g>
</g>
<!-- Node4&#45;&gt;Node18 -->
<g id="edge17_Node000004_Node000018" class="edge">
<title>Node4&#45;&gt;Node18</title>
<g id="a_edge17_Node000004_Node000018"><a xlink:title=" ">
<path fill="none" stroke="#63b8ff" d="M894.73,-76.87C913.82,-68.72 943.31,-56.14 969.36,-45.03"/>
<polygon fill="#63b8ff" stroke="#63b8ff" points="970.95,-48.15 978.78,-41.01 968.2,-41.71 970.95,-48.15"/>
</a>
</g>
</g>
<!-- Node19 -->
<g id="Node000019" class="node">
<title>Node19</title>
<g id="a_Node000019"><a xlink:href="../../dd/ded/c__string__view_8hpp.html" target="_top" xlink:title="Non&#45;owning string view class for C&#45;style strings.">
<polygon fill="white" stroke="#666666" points="1248.5,-30 1120.5,-30 1120.5,-11 1248.5,-11 1248.5,-30"/>
<text text-anchor="middle" x="1184.5" y="-18" font-family="Helvetica,sans-Serif" font-size="10.00">core/c_string_view.hpp</text>
</a>
</g>
</g>
<!-- Node4&#45;&gt;Node19 -->
<g id="edge18_Node000004_Node000019" class="edge">
<title>Node4&#45;&gt;Node19</title>
<g id="a_edge18_Node000004_Node000019"><a xlink:title=" ">
<path fill="none" stroke="#63b8ff" d="M904.21,-80.66C949.24,-73.16 1037.4,-57.83 1111.5,-41 1122.26,-38.56 1133.83,-35.61 1144.52,-32.76"/>
<polygon fill="#63b8ff" stroke="#63b8ff" points="1145.7,-36.07 1154.44,-30.08 1143.87,-29.31 1145.7,-36.07"/>
</a>
</g>
</g>
<!-- Node20 -->
<g id="Node000020" class="node">
<title>Node20</title>
<g id="a_Node000020"><a xlink:href="../../d4/dc0/constexpr__utils_8hpp.html" target="_top" xlink:title="Constexpr utility functions for compile&#45;time operations.">
<polygon fill="white" stroke="#666666" points="1402.5,-30 1266.5,-30 1266.5,-11 1402.5,-11 1402.5,-30"/>
<text text-anchor="middle" x="1334.5" y="-18" font-family="Helvetica,sans-Serif" font-size="10.00">core/constexpr_utils.hpp</text>
</a>
</g>
</g>
<!-- Node4&#45;&gt;Node20 -->
<g id="edge19_Node000004_Node000020" class="edge">
<title>Node4&#45;&gt;Node20</title>
<g id="a_edge19_Node000004_Node000020"><a xlink:title=" ">
<path fill="none" stroke="#63b8ff" d="M904.01,-83.41C968.52,-78.55 1126.81,-65.03 1257.5,-41 1269.79,-38.74 1283.03,-35.64 1295,-32.57"/>
<polygon fill="#63b8ff" stroke="#63b8ff" points="1295.93,-35.94 1304.72,-30.02 1294.16,-29.17 1295.93,-35.94"/>
</a>
</g>
</g>
<!-- Node21 -->
<g id="Node000021" class="node">
<title>Node21</title>
<g id="a_Node000021"><a xlink:href="../../d7/d7f/fixed__string_8hpp.html" target="_top" xlink:title="Template string class with fixed&#45;size character buffer.">
<polygon fill="white" stroke="#666666" points="1538.5,-30 1420.5,-30 1420.5,-11 1538.5,-11 1538.5,-30"/>
<text text-anchor="middle" x="1479.5" y="-18" font-family="Helvetica,sans-Serif" font-size="10.00">core/fixed_string.hpp</text>
</a>
</g>
</g>
<!-- Node4&#45;&gt;Node21 -->
<g id="edge20_Node000004_Node000021" class="edge">
<title>Node4&#45;&gt;Node21</title>
<g id="a_edge20_Node000004_Node000021"><a xlink:title=" ">
<path fill="none" stroke="#63b8ff" d="M904.16,-85.08C985.78,-83.49 1220.33,-75.98 1411.5,-41 1422.39,-39.01 1434.05,-36 1444.58,-32.94"/>
<polygon fill="#63b8ff" stroke="#63b8ff" points="1445.71,-36.25 1454.27,-30.02 1443.69,-29.55 1445.71,-36.25"/>
</a>
</g>
</g>
<!-- Node22 -->
<g id="Node000022" class="node">
<title>Node22</title>
<g id="a_Node000022"><a xlink:href="../../d7/dea/fixed__vector_8hpp.html" target="_top" xlink:title="TODO.">
<polygon fill="white" stroke="#666666" points="1676.5,-30 1556.5,-30 1556.5,-11 1676.5,-11 1676.5,-30"/>
<text text-anchor="middle" x="1616.5" y="-18" font-family="Helvetica,sans-Serif" font-size="10.00">core/fixed_vector.hpp</text>
</a>
</g>
</g>
<!-- Node4&#45;&gt;Node22 -->
<g id="edge21_Node000004_Node000022" class="edge">
<title>Node4&#45;&gt;Node22</title>
<g id="a_edge21_Node000004_Node000022"><a xlink:title=" ">
<path fill="none" stroke="#63b8ff" d="M904.28,-85.74C999.03,-86.04 1301.71,-83.37 1547.5,-41 1558.66,-39.08 1570.59,-36.06 1581.35,-32.97"/>
<polygon fill="#63b8ff" stroke="#63b8ff" points="1582.65,-36.23 1591.23,-30.01 1580.65,-29.52 1582.65,-36.23"/>
</a>
</g>
</g>
<!-- Node23 -->
<g id="Node000023" class="node">
<title>Node23</title>
<g id="a_Node000023"><a xlink:href="../../dd/d8e/hashes_8hpp.html" target="_top" xlink:title="CRC hash functions.">
<polygon fill="white" stroke="#666666" points="1790.5,-30 1694.5,-30 1694.5,-11 1790.5,-11 1790.5,-30"/>
<text text-anchor="middle" x="1742.5" y="-18" font-family="Helvetica,sans-Serif" font-size="10.00">core/hashes.hpp</text>
</a>
</g>
</g>
<!-- Node4&#45;&gt;Node23 -->
<g id="edge22_Node000004_Node000023" class="edge">
<title>Node4&#45;&gt;Node23</title>
<g id="a_edge22_Node000004_Node000023"><a xlink:title=" ">
<path fill="none" stroke="#63b8ff" d="M904.19,-84.96C1031.44,-82.48 1531.34,-71 1685.5,-41 1694.43,-39.26 1703.87,-36.45 1712.44,-33.5"/>
<polygon fill="#63b8ff" stroke="#63b8ff" points="1713.82,-36.73 1722.03,-30.03 1711.43,-30.15 1713.82,-36.73"/>
</a>
</g>
</g>
<!-- Node24 -->
<g id="Node000024" class="node">
<title>Node24</title>
<g id="a_Node000024"><a xlink:href="../../df/d93/utils_8hpp.html" target="_top" xlink:title="Core utility functions for string manipulation, encoding conversion, and number formatting.">
<polygon fill="white" stroke="#666666" points="1892,-30 1809,-30 1809,-11 1892,-11 1892,-30"/>
<text text-anchor="middle" x="1850.5" y="-18" font-family="Helvetica,sans-Serif" font-size="10.00">core/utils.hpp</text>
</a>
</g>
</g>
<!-- Node4&#45;&gt;Node24 -->
<g id="edge23_Node000004_Node000024" class="edge">
<title>Node4&#45;&gt;Node24</title>
<g id="a_edge23_Node000004_Node000024"><a xlink:title=" ">
<path fill="none" stroke="#63b8ff" d="M904.12,-85.33C1042.09,-84.36 1622.47,-78.11 1799.5,-41 1807.15,-39.4 1815.17,-36.8 1822.52,-34.02"/>
<polygon fill="#63b8ff" stroke="#63b8ff" points="1824.07,-37.17 1832.04,-30.19 1821.46,-30.68 1824.07,-37.17"/>
</a>
</g>
</g>
<!-- Node25 -->
<g id="Node000025" class="node">
<title>Node25</title>
<g id="a_Node000025"><a xlink:href="../../df/d4a/c__string__view_8inl.html" target="_top" xlink:title="Inline implementations for CStringView class.">
<polygon fill="white" stroke="#666666" points="2032.5,-30 1910.5,-30 1910.5,-11 2032.5,-11 2032.5,-30"/>
<text text-anchor="middle" x="1971.5" y="-18" font-family="Helvetica,sans-Serif" font-size="10.00">core/c_string_view.inl</text>
</a>
</g>
</g>
<!-- Node4&#45;&gt;Node25 -->
<g id="edge24_Node000004_Node000025" class="edge">
<title>Node4&#45;&gt;Node25</title>
<g id="a_edge24_Node000004_Node000025"><a xlink:title=" ">
<path fill="none" stroke="#63b8ff" d="M904.32,-85.13C1051.55,-83.14 1701.89,-72.7 1901.5,-41 1913.04,-39.17 1925.4,-36.11 1936.47,-32.95"/>
<polygon fill="#63b8ff" stroke="#63b8ff" points="1937.62,-36.26 1946.21,-30.05 1935.63,-29.55 1937.62,-36.26"/>
</a>
</g>
</g>
<!-- Node26 -->
<g id="Node000026" class="node">
<title>Node26</title>
<g id="a_Node000026"><a xlink:href="../../dc/d28/constexpr__utils_8inl.html" target="_top" xlink:title="Inline implementations for constexpr utility functions.">
<polygon fill="white" stroke="#666666" points="2180.5,-30 2050.5,-30 2050.5,-11 2180.5,-11 2180.5,-30"/>
<text text-anchor="middle" x="2115.5" y="-18" font-family="Helvetica,sans-Serif" font-size="10.00">core/constexpr_utils.inl</text>
</a>
</g>
</g>
<!-- Node4&#45;&gt;Node26 -->
<g id="edge25_Node000004_Node000026" class="edge">
<title>Node4&#45;&gt;Node26</title>
<g id="a_edge25_Node000004_Node000026"><a xlink:title=" ">
<path fill="none" stroke="#63b8ff" d="M904.07,-85.25C1062.53,-83.79 1812.38,-75.13 2041.5,-41 2053.8,-39.17 2066.99,-36.07 2078.79,-32.88"/>
<polygon fill="#63b8ff" stroke="#63b8ff" points="2080.06,-36.15 2088.73,-30.07 2078.16,-29.42 2080.06,-36.15"/>
</a>
</g>
</g>
<!-- Node27 -->
<g id="Node000027" class="node">
<title>Node27</title>
<g id="a_Node000027"><a xlink:href="../../d7/d40/fixed__string_8inl.html" target="_top" xlink:title="Inline implementations for FixedString template class.">
<polygon fill="white" stroke="#666666" points="2310.5,-30 2198.5,-30 2198.5,-11 2310.5,-11 2310.5,-30"/>
<text text-anchor="middle" x="2254.5" y="-18" font-family="Helvetica,sans-Serif" font-size="10.00">core/fixed_string.inl</text>
</a>
</g>
</g>
<!-- Node4&#45;&gt;Node27 -->
<g id="edge26_Node000004_Node000027" class="edge">
<title>Node4&#45;&gt;Node27</title>
<g id="a_edge26_Node000004_Node000027"><a xlink:title=" ">
<path fill="none" stroke="#63b8ff" d="M904.14,-85.53C1074.46,-85.56 1930.13,-83.56 2189.5,-41 2200.14,-39.25 2211.48,-36.27 2221.65,-33.15"/>
<polygon fill="#63b8ff" stroke="#63b8ff" points="2222.92,-36.41 2231.38,-30.02 2220.78,-29.75 2222.92,-36.41"/>
</a>
</g>
</g>
<!-- Node28 -->
<g id="Node000028" class="node">
<title>Node28</title>
<g id="a_Node000028"><a xlink:href="../../da/dc9/fixed__vector_8inl.html" target="_top" xlink:title="TODO.">
<polygon fill="white" stroke="#666666" points="2442.5,-30 2328.5,-30 2328.5,-11 2442.5,-11 2442.5,-30"/>
<text text-anchor="middle" x="2385.5" y="-18" font-family="Helvetica,sans-Serif" font-size="10.00">core/fixed_vector.inl</text>
</a>
</g>
</g>
<!-- Node4&#45;&gt;Node28 -->
<g id="edge27_Node000004_Node000028" class="edge">
<title>Node4&#45;&gt;Node28</title>
<g id="a_edge27_Node000004_Node000028"><a xlink:title=" ">
<path fill="none" stroke="#63b8ff" d="M904.08,-85.62C1083.97,-86.2 2032.8,-86.98 2319.5,-41 2330.41,-39.25 2342.04,-36.22 2352.46,-33.07"/>
<polygon fill="#63b8ff" stroke="#63b8ff" points="2353.54,-36.4 2362.01,-30.04 2351.42,-29.72 2353.54,-36.4"/>
</a>
</g>
</g>
<!-- Node29 -->
<g id="Node000029" class="node">
<title>Node29</title>
<g id="a_Node000029"><a xlink:href="../../df/d7d/utils_8inl.html" target="_top" xlink:title="Inline implementations of core utility functions for string manipulation and encoding conversion.">
<polygon fill="white" stroke="#666666" points="2538,-30 2461,-30 2461,-11 2538,-11 2538,-30"/>
<text text-anchor="middle" x="2499.5" y="-18" font-family="Helvetica,sans-Serif" font-size="10.00">core/utils.inl</text>
</a>
</g>
</g>
<!-- Node4&#45;&gt;Node29 -->
<g id="edge28_Node000004_Node000029" class="edge">
<title>Node4&#45;&gt;Node29</title>
<g id="a_edge28_Node000004_Node000029"><a xlink:title=" ">
<path fill="none" stroke="#63b8ff" d="M904.29,-85.3C1108.22,-83.83 2294.78,-73.92 2451.5,-41 2458.72,-39.48 2466.23,-36.94 2473.12,-34.18"/>
<polygon fill="#63b8ff" stroke="#63b8ff" points="2474.84,-37.25 2482.64,-30.08 2472.07,-30.82 2474.84,-37.25"/>
</a>
</g>
</g>
<!-- Node30&#45;&gt;Node16 -->
<g id="edge30_Node000030_Node000016" class="edge">
<title>Node30&#45;&gt;Node16</title>
<g id="a_edge30_Node000030_Node000016"><a xlink:title=" ">
<path fill="none" stroke="#63b8ff" d="M343.85,-78.23C341.02,-77.81 338.22,-77.4 335.5,-77 221.37,-60.35 189.4,-72.67 78.5,-41 72.43,-39.27 66.1,-36.86 60.21,-34.32"/>
<polygon fill="#63b8ff" stroke="#63b8ff" points="61.36,-31 50.81,-30.03 58.45,-37.37 61.36,-31"/>
</a>
</g>
</g>
</g>
</svg>
