<?xml version="1.0" encoding="UTF-8" standalone="no"?>
<!DOCTYPE svg PUBLIC "-//W3C//DTD SVG 1.1//EN"
 "http://www.w3.org/Graphics/SVG/1.1/DTD/svg11.dtd">
<!-- Generated by graphviz version 2.43.0 (0)
 -->
<!-- Title: src/core/utils.cpp Pages: 1 -->
<svg width="3016pt" height="225pt"
 viewBox="0.00 0.00 3015.50 225.00" xmlns="http://www.w3.org/2000/svg" xmlns:xlink="http://www.w3.org/1999/xlink">
<g id="graph0" class="graph" transform="scale(1 1) rotate(0) translate(4 221)">
<title>src/core/utils.cpp</title>
<!-- Node1 -->
<g id="Node000001" class="node">
<title>Node1</title>
<g id="a_Node000001"><a xlink:title="Implementation of core utility functions for string manipulation, encoding conversion,...">
<polygon fill="#999999" stroke="#666666" points="1091.5,-217 992.5,-217 992.5,-198 1091.5,-198 1091.5,-217"/>
<text text-anchor="middle" x="1042" y="-205" font-family="Helvetica,sans-Serif" font-size="10.00">src/core/utils.cpp</text>
</a>
</g>
</g>
<!-- Node2 -->
<g id="Node000002" class="node">
<title>Node2</title>
<g id="a_Node000002"><a xlink:title=" ">
<polygon fill="#e0e0e0" stroke="#999999" points="965.5,-162 936.5,-162 936.5,-143 965.5,-143 965.5,-162"/>
<text text-anchor="middle" x="951" y="-150" font-family="Helvetica,sans-Serif" font-size="10.00">bit</text>
</a>
</g>
</g>
<!-- Node1&#45;&gt;Node2 -->
<g id="edge1_Node000001_Node000002" class="edge">
<title>Node1&#45;&gt;Node2</title>
<g id="a_edge1_Node000001_Node000002"><a xlink:title=" ">
<path fill="none" stroke="#63b8ff" d="M1027.38,-197.98C1013.05,-189.64 990.99,-176.79 974.25,-167.04"/>
<polygon fill="#63b8ff" stroke="#63b8ff" points="975.99,-164 965.58,-161.99 972.46,-170.05 975.99,-164"/>
</a>
</g>
</g>
<!-- Node3 -->
<g id="Node000003" class="node">
<title>Node3</title>
<g id="a_Node000003"><a xlink:title=" ">
<polygon fill="#e0e0e0" stroke="#999999" points="1030.5,-162 983.5,-162 983.5,-143 1030.5,-143 1030.5,-162"/>
<text text-anchor="middle" x="1007" y="-150" font-family="Helvetica,sans-Serif" font-size="10.00">cmath</text>
</a>
</g>
</g>
<!-- Node1&#45;&gt;Node3 -->
<g id="edge2_Node000001_Node000003" class="edge">
<title>Node1&#45;&gt;Node3</title>
<g id="a_edge2_Node000001_Node000003"><a xlink:title=" ">
<path fill="none" stroke="#63b8ff" d="M1036.22,-197.75C1031.38,-190.42 1024.32,-179.73 1018.36,-170.7"/>
<polygon fill="#63b8ff" stroke="#63b8ff" points="1021.1,-168.5 1012.67,-162.09 1015.26,-172.36 1021.1,-168.5"/>
</a>
</g>
</g>
<!-- Node4 -->
<g id="Node000004" class="node">
<title>Node4</title>
<g id="a_Node000004"><a xlink:href="../../da/d47/core_8hpp.html" target="_top" xlink:title="Umbrella header for the engine core module.">
<polygon fill="white" stroke="#666666" points="1107.5,-162 1048.5,-162 1048.5,-143 1107.5,-143 1107.5,-162"/>
<text text-anchor="middle" x="1078" y="-150" font-family="Helvetica,sans-Serif" font-size="10.00">core.hpp</text>
</a>
</g>
</g>
<!-- Node1&#45;&gt;Node4 -->
<g id="edge3_Node000001_Node000004" class="edge">
<title>Node1&#45;&gt;Node4</title>
<g id="a_edge3_Node000001_Node000004"><a xlink:title=" ">
<path fill="none" stroke="#63b8ff" d="M1047.94,-197.75C1052.98,-190.34 1060.34,-179.5 1066.51,-170.41"/>
<polygon fill="#63b8ff" stroke="#63b8ff" points="1069.44,-172.33 1072.17,-162.09 1063.65,-168.39 1069.44,-172.33"/>
</a>
</g>
</g>
<!-- Node35 -->
<g id="Node000035" class="node">
<title>Node35</title>
<g id="a_Node000035"><a xlink:href="../../d4/d85/utils__internal_8inl.html" target="_top" xlink:title="Internal utilities: inline helpers used by the core utils implementation.">
<polygon fill="white" stroke="#666666" points="1220.5,-162 1125.5,-162 1125.5,-143 1220.5,-143 1220.5,-162"/>
<text text-anchor="middle" x="1173" y="-150" font-family="Helvetica,sans-Serif" font-size="10.00">utils_internal.inl</text>
</a>
</g>
</g>
<!-- Node1&#45;&gt;Node35 -->
<g id="edge34_Node000001_Node000035" class="edge">
<title>Node1&#45;&gt;Node35</title>
<g id="a_edge34_Node000001_Node000035"><a xlink:title=" ">
<path fill="none" stroke="#63b8ff" d="M1063.05,-197.98C1084.41,-189.34 1117.7,-175.87 1142.06,-166.02"/>
<polygon fill="#63b8ff" stroke="#63b8ff" points="1143.61,-169.17 1151.57,-162.17 1140.99,-162.68 1143.61,-169.17"/>
</a>
</g>
</g>
<!-- Node5 -->
<g id="Node000005" class="node">
<title>Node5</title>
<g id="a_Node000005"><a xlink:title=" ">
<polygon fill="#e0e0e0" stroke="#999999" points="64,-96 0,-96 0,-77 64,-77 64,-96"/>
<text text-anchor="middle" x="32" y="-84" font-family="Helvetica,sans-Serif" font-size="10.00">algorithm</text>
</a>
</g>
</g>
<!-- Node4&#45;&gt;Node5 -->
<g id="edge4_Node000004_Node000005" class="edge">
<title>Node4&#45;&gt;Node5</title>
<g id="a_edge4_Node000004_Node000005"><a xlink:title=" ">
<path fill="none" stroke="#63b8ff" d="M1048.22,-144.3C1045.45,-143.79 1042.68,-143.35 1040,-143 826.74,-115.41 281.84,-158.24 73,-107 67.02,-105.53 60.87,-103.14 55.21,-100.53"/>
<polygon fill="#63b8ff" stroke="#63b8ff" points="56.77,-97.4 46.26,-96.05 53.64,-103.66 56.77,-97.4"/>
</a>
</g>
</g>
<!-- Node6 -->
<g id="Node000006" class="node">
<title>Node6</title>
<g id="a_Node000006"><a xlink:title=" ">
<polygon fill="#e0e0e0" stroke="#999999" points="124,-96 82,-96 82,-77 124,-77 124,-96"/>
<text text-anchor="middle" x="103" y="-84" font-family="Helvetica,sans-Serif" font-size="10.00">array</text>
</a>
</g>
</g>
<!-- Node4&#45;&gt;Node6 -->
<g id="edge5_Node000004_Node000006" class="edge">
<title>Node4&#45;&gt;Node6</title>
<g id="a_edge5_Node000004_Node000006"><a xlink:title=" ">
<path fill="none" stroke="#63b8ff" d="M1048.22,-144.31C1045.45,-143.8 1042.68,-143.35 1040,-143 840.21,-116.9 326.46,-166.66 134,-107 129.95,-105.74 125.9,-103.82 122.14,-101.66"/>
<polygon fill="#63b8ff" stroke="#63b8ff" points="123.79,-98.56 113.5,-96.05 119.98,-104.43 123.79,-98.56"/>
</a>
</g>
</g>
<!-- Node7 -->
<g id="Node000007" class="node">
<title>Node7</title>
<g id="a_Node000007"><a xlink:title=" ">
<polygon fill="#e0e0e0" stroke="#999999" points="201.5,-96 142.5,-96 142.5,-77 201.5,-77 201.5,-96"/>
<text text-anchor="middle" x="172" y="-84" font-family="Helvetica,sans-Serif" font-size="10.00">compare</text>
</a>
</g>
</g>
<!-- Node4&#45;&gt;Node7 -->
<g id="edge6_Node000004_Node000007" class="edge">
<title>Node4&#45;&gt;Node7</title>
<g id="a_edge6_Node000004_Node000007"><a xlink:title=" ">
<path fill="none" stroke="#63b8ff" d="M1048.22,-144.32C1045.45,-143.81 1042.68,-143.36 1040,-143 857.2,-118.78 389.5,-153.25 211,-107 205.41,-105.55 199.69,-103.24 194.42,-100.7"/>
<polygon fill="#63b8ff" stroke="#63b8ff" points="196,-97.58 185.52,-96.03 192.75,-103.78 196,-97.58"/>
</a>
</g>
</g>
<!-- Node8 -->
<g id="Node000008" class="node">
<title>Node8</title>
<g id="a_Node000008"><a xlink:title=" ">
<polygon fill="#e0e0e0" stroke="#999999" points="280,-96 220,-96 220,-77 280,-77 280,-96"/>
<text text-anchor="middle" x="250" y="-84" font-family="Helvetica,sans-Serif" font-size="10.00">concepts</text>
</a>
</g>
</g>
<!-- Node4&#45;&gt;Node8 -->
<g id="edge7_Node000004_Node000008" class="edge">
<title>Node4&#45;&gt;Node8</title>
<g id="a_edge7_Node000004_Node000008"><a xlink:title=" ">
<path fill="none" stroke="#63b8ff" d="M1048.22,-144.33C1045.45,-143.82 1042.68,-143.36 1040,-143 874.64,-120.71 451.64,-148.41 290,-107 284.29,-105.54 278.44,-103.22 273.03,-100.68"/>
<polygon fill="#63b8ff" stroke="#63b8ff" points="274.4,-97.45 263.9,-96.01 271.21,-103.68 274.4,-97.45"/>
</a>
</g>
</g>
<!-- Node9 -->
<g id="Node000009" class="node">
<title>Node9</title>
<g id="a_Node000009"><a xlink:title=" ">
<polygon fill="#e0e0e0" stroke="#999999" points="351.5,-96 298.5,-96 298.5,-77 351.5,-77 351.5,-96"/>
<text text-anchor="middle" x="325" y="-84" font-family="Helvetica,sans-Serif" font-size="10.00">cstddef</text>
</a>
</g>
</g>
<!-- Node4&#45;&gt;Node9 -->
<g id="edge8_Node000004_Node000009" class="edge">
<title>Node4&#45;&gt;Node9</title>
<g id="a_edge8_Node000004_Node000009"><a xlink:title=" ">
<path fill="none" stroke="#63b8ff" d="M1048.21,-144.34C1045.45,-143.83 1042.68,-143.37 1040,-143 890.3,-122.44 506.44,-147.99 361,-107 356.04,-105.6 351.01,-103.44 346.34,-101.05"/>
<polygon fill="#63b8ff" stroke="#63b8ff" points="347.83,-97.87 337.4,-96 344.39,-103.97 347.83,-97.87"/>
</a>
</g>
</g>
<!-- Node10 -->
<g id="Node000010" class="node">
<title>Node10</title>
<g id="a_Node000010"><a xlink:title=" ">
<polygon fill="#e0e0e0" stroke="#999999" points="420,-96 370,-96 370,-77 420,-77 420,-96"/>
<text text-anchor="middle" x="395" y="-84" font-family="Helvetica,sans-Serif" font-size="10.00">cstdint</text>
</a>
</g>
</g>
<!-- Node4&#45;&gt;Node10 -->
<g id="edge9_Node000004_Node000010" class="edge">
<title>Node4&#45;&gt;Node10</title>
<g id="a_edge9_Node000004_Node000010"><a xlink:title=" ">
<path fill="none" stroke="#63b8ff" d="M1048.21,-144.36C1045.45,-143.84 1042.68,-143.38 1040,-143 770.61,-105.19 689.68,-184.73 429,-107 424.48,-105.65 419.91,-103.6 415.65,-101.33"/>
<polygon fill="#63b8ff" stroke="#63b8ff" points="417.35,-98.27 406.97,-96.19 413.79,-104.29 417.35,-98.27"/>
</a>
</g>
</g>
<!-- Node11 -->
<g id="Node000011" class="node">
<title>Node11</title>
<g id="a_Node000011"><a xlink:title=" ">
<polygon fill="#e0e0e0" stroke="#999999" points="488,-96 438,-96 438,-77 488,-77 488,-96"/>
<text text-anchor="middle" x="463" y="-84" font-family="Helvetica,sans-Serif" font-size="10.00">cstring</text>
</a>
</g>
</g>
<!-- Node4&#45;&gt;Node11 -->
<g id="edge10_Node000004_Node000011" class="edge">
<title>Node4&#45;&gt;Node11</title>
<g id="a_edge10_Node000004_Node000011"><a xlink:title=" ">
<path fill="none" stroke="#63b8ff" d="M1048.21,-144.38C1045.44,-143.86 1042.68,-143.39 1040,-143 801.05,-108.55 729.52,-175.41 498,-107 493.37,-105.63 488.68,-103.57 484.3,-101.3"/>
<polygon fill="#63b8ff" stroke="#63b8ff" points="485.78,-98.11 475.36,-96.16 482.29,-104.18 485.78,-98.11"/>
</a>
</g>
</g>
<!-- Node12 -->
<g id="Node000012" class="node">
<title>Node12</title>
<g id="a_Node000012"><a xlink:title=" ">
<polygon fill="#e0e0e0" stroke="#999999" points="555.5,-96 506.5,-96 506.5,-77 555.5,-77 555.5,-96"/>
<text text-anchor="middle" x="531" y="-84" font-family="Helvetica,sans-Serif" font-size="10.00">cuchar</text>
</a>
</g>
</g>
<!-- Node4&#45;&gt;Node12 -->
<g id="edge11_Node000004_Node000012" class="edge">
<title>Node4&#45;&gt;Node12</title>
<g id="a_edge11_Node000004_Node000012"><a xlink:title=" ">
<path fill="none" stroke="#63b8ff" d="M1048.21,-144.41C1045.44,-143.88 1042.67,-143.4 1040,-143 830.59,-111.81 767.37,-169.2 565,-107 560.49,-105.61 555.92,-103.55 551.67,-101.27"/>
<polygon fill="#63b8ff" stroke="#63b8ff" points="553.37,-98.21 542.98,-96.13 549.81,-104.24 553.37,-98.21"/>
</a>
</g>
</g>
<!-- Node13 -->
<g id="Node000013" class="node">
<title>Node13</title>
<g id="a_Node000013"><a xlink:title=" ">
<polygon fill="#e0e0e0" stroke="#999999" points="656.5,-96 573.5,-96 573.5,-77 656.5,-77 656.5,-96"/>
<text text-anchor="middle" x="615" y="-84" font-family="Helvetica,sans-Serif" font-size="10.00">initializer_list</text>
</a>
</g>
</g>
<!-- Node4&#45;&gt;Node13 -->
<g id="edge12_Node000004_Node000013" class="edge">
<title>Node4&#45;&gt;Node13</title>
<g id="a_edge12_Node000004_Node000013"><a xlink:title=" ">
<path fill="none" stroke="#63b8ff" d="M1048.2,-144.47C1045.43,-143.93 1042.67,-143.43 1040,-143 875.09,-116.72 828.57,-145.16 666,-107 658.51,-105.24 650.65,-102.64 643.4,-99.91"/>
<polygon fill="#63b8ff" stroke="#63b8ff" points="644.57,-96.61 633.99,-96.16 641.99,-103.11 644.57,-96.61"/>
</a>
</g>
</g>
<!-- Node14 -->
<g id="Node000014" class="node">
<title>Node14</title>
<g id="a_Node000014"><a xlink:title=" ">
<polygon fill="#e0e0e0" stroke="#999999" points="727.5,-96 674.5,-96 674.5,-77 727.5,-77 727.5,-96"/>
<text text-anchor="middle" x="701" y="-84" font-family="Helvetica,sans-Serif" font-size="10.00">iterator</text>
</a>
</g>
</g>
<!-- Node4&#45;&gt;Node14 -->
<g id="edge13_Node000004_Node000014" class="edge">
<title>Node4&#45;&gt;Node14</title>
<g id="a_edge13_Node000004_Node000014"><a xlink:title=" ">
<path fill="none" stroke="#63b8ff" d="M1048.19,-144.53C1045.43,-143.98 1042.67,-143.46 1040,-143 906.32,-120.17 866.26,-148.03 737,-107 732.38,-105.53 727.66,-103.46 723.23,-101.22"/>
<polygon fill="#63b8ff" stroke="#63b8ff" points="724.58,-97.96 714.14,-96.18 721.19,-104.08 724.58,-97.96"/>
</a>
</g>
</g>
<!-- Node15 -->
<g id="Node000015" class="node">
<title>Node15</title>
<g id="a_Node000015"><a xlink:title=" ">
<polygon fill="#e0e0e0" stroke="#999999" points="804,-96 746,-96 746,-77 804,-77 804,-96"/>
<text text-anchor="middle" x="775" y="-84" font-family="Helvetica,sans-Serif" font-size="10.00">memory</text>
</a>
</g>
</g>
<!-- Node4&#45;&gt;Node15 -->
<g id="edge14_Node000004_Node000015" class="edge">
<title>Node4&#45;&gt;Node15</title>
<g id="a_edge14_Node000004_Node000015"><a xlink:title=" ">
<path fill="none" stroke="#63b8ff" d="M1048.17,-144.64C1045.41,-144.06 1042.66,-143.51 1040,-143 940.1,-123.89 910.84,-138.11 814,-107 808.82,-105.34 803.47,-103.07 798.46,-100.67"/>
<polygon fill="#63b8ff" stroke="#63b8ff" points="799.86,-97.45 789.37,-96.01 796.67,-103.68 799.86,-97.45"/>
</a>
</g>
</g>
<!-- Node16 -->
<g id="Node000016" class="node">
<title>Node16</title>
<g id="a_Node000016"><a xlink:title=" ">
<polygon fill="#e0e0e0" stroke="#999999" points="887.5,-96 822.5,-96 822.5,-77 887.5,-77 887.5,-96"/>
<text text-anchor="middle" x="855" y="-84" font-family="Helvetica,sans-Serif" font-size="10.00">stdexcept</text>
</a>
</g>
</g>
<!-- Node4&#45;&gt;Node16 -->
<g id="edge15_Node000004_Node000016" class="edge">
<title>Node4&#45;&gt;Node16</title>
<g id="a_edge15_Node000004_Node000016"><a xlink:title=" ">
<path fill="none" stroke="#63b8ff" d="M1048.37,-144.55C1000.79,-133.33 911.23,-112 897,-107 891.6,-105.1 885.95,-102.75 880.61,-100.34"/>
<polygon fill="#63b8ff" stroke="#63b8ff" points="881.99,-97.13 871.45,-96.04 879.01,-103.46 881.99,-97.13"/>
</a>
</g>
</g>
<!-- Node17 -->
<g id="Node000017" class="node">
<title>Node17</title>
<g id="a_Node000017"><a xlink:title=" ">
<polygon fill="#e0e0e0" stroke="#999999" points="950,-96 906,-96 906,-77 950,-77 950,-96"/>
<text text-anchor="middle" x="928" y="-84" font-family="Helvetica,sans-Serif" font-size="10.00">string</text>
</a>
</g>
</g>
<!-- Node4&#45;&gt;Node17 -->
<g id="edge16_Node000004_Node000017" class="edge">
<title>Node4&#45;&gt;Node17</title>
<g id="a_edge16_Node000004_Node000017"><a xlink:title=" ">
<path fill="none" stroke="#63b8ff" d="M1051.16,-142.98C1026.85,-134.89 990.3,-121.79 960,-107 956.52,-105.3 952.93,-103.34 949.47,-101.33"/>
<polygon fill="#63b8ff" stroke="#63b8ff" points="951.13,-98.24 940.77,-96.04 947.49,-104.22 951.13,-98.24"/>
</a>
</g>
</g>
<!-- Node18 -->
<g id="Node000018" class="node">
<title>Node18</title>
<g id="a_Node000018"><a xlink:title=" ">
<polygon fill="#e0e0e0" stroke="#999999" points="1037.5,-96 968.5,-96 968.5,-77 1037.5,-77 1037.5,-96"/>
<text text-anchor="middle" x="1003" y="-84" font-family="Helvetica,sans-Serif" font-size="10.00">type_traits</text>
</a>
</g>
</g>
<!-- Node4&#45;&gt;Node18 -->
<g id="edge17_Node000004_Node000018" class="edge">
<title>Node4&#45;&gt;Node18</title>
<g id="a_edge17_Node000004_Node000018"><a xlink:title=" ">
<path fill="none" stroke="#63b8ff" d="M1067.89,-142.87C1055.99,-132.71 1036,-115.66 1021.35,-103.15"/>
<polygon fill="#63b8ff" stroke="#63b8ff" points="1023.31,-100.23 1013.44,-96.41 1018.77,-105.56 1023.31,-100.23"/>
</a>
</g>
</g>
<!-- Node19 -->
<g id="Node000019" class="node">
<title>Node19</title>
<g id="a_Node000019"><a xlink:title=" ">
<polygon fill="#e0e0e0" stroke="#999999" points="1100.5,-96 1055.5,-96 1055.5,-77 1100.5,-77 1100.5,-96"/>
<text text-anchor="middle" x="1078" y="-84" font-family="Helvetica,sans-Serif" font-size="10.00">utility</text>
</a>
</g>
</g>
<!-- Node4&#45;&gt;Node19 -->
<g id="edge18_Node000004_Node000019" class="edge">
<title>Node4&#45;&gt;Node19</title>
<g id="a_edge18_Node000004_Node000019"><a xlink:title=" ">
<path fill="none" stroke="#63b8ff" d="M1078,-142.87C1078,-133.66 1078,-118.79 1078,-106.77"/>
<polygon fill="#63b8ff" stroke="#63b8ff" points="1081.5,-106.41 1078,-96.41 1074.5,-106.41 1081.5,-106.41"/>
</a>
</g>
</g>
<!-- Node20 -->
<g id="Node000020" class="node">
<title>Node20</title>
<g id="a_Node000020"><a xlink:href="../../dd/d9e/linux_2platform__config_8hpp.html" target="_top" xlink:title="additional linux platform header">
<polygon fill="white" stroke="#666666" points="1273.5,-107 1118.5,-107 1118.5,-66 1273.5,-66 1273.5,-107"/>
<text text-anchor="start" x="1126.5" y="-95" font-family="Helvetica,sans-Serif" font-size="10.00">/home/runner/work/toygine2</text>
<text text-anchor="start" x="1126.5" y="-84" font-family="Helvetica,sans-Serif" font-size="10.00">/toygine2/src/platforms</text>
<text text-anchor="middle" x="1196" y="-73" font-family="Helvetica,sans-Serif" font-size="10.00">/linux/platform_config.hpp</text>
</a>
</g>
</g>
<!-- Node4&#45;&gt;Node20 -->
<g id="edge19_Node000004_Node000020" class="edge">
<title>Node4&#45;&gt;Node20</title>
<g id="a_edge19_Node000004_Node000020"><a xlink:title=" ">
<path fill="none" stroke="#63b8ff" d="M1093.91,-142.87C1108.53,-134.94 1130.92,-122.8 1151,-111.91"/>
<polygon fill="#63b8ff" stroke="#63b8ff" points="1152.91,-114.85 1160.03,-107.01 1149.57,-108.7 1152.91,-114.85"/>
</a>
</g>
</g>
<!-- Node22 -->
<g id="Node000022" class="node">
<title>Node22</title>
<g id="a_Node000022"><a xlink:href="../../dd/ded/c__string__view_8hpp.html" target="_top" xlink:title="Non&#45;owning string view class for C&#45;style strings.">
<polygon fill="white" stroke="#666666" points="1420,-96 1292,-96 1292,-77 1420,-77 1420,-96"/>
<text text-anchor="middle" x="1356" y="-84" font-family="Helvetica,sans-Serif" font-size="10.00">core/c_string_view.hpp</text>
</a>
</g>
</g>
<!-- Node4&#45;&gt;Node22 -->
<g id="edge21_Node000004_Node000022" class="edge">
<title>Node4&#45;&gt;Node22</title>
<g id="a_edge21_Node000004_Node000022"><a xlink:title=" ">
<path fill="none" stroke="#63b8ff" d="M1107.81,-145C1110.91,-144.32 1114.02,-143.65 1117,-143 1190.77,-126.96 1209.62,-124.75 1283,-107 1293.53,-104.45 1304.87,-101.52 1315.39,-98.71"/>
<polygon fill="#63b8ff" stroke="#63b8ff" points="1316.43,-102.06 1325.18,-96.08 1314.61,-95.3 1316.43,-102.06"/>
</a>
</g>
</g>
<!-- Node23 -->
<g id="Node000023" class="node">
<title>Node23</title>
<g id="a_Node000023"><a xlink:href="../../d1/d5c/callbacks__pool_8hpp.html" target="_top" xlink:title="Template callback pool class with fixed&#45;size callback storage.">
<polygon fill="white" stroke="#666666" points="1572,-96 1438,-96 1438,-77 1572,-77 1572,-96"/>
<text text-anchor="middle" x="1505" y="-84" font-family="Helvetica,sans-Serif" font-size="10.00">core/callbacks_pool.hpp</text>
</a>
</g>
</g>
<!-- Node4&#45;&gt;Node23 -->
<g id="edge22_Node000004_Node000023" class="edge">
<title>Node4&#45;&gt;Node23</title>
<g id="a_edge22_Node000004_Node000023"><a xlink:title=" ">
<path fill="none" stroke="#63b8ff" d="M1107.75,-144.7C1110.87,-144.08 1113.99,-143.5 1117,-143 1254.7,-120.11 1291.74,-132.4 1429,-107 1441.02,-104.78 1453.95,-101.72 1465.67,-98.68"/>
<polygon fill="#63b8ff" stroke="#63b8ff" points="1466.85,-101.99 1475.61,-96.04 1465.05,-95.22 1466.85,-101.99"/>
</a>
</g>
</g>
<!-- Node24 -->
<g id="Node000024" class="node">
<title>Node24</title>
<g id="a_Node000024"><a xlink:href="../../d4/dc0/constexpr__utils_8hpp.html" target="_top" xlink:title="Constexpr utility functions for compile&#45;time operations.">
<polygon fill="white" stroke="#666666" points="1726,-96 1590,-96 1590,-77 1726,-77 1726,-96"/>
<text text-anchor="middle" x="1658" y="-84" font-family="Helvetica,sans-Serif" font-size="10.00">core/constexpr_utils.hpp</text>
</a>
</g>
</g>
<!-- Node4&#45;&gt;Node24 -->
<g id="edge23_Node000004_Node000024" class="edge">
<title>Node4&#45;&gt;Node24</title>
<g id="a_edge23_Node000004_Node000024"><a xlink:title=" ">
<path fill="none" stroke="#63b8ff" d="M1107.73,-144.58C1110.85,-143.99 1113.98,-143.44 1117,-143 1321.64,-112.91 1376.89,-140.51 1581,-107 1593.54,-104.94 1607.04,-101.84 1619.17,-98.71"/>
<polygon fill="#63b8ff" stroke="#63b8ff" points="1620.23,-102.05 1629,-96.09 1618.43,-95.28 1620.23,-102.05"/>
</a>
</g>
</g>
<!-- Node25 -->
<g id="Node000025" class="node">
<title>Node25</title>
<g id="a_Node000025"><a xlink:href="../../d7/d7f/fixed__string_8hpp.html" target="_top" xlink:title="Template string class with fixed&#45;size character buffer.">
<polygon fill="white" stroke="#666666" points="1862,-96 1744,-96 1744,-77 1862,-77 1862,-96"/>
<text text-anchor="middle" x="1803" y="-84" font-family="Helvetica,sans-Serif" font-size="10.00">core/fixed_string.hpp</text>
</a>
</g>
</g>
<!-- Node4&#45;&gt;Node25 -->
<g id="edge24_Node000004_Node000025" class="edge">
<title>Node4&#45;&gt;Node25</title>
<g id="a_edge24_Node000004_Node000025"><a xlink:title=" ">
<path fill="none" stroke="#63b8ff" d="M1107.72,-144.52C1110.84,-143.94 1113.98,-143.41 1117,-143 1389.58,-105.59 1463.77,-153.2 1735,-107 1746.01,-105.12 1757.78,-102.12 1768.38,-99.03"/>
<polygon fill="#63b8ff" stroke="#63b8ff" points="1769.57,-102.32 1778.12,-96.07 1767.53,-95.63 1769.57,-102.32"/>
</a>
</g>
</g>
<!-- Node26 -->
<g id="Node000026" class="node">
<title>Node26</title>
<g id="a_Node000026"><a xlink:href="../../d7/dea/fixed__vector_8hpp.html" target="_top" xlink:title="TODO.">
<polygon fill="white" stroke="#666666" points="2000,-96 1880,-96 1880,-77 2000,-77 2000,-96"/>
<text text-anchor="middle" x="1940" y="-84" font-family="Helvetica,sans-Serif" font-size="10.00">core/fixed_vector.hpp</text>
</a>
</g>
</g>
<!-- Node4&#45;&gt;Node26 -->
<g id="edge25_Node000004_Node000026" class="edge">
<title>Node4&#45;&gt;Node26</title>
<g id="a_edge25_Node000004_Node000026"><a xlink:title=" ">
<path fill="none" stroke="#63b8ff" d="M1107.72,-144.49C1110.84,-143.91 1113.98,-143.4 1117,-143 1449.61,-99.13 1539.88,-160.97 1871,-107 1882.38,-105.14 1894.56,-102.08 1905.47,-98.92"/>
<polygon fill="#63b8ff" stroke="#63b8ff" points="1906.51,-102.26 1915.08,-96.03 1904.49,-95.56 1906.51,-102.26"/>
</a>
</g>
</g>
<!-- Node27 -->
<g id="Node000027" class="node">
<title>Node27</title>
<g id="a_Node000027"><a xlink:href="../../dd/d8e/hashes_8hpp.html" target="_top" xlink:title="CRC hash functions.">
<polygon fill="white" stroke="#666666" points="2114,-96 2018,-96 2018,-77 2114,-77 2114,-96"/>
<text text-anchor="middle" x="2066" y="-84" font-family="Helvetica,sans-Serif" font-size="10.00">core/hashes.hpp</text>
</a>
</g>
</g>
<!-- Node4&#45;&gt;Node27 -->
<g id="edge26_Node000004_Node000027" class="edge">
<title>Node4&#45;&gt;Node27</title>
<g id="a_edge26_Node000004_Node000027"><a xlink:title=" ">
<path fill="none" stroke="#63b8ff" d="M1107.72,-144.46C1110.84,-143.89 1113.98,-143.39 1117,-143 1510.55,-92.56 1619,-179.98 2009,-107 2018.01,-105.31 2027.54,-102.49 2036.17,-99.52"/>
<polygon fill="#63b8ff" stroke="#63b8ff" points="2037.61,-102.72 2045.81,-96.01 2035.21,-96.14 2037.61,-102.72"/>
</a>
</g>
</g>
<!-- Node28 -->
<g id="Node000028" class="node">
<title>Node28</title>
<g id="a_Node000028"><a xlink:href="../../df/d93/utils_8hpp.html" target="_top" xlink:title="Core utility functions for string manipulation, encoding conversion, and number formatting.">
<polygon fill="white" stroke="#666666" points="2215.5,-96 2132.5,-96 2132.5,-77 2215.5,-77 2215.5,-96"/>
<text text-anchor="middle" x="2174" y="-84" font-family="Helvetica,sans-Serif" font-size="10.00">core/utils.hpp</text>
</a>
</g>
</g>
<!-- Node4&#45;&gt;Node28 -->
<g id="edge27_Node000004_Node000028" class="edge">
<title>Node4&#45;&gt;Node28</title>
<g id="a_edge27_Node000004_Node000028"><a xlink:title=" ">
<path fill="none" stroke="#63b8ff" d="M1107.72,-144.45C1110.84,-143.88 1113.97,-143.38 1117,-143 1338.95,-115.07 1903.78,-151.55 2123,-107 2130.88,-105.4 2139.14,-102.72 2146.66,-99.85"/>
<polygon fill="#63b8ff" stroke="#63b8ff" points="2148.08,-103.05 2156.02,-96.04 2145.44,-96.56 2148.08,-103.05"/>
</a>
</g>
</g>
<!-- Node29 -->
<g id="Node000029" class="node">
<title>Node29</title>
<g id="a_Node000029"><a xlink:href="../../df/d4a/c__string__view_8inl.html" target="_top" xlink:title="Inline implementations for CStringView class.">
<polygon fill="white" stroke="#666666" points="2356,-96 2234,-96 2234,-77 2356,-77 2356,-96"/>
<text text-anchor="middle" x="2295" y="-84" font-family="Helvetica,sans-Serif" font-size="10.00">core/c_string_view.inl</text>
</a>
</g>
</g>
<!-- Node4&#45;&gt;Node29 -->
<g id="edge28_Node000004_Node000029" class="edge">
<title>Node4&#45;&gt;Node29</title>
<g id="a_edge28_Node000004_Node000029"><a xlink:title=" ">
<path fill="none" stroke="#63b8ff" d="M1107.71,-144.44C1110.84,-143.87 1113.97,-143.38 1117,-143 1605.95,-82.29 1737.98,-181.64 2225,-107 2236.65,-105.21 2249.11,-102.14 2260.25,-98.95"/>
<polygon fill="#63b8ff" stroke="#63b8ff" points="2261.47,-102.24 2270.05,-96.02 2259.46,-95.53 2261.47,-102.24"/>
</a>
</g>
</g>
<!-- Node30 -->
<g id="Node000030" class="node">
<title>Node30</title>
<g id="a_Node000030"><a xlink:href="../../d6/ddb/callbacks__pool_8inl.html" target="_top" xlink:title="Inline implementations for template callback pool class with fixed&#45;size callback storage.">
<polygon fill="white" stroke="#666666" points="2502,-96 2374,-96 2374,-77 2502,-77 2502,-96"/>
<text text-anchor="middle" x="2438" y="-84" font-family="Helvetica,sans-Serif" font-size="10.00">core/callbacks_pool.inl</text>
</a>
</g>
</g>
<!-- Node4&#45;&gt;Node30 -->
<g id="edge29_Node000004_Node000030" class="edge">
<title>Node4&#45;&gt;Node30</title>
<g id="a_edge29_Node000004_Node000030"><a xlink:title=" ">
<path fill="none" stroke="#63b8ff" d="M1107.71,-144.43C1110.84,-143.86 1113.97,-143.37 1117,-143 1667.79,-75.63 1815.92,-187.14 2365,-107 2377.25,-105.21 2390.39,-102.09 2402.09,-98.87"/>
<polygon fill="#63b8ff" stroke="#63b8ff" points="2403.31,-102.16 2411.95,-96.04 2401.37,-95.43 2403.31,-102.16"/>
</a>
</g>
</g>
<!-- Node31 -->
<g id="Node000031" class="node">
<title>Node31</title>
<g id="a_Node000031"><a xlink:href="../../dc/d28/constexpr__utils_8inl.html" target="_top" xlink:title="Inline implementations for constexpr utility functions.">
<polygon fill="white" stroke="#666666" points="2650,-96 2520,-96 2520,-77 2650,-77 2650,-96"/>
<text text-anchor="middle" x="2585" y="-84" font-family="Helvetica,sans-Serif" font-size="10.00">core/constexpr_utils.inl</text>
</a>
</g>
</g>
<!-- Node4&#45;&gt;Node31 -->
<g id="edge30_Node000004_Node000031" class="edge">
<title>Node4&#45;&gt;Node31</title>
<g id="a_edge30_Node000004_Node000031"><a xlink:title=" ">
<path fill="none" stroke="#63b8ff" d="M1107.71,-144.42C1110.83,-143.86 1113.97,-143.37 1117,-143 1732.29,-68.68 1897.45,-194.55 2511,-107 2523.54,-105.21 2537,-102.05 2548.95,-98.79"/>
<polygon fill="#63b8ff" stroke="#63b8ff" points="2549.93,-102.15 2558.59,-96.05 2548.01,-95.42 2549.93,-102.15"/>
</a>
</g>
</g>
<!-- Node32 -->
<g id="Node000032" class="node">
<title>Node32</title>
<g id="a_Node000032"><a xlink:href="../../d7/d40/fixed__string_8inl.html" target="_top" xlink:title="Inline implementations for FixedString template class.">
<polygon fill="white" stroke="#666666" points="2780,-96 2668,-96 2668,-77 2780,-77 2780,-96"/>
<text text-anchor="middle" x="2724" y="-84" font-family="Helvetica,sans-Serif" font-size="10.00">core/fixed_string.inl</text>
</a>
</g>
</g>
<!-- Node4&#45;&gt;Node32 -->
<g id="edge31_Node000004_Node000032" class="edge">
<title>Node4&#45;&gt;Node32</title>
<g id="a_edge31_Node000004_Node000032"><a xlink:title=" ">
<path fill="none" stroke="#63b8ff" d="M1107.71,-144.41C1110.83,-143.85 1113.97,-143.36 1117,-143 1457.34,-102.32 2320.48,-160.73 2659,-107 2669.65,-105.31 2680.99,-102.34 2691.16,-99.21"/>
<polygon fill="#63b8ff" stroke="#63b8ff" points="2692.44,-102.48 2700.88,-96.08 2690.29,-95.82 2692.44,-102.48"/>
</a>
</g>
</g>
<!-- Node33 -->
<g id="Node000033" class="node">
<title>Node33</title>
<g id="a_Node000033"><a xlink:href="../../da/dc9/fixed__vector_8inl.html" target="_top" xlink:title="TODO.">
<polygon fill="white" stroke="#666666" points="2912,-96 2798,-96 2798,-77 2912,-77 2912,-96"/>
<text text-anchor="middle" x="2855" y="-84" font-family="Helvetica,sans-Serif" font-size="10.00">core/fixed_vector.inl</text>
</a>
</g>
</g>
<!-- Node4&#45;&gt;Node33 -->
<g id="edge32_Node000004_Node000033" class="edge">
<title>Node4&#45;&gt;Node33</title>
<g id="a_edge32_Node000004_Node000033"><a xlink:title=" ">
<path fill="none" stroke="#63b8ff" d="M1107.71,-144.41C1110.83,-143.85 1113.97,-143.36 1117,-143 1486.05,-99.23 2421.78,-164.16 2789,-107 2799.91,-105.3 2811.55,-102.29 2821.97,-99.13"/>
<polygon fill="#63b8ff" stroke="#63b8ff" points="2823.05,-102.46 2831.52,-96.09 2820.93,-95.79 2823.05,-102.46"/>
</a>
</g>
</g>
<!-- Node34 -->
<g id="Node000034" class="node">
<title>Node34</title>
<g id="a_Node000034"><a xlink:href="../../df/d7d/utils_8inl.html" target="_top" xlink:title="Inline implementations of core utility functions for string manipulation and encoding conversion.">
<polygon fill="white" stroke="#666666" points="3007.5,-96 2930.5,-96 2930.5,-77 3007.5,-77 3007.5,-96"/>
<text text-anchor="middle" x="2969" y="-84" font-family="Helvetica,sans-Serif" font-size="10.00">core/utils.inl</text>
</a>
</g>
</g>
<!-- Node4&#45;&gt;Node34 -->
<g id="edge33_Node000004_Node000034" class="edge">
<title>Node4&#45;&gt;Node34</title>
<g id="a_edge33_Node000004_Node000034"><a xlink:title=" ">
<path fill="none" stroke="#63b8ff" d="M1107.71,-144.4C1110.83,-143.84 1113.97,-143.36 1117,-143 1515.21,-96.08 2528.26,-187.81 2921,-107 2928.22,-105.51 2935.74,-102.98 2942.62,-100.22"/>
<polygon fill="#63b8ff" stroke="#63b8ff" points="2944.35,-103.29 2952.15,-96.12 2941.58,-96.86 2944.35,-103.29"/>
</a>
</g>
</g>
<!-- Node21 -->
<g id="Node000021" class="node">
<title>Node21</title>
<g id="a_Node000021"><a xlink:href="../../d1/d5f/assertion__macro__gcc__clang_8hpp.html" target="_top" xlink:title="Debug and Release assertion macro implementations for GCC/Clang platforms.">
<polygon fill="white" stroke="#666666" points="1259.5,-30 1132.5,-30 1132.5,0 1259.5,0 1259.5,-30"/>
<text text-anchor="start" x="1140.5" y="-18" font-family="Helvetica,sans-Serif" font-size="10.00">../common/assertion</text>
<text text-anchor="middle" x="1196" y="-7" font-family="Helvetica,sans-Serif" font-size="10.00">_macro_gcc_clang.hpp</text>
</a>
</g>
</g>
<!-- Node20&#45;&gt;Node21 -->
<g id="edge20_Node000020_Node000021" class="edge">
<title>Node20&#45;&gt;Node21</title>
<g id="a_edge20_Node000020_Node000021"><a xlink:title=" ">
<path fill="none" stroke="#63b8ff" d="M1196,-65.77C1196,-57.85 1196,-48.63 1196,-40.3"/>
<polygon fill="#63b8ff" stroke="#63b8ff" points="1199.5,-40.04 1196,-30.04 1192.5,-40.04 1199.5,-40.04"/>
</a>
</g>
</g>
</g>
</svg>
