<?xml version="1.0" encoding="UTF-8" standalone="no"?>
<!DOCTYPE svg PUBLIC "-//W3C//DTD SVG 1.1//EN"
 "http://www.w3.org/Graphics/SVG/1.1/DTD/svg11.dtd">
<!-- Generated by graphviz version 2.43.0 (0)
 -->
<!-- Title: src/core/utils.cpp Pages: 1 -->
<svg width="2192pt" height="159pt"
 viewBox="0.00 0.00 2191.50 159.00" xmlns="http://www.w3.org/2000/svg" xmlns:xlink="http://www.w3.org/1999/xlink">
<g id="graph0" class="graph" transform="scale(1 1) rotate(0) translate(4 155)">
<title>src/core/utils.cpp</title>
<!-- Node1 -->
<g id="Node000001" class="node">
<title>Node1</title>
<g id="a_Node000001"><a xlink:title=" ">
<polygon fill="#999999" stroke="#666666" points="807.5,-151 708.5,-151 708.5,-132 807.5,-132 807.5,-151"/>
<text text-anchor="middle" x="758" y="-139" font-family="Helvetica,sans-Serif" font-size="10.00">src/core/utils.cpp</text>
</a>
</g>
</g>
<!-- Node2 -->
<g id="Node000002" class="node">
<title>Node2</title>
<g id="a_Node000002"><a xlink:title=" ">
<polygon fill="#e0e0e0" stroke="#999999" points="681.5,-96 652.5,-96 652.5,-77 681.5,-77 681.5,-96"/>
<text text-anchor="middle" x="667" y="-84" font-family="Helvetica,sans-Serif" font-size="10.00">bit</text>
</a>
</g>
</g>
<!-- Node1&#45;&gt;Node2 -->
<g id="edge1_Node000001_Node000002" class="edge">
<title>Node1&#45;&gt;Node2</title>
<g id="a_edge1_Node000001_Node000002"><a xlink:title=" ">
<path fill="none" stroke="#63b8ff" d="M743.38,-131.98C729.05,-123.64 706.99,-110.79 690.25,-101.04"/>
<polygon fill="#63b8ff" stroke="#63b8ff" points="691.99,-98 681.58,-95.99 688.46,-104.05 691.99,-98"/>
</a>
</g>
</g>
<!-- Node3 -->
<g id="Node000003" class="node">
<title>Node3</title>
<g id="a_Node000003"><a xlink:title=" ">
<polygon fill="#e0e0e0" stroke="#999999" points="746.5,-96 699.5,-96 699.5,-77 746.5,-77 746.5,-96"/>
<text text-anchor="middle" x="723" y="-84" font-family="Helvetica,sans-Serif" font-size="10.00">cmath</text>
</a>
</g>
</g>
<!-- Node1&#45;&gt;Node3 -->
<g id="edge2_Node000001_Node000003" class="edge">
<title>Node1&#45;&gt;Node3</title>
<g id="a_edge2_Node000001_Node000003"><a xlink:title=" ">
<path fill="none" stroke="#63b8ff" d="M752.22,-131.75C747.38,-124.42 740.32,-113.73 734.36,-104.7"/>
<polygon fill="#63b8ff" stroke="#63b8ff" points="737.1,-102.5 728.67,-96.09 731.26,-106.36 737.1,-102.5"/>
</a>
</g>
</g>
<!-- Node4 -->
<g id="Node000004" class="node">
<title>Node4</title>
<g id="a_Node000004"><a xlink:href="../../da/d47/core_8hpp.html" target="_top" xlink:title=" ">
<polygon fill="white" stroke="#666666" points="823.5,-96 764.5,-96 764.5,-77 823.5,-77 823.5,-96"/>
<text text-anchor="middle" x="794" y="-84" font-family="Helvetica,sans-Serif" font-size="10.00">core.hpp</text>
</a>
</g>
</g>
<!-- Node1&#45;&gt;Node4 -->
<g id="edge3_Node000001_Node000004" class="edge">
<title>Node1&#45;&gt;Node4</title>
<g id="a_edge3_Node000001_Node000004"><a xlink:title=" ">
<path fill="none" stroke="#63b8ff" d="M763.94,-131.75C768.98,-124.34 776.34,-113.5 782.51,-104.41"/>
<polygon fill="#63b8ff" stroke="#63b8ff" points="785.44,-106.33 788.17,-96.09 779.65,-102.39 785.44,-106.33"/>
</a>
</g>
</g>
<!-- Node26 -->
<g id="Node000026" class="node">
<title>Node26</title>
<g id="a_Node000026"><a xlink:href="../../d4/d85/utils__internal_8inl.html" target="_top" xlink:title=" ">
<polygon fill="white" stroke="#666666" points="1595.5,-96 1500.5,-96 1500.5,-77 1595.5,-77 1595.5,-96"/>
<text text-anchor="middle" x="1548" y="-84" font-family="Helvetica,sans-Serif" font-size="10.00">utils_internal.inl</text>
</a>
</g>
</g>
<!-- Node1&#45;&gt;Node26 -->
<g id="edge25_Node000001_Node000026" class="edge">
<title>Node1&#45;&gt;Node26</title>
<g id="a_edge25_Node000001_Node000026"><a xlink:title=" ">
<path fill="none" stroke="#63b8ff" d="M807.72,-137.16C947.13,-127.81 1341.28,-101.37 1490.13,-91.38"/>
<polygon fill="#63b8ff" stroke="#63b8ff" points="1490.67,-94.85 1500.41,-90.69 1490.2,-87.87 1490.67,-94.85"/>
</a>
</g>
</g>
<!-- Node5 -->
<g id="Node000005" class="node">
<title>Node5</title>
<g id="a_Node000005"><a xlink:title=" ">
<polygon fill="#e0e0e0" stroke="#999999" points="64,-30 0,-30 0,-11 64,-11 64,-30"/>
<text text-anchor="middle" x="32" y="-18" font-family="Helvetica,sans-Serif" font-size="10.00">algorithm</text>
</a>
</g>
</g>
<!-- Node4&#45;&gt;Node5 -->
<g id="edge4_Node000004_Node000005" class="edge">
<title>Node4&#45;&gt;Node5</title>
<g id="a_edge4_Node000004_Node000005"><a xlink:title=" ">
<path fill="none" stroke="#63b8ff" d="M764.28,-78.5C761.16,-77.92 758.02,-77.41 755,-77 454.17,-36.55 367.22,-115.61 73,-41 67.27,-39.55 61.38,-37.27 55.91,-34.78"/>
<polygon fill="#63b8ff" stroke="#63b8ff" points="57.17,-31.5 46.66,-30.19 54.06,-37.77 57.17,-31.5"/>
</a>
</g>
</g>
<!-- Node6 -->
<g id="Node000006" class="node">
<title>Node6</title>
<g id="a_Node000006"><a xlink:title=" ">
<polygon fill="#e0e0e0" stroke="#999999" points="124,-30 82,-30 82,-11 124,-11 124,-30"/>
<text text-anchor="middle" x="103" y="-18" font-family="Helvetica,sans-Serif" font-size="10.00">array</text>
</a>
</g>
</g>
<!-- Node4&#45;&gt;Node6 -->
<g id="edge5_Node000004_Node000006" class="edge">
<title>Node4&#45;&gt;Node6</title>
<g id="a_edge5_Node000004_Node000006"><a xlink:title=" ">
<path fill="none" stroke="#63b8ff" d="M764.28,-78.52C761.16,-77.94 758.02,-77.41 755,-77 617.83,-58.2 264.55,-84.17 133,-41 129.24,-39.77 125.49,-37.94 121.98,-35.89"/>
<polygon fill="#63b8ff" stroke="#63b8ff" points="123.67,-32.81 113.41,-30.19 119.8,-38.64 123.67,-32.81"/>
</a>
</g>
</g>
<!-- Node7 -->
<g id="Node000007" class="node">
<title>Node7</title>
<g id="a_Node000007"><a xlink:title=" ">
<polygon fill="#e0e0e0" stroke="#999999" points="201.5,-30 142.5,-30 142.5,-11 201.5,-11 201.5,-30"/>
<text text-anchor="middle" x="172" y="-18" font-family="Helvetica,sans-Serif" font-size="10.00">compare</text>
</a>
</g>
</g>
<!-- Node4&#45;&gt;Node7 -->
<g id="edge6_Node000004_Node000007" class="edge">
<title>Node4&#45;&gt;Node7</title>
<g id="a_edge6_Node000004_Node000007"><a xlink:title=" ">
<path fill="none" stroke="#63b8ff" d="M764.27,-78.54C761.15,-77.96 758.02,-77.43 755,-77 515.08,-43.11 444.86,-104.43 211,-41 205.66,-39.55 200.18,-37.34 195.09,-34.92"/>
<polygon fill="#63b8ff" stroke="#63b8ff" points="196.39,-31.65 185.9,-30.15 193.17,-37.86 196.39,-31.65"/>
</a>
</g>
</g>
<!-- Node8 -->
<g id="Node000008" class="node">
<title>Node8</title>
<g id="a_Node000008"><a xlink:title=" ">
<polygon fill="#e0e0e0" stroke="#999999" points="280,-30 220,-30 220,-11 280,-11 280,-30"/>
<text text-anchor="middle" x="250" y="-18" font-family="Helvetica,sans-Serif" font-size="10.00">concepts</text>
</a>
</g>
</g>
<!-- Node4&#45;&gt;Node8 -->
<g id="edge7_Node000004_Node000008" class="edge">
<title>Node4&#45;&gt;Node8</title>
<g id="a_edge7_Node000004_Node000008"><a xlink:title=" ">
<path fill="none" stroke="#63b8ff" d="M764.27,-78.58C761.15,-77.99 758.02,-77.44 755,-77 549.48,-46.81 489.18,-96.48 289,-41 283.67,-39.52 278.2,-37.3 273.1,-34.87"/>
<polygon fill="#63b8ff" stroke="#63b8ff" points="274.4,-31.6 263.91,-30.11 271.18,-37.82 274.4,-31.6"/>
</a>
</g>
</g>
<!-- Node9 -->
<g id="Node000009" class="node">
<title>Node9</title>
<g id="a_Node000009"><a xlink:title=" ">
<polygon fill="#e0e0e0" stroke="#999999" points="351.5,-30 298.5,-30 298.5,-11 351.5,-11 351.5,-30"/>
<text text-anchor="middle" x="325" y="-18" font-family="Helvetica,sans-Serif" font-size="10.00">cstddef</text>
</a>
</g>
</g>
<!-- Node4&#45;&gt;Node9 -->
<g id="edge8_Node000004_Node000009" class="edge">
<title>Node4&#45;&gt;Node9</title>
<g id="a_edge8_Node000004_Node000009"><a xlink:title=" ">
<path fill="none" stroke="#63b8ff" d="M764.26,-78.62C761.14,-78.02 758.01,-77.46 755,-77 581.21,-50.23 529.31,-91.92 361,-41 356.15,-39.53 351.21,-37.37 346.61,-35.02"/>
<polygon fill="#63b8ff" stroke="#63b8ff" points="348.21,-31.9 337.77,-30.07 344.79,-38.01 348.21,-31.9"/>
</a>
</g>
</g>
<!-- Node10 -->
<g id="Node000010" class="node">
<title>Node10</title>
<g id="a_Node000010"><a xlink:title=" ">
<polygon fill="#e0e0e0" stroke="#999999" points="420,-30 370,-30 370,-11 420,-11 420,-30"/>
<text text-anchor="middle" x="395" y="-18" font-family="Helvetica,sans-Serif" font-size="10.00">cstdint</text>
</a>
</g>
</g>
<!-- Node4&#45;&gt;Node10 -->
<g id="edge9_Node000004_Node000010" class="edge">
<title>Node4&#45;&gt;Node10</title>
<g id="a_edge9_Node000004_Node000010"><a xlink:title=" ">
<path fill="none" stroke="#63b8ff" d="M764.25,-78.68C761.14,-78.07 758.01,-77.49 755,-77 611.15,-53.45 567.58,-86.21 429,-41 424.51,-39.54 419.96,-37.43 415.71,-35.15"/>
<polygon fill="#63b8ff" stroke="#63b8ff" points="417.41,-32.09 407.02,-30.02 413.85,-38.12 417.41,-32.09"/>
</a>
</g>
</g>
<!-- Node11 -->
<g id="Node000011" class="node">
<title>Node11</title>
<g id="a_Node000011"><a xlink:title=" ">
<polygon fill="#e0e0e0" stroke="#999999" points="488,-30 438,-30 438,-11 488,-11 488,-30"/>
<text text-anchor="middle" x="463" y="-18" font-family="Helvetica,sans-Serif" font-size="10.00">cstring</text>
</a>
</g>
</g>
<!-- Node4&#45;&gt;Node11 -->
<g id="edge10_Node000004_Node000011" class="edge">
<title>Node4&#45;&gt;Node11</title>
<g id="a_edge10_Node000004_Node000011"><a xlink:title=" ">
<path fill="none" stroke="#63b8ff" d="M764.24,-78.77C761.12,-78.14 758,-77.54 755,-77 641.02,-56.66 606.54,-78.48 497,-41 492.73,-39.54 488.38,-37.52 484.29,-35.34"/>
<polygon fill="#63b8ff" stroke="#63b8ff" points="485.77,-32.15 475.37,-30.12 482.23,-38.19 485.77,-32.15"/>
</a>
</g>
</g>
<!-- Node12 -->
<g id="Node000012" class="node">
<title>Node12</title>
<g id="a_Node000012"><a xlink:title=" ">
<polygon fill="#e0e0e0" stroke="#999999" points="555.5,-30 506.5,-30 506.5,-11 555.5,-11 555.5,-30"/>
<text text-anchor="middle" x="531" y="-18" font-family="Helvetica,sans-Serif" font-size="10.00">cuchar</text>
</a>
</g>
</g>
<!-- Node4&#45;&gt;Node12 -->
<g id="edge11_Node000004_Node000012" class="edge">
<title>Node4&#45;&gt;Node12</title>
<g id="a_edge11_Node000004_Node000012"><a xlink:title=" ">
<path fill="none" stroke="#63b8ff" d="M764.21,-78.92C761.1,-78.26 757.99,-77.61 755,-77 670.78,-59.85 645.62,-70.79 565,-41 560.84,-39.46 556.58,-37.44 552.56,-35.28"/>
<polygon fill="#63b8ff" stroke="#63b8ff" points="554.15,-32.15 543.74,-30.16 550.63,-38.21 554.15,-32.15"/>
</a>
</g>
</g>
<!-- Node13 -->
<g id="Node000013" class="node">
<title>Node13</title>
<g id="a_Node000013"><a xlink:title=" ">
<polygon fill="#e0e0e0" stroke="#999999" points="632,-30 574,-30 574,-11 632,-11 632,-30"/>
<text text-anchor="middle" x="603" y="-18" font-family="Helvetica,sans-Serif" font-size="10.00">memory</text>
</a>
</g>
</g>
<!-- Node4&#45;&gt;Node13 -->
<g id="edge12_Node000004_Node000013" class="edge">
<title>Node4&#45;&gt;Node13</title>
<g id="a_edge12_Node000004_Node000013"><a xlink:title=" ">
<path fill="none" stroke="#63b8ff" d="M764.4,-78.68C733.16,-71.07 682.77,-57.61 641,-41 636.42,-39.18 631.65,-36.99 627.11,-34.74"/>
<polygon fill="#63b8ff" stroke="#63b8ff" points="628.71,-31.63 618.22,-30.15 625.5,-37.85 628.71,-31.63"/>
</a>
</g>
</g>
<!-- Node14 -->
<g id="Node000014" class="node">
<title>Node14</title>
<g id="a_Node000014"><a xlink:title=" ">
<polygon fill="#e0e0e0" stroke="#999999" points="694,-30 650,-30 650,-11 694,-11 694,-30"/>
<text text-anchor="middle" x="672" y="-18" font-family="Helvetica,sans-Serif" font-size="10.00">string</text>
</a>
</g>
</g>
<!-- Node4&#45;&gt;Node14 -->
<g id="edge13_Node000004_Node000014" class="edge">
<title>Node4&#45;&gt;Node14</title>
<g id="a_edge13_Node000004_Node000014"><a xlink:title=" ">
<path fill="none" stroke="#63b8ff" d="M774.88,-76.87C756.25,-68.3 727.28,-54.52 703,-41 700,-39.33 696.89,-37.5 693.84,-35.64"/>
<polygon fill="#63b8ff" stroke="#63b8ff" points="695.42,-32.5 685.09,-30.17 691.71,-38.44 695.42,-32.5"/>
</a>
</g>
</g>
<!-- Node15 -->
<g id="Node000015" class="node">
<title>Node15</title>
<g id="a_Node000015"><a xlink:title=" ">
<polygon fill="#e0e0e0" stroke="#999999" points="757.5,-30 712.5,-30 712.5,-11 757.5,-11 757.5,-30"/>
<text text-anchor="middle" x="735" y="-18" font-family="Helvetica,sans-Serif" font-size="10.00">utility</text>
</a>
</g>
</g>
<!-- Node4&#45;&gt;Node15 -->
<g id="edge14_Node000004_Node000015" class="edge">
<title>Node4&#45;&gt;Node15</title>
<g id="a_edge14_Node000004_Node000015"><a xlink:title=" ">
<path fill="none" stroke="#63b8ff" d="M786.04,-76.87C776.86,-66.9 761.54,-50.29 750.08,-37.86"/>
<polygon fill="#63b8ff" stroke="#63b8ff" points="752.56,-35.39 743.21,-30.41 747.41,-40.13 752.56,-35.39"/>
</a>
</g>
</g>
<!-- Node16 -->
<g id="Node000016" class="node">
<title>Node16</title>
<g id="a_Node000016"><a xlink:href="../../dd/d9e/linux_2platform__config_8hpp.html" target="_top" xlink:title="additional linux platform header">
<polygon fill="white" stroke="#666666" points="930.5,-41 775.5,-41 775.5,0 930.5,0 930.5,-41"/>
<text text-anchor="start" x="783.5" y="-29" font-family="Helvetica,sans-Serif" font-size="10.00">/home/runner/work/toygine2</text>
<text text-anchor="start" x="783.5" y="-18" font-family="Helvetica,sans-Serif" font-size="10.00">/toygine2/src/platforms</text>
<text text-anchor="middle" x="853" y="-7" font-family="Helvetica,sans-Serif" font-size="10.00">/linux/platform_config.hpp</text>
</a>
</g>
</g>
<!-- Node4&#45;&gt;Node16 -->
<g id="edge15_Node000004_Node000016" class="edge">
<title>Node4&#45;&gt;Node16</title>
<g id="a_edge15_Node000004_Node000016"><a xlink:title=" ">
<path fill="none" stroke="#63b8ff" d="M801.96,-76.87C808.67,-69.58 818.67,-58.74 828.04,-48.58"/>
<polygon fill="#63b8ff" stroke="#63b8ff" points="830.81,-50.73 835.02,-41.01 825.66,-45.99 830.81,-50.73"/>
</a>
</g>
</g>
<!-- Node17 -->
<g id="Node000017" class="node">
<title>Node17</title>
<g id="a_Node000017"><a xlink:href="../../dd/ded/c__string__view_8hpp.html" target="_top" xlink:title="Non&#45;owning string view class for C&#45;style strings.">
<polygon fill="white" stroke="#666666" points="1077,-30 949,-30 949,-11 1077,-11 1077,-30"/>
<text text-anchor="middle" x="1013" y="-18" font-family="Helvetica,sans-Serif" font-size="10.00">core/c_string_view.hpp</text>
</a>
</g>
</g>
<!-- Node4&#45;&gt;Node17 -->
<g id="edge16_Node000004_Node000017" class="edge">
<title>Node4&#45;&gt;Node17</title>
<g id="a_edge16_Node000004_Node000017"><a xlink:title=" ">
<path fill="none" stroke="#63b8ff" d="M823.54,-76.87C862.34,-65.53 930.6,-45.58 973.72,-32.98"/>
<polygon fill="#63b8ff" stroke="#63b8ff" points="974.97,-36.26 983.58,-30.1 973,-29.54 974.97,-36.26"/>
</a>
</g>
</g>
<!-- Node18 -->
<g id="Node000018" class="node">
<title>Node18</title>
<g id="a_Node000018"><a xlink:href="../../d4/dc0/constexpr__utils_8hpp.html" target="_top" xlink:title="Constexpr utility functions for compile&#45;time operations.">
<polygon fill="white" stroke="#666666" points="1231,-30 1095,-30 1095,-11 1231,-11 1231,-30"/>
<text text-anchor="middle" x="1163" y="-18" font-family="Helvetica,sans-Serif" font-size="10.00">core/constexpr_utils.hpp</text>
</a>
</g>
</g>
<!-- Node4&#45;&gt;Node18 -->
<g id="edge17_Node000004_Node000018" class="edge">
<title>Node4&#45;&gt;Node18</title>
<g id="a_edge17_Node000004_Node000018"><a xlink:title=" ">
<path fill="none" stroke="#63b8ff" d="M823.59,-81.95C876.52,-75.4 990.75,-60.27 1086,-41 1097.81,-38.61 1110.53,-35.58 1122.17,-32.62"/>
<polygon fill="#63b8ff" stroke="#63b8ff" points="1123.26,-35.96 1132.06,-30.06 1121.5,-29.18 1123.26,-35.96"/>
</a>
</g>
</g>
<!-- Node19 -->
<g id="Node000019" class="node">
<title>Node19</title>
<g id="a_Node000019"><a xlink:href="../../d7/d7f/fixed__string_8hpp.html" target="_top" xlink:title="Template string class with fixed&#45;size character buffer.">
<polygon fill="white" stroke="#666666" points="1367,-30 1249,-30 1249,-11 1367,-11 1367,-30"/>
<text text-anchor="middle" x="1308" y="-18" font-family="Helvetica,sans-Serif" font-size="10.00">core/fixed_string.hpp</text>
</a>
</g>
</g>
<!-- Node4&#45;&gt;Node19 -->
<g id="edge18_Node000004_Node000019" class="edge">
<title>Node4&#45;&gt;Node19</title>
<g id="a_edge18_Node000004_Node000019"><a xlink:title=" ">
<path fill="none" stroke="#63b8ff" d="M823.75,-84.38C895.78,-81.27 1085.05,-70.7 1240,-41 1250.79,-38.93 1262.33,-35.93 1272.79,-32.9"/>
<polygon fill="#63b8ff" stroke="#63b8ff" points="1273.86,-36.23 1282.43,-30.01 1271.85,-29.53 1273.86,-36.23"/>
</a>
</g>
</g>
<!-- Node20 -->
<g id="Node000020" class="node">
<title>Node20</title>
<g id="a_Node000020"><a xlink:href="../../dd/d8e/hashes_8hpp.html" target="_top" xlink:title="CRC hash functions.">
<polygon fill="white" stroke="#666666" points="1481,-30 1385,-30 1385,-11 1481,-11 1481,-30"/>
<text text-anchor="middle" x="1433" y="-18" font-family="Helvetica,sans-Serif" font-size="10.00">core/hashes.hpp</text>
</a>
</g>
</g>
<!-- Node4&#45;&gt;Node20 -->
<g id="edge19_Node000004_Node000020" class="edge">
<title>Node4&#45;&gt;Node20</title>
<g id="a_edge19_Node000004_Node000020"><a xlink:title=" ">
<path fill="none" stroke="#63b8ff" d="M823.74,-85.86C910.07,-86.35 1167.81,-83.85 1376,-41 1384.84,-39.18 1394.19,-36.38 1402.71,-33.45"/>
<polygon fill="#63b8ff" stroke="#63b8ff" points="1404.02,-36.7 1412.24,-30.02 1401.65,-30.11 1404.02,-36.7"/>
</a>
</g>
</g>
<!-- Node21 -->
<g id="Node000021" class="node">
<title>Node21</title>
<g id="a_Node000021"><a xlink:href="../../df/d93/utils_8hpp.html" target="_top" xlink:title="Core utility functions for string manipulation, encoding conversion, and number formatting.">
<polygon fill="white" stroke="#666666" points="1582.5,-30 1499.5,-30 1499.5,-11 1582.5,-11 1582.5,-30"/>
<text text-anchor="middle" x="1541" y="-18" font-family="Helvetica,sans-Serif" font-size="10.00">core/utils.hpp</text>
</a>
</g>
</g>
<!-- Node4&#45;&gt;Node21 -->
<g id="edge20_Node000004_Node000021" class="edge">
<title>Node4&#45;&gt;Node21</title>
<g id="a_edge20_Node000004_Node000021"><a xlink:title=" ">
<path fill="none" stroke="#63b8ff" d="M823.7,-84.79C939.39,-81.84 1359.86,-69.35 1490,-41 1497.64,-39.34 1505.65,-36.72 1513.01,-33.94"/>
<polygon fill="#63b8ff" stroke="#63b8ff" points="1514.55,-37.09 1522.52,-30.11 1511.94,-30.59 1514.55,-37.09"/>
</a>
</g>
</g>
<!-- Node22 -->
<g id="Node000022" class="node">
<title>Node22</title>
<g id="a_Node000022"><a xlink:href="../../df/d4a/c__string__view_8inl.html" target="_top" xlink:title="Inline implementations for CStringView class.">
<polygon fill="white" stroke="#666666" points="1723,-30 1601,-30 1601,-11 1723,-11 1723,-30"/>
<text text-anchor="middle" x="1662" y="-18" font-family="Helvetica,sans-Serif" font-size="10.00">core/c_string_view.inl</text>
</a>
</g>
</g>
<!-- Node4&#45;&gt;Node22 -->
<g id="edge21_Node000004_Node000022" class="edge">
<title>Node4&#45;&gt;Node22</title>
<g id="a_edge21_Node000004_Node000022"><a xlink:title=" ">
<path fill="none" stroke="#63b8ff" d="M823.59,-84.71C949.33,-81.2 1439.7,-66.16 1592,-41 1603.44,-39.11 1615.68,-36.07 1626.68,-32.94"/>
<polygon fill="#63b8ff" stroke="#63b8ff" points="1627.77,-36.27 1636.37,-30.07 1625.79,-29.55 1627.77,-36.27"/>
</a>
</g>
</g>
<!-- Node23 -->
<g id="Node000023" class="node">
<title>Node23</title>
<g id="a_Node000023"><a xlink:href="../../dc/d28/constexpr__utils_8inl.html" target="_top" xlink:title="Inline implementations for constexpr utility functions.">
<polygon fill="white" stroke="#666666" points="1871,-30 1741,-30 1741,-11 1871,-11 1871,-30"/>
<text text-anchor="middle" x="1806" y="-18" font-family="Helvetica,sans-Serif" font-size="10.00">core/constexpr_utils.inl</text>
</a>
</g>
</g>
<!-- Node4&#45;&gt;Node23 -->
<g id="edge22_Node000004_Node000023" class="edge">
<title>Node4&#45;&gt;Node23</title>
<g id="a_edge22_Node000004_Node000023"><a xlink:title=" ">
<path fill="none" stroke="#63b8ff" d="M823.96,-84.93C963.51,-82.12 1550.72,-68.87 1732,-41 1744.29,-39.11 1757.48,-36 1769.28,-32.81"/>
<polygon fill="#63b8ff" stroke="#63b8ff" points="1770.54,-36.09 1779.22,-30.01 1768.65,-29.35 1770.54,-36.09"/>
</a>
</g>
</g>
<!-- Node24 -->
<g id="Node000024" class="node">
<title>Node24</title>
<g id="a_Node000024"><a xlink:href="../../d7/d40/fixed__string_8inl.html" target="_top" xlink:title="Inline implementations for FixedString template class.">
<polygon fill="white" stroke="#666666" points="2001,-30 1889,-30 1889,-11 2001,-11 2001,-30"/>
<text text-anchor="middle" x="1945" y="-18" font-family="Helvetica,sans-Serif" font-size="10.00">core/fixed_string.inl</text>
</a>
</g>
</g>
<!-- Node4&#45;&gt;Node24 -->
<g id="edge23_Node000004_Node000024" class="edge">
<title>Node4&#45;&gt;Node24</title>
<g id="a_edge23_Node000004_Node000024"><a xlink:title=" ">
<path fill="none" stroke="#63b8ff" d="M823.51,-85.29C975.21,-84.05 1668.31,-76.51 1880,-41 1890.54,-39.23 1901.78,-36.27 1911.89,-33.17"/>
<polygon fill="#63b8ff" stroke="#63b8ff" points="1913.11,-36.46 1921.57,-30.08 1910.97,-29.79 1913.11,-36.46"/>
</a>
</g>
</g>
<!-- Node25 -->
<g id="Node000025" class="node">
<title>Node25</title>
<g id="a_Node000025"><a xlink:href="../../df/d7d/utils_8inl.html" target="_top" xlink:title="Inline implementations of core utility functions for string manipulation and encoding conversion.">
<polygon fill="white" stroke="#666666" points="2096.5,-30 2019.5,-30 2019.5,-11 2096.5,-11 2096.5,-30"/>
<text text-anchor="middle" x="2058" y="-18" font-family="Helvetica,sans-Serif" font-size="10.00">core/utils.inl</text>
</a>
</g>
</g>
<!-- Node4&#45;&gt;Node25 -->
<g id="edge24_Node000004_Node000025" class="edge">
<title>Node4&#45;&gt;Node25</title>
<g id="a_edge24_Node000004_Node000025"><a xlink:title=" ">
<path fill="none" stroke="#63b8ff" d="M823.68,-85.03C998.54,-82.19 1890.84,-66.55 2010,-41 2017.21,-39.45 2024.72,-36.9 2031.61,-34.14"/>
<polygon fill="#63b8ff" stroke="#63b8ff" points="2033.33,-37.21 2041.13,-30.04 2030.56,-30.78 2033.33,-37.21"/>
</a>
</g>
</g>
<!-- Node27 -->
<g id="Node000027" class="node">
<title>Node27</title>
<g id="a_Node000027"><a xlink:title=" ">
<polygon fill="#e0e0e0" stroke="#999999" points="2183.5,-30 2114.5,-30 2114.5,-11 2183.5,-11 2183.5,-30"/>
<text text-anchor="middle" x="2149" y="-18" font-family="Helvetica,sans-Serif" font-size="10.00">type_traits</text>
</a>
</g>
</g>
<!-- Node26&#45;&gt;Node27 -->
<g id="edge26_Node000026_Node000027" class="edge">
<title>Node26&#45;&gt;Node27</title>
<g id="a_edge26_Node000026_Node000027"><a xlink:title=" ">
<path fill="none" stroke="#63b8ff" d="M1595.84,-83.8C1712.67,-79.32 2010.02,-65.78 2106,-41 2112.1,-39.42 2118.42,-37.04 2124.27,-34.47"/>
<polygon fill="#63b8ff" stroke="#63b8ff" points="2126,-37.52 2133.55,-30.08 2123.01,-31.19 2126,-37.52"/>
</a>
</g>
</g>
</g>
</svg>
