<?xml version="1.0" encoding="UTF-8" standalone="no"?>
<!DOCTYPE svg PUBLIC "-//W3C//DTD SVG 1.1//EN"
 "http://www.w3.org/Graphics/SVG/1.1/DTD/svg11.dtd">
<!-- Generated by graphviz version 2.43.0 (0)
 -->
<!-- Title: src/core/utils.cpp Pages: 1 -->
<svg width="1529pt" height="159pt"
 viewBox="0.00 0.00 1528.50 159.00" xmlns="http://www.w3.org/2000/svg" xmlns:xlink="http://www.w3.org/1999/xlink">
<g id="graph0" class="graph" transform="scale(1 1) rotate(0) translate(4 155)">
<title>src/core/utils.cpp</title>
<!-- Node1 -->
<g id="Node000001" class="node">
<title>Node1</title>
<g id="a_Node000001"><a xlink:title=" ">
<polygon fill="#999999" stroke="#666666" points="562.5,-151 463.5,-151 463.5,-132 562.5,-132 562.5,-151"/>
<text text-anchor="middle" x="513" y="-139" font-family="Helvetica,sans-Serif" font-size="10.00">src/core/utils.cpp</text>
</a>
</g>
</g>
<!-- Node2 -->
<g id="Node000002" class="node">
<title>Node2</title>
<g id="a_Node000002"><a xlink:title=" ">
<polygon fill="#e0e0e0" stroke="#999999" points="436.5,-96 407.5,-96 407.5,-77 436.5,-77 436.5,-96"/>
<text text-anchor="middle" x="422" y="-84" font-family="Helvetica,sans-Serif" font-size="10.00">bit</text>
</a>
</g>
</g>
<!-- Node1&#45;&gt;Node2 -->
<g id="edge1_Node000001_Node000002" class="edge">
<title>Node1&#45;&gt;Node2</title>
<g id="a_edge1_Node000001_Node000002"><a xlink:title=" ">
<path fill="none" stroke="#63b8ff" d="M498.38,-131.98C484.05,-123.64 461.99,-110.79 445.25,-101.04"/>
<polygon fill="#63b8ff" stroke="#63b8ff" points="446.99,-98 436.58,-95.99 443.46,-104.05 446.99,-98"/>
</a>
</g>
</g>
<!-- Node3 -->
<g id="Node000003" class="node">
<title>Node3</title>
<g id="a_Node000003"><a xlink:title=" ">
<polygon fill="#e0e0e0" stroke="#999999" points="501.5,-96 454.5,-96 454.5,-77 501.5,-77 501.5,-96"/>
<text text-anchor="middle" x="478" y="-84" font-family="Helvetica,sans-Serif" font-size="10.00">cmath</text>
</a>
</g>
</g>
<!-- Node1&#45;&gt;Node3 -->
<g id="edge2_Node000001_Node000003" class="edge">
<title>Node1&#45;&gt;Node3</title>
<g id="a_edge2_Node000001_Node000003"><a xlink:title=" ">
<path fill="none" stroke="#63b8ff" d="M507.22,-131.75C502.38,-124.42 495.32,-113.73 489.36,-104.7"/>
<polygon fill="#63b8ff" stroke="#63b8ff" points="492.1,-102.5 483.67,-96.09 486.26,-106.36 492.1,-102.5"/>
</a>
</g>
</g>
<!-- Node4 -->
<g id="Node000004" class="node">
<title>Node4</title>
<g id="a_Node000004"><a xlink:href="../../da/d47/core_8hpp.html" target="_top" xlink:title=" ">
<polygon fill="white" stroke="#666666" points="578.5,-96 519.5,-96 519.5,-77 578.5,-77 578.5,-96"/>
<text text-anchor="middle" x="549" y="-84" font-family="Helvetica,sans-Serif" font-size="10.00">core.hpp</text>
</a>
</g>
</g>
<!-- Node1&#45;&gt;Node4 -->
<g id="edge3_Node000001_Node000004" class="edge">
<title>Node1&#45;&gt;Node4</title>
<g id="a_edge3_Node000001_Node000004"><a xlink:title=" ">
<path fill="none" stroke="#63b8ff" d="M518.94,-131.75C523.98,-124.34 531.34,-113.5 537.51,-104.41"/>
<polygon fill="#63b8ff" stroke="#63b8ff" points="540.44,-106.33 543.17,-96.09 534.65,-102.39 540.44,-106.33"/>
</a>
</g>
</g>
<!-- Node21 -->
<g id="Node000021" class="node">
<title>Node21</title>
<g id="a_Node000021"><a xlink:title=" ">
<polygon fill="#e0e0e0" stroke="#999999" points="691.5,-96 596.5,-96 596.5,-77 691.5,-77 691.5,-96"/>
<text text-anchor="middle" x="644" y="-84" font-family="Helvetica,sans-Serif" font-size="10.00">utils_internal.inl</text>
</a>
</g>
</g>
<!-- Node1&#45;&gt;Node21 -->
<g id="edge20_Node000001_Node000021" class="edge">
<title>Node1&#45;&gt;Node21</title>
<g id="a_edge20_Node000001_Node000021"><a xlink:title=" ">
<path fill="none" stroke="#63b8ff" d="M534.05,-131.98C555.41,-123.34 588.7,-109.87 613.06,-100.02"/>
<polygon fill="#63b8ff" stroke="#63b8ff" points="614.61,-103.17 622.57,-96.17 611.99,-96.68 614.61,-103.17"/>
</a>
</g>
</g>
<!-- Node5 -->
<g id="Node000005" class="node">
<title>Node5</title>
<g id="a_Node000005"><a xlink:title=" ">
<polygon fill="#e0e0e0" stroke="#999999" points="64,-30 0,-30 0,-11 64,-11 64,-30"/>
<text text-anchor="middle" x="32" y="-18" font-family="Helvetica,sans-Serif" font-size="10.00">algorithm</text>
</a>
</g>
</g>
<!-- Node4&#45;&gt;Node5 -->
<g id="edge4_Node000004_Node000005" class="edge">
<title>Node4&#45;&gt;Node5</title>
<g id="a_edge4_Node000004_Node000005"><a xlink:title=" ">
<path fill="none" stroke="#63b8ff" d="M519.26,-78.59C516.15,-78 513.02,-77.45 510,-77 317.26,-48.19 261.18,-91.68 73,-41 67.29,-39.46 61.41,-37.15 55.94,-34.65"/>
<polygon fill="#63b8ff" stroke="#63b8ff" points="57.2,-31.37 46.69,-30.08 54.1,-37.65 57.2,-31.37"/>
</a>
</g>
</g>
<!-- Node6 -->
<g id="Node000006" class="node">
<title>Node6</title>
<g id="a_Node000006"><a xlink:title=" ">
<polygon fill="#e0e0e0" stroke="#999999" points="124,-30 82,-30 82,-11 124,-11 124,-30"/>
<text text-anchor="middle" x="103" y="-18" font-family="Helvetica,sans-Serif" font-size="10.00">array</text>
</a>
</g>
</g>
<!-- Node4&#45;&gt;Node6 -->
<g id="edge5_Node000004_Node000006" class="edge">
<title>Node4&#45;&gt;Node6</title>
<g id="a_edge5_Node000004_Node000006"><a xlink:title=" ">
<path fill="none" stroke="#63b8ff" d="M519.26,-78.63C516.14,-78.03 513.01,-77.47 510,-77 343.7,-51.03 291.92,-96.46 133,-41 129.26,-39.7 125.52,-37.83 122.02,-35.77"/>
<polygon fill="#63b8ff" stroke="#63b8ff" points="123.71,-32.69 113.45,-30.08 119.85,-38.53 123.71,-32.69"/>
</a>
</g>
</g>
<!-- Node7 -->
<g id="Node000007" class="node">
<title>Node7</title>
<g id="a_Node000007"><a xlink:title=" ">
<polygon fill="#e0e0e0" stroke="#999999" points="202,-30 142,-30 142,-11 202,-11 202,-30"/>
<text text-anchor="middle" x="172" y="-18" font-family="Helvetica,sans-Serif" font-size="10.00">concepts</text>
</a>
</g>
</g>
<!-- Node4&#45;&gt;Node7 -->
<g id="edge6_Node000004_Node000007" class="edge">
<title>Node4&#45;&gt;Node7</title>
<g id="a_edge6_Node000004_Node000007"><a xlink:title=" ">
<path fill="none" stroke="#63b8ff" d="M519.25,-78.71C516.13,-78.09 513.01,-77.51 510,-77 378.02,-54.72 339.19,-79.5 211,-41 205.79,-39.43 200.43,-37.21 195.41,-34.82"/>
<polygon fill="#63b8ff" stroke="#63b8ff" points="196.82,-31.61 186.32,-30.15 193.62,-37.83 196.82,-31.61"/>
</a>
</g>
</g>
<!-- Node8 -->
<g id="Node000008" class="node">
<title>Node8</title>
<g id="a_Node000008"><a xlink:title=" ">
<polygon fill="#e0e0e0" stroke="#999999" points="273.5,-30 220.5,-30 220.5,-11 273.5,-11 273.5,-30"/>
<text text-anchor="middle" x="247" y="-18" font-family="Helvetica,sans-Serif" font-size="10.00">cstddef</text>
</a>
</g>
</g>
<!-- Node4&#45;&gt;Node8 -->
<g id="edge7_Node000004_Node000008" class="edge">
<title>Node4&#45;&gt;Node8</title>
<g id="a_edge7_Node000004_Node000008"><a xlink:title=" ">
<path fill="none" stroke="#63b8ff" d="M519.23,-78.83C516.12,-78.18 513,-77.56 510,-77 409.61,-58.12 379.74,-73.8 283,-41 278.41,-39.44 273.71,-37.33 269.28,-35.07"/>
<polygon fill="#63b8ff" stroke="#63b8ff" points="270.63,-31.82 260.18,-30.04 267.24,-37.94 270.63,-31.82"/>
</a>
</g>
</g>
<!-- Node9 -->
<g id="Node000009" class="node">
<title>Node9</title>
<g id="a_Node000009"><a xlink:title=" ">
<polygon fill="#e0e0e0" stroke="#999999" points="342,-30 292,-30 292,-11 342,-11 342,-30"/>
<text text-anchor="middle" x="317" y="-18" font-family="Helvetica,sans-Serif" font-size="10.00">cstdint</text>
</a>
</g>
</g>
<!-- Node4&#45;&gt;Node9 -->
<g id="edge8_Node000004_Node000009" class="edge">
<title>Node4&#45;&gt;Node9</title>
<g id="a_edge8_Node000004_Node000009"><a xlink:title=" ">
<path fill="none" stroke="#63b8ff" d="M519.23,-78.93C464.92,-66.92 354.95,-42.54 351,-41 346.86,-39.39 342.62,-37.33 338.61,-35.16"/>
<polygon fill="#63b8ff" stroke="#63b8ff" points="340.19,-32.04 329.78,-30.05 336.68,-38.09 340.19,-32.04"/>
</a>
</g>
</g>
<!-- Node10 -->
<g id="Node000010" class="node">
<title>Node10</title>
<g id="a_Node000010"><a xlink:title=" ">
<polygon fill="#e0e0e0" stroke="#999999" points="410,-30 360,-30 360,-11 410,-11 410,-30"/>
<text text-anchor="middle" x="385" y="-18" font-family="Helvetica,sans-Serif" font-size="10.00">cstring</text>
</a>
</g>
</g>
<!-- Node4&#45;&gt;Node10 -->
<g id="edge9_Node000004_Node000010" class="edge">
<title>Node4&#45;&gt;Node10</title>
<g id="a_edge9_Node000004_Node000010"><a xlink:title=" ">
<path fill="none" stroke="#63b8ff" d="M519.47,-77.15C492.71,-69.18 452.46,-56.16 419,-41 415.2,-39.28 411.28,-37.27 407.5,-35.2"/>
<polygon fill="#63b8ff" stroke="#63b8ff" points="409,-32.02 398.58,-30.08 405.51,-38.1 409,-32.02"/>
</a>
</g>
</g>
<!-- Node11 -->
<g id="Node000011" class="node">
<title>Node11</title>
<g id="a_Node000011"><a xlink:title=" ">
<polygon fill="#e0e0e0" stroke="#999999" points="477.5,-30 428.5,-30 428.5,-11 477.5,-11 477.5,-30"/>
<text text-anchor="middle" x="453" y="-18" font-family="Helvetica,sans-Serif" font-size="10.00">cuchar</text>
</a>
</g>
</g>
<!-- Node4&#45;&gt;Node11 -->
<g id="edge10_Node000004_Node000011" class="edge">
<title>Node4&#45;&gt;Node11</title>
<g id="a_edge10_Node000004_Node000011"><a xlink:title=" ">
<path fill="none" stroke="#63b8ff" d="M536.05,-76.87C520.31,-66.37 493.5,-48.5 474.6,-35.9"/>
<polygon fill="#63b8ff" stroke="#63b8ff" points="476.31,-32.83 466.05,-30.2 472.43,-38.66 476.31,-32.83"/>
</a>
</g>
</g>
<!-- Node12 -->
<g id="Node000012" class="node">
<title>Node12</title>
<g id="a_Node000012"><a xlink:title=" ">
<polygon fill="#e0e0e0" stroke="#999999" points="540,-30 496,-30 496,-11 540,-11 540,-30"/>
<text text-anchor="middle" x="518" y="-18" font-family="Helvetica,sans-Serif" font-size="10.00">string</text>
</a>
</g>
</g>
<!-- Node4&#45;&gt;Node12 -->
<g id="edge11_Node000004_Node000012" class="edge">
<title>Node4&#45;&gt;Node12</title>
<g id="a_edge11_Node000004_Node000012"><a xlink:title=" ">
<path fill="none" stroke="#63b8ff" d="M544.82,-76.87C540.22,-67.38 532.71,-51.86 526.8,-39.66"/>
<polygon fill="#63b8ff" stroke="#63b8ff" points="529.82,-37.88 522.31,-30.41 523.52,-40.93 529.82,-37.88"/>
</a>
</g>
</g>
<!-- Node13 -->
<g id="Node000013" class="node">
<title>Node13</title>
<g id="a_Node000013"><a xlink:title=" ">
<polygon fill="#e0e0e0" stroke="#999999" points="603.5,-30 558.5,-30 558.5,-11 603.5,-11 603.5,-30"/>
<text text-anchor="middle" x="581" y="-18" font-family="Helvetica,sans-Serif" font-size="10.00">utility</text>
</a>
</g>
</g>
<!-- Node4&#45;&gt;Node13 -->
<g id="edge12_Node000004_Node000013" class="edge">
<title>Node4&#45;&gt;Node13</title>
<g id="a_edge12_Node000004_Node000013"><a xlink:title=" ">
<path fill="none" stroke="#63b8ff" d="M553.32,-76.87C558.06,-67.38 565.82,-51.86 571.92,-39.66"/>
<polygon fill="#63b8ff" stroke="#63b8ff" points="575.21,-40.91 576.55,-30.41 568.94,-37.78 575.21,-40.91"/>
</a>
</g>
</g>
<!-- Node14 -->
<g id="Node000014" class="node">
<title>Node14</title>
<g id="a_Node000014"><a xlink:href="../../dd/d9e/linux_2platform__config_8hpp.html" target="_top" xlink:title="additional linux platform header">
<polygon fill="white" stroke="#666666" points="776.5,-41 621.5,-41 621.5,0 776.5,0 776.5,-41"/>
<text text-anchor="start" x="629.5" y="-29" font-family="Helvetica,sans-Serif" font-size="10.00">/home/runner/work/toygine2</text>
<text text-anchor="start" x="629.5" y="-18" font-family="Helvetica,sans-Serif" font-size="10.00">/toygine2/src/platforms</text>
<text text-anchor="middle" x="699" y="-7" font-family="Helvetica,sans-Serif" font-size="10.00">/linux/platform_config.hpp</text>
</a>
</g>
</g>
<!-- Node4&#45;&gt;Node14 -->
<g id="edge13_Node000004_Node000014" class="edge">
<title>Node4&#45;&gt;Node14</title>
<g id="a_edge13_Node000004_Node000014"><a xlink:title=" ">
<path fill="none" stroke="#63b8ff" d="M569.23,-76.87C588.32,-68.72 617.81,-56.14 643.86,-45.03"/>
<polygon fill="#63b8ff" stroke="#63b8ff" points="645.45,-48.15 653.28,-41.01 642.7,-41.71 645.45,-48.15"/>
</a>
</g>
</g>
<!-- Node15 -->
<g id="Node000015" class="node">
<title>Node15</title>
<g id="a_Node000015"><a xlink:href="../../d4/dc0/constexpr__utils_8hpp.html" target="_top" xlink:title="Constexpr utility functions for compile&#45;time operations.">
<polygon fill="white" stroke="#666666" points="931,-30 795,-30 795,-11 931,-11 931,-30"/>
<text text-anchor="middle" x="863" y="-18" font-family="Helvetica,sans-Serif" font-size="10.00">core/constexpr_utils.hpp</text>
</a>
</g>
</g>
<!-- Node4&#45;&gt;Node15 -->
<g id="edge14_Node000004_Node000015" class="edge">
<title>Node4&#45;&gt;Node15</title>
<g id="a_edge14_Node000004_Node000015"><a xlink:title=" ">
<path fill="none" stroke="#63b8ff" d="M578.79,-78.9C581.9,-78.24 585.01,-77.6 588,-77 675.71,-59.47 698.6,-59.99 786,-41 797.57,-38.49 810.04,-35.47 821.5,-32.56"/>
<polygon fill="#63b8ff" stroke="#63b8ff" points="822.46,-35.93 831.27,-30.05 820.72,-29.15 822.46,-35.93"/>
</a>
</g>
</g>
<!-- Node16 -->
<g id="Node000016" class="node">
<title>Node16</title>
<g id="a_Node000016"><a xlink:href="../../d0/d46/fix__string_8hpp.html" target="_top" xlink:title="Template string class with fixed&#45;size character buffer.">
<polygon fill="white" stroke="#666666" points="1056.5,-30 949.5,-30 949.5,-11 1056.5,-11 1056.5,-30"/>
<text text-anchor="middle" x="1003" y="-18" font-family="Helvetica,sans-Serif" font-size="10.00">core/fix_string.hpp</text>
</a>
</g>
</g>
<!-- Node4&#45;&gt;Node16 -->
<g id="edge15_Node000004_Node000016" class="edge">
<title>Node4&#45;&gt;Node16</title>
<g id="a_edge15_Node000004_Node000016"><a xlink:title=" ">
<path fill="none" stroke="#63b8ff" d="M578.74,-78.66C581.86,-78.05 584.99,-77.48 588,-77 743.3,-52.22 785.91,-72.4 940,-41 949.83,-39 960.3,-36.08 969.83,-33.11"/>
<polygon fill="#63b8ff" stroke="#63b8ff" points="970.92,-36.44 979.36,-30.04 968.77,-29.78 970.92,-36.44"/>
</a>
</g>
</g>
<!-- Node17 -->
<g id="Node000017" class="node">
<title>Node17</title>
<g id="a_Node000017"><a xlink:href="../../df/d93/utils_8hpp.html" target="_top" xlink:title="Core utility functions for string manipulation, encoding conversion, and number formatting.">
<polygon fill="white" stroke="#666666" points="1157.5,-30 1074.5,-30 1074.5,-11 1157.5,-11 1157.5,-30"/>
<text text-anchor="middle" x="1116" y="-18" font-family="Helvetica,sans-Serif" font-size="10.00">core/utils.hpp</text>
</a>
</g>
</g>
<!-- Node4&#45;&gt;Node17 -->
<g id="edge16_Node000004_Node000017" class="edge">
<title>Node4&#45;&gt;Node17</title>
<g id="a_edge16_Node000004_Node000017"><a xlink:title=" ">
<path fill="none" stroke="#63b8ff" d="M578.73,-78.57C581.85,-77.98 584.98,-77.44 588,-77 798.81,-46.24 858.25,-88.22 1066,-41 1073.5,-39.3 1081.35,-36.67 1088.56,-33.88"/>
<polygon fill="#63b8ff" stroke="#63b8ff" points="1089.96,-37.09 1097.89,-30.06 1087.31,-30.61 1089.96,-37.09"/>
</a>
</g>
</g>
<!-- Node18 -->
<g id="Node000018" class="node">
<title>Node18</title>
<g id="a_Node000018"><a xlink:title=" ">
<polygon fill="#e0e0e0" stroke="#999999" points="1306,-30 1176,-30 1176,-11 1306,-11 1306,-30"/>
<text text-anchor="middle" x="1241" y="-18" font-family="Helvetica,sans-Serif" font-size="10.00">core/constexpr_utils.inl</text>
</a>
</g>
</g>
<!-- Node4&#45;&gt;Node18 -->
<g id="edge17_Node000004_Node000018" class="edge">
<title>Node4&#45;&gt;Node18</title>
<g id="a_edge17_Node000004_Node000018"><a xlink:title=" ">
<path fill="none" stroke="#63b8ff" d="M578.73,-78.53C581.85,-77.95 584.98,-77.42 588,-77 843.37,-41.44 912.46,-82.05 1167,-41 1179.17,-39.04 1192.25,-35.93 1203.97,-32.78"/>
<polygon fill="#63b8ff" stroke="#63b8ff" points="1205.17,-36.07 1213.86,-30.01 1203.29,-29.33 1205.17,-36.07"/>
</a>
</g>
</g>
<!-- Node19 -->
<g id="Node000019" class="node">
<title>Node19</title>
<g id="a_Node000019"><a xlink:title=" ">
<polygon fill="#e0e0e0" stroke="#999999" points="1425.5,-30 1324.5,-30 1324.5,-11 1425.5,-11 1425.5,-30"/>
<text text-anchor="middle" x="1375" y="-18" font-family="Helvetica,sans-Serif" font-size="10.00">core/fix_string.inl</text>
</a>
</g>
</g>
<!-- Node4&#45;&gt;Node19 -->
<g id="edge18_Node000004_Node000019" class="edge">
<title>Node4&#45;&gt;Node19</title>
<g id="a_edge18_Node000004_Node000019"><a xlink:title=" ">
<path fill="none" stroke="#63b8ff" d="M578.72,-78.49C581.84,-77.92 584.98,-77.4 588,-77 908.69,-34.41 996.83,-99.51 1315,-41 1324.57,-39.24 1334.73,-36.35 1343.91,-33.33"/>
<polygon fill="#63b8ff" stroke="#63b8ff" points="1345.11,-36.62 1353.42,-30.05 1342.82,-30 1345.11,-36.62"/>
</a>
</g>
</g>
<!-- Node20 -->
<g id="Node000020" class="node">
<title>Node20</title>
<g id="a_Node000020"><a xlink:title=" ">
<polygon fill="#e0e0e0" stroke="#999999" points="1520.5,-30 1443.5,-30 1443.5,-11 1520.5,-11 1520.5,-30"/>
<text text-anchor="middle" x="1482" y="-18" font-family="Helvetica,sans-Serif" font-size="10.00">core/utils.inl</text>
</a>
</g>
</g>
<!-- Node4&#45;&gt;Node20 -->
<g id="edge19_Node000004_Node000020" class="edge">
<title>Node4&#45;&gt;Node20</title>
<g id="a_edge19_Node000004_Node000020"><a xlink:title=" ">
<path fill="none" stroke="#63b8ff" d="M578.72,-78.47C581.84,-77.9 584.98,-77.39 588,-77 961.68,-28.7 1067.12,-122.45 1435,-41 1442.07,-39.43 1449.43,-36.87 1456.17,-34.11"/>
<polygon fill="#63b8ff" stroke="#63b8ff" points="1457.75,-37.24 1465.5,-30.02 1454.93,-30.83 1457.75,-37.24"/>
</a>
</g>
</g>
</g>
</svg>
