<?xml version="1.0" encoding="UTF-8" standalone="no"?>
<!DOCTYPE svg PUBLIC "-//W3C//DTD SVG 1.1//EN"
 "http://www.w3.org/Graphics/SVG/1.1/DTD/svg11.dtd">
<!-- Generated by graphviz version 2.43.0 (0)
 -->
<!-- Title: src/core/utils.cpp Pages: 1 -->
<svg width="4717pt" height="280pt"
 viewBox="0.00 0.00 4716.50 280.00" xmlns="http://www.w3.org/2000/svg" xmlns:xlink="http://www.w3.org/1999/xlink">
<g id="graph0" class="graph" transform="scale(1 1) rotate(0) translate(4 276)">
<title>src/core/utils.cpp</title>
<!-- Node1 -->
<g id="Node000001" class="node">
<title>Node1</title>
<g id="a_Node000001"><a xlink:title="Definitions for string, encoding, and number utilities declared in core/utils.hpp.">
<polygon fill="#999999" stroke="#666666" points="1875.5,-272 1776.5,-272 1776.5,-253 1875.5,-253 1875.5,-272"/>
<text text-anchor="middle" x="1826" y="-260" font-family="Helvetica,sans-Serif" font-size="10.00">src/core/utils.cpp</text>
</a>
</g>
</g>
<!-- Node2 -->
<g id="Node000002" class="node">
<title>Node2</title>
<g id="a_Node000002"><a xlink:href="../../da/d47/core_8hpp.html" target="_top" xlink:title="Umbrella header for the engine core module.">
<polygon fill="white" stroke="#666666" points="1855.5,-217 1796.5,-217 1796.5,-198 1855.5,-198 1855.5,-217"/>
<text text-anchor="middle" x="1826" y="-205" font-family="Helvetica,sans-Serif" font-size="10.00">core.hpp</text>
</a>
</g>
</g>
<!-- Node1&#45;&gt;Node2 -->
<g id="edge1_Node000001_Node000002" class="edge">
<title>Node1&#45;&gt;Node2</title>
<g id="a_edge1_Node000001_Node000002"><a xlink:title=" ">
<path fill="none" stroke="#63b8ff" d="M1826,-252.75C1826,-245.8 1826,-235.85 1826,-227.13"/>
<polygon fill="#63b8ff" stroke="#63b8ff" points="1829.5,-227.09 1826,-217.09 1822.5,-227.09 1829.5,-227.09"/>
</a>
</g>
</g>
<!-- Node3 -->
<g id="Node000003" class="node">
<title>Node3</title>
<g id="a_Node000003"><a xlink:title=" ">
<polygon fill="#e0e0e0" stroke="#999999" points="64,-151 0,-151 0,-132 64,-132 64,-151"/>
<text text-anchor="middle" x="32" y="-139" font-family="Helvetica,sans-Serif" font-size="10.00">algorithm</text>
</a>
</g>
</g>
<!-- Node2&#45;&gt;Node3 -->
<g id="edge2_Node000002_Node000003" class="edge">
<title>Node2&#45;&gt;Node3</title>
<g id="a_edge2_Node000002_Node000003"><a xlink:title=" ">
<path fill="none" stroke="#63b8ff" d="M1796.4,-206.49C1580.15,-206.32 247.05,-203.61 73,-162 67.01,-160.57 60.85,-158.19 55.19,-155.58"/>
<polygon fill="#63b8ff" stroke="#63b8ff" points="56.76,-152.45 46.25,-151.1 53.62,-158.71 56.76,-152.45"/>
</a>
</g>
</g>
<!-- Node4 -->
<g id="Node000004" class="node">
<title>Node4</title>
<g id="a_Node000004"><a xlink:title=" ">
<polygon fill="#e0e0e0" stroke="#999999" points="124,-151 82,-151 82,-132 124,-132 124,-151"/>
<text text-anchor="middle" x="103" y="-139" font-family="Helvetica,sans-Serif" font-size="10.00">array</text>
</a>
</g>
</g>
<!-- Node2&#45;&gt;Node4 -->
<g id="edge3_Node000002_Node000004" class="edge">
<title>Node2&#45;&gt;Node4</title>
<g id="a_edge3_Node000002_Node000004"><a xlink:title=" ">
<path fill="none" stroke="#63b8ff" d="M1796.35,-206.69C1583.96,-207.92 297.78,-213.21 133,-162 129.04,-160.77 125.11,-158.86 121.46,-156.7"/>
<polygon fill="#63b8ff" stroke="#63b8ff" points="123.36,-153.76 113.11,-151.09 119.45,-159.57 123.36,-153.76"/>
</a>
</g>
</g>
<!-- Node5 -->
<g id="Node000005" class="node">
<title>Node5</title>
<g id="a_Node000005"><a xlink:title=" ">
<polygon fill="#e0e0e0" stroke="#999999" points="171.5,-151 142.5,-151 142.5,-132 171.5,-132 171.5,-151"/>
<text text-anchor="middle" x="157" y="-139" font-family="Helvetica,sans-Serif" font-size="10.00">bit</text>
</a>
</g>
</g>
<!-- Node2&#45;&gt;Node5 -->
<g id="edge4_Node000002_Node000005" class="edge">
<title>Node2&#45;&gt;Node5</title>
<g id="a_edge4_Node000002_Node000005"><a xlink:title=" ">
<path fill="none" stroke="#63b8ff" d="M1796.17,-206.26C1579.9,-204.42 258.44,-191.98 180,-162 177.43,-161.02 174.95,-159.62 172.63,-158.02"/>
<polygon fill="#63b8ff" stroke="#63b8ff" points="174.51,-155.03 164.61,-151.26 170,-160.38 174.51,-155.03"/>
</a>
</g>
</g>
<!-- Node6 -->
<g id="Node000006" class="node">
<title>Node6</title>
<g id="a_Node000006"><a xlink:title=" ">
<polygon fill="#e0e0e0" stroke="#999999" points="236.5,-151 189.5,-151 189.5,-132 236.5,-132 236.5,-151"/>
<text text-anchor="middle" x="213" y="-139" font-family="Helvetica,sans-Serif" font-size="10.00">cmath</text>
</a>
</g>
</g>
<!-- Node2&#45;&gt;Node6 -->
<g id="edge5_Node000002_Node000006" class="edge">
<title>Node2&#45;&gt;Node6</title>
<g id="a_edge5_Node000002_Node000006"><a xlink:title=" ">
<path fill="none" stroke="#63b8ff" d="M1796.39,-206.58C1592.42,-207.01 399.03,-207.58 245,-162 240.72,-160.73 236.43,-158.74 232.45,-156.51"/>
<polygon fill="#63b8ff" stroke="#63b8ff" points="234.19,-153.47 223.87,-151.08 230.45,-159.39 234.19,-153.47"/>
</a>
</g>
</g>
<!-- Node7 -->
<g id="Node000007" class="node">
<title>Node7</title>
<g id="a_Node000007"><a xlink:title=" ">
<polygon fill="#e0e0e0" stroke="#999999" points="313.5,-151 254.5,-151 254.5,-132 313.5,-132 313.5,-151"/>
<text text-anchor="middle" x="284" y="-139" font-family="Helvetica,sans-Serif" font-size="10.00">compare</text>
</a>
</g>
</g>
<!-- Node2&#45;&gt;Node7 -->
<g id="edge6_Node000002_Node000007" class="edge">
<title>Node2&#45;&gt;Node7</title>
<g id="a_edge6_Node000002_Node000007"><a xlink:title=" ">
<path fill="none" stroke="#63b8ff" d="M1796.32,-206.39C1598.18,-205.55 470.7,-199.18 323,-162 317.4,-160.59 311.68,-158.29 306.4,-155.76"/>
<polygon fill="#63b8ff" stroke="#63b8ff" points="307.99,-152.64 297.51,-151.08 304.73,-158.83 307.99,-152.64"/>
</a>
</g>
</g>
<!-- Node8 -->
<g id="Node000008" class="node">
<title>Node8</title>
<g id="a_Node000008"><a xlink:title=" ">
<polygon fill="#e0e0e0" stroke="#999999" points="392,-151 332,-151 332,-132 392,-132 392,-151"/>
<text text-anchor="middle" x="362" y="-139" font-family="Helvetica,sans-Serif" font-size="10.00">concepts</text>
</a>
</g>
</g>
<!-- Node2&#45;&gt;Node8 -->
<g id="edge7_Node000002_Node000008" class="edge">
<title>Node2&#45;&gt;Node8</title>
<g id="a_edge7_Node000002_Node000008"><a xlink:title=" ">
<path fill="none" stroke="#63b8ff" d="M1796.33,-206.34C1604.28,-205.19 540.64,-197.27 401,-162 395.4,-160.59 389.68,-158.28 384.4,-155.75"/>
<polygon fill="#63b8ff" stroke="#63b8ff" points="385.99,-152.63 375.51,-151.08 382.73,-158.83 385.99,-152.63"/>
</a>
</g>
</g>
<!-- Node9 -->
<g id="Node000009" class="node">
<title>Node9</title>
<g id="a_Node000009"><a xlink:title=" ">
<polygon fill="#e0e0e0" stroke="#999999" points="463.5,-151 410.5,-151 410.5,-132 463.5,-132 463.5,-151"/>
<text text-anchor="middle" x="437" y="-139" font-family="Helvetica,sans-Serif" font-size="10.00">cstddef</text>
</a>
</g>
</g>
<!-- Node2&#45;&gt;Node9 -->
<g id="edge8_Node000002_Node000009" class="edge">
<title>Node2&#45;&gt;Node9</title>
<g id="a_edge8_Node000002_Node000009"><a xlink:title=" ">
<path fill="none" stroke="#63b8ff" d="M1796.33,-206.34C1609.96,-205.24 604.64,-197.67 473,-162 468.03,-160.65 462.99,-158.51 458.32,-156.12"/>
<polygon fill="#63b8ff" stroke="#63b8ff" points="459.81,-152.95 449.39,-151.07 456.37,-159.04 459.81,-152.95"/>
</a>
</g>
</g>
<!-- Node10 -->
<g id="Node000010" class="node">
<title>Node10</title>
<g id="a_Node000010"><a xlink:title=" ">
<polygon fill="#e0e0e0" stroke="#999999" points="532,-151 482,-151 482,-132 532,-132 532,-151"/>
<text text-anchor="middle" x="507" y="-139" font-family="Helvetica,sans-Serif" font-size="10.00">cstdint</text>
</a>
</g>
</g>
<!-- Node2&#45;&gt;Node10 -->
<g id="edge9_Node000002_Node000010" class="edge">
<title>Node2&#45;&gt;Node10</title>
<g id="a_edge9_Node000002_Node000010"><a xlink:title=" ">
<path fill="none" stroke="#63b8ff" d="M1796.36,-206.33C1615.59,-205.17 665.24,-197.41 541,-162 536.38,-160.68 531.73,-158.61 527.41,-156.3"/>
<polygon fill="#63b8ff" stroke="#63b8ff" points="529.01,-153.18 518.63,-151.06 525.43,-159.19 529.01,-153.18"/>
</a>
</g>
</g>
<!-- Node11 -->
<g id="Node000011" class="node">
<title>Node11</title>
<g id="a_Node000011"><a xlink:title=" ">
<polygon fill="#e0e0e0" stroke="#999999" points="600,-151 550,-151 550,-132 600,-132 600,-151"/>
<text text-anchor="middle" x="575" y="-139" font-family="Helvetica,sans-Serif" font-size="10.00">cstring</text>
</a>
</g>
</g>
<!-- Node2&#45;&gt;Node11 -->
<g id="edge10_Node000002_Node000011" class="edge">
<title>Node2&#45;&gt;Node11</title>
<g id="a_edge10_Node000002_Node000011"><a xlink:title=" ">
<path fill="none" stroke="#63b8ff" d="M1796.24,-206.27C1620.9,-204.77 726.26,-195.55 609,-162 604.39,-160.68 599.73,-158.61 595.41,-156.3"/>
<polygon fill="#63b8ff" stroke="#63b8ff" points="597.01,-153.18 586.63,-151.06 593.43,-159.19 597.01,-153.18"/>
</a>
</g>
</g>
<!-- Node12 -->
<g id="Node000012" class="node">
<title>Node12</title>
<g id="a_Node000012"><a xlink:title=" ">
<polygon fill="#e0e0e0" stroke="#999999" points="667.5,-151 618.5,-151 618.5,-132 667.5,-132 667.5,-151"/>
<text text-anchor="middle" x="643" y="-139" font-family="Helvetica,sans-Serif" font-size="10.00">cuchar</text>
</a>
</g>
</g>
<!-- Node2&#45;&gt;Node12 -->
<g id="edge11_Node000002_Node000012" class="edge">
<title>Node2&#45;&gt;Node12</title>
<g id="a_edge11_Node000002_Node000012"><a xlink:title=" ">
<path fill="none" stroke="#63b8ff" d="M1796.23,-206.22C1626.66,-204.51 786.21,-194.43 676,-162 671.62,-160.71 667.22,-158.71 663.12,-156.48"/>
<polygon fill="#63b8ff" stroke="#63b8ff" points="664.61,-153.29 654.26,-151.05 660.96,-159.26 664.61,-153.29"/>
</a>
</g>
</g>
<!-- Node13 -->
<g id="Node000013" class="node">
<title>Node13</title>
<g id="a_Node000013"><a xlink:title=" ">
<polygon fill="#e0e0e0" stroke="#999999" points="768.5,-151 685.5,-151 685.5,-132 768.5,-132 768.5,-151"/>
<text text-anchor="middle" x="727" y="-139" font-family="Helvetica,sans-Serif" font-size="10.00">initializer_list</text>
</a>
</g>
</g>
<!-- Node2&#45;&gt;Node13 -->
<g id="edge12_Node000002_Node000013" class="edge">
<title>Node2&#45;&gt;Node13</title>
<g id="a_edge12_Node000002_Node000013"><a xlink:title=" ">
<path fill="none" stroke="#63b8ff" d="M1796.46,-206.55C1647.67,-206.63 979.47,-204.55 777,-162 769.35,-160.39 761.35,-157.75 754.04,-154.91"/>
<polygon fill="#63b8ff" stroke="#63b8ff" points="755.19,-151.6 744.61,-151.01 752.52,-158.07 755.19,-151.6"/>
</a>
</g>
</g>
<!-- Node14 -->
<g id="Node000014" class="node">
<title>Node14</title>
<g id="a_Node000014"><a xlink:title=" ">
<polygon fill="#e0e0e0" stroke="#999999" points="839.5,-151 786.5,-151 786.5,-132 839.5,-132 839.5,-151"/>
<text text-anchor="middle" x="813" y="-139" font-family="Helvetica,sans-Serif" font-size="10.00">iterator</text>
</a>
</g>
</g>
<!-- Node2&#45;&gt;Node14 -->
<g id="edge13_Node000002_Node000014" class="edge">
<title>Node2&#45;&gt;Node14</title>
<g id="a_edge13_Node000002_Node000014"><a xlink:title=" ">
<path fill="none" stroke="#63b8ff" d="M1796.34,-205.94C1642.83,-202.93 942.15,-187.88 849,-162 844.04,-160.62 839,-158.46 834.33,-156.07"/>
<polygon fill="#63b8ff" stroke="#63b8ff" points="835.83,-152.9 825.4,-151.03 832.38,-158.99 835.83,-152.9"/>
</a>
</g>
</g>
<!-- Node15 -->
<g id="Node000015" class="node">
<title>Node15</title>
<g id="a_Node000015"><a xlink:title=" ">
<polygon fill="#e0e0e0" stroke="#999999" points="902,-151 858,-151 858,-132 902,-132 902,-151"/>
<text text-anchor="middle" x="880" y="-139" font-family="Helvetica,sans-Serif" font-size="10.00">limits</text>
</a>
</g>
</g>
<!-- Node2&#45;&gt;Node15 -->
<g id="edge14_Node000002_Node000015" class="edge">
<title>Node2&#45;&gt;Node15</title>
<g id="a_edge14_Node000002_Node000015"><a xlink:title=" ">
<path fill="none" stroke="#63b8ff" d="M1796.26,-205.95C1648.5,-203.1 996.99,-189.08 911,-162 906.95,-160.73 902.91,-158.79 899.14,-156.63"/>
<polygon fill="#63b8ff" stroke="#63b8ff" points="900.8,-153.53 890.51,-151.02 896.99,-159.4 900.8,-153.53"/>
</a>
</g>
</g>
<!-- Node16 -->
<g id="Node000016" class="node">
<title>Node16</title>
<g id="a_Node000016"><a xlink:title=" ">
<polygon fill="#e0e0e0" stroke="#999999" points="978,-151 920,-151 920,-132 978,-132 978,-151"/>
<text text-anchor="middle" x="949" y="-139" font-family="Helvetica,sans-Serif" font-size="10.00">memory</text>
</a>
</g>
</g>
<!-- Node2&#45;&gt;Node16 -->
<g id="edge15_Node000002_Node000016" class="edge">
<title>Node2&#45;&gt;Node16</title>
<g id="a_edge15_Node000002_Node000016"><a xlink:title=" ">
<path fill="none" stroke="#63b8ff" d="M1796.48,-206.58C1666.45,-206.7 1144.38,-204.46 987,-162 981.76,-160.59 976.42,-158.39 971.46,-155.97"/>
<polygon fill="#63b8ff" stroke="#63b8ff" points="972.98,-152.82 962.51,-151.2 969.68,-158.99 972.98,-152.82"/>
</a>
</g>
</g>
<!-- Node17 -->
<g id="Node000017" class="node">
<title>Node17</title>
<g id="a_Node000017"><a xlink:title=" ">
<polygon fill="#e0e0e0" stroke="#999999" points="1061.5,-151 996.5,-151 996.5,-132 1061.5,-132 1061.5,-151"/>
<text text-anchor="middle" x="1029" y="-139" font-family="Helvetica,sans-Serif" font-size="10.00">stdexcept</text>
</a>
</g>
</g>
<!-- Node2&#45;&gt;Node17 -->
<g id="edge16_Node000002_Node000017" class="edge">
<title>Node2&#45;&gt;Node17</title>
<g id="a_edge16_Node000002_Node000017"><a xlink:title=" ">
<path fill="none" stroke="#63b8ff" d="M1796.24,-206.23C1674.22,-204.89 1212.01,-197.52 1071,-162 1065.01,-160.49 1058.83,-158.13 1053.11,-155.56"/>
<polygon fill="#63b8ff" stroke="#63b8ff" points="1054.57,-152.38 1044.05,-151.17 1051.52,-158.68 1054.57,-152.38"/>
</a>
</g>
</g>
<!-- Node18 -->
<g id="Node000018" class="node">
<title>Node18</title>
<g id="a_Node000018"><a xlink:title=" ">
<polygon fill="#e0e0e0" stroke="#999999" points="1124,-151 1080,-151 1080,-132 1124,-132 1124,-151"/>
<text text-anchor="middle" x="1102" y="-139" font-family="Helvetica,sans-Serif" font-size="10.00">string</text>
</a>
</g>
</g>
<!-- Node2&#45;&gt;Node18 -->
<g id="edge17_Node000002_Node000018" class="edge">
<title>Node2&#45;&gt;Node18</title>
<g id="a_edge17_Node000002_Node000018"><a xlink:title=" ">
<path fill="none" stroke="#63b8ff" d="M1796.23,-206.53C1680.29,-206.34 1259.18,-202.81 1133,-162 1129.03,-160.72 1125.06,-158.81 1121.35,-156.68"/>
<polygon fill="#63b8ff" stroke="#63b8ff" points="1123.11,-153.65 1112.8,-151.17 1119.31,-159.54 1123.11,-153.65"/>
</a>
</g>
</g>
<!-- Node19 -->
<g id="Node000019" class="node">
<title>Node19</title>
<g id="a_Node000019"><a xlink:title=" ">
<polygon fill="#e0e0e0" stroke="#999999" points="1211.5,-151 1142.5,-151 1142.5,-132 1211.5,-132 1211.5,-151"/>
<text text-anchor="middle" x="1177" y="-139" font-family="Helvetica,sans-Serif" font-size="10.00">type_traits</text>
</a>
</g>
</g>
<!-- Node2&#45;&gt;Node19 -->
<g id="edge18_Node000002_Node000019" class="edge">
<title>Node2&#45;&gt;Node19</title>
<g id="a_edge18_Node000002_Node000019"><a xlink:title=" ">
<path fill="none" stroke="#63b8ff" d="M1796.18,-205.69C1690.04,-202.61 1331.04,-190.3 1220,-162 1213.89,-160.44 1207.58,-158.06 1201.73,-155.5"/>
<polygon fill="#63b8ff" stroke="#63b8ff" points="1202.98,-152.22 1192.44,-151.11 1199.99,-158.54 1202.98,-152.22"/>
</a>
</g>
</g>
<!-- Node20 -->
<g id="Node000020" class="node">
<title>Node20</title>
<g id="a_Node000020"><a xlink:title=" ">
<polygon fill="#e0e0e0" stroke="#999999" points="1274.5,-151 1229.5,-151 1229.5,-132 1274.5,-132 1274.5,-151"/>
<text text-anchor="middle" x="1252" y="-139" font-family="Helvetica,sans-Serif" font-size="10.00">utility</text>
</a>
</g>
</g>
<!-- Node2&#45;&gt;Node20 -->
<g id="edge19_Node000002_Node000020" class="edge">
<title>Node2&#45;&gt;Node20</title>
<g id="a_edge19_Node000002_Node000020"><a xlink:title=" ">
<path fill="none" stroke="#63b8ff" d="M1796.18,-205.6C1697.96,-202.38 1385.43,-190.13 1289,-162 1284.03,-160.55 1278.97,-158.4 1274.24,-156.05"/>
<polygon fill="#63b8ff" stroke="#63b8ff" points="1275.61,-152.81 1265.15,-151.1 1272.26,-158.95 1275.61,-152.81"/>
</a>
</g>
</g>
<!-- Node21 -->
<g id="Node000021" class="node">
<title>Node21</title>
<g id="a_Node000021"><a xlink:href="../../dd/d9e/linux_2platform__config_8hpp.html" target="_top" xlink:title="Compile&#45;time platform and CPU bindings for Linux.">
<polygon fill="white" stroke="#666666" points="1486.5,-162 1331.5,-162 1331.5,-121 1486.5,-121 1486.5,-162"/>
<text text-anchor="start" x="1339.5" y="-150" font-family="Helvetica,sans-Serif" font-size="10.00">/home/runner/work/toygine2</text>
<text text-anchor="start" x="1339.5" y="-139" font-family="Helvetica,sans-Serif" font-size="10.00">/toygine2/src/platforms</text>
<text text-anchor="middle" x="1409" y="-128" font-family="Helvetica,sans-Serif" font-size="10.00">/linux/platform_config.hpp</text>
</a>
</g>
</g>
<!-- Node2&#45;&gt;Node21 -->
<g id="edge20_Node000002_Node000021" class="edge">
<title>Node2&#45;&gt;Node21</title>
<g id="a_edge20_Node000002_Node000021"><a xlink:title=" ">
<path fill="none" stroke="#63b8ff" d="M1796.19,-203.4C1739.67,-197.32 1612.87,-182.76 1496.87,-162.26"/>
<polygon fill="#63b8ff" stroke="#63b8ff" points="1497.21,-158.77 1486.75,-160.46 1495.98,-165.66 1497.21,-158.77"/>
</a>
</g>
</g>
<!-- Node22 -->
<g id="Node000022" class="node">
<title>Node22</title>
<g id="a_Node000022"><a xlink:href="../../d3/d60/platform_8hpp.html" target="_top" xlink:title="Platform and CPU architecture enums with compile&#45;time and runtime detection.">
<polygon fill="white" stroke="#666666" points="1354.5,-85 1251.5,-85 1251.5,-55 1354.5,-55 1354.5,-85"/>
<text text-anchor="start" x="1259.5" y="-73" font-family="Helvetica,sans-Serif" font-size="10.00">../../../include/core</text>
<text text-anchor="middle" x="1303" y="-62" font-family="Helvetica,sans-Serif" font-size="10.00">/platform.hpp</text>
</a>
</g>
</g>
<!-- Node2&#45;&gt;Node22 -->
<g id="edge41_Node000002_Node000022" class="edge">
<title>Node2&#45;&gt;Node22</title>
<g id="a_edge41_Node000002_Node000022"><a xlink:title=" ">
<path fill="none" stroke="#63b8ff" d="M1796.24,-205.9C1693.43,-203.57 1357.54,-193.58 1322,-162 1303.51,-145.57 1300.35,-116.19 1300.79,-95.26"/>
<polygon fill="#63b8ff" stroke="#63b8ff" points="1304.29,-95.36 1301.29,-85.2 1297.3,-95.01 1304.29,-95.36"/>
</a>
</g>
</g>
<!-- Node24 -->
<g id="Node000024" class="node">
<title>Node24</title>
<g id="a_Node000024"><a xlink:href="../../d5/d96/assertion_8hpp.html" target="_top" xlink:title="Assertion system: callbacks, initialize/shutdown, and assertion() entry point.">
<polygon fill="white" stroke="#666666" points="1611.5,-151 1504.5,-151 1504.5,-132 1611.5,-132 1611.5,-151"/>
<text text-anchor="middle" x="1558" y="-139" font-family="Helvetica,sans-Serif" font-size="10.00">core/assertion.hpp</text>
</a>
</g>
</g>
<!-- Node2&#45;&gt;Node24 -->
<g id="edge23_Node000002_Node000024" class="edge">
<title>Node2&#45;&gt;Node24</title>
<g id="a_edge23_Node000002_Node000024"><a xlink:title=" ">
<path fill="none" stroke="#63b8ff" d="M1796.27,-200.89C1756.22,-193.13 1682.82,-178.24 1621,-162 1612.07,-159.65 1602.51,-156.85 1593.61,-154.11"/>
<polygon fill="#63b8ff" stroke="#63b8ff" points="1594.5,-150.72 1583.91,-151.07 1592.41,-157.4 1594.5,-150.72"/>
</a>
</g>
</g>
<!-- Node25 -->
<g id="Node000025" class="node">
<title>Node25</title>
<g id="a_Node000025"><a xlink:href="../../df/d61/bitwise__enum_8hpp.html" target="_top" xlink:title="Opt&#45;in bitwise operators for scoped enumerations used as flag sets.">
<polygon fill="white" stroke="#666666" points="1760,-151 1630,-151 1630,-132 1760,-132 1760,-151"/>
<text text-anchor="middle" x="1695" y="-139" font-family="Helvetica,sans-Serif" font-size="10.00">core/bitwise_enum.hpp</text>
</a>
</g>
</g>
<!-- Node2&#45;&gt;Node25 -->
<g id="edge24_Node000002_Node000025" class="edge">
<title>Node2&#45;&gt;Node25</title>
<g id="a_edge24_Node000002_Node000025"><a xlink:title=" ">
<path fill="none" stroke="#63b8ff" d="M1808.33,-197.87C1786.16,-187.04 1747.92,-168.35 1722.05,-155.72"/>
<polygon fill="#63b8ff" stroke="#63b8ff" points="1723.33,-152.44 1712.81,-151.2 1720.25,-158.73 1723.33,-152.44"/>
</a>
</g>
</g>
<!-- Node26 -->
<g id="Node000026" class="node">
<title>Node26</title>
<g id="a_Node000026"><a xlink:href="../../dd/ded/c__string__view_8hpp.html" target="_top" xlink:title="Non&#45;owning view over null&#45;terminated C strings.">
<polygon fill="white" stroke="#666666" points="1798,-79.5 1670,-79.5 1670,-60.5 1798,-60.5 1798,-79.5"/>
<text text-anchor="middle" x="1734" y="-67.5" font-family="Helvetica,sans-Serif" font-size="10.00">core/c_string_view.hpp</text>
</a>
</g>
</g>
<!-- Node2&#45;&gt;Node26 -->
<g id="edge25_Node000002_Node000026" class="edge">
<title>Node2&#45;&gt;Node26</title>
<g id="a_edge25_Node000002_Node000026"><a xlink:title=" ">
<path fill="none" stroke="#63b8ff" d="M1820.4,-197.96C1810.26,-182.53 1788.12,-148.99 1769,-121 1761.48,-109.99 1752.9,-97.73 1746.12,-88.1"/>
<polygon fill="#63b8ff" stroke="#63b8ff" points="1748.89,-85.96 1740.26,-79.81 1743.17,-90 1748.89,-85.96"/>
</a>
</g>
</g>
<!-- Node27 -->
<g id="Node000027" class="node">
<title>Node27</title>
<g id="a_Node000027"><a xlink:href="../../de/deb/string__like_8hpp.html" target="_top" xlink:title="Concept for read&#45;only C&#45;string views with explicit length.">
<polygon fill="white" stroke="#666666" points="2214,-19 2126,-19 2126,0 2214,0 2214,-19"/>
<text text-anchor="middle" x="2170" y="-7" font-family="Helvetica,sans-Serif" font-size="10.00">string_like.hpp</text>
</a>
</g>
</g>
<!-- Node2&#45;&gt;Node27 -->
<g id="edge43_Node000002_Node000027" class="edge">
<title>Node2&#45;&gt;Node27</title>
<g id="a_edge43_Node000002_Node000027"><a xlink:title=" ">
<path fill="none" stroke="#63b8ff" d="M1825.34,-197.75C1824.55,-180.74 1825.31,-142.97 1845,-121 1915.14,-42.75 2042.85,-19.87 2115.54,-13.21"/>
<polygon fill="#63b8ff" stroke="#63b8ff" points="2116.18,-16.67 2125.85,-12.34 2115.59,-9.69 2116.18,-16.67"/>
</a>
</g>
</g>
<!-- Node28 -->
<g id="Node000028" class="node">
<title>Node28</title>
<g id="a_Node000028"><a xlink:href="../../d1/d5c/callbacks__pool_8hpp.html" target="_top" xlink:title="Fixed&#45;capacity pool of function&#45;pointer callbacks.">
<polygon fill="white" stroke="#666666" points="1988,-151 1854,-151 1854,-132 1988,-132 1988,-151"/>
<text text-anchor="middle" x="1921" y="-139" font-family="Helvetica,sans-Serif" font-size="10.00">core/callbacks_pool.hpp</text>
</a>
</g>
</g>
<!-- Node2&#45;&gt;Node28 -->
<g id="edge27_Node000002_Node000028" class="edge">
<title>Node2&#45;&gt;Node28</title>
<g id="a_edge27_Node000002_Node000028"><a xlink:title=" ">
<path fill="none" stroke="#63b8ff" d="M1838.81,-197.87C1854.39,-187.37 1880.93,-169.5 1899.62,-156.9"/>
<polygon fill="#63b8ff" stroke="#63b8ff" points="1901.75,-159.69 1908.09,-151.2 1897.84,-153.88 1901.75,-159.69"/>
</a>
</g>
</g>
<!-- Node29 -->
<g id="Node000029" class="node">
<title>Node29</title>
<g id="a_Node000029"><a xlink:href="../../d4/dc0/constexpr__utils_8hpp.html" target="_top" xlink:title="Constexpr helpers for compile&#45;time string and buffer operations.">
<polygon fill="white" stroke="#666666" points="2142,-151 2006,-151 2006,-132 2142,-132 2142,-151"/>
<text text-anchor="middle" x="2074" y="-139" font-family="Helvetica,sans-Serif" font-size="10.00">core/constexpr_utils.hpp</text>
</a>
</g>
</g>
<!-- Node2&#45;&gt;Node29 -->
<g id="edge28_Node000002_Node000029" class="edge">
<title>Node2&#45;&gt;Node29</title>
<g id="a_edge28_Node000002_Node000029"><a xlink:title=" ">
<path fill="none" stroke="#63b8ff" d="M1855.91,-198.78C1899.54,-187.52 1980.87,-166.53 2030.94,-153.61"/>
<polygon fill="#63b8ff" stroke="#63b8ff" points="2032.01,-156.95 2040.82,-151.06 2030.26,-150.17 2032.01,-156.95"/>
</a>
</g>
</g>
<!-- Node30 -->
<g id="Node000030" class="node">
<title>Node30</title>
<g id="a_Node000030"><a xlink:href="../../d7/d7f/fixed__string_8hpp.html" target="_top" xlink:title="Fixed&#45;capacity string with stack storage.">
<polygon fill="white" stroke="#666666" points="2229,-79.5 2111,-79.5 2111,-60.5 2229,-60.5 2229,-79.5"/>
<text text-anchor="middle" x="2170" y="-67.5" font-family="Helvetica,sans-Serif" font-size="10.00">core/fixed_string.hpp</text>
</a>
</g>
</g>
<!-- Node2&#45;&gt;Node30 -->
<g id="edge29_Node000002_Node000030" class="edge">
<title>Node2&#45;&gt;Node30</title>
<g id="a_edge29_Node000002_Node000030"><a xlink:title=" ">
<path fill="none" stroke="#63b8ff" d="M1855.52,-206.64C1927.36,-206.35 2108.52,-201.62 2151,-162 2170.72,-143.61 2172.79,-110.47 2171.85,-89.66"/>
<polygon fill="#63b8ff" stroke="#63b8ff" points="2175.33,-89.26 2171.11,-79.54 2168.35,-89.77 2175.33,-89.26"/>
</a>
</g>
</g>
<!-- Node31 -->
<g id="Node000031" class="node">
<title>Node31</title>
<g id="a_Node000031"><a xlink:href="../../d7/dea/fixed__vector_8hpp.html" target="_top" xlink:title="Fixed&#45;capacity vector with inline storage.">
<polygon fill="white" stroke="#666666" points="2318,-151 2198,-151 2198,-132 2318,-132 2318,-151"/>
<text text-anchor="middle" x="2258" y="-139" font-family="Helvetica,sans-Serif" font-size="10.00">core/fixed_vector.hpp</text>
</a>
</g>
</g>
<!-- Node2&#45;&gt;Node31 -->
<g id="edge31_Node000002_Node000031" class="edge">
<title>Node2&#45;&gt;Node31</title>
<g id="a_edge31_Node000002_Node000031"><a xlink:title=" ">
<path fill="none" stroke="#63b8ff" d="M1855.92,-204.15C1917.65,-198.99 2063.47,-185.26 2184,-162 2195.49,-159.78 2207.82,-156.78 2219.07,-153.8"/>
<polygon fill="#63b8ff" stroke="#63b8ff" points="2220.3,-157.1 2229.04,-151.1 2218.47,-150.34 2220.3,-157.1"/>
</a>
</g>
</g>
<!-- Node32 -->
<g id="Node000032" class="node">
<title>Node32</title>
<g id="a_Node000032"><a xlink:href="../../d4/d0a/format_8hpp.html" target="_top" xlink:title="Format functions for substituting arguments into {} and {N} placeholders.">
<polygon fill="white" stroke="#666666" points="2469.5,-151 2374.5,-151 2374.5,-132 2469.5,-132 2469.5,-151"/>
<text text-anchor="middle" x="2422" y="-139" font-family="Helvetica,sans-Serif" font-size="10.00">core/format.hpp</text>
</a>
</g>
</g>
<!-- Node2&#45;&gt;Node32 -->
<g id="edge32_Node000002_Node000032" class="edge">
<title>Node2&#45;&gt;Node32</title>
<g id="a_edge32_Node000002_Node000032"><a xlink:title=" ">
<path fill="none" stroke="#63b8ff" d="M1855.55,-206.32C1936.84,-205.35 2170.35,-199.25 2360,-162 2369.68,-160.1 2379.97,-157.22 2389.33,-154.26"/>
<polygon fill="#63b8ff" stroke="#63b8ff" points="2390.66,-157.51 2399.06,-151.05 2388.46,-150.86 2390.66,-157.51"/>
</a>
</g>
</g>
<!-- Node33 -->
<g id="Node000033" class="node">
<title>Node33</title>
<g id="a_Node000033"><a xlink:href="../../d9/d6a/format__string_8hpp.html" target="_top" xlink:title="Compile&#45;time validated format&#45;string wrapper for auto {} and positional {N} placeholders.">
<polygon fill="white" stroke="#666666" points="2374,-79.5 2270,-79.5 2270,-60.5 2374,-60.5 2374,-79.5"/>
<text text-anchor="middle" x="2322" y="-67.5" font-family="Helvetica,sans-Serif" font-size="10.00">format_string.hpp</text>
</a>
</g>
</g>
<!-- Node2&#45;&gt;Node33 -->
<g id="edge38_Node000002_Node000033" class="edge">
<title>Node2&#45;&gt;Node33</title>
<g id="a_edge38_Node000002_Node000033"><a xlink:title=" ">
<path fill="none" stroke="#63b8ff" d="M1855.82,-206.14C1958.83,-204.59 2295.09,-196.87 2327,-162 2344.92,-142.42 2337.21,-109.42 2329.76,-89"/>
<polygon fill="#63b8ff" stroke="#63b8ff" points="2332.97,-87.61 2326.03,-79.61 2326.47,-90.19 2332.97,-87.61"/>
</a>
</g>
</g>
<!-- Node34 -->
<g id="Node000034" class="node">
<title>Node34</title>
<g id="a_Node000034"><a xlink:href="../../de/d2d/o__string__stream_8hpp.html" target="_top" xlink:title="Allocator&#45;free output string stream that appends into string&#45;like storage.">
<polygon fill="white" stroke="#666666" points="2508,-79.5 2392,-79.5 2392,-60.5 2508,-60.5 2508,-79.5"/>
<text text-anchor="middle" x="2450" y="-67.5" font-family="Helvetica,sans-Serif" font-size="10.00">o_string_stream.hpp</text>
</a>
</g>
</g>
<!-- Node2&#45;&gt;Node34 -->
<g id="edge40_Node000002_Node000034" class="edge">
<title>Node2&#45;&gt;Node34</title>
<g id="a_edge40_Node000002_Node000034"><a xlink:title=" ">
<path fill="none" stroke="#63b8ff" d="M1855.63,-206.8C1977.53,-207.71 2436,-208.03 2479,-162 2498.33,-141.31 2478.97,-107.74 2463.94,-87.68"/>
<polygon fill="#63b8ff" stroke="#63b8ff" points="2466.63,-85.43 2457.69,-79.74 2461.13,-89.76 2466.63,-85.43"/>
</a>
</g>
</g>
<!-- Node35 -->
<g id="Node000035" class="node">
<title>Node35</title>
<g id="a_Node000035"><a xlink:href="../../d7/d5b/format__pattern_8hpp.html" target="_top" xlink:title="Shared compile&#45;time validation for format patterns using {} and {N} placeholders.">
<polygon fill="white" stroke="#666666" points="2661.5,-151 2526.5,-151 2526.5,-132 2661.5,-132 2661.5,-151"/>
<text text-anchor="middle" x="2594" y="-139" font-family="Helvetica,sans-Serif" font-size="10.00">core/format_pattern.hpp</text>
</a>
</g>
</g>
<!-- Node2&#45;&gt;Node35 -->
<g id="edge37_Node000002_Node000035" class="edge">
<title>Node2&#45;&gt;Node35</title>
<g id="a_edge37_Node000002_Node000035"><a xlink:title=" ">
<path fill="none" stroke="#63b8ff" d="M1855.61,-206.36C1951.2,-205.52 2260.02,-199.86 2512,-162 2525.72,-159.94 2540.53,-156.73 2553.74,-153.5"/>
<polygon fill="#63b8ff" stroke="#63b8ff" points="2554.63,-156.89 2563.48,-151.05 2552.93,-150.1 2554.63,-156.89"/>
</a>
</g>
</g>
<!-- Node36 -->
<g id="Node000036" class="node">
<title>Node36</title>
<g id="a_Node000036"><a xlink:href="../../dd/d8e/hashes_8hpp.html" target="_top" xlink:title="Table&#45;driven CRC&#45;8, CRC&#45;16, and CRC&#45;32 over byte buffers.">
<polygon fill="white" stroke="#666666" points="2776,-151 2680,-151 2680,-132 2776,-132 2776,-151"/>
<text text-anchor="middle" x="2728" y="-139" font-family="Helvetica,sans-Serif" font-size="10.00">core/hashes.hpp</text>
</a>
</g>
</g>
<!-- Node2&#45;&gt;Node36 -->
<g id="edge39_Node000002_Node000036" class="edge">
<title>Node2&#45;&gt;Node36</title>
<g id="a_edge39_Node000002_Node000036"><a xlink:title=" ">
<path fill="none" stroke="#63b8ff" d="M1855.61,-206.04C1986.01,-203.84 2509.82,-193.18 2671,-162 2679.93,-160.27 2689.37,-157.47 2697.95,-154.52"/>
<polygon fill="#63b8ff" stroke="#63b8ff" points="2699.32,-157.74 2707.53,-151.04 2696.94,-151.16 2699.32,-157.74"/>
</a>
</g>
</g>
<!-- Node37 -->
<g id="Node000037" class="node">
<title>Node37</title>
<g id="a_Node000037"><a xlink:href="../../d2/dd2/string__fixed__storage_8hpp.html" target="_top" xlink:title="Fixed&#45;size raw character buffer with explicit length for string&#45;like containers.">
<polygon fill="white" stroke="#666666" points="2954,-151 2794,-151 2794,-132 2954,-132 2954,-151"/>
<text text-anchor="middle" x="2874" y="-139" font-family="Helvetica,sans-Serif" font-size="10.00">core/string_fixed_storage.hpp</text>
</a>
</g>
</g>
<!-- Node2&#45;&gt;Node37 -->
<g id="edge42_Node000002_Node000037" class="edge">
<title>Node2&#45;&gt;Node37</title>
<g id="a_edge42_Node000002_Node000037"><a xlink:title=" ">
<path fill="none" stroke="#63b8ff" d="M1855.59,-206.95C1973.49,-208.34 2421.05,-209.96 2785,-162 2800.29,-159.98 2816.84,-156.68 2831.48,-153.35"/>
<polygon fill="#63b8ff" stroke="#63b8ff" points="2832.33,-156.75 2841.27,-151.06 2830.73,-149.93 2832.33,-156.75"/>
</a>
</g>
</g>
<!-- Node38 -->
<g id="Node000038" class="node">
<title>Node38</title>
<g id="a_Node000038"><a xlink:href="../../d8/d43/core_2utils_8hpp.html" target="_top" xlink:title="Core utilities: encoding conversion, string metrics, and number formatting.">
<polygon fill="white" stroke="#666666" points="3055.5,-151 2972.5,-151 2972.5,-132 3055.5,-132 3055.5,-151"/>
<text text-anchor="middle" x="3014" y="-139" font-family="Helvetica,sans-Serif" font-size="10.00">core/utils.hpp</text>
</a>
</g>
</g>
<!-- Node2&#45;&gt;Node38 -->
<g id="edge44_Node000002_Node000038" class="edge">
<title>Node2&#45;&gt;Node38</title>
<g id="a_edge44_Node000002_Node000038"><a xlink:title=" ">
<path fill="none" stroke="#63b8ff" d="M1855.65,-206.64C2012.06,-207.19 2742.26,-207.24 2963,-162 2970.88,-160.39 2979.13,-157.7 2986.65,-154.83"/>
<polygon fill="#63b8ff" stroke="#63b8ff" points="2988.07,-158.03 2996.02,-151.03 2985.44,-151.55 2988.07,-158.03"/>
</a>
</g>
</g>
<!-- Node39 -->
<g id="Node000039" class="node">
<title>Node39</title>
<g id="a_Node000039"><a xlink:href="../../dd/d61/bitwise__enum_8inl.html" target="_top" xlink:title="Inline implementations for toy::EnableBitwiseOperators and scoped&#45;enum bitwise operators.">
<polygon fill="white" stroke="#666666" points="3198,-151 3074,-151 3074,-132 3198,-132 3198,-151"/>
<text text-anchor="middle" x="3136" y="-139" font-family="Helvetica,sans-Serif" font-size="10.00">core/bitwise_enum.inl</text>
</a>
</g>
</g>
<!-- Node2&#45;&gt;Node39 -->
<g id="edge45_Node000002_Node000039" class="edge">
<title>Node2&#45;&gt;Node39</title>
<g id="a_edge45_Node000002_Node000039"><a xlink:title=" ">
<path fill="none" stroke="#63b8ff" d="M1855.5,-206.37C2019.56,-205.5 2820.99,-199.37 3065,-162 3076.71,-160.21 3089.24,-157.16 3100.46,-154"/>
<polygon fill="#63b8ff" stroke="#63b8ff" points="3101.74,-157.27 3110.35,-151.1 3099.76,-150.55 3101.74,-157.27"/>
</a>
</g>
</g>
<!-- Node40 -->
<g id="Node000040" class="node">
<title>Node40</title>
<g id="a_Node000040"><a xlink:href="../../df/d4a/c__string__view_8inl.html" target="_top" xlink:title="Inline implementations for toy::CStringView.">
<polygon fill="white" stroke="#666666" points="3338,-151 3216,-151 3216,-132 3338,-132 3338,-151"/>
<text text-anchor="middle" x="3277" y="-139" font-family="Helvetica,sans-Serif" font-size="10.00">core/c_string_view.inl</text>
</a>
</g>
</g>
<!-- Node2&#45;&gt;Node40 -->
<g id="edge46_Node000002_Node000040" class="edge">
<title>Node2&#45;&gt;Node40</title>
<g id="a_edge46_Node000002_Node000040"><a xlink:title=" ">
<path fill="none" stroke="#63b8ff" d="M1855.67,-206.51C2031.02,-206.42 2933.43,-203.89 3207,-162 3218.65,-160.22 3231.11,-157.14 3242.25,-153.95"/>
<polygon fill="#63b8ff" stroke="#63b8ff" points="3243.47,-157.24 3252.05,-151.02 3241.46,-150.53 3243.47,-157.24"/>
</a>
</g>
</g>
<!-- Node41 -->
<g id="Node000041" class="node">
<title>Node41</title>
<g id="a_Node000041"><a xlink:href="../../d6/ddb/callbacks__pool_8inl.html" target="_top" xlink:title="Inline implementations for toy::CallbacksPool.">
<polygon fill="white" stroke="#666666" points="3484,-151 3356,-151 3356,-132 3484,-132 3484,-151"/>
<text text-anchor="middle" x="3420" y="-139" font-family="Helvetica,sans-Serif" font-size="10.00">core/callbacks_pool.inl</text>
</a>
</g>
</g>
<!-- Node2&#45;&gt;Node41 -->
<g id="edge47_Node000002_Node000041" class="edge">
<title>Node2&#45;&gt;Node41</title>
<g id="a_edge47_Node000002_Node000041"><a xlink:title=" ">
<path fill="none" stroke="#63b8ff" d="M1855.6,-206.57C2040.97,-206.86 3043.78,-206.32 3347,-162 3359.25,-160.21 3372.38,-157.09 3384.09,-153.86"/>
<polygon fill="#63b8ff" stroke="#63b8ff" points="3385.31,-157.16 3393.95,-151.03 3383.37,-150.43 3385.31,-157.16"/>
</a>
</g>
</g>
<!-- Node42 -->
<g id="Node000042" class="node">
<title>Node42</title>
<g id="a_Node000042"><a xlink:href="../../dc/d28/constexpr__utils_8inl.html" target="_top" xlink:title="Inline implementations for constexpr helpers declared in constexpr_utils.hpp.">
<polygon fill="white" stroke="#666666" points="3632,-151 3502,-151 3502,-132 3632,-132 3632,-151"/>
<text text-anchor="middle" x="3567" y="-139" font-family="Helvetica,sans-Serif" font-size="10.00">core/constexpr_utils.inl</text>
</a>
</g>
</g>
<!-- Node2&#45;&gt;Node42 -->
<g id="edge48_Node000002_Node000042" class="edge">
<title>Node2&#45;&gt;Node42</title>
<g id="a_edge48_Node000002_Node000042"><a xlink:title=" ">
<path fill="none" stroke="#63b8ff" d="M1855.55,-206.64C2050.9,-207.45 3158.94,-209.82 3493,-162 3505.54,-160.21 3518.99,-157.04 3530.95,-153.78"/>
<polygon fill="#63b8ff" stroke="#63b8ff" points="3531.92,-157.14 3540.59,-151.05 3530.01,-150.41 3531.92,-157.14"/>
</a>
</g>
</g>
<!-- Node43 -->
<g id="Node000043" class="node">
<title>Node43</title>
<g id="a_Node000043"><a xlink:href="../../d7/d40/fixed__string_8inl.html" target="_top" xlink:title="Inline implementations for toy::FixedString.">
<polygon fill="white" stroke="#666666" points="3762,-151 3650,-151 3650,-132 3762,-132 3762,-151"/>
<text text-anchor="middle" x="3706" y="-139" font-family="Helvetica,sans-Serif" font-size="10.00">core/fixed_string.inl</text>
</a>
</g>
</g>
<!-- Node2&#45;&gt;Node43 -->
<g id="edge49_Node000002_Node000043" class="edge">
<title>Node2&#45;&gt;Node43</title>
<g id="a_edge49_Node000002_Node000043"><a xlink:title=" ">
<path fill="none" stroke="#63b8ff" d="M1855.53,-206.25C2075.69,-204.33 3457.74,-191.2 3641,-162 3651.65,-160.3 3662.99,-157.33 3673.16,-154.21"/>
<polygon fill="#63b8ff" stroke="#63b8ff" points="3674.44,-157.47 3682.88,-151.08 3672.29,-150.81 3674.44,-157.47"/>
</a>
</g>
</g>
<!-- Node44 -->
<g id="Node000044" class="node">
<title>Node44</title>
<g id="a_Node000044"><a xlink:href="../../da/dc9/fixed__vector_8inl.html" target="_top" xlink:title="Inline implementations for toy::FixedVector.">
<polygon fill="white" stroke="#666666" points="3894,-151 3780,-151 3780,-132 3894,-132 3894,-151"/>
<text text-anchor="middle" x="3837" y="-139" font-family="Helvetica,sans-Serif" font-size="10.00">core/fixed_vector.inl</text>
</a>
</g>
</g>
<!-- Node2&#45;&gt;Node44 -->
<g id="edge50_Node000002_Node000044" class="edge">
<title>Node2&#45;&gt;Node44</title>
<g id="a_edge50_Node000002_Node000044"><a xlink:title=" ">
<path fill="none" stroke="#63b8ff" d="M1855.79,-206.29C2085.7,-204.64 3574.01,-192.8 3771,-162 3781.91,-160.29 3793.55,-157.28 3803.97,-154.12"/>
<polygon fill="#63b8ff" stroke="#63b8ff" points="3805.05,-157.45 3813.52,-151.08 3802.93,-150.78 3805.05,-157.45"/>
</a>
</g>
</g>
<!-- Node45 -->
<g id="Node000045" class="node">
<title>Node45</title>
<g id="a_Node000045"><a xlink:href="../../d0/d67/format_8inl.html" target="_top" xlink:title="Inline implementations for toy::format() and toy::formatTo().">
<polygon fill="white" stroke="#666666" points="4001.5,-151 3912.5,-151 3912.5,-132 4001.5,-132 4001.5,-151"/>
<text text-anchor="middle" x="3957" y="-139" font-family="Helvetica,sans-Serif" font-size="10.00">core/format.inl</text>
</a>
</g>
</g>
<!-- Node2&#45;&gt;Node45 -->
<g id="edge51_Node000002_Node000045" class="edge">
<title>Node2&#45;&gt;Node45</title>
<g id="a_edge51_Node000002_Node000045"><a xlink:title=" ">
<path fill="none" stroke="#63b8ff" d="M1855.53,-206.45C2093.37,-205.94 3693.02,-201.07 3903,-162 3911.5,-160.42 3920.44,-157.67 3928.54,-154.73"/>
<polygon fill="#63b8ff" stroke="#63b8ff" points="3929.86,-157.97 3937.93,-151.11 3927.34,-151.44 3929.86,-157.97"/>
</a>
</g>
</g>
<!-- Node46 -->
<g id="Node000046" class="node">
<title>Node46</title>
<g id="a_Node000046"><a xlink:href="../../d5/d9f/format__pattern_8inl.html" target="_top" xlink:title="Inline implementations for toy::validateFormatPattern().">
<polygon fill="white" stroke="#666666" points="4148.5,-151 4019.5,-151 4019.5,-132 4148.5,-132 4148.5,-151"/>
<text text-anchor="middle" x="4084" y="-139" font-family="Helvetica,sans-Serif" font-size="10.00">core/format_pattern.inl</text>
</a>
</g>
</g>
<!-- Node2&#45;&gt;Node46 -->
<g id="edge52_Node000002_Node000046" class="edge">
<title>Node2&#45;&gt;Node46</title>
<g id="a_edge52_Node000002_Node000046"><a xlink:title=" ">
<path fill="none" stroke="#63b8ff" d="M1855.86,-206.33C2101.71,-204.84 3788.18,-193.56 4011,-162 4023.26,-160.26 4036.39,-157.16 4048.1,-153.93"/>
<polygon fill="#63b8ff" stroke="#63b8ff" points="4049.32,-157.22 4057.96,-151.09 4047.38,-150.49 4049.32,-157.22"/>
</a>
</g>
</g>
<!-- Node47 -->
<g id="Node000047" class="node">
<title>Node47</title>
<g id="a_Node000047"><a xlink:href="../../d4/d97/format__string_8inl.html" target="_top" xlink:title="Inline implementations for toy::FormatString.">
<polygon fill="white" stroke="#666666" points="4289,-151 4167,-151 4167,-132 4289,-132 4289,-151"/>
<text text-anchor="middle" x="4228" y="-139" font-family="Helvetica,sans-Serif" font-size="10.00">core/format_string.inl</text>
</a>
</g>
</g>
<!-- Node2&#45;&gt;Node47 -->
<g id="edge53_Node000002_Node000047" class="edge">
<title>Node2&#45;&gt;Node47</title>
<g id="a_edge53_Node000002_Node000047"><a xlink:title=" ">
<path fill="none" stroke="#63b8ff" d="M1855.83,-206.39C2110.79,-205.36 3919.73,-196.89 4158,-162 4169.75,-160.28 4182.33,-157.19 4193.54,-153.96"/>
<polygon fill="#63b8ff" stroke="#63b8ff" points="4194.81,-157.23 4203.38,-151 4192.8,-150.53 4194.81,-157.23"/>
</a>
</g>
</g>
<!-- Node48 -->
<g id="Node000048" class="node">
<title>Node48</title>
<g id="a_Node000048"><a xlink:href="../../d9/dcb/o__string__stream_8inl.html" target="_top" xlink:title="Inline implementations for toy::OStringStream.">
<polygon fill="white" stroke="#666666" points="4441,-151 4307,-151 4307,-132 4441,-132 4441,-151"/>
<text text-anchor="middle" x="4374" y="-139" font-family="Helvetica,sans-Serif" font-size="10.00">core/o_string_stream.inl</text>
</a>
</g>
</g>
<!-- Node2&#45;&gt;Node48 -->
<g id="edge54_Node000002_Node000048" class="edge">
<title>Node2&#45;&gt;Node48</title>
<g id="a_edge54_Node000002_Node000048"><a xlink:title=" ">
<path fill="none" stroke="#63b8ff" d="M1855.52,-206.39C2117.74,-205.32 4044.38,-196.34 4298,-162 4310.97,-160.24 4324.91,-157.06 4337.27,-153.76"/>
<polygon fill="#63b8ff" stroke="#63b8ff" points="4338.52,-157.05 4347.22,-151 4336.65,-150.3 4338.52,-157.05"/>
</a>
</g>
</g>
<!-- Node49 -->
<g id="Node000049" class="node">
<title>Node49</title>
<g id="a_Node000049"><a xlink:href="../../db/d33/string__fixed__storage_8inl.html" target="_top" xlink:title="Inline implementations for toy::StringFixedStorage.">
<polygon fill="white" stroke="#666666" points="4613,-151 4459,-151 4459,-132 4613,-132 4613,-151"/>
<text text-anchor="middle" x="4536" y="-139" font-family="Helvetica,sans-Serif" font-size="10.00">core/string_fixed_storage.inl</text>
</a>
</g>
</g>
<!-- Node2&#45;&gt;Node49 -->
<g id="edge55_Node000002_Node000049" class="edge">
<title>Node2&#45;&gt;Node49</title>
<g id="a_edge55_Node000002_Node000049"><a xlink:title=" ">
<path fill="none" stroke="#63b8ff" d="M1855.6,-206.37C2127.03,-205.11 4179.72,-194.58 4450,-162 4464.92,-160.2 4481.05,-156.91 4495.26,-153.55"/>
<polygon fill="#63b8ff" stroke="#63b8ff" points="4496.34,-156.88 4505.22,-151.1 4494.67,-150.08 4496.34,-156.88"/>
</a>
</g>
</g>
<!-- Node50 -->
<g id="Node000050" class="node">
<title>Node50</title>
<g id="a_Node000050"><a xlink:href="../../d2/d2b/core_2utils_8inl.html" target="_top" xlink:title="Inline implementations for utilities declared in utils.hpp.">
<polygon fill="white" stroke="#666666" points="4708.5,-151 4631.5,-151 4631.5,-132 4708.5,-132 4708.5,-151"/>
<text text-anchor="middle" x="4670" y="-139" font-family="Helvetica,sans-Serif" font-size="10.00">core/utils.inl</text>
</a>
</g>
</g>
<!-- Node2&#45;&gt;Node50 -->
<g id="edge56_Node000002_Node000050" class="edge">
<title>Node2&#45;&gt;Node50</title>
<g id="a_edge56_Node000002_Node000050"><a xlink:title=" ">
<path fill="none" stroke="#63b8ff" d="M1855.73,-206.34C2146.74,-204.74 4479.29,-191.06 4622,-162 4629.22,-160.53 4636.74,-158 4643.63,-155.24"/>
<polygon fill="#63b8ff" stroke="#63b8ff" points="4645.36,-158.31 4653.15,-151.14 4642.58,-151.88 4645.36,-158.31"/>
</a>
</g>
</g>
<!-- Node21&#45;&gt;Node22 -->
<g id="edge21_Node000021_Node000022" class="edge">
<title>Node21&#45;&gt;Node22</title>
<g id="a_edge21_Node000021_Node000022"><a xlink:title=" ">
<path fill="none" stroke="#63b8ff" d="M1379.19,-120.96C1364.79,-111.51 1347.54,-100.2 1333.1,-90.74"/>
<polygon fill="#63b8ff" stroke="#63b8ff" points="1334.81,-87.67 1324.52,-85.11 1330.97,-93.52 1334.81,-87.67"/>
</a>
</g>
</g>
<!-- Node23 -->
<g id="Node000023" class="node">
<title>Node23</title>
<g id="a_Node000023"><a xlink:href="../../d1/d5f/assertion__macro__gcc__clang_8hpp.html" target="_top" xlink:title="Debug and Release assertion macro implementations for GCC/Clang platforms.">
<polygon fill="white" stroke="#666666" points="1499.5,-85 1372.5,-85 1372.5,-55 1499.5,-55 1499.5,-85"/>
<text text-anchor="start" x="1380.5" y="-73" font-family="Helvetica,sans-Serif" font-size="10.00">../common/assertion</text>
<text text-anchor="middle" x="1436" y="-62" font-family="Helvetica,sans-Serif" font-size="10.00">_macro_gcc_clang.hpp</text>
</a>
</g>
</g>
<!-- Node21&#45;&gt;Node23 -->
<g id="edge22_Node000021_Node000023" class="edge">
<title>Node21&#45;&gt;Node23</title>
<g id="a_edge22_Node000021_Node000023"><a xlink:title=" ">
<path fill="none" stroke="#63b8ff" d="M1416.66,-120.77C1419.85,-112.58 1423.57,-103.01 1426.89,-94.46"/>
<polygon fill="#63b8ff" stroke="#63b8ff" points="1430.19,-95.63 1430.55,-85.04 1423.66,-93.09 1430.19,-95.63"/>
</a>
</g>
</g>
<!-- Node26&#45;&gt;Node27 -->
<g id="edge26_Node000026_Node000027" class="edge">
<title>Node26&#45;&gt;Node27</title>
<g id="a_edge26_Node000026_Node000027"><a xlink:title=" ">
<path fill="none" stroke="#63b8ff" d="M1779.3,-60.44C1790,-58.54 1801.39,-56.61 1812,-55 1919.42,-38.7 2045.64,-24.06 2115.86,-16.31"/>
<polygon fill="#63b8ff" stroke="#63b8ff" points="2116.25,-19.79 2125.8,-15.22 2115.48,-12.83 2116.25,-19.79"/>
</a>
</g>
</g>
<!-- Node30&#45;&gt;Node27 -->
<g id="edge30_Node000030_Node000027" class="edge">
<title>Node30&#45;&gt;Node27</title>
<g id="a_edge30_Node000030_Node000027"><a xlink:title=" ">
<path fill="none" stroke="#63b8ff" d="M2170,-60.37C2170,-52.25 2170,-39.81 2170,-29.39"/>
<polygon fill="#63b8ff" stroke="#63b8ff" points="2173.5,-29.17 2170,-19.17 2166.5,-29.17 2173.5,-29.17"/>
</a>
</g>
</g>
<!-- Node32&#45;&gt;Node33 -->
<g id="edge33_Node000032_Node000033" class="edge">
<title>Node32&#45;&gt;Node33</title>
<g id="a_edge33_Node000032_Node000033"><a xlink:title=" ">
<path fill="none" stroke="#63b8ff" d="M2409.74,-131.98C2393.02,-120.36 2362.84,-99.39 2342.61,-85.33"/>
<polygon fill="#63b8ff" stroke="#63b8ff" points="2344.57,-82.42 2334.36,-79.59 2340.58,-88.17 2344.57,-82.42"/>
</a>
</g>
</g>
<!-- Node32&#45;&gt;Node34 -->
<g id="edge35_Node000032_Node000034" class="edge">
<title>Node32&#45;&gt;Node34</title>
<g id="a_edge35_Node000032_Node000034"><a xlink:title=" ">
<path fill="none" stroke="#63b8ff" d="M2425.43,-131.98C2429.72,-121.35 2437.15,-102.89 2442.72,-89.06"/>
<polygon fill="#63b8ff" stroke="#63b8ff" points="2446.05,-90.18 2446.54,-79.59 2439.56,-87.56 2446.05,-90.18"/>
</a>
</g>
</g>
<!-- Node33&#45;&gt;Node27 -->
<g id="edge34_Node000033_Node000027" class="edge">
<title>Node33&#45;&gt;Node27</title>
<g id="a_edge34_Node000033_Node000027"><a xlink:title=" ">
<path fill="none" stroke="#63b8ff" d="M2299.9,-60.49C2274.01,-50.53 2230.92,-33.95 2201.53,-22.63"/>
<polygon fill="#63b8ff" stroke="#63b8ff" points="2202.72,-19.34 2192.13,-19.02 2200.2,-25.88 2202.72,-19.34"/>
</a>
</g>
</g>
<!-- Node34&#45;&gt;Node27 -->
<g id="edge36_Node000034_Node000027" class="edge">
<title>Node34&#45;&gt;Node27</title>
<g id="a_edge36_Node000034_Node000027"><a xlink:title=" ">
<path fill="none" stroke="#63b8ff" d="M2409.29,-60.49C2359.41,-50.07 2274.91,-32.42 2220.82,-21.12"/>
<polygon fill="#63b8ff" stroke="#63b8ff" points="2221.27,-17.64 2210.76,-19.02 2219.84,-24.49 2221.27,-17.64"/>
</a>
</g>
</g>
</g>
</svg>
