<?xml version="1.0" encoding="UTF-8" standalone="no"?>
<!DOCTYPE svg PUBLIC "-//W3C//DTD SVG 1.1//EN"
 "http://www.w3.org/Graphics/SVG/1.1/DTD/svg11.dtd">
<!-- Generated by graphviz version 2.43.0 (0)
 -->
<!-- Title: src/core/utils.cpp Pages: 1 -->
<svg width="1312pt" height="159pt"
 viewBox="0.00 0.00 1311.50 159.00" xmlns="http://www.w3.org/2000/svg" xmlns:xlink="http://www.w3.org/1999/xlink">
<g id="graph0" class="graph" transform="scale(1 1) rotate(0) translate(4 155)">
<title>src/core/utils.cpp</title>
<!-- Node1 -->
<g id="Node000001" class="node">
<title>Node1</title>
<g id="a_Node000001"><a xlink:title=" ">
<polygon fill="#999999" stroke="#666666" points="531.5,-151 432.5,-151 432.5,-132 531.5,-132 531.5,-151"/>
<text text-anchor="middle" x="482" y="-139" font-family="Helvetica,sans-Serif" font-size="10.00">src/core/utils.cpp</text>
</a>
</g>
</g>
<!-- Node2 -->
<g id="Node000002" class="node">
<title>Node2</title>
<g id="a_Node000002"><a xlink:title=" ">
<polygon fill="#e0e0e0" stroke="#999999" points="405.5,-96 376.5,-96 376.5,-77 405.5,-77 405.5,-96"/>
<text text-anchor="middle" x="391" y="-84" font-family="Helvetica,sans-Serif" font-size="10.00">bit</text>
</a>
</g>
</g>
<!-- Node1&#45;&gt;Node2 -->
<g id="edge1_Node000001_Node000002" class="edge">
<title>Node1&#45;&gt;Node2</title>
<g id="a_edge1_Node000001_Node000002"><a xlink:title=" ">
<path fill="none" stroke="#63b8ff" d="M467.38,-131.98C453.05,-123.64 430.99,-110.79 414.25,-101.04"/>
<polygon fill="#63b8ff" stroke="#63b8ff" points="415.99,-98 405.58,-95.99 412.46,-104.05 415.99,-98"/>
</a>
</g>
</g>
<!-- Node3 -->
<g id="Node000003" class="node">
<title>Node3</title>
<g id="a_Node000003"><a xlink:title=" ">
<polygon fill="#e0e0e0" stroke="#999999" points="470.5,-96 423.5,-96 423.5,-77 470.5,-77 470.5,-96"/>
<text text-anchor="middle" x="447" y="-84" font-family="Helvetica,sans-Serif" font-size="10.00">cmath</text>
</a>
</g>
</g>
<!-- Node1&#45;&gt;Node3 -->
<g id="edge2_Node000001_Node000003" class="edge">
<title>Node1&#45;&gt;Node3</title>
<g id="a_edge2_Node000001_Node000003"><a xlink:title=" ">
<path fill="none" stroke="#63b8ff" d="M476.22,-131.75C471.38,-124.42 464.32,-113.73 458.36,-104.7"/>
<polygon fill="#63b8ff" stroke="#63b8ff" points="461.1,-102.5 452.67,-96.09 455.26,-106.36 461.1,-102.5"/>
</a>
</g>
</g>
<!-- Node4 -->
<g id="Node000004" class="node">
<title>Node4</title>
<g id="a_Node000004"><a xlink:href="../../da/d47/core_8hpp.html" target="_top" xlink:title=" ">
<polygon fill="white" stroke="#666666" points="547.5,-96 488.5,-96 488.5,-77 547.5,-77 547.5,-96"/>
<text text-anchor="middle" x="518" y="-84" font-family="Helvetica,sans-Serif" font-size="10.00">core.hpp</text>
</a>
</g>
</g>
<!-- Node1&#45;&gt;Node4 -->
<g id="edge3_Node000001_Node000004" class="edge">
<title>Node1&#45;&gt;Node4</title>
<g id="a_edge3_Node000001_Node000004"><a xlink:title=" ">
<path fill="none" stroke="#63b8ff" d="M487.94,-131.75C492.98,-124.34 500.34,-113.5 506.51,-104.41"/>
<polygon fill="#63b8ff" stroke="#63b8ff" points="509.44,-106.33 512.17,-96.09 503.65,-102.39 509.44,-106.33"/>
</a>
</g>
</g>
<!-- Node19 -->
<g id="Node000019" class="node">
<title>Node19</title>
<g id="a_Node000019"><a xlink:href="../../d4/d85/utils__internal_8inl.html" target="_top" xlink:title=" ">
<polygon fill="white" stroke="#666666" points="988.5,-96 893.5,-96 893.5,-77 988.5,-77 988.5,-96"/>
<text text-anchor="middle" x="941" y="-84" font-family="Helvetica,sans-Serif" font-size="10.00">utils_internal.inl</text>
</a>
</g>
</g>
<!-- Node1&#45;&gt;Node19 -->
<g id="edge18_Node000001_Node000019" class="edge">
<title>Node1&#45;&gt;Node19</title>
<g id="a_edge18_Node000001_Node000019"><a xlink:title=" ">
<path fill="none" stroke="#63b8ff" d="M531.56,-134.78C617.16,-124.89 792.26,-104.67 883.24,-94.17"/>
<polygon fill="#63b8ff" stroke="#63b8ff" points="883.84,-97.62 893.37,-93 883.04,-90.67 883.84,-97.62"/>
</a>
</g>
</g>
<!-- Node5 -->
<g id="Node000005" class="node">
<title>Node5</title>
<g id="a_Node000005"><a xlink:title=" ">
<polygon fill="#e0e0e0" stroke="#999999" points="64,-30 0,-30 0,-11 64,-11 64,-30"/>
<text text-anchor="middle" x="32" y="-18" font-family="Helvetica,sans-Serif" font-size="10.00">algorithm</text>
</a>
</g>
</g>
<!-- Node4&#45;&gt;Node5 -->
<g id="edge4_Node000004_Node000005" class="edge">
<title>Node4&#45;&gt;Node5</title>
<g id="a_edge4_Node000004_Node000005"><a xlink:title=" ">
<path fill="none" stroke="#63b8ff" d="M488.26,-78.61C485.14,-78.01 482.01,-77.46 479,-77 299.92,-49.66 247.77,-88.65 73,-41 67.3,-39.44 61.42,-37.13 55.95,-34.63"/>
<polygon fill="#63b8ff" stroke="#63b8ff" points="57.21,-31.35 46.69,-30.06 54.11,-37.62 57.21,-31.35"/>
</a>
</g>
</g>
<!-- Node6 -->
<g id="Node000006" class="node">
<title>Node6</title>
<g id="a_Node000006"><a xlink:title=" ">
<polygon fill="#e0e0e0" stroke="#999999" points="124,-30 82,-30 82,-11 124,-11 124,-30"/>
<text text-anchor="middle" x="103" y="-18" font-family="Helvetica,sans-Serif" font-size="10.00">array</text>
</a>
</g>
</g>
<!-- Node4&#45;&gt;Node6 -->
<g id="edge5_Node000004_Node000006" class="edge">
<title>Node4&#45;&gt;Node6</title>
<g id="a_edge5_Node000004_Node000006"><a xlink:title=" ">
<path fill="none" stroke="#63b8ff" d="M488.25,-78.66C485.14,-78.05 482.01,-77.48 479,-77 326.35,-52.5 278.76,-92.56 133,-41 129.27,-39.68 125.53,-37.81 122.03,-35.74"/>
<polygon fill="#63b8ff" stroke="#63b8ff" points="123.72,-32.66 113.45,-30.06 119.86,-38.5 123.72,-32.66"/>
</a>
</g>
</g>
<!-- Node7 -->
<g id="Node000007" class="node">
<title>Node7</title>
<g id="a_Node000007"><a xlink:title=" ">
<polygon fill="#e0e0e0" stroke="#999999" points="202,-30 142,-30 142,-11 202,-11 202,-30"/>
<text text-anchor="middle" x="172" y="-18" font-family="Helvetica,sans-Serif" font-size="10.00">concepts</text>
</a>
</g>
</g>
<!-- Node4&#45;&gt;Node7 -->
<g id="edge6_Node000004_Node000007" class="edge">
<title>Node4&#45;&gt;Node7</title>
<g id="a_edge6_Node000004_Node000007"><a xlink:title=" ">
<path fill="none" stroke="#63b8ff" d="M488.24,-78.75C485.13,-78.13 482,-77.53 479,-77 360.64,-56.19 325.86,-76.35 211,-41 205.8,-39.4 200.44,-37.16 195.43,-34.76"/>
<polygon fill="#63b8ff" stroke="#63b8ff" points="196.83,-31.55 186.34,-30.1 193.64,-37.78 196.83,-31.55"/>
</a>
</g>
</g>
<!-- Node8 -->
<g id="Node000008" class="node">
<title>Node8</title>
<g id="a_Node000008"><a xlink:title=" ">
<polygon fill="#e0e0e0" stroke="#999999" points="273.5,-30 220.5,-30 220.5,-11 273.5,-11 273.5,-30"/>
<text text-anchor="middle" x="247" y="-18" font-family="Helvetica,sans-Serif" font-size="10.00">cstddef</text>
</a>
</g>
</g>
<!-- Node4&#45;&gt;Node8 -->
<g id="edge7_Node000004_Node000008" class="edge">
<title>Node4&#45;&gt;Node8</title>
<g id="a_edge7_Node000004_Node000008"><a xlink:title=" ">
<path fill="none" stroke="#63b8ff" d="M488.21,-78.9C485.1,-78.25 481.99,-77.6 479,-77 392.16,-59.57 366.53,-70.46 283,-41 278.5,-39.41 273.89,-37.32 269.54,-35.1"/>
<polygon fill="#63b8ff" stroke="#63b8ff" points="271,-31.9 260.55,-30.16 267.63,-38.04 271,-31.9"/>
</a>
</g>
</g>
<!-- Node9 -->
<g id="Node000009" class="node">
<title>Node9</title>
<g id="a_Node000009"><a xlink:title=" ">
<polygon fill="#e0e0e0" stroke="#999999" points="342,-30 292,-30 292,-11 342,-11 342,-30"/>
<text text-anchor="middle" x="317" y="-18" font-family="Helvetica,sans-Serif" font-size="10.00">cstdint</text>
</a>
</g>
</g>
<!-- Node4&#45;&gt;Node9 -->
<g id="edge8_Node000004_Node000009" class="edge">
<title>Node4&#45;&gt;Node9</title>
<g id="a_edge8_Node000004_Node000009"><a xlink:title=" ">
<path fill="none" stroke="#63b8ff" d="M488.16,-78.54C447.18,-68.81 375.76,-51.2 351,-41 346.97,-39.34 342.82,-37.29 338.87,-35.14"/>
<polygon fill="#63b8ff" stroke="#63b8ff" points="340.57,-32.08 330.16,-30.12 337.07,-38.15 340.57,-32.08"/>
</a>
</g>
</g>
<!-- Node10 -->
<g id="Node000010" class="node">
<title>Node10</title>
<g id="a_Node000010"><a xlink:title=" ">
<polygon fill="#e0e0e0" stroke="#999999" points="410,-30 360,-30 360,-11 410,-11 410,-30"/>
<text text-anchor="middle" x="385" y="-18" font-family="Helvetica,sans-Serif" font-size="10.00">cstring</text>
</a>
</g>
</g>
<!-- Node4&#45;&gt;Node10 -->
<g id="edge9_Node000004_Node000010" class="edge">
<title>Node4&#45;&gt;Node10</title>
<g id="a_edge9_Node000004_Node000010"><a xlink:title=" ">
<path fill="none" stroke="#63b8ff" d="M497.24,-76.88C477.02,-68.31 445.52,-54.53 419,-41 415.52,-39.23 411.9,-37.27 408.36,-35.3"/>
<polygon fill="#63b8ff" stroke="#63b8ff" points="409.81,-32.09 399.39,-30.17 406.33,-38.17 409.81,-32.09"/>
</a>
</g>
</g>
<!-- Node11 -->
<g id="Node000011" class="node">
<title>Node11</title>
<g id="a_Node000011"><a xlink:title=" ">
<polygon fill="#e0e0e0" stroke="#999999" points="477.5,-30 428.5,-30 428.5,-11 477.5,-11 477.5,-30"/>
<text text-anchor="middle" x="453" y="-18" font-family="Helvetica,sans-Serif" font-size="10.00">cuchar</text>
</a>
</g>
</g>
<!-- Node4&#45;&gt;Node11 -->
<g id="edge10_Node000004_Node000011" class="edge">
<title>Node4&#45;&gt;Node11</title>
<g id="a_edge10_Node000004_Node000011"><a xlink:title=" ">
<path fill="none" stroke="#63b8ff" d="M509.23,-76.87C499.02,-66.81 481.92,-49.98 469.26,-37.51"/>
<polygon fill="#63b8ff" stroke="#63b8ff" points="471.63,-34.93 462.04,-30.41 466.71,-39.92 471.63,-34.93"/>
</a>
</g>
</g>
<!-- Node12 -->
<g id="Node000012" class="node">
<title>Node12</title>
<g id="a_Node000012"><a xlink:title=" ">
<polygon fill="#e0e0e0" stroke="#999999" points="540,-30 496,-30 496,-11 540,-11 540,-30"/>
<text text-anchor="middle" x="518" y="-18" font-family="Helvetica,sans-Serif" font-size="10.00">string</text>
</a>
</g>
</g>
<!-- Node4&#45;&gt;Node12 -->
<g id="edge11_Node000004_Node000012" class="edge">
<title>Node4&#45;&gt;Node12</title>
<g id="a_edge11_Node000004_Node000012"><a xlink:title=" ">
<path fill="none" stroke="#63b8ff" d="M518,-76.87C518,-67.66 518,-52.79 518,-40.77"/>
<polygon fill="#63b8ff" stroke="#63b8ff" points="521.5,-40.41 518,-30.41 514.5,-40.41 521.5,-40.41"/>
</a>
</g>
</g>
<!-- Node13 -->
<g id="Node000013" class="node">
<title>Node13</title>
<g id="a_Node000013"><a xlink:title=" ">
<polygon fill="#e0e0e0" stroke="#999999" points="603.5,-30 558.5,-30 558.5,-11 603.5,-11 603.5,-30"/>
<text text-anchor="middle" x="581" y="-18" font-family="Helvetica,sans-Serif" font-size="10.00">utility</text>
</a>
</g>
</g>
<!-- Node4&#45;&gt;Node13 -->
<g id="edge12_Node000004_Node000013" class="edge">
<title>Node4&#45;&gt;Node13</title>
<g id="a_edge12_Node000004_Node000013"><a xlink:title=" ">
<path fill="none" stroke="#63b8ff" d="M526.5,-76.87C536.3,-66.9 552.66,-50.29 564.89,-37.86"/>
<polygon fill="#63b8ff" stroke="#63b8ff" points="567.71,-39.99 572.23,-30.41 562.72,-35.08 567.71,-39.99"/>
</a>
</g>
</g>
<!-- Node14 -->
<g id="Node000014" class="node">
<title>Node14</title>
<g id="a_Node000014"><a xlink:href="../../dd/d9e/linux_2platform__config_8hpp.html" target="_top" xlink:title="additional linux platform header">
<polygon fill="white" stroke="#666666" points="776.5,-41 621.5,-41 621.5,0 776.5,0 776.5,-41"/>
<text text-anchor="start" x="629.5" y="-29" font-family="Helvetica,sans-Serif" font-size="10.00">/home/runner/work/toygine2</text>
<text text-anchor="start" x="629.5" y="-18" font-family="Helvetica,sans-Serif" font-size="10.00">/toygine2/src/platforms</text>
<text text-anchor="middle" x="699" y="-7" font-family="Helvetica,sans-Serif" font-size="10.00">/linux/platform_config.hpp</text>
</a>
</g>
</g>
<!-- Node4&#45;&gt;Node14 -->
<g id="edge13_Node000004_Node000014" class="edge">
<title>Node4&#45;&gt;Node14</title>
<g id="a_edge13_Node000004_Node000014"><a xlink:title=" ">
<path fill="none" stroke="#63b8ff" d="M542.41,-76.87C565.85,-68.58 602.28,-55.7 634.11,-44.44"/>
<polygon fill="#63b8ff" stroke="#63b8ff" points="635.56,-47.64 643.83,-41.01 633.23,-41.04 635.56,-47.64"/>
</a>
</g>
</g>
<!-- Node15 -->
<g id="Node000015" class="node">
<title>Node15</title>
<g id="a_Node000015"><a xlink:href="../../d0/d46/fix__string_8hpp.html" target="_top" xlink:title="Template string class with fixed&#45;size character buffer.">
<polygon fill="white" stroke="#666666" points="901.5,-30 794.5,-30 794.5,-11 901.5,-11 901.5,-30"/>
<text text-anchor="middle" x="848" y="-18" font-family="Helvetica,sans-Serif" font-size="10.00">core/fix_string.hpp</text>
</a>
</g>
</g>
<!-- Node4&#45;&gt;Node15 -->
<g id="edge14_Node000004_Node000015" class="edge">
<title>Node4&#45;&gt;Node15</title>
<g id="a_edge14_Node000004_Node000015"><a xlink:title=" ">
<path fill="none" stroke="#63b8ff" d="M547.89,-81.86C597.54,-75.51 699.95,-61.15 785,-41 794.33,-38.79 804.29,-35.94 813.48,-33.1"/>
<polygon fill="#63b8ff" stroke="#63b8ff" points="814.6,-36.42 823.08,-30.07 812.49,-29.75 814.6,-36.42"/>
</a>
</g>
</g>
<!-- Node16 -->
<g id="Node000016" class="node">
<title>Node16</title>
<g id="a_Node000016"><a xlink:href="../../df/d93/utils_8hpp.html" target="_top" xlink:title="Core utility functions for string manipulation, encoding conversion, and number formatting.">
<polygon fill="white" stroke="#666666" points="1002.5,-30 919.5,-30 919.5,-11 1002.5,-11 1002.5,-30"/>
<text text-anchor="middle" x="961" y="-18" font-family="Helvetica,sans-Serif" font-size="10.00">core/utils.hpp</text>
</a>
</g>
</g>
<!-- Node4&#45;&gt;Node16 -->
<g id="edge15_Node000004_Node000016" class="edge">
<title>Node4&#45;&gt;Node16</title>
<g id="a_edge15_Node000004_Node000016"><a xlink:title=" ">
<path fill="none" stroke="#63b8ff" d="M547.55,-84.76C613.63,-82.53 778.01,-73.87 911,-41 918.17,-39.23 925.7,-36.68 932.67,-34.01"/>
<polygon fill="#63b8ff" stroke="#63b8ff" points="934.42,-37.08 942.38,-30.09 931.8,-30.59 934.42,-37.08"/>
</a>
</g>
</g>
<!-- Node17 -->
<g id="Node000017" class="node">
<title>Node17</title>
<g id="a_Node000017"><a xlink:href="../../db/d84/fix__string_8inl.html" target="_top" xlink:title="Inline implementations for FixString template class.">
<polygon fill="white" stroke="#666666" points="1121.5,-30 1020.5,-30 1020.5,-11 1121.5,-11 1121.5,-30"/>
<text text-anchor="middle" x="1071" y="-18" font-family="Helvetica,sans-Serif" font-size="10.00">core/fix_string.inl</text>
</a>
</g>
</g>
<!-- Node4&#45;&gt;Node17 -->
<g id="edge16_Node000004_Node000017" class="edge">
<title>Node4&#45;&gt;Node17</title>
<g id="a_edge16_Node000004_Node000017"><a xlink:title=" ">
<path fill="none" stroke="#63b8ff" d="M547.58,-85.19C624.8,-83.87 838.52,-76.98 1012,-41 1021.13,-39.11 1030.83,-36.27 1039.66,-33.34"/>
<polygon fill="#63b8ff" stroke="#63b8ff" points="1040.89,-36.62 1049.19,-30.04 1038.6,-30 1040.89,-36.62"/>
</a>
</g>
</g>
<!-- Node18 -->
<g id="Node000018" class="node">
<title>Node18</title>
<g id="a_Node000018"><a xlink:href="../../df/d7d/utils_8inl.html" target="_top" xlink:title="Inline implementations of core utility functions for string manipulation and encoding conversion.">
<polygon fill="white" stroke="#666666" points="1216.5,-30 1139.5,-30 1139.5,-11 1216.5,-11 1216.5,-30"/>
<text text-anchor="middle" x="1178" y="-18" font-family="Helvetica,sans-Serif" font-size="10.00">core/utils.inl</text>
</a>
</g>
</g>
<!-- Node4&#45;&gt;Node18 -->
<g id="edge17_Node000004_Node000018" class="edge">
<title>Node4&#45;&gt;Node18</title>
<g id="a_edge17_Node000004_Node000018"><a xlink:title=" ">
<path fill="none" stroke="#63b8ff" d="M547.76,-84.6C654.55,-81.18 1018.09,-67.78 1131,-41 1137.93,-39.36 1145.16,-36.81 1151.81,-34.1"/>
<polygon fill="#63b8ff" stroke="#63b8ff" points="1153.26,-37.29 1161.03,-30.09 1150.47,-30.87 1153.26,-37.29"/>
</a>
</g>
</g>
<!-- Node20 -->
<g id="Node000020" class="node">
<title>Node20</title>
<g id="a_Node000020"><a xlink:title=" ">
<polygon fill="#e0e0e0" stroke="#999999" points="1303.5,-30 1234.5,-30 1234.5,-11 1303.5,-11 1303.5,-30"/>
<text text-anchor="middle" x="1269" y="-18" font-family="Helvetica,sans-Serif" font-size="10.00">type_traits</text>
</a>
</g>
</g>
<!-- Node19&#45;&gt;Node20 -->
<g id="edge19_Node000019_Node000020" class="edge">
<title>Node19&#45;&gt;Node20</title>
<g id="a_edge19_Node000019_Node000020"><a xlink:title=" ">
<path fill="none" stroke="#63b8ff" d="M988.52,-82.04C1045.81,-76.96 1144.55,-65.33 1226,-41 1231.84,-39.26 1237.91,-36.88 1243.59,-34.39"/>
<polygon fill="#63b8ff" stroke="#63b8ff" points="1245.06,-37.56 1252.66,-30.17 1242.12,-31.21 1245.06,-37.56"/>
</a>
</g>
</g>
</g>
</svg>
