<?xml version="1.0" encoding="UTF-8" standalone="no"?>
<!DOCTYPE svg PUBLIC "-//W3C//DTD SVG 1.1//EN"
 "http://www.w3.org/Graphics/SVG/1.1/DTD/svg11.dtd">
<!-- Generated by graphviz version 2.43.0 (0)
 -->
<!-- Title: include/render/clear_flags.hpp Pages: 1 -->
<svg width="296pt" height="148pt"
 viewBox="0.00 0.00 295.50 148.00" xmlns="http://www.w3.org/2000/svg" xmlns:xlink="http://www.w3.org/1999/xlink">
<g id="page0,1_graph0" class="graph" transform="scale(1 1) rotate(0) translate(4 144)">
<title>include/render/clear_flags.hpp</title>
<!-- Node1 -->
<g id="Node000001" class="node">
<title>Node1</title>
<g id="a_Node000001"><a xlink:title="Bit flags for framebuffer clear operations (color, depth, stencil).">
<polygon fill="#999999" stroke="#666666" points="192,-140 79,-140 79,-110 192,-110 192,-140"/>
<text text-anchor="start" x="87" y="-128" font-family="Helvetica,sans-Serif" font-size="10.00">include/render/clear</text>
<text text-anchor="middle" x="135.5" y="-117" font-family="Helvetica,sans-Serif" font-size="10.00">_flags.hpp</text>
</a>
</g>
</g>
<!-- Node2 -->
<g id="Node000002" class="node">
<title>Node2</title>
<g id="a_Node000002"><a xlink:href="../../d6/d4b/render_8hpp.html" target="_top" xlink:title="Umbrella header for the render module.">
<polygon fill="white" stroke="#666666" points="189,-74 82,-74 82,-55 189,-55 189,-74"/>
<text text-anchor="middle" x="135.5" y="-62" font-family="Helvetica,sans-Serif" font-size="10.00">include/render.hpp</text>
</a>
</g>
</g>
<!-- Node1&#45;&gt;Node2 -->
<g id="edge1_Node000001_Node000002" class="edge">
<title>Node1&#45;&gt;Node2</title>
<g id="a_edge1_Node000001_Node000002"><a xlink:title=" ">
<path fill="none" stroke="#63b8ff" d="M135.5,-99.75C135.5,-90.72 135.5,-81.03 135.5,-74.27"/>
<polygon fill="#63b8ff" stroke="#63b8ff" points="132,-99.84 135.5,-109.84 139,-99.84 132,-99.84"/>
</a>
</g>
</g>
<!-- Node3 -->
<g id="Node000003" class="node">
<title>Node3</title>
<g id="a_Node000003"><a xlink:href="../../d8/d8c/toygine2_8hpp.html" target="_top" xlink:title="Main umbrella header for the engine.">
<polygon fill="white" stroke="#666666" points="119,-19 0,-19 0,0 119,0 119,-19"/>
<text text-anchor="middle" x="59.5" y="-7" font-family="Helvetica,sans-Serif" font-size="10.00">include/toygine2.hpp</text>
</a>
</g>
</g>
<!-- Node2&#45;&gt;Node3 -->
<g id="edge2_Node000002_Node000003" class="edge">
<title>Node2&#45;&gt;Node3</title>
<g id="a_edge2_Node000002_Node000003"><a xlink:title=" ">
<path fill="none" stroke="#63b8ff" d="M114.92,-49.15C101.19,-39.57 83.57,-27.29 71.93,-19.17"/>
<polygon fill="#63b8ff" stroke="#63b8ff" points="113.08,-52.14 123.29,-54.98 117.09,-46.39 113.08,-52.14"/>
</a>
</g>
</g>
<!-- Node4 -->
<g id="Node000004" class="node">
<title>Node4</title>
<g id="a_Node000004"><a xlink:href="../../db/d3d/pixel__format_8cpp.html" target="_top" xlink:title="Definitions for pixelFormatName() and pixelFormatFromName() declared in render/pixel_format....">
<polygon fill="white" stroke="#666666" points="287.5,-19 137.5,-19 137.5,0 287.5,0 287.5,-19"/>
<text text-anchor="middle" x="212.5" y="-7" font-family="Helvetica,sans-Serif" font-size="10.00">src/render/pixel_format.cpp</text>
</a>
</g>
</g>
<!-- Node2&#45;&gt;Node4 -->
<g id="edge3_Node000002_Node000004" class="edge">
<title>Node2&#45;&gt;Node4</title>
<g id="a_edge3_Node000002_Node000004"><a xlink:title=" ">
<path fill="none" stroke="#63b8ff" d="M156.35,-49.15C170.26,-39.57 188.11,-27.29 199.9,-19.17"/>
<polygon fill="#63b8ff" stroke="#63b8ff" points="154.12,-46.43 147.87,-54.98 158.09,-52.2 154.12,-46.43"/>
</a>
</g>
</g>
</g>
</svg>
