<?xml version="1.0" encoding="UTF-8" standalone="no"?>
<!DOCTYPE svg PUBLIC "-//W3C//DTD SVG 1.1//EN"
 "http://www.w3.org/Graphics/SVG/1.1/DTD/svg11.dtd">
<!-- Generated by graphviz version 2.43.0 (0)
 -->
<!-- Title: include/core.hpp Pages: 1 -->
<svg width="1313pt" height="148pt"
 viewBox="0.00 0.00 1312.50 148.00" xmlns="http://www.w3.org/2000/svg" xmlns:xlink="http://www.w3.org/1999/xlink">
<g id="graph0" class="graph" transform="scale(1 1) rotate(0) translate(4 144)">
<title>include/core.hpp</title>
<!-- Node1 -->
<g id="Node000001" class="node">
<title>Node1</title>
<g id="a_Node000001"><a xlink:title="Umbrella header for the engine core module.">
<polygon fill="#999999" stroke="#666666" points="620.5,-140 523.5,-140 523.5,-121 620.5,-121 620.5,-140"/>
<text text-anchor="middle" x="572" y="-128" font-family="Helvetica,sans-Serif" font-size="10.00">include/core.hpp</text>
</a>
</g>
</g>
<!-- Node2 -->
<g id="Node000002" class="node">
<title>Node2</title>
<g id="a_Node000002"><a xlink:href="../../d6/d2c/app_8hpp.html" target="_top" xlink:title="Umbrella header for the engine application module.">
<polygon fill="white" stroke="#666666" points="94,-79.5 0,-79.5 0,-60.5 94,-60.5 94,-79.5"/>
<text text-anchor="middle" x="47" y="-67.5" font-family="Helvetica,sans-Serif" font-size="10.00">include/app.hpp</text>
</a>
</g>
</g>
<!-- Node1&#45;&gt;Node2 -->
<g id="edge1_Node000001_Node000002" class="edge">
<title>Node1&#45;&gt;Node2</title>
<g id="a_edge1_Node000001_Node000002"><a xlink:title=" ">
<path fill="none" stroke="#63b8ff" d="M513.21,-126.32C424.82,-120.98 252.65,-108.43 108,-85 99.1,-83.56 89.56,-81.58 80.72,-79.56"/>
<polygon fill="#63b8ff" stroke="#63b8ff" points="513.11,-129.82 523.3,-126.92 513.53,-122.83 513.11,-129.82"/>
</a>
</g>
</g>
<!-- Node3 -->
<g id="Node000003" class="node">
<title>Node3</title>
<g id="a_Node000003"><a xlink:href="../../d8/d8c/toygine2_8hpp.html" target="_top" xlink:title="Main umbrella header for the entire ToyGine2 engine.">
<polygon fill="white" stroke="#666666" points="504.5,-19 385.5,-19 385.5,0 504.5,0 504.5,-19"/>
<text text-anchor="middle" x="445" y="-7" font-family="Helvetica,sans-Serif" font-size="10.00">include/toygine2.hpp</text>
</a>
</g>
</g>
<!-- Node1&#45;&gt;Node3 -->
<g id="edge14_Node000001_Node000003" class="edge">
<title>Node1&#45;&gt;Node3</title>
<g id="a_edge14_Node000001_Node000003"><a xlink:title=" ">
<path fill="none" stroke="#63b8ff" d="M513.03,-127.71C400.81,-123.7 165.46,-112.12 141,-85 132.07,-75.1 132.28,-65.09 141,-55 171.91,-19.23 305.75,-11.66 385.17,-10.39"/>
<polygon fill="#63b8ff" stroke="#63b8ff" points="513.05,-131.22 523.17,-128.07 513.3,-124.22 513.05,-131.22"/>
</a>
</g>
</g>
<!-- Node4 -->
<g id="Node000004" class="node">
<title>Node4</title>
<g id="a_Node000004"><a xlink:href="../../d1/d71/audio_8hpp.html" target="_top" xlink:title="Umbrella header for the audio module (volume types, mixing, etc.).">
<polygon fill="white" stroke="#666666" points="253.5,-79.5 150.5,-79.5 150.5,-60.5 253.5,-60.5 253.5,-79.5"/>
<text text-anchor="middle" x="202" y="-67.5" font-family="Helvetica,sans-Serif" font-size="10.00">include/audio.hpp</text>
</a>
</g>
</g>
<!-- Node1&#45;&gt;Node4 -->
<g id="edge3_Node000001_Node000004" class="edge">
<title>Node1&#45;&gt;Node4</title>
<g id="a_edge3_Node000001_Node000004"><a xlink:title=" ">
<path fill="none" stroke="#63b8ff" d="M513.32,-122.52C450.99,-114.75 349.68,-101.16 263,-85 254.56,-83.43 245.52,-81.49 237.06,-79.57"/>
<polygon fill="#63b8ff" stroke="#63b8ff" points="513.01,-126 523.36,-123.76 513.87,-119.06 513.01,-126"/>
</a>
</g>
</g>
<!-- Node5 -->
<g id="Node000005" class="node">
<title>Node5</title>
<g id="a_Node000005"><a xlink:href="../../d8/d39/game_8hpp.html" target="_top" xlink:title="Umbrella header for the game module.">
<polygon fill="white" stroke="#666666" points="376,-79.5 272,-79.5 272,-60.5 376,-60.5 376,-79.5"/>
<text text-anchor="middle" x="324" y="-67.5" font-family="Helvetica,sans-Serif" font-size="10.00">include/game.hpp</text>
</a>
</g>
</g>
<!-- Node1&#45;&gt;Node5 -->
<g id="edge5_Node000001_Node000005" class="edge">
<title>Node1&#45;&gt;Node5</title>
<g id="a_edge5_Node000001_Node000005"><a xlink:title=" ">
<path fill="none" stroke="#63b8ff" d="M526.13,-118.68C478.21,-107.38 404.02,-89.88 360.1,-79.52"/>
<polygon fill="#63b8ff" stroke="#63b8ff" points="525.4,-122.1 535.94,-120.99 527.01,-115.29 525.4,-122.1"/>
</a>
</g>
</g>
<!-- Node6 -->
<g id="Node000006" class="node">
<title>Node6</title>
<g id="a_Node000006"><a xlink:href="../../d4/d78/math_8hpp.html" target="_top" xlink:title="Umbrella header for the engine mathematics module.">
<polygon fill="white" stroke="#666666" points="495.5,-79.5 394.5,-79.5 394.5,-60.5 495.5,-60.5 495.5,-79.5"/>
<text text-anchor="middle" x="445" y="-67.5" font-family="Helvetica,sans-Serif" font-size="10.00">include/math.hpp</text>
</a>
</g>
</g>
<!-- Node1&#45;&gt;Node6 -->
<g id="edge6_Node000001_Node000006" class="edge">
<title>Node1&#45;&gt;Node6</title>
<g id="a_edge6_Node000001_Node000006"><a xlink:title=" ">
<path fill="none" stroke="#63b8ff" d="M544.39,-116.78C519.88,-105.49 484.76,-89.31 463.49,-79.52"/>
<polygon fill="#63b8ff" stroke="#63b8ff" points="542.99,-119.99 553.53,-120.99 545.91,-113.63 542.99,-119.99"/>
</a>
</g>
</g>
<!-- Node7 -->
<g id="Node000007" class="node">
<title>Node7</title>
<g id="a_Node000007"><a xlink:href="../../d6/d67/network_8hpp.html" target="_top" xlink:title="Umbrella header for the network module.">
<polygon fill="white" stroke="#666666" points="630,-79.5 514,-79.5 514,-60.5 630,-60.5 630,-79.5"/>
<text text-anchor="middle" x="572" y="-67.5" font-family="Helvetica,sans-Serif" font-size="10.00">include/network.hpp</text>
</a>
</g>
</g>
<!-- Node1&#45;&gt;Node7 -->
<g id="edge8_Node000001_Node000007" class="edge">
<title>Node1&#45;&gt;Node7</title>
<g id="a_edge8_Node000001_Node000007"><a xlink:title=" ">
<path fill="none" stroke="#63b8ff" d="M572,-110.66C572,-100.24 572,-87.8 572,-79.67"/>
<polygon fill="#63b8ff" stroke="#63b8ff" points="568.5,-110.87 572,-120.87 575.5,-110.87 568.5,-110.87"/>
</a>
</g>
</g>
<!-- Node8 -->
<g id="Node000008" class="node">
<title>Node8</title>
<g id="a_Node000008"><a xlink:href="../../de/dd6/ui_8hpp.html" target="_top" xlink:title="Umbrella header for platform UI types.">
<polygon fill="white" stroke="#666666" points="778,-79.5 648,-79.5 648,-60.5 778,-60.5 778,-79.5"/>
<text text-anchor="middle" x="713" y="-67.5" font-family="Helvetica,sans-Serif" font-size="10.00">include/platform/ui.hpp</text>
</a>
</g>
</g>
<!-- Node1&#45;&gt;Node8 -->
<g id="edge10_Node000001_Node000008" class="edge">
<title>Node1&#45;&gt;Node8</title>
<g id="a_edge10_Node000001_Node000008"><a xlink:title=" ">
<path fill="none" stroke="#63b8ff" d="M601.93,-117.08C629.17,-105.78 668.65,-89.4 692.47,-79.52"/>
<polygon fill="#63b8ff" stroke="#63b8ff" points="600.4,-113.93 592.5,-120.99 603.08,-120.39 600.4,-113.93"/>
</a>
</g>
</g>
<!-- Node9 -->
<g id="Node000009" class="node">
<title>Node9</title>
<g id="a_Node000009"><a xlink:href="../../d6/d4b/render_8hpp.html" target="_top" xlink:title="Umbrella header for the render module.">
<polygon fill="white" stroke="#666666" points="903.5,-79.5 796.5,-79.5 796.5,-60.5 903.5,-60.5 903.5,-79.5"/>
<text text-anchor="middle" x="850" y="-67.5" font-family="Helvetica,sans-Serif" font-size="10.00">include/render.hpp</text>
</a>
</g>
</g>
<!-- Node1&#45;&gt;Node9 -->
<g id="edge12_Node000001_Node000009" class="edge">
<title>Node1&#45;&gt;Node9</title>
<g id="a_edge12_Node000001_Node000009"><a xlink:title=" ">
<path fill="none" stroke="#63b8ff" d="M623.86,-118.99C667.43,-110.1 731.33,-96.95 787,-85 795.11,-83.26 803.79,-81.36 812.04,-79.53"/>
<polygon fill="#63b8ff" stroke="#63b8ff" points="623.16,-115.56 614.06,-120.98 624.56,-122.42 623.16,-115.56"/>
</a>
</g>
</g>
<!-- Node10 -->
<g id="Node000010" class="node">
<title>Node10</title>
<g id="a_Node000010"><a xlink:href="../../db/d2d/hashes_8cpp.html" target="_top" xlink:title="Implementation of CRC hash functions with lookup tables for optimal performance.">
<polygon fill="white" stroke="#666666" points="1034.5,-79.5 921.5,-79.5 921.5,-60.5 1034.5,-60.5 1034.5,-79.5"/>
<text text-anchor="middle" x="978" y="-67.5" font-family="Helvetica,sans-Serif" font-size="10.00">src/core/hashes.cpp</text>
</a>
</g>
</g>
<!-- Node1&#45;&gt;Node10 -->
<g id="edge15_Node000001_Node000010" class="edge">
<title>Node1&#45;&gt;Node10</title>
<g id="a_edge15_Node000001_Node000010"><a xlink:title=" ">
<path fill="none" stroke="#63b8ff" d="M630.87,-123.31C699.01,-115.8 814.51,-102 913,-85 922.1,-83.43 931.86,-81.47 940.98,-79.53"/>
<polygon fill="#63b8ff" stroke="#63b8ff" points="630.31,-119.85 620.75,-124.42 631.08,-126.81 630.31,-119.85"/>
</a>
</g>
</g>
<!-- Node11 -->
<g id="Node000011" class="node">
<title>Node11</title>
<g id="a_Node000011"><a xlink:href="../../de/d06/utils_8cpp.html" target="_top" xlink:title="Implementation of core utility functions for string manipulation, encoding conversion,...">
<polygon fill="white" stroke="#666666" points="1151.5,-79.5 1052.5,-79.5 1052.5,-60.5 1151.5,-60.5 1151.5,-79.5"/>
<text text-anchor="middle" x="1102" y="-67.5" font-family="Helvetica,sans-Serif" font-size="10.00">src/core/utils.cpp</text>
</a>
</g>
</g>
<!-- Node1&#45;&gt;Node11 -->
<g id="edge16_Node000001_Node000011" class="edge">
<title>Node1&#45;&gt;Node11</title>
<g id="a_edge16_Node000001_Node000011"><a xlink:title=" ">
<path fill="none" stroke="#63b8ff" d="M630.77,-126.66C720.4,-121.73 896.41,-109.64 1044,-85 1052.58,-83.57 1061.78,-81.57 1070.26,-79.53"/>
<polygon fill="#63b8ff" stroke="#63b8ff" points="630.33,-123.18 620.54,-127.22 630.71,-130.17 630.33,-123.18"/>
</a>
</g>
</g>
<!-- Node12 -->
<g id="Node000012" class="node">
<title>Node12</title>
<g id="a_Node000012"><a xlink:href="../../d7/d90/assertion__stub_8cpp.html" target="_top" xlink:title="Stub implementation of assertion system for platforms without native assertion support.">
<polygon fill="white" stroke="#666666" points="1304.5,-85 1169.5,-85 1169.5,-55 1304.5,-55 1304.5,-85"/>
<text text-anchor="start" x="1177.5" y="-73" font-family="Helvetica,sans-Serif" font-size="10.00">src/platforms/stub</text>
<text text-anchor="middle" x="1237" y="-62" font-family="Helvetica,sans-Serif" font-size="10.00">/core/assertion_stub.cpp</text>
</a>
</g>
</g>
<!-- Node1&#45;&gt;Node12 -->
<g id="edge17_Node000001_Node000012" class="edge">
<title>Node1&#45;&gt;Node12</title>
<g id="a_edge17_Node000001_Node000012"><a xlink:title=" ">
<path fill="none" stroke="#63b8ff" d="M630.86,-127.14C737.1,-122.41 967.85,-110.01 1161,-85 1163.66,-84.66 1166.37,-84.28 1169.1,-83.88"/>
<polygon fill="#63b8ff" stroke="#63b8ff" points="630.5,-123.65 620.66,-127.58 630.81,-130.64 630.5,-123.65"/>
</a>
</g>
</g>
<!-- Node2&#45;&gt;Node3 -->
<g id="edge2_Node000002_Node000003" class="edge">
<title>Node2&#45;&gt;Node3</title>
<g id="a_edge2_Node000002_Node000003"><a xlink:title=" ">
<path fill="none" stroke="#63b8ff" d="M91.54,-58.27C97.07,-57.09 102.65,-55.96 108,-55 204.55,-37.59 317.83,-24.02 385.38,-16.65"/>
<polygon fill="#63b8ff" stroke="#63b8ff" points="90.73,-54.86 81.72,-60.43 92.24,-61.7 90.73,-54.86"/>
</a>
</g>
</g>
<!-- Node4&#45;&gt;Node3 -->
<g id="edge4_Node000004_Node000003" class="edge">
<title>Node4&#45;&gt;Node3</title>
<g id="a_edge4_Node000004_Node000003"><a xlink:title=" ">
<path fill="none" stroke="#63b8ff" d="M247.24,-58.11C294.2,-46.8 366.68,-29.35 409.62,-19.02"/>
<polygon fill="#63b8ff" stroke="#63b8ff" points="246.24,-54.75 237.33,-60.49 247.88,-61.56 246.24,-54.75"/>
</a>
</g>
</g>
<!-- Node6&#45;&gt;Node3 -->
<g id="edge7_Node000006_Node000003" class="edge">
<title>Node6&#45;&gt;Node3</title>
<g id="a_edge7_Node000006_Node000003"><a xlink:title=" ">
<path fill="none" stroke="#63b8ff" d="M445,-50.16C445,-39.74 445,-27.3 445,-19.17"/>
<polygon fill="#63b8ff" stroke="#63b8ff" points="441.5,-50.37 445,-60.37 448.5,-50.37 441.5,-50.37"/>
</a>
</g>
</g>
<!-- Node7&#45;&gt;Node3 -->
<g id="edge9_Node000007_Node000003" class="edge">
<title>Node7&#45;&gt;Node3</title>
<g id="a_edge9_Node000007_Node000003"><a xlink:title=" ">
<path fill="none" stroke="#63b8ff" d="M544.39,-56.28C519.88,-44.99 484.76,-28.81 463.49,-19.02"/>
<polygon fill="#63b8ff" stroke="#63b8ff" points="542.99,-59.49 553.53,-60.49 545.91,-53.13 542.99,-59.49"/>
</a>
</g>
</g>
<!-- Node8&#45;&gt;Node3 -->
<g id="edge11_Node000008_Node000003" class="edge">
<title>Node8&#45;&gt;Node3</title>
<g id="a_edge11_Node000008_Node000003"><a xlink:title=" ">
<path fill="none" stroke="#63b8ff" d="M664.08,-58.32C612.32,-47.02 531.67,-29.42 484.02,-19.02"/>
<polygon fill="#63b8ff" stroke="#63b8ff" points="663.51,-61.78 674.03,-60.49 665.01,-54.94 663.51,-61.78"/>
</a>
</g>
</g>
<!-- Node9&#45;&gt;Node3 -->
<g id="edge13_Node000009_Node000003" class="edge">
<title>Node9&#45;&gt;Node3</title>
<g id="a_edge13_Node000009_Node000003"><a xlink:title=" ">
<path fill="none" stroke="#63b8ff" d="M803.99,-58.28C798.28,-57.1 792.52,-55.97 787,-55 688.52,-37.69 572.99,-24.02 504.56,-16.62"/>
<polygon fill="#63b8ff" stroke="#63b8ff" points="803.62,-61.78 814.13,-60.45 805.08,-54.93 803.62,-61.78"/>
</a>
</g>
</g>
</g>
</svg>
