<?xml version="1.0" encoding="UTF-8" standalone="no"?>
<!DOCTYPE svg PUBLIC "-//W3C//DTD SVG 1.1//EN"
 "http://www.w3.org/Graphics/SVG/1.1/DTD/svg11.dtd">
<!-- Generated by graphviz version 2.43.0 (0)
 -->
<!-- Title: include/core/o_string_stream.inl Pages: 1 -->
<!--zoomable 291 -->

<svg id="main" version="1.1" xmlns="http://www.w3.org/2000/svg" xmlns:xlink="http://www.w3.org/1999/xlink" xml:space="preserve" onload="init(evt)">

<style type="text/css"><![CDATA[
.node, .edge {opacity: 0.7;}
.node.selected, .edge.selected {opacity: 1;}
.edge:hover path { stroke: red; }
.edge:hover polygon { stroke: red; fill: red; }
]]></style>

<defs>
  <circle id="rim" cx="0" cy="0" r="7"/>
  <circle id="rim2" cx="0" cy="0" r="3.5"/>
  <g id="zoomPlus">
    <use xlink:href="#rim" fill="#404040"><set attributeName="fill" to="#808080" begin="zoomplus.mouseover" end="zoomplus.mouseout"/></use>
    <path d="M-4,0h8M0,-4v8" fill="none" stroke="white" stroke-width="1.5" pointer-events="none"/>
  </g>
  <g id="zoomMin">
    <use xlink:href="#rim" fill="#404040"><set attributeName="fill" to="#808080" begin="zoomminus.mouseover" end="zoomminus.mouseout"/></use>
    <path d="M-4,0h8" fill="none" stroke="white" stroke-width="1.5" pointer-events="none"/>
  </g>
  <g id="arrowUp" transform="translate(30 24)">
    <use xlink:href="#rim"/>
    <path pointer-events="none" fill="none" stroke="white" stroke-width="1.5" d="M0,-3.0v7 M-2.5,-0.5L0,-3.0L2.5,-0.5"/>
  </g>
  <g id="arrowRight" transform="rotate(90) translate(36 -43)">
    <use xlink:href="#rim"/>
    <path pointer-events="none" fill="none" stroke="white" stroke-width="1.5" d="M0,-3.0v7 M-2.5,-0.5L0,-3.0L2.5,-0.5"/>
  </g>
  <g id="arrowDown" transform="rotate(180) translate(-30 -48)">
    <use xlink:href="#rim"/>
    <path pointer-events="none" fill="none" stroke="white" stroke-width="1.5" d="M0,-3.0v7 M-2.5,-0.5L0,-3.0L2.5,-0.5"/>
  </g>
  <g id="arrowLeft" transform="rotate(270) translate(-36 17)">
    <use xlink:href="#rim"/>
    <path pointer-events="none" fill="none" stroke="white" stroke-width="1.5" d="M0,-3.0v7 M-2.5,-0.5L0,-3.0L2.5,-0.5"/>
  </g>
  <g id="resetDef">
    <use xlink:href="#rim2" fill="#404040"><set attributeName="fill" to="#808080" begin="reset.mouseover" end="reset.mouseout"/></use>
  </g>
</defs>
<script type="application/ecmascript">
var viewWidth = 2671;
var viewHeight = 291;
var sectionId = 'dynsection-0';
</script>
<script type="application/ecmascript" xlink:href="../../svg.min.js"/>
<svg id="graph" class="graph">
<g id="viewport">
<title>include/core/o_string_stream.inl</title>
<!-- Node1 -->
<g id="Node000001" class="node">
<title>Node1</title>
<g id="a_Node000001"><a xlink:title="Inline implementations for toy::OStringStream.">
<polygon fill="#999999" stroke="#666666" points="1692.34,-283 1574.34,-283 1574.34,-253 1692.34,-253 1692.34,-283"/>
<text text-anchor="start" x="1582.34" y="-271" font-family="Helvetica,sans-Serif" font-size="10.00">include/core/o_string</text>
<text text-anchor="middle" x="1633.34" y="-260" font-family="Helvetica,sans-Serif" font-size="10.00">_stream.inl</text>
</a>
</g>
</g>
<!-- Node2 -->
<g id="Node000002" class="node">
<title>Node2</title>
<g id="a_Node000002"><a xlink:href="../../da/d47/core_8hpp.html" target="_top" xlink:title="Umbrella header for the engine core module.">
<polygon fill="white" stroke="#666666" points="1681.84,-217 1584.84,-217 1584.84,-198 1681.84,-198 1681.84,-217"/>
<text text-anchor="middle" x="1633.34" y="-205" font-family="Helvetica,sans-Serif" font-size="10.00">include/core.hpp</text>
</a>
</g>
</g>
<!-- Node1&#45;&gt;Node2 -->
<g id="edge1_Node000001_Node000002" class="edge">
<title>Node1&#45;&gt;Node2</title>
<g id="a_edge1_Node000001_Node000002"><a xlink:title=" ">
<path fill="none" stroke="#63b8ff" d="M1633.34,-242.75C1633.34,-233.72 1633.34,-224.03 1633.34,-217.27"/>
<polygon fill="#63b8ff" stroke="#63b8ff" points="1629.84,-242.84 1633.34,-252.84 1636.84,-242.84 1629.84,-242.84"/>
</a>
</g>
</g>
<!-- Node3 -->
<g id="Node000003" class="node">
<title>Node3</title>
<g id="a_Node000003"><a xlink:href="../../d4/d01/application_8hpp.html" target="_top" xlink:title="Umbrella header for the application module.">
<polygon fill="white" stroke="#666666" points="526.34,-156.5 396.34,-156.5 396.34,-137.5 526.34,-137.5 526.34,-156.5"/>
<text text-anchor="middle" x="461.34" y="-144.5" font-family="Helvetica,sans-Serif" font-size="10.00">include/application.hpp</text>
</a>
</g>
</g>
<!-- Node2&#45;&gt;Node3 -->
<g id="edge2_Node000002_Node000003" class="edge">
<title>Node2&#45;&gt;Node3</title>
<g id="a_edge2_Node000002_Node000003"><a xlink:title=" ">
<path fill="none" stroke="#63b8ff" d="M1574.24,-203.55C1375.71,-193.64 733.54,-161.59 526.4,-151.25"/>
<polygon fill="#63b8ff" stroke="#63b8ff" points="1574.31,-207.06 1584.47,-204.06 1574.66,-200.07 1574.31,-207.06"/>
</a>
</g>
</g>
<!-- Node4 -->
<g id="Node000004" class="node">
<title>Node4</title>
<g id="a_Node000004"><a xlink:href="../../d8/d8c/toygine2_8hpp.html" target="_top" xlink:title="Main umbrella header for the engine.">
<polygon fill="white" stroke="#666666" points="1346.84,-19 1227.84,-19 1227.84,0 1346.84,0 1346.84,-19"/>
<text text-anchor="middle" x="1287.34" y="-7" font-family="Helvetica,sans-Serif" font-size="10.00">include/toygine2.hpp</text>
</a>
</g>
</g>
<!-- Node2&#45;&gt;Node4 -->
<g id="edge26_Node000002_Node000004" class="edge">
<title>Node2&#45;&gt;Node4</title>
<g id="a_edge26_Node000002_Node000004"><a xlink:title=" ">
<path fill="none" stroke="#63b8ff" d="M1574.3,-206.05C1433.17,-203.49 1083.6,-187.82 1024.34,-96 1014.46,-80.69 1012.58,-68.92 1024.34,-55 1049.85,-24.8 1158.34,-15.09 1227.76,-11.97"/>
<polygon fill="#63b8ff" stroke="#63b8ff" points="1574.44,-209.55 1584.49,-206.22 1574.55,-202.56 1574.44,-209.55"/>
</a>
</g>
</g>
<!-- Node11 -->
<g id="Node000011" class="node">
<title>Node11</title>
<g id="a_Node000011"><a xlink:href="../../d1/d71/audio_8hpp.html" target="_top" xlink:title="Umbrella header for the audio module.">
<polygon fill="white" stroke="#666666" points="1136.84,-85 1033.84,-85 1033.84,-66 1136.84,-66 1136.84,-85"/>
<text text-anchor="middle" x="1085.34" y="-73" font-family="Helvetica,sans-Serif" font-size="10.00">include/audio.hpp</text>
</a>
</g>
</g>
<!-- Node2&#45;&gt;Node11 -->
<g id="edge10_Node000002_Node000011" class="edge">
<title>Node2&#45;&gt;Node11</title>
<g id="a_edge10_Node000002_Node000011"><a xlink:title=" ">
<path fill="none" stroke="#63b8ff" d="M1574.45,-206.91C1496.27,-205.87 1354.76,-198.45 1240.34,-162 1182.65,-143.62 1121.96,-102.9 1097.05,-85.1"/>
<polygon fill="#63b8ff" stroke="#63b8ff" points="1574.55,-210.41 1584.59,-207.01 1574.63,-203.41 1574.55,-210.41"/>
</a>
</g>
</g>
<!-- Node12 -->
<g id="Node000012" class="node">
<title>Node12</title>
<g id="a_Node000012"><a xlink:href="../../d8/d39/game_8hpp.html" target="_top" xlink:title="Umbrella header for the game module.">
<polygon fill="white" stroke="#666666" points="1259.34,-85 1155.34,-85 1155.34,-66 1259.34,-66 1259.34,-85"/>
<text text-anchor="middle" x="1207.34" y="-73" font-family="Helvetica,sans-Serif" font-size="10.00">include/game.hpp</text>
</a>
</g>
</g>
<!-- Node2&#45;&gt;Node12 -->
<g id="edge12_Node000002_Node000012" class="edge">
<title>Node2&#45;&gt;Node12</title>
<g id="a_edge12_Node000002_Node000012"><a xlink:title=" ">
<path fill="none" stroke="#63b8ff" d="M1574.68,-204.34C1487.34,-200.26 1328.05,-189.24 1278.34,-162 1245,-143.74 1220.93,-102.95 1211.6,-85.12"/>
<polygon fill="#63b8ff" stroke="#63b8ff" points="1574.55,-207.84 1584.7,-204.79 1574.87,-200.84 1574.55,-207.84"/>
</a>
</g>
</g>
<!-- Node13 -->
<g id="Node000013" class="node">
<title>Node13</title>
<g id="a_Node000013"><a xlink:href="../../d4/d78/math_8hpp.html" target="_top" xlink:title="Umbrella header for the math module.">
<polygon fill="white" stroke="#666666" points="1388.84,-156.5 1287.84,-156.5 1287.84,-137.5 1388.84,-137.5 1388.84,-156.5"/>
<text text-anchor="middle" x="1338.34" y="-144.5" font-family="Helvetica,sans-Serif" font-size="10.00">include/math.hpp</text>
</a>
</g>
</g>
<!-- Node2&#45;&gt;Node13 -->
<g id="edge14_Node000002_Node000013" class="edge">
<title>Node2&#45;&gt;Node13</title>
<g id="a_edge14_Node000002_Node000013"><a xlink:title=" ">
<path fill="none" stroke="#63b8ff" d="M1574.93,-196.15C1527.3,-187.53 1458.33,-174.67 1398.34,-162 1390.38,-160.32 1381.86,-158.4 1373.82,-156.54"/>
<polygon fill="#63b8ff" stroke="#63b8ff" points="1574.6,-199.64 1585.06,-197.97 1575.84,-192.75 1574.6,-199.64"/>
</a>
</g>
</g>
<!-- Node15 -->
<g id="Node000015" class="node">
<title>Node15</title>
<g id="a_Node000015"><a xlink:href="../../d6/d67/network_8hpp.html" target="_top" xlink:title="Umbrella header for the network module.">
<polygon fill="white" stroke="#666666" points="1523.34,-156.5 1407.34,-156.5 1407.34,-137.5 1523.34,-137.5 1523.34,-156.5"/>
<text text-anchor="middle" x="1465.34" y="-144.5" font-family="Helvetica,sans-Serif" font-size="10.00">include/network.hpp</text>
</a>
</g>
</g>
<!-- Node2&#45;&gt;Node15 -->
<g id="edge18_Node000002_Node000015" class="edge">
<title>Node2&#45;&gt;Node15</title>
<g id="a_edge18_Node000002_Node000015"><a xlink:title=" ">
<path fill="none" stroke="#63b8ff" d="M1599.37,-194.67C1566.88,-183.36 1518.67,-166.57 1489.8,-156.52"/>
<polygon fill="#63b8ff" stroke="#63b8ff" points="1598.31,-198.01 1608.91,-197.99 1600.62,-191.4 1598.31,-198.01"/>
</a>
</g>
</g>
<!-- Node17 -->
<g id="Node000017" class="node">
<title>Node17</title>
<g id="a_Node000017"><a xlink:href="../../de/dd6/ui_8hpp.html" target="_top" xlink:title="Umbrella header for platform UI types.">
<polygon fill="white" stroke="#666666" points="1781.34,-85 1651.34,-85 1651.34,-66 1781.34,-66 1781.34,-85"/>
<text text-anchor="middle" x="1716.34" y="-73" font-family="Helvetica,sans-Serif" font-size="10.00">include/platform/ui.hpp</text>
</a>
</g>
</g>
<!-- Node2&#45;&gt;Node17 -->
<g id="edge21_Node000002_Node000017" class="edge">
<title>Node2&#45;&gt;Node17</title>
<g id="a_edge21_Node000002_Node000017"><a xlink:title=" ">
<path fill="none" stroke="#63b8ff" d="M1603.98,-193.22C1591.53,-185.93 1578.3,-175.56 1571.34,-162 1565.25,-150.14 1563.78,-142.98 1571.34,-132 1584.17,-113.35 1642.61,-95.27 1681.26,-85.05"/>
<polygon fill="#63b8ff" stroke="#63b8ff" points="1602.36,-196.32 1612.82,-198 1605.68,-190.16 1602.36,-196.32"/>
</a>
</g>
</g>
<!-- Node18 -->
<g id="Node000018" class="node">
<title>Node18</title>
<g id="a_Node000018"><a xlink:href="../../d6/d4b/render_8hpp.html" target="_top" xlink:title="Umbrella header for the render module.">
<polygon fill="white" stroke="#666666" points="1686.84,-156.5 1579.84,-156.5 1579.84,-137.5 1686.84,-137.5 1686.84,-156.5"/>
<text text-anchor="middle" x="1633.34" y="-144.5" font-family="Helvetica,sans-Serif" font-size="10.00">include/render.hpp</text>
</a>
</g>
</g>
<!-- Node2&#45;&gt;Node18 -->
<g id="edge23_Node000002_Node000018" class="edge">
<title>Node2&#45;&gt;Node18</title>
<g id="a_edge23_Node000002_Node000018"><a xlink:title=" ">
<path fill="none" stroke="#63b8ff" d="M1633.34,-187.66C1633.34,-177.24 1633.34,-164.8 1633.34,-156.67"/>
<polygon fill="#63b8ff" stroke="#63b8ff" points="1629.84,-187.87 1633.34,-197.87 1636.84,-187.87 1629.84,-187.87"/>
</a>
</g>
</g>
<!-- Node20 -->
<g id="Node000020" class="node">
<title>Node20</title>
<g id="a_Node000020"><a xlink:href="../../da/de0/core_8cpp.html" target="_top" xlink:title="Implementation of toy::initialize() and toy::deInitialize() lifecycle functions.">
<polygon fill="white" stroke="#666666" points="1803.84,-156.5 1704.84,-156.5 1704.84,-137.5 1803.84,-137.5 1803.84,-156.5"/>
<text text-anchor="middle" x="1754.34" y="-144.5" font-family="Helvetica,sans-Serif" font-size="10.00">src/core/core.cpp</text>
</a>
</g>
</g>
<!-- Node2&#45;&gt;Node20 -->
<g id="edge27_Node000002_Node000020" class="edge">
<title>Node2&#45;&gt;Node20</title>
<g id="a_edge27_Node000002_Node000020"><a xlink:title=" ">
<path fill="none" stroke="#63b8ff" d="M1659.95,-193.63C1683.29,-182.35 1716.55,-166.27 1736.72,-156.52"/>
<polygon fill="#63b8ff" stroke="#63b8ff" points="1658.41,-190.49 1650.93,-197.99 1661.46,-196.79 1658.41,-190.49"/>
</a>
</g>
</g>
<!-- Node21 -->
<g id="Node000021" class="node">
<title>Node21</title>
<g id="a_Node000021"><a xlink:href="../../db/d2d/hashes_8cpp.html" target="_top" xlink:title="Table&#45;driven implementations of toy::crc8(), toy::crc16(), and toy::crc32().">
<polygon fill="white" stroke="#666666" points="1934.84,-156.5 1821.84,-156.5 1821.84,-137.5 1934.84,-137.5 1934.84,-156.5"/>
<text text-anchor="middle" x="1878.34" y="-144.5" font-family="Helvetica,sans-Serif" font-size="10.00">src/core/hashes.cpp</text>
</a>
</g>
</g>
<!-- Node2&#45;&gt;Node21 -->
<g id="edge28_Node000002_Node000021" class="edge">
<title>Node2&#45;&gt;Node21</title>
<g id="a_edge28_Node000002_Node000021"><a xlink:title=" ">
<path fill="none" stroke="#63b8ff" d="M1678.95,-195.61C1726.3,-184.3 1799.37,-166.85 1842.67,-156.52"/>
<polygon fill="#63b8ff" stroke="#63b8ff" points="1677.88,-192.27 1668.96,-197.99 1679.5,-199.08 1677.88,-192.27"/>
</a>
</g>
</g>
<!-- Node22 -->
<g id="Node000022" class="node">
<title>Node22</title>
<g id="a_Node000022"><a xlink:href="../../d2/d51/log__sink_8cpp.html" target="_top" xlink:title="Out&#45;of&#45;line definitions for toy::log::ISink.">
<polygon fill="white" stroke="#666666" points="2071.84,-156.5 1952.84,-156.5 1952.84,-137.5 2071.84,-137.5 2071.84,-156.5"/>
<text text-anchor="middle" x="2012.34" y="-144.5" font-family="Helvetica,sans-Serif" font-size="10.00">src/core/log_sink.cpp</text>
</a>
</g>
</g>
<!-- Node2&#45;&gt;Node22 -->
<g id="edge29_Node000002_Node000022" class="edge">
<title>Node2&#45;&gt;Node22</title>
<g id="a_edge29_Node000002_Node000022"><a xlink:title=" ">
<path fill="none" stroke="#63b8ff" d="M1692.05,-199.18C1754.71,-191.12 1856.79,-177.26 1944.34,-162 1953.6,-160.39 1963.53,-158.46 1972.86,-156.55"/>
<polygon fill="#63b8ff" stroke="#63b8ff" points="1691.44,-195.73 1681.96,-200.47 1692.33,-202.68 1691.44,-195.73"/>
</a>
</g>
</g>
<!-- Node23 -->
<g id="Node000023" class="node">
<title>Node23</title>
<g id="a_Node000023"><a xlink:href="../../de/d06/utils_8cpp.html" target="_top" xlink:title="Definitions for string, encoding, and number utilities declared in core/utils.hpp.">
<polygon fill="white" stroke="#666666" points="2188.84,-156.5 2089.84,-156.5 2089.84,-137.5 2188.84,-137.5 2188.84,-156.5"/>
<text text-anchor="middle" x="2139.34" y="-144.5" font-family="Helvetica,sans-Serif" font-size="10.00">src/core/utils.cpp</text>
</a>
</g>
</g>
<!-- Node2&#45;&gt;Node23 -->
<g id="edge30_Node000002_Node000023" class="edge">
<title>Node2&#45;&gt;Node23</title>
<g id="a_edge30_Node000002_Node000023"><a xlink:title=" ">
<path fill="none" stroke="#63b8ff" d="M1692.11,-203.25C1778.05,-197.92 1942.86,-185.47 2081.34,-162 2089.81,-160.56 2098.89,-158.59 2107.29,-156.57"/>
<polygon fill="#63b8ff" stroke="#63b8ff" points="1691.79,-199.77 1682.02,-203.87 1692.22,-206.75 1691.79,-199.77"/>
</a>
</g>
</g>
<!-- Node24 -->
<g id="Node000024" class="node">
<title>Node24</title>
<g id="a_Node000024"><a xlink:href="../../df/de5/assertion__linux_8cpp.html" target="_top" xlink:title="Linux implementation of the toy::assertion crash handler and stack trace capture.">
<polygon fill="white" stroke="#666666" points="2345.34,-162 2207.34,-162 2207.34,-132 2345.34,-132 2345.34,-162"/>
<text text-anchor="start" x="2215.34" y="-150" font-family="Helvetica,sans-Serif" font-size="10.00">src/platforms/linux</text>
<text text-anchor="middle" x="2276.34" y="-139" font-family="Helvetica,sans-Serif" font-size="10.00">/core/assertion_linux.cpp</text>
</a>
</g>
</g>
<!-- Node2&#45;&gt;Node24 -->
<g id="edge31_Node000002_Node000024" class="edge">
<title>Node2&#45;&gt;Node24</title>
<g id="a_edge31_Node000002_Node000024"><a xlink:title=" ">
<path fill="none" stroke="#63b8ff" d="M1692.06,-203.79C1794.94,-198.63 2014.36,-185.7 2198.34,-162 2201.2,-161.63 2204.12,-161.23 2207.07,-160.8"/>
<polygon fill="#63b8ff" stroke="#63b8ff" points="1691.69,-200.31 1681.87,-204.3 1692.04,-207.3 1691.69,-200.31"/>
</a>
</g>
</g>
<!-- Node25 -->
<g id="Node000025" class="node">
<title>Node25</title>
<g id="a_Node000025"><a xlink:href="../../d5/d5a/assertion__macos_8cpp.html" target="_top" xlink:title="macOS implementation of the toy::assertion crash handler and stack trace capture.">
<polygon fill="white" stroke="#666666" points="2509.34,-162 2363.34,-162 2363.34,-132 2509.34,-132 2509.34,-162"/>
<text text-anchor="start" x="2371.34" y="-150" font-family="Helvetica,sans-Serif" font-size="10.00">src/platforms/macos</text>
<text text-anchor="middle" x="2436.34" y="-139" font-family="Helvetica,sans-Serif" font-size="10.00">/core/assertion_macos.cpp</text>
</a>
</g>
</g>
<!-- Node2&#45;&gt;Node25 -->
<g id="edge32_Node000002_Node000025" class="edge">
<title>Node2&#45;&gt;Node25</title>
<g id="a_edge32_Node000002_Node000025"><a xlink:title=" ">
<path fill="none" stroke="#63b8ff" d="M1692.36,-205C1815.68,-201.41 2109.51,-190.37 2354.34,-162 2357.21,-161.67 2360.13,-161.3 2363.08,-160.91"/>
<polygon fill="#63b8ff" stroke="#63b8ff" points="1691.92,-201.52 1682.02,-205.3 1692.12,-208.51 1691.92,-201.52"/>
</a>
</g>
</g>
<!-- Node26 -->
<g id="Node000026" class="node">
<title>Node26</title>
<g id="a_Node000026"><a xlink:href="../../d7/d90/assertion__stub_8cpp.html" target="_top" xlink:title="Stub definitions for the assertion callback API declared in core/assertion.hpp.">
<polygon fill="white" stroke="#666666" points="2662.84,-162 2527.84,-162 2527.84,-132 2662.84,-132 2662.84,-162"/>
<text text-anchor="start" x="2535.84" y="-150" font-family="Helvetica,sans-Serif" font-size="10.00">src/platforms/stub</text>
<text text-anchor="middle" x="2595.34" y="-139" font-family="Helvetica,sans-Serif" font-size="10.00">/core/assertion_stub.cpp</text>
</a>
</g>
</g>
<!-- Node2&#45;&gt;Node26 -->
<g id="edge33_Node000002_Node000026" class="edge">
<title>Node2&#45;&gt;Node26</title>
<g id="a_edge33_Node000002_Node000026"><a xlink:title=" ">
<path fill="none" stroke="#63b8ff" d="M1692.21,-206.17C1834.58,-204.8 2208.6,-197.79 2518.34,-162 2521.44,-161.64 2524.61,-161.23 2527.8,-160.79"/>
<polygon fill="#63b8ff" stroke="#63b8ff" points="1691.93,-202.67 1681.97,-206.26 1692,-209.67 1691.93,-202.67"/>
</a>
</g>
</g>
<!-- Node3&#45;&gt;Node4 -->
<g id="edge3_Node000003_Node000004" class="edge">
<title>Node3&#45;&gt;Node4</title>
<g id="a_edge3_Node000003_Node000004"><a xlink:title=" ">
<path fill="none" stroke="#63b8ff" d="M385.88,-143.05C263.77,-137.5 33.96,-123.5 9.34,-96 -2.82,-82.43 -3.32,-68.11 9.34,-55 52.11,-10.71 980.73,-9.77 1227.54,-10.3"/>
<polygon fill="#63b8ff" stroke="#63b8ff" points="385.77,-146.55 395.92,-143.5 386.08,-139.56 385.77,-146.55"/>
</a>
</g>
</g>
<!-- Node5 -->
<g id="Node000005" class="node">
<title>Node5</title>
<g id="a_Node000005"><a xlink:href="../../db/db6/console__application_8cpp.html" target="_top" xlink:title="Implementations for toy::application::ConsoleApplication.">
<polygon fill="white" stroke="#666666" points="146.34,-90.5 18.34,-90.5 18.34,-60.5 146.34,-60.5 146.34,-90.5"/>
<text text-anchor="start" x="26.34" y="-78.5" font-family="Helvetica,sans-Serif" font-size="10.00">src/application/console</text>
<text text-anchor="middle" x="82.34" y="-67.5" font-family="Helvetica,sans-Serif" font-size="10.00">_application.cpp</text>
</a>
</g>
</g>
<!-- Node3&#45;&gt;Node5 -->
<g id="edge4_Node000003_Node000005" class="edge">
<title>Node3&#45;&gt;Node5</title>
<g id="a_edge4_Node000003_Node000005"><a xlink:title=" ">
<path fill="none" stroke="#63b8ff" d="M387.59,-136.04C325.37,-127.14 234.11,-112.91 155.34,-96 147.9,-94.4 140.08,-92.53 132.44,-90.58"/>
<polygon fill="#63b8ff" stroke="#63b8ff" points="387.31,-139.54 397.7,-137.48 388.29,-132.61 387.31,-139.54"/>
</a>
</g>
</g>
<!-- Node6 -->
<g id="Node000006" class="node">
<title>Node6</title>
<g id="a_Node000006"><a xlink:href="../../d0/dbb/core__application_8cpp.html" target="_top" xlink:title="Implementations for toy::application::CoreApplication.">
<polygon fill="white" stroke="#666666" points="276.34,-90.5 164.34,-90.5 164.34,-60.5 276.34,-60.5 276.34,-90.5"/>
<text text-anchor="start" x="172.34" y="-78.5" font-family="Helvetica,sans-Serif" font-size="10.00">src/application/core</text>
<text text-anchor="middle" x="220.34" y="-67.5" font-family="Helvetica,sans-Serif" font-size="10.00">_application.cpp</text>
</a>
</g>
</g>
<!-- Node3&#45;&gt;Node6 -->
<g id="edge5_Node000003_Node000006" class="edge">
<title>Node3&#45;&gt;Node6</title>
<g id="a_edge5_Node000003_Node000006"><a xlink:title=" ">
<path fill="none" stroke="#63b8ff" d="M420.74,-134.65C385.04,-124.62 331.68,-109.53 285.34,-96 279.34,-94.25 273.05,-92.39 266.83,-90.54"/>
<polygon fill="#63b8ff" stroke="#63b8ff" points="420.2,-138.13 430.77,-137.46 422.09,-131.39 420.2,-138.13"/>
</a>
</g>
</g>
<!-- Node7 -->
<g id="Node000007" class="node">
<title>Node7</title>
<g id="a_Node000007"><a xlink:href="../../d0/d8a/core__application__linux_8cpp.html" target="_top" xlink:title="Linux implementations of toy::application::CoreApplication via POSIX APIs.">
<polygon fill="white" stroke="#666666" points="451.84,-96 294.84,-96 294.84,-55 451.84,-55 451.84,-96"/>
<text text-anchor="start" x="302.84" y="-84" font-family="Helvetica,sans-Serif" font-size="10.00">src/platforms/linux</text>
<text text-anchor="start" x="302.84" y="-73" font-family="Helvetica,sans-Serif" font-size="10.00">/application/core_application</text>
<text text-anchor="middle" x="373.34" y="-62" font-family="Helvetica,sans-Serif" font-size="10.00">_linux.cpp</text>
</a>
</g>
</g>
<!-- Node3&#45;&gt;Node7 -->
<g id="edge6_Node000003_Node000007" class="edge">
<title>Node3&#45;&gt;Node7</title>
<g id="a_edge6_Node000003_Node000007"><a xlink:title=" ">
<path fill="none" stroke="#63b8ff" d="M442.39,-131.04C429.48,-120.84 412.26,-107.24 398.25,-96.17"/>
<polygon fill="#63b8ff" stroke="#63b8ff" points="440.53,-134.03 450.55,-137.48 444.87,-128.53 440.53,-134.03"/>
</a>
</g>
</g>
<!-- Node8 -->
<g id="Node000008" class="node">
<title>Node8</title>
<g id="a_Node000008"><a xlink:href="../../d8/d89/core__application__macos_8cpp.html" target="_top" xlink:title="macOS implementations of toy::application::CoreApplication via POSIX APIs.">
<polygon fill="white" stroke="#666666" points="626.84,-96 469.84,-96 469.84,-55 626.84,-55 626.84,-96"/>
<text text-anchor="start" x="477.84" y="-84" font-family="Helvetica,sans-Serif" font-size="10.00">src/platforms/macos</text>
<text text-anchor="start" x="477.84" y="-73" font-family="Helvetica,sans-Serif" font-size="10.00">/application/core_application</text>
<text text-anchor="middle" x="548.34" y="-62" font-family="Helvetica,sans-Serif" font-size="10.00">_macos.cpp</text>
</a>
</g>
</g>
<!-- Node3&#45;&gt;Node8 -->
<g id="edge7_Node000003_Node000008" class="edge">
<title>Node3&#45;&gt;Node8</title>
<g id="a_edge7_Node000003_Node000008"><a xlink:title=" ">
<path fill="none" stroke="#63b8ff" d="M480.07,-131.04C492.83,-120.84 509.85,-107.24 523.71,-96.17"/>
<polygon fill="#63b8ff" stroke="#63b8ff" points="477.63,-128.5 472,-137.48 482,-133.97 477.63,-128.5"/>
</a>
</g>
</g>
<!-- Node9 -->
<g id="Node000009" class="node">
<title>Node9</title>
<g id="a_Node000009"><a xlink:href="../../db/da8/core__application__stub_8cpp.html" target="_top" xlink:title="Stub implementation of toy::application::CoreApplication::sleep() for platforms without OS sleep supp...">
<polygon fill="white" stroke="#666666" points="801.84,-96 644.84,-96 644.84,-55 801.84,-55 801.84,-96"/>
<text text-anchor="start" x="652.84" y="-84" font-family="Helvetica,sans-Serif" font-size="10.00">src/platforms/stub</text>
<text text-anchor="start" x="652.84" y="-73" font-family="Helvetica,sans-Serif" font-size="10.00">/application/core_application</text>
<text text-anchor="middle" x="723.34" y="-62" font-family="Helvetica,sans-Serif" font-size="10.00">_stub.cpp</text>
</a>
</g>
</g>
<!-- Node3&#45;&gt;Node9 -->
<g id="edge8_Node000003_Node000009" class="edge">
<title>Node3&#45;&gt;Node9</title>
<g id="a_edge8_Node000003_Node000009"><a xlink:title=" ">
<path fill="none" stroke="#63b8ff" d="M503.26,-134.88C542.63,-124.43 602.4,-108.58 649.72,-96.03"/>
<polygon fill="#63b8ff" stroke="#63b8ff" points="502.23,-131.53 493.46,-137.48 504.03,-138.3 502.23,-131.53"/>
</a>
</g>
</g>
<!-- Node10 -->
<g id="Node000010" class="node">
<title>Node10</title>
<g id="a_Node000010"><a xlink:href="../../dc/d2d/core__application__windows_8cpp.html" target="_top" xlink:title="Windows implementations of toy::application::CoreApplication via Win32 APIs.">
<polygon fill="white" stroke="#666666" points="976.84,-96 819.84,-96 819.84,-55 976.84,-55 976.84,-96"/>
<text text-anchor="start" x="827.84" y="-84" font-family="Helvetica,sans-Serif" font-size="10.00">src/platforms/windows</text>
<text text-anchor="start" x="827.84" y="-73" font-family="Helvetica,sans-Serif" font-size="10.00">/application/core_application</text>
<text text-anchor="middle" x="898.34" y="-62" font-family="Helvetica,sans-Serif" font-size="10.00">_windows.cpp</text>
</a>
</g>
</g>
<!-- Node3&#45;&gt;Node10 -->
<g id="edge9_Node000003_Node000010" class="edge">
<title>Node3&#45;&gt;Node10</title>
<g id="a_edge9_Node000003_Node000010"><a xlink:title=" ">
<path fill="none" stroke="#63b8ff" d="M536.71,-136.88C607.58,-127.9 716.5,-113.09 810.34,-96 813.42,-95.44 816.55,-94.85 819.71,-94.23"/>
<polygon fill="#63b8ff" stroke="#63b8ff" points="536.03,-133.44 526.54,-138.16 536.9,-140.38 536.03,-133.44"/>
</a>
</g>
</g>
<!-- Node11&#45;&gt;Node4 -->
<g id="edge11_Node000011_Node000004" class="edge">
<title>Node11&#45;&gt;Node4</title>
<g id="a_edge11_Node000011_Node000004"><a xlink:title=" ">
<path fill="none" stroke="#63b8ff" d="M1121.66,-62.86C1129.78,-60.27 1138.35,-57.54 1146.34,-55 1185.97,-42.41 1231.91,-27.93 1260.3,-19"/>
<polygon fill="#63b8ff" stroke="#63b8ff" points="1120.51,-59.56 1112.05,-65.94 1122.64,-66.22 1120.51,-59.56"/>
</a>
</g>
</g>
<!-- Node12&#45;&gt;Node4 -->
<g id="edge13_Node000012_Node000004" class="edge">
<title>Node12&#45;&gt;Node4</title>
<g id="a_edge13_Node000012_Node000004"><a xlink:title=" ">
<path fill="none" stroke="#63b8ff" d="M1226.1,-59.49C1241.76,-46.96 1263.54,-29.54 1276.46,-19.2"/>
<polygon fill="#63b8ff" stroke="#63b8ff" points="1223.75,-56.89 1218.13,-65.87 1228.12,-62.35 1223.75,-56.89"/>
</a>
</g>
</g>
<!-- Node13&#45;&gt;Node4 -->
<g id="edge17_Node000013_Node000004" class="edge">
<title>Node13&#45;&gt;Node4</title>
<g id="a_edge17_Node000013_Node000004"><a xlink:title=" ">
<path fill="none" stroke="#63b8ff" d="M1325.34,-129.01C1318.78,-119.71 1311.2,-107.71 1306.34,-96 1295.19,-69.18 1290.1,-34.79 1288.23,-19.05"/>
<polygon fill="#63b8ff" stroke="#63b8ff" points="1322.69,-131.32 1331.42,-137.32 1328.34,-127.18 1322.69,-131.32"/>
</a>
</g>
</g>
<!-- Node14 -->
<g id="Node000014" class="node">
<title>Node14</title>
<g id="a_Node000014"><a xlink:href="../../db/dbb/geometry_8hpp.html" target="_top" xlink:title="Umbrella header for the geometry module.">
<polygon fill="white" stroke="#666666" points="1437.34,-85 1315.34,-85 1315.34,-66 1437.34,-66 1437.34,-85"/>
<text text-anchor="middle" x="1376.34" y="-73" font-family="Helvetica,sans-Serif" font-size="10.00">include/geometry.hpp</text>
</a>
</g>
</g>
<!-- Node13&#45;&gt;Node14 -->
<g id="edge15_Node000013_Node000014" class="edge">
<title>Node13&#45;&gt;Node14</title>
<g id="a_edge15_Node000013_Node000014"><a xlink:title=" ">
<path fill="none" stroke="#63b8ff" d="M1347.94,-128.43C1355.52,-114.58 1365.75,-95.86 1371.64,-85.09"/>
<polygon fill="#63b8ff" stroke="#63b8ff" points="1344.72,-127.02 1343,-137.48 1350.86,-130.38 1344.72,-127.02"/>
</a>
</g>
</g>
<!-- Node14&#45;&gt;Node4 -->
<g id="edge16_Node000014_Node000004" class="edge">
<title>Node14&#45;&gt;Node4</title>
<g id="a_edge16_Node000014_Node000004"><a xlink:title=" ">
<path fill="none" stroke="#63b8ff" d="M1355.94,-59.83C1338.49,-47.28 1313.94,-29.63 1299.43,-19.2"/>
<polygon fill="#63b8ff" stroke="#63b8ff" points="1354.17,-62.87 1364.33,-65.87 1358.26,-57.19 1354.17,-62.87"/>
</a>
</g>
</g>
<!-- Node15&#45;&gt;Node4 -->
<g id="edge19_Node000015_Node000004" class="edge">
<title>Node15&#45;&gt;Node4</title>
<g id="a_edge19_Node000015_Node000004"><a xlink:title=" ">
<path fill="none" stroke="#63b8ff" d="M1466.73,-127.22C1467.18,-106.81 1464.57,-74.5 1446.34,-55 1420.98,-27.89 1380.59,-16.82 1346.87,-12.5"/>
<polygon fill="#63b8ff" stroke="#63b8ff" points="1463.23,-127.27 1466.23,-137.43 1470.22,-127.61 1463.23,-127.27"/>
</a>
</g>
</g>
<!-- Node16 -->
<g id="Node000016" class="node">
<title>Node16</title>
<g id="a_Node000016"><a xlink:href="../../d3/d80/endpoint_8cpp.html" target="_top" xlink:title="Definitions for the toy::network::Endpoint destructor declared in network/endpoint....">
<polygon fill="white" stroke="#666666" points="1633.34,-85 1493.34,-85 1493.34,-66 1633.34,-66 1633.34,-85"/>
<text text-anchor="middle" x="1563.34" y="-73" font-family="Helvetica,sans-Serif" font-size="10.00">src/network/endpoint.cpp</text>
</a>
</g>
</g>
<!-- Node15&#45;&gt;Node16 -->
<g id="edge20_Node000015_Node000016" class="edge">
<title>Node15&#45;&gt;Node16</title>
<g id="a_edge20_Node000015_Node000016"><a xlink:title=" ">
<path fill="none" stroke="#63b8ff" d="M1485.69,-131.57C1505.47,-117.54 1534.86,-96.7 1551.22,-85.09"/>
<polygon fill="#63b8ff" stroke="#63b8ff" points="1483.49,-128.84 1477.35,-137.48 1487.54,-134.55 1483.49,-128.84"/>
</a>
</g>
</g>
<!-- Node17&#45;&gt;Node4 -->
<g id="edge22_Node000017_Node000004" class="edge">
<title>Node17&#45;&gt;Node4</title>
<g id="a_edge22_Node000017_Node000004"><a xlink:title=" ">
<path fill="none" stroke="#63b8ff" d="M1677.41,-63.2C1666.16,-60.22 1653.82,-57.22 1642.34,-55 1539.43,-35.08 1417.94,-22.09 1347.08,-15.54"/>
<polygon fill="#63b8ff" stroke="#63b8ff" points="1676.8,-66.67 1687.37,-65.91 1678.64,-59.91 1676.8,-66.67"/>
</a>
</g>
</g>
<!-- Node18&#45;&gt;Node4 -->
<g id="edge24_Node000018_Node000004" class="edge">
<title>Node18&#45;&gt;Node4</title>
<g id="a_edge24_Node000018_Node000004"><a xlink:title=" ">
<path fill="none" stroke="#63b8ff" d="M1677.12,-134.88C1721.12,-123.27 1783.43,-105.45 1790.34,-96 1801.09,-81.29 1802.64,-68.44 1790.34,-55 1760.92,-22.87 1474,-13.81 1347.14,-11.36"/>
<polygon fill="#63b8ff" stroke="#63b8ff" points="1675.99,-131.56 1667.2,-137.48 1677.76,-138.33 1675.99,-131.56"/>
</a>
</g>
</g>
<!-- Node19 -->
<g id="Node000019" class="node">
<title>Node19</title>
<g id="a_Node000019"><a xlink:href="../../db/d3d/pixel__format_8cpp.html" target="_top" xlink:title="Definitions for pixelFormatName() and pixelFormatFromName() declared in render/pixel_format....">
<polygon fill="white" stroke="#666666" points="1987.34,-85 1837.34,-85 1837.34,-66 1987.34,-66 1987.34,-85"/>
<text text-anchor="middle" x="1912.34" y="-73" font-family="Helvetica,sans-Serif" font-size="10.00">src/render/pixel_format.cpp</text>
</a>
</g>
</g>
<!-- Node18&#45;&gt;Node19 -->
<g id="edge25_Node000018_Node000019" class="edge">
<title>Node18&#45;&gt;Node19</title>
<g id="a_edge25_Node000018_Node000019"><a xlink:title=" ">
<path fill="none" stroke="#63b8ff" d="M1677.45,-135.01C1733,-121.17 1827.27,-97.69 1877.85,-85.09"/>
<polygon fill="#63b8ff" stroke="#63b8ff" points="1676.41,-131.66 1667.55,-137.48 1678.1,-138.46 1676.41,-131.66"/>
</a>
</g>
</g>
</g>
</svg>

<g id="navigator" transform="translate(0 0)" fill="#404254">
  <rect fill="#f2f5e9" fill-opacity="0.5" stroke="#606060" stroke-width=".5" x="0" y="0" width="60" height="60"/>
  <use id="zoomplus" xlink:href="#zoomPlus" x="17" y="9" onmousedown="handleZoom(evt,'in')"/>
  <use id="zoomminus" xlink:href="#zoomMin" x="42" y="9" onmousedown="handleZoom(evt,'out')"/>
  <use id="reset" xlink:href="#resetDef" x="30" y="36" onmousedown="handleReset()"/>
   <use id="arrowup" xlink:href="#arrowUp" x="0" y="0" onmousedown="handlePan(0,-1)"/>
  <use id="arrowright" xlink:href="#arrowRight" x="0" y="0" onmousedown="handlePan(1,0)"/>
  <use id="arrowdown" xlink:href="#arrowDown" x="0" y="0" onmousedown="handlePan(0,1)"/>
  <use id="arrowleft" xlink:href="#arrowLeft" x="0" y="0" onmousedown="handlePan(-1,0)"/>
</g>
<svg viewBox="0 0 15 15" width="100%" height="30px" preserveAspectRatio="xMaxYMin meet">
 <g id="arrow_out" transform="scale(0.3 0.3)">
  <a xlink:href="o__string__stream_8inl__dep__incl_org.svg" target="_base">
   <rect id="button" ry="5" rx="5" y="6" x="6" height="38" width="38"
        fill="#f2f5e9" fill-opacity="0.5" stroke="#606060" stroke-width="1.0"/>
   <path id="arrow"
     d="M 11.500037,31.436501 C 11.940474,20.09759 22.043105,11.32322 32.158766,21.979434 L 37.068811,17.246167 C 37.068811,17.246167 37.088388,32 37.088388,32 L 22.160133,31.978069 C 22.160133,31.978069 26.997745,27.140456 26.997745,27.140456 C 18.528582,18.264221 13.291696,25.230495 11.500037,31.436501 z"
     style="fill:#404040;"/>
  </a>
 </g>
</svg>

<style type='text/css'>
<![CDATA[
[data-mouse-over-selected='false'] { opacity: 0.7; }
[data-mouse-over-selected='true']  { opacity: 1.0; }
]]>
</style>
<script type="application/ecmascript"><![CDATA[
document.addEventListener('DOMContentLoaded', (event) => {
  highlightEdges();
  highlightAdjacentNodes();
});
]]></script>
</svg>
