<?xml version="1.0" encoding="UTF-8" standalone="no"?>
<!DOCTYPE svg PUBLIC "-//W3C//DTD SVG 1.1//EN"
 "http://www.w3.org/Graphics/SVG/1.1/DTD/svg11.dtd">
<!-- Generated by graphviz version 2.43.0 (0)
 -->
<!-- Title: toy::chrono::CalendarTimeFormat Pages: 1 -->
<svg width="268pt" height="110pt"
 viewBox="0.00 0.00 268.00 110.00" xmlns="http://www.w3.org/2000/svg" xmlns:xlink="http://www.w3.org/1999/xlink">
<g id="page0,1_graph0" class="graph" transform="scale(1 1) rotate(0) translate(4 106)">
<title>toy::chrono::CalendarTimeFormat</title>
<!-- Node1 -->
<g id="Node000001" class="node">
<title>Node1</title>
<g id="a_Node000001"><a xlink:title="Pairs a toy::chrono::CalendarTime with a null&#45;terminated display pattern.">
<polygon fill="#999999" stroke="#666666" points="190,-30 45,-30 45,0 190,0 190,-30"/>
<text text-anchor="start" x="53" y="-18" font-family="Helvetica,sans-Serif" font-size="10.00">toy::chrono::CalendarTime</text>
<text text-anchor="middle" x="117.5" y="-7" font-family="Helvetica,sans-Serif" font-size="10.00">Format</text>
</a>
</g>
</g>
<!-- Node2 -->
<g id="Node000002" class="node">
<title>Node2</title>
<g id="a_Node000002"><a xlink:href="../../d5/d03/classtoy_1_1_c_string_view.html" target="_top" xlink:title="Non&#45;owning string view class for C&#45;style strings.">
<polygon fill="white" stroke="#666666" points="97,-102 0,-102 0,-83 97,-83 97,-102"/>
<text text-anchor="middle" x="48.5" y="-90" font-family="Helvetica,sans-Serif" font-size="10.00">toy::CStringView</text>
</a>
</g>
</g>
<!-- Node2&#45;&gt;Node1 -->
<g id="edge1_Node000001_Node000002" class="edge">
<title>Node2&#45;&gt;Node1</title>
<g id="a_edge1_Node000001_Node000002"><a xlink:title=" ">
<path fill="none" stroke="#9a32cd" stroke-dasharray="5,2" d="M63.31,-75.3C75.56,-61.89 92.8,-43.03 104.52,-30.21"/>
<polygon fill="#9a32cd" stroke="#9a32cd" points="60.58,-73.1 56.42,-82.84 65.74,-77.82 60.58,-73.1"/>
</a>
</g>
<text text-anchor="start" x="90.5" y="-53.5" font-family="Helvetica,sans-Serif" font-size="10.00" fill="grey">pattern</text>
</g>
<!-- Node3 -->
<g id="Node000003" class="node">
<title>Node3</title>
<g id="a_Node000003"><a xlink:href="../../d7/dde/structtoy_1_1chrono_1_1_calendar_time.html" target="_top" xlink:title="Broken&#45;down local calendar date and time with millisecond resolution.">
<polygon fill="white" stroke="#666666" points="260,-102 115,-102 115,-83 260,-83 260,-102"/>
<text text-anchor="middle" x="187.5" y="-90" font-family="Helvetica,sans-Serif" font-size="10.00">toy::chrono::CalendarTime</text>
</a>
</g>
</g>
<!-- Node3&#45;&gt;Node1 -->
<g id="edge2_Node000001_Node000003" class="edge">
<title>Node3&#45;&gt;Node1</title>
<g id="a_edge2_Node000001_Node000003"><a xlink:title=" ">
<path fill="none" stroke="#9a32cd" stroke-dasharray="5,2" d="M172.48,-75.3C160.05,-61.89 142.56,-43.03 130.67,-30.21"/>
<polygon fill="#9a32cd" stroke="#9a32cd" points="170.1,-77.89 179.47,-82.84 175.24,-73.13 170.1,-77.89"/>
</a>
</g>
<text text-anchor="start" x="166" y="-53.5" font-family="Helvetica,sans-Serif" font-size="10.00" fill="grey">calendarTime</text>
</g>
</g>
</svg>
