<?xml version="1.0" encoding="UTF-8" standalone="no"?>
<!DOCTYPE svg PUBLIC "-//W3C//DTD SVG 1.1//EN"
 "http://www.w3.org/Graphics/SVG/1.1/DTD/svg11.dtd">
<!-- Generated by graphviz version 2.43.0 (0)
 -->
<!-- Title: toy::_floatPostProcess Pages: 1 -->
<svg width="223pt" height="64pt"
 viewBox="0.00 0.00 223.00 64.00" xmlns="http://www.w3.org/2000/svg" xmlns:xlink="http://www.w3.org/1999/xlink">
<g id="graph0" class="graph" transform="scale(1 1) rotate(0) translate(4 60)">
<title>toy::_floatPostProcess</title>
<!-- Node1 -->
<g id="Node000001" class="node">
<title>Node1</title>
<g id="a_Node000001"><a xlink:title="Processes a string representation of a floating&#45;point number, adjusting the exponent,...">
<polygon fill="#999999" stroke="#666666" points="215,-37 92,-37 92,-18 215,-18 215,-37"/>
<text text-anchor="middle" x="153.5" y="-25" font-family="Helvetica,sans-Serif" font-size="10.00">toy::_floatPostProcess</text>
</a>
</g>
</g>
<!-- Node2 -->
<g id="Node000002" class="node">
<title>Node2</title>
<g id="a_Node000002"><a xlink:href="../../d4/da9/namespacetoy.html#a153b39b476aa91d0b98f6350eeae88a2" target="_top" xlink:title="Converts a 64&#45;bit floating&#45;point number to its C string representation with specified precision.">
<polygon fill="white" stroke="#666666" points="56,-56 0,-56 0,-37 56,-37 56,-56"/>
<text text-anchor="middle" x="28" y="-44" font-family="Helvetica,sans-Serif" font-size="10.00">toy::ftoa</text>
</a>
</g>
</g>
<!-- Node1&#45;&gt;Node2 -->
<g id="edge1_Node000001_Node000002" class="edge">
<title>Node1&#45;&gt;Node2</title>
<g id="a_edge1_Node000001_Node000002"><a xlink:title=" ">
<path fill="none" stroke="#63b8ff" d="M81.85,-38.37C72.7,-39.78 63.83,-41.14 56.04,-42.34"/>
<polygon fill="#63b8ff" stroke="#63b8ff" points="82.48,-41.81 91.84,-36.83 81.42,-34.89 82.48,-41.81"/>
</a>
</g>
</g>
<!-- Node3 -->
<g id="Node000003" class="node">
<title>Node3</title>
<g id="a_Node000003"><a xlink:href="../../d4/da9/namespacetoy.html#abd6a34c77550e2f8649d30d8ef1c1904" target="_top" xlink:title="Converts a 32&#45;bit floating&#45;point number to its C string representation with specified precision.">
<polygon fill="white" stroke="#666666" points="56,-19 0,-19 0,0 56,0 56,-19"/>
<text text-anchor="middle" x="28" y="-7" font-family="Helvetica,sans-Serif" font-size="10.00">toy::ftoa</text>
</a>
</g>
</g>
<!-- Node1&#45;&gt;Node3 -->
<g id="edge2_Node000001_Node000003" class="edge">
<title>Node1&#45;&gt;Node3</title>
<g id="a_edge2_Node000001_Node000003"><a xlink:title=" ">
<path fill="none" stroke="#63b8ff" d="M81.85,-17.2C72.7,-15.87 63.83,-14.58 56.04,-13.44"/>
<polygon fill="#63b8ff" stroke="#63b8ff" points="81.44,-20.68 91.84,-18.66 82.44,-13.75 81.44,-20.68"/>
</a>
</g>
</g>
</g>
</svg>
