<?xml version="1.0" encoding="UTF-8" standalone="no"?>
<!DOCTYPE svg PUBLIC "-//W3C//DTD SVG 1.1//EN"
 "http://www.w3.org/Graphics/SVG/1.1/DTD/svg11.dtd">
<!-- Generated by graphviz version 2.43.0 (0)
 -->
<!-- Title: toy::ftoa Pages: 1 -->
<svg width="366pt" height="64pt"
 viewBox="0.00 0.00 366.00 64.00" xmlns="http://www.w3.org/2000/svg" xmlns:xlink="http://www.w3.org/1999/xlink">
<g id="graph0" class="graph" transform="scale(1 1) rotate(0) translate(4 60)">
<title>toy::ftoa</title>
<!-- Node1 -->
<g id="Node000001" class="node">
<title>Node1</title>
<g id="a_Node000001"><a xlink:title="Converts a 64&#45;bit floating&#45;point number to its C string representation with specified precision.">
<polygon fill="#999999" stroke="#666666" points="56,-37 0,-37 0,-18 56,-18 56,-37"/>
<text text-anchor="middle" x="28" y="-25" font-family="Helvetica,sans-Serif" font-size="10.00">toy::ftoa</text>
</a>
</g>
</g>
<!-- Node2 -->
<g id="Node000002" class="node">
<title>Node2</title>
<g id="a_Node000002"><a xlink:href="../../d4/da9/namespacetoy.html#a1398396b240f9a663cdedc2a077edfb3" target="_top" xlink:title="Processes a string representation of a floating&#45;point number, adjusting the exponent,...">
<polygon fill="white" stroke="#666666" points="215,-56 92,-56 92,-37 215,-37 215,-56"/>
<text text-anchor="middle" x="153.5" y="-44" font-family="Helvetica,sans-Serif" font-size="10.00">toy::_floatPostProcess</text>
</a>
</g>
</g>
<!-- Node1&#45;&gt;Node2 -->
<g id="edge1_Node000001_Node000002" class="edge">
<title>Node1&#45;&gt;Node2</title>
<g id="a_edge1_Node000001_Node000002"><a xlink:title=" ">
<path fill="none" stroke="#63b8ff" d="M56.1,-31.67C63.87,-32.86 72.72,-34.23 81.84,-35.63"/>
<polygon fill="#63b8ff" stroke="#63b8ff" points="81.38,-39.1 91.8,-37.16 82.45,-32.18 81.38,-39.1"/>
</a>
</g>
</g>
<!-- Node4 -->
<g id="Node000004" class="node">
<title>Node4</title>
<g id="a_Node000004"><a xlink:href="../../d4/da9/namespacetoy.html#a23cb859f41bbfdd0562927582baec660" target="_top" xlink:title="Converts a 64&#45;bit floating&#45;point number to its string representation with specified precision.">
<polygon fill="white" stroke="#666666" points="207,-19 100,-19 100,0 207,0 207,-19"/>
<text text-anchor="middle" x="153.5" y="-7" font-family="Helvetica,sans-Serif" font-size="10.00">toy::_ftoa64Engine</text>
</a>
</g>
</g>
<!-- Node1&#45;&gt;Node4 -->
<g id="edge3_Node000001_Node000004" class="edge">
<title>Node1&#45;&gt;Node4</title>
<g id="a_edge3_Node000001_Node000004"><a xlink:title=" ">
<path fill="none" stroke="#63b8ff" d="M56.1,-23.55C66.09,-22.09 77.86,-20.38 89.68,-18.66"/>
<polygon fill="#63b8ff" stroke="#63b8ff" points="90.2,-22.12 99.59,-17.21 89.19,-15.19 90.2,-22.12"/>
</a>
</g>
</g>
<!-- Node3 -->
<g id="Node000003" class="node">
<title>Node3</title>
<g id="a_Node000003"><a xlink:href="../../d4/da9/namespacetoy.html#ad95906de2f58b602b9ee9f16708f15b4" target="_top" xlink:title="Divides a given 32&#45;bit unsigned integer by 10 and returns the quotient and remainder.">
<polygon fill="white" stroke="#666666" points="353.5,-56 255.5,-56 255.5,-37 353.5,-37 353.5,-56"/>
<text text-anchor="middle" x="304.5" y="-44" font-family="Helvetica,sans-Serif" font-size="10.00">toy::_divModU10</text>
</a>
</g>
</g>
<!-- Node2&#45;&gt;Node3 -->
<g id="edge2_Node000002_Node000003" class="edge">
<title>Node2&#45;&gt;Node3</title>
<g id="a_edge2_Node000002_Node000003"><a xlink:title=" ">
<path fill="none" stroke="#63b8ff" d="M215.1,-46.5C225.03,-46.5 235.3,-46.5 245.17,-46.5"/>
<polygon fill="#63b8ff" stroke="#63b8ff" points="245.28,-50 255.28,-46.5 245.28,-43 245.28,-50"/>
</a>
</g>
</g>
<!-- Node5 -->
<g id="Node000005" class="node">
<title>Node5</title>
<g id="a_Node000005"><a xlink:href="../../d4/da9/namespacetoy.html#a5c08dafb841b59caed6996f17b8baebc" target="_top" xlink:title="Converts a floating&#45;point number to its string representation in a specified precision.">
<polygon fill="white" stroke="#666666" points="358,-19 251,-19 251,0 358,0 358,-19"/>
<text text-anchor="middle" x="304.5" y="-7" font-family="Helvetica,sans-Serif" font-size="10.00">toy::_ftoa32Engine</text>
</a>
</g>
</g>
<!-- Node4&#45;&gt;Node5 -->
<g id="edge4_Node000004_Node000005" class="edge">
<title>Node4&#45;&gt;Node5</title>
<g id="a_edge4_Node000004_Node000005"><a xlink:title=" ">
<path fill="none" stroke="#63b8ff" d="M207.03,-9.5C217.94,-9.5 229.53,-9.5 240.76,-9.5"/>
<polygon fill="#63b8ff" stroke="#63b8ff" points="240.94,-13 250.94,-9.5 240.94,-6 240.94,-13"/>
</a>
</g>
</g>
</g>
</svg>
