<?xml version="1.0" encoding="UTF-8" standalone="no"?>
<!DOCTYPE svg PUBLIC "-//W3C//DTD SVG 1.1//EN"
 "http://www.w3.org/Graphics/SVG/1.1/DTD/svg11.dtd">
<!-- Generated by graphviz version 14.1.2 (0)
 -->
<!-- Title: include/platform/ui/window_show_state.hpp Pages: 1 -->
<svg width="146pt" height="155pt"
 viewBox="0.00 0.00 146.00 155.00" xmlns="http://www.w3.org/2000/svg" xmlns:xlink="http://www.w3.org/1999/xlink">
<g id="page0,1_graph0" class="graph" transform="scale(1 1) rotate(0) translate(4 151)">
<title>include/platform/ui/window_show_state.hpp</title>
<!-- Node1 -->
<g id="Node000001" class="node">
<title>Node1</title>
<g id="a_Node000001"><a xlink:title="Window visibility and display state enumeration.">
<polygon fill="#999999" stroke="#666666" points="138.25,-147 0,-147 0,-113.5 138.25,-113.5 138.25,-147"/>
<text xml:space="preserve" text-anchor="start" x="8" y="-133.5" font-family="Helvetica,sans-Serif" font-size="10.00">include/platform/ui</text>
<text xml:space="preserve" text-anchor="middle" x="69.12" y="-120.75" font-family="Helvetica,sans-Serif" font-size="10.00">/window_show_state.hpp</text>
</a>
</g>
</g>
<!-- Node2 -->
<g id="Node000002" class="node">
<title>Node2</title>
<g id="a_Node000002"><a xlink:href="../../de/dd6/ui_8hpp.html" target="_top" xlink:title="Umbrella header for platform UI types.">
<polygon fill="white" stroke="#666666" points="133.75,-77.5 4.5,-77.5 4.5,-56.75 133.75,-56.75 133.75,-77.5"/>
<text xml:space="preserve" text-anchor="middle" x="69.12" y="-64" font-family="Helvetica,sans-Serif" font-size="10.00">include/platform/ui.hpp</text>
</a>
</g>
</g>
<!-- Node1&#45;&gt;Node2 -->
<g id="edge1_Node000001_Node000002" class="edge">
<title>Node1&#45;&gt;Node2</title>
<g id="a_edge1_Node000001_Node000002"><a xlink:title=" ">
<path fill="none" stroke="#63b8ff" d="M69.12,-101.69C69.12,-93.21 69.12,-84.42 69.12,-77.97"/>
<polygon fill="#63b8ff" stroke="#63b8ff" points="65.63,-101.68 69.13,-111.68 72.63,-101.68 65.63,-101.68"/>
</a>
</g>
</g>
<!-- Node3 -->
<g id="Node000003" class="node">
<title>Node3</title>
<g id="a_Node000003"><a xlink:href="../../d8/d8c/toygine2_8hpp.html" target="_top" xlink:title="Main umbrella header for the engine.">
<polygon fill="white" stroke="#666666" points="128.12,-20.75 10.12,-20.75 10.12,0 128.12,0 128.12,-20.75"/>
<text xml:space="preserve" text-anchor="middle" x="69.12" y="-7.25" font-family="Helvetica,sans-Serif" font-size="10.00">include/toygine2.hpp</text>
</a>
</g>
</g>
<!-- Node2&#45;&gt;Node3 -->
<g id="edge2_Node000002_Node000003" class="edge">
<title>Node2&#45;&gt;Node3</title>
<g id="a_edge2_Node000002_Node000003"><a xlink:title=" ">
<path fill="none" stroke="#63b8ff" d="M69.12,-44.88C69.12,-36.66 69.12,-27.68 69.12,-21.08"/>
<polygon fill="#63b8ff" stroke="#63b8ff" points="65.63,-44.82 69.13,-54.82 72.63,-44.82 65.63,-44.82"/>
</a>
</g>
</g>
</g>
</svg>
