<?xml version="1.0" encoding="UTF-8" standalone="no"?>
<!DOCTYPE svg PUBLIC "-//W3C//DTD SVG 1.1//EN"
 "http://www.w3.org/Graphics/SVG/1.1/DTD/svg11.dtd">
<!-- Generated by graphviz version 2.43.0 (0)
 -->
<!-- Title: src/platforms/stub/core/assertion_stub.cpp Pages: 1 -->
<!--zoomable 236 -->

<svg id="main" version="1.1" xmlns="http://www.w3.org/2000/svg" xmlns:xlink="http://www.w3.org/1999/xlink" xml:space="preserve" onload="init(evt)">

<style type="text/css"><![CDATA[
.node, .edge {opacity: 0.7;}
.node.selected, .edge.selected {opacity: 1;}
.edge:hover path { stroke: red; }
.edge:hover polygon { stroke: red; fill: red; }
]]></style>

<defs>
  <circle id="rim" cx="0" cy="0" r="7"/>
  <circle id="rim2" cx="0" cy="0" r="3.5"/>
  <g id="zoomPlus">
    <use xlink:href="#rim" fill="#404040"><set attributeName="fill" to="#808080" begin="zoomplus.mouseover" end="zoomplus.mouseout"/></use>
    <path d="M-4,0h8M0,-4v8" fill="none" stroke="white" stroke-width="1.5" pointer-events="none"/>
  </g>
  <g id="zoomMin">
    <use xlink:href="#rim" fill="#404040"><set attributeName="fill" to="#808080" begin="zoomminus.mouseover" end="zoomminus.mouseout"/></use>
    <path d="M-4,0h8" fill="none" stroke="white" stroke-width="1.5" pointer-events="none"/>
  </g>
  <g id="arrowUp" transform="translate(30 24)">
    <use xlink:href="#rim"/>
    <path pointer-events="none" fill="none" stroke="white" stroke-width="1.5" d="M0,-3.0v7 M-2.5,-0.5L0,-3.0L2.5,-0.5"/>
  </g>
  <g id="arrowRight" transform="rotate(90) translate(36 -43)">
    <use xlink:href="#rim"/>
    <path pointer-events="none" fill="none" stroke="white" stroke-width="1.5" d="M0,-3.0v7 M-2.5,-0.5L0,-3.0L2.5,-0.5"/>
  </g>
  <g id="arrowDown" transform="rotate(180) translate(-30 -48)">
    <use xlink:href="#rim"/>
    <path pointer-events="none" fill="none" stroke="white" stroke-width="1.5" d="M0,-3.0v7 M-2.5,-0.5L0,-3.0L2.5,-0.5"/>
  </g>
  <g id="arrowLeft" transform="rotate(270) translate(-36 17)">
    <use xlink:href="#rim"/>
    <path pointer-events="none" fill="none" stroke="white" stroke-width="1.5" d="M0,-3.0v7 M-2.5,-0.5L0,-3.0L2.5,-0.5"/>
  </g>
  <g id="resetDef">
    <use xlink:href="#rim2" fill="#404040"><set attributeName="fill" to="#808080" begin="reset.mouseover" end="reset.mouseout"/></use>
  </g>
</defs>
<script type="application/ecmascript">
var viewWidth = 3015;
var viewHeight = 236;
var sectionId = 'dynsection-0';
</script>
<script type="application/ecmascript" xlink:href="../../svg.min.js"/>
<svg id="graph" class="graph">
<g id="viewport">
<title>src/platforms/stub/core/assertion_stub.cpp</title>
<!-- Node1 -->
<g id="Node000001" class="node">
<title>Node1</title>
<g id="a_Node000001"><a xlink:title="Stub implementation of assertion system for platforms without native assertion support.">
<polygon fill="#999999" stroke="#666666" points="550.5,-228 415.5,-228 415.5,-198 550.5,-198 550.5,-228"/>
<text text-anchor="start" x="423.5" y="-216" font-family="Helvetica,sans-Serif" font-size="10.00">src/platforms/stub</text>
<text text-anchor="middle" x="483" y="-205" font-family="Helvetica,sans-Serif" font-size="10.00">/core/assertion_stub.cpp</text>
</a>
</g>
</g>
<!-- Node2 -->
<g id="Node000002" class="node">
<title>Node2</title>
<g id="a_Node000002"><a xlink:title=" ">
<polygon fill="#e0e0e0" stroke="#999999" points="455,-162 409,-162 409,-143 455,-143 455,-162"/>
<text text-anchor="middle" x="432" y="-150" font-family="Helvetica,sans-Serif" font-size="10.00">cstdio</text>
</a>
</g>
</g>
<!-- Node1&#45;&gt;Node2 -->
<g id="edge1_Node000001_Node000002" class="edge">
<title>Node1&#45;&gt;Node2</title>
<g id="a_edge1_Node000001_Node000002"><a xlink:title=" ">
<path fill="none" stroke="#63b8ff" d="M470.65,-197.84C463.33,-189.43 454,-178.74 446.35,-169.96"/>
<polygon fill="#63b8ff" stroke="#63b8ff" points="448.85,-167.5 439.64,-162.27 443.58,-172.1 448.85,-167.5"/>
</a>
</g>
</g>
<!-- Node3 -->
<g id="Node000003" class="node">
<title>Node3</title>
<g id="a_Node000003"><a xlink:title=" ">
<polygon fill="#e0e0e0" stroke="#999999" points="44,-96 0,-96 0,-77 44,-77 44,-96"/>
<text text-anchor="middle" x="22" y="-84" font-family="Helvetica,sans-Serif" font-size="10.00">string</text>
</a>
</g>
</g>
<!-- Node1&#45;&gt;Node3 -->
<g id="edge2_Node000001_Node000003" class="edge">
<title>Node1&#45;&gt;Node3</title>
<g id="a_edge2_Node000001_Node000003"><a xlink:title=" ">
<path fill="none" stroke="#63b8ff" d="M483.49,-197.88C483.21,-181.9 480.04,-156.36 464,-143 393.57,-84.31 139.9,-136.23 53,-107 49.05,-105.67 45.08,-103.74 41.37,-101.61"/>
<polygon fill="#63b8ff" stroke="#63b8ff" points="43.13,-98.58 32.83,-96.1 39.34,-104.46 43.13,-98.58"/>
</a>
</g>
</g>
<!-- Node4 -->
<g id="Node000004" class="node">
<title>Node4</title>
<g id="a_Node000004"><a xlink:href="../../da/d47/core_8hpp.html" target="_top" xlink:title="Umbrella header for the engine core module.">
<polygon fill="white" stroke="#666666" points="1068.5,-162 1009.5,-162 1009.5,-143 1068.5,-143 1068.5,-162"/>
<text text-anchor="middle" x="1039" y="-150" font-family="Helvetica,sans-Serif" font-size="10.00">core.hpp</text>
</a>
</g>
</g>
<!-- Node1&#45;&gt;Node4 -->
<g id="edge3_Node000001_Node000004" class="edge">
<title>Node1&#45;&gt;Node4</title>
<g id="a_edge3_Node000001_Node000004"><a xlink:title=" ">
<path fill="none" stroke="#63b8ff" d="M550.62,-204.89C667.92,-192.54 905.55,-167.54 999.5,-157.66"/>
<polygon fill="#63b8ff" stroke="#63b8ff" points="999.86,-161.14 1009.44,-156.61 999.13,-154.18 999.86,-161.14"/>
</a>
</g>
</g>
<!-- Node4&#45;&gt;Node3 -->
<g id="edge16_Node000004_Node000003" class="edge">
<title>Node4&#45;&gt;Node3</title>
<g id="a_edge16_Node000004_Node000003"><a xlink:title=" ">
<path fill="none" stroke="#63b8ff" d="M1009.29,-151.06C854.72,-148.67 146.16,-136.16 53,-107 48.95,-105.73 44.91,-103.8 41.14,-101.64"/>
<polygon fill="#63b8ff" stroke="#63b8ff" points="42.8,-98.54 32.5,-96.03 38.99,-104.41 42.8,-98.54"/>
</a>
</g>
</g>
<!-- Node5 -->
<g id="Node000005" class="node">
<title>Node5</title>
<g id="a_Node000005"><a xlink:title=" ">
<polygon fill="#e0e0e0" stroke="#999999" points="126,-96 62,-96 62,-77 126,-77 126,-96"/>
<text text-anchor="middle" x="94" y="-84" font-family="Helvetica,sans-Serif" font-size="10.00">algorithm</text>
</a>
</g>
</g>
<!-- Node4&#45;&gt;Node5 -->
<g id="edge4_Node000004_Node000005" class="edge">
<title>Node4&#45;&gt;Node5</title>
<g id="a_edge4_Node000004_Node000005"><a xlink:title=" ">
<path fill="none" stroke="#63b8ff" d="M1009.08,-151.6C872.31,-151.82 306.05,-150.05 135,-107 129.03,-105.5 122.88,-103.09 117.22,-100.48"/>
<polygon fill="#63b8ff" stroke="#63b8ff" points="118.78,-97.35 108.28,-96.01 115.65,-103.61 118.78,-97.35"/>
</a>
</g>
</g>
<!-- Node6 -->
<g id="Node000006" class="node">
<title>Node6</title>
<g id="a_Node000006"><a xlink:title=" ">
<polygon fill="#e0e0e0" stroke="#999999" points="186,-96 144,-96 144,-77 186,-77 186,-96"/>
<text text-anchor="middle" x="165" y="-84" font-family="Helvetica,sans-Serif" font-size="10.00">array</text>
</a>
</g>
</g>
<!-- Node4&#45;&gt;Node6 -->
<g id="edge5_Node000004_Node000006" class="edge">
<title>Node4&#45;&gt;Node6</title>
<g id="a_edge5_Node000004_Node000006"><a xlink:title=" ">
<path fill="none" stroke="#63b8ff" d="M1009.31,-150.82C868.86,-147.48 274.76,-131.98 196,-107 191.96,-105.72 187.91,-103.78 184.15,-101.61"/>
<polygon fill="#63b8ff" stroke="#63b8ff" points="185.81,-98.52 175.51,-96.01 181.99,-104.39 185.81,-98.52"/>
</a>
</g>
</g>
<!-- Node7 -->
<g id="Node000007" class="node">
<title>Node7</title>
<g id="a_Node000007"><a xlink:title=" ">
<polygon fill="#e0e0e0" stroke="#999999" points="263.5,-96 204.5,-96 204.5,-77 263.5,-77 263.5,-96"/>
<text text-anchor="middle" x="234" y="-84" font-family="Helvetica,sans-Serif" font-size="10.00">compare</text>
</a>
</g>
</g>
<!-- Node4&#45;&gt;Node7 -->
<g id="edge6_Node000004_Node000007" class="edge">
<title>Node4&#45;&gt;Node7</title>
<g id="a_edge6_Node000004_Node000007"><a xlink:title=" ">
<path fill="none" stroke="#63b8ff" d="M1009.2,-151.37C885.93,-150.58 415.7,-145.09 273,-107 267.65,-105.57 262.18,-103.37 257.08,-100.95"/>
<polygon fill="#63b8ff" stroke="#63b8ff" points="258.38,-97.68 247.89,-96.18 255.16,-103.89 258.38,-97.68"/>
</a>
</g>
</g>
<!-- Node8 -->
<g id="Node000008" class="node">
<title>Node8</title>
<g id="a_Node000008"><a xlink:title=" ">
<polygon fill="#e0e0e0" stroke="#999999" points="342,-96 282,-96 282,-77 342,-77 342,-96"/>
<text text-anchor="middle" x="312" y="-84" font-family="Helvetica,sans-Serif" font-size="10.00">concepts</text>
</a>
</g>
</g>
<!-- Node4&#45;&gt;Node8 -->
<g id="edge7_Node000004_Node000008" class="edge">
<title>Node4&#45;&gt;Node8</title>
<g id="a_edge7_Node000004_Node000008"><a xlink:title=" ">
<path fill="none" stroke="#63b8ff" d="M1009.21,-151.1C894.16,-149.32 478.94,-140.65 352,-107 346.4,-105.52 340.65,-103.23 335.31,-100.73"/>
<polygon fill="#63b8ff" stroke="#63b8ff" points="336.79,-97.56 326.29,-96.15 333.62,-103.8 336.79,-97.56"/>
</a>
</g>
</g>
<!-- Node9 -->
<g id="Node000009" class="node">
<title>Node9</title>
<g id="a_Node000009"><a xlink:title=" ">
<polygon fill="#e0e0e0" stroke="#999999" points="413.5,-96 360.5,-96 360.5,-77 413.5,-77 413.5,-96"/>
<text text-anchor="middle" x="387" y="-84" font-family="Helvetica,sans-Serif" font-size="10.00">cstddef</text>
</a>
</g>
</g>
<!-- Node4&#45;&gt;Node9 -->
<g id="edge8_Node000004_Node000009" class="edge">
<title>Node4&#45;&gt;Node9</title>
<g id="a_edge8_Node000004_Node000009"><a xlink:title=" ">
<path fill="none" stroke="#63b8ff" d="M1009.36,-151.01C902.16,-148.98 535.05,-139.74 423,-107 418.14,-105.58 413.19,-103.44 408.59,-101.09"/>
<polygon fill="#63b8ff" stroke="#63b8ff" points="410.19,-97.97 399.75,-96.14 406.77,-104.08 410.19,-97.97"/>
</a>
</g>
</g>
<!-- Node10 -->
<g id="Node000010" class="node">
<title>Node10</title>
<g id="a_Node000010"><a xlink:title=" ">
<polygon fill="#e0e0e0" stroke="#999999" points="482,-96 432,-96 432,-77 482,-77 482,-96"/>
<text text-anchor="middle" x="457" y="-84" font-family="Helvetica,sans-Serif" font-size="10.00">cstdint</text>
</a>
</g>
</g>
<!-- Node4&#45;&gt;Node10 -->
<g id="edge9_Node000004_Node000010" class="edge">
<title>Node4&#45;&gt;Node10</title>
<g id="a_edge9_Node000004_Node000010"><a xlink:title=" ">
<path fill="none" stroke="#63b8ff" d="M1009.22,-150.79C909.66,-148.15 589.12,-137.44 491,-107 486.49,-105.6 481.93,-103.53 477.67,-101.25"/>
<polygon fill="#63b8ff" stroke="#63b8ff" points="479.38,-98.19 468.99,-96.11 475.82,-104.22 479.38,-98.19"/>
</a>
</g>
</g>
<!-- Node11 -->
<g id="Node000011" class="node">
<title>Node11</title>
<g id="a_Node000011"><a xlink:title=" ">
<polygon fill="#e0e0e0" stroke="#999999" points="550,-96 500,-96 500,-77 550,-77 550,-96"/>
<text text-anchor="middle" x="525" y="-84" font-family="Helvetica,sans-Serif" font-size="10.00">cstring</text>
</a>
</g>
</g>
<!-- Node4&#45;&gt;Node11 -->
<g id="edge10_Node000004_Node000011" class="edge">
<title>Node4&#45;&gt;Node11</title>
<g id="a_edge10_Node000004_Node000011"><a xlink:title=" ">
<path fill="none" stroke="#63b8ff" d="M1009.23,-150.34C918.21,-146.56 644.66,-133.23 560,-107 555.39,-105.57 550.71,-103.49 546.33,-101.2"/>
<polygon fill="#63b8ff" stroke="#63b8ff" points="547.8,-98.01 537.39,-96.07 544.32,-104.08 547.8,-98.01"/>
</a>
</g>
</g>
<!-- Node12 -->
<g id="Node000012" class="node">
<title>Node12</title>
<g id="a_Node000012"><a xlink:title=" ">
<polygon fill="#e0e0e0" stroke="#999999" points="617.5,-96 568.5,-96 568.5,-77 617.5,-77 617.5,-96"/>
<text text-anchor="middle" x="593" y="-84" font-family="Helvetica,sans-Serif" font-size="10.00">cuchar</text>
</a>
</g>
</g>
<!-- Node4&#45;&gt;Node12 -->
<g id="edge11_Node000004_Node000012" class="edge">
<title>Node4&#45;&gt;Node12</title>
<g id="a_edge11_Node000004_Node000012"><a xlink:title=" ">
<path fill="none" stroke="#63b8ff" d="M1009.37,-149.88C927.31,-145.15 698.42,-130.2 627,-107 622.51,-105.54 617.96,-103.44 613.7,-101.15"/>
<polygon fill="#63b8ff" stroke="#63b8ff" points="615.41,-98.1 605.02,-96.03 611.85,-104.12 615.41,-98.1"/>
</a>
</g>
</g>
<!-- Node13 -->
<g id="Node000013" class="node">
<title>Node13</title>
<g id="a_Node000013"><a xlink:title=" ">
<polygon fill="#e0e0e0" stroke="#999999" points="718.5,-96 635.5,-96 635.5,-77 718.5,-77 718.5,-96"/>
<text text-anchor="middle" x="677" y="-84" font-family="Helvetica,sans-Serif" font-size="10.00">initializer_list</text>
</a>
</g>
</g>
<!-- Node4&#45;&gt;Node13 -->
<g id="edge12_Node000004_Node000013" class="edge">
<title>Node4&#45;&gt;Node13</title>
<g id="a_edge12_Node000004_Node000013"><a xlink:title=" ">
<path fill="none" stroke="#63b8ff" d="M1009.41,-149.47C953.62,-145.17 829.37,-133.28 728,-107 720.85,-105.15 713.32,-102.61 706.32,-99.99"/>
<polygon fill="#63b8ff" stroke="#63b8ff" points="707.11,-96.54 696.53,-96.14 704.55,-103.05 707.11,-96.54"/>
</a>
</g>
</g>
<!-- Node14 -->
<g id="Node000014" class="node">
<title>Node14</title>
<g id="a_Node000014"><a xlink:title=" ">
<polygon fill="#e0e0e0" stroke="#999999" points="789.5,-96 736.5,-96 736.5,-77 789.5,-77 789.5,-96"/>
<text text-anchor="middle" x="763" y="-84" font-family="Helvetica,sans-Serif" font-size="10.00">iterator</text>
</a>
</g>
</g>
<!-- Node4&#45;&gt;Node14 -->
<g id="edge13_Node000004_Node000014" class="edge">
<title>Node4&#45;&gt;Node14</title>
<g id="a_edge13_Node000004_Node000014"><a xlink:title=" ">
<path fill="none" stroke="#63b8ff" d="M1009.42,-149.01C963.34,-144.48 872.11,-132.85 799,-107 794.51,-105.41 789.9,-103.32 785.54,-101.09"/>
<polygon fill="#63b8ff" stroke="#63b8ff" points="787,-97.9 776.55,-96.15 783.63,-104.03 787,-97.9"/>
</a>
</g>
</g>
<!-- Node15 -->
<g id="Node000015" class="node">
<title>Node15</title>
<g id="a_Node000015"><a xlink:title=" ">
<polygon fill="#e0e0e0" stroke="#999999" points="866,-96 808,-96 808,-77 866,-77 866,-96"/>
<text text-anchor="middle" x="837" y="-84" font-family="Helvetica,sans-Serif" font-size="10.00">memory</text>
</a>
</g>
</g>
<!-- Node4&#45;&gt;Node15 -->
<g id="edge14_Node000004_Node000015" class="edge">
<title>Node4&#45;&gt;Node15</title>
<g id="a_edge14_Node000004_Node000015"><a xlink:title=" ">
<path fill="none" stroke="#63b8ff" d="M1009.29,-145.25C976.19,-137.85 921.35,-124.33 876,-107 871.3,-105.2 866.41,-103.02 861.74,-100.78"/>
<polygon fill="#63b8ff" stroke="#63b8ff" points="863.13,-97.56 852.62,-96.2 859.98,-103.81 863.13,-97.56"/>
</a>
</g>
</g>
<!-- Node16 -->
<g id="Node000016" class="node">
<title>Node16</title>
<g id="a_Node000016"><a xlink:title=" ">
<polygon fill="#e0e0e0" stroke="#999999" points="949.5,-96 884.5,-96 884.5,-77 949.5,-77 949.5,-96"/>
<text text-anchor="middle" x="917" y="-84" font-family="Helvetica,sans-Serif" font-size="10.00">stdexcept</text>
</a>
</g>
</g>
<!-- Node4&#45;&gt;Node16 -->
<g id="edge15_Node000004_Node000016" class="edge">
<title>Node4&#45;&gt;Node16</title>
<g id="a_edge15_Node000004_Node000016"><a xlink:title=" ">
<path fill="none" stroke="#63b8ff" d="M1022.55,-142.87C1001.99,-132.09 966.6,-113.52 942.51,-100.88"/>
<polygon fill="#63b8ff" stroke="#63b8ff" points="944.06,-97.75 933.58,-96.2 940.81,-103.94 944.06,-97.75"/>
</a>
</g>
</g>
<!-- Node17 -->
<g id="Node000017" class="node">
<title>Node17</title>
<g id="a_Node000017"><a xlink:title=" ">
<polygon fill="#e0e0e0" stroke="#999999" points="1036.5,-96 967.5,-96 967.5,-77 1036.5,-77 1036.5,-96"/>
<text text-anchor="middle" x="1002" y="-84" font-family="Helvetica,sans-Serif" font-size="10.00">type_traits</text>
</a>
</g>
</g>
<!-- Node4&#45;&gt;Node17 -->
<g id="edge17_Node000004_Node000017" class="edge">
<title>Node4&#45;&gt;Node17</title>
<g id="a_edge17_Node000004_Node000017"><a xlink:title=" ">
<path fill="none" stroke="#63b8ff" d="M1034.01,-142.87C1028.47,-133.28 1019.37,-117.55 1012.29,-105.3"/>
<polygon fill="#63b8ff" stroke="#63b8ff" points="1015.18,-103.31 1007.15,-96.41 1009.12,-106.81 1015.18,-103.31"/>
</a>
</g>
</g>
<!-- Node18 -->
<g id="Node000018" class="node">
<title>Node18</title>
<g id="a_Node000018"><a xlink:title=" ">
<polygon fill="#e0e0e0" stroke="#999999" points="1099.5,-96 1054.5,-96 1054.5,-77 1099.5,-77 1099.5,-96"/>
<text text-anchor="middle" x="1077" y="-84" font-family="Helvetica,sans-Serif" font-size="10.00">utility</text>
</a>
</g>
</g>
<!-- Node4&#45;&gt;Node18 -->
<g id="edge18_Node000004_Node000018" class="edge">
<title>Node4&#45;&gt;Node18</title>
<g id="a_edge18_Node000004_Node000018"><a xlink:title=" ">
<path fill="none" stroke="#63b8ff" d="M1044.12,-142.87C1049.82,-133.28 1059.16,-117.55 1066.43,-105.3"/>
<polygon fill="#63b8ff" stroke="#63b8ff" points="1069.62,-106.79 1071.71,-96.41 1063.6,-103.22 1069.62,-106.79"/>
</a>
</g>
</g>
<!-- Node19 -->
<g id="Node000019" class="node">
<title>Node19</title>
<g id="a_Node000019"><a xlink:href="../../dd/d9e/linux_2platform__config_8hpp.html" target="_top" xlink:title="additional linux platform header">
<polygon fill="white" stroke="#666666" points="1272.5,-107 1117.5,-107 1117.5,-66 1272.5,-66 1272.5,-107"/>
<text text-anchor="start" x="1125.5" y="-95" font-family="Helvetica,sans-Serif" font-size="10.00">/home/runner/work/toygine2</text>
<text text-anchor="start" x="1125.5" y="-84" font-family="Helvetica,sans-Serif" font-size="10.00">/toygine2/src/platforms</text>
<text text-anchor="middle" x="1195" y="-73" font-family="Helvetica,sans-Serif" font-size="10.00">/linux/platform_config.hpp</text>
</a>
</g>
</g>
<!-- Node4&#45;&gt;Node19 -->
<g id="edge19_Node000004_Node000019" class="edge">
<title>Node4&#45;&gt;Node19</title>
<g id="a_edge19_Node000004_Node000019"><a xlink:title=" ">
<path fill="none" stroke="#63b8ff" d="M1060.04,-142.87C1079.98,-134.69 1110.83,-122.03 1138.01,-110.88"/>
<polygon fill="#63b8ff" stroke="#63b8ff" points="1139.52,-114.04 1147.45,-107.01 1136.87,-107.57 1139.52,-114.04"/>
</a>
</g>
</g>
<!-- Node21 -->
<g id="Node000021" class="node">
<title>Node21</title>
<g id="a_Node000021"><a xlink:href="../../dd/ded/c__string__view_8hpp.html" target="_top" xlink:title="Non&#45;owning string view class for C&#45;style strings.">
<polygon fill="white" stroke="#666666" points="1419,-96 1291,-96 1291,-77 1419,-77 1419,-96"/>
<text text-anchor="middle" x="1355" y="-84" font-family="Helvetica,sans-Serif" font-size="10.00">core/c_string_view.hpp</text>
</a>
</g>
</g>
<!-- Node4&#45;&gt;Node21 -->
<g id="edge21_Node000004_Node000021" class="edge">
<title>Node4&#45;&gt;Node21</title>
<g id="a_edge21_Node000004_Node000021"><a xlink:title=" ">
<path fill="none" stroke="#63b8ff" d="M1068.71,-146.85C1114.65,-139.47 1205.63,-124.16 1282,-107 1292.97,-104.53 1304.79,-101.53 1315.65,-98.63"/>
<polygon fill="#63b8ff" stroke="#63b8ff" points="1316.56,-102.01 1325.3,-96.01 1314.73,-95.25 1316.56,-102.01"/>
</a>
</g>
</g>
<!-- Node22 -->
<g id="Node000022" class="node">
<title>Node22</title>
<g id="a_Node000022"><a xlink:href="../../d1/d5c/callbacks__pool_8hpp.html" target="_top" xlink:title="Template callback pool class with fixed&#45;size callback storage.">
<polygon fill="white" stroke="#666666" points="1571,-96 1437,-96 1437,-77 1571,-77 1571,-96"/>
<text text-anchor="middle" x="1504" y="-84" font-family="Helvetica,sans-Serif" font-size="10.00">core/callbacks_pool.hpp</text>
</a>
</g>
</g>
<!-- Node4&#45;&gt;Node22 -->
<g id="edge22_Node000004_Node000022" class="edge">
<title>Node4&#45;&gt;Node22</title>
<g id="a_edge22_Node000004_Node000022"><a xlink:title=" ">
<path fill="none" stroke="#63b8ff" d="M1068.98,-149.48C1134.51,-144.76 1295.31,-131.49 1428,-107 1440.02,-104.78 1452.95,-101.72 1464.67,-98.69"/>
<polygon fill="#63b8ff" stroke="#63b8ff" points="1465.85,-101.99 1474.61,-96.04 1464.05,-95.23 1465.85,-101.99"/>
</a>
</g>
</g>
<!-- Node23 -->
<g id="Node000023" class="node">
<title>Node23</title>
<g id="a_Node000023"><a xlink:href="../../d4/dc0/constexpr__utils_8hpp.html" target="_top" xlink:title="Constexpr utility functions for compile&#45;time operations.">
<polygon fill="white" stroke="#666666" points="1725,-96 1589,-96 1589,-77 1725,-77 1725,-96"/>
<text text-anchor="middle" x="1657" y="-84" font-family="Helvetica,sans-Serif" font-size="10.00">core/constexpr_utils.hpp</text>
</a>
</g>
</g>
<!-- Node4&#45;&gt;Node23 -->
<g id="edge23_Node000004_Node000023" class="edge">
<title>Node4&#45;&gt;Node23</title>
<g id="a_edge23_Node000004_Node000023"><a xlink:title=" ">
<path fill="none" stroke="#63b8ff" d="M1068.53,-150.79C1150.35,-148.45 1386.64,-139.21 1580,-107 1592.54,-104.91 1606.03,-101.8 1618.17,-98.67"/>
<polygon fill="#63b8ff" stroke="#63b8ff" points="1619.22,-102.01 1627.99,-96.06 1617.43,-95.24 1619.22,-102.01"/>
</a>
</g>
</g>
<!-- Node24 -->
<g id="Node000024" class="node">
<title>Node24</title>
<g id="a_Node000024"><a xlink:href="../../d7/d7f/fixed__string_8hpp.html" target="_top" xlink:title="Template string class with fixed&#45;size character buffer.">
<polygon fill="white" stroke="#666666" points="1861,-96 1743,-96 1743,-77 1861,-77 1861,-96"/>
<text text-anchor="middle" x="1802" y="-84" font-family="Helvetica,sans-Serif" font-size="10.00">core/fixed_string.hpp</text>
</a>
</g>
</g>
<!-- Node4&#45;&gt;Node24 -->
<g id="edge24_Node000004_Node000024" class="edge">
<title>Node4&#45;&gt;Node24</title>
<g id="a_edge24_Node000004_Node000024"><a xlink:title=" ">
<path fill="none" stroke="#63b8ff" d="M1068.73,-151.87C1165.42,-152.59 1479.36,-151.13 1734,-107 1745,-105.09 1756.77,-102.08 1767.37,-98.99"/>
<polygon fill="#63b8ff" stroke="#63b8ff" points="1768.56,-102.28 1777.11,-96.03 1766.53,-95.59 1768.56,-102.28"/>
</a>
</g>
</g>
<!-- Node25 -->
<g id="Node000025" class="node">
<title>Node25</title>
<g id="a_Node000025"><a xlink:href="../../d7/dea/fixed__vector_8hpp.html" target="_top" xlink:title="TODO.">
<polygon fill="white" stroke="#666666" points="1999,-96 1879,-96 1879,-77 1999,-77 1999,-96"/>
<text text-anchor="middle" x="1939" y="-84" font-family="Helvetica,sans-Serif" font-size="10.00">core/fixed_vector.hpp</text>
</a>
</g>
</g>
<!-- Node4&#45;&gt;Node25 -->
<g id="edge25_Node000004_Node000025" class="edge">
<title>Node4&#45;&gt;Node25</title>
<g id="a_edge25_Node000004_Node000025"><a xlink:title=" ">
<path fill="none" stroke="#63b8ff" d="M1068.51,-150.8C1197.31,-147.6 1710.9,-133.4 1870,-107 1881.17,-105.15 1893.11,-102.15 1903.86,-99.05"/>
<polygon fill="#63b8ff" stroke="#63b8ff" points="1905.17,-102.32 1913.75,-96.09 1903.16,-95.61 1905.17,-102.32"/>
</a>
</g>
</g>
<!-- Node26 -->
<g id="Node000026" class="node">
<title>Node26</title>
<g id="a_Node000026"><a xlink:href="../../dd/d8e/hashes_8hpp.html" target="_top" xlink:title="CRC hash functions.">
<polygon fill="white" stroke="#666666" points="2113,-96 2017,-96 2017,-77 2113,-77 2113,-96"/>
<text text-anchor="middle" x="2065" y="-84" font-family="Helvetica,sans-Serif" font-size="10.00">core/hashes.hpp</text>
</a>
</g>
</g>
<!-- Node4&#45;&gt;Node26 -->
<g id="edge26_Node000004_Node000026" class="edge">
<title>Node4&#45;&gt;Node26</title>
<g id="a_edge26_Node000004_Node000026"><a xlink:title=" ">
<path fill="none" stroke="#63b8ff" d="M1068.57,-151.27C1210.34,-149.99 1821.25,-142.48 2008,-107 2016.94,-105.3 2026.38,-102.51 2034.95,-99.56"/>
<polygon fill="#63b8ff" stroke="#63b8ff" points="2036.33,-102.78 2044.54,-96.08 2033.94,-96.2 2036.33,-102.78"/>
</a>
</g>
</g>
<!-- Node27 -->
<g id="Node000027" class="node">
<title>Node27</title>
<g id="a_Node000027"><a xlink:href="../../df/d93/utils_8hpp.html" target="_top" xlink:title="Core utility functions for string manipulation, encoding conversion, and number formatting.">
<polygon fill="white" stroke="#666666" points="2214.5,-96 2131.5,-96 2131.5,-77 2214.5,-77 2214.5,-96"/>
<text text-anchor="middle" x="2173" y="-84" font-family="Helvetica,sans-Serif" font-size="10.00">core/utils.hpp</text>
</a>
</g>
</g>
<!-- Node4&#45;&gt;Node27 -->
<g id="edge27_Node000004_Node000027" class="edge">
<title>Node4&#45;&gt;Node27</title>
<g id="a_edge27_Node000004_Node000027"><a xlink:title=" ">
<path fill="none" stroke="#63b8ff" d="M1068.73,-151.57C1220.79,-151.76 1912.46,-150.16 2122,-107 2129.88,-105.38 2138.13,-102.69 2145.65,-99.82"/>
<polygon fill="#63b8ff" stroke="#63b8ff" points="2147.07,-103.02 2155.02,-96.02 2144.44,-96.54 2147.07,-103.02"/>
</a>
</g>
</g>
<!-- Node28 -->
<g id="Node000028" class="node">
<title>Node28</title>
<g id="a_Node000028"><a xlink:href="../../df/d4a/c__string__view_8inl.html" target="_top" xlink:title="Inline implementations for CStringView class.">
<polygon fill="white" stroke="#666666" points="2355,-96 2233,-96 2233,-77 2355,-77 2355,-96"/>
<text text-anchor="middle" x="2294" y="-84" font-family="Helvetica,sans-Serif" font-size="10.00">core/c_string_view.inl</text>
</a>
</g>
</g>
<!-- Node4&#45;&gt;Node28 -->
<g id="edge28_Node000004_Node000028" class="edge">
<title>Node4&#45;&gt;Node28</title>
<g id="a_edge28_Node000004_Node000028"><a xlink:title=" ">
<path fill="none" stroke="#63b8ff" d="M1068.51,-151.33C1228.32,-150.25 1991.34,-143.26 2224,-107 2235.55,-105.2 2247.9,-102.15 2258.97,-98.99"/>
<polygon fill="#63b8ff" stroke="#63b8ff" points="2260.13,-102.3 2268.71,-96.09 2258.13,-95.59 2260.13,-102.3"/>
</a>
</g>
</g>
<!-- Node29 -->
<g id="Node000029" class="node">
<title>Node29</title>
<g id="a_Node000029"><a xlink:href="../../d6/ddb/callbacks__pool_8inl.html" target="_top" xlink:title="Inline implementations for template callback pool class with fixed&#45;size callback storage.">
<polygon fill="white" stroke="#666666" points="2501,-96 2373,-96 2373,-77 2501,-77 2501,-96"/>
<text text-anchor="middle" x="2437" y="-84" font-family="Helvetica,sans-Serif" font-size="10.00">core/callbacks_pool.inl</text>
</a>
</g>
</g>
<!-- Node4&#45;&gt;Node29 -->
<g id="edge29_Node000004_Node000029" class="edge">
<title>Node4&#45;&gt;Node29</title>
<g id="a_edge29_Node000004_Node000029"><a xlink:title=" ">
<path fill="none" stroke="#63b8ff" d="M1068.56,-151.42C1239.42,-150.82 2101.89,-145.89 2364,-107 2376.24,-105.18 2389.38,-102.06 2401.09,-98.83"/>
<polygon fill="#63b8ff" stroke="#63b8ff" points="2402.3,-102.13 2410.95,-96 2400.37,-95.4 2402.3,-102.13"/>
</a>
</g>
</g>
<!-- Node30 -->
<g id="Node000030" class="node">
<title>Node30</title>
<g id="a_Node000030"><a xlink:href="../../dc/d28/constexpr__utils_8inl.html" target="_top" xlink:title="Inline implementations for constexpr utility functions.">
<polygon fill="white" stroke="#666666" points="2649,-96 2519,-96 2519,-77 2649,-77 2649,-96"/>
<text text-anchor="middle" x="2584" y="-84" font-family="Helvetica,sans-Serif" font-size="10.00">core/constexpr_utils.inl</text>
</a>
</g>
</g>
<!-- Node4&#45;&gt;Node30 -->
<g id="edge30_Node000004_Node000030" class="edge">
<title>Node4&#45;&gt;Node30</title>
<g id="a_edge30_Node000004_Node000030"><a xlink:title=" ">
<path fill="none" stroke="#63b8ff" d="M1068.5,-151.52C1250.02,-151.51 2217.16,-149.45 2510,-107 2522.53,-105.18 2535.99,-102.02 2547.95,-98.76"/>
<polygon fill="#63b8ff" stroke="#63b8ff" points="2548.92,-102.12 2557.59,-96.02 2547.01,-95.38 2548.92,-102.12"/>
</a>
</g>
</g>
<!-- Node31 -->
<g id="Node000031" class="node">
<title>Node31</title>
<g id="a_Node000031"><a xlink:href="../../d7/d40/fixed__string_8inl.html" target="_top" xlink:title="Inline implementations for FixedString template class.">
<polygon fill="white" stroke="#666666" points="2779,-96 2667,-96 2667,-77 2779,-77 2779,-96"/>
<text text-anchor="middle" x="2723" y="-84" font-family="Helvetica,sans-Serif" font-size="10.00">core/fixed_string.inl</text>
</a>
</g>
</g>
<!-- Node4&#45;&gt;Node31 -->
<g id="edge31_Node000004_Node000031" class="edge">
<title>Node4&#45;&gt;Node31</title>
<g id="a_edge31_Node000004_Node000031"><a xlink:title=" ">
<path fill="none" stroke="#63b8ff" d="M1068.55,-151.16C1274.79,-148.7 2495.42,-133.15 2658,-107 2668.64,-105.29 2679.98,-102.31 2690.16,-99.19"/>
<polygon fill="#63b8ff" stroke="#63b8ff" points="2691.43,-102.45 2699.88,-96.06 2689.29,-95.79 2691.43,-102.45"/>
</a>
</g>
</g>
<!-- Node32 -->
<g id="Node000032" class="node">
<title>Node32</title>
<g id="a_Node000032"><a xlink:href="../../da/dc9/fixed__vector_8inl.html" target="_top" xlink:title="TODO.">
<polygon fill="white" stroke="#666666" points="2911,-96 2797,-96 2797,-77 2911,-77 2911,-96"/>
<text text-anchor="middle" x="2854" y="-84" font-family="Helvetica,sans-Serif" font-size="10.00">core/fixed_vector.inl</text>
</a>
</g>
</g>
<!-- Node4&#45;&gt;Node32 -->
<g id="edge32_Node000004_Node000032" class="edge">
<title>Node4&#45;&gt;Node32</title>
<g id="a_edge32_Node000004_Node000032"><a xlink:title=" ">
<path fill="none" stroke="#63b8ff" d="M1068.82,-151.21C1285.26,-149.06 2611.73,-134.79 2788,-107 2798.91,-105.28 2810.55,-102.26 2820.97,-99.1"/>
<polygon fill="#63b8ff" stroke="#63b8ff" points="2822.04,-102.43 2830.52,-96.07 2819.93,-95.76 2822.04,-102.43"/>
</a>
</g>
</g>
<!-- Node33 -->
<g id="Node000033" class="node">
<title>Node33</title>
<g id="a_Node000033"><a xlink:href="../../df/d7d/utils_8inl.html" target="_top" xlink:title="Inline implementations of core utility functions for string manipulation and encoding conversion.">
<polygon fill="white" stroke="#666666" points="3006.5,-96 2929.5,-96 2929.5,-77 3006.5,-77 3006.5,-96"/>
<text text-anchor="middle" x="2968" y="-84" font-family="Helvetica,sans-Serif" font-size="10.00">core/utils.inl</text>
</a>
</g>
</g>
<!-- Node4&#45;&gt;Node33 -->
<g id="edge33_Node000004_Node000033" class="edge">
<title>Node4&#45;&gt;Node33</title>
<g id="a_edge33_Node000004_Node000033"><a xlink:title=" ">
<path fill="none" stroke="#63b8ff" d="M1068.55,-151.44C1293.47,-150.94 2731.4,-146.17 2920,-107 2927.22,-105.5 2934.74,-102.96 2941.62,-100.2"/>
<polygon fill="#63b8ff" stroke="#63b8ff" points="2943.35,-103.27 2951.15,-96.1 2940.58,-96.84 2943.35,-103.27"/>
</a>
</g>
</g>
<!-- Node20 -->
<g id="Node000020" class="node">
<title>Node20</title>
<g id="a_Node000020"><a xlink:href="../../d1/d5f/assertion__macro__gcc__clang_8hpp.html" target="_top" xlink:title="Debug and Release assertion macro implementations for GCC/Clang platforms.">
<polygon fill="white" stroke="#666666" points="1258.5,-30 1131.5,-30 1131.5,0 1258.5,0 1258.5,-30"/>
<text text-anchor="start" x="1139.5" y="-18" font-family="Helvetica,sans-Serif" font-size="10.00">../common/assertion</text>
<text text-anchor="middle" x="1195" y="-7" font-family="Helvetica,sans-Serif" font-size="10.00">_macro_gcc_clang.hpp</text>
</a>
</g>
</g>
<!-- Node19&#45;&gt;Node20 -->
<g id="edge20_Node000019_Node000020" class="edge">
<title>Node19&#45;&gt;Node20</title>
<g id="a_edge20_Node000019_Node000020"><a xlink:title=" ">
<path fill="none" stroke="#63b8ff" d="M1195,-65.77C1195,-57.85 1195,-48.63 1195,-40.3"/>
<polygon fill="#63b8ff" stroke="#63b8ff" points="1198.5,-40.04 1195,-30.04 1191.5,-40.04 1198.5,-40.04"/>
</a>
</g>
</g>
</g>
</svg>

<g id="navigator" transform="translate(0 0)" fill="#404254">
  <rect fill="#f2f5e9" fill-opacity="0.5" stroke="#606060" stroke-width=".5" x="0" y="0" width="60" height="60"/>
  <use id="zoomplus" xlink:href="#zoomPlus" x="17" y="9" onmousedown="handleZoom(evt,'in')"/>
  <use id="zoomminus" xlink:href="#zoomMin" x="42" y="9" onmousedown="handleZoom(evt,'out')"/>
  <use id="reset" xlink:href="#resetDef" x="30" y="36" onmousedown="handleReset()"/>
   <use id="arrowup" xlink:href="#arrowUp" x="0" y="0" onmousedown="handlePan(0,-1)"/>
  <use id="arrowright" xlink:href="#arrowRight" x="0" y="0" onmousedown="handlePan(1,0)"/>
  <use id="arrowdown" xlink:href="#arrowDown" x="0" y="0" onmousedown="handlePan(0,1)"/>
  <use id="arrowleft" xlink:href="#arrowLeft" x="0" y="0" onmousedown="handlePan(-1,0)"/>
</g>
<svg viewBox="0 0 15 15" width="100%" height="30px" preserveAspectRatio="xMaxYMin meet">
 <g id="arrow_out" transform="scale(0.3 0.3)">
  <a xlink:href="assertion__stub_8cpp__incl_org.svg" target="_base">
   <rect id="button" ry="5" rx="5" y="6" x="6" height="38" width="38"
        fill="#f2f5e9" fill-opacity="0.5" stroke="#606060" stroke-width="1.0"/>
   <path id="arrow"
     d="M 11.500037,31.436501 C 11.940474,20.09759 22.043105,11.32322 32.158766,21.979434 L 37.068811,17.246167 C 37.068811,17.246167 37.088388,32 37.088388,32 L 22.160133,31.978069 C 22.160133,31.978069 26.997745,27.140456 26.997745,27.140456 C 18.528582,18.264221 13.291696,25.230495 11.500037,31.436501 z"
     style="fill:#404040;"/>
  </a>
 </g>
</svg>

<style type='text/css'>
<![CDATA[
[data-mouse-over-selected='false'] { opacity: 0.7; }
[data-mouse-over-selected='true']  { opacity: 1.0; }
]]>
</style>
<script type="application/ecmascript"><![CDATA[
document.addEventListener('DOMContentLoaded', (event) => {
  highlightEdges();
  highlightAdjacentNodes();
});
]]></script>
</svg>
