<?xml version="1.0" encoding="UTF-8" standalone="no"?>
<!DOCTYPE svg PUBLIC "-//W3C//DTD SVG 1.1//EN"
 "http://www.w3.org/Graphics/SVG/1.1/DTD/svg11.dtd">
<!-- Generated by graphviz version 2.43.0 (0)
 -->
<!-- Title: src/platforms/stub/core/assertion_stub.cpp Pages: 1 -->
<svg width="2545pt" height="236pt"
 viewBox="0.00 0.00 2544.50 236.00" xmlns="http://www.w3.org/2000/svg" xmlns:xlink="http://www.w3.org/1999/xlink">
<g id="graph0" class="graph" transform="scale(1 1) rotate(0) translate(4 232)">
<title>src/platforms/stub/core/assertion_stub.cpp</title>
<!-- Node1 -->
<g id="Node000001" class="node">
<title>Node1</title>
<g id="a_Node000001"><a xlink:title=" ">
<polygon fill="#999999" stroke="#666666" points="464.5,-228 329.5,-228 329.5,-198 464.5,-198 464.5,-228"/>
<text text-anchor="start" x="337.5" y="-216" font-family="Helvetica,sans-Serif" font-size="10.00">src/platforms/stub</text>
<text text-anchor="middle" x="397" y="-205" font-family="Helvetica,sans-Serif" font-size="10.00">/core/assertion_stub.cpp</text>
</a>
</g>
</g>
<!-- Node2 -->
<g id="Node000002" class="node">
<title>Node2</title>
<g id="a_Node000002"><a xlink:title=" ">
<polygon fill="#e0e0e0" stroke="#999999" points="369,-162 323,-162 323,-143 369,-143 369,-162"/>
<text text-anchor="middle" x="346" y="-150" font-family="Helvetica,sans-Serif" font-size="10.00">cstdio</text>
</a>
</g>
</g>
<!-- Node1&#45;&gt;Node2 -->
<g id="edge1_Node000001_Node000002" class="edge">
<title>Node1&#45;&gt;Node2</title>
<g id="a_edge1_Node000001_Node000002"><a xlink:title=" ">
<path fill="none" stroke="#63b8ff" d="M384.65,-197.84C377.33,-189.43 368,-178.74 360.35,-169.96"/>
<polygon fill="#63b8ff" stroke="#63b8ff" points="362.85,-167.5 353.64,-162.27 357.58,-172.1 362.85,-167.5"/>
</a>
</g>
</g>
<!-- Node3 -->
<g id="Node000003" class="node">
<title>Node3</title>
<g id="a_Node000003"><a xlink:title=" ">
<polygon fill="#e0e0e0" stroke="#999999" points="44,-96 0,-96 0,-77 44,-77 44,-96"/>
<text text-anchor="middle" x="22" y="-84" font-family="Helvetica,sans-Serif" font-size="10.00">string</text>
</a>
</g>
</g>
<!-- Node1&#45;&gt;Node3 -->
<g id="edge2_Node000001_Node000003" class="edge">
<title>Node1&#45;&gt;Node3</title>
<g id="a_edge2_Node000001_Node000003"><a xlink:title=" ">
<path fill="none" stroke="#63b8ff" d="M397.44,-197.95C397.1,-182.03 393.88,-156.55 378,-143 322.72,-95.84 121.6,-130.95 53,-107 49.06,-105.62 45.1,-103.67 41.4,-101.53"/>
<polygon fill="#63b8ff" stroke="#63b8ff" points="43.16,-98.5 32.85,-96.03 39.37,-104.39 43.16,-98.5"/>
</a>
</g>
</g>
<!-- Node4 -->
<g id="Node000004" class="node">
<title>Node4</title>
<g id="a_Node000004"><a xlink:href="../../da/d47/core_8hpp.html" target="_top" xlink:title="Umbrella header for the engine core module.">
<polygon fill="white" stroke="#666666" points="896.5,-162 837.5,-162 837.5,-143 896.5,-143 896.5,-162"/>
<text text-anchor="middle" x="867" y="-150" font-family="Helvetica,sans-Serif" font-size="10.00">core.hpp</text>
</a>
</g>
</g>
<!-- Node1&#45;&gt;Node4 -->
<g id="edge3_Node000001_Node000004" class="edge">
<title>Node1&#45;&gt;Node4</title>
<g id="a_edge3_Node000001_Node000004"><a xlink:title=" ">
<path fill="none" stroke="#63b8ff" d="M464.59,-203.59C564.02,-191.21 746.62,-168.48 827.1,-158.47"/>
<polygon fill="#63b8ff" stroke="#63b8ff" points="827.82,-161.9 837.31,-157.2 826.95,-154.96 827.82,-161.9"/>
</a>
</g>
</g>
<!-- Node4&#45;&gt;Node3 -->
<g id="edge14_Node000004_Node000003" class="edge">
<title>Node4&#45;&gt;Node3</title>
<g id="a_edge14_Node000004_Node000003"><a xlink:title=" ">
<path fill="none" stroke="#63b8ff" d="M837.42,-150.76C700.17,-147.22 128.86,-131.14 53,-107 48.96,-105.71 44.92,-103.77 41.15,-101.61"/>
<polygon fill="#63b8ff" stroke="#63b8ff" points="42.81,-98.51 32.51,-96 39,-104.38 42.81,-98.51"/>
</a>
</g>
</g>
<!-- Node5 -->
<g id="Node000005" class="node">
<title>Node5</title>
<g id="a_Node000005"><a xlink:title=" ">
<polygon fill="#e0e0e0" stroke="#999999" points="126,-96 62,-96 62,-77 126,-77 126,-96"/>
<text text-anchor="middle" x="94" y="-84" font-family="Helvetica,sans-Serif" font-size="10.00">algorithm</text>
</a>
</g>
</g>
<!-- Node4&#45;&gt;Node5 -->
<g id="edge4_Node000004_Node000005" class="edge">
<title>Node4&#45;&gt;Node5</title>
<g id="a_edge4_Node000004_Node000005"><a xlink:title=" ">
<path fill="none" stroke="#63b8ff" d="M837.33,-151.2C717.78,-149.77 271.23,-142.12 135,-107 129.28,-105.52 123.39,-103.24 117.92,-100.75"/>
<polygon fill="#63b8ff" stroke="#63b8ff" points="119.18,-97.46 108.66,-96.16 116.07,-103.74 119.18,-97.46"/>
</a>
</g>
</g>
<!-- Node6 -->
<g id="Node000006" class="node">
<title>Node6</title>
<g id="a_Node000006"><a xlink:title=" ">
<polygon fill="#e0e0e0" stroke="#999999" points="186,-96 144,-96 144,-77 186,-77 186,-96"/>
<text text-anchor="middle" x="165" y="-84" font-family="Helvetica,sans-Serif" font-size="10.00">array</text>
</a>
</g>
</g>
<!-- Node4&#45;&gt;Node6 -->
<g id="edge5_Node000004_Node000006" class="edge">
<title>Node4&#45;&gt;Node6</title>
<g id="a_edge5_Node000004_Node000006"><a xlink:title=" ">
<path fill="none" stroke="#63b8ff" d="M837.4,-151.46C724.05,-151 317.87,-146.56 196,-107 192.03,-105.71 188.06,-103.8 184.35,-101.68"/>
<polygon fill="#63b8ff" stroke="#63b8ff" points="186.11,-98.65 175.81,-96.17 182.31,-104.53 186.11,-98.65"/>
</a>
</g>
</g>
<!-- Node7 -->
<g id="Node000007" class="node">
<title>Node7</title>
<g id="a_Node000007"><a xlink:title=" ">
<polygon fill="#e0e0e0" stroke="#999999" points="263.5,-96 204.5,-96 204.5,-77 263.5,-77 263.5,-96"/>
<text text-anchor="middle" x="234" y="-84" font-family="Helvetica,sans-Serif" font-size="10.00">compare</text>
</a>
</g>
</g>
<!-- Node4&#45;&gt;Node7 -->
<g id="edge6_Node000004_Node000007" class="edge">
<title>Node4&#45;&gt;Node7</title>
<g id="a_edge6_Node000004_Node000007"><a xlink:title=" ">
<path fill="none" stroke="#63b8ff" d="M837.37,-150.79C732.76,-148.07 381.16,-136.84 273,-107 267.66,-105.53 262.19,-103.31 257.1,-100.88"/>
<polygon fill="#63b8ff" stroke="#63b8ff" points="258.4,-97.61 247.91,-96.12 255.18,-103.83 258.4,-97.61"/>
</a>
</g>
</g>
<!-- Node8 -->
<g id="Node000008" class="node">
<title>Node8</title>
<g id="a_Node000008"><a xlink:title=" ">
<polygon fill="#e0e0e0" stroke="#999999" points="342,-96 282,-96 282,-77 342,-77 342,-96"/>
<text text-anchor="middle" x="312" y="-84" font-family="Helvetica,sans-Serif" font-size="10.00">concepts</text>
</a>
</g>
</g>
<!-- Node4&#45;&gt;Node8 -->
<g id="edge7_Node000004_Node000008" class="edge">
<title>Node4&#45;&gt;Node8</title>
<g id="a_edge7_Node000004_Node000008"><a xlink:title=" ">
<path fill="none" stroke="#63b8ff" d="M837.44,-150.37C742.25,-146.5 444.55,-132.6 352,-107 346.42,-105.46 340.67,-103.14 335.34,-100.64"/>
<polygon fill="#63b8ff" stroke="#63b8ff" points="336.81,-97.47 326.31,-96.07 333.65,-103.71 336.81,-97.47"/>
</a>
</g>
</g>
<!-- Node9 -->
<g id="Node000009" class="node">
<title>Node9</title>
<g id="a_Node000009"><a xlink:title=" ">
<polygon fill="#e0e0e0" stroke="#999999" points="413.5,-96 360.5,-96 360.5,-77 413.5,-77 413.5,-96"/>
<text text-anchor="middle" x="387" y="-84" font-family="Helvetica,sans-Serif" font-size="10.00">cstddef</text>
</a>
</g>
</g>
<!-- Node4&#45;&gt;Node9 -->
<g id="edge8_Node000004_Node000009" class="edge">
<title>Node4&#45;&gt;Node9</title>
<g id="a_edge8_Node000004_Node000009"><a xlink:title=" ">
<path fill="none" stroke="#63b8ff" d="M837.29,-150.05C750.9,-145.6 500.94,-130.95 423,-107 418.16,-105.51 413.22,-103.34 408.62,-100.98"/>
<polygon fill="#63b8ff" stroke="#63b8ff" points="410.22,-97.87 399.78,-96.04 406.8,-103.98 410.22,-97.87"/>
</a>
</g>
</g>
<!-- Node10 -->
<g id="Node000010" class="node">
<title>Node10</title>
<g id="a_Node000010"><a xlink:title=" ">
<polygon fill="#e0e0e0" stroke="#999999" points="482,-96 432,-96 432,-77 482,-77 482,-96"/>
<text text-anchor="middle" x="457" y="-84" font-family="Helvetica,sans-Serif" font-size="10.00">cstdint</text>
</a>
</g>
</g>
<!-- Node4&#45;&gt;Node10 -->
<g id="edge9_Node000004_Node000010" class="edge">
<title>Node4&#45;&gt;Node10</title>
<g id="a_edge9_Node000004_Node000010"><a xlink:title=" ">
<path fill="none" stroke="#63b8ff" d="M837.36,-151.97C772.72,-152.15 614.89,-147.95 491,-107 486.71,-105.58 482.36,-103.59 478.27,-101.41"/>
<polygon fill="#63b8ff" stroke="#63b8ff" points="479.74,-98.22 469.34,-96.19 476.21,-104.26 479.74,-98.22"/>
</a>
</g>
</g>
<!-- Node11 -->
<g id="Node000011" class="node">
<title>Node11</title>
<g id="a_Node000011"><a xlink:title=" ">
<polygon fill="#e0e0e0" stroke="#999999" points="550,-96 500,-96 500,-77 550,-77 550,-96"/>
<text text-anchor="middle" x="525" y="-84" font-family="Helvetica,sans-Serif" font-size="10.00">cstring</text>
</a>
</g>
</g>
<!-- Node4&#45;&gt;Node11 -->
<g id="edge10_Node000004_Node000011" class="edge">
<title>Node4&#45;&gt;Node11</title>
<g id="a_edge10_Node000004_Node000011"><a xlink:title=" ">
<path fill="none" stroke="#63b8ff" d="M837.4,-150.76C781.66,-148.6 657.95,-140.13 560,-107 555.5,-105.48 550.92,-103.39 546.61,-101.13"/>
<polygon fill="#63b8ff" stroke="#63b8ff" points="548.19,-98 537.77,-96.1 544.73,-104.09 548.19,-98"/>
</a>
</g>
</g>
<!-- Node12 -->
<g id="Node000012" class="node">
<title>Node12</title>
<g id="a_Node000012"><a xlink:title=" ">
<polygon fill="#e0e0e0" stroke="#999999" points="617.5,-96 568.5,-96 568.5,-77 617.5,-77 617.5,-96"/>
<text text-anchor="middle" x="593" y="-84" font-family="Helvetica,sans-Serif" font-size="10.00">cuchar</text>
</a>
</g>
</g>
<!-- Node4&#45;&gt;Node12 -->
<g id="edge11_Node000004_Node000012" class="edge">
<title>Node4&#45;&gt;Node12</title>
<g id="a_edge11_Node000004_Node000012"><a xlink:title=" ">
<path fill="none" stroke="#63b8ff" d="M837.34,-149.23C791.16,-144.99 699.79,-133.74 627,-107 622.83,-105.47 618.58,-103.45 614.56,-101.3"/>
<polygon fill="#63b8ff" stroke="#63b8ff" points="616.14,-98.17 605.74,-96.18 612.63,-104.22 616.14,-98.17"/>
</a>
</g>
</g>
<!-- Node13 -->
<g id="Node000013" class="node">
<title>Node13</title>
<g id="a_Node000013"><a xlink:title=" ">
<polygon fill="#e0e0e0" stroke="#999999" points="694,-96 636,-96 636,-77 694,-77 694,-96"/>
<text text-anchor="middle" x="665" y="-84" font-family="Helvetica,sans-Serif" font-size="10.00">memory</text>
</a>
</g>
</g>
<!-- Node4&#45;&gt;Node13 -->
<g id="edge12_Node000004_Node000013" class="edge">
<title>Node4&#45;&gt;Node13</title>
<g id="a_edge12_Node000004_Node000013"><a xlink:title=" ">
<path fill="none" stroke="#63b8ff" d="M837.29,-145.25C804.19,-137.85 749.35,-124.33 704,-107 699.3,-105.2 694.41,-103.02 689.74,-100.78"/>
<polygon fill="#63b8ff" stroke="#63b8ff" points="691.13,-97.56 680.62,-96.2 687.98,-103.81 691.13,-97.56"/>
</a>
</g>
</g>
<!-- Node14 -->
<g id="Node000014" class="node">
<title>Node14</title>
<g id="a_Node000014"><a xlink:title=" ">
<polygon fill="#e0e0e0" stroke="#999999" points="777.5,-96 712.5,-96 712.5,-77 777.5,-77 777.5,-96"/>
<text text-anchor="middle" x="745" y="-84" font-family="Helvetica,sans-Serif" font-size="10.00">stdexcept</text>
</a>
</g>
</g>
<!-- Node4&#45;&gt;Node14 -->
<g id="edge13_Node000004_Node000014" class="edge">
<title>Node4&#45;&gt;Node14</title>
<g id="a_edge13_Node000004_Node000014"><a xlink:title=" ">
<path fill="none" stroke="#63b8ff" d="M850.55,-142.87C829.99,-132.09 794.6,-113.52 770.51,-100.88"/>
<polygon fill="#63b8ff" stroke="#63b8ff" points="772.06,-97.75 761.58,-96.2 768.81,-103.94 772.06,-97.75"/>
</a>
</g>
</g>
<!-- Node15 -->
<g id="Node000015" class="node">
<title>Node15</title>
<g id="a_Node000015"><a xlink:title=" ">
<polygon fill="#e0e0e0" stroke="#999999" points="864.5,-96 795.5,-96 795.5,-77 864.5,-77 864.5,-96"/>
<text text-anchor="middle" x="830" y="-84" font-family="Helvetica,sans-Serif" font-size="10.00">type_traits</text>
</a>
</g>
</g>
<!-- Node4&#45;&gt;Node15 -->
<g id="edge15_Node000004_Node000015" class="edge">
<title>Node4&#45;&gt;Node15</title>
<g id="a_edge15_Node000004_Node000015"><a xlink:title=" ">
<path fill="none" stroke="#63b8ff" d="M862.01,-142.87C856.47,-133.28 847.37,-117.55 840.29,-105.3"/>
<polygon fill="#63b8ff" stroke="#63b8ff" points="843.18,-103.31 835.15,-96.41 837.12,-106.81 843.18,-103.31"/>
</a>
</g>
</g>
<!-- Node16 -->
<g id="Node000016" class="node">
<title>Node16</title>
<g id="a_Node000016"><a xlink:title=" ">
<polygon fill="#e0e0e0" stroke="#999999" points="927.5,-96 882.5,-96 882.5,-77 927.5,-77 927.5,-96"/>
<text text-anchor="middle" x="905" y="-84" font-family="Helvetica,sans-Serif" font-size="10.00">utility</text>
</a>
</g>
</g>
<!-- Node4&#45;&gt;Node16 -->
<g id="edge16_Node000004_Node000016" class="edge">
<title>Node4&#45;&gt;Node16</title>
<g id="a_edge16_Node000004_Node000016"><a xlink:title=" ">
<path fill="none" stroke="#63b8ff" d="M872.12,-142.87C877.82,-133.28 887.16,-117.55 894.43,-105.3"/>
<polygon fill="#63b8ff" stroke="#63b8ff" points="897.62,-106.79 899.71,-96.41 891.6,-103.22 897.62,-106.79"/>
</a>
</g>
</g>
<!-- Node17 -->
<g id="Node000017" class="node">
<title>Node17</title>
<g id="a_Node000017"><a xlink:href="../../dd/d9e/linux_2platform__config_8hpp.html" target="_top" xlink:title="additional linux platform header">
<polygon fill="white" stroke="#666666" points="1100.5,-107 945.5,-107 945.5,-66 1100.5,-66 1100.5,-107"/>
<text text-anchor="start" x="953.5" y="-95" font-family="Helvetica,sans-Serif" font-size="10.00">/home/runner/work/toygine2</text>
<text text-anchor="start" x="953.5" y="-84" font-family="Helvetica,sans-Serif" font-size="10.00">/toygine2/src/platforms</text>
<text text-anchor="middle" x="1023" y="-73" font-family="Helvetica,sans-Serif" font-size="10.00">/linux/platform_config.hpp</text>
</a>
</g>
</g>
<!-- Node4&#45;&gt;Node17 -->
<g id="edge17_Node000004_Node000017" class="edge">
<title>Node4&#45;&gt;Node17</title>
<g id="a_edge17_Node000004_Node000017"><a xlink:title=" ">
<path fill="none" stroke="#63b8ff" d="M888.04,-142.87C907.98,-134.69 938.83,-122.03 966.01,-110.88"/>
<polygon fill="#63b8ff" stroke="#63b8ff" points="967.52,-114.04 975.45,-107.01 964.87,-107.57 967.52,-114.04"/>
</a>
</g>
</g>
<!-- Node19 -->
<g id="Node000019" class="node">
<title>Node19</title>
<g id="a_Node000019"><a xlink:href="../../dd/ded/c__string__view_8hpp.html" target="_top" xlink:title="Non&#45;owning string view class for C&#45;style strings.">
<polygon fill="white" stroke="#666666" points="1247,-96 1119,-96 1119,-77 1247,-77 1247,-96"/>
<text text-anchor="middle" x="1183" y="-84" font-family="Helvetica,sans-Serif" font-size="10.00">core/c_string_view.hpp</text>
</a>
</g>
</g>
<!-- Node4&#45;&gt;Node19 -->
<g id="edge19_Node000004_Node000019" class="edge">
<title>Node4&#45;&gt;Node19</title>
<g id="a_edge19_Node000004_Node000019"><a xlink:title=" ">
<path fill="none" stroke="#63b8ff" d="M896.71,-146.85C942.65,-139.47 1033.63,-124.16 1110,-107 1120.97,-104.53 1132.79,-101.53 1143.65,-98.63"/>
<polygon fill="#63b8ff" stroke="#63b8ff" points="1144.56,-102.01 1153.3,-96.01 1142.73,-95.25 1144.56,-102.01"/>
</a>
</g>
</g>
<!-- Node20 -->
<g id="Node000020" class="node">
<title>Node20</title>
<g id="a_Node000020"><a xlink:href="../../d4/dc0/constexpr__utils_8hpp.html" target="_top" xlink:title="Constexpr utility functions for compile&#45;time operations.">
<polygon fill="white" stroke="#666666" points="1401,-96 1265,-96 1265,-77 1401,-77 1401,-96"/>
<text text-anchor="middle" x="1333" y="-84" font-family="Helvetica,sans-Serif" font-size="10.00">core/constexpr_utils.hpp</text>
</a>
</g>
</g>
<!-- Node4&#45;&gt;Node20 -->
<g id="edge20_Node000004_Node000020" class="edge">
<title>Node4&#45;&gt;Node20</title>
<g id="a_edge20_Node000004_Node000020"><a xlink:title=" ">
<path fill="none" stroke="#63b8ff" d="M896.97,-149.45C962.5,-144.66 1123.27,-131.28 1256,-107 1268.29,-104.75 1281.53,-101.65 1293.51,-98.58"/>
<polygon fill="#63b8ff" stroke="#63b8ff" points="1294.44,-101.96 1303.22,-96.03 1292.66,-95.19 1294.44,-101.96"/>
</a>
</g>
</g>
<!-- Node21 -->
<g id="Node000021" class="node">
<title>Node21</title>
<g id="a_Node000021"><a xlink:href="../../d7/d7f/fixed__string_8hpp.html" target="_top" xlink:title="Template string class with fixed&#45;size character buffer.">
<polygon fill="white" stroke="#666666" points="1537,-96 1419,-96 1419,-77 1537,-77 1537,-96"/>
<text text-anchor="middle" x="1478" y="-84" font-family="Helvetica,sans-Serif" font-size="10.00">core/fixed_string.hpp</text>
</a>
</g>
</g>
<!-- Node4&#45;&gt;Node21 -->
<g id="edge21_Node000004_Node000021" class="edge">
<title>Node4&#45;&gt;Node21</title>
<g id="a_edge21_Node000004_Node000021"><a xlink:title=" ">
<path fill="none" stroke="#63b8ff" d="M896.7,-151.12C978.96,-149.62 1216.46,-142.32 1410,-107 1420.9,-105.01 1432.55,-102 1443.08,-98.94"/>
<polygon fill="#63b8ff" stroke="#63b8ff" points="1444.21,-102.26 1452.77,-96.02 1442.19,-95.56 1444.21,-102.26"/>
</a>
</g>
</g>
<!-- Node22 -->
<g id="Node000022" class="node">
<title>Node22</title>
<g id="a_Node000022"><a xlink:href="../../d7/dea/fixed__vector_8hpp.html" target="_top" xlink:title="TODO.">
<polygon fill="white" stroke="#666666" points="1675,-96 1555,-96 1555,-77 1675,-77 1675,-96"/>
<text text-anchor="middle" x="1615" y="-84" font-family="Helvetica,sans-Serif" font-size="10.00">core/fixed_vector.hpp</text>
</a>
</g>
</g>
<!-- Node4&#45;&gt;Node22 -->
<g id="edge22_Node000004_Node000022" class="edge">
<title>Node4&#45;&gt;Node22</title>
<g id="a_edge22_Node000004_Node000022"><a xlink:title=" ">
<path fill="none" stroke="#63b8ff" d="M896.71,-151.77C991.92,-152.15 1297.73,-149.73 1546,-107 1557.16,-105.08 1569.09,-102.06 1579.85,-98.97"/>
<polygon fill="#63b8ff" stroke="#63b8ff" points="1581.16,-102.23 1589.73,-96.02 1579.15,-95.53 1581.16,-102.23"/>
</a>
</g>
</g>
<!-- Node23 -->
<g id="Node000023" class="node">
<title>Node23</title>
<g id="a_Node000023"><a xlink:href="../../dd/d8e/hashes_8hpp.html" target="_top" xlink:title="CRC hash functions.">
<polygon fill="white" stroke="#666666" points="1789,-96 1693,-96 1693,-77 1789,-77 1789,-96"/>
<text text-anchor="middle" x="1741" y="-84" font-family="Helvetica,sans-Serif" font-size="10.00">core/hashes.hpp</text>
</a>
</g>
</g>
<!-- Node4&#45;&gt;Node23 -->
<g id="edge23_Node000004_Node000023" class="edge">
<title>Node4&#45;&gt;Node23</title>
<g id="a_edge23_Node000004_Node000023"><a xlink:title=" ">
<path fill="none" stroke="#63b8ff" d="M896.91,-150.97C1025.1,-148.53 1528.7,-137.19 1684,-107 1692.93,-105.26 1702.37,-102.46 1710.94,-99.51"/>
<polygon fill="#63b8ff" stroke="#63b8ff" points="1712.32,-102.73 1720.53,-96.03 1709.93,-96.15 1712.32,-102.73"/>
</a>
</g>
</g>
<!-- Node24 -->
<g id="Node000024" class="node">
<title>Node24</title>
<g id="a_Node000024"><a xlink:href="../../df/d93/utils_8hpp.html" target="_top" xlink:title="Core utility functions for string manipulation, encoding conversion, and number formatting.">
<polygon fill="white" stroke="#666666" points="1890.5,-96 1807.5,-96 1807.5,-77 1890.5,-77 1890.5,-96"/>
<text text-anchor="middle" x="1849" y="-84" font-family="Helvetica,sans-Serif" font-size="10.00">core/utils.hpp</text>
</a>
</g>
</g>
<!-- Node4&#45;&gt;Node24 -->
<g id="edge24_Node000004_Node000024" class="edge">
<title>Node4&#45;&gt;Node24</title>
<g id="a_edge24_Node000004_Node000024"><a xlink:title=" ">
<path fill="none" stroke="#63b8ff" d="M896.81,-151.34C1035.67,-150.41 1619.82,-144.32 1798,-107 1805.65,-105.4 1813.67,-102.8 1821.02,-100.02"/>
<polygon fill="#63b8ff" stroke="#63b8ff" points="1822.57,-103.17 1830.54,-96.19 1819.96,-96.68 1822.57,-103.17"/>
</a>
</g>
</g>
<!-- Node25 -->
<g id="Node000025" class="node">
<title>Node25</title>
<g id="a_Node000025"><a xlink:href="../../df/d4a/c__string__view_8inl.html" target="_top" xlink:title="Inline implementations for CStringView class.">
<polygon fill="white" stroke="#666666" points="2031,-96 1909,-96 1909,-77 2031,-77 2031,-96"/>
<text text-anchor="middle" x="1970" y="-84" font-family="Helvetica,sans-Serif" font-size="10.00">core/c_string_view.inl</text>
</a>
</g>
</g>
<!-- Node4&#45;&gt;Node25 -->
<g id="edge25_Node000004_Node000025" class="edge">
<title>Node4&#45;&gt;Node25</title>
<g id="a_edge25_Node000004_Node000025"><a xlink:title=" ">
<path fill="none" stroke="#63b8ff" d="M896.5,-151.14C1043.64,-149.2 1699,-138.89 1900,-107 1911.54,-105.17 1923.9,-102.11 1934.97,-98.95"/>
<polygon fill="#63b8ff" stroke="#63b8ff" points="1936.12,-102.26 1944.71,-96.05 1934.13,-95.55 1936.12,-102.26"/>
</a>
</g>
</g>
<!-- Node26 -->
<g id="Node000026" class="node">
<title>Node26</title>
<g id="a_Node000026"><a xlink:href="../../dc/d28/constexpr__utils_8inl.html" target="_top" xlink:title="Inline implementations for constexpr utility functions.">
<polygon fill="white" stroke="#666666" points="2179,-96 2049,-96 2049,-77 2179,-77 2179,-96"/>
<text text-anchor="middle" x="2114" y="-84" font-family="Helvetica,sans-Serif" font-size="10.00">core/constexpr_utils.inl</text>
</a>
</g>
</g>
<!-- Node4&#45;&gt;Node26 -->
<g id="edge26_Node000004_Node000026" class="edge">
<title>Node4&#45;&gt;Node26</title>
<g id="a_edge26_Node000004_Node000026"><a xlink:title=" ">
<path fill="none" stroke="#63b8ff" d="M896.73,-151.26C1056,-149.82 1809.71,-141.28 2040,-107 2052.3,-105.17 2065.49,-102.07 2077.29,-98.88"/>
<polygon fill="#63b8ff" stroke="#63b8ff" points="2078.56,-102.16 2087.23,-96.07 2076.66,-95.42 2078.56,-102.16"/>
</a>
</g>
</g>
<!-- Node27 -->
<g id="Node000027" class="node">
<title>Node27</title>
<g id="a_Node000027"><a xlink:href="../../d7/d40/fixed__string_8inl.html" target="_top" xlink:title="Inline implementations for FixedString template class.">
<polygon fill="white" stroke="#666666" points="2309,-96 2197,-96 2197,-77 2309,-77 2309,-96"/>
<text text-anchor="middle" x="2253" y="-84" font-family="Helvetica,sans-Serif" font-size="10.00">core/fixed_string.inl</text>
</a>
</g>
</g>
<!-- Node4&#45;&gt;Node27 -->
<g id="edge27_Node000004_Node000027" class="edge">
<title>Node4&#45;&gt;Node27</title>
<g id="a_edge27_Node000004_Node000027"><a xlink:title=" ">
<path fill="none" stroke="#63b8ff" d="M896.77,-151.54C1067.87,-151.6 1927.45,-149.73 2188,-107 2198.64,-105.26 2209.98,-102.27 2220.15,-99.15"/>
<polygon fill="#63b8ff" stroke="#63b8ff" points="2221.42,-102.41 2229.88,-96.02 2219.28,-95.75 2221.42,-102.41"/>
</a>
</g>
</g>
<!-- Node28 -->
<g id="Node000028" class="node">
<title>Node28</title>
<g id="a_Node000028"><a xlink:href="../../da/dc9/fixed__vector_8inl.html" target="_top" xlink:title="TODO.">
<polygon fill="white" stroke="#666666" points="2441,-96 2327,-96 2327,-77 2441,-77 2441,-96"/>
<text text-anchor="middle" x="2384" y="-84" font-family="Helvetica,sans-Serif" font-size="10.00">core/fixed_vector.inl</text>
</a>
</g>
</g>
<!-- Node4&#45;&gt;Node28 -->
<g id="edge28_Node000004_Node000028" class="edge">
<title>Node4&#45;&gt;Node28</title>
<g id="a_edge28_Node000004_Node000028"><a xlink:title=" ">
<path fill="none" stroke="#63b8ff" d="M896.7,-151.63C1077.34,-152.23 2030.11,-153.16 2318,-107 2328.91,-105.25 2340.54,-102.22 2350.96,-99.07"/>
<polygon fill="#63b8ff" stroke="#63b8ff" points="2352.04,-102.4 2360.51,-96.04 2349.92,-95.72 2352.04,-102.4"/>
</a>
</g>
</g>
<!-- Node29 -->
<g id="Node000029" class="node">
<title>Node29</title>
<g id="a_Node000029"><a xlink:href="../../df/d7d/utils_8inl.html" target="_top" xlink:title="Inline implementations of core utility functions for string manipulation and encoding conversion.">
<polygon fill="white" stroke="#666666" points="2536.5,-96 2459.5,-96 2459.5,-77 2536.5,-77 2536.5,-96"/>
<text text-anchor="middle" x="2498" y="-84" font-family="Helvetica,sans-Serif" font-size="10.00">core/utils.inl</text>
</a>
</g>
</g>
<!-- Node4&#45;&gt;Node29 -->
<g id="edge29_Node000004_Node000029" class="edge">
<title>Node4&#45;&gt;Node29</title>
<g id="a_edge29_Node000004_Node000029"><a xlink:title=" ">
<path fill="none" stroke="#63b8ff" d="M896.58,-151.3C1100.33,-149.86 2292.6,-140.05 2450,-107 2457.22,-105.48 2464.73,-102.94 2471.62,-100.18"/>
<polygon fill="#63b8ff" stroke="#63b8ff" points="2473.34,-103.25 2481.14,-96.08 2470.57,-96.82 2473.34,-103.25"/>
</a>
</g>
</g>
<!-- Node18 -->
<g id="Node000018" class="node">
<title>Node18</title>
<g id="a_Node000018"><a xlink:href="../../d1/d5f/assertion__macro__gcc__clang_8hpp.html" target="_top" xlink:title="Debug and Release assertion macro implementations for GCC/Clang platforms.">
<polygon fill="white" stroke="#666666" points="1086.5,-30 959.5,-30 959.5,0 1086.5,0 1086.5,-30"/>
<text text-anchor="start" x="967.5" y="-18" font-family="Helvetica,sans-Serif" font-size="10.00">../common/assertion</text>
<text text-anchor="middle" x="1023" y="-7" font-family="Helvetica,sans-Serif" font-size="10.00">_macro_gcc_clang.hpp</text>
</a>
</g>
</g>
<!-- Node17&#45;&gt;Node18 -->
<g id="edge18_Node000017_Node000018" class="edge">
<title>Node17&#45;&gt;Node18</title>
<g id="a_edge18_Node000017_Node000018"><a xlink:title=" ">
<path fill="none" stroke="#63b8ff" d="M1023,-65.77C1023,-57.85 1023,-48.63 1023,-40.3"/>
<polygon fill="#63b8ff" stroke="#63b8ff" points="1026.5,-40.04 1023,-30.04 1019.5,-40.04 1026.5,-40.04"/>
</a>
</g>
</g>
</g>
</svg>
