<?xml version="1.0" encoding="UTF-8" standalone="no"?>
<!DOCTYPE svg PUBLIC "-//W3C//DTD SVG 1.1//EN"
 "http://www.w3.org/Graphics/SVG/1.1/DTD/svg11.dtd">
<!-- Generated by graphviz version 2.43.0 (0)
 -->
<!-- Title: src/platforms/stub/core/assertion_stub.cpp Pages: 1 -->
<!--zoomable 170 -->

<svg id="main" version="1.1" xmlns="http://www.w3.org/2000/svg" xmlns:xlink="http://www.w3.org/1999/xlink" xml:space="preserve" onload="init(evt)">

<style type="text/css"><![CDATA[
.node, .edge {opacity: 0.7;}
.node.selected, .edge.selected {opacity: 1;}
.edge:hover path { stroke: red; }
.edge:hover polygon { stroke: red; fill: red; }
]]></style>

<defs>
  <circle id="rim" cx="0" cy="0" r="7"/>
  <circle id="rim2" cx="0" cy="0" r="3.5"/>
  <g id="zoomPlus">
    <use xlink:href="#rim" fill="#404040"><set attributeName="fill" to="#808080" begin="zoomplus.mouseover" end="zoomplus.mouseout"/></use>
    <path d="M-4,0h8M0,-4v8" fill="none" stroke="white" stroke-width="1.5" pointer-events="none"/>
  </g>
  <g id="zoomMin">
    <use xlink:href="#rim" fill="#404040"><set attributeName="fill" to="#808080" begin="zoomminus.mouseover" end="zoomminus.mouseout"/></use>
    <path d="M-4,0h8" fill="none" stroke="white" stroke-width="1.5" pointer-events="none"/>
  </g>
  <g id="arrowUp" transform="translate(30 24)">
    <use xlink:href="#rim"/>
    <path pointer-events="none" fill="none" stroke="white" stroke-width="1.5" d="M0,-3.0v7 M-2.5,-0.5L0,-3.0L2.5,-0.5"/>
  </g>
  <g id="arrowRight" transform="rotate(90) translate(36 -43)">
    <use xlink:href="#rim"/>
    <path pointer-events="none" fill="none" stroke="white" stroke-width="1.5" d="M0,-3.0v7 M-2.5,-0.5L0,-3.0L2.5,-0.5"/>
  </g>
  <g id="arrowDown" transform="rotate(180) translate(-30 -48)">
    <use xlink:href="#rim"/>
    <path pointer-events="none" fill="none" stroke="white" stroke-width="1.5" d="M0,-3.0v7 M-2.5,-0.5L0,-3.0L2.5,-0.5"/>
  </g>
  <g id="arrowLeft" transform="rotate(270) translate(-36 17)">
    <use xlink:href="#rim"/>
    <path pointer-events="none" fill="none" stroke="white" stroke-width="1.5" d="M0,-3.0v7 M-2.5,-0.5L0,-3.0L2.5,-0.5"/>
  </g>
  <g id="resetDef">
    <use xlink:href="#rim2" fill="#404040"><set attributeName="fill" to="#808080" begin="reset.mouseover" end="reset.mouseout"/></use>
  </g>
</defs>
<script type="application/ecmascript">
var viewWidth = 1628;
var viewHeight = 170;
var sectionId = 'dynsection-0';
</script>
<script type="application/ecmascript" xlink:href="../../svg.min.js"/>
<svg id="graph" class="graph">
<g id="viewport">
<title>src/platforms/stub/core/assertion_stub.cpp</title>
<!-- Node1 -->
<g id="Node000001" class="node">
<title>Node1</title>
<g id="a_Node000001"><a xlink:title=" ">
<polygon fill="#999999" stroke="#666666" points="311.5,-162 176.5,-162 176.5,-132 311.5,-132 311.5,-162"/>
<text text-anchor="start" x="184.5" y="-150" font-family="Helvetica,sans-Serif" font-size="10.00">src/platforms/stub</text>
<text text-anchor="middle" x="244" y="-139" font-family="Helvetica,sans-Serif" font-size="10.00">/core/assertion_stub.cpp</text>
</a>
</g>
</g>
<!-- Node2 -->
<g id="Node000002" class="node">
<title>Node2</title>
<g id="a_Node000002"><a xlink:title=" ">
<polygon fill="#e0e0e0" stroke="#999999" points="216,-96 170,-96 170,-77 216,-77 216,-96"/>
<text text-anchor="middle" x="193" y="-84" font-family="Helvetica,sans-Serif" font-size="10.00">cstdio</text>
</a>
</g>
</g>
<!-- Node1&#45;&gt;Node2 -->
<g id="edge1_Node000001_Node000002" class="edge">
<title>Node1&#45;&gt;Node2</title>
<g id="a_edge1_Node000001_Node000002"><a xlink:title=" ">
<path fill="none" stroke="#63b8ff" d="M231.65,-131.84C224.33,-123.43 215,-112.74 207.35,-103.96"/>
<polygon fill="#63b8ff" stroke="#63b8ff" points="209.85,-101.5 200.64,-96.27 204.58,-106.1 209.85,-101.5"/>
</a>
</g>
</g>
<!-- Node3 -->
<g id="Node000003" class="node">
<title>Node3</title>
<g id="a_Node000003"><a xlink:title=" ">
<polygon fill="#e0e0e0" stroke="#999999" points="44,-30 0,-30 0,-11 44,-11 44,-30"/>
<text text-anchor="middle" x="22" y="-18" font-family="Helvetica,sans-Serif" font-size="10.00">string</text>
</a>
</g>
</g>
<!-- Node1&#45;&gt;Node3 -->
<g id="edge2_Node000001_Node000003" class="edge">
<title>Node1&#45;&gt;Node3</title>
<g id="a_edge2_Node000001_Node000003"><a xlink:title=" ">
<path fill="none" stroke="#63b8ff" d="M244.19,-131.93C243.6,-116.24 240.12,-91.21 225,-77 168.08,-23.52 125.42,-70.25 53,-41 49.37,-39.53 45.69,-37.64 42.19,-35.62"/>
<polygon fill="#63b8ff" stroke="#63b8ff" points="43.86,-32.53 33.54,-30.14 40.12,-38.44 43.86,-32.53"/>
</a>
</g>
</g>
<!-- Node4 -->
<g id="Node000004" class="node">
<title>Node4</title>
<g id="a_Node000004"><a xlink:href="../../da/d47/core_8hpp.html" target="_top" xlink:title=" ">
<polygon fill="white" stroke="#666666" points="588.5,-96 529.5,-96 529.5,-77 588.5,-77 588.5,-96"/>
<text text-anchor="middle" x="559" y="-84" font-family="Helvetica,sans-Serif" font-size="10.00">core.hpp</text>
</a>
</g>
</g>
<!-- Node1&#45;&gt;Node4 -->
<g id="edge3_Node000001_Node000004" class="edge">
<title>Node1&#45;&gt;Node4</title>
<g id="a_edge3_Node000001_Node000004"><a xlink:title=" ">
<path fill="none" stroke="#63b8ff" d="M311.58,-133.45C374.79,-121.71 467.07,-104.57 519.23,-94.89"/>
<polygon fill="#63b8ff" stroke="#63b8ff" points="519.91,-98.32 529.1,-93.05 518.63,-91.44 519.91,-98.32"/>
</a>
</g>
</g>
<!-- Node4&#45;&gt;Node3 -->
<g id="edge12_Node000004_Node000003" class="edge">
<title>Node4&#45;&gt;Node3</title>
<g id="a_edge12_Node000004_Node000003"><a xlink:title=" ">
<path fill="none" stroke="#63b8ff" d="M529.17,-84.71C434.56,-81.92 142.22,-71.02 53,-41 49.05,-39.67 45.08,-37.74 41.37,-35.6"/>
<polygon fill="#63b8ff" stroke="#63b8ff" points="43.13,-32.57 32.83,-30.1 39.34,-38.46 43.13,-32.57"/>
</a>
</g>
</g>
<!-- Node5 -->
<g id="Node000005" class="node">
<title>Node5</title>
<g id="a_Node000005"><a xlink:title=" ">
<polygon fill="#e0e0e0" stroke="#999999" points="126,-30 62,-30 62,-11 126,-11 126,-30"/>
<text text-anchor="middle" x="94" y="-18" font-family="Helvetica,sans-Serif" font-size="10.00">algorithm</text>
</a>
</g>
</g>
<!-- Node4&#45;&gt;Node5 -->
<g id="edge4_Node000004_Node000005" class="edge">
<title>Node4&#45;&gt;Node5</title>
<g id="a_edge4_Node000004_Node000005"><a xlink:title=" ">
<path fill="none" stroke="#63b8ff" d="M529.31,-85.8C459.26,-85.78 278.75,-81.44 135,-41 129.4,-39.43 123.63,-37.14 118.24,-34.68"/>
<polygon fill="#63b8ff" stroke="#63b8ff" points="119.61,-31.46 109.09,-30.19 116.53,-37.74 119.61,-31.46"/>
</a>
</g>
</g>
<!-- Node6 -->
<g id="Node000006" class="node">
<title>Node6</title>
<g id="a_Node000006"><a xlink:title=" ">
<polygon fill="#e0e0e0" stroke="#999999" points="186,-30 144,-30 144,-11 186,-11 186,-30"/>
<text text-anchor="middle" x="165" y="-18" font-family="Helvetica,sans-Serif" font-size="10.00">array</text>
</a>
</g>
</g>
<!-- Node4&#45;&gt;Node6 -->
<g id="edge5_Node000004_Node000006" class="edge">
<title>Node4&#45;&gt;Node6</title>
<g id="a_edge5_Node000004_Node000006"><a xlink:title=" ">
<path fill="none" stroke="#63b8ff" d="M529.17,-86.33C465.65,-87.14 313.16,-84 195,-41 191.28,-39.65 187.55,-37.76 184.05,-35.68"/>
<polygon fill="#63b8ff" stroke="#63b8ff" points="185.74,-32.61 175.47,-30 181.88,-38.44 185.74,-32.61"/>
</a>
</g>
</g>
<!-- Node7 -->
<g id="Node000007" class="node">
<title>Node7</title>
<g id="a_Node000007"><a xlink:title=" ">
<polygon fill="#e0e0e0" stroke="#999999" points="263.5,-30 204.5,-30 204.5,-11 263.5,-11 263.5,-30"/>
<text text-anchor="middle" x="234" y="-18" font-family="Helvetica,sans-Serif" font-size="10.00">compare</text>
</a>
</g>
</g>
<!-- Node4&#45;&gt;Node7 -->
<g id="edge6_Node000004_Node000007" class="edge">
<title>Node4&#45;&gt;Node7</title>
<g id="a_edge6_Node000004_Node000007"><a xlink:title=" ">
<path fill="none" stroke="#63b8ff" d="M529.49,-83.91C476.84,-80.43 363.71,-69.96 273,-41 267.81,-39.34 262.47,-37.08 257.45,-34.68"/>
<polygon fill="#63b8ff" stroke="#63b8ff" points="258.86,-31.47 248.36,-30.02 255.67,-37.7 258.86,-31.47"/>
</a>
</g>
</g>
<!-- Node8 -->
<g id="Node000008" class="node">
<title>Node8</title>
<g id="a_Node000008"><a xlink:title=" ">
<polygon fill="#e0e0e0" stroke="#999999" points="342,-30 282,-30 282,-11 342,-11 342,-30"/>
<text text-anchor="middle" x="312" y="-18" font-family="Helvetica,sans-Serif" font-size="10.00">concepts</text>
</a>
</g>
</g>
<!-- Node4&#45;&gt;Node8 -->
<g id="edge7_Node000004_Node000008" class="edge">
<title>Node4&#45;&gt;Node8</title>
<g id="a_edge7_Node000004_Node000008"><a xlink:title=" ">
<path fill="none" stroke="#63b8ff" d="M529.42,-81.58C488.5,-75.62 412.68,-62.63 351,-41 345.95,-39.23 340.72,-36.95 335.78,-34.58"/>
<polygon fill="#63b8ff" stroke="#63b8ff" points="337.3,-31.42 326.8,-30.01 334.13,-37.66 337.3,-31.42"/>
</a>
</g>
</g>
<!-- Node9 -->
<g id="Node000009" class="node">
<title>Node9</title>
<g id="a_Node000009"><a xlink:title=" ">
<polygon fill="#e0e0e0" stroke="#999999" points="413.5,-30 360.5,-30 360.5,-11 413.5,-11 413.5,-30"/>
<text text-anchor="middle" x="387" y="-18" font-family="Helvetica,sans-Serif" font-size="10.00">cstddef</text>
</a>
</g>
</g>
<!-- Node4&#45;&gt;Node9 -->
<g id="edge8_Node000004_Node000009" class="edge">
<title>Node4&#45;&gt;Node9</title>
<g id="a_edge8_Node000004_Node000009"><a xlink:title=" ">
<path fill="none" stroke="#63b8ff" d="M529.25,-77.45C501.31,-69.49 458.6,-56.32 423,-41 418.89,-39.23 414.62,-37.15 410.52,-35.02"/>
<polygon fill="#63b8ff" stroke="#63b8ff" points="411.87,-31.77 401.42,-30.08 408.54,-37.93 411.87,-31.77"/>
</a>
</g>
</g>
<!-- Node10 -->
<g id="Node000010" class="node">
<title>Node10</title>
<g id="a_Node000010"><a xlink:title=" ">
<polygon fill="#e0e0e0" stroke="#999999" points="482,-30 432,-30 432,-11 482,-11 482,-30"/>
<text text-anchor="middle" x="457" y="-18" font-family="Helvetica,sans-Serif" font-size="10.00">cstdint</text>
</a>
</g>
</g>
<!-- Node4&#45;&gt;Node10 -->
<g id="edge9_Node000004_Node000010" class="edge">
<title>Node4&#45;&gt;Node10</title>
<g id="a_edge9_Node000004_Node000010"><a xlink:title=" ">
<path fill="none" stroke="#63b8ff" d="M545.24,-76.87C528.36,-66.28 499.51,-48.17 479.41,-35.56"/>
<polygon fill="#63b8ff" stroke="#63b8ff" points="481.19,-32.55 470.86,-30.2 477.47,-38.48 481.19,-32.55"/>
</a>
</g>
</g>
<!-- Node11 -->
<g id="Node000011" class="node">
<title>Node11</title>
<g id="a_Node000011"><a xlink:title=" ">
<polygon fill="#e0e0e0" stroke="#999999" points="550,-30 500,-30 500,-11 550,-11 550,-30"/>
<text text-anchor="middle" x="525" y="-18" font-family="Helvetica,sans-Serif" font-size="10.00">cstring</text>
</a>
</g>
</g>
<!-- Node4&#45;&gt;Node11 -->
<g id="edge10_Node000004_Node000011" class="edge">
<title>Node4&#45;&gt;Node11</title>
<g id="a_edge10_Node000004_Node000011"><a xlink:title=" ">
<path fill="none" stroke="#63b8ff" d="M554.41,-76.87C549.32,-67.28 540.96,-51.55 534.46,-39.3"/>
<polygon fill="#63b8ff" stroke="#63b8ff" points="537.51,-37.59 529.73,-30.41 531.33,-40.88 537.51,-37.59"/>
</a>
</g>
</g>
<!-- Node12 -->
<g id="Node000012" class="node">
<title>Node12</title>
<g id="a_Node000012"><a xlink:title=" ">
<polygon fill="#e0e0e0" stroke="#999999" points="617.5,-30 568.5,-30 568.5,-11 617.5,-11 617.5,-30"/>
<text text-anchor="middle" x="593" y="-18" font-family="Helvetica,sans-Serif" font-size="10.00">cuchar</text>
</a>
</g>
</g>
<!-- Node4&#45;&gt;Node12 -->
<g id="edge11_Node000004_Node000012" class="edge">
<title>Node4&#45;&gt;Node12</title>
<g id="a_edge11_Node000004_Node000012"><a xlink:title=" ">
<path fill="none" stroke="#63b8ff" d="M563.59,-76.87C568.68,-67.28 577.04,-51.55 583.54,-39.3"/>
<polygon fill="#63b8ff" stroke="#63b8ff" points="586.67,-40.88 588.27,-30.41 580.49,-37.59 586.67,-40.88"/>
</a>
</g>
</g>
<!-- Node13 -->
<g id="Node000013" class="node">
<title>Node13</title>
<g id="a_Node000013"><a xlink:title=" ">
<polygon fill="#e0e0e0" stroke="#999999" points="680.5,-30 635.5,-30 635.5,-11 680.5,-11 680.5,-30"/>
<text text-anchor="middle" x="658" y="-18" font-family="Helvetica,sans-Serif" font-size="10.00">utility</text>
</a>
</g>
</g>
<!-- Node4&#45;&gt;Node13 -->
<g id="edge13_Node000004_Node000013" class="edge">
<title>Node4&#45;&gt;Node13</title>
<g id="a_edge13_Node000004_Node000013"><a xlink:title=" ">
<path fill="none" stroke="#63b8ff" d="M572.35,-76.87C588.66,-66.32 616.49,-48.34 635.99,-35.73"/>
<polygon fill="#63b8ff" stroke="#63b8ff" points="638.05,-38.57 644.54,-30.2 634.25,-32.69 638.05,-38.57"/>
</a>
</g>
</g>
<!-- Node14 -->
<g id="Node000014" class="node">
<title>Node14</title>
<g id="a_Node000014"><a xlink:href="../../dd/d9e/linux_2platform__config_8hpp.html" target="_top" xlink:title="additional linux platform header">
<polygon fill="white" stroke="#666666" points="853.5,-41 698.5,-41 698.5,0 853.5,0 853.5,-41"/>
<text text-anchor="start" x="706.5" y="-29" font-family="Helvetica,sans-Serif" font-size="10.00">/home/runner/work/toygine2</text>
<text text-anchor="start" x="706.5" y="-18" font-family="Helvetica,sans-Serif" font-size="10.00">/toygine2/src/platforms</text>
<text text-anchor="middle" x="776" y="-7" font-family="Helvetica,sans-Serif" font-size="10.00">/linux/platform_config.hpp</text>
</a>
</g>
</g>
<!-- Node4&#45;&gt;Node14 -->
<g id="edge14_Node000004_Node000014" class="edge">
<title>Node4&#45;&gt;Node14</title>
<g id="a_edge14_Node000004_Node000014"><a xlink:title=" ">
<path fill="none" stroke="#63b8ff" d="M588.27,-76.87C616.85,-68.44 661.56,-55.25 700.18,-43.86"/>
<polygon fill="#63b8ff" stroke="#63b8ff" points="701.25,-47.19 709.85,-41.01 699.27,-40.48 701.25,-47.19"/>
</a>
</g>
</g>
<!-- Node15 -->
<g id="Node000015" class="node">
<title>Node15</title>
<g id="a_Node000015"><a xlink:href="../../d4/dc0/constexpr__utils_8hpp.html" target="_top" xlink:title="Constexpr utility functions for compile&#45;time operations.">
<polygon fill="white" stroke="#666666" points="1008,-30 872,-30 872,-11 1008,-11 1008,-30"/>
<text text-anchor="middle" x="940" y="-18" font-family="Helvetica,sans-Serif" font-size="10.00">core/constexpr_utils.hpp</text>
</a>
</g>
</g>
<!-- Node4&#45;&gt;Node15 -->
<g id="edge15_Node000004_Node000015" class="edge">
<title>Node4&#45;&gt;Node15</title>
<g id="a_edge15_Node000004_Node000015"><a xlink:title=" ">
<path fill="none" stroke="#63b8ff" d="M588.52,-82.2C643.04,-75.88 763.08,-60.91 863,-41 874.92,-38.62 887.77,-35.57 899.49,-32.59"/>
<polygon fill="#63b8ff" stroke="#63b8ff" points="900.64,-35.91 909.44,-30.01 898.88,-29.13 900.64,-35.91"/>
</a>
</g>
</g>
<!-- Node16 -->
<g id="Node000016" class="node">
<title>Node16</title>
<g id="a_Node000016"><a xlink:href="../../d7/d7f/fixed__string_8hpp.html" target="_top" xlink:title="Template string class with fixed&#45;size character buffer.">
<polygon fill="white" stroke="#666666" points="1144,-30 1026,-30 1026,-11 1144,-11 1144,-30"/>
<text text-anchor="middle" x="1085" y="-18" font-family="Helvetica,sans-Serif" font-size="10.00">core/fixed_string.hpp</text>
</a>
</g>
</g>
<!-- Node4&#45;&gt;Node16 -->
<g id="edge16_Node000004_Node000016" class="edge">
<title>Node4&#45;&gt;Node16</title>
<g id="a_edge16_Node000004_Node000016"><a xlink:title=" ">
<path fill="none" stroke="#63b8ff" d="M588.74,-84.49C662.08,-81.59 857.29,-71.39 1017,-41 1027.79,-38.95 1039.34,-35.95 1049.8,-32.92"/>
<polygon fill="#63b8ff" stroke="#63b8ff" points="1050.86,-36.25 1059.43,-30.03 1048.85,-29.55 1050.86,-36.25"/>
</a>
</g>
</g>
<!-- Node17 -->
<g id="Node000017" class="node">
<title>Node17</title>
<g id="a_Node000017"><a xlink:href="../../df/d93/utils_8hpp.html" target="_top" xlink:title="Core utility functions for string manipulation, encoding conversion, and number formatting.">
<polygon fill="white" stroke="#666666" points="1245.5,-30 1162.5,-30 1162.5,-11 1245.5,-11 1245.5,-30"/>
<text text-anchor="middle" x="1204" y="-18" font-family="Helvetica,sans-Serif" font-size="10.00">core/utils.hpp</text>
</a>
</g>
</g>
<!-- Node4&#45;&gt;Node17 -->
<g id="edge17_Node000004_Node000017" class="edge">
<title>Node4&#45;&gt;Node17</title>
<g id="a_edge17_Node000004_Node000017"><a xlink:title=" ">
<path fill="none" stroke="#63b8ff" d="M588.53,-84.42C692.84,-80.43 1043.5,-65.49 1153,-41 1160.63,-39.29 1168.64,-36.66 1175.99,-33.88"/>
<polygon fill="#63b8ff" stroke="#63b8ff" points="1177.53,-37.03 1185.51,-30.06 1174.93,-30.53 1177.53,-37.03"/>
</a>
</g>
</g>
<!-- Node18 -->
<g id="Node000018" class="node">
<title>Node18</title>
<g id="a_Node000018"><a xlink:href="../../dc/d28/constexpr__utils_8inl.html" target="_top" xlink:title="Inline implementations for constexpr utility functions.">
<polygon fill="white" stroke="#666666" points="1394,-30 1264,-30 1264,-11 1394,-11 1394,-30"/>
<text text-anchor="middle" x="1329" y="-18" font-family="Helvetica,sans-Serif" font-size="10.00">core/constexpr_utils.inl</text>
</a>
</g>
</g>
<!-- Node4&#45;&gt;Node18 -->
<g id="edge18_Node000004_Node000018" class="edge">
<title>Node4&#45;&gt;Node18</title>
<g id="a_edge18_Node000004_Node000018"><a xlink:title=" ">
<path fill="none" stroke="#63b8ff" d="M588.74,-85.65C685.45,-85.7 999.53,-82.43 1255,-41 1267.17,-39.03 1280.24,-35.92 1291.97,-32.76"/>
<polygon fill="#63b8ff" stroke="#63b8ff" points="1293.17,-36.06 1301.86,-30 1291.29,-29.32 1293.17,-36.06"/>
</a>
</g>
</g>
<!-- Node19 -->
<g id="Node000019" class="node">
<title>Node19</title>
<g id="a_Node000019"><a xlink:href="../../d7/d40/fixed__string_8inl.html" target="_top" xlink:title="Inline implementations for FixedString template class.">
<polygon fill="white" stroke="#666666" points="1524,-30 1412,-30 1412,-11 1524,-11 1524,-30"/>
<text text-anchor="middle" x="1468" y="-18" font-family="Helvetica,sans-Serif" font-size="10.00">core/fixed_string.inl</text>
</a>
</g>
</g>
<!-- Node4&#45;&gt;Node19 -->
<g id="edge19_Node000004_Node000019" class="edge">
<title>Node4&#45;&gt;Node19</title>
<g id="a_edge19_Node000004_Node000019"><a xlink:title=" ">
<path fill="none" stroke="#63b8ff" d="M588.54,-84.89C718.68,-82.05 1241.45,-69.08 1403,-41 1413.53,-39.17 1424.77,-36.19 1434.88,-33.1"/>
<polygon fill="#63b8ff" stroke="#63b8ff" points="1436.09,-36.39 1444.55,-30.01 1433.96,-29.72 1436.09,-36.39"/>
</a>
</g>
</g>
<!-- Node20 -->
<g id="Node000020" class="node">
<title>Node20</title>
<g id="a_Node000020"><a xlink:href="../../df/d7d/utils_8inl.html" target="_top" xlink:title="Inline implementations of core utility functions for string manipulation and encoding conversion.">
<polygon fill="white" stroke="#666666" points="1619.5,-30 1542.5,-30 1542.5,-11 1619.5,-11 1619.5,-30"/>
<text text-anchor="middle" x="1581" y="-18" font-family="Helvetica,sans-Serif" font-size="10.00">core/utils.inl</text>
</a>
</g>
</g>
<!-- Node4&#45;&gt;Node20 -->
<g id="edge20_Node000004_Node000020" class="edge">
<title>Node4&#45;&gt;Node20</title>
<g id="a_edge20_Node000004_Node000020"><a xlink:title=" ">
<path fill="none" stroke="#63b8ff" d="M588.77,-85.5C731.48,-85.27 1346.36,-81.91 1533,-41 1540.2,-39.42 1547.71,-36.85 1554.6,-34.09"/>
<polygon fill="#63b8ff" stroke="#63b8ff" points="1556.32,-37.16 1564.12,-30 1553.55,-30.73 1556.32,-37.16"/>
</a>
</g>
</g>
</g>
</svg>

<g id="navigator" transform="translate(0 0)" fill="#404254">
  <rect fill="#f2f5e9" fill-opacity="0.5" stroke="#606060" stroke-width=".5" x="0" y="0" width="60" height="60"/>
  <use id="zoomplus" xlink:href="#zoomPlus" x="17" y="9" onmousedown="handleZoom(evt,'in')"/>
  <use id="zoomminus" xlink:href="#zoomMin" x="42" y="9" onmousedown="handleZoom(evt,'out')"/>
  <use id="reset" xlink:href="#resetDef" x="30" y="36" onmousedown="handleReset()"/>
   <use id="arrowup" xlink:href="#arrowUp" x="0" y="0" onmousedown="handlePan(0,-1)"/>
  <use id="arrowright" xlink:href="#arrowRight" x="0" y="0" onmousedown="handlePan(1,0)"/>
  <use id="arrowdown" xlink:href="#arrowDown" x="0" y="0" onmousedown="handlePan(0,1)"/>
  <use id="arrowleft" xlink:href="#arrowLeft" x="0" y="0" onmousedown="handlePan(-1,0)"/>
</g>
<svg viewBox="0 0 15 15" width="100%" height="30px" preserveAspectRatio="xMaxYMin meet">
 <g id="arrow_out" transform="scale(0.3 0.3)">
  <a xlink:href="assertion__stub_8cpp__incl_org.svg" target="_base">
   <rect id="button" ry="5" rx="5" y="6" x="6" height="38" width="38"
        fill="#f2f5e9" fill-opacity="0.5" stroke="#606060" stroke-width="1.0"/>
   <path id="arrow"
     d="M 11.500037,31.436501 C 11.940474,20.09759 22.043105,11.32322 32.158766,21.979434 L 37.068811,17.246167 C 37.068811,17.246167 37.088388,32 37.088388,32 L 22.160133,31.978069 C 22.160133,31.978069 26.997745,27.140456 26.997745,27.140456 C 18.528582,18.264221 13.291696,25.230495 11.500037,31.436501 z"
     style="fill:#404040;"/>
  </a>
 </g>
</svg>

<style type='text/css'>
<![CDATA[
[data-mouse-over-selected='false'] { opacity: 0.7; }
[data-mouse-over-selected='true']  { opacity: 1.0; }
]]>
</style>
<script type="application/ecmascript"><![CDATA[
document.addEventListener('DOMContentLoaded', (event) => {
  highlightEdges();
  highlightAdjacentNodes();
});
]]></script>
</svg>
