<?xml version="1.0" encoding="UTF-8" standalone="no"?>
<!DOCTYPE svg PUBLIC "-//W3C//DTD SVG 1.1//EN"
 "http://www.w3.org/Graphics/SVG/1.1/DTD/svg11.dtd">
<!-- Generated by graphviz version 2.43.0 (0)
 -->
<!-- Title: src/platforms/stub/core/assertion_stub.cpp Pages: 1 -->
<!--zoomable 236 -->

<svg id="main" version="1.1" xmlns="http://www.w3.org/2000/svg" xmlns:xlink="http://www.w3.org/1999/xlink" xml:space="preserve" onload="init(evt)">

<style type="text/css"><![CDATA[
.node, .edge {opacity: 0.7;}
.node.selected, .edge.selected {opacity: 1;}
.edge:hover path { stroke: red; }
.edge:hover polygon { stroke: red; fill: red; }
]]></style>

<defs>
  <circle id="rim" cx="0" cy="0" r="7"/>
  <circle id="rim2" cx="0" cy="0" r="3.5"/>
  <g id="zoomPlus">
    <use xlink:href="#rim" fill="#404040"><set attributeName="fill" to="#808080" begin="zoomplus.mouseover" end="zoomplus.mouseout"/></use>
    <path d="M-4,0h8M0,-4v8" fill="none" stroke="white" stroke-width="1.5" pointer-events="none"/>
  </g>
  <g id="zoomMin">
    <use xlink:href="#rim" fill="#404040"><set attributeName="fill" to="#808080" begin="zoomminus.mouseover" end="zoomminus.mouseout"/></use>
    <path d="M-4,0h8" fill="none" stroke="white" stroke-width="1.5" pointer-events="none"/>
  </g>
  <g id="arrowUp" transform="translate(30 24)">
    <use xlink:href="#rim"/>
    <path pointer-events="none" fill="none" stroke="white" stroke-width="1.5" d="M0,-3.0v7 M-2.5,-0.5L0,-3.0L2.5,-0.5"/>
  </g>
  <g id="arrowRight" transform="rotate(90) translate(36 -43)">
    <use xlink:href="#rim"/>
    <path pointer-events="none" fill="none" stroke="white" stroke-width="1.5" d="M0,-3.0v7 M-2.5,-0.5L0,-3.0L2.5,-0.5"/>
  </g>
  <g id="arrowDown" transform="rotate(180) translate(-30 -48)">
    <use xlink:href="#rim"/>
    <path pointer-events="none" fill="none" stroke="white" stroke-width="1.5" d="M0,-3.0v7 M-2.5,-0.5L0,-3.0L2.5,-0.5"/>
  </g>
  <g id="arrowLeft" transform="rotate(270) translate(-36 17)">
    <use xlink:href="#rim"/>
    <path pointer-events="none" fill="none" stroke="white" stroke-width="1.5" d="M0,-3.0v7 M-2.5,-0.5L0,-3.0L2.5,-0.5"/>
  </g>
  <g id="resetDef">
    <use xlink:href="#rim2" fill="#404040"><set attributeName="fill" to="#808080" begin="reset.mouseover" end="reset.mouseout"/></use>
  </g>
</defs>
<script type="application/ecmascript">
var viewWidth = 2717;
var viewHeight = 236;
var sectionId = 'dynsection-0';
</script>
<script type="application/ecmascript" xlink:href="../../svg.min.js"/>
<svg id="graph" class="graph">
<g id="viewport">
<title>src/platforms/stub/core/assertion_stub.cpp</title>
<!-- Node1 -->
<g id="Node000001" class="node">
<title>Node1</title>
<g id="a_Node000001"><a xlink:title="Stub implementation of assertion system for platforms without native assertion support.">
<polygon fill="#999999" stroke="#666666" points="507.5,-228 372.5,-228 372.5,-198 507.5,-198 507.5,-228"/>
<text text-anchor="start" x="380.5" y="-216" font-family="Helvetica,sans-Serif" font-size="10.00">src/platforms/stub</text>
<text text-anchor="middle" x="440" y="-205" font-family="Helvetica,sans-Serif" font-size="10.00">/core/assertion_stub.cpp</text>
</a>
</g>
</g>
<!-- Node2 -->
<g id="Node000002" class="node">
<title>Node2</title>
<g id="a_Node000002"><a xlink:title=" ">
<polygon fill="#e0e0e0" stroke="#999999" points="412,-162 366,-162 366,-143 412,-143 412,-162"/>
<text text-anchor="middle" x="389" y="-150" font-family="Helvetica,sans-Serif" font-size="10.00">cstdio</text>
</a>
</g>
</g>
<!-- Node1&#45;&gt;Node2 -->
<g id="edge1_Node000001_Node000002" class="edge">
<title>Node1&#45;&gt;Node2</title>
<g id="a_edge1_Node000001_Node000002"><a xlink:title=" ">
<path fill="none" stroke="#63b8ff" d="M427.65,-197.84C420.33,-189.43 411,-178.74 403.35,-169.96"/>
<polygon fill="#63b8ff" stroke="#63b8ff" points="405.85,-167.5 396.64,-162.27 400.58,-172.1 405.85,-167.5"/>
</a>
</g>
</g>
<!-- Node3 -->
<g id="Node000003" class="node">
<title>Node3</title>
<g id="a_Node000003"><a xlink:title=" ">
<polygon fill="#e0e0e0" stroke="#999999" points="44,-96 0,-96 0,-77 44,-77 44,-96"/>
<text text-anchor="middle" x="22" y="-84" font-family="Helvetica,sans-Serif" font-size="10.00">string</text>
</a>
</g>
</g>
<!-- Node1&#45;&gt;Node3 -->
<g id="edge2_Node000001_Node000003" class="edge">
<title>Node1&#45;&gt;Node3</title>
<g id="a_edge2_Node000001_Node000003"><a xlink:title=" ">
<path fill="none" stroke="#63b8ff" d="M440.47,-197.91C440.16,-181.96 436.97,-156.44 421,-143 358.14,-90.08 130.75,-133.59 53,-107 49.05,-105.65 45.09,-103.71 41.38,-101.57"/>
<polygon fill="#63b8ff" stroke="#63b8ff" points="43.14,-98.54 32.84,-96.07 39.35,-104.43 43.14,-98.54"/>
</a>
</g>
</g>
<!-- Node4 -->
<g id="Node000004" class="node">
<title>Node4</title>
<g id="a_Node000004"><a xlink:href="../../da/d47/core_8hpp.html" target="_top" xlink:title="Umbrella header for the engine core module.">
<polygon fill="white" stroke="#666666" points="988.5,-162 929.5,-162 929.5,-143 988.5,-143 988.5,-162"/>
<text text-anchor="middle" x="959" y="-150" font-family="Helvetica,sans-Serif" font-size="10.00">core.hpp</text>
</a>
</g>
</g>
<!-- Node1&#45;&gt;Node4 -->
<g id="edge3_Node000001_Node000004" class="edge">
<title>Node1&#45;&gt;Node4</title>
<g id="a_edge3_Node000001_Node000004"><a xlink:title=" ">
<path fill="none" stroke="#63b8ff" d="M507.58,-204.38C617.32,-192.01 830.88,-167.94 919.25,-157.98"/>
<polygon fill="#63b8ff" stroke="#63b8ff" points="919.84,-161.44 929.39,-156.84 919.06,-154.48 919.84,-161.44"/>
</a>
</g>
</g>
<!-- Node4&#45;&gt;Node3 -->
<g id="edge16_Node000004_Node000003" class="edge">
<title>Node4&#45;&gt;Node3</title>
<g id="a_edge16_Node000004_Node000003"><a xlink:title=" ">
<path fill="none" stroke="#63b8ff" d="M929.07,-150.93C781.83,-148.01 138.05,-133.8 53,-107 48.95,-105.72 44.91,-103.79 41.15,-101.63"/>
<polygon fill="#63b8ff" stroke="#63b8ff" points="42.8,-98.53 32.51,-96.02 38.99,-104.4 42.8,-98.53"/>
</a>
</g>
</g>
<!-- Node5 -->
<g id="Node000005" class="node">
<title>Node5</title>
<g id="a_Node000005"><a xlink:title=" ">
<polygon fill="#e0e0e0" stroke="#999999" points="126,-96 62,-96 62,-77 126,-77 126,-96"/>
<text text-anchor="middle" x="94" y="-84" font-family="Helvetica,sans-Serif" font-size="10.00">algorithm</text>
</a>
</g>
</g>
<!-- Node4&#45;&gt;Node5 -->
<g id="edge4_Node000004_Node000005" class="edge">
<title>Node4&#45;&gt;Node5</title>
<g id="a_edge4_Node000004_Node000005"><a xlink:title=" ">
<path fill="none" stroke="#63b8ff" d="M929.17,-151.43C800.17,-150.91 289.81,-146.36 135,-107 129.27,-105.54 123.38,-103.27 117.91,-100.78"/>
<polygon fill="#63b8ff" stroke="#63b8ff" points="119.17,-97.49 108.66,-96.19 116.06,-103.77 119.17,-97.49"/>
</a>
</g>
</g>
<!-- Node6 -->
<g id="Node000006" class="node">
<title>Node6</title>
<g id="a_Node000006"><a xlink:title=" ">
<polygon fill="#e0e0e0" stroke="#999999" points="186,-96 144,-96 144,-77 186,-77 186,-96"/>
<text text-anchor="middle" x="165" y="-84" font-family="Helvetica,sans-Serif" font-size="10.00">array</text>
</a>
</g>
</g>
<!-- Node4&#45;&gt;Node6 -->
<g id="edge5_Node000004_Node000006" class="edge">
<title>Node4&#45;&gt;Node6</title>
<g id="a_edge5_Node000004_Node000006"><a xlink:title=" ">
<path fill="none" stroke="#63b8ff" d="M929.21,-151.73C805.99,-152.39 336.11,-151.86 196,-107 192.03,-105.73 188.05,-103.83 184.34,-101.7"/>
<polygon fill="#63b8ff" stroke="#63b8ff" points="186.1,-98.67 175.8,-96.19 182.31,-104.55 186.1,-98.67"/>
</a>
</g>
</g>
<!-- Node7 -->
<g id="Node000007" class="node">
<title>Node7</title>
<g id="a_Node000007"><a xlink:title=" ">
<polygon fill="#e0e0e0" stroke="#999999" points="263.5,-96 204.5,-96 204.5,-77 263.5,-77 263.5,-96"/>
<text text-anchor="middle" x="234" y="-84" font-family="Helvetica,sans-Serif" font-size="10.00">compare</text>
</a>
</g>
</g>
<!-- Node4&#45;&gt;Node7 -->
<g id="edge6_Node000004_Node000007" class="edge">
<title>Node4&#45;&gt;Node7</title>
<g id="a_edge6_Node000004_Node000007"><a xlink:title=" ">
<path fill="none" stroke="#63b8ff" d="M929.24,-151.14C814.33,-149.49 399.58,-141.25 273,-107 267.66,-105.55 262.18,-103.34 257.09,-100.92"/>
<polygon fill="#63b8ff" stroke="#63b8ff" points="258.39,-97.65 247.9,-96.15 255.17,-103.87 258.39,-97.65"/>
</a>
</g>
</g>
<!-- Node8 -->
<g id="Node000008" class="node">
<title>Node8</title>
<g id="a_Node000008"><a xlink:title=" ">
<polygon fill="#e0e0e0" stroke="#999999" points="342,-96 282,-96 282,-77 342,-77 342,-96"/>
<text text-anchor="middle" x="312" y="-84" font-family="Helvetica,sans-Serif" font-size="10.00">concepts</text>
</a>
</g>
</g>
<!-- Node4&#45;&gt;Node8 -->
<g id="edge7_Node000004_Node000008" class="edge">
<title>Node4&#45;&gt;Node8</title>
<g id="a_edge7_Node000004_Node000008"><a xlink:title=" ">
<path fill="none" stroke="#63b8ff" d="M929.47,-150.81C823.53,-148.12 462.95,-136.92 352,-107 346.41,-105.49 340.66,-103.19 335.32,-100.7"/>
<polygon fill="#63b8ff" stroke="#63b8ff" points="336.8,-97.52 326.29,-96.12 333.63,-103.76 336.8,-97.52"/>
</a>
</g>
</g>
<!-- Node9 -->
<g id="Node000009" class="node">
<title>Node9</title>
<g id="a_Node000009"><a xlink:title=" ">
<polygon fill="#e0e0e0" stroke="#999999" points="413.5,-96 360.5,-96 360.5,-77 413.5,-77 413.5,-96"/>
<text text-anchor="middle" x="387" y="-84" font-family="Helvetica,sans-Serif" font-size="10.00">cstddef</text>
</a>
</g>
</g>
<!-- Node4&#45;&gt;Node9 -->
<g id="edge8_Node000004_Node000009" class="edge">
<title>Node4&#45;&gt;Node9</title>
<g id="a_edge8_Node000004_Node000009"><a xlink:title=" ">
<path fill="none" stroke="#63b8ff" d="M929.22,-150.64C831.15,-147.54 519.09,-135.63 423,-107 418.15,-105.55 413.21,-103.4 408.6,-101.05"/>
<polygon fill="#63b8ff" stroke="#63b8ff" points="410.2,-97.93 399.76,-96.1 406.78,-104.04 410.2,-97.93"/>
</a>
</g>
</g>
<!-- Node10 -->
<g id="Node000010" class="node">
<title>Node10</title>
<g id="a_Node000010"><a xlink:title=" ">
<polygon fill="#e0e0e0" stroke="#999999" points="482,-96 432,-96 432,-77 482,-77 482,-96"/>
<text text-anchor="middle" x="457" y="-84" font-family="Helvetica,sans-Serif" font-size="10.00">cstdint</text>
</a>
</g>
</g>
<!-- Node4&#45;&gt;Node10 -->
<g id="edge9_Node000004_Node000010" class="edge">
<title>Node4&#45;&gt;Node10</title>
<g id="a_edge9_Node000004_Node000010"><a xlink:title=" ">
<path fill="none" stroke="#63b8ff" d="M929.27,-150.32C839.66,-146.5 573.35,-133.18 491,-107 486.5,-105.57 481.94,-103.48 477.69,-101.2"/>
<polygon fill="#63b8ff" stroke="#63b8ff" points="479.39,-98.14 469,-96.07 475.83,-104.17 479.39,-98.14"/>
</a>
</g>
</g>
<!-- Node11 -->
<g id="Node000011" class="node">
<title>Node11</title>
<g id="a_Node000011"><a xlink:title=" ">
<polygon fill="#e0e0e0" stroke="#999999" points="550,-96 500,-96 500,-77 550,-77 550,-96"/>
<text text-anchor="middle" x="525" y="-84" font-family="Helvetica,sans-Serif" font-size="10.00">cstring</text>
</a>
</g>
</g>
<!-- Node4&#45;&gt;Node11 -->
<g id="edge10_Node000004_Node000011" class="edge">
<title>Node4&#45;&gt;Node11</title>
<g id="a_edge10_Node000004_Node000011"><a xlink:title=" ">
<path fill="none" stroke="#63b8ff" d="M929.39,-152.14C862.04,-152.76 692.94,-149.54 560,-107 555.4,-105.53 550.73,-103.42 546.35,-101.14"/>
<polygon fill="#63b8ff" stroke="#63b8ff" points="547.82,-97.94 537.41,-96.01 544.34,-104.02 547.82,-97.94"/>
</a>
</g>
</g>
<!-- Node12 -->
<g id="Node000012" class="node">
<title>Node12</title>
<g id="a_Node000012"><a xlink:title=" ">
<polygon fill="#e0e0e0" stroke="#999999" points="617.5,-96 568.5,-96 568.5,-77 617.5,-77 617.5,-96"/>
<text text-anchor="middle" x="593" y="-84" font-family="Helvetica,sans-Serif" font-size="10.00">cuchar</text>
</a>
</g>
</g>
<!-- Node4&#45;&gt;Node12 -->
<g id="edge11_Node000004_Node000012" class="edge">
<title>Node4&#45;&gt;Node12</title>
<g id="a_edge11_Node000004_Node000012"><a xlink:title=" ">
<path fill="none" stroke="#63b8ff" d="M929.27,-151.32C870.11,-150.14 734.12,-143.33 627,-107 622.72,-105.55 618.38,-103.54 614.29,-101.36"/>
<polygon fill="#63b8ff" stroke="#63b8ff" points="615.76,-98.17 605.36,-96.14 612.23,-104.21 615.76,-98.17"/>
</a>
</g>
</g>
<!-- Node13 -->
<g id="Node000013" class="node">
<title>Node13</title>
<g id="a_Node000013"><a xlink:title=" ">
<polygon fill="#e0e0e0" stroke="#999999" points="718.5,-96 635.5,-96 635.5,-77 718.5,-77 718.5,-96"/>
<text text-anchor="middle" x="677" y="-84" font-family="Helvetica,sans-Serif" font-size="10.00">initializer_list</text>
</a>
</g>
</g>
<!-- Node4&#45;&gt;Node13 -->
<g id="edge12_Node000004_Node000013" class="edge">
<title>Node4&#45;&gt;Node13</title>
<g id="a_edge12_Node000004_Node000013"><a xlink:title=" ">
<path fill="none" stroke="#63b8ff" d="M929.44,-147.5C885.13,-141.12 799.09,-127.27 728,-107 721.02,-105.01 713.65,-102.46 706.75,-99.87"/>
<polygon fill="#63b8ff" stroke="#63b8ff" points="707.66,-96.47 697.07,-96.11 705.12,-103 707.66,-96.47"/>
</a>
</g>
</g>
<!-- Node14 -->
<g id="Node000014" class="node">
<title>Node14</title>
<g id="a_Node000014"><a xlink:title=" ">
<polygon fill="#e0e0e0" stroke="#999999" points="789.5,-96 736.5,-96 736.5,-77 789.5,-77 789.5,-96"/>
<text text-anchor="middle" x="763" y="-84" font-family="Helvetica,sans-Serif" font-size="10.00">iterator</text>
</a>
</g>
</g>
<!-- Node4&#45;&gt;Node14 -->
<g id="edge13_Node000004_Node000014" class="edge">
<title>Node4&#45;&gt;Node14</title>
<g id="a_edge13_Node000004_Node000014"><a xlink:title=" ">
<path fill="none" stroke="#63b8ff" d="M929.44,-145.38C896.83,-138.15 843.11,-124.82 799,-107 794.66,-105.25 790.16,-103.1 785.89,-100.89"/>
<polygon fill="#63b8ff" stroke="#63b8ff" points="787.46,-97.76 777.01,-96.04 784.11,-103.9 787.46,-97.76"/>
</a>
</g>
</g>
<!-- Node15 -->
<g id="Node000015" class="node">
<title>Node15</title>
<g id="a_Node000015"><a xlink:title=" ">
<polygon fill="#e0e0e0" stroke="#999999" points="866,-96 808,-96 808,-77 866,-77 866,-96"/>
<text text-anchor="middle" x="837" y="-84" font-family="Helvetica,sans-Serif" font-size="10.00">memory</text>
</a>
</g>
</g>
<!-- Node4&#45;&gt;Node15 -->
<g id="edge14_Node000004_Node000015" class="edge">
<title>Node4&#45;&gt;Node15</title>
<g id="a_edge14_Node000004_Node000015"><a xlink:title=" ">
<path fill="none" stroke="#63b8ff" d="M942.55,-142.87C921.99,-132.09 886.6,-113.52 862.51,-100.88"/>
<polygon fill="#63b8ff" stroke="#63b8ff" points="864.06,-97.75 853.58,-96.2 860.81,-103.94 864.06,-97.75"/>
</a>
</g>
</g>
<!-- Node16 -->
<g id="Node000016" class="node">
<title>Node16</title>
<g id="a_Node000016"><a xlink:title=" ">
<polygon fill="#e0e0e0" stroke="#999999" points="949.5,-96 884.5,-96 884.5,-77 949.5,-77 949.5,-96"/>
<text text-anchor="middle" x="917" y="-84" font-family="Helvetica,sans-Serif" font-size="10.00">stdexcept</text>
</a>
</g>
</g>
<!-- Node4&#45;&gt;Node16 -->
<g id="edge15_Node000004_Node000016" class="edge">
<title>Node4&#45;&gt;Node16</title>
<g id="a_edge15_Node000004_Node000016"><a xlink:title=" ">
<path fill="none" stroke="#63b8ff" d="M953.34,-142.87C946.98,-133.19 936.52,-117.24 928.44,-104.94"/>
<polygon fill="#63b8ff" stroke="#63b8ff" points="931.26,-102.85 922.84,-96.41 925.4,-106.69 931.26,-102.85"/>
</a>
</g>
</g>
<!-- Node17 -->
<g id="Node000017" class="node">
<title>Node17</title>
<g id="a_Node000017"><a xlink:title=" ">
<polygon fill="#e0e0e0" stroke="#999999" points="1036.5,-96 967.5,-96 967.5,-77 1036.5,-77 1036.5,-96"/>
<text text-anchor="middle" x="1002" y="-84" font-family="Helvetica,sans-Serif" font-size="10.00">type_traits</text>
</a>
</g>
</g>
<!-- Node4&#45;&gt;Node17 -->
<g id="edge17_Node000004_Node000017" class="edge">
<title>Node4&#45;&gt;Node17</title>
<g id="a_edge17_Node000004_Node000017"><a xlink:title=" ">
<path fill="none" stroke="#63b8ff" d="M964.8,-142.87C971.3,-133.19 982.02,-117.24 990.28,-104.94"/>
<polygon fill="#63b8ff" stroke="#63b8ff" points="993.35,-106.66 996.02,-96.41 987.53,-102.75 993.35,-106.66"/>
</a>
</g>
</g>
<!-- Node18 -->
<g id="Node000018" class="node">
<title>Node18</title>
<g id="a_Node000018"><a xlink:title=" ">
<polygon fill="#e0e0e0" stroke="#999999" points="1099.5,-96 1054.5,-96 1054.5,-77 1099.5,-77 1099.5,-96"/>
<text text-anchor="middle" x="1077" y="-84" font-family="Helvetica,sans-Serif" font-size="10.00">utility</text>
</a>
</g>
</g>
<!-- Node4&#45;&gt;Node18 -->
<g id="edge18_Node000004_Node000018" class="edge">
<title>Node4&#45;&gt;Node18</title>
<g id="a_edge18_Node000004_Node000018"><a xlink:title=" ">
<path fill="none" stroke="#63b8ff" d="M976.91,-142.92C994.67,-134.27 1022.55,-120.34 1046,-107 1048.98,-105.3 1052.09,-103.45 1055.13,-101.59"/>
<polygon fill="#63b8ff" stroke="#63b8ff" points="1057.26,-104.39 1063.88,-96.11 1053.55,-98.45 1057.26,-104.39"/>
</a>
</g>
</g>
<!-- Node19 -->
<g id="Node000019" class="node">
<title>Node19</title>
<g id="a_Node000019"><a xlink:href="../../dd/d9e/linux_2platform__config_8hpp.html" target="_top" xlink:title="additional linux platform header">
<polygon fill="white" stroke="#666666" points="1272.5,-107 1117.5,-107 1117.5,-66 1272.5,-66 1272.5,-107"/>
<text text-anchor="start" x="1125.5" y="-95" font-family="Helvetica,sans-Serif" font-size="10.00">/home/runner/work/toygine2</text>
<text text-anchor="start" x="1125.5" y="-84" font-family="Helvetica,sans-Serif" font-size="10.00">/toygine2/src/platforms</text>
<text text-anchor="middle" x="1195" y="-73" font-family="Helvetica,sans-Serif" font-size="10.00">/linux/platform_config.hpp</text>
</a>
</g>
</g>
<!-- Node4&#45;&gt;Node19 -->
<g id="edge19_Node000004_Node000019" class="edge">
<title>Node4&#45;&gt;Node19</title>
<g id="a_edge19_Node000004_Node000019"><a xlink:title=" ">
<path fill="none" stroke="#63b8ff" d="M988.89,-143.39C1019.96,-134.97 1069.96,-121.41 1112.93,-109.76"/>
<polygon fill="#63b8ff" stroke="#63b8ff" points="1114.1,-113.07 1122.83,-107.07 1112.27,-106.31 1114.1,-113.07"/>
</a>
</g>
</g>
<!-- Node21 -->
<g id="Node000021" class="node">
<title>Node21</title>
<g id="a_Node000021"><a xlink:href="../../dd/ded/c__string__view_8hpp.html" target="_top" xlink:title="Non&#45;owning string view class for C&#45;style strings.">
<polygon fill="white" stroke="#666666" points="1419,-96 1291,-96 1291,-77 1419,-77 1419,-96"/>
<text text-anchor="middle" x="1355" y="-84" font-family="Helvetica,sans-Serif" font-size="10.00">core/c_string_view.hpp</text>
</a>
</g>
</g>
<!-- Node4&#45;&gt;Node21 -->
<g id="edge21_Node000004_Node000021" class="edge">
<title>Node4&#45;&gt;Node21</title>
<g id="a_edge21_Node000004_Node000021"><a xlink:title=" ">
<path fill="none" stroke="#63b8ff" d="M988.6,-148.66C1045.7,-142.92 1174.91,-128.59 1282,-107 1293.32,-104.72 1305.49,-101.7 1316.59,-98.72"/>
<polygon fill="#63b8ff" stroke="#63b8ff" points="1317.7,-102.04 1326.42,-96.02 1315.85,-95.29 1317.7,-102.04"/>
</a>
</g>
</g>
<!-- Node22 -->
<g id="Node000022" class="node">
<title>Node22</title>
<g id="a_Node000022"><a xlink:href="../../d4/dc0/constexpr__utils_8hpp.html" target="_top" xlink:title="Constexpr utility functions for compile&#45;time operations.">
<polygon fill="white" stroke="#666666" points="1573,-96 1437,-96 1437,-77 1573,-77 1573,-96"/>
<text text-anchor="middle" x="1505" y="-84" font-family="Helvetica,sans-Serif" font-size="10.00">core/constexpr_utils.hpp</text>
</a>
</g>
</g>
<!-- Node4&#45;&gt;Node22 -->
<g id="edge22_Node000004_Node000022" class="edge">
<title>Node4&#45;&gt;Node22</title>
<g id="a_edge22_Node000004_Node000022"><a xlink:title=" ">
<path fill="none" stroke="#63b8ff" d="M988.57,-150.27C1062.9,-146.84 1263.39,-135.48 1428,-107 1440.42,-104.85 1453.79,-101.75 1465.84,-98.65"/>
<polygon fill="#63b8ff" stroke="#63b8ff" points="1466.84,-102.01 1475.61,-96.07 1465.05,-95.24 1466.84,-102.01"/>
</a>
</g>
</g>
<!-- Node23 -->
<g id="Node000023" class="node">
<title>Node23</title>
<g id="a_Node000023"><a xlink:href="../../d7/d7f/fixed__string_8hpp.html" target="_top" xlink:title="Template string class with fixed&#45;size character buffer.">
<polygon fill="white" stroke="#666666" points="1709,-96 1591,-96 1591,-77 1709,-77 1709,-96"/>
<text text-anchor="middle" x="1650" y="-84" font-family="Helvetica,sans-Serif" font-size="10.00">core/fixed_string.hpp</text>
</a>
</g>
</g>
<!-- Node4&#45;&gt;Node23 -->
<g id="edge23_Node000004_Node000023" class="edge">
<title>Node4&#45;&gt;Node23</title>
<g id="a_edge23_Node000004_Node000023"><a xlink:title=" ">
<path fill="none" stroke="#63b8ff" d="M988.78,-151.56C1078.91,-151.27 1356.44,-146.95 1582,-107 1592.91,-105.07 1604.57,-102.08 1615.1,-99.01"/>
<polygon fill="#63b8ff" stroke="#63b8ff" points="1616.22,-102.33 1624.78,-96.09 1614.2,-95.63 1616.22,-102.33"/>
</a>
</g>
</g>
<!-- Node24 -->
<g id="Node000024" class="node">
<title>Node24</title>
<g id="a_Node000024"><a xlink:href="../../d7/dea/fixed__vector_8hpp.html" target="_top" xlink:title="TODO.">
<polygon fill="white" stroke="#666666" points="1847,-96 1727,-96 1727,-77 1847,-77 1847,-96"/>
<text text-anchor="middle" x="1787" y="-84" font-family="Helvetica,sans-Serif" font-size="10.00">core/fixed_vector.hpp</text>
</a>
</g>
</g>
<!-- Node4&#45;&gt;Node24 -->
<g id="edge24_Node000004_Node000024" class="edge">
<title>Node4&#45;&gt;Node24</title>
<g id="a_edge24_Node000004_Node000024"><a xlink:title=" ">
<path fill="none" stroke="#63b8ff" d="M988.78,-150.62C1110.94,-146.86 1573.85,-131.3 1718,-107 1729.16,-105.12 1741.1,-102.11 1751.86,-99.02"/>
<polygon fill="#63b8ff" stroke="#63b8ff" points="1753.17,-102.28 1761.74,-96.06 1751.16,-95.58 1753.17,-102.28"/>
</a>
</g>
</g>
<!-- Node25 -->
<g id="Node000025" class="node">
<title>Node25</title>
<g id="a_Node000025"><a xlink:href="../../dd/d8e/hashes_8hpp.html" target="_top" xlink:title="CRC hash functions.">
<polygon fill="white" stroke="#666666" points="1961,-96 1865,-96 1865,-77 1961,-77 1961,-96"/>
<text text-anchor="middle" x="1913" y="-84" font-family="Helvetica,sans-Serif" font-size="10.00">core/hashes.hpp</text>
</a>
</g>
</g>
<!-- Node4&#45;&gt;Node25 -->
<g id="edge25_Node000004_Node000025" class="edge">
<title>Node4&#45;&gt;Node25</title>
<g id="a_edge25_Node000004_Node000025"><a xlink:title=" ">
<path fill="none" stroke="#63b8ff" d="M988.59,-151.14C1123.87,-149.34 1684.12,-139.98 1856,-107 1864.93,-105.29 1874.37,-102.49 1882.95,-99.54"/>
<polygon fill="#63b8ff" stroke="#63b8ff" points="1884.33,-102.76 1892.53,-96.06 1881.94,-96.18 1884.33,-102.76"/>
</a>
</g>
</g>
<!-- Node26 -->
<g id="Node000026" class="node">
<title>Node26</title>
<g id="a_Node000026"><a xlink:href="../../df/d93/utils_8hpp.html" target="_top" xlink:title="Core utility functions for string manipulation, encoding conversion, and number formatting.">
<polygon fill="white" stroke="#666666" points="2062.5,-96 1979.5,-96 1979.5,-77 2062.5,-77 2062.5,-96"/>
<text text-anchor="middle" x="2021" y="-84" font-family="Helvetica,sans-Serif" font-size="10.00">core/utils.hpp</text>
</a>
</g>
</g>
<!-- Node4&#45;&gt;Node26 -->
<g id="edge26_Node000004_Node000026" class="edge">
<title>Node4&#45;&gt;Node26</title>
<g id="a_edge26_Node000004_Node000026"><a xlink:title=" ">
<path fill="none" stroke="#63b8ff" d="M988.9,-151.47C1135.09,-151.14 1775.4,-147.38 1970,-107 1977.87,-105.37 1986.13,-102.67 1993.65,-99.8"/>
<polygon fill="#63b8ff" stroke="#63b8ff" points="1995.07,-103.01 2003.02,-96 1992.43,-96.52 1995.07,-103.01"/>
</a>
</g>
</g>
<!-- Node27 -->
<g id="Node000027" class="node">
<title>Node27</title>
<g id="a_Node000027"><a xlink:href="../../df/d4a/c__string__view_8inl.html" target="_top" xlink:title="Inline implementations for CStringView class.">
<polygon fill="white" stroke="#666666" points="2203,-96 2081,-96 2081,-77 2203,-77 2203,-96"/>
<text text-anchor="middle" x="2142" y="-84" font-family="Helvetica,sans-Serif" font-size="10.00">core/c_string_view.inl</text>
</a>
</g>
</g>
<!-- Node4&#45;&gt;Node27 -->
<g id="edge27_Node000004_Node000027" class="edge">
<title>Node4&#45;&gt;Node27</title>
<g id="a_edge27_Node000004_Node000027"><a xlink:title=" ">
<path fill="none" stroke="#63b8ff" d="M988.72,-151.24C1143.08,-149.76 1854.45,-141.18 2072,-107 2083.55,-105.19 2095.9,-102.13 2106.97,-98.97"/>
<polygon fill="#63b8ff" stroke="#63b8ff" points="2108.13,-102.28 2116.71,-96.07 2106.13,-95.57 2108.13,-102.28"/>
</a>
</g>
</g>
<!-- Node28 -->
<g id="Node000028" class="node">
<title>Node28</title>
<g id="a_Node000028"><a xlink:href="../../dc/d28/constexpr__utils_8inl.html" target="_top" xlink:title="Inline implementations for constexpr utility functions.">
<polygon fill="white" stroke="#666666" points="2351,-96 2221,-96 2221,-77 2351,-77 2351,-96"/>
<text text-anchor="middle" x="2286" y="-84" font-family="Helvetica,sans-Serif" font-size="10.00">core/constexpr_utils.inl</text>
</a>
</g>
</g>
<!-- Node4&#45;&gt;Node28 -->
<g id="edge28_Node000004_Node000028" class="edge">
<title>Node4&#45;&gt;Node28</title>
<g id="a_edge28_Node000004_Node000028"><a xlink:title=" ">
<path fill="none" stroke="#63b8ff" d="M988.56,-151.34C1153.83,-150.32 1964.9,-143.48 2212,-107 2224.3,-105.18 2237.5,-102.09 2249.29,-98.89"/>
<polygon fill="#63b8ff" stroke="#63b8ff" points="2250.56,-102.17 2259.24,-96.09 2248.66,-95.44 2250.56,-102.17"/>
</a>
</g>
</g>
<!-- Node29 -->
<g id="Node000029" class="node">
<title>Node29</title>
<g id="a_Node000029"><a xlink:href="../../d7/d40/fixed__string_8inl.html" target="_top" xlink:title="Inline implementations for FixedString template class.">
<polygon fill="white" stroke="#666666" points="2481,-96 2369,-96 2369,-77 2481,-77 2481,-96"/>
<text text-anchor="middle" x="2425" y="-84" font-family="Helvetica,sans-Serif" font-size="10.00">core/fixed_string.inl</text>
</a>
</g>
</g>
<!-- Node4&#45;&gt;Node29 -->
<g id="edge29_Node000004_Node000029" class="edge">
<title>Node4&#45;&gt;Node29</title>
<g id="a_edge29_Node000004_Node000029"><a xlink:title=" ">
<path fill="none" stroke="#63b8ff" d="M988.54,-151.6C1165.09,-152.07 2082.59,-152.22 2360,-107 2370.64,-105.27 2381.98,-102.28 2392.16,-99.16"/>
<polygon fill="#63b8ff" stroke="#63b8ff" points="2393.43,-102.43 2401.88,-96.03 2391.29,-95.76 2393.43,-102.43"/>
</a>
</g>
</g>
<!-- Node30 -->
<g id="Node000030" class="node">
<title>Node30</title>
<g id="a_Node000030"><a xlink:href="../../da/dc9/fixed__vector_8inl.html" target="_top" xlink:title="TODO.">
<polygon fill="white" stroke="#666666" points="2613,-96 2499,-96 2499,-77 2613,-77 2613,-96"/>
<text text-anchor="middle" x="2556" y="-84" font-family="Helvetica,sans-Serif" font-size="10.00">core/fixed_vector.inl</text>
</a>
</g>
</g>
<!-- Node4&#45;&gt;Node30 -->
<g id="edge30_Node000004_Node000030" class="edge">
<title>Node4&#45;&gt;Node30</title>
<g id="a_edge30_Node000004_Node000030"><a xlink:title=" ">
<path fill="none" stroke="#63b8ff" d="M988.51,-151.68C1174.4,-152.65 2185.23,-155.61 2490,-107 2500.91,-105.26 2512.55,-102.23 2522.96,-99.08"/>
<polygon fill="#63b8ff" stroke="#63b8ff" points="2524.04,-102.41 2532.51,-96.05 2521.92,-95.73 2524.04,-102.41"/>
</a>
</g>
</g>
<!-- Node31 -->
<g id="Node000031" class="node">
<title>Node31</title>
<g id="a_Node000031"><a xlink:href="../../df/d7d/utils_8inl.html" target="_top" xlink:title="Inline implementations of core utility functions for string manipulation and encoding conversion.">
<polygon fill="white" stroke="#666666" points="2708.5,-96 2631.5,-96 2631.5,-77 2708.5,-77 2708.5,-96"/>
<text text-anchor="middle" x="2670" y="-84" font-family="Helvetica,sans-Serif" font-size="10.00">core/utils.inl</text>
</a>
</g>
</g>
<!-- Node4&#45;&gt;Node31 -->
<g id="edge31_Node000004_Node000031" class="edge">
<title>Node4&#45;&gt;Node31</title>
<g id="a_edge31_Node000004_Node000031"><a xlink:title=" ">
<path fill="none" stroke="#63b8ff" d="M988.71,-151.35C1198.76,-150.17 2456.27,-141.69 2622,-107 2629.22,-105.49 2636.73,-102.95 2643.62,-100.19"/>
<polygon fill="#63b8ff" stroke="#63b8ff" points="2645.34,-103.26 2653.14,-96.09 2642.57,-96.83 2645.34,-103.26"/>
</a>
</g>
</g>
<!-- Node20 -->
<g id="Node000020" class="node">
<title>Node20</title>
<g id="a_Node000020"><a xlink:href="../../d1/d5f/assertion__macro__gcc__clang_8hpp.html" target="_top" xlink:title="Debug and Release assertion macro implementations for GCC/Clang platforms.">
<polygon fill="white" stroke="#666666" points="1258.5,-30 1131.5,-30 1131.5,0 1258.5,0 1258.5,-30"/>
<text text-anchor="start" x="1139.5" y="-18" font-family="Helvetica,sans-Serif" font-size="10.00">../common/assertion</text>
<text text-anchor="middle" x="1195" y="-7" font-family="Helvetica,sans-Serif" font-size="10.00">_macro_gcc_clang.hpp</text>
</a>
</g>
</g>
<!-- Node19&#45;&gt;Node20 -->
<g id="edge20_Node000019_Node000020" class="edge">
<title>Node19&#45;&gt;Node20</title>
<g id="a_edge20_Node000019_Node000020"><a xlink:title=" ">
<path fill="none" stroke="#63b8ff" d="M1195,-65.77C1195,-57.85 1195,-48.63 1195,-40.3"/>
<polygon fill="#63b8ff" stroke="#63b8ff" points="1198.5,-40.04 1195,-30.04 1191.5,-40.04 1198.5,-40.04"/>
</a>
</g>
</g>
</g>
</svg>

<g id="navigator" transform="translate(0 0)" fill="#404254">
  <rect fill="#f2f5e9" fill-opacity="0.5" stroke="#606060" stroke-width=".5" x="0" y="0" width="60" height="60"/>
  <use id="zoomplus" xlink:href="#zoomPlus" x="17" y="9" onmousedown="handleZoom(evt,'in')"/>
  <use id="zoomminus" xlink:href="#zoomMin" x="42" y="9" onmousedown="handleZoom(evt,'out')"/>
  <use id="reset" xlink:href="#resetDef" x="30" y="36" onmousedown="handleReset()"/>
   <use id="arrowup" xlink:href="#arrowUp" x="0" y="0" onmousedown="handlePan(0,-1)"/>
  <use id="arrowright" xlink:href="#arrowRight" x="0" y="0" onmousedown="handlePan(1,0)"/>
  <use id="arrowdown" xlink:href="#arrowDown" x="0" y="0" onmousedown="handlePan(0,1)"/>
  <use id="arrowleft" xlink:href="#arrowLeft" x="0" y="0" onmousedown="handlePan(-1,0)"/>
</g>
<svg viewBox="0 0 15 15" width="100%" height="30px" preserveAspectRatio="xMaxYMin meet">
 <g id="arrow_out" transform="scale(0.3 0.3)">
  <a xlink:href="assertion__stub_8cpp__incl_org.svg" target="_base">
   <rect id="button" ry="5" rx="5" y="6" x="6" height="38" width="38"
        fill="#f2f5e9" fill-opacity="0.5" stroke="#606060" stroke-width="1.0"/>
   <path id="arrow"
     d="M 11.500037,31.436501 C 11.940474,20.09759 22.043105,11.32322 32.158766,21.979434 L 37.068811,17.246167 C 37.068811,17.246167 37.088388,32 37.088388,32 L 22.160133,31.978069 C 22.160133,31.978069 26.997745,27.140456 26.997745,27.140456 C 18.528582,18.264221 13.291696,25.230495 11.500037,31.436501 z"
     style="fill:#404040;"/>
  </a>
 </g>
</svg>

<style type='text/css'>
<![CDATA[
[data-mouse-over-selected='false'] { opacity: 0.7; }
[data-mouse-over-selected='true']  { opacity: 1.0; }
]]>
</style>
<script type="application/ecmascript"><![CDATA[
document.addEventListener('DOMContentLoaded', (event) => {
  highlightEdges();
  highlightAdjacentNodes();
});
]]></script>
</svg>
