<?xml version="1.0" encoding="UTF-8" standalone="no"?>
<!DOCTYPE svg PUBLIC "-//W3C//DTD SVG 1.1//EN"
 "http://www.w3.org/Graphics/SVG/1.1/DTD/svg11.dtd">
<!-- Generated by graphviz version 14.1.2 (0)
 -->
<!-- Title: include/math/point.inl Pages: 1 -->
<svg width="174pt" height="199pt"
 viewBox="0.00 0.00 174.00 199.00" xmlns="http://www.w3.org/2000/svg" xmlns:xlink="http://www.w3.org/1999/xlink">
<g id="page0,1_graph0" class="graph" transform="scale(1 1) rotate(0) translate(4 195)">
<title>include/math/point.inl</title>
<!-- Node1 -->
<g id="Node000001" class="node">
<title>Node1</title>
<g id="a_Node000001"><a xlink:title="Inline implementations for toy::math::Point.">
<polygon fill="#999999" stroke="#666666" points="165.75,-191 43.25,-191 43.25,-170.25 165.75,-170.25 165.75,-191"/>
<text xml:space="preserve" text-anchor="middle" x="104.5" y="-177.5" font-family="Helvetica,sans-Serif" font-size="10.00">include/math/point.inl</text>
</a>
</g>
</g>
<!-- Node2 -->
<g id="Node000002" class="node">
<title>Node2</title>
<g id="a_Node000002"><a xlink:href="../../d4/d78/math_8hpp.html" target="_top" xlink:title="Umbrella header for the math module.">
<polygon fill="white" stroke="#666666" points="154.88,-134.25 54.12,-134.25 54.12,-113.5 154.88,-113.5 154.88,-134.25"/>
<text xml:space="preserve" text-anchor="middle" x="104.5" y="-120.75" font-family="Helvetica,sans-Serif" font-size="10.00">include/math.hpp</text>
</a>
</g>
</g>
<!-- Node1&#45;&gt;Node2 -->
<g id="edge1_Node000001_Node000002" class="edge">
<title>Node1&#45;&gt;Node2</title>
<g id="a_edge1_Node000001_Node000002"><a xlink:title=" ">
<path fill="none" stroke="#63b8ff" d="M104.5,-158.38C104.5,-150.16 104.5,-141.18 104.5,-134.58"/>
<polygon fill="#63b8ff" stroke="#63b8ff" points="101,-158.32 104.5,-168.32 108,-158.32 101,-158.32"/>
</a>
</g>
</g>
<!-- Node3 -->
<g id="Node000003" class="node">
<title>Node3</title>
<g id="a_Node000003"><a xlink:href="../../db/dbb/geometry_8hpp.html" target="_top" xlink:title="Umbrella header for the geometry module.">
<polygon fill="white" stroke="#666666" points="121,-77.5 0,-77.5 0,-56.75 121,-56.75 121,-77.5"/>
<text xml:space="preserve" text-anchor="middle" x="60.5" y="-64" font-family="Helvetica,sans-Serif" font-size="10.00">include/geometry.hpp</text>
</a>
</g>
</g>
<!-- Node2&#45;&gt;Node3 -->
<g id="edge2_Node000002_Node000003" class="edge">
<title>Node2&#45;&gt;Node3</title>
<g id="a_edge2_Node000002_Node000003"><a xlink:title=" ">
<path fill="none" stroke="#63b8ff" d="M89.5,-104.21C82.38,-95.34 74.16,-85.12 68.3,-77.83"/>
<polygon fill="#63b8ff" stroke="#63b8ff" points="86.69,-106.3 95.69,-111.91 92.15,-101.92 86.69,-106.3"/>
</a>
</g>
</g>
<!-- Node4 -->
<g id="Node000004" class="node">
<title>Node4</title>
<g id="a_Node000004"><a xlink:href="../../d8/d8c/toygine2_8hpp.html" target="_top" xlink:title="Main umbrella header for the engine.">
<polygon fill="white" stroke="#666666" points="163.5,-20.75 45.5,-20.75 45.5,0 163.5,0 163.5,-20.75"/>
<text xml:space="preserve" text-anchor="middle" x="104.5" y="-7.25" font-family="Helvetica,sans-Serif" font-size="10.00">include/toygine2.hpp</text>
</a>
</g>
</g>
<!-- Node2&#45;&gt;Node4 -->
<g id="edge4_Node000002_Node000004" class="edge">
<title>Node2&#45;&gt;Node4</title>
<g id="a_edge4_Node000002_Node000004"><a xlink:title=" ">
<path fill="none" stroke="#63b8ff" d="M118.48,-103.64C123.28,-95.91 128.06,-86.67 130.5,-77.5 132.87,-68.59 132.87,-65.66 130.5,-56.75 126.95,-43.41 118.45,-29.92 112.13,-21.15"/>
<polygon fill="#63b8ff" stroke="#63b8ff" points="115.64,-101.59 112.97,-111.84 121.45,-105.49 115.64,-101.59"/>
</a>
</g>
</g>
<!-- Node3&#45;&gt;Node4 -->
<g id="edge3_Node000003_Node000004" class="edge">
<title>Node3&#45;&gt;Node4</title>
<g id="a_edge3_Node000003_Node000004"><a xlink:title=" ">
<path fill="none" stroke="#63b8ff" d="M75.5,-47.46C82.62,-38.59 90.84,-28.37 96.7,-21.08"/>
<polygon fill="#63b8ff" stroke="#63b8ff" points="72.85,-45.17 69.31,-55.16 78.31,-49.55 72.85,-45.17"/>
</a>
</g>
</g>
</g>
</svg>
