<?xml version="1.0" encoding="UTF-8" standalone="no"?>
<!DOCTYPE svg PUBLIC "-//W3C//DTD SVG 1.1//EN"
 "http://www.w3.org/Graphics/SVG/1.1/DTD/svg11.dtd">
<!-- Generated by graphviz version 2.43.0 (0)
 -->
<!-- Title: src/platforms/common/assertion_macro_gcc_clang.hpp Pages: 1 -->
<svg width="890pt" height="291pt"
 viewBox="0.00 0.00 889.50 291.00" xmlns="http://www.w3.org/2000/svg" xmlns:xlink="http://www.w3.org/1999/xlink">
<g id="graph0" class="graph" transform="scale(1 1) rotate(0) translate(4 287)">
<title>src/platforms/common/assertion_macro_gcc_clang.hpp</title>
<!-- Node1 -->
<g id="Node000001" class="node">
<title>Node1</title>
<g id="a_Node000001"><a xlink:title="Debug and Release assertion macro implementations for GCC/Clang platforms.">
<polygon fill="#999999" stroke="#666666" points="518.5,-283 391.5,-283 391.5,-242 518.5,-242 518.5,-283"/>
<text text-anchor="start" x="399.5" y="-271" font-family="Helvetica,sans-Serif" font-size="10.00">src/platforms/common</text>
<text text-anchor="start" x="399.5" y="-260" font-family="Helvetica,sans-Serif" font-size="10.00">/assertion_macro_gcc</text>
<text text-anchor="middle" x="455" y="-249" font-family="Helvetica,sans-Serif" font-size="10.00">_clang.hpp</text>
</a>
</g>
</g>
<!-- Node2 -->
<g id="Node000002" class="node">
<title>Node2</title>
<g id="a_Node000002"><a xlink:href="../../d5/d82/3ds_2platform__config_8hpp.html" target="_top" xlink:title="additional nintendo 3ds platform header">
<polygon fill="white" stroke="#666666" points="146,-206 0,-206 0,-176 146,-176 146,-206"/>
<text text-anchor="start" x="8" y="-194" font-family="Helvetica,sans-Serif" font-size="10.00">src/platforms/3ds/platform</text>
<text text-anchor="middle" x="73" y="-183" font-family="Helvetica,sans-Serif" font-size="10.00">_config.hpp</text>
</a>
</g>
</g>
<!-- Node1&#45;&gt;Node2 -->
<g id="edge1_Node000001_Node000002" class="edge">
<title>Node1&#45;&gt;Node2</title>
<g id="a_edge1_Node000001_Node000002"><a xlink:title=" ">
<path fill="none" stroke="#63b8ff" d="M381.32,-248.1C313.58,-235.77 213.7,-217.6 146.13,-205.31"/>
<polygon fill="#63b8ff" stroke="#63b8ff" points="381.03,-251.6 391.49,-249.95 382.28,-244.71 381.03,-251.6"/>
</a>
</g>
</g>
<!-- Node3 -->
<g id="Node000003" class="node">
<title>Node3</title>
<g id="a_Node000003"><a xlink:href="../../df/db1/gba_2platform__config_8hpp.html" target="_top" xlink:title="additional nintendo game boy advance platform header">
<polygon fill="white" stroke="#666666" points="311.5,-206 164.5,-206 164.5,-176 311.5,-176 311.5,-206"/>
<text text-anchor="start" x="172.5" y="-194" font-family="Helvetica,sans-Serif" font-size="10.00">src/platforms/gba/platform</text>
<text text-anchor="middle" x="238" y="-183" font-family="Helvetica,sans-Serif" font-size="10.00">_config.hpp</text>
</a>
</g>
</g>
<!-- Node1&#45;&gt;Node3 -->
<g id="edge2_Node000001_Node000003" class="edge">
<title>Node1&#45;&gt;Node3</title>
<g id="a_edge2_Node000001_Node000003"><a xlink:title=" ">
<path fill="none" stroke="#63b8ff" d="M384.15,-238.81C350.39,-228 311.07,-215.4 281.72,-206"/>
<polygon fill="#63b8ff" stroke="#63b8ff" points="383.38,-242.24 393.98,-241.96 385.52,-235.57 383.38,-242.24"/>
</a>
</g>
</g>
<!-- Node4 -->
<g id="Node000004" class="node">
<title>Node4</title>
<g id="a_Node000004"><a xlink:href="../../dd/d9e/linux_2platform__config_8hpp.html" target="_top" xlink:title="additional linux platform header">
<polygon fill="white" stroke="#666666" points="446.5,-206 329.5,-206 329.5,-176 446.5,-176 446.5,-206"/>
<text text-anchor="start" x="337.5" y="-194" font-family="Helvetica,sans-Serif" font-size="10.00">src/platforms/linux</text>
<text text-anchor="middle" x="388" y="-183" font-family="Helvetica,sans-Serif" font-size="10.00">/platform_config.hpp</text>
</a>
</g>
</g>
<!-- Node1&#45;&gt;Node4 -->
<g id="edge3_Node000001_Node000004" class="edge">
<title>Node1&#45;&gt;Node4</title>
<g id="a_edge3_Node000001_Node000004"><a xlink:title=" ">
<path fill="none" stroke="#63b8ff" d="M429.02,-234.55C419.63,-224.81 409.42,-214.22 401.53,-206.04"/>
<polygon fill="#63b8ff" stroke="#63b8ff" points="426.52,-237 435.98,-241.77 431.56,-232.14 426.52,-237"/>
</a>
</g>
</g>
<!-- Node12 -->
<g id="Node000012" class="node">
<title>Node12</title>
<g id="a_Node000012"><a xlink:href="../../d8/d80/macos_2platform__config_8hpp.html" target="_top" xlink:title="additional macOS platform header">
<polygon fill="white" stroke="#666666" points="581.5,-206 464.5,-206 464.5,-176 581.5,-176 581.5,-206"/>
<text text-anchor="start" x="472.5" y="-194" font-family="Helvetica,sans-Serif" font-size="10.00">src/platforms/macos</text>
<text text-anchor="middle" x="523" y="-183" font-family="Helvetica,sans-Serif" font-size="10.00">/platform_config.hpp</text>
</a>
</g>
</g>
<!-- Node1&#45;&gt;Node12 -->
<g id="edge13_Node000001_Node000012" class="edge">
<title>Node1&#45;&gt;Node12</title>
<g id="a_edge13_Node000001_Node000012"><a xlink:title=" ">
<path fill="none" stroke="#63b8ff" d="M481.37,-234.55C490.89,-224.81 501.26,-214.22 509.26,-206.04"/>
<polygon fill="#63b8ff" stroke="#63b8ff" points="478.8,-232.17 474.3,-241.77 483.8,-237.07 478.8,-232.17"/>
</a>
</g>
</g>
<!-- Node13 -->
<g id="Node000013" class="node">
<title>Node13</title>
<g id="a_Node000013"><a xlink:href="../../dc/d74/nds_2platform__config_8hpp.html" target="_top" xlink:title="additional nintendo ds platform header">
<polygon fill="white" stroke="#666666" points="746,-206 600,-206 600,-176 746,-176 746,-206"/>
<text text-anchor="start" x="608" y="-194" font-family="Helvetica,sans-Serif" font-size="10.00">src/platforms/nds/platform</text>
<text text-anchor="middle" x="673" y="-183" font-family="Helvetica,sans-Serif" font-size="10.00">_config.hpp</text>
</a>
</g>
</g>
<!-- Node1&#45;&gt;Node13 -->
<g id="edge14_Node000001_Node000013" class="edge">
<title>Node1&#45;&gt;Node13</title>
<g id="a_edge14_Node000001_Node000013"><a xlink:title=" ">
<path fill="none" stroke="#63b8ff" d="M526.17,-238.81C560.09,-228 599.59,-215.4 629.07,-206"/>
<polygon fill="#63b8ff" stroke="#63b8ff" points="524.77,-235.58 516.31,-241.96 526.9,-242.25 524.77,-235.58"/>
</a>
</g>
</g>
<!-- Node14 -->
<g id="Node000014" class="node">
<title>Node14</title>
<g id="a_Node000014"><a xlink:href="../../db/d83/switch_2platform__config_8hpp.html" target="_top" xlink:title="additional nintendo switch platform header">
<polygon fill="white" stroke="#666666" points="881.5,-206 764.5,-206 764.5,-176 881.5,-176 881.5,-206"/>
<text text-anchor="start" x="772.5" y="-194" font-family="Helvetica,sans-Serif" font-size="10.00">src/platforms/switch</text>
<text text-anchor="middle" x="823" y="-183" font-family="Helvetica,sans-Serif" font-size="10.00">/platform_config.hpp</text>
</a>
</g>
</g>
<!-- Node1&#45;&gt;Node14 -->
<g id="edge15_Node000001_Node000014" class="edge">
<title>Node1&#45;&gt;Node14</title>
<g id="a_edge15_Node000001_Node000014"><a xlink:title=" ">
<path fill="none" stroke="#63b8ff" d="M528.46,-248.34C589.24,-237.34 677.81,-221.08 755,-206 758.08,-205.4 761.23,-204.78 764.41,-204.14"/>
<polygon fill="#63b8ff" stroke="#63b8ff" points="527.79,-244.9 518.57,-250.12 529.03,-251.79 527.79,-244.9"/>
</a>
</g>
</g>
<!-- Node5 -->
<g id="Node000005" class="node">
<title>Node5</title>
<g id="a_Node000005"><a xlink:href="../../da/d47/core_8hpp.html" target="_top" xlink:title="Umbrella header for the engine core module.">
<polygon fill="white" stroke="#666666" points="436.5,-140 339.5,-140 339.5,-121 436.5,-121 436.5,-140"/>
<text text-anchor="middle" x="388" y="-128" font-family="Helvetica,sans-Serif" font-size="10.00">include/core.hpp</text>
</a>
</g>
</g>
<!-- Node4&#45;&gt;Node5 -->
<g id="edge4_Node000004_Node000005" class="edge">
<title>Node4&#45;&gt;Node5</title>
<g id="a_edge4_Node000004_Node000005"><a xlink:title=" ">
<path fill="none" stroke="#63b8ff" d="M388,-165.75C388,-156.72 388,-147.03 388,-140.27"/>
<polygon fill="#63b8ff" stroke="#63b8ff" points="384.5,-165.84 388,-175.84 391.5,-165.84 384.5,-165.84"/>
</a>
</g>
</g>
<!-- Node6 -->
<g id="Node000006" class="node">
<title>Node6</title>
<g id="a_Node000006"><a xlink:href="../../d6/d2c/app_8hpp.html" target="_top" xlink:title="Umbrella header for the engine application module.">
<polygon fill="white" stroke="#666666" points="219,-79.5 125,-79.5 125,-60.5 219,-60.5 219,-79.5"/>
<text text-anchor="middle" x="172" y="-67.5" font-family="Helvetica,sans-Serif" font-size="10.00">include/app.hpp</text>
</a>
</g>
</g>
<!-- Node5&#45;&gt;Node6 -->
<g id="edge5_Node000005_Node000006" class="edge">
<title>Node5&#45;&gt;Node6</title>
<g id="a_edge5_Node000005_Node000006"><a xlink:title=" ">
<path fill="none" stroke="#63b8ff" d="M346.73,-118.32C304.96,-107.01 241.3,-89.77 203.45,-79.52"/>
<polygon fill="#63b8ff" stroke="#63b8ff" points="346.02,-121.76 356.59,-120.99 347.85,-115 346.02,-121.76"/>
</a>
</g>
</g>
<!-- Node7 -->
<g id="Node000007" class="node">
<title>Node7</title>
<g id="a_Node000007"><a xlink:href="../../d8/d8c/toygine2_8hpp.html" target="_top" xlink:title="Main umbrella header for the entire ToyGine2 engine.">
<polygon fill="white" stroke="#666666" points="306.5,-19 187.5,-19 187.5,0 306.5,0 306.5,-19"/>
<text text-anchor="middle" x="247" y="-7" font-family="Helvetica,sans-Serif" font-size="10.00">include/toygine2.hpp</text>
</a>
</g>
</g>
<!-- Node5&#45;&gt;Node7 -->
<g id="edge9_Node000005_Node000007" class="edge">
<title>Node5&#45;&gt;Node7</title>
<g id="a_edge9_Node000005_Node000007"><a xlink:title=" ">
<path fill="none" stroke="#63b8ff" d="M329.52,-119.9C307.2,-113.47 283.24,-102.78 267,-85 249.84,-66.22 247.13,-34.28 246.88,-19.06"/>
<polygon fill="#63b8ff" stroke="#63b8ff" points="328.73,-123.31 339.3,-122.48 330.52,-116.54 328.73,-123.31"/>
</a>
</g>
</g>
<!-- Node8 -->
<g id="Node000008" class="node">
<title>Node8</title>
<g id="a_Node000008"><a xlink:href="../../d4/d78/math_8hpp.html" target="_top" xlink:title="Umbrella header for the engine mathematics module.">
<polygon fill="white" stroke="#666666" points="376.5,-79.5 275.5,-79.5 275.5,-60.5 376.5,-60.5 376.5,-79.5"/>
<text text-anchor="middle" x="326" y="-67.5" font-family="Helvetica,sans-Serif" font-size="10.00">include/math.hpp</text>
</a>
</g>
</g>
<!-- Node5&#45;&gt;Node8 -->
<g id="edge7_Node000005_Node000008" class="edge">
<title>Node5&#45;&gt;Node8</title>
<g id="a_edge7_Node000005_Node000008"><a xlink:title=" ">
<path fill="none" stroke="#63b8ff" d="M371.48,-113.91C359.85,-102.94 344.72,-88.67 335.19,-79.67"/>
<polygon fill="#63b8ff" stroke="#63b8ff" points="369.18,-116.55 378.85,-120.87 373.98,-111.46 369.18,-116.55"/>
</a>
</g>
</g>
<!-- Node9 -->
<g id="Node000009" class="node">
<title>Node9</title>
<g id="a_Node000009"><a xlink:href="../../db/d2d/hashes_8cpp.html" target="_top" xlink:title="Implementation of CRC hash functions with lookup tables for optimal performance.">
<polygon fill="white" stroke="#666666" points="507.5,-79.5 394.5,-79.5 394.5,-60.5 507.5,-60.5 507.5,-79.5"/>
<text text-anchor="middle" x="451" y="-67.5" font-family="Helvetica,sans-Serif" font-size="10.00">src/core/hashes.cpp</text>
</a>
</g>
</g>
<!-- Node5&#45;&gt;Node9 -->
<g id="edge10_Node000005_Node000009" class="edge">
<title>Node5&#45;&gt;Node9</title>
<g id="a_edge10_Node000005_Node000009"><a xlink:title=" ">
<path fill="none" stroke="#63b8ff" d="M404.79,-113.91C416.6,-102.94 431.97,-88.67 441.67,-79.67"/>
<polygon fill="#63b8ff" stroke="#63b8ff" points="402.24,-111.5 397.3,-120.87 407.01,-116.63 402.24,-111.5"/>
</a>
</g>
</g>
<!-- Node10 -->
<g id="Node000010" class="node">
<title>Node10</title>
<g id="a_Node000010"><a xlink:href="../../de/d06/utils_8cpp.html" target="_top" xlink:title="Implementation of core utility functions for string manipulation, encoding conversion,...">
<polygon fill="white" stroke="#666666" points="624.5,-79.5 525.5,-79.5 525.5,-60.5 624.5,-60.5 624.5,-79.5"/>
<text text-anchor="middle" x="575" y="-67.5" font-family="Helvetica,sans-Serif" font-size="10.00">src/core/utils.cpp</text>
</a>
</g>
</g>
<!-- Node5&#45;&gt;Node10 -->
<g id="edge11_Node000005_Node000010" class="edge">
<title>Node5&#45;&gt;Node10</title>
<g id="a_edge11_Node000005_Node000010"><a xlink:title=" ">
<path fill="none" stroke="#63b8ff" d="M424.88,-117.96C461.05,-106.65 515.35,-89.66 547.78,-79.52"/>
<polygon fill="#63b8ff" stroke="#63b8ff" points="423.69,-114.67 415.19,-120.99 425.78,-121.35 423.69,-114.67"/>
</a>
</g>
</g>
<!-- Node11 -->
<g id="Node000011" class="node">
<title>Node11</title>
<g id="a_Node000011"><a xlink:href="../../d7/d90/assertion__stub_8cpp.html" target="_top" xlink:title="Stub implementation of assertion system for platforms without native assertion support.">
<polygon fill="white" stroke="#666666" points="777.5,-85 642.5,-85 642.5,-55 777.5,-55 777.5,-85"/>
<text text-anchor="start" x="650.5" y="-73" font-family="Helvetica,sans-Serif" font-size="10.00">src/platforms/stub</text>
<text text-anchor="middle" x="710" y="-62" font-family="Helvetica,sans-Serif" font-size="10.00">/core/assertion_stub.cpp</text>
</a>
</g>
</g>
<!-- Node5&#45;&gt;Node11 -->
<g id="edge12_Node000005_Node000011" class="edge">
<title>Node5&#45;&gt;Node11</title>
<g id="a_edge12_Node000005_Node000011"><a xlink:title=" ">
<path fill="none" stroke="#63b8ff" d="M445.58,-119.14C495.44,-110.15 569.49,-96.78 634,-85 636.77,-84.49 639.6,-83.98 642.46,-83.45"/>
<polygon fill="#63b8ff" stroke="#63b8ff" points="444.85,-115.71 435.63,-120.93 446.09,-122.6 444.85,-115.71"/>
</a>
</g>
</g>
<!-- Node6&#45;&gt;Node7 -->
<g id="edge6_Node000006_Node000007" class="edge">
<title>Node6&#45;&gt;Node7</title>
<g id="a_edge6_Node000006_Node000007"><a xlink:title=" ">
<path fill="none" stroke="#63b8ff" d="M191.18,-54.04C205.35,-42.99 224.13,-28.34 235.89,-19.17"/>
<polygon fill="#63b8ff" stroke="#63b8ff" points="188.8,-51.46 183.07,-60.37 193.1,-56.98 188.8,-51.46"/>
</a>
</g>
</g>
<!-- Node8&#45;&gt;Node7 -->
<g id="edge8_Node000008_Node000007" class="edge">
<title>Node8&#45;&gt;Node7</title>
<g id="a_edge8_Node000008_Node000007"><a xlink:title=" ">
<path fill="none" stroke="#63b8ff" d="M306.21,-54.35C291.25,-43.27 271.21,-28.43 258.7,-19.17"/>
<polygon fill="#63b8ff" stroke="#63b8ff" points="304.22,-57.23 314.34,-60.37 308.39,-51.6 304.22,-57.23"/>
</a>
</g>
</g>
</g>
</svg>
