<?xml version="1.0" encoding="UTF-8" standalone="no"?>
<!DOCTYPE svg PUBLIC "-//W3C//DTD SVG 1.1//EN"
 "http://www.w3.org/Graphics/SVG/1.1/DTD/svg11.dtd">
<!-- Generated by graphviz version 2.43.0 (0)
 -->
<!-- Title: src/platforms/common/assertion_macro_gcc_clang.hpp Pages: 1 -->
<!--zoomable 368 -->

<svg id="main" version="1.1" xmlns="http://www.w3.org/2000/svg" xmlns:xlink="http://www.w3.org/1999/xlink" xml:space="preserve" onload="init(evt)">

<style type="text/css"><![CDATA[
.node, .edge {opacity: 0.7;}
.node.selected, .edge.selected {opacity: 1;}
.edge:hover path { stroke: red; }
.edge:hover polygon { stroke: red; fill: red; }
]]></style>

<defs>
  <circle id="rim" cx="0" cy="0" r="7"/>
  <circle id="rim2" cx="0" cy="0" r="3.5"/>
  <g id="zoomPlus">
    <use xlink:href="#rim" fill="#404040"><set attributeName="fill" to="#808080" begin="zoomplus.mouseover" end="zoomplus.mouseout"/></use>
    <path d="M-4,0h8M0,-4v8" fill="none" stroke="white" stroke-width="1.5" pointer-events="none"/>
  </g>
  <g id="zoomMin">
    <use xlink:href="#rim" fill="#404040"><set attributeName="fill" to="#808080" begin="zoomminus.mouseover" end="zoomminus.mouseout"/></use>
    <path d="M-4,0h8" fill="none" stroke="white" stroke-width="1.5" pointer-events="none"/>
  </g>
  <g id="arrowUp" transform="translate(30 24)">
    <use xlink:href="#rim"/>
    <path pointer-events="none" fill="none" stroke="white" stroke-width="1.5" d="M0,-3.0v7 M-2.5,-0.5L0,-3.0L2.5,-0.5"/>
  </g>
  <g id="arrowRight" transform="rotate(90) translate(36 -43)">
    <use xlink:href="#rim"/>
    <path pointer-events="none" fill="none" stroke="white" stroke-width="1.5" d="M0,-3.0v7 M-2.5,-0.5L0,-3.0L2.5,-0.5"/>
  </g>
  <g id="arrowDown" transform="rotate(180) translate(-30 -48)">
    <use xlink:href="#rim"/>
    <path pointer-events="none" fill="none" stroke="white" stroke-width="1.5" d="M0,-3.0v7 M-2.5,-0.5L0,-3.0L2.5,-0.5"/>
  </g>
  <g id="arrowLeft" transform="rotate(270) translate(-36 17)">
    <use xlink:href="#rim"/>
    <path pointer-events="none" fill="none" stroke="white" stroke-width="1.5" d="M0,-3.0v7 M-2.5,-0.5L0,-3.0L2.5,-0.5"/>
  </g>
  <g id="resetDef">
    <use xlink:href="#rim2" fill="#404040"><set attributeName="fill" to="#808080" begin="reset.mouseover" end="reset.mouseout"/></use>
  </g>
</defs>
<script type="application/ecmascript">
var viewWidth = 1827;
var viewHeight = 368;
var sectionId = 'dynsection-0';
</script>
<script type="application/ecmascript" xlink:href="../../svg.min.js"/>
<svg id="graph" class="graph">
<g id="viewport">
<title>src/platforms/common/assertion_macro_gcc_clang.hpp</title>
<!-- Node1 -->
<g id="Node000001" class="node">
<title>Node1</title>
<g id="a_Node000001"><a xlink:title="Debug and Release assertion macro implementations for GCC/Clang platforms.">
<polygon fill="#999999" stroke="#666666" points="1159.36,-360 1032.36,-360 1032.36,-319 1159.36,-319 1159.36,-360"/>
<text text-anchor="start" x="1040.36" y="-348" font-family="Helvetica,sans-Serif" font-size="10.00">src/platforms/common</text>
<text text-anchor="start" x="1040.36" y="-337" font-family="Helvetica,sans-Serif" font-size="10.00">/assertion_macro_gcc</text>
<text text-anchor="middle" x="1095.86" y="-326" font-family="Helvetica,sans-Serif" font-size="10.00">_clang.hpp</text>
</a>
</g>
</g>
<!-- Node2 -->
<g id="Node000002" class="node">
<title>Node2</title>
<g id="a_Node000002"><a xlink:href="../../d5/d82/3ds_2platform__config_8hpp.html" target="_top" xlink:title="Compile&#45;time platform and CPU bindings for Nintendo 3DS.">
<polygon fill="white" stroke="#666666" points="786.86,-283 640.86,-283 640.86,-253 786.86,-253 786.86,-283"/>
<text text-anchor="start" x="648.86" y="-271" font-family="Helvetica,sans-Serif" font-size="10.00">src/platforms/3ds/platform</text>
<text text-anchor="middle" x="713.86" y="-260" font-family="Helvetica,sans-Serif" font-size="10.00">_config.hpp</text>
</a>
</g>
</g>
<!-- Node1&#45;&gt;Node2 -->
<g id="edge1_Node000001_Node000002" class="edge">
<title>Node1&#45;&gt;Node2</title>
<g id="a_edge1_Node000001_Node000002"><a xlink:title=" ">
<path fill="none" stroke="#63b8ff" d="M1022.18,-325.1C954.44,-312.77 854.56,-294.6 786.99,-282.31"/>
<polygon fill="#63b8ff" stroke="#63b8ff" points="1021.89,-328.6 1032.35,-326.95 1023.14,-321.71 1021.89,-328.6"/>
</a>
</g>
</g>
<!-- Node3 -->
<g id="Node000003" class="node">
<title>Node3</title>
<g id="a_Node000003"><a xlink:href="../../df/db1/gba_2platform__config_8hpp.html" target="_top" xlink:title="Compile&#45;time platform and CPU bindings for Nintendo GBA.">
<polygon fill="white" stroke="#666666" points="952.36,-283 805.36,-283 805.36,-253 952.36,-253 952.36,-283"/>
<text text-anchor="start" x="813.36" y="-271" font-family="Helvetica,sans-Serif" font-size="10.00">src/platforms/gba/platform</text>
<text text-anchor="middle" x="878.86" y="-260" font-family="Helvetica,sans-Serif" font-size="10.00">_config.hpp</text>
</a>
</g>
</g>
<!-- Node1&#45;&gt;Node3 -->
<g id="edge2_Node000001_Node000003" class="edge">
<title>Node1&#45;&gt;Node3</title>
<g id="a_edge2_Node000001_Node000003"><a xlink:title=" ">
<path fill="none" stroke="#63b8ff" d="M1025.02,-315.81C991.25,-305 951.93,-292.4 922.59,-283"/>
<polygon fill="#63b8ff" stroke="#63b8ff" points="1024.25,-319.24 1034.84,-318.96 1026.38,-312.57 1024.25,-319.24"/>
</a>
</g>
</g>
<!-- Node4 -->
<g id="Node000004" class="node">
<title>Node4</title>
<g id="a_Node000004"><a xlink:href="../../dd/d9e/linux_2platform__config_8hpp.html" target="_top" xlink:title="Compile&#45;time platform and CPU bindings for Linux.">
<polygon fill="white" stroke="#666666" points="1087.36,-283 970.36,-283 970.36,-253 1087.36,-253 1087.36,-283"/>
<text text-anchor="start" x="978.36" y="-271" font-family="Helvetica,sans-Serif" font-size="10.00">src/platforms/linux</text>
<text text-anchor="middle" x="1028.86" y="-260" font-family="Helvetica,sans-Serif" font-size="10.00">/platform_config.hpp</text>
</a>
</g>
</g>
<!-- Node1&#45;&gt;Node4 -->
<g id="edge3_Node000001_Node000004" class="edge">
<title>Node1&#45;&gt;Node4</title>
<g id="a_edge3_Node000001_Node000004"><a xlink:title=" ">
<path fill="none" stroke="#63b8ff" d="M1069.88,-311.55C1060.5,-301.81 1050.28,-291.22 1042.4,-283.04"/>
<polygon fill="#63b8ff" stroke="#63b8ff" points="1067.38,-314 1076.84,-318.77 1072.42,-309.14 1067.38,-314"/>
</a>
</g>
</g>
<!-- Node25 -->
<g id="Node000025" class="node">
<title>Node25</title>
<g id="a_Node000025"><a xlink:href="../../d8/d80/macos_2platform__config_8hpp.html" target="_top" xlink:title="Compile&#45;time platform and CPU bindings for macOS.">
<polygon fill="white" stroke="#666666" points="1222.36,-283 1105.36,-283 1105.36,-253 1222.36,-253 1222.36,-283"/>
<text text-anchor="start" x="1113.36" y="-271" font-family="Helvetica,sans-Serif" font-size="10.00">src/platforms/macos</text>
<text text-anchor="middle" x="1163.86" y="-260" font-family="Helvetica,sans-Serif" font-size="10.00">/platform_config.hpp</text>
</a>
</g>
</g>
<!-- Node1&#45;&gt;Node25 -->
<g id="edge32_Node000001_Node000025" class="edge">
<title>Node1&#45;&gt;Node25</title>
<g id="a_edge32_Node000001_Node000025"><a xlink:title=" ">
<path fill="none" stroke="#63b8ff" d="M1122.23,-311.55C1131.76,-301.81 1142.12,-291.22 1150.13,-283.04"/>
<polygon fill="#63b8ff" stroke="#63b8ff" points="1119.66,-309.17 1115.17,-318.77 1124.66,-314.07 1119.66,-309.17"/>
</a>
</g>
</g>
<!-- Node26 -->
<g id="Node000026" class="node">
<title>Node26</title>
<g id="a_Node000026"><a xlink:href="../../dc/d74/nds_2platform__config_8hpp.html" target="_top" xlink:title="Compile&#45;time platform and CPU bindings for Nintendo DS.">
<polygon fill="white" stroke="#666666" points="1386.86,-283 1240.86,-283 1240.86,-253 1386.86,-253 1386.86,-283"/>
<text text-anchor="start" x="1248.86" y="-271" font-family="Helvetica,sans-Serif" font-size="10.00">src/platforms/nds/platform</text>
<text text-anchor="middle" x="1313.86" y="-260" font-family="Helvetica,sans-Serif" font-size="10.00">_config.hpp</text>
</a>
</g>
</g>
<!-- Node1&#45;&gt;Node26 -->
<g id="edge33_Node000001_Node000026" class="edge">
<title>Node1&#45;&gt;Node26</title>
<g id="a_edge33_Node000001_Node000026"><a xlink:title=" ">
<path fill="none" stroke="#63b8ff" d="M1167.03,-315.81C1200.95,-305 1240.45,-292.4 1269.94,-283"/>
<polygon fill="#63b8ff" stroke="#63b8ff" points="1165.63,-312.58 1157.17,-318.96 1167.76,-319.25 1165.63,-312.58"/>
</a>
</g>
</g>
<!-- Node27 -->
<g id="Node000027" class="node">
<title>Node27</title>
<g id="a_Node000027"><a xlink:href="../../db/d83/switch_2platform__config_8hpp.html" target="_top" xlink:title="Compile&#45;time platform and CPU bindings for Nintendo Switch.">
<polygon fill="white" stroke="#666666" points="1522.36,-283 1405.36,-283 1405.36,-253 1522.36,-253 1522.36,-283"/>
<text text-anchor="start" x="1413.36" y="-271" font-family="Helvetica,sans-Serif" font-size="10.00">src/platforms/switch</text>
<text text-anchor="middle" x="1463.86" y="-260" font-family="Helvetica,sans-Serif" font-size="10.00">/platform_config.hpp</text>
</a>
</g>
</g>
<!-- Node1&#45;&gt;Node27 -->
<g id="edge34_Node000001_Node000027" class="edge">
<title>Node1&#45;&gt;Node27</title>
<g id="a_edge34_Node000001_Node000027"><a xlink:title=" ">
<path fill="none" stroke="#63b8ff" d="M1169.32,-325.34C1230.1,-314.34 1318.67,-298.08 1395.86,-283 1398.94,-282.4 1402.09,-281.78 1405.27,-281.14"/>
<polygon fill="#63b8ff" stroke="#63b8ff" points="1168.65,-321.9 1159.43,-327.12 1169.89,-328.79 1168.65,-321.9"/>
</a>
</g>
</g>
<!-- Node5 -->
<g id="Node000005" class="node">
<title>Node5</title>
<g id="a_Node000005"><a xlink:href="../../da/d47/core_8hpp.html" target="_top" xlink:title="Umbrella header for the engine core module.">
<polygon fill="white" stroke="#666666" points="1077.36,-217 980.36,-217 980.36,-198 1077.36,-198 1077.36,-217"/>
<text text-anchor="middle" x="1028.86" y="-205" font-family="Helvetica,sans-Serif" font-size="10.00">include/core.hpp</text>
</a>
</g>
</g>
<!-- Node4&#45;&gt;Node5 -->
<g id="edge4_Node000004_Node000005" class="edge">
<title>Node4&#45;&gt;Node5</title>
<g id="a_edge4_Node000004_Node000005"><a xlink:title=" ">
<path fill="none" stroke="#63b8ff" d="M1028.86,-242.75C1028.86,-233.72 1028.86,-224.03 1028.86,-217.27"/>
<polygon fill="#63b8ff" stroke="#63b8ff" points="1025.36,-242.84 1028.86,-252.84 1032.36,-242.84 1025.36,-242.84"/>
</a>
</g>
</g>
<!-- Node6 -->
<g id="Node000006" class="node">
<title>Node6</title>
<g id="a_Node000006"><a xlink:href="../../d4/d01/application_8hpp.html" target="_top" xlink:title="Umbrella header for the application module.">
<polygon fill="white" stroke="#666666" points="287.86,-156.5 157.86,-156.5 157.86,-137.5 287.86,-137.5 287.86,-156.5"/>
<text text-anchor="middle" x="222.86" y="-144.5" font-family="Helvetica,sans-Serif" font-size="10.00">include/application.hpp</text>
</a>
</g>
</g>
<!-- Node5&#45;&gt;Node6 -->
<g id="edge5_Node000005_Node000006" class="edge">
<title>Node5&#45;&gt;Node6</title>
<g id="a_edge5_Node000005_Node000006"><a xlink:title=" ">
<path fill="none" stroke="#63b8ff" d="M970.1,-202.23C823.26,-191.58 441.16,-163.84 287.88,-152.72"/>
<polygon fill="#63b8ff" stroke="#63b8ff" points="970.03,-205.74 980.26,-202.97 970.54,-198.76 970.03,-205.74"/>
</a>
</g>
</g>
<!-- Node7 -->
<g id="Node000007" class="node">
<title>Node7</title>
<g id="a_Node000007"><a xlink:href="../../d8/d8c/toygine2_8hpp.html" target="_top" xlink:title="Main umbrella header for the engine.">
<polygon fill="white" stroke="#666666" points="824.36,-19 705.36,-19 705.36,0 824.36,0 824.36,-19"/>
<text text-anchor="middle" x="764.86" y="-7" font-family="Helvetica,sans-Serif" font-size="10.00">include/toygine2.hpp</text>
</a>
</g>
</g>
<!-- Node5&#45;&gt;Node7 -->
<g id="edge26_Node000005_Node000007" class="edge">
<title>Node5&#45;&gt;Node7</title>
<g id="a_edge26_Node000005_Node000007"><a xlink:title=" ">
<path fill="none" stroke="#63b8ff" d="M969.91,-204.14C843.21,-197.61 552.34,-174.21 501.86,-96 491.98,-80.69 490.1,-68.92 501.86,-55 527.38,-24.8 635.86,-15.09 705.28,-11.97"/>
<polygon fill="#63b8ff" stroke="#63b8ff" points="970.03,-207.65 980.19,-204.66 970.38,-200.66 970.03,-207.65"/>
</a>
</g>
</g>
<!-- Node11 -->
<g id="Node000011" class="node">
<title>Node11</title>
<g id="a_Node000011"><a xlink:href="../../d1/d71/audio_8hpp.html" target="_top" xlink:title="Umbrella header for the audio module.">
<polygon fill="white" stroke="#666666" points="614.36,-85 511.36,-85 511.36,-66 614.36,-66 614.36,-85"/>
<text text-anchor="middle" x="562.86" y="-73" font-family="Helvetica,sans-Serif" font-size="10.00">include/audio.hpp</text>
</a>
</g>
</g>
<!-- Node5&#45;&gt;Node11 -->
<g id="edge10_Node000005_Node000011" class="edge">
<title>Node5&#45;&gt;Node11</title>
<g id="a_edge10_Node000005_Node000011"><a xlink:title=" ">
<path fill="none" stroke="#63b8ff" d="M969.95,-204.38C906.31,-200.66 802.62,-190.38 717.86,-162 660.74,-142.87 600.23,-102.92 575,-85.24"/>
<polygon fill="#63b8ff" stroke="#63b8ff" points="970.03,-207.89 980.2,-204.95 970.41,-200.9 970.03,-207.89"/>
</a>
</g>
</g>
<!-- Node12 -->
<g id="Node000012" class="node">
<title>Node12</title>
<g id="a_Node000012"><a xlink:href="../../d8/d39/game_8hpp.html" target="_top" xlink:title="Umbrella header for the game module.">
<polygon fill="white" stroke="#666666" points="736.86,-85 632.86,-85 632.86,-66 736.86,-66 736.86,-85"/>
<text text-anchor="middle" x="684.86" y="-73" font-family="Helvetica,sans-Serif" font-size="10.00">include/game.hpp</text>
</a>
</g>
</g>
<!-- Node5&#45;&gt;Node12 -->
<g id="edge12_Node000005_Node000012" class="edge">
<title>Node5&#45;&gt;Node12</title>
<g id="a_edge12_Node000005_Node000012"><a xlink:title=" ">
<path fill="none" stroke="#63b8ff" d="M970.02,-201.75C901,-195.35 791.44,-182.36 755.86,-162 722.87,-143.12 698.61,-102.67 689.18,-85.02"/>
<polygon fill="#63b8ff" stroke="#63b8ff" points="970.04,-205.27 980.32,-202.69 970.68,-198.3 970.04,-205.27"/>
</a>
</g>
</g>
<!-- Node13 -->
<g id="Node000013" class="node">
<title>Node13</title>
<g id="a_Node000013"><a xlink:href="../../d4/d78/math_8hpp.html" target="_top" xlink:title="Umbrella header for the math module.">
<polygon fill="white" stroke="#666666" points="866.36,-156.5 765.36,-156.5 765.36,-137.5 866.36,-137.5 866.36,-156.5"/>
<text text-anchor="middle" x="815.86" y="-144.5" font-family="Helvetica,sans-Serif" font-size="10.00">include/math.hpp</text>
</a>
</g>
</g>
<!-- Node5&#45;&gt;Node13 -->
<g id="edge14_Node000005_Node000013" class="edge">
<title>Node5&#45;&gt;Node13</title>
<g id="a_edge14_Node000005_Node000013"><a xlink:title=" ">
<path fill="none" stroke="#63b8ff" d="M988.17,-195.32C946.98,-184.01 884.2,-166.77 846.87,-156.52"/>
<polygon fill="#63b8ff" stroke="#63b8ff" points="987.32,-198.72 997.89,-197.99 989.17,-191.97 987.32,-198.72"/>
</a>
</g>
</g>
<!-- Node15 -->
<g id="Node000015" class="node">
<title>Node15</title>
<g id="a_Node000015"><a xlink:href="../../d6/d67/network_8hpp.html" target="_top" xlink:title="Umbrella header for the network module.">
<polygon fill="white" stroke="#666666" points="1000.86,-156.5 884.86,-156.5 884.86,-137.5 1000.86,-137.5 1000.86,-156.5"/>
<text text-anchor="middle" x="942.86" y="-144.5" font-family="Helvetica,sans-Serif" font-size="10.00">include/network.hpp</text>
</a>
</g>
</g>
<!-- Node5&#45;&gt;Node15 -->
<g id="edge18_Node000005_Node000015" class="edge">
<title>Node5&#45;&gt;Node15</title>
<g id="a_edge18_Node000005_Node000015"><a xlink:title=" ">
<path fill="none" stroke="#63b8ff" d="M1007.78,-192.16C991.44,-181.05 969.34,-166.01 955.6,-156.67"/>
<polygon fill="#63b8ff" stroke="#63b8ff" points="1005.94,-195.14 1016.17,-197.87 1009.87,-189.35 1005.94,-195.14"/>
</a>
</g>
</g>
<!-- Node17 -->
<g id="Node000017" class="node">
<title>Node17</title>
<g id="a_Node000017"><a xlink:href="../../de/dd6/ui_8hpp.html" target="_top" xlink:title="Umbrella header for platform UI types.">
<polygon fill="white" stroke="#666666" points="1258.86,-85 1128.86,-85 1128.86,-66 1258.86,-66 1258.86,-85"/>
<text text-anchor="middle" x="1193.86" y="-73" font-family="Helvetica,sans-Serif" font-size="10.00">include/platform/ui.hpp</text>
</a>
</g>
</g>
<!-- Node5&#45;&gt;Node17 -->
<g id="edge21_Node000005_Node000017" class="edge">
<title>Node5&#45;&gt;Node17</title>
<g id="a_edge21_Node000005_Node000017"><a xlink:title=" ">
<path fill="none" stroke="#63b8ff" d="M1029.27,-187.86C1030.6,-171.28 1035.02,-147.35 1048.86,-132 1064.34,-114.83 1124.16,-95.76 1161.96,-85.04"/>
<polygon fill="#63b8ff" stroke="#63b8ff" points="1025.77,-187.8 1028.77,-197.97 1032.76,-188.15 1025.77,-187.8"/>
</a>
</g>
</g>
<!-- Node18 -->
<g id="Node000018" class="node">
<title>Node18</title>
<g id="a_Node000018"><a xlink:href="../../d6/d4b/render_8hpp.html" target="_top" xlink:title="Umbrella header for the render module.">
<polygon fill="white" stroke="#666666" points="1164.36,-156.5 1057.36,-156.5 1057.36,-137.5 1164.36,-137.5 1164.36,-156.5"/>
<text text-anchor="middle" x="1110.86" y="-144.5" font-family="Helvetica,sans-Serif" font-size="10.00">include/render.hpp</text>
</a>
</g>
</g>
<!-- Node5&#45;&gt;Node18 -->
<g id="edge23_Node000005_Node000018" class="edge">
<title>Node5&#45;&gt;Node18</title>
<g id="a_edge23_Node000005_Node000018"><a xlink:title=" ">
<path fill="none" stroke="#63b8ff" d="M1049.4,-191.85C1064.93,-180.77 1085.73,-165.93 1098.71,-156.67"/>
<polygon fill="#63b8ff" stroke="#63b8ff" points="1047.07,-189.21 1040.96,-197.87 1051.13,-194.91 1047.07,-189.21"/>
</a>
</g>
</g>
<!-- Node20 -->
<g id="Node000020" class="node">
<title>Node20</title>
<g id="a_Node000020"><a xlink:href="../../da/de0/core_8cpp.html" target="_top" xlink:title="Implementation of toy::initialize() and toy::deInitialize() lifecycle functions.">
<polygon fill="white" stroke="#666666" points="1281.36,-156.5 1182.36,-156.5 1182.36,-137.5 1281.36,-137.5 1281.36,-156.5"/>
<text text-anchor="middle" x="1231.86" y="-144.5" font-family="Helvetica,sans-Serif" font-size="10.00">src/core/core.cpp</text>
</a>
</g>
</g>
<!-- Node5&#45;&gt;Node20 -->
<g id="edge27_Node000005_Node000020" class="edge">
<title>Node5&#45;&gt;Node20</title>
<g id="a_edge27_Node000005_Node000020"><a xlink:title=" ">
<path fill="none" stroke="#63b8ff" d="M1068.14,-195.18C1107.41,-183.87 1166.89,-166.72 1202.31,-156.52"/>
<polygon fill="#63b8ff" stroke="#63b8ff" points="1067.02,-191.86 1058.38,-197.99 1068.96,-198.59 1067.02,-191.86"/>
</a>
</g>
</g>
<!-- Node21 -->
<g id="Node000021" class="node">
<title>Node21</title>
<g id="a_Node000021"><a xlink:href="../../db/d2d/hashes_8cpp.html" target="_top" xlink:title="Table&#45;driven implementations of toy::crc8(), toy::crc16(), and toy::crc32().">
<polygon fill="white" stroke="#666666" points="1412.36,-156.5 1299.36,-156.5 1299.36,-137.5 1412.36,-137.5 1412.36,-156.5"/>
<text text-anchor="middle" x="1355.86" y="-144.5" font-family="Helvetica,sans-Serif" font-size="10.00">src/core/hashes.cpp</text>
</a>
</g>
</g>
<!-- Node5&#45;&gt;Node21 -->
<g id="edge28_Node000005_Node000021" class="edge">
<title>Node5&#45;&gt;Node21</title>
<g id="a_edge28_Node000005_Node000021"><a xlink:title=" ">
<path fill="none" stroke="#63b8ff" d="M1087.68,-197.27C1140.87,-188.74 1221.27,-175.4 1290.86,-162 1299.48,-160.34 1308.71,-158.43 1317.42,-156.57"/>
<polygon fill="#63b8ff" stroke="#63b8ff" points="1087.07,-193.82 1077.75,-198.85 1088.18,-200.73 1087.07,-193.82"/>
</a>
</g>
</g>
<!-- Node22 -->
<g id="Node000022" class="node">
<title>Node22</title>
<g id="a_Node000022"><a xlink:href="../../d2/d51/log__sink_8cpp.html" target="_top" xlink:title="Out&#45;of&#45;line definitions for toy::log::ISink.">
<polygon fill="white" stroke="#666666" points="1549.36,-156.5 1430.36,-156.5 1430.36,-137.5 1549.36,-137.5 1549.36,-156.5"/>
<text text-anchor="middle" x="1489.86" y="-144.5" font-family="Helvetica,sans-Serif" font-size="10.00">src/core/log_sink.cpp</text>
</a>
</g>
</g>
<!-- Node5&#45;&gt;Node22 -->
<g id="edge29_Node000005_Node000022" class="edge">
<title>Node5&#45;&gt;Node22</title>
<g id="a_edge29_Node000005_Node000022"><a xlink:title=" ">
<path fill="none" stroke="#63b8ff" d="M1087.44,-201.53C1164.43,-194.62 1303.75,-180.81 1421.86,-162 1431.5,-160.46 1441.85,-158.5 1451.49,-156.53"/>
<polygon fill="#63b8ff" stroke="#63b8ff" points="1087.1,-198.05 1077.45,-202.42 1087.73,-205.02 1087.1,-198.05"/>
</a>
</g>
</g>
<!-- Node23 -->
<g id="Node000023" class="node">
<title>Node23</title>
<g id="a_Node000023"><a xlink:href="../../de/d06/utils_8cpp.html" target="_top" xlink:title="Definitions for string, encoding, and number utilities declared in core/utils.hpp.">
<polygon fill="white" stroke="#666666" points="1666.36,-156.5 1567.36,-156.5 1567.36,-137.5 1666.36,-137.5 1666.36,-156.5"/>
<text text-anchor="middle" x="1616.86" y="-144.5" font-family="Helvetica,sans-Serif" font-size="10.00">src/core/utils.cpp</text>
</a>
</g>
</g>
<!-- Node5&#45;&gt;Node23 -->
<g id="edge30_Node000005_Node000023" class="edge">
<title>Node5&#45;&gt;Node23</title>
<g id="a_edge30_Node000005_Node000023"><a xlink:title=" ">
<path fill="none" stroke="#63b8ff" d="M1087.4,-204.51C1185.48,-200.53 1388.95,-189.47 1558.86,-162 1567.55,-160.59 1576.87,-158.58 1585.43,-156.51"/>
<polygon fill="#63b8ff" stroke="#63b8ff" points="1087.25,-201.02 1077.39,-204.91 1087.52,-208.01 1087.25,-201.02"/>
</a>
</g>
</g>
<!-- Node24 -->
<g id="Node000024" class="node">
<title>Node24</title>
<g id="a_Node000024"><a xlink:href="../../d7/d90/assertion__stub_8cpp.html" target="_top" xlink:title="Stub definitions for the assertion callback API declared in core/assertion.hpp.">
<polygon fill="white" stroke="#666666" points="1819.36,-162 1684.36,-162 1684.36,-132 1819.36,-132 1819.36,-162"/>
<text text-anchor="start" x="1692.36" y="-150" font-family="Helvetica,sans-Serif" font-size="10.00">src/platforms/stub</text>
<text text-anchor="middle" x="1751.86" y="-139" font-family="Helvetica,sans-Serif" font-size="10.00">/core/assertion_stub.cpp</text>
</a>
</g>
</g>
<!-- Node5&#45;&gt;Node24 -->
<g id="edge31_Node000005_Node000024" class="edge">
<title>Node5&#45;&gt;Node24</title>
<g id="a_edge31_Node000005_Node000024"><a xlink:title=" ">
<path fill="none" stroke="#63b8ff" d="M1088,-204.68C1202.08,-200.67 1460.29,-189.18 1675.86,-162 1678.52,-161.66 1681.23,-161.3 1683.97,-160.9"/>
<polygon fill="#63b8ff" stroke="#63b8ff" points="1087.62,-201.19 1077.74,-205.03 1087.86,-208.19 1087.62,-201.19"/>
</a>
</g>
</g>
<!-- Node6&#45;&gt;Node7 -->
<g id="edge6_Node000006_Node000007" class="edge">
<title>Node6&#45;&gt;Node7</title>
<g id="a_edge6_Node000006_Node000007"><a xlink:title=" ">
<path fill="none" stroke="#63b8ff" d="M147.52,-138.23C69.88,-127.43 -33.84,-103.48 11.86,-55 35.54,-29.88 531.14,-15.95 705.13,-11.82"/>
<polygon fill="#63b8ff" stroke="#63b8ff" points="147.43,-141.75 157.8,-139.61 148.36,-134.81 147.43,-141.75"/>
</a>
</g>
</g>
<!-- Node8 -->
<g id="Node000008" class="node">
<title>Node8</title>
<g id="a_Node000008"><a xlink:href="../../db/db6/console__application_8cpp.html" target="_top" xlink:title="Implementations for toy::application::ConsoleApplication.">
<polygon fill="white" stroke="#666666" points="148.86,-90.5 20.86,-90.5 20.86,-60.5 148.86,-60.5 148.86,-90.5"/>
<text text-anchor="start" x="28.86" y="-78.5" font-family="Helvetica,sans-Serif" font-size="10.00">src/application/console</text>
<text text-anchor="middle" x="84.86" y="-67.5" font-family="Helvetica,sans-Serif" font-size="10.00">_application.cpp</text>
</a>
</g>
</g>
<!-- Node6&#45;&gt;Node8 -->
<g id="edge7_Node000006_Node000008" class="edge">
<title>Node6&#45;&gt;Node8</title>
<g id="a_edge7_Node000006_Node000008"><a xlink:title=" ">
<path fill="none" stroke="#63b8ff" d="M196.72,-132.84C172.7,-120.74 137.21,-102.86 112.67,-90.51"/>
<polygon fill="#63b8ff" stroke="#63b8ff" points="195.43,-136.11 205.94,-137.48 198.58,-129.85 195.43,-136.11"/>
</a>
</g>
</g>
<!-- Node9 -->
<g id="Node000009" class="node">
<title>Node9</title>
<g id="a_Node000009"><a xlink:href="../../d0/dbb/core__application_8cpp.html" target="_top" xlink:title="Implementations for toy::application::CoreApplication.">
<polygon fill="white" stroke="#666666" points="278.86,-90.5 166.86,-90.5 166.86,-60.5 278.86,-60.5 278.86,-90.5"/>
<text text-anchor="start" x="174.86" y="-78.5" font-family="Helvetica,sans-Serif" font-size="10.00">src/application/core</text>
<text text-anchor="middle" x="222.86" y="-67.5" font-family="Helvetica,sans-Serif" font-size="10.00">_application.cpp</text>
</a>
</g>
</g>
<!-- Node6&#45;&gt;Node9 -->
<g id="edge8_Node000006_Node000009" class="edge">
<title>Node6&#45;&gt;Node9</title>
<g id="a_edge8_Node000006_Node000009"><a xlink:title=" ">
<path fill="none" stroke="#63b8ff" d="M222.86,-127.21C222.86,-115.69 222.86,-101.18 222.86,-90.64"/>
<polygon fill="#63b8ff" stroke="#63b8ff" points="219.36,-127.48 222.86,-137.48 226.36,-127.48 219.36,-127.48"/>
</a>
</g>
</g>
<!-- Node10 -->
<g id="Node000010" class="node">
<title>Node10</title>
<g id="a_Node000010"><a xlink:href="../../db/da8/core__application__stub_8cpp.html" target="_top" xlink:title="Stub implementation of toy::application::CoreApplication::sleep() for platforms without OS sleep supp...">
<polygon fill="white" stroke="#666666" points="454.36,-96 297.36,-96 297.36,-55 454.36,-55 454.36,-96"/>
<text text-anchor="start" x="305.36" y="-84" font-family="Helvetica,sans-Serif" font-size="10.00">src/platforms/stub</text>
<text text-anchor="start" x="305.36" y="-73" font-family="Helvetica,sans-Serif" font-size="10.00">/application/core_application</text>
<text text-anchor="middle" x="375.86" y="-62" font-family="Helvetica,sans-Serif" font-size="10.00">_stub.cpp</text>
</a>
</g>
</g>
<!-- Node6&#45;&gt;Node10 -->
<g id="edge9_Node000006_Node000010" class="edge">
<title>Node6&#45;&gt;Node10</title>
<g id="a_edge9_Node000006_Node000010"><a xlink:title=" ">
<path fill="none" stroke="#63b8ff" d="M250.8,-133.31C273.73,-122.89 306.59,-107.97 332.87,-96.03"/>
<polygon fill="#63b8ff" stroke="#63b8ff" points="249.28,-130.16 241.62,-137.48 252.17,-136.53 249.28,-130.16"/>
</a>
</g>
</g>
<!-- Node11&#45;&gt;Node7 -->
<g id="edge11_Node000011_Node000007" class="edge">
<title>Node11&#45;&gt;Node7</title>
<g id="a_edge11_Node000011_Node000007"><a xlink:title=" ">
<path fill="none" stroke="#63b8ff" d="M599.19,-62.86C607.31,-60.27 615.88,-57.54 623.86,-55 663.49,-42.41 709.43,-27.93 737.82,-19"/>
<polygon fill="#63b8ff" stroke="#63b8ff" points="598.04,-59.56 589.58,-65.94 600.17,-66.22 598.04,-59.56"/>
</a>
</g>
</g>
<!-- Node12&#45;&gt;Node7 -->
<g id="edge13_Node000012_Node000007" class="edge">
<title>Node12&#45;&gt;Node7</title>
<g id="a_edge13_Node000012_Node000007"><a xlink:title=" ">
<path fill="none" stroke="#63b8ff" d="M703.63,-59.49C719.29,-46.96 741.07,-29.54 753.99,-19.2"/>
<polygon fill="#63b8ff" stroke="#63b8ff" points="701.27,-56.89 695.65,-65.87 705.65,-62.35 701.27,-56.89"/>
</a>
</g>
</g>
<!-- Node13&#45;&gt;Node7 -->
<g id="edge17_Node000013_Node000007" class="edge">
<title>Node13&#45;&gt;Node7</title>
<g id="a_edge17_Node000013_Node000007"><a xlink:title=" ">
<path fill="none" stroke="#63b8ff" d="M802.87,-129.01C796.31,-119.71 788.73,-107.71 783.86,-96 772.71,-69.18 767.62,-34.79 765.76,-19.05"/>
<polygon fill="#63b8ff" stroke="#63b8ff" points="800.21,-131.32 808.95,-137.32 805.86,-127.18 800.21,-131.32"/>
</a>
</g>
</g>
<!-- Node14 -->
<g id="Node000014" class="node">
<title>Node14</title>
<g id="a_Node000014"><a xlink:href="../../db/dbb/geometry_8hpp.html" target="_top" xlink:title="Umbrella header for the geometry module.">
<polygon fill="white" stroke="#666666" points="914.86,-85 792.86,-85 792.86,-66 914.86,-66 914.86,-85"/>
<text text-anchor="middle" x="853.86" y="-73" font-family="Helvetica,sans-Serif" font-size="10.00">include/geometry.hpp</text>
</a>
</g>
</g>
<!-- Node13&#45;&gt;Node14 -->
<g id="edge15_Node000013_Node000014" class="edge">
<title>Node13&#45;&gt;Node14</title>
<g id="a_edge15_Node000013_Node000014"><a xlink:title=" ">
<path fill="none" stroke="#63b8ff" d="M825.47,-128.43C833.04,-114.58 843.28,-95.86 849.16,-85.09"/>
<polygon fill="#63b8ff" stroke="#63b8ff" points="822.25,-127.02 820.52,-137.48 828.39,-130.38 822.25,-127.02"/>
</a>
</g>
</g>
<!-- Node14&#45;&gt;Node7 -->
<g id="edge16_Node000014_Node000007" class="edge">
<title>Node14&#45;&gt;Node7</title>
<g id="a_edge16_Node000014_Node000007"><a xlink:title=" ">
<path fill="none" stroke="#63b8ff" d="M833.47,-59.83C816.01,-47.28 791.47,-29.63 776.96,-19.2"/>
<polygon fill="#63b8ff" stroke="#63b8ff" points="831.7,-62.87 841.86,-65.87 835.78,-57.19 831.7,-62.87"/>
</a>
</g>
</g>
<!-- Node15&#45;&gt;Node7 -->
<g id="edge19_Node000015_Node000007" class="edge">
<title>Node15&#45;&gt;Node7</title>
<g id="a_edge19_Node000015_Node000007"><a xlink:title=" ">
<path fill="none" stroke="#63b8ff" d="M944.26,-127.22C944.7,-106.81 942.1,-74.5 923.86,-55 898.51,-27.89 858.12,-16.82 824.39,-12.5"/>
<polygon fill="#63b8ff" stroke="#63b8ff" points="940.75,-127.27 943.76,-137.43 947.74,-127.61 940.75,-127.27"/>
</a>
</g>
</g>
<!-- Node16 -->
<g id="Node000016" class="node">
<title>Node16</title>
<g id="a_Node000016"><a xlink:href="../../d3/d80/endpoint_8cpp.html" target="_top" xlink:title="Definitions for the toy::network::Endpoint destructor declared in network/endpoint....">
<polygon fill="white" stroke="#666666" points="1110.86,-85 970.86,-85 970.86,-66 1110.86,-66 1110.86,-85"/>
<text text-anchor="middle" x="1040.86" y="-73" font-family="Helvetica,sans-Serif" font-size="10.00">src/network/endpoint.cpp</text>
</a>
</g>
</g>
<!-- Node15&#45;&gt;Node16 -->
<g id="edge20_Node000015_Node000016" class="edge">
<title>Node15&#45;&gt;Node16</title>
<g id="a_edge20_Node000015_Node000016"><a xlink:title=" ">
<path fill="none" stroke="#63b8ff" d="M963.21,-131.57C982.99,-117.54 1012.38,-96.7 1028.75,-85.09"/>
<polygon fill="#63b8ff" stroke="#63b8ff" points="961.01,-128.84 954.88,-137.48 965.06,-134.55 961.01,-128.84"/>
</a>
</g>
</g>
<!-- Node17&#45;&gt;Node7 -->
<g id="edge22_Node000017_Node000007" class="edge">
<title>Node17&#45;&gt;Node7</title>
<g id="a_edge22_Node000017_Node000007"><a xlink:title=" ">
<path fill="none" stroke="#63b8ff" d="M1154.93,-63.2C1143.68,-60.22 1131.35,-57.22 1119.86,-55 1016.95,-35.08 895.46,-22.09 824.6,-15.54"/>
<polygon fill="#63b8ff" stroke="#63b8ff" points="1154.33,-66.67 1164.9,-65.91 1156.16,-59.91 1154.33,-66.67"/>
</a>
</g>
</g>
<!-- Node18&#45;&gt;Node7 -->
<g id="edge24_Node000018_Node000007" class="edge">
<title>Node18&#45;&gt;Node7</title>
<g id="a_edge24_Node000018_Node000007"><a xlink:title=" ">
<path fill="none" stroke="#63b8ff" d="M1154.64,-134.88C1198.65,-123.27 1260.95,-105.45 1267.86,-96 1278.62,-81.29 1280.17,-68.44 1267.86,-55 1238.45,-22.87 951.53,-13.81 824.67,-11.36"/>
<polygon fill="#63b8ff" stroke="#63b8ff" points="1153.51,-131.56 1144.73,-137.48 1155.29,-138.33 1153.51,-131.56"/>
</a>
</g>
</g>
<!-- Node19 -->
<g id="Node000019" class="node">
<title>Node19</title>
<g id="a_Node000019"><a xlink:href="../../db/d3d/pixel__format_8cpp.html" target="_top" xlink:title="Definitions for pixelFormatName() and pixelFormatFromName() declared in render/pixel_format....">
<polygon fill="white" stroke="#666666" points="1464.86,-85 1314.86,-85 1314.86,-66 1464.86,-66 1464.86,-85"/>
<text text-anchor="middle" x="1389.86" y="-73" font-family="Helvetica,sans-Serif" font-size="10.00">src/render/pixel_format.cpp</text>
</a>
</g>
</g>
<!-- Node18&#45;&gt;Node19 -->
<g id="edge25_Node000018_Node000019" class="edge">
<title>Node18&#45;&gt;Node19</title>
<g id="a_edge25_Node000018_Node000019"><a xlink:title=" ">
<path fill="none" stroke="#63b8ff" d="M1154.98,-135.01C1210.52,-121.17 1304.8,-97.69 1355.37,-85.09"/>
<polygon fill="#63b8ff" stroke="#63b8ff" points="1153.93,-131.66 1145.07,-137.48 1155.62,-138.46 1153.93,-131.66"/>
</a>
</g>
</g>
</g>
</svg>

<g id="navigator" transform="translate(0 0)" fill="#404254">
  <rect fill="#f2f5e9" fill-opacity="0.5" stroke="#606060" stroke-width=".5" x="0" y="0" width="60" height="60"/>
  <use id="zoomplus" xlink:href="#zoomPlus" x="17" y="9" onmousedown="handleZoom(evt,'in')"/>
  <use id="zoomminus" xlink:href="#zoomMin" x="42" y="9" onmousedown="handleZoom(evt,'out')"/>
  <use id="reset" xlink:href="#resetDef" x="30" y="36" onmousedown="handleReset()"/>
   <use id="arrowup" xlink:href="#arrowUp" x="0" y="0" onmousedown="handlePan(0,-1)"/>
  <use id="arrowright" xlink:href="#arrowRight" x="0" y="0" onmousedown="handlePan(1,0)"/>
  <use id="arrowdown" xlink:href="#arrowDown" x="0" y="0" onmousedown="handlePan(0,1)"/>
  <use id="arrowleft" xlink:href="#arrowLeft" x="0" y="0" onmousedown="handlePan(-1,0)"/>
</g>
<svg viewBox="0 0 15 15" width="100%" height="30px" preserveAspectRatio="xMaxYMin meet">
 <g id="arrow_out" transform="scale(0.3 0.3)">
  <a xlink:href="assertion__macro__gcc__clang_8hpp__dep__incl_org.svg" target="_base">
   <rect id="button" ry="5" rx="5" y="6" x="6" height="38" width="38"
        fill="#f2f5e9" fill-opacity="0.5" stroke="#606060" stroke-width="1.0"/>
   <path id="arrow"
     d="M 11.500037,31.436501 C 11.940474,20.09759 22.043105,11.32322 32.158766,21.979434 L 37.068811,17.246167 C 37.068811,17.246167 37.088388,32 37.088388,32 L 22.160133,31.978069 C 22.160133,31.978069 26.997745,27.140456 26.997745,27.140456 C 18.528582,18.264221 13.291696,25.230495 11.500037,31.436501 z"
     style="fill:#404040;"/>
  </a>
 </g>
</svg>

<style type='text/css'>
<![CDATA[
[data-mouse-over-selected='false'] { opacity: 0.7; }
[data-mouse-over-selected='true']  { opacity: 1.0; }
]]>
</style>
<script type="application/ecmascript"><![CDATA[
document.addEventListener('DOMContentLoaded', (event) => {
  highlightEdges();
  highlightAdjacentNodes();
});
]]></script>
</svg>
