<?xml version="1.0" encoding="UTF-8" standalone="no"?>
<!DOCTYPE svg PUBLIC "-//W3C//DTD SVG 1.1//EN"
 "http://www.w3.org/Graphics/SVG/1.1/DTD/svg11.dtd">
<!-- Generated by graphviz version 14.1.2 (0)
 -->
<!-- Title: src/platforms/common/assertion_macro_gcc_clang.hpp Pages: 1 -->
<svg width="765pt" height="124pt"
 viewBox="0.00 0.00 765.00 124.00" xmlns="http://www.w3.org/2000/svg" xmlns:xlink="http://www.w3.org/1999/xlink">
<g id="page0,1_graph0" class="graph" transform="scale(1 1) rotate(0) translate(4 119.75)">
<title>src/platforms/common/assertion_macro_gcc_clang.hpp</title>
<!-- Node1 -->
<g id="Node000001" class="node">
<title>Node1</title>
<g id="a_Node000001"><a xlink:title="Debug and Release assertion macro implementations for GCC/Clang platforms.">
<polygon fill="#999999" stroke="#666666" points="452,-115.75 325.75,-115.75 325.75,-69.5 452,-69.5 452,-115.75"/>
<text xml:space="preserve" text-anchor="start" x="333.75" y="-102.25" font-family="Helvetica,sans-Serif" font-size="10.00">src/platforms/common</text>
<text xml:space="preserve" text-anchor="start" x="333.75" y="-89.5" font-family="Helvetica,sans-Serif" font-size="10.00">/assertion_macro_gcc</text>
<text xml:space="preserve" text-anchor="middle" x="388.88" y="-76.75" font-family="Helvetica,sans-Serif" font-size="10.00">_clang.hpp</text>
</a>
</g>
</g>
<!-- Node2 -->
<g id="Node000002" class="node">
<title>Node2</title>
<g id="a_Node000002"><a xlink:href="../../d5/d82/3ds_2platform__config_8hpp.html" target="_top" xlink:title="Compile&#45;time platform and CPU bindings for Nintendo 3DS.">
<polygon fill="white" stroke="#666666" points="145.75,-33.5 0,-33.5 0,0 145.75,0 145.75,-33.5"/>
<text xml:space="preserve" text-anchor="start" x="8" y="-20" font-family="Helvetica,sans-Serif" font-size="10.00">src/platforms/3ds/platform</text>
<text xml:space="preserve" text-anchor="middle" x="72.88" y="-7.25" font-family="Helvetica,sans-Serif" font-size="10.00">_config.hpp</text>
</a>
</g>
</g>
<!-- Node1&#45;&gt;Node2 -->
<g id="edge1_Node000001_Node000002" class="edge">
<title>Node1&#45;&gt;Node2</title>
<g id="a_edge1_Node000001_Node000002"><a xlink:title=" ">
<path fill="none" stroke="#63b8ff" d="M314.14,-74.15C262.11,-61.99 193.22,-45.88 142.38,-34"/>
<polygon fill="#63b8ff" stroke="#63b8ff" points="313.3,-77.55 323.83,-76.42 314.89,-70.73 313.3,-77.55"/>
</a>
</g>
</g>
<!-- Node3 -->
<g id="Node000003" class="node">
<title>Node3</title>
<g id="a_Node000003"><a xlink:href="../../da/d3c/gamecube_2platform__config_8hpp.html" target="_top" xlink:title="Compile&#45;time platform and CPU bindings for Nintendo GameCube.">
<polygon fill="white" stroke="#666666" points="298.12,-33.5 163.62,-33.5 163.62,0 298.12,0 298.12,-33.5"/>
<text xml:space="preserve" text-anchor="start" x="171.62" y="-20" font-family="Helvetica,sans-Serif" font-size="10.00">src/platforms/gamecube</text>
<text xml:space="preserve" text-anchor="middle" x="230.88" y="-7.25" font-family="Helvetica,sans-Serif" font-size="10.00">/platform_config.hpp</text>
</a>
</g>
</g>
<!-- Node1&#45;&gt;Node3 -->
<g id="edge2_Node000001_Node000003" class="edge">
<title>Node1&#45;&gt;Node3</title>
<g id="a_edge2_Node000001_Node000003"><a xlink:title=" ">
<path fill="none" stroke="#63b8ff" d="M330.41,-64.29C308.51,-54.05 284.35,-42.75 265.32,-33.85"/>
<polygon fill="#63b8ff" stroke="#63b8ff" points="328.7,-67.35 339.24,-68.42 331.66,-61.01 328.7,-67.35"/>
</a>
</g>
</g>
<!-- Node4 -->
<g id="Node000004" class="node">
<title>Node4</title>
<g id="a_Node000004"><a xlink:href="../../dc/d74/nds_2platform__config_8hpp.html" target="_top" xlink:title="Compile&#45;time platform and CPU bindings for Nintendo DS.">
<polygon fill="white" stroke="#666666" points="461.75,-33.5 316,-33.5 316,0 461.75,0 461.75,-33.5"/>
<text xml:space="preserve" text-anchor="start" x="324" y="-20" font-family="Helvetica,sans-Serif" font-size="10.00">src/platforms/nds/platform</text>
<text xml:space="preserve" text-anchor="middle" x="388.88" y="-7.25" font-family="Helvetica,sans-Serif" font-size="10.00">_config.hpp</text>
</a>
</g>
</g>
<!-- Node1&#45;&gt;Node4 -->
<g id="edge3_Node000001_Node000004" class="edge">
<title>Node1&#45;&gt;Node4</title>
<g id="a_edge3_Node000001_Node000004"><a xlink:title=" ">
<path fill="none" stroke="#63b8ff" d="M388.88,-57.64C388.88,-49.35 388.88,-40.86 388.88,-33.85"/>
<polygon fill="#63b8ff" stroke="#63b8ff" points="385.38,-57.55 388.88,-67.55 392.38,-57.55 385.38,-57.55"/>
</a>
</g>
</g>
<!-- Node5 -->
<g id="Node000005" class="node">
<title>Node5</title>
<g id="a_Node000005"><a xlink:href="../../db/d83/switch_2platform__config_8hpp.html" target="_top" xlink:title="Compile&#45;time platform and CPU bindings for Nintendo Switch.">
<polygon fill="white" stroke="#666666" points="596.12,-33.5 479.62,-33.5 479.62,0 596.12,0 596.12,-33.5"/>
<text xml:space="preserve" text-anchor="start" x="487.62" y="-20" font-family="Helvetica,sans-Serif" font-size="10.00">src/platforms/switch</text>
<text xml:space="preserve" text-anchor="middle" x="537.88" y="-7.25" font-family="Helvetica,sans-Serif" font-size="10.00">/platform_config.hpp</text>
</a>
</g>
</g>
<!-- Node1&#45;&gt;Node5 -->
<g id="edge4_Node000001_Node000005" class="edge">
<title>Node1&#45;&gt;Node5</title>
<g id="a_edge4_Node000001_Node000005"><a xlink:title=" ">
<path fill="none" stroke="#63b8ff" d="M444.57,-64.01C465.08,-53.84 487.61,-42.67 505.39,-33.85"/>
<polygon fill="#63b8ff" stroke="#63b8ff" points="443.15,-60.81 435.75,-68.39 446.26,-67.08 443.15,-60.81"/>
</a>
</g>
</g>
<!-- Node6 -->
<g id="Node000006" class="node">
<title>Node6</title>
<g id="a_Node000006"><a xlink:href="../../d1/d95/wii_2platform__config_8hpp.html" target="_top" xlink:title="Compile&#45;time platform and CPU bindings for Nintendo Wii.">
<polygon fill="white" stroke="#666666" points="757.25,-33.5 614.5,-33.5 614.5,0 757.25,0 757.25,-33.5"/>
<text xml:space="preserve" text-anchor="start" x="622.5" y="-20" font-family="Helvetica,sans-Serif" font-size="10.00">src/platforms/wii/platform</text>
<text xml:space="preserve" text-anchor="middle" x="685.88" y="-7.25" font-family="Helvetica,sans-Serif" font-size="10.00">_config.hpp</text>
</a>
</g>
</g>
<!-- Node1&#45;&gt;Node6 -->
<g id="edge5_Node000001_Node000006" class="edge">
<title>Node1&#45;&gt;Node6</title>
<g id="a_edge5_Node000001_Node000006"><a xlink:title=" ">
<path fill="none" stroke="#63b8ff" d="M463.26,-73.12C511.63,-61.09 574.12,-45.55 620.57,-33.99"/>
<polygon fill="#63b8ff" stroke="#63b8ff" points="462.55,-69.69 453.69,-75.5 464.24,-76.48 462.55,-69.69"/>
</a>
</g>
</g>
</g>
</svg>
