<?xml version="1.0" encoding="UTF-8" standalone="no"?>
<!DOCTYPE svg PUBLIC "-//W3C//DTD SVG 1.1//EN"
 "http://www.w3.org/Graphics/SVG/1.1/DTD/svg11.dtd">
<!-- Generated by graphviz version 14.1.2 (0)
 -->
<!-- Title: include/platform/ui/message_box_return.hpp Pages: 1 -->
<svg width="150pt" height="155pt"
 viewBox="0.00 0.00 150.00 155.00" xmlns="http://www.w3.org/2000/svg" xmlns:xlink="http://www.w3.org/1999/xlink">
<g id="page0,1_graph0" class="graph" transform="scale(1 1) rotate(0) translate(4 151)">
<title>include/platform/ui/message_box_return.hpp</title>
<!-- Node1 -->
<g id="Node000001" class="node">
<title>Node1</title>
<g id="a_Node000001"><a xlink:title="Return value for message box / dialog interactions.">
<polygon fill="#999999" stroke="#666666" points="142,-147 0,-147 0,-113.5 142,-113.5 142,-147"/>
<text xml:space="preserve" text-anchor="start" x="8" y="-133.5" font-family="Helvetica,sans-Serif" font-size="10.00">include/platform/ui</text>
<text xml:space="preserve" text-anchor="middle" x="71" y="-120.75" font-family="Helvetica,sans-Serif" font-size="10.00">/message_box_return.hpp</text>
</a>
</g>
</g>
<!-- Node2 -->
<g id="Node000002" class="node">
<title>Node2</title>
<g id="a_Node000002"><a xlink:href="../../de/dd6/ui_8hpp.html" target="_top" xlink:title="Umbrella header for platform UI types.">
<polygon fill="white" stroke="#666666" points="135.62,-77.5 6.38,-77.5 6.38,-56.75 135.62,-56.75 135.62,-77.5"/>
<text xml:space="preserve" text-anchor="middle" x="71" y="-64" font-family="Helvetica,sans-Serif" font-size="10.00">include/platform/ui.hpp</text>
</a>
</g>
</g>
<!-- Node1&#45;&gt;Node2 -->
<g id="edge1_Node000001_Node000002" class="edge">
<title>Node1&#45;&gt;Node2</title>
<g id="a_edge1_Node000001_Node000002"><a xlink:title=" ">
<path fill="none" stroke="#63b8ff" d="M71,-101.69C71,-93.21 71,-84.42 71,-77.97"/>
<polygon fill="#63b8ff" stroke="#63b8ff" points="67.5,-101.68 71,-111.68 74.5,-101.68 67.5,-101.68"/>
</a>
</g>
</g>
<!-- Node3 -->
<g id="Node000003" class="node">
<title>Node3</title>
<g id="a_Node000003"><a xlink:href="../../d8/d8c/toygine2_8hpp.html" target="_top" xlink:title="Main umbrella header for the engine.">
<polygon fill="white" stroke="#666666" points="130,-20.75 12,-20.75 12,0 130,0 130,-20.75"/>
<text xml:space="preserve" text-anchor="middle" x="71" y="-7.25" font-family="Helvetica,sans-Serif" font-size="10.00">include/toygine2.hpp</text>
</a>
</g>
</g>
<!-- Node2&#45;&gt;Node3 -->
<g id="edge2_Node000002_Node000003" class="edge">
<title>Node2&#45;&gt;Node3</title>
<g id="a_edge2_Node000002_Node000003"><a xlink:title=" ">
<path fill="none" stroke="#63b8ff" d="M71,-44.88C71,-36.66 71,-27.68 71,-21.08"/>
<polygon fill="#63b8ff" stroke="#63b8ff" points="67.5,-44.82 71,-54.82 74.5,-44.82 67.5,-44.82"/>
</a>
</g>
</g>
</g>
</svg>
