<?xml version="1.0" encoding="UTF-8" standalone="no"?>
<!DOCTYPE svg PUBLIC "-//W3C//DTD SVG 1.1//EN"
 "http://www.w3.org/Graphics/SVG/1.1/DTD/svg11.dtd">
<!-- Generated by graphviz version 14.1.2 (0)
 -->
<!-- Title: String &amp; Text Pages: 1 -->
<svg width="176pt" height="146pt"
 viewBox="0.00 0.00 176.00 146.00" xmlns="http://www.w3.org/2000/svg" xmlns:xlink="http://www.w3.org/1999/xlink">
<g id="graph0" class="graph" transform="scale(1 1) rotate(0) translate(4 141.75)">
<title>String &amp; Text</title>
<!-- Node2 -->
<g id="Node000002" class="node">
<title>Node2</title>
<g id="a_Node000002"><a xlink:href="../../de/d08/group___format.html" target="_top" xlink:title="Functions for substituting arguments into {} and {N} placeholders in a format pattern.">
<polygon fill="white" stroke="#666666" points="166.25,-137.75 115.75,-137.75 115.75,-117 166.25,-117 166.25,-137.75"/>
<text xml:space="preserve" text-anchor="middle" x="141" y="-124.25" font-family="Helvetica,sans-Serif" font-size="10.00">Format</text>
</a>
</g>
</g>
<!-- Node1 -->
<g id="Node000001" class="node">
<title>Node1</title>
<g id="a_Node000001"><a xlink:title="String types, formatting, and encoding conversion utilities.">
<polygon fill="#999999" stroke="#666666" points="78.25,-78.75 0,-78.75 0,-58 78.25,-58 78.25,-78.75"/>
<text xml:space="preserve" text-anchor="middle" x="39.12" y="-65.25" font-family="Helvetica,sans-Serif" font-size="10.00">String &amp; Text</text>
</a>
</g>
</g>
<!-- Node1&#45;&gt;Node2 -->
<g id="edge1" class="edge">
<title>Node1&#45;&gt;Node2</title>
<path fill="none" stroke="black" d="M67.98,-84.83C85.19,-94.99 106.77,-107.74 121.8,-116.62"/>
<polygon fill="black" stroke="black" points="70.14,-82.04 59.75,-79.97 66.58,-88.07 70.14,-82.04"/>
</g>
<!-- Node3 -->
<g id="Node000003" class="node">
<title>Node3</title>
<g id="a_Node000003"><a xlink:href="../../dc/d41/group___string_storage.html" target="_top" xlink:title="Fixed&#45;size string buffers, character storage, and non&#45;owning string view.">
<polygon fill="white" stroke="#666666" points="167.75,-98.75 114.25,-98.75 114.25,-78 167.75,-78 167.75,-98.75"/>
<text xml:space="preserve" text-anchor="middle" x="141" y="-85.25" font-family="Helvetica,sans-Serif" font-size="10.00">Storage</text>
</a>
</g>
</g>
<!-- Node1&#45;&gt;Node3 -->
<g id="edge2" class="edge">
<title>Node1&#45;&gt;Node3</title>
<path fill="none" stroke="black" d="M89.93,-78.35C98.19,-80 106.47,-81.66 113.84,-83.14"/>
<polygon fill="black" stroke="black" points="90.72,-74.94 80.22,-76.4 89.34,-81.8 90.72,-74.94"/>
</g>
<!-- Node4 -->
<g id="Node000004" class="node">
<title>Node4</title>
<g id="a_Node000004"><a xlink:href="../../da/dbe/group___string_stream.html" target="_top" xlink:title="Output stream for writing formatted values into string backends.">
<polygon fill="white" stroke="#666666" points="166.62,-59.75 115.38,-59.75 115.38,-39 166.62,-39 166.62,-59.75"/>
<text xml:space="preserve" text-anchor="middle" x="141" y="-46.25" font-family="Helvetica,sans-Serif" font-size="10.00">Stream</text>
</a>
</g>
</g>
<!-- Node1&#45;&gt;Node4 -->
<g id="edge3" class="edge">
<title>Node1&#45;&gt;Node4</title>
<path fill="none" stroke="black" d="M89.76,-58.93C98.53,-57.26 107.32,-55.59 115.03,-54.12"/>
<polygon fill="black" stroke="black" points="89.4,-55.44 80.23,-60.75 90.7,-62.32 89.4,-55.44"/>
</g>
<!-- Node5 -->
<g id="Node000005" class="node">
<title>Node5</title>
<g id="a_Node000005"><a xlink:href="../../d9/d39/group___string_text.html" target="_top" xlink:title="UTF&#45;8 / wide&#45;character conversion, code&#45;point counting, and in&#45;place string reversal.">
<polygon fill="white" stroke="#666666" points="159.12,-20.75 122.88,-20.75 122.88,0 159.12,0 159.12,-20.75"/>
<text xml:space="preserve" text-anchor="middle" x="141" y="-7.25" font-family="Helvetica,sans-Serif" font-size="10.00">Text</text>
</a>
</g>
</g>
<!-- Node1&#45;&gt;Node5 -->
<g id="edge4" class="edge">
<title>Node1&#45;&gt;Node5</title>
<path fill="none" stroke="black" d="M68.11,-52.12C85.55,-42 107.45,-29.28 122.47,-20.56"/>
<polygon fill="black" stroke="black" points="66.64,-48.93 59.75,-56.98 70.16,-54.98 66.64,-48.93"/>
</g>
</g>
</svg>
