<?xml version="1.0" encoding="UTF-8" standalone="no"?>
<!DOCTYPE svg PUBLIC "-//W3C//DTD SVG 1.1//EN"
 "http://www.w3.org/Graphics/SVG/1.1/DTD/svg11.dtd">
<!-- Generated by graphviz version 2.43.0 (0)
 -->
<!-- Title: String &amp; Text Pages: 1 -->
<svg width="177pt" height="138pt"
 viewBox="0.00 0.00 177.00 138.00" xmlns="http://www.w3.org/2000/svg" xmlns:xlink="http://www.w3.org/1999/xlink">

<svg id="main" version="1.1" xmlns="http://www.w3.org/2000/svg" xmlns:xlink="http://www.w3.org/1999/xlink" xml:space="preserve">

<style type="text/css"><![CDATA[
.node, .edge {opacity: 0.7;}
.node.selected, .edge.selected {opacity: 1;}
.edge:hover path { stroke: red; }
.edge:hover polygon { stroke: red; fill: red; }
]]></style>
<script type="application/ecmascript" xlink:href="../../svg.min.js"/>
<svg id="graph" class="graph">
<g id="graph0" class="graph" transform="scale(1 1) rotate(0) translate(4 134)">
<title>String &amp; Text</title>
<!-- Node2 -->
<g id="Node000002" class="node">
<title>Node2</title>
<g id="a_Node000002"><a xlink:href="../../de/d08/group___format.html" target="_top" xlink:title="Functions for substituting arguments into {} and {N} placeholders in a format pattern.">
<polygon fill="white" stroke="#666666" points="167.5,-130 116.5,-130 116.5,-111 167.5,-111 167.5,-130"/>
<text text-anchor="middle" x="142" y="-118" font-family="Helvetica,sans-Serif" font-size="10.00">Format</text>
</a>
</g>
</g>
<!-- Node1 -->
<g id="Node000001" class="node">
<title>Node1</title>
<g id="a_Node000001"><a xlink:title="String types, formatting, and encoding conversion utilities.">
<polygon fill="#999999" stroke="#666666" points="79,-74 0,-74 0,-55 79,-55 79,-74"/>
<text text-anchor="middle" x="39.5" y="-62" font-family="Helvetica,sans-Serif" font-size="10.00">String &amp; Text</text>
</a>
</g>
</g>
<!-- Node1&#45;&gt;Node2 -->
<g id="edge1" class="edge">
<title>Node1&#45;&gt;Node2</title>
<path fill="none" stroke="black" d="M66.84,-79.18C84.79,-89.18 108.05,-102.14 123.69,-110.86"/>
<polygon fill="black" stroke="black" points="68.44,-76.06 58.01,-74.25 65.04,-82.18 68.44,-76.06"/>
</g>
<!-- Node3 -->
<g id="Node000003" class="node">
<title>Node3</title>
<g id="a_Node000003"><a xlink:href="../../dc/d41/group___string_storage.html" target="_top" xlink:title="Fixed&#45;size string buffers, character storage, and non&#45;owning string view.">
<polygon fill="white" stroke="#666666" points="169,-93 115,-93 115,-74 169,-74 169,-93"/>
<text text-anchor="middle" x="142" y="-81" font-family="Helvetica,sans-Serif" font-size="10.00">Storage</text>
</a>
</g>
</g>
<!-- Node1&#45;&gt;Node3 -->
<g id="edge2" class="edge">
<title>Node1&#45;&gt;Node3</title>
<path fill="none" stroke="black" d="M89.03,-73.67C97.93,-75.36 106.9,-77.05 114.82,-78.55"/>
<polygon fill="black" stroke="black" points="89.54,-70.21 79.07,-71.79 88.24,-77.09 89.54,-70.21"/>
</g>
<!-- Node4 -->
<g id="Node000004" class="node">
<title>Node4</title>
<g id="a_Node000004"><a xlink:href="../../da/dbe/group___string_stream.html" target="_top" xlink:title="Output stream for writing formatted values into string backends.">
<polygon fill="white" stroke="#666666" points="168,-56 116,-56 116,-37 168,-37 168,-56"/>
<text text-anchor="middle" x="142" y="-44" font-family="Helvetica,sans-Serif" font-size="10.00">Stream</text>
</a>
</g>
</g>
<!-- Node1&#45;&gt;Node4 -->
<g id="edge3" class="edge">
<title>Node1&#45;&gt;Node4</title>
<path fill="none" stroke="black" d="M89.01,-55.81C98.26,-54.16 107.58,-52.49 115.73,-51.03"/>
<polygon fill="black" stroke="black" points="88.29,-52.38 79.07,-57.59 89.53,-59.27 88.29,-52.38"/>
</g>
<!-- Node5 -->
<g id="Node000005" class="node">
<title>Node5</title>
<g id="a_Node000005"><a xlink:href="../../d9/d39/group___string_text.html" target="_top" xlink:title="UTF&#45;8 / wide&#45;character conversion, code&#45;point counting, and in&#45;place string reversal.">
<polygon fill="white" stroke="#666666" points="160.5,-19 123.5,-19 123.5,0 160.5,0 160.5,-19"/>
<text text-anchor="middle" x="142" y="-7" font-family="Helvetica,sans-Serif" font-size="10.00">Text</text>
</a>
</g>
</g>
<!-- Node1&#45;&gt;Node5 -->
<g id="edge4" class="edge">
<title>Node1&#45;&gt;Node5</title>
<path fill="none" stroke="black" d="M66.78,-50.12C84.61,-40.36 107.7,-27.72 123.36,-19.16"/>
<polygon fill="black" stroke="black" points="65.1,-47.05 58.01,-54.92 68.46,-53.19 65.1,-47.05"/>
</g>
</g>
</svg>
</svg>

<style type='text/css'>
<![CDATA[
[data-mouse-over-selected='false'] { opacity: 0.7; }
[data-mouse-over-selected='true']  { opacity: 1.0; }
]]>
</style>
<script type="application/ecmascript"><![CDATA[
document.addEventListener('DOMContentLoaded', (event) => {
  highlightEdges();
  highlightAdjacentNodes();
});
]]></script>
</svg>
