<?xml version="1.0" encoding="UTF-8" standalone="no"?>
<!DOCTYPE svg PUBLIC "-//W3C//DTD SVG 1.1//EN"
 "http://www.w3.org/Graphics/SVG/1.1/DTD/svg11.dtd">
<!-- Generated by graphviz version 2.43.0 (0)
 -->
<!-- Title: include/core/chrono_countdown_timer.hpp Pages: 1 -->
<svg width="148pt" height="148pt"
 viewBox="0.00 0.00 148.00 148.00" xmlns="http://www.w3.org/2000/svg" xmlns:xlink="http://www.w3.org/1999/xlink">
<g id="page0,1_graph0" class="graph" transform="scale(1 1) rotate(0) translate(4 144)">
<title>include/core/chrono_countdown_timer.hpp</title>
<!-- Node1 -->
<g id="Node000001" class="node">
<title>Node1</title>
<g id="a_Node000001"><a xlink:title="Deadline&#45;based countdown timer over the active toy::chrono::SteadyClock.">
<polygon fill="#999999" stroke="#666666" points="133.5,-140 6.5,-140 6.5,-110 133.5,-110 133.5,-140"/>
<text text-anchor="start" x="14.5" y="-128" font-family="Helvetica,sans-Serif" font-size="10.00">include/core/chrono</text>
<text text-anchor="middle" x="70" y="-117" font-family="Helvetica,sans-Serif" font-size="10.00">_countdown_timer.hpp</text>
</a>
</g>
</g>
<!-- Node2 -->
<g id="Node000002" class="node">
<title>Node2</title>
<g id="a_Node000002"><a xlink:href="../../d3/d6a/chrono__steady__clock_8hpp.html" target="_top" xlink:title="Stateless monotonic clock facade over the active toy::chrono::ClockSource.">
<polygon fill="white" stroke="#666666" points="140,-74 0,-74 0,-55 140,-55 140,-74"/>
<text text-anchor="middle" x="70" y="-62" font-family="Helvetica,sans-Serif" font-size="10.00">chrono_steady_clock.hpp</text>
</a>
</g>
</g>
<!-- Node1&#45;&gt;Node2 -->
<g id="edge1_Node000001_Node000002" class="edge">
<title>Node1&#45;&gt;Node2</title>
<g id="a_edge1_Node000001_Node000002"><a xlink:title=" ">
<path fill="none" stroke="#63b8ff" d="M70,-109.84C70,-102.21 70,-92.7 70,-84.45"/>
<polygon fill="#63b8ff" stroke="#63b8ff" points="73.5,-84.27 70,-74.27 66.5,-84.27 73.5,-84.27"/>
</a>
</g>
</g>
<!-- Node3 -->
<g id="Node000003" class="node">
<title>Node3</title>
<g id="a_Node000003"><a xlink:href="../../dd/ddb/chrono__duration_8hpp.html" target="_top" xlink:title="Duration and time&#45;point aliases over std::chrono.">
<polygon fill="white" stroke="#666666" points="128,-19 12,-19 12,0 128,0 128,-19"/>
<text text-anchor="middle" x="70" y="-7" font-family="Helvetica,sans-Serif" font-size="10.00">chrono_duration.hpp</text>
</a>
</g>
</g>
<!-- Node2&#45;&gt;Node3 -->
<g id="edge2_Node000002_Node000003" class="edge">
<title>Node2&#45;&gt;Node3</title>
<g id="a_edge2_Node000002_Node000003"><a xlink:title=" ">
<path fill="none" stroke="#63b8ff" d="M70,-54.75C70,-47.8 70,-37.85 70,-29.13"/>
<polygon fill="#63b8ff" stroke="#63b8ff" points="73.5,-29.09 70,-19.09 66.5,-29.09 73.5,-29.09"/>
</a>
</g>
</g>
</g>
</svg>
