<?xml version="1.0" encoding="UTF-8" standalone="no"?>
<!DOCTYPE svg PUBLIC "-//W3C//DTD SVG 1.1//EN"
 "http://www.w3.org/Graphics/SVG/1.1/DTD/svg11.dtd">
<!-- Generated by graphviz version 14.1.2 (0)
 -->
<!-- Title: include/core/chrono_countdown_timer.hpp Pages: 1 -->
<svg width="147pt" height="155pt"
 viewBox="0.00 0.00 147.00 155.00" xmlns="http://www.w3.org/2000/svg" xmlns:xlink="http://www.w3.org/1999/xlink">
<g id="page0,1_graph0" class="graph" transform="scale(1 1) rotate(0) translate(4 151)">
<title>include/core/chrono_countdown_timer.hpp</title>
<!-- Node1 -->
<g id="Node000001" class="node">
<title>Node1</title>
<g id="a_Node000001"><a xlink:title="Deadline&#45;based countdown timer over the active toy::chrono::SteadyClock.">
<polygon fill="#999999" stroke="#666666" points="132.62,-147 6.38,-147 6.38,-113.5 132.62,-113.5 132.62,-147"/>
<text xml:space="preserve" text-anchor="start" x="14.38" y="-133.5" font-family="Helvetica,sans-Serif" font-size="10.00">include/core/chrono</text>
<text xml:space="preserve" text-anchor="middle" x="69.5" y="-120.75" font-family="Helvetica,sans-Serif" font-size="10.00">_countdown_timer.hpp</text>
</a>
</g>
</g>
<!-- Node2 -->
<g id="Node000002" class="node">
<title>Node2</title>
<g id="a_Node000002"><a xlink:href="../../d3/d6a/chrono__steady__clock_8hpp.html" target="_top" xlink:title="Stateless monotonic clock facade over the active toy::chrono::ClockSource.">
<polygon fill="white" stroke="#666666" points="139,-77.5 0,-77.5 0,-56.75 139,-56.75 139,-77.5"/>
<text xml:space="preserve" text-anchor="middle" x="69.5" y="-64" font-family="Helvetica,sans-Serif" font-size="10.00">chrono_steady_clock.hpp</text>
</a>
</g>
</g>
<!-- Node1&#45;&gt;Node2 -->
<g id="edge1_Node000001_Node000002" class="edge">
<title>Node1&#45;&gt;Node2</title>
<g id="a_edge1_Node000001_Node000002"><a xlink:title=" ">
<path fill="none" stroke="#63b8ff" d="M69.5,-113.19C69.5,-105.85 69.5,-97.07 69.5,-89.21"/>
<polygon fill="#63b8ff" stroke="#63b8ff" points="73,-89.48 69.5,-79.48 66,-89.48 73,-89.48"/>
</a>
</g>
</g>
<!-- Node3 -->
<g id="Node000003" class="node">
<title>Node3</title>
<g id="a_Node000003"><a xlink:href="../../dd/ddb/chrono__duration_8hpp.html" target="_top" xlink:title="Duration and time&#45;point aliases over std::chrono.">
<polygon fill="white" stroke="#666666" points="127.38,-20.75 11.62,-20.75 11.62,0 127.38,0 127.38,-20.75"/>
<text xml:space="preserve" text-anchor="middle" x="69.5" y="-7.25" font-family="Helvetica,sans-Serif" font-size="10.00">chrono_duration.hpp</text>
</a>
</g>
</g>
<!-- Node2&#45;&gt;Node3 -->
<g id="edge2_Node000002_Node000003" class="edge">
<title>Node2&#45;&gt;Node3</title>
<g id="a_edge2_Node000002_Node000003"><a xlink:title=" ">
<path fill="none" stroke="#63b8ff" d="M69.5,-56.34C69.5,-49.72 69.5,-40.72 69.5,-32.52"/>
<polygon fill="#63b8ff" stroke="#63b8ff" points="73,-32.59 69.5,-22.59 66,-32.59 73,-32.59"/>
</a>
</g>
</g>
</g>
</svg>
