<?xml version="1.0" encoding="UTF-8" standalone="no"?>
<!DOCTYPE svg PUBLIC "-//W3C//DTD SVG 1.1//EN"
 "http://www.w3.org/Graphics/SVG/1.1/DTD/svg11.dtd">
<!-- Generated by graphviz version 14.1.2 (0)
 -->
<!-- Title: include/core/c_string_view.inl Pages: 1 -->
<svg width="4067pt" height="307pt"
 viewBox="0.00 0.00 4067.00 307.00" xmlns="http://www.w3.org/2000/svg" xmlns:xlink="http://www.w3.org/1999/xlink">
<g id="page0,1_graph0" class="graph" transform="scale(1 1) rotate(0) translate(4 302.75)">
<title>include/core/c_string_view.inl</title>
<!-- Node1 -->
<g id="Node000001" class="node">
<title>Node1</title>
<g id="a_Node000001"><a xlink:title="Inline implementations for toy::CStringView.">
<polygon fill="#999999" stroke="#666666" points="2408.87,-298.75 2292.37,-298.75 2292.37,-265.25 2408.87,-265.25 2408.87,-298.75"/>
<text xml:space="preserve" text-anchor="start" x="2300.37" y="-285.25" font-family="Helvetica,sans-Serif" font-size="10.00">include/core/c_string</text>
<text xml:space="preserve" text-anchor="middle" x="2350.62" y="-272.5" font-family="Helvetica,sans-Serif" font-size="10.00">_view.inl</text>
</a>
</g>
</g>
<!-- Node2 -->
<g id="Node000002" class="node">
<title>Node2</title>
<g id="a_Node000002"><a xlink:href="../../da/d47/core_8hpp.html" target="_top" xlink:title="Umbrella header for the engine core module.">
<polygon fill="white" stroke="#666666" points="2398.74,-229.25 2302.49,-229.25 2302.49,-208.5 2398.74,-208.5 2398.74,-229.25"/>
<text xml:space="preserve" text-anchor="middle" x="2350.62" y="-215.75" font-family="Helvetica,sans-Serif" font-size="10.00">include/core.hpp</text>
</a>
</g>
</g>
<!-- Node1&#45;&gt;Node2 -->
<g id="edge1_Node000001_Node000002" class="edge">
<title>Node1&#45;&gt;Node2</title>
<g id="a_edge1_Node000001_Node000002"><a xlink:title=" ">
<path fill="none" stroke="#63b8ff" d="M2350.62,-253.44C2350.62,-244.96 2350.62,-236.17 2350.62,-229.72"/>
<polygon fill="#63b8ff" stroke="#63b8ff" points="2347.12,-253.43 2350.62,-263.43 2354.12,-253.43 2347.12,-253.43"/>
</a>
</g>
</g>
<!-- Node3 -->
<g id="Node000003" class="node">
<title>Node3</title>
<g id="a_Node000003"><a xlink:href="../../d4/d01/application_8hpp.html" target="_top" xlink:title="Umbrella header for the application module.">
<polygon fill="white" stroke="#666666" points="701.24,-166.12 571.99,-166.12 571.99,-145.38 701.24,-145.38 701.24,-166.12"/>
<text xml:space="preserve" text-anchor="middle" x="636.62" y="-152.62" font-family="Helvetica,sans-Serif" font-size="10.00">include/application.hpp</text>
</a>
</g>
</g>
<!-- Node2&#45;&gt;Node3 -->
<g id="edge2_Node000002_Node000003" class="edge">
<title>Node2&#45;&gt;Node3</title>
<g id="a_edge2_Node000002_Node000003"><a xlink:title=" ">
<path fill="none" stroke="#63b8ff" d="M2290.88,-215.74C2027.88,-206.37 974.05,-168.78 701.33,-159.06"/>
<polygon fill="#63b8ff" stroke="#63b8ff" points="2290.45,-219.23 2300.57,-216.09 2290.7,-212.24 2290.45,-219.23"/>
</a>
</g>
</g>
<!-- Node4 -->
<g id="Node000004" class="node">
<title>Node4</title>
<g id="a_Node000004"><a xlink:href="../../d8/d8c/toygine2_8hpp.html" target="_top" xlink:title="Main umbrella header for the engine.">
<polygon fill="white" stroke="#666666" points="1678.62,-20.75 1560.62,-20.75 1560.62,0 1678.62,0 1678.62,-20.75"/>
<text xml:space="preserve" text-anchor="middle" x="1619.62" y="-7.25" font-family="Helvetica,sans-Serif" font-size="10.00">include/toygine2.hpp</text>
</a>
</g>
</g>
<!-- Node2&#45;&gt;Node4 -->
<g id="edge28_Node000002_Node000004" class="edge">
<title>Node2&#45;&gt;Node4</title>
<g id="a_edge28_Node000002_Node000004"><a xlink:title=" ">
<path fill="none" stroke="#63b8ff" d="M2290.8,-217.88C2122.4,-217.39 1646.81,-212.42 1496.62,-172.5 1430.25,-154.86 1394.64,-161.47 1358.62,-103 1311.96,-27.26 1469.5,-13.15 1560.14,-11.15"/>
<polygon fill="#63b8ff" stroke="#63b8ff" points="2290.63,-221.38 2300.64,-217.9 2290.65,-214.38 2290.63,-221.38"/>
</a>
</g>
</g>
<!-- Node13 -->
<g id="Node000013" class="node">
<title>Node13</title>
<g id="a_Node000013"><a xlink:href="../../d1/d71/audio_8hpp.html" target="_top" xlink:title="Umbrella header for the audio module.">
<polygon fill="white" stroke="#666666" points="1469.74,-90.25 1367.49,-90.25 1367.49,-69.5 1469.74,-69.5 1469.74,-90.25"/>
<text xml:space="preserve" text-anchor="middle" x="1418.62" y="-76.75" font-family="Helvetica,sans-Serif" font-size="10.00">include/audio.hpp</text>
</a>
</g>
</g>
<!-- Node2&#45;&gt;Node13 -->
<g id="edge12_Node000002_Node000013" class="edge">
<title>Node2&#45;&gt;Node13</title>
<g id="a_edge12_Node000002_Node000013"><a xlink:title=" ">
<path fill="none" stroke="#63b8ff" d="M2290.73,-218.09C2132.22,-218.07 1704.77,-214.04 1570.62,-172.5 1512.93,-154.64 1454.48,-110.42 1430.25,-90.67"/>
<polygon fill="#63b8ff" stroke="#63b8ff" points="2290.6,-221.59 2300.6,-218.08 2290.6,-214.59 2290.6,-221.59"/>
</a>
</g>
</g>
<!-- Node14 -->
<g id="Node000014" class="node">
<title>Node14</title>
<g id="a_Node000014"><a xlink:href="../../d8/d39/game_8hpp.html" target="_top" xlink:title="Umbrella header for the game module.">
<polygon fill="white" stroke="#666666" points="1591.12,-90.25 1488.12,-90.25 1488.12,-69.5 1591.12,-69.5 1591.12,-90.25"/>
<text xml:space="preserve" text-anchor="middle" x="1539.62" y="-76.75" font-family="Helvetica,sans-Serif" font-size="10.00">include/game.hpp</text>
</a>
</g>
</g>
<!-- Node2&#45;&gt;Node14 -->
<g id="edge14_Node000002_Node000014" class="edge">
<title>Node2&#45;&gt;Node14</title>
<g id="a_edge14_Node000002_Node000014"><a xlink:title=" ">
<path fill="none" stroke="#63b8ff" d="M2290.82,-216.97C2125.76,-214.1 1672.08,-203.44 1612.62,-172.5 1577.26,-154.1 1553.25,-110.17 1543.94,-90.58"/>
<polygon fill="#63b8ff" stroke="#63b8ff" points="2290.62,-220.47 2300.68,-217.14 2290.74,-213.47 2290.62,-220.47"/>
</a>
</g>
</g>
<!-- Node15 -->
<g id="Node000015" class="node">
<title>Node15</title>
<g id="a_Node000015"><a xlink:href="../../d4/d78/math_8hpp.html" target="_top" xlink:title="Umbrella header for the math module.">
<polygon fill="white" stroke="#666666" points="1721.99,-166.12 1621.24,-166.12 1621.24,-145.38 1721.99,-145.38 1721.99,-166.12"/>
<text xml:space="preserve" text-anchor="middle" x="1671.62" y="-152.62" font-family="Helvetica,sans-Serif" font-size="10.00">include/math.hpp</text>
</a>
</g>
</g>
<!-- Node2&#45;&gt;Node15 -->
<g id="edge16_Node000002_Node000015" class="edge">
<title>Node2&#45;&gt;Node15</title>
<g id="a_edge16_Node000002_Node000015"><a xlink:title=" ">
<path fill="none" stroke="#63b8ff" d="M2290.84,-217.13C2179.88,-214.94 1934.88,-206.33 1731.62,-172.5 1722.8,-171.03 1713.4,-168.86 1704.71,-166.6"/>
<polygon fill="#63b8ff" stroke="#63b8ff" points="2290.53,-220.62 2300.59,-217.31 2290.66,-213.62 2290.53,-220.62"/>
</a>
</g>
</g>
<!-- Node17 -->
<g id="Node000017" class="node">
<title>Node17</title>
<g id="a_Node000017"><a xlink:href="../../d6/d67/network_8hpp.html" target="_top" xlink:title="Umbrella header for the network module.">
<polygon fill="white" stroke="#666666" points="1855.12,-166.12 1740.12,-166.12 1740.12,-145.38 1855.12,-145.38 1855.12,-166.12"/>
<text xml:space="preserve" text-anchor="middle" x="1797.62" y="-152.62" font-family="Helvetica,sans-Serif" font-size="10.00">include/network.hpp</text>
</a>
</g>
</g>
<!-- Node2&#45;&gt;Node17 -->
<g id="edge20_Node000002_Node000017" class="edge">
<title>Node2&#45;&gt;Node17</title>
<g id="a_edge20_Node000002_Node000017"><a xlink:title=" ">
<path fill="none" stroke="#63b8ff" d="M2290.76,-214.57C2199.5,-209 2020.27,-195.99 1869.62,-172.5 1859.51,-170.92 1848.68,-168.79 1838.58,-166.61"/>
<polygon fill="#63b8ff" stroke="#63b8ff" points="2290.55,-218.06 2300.74,-215.17 2290.96,-211.07 2290.55,-218.06"/>
</a>
</g>
</g>
<!-- Node19 -->
<g id="Node000019" class="node">
<title>Node19</title>
<g id="a_Node000019"><a xlink:href="../../de/dd6/ui_8hpp.html" target="_top" xlink:title="Umbrella header for platform UI types.">
<polygon fill="white" stroke="#666666" points="2112.24,-90.25 1982.99,-90.25 1982.99,-69.5 2112.24,-69.5 2112.24,-90.25"/>
<text xml:space="preserve" text-anchor="middle" x="2047.62" y="-76.75" font-family="Helvetica,sans-Serif" font-size="10.00">include/platform/ui.hpp</text>
</a>
</g>
</g>
<!-- Node2&#45;&gt;Node19 -->
<g id="edge23_Node000002_Node000019" class="edge">
<title>Node2&#45;&gt;Node19</title>
<g id="a_edge23_Node000002_Node000019"><a xlink:title=" ">
<path fill="none" stroke="#63b8ff" d="M2290.88,-216.19C2174.86,-212.31 1928.18,-200.78 1902.62,-172.5 1892.64,-161.45 1894.28,-151.33 1902.62,-139 1909.44,-128.92 1977.98,-104.4 2018.34,-90.64"/>
<polygon fill="#63b8ff" stroke="#63b8ff" points="2290.73,-219.69 2300.84,-216.52 2290.96,-212.69 2290.73,-219.69"/>
</a>
</g>
</g>
<!-- Node20 -->
<g id="Node000020" class="node">
<title>Node20</title>
<g id="a_Node000020"><a xlink:href="../../d6/d4b/render_8hpp.html" target="_top" xlink:title="Umbrella header for the render module.">
<polygon fill="white" stroke="#666666" points="2017.62,-166.12 1911.62,-166.12 1911.62,-145.38 2017.62,-145.38 2017.62,-166.12"/>
<text xml:space="preserve" text-anchor="middle" x="1964.62" y="-152.62" font-family="Helvetica,sans-Serif" font-size="10.00">include/render.hpp</text>
</a>
</g>
</g>
<!-- Node2&#45;&gt;Node20 -->
<g id="edge25_Node000002_Node000020" class="edge">
<title>Node2&#45;&gt;Node20</title>
<g id="a_edge25_Node000002_Node000020"><a xlink:title=" ">
<path fill="none" stroke="#63b8ff" d="M2290.75,-211.48C2225.47,-204.05 2118.1,-190.47 2026.62,-172.5 2018.12,-170.83 2009.04,-168.72 2000.53,-166.58"/>
<polygon fill="#63b8ff" stroke="#63b8ff" points="2290.21,-214.94 2300.53,-212.58 2290.99,-207.99 2290.21,-214.94"/>
</a>
</g>
</g>
<!-- Node22 -->
<g id="Node000022" class="node">
<title>Node22</title>
<g id="a_Node000022"><a xlink:href="../../da/de0/core_8cpp.html" target="_top" xlink:title="Implementation of toy::initialize() and toy::deInitialize() lifecycle functions.">
<polygon fill="white" stroke="#666666" points="2133.87,-166.12 2035.37,-166.12 2035.37,-145.38 2133.87,-145.38 2133.87,-166.12"/>
<text xml:space="preserve" text-anchor="middle" x="2084.62" y="-152.62" font-family="Helvetica,sans-Serif" font-size="10.00">src/core/core.cpp</text>
</a>
</g>
</g>
<!-- Node2&#45;&gt;Node22 -->
<g id="edge29_Node000002_Node000022" class="edge">
<title>Node2&#45;&gt;Node22</title>
<g id="a_edge29_Node000002_Node000022"><a xlink:title=" ">
<path fill="none" stroke="#63b8ff" d="M2291.06,-205.71C2249.37,-197 2192.44,-184.69 2142.62,-172.5 2135.22,-170.69 2127.33,-168.63 2119.82,-166.61"/>
<polygon fill="#63b8ff" stroke="#63b8ff" points="2290.14,-209.1 2300.65,-207.71 2291.57,-202.24 2290.14,-209.1"/>
</a>
</g>
</g>
<!-- Node23 -->
<g id="Node000023" class="node">
<title>Node23</title>
<g id="a_Node000023"><a xlink:href="../../db/d2d/hashes_8cpp.html" target="_top" xlink:title="Table&#45;driven implementations of toy::crc8(), toy::crc16(), and toy::crc32().">
<polygon fill="white" stroke="#666666" points="2263.62,-166.12 2151.62,-166.12 2151.62,-145.38 2263.62,-145.38 2263.62,-166.12"/>
<text xml:space="preserve" text-anchor="middle" x="2207.62" y="-152.62" font-family="Helvetica,sans-Serif" font-size="10.00">src/core/hashes.cpp</text>
</a>
</g>
</g>
<!-- Node2&#45;&gt;Node23 -->
<g id="edge30_Node000002_Node000023" class="edge">
<title>Node2&#45;&gt;Node23</title>
<g id="a_edge30_Node000002_Node000023"><a xlink:title=" ">
<path fill="none" stroke="#63b8ff" d="M2317.26,-203.62C2290.61,-192.22 2253.97,-176.56 2230.54,-166.55"/>
<polygon fill="#63b8ff" stroke="#63b8ff" points="2315.68,-206.75 2326.25,-207.46 2318.43,-200.31 2315.68,-206.75"/>
</a>
</g>
</g>
<!-- Node24 -->
<g id="Node000024" class="node">
<title>Node24</title>
<g id="a_Node000024"><a xlink:href="../../d8/d34/log__backend_8cpp.html" target="_top" xlink:title="Implementation of toy::log::Backend lifecycle, sink, and timestamp&#45;policy accessors.">
<polygon fill="white" stroke="#666666" points="2419.74,-166.12 2281.49,-166.12 2281.49,-145.38 2419.74,-145.38 2419.74,-166.12"/>
<text xml:space="preserve" text-anchor="middle" x="2350.62" y="-152.62" font-family="Helvetica,sans-Serif" font-size="10.00">src/core/log_backend.cpp</text>
</a>
</g>
</g>
<!-- Node2&#45;&gt;Node24 -->
<g id="edge31_Node000002_Node000024" class="edge">
<title>Node2&#45;&gt;Node24</title>
<g id="a_edge31_Node000002_Node000024"><a xlink:title=" ">
<path fill="none" stroke="#63b8ff" d="M2350.62,-196.61C2350.62,-186.3 2350.62,-174.43 2350.62,-166.34"/>
<polygon fill="#63b8ff" stroke="#63b8ff" points="2347.12,-196.54 2350.62,-206.54 2354.12,-196.54 2347.12,-196.54"/>
</a>
</g>
</g>
<!-- Node25 -->
<g id="Node000025" class="node">
<title>Node25</title>
<g id="a_Node000025"><a xlink:href="../../d2/d51/log__sink_8cpp.html" target="_top" xlink:title="Out&#45;of&#45;line definitions for toy::log::ISink.">
<polygon fill="white" stroke="#666666" points="2555.62,-166.12 2437.62,-166.12 2437.62,-145.38 2555.62,-145.38 2555.62,-166.12"/>
<text xml:space="preserve" text-anchor="middle" x="2496.62" y="-152.62" font-family="Helvetica,sans-Serif" font-size="10.00">src/core/log_sink.cpp</text>
</a>
</g>
</g>
<!-- Node2&#45;&gt;Node25 -->
<g id="edge32_Node000002_Node000025" class="edge">
<title>Node2&#45;&gt;Node25</title>
<g id="a_edge32_Node000002_Node000025"><a xlink:title=" ">
<path fill="none" stroke="#63b8ff" d="M2384.68,-203.62C2411.89,-192.22 2449.3,-176.56 2473.22,-166.55"/>
<polygon fill="#63b8ff" stroke="#63b8ff" points="2383.35,-200.38 2375.47,-207.47 2386.05,-206.84 2383.35,-200.38"/>
</a>
</g>
</g>
<!-- Node26 -->
<g id="Node000026" class="node">
<title>Node26</title>
<g id="a_Node000026"><a xlink:href="../../de/d06/utils_8cpp.html" target="_top" xlink:title="Definitions for string, encoding, and number utilities declared in core/utils.hpp.">
<polygon fill="white" stroke="#666666" points="2671.87,-166.12 2573.37,-166.12 2573.37,-145.38 2671.87,-145.38 2671.87,-166.12"/>
<text xml:space="preserve" text-anchor="middle" x="2622.62" y="-152.62" font-family="Helvetica,sans-Serif" font-size="10.00">src/core/utils.cpp</text>
</a>
</g>
</g>
<!-- Node2&#45;&gt;Node26 -->
<g id="edge33_Node000002_Node000026" class="edge">
<title>Node2&#45;&gt;Node26</title>
<g id="a_edge33_Node000002_Node000026"><a xlink:title=" ">
<path fill="none" stroke="#63b8ff" d="M2410.37,-206.14C2453.4,-197.47 2512.77,-185.03 2564.62,-172.5 2572.13,-170.69 2580.14,-168.61 2587.74,-166.56"/>
<polygon fill="#63b8ff" stroke="#63b8ff" points="2409.84,-202.68 2400.72,-208.08 2411.22,-209.54 2409.84,-202.68"/>
</a>
</g>
</g>
<!-- Node27 -->
<g id="Node000027" class="node">
<title>Node27</title>
<g id="a_Node000027"><a xlink:href="../../df/de5/assertion__linux_8cpp.html" target="_top" xlink:title="Linux implementation of the toy::assertion crash handler and stack trace capture.">
<polygon fill="white" stroke="#666666" points="2827.37,-172.5 2689.87,-172.5 2689.87,-139 2827.37,-139 2827.37,-172.5"/>
<text xml:space="preserve" text-anchor="start" x="2697.87" y="-159" font-family="Helvetica,sans-Serif" font-size="10.00">src/platforms/linux</text>
<text xml:space="preserve" text-anchor="middle" x="2758.62" y="-146.25" font-family="Helvetica,sans-Serif" font-size="10.00">/core/assertion_linux.cpp</text>
</a>
</g>
</g>
<!-- Node2&#45;&gt;Node27 -->
<g id="edge34_Node000002_Node000027" class="edge">
<title>Node2&#45;&gt;Node27</title>
<g id="a_edge34_Node000002_Node000027"><a xlink:title=" ">
<path fill="none" stroke="#63b8ff" d="M2410.17,-210.83C2476.39,-202.72 2586.43,-188.47 2680.62,-172.5 2683.62,-171.99 2686.67,-171.45 2689.76,-170.9"/>
<polygon fill="#63b8ff" stroke="#63b8ff" points="2410.14,-207.3 2400.64,-211.99 2410.99,-214.25 2410.14,-207.3"/>
</a>
</g>
</g>
<!-- Node28 -->
<g id="Node000028" class="node">
<title>Node28</title>
<g id="a_Node000028"><a xlink:href="../../d5/d5a/assertion__macos_8cpp.html" target="_top" xlink:title="macOS implementation of the toy::assertion crash handler and stack trace capture.">
<polygon fill="white" stroke="#666666" points="2991.49,-172.5 2845.74,-172.5 2845.74,-139 2991.49,-139 2991.49,-172.5"/>
<text xml:space="preserve" text-anchor="start" x="2853.74" y="-159" font-family="Helvetica,sans-Serif" font-size="10.00">src/platforms/macos</text>
<text xml:space="preserve" text-anchor="middle" x="2918.62" y="-146.25" font-family="Helvetica,sans-Serif" font-size="10.00">/core/assertion_macos.cpp</text>
</a>
</g>
</g>
<!-- Node2&#45;&gt;Node28 -->
<g id="edge35_Node000002_Node000028" class="edge">
<title>Node2&#45;&gt;Node28</title>
<g id="a_edge35_Node000002_Node000028"><a xlink:title=" ">
<path fill="none" stroke="#63b8ff" d="M2410.38,-214.16C2502.29,-208.03 2683.76,-194.26 2836.62,-172.5 2839.49,-172.09 2842.41,-171.65 2845.36,-171.18"/>
<polygon fill="#63b8ff" stroke="#63b8ff" points="2410.35,-210.66 2400.6,-214.81 2410.81,-217.64 2410.35,-210.66"/>
</a>
</g>
</g>
<!-- Node29 -->
<g id="Node000029" class="node">
<title>Node29</title>
<g id="a_Node000029"><a xlink:href="../../d6/d79/clock__source__posix_8cpp.html" target="_top" xlink:title="Implementation of toy::chrono::ClockSource and toy::chrono::SteadyClock for POSIX.">
<polygon fill="white" stroke="#666666" points="3167.49,-172.5 3009.74,-172.5 3009.74,-139 3167.49,-139 3167.49,-172.5"/>
<text xml:space="preserve" text-anchor="start" x="3017.74" y="-159" font-family="Helvetica,sans-Serif" font-size="10.00">src/platforms/posix</text>
<text xml:space="preserve" text-anchor="middle" x="3088.62" y="-146.25" font-family="Helvetica,sans-Serif" font-size="10.00">/core/clock_source_posix.cpp</text>
</a>
</g>
</g>
<!-- Node2&#45;&gt;Node29 -->
<g id="edge36_Node000002_Node000029" class="edge">
<title>Node2&#45;&gt;Node29</title>
<g id="a_edge36_Node000002_Node000029"><a xlink:title=" ">
<path fill="none" stroke="#63b8ff" d="M2410.2,-215.86C2524.87,-211.5 2784.09,-199.36 3000.62,-172.5 3003.55,-172.14 3006.52,-171.74 3009.53,-171.32"/>
<polygon fill="#63b8ff" stroke="#63b8ff" points="2410.28,-212.35 2400.41,-216.22 2410.54,-219.35 2410.28,-212.35"/>
</a>
</g>
</g>
<!-- Node30 -->
<g id="Node000030" class="node">
<title>Node30</title>
<g id="a_Node000030"><a xlink:href="../../db/d09/system__clock__posix_8cpp.html" target="_top" xlink:title="Implementation of toy::chrono::SystemClock for POSIX.">
<polygon fill="white" stroke="#666666" points="3347.37,-172.5 3185.87,-172.5 3185.87,-139 3347.37,-139 3347.37,-172.5"/>
<text xml:space="preserve" text-anchor="start" x="3193.87" y="-159" font-family="Helvetica,sans-Serif" font-size="10.00">src/platforms/posix</text>
<text xml:space="preserve" text-anchor="middle" x="3266.62" y="-146.25" font-family="Helvetica,sans-Serif" font-size="10.00">/core/system_clock_posix.cpp</text>
</a>
</g>
</g>
<!-- Node2&#45;&gt;Node30 -->
<g id="edge37_Node000002_Node000030" class="edge">
<title>Node2&#45;&gt;Node30</title>
<g id="a_edge37_Node000002_Node000030"><a xlink:title=" ">
<path fill="none" stroke="#63b8ff" d="M2410.6,-217.01C2547.05,-214.51 2891.01,-205.22 3176.62,-172.5 3179.61,-172.16 3182.66,-171.78 3185.73,-171.37"/>
<polygon fill="#63b8ff" stroke="#63b8ff" points="2410.65,-213.51 2400.72,-217.19 2410.78,-220.51 2410.65,-213.51"/>
</a>
</g>
</g>
<!-- Node31 -->
<g id="Node000031" class="node">
<title>Node31</title>
<g id="a_Node000031"><a xlink:href="../../d7/d90/assertion__stub_8cpp.html" target="_top" xlink:title="Stub definitions for the assertion callback API declared in core/assertion.hpp.">
<polygon fill="white" stroke="#666666" points="3499.87,-172.5 3365.37,-172.5 3365.37,-139 3499.87,-139 3499.87,-172.5"/>
<text xml:space="preserve" text-anchor="start" x="3373.37" y="-159" font-family="Helvetica,sans-Serif" font-size="10.00">src/platforms/stub</text>
<text xml:space="preserve" text-anchor="middle" x="3432.62" y="-146.25" font-family="Helvetica,sans-Serif" font-size="10.00">/core/assertion_stub.cpp</text>
</a>
</g>
</g>
<!-- Node2&#45;&gt;Node31 -->
<g id="edge38_Node000002_Node000031" class="edge">
<title>Node2&#45;&gt;Node31</title>
<g id="a_edge38_Node000002_Node000031"><a xlink:title=" ">
<path fill="none" stroke="#63b8ff" d="M2410.2,-218.49C2566.26,-219.38 2999.53,-217.26 3356.62,-172.5 3359.43,-172.15 3362.29,-171.75 3365.17,-171.31"/>
<polygon fill="#63b8ff" stroke="#63b8ff" points="2410.55,-214.99 2400.53,-218.42 2410.51,-221.99 2410.55,-214.99"/>
</a>
</g>
</g>
<!-- Node32 -->
<g id="Node000032" class="node">
<title>Node32</title>
<g id="a_Node000032"><a xlink:href="../../d4/dbf/clock__source__stub_8cpp.html" target="_top" xlink:title="Stub implementations of toy::chrono::ClockSource, toy::chrono::SteadyClock, and toy::chrono::SystemCl...">
<polygon fill="white" stroke="#666666" points="3670.87,-172.5 3518.37,-172.5 3518.37,-139 3670.87,-139 3670.87,-172.5"/>
<text xml:space="preserve" text-anchor="start" x="3526.37" y="-159" font-family="Helvetica,sans-Serif" font-size="10.00">src/platforms/stub</text>
<text xml:space="preserve" text-anchor="middle" x="3594.62" y="-146.25" font-family="Helvetica,sans-Serif" font-size="10.00">/core/clock_source_stub.cpp</text>
</a>
</g>
</g>
<!-- Node2&#45;&gt;Node32 -->
<g id="edge39_Node000002_Node000032" class="edge">
<title>Node2&#45;&gt;Node32</title>
<g id="a_edge39_Node000002_Node000032"><a xlink:title=" ">
<path fill="none" stroke="#63b8ff" d="M2410.34,-218.52C2581.79,-219.72 3090.04,-218.79 3508.62,-172.5 3511.79,-172.15 3515.02,-171.75 3518.27,-171.31"/>
<polygon fill="#63b8ff" stroke="#63b8ff" points="2410.6,-215.02 2400.58,-218.44 2410.55,-222.02 2410.6,-215.02"/>
</a>
</g>
</g>
<!-- Node33 -->
<g id="Node000033" class="node">
<title>Node33</title>
<g id="a_Node000033"><a xlink:href="../../d0/db3/clock__source__windows_8cpp.html" target="_top" xlink:title="Implementation of toy::chrono::ClockSource and toy::chrono::SteadyClock for Windows.">
<polygon fill="white" stroke="#666666" points="3862.74,-172.5 3688.49,-172.5 3688.49,-139 3862.74,-139 3862.74,-172.5"/>
<text xml:space="preserve" text-anchor="start" x="3696.49" y="-159" font-family="Helvetica,sans-Serif" font-size="10.00">src/platforms/windows</text>
<text xml:space="preserve" text-anchor="middle" x="3775.62" y="-146.25" font-family="Helvetica,sans-Serif" font-size="10.00">/core/clock_source_windows.cpp</text>
</a>
</g>
</g>
<!-- Node2&#45;&gt;Node33 -->
<g id="edge40_Node000002_Node000033" class="edge">
<title>Node2&#45;&gt;Node33</title>
<g id="a_edge40_Node000002_Node000033"><a xlink:title=" ">
<path fill="none" stroke="#63b8ff" d="M2410.29,-216.86C2634.71,-212.88 3428.11,-197.32 3679.62,-172.5 3682.39,-172.23 3685.21,-171.92 3688.05,-171.59"/>
<polygon fill="#63b8ff" stroke="#63b8ff" points="2410.56,-213.35 2400.62,-217.03 2410.68,-220.35 2410.56,-213.35"/>
</a>
</g>
</g>
<!-- Node34 -->
<g id="Node000034" class="node">
<title>Node34</title>
<g id="a_Node000034"><a xlink:href="../../d4/d3a/system__clock__windows_8cpp.html" target="_top" xlink:title="Implementation of toy::chrono::SystemClock for Windows.">
<polygon fill="white" stroke="#666666" points="4058.62,-172.5 3880.62,-172.5 3880.62,-139 4058.62,-139 4058.62,-172.5"/>
<text xml:space="preserve" text-anchor="start" x="3888.62" y="-159" font-family="Helvetica,sans-Serif" font-size="10.00">src/platforms/windows</text>
<text xml:space="preserve" text-anchor="middle" x="3969.62" y="-146.25" font-family="Helvetica,sans-Serif" font-size="10.00">/core/system_clock_windows.cpp</text>
</a>
</g>
</g>
<!-- Node2&#45;&gt;Node34 -->
<g id="edge41_Node000002_Node000034" class="edge">
<title>Node2&#45;&gt;Node34</title>
<g id="a_edge41_Node000002_Node000034"><a xlink:title=" ">
<path fill="none" stroke="#63b8ff" d="M2410.59,-217.12C2655.49,-213.9 3580.51,-200.12 3871.62,-172.5 3874.45,-172.23 3877.32,-171.93 3880.22,-171.61"/>
<polygon fill="#63b8ff" stroke="#63b8ff" points="2410.58,-213.62 2400.63,-217.26 2410.67,-220.62 2410.58,-213.62"/>
</a>
</g>
</g>
<!-- Node3&#45;&gt;Node4 -->
<g id="edge3_Node000003_Node000004" class="edge">
<title>Node3&#45;&gt;Node4</title>
<g id="a_edge3_Node000003_Node000004"><a xlink:title=" ">
<path fill="none" stroke="#63b8ff" d="M560.7,-154.1C402.09,-151.96 47.21,-142.74 10.62,-103 -3.3,-87.88 -3.71,-71.49 10.62,-56.75 38.15,-28.43 1272.42,-14.74 1560.12,-11.93"/>
<polygon fill="#63b8ff" stroke="#63b8ff" points="560.22,-157.6 570.26,-154.23 560.31,-150.6 560.22,-157.6"/>
</a>
</g>
</g>
<!-- Node5 -->
<g id="Node000005" class="node">
<title>Node5</title>
<g id="a_Node000005"><a xlink:href="../../d0/dbb/core__application_8cpp.html" target="_top" xlink:title="Implementations for toy::application::CoreApplication.">
<polygon fill="white" stroke="#666666" points="131.24,-96.62 19.99,-96.62 19.99,-63.12 131.24,-63.12 131.24,-96.62"/>
<text xml:space="preserve" text-anchor="start" x="27.99" y="-83.12" font-family="Helvetica,sans-Serif" font-size="10.00">src/application/core</text>
<text xml:space="preserve" text-anchor="middle" x="75.62" y="-70.38" font-family="Helvetica,sans-Serif" font-size="10.00">_application.cpp</text>
</a>
</g>
</g>
<!-- Node3&#45;&gt;Node5 -->
<g id="edge4_Node000003_Node000005" class="edge">
<title>Node3&#45;&gt;Node5</title>
<g id="a_edge4_Node000003_Node000005"><a xlink:title=" ">
<path fill="none" stroke="#63b8ff" d="M560.39,-152.09C462.29,-147.47 287.04,-135.13 140.62,-103 133.52,-101.44 126.11,-99.37 118.94,-97.12"/>
<polygon fill="#63b8ff" stroke="#63b8ff" points="560.02,-155.58 570.17,-152.54 560.34,-148.59 560.02,-155.58"/>
</a>
</g>
</g>
<!-- Node6 -->
<g id="Node000006" class="node">
<title>Node6</title>
<g id="a_Node000006"><a xlink:href="../../db/db6/console__application_8cpp.html" target="_top" xlink:title="Implementations for toy::application::ConsoleApplication.">
<polygon fill="white" stroke="#666666" points="275.74,-103 149.49,-103 149.49,-56.75 275.74,-56.75 275.74,-103"/>
<text xml:space="preserve" text-anchor="start" x="157.49" y="-89.5" font-family="Helvetica,sans-Serif" font-size="10.00">src/platforms/common</text>
<text xml:space="preserve" text-anchor="start" x="157.49" y="-76.75" font-family="Helvetica,sans-Serif" font-size="10.00">/application/console</text>
<text xml:space="preserve" text-anchor="middle" x="212.62" y="-64" font-family="Helvetica,sans-Serif" font-size="10.00">_application.cpp</text>
</a>
</g>
</g>
<!-- Node3&#45;&gt;Node6 -->
<g id="edge5_Node000003_Node000006" class="edge">
<title>Node3&#45;&gt;Node6</title>
<g id="a_edge5_Node000003_Node000006"><a xlink:title=" ">
<path fill="none" stroke="#63b8ff" d="M560.35,-146.93C488.63,-138.78 378.56,-124.21 284.62,-103 281.81,-102.37 278.96,-101.68 276.08,-100.95"/>
<polygon fill="#63b8ff" stroke="#63b8ff" points="559.69,-150.38 570.02,-148.01 560.47,-143.42 559.69,-150.38"/>
</a>
</g>
</g>
<!-- Node7 -->
<g id="Node000007" class="node">
<title>Node7</title>
<g id="a_Node000007"><a xlink:href="../../da/d50/console__application__gba_8cpp.html" target="_top" xlink:title="GBA implementations of toy::application::ConsoleApplication.">
<polygon fill="white" stroke="#666666" points="453.24,-96.62 293.99,-96.62 293.99,-63.12 453.24,-63.12 453.24,-96.62"/>
<text xml:space="preserve" text-anchor="start" x="301.99" y="-83.12" font-family="Helvetica,sans-Serif" font-size="10.00">src/platforms/gba/application</text>
<text xml:space="preserve" text-anchor="middle" x="373.62" y="-70.38" font-family="Helvetica,sans-Serif" font-size="10.00">/console_application_gba.cpp</text>
</a>
</g>
</g>
<!-- Node3&#45;&gt;Node7 -->
<g id="edge6_Node000003_Node000007" class="edge">
<title>Node3&#45;&gt;Node7</title>
<g id="a_edge6_Node000003_Node000007"><a xlink:title=" ">
<path fill="none" stroke="#63b8ff" d="M590.68,-141.85C546.4,-129.41 479.26,-110.55 431.38,-97.1"/>
<polygon fill="#63b8ff" stroke="#63b8ff" points="589.66,-145.2 600.24,-144.53 591.56,-138.46 589.66,-145.2"/>
</a>
</g>
</g>
<!-- Node8 -->
<g id="Node000008" class="node">
<title>Node8</title>
<g id="a_Node000008"><a xlink:href="../../d0/d8a/core__application__linux_8cpp.html" target="_top" xlink:title="Linux implementations of toy::application::CoreApplication via POSIX APIs.">
<polygon fill="white" stroke="#666666" points="627.74,-103 471.49,-103 471.49,-56.75 627.74,-56.75 627.74,-103"/>
<text xml:space="preserve" text-anchor="start" x="479.49" y="-89.5" font-family="Helvetica,sans-Serif" font-size="10.00">src/platforms/linux</text>
<text xml:space="preserve" text-anchor="start" x="479.49" y="-76.75" font-family="Helvetica,sans-Serif" font-size="10.00">/application/core_application</text>
<text xml:space="preserve" text-anchor="middle" x="549.62" y="-64" font-family="Helvetica,sans-Serif" font-size="10.00">_linux.cpp</text>
</a>
</g>
</g>
<!-- Node3&#45;&gt;Node8 -->
<g id="edge7_Node000003_Node000008" class="edge">
<title>Node3&#45;&gt;Node8</title>
<g id="a_edge7_Node000003_Node000008"><a xlink:title=" ">
<path fill="none" stroke="#63b8ff" d="M616.79,-137.91C604.7,-127.65 589.12,-114.41 576,-103.27"/>
<polygon fill="#63b8ff" stroke="#63b8ff" points="614.2,-140.31 624.09,-144.11 618.74,-134.97 614.2,-140.31"/>
</a>
</g>
</g>
<!-- Node9 -->
<g id="Node000009" class="node">
<title>Node9</title>
<g id="a_Node000009"><a xlink:href="../../d8/d89/core__application__macos_8cpp.html" target="_top" xlink:title="macOS implementations of toy::application::CoreApplication via POSIX APIs.">
<polygon fill="white" stroke="#666666" points="801.74,-103 645.49,-103 645.49,-56.75 801.74,-56.75 801.74,-103"/>
<text xml:space="preserve" text-anchor="start" x="653.49" y="-89.5" font-family="Helvetica,sans-Serif" font-size="10.00">src/platforms/macos</text>
<text xml:space="preserve" text-anchor="start" x="653.49" y="-76.75" font-family="Helvetica,sans-Serif" font-size="10.00">/application/core_application</text>
<text xml:space="preserve" text-anchor="middle" x="723.62" y="-64" font-family="Helvetica,sans-Serif" font-size="10.00">_macos.cpp</text>
</a>
</g>
</g>
<!-- Node3&#45;&gt;Node9 -->
<g id="edge8_Node000003_Node000009" class="edge">
<title>Node3&#45;&gt;Node9</title>
<g id="a_edge8_Node000003_Node000009"><a xlink:title=" ">
<path fill="none" stroke="#63b8ff" d="M656.45,-137.91C668.54,-127.65 684.12,-114.41 697.24,-103.27"/>
<polygon fill="#63b8ff" stroke="#63b8ff" points="654.5,-134.97 649.15,-144.11 659.04,-140.31 654.5,-134.97"/>
</a>
</g>
</g>
<!-- Node10 -->
<g id="Node000010" class="node">
<title>Node10</title>
<g id="a_Node000010"><a xlink:href="../../db/da8/core__application__stub_8cpp.html" target="_top" xlink:title="Stub implementation of toy::application::CoreApplication::sleep() for platforms without OS sleep supp...">
<polygon fill="white" stroke="#666666" points="975.74,-103 819.49,-103 819.49,-56.75 975.74,-56.75 975.74,-103"/>
<text xml:space="preserve" text-anchor="start" x="827.49" y="-89.5" font-family="Helvetica,sans-Serif" font-size="10.00">src/platforms/stub</text>
<text xml:space="preserve" text-anchor="start" x="827.49" y="-76.75" font-family="Helvetica,sans-Serif" font-size="10.00">/application/core_application</text>
<text xml:space="preserve" text-anchor="middle" x="897.62" y="-64" font-family="Helvetica,sans-Serif" font-size="10.00">_stub.cpp</text>
</a>
</g>
</g>
<!-- Node3&#45;&gt;Node10 -->
<g id="edge9_Node000003_Node000010" class="edge">
<title>Node3&#45;&gt;Node10</title>
<g id="a_edge9_Node000003_Node000010"><a xlink:title=" ">
<path fill="none" stroke="#63b8ff" d="M681.93,-141.92C719.66,-131.24 774.26,-115.79 819.09,-103.1"/>
<polygon fill="#63b8ff" stroke="#63b8ff" points="681.4,-138.44 672.73,-144.53 683.31,-145.17 681.4,-138.44"/>
</a>
</g>
</g>
<!-- Node11 -->
<g id="Node000011" class="node">
<title>Node11</title>
<g id="a_Node000011"><a xlink:href="../../df/dd0/console__application__windows_8cpp.html" target="_top" xlink:title="Windows console entry&#45;point argument conversion from UTF&#45;16 to UTF&#45;8.">
<polygon fill="white" stroke="#666666" points="1137.37,-103 993.87,-103 993.87,-56.75 1137.37,-56.75 1137.37,-103"/>
<text xml:space="preserve" text-anchor="start" x="1001.87" y="-89.5" font-family="Helvetica,sans-Serif" font-size="10.00">src/platforms/windows</text>
<text xml:space="preserve" text-anchor="start" x="1001.87" y="-76.75" font-family="Helvetica,sans-Serif" font-size="10.00">/application/console</text>
<text xml:space="preserve" text-anchor="middle" x="1065.62" y="-64" font-family="Helvetica,sans-Serif" font-size="10.00">_application_windows.cpp</text>
</a>
</g>
</g>
<!-- Node3&#45;&gt;Node11 -->
<g id="edge10_Node000003_Node000011" class="edge">
<title>Node3&#45;&gt;Node11</title>
<g id="a_edge10_Node000003_Node000011"><a xlink:title=" ">
<path fill="none" stroke="#63b8ff" d="M712.52,-146.11C783.33,-137.42 891.71,-122.53 984.62,-103 987.62,-102.37 990.67,-101.7 993.74,-100.99"/>
<polygon fill="#63b8ff" stroke="#63b8ff" points="712.5,-142.58 702.99,-147.26 713.34,-149.53 712.5,-142.58"/>
</a>
</g>
</g>
<!-- Node12 -->
<g id="Node000012" class="node">
<title>Node12</title>
<g id="a_Node000012"><a xlink:href="../../dc/d2d/core__application__windows_8cpp.html" target="_top" xlink:title="Windows implementations of toy::application::CoreApplication via Win32 APIs.">
<polygon fill="white" stroke="#666666" points="1311.74,-103 1155.49,-103 1155.49,-56.75 1311.74,-56.75 1311.74,-103"/>
<text xml:space="preserve" text-anchor="start" x="1163.49" y="-89.5" font-family="Helvetica,sans-Serif" font-size="10.00">src/platforms/windows</text>
<text xml:space="preserve" text-anchor="start" x="1163.49" y="-76.75" font-family="Helvetica,sans-Serif" font-size="10.00">/application/core_application</text>
<text xml:space="preserve" text-anchor="middle" x="1233.62" y="-64" font-family="Helvetica,sans-Serif" font-size="10.00">_windows.cpp</text>
</a>
</g>
</g>
<!-- Node3&#45;&gt;Node12 -->
<g id="edge11_Node000003_Node000012" class="edge">
<title>Node3&#45;&gt;Node12</title>
<g id="a_edge11_Node000003_Node000012"><a xlink:title=" ">
<path fill="none" stroke="#63b8ff" d="M712.65,-150.56C812.74,-144.23 993.89,-130.02 1146.62,-103 1149.38,-102.51 1152.19,-101.98 1155.01,-101.42"/>
<polygon fill="#63b8ff" stroke="#63b8ff" points="712.72,-147.04 702.96,-151.16 713.16,-154.03 712.72,-147.04"/>
</a>
</g>
</g>
<!-- Node13&#45;&gt;Node4 -->
<g id="edge13_Node000013_Node000004" class="edge">
<title>Node13&#45;&gt;Node4</title>
<g id="a_edge13_Node000013_Node000004"><a xlink:title=" ">
<path fill="none" stroke="#63b8ff" d="M1455.73,-65.18C1463.6,-62.34 1471.87,-59.41 1479.62,-56.75 1516.71,-44.02 1559.66,-30.24 1588.1,-21.25"/>
<polygon fill="#63b8ff" stroke="#63b8ff" points="1454.6,-61.87 1446.39,-68.58 1456.99,-68.45 1454.6,-61.87"/>
</a>
</g>
</g>
<!-- Node14&#45;&gt;Node4 -->
<g id="edge15_Node000014_Node000004" class="edge">
<title>Node14&#45;&gt;Node4</title>
<g id="a_edge15_Node000014_Node000004"><a xlink:title=" ">
<path fill="none" stroke="#63b8ff" d="M1559.77,-61.87C1574.97,-49.05 1595.3,-31.9 1607.92,-21.25"/>
<polygon fill="#63b8ff" stroke="#63b8ff" points="1557.62,-59.1 1552.24,-68.23 1562.14,-64.45 1557.62,-59.1"/>
</a>
</g>
</g>
<!-- Node15&#45;&gt;Node4 -->
<g id="edge19_Node000015_Node000004" class="edge">
<title>Node15&#45;&gt;Node4</title>
<g id="a_edge19_Node000015_Node000004"><a xlink:title=" ">
<path fill="none" stroke="#63b8ff" d="M1657.74,-135.8C1651.4,-126.35 1644.27,-114.51 1639.62,-103 1628.08,-74.47 1622.68,-38.13 1620.64,-21.06"/>
<polygon fill="#63b8ff" stroke="#63b8ff" points="1654.7,-137.56 1663.3,-143.75 1660.44,-133.55 1654.7,-137.56"/>
</a>
</g>
</g>
<!-- Node16 -->
<g id="Node000016" class="node">
<title>Node16</title>
<g id="a_Node000016"><a xlink:href="../../db/dbb/geometry_8hpp.html" target="_top" xlink:title="Umbrella header for the geometry module.">
<polygon fill="white" stroke="#666666" points="1769.12,-90.25 1648.12,-90.25 1648.12,-69.5 1769.12,-69.5 1769.12,-90.25"/>
<text xml:space="preserve" text-anchor="middle" x="1708.62" y="-76.75" font-family="Helvetica,sans-Serif" font-size="10.00">include/geometry.hpp</text>
</a>
</g>
</g>
<!-- Node15&#45;&gt;Node16 -->
<g id="edge17_Node000015_Node000016" class="edge">
<title>Node15&#45;&gt;Node16</title>
<g id="a_edge17_Node000015_Node000016"><a xlink:title=" ">
<path fill="none" stroke="#63b8ff" d="M1681.46,-135.11C1688.71,-120.62 1698.27,-101.54 1703.9,-90.3"/>
<polygon fill="#63b8ff" stroke="#63b8ff" points="1678.48,-133.23 1677.13,-143.74 1684.74,-136.36 1678.48,-133.23"/>
</a>
</g>
</g>
<!-- Node16&#45;&gt;Node4 -->
<g id="edge18_Node000016_Node000004" class="edge">
<title>Node16&#45;&gt;Node4</title>
<g id="a_edge18_Node000016_Node000004"><a xlink:title=" ">
<path fill="none" stroke="#63b8ff" d="M1687.15,-62.59C1670.15,-49.7 1646.94,-32.1 1632.64,-21.25"/>
<polygon fill="#63b8ff" stroke="#63b8ff" points="1684.58,-65.04 1694.66,-68.29 1688.81,-59.46 1684.58,-65.04"/>
</a>
</g>
</g>
<!-- Node17&#45;&gt;Node4 -->
<g id="edge21_Node000017_Node000004" class="edge">
<title>Node17&#45;&gt;Node4</title>
<g id="a_edge21_Node000017_Node000004"><a xlink:title=" ">
<path fill="none" stroke="#63b8ff" d="M1799.48,-133.59C1800.2,-111.61 1797.71,-77.57 1778.62,-56.75 1753.4,-29.25 1712.79,-17.97 1678.93,-13.54"/>
<polygon fill="#63b8ff" stroke="#63b8ff" points="1795.99,-133.25 1798.88,-143.44 1802.98,-133.67 1795.99,-133.25"/>
</a>
</g>
</g>
<!-- Node18 -->
<g id="Node000018" class="node">
<title>Node18</title>
<g id="a_Node000018"><a xlink:href="../../d3/d80/endpoint_8cpp.html" target="_top" xlink:title="Definitions for the toy::network::Endpoint destructor declared in network/endpoint....">
<polygon fill="white" stroke="#666666" points="1965.12,-90.25 1826.12,-90.25 1826.12,-69.5 1965.12,-69.5 1965.12,-90.25"/>
<text xml:space="preserve" text-anchor="middle" x="1895.62" y="-76.75" font-family="Helvetica,sans-Serif" font-size="10.00">src/network/endpoint.cpp</text>
</a>
</g>
</g>
<!-- Node17&#45;&gt;Node18 -->
<g id="edge22_Node000017_Node000018" class="edge">
<title>Node17&#45;&gt;Node18</title>
<g id="a_edge22_Node000017_Node000018"><a xlink:title=" ">
<path fill="none" stroke="#63b8ff" d="M1819.48,-138.27C1838.94,-123.6 1866.74,-102.65 1882.8,-90.54"/>
<polygon fill="#63b8ff" stroke="#63b8ff" points="1817.52,-135.37 1811.64,-144.18 1821.73,-140.96 1817.52,-135.37"/>
</a>
</g>
</g>
<!-- Node19&#45;&gt;Node4 -->
<g id="edge24_Node000019_Node000004" class="edge">
<title>Node19&#45;&gt;Node4</title>
<g id="a_edge24_Node000019_Node000004"><a xlink:title=" ">
<path fill="none" stroke="#63b8ff" d="M2008.29,-65.64C1997.47,-62.36 1985.67,-59.11 1974.62,-56.75 1871.78,-34.76 1749.76,-22.01 1678.86,-15.9"/>
<polygon fill="#63b8ff" stroke="#63b8ff" points="2007.1,-68.93 2017.69,-68.58 2009.19,-62.25 2007.1,-68.93"/>
</a>
</g>
</g>
<!-- Node20&#45;&gt;Node4 -->
<g id="edge26_Node000020_Node000004" class="edge">
<title>Node20&#45;&gt;Node4</title>
<g id="a_edge26_Node000020_Node000004"><a xlink:title=" ">
<path fill="none" stroke="#63b8ff" d="M2012.92,-141.9C2056.56,-129.8 2114.97,-112.2 2121.62,-103 2133.67,-86.34 2135.49,-71.93 2121.62,-56.75 2092.25,-24.61 1805.2,-15.02 1678.83,-12.34"/>
<polygon fill="#63b8ff" stroke="#63b8ff" points="2012.08,-138.5 2003.36,-144.52 2013.93,-145.25 2012.08,-138.5"/>
</a>
</g>
</g>
<!-- Node21 -->
<g id="Node000021" class="node">
<title>Node21</title>
<g id="a_Node000021"><a xlink:href="../../db/d3d/pixel__format_8cpp.html" target="_top" xlink:title="Definitions for pixelFormatName() and pixelFormatFromName() declared in render/pixel_format....">
<polygon fill="white" stroke="#666666" points="2318.37,-90.25 2168.87,-90.25 2168.87,-69.5 2318.37,-69.5 2318.37,-90.25"/>
<text xml:space="preserve" text-anchor="middle" x="2243.62" y="-76.75" font-family="Helvetica,sans-Serif" font-size="10.00">src/render/pixel_format.cpp</text>
</a>
</g>
</g>
<!-- Node20&#45;&gt;Node21 -->
<g id="edge27_Node000020_Node000021" class="edge">
<title>Node20&#45;&gt;Node21</title>
<g id="a_edge27_Node000020_Node000021"><a xlink:title=" ">
<path fill="none" stroke="#63b8ff" d="M2012.52,-142.07C2067.47,-127.52 2156.41,-103.97 2206.42,-90.73"/>
<polygon fill="#63b8ff" stroke="#63b8ff" points="2011.9,-138.61 2003.13,-144.55 2013.69,-145.38 2011.9,-138.61"/>
</a>
</g>
</g>
</g>
</svg>
