<?xml version="1.0" encoding="UTF-8" standalone="no"?>
<!DOCTYPE svg PUBLIC "-//W3C//DTD SVG 1.1//EN"
 "http://www.w3.org/Graphics/SVG/1.1/DTD/svg11.dtd">
<!-- Generated by graphviz version 2.43.0 (0)
 -->
<!-- Title: toy::FixedVector::operator= Pages: 1 -->
<svg width="302pt" height="56pt"
 viewBox="0.00 0.00 302.00 56.00" xmlns="http://www.w3.org/2000/svg" xmlns:xlink="http://www.w3.org/1999/xlink">
<g id="graph0" class="graph" transform="scale(1 1) rotate(0) translate(4 52)">
<title>toy::FixedVector::operator=</title>
<!-- Node1 -->
<g id="Node000001" class="node">
<title>Node1</title>
<g id="a_Node000001"><a xlink:title="Move assigns other FixedVector to this FixedVector.">
<polygon fill="#999999" stroke="#666666" points="149,-24.5 0,-24.5 0,-5.5 149,-5.5 149,-24.5"/>
<text text-anchor="middle" x="74.5" y="-12.5" font-family="Helvetica,sans-Serif" font-size="10.00">toy::FixedVector::operator=</text>
</a>
</g>
</g>
<!-- Node2 -->
<g id="Node000002" class="node">
<title>Node2</title>
<g id="a_Node000002"><a xlink:href="../../d7/d15/classtoy_1_1_o_string_stream.html#a2771f205d9b13c0281df543a5c50254f" target="_top" xlink:title=" ">
<polygon fill="white" stroke="#666666" points="294,-30 185,-30 185,0 294,0 294,-30"/>
<text text-anchor="start" x="193" y="-18" font-family="Helvetica,sans-Serif" font-size="10.00">toy::OStringStream</text>
<text text-anchor="middle" x="239.5" y="-7" font-family="Helvetica,sans-Serif" font-size="10.00">::operator&lt;&lt;</text>
</a>
</g>
</g>
<!-- Node1&#45;&gt;Node2 -->
<g id="edge1_Node000001_Node000002" class="edge">
<title>Node1&#45;&gt;Node2</title>
<g id="a_edge1_Node000001_Node000002"><a xlink:title=" ">
<path fill="none" stroke="#63b8ff" d="M149.37,-15C157.87,-15 166.49,-15 174.84,-15"/>
<polygon fill="#63b8ff" stroke="#63b8ff" points="174.87,-18.5 184.87,-15 174.87,-11.5 174.87,-18.5"/>
</a>
</g>
</g>
<!-- Node2&#45;&gt;Node2 -->
<g id="edge2_Node000002_Node000002" class="edge">
<title>Node2&#45;&gt;Node2</title>
<g id="a_edge2_Node000002_Node000002"><a xlink:title=" ">
<path fill="none" stroke="#63b8ff" d="M210.67,-30.28C204.27,-39.41 213.88,-48 239.5,-48 254.71,-48 264.28,-44.97 268.21,-40.6"/>
<polygon fill="#63b8ff" stroke="#63b8ff" points="271.71,-40.32 268.33,-30.28 264.71,-40.23 271.71,-40.32"/>
</a>
</g>
</g>
</g>
</svg>
