<?xml version="1.0" encoding="UTF-8" standalone="no"?>
<!DOCTYPE svg PUBLIC "-//W3C//DTD SVG 1.1//EN"
 "http://www.w3.org/Graphics/SVG/1.1/DTD/svg11.dtd">
<!-- Generated by graphviz version 2.43.0 (0)
 -->
<!-- Title: toy::FixedVector::cbegin Pages: 1 -->
<svg width="285pt" height="56pt"
 viewBox="0.00 0.00 285.00 56.00" xmlns="http://www.w3.org/2000/svg" xmlns:xlink="http://www.w3.org/1999/xlink">
<g id="graph0" class="graph" transform="scale(1 1) rotate(0) translate(4 52)">
<title>toy::FixedVector::cbegin</title>
<!-- Node1 -->
<g id="Node000001" class="node">
<title>Node1</title>
<g id="a_Node000001"><a xlink:title="Returns a const iterator to the first element of the vector.">
<polygon fill="#999999" stroke="#666666" points="132,-24.5 0,-24.5 0,-5.5 132,-5.5 132,-24.5"/>
<text text-anchor="middle" x="66" y="-12.5" font-family="Helvetica,sans-Serif" font-size="10.00">toy::FixedVector::cbegin</text>
</a>
</g>
</g>
<!-- Node2 -->
<g id="Node000002" class="node">
<title>Node2</title>
<g id="a_Node000002"><a xlink:href="../../d7/d15/classtoy_1_1_o_string_stream.html#a2771f205d9b13c0281df543a5c50254f" target="_top" xlink:title=" ">
<polygon fill="white" stroke="#666666" points="277,-30 168,-30 168,0 277,0 277,-30"/>
<text text-anchor="start" x="176" y="-18" font-family="Helvetica,sans-Serif" font-size="10.00">toy::OStringStream</text>
<text text-anchor="middle" x="222.5" y="-7" font-family="Helvetica,sans-Serif" font-size="10.00">::operator&lt;&lt;</text>
</a>
</g>
</g>
<!-- Node1&#45;&gt;Node2 -->
<g id="edge1_Node000001_Node000002" class="edge">
<title>Node1&#45;&gt;Node2</title>
<g id="a_edge1_Node000001_Node000002"><a xlink:title=" ">
<path fill="none" stroke="#63b8ff" d="M132.07,-15C140.52,-15 149.16,-15 157.58,-15"/>
<polygon fill="#63b8ff" stroke="#63b8ff" points="157.72,-18.5 167.72,-15 157.72,-11.5 157.72,-18.5"/>
</a>
</g>
</g>
<!-- Node2&#45;&gt;Node2 -->
<g id="edge2_Node000002_Node000002" class="edge">
<title>Node2&#45;&gt;Node2</title>
<g id="a_edge2_Node000002_Node000002"><a xlink:title=" ">
<path fill="none" stroke="#63b8ff" d="M195.08,-30.28C188.98,-39.41 198.12,-48 222.5,-48 236.97,-48 246.07,-44.97 249.81,-40.6"/>
<polygon fill="#63b8ff" stroke="#63b8ff" points="253.31,-40.31 249.92,-30.28 246.31,-40.24 253.31,-40.31"/>
</a>
</g>
</g>
</g>
</svg>
