<?xml version="1.0" encoding="UTF-8" standalone="no"?>
<!DOCTYPE svg PUBLIC "-//W3C//DTD SVG 1.1//EN"
 "http://www.w3.org/Graphics/SVG/1.1/DTD/svg11.dtd">
<!-- Generated by graphviz version 2.43.0 (0)
 -->
<!-- Title: toy::FixedVector::begin Pages: 1 -->
<svg width="280pt" height="56pt"
 viewBox="0.00 0.00 280.00 56.00" xmlns="http://www.w3.org/2000/svg" xmlns:xlink="http://www.w3.org/1999/xlink">
<g id="graph0" class="graph" transform="scale(1 1) rotate(0) translate(4 52)">
<title>toy::FixedVector::begin</title>
<!-- Node1 -->
<g id="Node000001" class="node">
<title>Node1</title>
<g id="a_Node000001"><a xlink:title="Returns an iterator to the first element of the vector.">
<polygon fill="#999999" stroke="#666666" points="127,-24.5 0,-24.5 0,-5.5 127,-5.5 127,-24.5"/>
<text text-anchor="middle" x="63.5" y="-12.5" font-family="Helvetica,sans-Serif" font-size="10.00">toy::FixedVector::begin</text>
</a>
</g>
</g>
<!-- Node2 -->
<g id="Node000002" class="node">
<title>Node2</title>
<g id="a_Node000002"><a xlink:href="../../d7/d15/classtoy_1_1_o_string_stream.html#a2771f205d9b13c0281df543a5c50254f" target="_top" xlink:title=" ">
<polygon fill="white" stroke="#666666" points="272,-30 163,-30 163,0 272,0 272,-30"/>
<text text-anchor="start" x="171" y="-18" font-family="Helvetica,sans-Serif" font-size="10.00">toy::OStringStream</text>
<text text-anchor="middle" x="217.5" y="-7" font-family="Helvetica,sans-Serif" font-size="10.00">::operator&lt;&lt;</text>
</a>
</g>
</g>
<!-- Node1&#45;&gt;Node2 -->
<g id="edge1_Node000001_Node000002" class="edge">
<title>Node1&#45;&gt;Node2</title>
<g id="a_edge1_Node000001_Node000002"><a xlink:title=" ">
<path fill="none" stroke="#63b8ff" d="M127.2,-15C135.57,-15 144.17,-15 152.56,-15"/>
<polygon fill="#63b8ff" stroke="#63b8ff" points="152.67,-18.5 162.67,-15 152.67,-11.5 152.67,-18.5"/>
</a>
</g>
</g>
<!-- Node2&#45;&gt;Node2 -->
<g id="edge2_Node000002_Node000002" class="edge">
<title>Node2&#45;&gt;Node2</title>
<g id="a_edge2_Node000002_Node000002"><a xlink:title=" ">
<path fill="none" stroke="#63b8ff" d="M190.43,-30.28C184.41,-39.41 193.44,-48 217.5,-48 231.79,-48 240.77,-44.97 244.46,-40.6"/>
<polygon fill="#63b8ff" stroke="#63b8ff" points="247.96,-40.31 244.57,-30.28 240.96,-40.24 247.96,-40.31"/>
</a>
</g>
</g>
</g>
</svg>
