<?xml version="1.0" encoding="UTF-8" standalone="no"?>
<!DOCTYPE svg PUBLIC "-//W3C//DTD SVG 1.1//EN"
 "http://www.w3.org/Graphics/SVG/1.1/DTD/svg11.dtd">
<!-- Generated by graphviz version 2.43.0 (0)
 -->
<!-- Title: toy::FixedVector::crbegin Pages: 1 -->
<svg width="289pt" height="56pt"
 viewBox="0.00 0.00 289.00 56.00" xmlns="http://www.w3.org/2000/svg" xmlns:xlink="http://www.w3.org/1999/xlink">
<g id="graph0" class="graph" transform="scale(1 1) rotate(0) translate(4 52)">
<title>toy::FixedVector::crbegin</title>
<!-- Node1 -->
<g id="Node000001" class="node">
<title>Node1</title>
<g id="a_Node000001"><a xlink:title="Returns a const reverse iterator to the last element of the vector.">
<polygon fill="#999999" stroke="#666666" points="136,-24.5 0,-24.5 0,-5.5 136,-5.5 136,-24.5"/>
<text text-anchor="middle" x="68" y="-12.5" font-family="Helvetica,sans-Serif" font-size="10.00">toy::FixedVector::crbegin</text>
</a>
</g>
</g>
<!-- Node2 -->
<g id="Node000002" class="node">
<title>Node2</title>
<g id="a_Node000002"><a xlink:href="../../d7/d15/classtoy_1_1_o_string_stream.html#a2771f205d9b13c0281df543a5c50254f" target="_top" xlink:title=" ">
<polygon fill="white" stroke="#666666" points="281,-30 172,-30 172,0 281,0 281,-30"/>
<text text-anchor="start" x="180" y="-18" font-family="Helvetica,sans-Serif" font-size="10.00">toy::OStringStream</text>
<text text-anchor="middle" x="226.5" y="-7" font-family="Helvetica,sans-Serif" font-size="10.00">::operator&lt;&lt;</text>
</a>
</g>
</g>
<!-- Node1&#45;&gt;Node2 -->
<g id="edge1_Node000001_Node000002" class="edge">
<title>Node1&#45;&gt;Node2</title>
<g id="a_edge1_Node000001_Node000002"><a xlink:title=" ">
<path fill="none" stroke="#63b8ff" d="M136.28,-15C144.76,-15 153.42,-15 161.84,-15"/>
<polygon fill="#63b8ff" stroke="#63b8ff" points="161.97,-18.5 171.97,-15 161.97,-11.5 161.97,-18.5"/>
</a>
</g>
</g>
<!-- Node2&#45;&gt;Node2 -->
<g id="edge2_Node000002_Node000002" class="edge">
<title>Node2&#45;&gt;Node2</title>
<g id="a_edge2_Node000002_Node000002"><a xlink:title=" ">
<path fill="none" stroke="#63b8ff" d="M198.73,-30.28C192.55,-39.41 201.81,-48 226.5,-48 241.16,-48 250.38,-44.97 254.16,-40.6"/>
<polygon fill="#63b8ff" stroke="#63b8ff" points="257.66,-40.31 254.27,-30.28 250.66,-40.23 257.66,-40.31"/>
</a>
</g>
</g>
</g>
</svg>
